<svg width="24" height="24" viewBox="0 0 24 24" fill="none" xmlns="http://www.w3.org/2000/svg">
<path fill-rule="evenodd" clip-rule="evenodd" d="M3.45035 19.4574C3.75022 19.7576 4.10266 19.9077 4.50765 19.9077H19.4924C19.8973 19.9077 20.2498 19.7576 20.5497 19.4574C20.8499 19.1575 21 18.8051 21 18.4001V7.91509C21 7.5101 20.8499 7.15767 20.5497 6.8578C20.2498 6.55792 19.8973 6.40798 19.4924 6.40798H14.4526V3.41536C14.4526 3.01037 14.3063 2.65794 14.0136 2.35807C13.7213 2.05783 13.3727 1.90771 12.9677 1.90771H11.055C10.65 1.90771 10.2976 2.05783 9.99772 2.35807C9.69749 2.65794 9.54737 3.01037 9.54737 3.41536V6.40798H4.50765C4.10266 6.40798 3.75022 6.55792 3.45035 6.8578C3.15012 7.15767 3 7.5101 3 7.91509V18.4001C3 18.8051 3.15012 19.1575 3.45035 19.4574ZM19.4924 18.4001H4.50765V7.91509H9.54737C9.54737 8.35033 9.70109 8.70672 10.0085 8.98427C10.3163 9.26147 10.6876 9.40007 11.1225 9.40007H12.8775C13.3275 9.40007 13.7024 9.26147 14.0023 8.98427C14.3025 8.70672 14.4526 8.35033 14.4526 7.91509H19.4924V18.4001ZM17.6699 14.7551H13.9126V13.5402H17.6699V14.7551ZM17.6699 12.1454H13.9126V10.9525H17.6699V12.1454ZM12.9677 7.91509H11.055V3.41536H12.9677V7.91509ZM6.06048 10.908V16.4428H12.5404V12.0322H9.54249V10.908H6.06048ZM8.73832 15.5059H6.86466V11.7039H8.73832V15.5059ZM11.7362 15.6386H9.30042V12.8281H11.7362V15.6386ZM9.86251 13.9744V14.5365H11.1741V13.9744H9.86251Z" fill="black"/>
</svg>
