<svg width="49" height="50" viewBox="0 0 49 50" fill="none" xmlns="http://www.w3.org/2000/svg">
<g filter="url(#filter0_f_26_13332)">
<path d="M44.065 19.6862C44.065 29.6266 36.0067 37.6849 26.0663 37.6849C16.1259 37.6849 8.06763 29.6266 8.06763 19.6862C8.06763 9.74579 16.1259 1.6875 26.0663 1.6875C36.0067 1.6875 44.065 9.74579 44.065 19.6862Z" fill="url(#paint0_linear_26_13332)"/>
</g>
<g filter="url(#filter1_di_26_13332)">
<path fill-rule="evenodd" clip-rule="evenodd" d="M43.9755 15.4091L42.4958 2.19072C42.4762 2.00062 42.3866 1.82465 42.2444 1.69701C42.1021 1.56937 41.9177 1.499 41.7266 1.50001H39.1814C38.9893 1.50263 38.8044 1.57362 38.6598 1.70014C38.5152 1.82667 38.4206 2.00065 38.3925 2.19072L36.5771 18.5657C36.5575 18.7558 36.4679 18.9318 36.3256 19.0594C36.1834 19.1871 35.9989 19.2572 35.8078 19.2562H26.4365C26.2272 19.2562 26.0263 19.1732 25.8783 19.0252C25.7303 18.8772 25.6475 18.6765 25.6475 18.4672V12.7655C25.6453 12.628 25.6069 12.4936 25.5368 12.3753C25.4666 12.2571 25.3669 12.1592 25.2473 12.0914C25.1277 12.0236 24.9927 11.9882 24.8552 11.9888C24.7177 11.9894 24.5826 12.0258 24.4636 12.0945L18.9591 15.4881C18.8396 15.5618 18.7026 15.6023 18.5622 15.6054C18.4218 15.6085 18.2831 15.574 18.1605 15.5057C18.0379 15.4373 17.9359 15.3375 17.8648 15.2164C17.7936 15.0954 17.7561 14.9575 17.7559 14.8171V12.8442C17.7537 12.7068 17.7153 12.5723 17.6451 12.4541C17.575 12.3359 17.4752 12.2382 17.3556 12.1704C17.236 12.1026 17.101 12.0672 16.9636 12.0678C16.8261 12.0684 16.691 12.1048 16.572 12.1735L6.80616 18.0922C6.21266 18.4348 5.71866 18.9262 5.37272 19.5177C5.02678 20.1093 4.84083 20.7806 4.83325 21.4658V42.9311C4.83325 43.9776 5.24879 44.9814 5.98877 45.7214C6.72876 46.4614 7.73257 46.8769 8.77907 46.8769H40.3456C41.3921 46.8769 42.3955 46.4614 43.1354 45.7214C43.8754 44.9814 44.2914 43.9776 44.2914 42.9311V23.202C44.3273 20.6005 44.2216 17.9992 43.9755 15.4091Z" fill="url(#paint1_linear_26_13332)" fill-opacity="0.6" shape-rendering="crispEdges"/>
<path d="M42.3094 2.21158L42.3093 2.20995C42.2944 2.06616 42.2267 1.93309 42.1191 1.83656C42.0114 1.73989 41.8719 1.68675 41.7275 1.68751L41.7266 1.68751L39.1828 1.68751C39.0357 1.6898 38.8941 1.74429 38.7833 1.84125C38.6731 1.93764 38.6006 2.07005 38.5784 2.21501L42.3094 2.21158ZM42.3094 2.21158L43.7888 15.4269C43.7888 15.4273 43.7889 15.4278 43.7889 15.4283C44.0344 18.0111 44.1397 20.6053 44.1039 23.1994V23.202V42.9311C44.1039 43.9278 43.7077 44.884 43.0028 45.5888C42.298 46.2936 41.3424 46.6894 40.3456 46.6894H8.77907C7.78227 46.6894 6.82615 46.2936 6.12135 45.5888C5.41656 44.884 5.02075 43.9279 5.02075 42.9311V21.4669C5.02815 20.8146 5.20524 20.1756 5.53457 19.6124C5.86408 19.0489 6.33462 18.5809 6.8999 18.2546L6.89992 18.2547L6.90334 18.2526L16.6673 12.335C16.7576 12.2832 16.8601 12.2557 16.9643 12.2553C17.0691 12.2549 17.1719 12.2818 17.2632 12.3335C17.3544 12.3852 17.4304 12.4597 17.4839 12.5498C17.5373 12.6398 17.5665 12.7419 17.5684 12.8458V14.8171V14.8174M42.3094 2.21158L17.5684 14.8174M17.5684 14.8174C17.5686 14.991 17.615 15.1617 17.7031 15.3115C17.7911 15.4611 17.9173 15.5848 18.0692 15.6695C18.221 15.754 18.3926 15.7967 18.5664 15.7928C18.74 15.789 18.9096 15.7389 19.0575 15.6477C19.0575 15.6477 19.0575 15.6477 19.0575 15.6477L24.5595 12.2556C24.6497 12.2041 24.7519 12.1767 24.856 12.1763C24.9607 12.1759 25.0636 12.2028 25.1548 12.2545C25.2459 12.3061 25.322 12.3808 25.3755 12.471C25.429 12.5611 25.4581 12.6631 25.46 12.7671V18.4672C25.46 18.726 25.5623 18.9745 25.7457 19.1578C25.929 19.3411 26.1777 19.4437 26.4365 19.4437L35.8068 19.4437L35.8078 19.2562V19.4437H35.8072C36.0448 19.4449 36.2741 19.3576 36.4509 19.199C36.6276 19.0404 36.739 18.8217 36.7635 18.5855M17.5684 14.8174L36.7635 18.5855M36.7635 18.5855C36.7635 18.5853 36.7635 18.5851 36.7636 18.5849L36.7635 18.5855Z" stroke="url(#paint2_linear_26_13332)" stroke-width="0.375" shape-rendering="crispEdges"/>
</g>
<g filter="url(#filter2_di_26_13332)">
<path d="M10.7629 31.3751C10.7629 30.1324 11.7703 29.125 13.0131 29.125H15.418C16.6607 29.125 17.6681 30.1324 17.6681 31.3751V33.7801C17.6681 35.0228 16.6607 36.0302 15.418 36.0302H13.0131C11.7703 36.0302 10.7629 35.0228 10.7629 33.7801V31.3751Z" fill="white"/>
<path d="M21.1207 31.3751C21.1207 30.1324 22.1281 29.125 23.3708 29.125H25.7758C27.0185 29.125 28.0259 30.1324 28.0259 31.3751V33.7801C28.0259 35.0228 27.0185 36.0302 25.7758 36.0302H23.3708C22.1281 36.0302 21.1207 35.0228 21.1207 33.7801V31.3751Z" fill="white"/>
<path d="M31.4785 31.3751C31.4785 30.1324 32.4859 29.125 33.7286 29.125H36.1336C37.3763 29.125 38.3837 30.1324 38.3837 31.3751V33.7801C38.3837 35.0228 37.3763 36.0302 36.1336 36.0302H33.7286C32.4859 36.0302 31.4785 35.0228 31.4785 33.7801V31.3751Z" fill="white"/>
</g>
<defs>
<filter id="filter0_f_26_13332" x="6.94263" y="0.5625" width="38.2473" height="38.2474" filterUnits="userSpaceOnUse" color-interpolation-filters="sRGB">
<feFlood flood-opacity="0" result="BackgroundImageFix"/>
<feBlend mode="normal" in="SourceGraphic" in2="BackgroundImageFix" result="shape"/>
<feGaussianBlur stdDeviation="0.5625" result="effect1_foregroundBlur_26_13332"/>
</filter>
<filter id="filter1_di_26_13332" x="3.33325" y="0.75" width="42.4651" height="48.377" filterUnits="userSpaceOnUse" color-interpolation-filters="sRGB">
<feFlood flood-opacity="0" result="BackgroundImageFix"/>
<feColorMatrix in="SourceAlpha" type="matrix" values="0 0 0 0 0 0 0 0 0 0 0 0 0 0 0 0 0 0 127 0" result="hardAlpha"/>
<feOffset dy="0.75"/>
<feGaussianBlur stdDeviation="0.75"/>
<feComposite in2="hardAlpha" operator="out"/>
<feColorMatrix type="matrix" values="0 0 0 0 0 0 0 0 0 0 0 0 0 0 0 0 0 0 0.25 0"/>
<feBlend mode="normal" in2="BackgroundImageFix" result="effect1_dropShadow_26_13332"/>
<feBlend mode="normal" in="SourceGraphic" in2="effect1_dropShadow_26_13332" result="shape"/>
<feColorMatrix in="SourceAlpha" type="matrix" values="0 0 0 0 0 0 0 0 0 0 0 0 0 0 0 0 0 0 127 0" result="hardAlpha"/>
<feOffset dx="0.75" dy="0.75"/>
<feGaussianBlur stdDeviation="0.75"/>
<feComposite in2="hardAlpha" operator="arithmetic" k2="-1" k3="1"/>
<feColorMatrix type="matrix" values="0 0 0 0 1 0 0 0 0 1 0 0 0 0 1 0 0 0 0.7 0"/>
<feBlend mode="normal" in2="shape" result="effect2_innerShadow_26_13332"/>
</filter>
<filter id="filter2_di_26_13332" x="10.0129" y="28.75" width="29.1206" height="8.40515" filterUnits="userSpaceOnUse" color-interpolation-filters="sRGB">
<feFlood flood-opacity="0" result="BackgroundImageFix"/>
<feColorMatrix in="SourceAlpha" type="matrix" values="0 0 0 0 0 0 0 0 0 0 0 0 0 0 0 0 0 0 127 0" result="hardAlpha"/>
<feOffset dy="0.375"/>
<feGaussianBlur stdDeviation="0.375"/>
<feComposite in2="hardAlpha" operator="out"/>
<feColorMatrix type="matrix" values="0 0 0 0 0 0 0 0 0 0 0 0 0 0 0 0 0 0 0.25 0"/>
<feBlend mode="normal" in2="BackgroundImageFix" result="effect1_dropShadow_26_13332"/>
<feBlend mode="normal" in="SourceGraphic" in2="effect1_dropShadow_26_13332" result="shape"/>
<feColorMatrix in="SourceAlpha" type="matrix" values="0 0 0 0 0 0 0 0 0 0 0 0 0 0 0 0 0 0 127 0" result="hardAlpha"/>
<feOffset dy="-0.1875"/>
<feGaussianBlur stdDeviation="0.1875"/>
<feComposite in2="hardAlpha" operator="arithmetic" k2="-1" k3="1"/>
<feColorMatrix type="matrix" values="0 0 0 0 0 0 0 0 0 0 0 0 0 0 0 0 0 0 0.15 0"/>
<feBlend mode="normal" in2="shape" result="effect2_innerShadow_26_13332"/>
</filter>
<linearGradient id="paint0_linear_26_13332" x1="13.3393" y1="6.9592" x2="38.7933" y2="32.4132" gradientUnits="userSpaceOnUse">
<stop stop-color="#0D72FF"/>
<stop offset="0.5133" stop-color="#9B69C6"/>
<stop offset="1" stop-color="#E13019"/>
</linearGradient>
<linearGradient id="paint1_linear_26_13332" x1="44.2983" y1="46.8769" x2="0.317084" y2="41.9688" gradientUnits="userSpaceOnUse">
<stop stop-color="white"/>
<stop offset="1" stop-color="#0D72FF"/>
</linearGradient>
<linearGradient id="paint2_linear_26_13332" x1="10.6128" y1="8.1453" x2="42.389" y2="35.7816" gradientUnits="userSpaceOnUse">
<stop stop-color="white"/>
<stop offset="1" stop-color="white" stop-opacity="0"/>
</linearGradient>
</defs>
</svg>
