<svg width="24" height="24" viewBox="0 0 24 24" fill="none" xmlns="http://www.w3.org/2000/svg">
<path d="M4.50765 20C4.10266 20 3.75022 19.8499 3.45035 19.5497C3.15012 19.2498 3 18.8973 3 18.4924V8.00738C3 7.60239 3.15012 7.24996 3.45035 6.95008C3.75022 6.65021 4.10266 6.50027 4.50765 6.50027H9.54737V3.50765C9.54737 3.10266 9.69749 2.75022 9.99772 2.45035C10.2976 2.15012 10.65 2 11.055 2H12.9677C13.3727 2 13.7213 2.15012 14.0136 2.45035C14.3063 2.75022 14.4526 3.10266 14.4526 3.50765V6.50027H19.4924C19.8973 6.50027 20.2498 6.65021 20.5497 6.95008C20.8499 7.24996 21 7.60239 21 8.00738V18.4924C21 18.8973 20.8499 19.2498 20.5497 19.5497C20.2498 19.8499 19.8973 20 19.4924 20H4.50765ZM4.50765 18.4924H19.4924V8.00738H14.4526C14.4526 8.44261 14.3025 8.799 14.0023 9.07656C13.7024 9.35375 13.3275 9.49235 12.8775 9.49235H11.1225C10.6876 9.49235 10.3163 9.35375 10.0085 9.07656C9.70109 8.799 9.54737 8.44261 9.54737 8.00738H4.50765V18.4924ZM6.48779 16.2876H11.865V15.9501C11.865 15.6801 11.7975 15.44 11.6625 15.2297C11.5275 15.0199 11.3475 14.8699 11.1225 14.7799C10.7024 14.6298 10.35 14.5249 10.0652 14.4651C9.7801 14.405 9.49499 14.3749 9.20988 14.3749C8.91 14.3749 8.59879 14.4088 8.27623 14.4765C7.95368 14.5438 7.61241 14.6449 7.25242 14.7799C7.01266 14.8699 6.82528 15.0199 6.69029 15.2297C6.55529 15.44 6.48779 15.6801 6.48779 15.9501V16.2876ZM13.9126 14.8474H17.6699V13.6324H13.9126V14.8474ZM9.20988 13.6324C9.55511 13.6324 9.85138 13.5124 10.0987 13.2723C10.3464 13.0325 10.4702 12.7326 10.4702 12.3727C10.4702 12.0274 10.3464 11.7311 10.0987 11.4838C9.85138 11.2362 9.55511 11.1123 9.20988 11.1123C8.865 11.1123 8.56891 11.2362 8.32159 11.4838C8.07392 11.7311 7.95008 12.0274 7.95008 12.3727C7.95008 12.7326 8.07392 13.0325 8.32159 13.2723C8.56891 13.5124 8.865 13.6324 9.20988 13.6324ZM13.9126 12.2377H17.6699V11.0448H13.9126V12.2377ZM11.055 8.00738H12.9677V3.50765H11.055V8.00738Z" fill="black"/>
</svg>
