<svg width="464" height="284" viewBox="0 0 464 284" fill="none" xmlns="http://www.w3.org/2000/svg">
    <path d="M133.907 272.381c50.929 1.653 106.042-7.498 152.257 1.184 33.879 6.367 71.87 15.48 106.333 7 35.603-8.758 80.459-38.94 69.945-81.474-3.459-13.986-16.5-18.781-24.2-29.538-9.829-13.727-6.588-27.405-1.482-42.544 8.459-25.08 21.509-56.619 10.779-82.797-11.466-27.958-46.205-20.53-67.919-10.976-28.977 12.758-54.733 41.526-89.312 31.901-24.524-6.816-44.929-24.537-66.053-37.812C191.92 7.01 89.362-13.07 53.959 10.953 15.13 37.306 82.102 64.02 40.195 88.147 9.938 105.563-6.151 152.445 2.19 196.354c10.608 55.828 84.054 74.481 131.717 76.027z" fill="url(#a)"/>
    <path d="M80.032 38.996H62.866a2.132 2.132 0 0 1-1.975-1.325 2.14 2.14 0 0 1-.16-.82 2.139 2.139 0 0 1 2.135-2.138h17.166a2.133 2.133 0 0 1 2.138 2.137 2.139 2.139 0 0 1-2.138 2.146zM145.235 38.996H90.061a2.134 2.134 0 0 1-2.135-2.137 2.14 2.14 0 0 1 2.135-2.146h55.184a2.131 2.131 0 0 1 1.975 1.319c.107.26.162.538.162.818a2.134 2.134 0 0 1-2.147 2.146zM151.86 47.361H96.676a2.135 2.135 0 0 1-1.974-2.956 2.137 2.137 0 0 1 1.974-1.32h55.184a2.137 2.137 0 0 1 0 4.275zM136.167 64.108h-39.49a2.133 2.133 0 0 1-2.138-2.138 2.14 2.14 0 0 1 1.32-1.975c.259-.107.537-.162.817-.162h39.491a2.136 2.136 0 0 1 1.51 3.649c-.401.4-.944.626-1.51.626zM158.055 55.739h-55.176a2.13 2.13 0 0 1-1.974-1.32 2.13 2.13 0 0 1 0-1.636 2.137 2.137 0 0 1 1.974-1.32h55.185a2.137 2.137 0 1 1-.009 4.275zM350.498 142.506h-17.175a2.136 2.136 0 0 1-2.135-2.138 2.131 2.131 0 0 1 2.135-2.139h17.168a2.142 2.142 0 0 1 1.511.626 2.151 2.151 0 0 1 .625 1.513 2.138 2.138 0 0 1-2.129 2.138zM415.702 142.506h-55.184a2.14 2.14 0 0 1 0-4.277h55.184a2.142 2.142 0 0 1 1.511.626 2.146 2.146 0 0 1-.001 3.025 2.14 2.14 0 0 1-1.51.626zM422.328 150.88h-55.173a2.132 2.132 0 0 1-2.135-2.137 2.133 2.133 0 0 1 2.135-2.138h55.184a2.136 2.136 0 0 1 1.506 3.653 2.13 2.13 0 0 1-1.517.622zM406.637 167.628h-39.482a2.133 2.133 0 0 1-1.973-2.956 2.134 2.134 0 0 1 1.973-1.319h39.492a2.137 2.137 0 0 1 1.973 1.319 2.142 2.142 0 0 1-1.163 2.796c-.26.107-.539.161-.82.16zM428.522 159.255h-55.184a2.136 2.136 0 0 1-1.51-3.649 2.136 2.136 0 0 1 1.51-.627h55.184c.567 0 1.11.226 1.51.627a2.134 2.134 0 0 1 0 3.022c-.4.401-.943.627-1.51.627z" fill="#BDD0FB"/>
    <path d="M87.874 93.318 265.459 19.25l-2.242 200.442-181.173-48.468 5.831-77.906z" fill="url(#b)"/>
    <path d="M265.656 223.061c11.578 0 20.964-46.118 20.964-103.008 0-56.89-9.386-103.01-20.964-103.01-11.579 0-20.965 46.12-20.965 103.01 0 56.89 9.386 103.008 20.965 103.008z" fill="url(#c)"/>
    <path d="M267.249 216.018c-1.892-1.929-6.023-9.37-9.562-28.612-3.421-18.6-5.304-42.723-5.304-67.929 0-25.206 1.891-49.329 5.304-67.93 3.539-19.245 7.666-26.686 9.562-28.611 1.891 1.929 6.022 9.37 9.561 28.612 3.419 18.596 5.296 42.718 5.296 67.925 0 25.206-1.892 49.329-5.302 67.929-3.524 19.246-7.662 26.687-9.555 28.616z" fill="url(#d)"/>
    <path d="M118.883 87.724a.705.705 0 0 1-.694-.573.707.707 0 0 1 .427-.792L244.43 34.87a.71.71 0 1 1 .536 1.313L119.15 87.67a.708.708 0 0 1-.267.053zM97.028 96.665a.71.71 0 0 1-.62-1.047.711.711 0 0 1 .353-.32l8.318-3.405a.71.71 0 0 1 .782 1.169.708.708 0 0 1-.246.146l-8.318 3.404a.711.711 0 0 1-.269.053z" fill="#BDD0FB"/>
    <path d="M41.496 159.354s34.332 90.648 45.181 109.505c12.59 21.88 49.364 7.942 47.533-10.378-1.83-18.321-44.8-94.04-44.8-94.04l-47.914-5.087z" fill="url(#e)"/>
    <path d="M53.462 89.012c10.039-1.168 24.434-1.586 39.997 1.982-5.127 26.816-4.354 54.765 1.576 83.708H51.138a14.22 14.22 0 0 1-9.24-3.41 14.25 14.25 0 0 1-4.815-8.601c-2.187-13.873-4.86-37.19-2.009-55.916a21.083 21.083 0 0 1 6.195-11.994 21.043 21.043 0 0 1 12.193-5.769z" fill="url(#f)"/>
    <path d="M79.807 109.375H45.606a2.945 2.945 0 0 1-2.475-4.554.7.7 0 0 1 .446-.309.714.714 0 0 1 .731.291.713.713 0 0 1 .012.788 1.533 1.533 0 0 0 1.286 2.366h34.201a1.53 1.53 0 0 0 1.53-1.533v-2.432a1.535 1.535 0 0 0-1.53-1.534H45.343a.708.708 0 0 1 0-1.418h34.464a2.945 2.945 0 0 1 2.942 2.945v2.445a2.941 2.941 0 0 1-2.942 2.945zM76.76 124.546h-34.2a2.938 2.938 0 0 1-2.597-1.538 2.949 2.949 0 0 1 .12-3.017.706.706 0 0 1 .98-.211.711.711 0 0 1 .21.981 1.532 1.532 0 0 0 1.286 2.367H76.76a1.535 1.535 0 0 0 1.53-1.534v-2.436a1.535 1.535 0 0 0-1.53-1.534H42.296a.708.708 0 0 1 0-1.418H76.76a2.945 2.945 0 0 1 2.942 2.945v2.437a2.948 2.948 0 0 1-1.813 2.732 2.936 2.936 0 0 1-1.129.226zM79.807 142.305H45.606a2.937 2.937 0 0 1-2.596-1.537 2.949 2.949 0 0 1 .12-3.018.71.71 0 0 1 1.19.773 1.532 1.532 0 0 0 1.286 2.364h34.201a1.532 1.532 0 0 0 1.53-1.533v-2.437a1.534 1.534 0 0 0-1.53-1.531H45.343a.708.708 0 0 1-.5-1.211.707.707 0 0 1 .5-.207h34.464a2.941 2.941 0 0 1 2.942 2.945v2.436a2.95 2.95 0 0 1-1.814 2.731 2.933 2.933 0 0 1-1.128.225zM83.014 162.017h-34.2a2.941 2.941 0 0 1-2.956-3.061 2.944 2.944 0 0 1 .476-1.493.702.702 0 0 1 .723-.312.721.721 0 0 1 .455.295.708.708 0 0 1 .011.789 1.532 1.532 0 0 0 1.286 2.364h34.206a1.534 1.534 0 0 0 1.53-1.533v-2.437a1.533 1.533 0 0 0-1.53-1.531H48.55a.71.71 0 0 1 0-1.42h34.463a2.955 2.955 0 0 1 2.943 2.945v2.436a2.944 2.944 0 0 1-2.942 2.958zM113.552 269.194a22.089 22.089 0 0 1-4.719-.513 21.824 21.824 0 0 1-9.206-4.396 21.855 21.855 0 0 1-6.206-8.101L66.1 195.41a.712.712 0 0 1 .356-.938.705.705 0 0 1 .937.355l27.319 60.776a20.45 20.45 0 0 0 5.808 7.579 20.417 20.417 0 0 0 8.612 4.112 20.004 20.004 0 0 0 17.621-4.51c.26-.228.519-.459.782-.699a.706.706 0 0 1 1.002.049.71.71 0 0 1-.048 1.003c-.269.247-.537.487-.803.72a21.348 21.348 0 0 1-14.135 5.337z" fill="#BDD0FB"/>
    <path d="M282 120.656c0 17.504-9.837 31.846-28.477 31.846 0-.21-1.05-14.342-1.05-31.846 0-17.504.63-27.798.84-31.69 18.63 0 28.687 14.188 28.687 31.69z" fill="url(#g)"/>
    <path opacity=".67" d="M278.008 118.421a.458.458 0 0 1-.358-.192.842.842 0 0 1-.165-.474c-.453-8.716-2.67-15.218-6.587-19.325-6.768-7.096-16.418-4.658-16.515-4.635a.387.387 0 0 1-.21.01.456.456 0 0 1-.197-.103.646.646 0 0 1-.15-.201.956.956 0 0 1-.079-.553.868.868 0 0 1 .085-.263.645.645 0 0 1 .154-.197.449.449 0 0 1 .198-.098c.414-.11 10.214-2.583 17.353 4.902 4.167 4.367 6.519 11.218 6.994 20.361a.958.958 0 0 1-.025.278.825.825 0 0 1-.101.243.578.578 0 0 1-.162.171.417.417 0 0 1-.198.073l-.037.003z" fill="#fff"/>
    <path d="m404.538 85.888-.221 13.722a1.541 1.541 0 0 0 .445 1.118 1.557 1.557 0 0 0 1.11.466h15.801a1.558 1.558 0 0 0 1.557-1.555v-13.72a1.56 1.56 0 0 0-1.557-1.556h-15.579a1.556 1.556 0 0 0-1.556 1.525z" fill="url(#h)"/>
    <path opacity=".73" fill-rule="evenodd" clip-rule="evenodd" d="M413.746 99.064c-.115 0-.23 0-.345-.007-3.899-.172-6.942-3.28-6.777-6.928a6.368 6.368 0 0 1 2.288-4.6 7.289 7.289 0 0 1 5.071-1.707c3.906.173 6.942 3.281 6.778 6.929a6.385 6.385 0 0 1-2.288 4.6 7.268 7.268 0 0 1-4.727 1.713zm.262-.931a6.349 6.349 0 0 1-.634-.008 1.138 1.138 0 0 1-.153-.194 3.338 3.338 0 0 1-.338-.704h1.629c-.084.24-.194.47-.327.685-.05.08-.11.154-.177.22zm.89-.906-.043.123a3.899 3.899 0 0 1-.359.746c.074-.008.148-.018.222-.029a3.66 3.66 0 0 0 .664-.335c.229-.148.444-.317.64-.505h-1.124zm1.648 0a4.768 4.768 0 0 1-.538.506 6.358 6.358 0 0 0 1.048-.506h-.51zm1.045-.36c.096-.07.189-.145.281-.222a5.435 5.435 0 0 0 1.391-1.752l-.075.001-1.307.01a6.836 6.836 0 0 1-.786 1.625 5.778 5.778 0 0 1-.244.339h.74zm-1.229 0c.15-.174.288-.359.414-.552.284-.44.514-.914.684-1.409l-1.027.008-1.039.002c-.035.278-.076.556-.123.833a11.06 11.06 0 0 1-.258 1.119h1.349zm-3.598 0h1.867c.041-.133.078-.268.112-.404.06-.245.115-.501.161-.783.042-.247.079-.5.111-.763l-1.338.003-1.296-.004a14.062 14.062 0 0 0 .277 1.567c.032.129.067.257.106.385zm-.39 0a11.273 11.273 0 0 1-.255-1.098c-.05-.277-.093-.56-.129-.854l-2.411-.007c.169.494.399.967.682 1.407.126.193.264.378.414.553h1.699zm-2.195 0a5.709 5.709 0 0 1-.242-.334 6.862 6.862 0 0 1-.789-1.628l-.979-.008a5.897 5.897 0 0 0 1.717 1.985.175.175 0 0 1 .071-.014h.222zm.225.36.172.1a14.97 14.97 0 0 1-.093-.1h-.079zm.61 0c.196.188.41.357.638.505.079.05.159.097.242.142.319.092.649.162.989.206a3.656 3.656 0 0 1-.342-.709 7.268 7.268 0 0 1-.052-.144h-1.475zm8.333-2.51a5.308 5.308 0 0 0-.002-4.466l-.157.003-1.237.009.026.09a8.1 8.1 0 0 1 .283 1.882l1.473.012.095.098-.006.224-.156.004-1.403.009a8.095 8.095 0 0 1-.278 1.976l1.361.012.001.146zm-1.777-.161.022-.081c.166-.62.253-1.255.263-1.89l-1.185.007-1.13.002c0 .654-.035 1.306-.103 1.956l2.133.006zm-5.229-.009 1.335-.002 1.379.004a19.67 19.67 0 0 0 .099-1.954l-1.479.003-1.428-.004a21.298 21.298 0 0 0 .094 1.953zm-.393 0a21.586 21.586 0 0 1-.108-1.954l-2.655-.006c.005.298.027.596.065.893a7.479 7.479 0 0 0 .22 1.078l1.449-.009 1.029-.001zm-2.903.014a7.612 7.612 0 0 1-.208-1.025 8.213 8.213 0 0 1-.07-.953l-1.215-.009c.022.703.183 1.377.46 1.998l.15-.005.883-.006zm8.808-2.327a7.768 7.768 0 0 0-.315-1.968l-1.105.007-1.025.002c.08.648.124 1.3.131 1.952l2.314.007zm-5.606-.01 1.427-.002 1.479.004a18.898 18.898 0 0 0-.119-1.95l-1.357.003-1.338-.004c-.018.198-.034.4-.048.61-.026.416-.041.857-.044 1.34zm-.405.001a21.5 21.5 0 0 1 .059-1.367c.015-.2.032-.395.051-.584l-2.41-.006h-.041a7.652 7.652 0 0 0-.313 1.97l1.49-.01 1.164-.002zm-3.072.014c.009-.28.032-.56.068-.838a7.648 7.648 0 0 1 .24-1.137l-.982-.01-.064-.064a5.457 5.457 0 0 0-.481 2.06l.132-.005 1.087-.006zm6.149-4.272h.712l.642-.005c.185.204.353.424.504.656.263.407.479.842.644 1.297l-2.063-.007a16.717 16.717 0 0 0-.119-.702 11.54 11.54 0 0 0-.188-.805 8.119 8.119 0 0 0-.132-.434zm-.368 0c.059.173.112.348.158.525l.017.072c.054.226.111.458.157.709.039.21.073.422.103.634l-1.31-.004-1.299.003c.025-.212.052-.418.083-.62.044-.282.092-.54.147-.787.04-.18.086-.357.138-.533h1.806zm-3.783-.008.947.007h.657c-.044.15-.084.302-.12.455-.059.25-.112.514-.161.805-.036.222-.069.448-.098.68l-1.074.003-1.302.008c.165-.454.38-.89.643-1.297.151-.234.321-.455.508-.662zm-.879-.007c.129.003.257.003.386.004a5.617 5.617 0 0 0-.335.45c-.313.472-.565.98-.752 1.514l-1.025.006h-.003a5.44 5.44 0 0 1 1.355-1.68c.121-.103.246-.201.374-.294zm.692-.34-.171.001a6.41 6.41 0 0 1 .379-.204 4.426 4.426 0 0 0-.169.163l-.039.04zm1.907-.008H411.721l-.603.004a4.36 4.36 0 0 1 .533-.408c.179-.115.367-.214.563-.296.22-.05.443-.087.669-.113l-.039.059a3.173 3.173 0 0 0-.205.38 5.44 5.44 0 0 0-.151.374zm.378 0c.031-.083.062-.16.094-.233.05-.116.109-.229.176-.336.062-.101.139-.192.23-.27l.014-.011a6.359 6.359 0 0 1 .484.002l.03.024c.089.078.166.168.23.268.115.177.213.365.294.56l-.744-.004h-.808zm3.062.012-1.139-.006a3.823 3.823 0 0 0-.435-.818c.089.01.178.021.266.034.268.094.524.219.763.373.193.124.375.264.545.417zm1.495.334a5.915 5.915 0 0 1 1.761 1.978l-1.344-.012a6.771 6.771 0 0 0-.747-1.507 5.61 5.61 0 0 0-.335-.452l.179-.001.486-.006zm-.51-.33-.457-.002a4.87 4.87 0 0 0-.493-.447c.332.125.65.276.95.45z" fill="#fff"/>
    <path d="m377.928 62.528-9.626.994a2.057 2.057 0 0 1-1.56-.497 1.979 1.979 0 0 1-.493-.664 1.942 1.942 0 0 1-.175-.804V50.668c0-.475.175-.935.493-1.294.317-.36.757-.595 1.237-.663l9.625-1.358a2.056 2.056 0 0 1 1.608.463 1.96 1.96 0 0 1 .697 1.493v11.253c0 .488-.185.96-.518 1.323a2.03 2.03 0 0 1-1.288.643z" fill="url(#i)"/>
    <path fill-rule="evenodd" clip-rule="evenodd" d="M375.32 53.772a7.33 7.33 0 0 0-5.063-2.039 7.304 7.304 0 0 0-1.082.074.203.203 0 0 1-.148-.037.208.208 0 0 1-.082-.13l-.071-.423a.198.198 0 0 1 .035-.154.208.208 0 0 1 .134-.083 8.031 8.031 0 0 1 1.207-.092 8.17 8.17 0 0 1 5.631 2.26 8.189 8.189 0 0 1 2.525 5.522.204.204 0 0 1-.176.21l-.425.064a.203.203 0 0 1-.229-.196 7.35 7.35 0 0 0-2.256-4.976zm-5.061.123a5.177 5.177 0 0 1 5.169 5.17.205.205 0 0 0 .23.203l.428-.065.064-.072c.038-.043.073-.082.113-.132a6.016 6.016 0 0 0-1.782-4.205 6.006 6.006 0 0 0-4.219-1.74c-.282 0-.565.021-.845.062a.205.205 0 0 0-.169.23l.073.424a.201.201 0 0 0 .229.169c.235-.032.472-.046.709-.044zm2.115 3.047a3.001 3.001 0 0 0-2.121-.881c-.117 0-.235.01-.351.025a.206.206 0 0 1-.23-.168l-.071-.425a.208.208 0 0 1 .002-.083.225.225 0 0 1 .035-.074.213.213 0 0 1 .14-.081 3.841 3.841 0 0 1 4.301 4.088.204.204 0 0 1-.175.19l-.436.065a.203.203 0 0 1-.171-.058.206.206 0 0 1-.059-.172 3.008 3.008 0 0 0-.864-2.427zm-2.9 3.295a1.407 1.407 0 1 0 1.319-2.473 1.405 1.405 0 0 0-1.918 1.027 1.4 1.4 0 0 0 .599 1.447zm.31-1.877a.85.85 0 0 1 .472-.143v-.001a.852.852 0 0 1 .326 1.636.85.85 0 0 1-.798-1.492z" fill="url(#j)"/>
    <path d="m375.078 76.667-21.639-1.132a2.923 2.923 0 0 0-2.249.839 2.95 2.95 0 0 0-.878 2.242l.559 19.989c.045 1.633 1.452 2.88 3.123 2.798l20.547-1.019c1.394-.069 2.544-1.31 2.585-2.78l.5-17.905c.045-1.594-1.088-2.956-2.548-3.032z" fill="#7D97F4"/>
    <path fill-rule="evenodd" clip-rule="evenodd" d="M359.128 95.148a8.159 8.159 0 0 0 4.536 1.377 8.17 8.17 0 0 0 5.77-2.397 8.192 8.192 0 0 0 2.394-5.776 8.18 8.18 0 0 0-5.04-7.551 8.155 8.155 0 0 0-8.897 1.772 8.19 8.19 0 0 0-1.77 8.907 8.176 8.176 0 0 0 3.007 3.668zm.76-12.453a6.793 6.793 0 0 1 3.776-1.147 6.8 6.8 0 0 1 4.803 1.995 6.815 6.815 0 0 1 1.993 4.809 6.807 6.807 0 0 1-4.195 6.285 6.79 6.79 0 0 1-7.406-1.474 6.807 6.807 0 0 1 1.029-10.468zm1.221 2.923v5.876a.802.802 0 0 0 1.223.697l4.939-2.939a.8.8 0 0 0 .401-.696.8.8 0 0 0-.401-.696l-4.939-2.939a.805.805 0 0 0-1.223.697z" fill="url(#k)"/>
    <path d="m415.032 48.16-19.64-1.028a2.652 2.652 0 0 0-2.041.763 2.697 2.697 0 0 0-.798 2.041l.508 18.202c.042 1.486 1.319 2.623 2.834 2.547l18.649-.927c1.265-.064 2.309-1.193 2.346-2.53l.457-16.303c.044-1.455-.991-2.694-2.315-2.764z" fill="url(#l)"/>
    <path opacity=".76" fill-rule="evenodd" clip-rule="evenodd" d="M397.898 65.94h13.861a1.94 1.94 0 0 0 1.934-1.937v-10.11a1.94 1.94 0 0 0-1.934-1.936h-13.861a1.934 1.934 0 0 0-1.933 1.935v10.111a1.935 1.935 0 0 0 1.933 1.937zm.542-12.639 6.394 4.536 6.377-4.536H398.44zm13.115 11.295c-.099-.17-.213-.37-.347-.604a3500.14 3500.14 0 0 1-3.673-6.427l-2.313 1.646a.669.669 0 0 1-.778-.001l-2.346-1.665c-.446.782-1.238 2.17-2.032 3.558-.599 1.051-1.2 2.101-1.653 2.89-.133.234-.247.433-.346.603h13.488zm.795-1.311V54.14l-3.714 2.642c1.245 2.183 2.801 4.909 3.714 6.502zm-11.353-6.521a5224.344 5224.344 0 0 1-3.689 6.457v-9.075l3.689 2.618z" fill="#fff"/>
    <path d="m391.388 109.38-11.652-.607a1.574 1.574 0 0 0-1.575 1.001 1.577 1.577 0 0 0-.109.652l.301 10.723a1.573 1.573 0 0 0 1.682 1.502l11.065-.547c.75-.037 1.369-.702 1.391-1.494l.269-9.606c.021-.853-.589-1.584-1.372-1.624z" fill="url(#m)"/>
    <path fill-rule="evenodd" clip-rule="evenodd" d="M381.508 110.495h8.234c.748 0 1.085.69 1.091 1.438v4.592c0 .756-.325 1.569-1.095 1.586l-1.231 1.441a.4.4 0 0 1-.3.135.543.543 0 0 1-.316-.115c-.137-.046-.415-.149-.415-.428v-.678c0-.196-.105-.733-.301-.733h-5.667c-.756 0-1.778-.45-1.778-1.207v-4.588c0-.789 1.014-1.443 1.778-1.443zm8.234 6.721c.286 0 .31-.335.31-.69l.005-4.593.001-.087c.003-.273.003-.323-.311-.323h-8.239c-.355 0-1.003.085-1.003.598v4.399c0 .352.651.69 1.003.69h6.392c.144 0 .122.177.101.348-.007.06-.015.12-.015.171v1.001l1.448-1.514h.308zm-.541-4.218a.263.263 0 0 0 .076-.183.264.264 0 0 0-.076-.184.26.26 0 0 0-.183-.075h-7.487a.257.257 0 0 0-.183.076.25.25 0 0 0-.055.084.257.257 0 0 0 .238.357h7.487a.26.26 0 0 0 .183-.075zm.076 1.113a.263.263 0 0 1-.076.183.26.26 0 0 1-.183.075h-7.487a.257.257 0 0 1-.238-.357.25.25 0 0 1 .139-.141.257.257 0 0 1 .099-.019h7.487a.26.26 0 0 1 .183.075.264.264 0 0 1 .076.184zm-.076 1.99a.26.26 0 0 0-.183-.442h-7.487a.257.257 0 0 0-.258.259.26.26 0 0 0 .075.183.263.263 0 0 0 .183.076h7.487a.257.257 0 0 0 .183-.076z" fill="#FFDDDA"/>
    <path d="M326.07 208.298c-.116-.26-2.261-4.046-.705-5.431 1.556-1.385 2.295.156 2.188 1.83-.108 1.673-.618 5.579-1.483 3.601z" fill="url(#n)"/>
    <path d="M336.57 280.156a.824.824 0 0 1 .023-.204c1.015-4.067 5.201-6.137 5.201-6.137l2.011.157c1.156 3.577 1.901 5.323 1.716 6.303 0 .029-.014.055-.02.082a47.766 47.766 0 0 1-8.931-.201z" fill="url(#o)"/>
    <path d="M345.507 280.357a.865.865 0 0 1-.229.412.862.862 0 0 1-.409.233c-2.36.497-6.109.098-7.685-.109a.738.738 0 0 1-.61-.731c2.965.345 5.956.41 8.933.195z" fill="url(#p)"/>
    <path d="m340.16 270.681.88 4.243a.694.694 0 0 0 .593.572 5.88 5.88 0 0 0 1.365-.023.875.875 0 0 0 .689-1.016l-.61-3.768-2.917-.008z" fill="url(#q)"/>
    <path d="M362.61 280.312c-2.147-.059-3.25-.313-3.833-.547v.657a.426.426 0 0 0 .407.431l11.78-.075a.545.545 0 0 0 .494-.53.549.549 0 0 0-.059-.255c-1.532.128-5.468.413-8.789.319z" fill="url(#r)"/>
    <path d="M371.413 279.998a.642.642 0 0 0-.047-.09c-1.042-1.458-3.694-4.357-8.937-5.616l-2.514-.079s-1.119 1.948-1.142 5.557c.575.234 1.686.488 3.833.547 3.323.088 7.259-.197 8.807-.319z" fill="url(#s)"/>
    <path d="M359.43 270.402c.028.189.373 3.05.508 4.146a.546.546 0 0 0 .461.494 5.773 5.773 0 0 0 1.726-.026.746.746 0 0 0 .565-.749v-4.473l-3.26.608z" fill="url(#t)"/>
    <path d="M341.835 214.974s-4.024 35.801-1.787 58.177c0 0 2.681 0 4.023-.448 0 0 4.18-35.004 5.533-45.021a.334.334 0 0 1 .662-.02c1.669 8.426 8.224 41.481 9.002 44.594 0 0 2.234.895 4.023 0 0 0-3.577-47.884-6.258-56.388l-15.198-.894z" fill="url(#u)"/>
    <path d="M333.793 173.35s16.986-2.684 30.395.896l-.893 13.872s-3.577 19.244-6.258 27.746c0 0-10.281 1.791-15.198-.895 0 0-4.024-24.165-6.258-27.746 0 0-2.234-9.398-1.788-13.873z" fill="url(#v)"/>
    <path d="m345.577 161.126-1.694 11.456s4.728 2.174 8.039-.093l-.713-8.085-5.632-3.278z" fill="url(#w)"/>
    <path d="M333.789 173.345s-26.373 28.642 4.694 39.606v-2.237s-11.624-9.845-2.683-23.27c0-.002-1.117-12.755-2.011-14.099z" fill="url(#x)"/>
    <path d="M338.701 210.938s4.021-2.684 5.811-1.79c1.789.895 1.787 2.237 1.787 2.237s-.893 1.792-2.234 1.344c-1.34-.447-4.468.448-5.813 0 0 0-.447-1.791.449-1.791z" fill="url(#y)"/>
    <path d="M364.184 174.238s27.491 27.746-3.575 38.71v-2.237s11.622-9.846 2.681-23.27c0-.002-.893-10.966.894-13.203z" fill="url(#z)"/>
    <path d="M360.385 210.938s-4.023-2.684-5.81-1.79c-1.788.895-1.79 2.237-1.79 2.237s.894 1.792 2.234 1.344c1.341-.447 4.469.448 5.811 0 .002 0 .449-1.791-.445-1.791z" fill="url(#A)"/>
    <path d="M350.536 152.709c.114.108 4.826 9.37 4.826 9.37l-5.34 2.58-5.768-8.113s4.369-5.64 6.282-3.837z" fill="url(#B)"/>
    <path d="M346.618 156.76a.863.863 0 0 0-.055.383.87.87 0 0 0 .12.367l2.663 4.443c.04.067.089.129.146.183.317.295 1.401 1.155 2.234-.016.715-.996 1.385-1.903 2.104-2.277a.843.843 0 0 1 .653-.05.855.855 0 0 1 .495.43 31.797 31.797 0 0 1 1.828 4.327.85.85 0 0 1-.494 1.041c-1.082.439-3.219 1.232-5.114 1.492a.853.853 0 0 1-.813-.341c-.812-1.119-3.113-4.246-3.899-5.029-.729-.728-2.074-.453-2.681-.278a.863.863 0 0 1-.681-.09c-.609-.37-1.687-1.295-.706-2.859a.856.856 0 0 0-.262-1.159c-.689-.451-1.434-1.301-.723-2.676.71-1.374 2.002-1.517 2.876-1.409a.886.886 0 0 0 .928-.516.57.57 0 0 1 .44-.348.815.815 0 0 0 .538-.346.832.832 0 0 0 .131-.626c-.155-.787-.039-1.81 1.218-2.501 2.304-1.269 4.322.797 4.834 2.542.512 1.744-2.061 2.977-3.682 3.182-1.182.152-1.834 1.452-2.098 2.131z" fill="url(#C)"/>
    <path d="M347.488 163.349s-1.016-3.002-2.336-2.892c-1.32.11-2.344 1.423-.719 2.887 2.021 1.83 3.055.005 3.055.005z" fill="url(#D)"/>
    <path d="m323.344 181.687 26.461 10.022.461 35.942-22.377-7.17-4.545-38.794z" fill="#7D97F4"/>
    <path d="m376.747 181.687-26.938 10.022.016 35.942 22.376-7.17 4.546-38.794z" fill="#7D97F4"/>
    <path d="m351.359 193.589 24.064-9.006-1.167 7.312-22.897 6.741v-5.047zM351.812 201.331l7.702-2.69-1.141 23.422-6.049 2.286-.512-23.018zM361.2 198.637l12.12-4.232-2.397 18.445-10.314 2.109.591-16.322zM360.48 217.162l10.044-2.188v3.558l-10.044 2.818v-4.188z" fill="#BDD0FB"/>
    <path d="m347.245 193.599-21.487-8.282.396 4.114 21.091 6.702v-2.534zM347.187 199.447l-20.656-5.846 2.738 25.384 18.647 5.37-.729-24.908z" fill="#91B3FA"/>
    <path d="M374.239 208.298c.116-.26 2.261-4.046.705-5.431-1.556-1.385-2.295.156-2.188 1.83.108 1.673.618 5.579 1.483 3.601z" fill="url(#E)"/>
    <defs>
        <linearGradient id="a" x1="790.307" y1="148.965" x2="125.997" y2="140.672" gradientUnits="userSpaceOnUse">
            <stop stop-color="#DAE3FE"/>
            <stop offset="1" stop-color="#E9EFFD"/>
        </linearGradient>
        <linearGradient id="b" x1="118333" y1="56104.9" x2="243170" y2="259554" gradientUnits="userSpaceOnUse">
            <stop stop-color="#4042E2"/>
            <stop offset="1" stop-color="#4F52FF"/>
        </linearGradient>
        <linearGradient id="c" x1="87753.1" y1="4036.45" x2="29422.1" y2="12130.6" gradientUnits="userSpaceOnUse">
            <stop stop-color="#09005D"/>
            <stop offset="1" stop-color="#1A0F91"/>
        </linearGradient>
        <linearGradient id="d" x1="41179.1" y1="109586" x2="33151.5" y2="109962" gradientUnits="userSpaceOnUse">
            <stop stop-color="#4042E2"/>
            <stop offset="1" stop-color="#4F52FF"/>
        </linearGradient>
        <linearGradient id="e" x1="34.402" y1="283.767" x2="109.531" y2="183.097" gradientUnits="userSpaceOnUse">
            <stop stop-color="#09005D"/>
            <stop offset="1" stop-color="#1A0F91"/>
        </linearGradient>
        <linearGradient id="f" x1="15735.7" y1="73842.2" x2="12545.4" y2="17050.9" gradientUnits="userSpaceOnUse">
            <stop stop-color="#09005D"/>
            <stop offset="1" stop-color="#1A0F91"/>
        </linearGradient>
        <linearGradient id="g" x1="88269" y1="19073.3" x2="68801.2" y2="45654.7" gradientUnits="userSpaceOnUse">
            <stop stop-color="#FE7062"/>
            <stop offset="1" stop-color="#FF928E"/>
        </linearGradient>
        <linearGradient id="h" x1="35881.7" y1="10952" x2="38995.6" y2="10952" gradientUnits="userSpaceOnUse">
            <stop stop-color="#4042E2"/>
            <stop offset="1" stop-color="#4F52FF"/>
        </linearGradient>
        <linearGradient id="i" x1="21060.2" y1="7194.12" x2="23100.9" y2="4887.54" gradientUnits="userSpaceOnUse">
            <stop stop-color="#4042E2"/>
            <stop offset="1" stop-color="#4F52FF"/>
        </linearGradient>
        <linearGradient id="j" x1="15321.6" y1="2603.1" x2="16112.9" y2="2603.1" gradientUnits="userSpaceOnUse">
            <stop stop-color="#DAE3FE"/>
            <stop offset="1" stop-color="#E9EFFD"/>
        </linearGradient>
        <linearGradient id="k" x1="10207.3" y1="4656.51" x2="10582.3" y2="4656.51" gradientUnits="userSpaceOnUse">
            <stop stop-color="#DAE3FE"/>
            <stop offset="1" stop-color="#E9EFFD"/>
        </linearGradient>
        <linearGradient id="l" x1="45137.1" y1="2803.3" x2="50412" y2="19456.5" gradientUnits="userSpaceOnUse">
            <stop stop-color="#FE7062"/>
            <stop offset="1" stop-color="#FF928E"/>
        </linearGradient>
        <linearGradient id="m" x1="24873.2" y1="9923.94" x2="26695.5" y2="15715.6" gradientUnits="userSpaceOnUse">
            <stop stop-color="#FE7062"/>
            <stop offset="1" stop-color="#FF928E"/>
        </linearGradient>
        <linearGradient id="n" x1="3885.15" y1="6716.74" x2="3922.72" y2="6716.74" gradientUnits="userSpaceOnUse">
            <stop stop-color="#FF928E"/>
            <stop offset="1" stop-color="#FEB3B1"/>
        </linearGradient>
        <linearGradient id="o" x1="199.676" y1="10267.9" x2="186.668" y2="9741.84" gradientUnits="userSpaceOnUse">
            <stop stop-color="#4042E2"/>
            <stop offset="1" stop-color="#4F52FF"/>
        </linearGradient>
        <linearGradient id="p" x1="-638.553" y1="1681.1" x2="-584.253" y2="2034" gradientUnits="userSpaceOnUse">
            <stop stop-color="#09005D"/>
            <stop offset="1" stop-color="#1A0F91"/>
        </linearGradient>
        <linearGradient id="q" x1="11264.3" y1="6568.74" x2="11206.4" y2="6937.68" gradientUnits="userSpaceOnUse">
            <stop stop-color="#FF928E"/>
            <stop offset="1" stop-color="#FEB3B1"/>
        </linearGradient>
        <linearGradient id="r" x1="42322.3" y1="1734.09" x2="42284.3" y2="2082.27" gradientUnits="userSpaceOnUse">
            <stop stop-color="#09005D"/>
            <stop offset="1" stop-color="#1A0F91"/>
        </linearGradient>
        <linearGradient id="s" x1="41612.7" y1="9754.35" x2="41620.5" y2="9270.9" gradientUnits="userSpaceOnUse">
            <stop stop-color="#4042E2"/>
            <stop offset="1" stop-color="#4F52FF"/>
        </linearGradient>
        <linearGradient id="t" x1="10691.8" y1="7213.14" x2="10622.2" y2="7587.1" gradientUnits="userSpaceOnUse">
            <stop stop-color="#FF928E"/>
            <stop offset="1" stop-color="#FEB3B1"/>
        </linearGradient>
        <linearGradient id="u" x1="34275.6" y1="76289.1" x2="35669.4" y2="58326.5" gradientUnits="userSpaceOnUse">
            <stop stop-color="#09005D"/>
            <stop offset="1" stop-color="#1A0F91"/>
        </linearGradient>
        <linearGradient id="v" x1="43237.4" y1="36615.8" x2="42469.6" y2="48201.3" gradientUnits="userSpaceOnUse">
            <stop stop-color="#4042E2"/>
            <stop offset="1" stop-color="#4F52FF"/>
        </linearGradient>
        <linearGradient id="w" x1="11624.2" y1="9866.44" x2="11614.6" y2="10715.4" gradientUnits="userSpaceOnUse">
            <stop stop-color="#FF928E"/>
            <stop offset="1" stop-color="#FEB3B1"/>
        </linearGradient>
        <linearGradient id="x" x1="20411.1" y1="32780.7" x2="19175.6" y2="43091.6" gradientUnits="userSpaceOnUse">
            <stop stop-color="#4042E2"/>
            <stop offset="1" stop-color="#4F52FF"/>
        </linearGradient>
        <linearGradient id="y" x1="345.846" y1="208.38" x2="331.53" y2="220.597" gradientUnits="userSpaceOnUse">
            <stop stop-color="#F9B776"/>
            <stop offset="1" stop-color="#F47960"/>
        </linearGradient>
        <linearGradient id="z" x1="22692.5" y1="32366.2" x2="21485.1" y2="42443.7" gradientUnits="userSpaceOnUse">
            <stop stop-color="#4042E2"/>
            <stop offset="1" stop-color="#4F52FF"/>
        </linearGradient>
        <linearGradient id="A" x1="12060.5" y1="4167.7" x2="12180.3" y2="4418.91" gradientUnits="userSpaceOnUse">
            <stop stop-color="#F9B776"/>
            <stop offset="1" stop-color="#F47960"/>
        </linearGradient>
        <linearGradient id="B" x1="16370.1" y1="9321.78" x2="15780.2" y2="9772.77" gradientUnits="userSpaceOnUse">
            <stop stop-color="#FF928E"/>
            <stop offset="1" stop-color="#FEB3B1"/>
        </linearGradient>
        <linearGradient id="C" x1="-15264.6" y1="5233.35" x2="-14510" y2="4432.67" gradientUnits="userSpaceOnUse">
            <stop stop-color="#09005D"/>
            <stop offset="1" stop-color="#1A0F91"/>
        </linearGradient>
        <linearGradient id="D" x1="-2848.99" y1="1784.78" x2="-2866.37" y2="1529.74" gradientUnits="userSpaceOnUse">
            <stop stop-color="#FF928E"/>
            <stop offset="1" stop-color="#FEB3B1"/>
        </linearGradient>
        <linearGradient id="E" x1="6380.2" y1="6716.74" x2="6342.67" y2="6716.74" gradientUnits="userSpaceOnUse">
            <stop stop-color="#FF928E"/>
            <stop offset="1" stop-color="#FEB3B1"/>
        </linearGradient>
    </defs>
</svg>
