<svg width="20" height="20" viewBox="0 0 20 20" fill="none" xmlns="http://www.w3.org/2000/svg">
<path d="M15 9.16699C15 9.72533 15 10.2753 15 10.8337C16 10.8337 17.3 10.8337 18.3333 10.8337C18.3333 10.2753 18.3333 9.72533 18.3333 9.16699C17.3 9.16699 16 9.16699 15 9.16699Z" fill="white"/>
<path d="M13.332 14.6747C14.132 15.2663 15.1737 16.0497 15.9987 16.6663C16.332 16.2247 16.6654 15.7747 16.9987 15.333C16.1737 14.7163 15.132 13.933 14.332 13.333C13.9987 13.783 13.6654 14.233 13.332 14.6747Z" fill="white"/>
<path d="M16.9987 4.66634C16.6654 4.22467 16.332 3.77467 15.9987 3.33301C15.1737 3.94967 14.132 4.73301 13.332 5.33301C13.6654 5.77467 13.9987 6.22467 14.332 6.66634C15.132 6.06634 16.1737 5.29134 16.9987 4.66634Z" fill="white"/>
<path d="M3.33464 7.5C2.41797 7.5 1.66797 8.25 1.66797 9.16667V10.8333C1.66797 11.75 2.41797 12.5 3.33464 12.5H4.16797V15.8333H5.83464V12.5H6.66797L10.8346 15V5L6.66797 7.5H3.33464ZM7.5263 8.925L9.16797 7.94167V12.0583L7.5263 11.075L7.1263 10.8333H6.66797H3.33464V9.16667H6.66797H7.1263L7.5263 8.925Z" fill="white"/>
<path d="M12.918 9.99967C12.918 8.89134 12.4346 7.89134 11.668 7.20801V12.783C12.4346 12.108 12.918 11.108 12.918 9.99967Z" fill="white"/>
</svg>
