<svg width="182" height="227" viewBox="0 0 182 227" fill="none" xmlns="http://www.w3.org/2000/svg">
<path d="M81.9766 181.971C81.9703 180.178 82.4961 178.423 83.4872 176.929C84.4784 175.435 85.8904 174.268 87.5444 173.578C89.1984 172.887 91.0198 172.703 92.7784 173.049C94.5369 173.395 96.1534 174.256 97.4229 175.521C98.6924 176.787 99.5579 178.402 99.9099 180.16C100.262 181.918 100.084 183.742 99.4001 185.399C98.7157 187.057 97.555 188.474 96.0653 189.471C94.5755 190.468 92.8238 191 91.0316 191C89.844 191.004 88.6672 190.774 87.5688 190.322C86.4704 189.87 85.4718 189.205 84.6306 188.367C83.7893 187.528 83.122 186.531 82.6666 185.434C82.2111 184.336 81.9766 183.159 81.9766 181.971Z" fill="#98C7FF"/>
<path d="M135.448 0H46.5518C21.6704 0 1.5 20.1829 1.5 45.0797V80.6221C1.5 105.519 21.6704 125.702 46.5518 125.702H135.448C160.33 125.702 180.5 105.519 180.5 80.6221V45.0797C180.5 20.1829 160.33 0 135.448 0Z" fill="#98C7FF"/>
<path d="M90.9734 94.8083L60.1953 125.605L90.9734 156.403L121.751 125.605L90.9734 94.8083Z" fill="#98C7FF"/>
<path d="M147 64.5814C147 70.6005 145.761 75.1751 143.284 78.3051C140.847 81.435 137.252 83 132.5 83C127.789 83 124.194 81.4551 121.716 78.3652C119.279 75.2754 118.041 70.7811 118 64.8824V57.2982C118 51.3192 119.218 46.7848 121.655 43.6949C124.133 40.565 127.728 39 132.439 39C137.191 39 140.786 40.5449 143.223 43.6347C145.7 46.6844 146.959 51.1788 147 57.1176V64.5814ZM138.836 56.2148C138.836 52.4829 138.328 49.7542 137.313 48.0287C136.298 46.2631 134.673 45.3803 132.439 45.3803C130.327 45.3803 128.763 46.223 127.748 47.9083C126.773 49.5937 126.265 52.1619 126.225 55.6129V65.6648C126.225 69.4368 126.732 72.2057 127.748 73.9713C128.763 75.7369 130.347 76.6197 132.5 76.6197C134.612 76.6197 136.176 75.777 137.191 74.0917C138.207 72.4063 138.755 69.7378 138.836 66.0862V56.2148Z" fill="#013B81"/>
<path d="M78.7011 47.7156C78.7011 50.7651 77.7973 53.7461 76.1041 56.2817C74.4109 58.8173 72.0043 60.7935 69.1887 61.9605C66.373 63.1275 63.2748 63.4329 60.2857 62.8379C57.2966 62.243 54.551 60.7745 52.396 58.6182C50.241 56.4619 48.7735 53.7145 48.1789 50.7236C47.5843 47.7327 47.8895 44.6325 49.0558 41.8151C50.2221 38.9977 52.1969 36.5896 54.731 34.8954C57.265 33.2012 60.2442 32.2969 63.2918 32.2969C67.3786 32.2969 71.2981 33.9213 74.1878 36.8129C77.0776 39.7045 78.7011 43.6263 78.7011 47.7156Z" fill="white"/>
<path d="M35.4297 87.9308C35.4297 82.4335 37.6122 77.1614 41.497 73.2742C45.3818 69.3869 50.6506 67.2031 56.1445 67.2031H70.6959C76.1927 67.2031 81.465 69.3859 85.3548 73.2722C89.2447 77.1585 91.4342 82.4306 91.4427 87.9308" fill="white"/>
<g filter="url(#filter0_f_19871_209799)">
<ellipse cx="91.0007" cy="209" rx="82.7273" ry="10" fill="#98C7FF" fill-opacity="0.25"/>
</g>
<defs>
<filter id="filter0_f_19871_209799" x="0.273438" y="191" width="181.453" height="36" filterUnits="userSpaceOnUse" color-interpolation-filters="sRGB">
<feFlood flood-opacity="0" result="BackgroundImageFix"/>
<feBlend mode="normal" in="SourceGraphic" in2="BackgroundImageFix" result="shape"/>
<feGaussianBlur stdDeviation="4" result="effect1_foregroundBlur_19871_209799"/>
</filter>
</defs>
</svg>
