<svg width="24" height="24" viewBox="0 0 24 24" fill="none" xmlns="http://www.w3.org/2000/svg">
<path d="M20 4H4C2.9 4 2 4.9 2 6V18C2 19.1 2.9 20 4 20H20C21.1 20 22 19.1 22 18V6C22 4.9 21.1 4 20 4ZM20 18H4V6H20V18Z" fill="black"/>
<path d="M6.49172 10.5V15H7.64172V9H6.77172L5.01172 10.27L5.59172 11.16L6.49172 10.5Z" fill="black"/>
<path d="M11.4686 10.0492C11.9686 10.0492 12.2786 10.3692 12.2786 10.7692C12.2786 11.1392 12.1386 11.4092 11.7386 11.8292C11.3786 12.2092 10.6786 12.9092 9.60859 13.9792V14.9992H13.4986V14.0092H11.1286L11.0986 13.9592C11.7786 13.2792 12.2486 12.8192 12.4986 12.5692C13.1086 11.9692 13.4186 11.3492 13.4186 10.7092C13.4186 10.4692 13.3686 9.66916 12.5086 9.22916C12.0386 8.99916 11.2486 8.86916 10.5586 9.19916C9.73859 9.58916 9.56859 10.3292 9.55859 10.3492L10.5686 10.7692C10.6686 10.4392 10.9486 10.0492 11.4686 10.0492Z" fill="black"/>
<path d="M16.9914 13.94C16.1614 13.94 16.0014 13.18 15.9714 13.08L14.9414 13.49C15.3914 15.08 16.9514 15 16.9914 15C18.1914 15 18.6714 14.28 18.7514 14.15C19.0714 13.66 19.1114 12.91 18.7414 12.39C18.5714 12.15 18.3414 11.98 18.0614 11.87V11.8C18.2614 11.7 18.4314 11.54 18.5814 11.32C18.8414 10.91 18.8914 10.25 18.5614 9.75C18.4814 9.64 18.0314 9 16.9414 9C15.6814 9 15.2014 9.9 15.0914 10.24L16.0814 10.65C16.1914 10.33 16.4314 10.01 16.9314 10.01C17.3714 10.01 17.6814 10.27 17.6814 10.66C17.6814 11.24 17.1314 11.38 16.8014 11.38H16.3414V12.38H16.8414C17.4014 12.38 17.8814 12.62 17.8814 13.17C17.8814 13.66 17.4014 13.94 16.9914 13.94Z" fill="black"/>
</svg>
