<svg width="532" height="382" viewBox="0 0 532 382" fill="none" xmlns="http://www.w3.org/2000/svg">
<path d="M532 258.15C532.028 281.513 528.785 304.771 522.361 327.285C521.026 331.977 519.545 336.618 517.949 341.198C516.353 345.778 514.527 350.54 512.608 355.11C509.986 361.372 507.128 367.505 504.033 373.511C503.171 375.206 502.277 376.895 501.352 378.577L501.113 379.013C500.998 379.236 500.873 379.459 500.747 379.682L500.09 380.867C500.067 380.926 500.039 380.984 500.007 381.039H32.014C31.9515 380.928 31.8993 380.827 31.8471 380.715C31.6698 380.411 31.4925 380.097 31.3256 379.773C31.1587 379.448 31.0439 379.286 30.9187 379.033C30.345 378.02 29.8026 377.007 29.2497 375.932C28.3735 374.291 27.5181 372.636 26.6836 370.967C25.9743 369.559 25.2858 368.151 24.5973 366.722C8.35003 332.705 -0.0450121 295.65 0.000181505 258.15C0.000181505 115.573 119.105 0 266 0C412.895 0 532 115.573 532 258.15Z" fill="#BCEBFF"/>
<g clip-path="url(#clip0_1638_83500)">
<path d="M459.685 381.039C462.877 381.04 465.941 379.782 468.214 377.539C470.486 375.295 471.784 372.247 471.827 369.053C472.333 335.995 474.994 287.229 412.767 273.735C362.406 262.827 392.26 173.274 256.638 179.067C159.283 183.218 185.103 265.318 109.447 272.161C59.0763 276.713 58.6376 340.452 60.5738 369.654C60.7771 372.733 62.1427 375.619 64.3938 377.728C66.6448 379.837 69.613 381.01 72.6967 381.011L459.685 381.039Z" fill="#739AF0"/>
<path opacity="0.55" d="M412.768 273.764C362.406 262.856 392.261 173.302 256.639 179.095C233.48 180.05 217.304 185.48 205.066 193.229C209.187 192.685 213.565 192.274 218.229 192.112C353.86 186.319 323.997 275.863 374.358 286.781C435.926 300.141 433.98 348.001 433.437 381.039H459.685C462.878 381.04 465.942 379.782 468.214 377.539C470.487 375.295 471.785 372.247 471.827 369.053C472.333 336.024 474.994 287.258 412.768 273.764Z" fill="#BDD0FB"/>
<path d="M199.161 8.18457H197.342V161.873H199.161V8.18457Z" fill="#79C9E8"/>
<path d="M353.166 15.4597H351.029V195.788H353.166V15.4597Z" fill="#79C9E8"/>
<path d="M352.581 175.326L193.353 156.678C191.734 156.488 190.094 156.619 188.526 157.063C186.958 157.508 185.493 158.257 184.215 159.268C182.937 160.279 181.87 161.533 181.076 162.957C180.283 164.381 179.777 165.947 179.589 167.567L167.705 269.45C167.516 271.069 167.648 272.709 168.092 274.277C168.537 275.844 169.286 277.309 170.297 278.587C171.308 279.865 172.56 280.931 173.982 281.724C175.405 282.518 176.97 283.023 178.588 283.212L337.874 301.811C339.491 302 341.13 301.869 342.697 301.424C344.264 300.979 345.728 300.229 347.005 299.218C348.282 298.207 349.348 296.954 350.141 295.53C350.934 294.107 351.439 292.541 351.627 290.923L363.512 189.039C363.879 185.771 362.934 182.49 360.884 179.918C358.834 177.347 355.848 175.695 352.581 175.326Z" fill="#D7F0F9"/>
<path d="M362.746 199L363.924 188.802C364.293 185.498 363.343 182.181 361.285 179.581C359.226 176.981 356.226 175.311 352.945 174.938L193.005 156.086C191.38 155.893 189.732 156.026 188.157 156.475C186.582 156.924 185.111 157.682 183.827 158.704C182.543 159.726 181.472 160.994 180.674 162.433C179.877 163.873 179.369 165.457 179.18 167.094L178.002 177.292L362.746 199Z" fill="#739AF0"/>
<path d="M204.18 239.341L224.362 203.755C224.995 202.64 225.943 201.736 227.086 201.158C228.23 200.579 229.518 200.35 230.791 200.501C232.508 200.702 234.075 201.576 235.148 202.933C236.221 204.289 236.712 206.016 236.514 207.734L232.307 243.731H232.489C233.083 243.801 233.658 243.988 234.179 244.282C234.7 244.575 235.158 244.97 235.526 245.443C235.893 245.915 236.163 246.456 236.319 247.034C236.476 247.612 236.516 248.215 236.437 248.808C236.296 250 235.689 251.086 234.749 251.83C233.808 252.575 232.611 252.915 231.42 252.778H231.249L230.476 259.334C230.404 259.972 230.207 260.589 229.895 261.149C229.584 261.71 229.165 262.204 228.663 262.602C228.16 263 227.584 263.295 226.967 263.47C226.35 263.644 225.705 263.695 225.068 263.619V263.619C224.432 263.546 223.816 263.348 223.256 263.036C222.696 262.724 222.203 262.305 221.805 261.802C221.408 261.3 221.113 260.724 220.938 260.107C220.763 259.49 220.711 258.845 220.785 258.208L221.548 251.652L207.022 249.953C206.432 249.885 205.861 249.7 205.342 249.411C204.824 249.121 204.367 248.733 203.998 248.266C203.63 247.8 203.357 247.266 203.195 246.694C203.033 246.122 202.985 245.524 203.054 244.934L203.436 241.632C203.517 240.824 203.771 240.043 204.18 239.341V239.341ZM222.684 242.004L225.287 219.682C225.293 219.665 225.295 219.648 225.294 219.63C225.293 219.612 225.288 219.595 225.28 219.579C225.272 219.563 225.261 219.549 225.248 219.537C225.234 219.525 225.218 219.516 225.202 219.511C225.185 219.505 225.167 219.503 225.149 219.504C225.131 219.505 225.114 219.51 225.098 219.518C225.082 219.526 225.068 219.537 225.056 219.55C225.044 219.564 225.036 219.58 225.03 219.597L213.098 240.649C213.05 240.735 213.024 240.831 213.023 240.929C213.021 241.027 213.043 241.124 213.087 241.211C213.131 241.299 213.196 241.374 213.276 241.431C213.356 241.488 213.449 241.524 213.546 241.536L222.025 242.491C222.176 242.508 222.328 242.467 222.45 242.377C222.572 242.286 222.656 242.153 222.684 242.004V242.004Z" fill="#79C9E8"/>
<path d="M293.254 249.763L313.446 214.176C314.079 213.063 315.025 212.16 316.166 211.582C317.308 211.003 318.594 210.773 319.866 210.922C320.716 211.02 321.539 211.285 322.288 211.702C323.036 212.119 323.695 212.68 324.226 213.351C324.758 214.023 325.152 214.793 325.385 215.618C325.619 216.442 325.688 217.305 325.588 218.156L321.392 254.153H321.573C322.162 254.22 322.732 254.403 323.251 254.692C323.769 254.981 324.225 255.369 324.593 255.834C324.961 256.3 325.233 256.834 325.394 257.405C325.555 257.976 325.602 258.574 325.531 259.163V259.163C325.464 259.753 325.281 260.324 324.992 260.843C324.704 261.362 324.316 261.819 323.851 262.187C323.386 262.556 322.852 262.83 322.281 262.992C321.71 263.154 321.113 263.202 320.524 263.133H320.342L319.579 269.689C319.429 270.973 318.775 272.145 317.76 272.947C316.746 273.749 315.455 274.115 314.171 273.964V273.964C313.534 273.892 312.918 273.695 312.357 273.383C311.797 273.072 311.304 272.653 310.906 272.15C310.508 271.647 310.213 271.07 310.038 270.453C309.864 269.836 309.813 269.19 309.889 268.553L310.652 261.997L296.116 260.26C295.526 260.192 294.955 260.007 294.436 259.718C293.917 259.428 293.461 259.039 293.092 258.573C292.724 258.107 292.451 257.573 292.289 257.001C292.127 256.429 292.079 255.831 292.148 255.241L292.539 251.939C292.631 251.173 292.874 250.433 293.254 249.763ZM311.787 252.406L314.391 230.085C314.394 230.052 314.387 230.019 314.369 229.991C314.351 229.963 314.324 229.942 314.292 229.932C314.261 229.922 314.227 229.923 314.196 229.935C314.165 229.947 314.14 229.97 314.124 229.999L302.201 251.051C302.154 251.137 302.128 251.233 302.126 251.331C302.124 251.429 302.146 251.526 302.19 251.614C302.235 251.701 302.3 251.776 302.38 251.833C302.46 251.89 302.552 251.926 302.649 251.939L311.129 252.893C311.28 252.91 311.431 252.869 311.553 252.779C311.675 252.689 311.759 252.555 311.787 252.406V252.406Z" fill="#79C9E8"/>
<path d="M253.214 218.404C254.387 208.355 260.349 203.221 270.039 204.356C279.73 205.492 284.347 211.848 283.192 221.906L279.377 254.592C278.204 264.65 272.233 269.775 262.543 268.649C252.852 267.523 248.235 261.148 249.399 251.089L253.214 218.404ZM259.195 252.874C258.67 257.369 260.454 259.297 263.592 259.669C266.73 260.041 268.904 258.562 269.429 254.067L273.387 220.179C273.912 215.684 272.138 213.747 269 213.384C265.862 213.021 263.678 214.491 263.163 218.976L259.195 252.874Z" fill="#79C9E8"/>
<path d="M197.187 170.755C197.112 171.412 196.845 172.032 196.418 172.536C195.991 173.041 195.424 173.408 194.789 173.59C194.153 173.772 193.478 173.761 192.849 173.559C192.22 173.357 191.665 172.973 191.254 172.455C190.844 171.937 190.596 171.308 190.542 170.649C190.489 169.99 190.632 169.33 190.954 168.753C191.275 168.175 191.761 167.706 192.349 167.405C192.938 167.104 193.602 166.984 194.259 167.061C195.136 167.164 195.936 167.611 196.485 168.303C197.034 168.995 197.286 169.877 197.187 170.755Z" fill="#FFE45C"/>
<path d="M213.154 172.625C213.076 173.279 212.806 173.895 212.378 174.395C211.95 174.895 211.384 175.258 210.751 175.436C210.117 175.615 209.445 175.601 208.819 175.398C208.194 175.194 207.642 174.81 207.235 174.293C206.827 173.776 206.582 173.15 206.53 172.493C206.478 171.837 206.622 171.18 206.943 170.605C207.264 170.03 207.748 169.564 208.334 169.264C208.92 168.965 209.581 168.846 210.235 168.922C210.67 168.973 211.09 169.109 211.473 169.323C211.855 169.537 212.191 169.824 212.462 170.168C212.733 170.512 212.934 170.906 213.052 171.327C213.171 171.749 213.206 172.19 213.154 172.625V172.625Z" fill="#FE7062"/>
<path d="M229.76 174.553C229.684 175.207 229.416 175.824 228.989 176.326C228.562 176.828 227.996 177.191 227.363 177.371C226.729 177.551 226.057 177.539 225.43 177.336C224.803 177.134 224.251 176.75 223.843 176.233C223.434 175.716 223.188 175.09 223.136 174.433C223.083 173.776 223.226 173.119 223.547 172.543C223.868 171.968 224.353 171.501 224.939 171.201C225.526 170.902 226.188 170.783 226.842 170.859C227.718 170.962 228.518 171.409 229.065 172.102C229.612 172.794 229.862 173.676 229.76 174.553Z" fill="#FFE45C"/>
<path d="M165.655 290.598C164.334 296.939 163.733 303.409 163.862 309.885C164.186 318.617 163.146 376.029 163.146 376.029H170.157C170.157 376.029 180.134 331.071 180.506 327.521C180.878 323.971 185.885 288.47 185.885 288.47L165.655 290.598Z" fill="#09005D"/>
<path d="M170.318 287.983C170.318 287.983 171.93 300.246 174.677 308.978C177.424 317.711 190.892 376.048 190.892 376.048H197.902C197.902 376.048 196.615 331.09 196.128 327.54C195.642 323.99 192.094 288.48 192.094 288.48L170.318 287.983Z" fill="#090192"/>
<path d="M191.465 376.029V380.925H204.818C204.983 380.925 205.143 380.873 205.275 380.774C205.408 380.676 205.505 380.538 205.552 380.38C205.599 380.222 205.594 380.054 205.537 379.899C205.481 379.744 205.376 379.612 205.238 379.522C203.33 378.224 200.164 376.43 197.264 376.029H191.465Z" fill="#FE7F75"/>
<path d="M163.508 376.029V380.925H176.861C177.02 380.921 177.173 380.868 177.3 380.772C177.427 380.677 177.521 380.545 177.569 380.394C177.617 380.243 177.617 380.08 177.569 379.929C177.521 379.778 177.427 379.646 177.3 379.551C175.345 378.253 172.226 376.458 169.317 376.058L163.508 376.029Z" fill="#FE7F75"/>
<path d="M187.574 230.924C187.574 230.924 192.171 223.948 186.897 223.29C182.853 222.765 181.174 223.967 181.174 223.967C181.174 223.967 176.51 223.462 173.963 225.666C172.218 227.183 165.808 238.931 176.176 243.178C186.544 247.425 184.331 236.498 184.331 236.498L187.574 230.924Z" fill="#001333"/>
<path d="M186.897 223.271C182.853 222.746 181.174 223.948 181.174 223.948C181.174 223.948 176.51 223.443 173.963 225.647C172.218 227.164 165.808 238.912 176.176 243.159C181.05 245.163 183.139 243.817 183.988 241.823C174.154 244.6 173.086 232.738 174.707 229.359C176.329 225.981 180.316 227.518 180.316 227.518C181.861 223.614 186.897 224.044 188.976 224.34C188.724 224.025 188.409 223.767 188.051 223.583C187.692 223.399 187.299 223.292 186.897 223.271V223.271Z" fill="#032155"/>
<path d="M181.117 234.322C181.117 234.322 179.763 232.957 178.742 234.322C177.721 235.687 178.399 238.74 180.096 238.912C180.096 238.912 179.591 243.331 176.195 243.159V246.738H184.179V244.037C184.179 244.037 189.11 242.004 188.948 237.92C188.865 235.54 188.405 233.188 187.584 230.953C185.867 232.771 183.589 233.957 181.117 234.322V234.322Z" fill="#FFBCBB"/>
<path d="M182.336 245.153C183.128 245.487 182.995 245.984 183.033 246.738H184.177V244.037C184.177 244.037 182.27 244.657 179.408 243.083C180.281 243.909 181.267 244.606 182.336 245.153V245.153Z" fill="#ED701B"/>
<path d="M183.978 227.813C183.978 227.813 179.839 226.162 179.352 227.403C179.037 228.214 179.839 228.911 180.945 229.617L179.991 229.77C179.941 229.776 179.894 229.798 179.856 229.831C179.818 229.865 179.791 229.909 179.778 229.958C179.764 230.006 179.766 230.058 179.782 230.106C179.798 230.154 179.827 230.196 179.867 230.228C180.683 230.574 181.569 230.718 182.452 230.648L183.978 227.813Z" fill="#FFBCBB"/>
<path d="M213.545 238.187C205.647 232.337 184.082 227.689 184.082 227.689L182.308 230.934C182.308 230.934 201.88 238.568 200.592 239.656C199.829 240.324 190.262 244.705 187.029 246.184C186.327 246.498 185.565 246.654 184.797 246.642L174.887 246.585C172.469 246.468 170.058 246.914 167.841 247.887C165.625 248.861 163.665 250.336 162.115 252.196C157.089 257.989 148.533 271.397 148.533 271.397L162.936 292.583L164.529 294.921V295.122L165.95 295.265C170.576 295.694 185.407 296.868 193.267 295.198L193.477 295.15L193.105 260.394C200.69 254.471 207.619 247.753 213.774 240.353C213.913 240.201 214.019 240.022 214.083 239.826C214.148 239.63 214.17 239.423 214.149 239.218C214.127 239.013 214.062 238.815 213.958 238.637C213.854 238.459 213.713 238.306 213.545 238.187ZM165.225 285.588L163.823 282.515L159.349 272.733L166.77 264.412L165.435 282.668L165.225 285.588Z" fill="#FE7F75"/>
<path d="M163.813 282.515L165.225 285.588L164.538 294.855L164.528 294.883L162.936 292.545L163.813 282.515Z" fill="#FFBCBB"/>
<g style="mix-blend-mode:multiply" opacity="0.29">
<path d="M189.758 259.077C188.422 260.031 188.804 268.62 188.432 274.012C187.879 283.011 187.344 290.799 187.745 295.828C189.6 295.726 191.446 295.494 193.268 295.131L193.477 295.084L193.105 260.327C200.691 254.405 207.62 247.686 213.775 240.286C213.908 240.135 214.008 239.958 214.069 239.766C214.13 239.574 214.15 239.372 214.128 239.172C214.107 238.972 214.044 238.778 213.944 238.604C213.843 238.429 213.708 238.277 213.546 238.158C206.258 245.83 198.297 252.831 189.758 259.077V259.077Z" fill="#E1473D"/>
</g>
<path d="M196.128 327.531C195.775 324.963 193.839 305.762 192.78 295.265L187.744 295.828C187.744 295.828 195.088 356.265 195.575 376.039H197.902C197.902 376.039 196.615 331.081 196.128 327.531Z" fill="#09005D"/>
<path d="M163.834 235.314L162.317 232.585C163.539 230.284 163.845 227.606 163.174 225.088C162.503 222.571 160.905 220.401 158.7 219.013C156.496 217.626 153.849 217.125 151.29 217.611C148.732 218.096 146.452 219.532 144.908 221.63C143.364 223.728 142.671 226.333 142.968 228.921C143.264 231.51 144.529 233.89 146.507 235.584C148.486 237.278 151.032 238.16 153.633 238.054C156.235 237.947 158.7 236.859 160.534 235.009L163.834 235.314Z" fill="#0582C1"/>
<path d="M147.875 226.859H148.276V228.291C148.276 228.73 148.409 228.92 148.714 228.92C149.02 228.92 149.124 228.796 149.353 228.52V226.859H149.744V229.207H149.42V228.835C149.336 228.963 149.221 229.069 149.087 229.144C148.952 229.219 148.801 229.26 148.648 229.264C148.152 229.264 147.923 228.94 147.923 228.31L147.875 226.859Z" fill="white"/>
<path d="M151.415 229.388V230.18H151.023V226.859H151.348V227.126C151.553 226.933 151.82 226.818 152.101 226.802C152.702 226.802 153.055 227.269 153.055 227.995C153.055 228.72 152.578 229.264 152.034 229.264C151.794 229.246 151.566 229.148 151.386 228.987L151.415 229.388ZM151.987 228.92C152.378 228.92 152.664 228.567 152.664 227.966C152.664 227.365 152.483 227.107 152.044 227.107C151.802 227.128 151.577 227.241 151.415 227.422V228.653C151.569 228.805 151.771 228.899 151.987 228.92Z" fill="white"/>
<path d="M154.115 228.663C154.306 228.835 154.553 228.933 154.811 228.939C155.116 228.939 155.269 228.777 155.269 228.577C155.269 228.376 154.992 228.233 154.735 228.128C154.477 228.023 154.038 227.852 154.038 227.46C154.038 227.069 154.334 226.792 154.839 226.792C155.108 226.792 155.368 226.887 155.574 227.059L155.383 227.308C155.235 227.178 155.046 227.103 154.849 227.098C154.553 227.098 154.42 227.26 154.42 227.441C154.42 227.623 154.677 227.737 154.935 227.842C155.192 227.947 155.65 228.109 155.65 228.548C155.65 228.987 155.345 229.254 154.792 229.254C154.474 229.248 154.168 229.133 153.924 228.93L154.115 228.663Z" fill="white"/>
<path d="M156.89 228.644C156.951 228.64 157.012 228.654 157.064 228.686C157.117 228.717 157.159 228.763 157.185 228.818C157.211 228.874 157.22 228.936 157.21 228.996C157.201 229.057 157.173 229.113 157.132 229.157C157.09 229.202 157.035 229.233 156.976 229.246C156.916 229.26 156.854 229.255 156.797 229.233C156.74 229.21 156.691 229.171 156.657 229.121C156.622 229.07 156.604 229.01 156.604 228.949C156.602 228.91 156.609 228.871 156.622 228.835C156.636 228.799 156.657 228.765 156.683 228.737C156.71 228.709 156.742 228.686 156.777 228.67C156.813 228.654 156.851 228.645 156.89 228.644V228.644Z" fill="white"/>
<path d="M158.577 228.644C158.638 228.642 158.698 228.658 158.749 228.69C158.801 228.723 158.841 228.77 158.866 228.825C158.89 228.881 158.898 228.943 158.887 229.003C158.876 229.062 158.848 229.118 158.806 229.161C158.764 229.205 158.709 229.235 158.65 229.248C158.59 229.26 158.528 229.255 158.472 229.232C158.416 229.209 158.368 229.17 158.334 229.12C158.3 229.069 158.281 229.01 158.281 228.949C158.28 228.909 158.287 228.87 158.301 228.833C158.315 228.796 158.337 228.762 158.365 228.734C158.392 228.705 158.425 228.683 158.462 228.667C158.498 228.652 158.537 228.644 158.577 228.644Z" fill="white"/>
<path d="M124.413 359.023C124.413 359.023 122.248 357.009 123.697 349.356C125.147 341.702 128.829 334.344 127.017 326.032C125.204 317.72 111.069 296.782 111.021 295.389C110.973 293.996 106.653 319.753 113.968 329.926C121.284 340.099 122.171 343.601 121.847 348.936C121.523 354.271 121.923 358.575 122.724 359.815L124.413 359.023Z" fill="#79C9E8"/>
<path d="M123.068 343.63C122.219 347.046 121.704 355.607 123.068 357.658C123.192 357.849 123.373 357.744 123.602 357.382C123.183 355.969 122.915 353.488 123.698 349.356C125.147 341.721 128.829 334.344 127.017 326.032C125.205 317.72 111.069 296.782 111.021 295.389C111.021 295.389 113.158 312.834 120.331 324.849C125.472 333.447 123.888 340.213 123.068 343.63Z" fill="#49B4D6"/>
<path d="M126.987 358.498C126.987 358.498 122.828 348.115 129.848 339.126C136.868 330.136 148.152 318.589 148.381 314.017C148.381 314.017 151.242 335.728 142.104 341.874C132.967 348.02 126.538 349.012 128.122 358.46L126.987 358.498Z" fill="#79C9E8"/>
<path d="M136.887 337.56C126.662 345.004 125.823 353.583 127.406 357.553C127.46 357.701 127.549 357.833 127.665 357.938C127.782 358.042 127.922 358.117 128.074 358.155C126.701 349.031 133.082 347.991 142.133 341.931C151.185 335.871 148.409 314.074 148.409 314.074C148.409 314.074 147.103 330.059 136.887 337.56Z" fill="#49B4D6"/>
<path d="M120.148 358.727C120.963 354.967 121.175 351.102 120.777 347.275C120.072 341.378 113.872 338.018 108.082 331.749C105.097 328.523 104.219 311.469 106.06 309.885C106.06 309.885 95.8449 322.291 97.4187 331.357C98.9925 340.423 115.675 346.331 117.21 350.711C118.129 353.304 118.607 356.033 118.622 358.784L120.148 358.727Z" fill="#79C9E8"/>
<path d="M102.608 314.762C99.2313 323.914 102.694 335.003 113.92 341.893C122.18 346.96 119.547 357.506 119.547 357.506L120.902 353.345C121.043 351.328 121.002 349.303 120.778 347.294C120.072 341.378 113.872 338.018 108.083 331.749C105.221 328.637 104.267 312.662 105.879 310.114C104.711 311.607 103.619 313.158 102.608 314.762V314.762Z" fill="#49B4D6"/>
<path d="M105.879 310.114L106.06 309.885C105.991 309.954 105.93 310.031 105.879 310.114V310.114Z" fill="#49B4D6"/>
<path d="M129.123 358.04C129.123 358.04 131.517 349.146 137.45 347.953C143.382 346.76 150.183 337.99 150.546 336.272C150.593 336.272 149.544 352.829 129.123 358.04Z" fill="#79C9E8"/>
<path d="M137.108 350.921C133.483 352.734 131.967 355.177 131.385 357.401C149.564 351.551 150.461 336.301 150.461 336.301C150.236 336.926 149.914 337.512 149.507 338.038C147.838 341.139 143.527 347.686 137.108 350.921Z" fill="#49B4D6"/>
<path d="M141.952 354.738H110.953L114.635 377.928C114.769 378.78 115.203 379.557 115.859 380.117C116.515 380.677 117.349 380.983 118.212 380.982H134.693C135.556 380.983 136.39 380.677 137.046 380.117C137.702 379.557 138.136 378.78 138.27 377.928L141.952 354.738Z" fill="#FE7062"/>
<path d="M141.341 358.603L141.942 354.767H110.953L111.564 358.603H141.341Z" fill="#FE7F75"/>
<path d="M134.436 354.738L130.764 377.9C130.628 378.751 130.193 379.526 129.538 380.086C128.883 380.645 128.049 380.953 127.188 380.953H134.694C135.556 380.955 136.391 380.648 137.046 380.088C137.702 379.528 138.137 378.752 138.271 377.9L141.952 354.738H134.436Z" fill="#FF5F50"/>
<path d="M355.721 313.464H215.645V341.96H355.721V313.464Z" fill="#FFE45C"/>
<g style="mix-blend-mode:multiply" opacity="0.29">
<path d="M355.721 313.464H215.645V320.383H355.721V313.464Z" fill="#F98D2B"/>
</g>
<path d="M227.824 313.464H240.605L237.181 320.383H224.391L227.824 313.464Z" fill="#F77E2D"/>
<path d="M256.629 313.464H269.41L265.986 320.383H253.205L256.629 313.464Z" fill="#F77E2D"/>
<path d="M285.434 313.464H298.215L294.791 320.383H282.01L285.434 313.464Z" fill="#F77E2D"/>
<path d="M314.238 313.464H327.01L323.586 320.383H310.805L314.238 313.464Z" fill="#F77E2D"/>
<path d="M355.719 313.464V313.655L352.381 320.383H339.609L343.043 313.464H355.719Z" fill="#F77E2D"/>
<path d="M242.952 341.96H233.08V380.925H242.952V341.96Z" fill="#79C9E8"/>
<path d="M242.95 341.96H240.709V380.925H242.95V341.96Z" fill="#49B4D6"/>
<path d="M339.048 341.96H329.176V380.925H339.048V341.96Z" fill="#79C9E8"/>
<path d="M339.048 341.96H336.129V380.925H339.048V341.96Z" fill="#49B4D6"/>
<path d="M242.952 341.931H233.08V346.836H242.952V341.931Z" fill="#49B4D6"/>
<path d="M339.048 341.931H329.176V346.836H339.048V341.931Z" fill="#49B4D6"/>
<path d="M242.952 309.007H233.08V313.435H242.952V309.007Z" fill="#79C9E8"/>
<path d="M242.95 309.007H240.709V313.435H242.95V309.007Z" fill="#49B4D6"/>
<path d="M339.048 309.007H329.176V313.435H339.048V309.007Z" fill="#79C9E8"/>
<path d="M339.048 309.007H336.129V313.435H339.048V309.007Z" fill="#49B4D6"/>
<path d="M242.952 312.882H233.08V313.435H242.952V312.882Z" fill="#49B4D6"/>
<path d="M339.048 312.882H329.176V313.435H339.048V312.882Z" fill="#49B4D6"/>
<path d="M240.606 313.464L226.48 341.96H215.645V338.028L227.825 313.464H240.606Z" fill="#0582C1"/>
<path d="M256.63 313.464L242.504 341.96H255.285L269.411 313.464H256.63Z" fill="#0582C1"/>
<path d="M298.215 313.464L284.09 341.96H271.309L285.434 313.464H298.215Z" fill="#0582C1"/>
<path d="M327.011 313.464L312.894 341.96H300.113L314.239 313.464H327.011Z" fill="#0582C1"/>
<path d="M343.044 313.464L328.918 341.96H341.689L355.72 313.655L343.044 313.464Z" fill="#0582C1"/>
<path d="M240.605 313.464L237.181 320.383H224.391L227.824 313.464H240.605Z" fill="#00668E"/>
<path d="M269.41 313.464L265.986 320.383H253.205L256.629 313.464H269.41Z" fill="#00668E"/>
<path d="M298.215 313.464L294.791 320.383H282.01L285.434 313.464H298.215Z" fill="#00668E"/>
<path d="M327.01 313.464L323.586 320.383H310.805L314.238 313.464H327.01Z" fill="#00668E"/>
<path d="M355.719 313.655L352.381 320.383H339.609L343.043 313.464L355.719 313.655Z" fill="#00668E"/>
<path style="mix-blend-mode:overlay" opacity="0.55" d="M353.307 325.793H219.545V340.051H353.307V325.793Z" fill="url(#paint0_linear_1638_83500)"/>
<path d="M239.151 311.535C243.95 310.754 247.208 306.228 246.427 301.427C245.646 296.625 241.123 293.366 236.324 294.147C231.525 294.928 228.268 299.454 229.048 304.255C229.829 309.057 234.352 312.316 239.151 311.535Z" fill="#FFE45C"/>
<path d="M241.749 302.823C241.747 302.034 241.512 301.264 241.073 300.609C240.633 299.955 240.01 299.445 239.281 299.144C238.553 298.844 237.751 298.766 236.979 298.921C236.206 299.076 235.496 299.457 234.94 300.015C234.383 300.574 234.004 301.284 233.851 302.058C233.698 302.831 233.778 303.633 234.08 304.361C234.382 305.09 234.893 305.712 235.548 306.15C236.204 306.588 236.974 306.822 237.762 306.822C238.287 306.822 238.806 306.718 239.29 306.517C239.775 306.316 240.214 306.021 240.585 305.65C240.955 305.278 241.249 304.838 241.448 304.353C241.648 303.867 241.75 303.348 241.749 302.823V302.823Z" fill="#0582C1"/>
<path d="M335.448 311.543C340.247 310.762 343.505 306.237 342.724 301.435C341.943 296.633 337.42 293.374 332.621 294.155C327.822 294.936 324.565 299.462 325.345 304.264C326.126 309.065 330.649 312.325 335.448 311.543Z" fill="#FFE45C"/>
<path d="M338.046 302.823C338.044 302.034 337.809 301.264 337.37 300.609C336.93 299.955 336.307 299.445 335.578 299.144C334.85 298.844 334.048 298.766 333.276 298.921C332.503 299.076 331.793 299.457 331.237 300.015C330.68 300.574 330.301 301.284 330.148 302.058C329.995 302.831 330.075 303.633 330.377 304.361C330.679 305.09 331.19 305.712 331.845 306.15C332.501 306.588 333.271 306.822 334.059 306.822C334.584 306.822 335.103 306.718 335.587 306.517C336.071 306.316 336.511 306.021 336.882 305.65C337.252 305.278 337.546 304.838 337.745 304.353C337.945 303.867 338.047 303.348 338.046 302.823V302.823Z" fill="#0582C1"/>
<path d="M408.799 377.9H364.18L371.009 361.352L373.746 354.671L374.509 352.849L375.74 349.862L375.988 349.26L378.735 342.58L379.24 341.368L384.105 329.554C384.298 329.08 384.628 328.674 385.053 328.388C385.477 328.103 385.978 327.95 386.489 327.95C387.001 327.95 387.501 328.103 387.926 328.388C388.35 328.674 388.681 329.08 388.874 329.554L393.738 341.368L394.244 342.58L396.981 349.26L397.239 349.862L398.469 352.849L399.223 354.671L401.97 361.352L408.799 377.9Z" fill="#FFE45C"/>
<g style="mix-blend-mode:multiply" opacity="0.29">
<path d="M367.108 370.809L364.18 377.899H408.799L405.871 370.809H367.108Z" fill="#F98D2B"/>
</g>
<path d="M411.709 373.662H360.613V380.887H411.709V373.662Z" fill="#79C9E8"/>
<path d="M411.709 373.662H400.674V380.887H411.709V373.662Z" fill="#49B4D6"/>
<g style="mix-blend-mode:multiply" opacity="0.29">
<path d="M407.043 373.662H400.729L395.655 361.361L392.918 354.681L392.155 352.849L390.953 349.862L390.705 349.251L387.958 342.57L387.424 341.378L383.322 331.414L384.085 329.506C384.279 329.032 384.609 328.626 385.033 328.34C385.458 328.055 385.958 327.902 386.47 327.902C386.982 327.902 387.482 328.055 387.906 328.34C388.331 328.626 388.661 329.032 388.854 329.506L393.719 341.32L394.224 342.532L396.962 349.213L397.219 349.823L398.45 352.801L399.203 354.633L401.95 361.313L407.043 373.662Z" fill="#F98D2B"/>
</g>
<path d="M396.982 349.251H375.988L378.735 342.571H394.235L396.982 349.251Z" fill="#0582C1"/>
<path d="M401.97 361.342V361.352H371V361.342L373.747 354.662H399.223L401.97 361.342Z" fill="#0582C1"/>
<path d="M396.981 349.251H390.677L387.93 342.571H394.234L396.981 349.251Z" fill="#00668E"/>
<path d="M401.969 361.342V361.352H395.655V361.342L392.908 354.662H399.222L401.969 361.342Z" fill="#00668E"/>
<path d="M124.422 215.608C126.04 215.624 127.608 215.053 128.836 214C130.064 212.947 130.868 211.483 131.099 209.882C131.184 209.281 131.225 208.675 131.223 208.069C131.223 204.525 129.816 201.127 127.312 198.621C124.808 196.116 121.411 194.708 117.87 194.708C117.574 194.708 117.269 194.708 116.973 194.708C116.647 191.085 114.939 187.727 112.204 185.331C109.469 182.934 105.916 181.684 102.284 181.838C98.6514 181.993 95.2181 183.541 92.6963 186.161C90.1745 188.782 88.7579 192.273 88.7405 195.91C88.7405 196.254 88.7405 196.598 88.7405 196.941C86.6644 195.785 84.3308 195.172 81.955 195.156C79.5792 195.141 77.2379 195.724 75.147 196.853C73.0561 197.982 71.283 199.619 69.9914 201.615C68.6998 203.61 67.9313 205.898 67.7568 208.269C67.7568 208.326 67.7568 208.383 67.7568 208.441C67.7101 209.357 67.8506 210.274 68.1696 211.134C68.4887 211.995 68.9795 212.781 69.6123 213.446C70.2451 214.11 71.0066 214.638 71.8502 214.999C72.6939 215.359 73.602 215.543 74.5193 215.541L124.422 215.608Z" fill="#F3FCFF"/>
<path d="M442.164 226.067C452.656 226.067 453.276 210.216 442.765 209.7H441.897C440.07 209.698 438.255 209.984 436.517 210.55C435.811 206.277 433.594 202.399 430.271 199.624C426.947 196.848 422.738 195.359 418.41 195.428C414.082 195.496 409.922 197.117 406.687 199.996C403.453 202.874 401.36 206.819 400.788 211.113C397.246 209.43 393.226 209.042 389.428 210.015C380.224 212.382 382.16 226.086 391.66 226.086L442.164 226.067Z" fill="#F3FCFF"/>
<path d="M315.736 147.956C326.228 147.956 326.839 132.114 316.328 131.599H315.46C313.634 131.597 311.819 131.881 310.08 132.438C309.38 128.161 307.165 124.278 303.841 121.499C300.517 118.719 296.305 117.228 291.973 117.297C287.642 117.367 283.479 118.992 280.246 121.877C277.013 124.761 274.924 128.713 274.36 133.011C272.12 131.933 269.664 131.375 267.178 131.379C265.772 131.378 264.372 131.554 263.01 131.904C253.806 134.28 255.742 147.975 265.242 147.975L315.736 147.956Z" fill="#F3FCFF"/>
<path d="M148.152 177.244C162.085 177.244 173.38 165.943 173.38 152.002C173.38 138.061 162.085 126.76 148.152 126.76C134.219 126.76 122.924 138.061 122.924 152.002C122.924 165.943 134.219 177.244 148.152 177.244Z" fill="#FFE45C"/>
<path d="M148.362 126.76C152.902 129.742 156.359 134.109 158.221 139.213C160.083 144.317 160.249 149.886 158.696 155.092C157.143 160.298 153.953 164.865 149.6 168.113C145.247 171.361 139.962 173.117 134.532 173.121H134.322C137.602 175.272 141.337 176.629 145.232 177.083C149.127 177.537 153.074 177.077 156.76 175.738C160.446 174.4 163.769 172.22 166.466 169.372C169.163 166.524 171.159 163.087 172.297 159.332C173.434 155.577 173.681 151.609 173.018 147.742C172.355 143.875 170.8 140.216 168.477 137.056C166.154 133.895 163.126 131.32 159.634 129.534C156.143 127.749 152.283 126.802 148.362 126.77V126.76Z" fill="#FFD633"/>
</g>
<defs>
<linearGradient id="paint0_linear_1638_83500" x1="286.426" y1="350.291" x2="286.426" y2="327.339" gradientUnits="userSpaceOnUse">
<stop stop-color="white"/>
<stop offset="0.12" stop-color="white" stop-opacity="0.82"/>
<stop offset="0.3" stop-color="white" stop-opacity="0.58"/>
<stop offset="0.47" stop-color="white" stop-opacity="0.37"/>
<stop offset="0.64" stop-color="white" stop-opacity="0.21"/>
<stop offset="0.78" stop-color="white" stop-opacity="0.1"/>
<stop offset="0.91" stop-color="white" stop-opacity="0.02"/>
<stop offset="1" stop-color="white" stop-opacity="0"/>
</linearGradient>
<clipPath id="clip0_1638_83500">
<rect width="411.959" height="375.583" fill="white" transform="translate(60.0215 5.4563)"/>
</clipPath>
</defs>
</svg>
