<svg width="314" height="302" fill="none" xmlns="http://www.w3.org/2000/svg">
    <path d="M90.618 289.644c34.465 1.759 71.761-7.973 103.036 1.26 22.927 6.77 48.636 16.461 71.958 7.443 24.094-9.313 54.449-41.408 47.334-86.637-2.341-14.873-11.167-19.972-16.377-31.41-6.651-14.598-4.458-29.142-1.003-45.241 5.724-26.669 14.556-60.207 7.294-88.044-7.759-29.73-31.268-21.831-45.962-11.672-19.61 13.566-37.039 44.158-60.44 33.923-16.596-7.249-30.404-26.093-44.699-40.21-21.882-21.602-91.285-42.954-115.244-17.41C10.24 39.673 55.56 68.079 27.201 93.735 6.725 112.253-4.162 162.107 1.48 208.799c7.18 59.366 56.882 79.201 89.137 80.845z" fill="url(#a)"/>
    <path d="M169.063 25.445c-11.717-.094-23.539 1.788-33.997 6.182-24.344 10.23-45.004 37.296-36.918 64.939 2.627 8.981 1.247 18.889 10.082 22.792 4.78 2.111 17.798 3.369 22.747 1.704 13.155-4.423 21.803-16.528 14.648-29.954-2.291-4.297-5.259-8.222-7.235-12.681-1.976-4.46-2.88-9.744-.863-14.182 3.959-8.711 17.113-11.48 25.643-11.22 10.067.309 19.19 5.352 24.609 14.003 6.751 10.782 8.462 23.895 7.473 36.412-1.058 13.391-6.633 23.618-14.989 33.891-7.196 8.845-15.117 17.335-19.899 27.721-4.39 9.53-5.823 20.099-6.022 30.53-.039 2.022-9.964 21.075-9.924 26.896.006.822 11.255 3.55 12.072 3.555l20.656.234c.437.006.858-.164 1.171-.473.313-.308.492-.73.497-1.172.315-28.319 8.916-55.318 30.689-74.337 7.924-6.921 16.456-12.556 22.616-21.292 8.781-12.449 13.113-24.701 11.863-40.066-1.142-14.034-5.705-28.075-14.737-38.962-9.71-11.701-23.919-19.008-38.687-22.161a107.62 107.62 0 0 0-21.495-2.36zM190.672 258.02c0 13.022-7.128 24.543-19.987 24.543-2.778 0-12.226.026-14.695-.877-8.966-3.28-8.998-10.255-8.998-20.462 0-13.023 4.343-25.829 17.201-25.829 12.859 0 26.479 9.602 26.479 22.625z" fill="#98C7FF"/>
    <path d="M157.928 22.476c-11.717-.093-23.54 1.788-33.998 6.182-24.344 10.233-45.004 37.3-36.919 64.947 2.627 8.98 8.7 20.286 17.534 24.188 4.78 2.112 10.346 1.972 15.294.308 13.156-4.423 21.804-16.53 14.649-29.954-2.292-4.298-5.259-8.222-7.235-12.682-1.977-4.46-2.881-9.744-.864-14.182 3.958-8.711 17.114-11.48 25.64-11.22 10.067.31 19.19 5.353 24.608 14.004 6.752 10.78 8.463 23.895 7.474 36.41-1.058 13.393-6.633 23.619-14.989 33.893-7.197 8.844-15.117 17.335-19.899 27.721-4.39 9.53-5.824 20.099-6.022 30.53-.039 2.022.634 23.135.676 28.955.003.395.16.774.436 1.053.276.28.65.439 1.04.442l20.657.234c.436.006.857-.164 1.17-.473.313-.308.492-.73.498-1.172.315-28.32 8.915-55.318 30.689-74.337 7.923-6.921 16.456-12.557 22.616-21.292 8.78-12.449 13.112-24.698 11.867-40.066-1.142-14.033-5.705-28.074-14.737-38.961-9.713-11.703-23.921-19.015-38.69-22.165a107.617 107.617 0 0 0-21.495-2.363zM159.142 281.833c12.859 0 23.283-10.556 23.283-23.579 0-13.022-10.424-23.578-23.283-23.578-12.858 0-23.283 10.556-23.283 23.578 0 13.023 10.425 23.579 23.283 23.579z" fill="#0074FF"/>
    <path opacity=".63" d="M94.719 90.896a.298.298 0 0 1-.292-.237c-1.63-7.461-1.871-19.145 6.253-32.436 7.931-12.973 19.058-21.653 33.063-25.8 14.975-4.432 32.753-3.483 52.844 2.82a.302.302 0 0 1 .19.377.296.296 0 0 1-.366.202c-38.598-12.112-68.863-4.043-85.218 22.72-8.026 13.118-7.79 24.635-6.181 31.986a.307.307 0 0 1-.121.313.298.298 0 0 1-.172.055zM99.618 102.901a.292.292 0 0 1-.136-.033.308.308 0 0 1-.106-.091c-.071-.094-1.749-2.446-3.31-6.581a.306.306 0 0 1 .174-.391.296.296 0 0 1 .386.175c1.528 4.053 3.216 6.416 3.229 6.44a.302.302 0 0 1 .013.336.296.296 0 0 1-.25.145zM166.935 242.974a.29.29 0 0 1-.135-.033 16.59 16.59 0 0 0-7.657-1.847.297.297 0 0 1-.212-.089.305.305 0 0 1 .212-.517 17.192 17.192 0 0 1 7.926 1.913.306.306 0 0 1 .05.508.3.3 0 0 1-.186.065h.002zM149.501 273.037a.29.29 0 0 1-.166-.051 17.703 17.703 0 0 1-5.884-6.788 17.974 17.974 0 0 1 .869-17.45 17.646 17.646 0 0 1 6.529-6.155.3.3 0 0 1 .113-.04.3.3 0 0 1 .337.273.31.31 0 0 1-.072.226.298.298 0 0 1-.095.074 17.04 17.04 0 0 0-6.307 5.944 17.358 17.358 0 0 0-.84 16.857 17.092 17.092 0 0 0 5.684 6.557.303.303 0 0 1 .009.494.29.29 0 0 1-.177.059z" fill="#fff"/>
    <g opacity=".3" fill="#91B3FA">
        <path opacity=".3" d="M68.422 64.104a.705.705 0 0 1-.474.26.693.693 0 0 1-.517-.155c-.587-.48-1.2-.944-1.834-1.376a.721.721 0 0 1-.196-.98l.008-.011a.698.698 0 0 1 .979-.187 28.09 28.09 0 0 1 1.93 1.45.715.715 0 0 1 .104.999zm-6.03-3.16c-.68-.34-1.384-.653-2.087-.934a.71.71 0 0 1-.376-.38.722.722 0 0 1-.007-.538.71.71 0 0 1 .367-.39.697.697 0 0 1 .53-.02 28.7 28.7 0 0 1 2.197.983.705.705 0 0 1 .356.41.72.72 0 0 1-.482.918.696.696 0 0 1-.498-.048zm-5.623-2.055a26.524 26.524 0 0 0-2.24-.438.704.704 0 0 1-.455-.284.72.72 0 0 1 .146-.99.699.699 0 0 1 .517-.138c.789.12 1.583.275 2.358.463a.701.701 0 0 1 .437.32.72.72 0 0 1 .086.54.706.706 0 0 1-.849.526v.001zm-5.934-.733c-.758-.007-1.526.02-2.281.078a.694.694 0 0 1-.513-.169.711.711 0 0 1-.244-.487.72.72 0 0 1 .383-.69.697.697 0 0 1 .265-.076 26.754 26.754 0 0 1 2.399-.084.7.7 0 0 1 .496.214.718.718 0 0 1-.008 1.01.7.7 0 0 1-.5.204h.003zm-5.95.625c-.738.164-1.481.361-2.207.59a.697.697 0 0 1-.538-.051.722.722 0 0 1-.294-.965.707.707 0 0 1 .416-.349 28.88 28.88 0 0 1 2.323-.62.696.696 0 0 1 .727.294.72.72 0 0 1-.43 1.1h.003zm-5.667 1.947c-.686.325-1.367.685-2.024 1.069a.697.697 0 0 1-.981-.25.721.721 0 0 1 .277-.986 27.147 27.147 0 0 1 2.13-1.121.697.697 0 0 1 .889.363.722.722 0 0 1-.291.925zM23.34 81.783a.703.703 0 0 1-.461-.282.72.72 0 0 1-.13-.53c.119-.798.277-1.602.461-2.389a.713.713 0 0 1 .321-.426.697.697 0 0 1 .955.232.721.721 0 0 1 .094.528c-.177.747-.323 1.51-.437 2.268a.708.708 0 0 1-.803.599zM34.127 63.89c-.598.472-1.182.975-1.737 1.495a.7.7 0 0 1-.996-.038.72.72 0 0 1 .037-1.009c.585-.549 1.2-1.08 1.829-1.577a.7.7 0 0 1 .913.038.717.717 0 0 1-.05 1.09h.004zM24.78 75.738a.703.703 0 0 1-.389-.38.722.722 0 0 1-.009-.546 30.31 30.31 0 0 1 .976-2.224.697.697 0 0 1 .934-.302c.165.083.29.227.352.401a.722.722 0 0 1-.024.536 29.538 29.538 0 0 0-.927 2.113.716.716 0 0 1-.374.393.697.697 0 0 1-.54.009zm5.074-7.612a26.638 26.638 0 0 0-1.363 1.854.698.698 0 0 1-.963.18.722.722 0 0 1-.21-.969l.008-.014c.45-.669.932-1.325 1.435-1.952a.703.703 0 0 1 .966-.13.72.72 0 0 1 .171.972c-.012.018-.028.042-.044.06zM23.738 86.467a.707.707 0 0 0 .113-.41 29.821 29.821 0 0 1-.012-1.112.724.724 0 0 0-.193-.523.704.704 0 0 0-.78-.169.706.706 0 0 0-.387.398.723.723 0 0 0-.05.28c0 .39 0 .782.014 1.17a.72.72 0 0 0 .151.414.705.705 0 0 0 .799.226.707.707 0 0 0 .341-.274h.004z"/>
    </g>
    <g opacity=".3" fill="#91B3FA">
        <path opacity=".3" d="M32.745 106.217a.723.723 0 0 0-.118-.918c-.27-.247-.539-.503-.8-.762a.698.698 0 0 0-.996.009.718.718 0 0 0 .009 1.009c.277.273.558.543.841.803a.697.697 0 0 0 1.064-.141zM73.378 101.941a.697.697 0 0 1-.956.122.72.72 0 0 1-.184-.957c.434-.608.85-1.245 1.238-1.898a.711.711 0 0 1 .435-.344.696.696 0 0 1 .753.271.717.717 0 0 1 .02.809c-.17.284-.343.564-.52.841-.255.39-.519.78-.786 1.156zm2.13-5.082a.71.71 0 0 1-.374-.39.722.722 0 0 1 .006-.545c.295-.694.565-1.41.802-2.124a.717.717 0 0 1 .35-.43.7.7 0 0 1 .962.325.72.72 0 0 1 .024.558 28.41 28.41 0 0 1-.845 2.237.704.704 0 0 1-.925.37zm-4.586 8.071a28.067 28.067 0 0 1-1.703 1.661.699.699 0 0 1-.98-.075.722.722 0 0 1 .046-.994 24.832 24.832 0 0 0 1.618-1.577.7.7 0 0 1 1.205.376.72.72 0 0 1-.186.609zm6.501-13.876a.701.701 0 0 1-.56-.555.724.724 0 0 1-.002-.278c.137-.747.245-1.5.32-2.25a.72.72 0 0 1 .252-.49.704.704 0 0 1 .521-.161.699.699 0 0 1 .479.264.718.718 0 0 1 .15.53c-.08.79-.193 1.588-.338 2.37a.718.718 0 0 1-.294.458.7.7 0 0 1-.528.112zm-11.247 17.904c-.653.439-1.332.856-2.022 1.239a.696.696 0 0 1-.78-.067.72.72 0 0 1 .1-1.183c.655-.365 1.3-.761 1.92-1.178a.697.697 0 0 1 .882.088.722.722 0 0 1-.1 1.101zm-5.504 2.874c-.733.28-1.487.542-2.24.763a.695.695 0 0 1-.528-.068.722.722 0 0 1-.275-.958.705.705 0 0 1 .41-.344c.716-.21 1.432-.455 2.129-.725a.702.702 0 0 1 .549.002.71.71 0 0 1 .427.68.716.716 0 0 1-.472.65zm-5.991 1.588a28.2 28.2 0 0 1-2.35.252.703.703 0 0 1-.498-.184.72.72 0 0 1-.064-.992.704.704 0 0 1 .469-.248 26.679 26.679 0 0 0 2.234-.239.708.708 0 0 1 .805.881.706.706 0 0 1-.599.53h.003zm-6.192.232a26.806 26.806 0 0 1-2.349-.28.7.7 0 0 1-.476-.28.722.722 0 0 1 .16-1.013.702.702 0 0 1 .539-.116c.738.119 1.485.207 2.23.262.186.014.36.103.481.246a.72.72 0 0 1-.072 1.007.697.697 0 0 1-.513.171v.003zm-6.089-1.154c-.75-.231-1.5-.498-2.23-.793a.723.723 0 0 1-.33-.895.708.708 0 0 1 .342-.377.697.697 0 0 1 .503-.049c.693.28 1.406.534 2.122.754.179.055.328.18.416.347a.723.723 0 0 1-.031.725.697.697 0 0 1-.796.293l.004-.005zm-5.689-2.477a29.14 29.14 0 0 1-2.007-1.265.693.693 0 0 1-.297-.456.716.716 0 0 1 .564-.834.7.7 0 0 1 .528.112 28.886 28.886 0 0 0 1.907 1.203.723.723 0 0 1 .267.972l-.024.038a.705.705 0 0 1-.425.308.695.695 0 0 1-.517-.073l.004-.005zM78.593 84.625a.718.718 0 0 0 .114-.415 27.888 27.888 0 0 0-.067-1.168.717.717 0 0 0-.25-.474.7.7 0 0 0-.98.076.72.72 0 0 0-.175.507c.029.373.05.747.063 1.11a.72.72 0 0 0 .153.412.705.705 0 0 0 .798.224.706.706 0 0 0 .34-.274l.004.002z"/>
    </g>
    <path d="M69.754 76.286a.334.334 0 0 0-.306-.231l-4.007-.094a17.62 17.62 0 0 0-3.656-4.372l.572-4.017a.337.337 0 0 0-.175-.345l-4.274-2.22a.325.325 0 0 0-.379.054l-2.894 2.803a17.246 17.246 0 0 0-5.637-.467l-2.399-3.25a.33.33 0 0 0-.369-.118l-4.578 1.485a.33.33 0 0 0-.229.31l-.092 4.058a17.513 17.513 0 0 0-4.317 3.702l-3.967-.58a.325.325 0 0 0-.34.178l-2.19 4.327a.336.336 0 0 0 .054.383l2.767 2.931a17.897 17.897 0 0 0-.46 5.709l-3.21 2.43a.332.332 0 0 0-.117.368l1.467 4.636a.334.334 0 0 0 .306.232l4.007.094a17.619 17.619 0 0 0 3.654 4.368l-.572 4.018a.338.338 0 0 0 .175.345l4.275 2.227a.323.323 0 0 0 .378-.055l2.894-2.803c1.842.465 3.746.623 5.637.467l2.4 3.251a.326.326 0 0 0 .368.118l4.578-1.486a.334.334 0 0 0 .229-.31l.092-4.058a17.509 17.509 0 0 0 4.31-3.702l3.967.58a.326.326 0 0 0 .34-.178l2.2-4.329a.337.337 0 0 0-.055-.383l-2.767-2.93c.459-1.866.615-3.794.46-5.71l3.21-2.429a.334.334 0 0 0 .117-.374l-1.467-4.633z" fill="#91B3FA"/>
    <path d="M54.01 88.365A4.807 4.807 0 0 1 50.78 90a4.787 4.787 0 0 1-3.449-1.093 4.935 4.935 0 0 1-.782-6.74 4.818 4.818 0 0 1 3.104-1.872 4.78 4.78 0 0 1 3.518.833 4.895 4.895 0 0 1 1.962 3.072 4.94 4.94 0 0 1-1.122 4.164zm-7.322-3.001a3.76 3.76 0 0 0 1.033 2.36 3.655 3.655 0 0 0 4.764.463 3.737 3.737 0 0 0 1.456-2.118 3.78 3.78 0 0 0-.247-2.57 3.712 3.712 0 0 0-1.834-1.795 3.648 3.648 0 0 0-2.544-.162 3.695 3.695 0 0 0-2.041 1.548 3.765 3.765 0 0 0-.587 2.274z" fill="#BDD0FB"/>
    <path d="M60.245 91.73a12.095 12.095 0 0 0 .784-1.422c.273-.581.5-1.184.677-1.801 0-.009 0-.017.008-.026l.02-.07.038-.14a.289.289 0 0 0-.118-.314.28.28 0 0 0-.426.165 11.492 11.492 0 0 1-3.648 5.797 11.256 11.256 0 0 1-6.264 2.646 11.136 11.136 0 0 1-6.204-1.22c-.347-.18-.686-.378-1.013-.592a11.461 11.461 0 0 1-4.831-6.955 11.59 11.59 0 0 1 1.229-8.412 11.343 11.343 0 0 1 6.612-5.24 11.192 11.192 0 0 1 9.353 1.4 11.361 11.361 0 0 1 3.438 3.55.279.279 0 0 0 .438.054.287.287 0 0 0 .041-.355 11.94 11.94 0 0 0-4.655-4.342c-5.825-3.036-13.009-.705-16.003 5.193a12.175 12.175 0 0 0-.922 8.585 12.031 12.031 0 0 0 4.992 7c.342.225.695.432 1.058.621a11.75 11.75 0 0 0 8.48.937 11.892 11.892 0 0 0 6.916-5.06z" fill="#BDD0FB"/>
    <g opacity=".3" fill="#91B3FA">
        <path opacity=".3" d="M97.132 53.87a.444.444 0 0 0-.035-.527c-.24-.28-.493-.561-.75-.834a.434.434 0 0 0-.76.296.447.447 0 0 0 .134.317c.246.256.486.523.715.794a.435.435 0 0 0 .615.048.431.431 0 0 0 .08-.095zM94.704 51.548a.434.434 0 0 1-.612.066 17.953 17.953 0 0 0-1.801-1.294.44.44 0 0 1-.14-.606.45.45 0 0 1 .6-.142 18.658 18.658 0 0 1 1.89 1.357.441.441 0 0 1 .092.581l-.03.038zm-4.362-2.29a17.897 17.897 0 0 0-2.058-.813.438.438 0 0 1-.255-.218.446.446 0 0 1 .188-.595.431.431 0 0 1 .333-.028c.736.239 1.457.524 2.158.853a.433.433 0 0 1 .226.248.445.445 0 0 1-.288.576.43.43 0 0 1-.304-.022zm-4.2-1.362a17.65 17.65 0 0 0-2.189-.276.43.43 0 0 1-.305-.145.445.445 0 0 1 .188-.715.43.43 0 0 1 .17-.02c.773.048 1.54.145 2.3.29a.435.435 0 0 1 .347.342.447.447 0 0 1-.061.33.438.438 0 0 1-.45.194zm-4.403-.276c-.736.047-1.468.139-2.192.276a.431.431 0 0 1-.317-.077.442.442 0 0 1-.112-.601.435.435 0 0 1 .267-.189c.76-.144 1.529-.24 2.3-.288a.431.431 0 0 1 .418.246.443.443 0 0 1-.364.633zm-4.336.821c-.703.226-1.391.496-2.061.807a.43.43 0 0 1-.568-.221.446.446 0 0 1 .205-.58 18.885 18.885 0 0 1 2.16-.846.432.432 0 0 1 .547.287.446.446 0 0 1-.134.471.434.434 0 0 1-.15.083zm-4.008 1.863c-.628.392-1.23.823-1.805 1.29a.432.432 0 0 1-.607-.07.445.445 0 0 1 .062-.617 18.82 18.82 0 0 1 1.89-1.353.43.43 0 0 1 .54.067.442.442 0 0 1 .053.548.43.43 0 0 1-.134.135zm-3.436 2.798a18.029 18.029 0 0 0-1.436 1.7.434.434 0 0 1-.772-.208.445.445 0 0 1 .078-.324c.465-.624.968-1.22 1.506-1.782a.433.433 0 0 1 .604.002.443.443 0 0 1 .02.612zm-4.209 5.805a.446.446 0 0 1-.231-.577c.262-.627.557-1.238.882-1.833.05-.093.1-.18.15-.27a.436.436 0 0 1 .265-.206.426.426 0 0 1 .33.046.447.447 0 0 1 .16.603c-.048.083-.093.167-.142.254-.313.567-.594 1.15-.845 1.747a.436.436 0 0 1-.57.235h.001z"/>
    </g>
    <g opacity=".3" fill="#91B3FA">
        <path opacity=".3" d="M98.448 76.333c-.422.64-.883 1.254-1.378 1.837a.433.433 0 0 1-.751-.26.445.445 0 0 1 .091-.314 18.12 18.12 0 0 0 1.315-1.752.438.438 0 0 1 .445-.19.433.433 0 0 1 .344.344.445.445 0 0 1-.063.33l-.003.005zm.566-1.8a.433.433 0 0 1-.217-.255.444.444 0 0 1 .026-.336c.327-.655.616-1.33.864-2.02a.439.439 0 0 1 .226-.247.436.436 0 0 1 .577.213.454.454 0 0 1 .016.335c-.261.724-.564 1.43-.907 2.117a.433.433 0 0 1-.585.193zm-3.534 5.293c-.563.517-1.156 1-1.776 1.445a.434.434 0 0 1-.68-.26.445.445 0 0 1 .176-.46 18.062 18.062 0 0 0 1.695-1.378.432.432 0 0 1 .723.263.446.446 0 0 1-.138.39zm5.151-9.486a.437.437 0 0 1-.271-.197.451.451 0 0 1-.056-.332c.163-.716.283-1.441.358-2.172a.433.433 0 0 1 .765-.22c.072.088.109.2.101.314a18.86 18.86 0 0 1-.376 2.278.43.43 0 0 1-.261.308.429.429 0 0 1-.26.02zm-8.862 12.146c-.67.365-1.36.69-2.067.97a.43.43 0 0 1-.334-.006.446.446 0 0 1 .015-.815 17.832 17.832 0 0 0 1.972-.926c.085-.046.183-.062.279-.046a.444.444 0 0 1 .135.824v-.001zm-4.234 1.682c-.737.192-1.484.34-2.238.441a.431.431 0 0 1-.31-.094.442.442 0 0 1 .196-.78 17.96 17.96 0 0 0 2.134-.42.432.432 0 0 1 .55.31.446.446 0 0 1-.172.472.434.434 0 0 1-.16.07zm-4.512.607c-.76.008-1.521-.03-2.277-.115a.433.433 0 0 1-.37-.313.445.445 0 0 1 .143-.467.435.435 0 0 1 .32-.096c.722.083 1.448.12 2.175.113a.434.434 0 0 1 .309.126.445.445 0 0 1-.134.72.431.431 0 0 1-.166.036v-.004zM101.566 65.655a.438.438 0 0 0 .071-.249 17.966 17.966 0 0 0-.054-1.12.443.443 0 0 0-.472-.406.438.438 0 0 0-.405.473c.027.353.045.714.052 1.074a.44.44 0 0 0 .594.405.439.439 0 0 0 .214-.173v-.004z"/>
    </g>
    <path d="M95.667 59.757a.222.222 0 0 0-.204-.15l-2.681-.06a11.782 11.782 0 0 0-2.446-2.93l.383-2.687a.227.227 0 0 0-.118-.23l-2.86-1.49a.216.216 0 0 0-.253.037l-1.937 1.876a11.56 11.56 0 0 0-3.773-.315l-1.603-2.176a.222.222 0 0 0-.244-.078l-3.064.994a.221.221 0 0 0-.153.207l-.058 2.715a11.708 11.708 0 0 0-2.89 2.477l-2.652-.388a.22.22 0 0 0-.228.119l-1.472 2.896a.224.224 0 0 0 .036.256l1.854 1.962a11.97 11.97 0 0 0-.314 3.822l-2.148 1.626a.22.22 0 0 0-.077.246l.984 3.103a.224.224 0 0 0 .205.155l2.681.06a11.781 11.781 0 0 0 2.446 2.925l-.383 2.687a.225.225 0 0 0 .117.23l2.86 1.49a.217.217 0 0 0 .253-.036l1.938-1.877c1.232.312 2.506.419 3.772.315l1.607 2.175a.218.218 0 0 0 .243.079l3.063-.995a.22.22 0 0 0 .153-.207l.06-2.715a11.704 11.704 0 0 0 2.89-2.477l2.652.388a.217.217 0 0 0 .228-.119l1.471-2.896a.224.224 0 0 0-.037-.256l-1.852-1.962c.307-1.248.412-2.539.31-3.82l2.148-1.628a.225.225 0 0 0 .078-.246l-.985-3.102z" fill="#91B3FA"/>
    <path d="M85.175 67.88a3.247 3.247 0 0 1-4.53.366 3.347 3.347 0 0 1-.53-4.57 3.267 3.267 0 0 1 2.106-1.27 3.242 3.242 0 0 1 2.385.564 3.32 3.32 0 0 1 1.332 2.082 3.35 3.35 0 0 1-.763 2.829zm-4.071-.364a2.403 2.403 0 0 0 3.414-.218 2.472 2.472 0 0 0-.215-3.461 2.403 2.403 0 0 0-3.633.505 2.48 2.48 0 0 0 .434 3.174z" fill="#BDD0FB"/>
    <path d="M89.508 70.216a8.393 8.393 0 0 0 1.03-2.304l.02-.073a.446.446 0 0 0-.31-.54.43.43 0 0 0-.33.043.44.44 0 0 0-.203.268 7.477 7.477 0 0 1-.564 1.472l-.04.077a7.32 7.32 0 0 1-2.398 2.7 7.35 7.35 0 0 1-1.774.874h-.016l-.047.016a7.194 7.194 0 0 1-5.59-.468 7.419 7.419 0 0 1-3.783-4.885 7.502 7.502 0 0 1 .796-5.447 7.343 7.343 0 0 1 4.282-3.393 7.244 7.244 0 0 1 5.412.53c.222.113.437.238.646.374a7.37 7.37 0 0 1 2.227 2.3.426.426 0 0 0 .412.206.443.443 0 0 0 .327-.67 8.252 8.252 0 0 0-2.557-2.62 8.102 8.102 0 0 0-7.042-.86 8.182 8.182 0 0 0-3.098 1.927 8.316 8.316 0 0 0-1.97 3.096 8.399 8.399 0 0 0 .696 7.148 8.258 8.258 0 0 0 3.26 3.075 8.118 8.118 0 0 0 5.846.638 8.217 8.217 0 0 0 4.768-3.484z" fill="#BDD0FB"/>
    <path d="m203.747 126.703-12.655 13.11 15.18-4.107-2.525-9.003z" fill="#91B3FA"/>
    <path d="m279.051 132.129-71.906 3.534a3.218 3.218 0 0 1-2.388-.899 3.294 3.294 0 0 1-1.005-2.371v-29.962c0-1.567.602-3.071 1.679-4.196a5.916 5.916 0 0 1 4.089-1.829l64.809-2.031c2.318 0 4.541.932 6.18 2.592a8.907 8.907 0 0 1 2.559 6.258v24.638a4.297 4.297 0 0 1-1.165 2.947 4.191 4.191 0 0 1-2.852 1.319z" fill="#91B3FA"/>
    <path opacity=".85" d="M209.291 134.463a4.422 4.422 0 0 1-3.14-1.321 4.532 4.532 0 0 1-1.299-3.183v-27.002c0-3.182 2.519-5.751 5.735-5.85l62.751-1.92c4.755 0 8.621 3.823 8.621 8.521v23.279c0 2.243-1.771 4.081-4.034 4.189l-68.417 3.281a4.04 4.04 0 0 1-.217.006zm64.052-38.962-62.746 1.92c-3.045.093-5.434 2.522-5.434 5.535v27.002c0 .566.114 1.127.334 1.648.22.52.542.991.947 1.382.405.391.884.694 1.408.892a4.084 4.084 0 0 0 1.641.26l68.417-3.28c2.095-.1 3.736-1.801 3.736-3.873v-23.279c.001-4.524-3.724-8.205-8.303-8.205v-.002z" fill="#fff"/>
    <path d="m273.135 100.966-57.499 2.179c-.565.021-1.009.401-.991.841l.022.512c.019.439.484.776 1.043.755l57.503-2.126c.564-.021 1.01-.4.992-.841l-.024-.561c-.02-.443-.487-.781-1.046-.759z" fill="url(#b)"/>
    <path d="m267.991 115.704-57.501 2.168c-.565.021-1.009.414-.989.873l.022.53c.019.455.485.805 1.044.785l57.503-2.114c.566-.02 1.015-.412.991-.872l-.025-.585c-.019-.456-.486-.806-1.045-.785z" fill="url(#c)"/>
    <path d="m274.708 121.872-64.1 2.451c-.63.024-1.127.422-1.107.887l.023.535c.019.46.537.811 1.159.788l64.104-2.396c.63-.023 1.128-.421 1.108-.886l-.025-.59c-.02-.461-.54-.812-1.162-.789z" fill="url(#d)"/>
    <path d="m241.605 109.656-31.34.925c-.307.01-.538.438-.513.953l.029.596c.025.511.291.915.595.907l31.343-.864c.309-.008.539-.436.514-.953l-.032-.654c-.025-.513-.291-.919-.596-.91z" fill="url(#e)"/>
    <path d="m276.141 108.559-29.622.859c-.291.009-.508.437-.482.952l.029.596c.026.511.277.916.565.908l29.626-.798c.291-.008.508-.436.483-.952l-.033-.654c-.025-.514-.278-.92-.566-.911z" fill="url(#f)"/>
    <path d="M121.628 272.516s-.593 3.398-.884 6.761a2.354 2.354 0 0 0 .565 1.73 2.293 2.293 0 0 0 1.625.782c4.424.187 13.885.549 17.28.396a.742.742 0 0 0 .591-.346.77.77 0 0 0 .065-.687 1.674 1.674 0 0 0-.853-.909l-15.629-7.275-2.76-.452z" fill="url(#g)"/>
    <path d="m121.145 270.518.477 4.065s2.737 1.291 4.607-.163l-1.134-4.529-3.95.627z" fill="url(#h)"/>
    <path d="M121.501 194.099c-.206 1.062-1.108 52.969 4.375 76.231a.799.799 0 0 1-.462.919 13.417 13.417 0 0 1-4.461.918 1.326 1.326 0 0 1-.828-.259 1.353 1.353 0 0 1-.499-.716c-1.569-5.398-9.071-32.439-10.05-58.271-1.094-28.864 0-.982 0-.982l.646-17.845 11.279.005z" fill="url(#i)"/>
    <path d="M103.648 274.285s-.944 1.717-1.857 6.275c-.04.194-.039.394.003.587a1.408 1.408 0 0 0 1.223 1.106c1.46.146 3.709.333 5.51.32a1.394 1.394 0 0 0 1.323-.987c.059-.189.078-.389.055-.586-.199-1.664-.821-4.391-2.741-6.521l-3.516-.194z" fill="url(#j)"/>
    <path d="m102.82 269.06 1.114 6.146s1.1.829 3.276.228l-.531-6.614-3.859.24z" fill="url(#k)"/>
    <path d="M99.813 195.692c-4.481 27.387.972 67.69 2.811 75.578.054.237.176.452.351.618.174.166.393.276.63.316.821.139 2.173.251 3.506-.141.224-.066.421-.202.565-.388.144-.186.226-.414.236-.65.246-6.377-.198-45.528 3.977-61.001a3.523 3.523 0 0 1 1.339-1.939l8.104-5.834.622-9.431-22.141 2.872z" fill="url(#l)"/>
    <path d="M128.368 143.8c-13.429-.225-28.247 3.57-28.247 3.57-4.002 23.653-.7 50.937-.7 50.937 10.396 2.761 22.125-1.689 22.125-1.689 1.727-9.887 9.79-37.71 9.79-37.71 6.561-.825 11.966-2.742 16.422-5.277-3.395-3.985-4.996-9.056-5.691-12.053-4.753 1.489-9.558 2.291-13.699 2.222z" fill="url(#m)"/>
    <path d="M168.035 123.769c-1.319-1.614-2.988-.85-2.988-.85-1.977 8.454-12.338 15.308-22.985 18.658.696 2.998 2.297 8.07 5.692 12.053 17.667-10.057 20.281-29.861 20.281-29.861z" fill="url(#n)"/>
    <path d="M167.713 124.178c.139.445-1.46 1.122-2.398-.696-.034-.871-.554-4.602-.042-5.312 2.738-3.78 8.044-8.518 8.044-8.518.897.897.158 1.776.158 1.776l-2.574 2.716c.538.985 1.199 1.817 1.503 3.009.226.91.097 1.873-.36 2.689-.452.825-1.068 1.897-1.651 2.736-1.107 1.589-2.68 1.6-2.68 1.6z" fill="url(#o)"/>
    <path d="m169.772 115.91-2.346 2.015-.738 2.005 2.091 2.35s.703-3.979 1.226-4.84c.523-.862.254-1.279-.233-1.53z" fill="url(#p)"/>
    <path d="m105.273 160.54-5.151-13.169s-12.548 8.631-14.606 19.574c2.37.178 6.682.802 10.904 2.96.927-5.167 8.853-9.365 8.853-9.365z" fill="url(#q)"/>
    <path d="M116.233 172.932s-14.083 8.06-18.835 1.178c-.986-1.43-1.223-2.85-.98-4.205-4.221-2.158-8.533-2.782-10.904-2.96-.621 3.299-.293 6.809 1.621 10.355 8.324 15.416 30.962-.853 30.962-.853l-1.864-3.515z" fill="url(#r)"/>
    <path d="m114.54 183.127 7.686-27.182a.788.788 0 0 1 .662-.571c1.393-.164 5.428-.626 10.087-1.028 5.612-.481 12.129-.871 16.024-.539a.788.788 0 0 1 .726.769.802.802 0 0 1-.081.376c-2.214 4.537-11.323 22.993-15.885 29.039a.791.791 0 0 1-.28.234.763.763 0 0 1-.354.081l-17.838-.164a.774.774 0 0 1-.621-.32.806.806 0 0 1-.126-.695z" fill="#91B3FA"/>
    <path d="m133.775 151.992 5.573-.94a.397.397 0 0 1 .458.322.408.408 0 0 1-.013.205l-.553 1.692a.394.394 0 0 1-.327.275l-5.362.726a.396.396 0 0 1-.349-.129.41.41 0 0 1-.094-.365l.342-1.478a.408.408 0 0 1 .325-.308z" fill="#BDD0FB"/>
    <path d="m129.602 156.771.461-2.422a.557.557 0 0 1 .487-.451l11.256-1.157a.548.548 0 0 1 .472.189.558.558 0 0 1 .122.499l-.716 3.017a.563.563 0 0 1-.51.429l-10.999.56a.546.546 0 0 1-.446-.191.548.548 0 0 1-.127-.473z" fill="#BDD0FB"/>
    <path d="M116.396 176.561s-1.071-4.459-.639-6.04c.432-1.582 1.269-3.615 4.059-3.164 2.79.451 6.083 1.642 6.083 1.642s-.166 2.056-2.286 1.395l1.315 1.028s-.185 1.649-1.978.768l1.222 1.366s-.769 1.355-2.087.486c-1.317-.869-1.95 3.056-5.689 2.519z" fill="url(#s)"/>
    <path d="m114.766 132.758-4.274 12.513a.455.455 0 0 0 .203.544c1.165.654 5.361 2.537 10.418-.71a2.136 2.136 0 0 0 .966-1.516l1.384-10.831h-8.697z" fill="url(#t)"/>
    <path d="M124.062 121.172s4.691 8.944 4.09 12.558c-.602 3.614-6.416 3.353-11.494.419l-3.549-9.658 10.953-3.319z" fill="url(#u)"/>
    <path d="M116.883 129.405a.378.378 0 0 0 .159-.54c-.375-.581-1.08-1.767-1.305-2.803 0 0-.844-.546 2.146-1.271 2.991-.725 7.451-1.85 8.388-4.428.913-2.513-1.487-8.833-5.318-3.797a.368.368 0 0 1-.578 0c-.627-.828-2.278-2.546-4.57-1.504-2.145.974-2.387 2.566-2.357 3.369a.38.38 0 0 1-.126.292.365.365 0 0 1-.303.082c-1.085-.21-3.691-.389-4.902 2.314-1.001 2.227-.351 3.488.241 4.104a.386.386 0 0 1 .093.163.366.366 0 0 1-.248.448c-.713.221-1.633.833-1.54 2.522.127 2.336 2.708 2.132 3.443 2.026a.359.359 0 0 1 .323.115c.63.706 3.469 3.704 6.542 4.066a.371.371 0 0 0 .18-.028.375.375 0 0 0 .205-.463l-1.329-3.912a.378.378 0 0 1 .198-.46l.658-.295z" fill="url(#v)"/>
    <path d="M117.418 129.962s-3.341-2.321-3.585-.367c-.243 1.955 3.009 2.832 4.62 2.104l-1.035-1.737z" fill="url(#w)"/>
    <defs>
        <linearGradient id="a" x1="534.82" y1="158.406" x2="85.223" y2="154.834" gradientUnits="userSpaceOnUse">
            <stop stop-color="#DAE3FE"/>
            <stop offset="1" stop-color="#E9EFFD"/>
        </linearGradient>
        <linearGradient id="b" x1="115182" y1="2697.23" x2="153631" y2="2697.23" gradientUnits="userSpaceOnUse">
            <stop stop-color="#DAE3FE"/>
            <stop offset="1" stop-color="#E9EFFD"/>
        </linearGradient>
        <linearGradient id="c" x1="111857" y1="3442.26" x2="150308" y2="3442.26" gradientUnits="userSpaceOnUse">
            <stop stop-color="#DAE3FE"/>
            <stop offset="1" stop-color="#E9EFFD"/>
        </linearGradient>
        <linearGradient id="d" x1="124667" y1="3996.6" x2="172447" y2="3996.6" gradientUnits="userSpaceOnUse">
            <stop stop-color="#DAE3FE"/>
            <stop offset="1" stop-color="#E9EFFD"/>
        </linearGradient>
        <linearGradient id="e" x1="61192.6" y1="2453.86" x2="72630.6" y2="2453.86" gradientUnits="userSpaceOnUse">
            <stop stop-color="#DAE3FE"/>
            <stop offset="1" stop-color="#E9EFFD"/>
        </linearGradient>
        <linearGradient id="f" x1="69965.3" y1="2367.31" x2="80185.1" y2="2367.31" gradientUnits="userSpaceOnUse">
            <stop stop-color="#DAE3FE"/>
            <stop offset="1" stop-color="#E9EFFD"/>
        </linearGradient>
        <linearGradient id="g" x1="139.72" y1="267.819" x2="81.702" y2="330.135" gradientUnits="userSpaceOnUse">
            <stop stop-color="#09005D"/>
            <stop offset="1" stop-color="#1A0F91"/>
        </linearGradient>
        <linearGradient id="h" x1="121.145" y1="272.501" x2="126.229" y2="272.501" gradientUnits="userSpaceOnUse">
            <stop stop-color="#FEBBBA"/>
            <stop offset="1" stop-color="#FF928E"/>
        </linearGradient>
        <linearGradient id="i" x1="123784" y1="146277" x2="100587" y2="153046" gradientUnits="userSpaceOnUse">
            <stop stop-color="#09005D"/>
            <stop offset="1" stop-color="#1A0F91"/>
        </linearGradient>
        <linearGradient id="j" x1="58556.5" y1="21046.4" x2="53408.5" y2="26554.4" gradientUnits="userSpaceOnUse">
            <stop stop-color="#09005D"/>
            <stop offset="1" stop-color="#1A0F91"/>
        </linearGradient>
        <linearGradient id="k" x1="30432.6" y1="18590.2" x2="30641.5" y2="18590.2" gradientUnits="userSpaceOnUse">
            <stop stop-color="#FEBBBA"/>
            <stop offset="1" stop-color="#FF928E"/>
        </linearGradient>
        <linearGradient id="l" x1="173458" y1="143449" x2="142793" y2="155924" gradientUnits="userSpaceOnUse">
            <stop stop-color="#09005D"/>
            <stop offset="1" stop-color="#1A0F91"/>
        </linearGradient>
        <linearGradient id="m" x1="118.326" y1="160.291" x2="197.442" y2="25.691" gradientUnits="userSpaceOnUse">
            <stop stop-color="#4F52FF"/>
            <stop offset="1" stop-color="#4042E2"/>
        </linearGradient>
        <linearGradient id="n" x1="91658.6" y1="28504.6" x2="88241.1" y2="36714.2" gradientUnits="userSpaceOnUse">
            <stop stop-color="#FEBBBA"/>
            <stop offset="1" stop-color="#FF928E"/>
        </linearGradient>
        <linearGradient id="o" x1="31288.1" y1="14351.9" x2="29215.2" y2="17786" gradientUnits="userSpaceOnUse">
            <stop stop-color="#FEBBBA"/>
            <stop offset="1" stop-color="#FF928E"/>
        </linearGradient>
        <linearGradient id="p" x1="12511" y1="7284.32" x2="13092.1" y2="6621.47" gradientUnits="userSpaceOnUse">
            <stop stop-color="#FEBBBA"/>
            <stop offset="1" stop-color="#FF928E"/>
        </linearGradient>
        <linearGradient id="q" x1="8341.52" y1="31283.6" x2="28446.1" y2="914.599" gradientUnits="userSpaceOnUse">
            <stop stop-color="#4F52FF"/>
            <stop offset="1" stop-color="#4042E2"/>
        </linearGradient>
        <linearGradient id="r" x1="220911" y1="28126.7" x2="232620" y2="28126.7" gradientUnits="userSpaceOnUse">
            <stop stop-color="#FEBBBA"/>
            <stop offset="1" stop-color="#FF928E"/>
        </linearGradient>
        <linearGradient id="s" x1="72324.7" y1="15153.1" x2="73461.8" y2="15153.1" gradientUnits="userSpaceOnUse">
            <stop stop-color="#FEBBBA"/>
            <stop offset="1" stop-color="#FF928E"/>
        </linearGradient>
        <linearGradient id="t" x1="90978.9" y1="18085.1" x2="92809.4" y2="18085.1" gradientUnits="userSpaceOnUse">
            <stop stop-color="#FEBBBA"/>
            <stop offset="1" stop-color="#FF928E"/>
        </linearGradient>
        <linearGradient id="u" x1="28132.2" y1="36799.5" x2="25775.1" y2="35377.5" gradientUnits="userSpaceOnUse">
            <stop stop-color="#FEBBBA"/>
            <stop offset="1" stop-color="#FF928E"/>
        </linearGradient>
        <linearGradient id="v" x1="32033.2" y1="44239.4" x2="36021.7" y2="47356.6" gradientUnits="userSpaceOnUse">
            <stop stop-color="#09005D"/>
            <stop offset="1" stop-color="#1A0F91"/>
        </linearGradient>
        <linearGradient id="w" x1="5418.87" y1="7947.22" x2="4997.43" y2="7636.44" gradientUnits="userSpaceOnUse">
            <stop stop-color="#FEBBBA"/>
            <stop offset="1" stop-color="#FF928E"/>
        </linearGradient>
    </defs>
</svg>
