
<svg width="69" height="67" viewBox="0 0 69 67" fill="none" xmlns="http://www.w3.org/2000/svg">
<g filter="url(#filter0_f_1051_27238)">
<path d="M10.5207 16.793C11.33 13.7716 14.4343 11.9786 17.4545 12.7881L61.2025 24.5151C64.2226 25.3247 66.0149 28.4303 65.2057 31.4517L57.8793 58.8053C57.07 61.8267 53.9657 63.6197 50.9455 62.8101L7.19753 51.0831C4.17736 50.2735 2.38506 47.1679 3.19431 44.1465L10.5207 16.793Z" fill="url(#paint0_linear_1051_27238)"/>
</g>
<g filter="url(#filter1_di_1051_27238)">
<path d="M5.89355 17.9918C5.89355 14.8638 8.42825 12.3281 11.555 12.3281H56.8462C59.9729 12.3281 62.5076 14.8638 62.5076 17.9918V46.3103C62.5076 49.4383 59.9729 51.974 56.8462 51.974H11.555C8.42825 51.974 5.89355 49.4383 5.89355 46.3103V17.9918Z" fill="url(#paint1_linear_1051_27238)" fill-opacity="0.6" shape-rendering="crispEdges"/>
<path d="M6.39355 17.9918C6.39355 15.1398 8.70459 12.8281 11.555 12.8281H56.8462C59.6966 12.8281 62.0076 15.1398 62.0076 17.9918V46.3103C62.0076 49.1623 59.6966 51.474 56.8462 51.474H11.555C8.70459 51.474 6.39355 49.1623 6.39355 46.3103V17.9918Z" stroke="url(#paint2_linear_1051_27238)" stroke-opacity="0.8" shape-rendering="crispEdges"/>
</g>
<g filter="url(#filter2_di_1051_27238)">
<path d="M28.5393 3.83185C28.5393 2.26786 29.8067 1 31.37 1H37.0314C38.5948 1 39.8621 2.26786 39.8621 3.83185V17.9911C39.8621 19.5551 38.5948 20.8229 37.0314 20.8229H31.37C29.8067 20.8229 28.5393 19.5551 28.5393 17.9911V3.83185Z" fill="white"/>
</g>
<g filter="url(#filter3_di_1051_27238)">
<path fill-rule="evenodd" clip-rule="evenodd" d="M21.1997 29.376H13.6997L13.6997 43.626H21.1997V29.376ZM13.6997 27.001C12.319 27.001 11.1997 28.0643 11.1997 29.376V43.626C11.1997 44.9377 12.319 46.001 13.6997 46.001H23.6997V29.376C23.6997 28.0643 22.5804 27.001 21.1997 27.001H13.6997Z" fill="white"/>
<path fill-rule="evenodd" clip-rule="evenodd" d="M33.6997 34.126H23.6997V43.626H33.6997V34.126ZM23.6997 31.751C22.319 31.751 21.1997 32.8143 21.1997 34.126V46.001H33.6997C35.0804 46.001 36.1997 44.9377 36.1997 43.626V34.126C36.1997 32.8143 35.0804 31.751 33.6997 31.751H23.6997Z" fill="white"/>
<path fill-rule="evenodd" clip-rule="evenodd" d="M24.9497 38.876C24.9497 38.2201 25.5094 37.6885 26.1997 37.6885H31.1997C31.8901 37.6885 32.4497 38.2201 32.4497 38.876C32.4497 39.5318 31.8901 40.0635 31.1997 40.0635H26.1997C25.5094 40.0635 24.9497 39.5318 24.9497 38.876Z" fill="white"/>
<path d="M49.1997 16.001L51.7965 24.0223H60.1997L53.4013 28.9797L55.9981 37.001L49.1997 32.0435L42.4013 37.001L44.9981 28.9797L38.1997 24.0223H46.603L49.1997 16.001Z" fill="white"/>
</g>
<defs>
<filter id="filter0_f_1051_27238" x="0" y="9.59375" width="68.4" height="56.4111" filterUnits="userSpaceOnUse" color-interpolation-filters="sRGB">
<feFlood flood-opacity="0" result="BackgroundImageFix"/>
<feBlend mode="normal" in="SourceGraphic" in2="BackgroundImageFix" result="shape"/>
<feGaussianBlur stdDeviation="1.5" result="effect1_foregroundBlur_1051_27238"/>
</filter>
<filter id="filter1_di_1051_27238" x="1.89355" y="10.3281" width="64.614" height="47.6455" filterUnits="userSpaceOnUse" color-interpolation-filters="sRGB">
<feFlood flood-opacity="0" result="BackgroundImageFix"/>
<feColorMatrix in="SourceAlpha" type="matrix" values="0 0 0 0 0 0 0 0 0 0 0 0 0 0 0 0 0 0 127 0" result="hardAlpha"/>
<feOffset dy="2"/>
<feGaussianBlur stdDeviation="2"/>
<feComposite in2="hardAlpha" operator="out"/>
<feColorMatrix type="matrix" values="0 0 0 0 0 0 0 0 0 0 0 0 0 0 0 0 0 0 0.25 0"/>
<feBlend mode="normal" in2="BackgroundImageFix" result="effect1_dropShadow_1051_27238"/>
<feBlend mode="normal" in="SourceGraphic" in2="effect1_dropShadow_1051_27238" result="shape"/>
<feColorMatrix in="SourceAlpha" type="matrix" values="0 0 0 0 0 0 0 0 0 0 0 0 0 0 0 0 0 0 127 0" result="hardAlpha"/>
<feOffset dx="2" dy="2"/>
<feGaussianBlur stdDeviation="2"/>
<feComposite in2="hardAlpha" operator="arithmetic" k2="-1" k3="1"/>
<feColorMatrix type="matrix" values="0 0 0 0 1 0 0 0 0 1 0 0 0 0 1 0 0 0 0.7 0"/>
<feBlend mode="normal" in2="shape" result="effect2_innerShadow_1051_27238"/>
</filter>
<filter id="filter2_di_1051_27238" x="26.5393" y="0" width="15.3228" height="23.8232" filterUnits="userSpaceOnUse" color-interpolation-filters="sRGB">
<feFlood flood-opacity="0" result="BackgroundImageFix"/>
<feColorMatrix in="SourceAlpha" type="matrix" values="0 0 0 0 0 0 0 0 0 0 0 0 0 0 0 0 0 0 127 0" result="hardAlpha"/>
<feOffset dy="1"/>
<feGaussianBlur stdDeviation="1"/>
<feComposite in2="hardAlpha" operator="out"/>
<feColorMatrix type="matrix" values="0 0 0 0 0 0 0 0 0 0 0 0 0 0 0 0 0 0 0.25 0"/>
<feBlend mode="normal" in2="BackgroundImageFix" result="effect1_dropShadow_1051_27238"/>
<feBlend mode="normal" in="SourceGraphic" in2="effect1_dropShadow_1051_27238" result="shape"/>
<feColorMatrix in="SourceAlpha" type="matrix" values="0 0 0 0 0 0 0 0 0 0 0 0 0 0 0 0 0 0 127 0" result="hardAlpha"/>
<feOffset dy="-0.5"/>
<feGaussianBlur stdDeviation="0.5"/>
<feComposite in2="hardAlpha" operator="arithmetic" k2="-1" k3="1"/>
<feColorMatrix type="matrix" values="0 0 0 0 0 0 0 0 0 0 0 0 0 0 0 0 0 0 0.15 0"/>
<feBlend mode="normal" in2="shape" result="effect2_innerShadow_1051_27238"/>
</filter>
<filter id="filter3_di_1051_27238" x="9.19971" y="15.001" width="53" height="34" filterUnits="userSpaceOnUse" color-interpolation-filters="sRGB">
<feFlood flood-opacity="0" result="BackgroundImageFix"/>
<feColorMatrix in="SourceAlpha" type="matrix" values="0 0 0 0 0 0 0 0 0 0 0 0 0 0 0 0 0 0 127 0" result="hardAlpha"/>
<feOffset dy="1"/>
<feGaussianBlur stdDeviation="1"/>
<feComposite in2="hardAlpha" operator="out"/>
<feColorMatrix type="matrix" values="0 0 0 0 0 0 0 0 0 0 0 0 0 0 0 0 0 0 0.25 0"/>
<feBlend mode="normal" in2="BackgroundImageFix" result="effect1_dropShadow_1051_27238"/>
<feBlend mode="normal" in="SourceGraphic" in2="effect1_dropShadow_1051_27238" result="shape"/>
<feColorMatrix in="SourceAlpha" type="matrix" values="0 0 0 0 0 0 0 0 0 0 0 0 0 0 0 0 0 0 127 0" result="hardAlpha"/>
<feOffset dy="-0.5"/>
<feGaussianBlur stdDeviation="0.5"/>
<feComposite in2="hardAlpha" operator="arithmetic" k2="-1" k3="1"/>
<feColorMatrix type="matrix" values="0 0 0 0 0 0 0 0 0 0 0 0 0 0 0 0 0 0 0.15 0"/>
<feBlend mode="normal" in2="shape" result="effect2_innerShadow_1051_27238"/>
</filter>
<linearGradient id="paint0_linear_1051_27238" x1="3" y1="12.5938" x2="79.1724" y2="51.8465" gradientUnits="userSpaceOnUse">
<stop stop-color="#0D72FF"/>
<stop offset="0.513259" stop-color="#9B69C6"/>
<stop offset="1" stop-color="#E13019"/>
</linearGradient>
<linearGradient id="paint1_linear_1051_27238" x1="62.5076" y1="51.974" x2="0.704164" y2="40.6497" gradientUnits="userSpaceOnUse">
<stop stop-color="white"/>
<stop offset="1" stop-color="#0D72FF"/>
</linearGradient>
<linearGradient id="paint2_linear_1051_27238" x1="5.53515" y1="12.3281" x2="67.4378" y2="23.6706" gradientUnits="userSpaceOnUse">
<stop stop-color="white"/>
<stop offset="1" stop-color="white" stop-opacity="0"/>
</linearGradient>
</defs>
</svg>
