
<svg width="65" height="66" viewBox="0 0 65 66" fill="none" xmlns="http://www.w3.org/2000/svg">
<g filter="url(#filter0_f_1051_27252)">
<path d="M13.1285 7.87055C13.9378 4.85026 17.0422 3.05789 20.0625 3.86717L57.1373 13.8013C60.1576 14.6106 61.95 17.7151 61.1407 20.7354L51.2065 57.8101C50.3972 60.8304 47.2928 62.6228 44.2725 61.8135L7.1977 51.8794C4.17741 51.0701 2.38504 47.9656 3.19432 44.9453L13.1285 7.87055Z" fill="url(#paint0_linear_1051_27252)"/>
</g>
<g filter="url(#filter1_di_1051_27252)">
<path d="M5.10669 8.14138C5.10669 4.74959 7.85628 2 11.2481 2H52.8831C56.2749 2 59.0245 4.74959 59.0245 8.14139V49.7764C59.0245 53.1682 56.2749 55.9178 52.8831 55.9178H11.2481C7.85628 55.9178 5.10669 53.1682 5.10669 49.7764V8.14138Z" fill="url(#paint1_linear_1051_27252)" fill-opacity="0.6" shape-rendering="crispEdges"/>
<path d="M5.60669 8.14138C5.60669 5.02573 8.13242 2.5 11.2481 2.5H52.8831C55.9988 2.5 58.5245 5.02573 58.5245 8.14139V49.7764C58.5245 52.8921 55.9988 55.4178 52.8831 55.4178H11.2481C8.13242 55.4178 5.60669 52.8921 5.60669 49.7764V8.14138Z" stroke="url(#paint2_linear_1051_27252)" stroke-opacity="0.8" shape-rendering="crispEdges"/>
</g>
<g filter="url(#filter2_di_1051_27252)">
<path d="M22.4731 47.8411C21.215 47.8411 20.1406 47.3764 19.2499 46.4469C18.3586 45.5168 17.9129 44.3954 17.9129 43.0826C17.9129 41.7698 18.3586 40.6483 19.2499 39.7182C20.1406 38.7887 21.215 38.324 22.4731 38.324C22.8405 38.324 23.1682 38.3581 23.4563 38.4264C23.7444 38.4947 24.0328 38.5971 24.3216 38.7336L27.3089 34.8779C26.7327 34.1664 26.3068 33.3663 26.0313 32.4775C25.7564 31.5887 25.6844 30.6793 25.8152 29.7492L21.6088 28.2319C21.1892 28.9152 20.6517 29.4551 19.9963 29.8516C19.3414 30.2487 18.5944 30.4473 17.7553 30.4473C16.4972 30.4473 15.4228 29.9822 14.5321 29.0521C13.6407 28.122 13.1951 27.0005 13.1951 25.6877C13.1951 24.3749 13.6407 23.2538 14.5321 22.3243C15.4228 21.3942 16.4972 20.9292 17.7553 20.9292C19.0134 20.9292 20.0881 21.3942 20.9795 22.3243C21.8708 23.2538 22.3165 24.3749 22.3165 25.6877V25.8935L26.5625 27.4521C27.0601 26.522 27.6759 25.7904 28.41 25.2575C29.1441 24.7238 29.9697 24.3615 30.8869 24.1705V19.4523C29.8647 19.1517 29.0456 18.5635 28.4298 17.6879C27.814 16.8129 27.5061 15.8693 27.5061 14.8572C27.5061 13.5444 27.9514 12.4233 28.8422 11.4938C29.7335 10.5637 30.8082 10.0986 32.0663 10.0986C33.3244 10.0986 34.3991 10.5637 35.2905 11.4938C36.1812 12.4233 36.6265 13.5444 36.6265 14.8572C36.6265 15.8693 36.312 16.8129 35.683 17.6879C35.0539 18.5635 34.2415 19.1517 33.2458 19.4523V24.1705C34.1629 24.3615 34.9951 24.7238 35.7424 25.2575C36.4891 25.7904 37.0983 26.522 37.5701 27.4521L41.8161 25.8935V25.6877C41.8161 24.3749 42.2618 23.2538 43.1532 22.3243C44.0445 21.3942 45.1192 20.9292 46.3773 20.9292C47.6354 20.9292 48.7098 21.3942 49.6005 22.3243C50.4919 23.2538 50.9375 24.3749 50.9375 25.6877C50.9375 27.0005 50.4919 28.122 49.6005 29.0521C48.7098 29.9822 47.6354 30.4473 46.3773 30.4473C45.5382 30.4473 44.7846 30.2487 44.1165 29.8516C43.4479 29.4551 42.917 28.9152 42.5238 28.2319L38.3174 29.7492C38.4482 30.6793 38.3828 31.5887 38.1211 32.4775C37.8588 33.3663 37.4264 34.1664 36.8237 34.8779L39.8111 38.7336C40.0998 38.5971 40.3882 38.4947 40.6763 38.4264C40.9644 38.3581 41.2921 38.324 41.6595 38.324C42.9434 38.324 44.0244 38.7887 44.9025 39.7182C45.7807 40.6483 46.2197 41.7698 46.2197 43.0826C46.2197 44.3954 45.7741 45.5168 44.8827 46.4469C43.992 47.3764 42.9176 47.8411 41.6595 47.8411C40.4014 47.8411 39.3267 47.3764 38.4353 46.4469C37.544 45.5168 37.0983 44.3954 37.0983 43.0826C37.0983 42.5358 37.177 42.0297 37.3342 41.5643C37.4915 41.0996 37.7013 40.6621 37.9636 40.2519L34.9753 36.3952C34.0582 36.9151 33.0819 37.175 32.0465 37.175C31.0111 37.175 30.0348 36.9151 29.1177 36.3952L26.169 40.2932C26.4314 40.7034 26.6411 41.134 26.7984 41.585C26.9557 42.0366 27.0343 42.5358 27.0343 43.0826C27.0343 44.3954 26.5886 45.5168 25.6973 46.4469C24.8059 47.3764 23.7312 47.8411 22.4731 47.8411ZM17.7553 27.6983C18.3057 27.6983 18.7646 27.5069 19.132 27.1242C19.4987 26.7409 19.6821 26.2621 19.6821 25.6877C19.6821 25.1134 19.4987 24.6349 19.132 24.2522C18.7646 23.8695 18.3057 23.6782 17.7553 23.6782C17.2049 23.6782 16.7463 23.8695 16.3796 24.2522C16.0129 24.6349 15.8295 25.1134 15.8295 25.6877C15.8295 26.2621 16.0129 26.7409 16.3796 27.1242C16.7463 27.5069 17.2049 27.6983 17.7553 27.6983ZM22.4731 45.0931C23.0235 45.0931 23.4824 44.9014 23.8498 44.5181C24.2165 44.1354 24.3999 43.6569 24.3999 43.0826C24.3999 42.5082 24.2165 42.0297 23.8498 41.647C23.4824 41.2637 23.0235 41.072 22.4731 41.072C21.9227 41.072 21.4641 41.2637 21.0974 41.647C20.7307 42.0297 20.5473 42.5082 20.5473 43.0826C20.5473 43.6569 20.7307 44.1354 21.0974 44.5181C21.4641 44.9014 21.9227 45.0931 22.4731 45.0931ZM32.0663 16.8677C32.6167 16.8677 33.0753 16.6764 33.442 16.2937C33.8094 15.9104 33.9931 15.4315 33.9931 14.8572C33.9931 14.2828 33.8094 13.8043 33.442 13.4216C33.0753 13.039 32.6167 12.8476 32.0663 12.8476C31.5159 12.8476 31.0573 13.039 30.6906 13.4216C30.3232 13.8043 30.1396 14.2828 30.1396 14.8572C30.1396 15.4315 30.3232 15.9104 30.6906 16.2937C31.0573 16.6764 31.5159 16.8677 32.0663 16.8677ZM32.0663 34.426C33.0885 34.426 33.9534 34.0568 34.6611 33.3183C35.3688 32.5799 35.7226 31.6773 35.7226 30.6107C35.7226 29.5441 35.3688 28.6415 34.6611 27.9031C33.9534 27.1646 33.0885 26.7954 32.0663 26.7954C31.0441 26.7954 30.1792 27.1646 29.4715 27.9031C28.7638 28.6415 28.41 29.5441 28.41 30.6107C28.41 31.6773 28.7638 32.5799 29.4715 33.3183C30.1792 34.0568 31.0441 34.426 32.0663 34.426ZM41.6595 45.0931C42.2099 45.0931 42.6685 44.9014 43.0352 44.5181C43.4019 44.1354 43.5853 43.6569 43.5853 43.0826C43.5853 42.5082 43.4019 42.0297 43.0352 41.647C42.6685 41.2637 42.2099 41.072 41.6595 41.072C41.1091 41.072 40.6502 41.2637 40.2828 41.647C39.9161 42.0297 39.7327 42.5082 39.7327 43.0826C39.7327 43.6569 39.9161 44.1354 40.2828 44.5181C40.6502 44.9014 41.1091 45.0931 41.6595 45.0931ZM46.3773 27.6983C46.9277 27.6983 47.3863 27.5069 47.753 27.1242C48.1198 26.7409 48.3031 26.2621 48.3031 25.6877C48.3031 25.1134 48.1198 24.6349 47.753 24.2522C47.3863 23.8695 46.9277 23.6782 46.3773 23.6782C45.8269 23.6782 45.368 23.8695 45.0007 24.2522C44.6339 24.6349 44.4506 25.1134 44.4506 25.6877C44.4506 26.2621 44.6339 26.7409 45.0007 27.1242C45.368 27.5069 45.8269 27.6983 46.3773 27.6983Z" fill="#F4F4F4"/>
</g>
<defs>
<filter id="filter0_f_1051_27252" x="0" y="0.672852" width="64.335" height="64.335" filterUnits="userSpaceOnUse" color-interpolation-filters="sRGB">
<feFlood flood-opacity="0" result="BackgroundImageFix"/>
<feBlend mode="normal" in="SourceGraphic" in2="BackgroundImageFix" result="shape"/>
<feGaussianBlur stdDeviation="1.5" result="effect1_foregroundBlur_1051_27252"/>
</filter>
<filter id="filter1_di_1051_27252" x="1.10669" y="0" width="61.9177" height="61.918" filterUnits="userSpaceOnUse" color-interpolation-filters="sRGB">
<feFlood flood-opacity="0" result="BackgroundImageFix"/>
<feColorMatrix in="SourceAlpha" type="matrix" values="0 0 0 0 0 0 0 0 0 0 0 0 0 0 0 0 0 0 127 0" result="hardAlpha"/>
<feOffset dy="2"/>
<feGaussianBlur stdDeviation="2"/>
<feComposite in2="hardAlpha" operator="out"/>
<feColorMatrix type="matrix" values="0 0 0 0 0 0 0 0 0 0 0 0 0 0 0 0 0 0 0.25 0"/>
<feBlend mode="normal" in2="BackgroundImageFix" result="effect1_dropShadow_1051_27252"/>
<feBlend mode="normal" in="SourceGraphic" in2="effect1_dropShadow_1051_27252" result="shape"/>
<feColorMatrix in="SourceAlpha" type="matrix" values="0 0 0 0 0 0 0 0 0 0 0 0 0 0 0 0 0 0 127 0" result="hardAlpha"/>
<feOffset dx="2" dy="2"/>
<feGaussianBlur stdDeviation="2"/>
<feComposite in2="hardAlpha" operator="arithmetic" k2="-1" k3="1"/>
<feColorMatrix type="matrix" values="0 0 0 0 1 0 0 0 0 1 0 0 0 0 1 0 0 0 0.7 0"/>
<feBlend mode="normal" in2="shape" result="effect2_innerShadow_1051_27252"/>
</filter>
<filter id="filter2_di_1051_27252" x="11.1951" y="9.09863" width="41.7424" height="41.7422" filterUnits="userSpaceOnUse" color-interpolation-filters="sRGB">
<feFlood flood-opacity="0" result="BackgroundImageFix"/>
<feColorMatrix in="SourceAlpha" type="matrix" values="0 0 0 0 0 0 0 0 0 0 0 0 0 0 0 0 0 0 127 0" result="hardAlpha"/>
<feOffset dy="1"/>
<feGaussianBlur stdDeviation="1"/>
<feComposite in2="hardAlpha" operator="out"/>
<feColorMatrix type="matrix" values="0 0 0 0 0 0 0 0 0 0 0 0 0 0 0 0 0 0 0.25 0"/>
<feBlend mode="normal" in2="BackgroundImageFix" result="effect1_dropShadow_1051_27252"/>
<feBlend mode="normal" in="SourceGraphic" in2="effect1_dropShadow_1051_27252" result="shape"/>
<feColorMatrix in="SourceAlpha" type="matrix" values="0 0 0 0 0 0 0 0 0 0 0 0 0 0 0 0 0 0 127 0" result="hardAlpha"/>
<feOffset dy="-0.5"/>
<feGaussianBlur stdDeviation="0.5"/>
<feComposite in2="hardAlpha" operator="arithmetic" k2="-1" k3="1"/>
<feColorMatrix type="matrix" values="0 0 0 0 0 0 0 0 0 0 0 0 0 0 0 0 0 0 0.15 0"/>
<feBlend mode="normal" in2="shape" result="effect2_innerShadow_1051_27252"/>
</filter>
<linearGradient id="paint0_linear_1051_27252" x1="3" y1="3.67285" x2="79.8084" y2="35.6486" gradientUnits="userSpaceOnUse">
<stop stop-color="#0D72FF"/>
<stop offset="0.513259" stop-color="#9B69C6"/>
<stop offset="1" stop-color="#E13019"/>
</linearGradient>
<linearGradient id="paint1_linear_1051_27252" x1="59.0245" y1="55.9178" x2="-0.826295" y2="48.2381" gradientUnits="userSpaceOnUse">
<stop stop-color="white"/>
<stop offset="1" stop-color="#0D72FF"/>
</linearGradient>
<linearGradient id="paint2_linear_1051_27252" x1="4.76535" y1="2" x2="64.7122" y2="9.69201" gradientUnits="userSpaceOnUse">
<stop stop-color="white"/>
<stop offset="1" stop-color="white" stop-opacity="0"/>
</linearGradient>
</defs>
</svg>
