
<svg width="64" height="70" viewBox="0 0 64 70" fill="none" xmlns="http://www.w3.org/2000/svg">
<g filter="url(#filter0_f_1051_27232)">
<path d="M58.309 27.2473C58.309 40.5012 47.5646 51.2456 34.3108 51.2456C21.0569 51.2456 10.3125 40.5012 10.3125 27.2473C10.3125 13.9934 21.0569 3.24902 34.3108 3.24902C47.5646 3.24902 58.309 13.9934 58.309 27.2473Z" fill="url(#paint0_linear_1051_27232)"/>
</g>
<g filter="url(#filter1_di_1051_27232)">
<path fill-rule="evenodd" clip-rule="evenodd" d="M58.1896 21.5455L56.2167 3.92096C56.1906 3.6675 56.0711 3.43287 55.8815 3.26268C55.6918 3.0925 55.4459 2.99867 55.1911 3.00001H51.7976C51.5414 3.00351 51.2948 3.09816 51.102 3.26686C50.9092 3.43555 50.7831 3.66753 50.7456 3.92096L48.3251 25.7543C48.2989 26.0078 48.1795 26.2424 47.9898 26.4126C47.8002 26.5828 47.5542 26.6763 47.2994 26.6749H34.8043C34.5253 26.6749 34.2573 26.5643 34.06 26.367C33.8627 26.1696 33.7524 25.902 33.7524 25.623V18.0206C33.7495 17.8374 33.6982 17.6581 33.6047 17.5004C33.5111 17.3428 33.3782 17.2122 33.2187 17.1219C33.0592 17.0315 32.8792 16.9843 32.6959 16.9851C32.5126 16.9858 32.3325 17.0344 32.1738 17.126L24.8345 21.6508C24.6751 21.7491 24.4924 21.8031 24.3053 21.8072C24.1181 21.8113 23.9332 21.7654 23.7697 21.6743C23.6062 21.5831 23.4703 21.45 23.3753 21.2886C23.2804 21.1272 23.2304 20.9434 23.2302 20.7562V18.1256C23.2273 17.9424 23.176 17.7631 23.0825 17.6054C22.9889 17.4478 22.856 17.3175 22.6965 17.2272C22.537 17.1368 22.357 17.0896 22.1737 17.0904C21.9905 17.0911 21.8103 17.1397 21.6516 17.2314L8.63055 25.123C7.83922 25.5798 7.18054 26.2349 6.71929 27.0237C6.25804 27.8124 6.01011 28.7075 6 29.6211V58.2415C6 59.6368 6.55405 60.9752 7.54069 61.9619C8.52734 62.9485 9.86576 63.5026 11.2611 63.5026H53.3498C54.7451 63.5026 56.0829 62.9485 57.0696 61.9619C58.0562 60.9752 58.6109 59.6368 58.6109 58.2415V31.936C58.6587 28.4674 58.5178 24.9989 58.1896 21.5455Z" fill="url(#paint1_linear_1051_27232)" fill-opacity="0.6" shape-rendering="crispEdges"/>
<path d="M22.7302 20.7567V20.7562V18.1303C22.7281 18.0362 22.7015 17.9432 22.6525 17.8606L22.7302 20.7567ZM22.7302 20.7567C22.7305 21.0326 22.8042 21.3038 22.9444 21.5421C23.0841 21.7797 23.2846 21.9763 23.5262 22.111C23.7674 22.2454 24.0401 22.3132 24.3163 22.3071C24.5923 22.301 24.8618 22.2214 25.0969 22.0764L22.7302 20.7567ZM8.88057 25.5561L8.88051 25.556C8.16442 25.9694 7.56834 26.5622 7.1509 27.2761L6.72112 27.0247L7.1509 27.2761C6.73392 27.9891 6.5096 28.7981 6.5 29.624V58.2415C6.5 59.5043 7.00143 60.7155 7.89425 61.6083C8.78706 62.5011 9.99829 63.0026 11.2611 63.0026H53.3498C54.6126 63.0026 55.8232 62.5012 56.716 61.6083C57.6089 60.7154 58.1109 59.5041 58.1109 58.2415V31.936V31.9291H58.111C58.1585 28.48 58.0185 25.0309 57.6922 21.5969L8.88057 25.5561ZM8.88057 25.5561L8.8897 25.5506M8.88057 25.5561L8.8897 25.5506M8.8897 25.5506L21.9055 17.6621L8.8897 25.5506ZM55.7193 3.97224L55.7198 3.97659L51.2414 3.98648C51.2629 3.85308 51.3301 3.73166 51.4313 3.64315C51.5341 3.55322 51.6652 3.50255 51.8015 3.50001L55.1911 3.50002L55.1937 3.50001C55.3238 3.49932 55.4499 3.54722 55.5475 3.6348L55.8811 3.26305L55.5475 3.63481C55.6447 3.72202 55.7059 3.84227 55.7193 3.97224ZM34.8043 27.1749H47.2984L33.1747 17.7556C33.2237 17.8382 33.2503 17.9312 33.2524 18.0253V25.623C33.2524 26.034 33.4149 26.429 33.7065 26.7205C33.9979 27.0119 34.3931 27.1749 34.8043 27.1749Z" stroke="url(#paint2_linear_1051_27232)" stroke-opacity="0.8" shape-rendering="crispEdges"/>
</g>
<g filter="url(#filter2_di_1051_27232)">
<path d="M13.894 42.8361C13.894 41.1791 15.2373 39.8359 16.8942 39.8359H20.1008C21.7577 39.8359 23.101 41.1792 23.101 42.8361V46.0427C23.101 47.6996 21.7577 49.0428 20.1008 49.0428H16.8942C15.2373 49.0428 13.894 47.6996 13.894 46.0427V42.8361Z" fill="white"/>
<path d="M27.7044 42.8361C27.7044 41.1791 29.0476 39.8359 30.7046 39.8359H33.9112C35.5681 39.8359 36.9113 41.1792 36.9113 42.8361V46.0427C36.9113 47.6996 35.5681 49.0428 33.9112 49.0428H30.7046C29.0476 49.0428 27.7044 47.6996 27.7044 46.0427V42.8361Z" fill="white"/>
<path d="M41.5148 42.8361C41.5148 41.1791 42.858 39.8359 44.5149 39.8359H47.7215C49.3785 39.8359 50.7217 41.1792 50.7217 42.8361V46.0427C50.7217 47.6996 49.3785 49.0428 47.7215 49.0428H44.5149C42.858 49.0428 41.5148 47.6996 41.5148 46.0427V42.8361Z" fill="white"/>
</g>
<defs>
<filter id="filter0_f_1051_27232" x="7.3125" y="0.249023" width="53.9966" height="53.9961" filterUnits="userSpaceOnUse" color-interpolation-filters="sRGB">
<feFlood flood-opacity="0" result="BackgroundImageFix"/>
<feBlend mode="normal" in="SourceGraphic" in2="BackgroundImageFix" result="shape"/>
<feGaussianBlur stdDeviation="1.5" result="effect1_foregroundBlur_1051_27232"/>
</filter>
<filter id="filter1_di_1051_27232" x="2" y="1" width="60.6201" height="68.5029" filterUnits="userSpaceOnUse" color-interpolation-filters="sRGB">
<feFlood flood-opacity="0" result="BackgroundImageFix"/>
<feColorMatrix in="SourceAlpha" type="matrix" values="0 0 0 0 0 0 0 0 0 0 0 0 0 0 0 0 0 0 127 0" result="hardAlpha"/>
<feOffset dy="2"/>
<feGaussianBlur stdDeviation="2"/>
<feComposite in2="hardAlpha" operator="out"/>
<feColorMatrix type="matrix" values="0 0 0 0 0 0 0 0 0 0 0 0 0 0 0 0 0 0 0.25 0"/>
<feBlend mode="normal" in2="BackgroundImageFix" result="effect1_dropShadow_1051_27232"/>
<feBlend mode="normal" in="SourceGraphic" in2="effect1_dropShadow_1051_27232" result="shape"/>
<feColorMatrix in="SourceAlpha" type="matrix" values="0 0 0 0 0 0 0 0 0 0 0 0 0 0 0 0 0 0 127 0" result="hardAlpha"/>
<feOffset dx="2" dy="2"/>
<feGaussianBlur stdDeviation="2"/>
<feComposite in2="hardAlpha" operator="arithmetic" k2="-1" k3="1"/>
<feColorMatrix type="matrix" values="0 0 0 0 1 0 0 0 0 1 0 0 0 0 1 0 0 0 0.7 0"/>
<feBlend mode="normal" in2="shape" result="effect2_innerShadow_1051_27232"/>
</filter>
<filter id="filter2_di_1051_27232" x="11.894" y="38.8359" width="40.8276" height="13.207" filterUnits="userSpaceOnUse" color-interpolation-filters="sRGB">
<feFlood flood-opacity="0" result="BackgroundImageFix"/>
<feColorMatrix in="SourceAlpha" type="matrix" values="0 0 0 0 0 0 0 0 0 0 0 0 0 0 0 0 0 0 127 0" result="hardAlpha"/>
<feOffset dy="1"/>
<feGaussianBlur stdDeviation="1"/>
<feComposite in2="hardAlpha" operator="out"/>
<feColorMatrix type="matrix" values="0 0 0 0 0 0 0 0 0 0 0 0 0 0 0 0 0 0 0.25 0"/>
<feBlend mode="normal" in2="BackgroundImageFix" result="effect1_dropShadow_1051_27232"/>
<feBlend mode="normal" in="SourceGraphic" in2="effect1_dropShadow_1051_27232" result="shape"/>
<feColorMatrix in="SourceAlpha" type="matrix" values="0 0 0 0 0 0 0 0 0 0 0 0 0 0 0 0 0 0 127 0" result="hardAlpha"/>
<feOffset dy="-0.5"/>
<feGaussianBlur stdDeviation="0.5"/>
<feComposite in2="hardAlpha" operator="arithmetic" k2="-1" k3="1"/>
<feColorMatrix type="matrix" values="0 0 0 0 0 0 0 0 0 0 0 0 0 0 0 0 0 0 0.15 0"/>
<feBlend mode="normal" in2="shape" result="effect2_innerShadow_1051_27232"/>
</filter>
<linearGradient id="paint0_linear_1051_27232" x1="10.3125" y1="3.24902" x2="73.5085" y2="29.5578" gradientUnits="userSpaceOnUse">
<stop stop-color="#0D72FF"/>
<stop offset="0.513259" stop-color="#9B69C6"/>
<stop offset="1" stop-color="#E13019"/>
</linearGradient>
<linearGradient id="paint1_linear_1051_27232" x1="58.62" y1="63.5026" x2="-0.021557" y2="56.9584" gradientUnits="userSpaceOnUse">
<stop stop-color="white"/>
<stop offset="1" stop-color="#0D72FF"/>
</linearGradient>
<linearGradient id="paint2_linear_1051_27232" x1="5.66688" y1="3" x2="64.4026" y2="9.55469" gradientUnits="userSpaceOnUse">
<stop stop-color="white"/>
<stop offset="1" stop-color="white" stop-opacity="0"/>
</linearGradient>
</defs>
</svg>
