
<svg width="68" height="68" viewBox="0 0 68 68" fill="none" xmlns="http://www.w3.org/2000/svg">
<g filter="url(#filter0_f_1051_27246)">
<path d="M48.8013 33.5032C48.8013 45.378 39.1749 55.0045 27.3001 55.0045C15.4253 55.0045 5.79883 45.378 5.79883 33.5032C5.79883 21.6284 15.4253 12.002 27.3001 12.002C39.1749 12.002 48.8013 21.6284 48.8013 33.5032Z" fill="url(#paint0_linear_1051_27246)"/>
</g>
<g filter="url(#filter1_di_1051_27246)">
<path d="M41.8192 35.5765C44.4448 32.0708 46 27.717 46 23C46 11.402 36.598 2 25 2C13.402 2 4 11.402 4 23C4 34.598 13.402 44 25 44C29.717 44 34.0708 42.4448 37.5765 39.8192L58.8787 61.1213C60.0503 62.2929 61.9497 62.2929 63.1213 61.1213C64.2929 59.9497 64.2929 58.0503 63.1213 56.8787L41.8192 35.5765Z" fill="url(#paint1_linear_1051_27246)" fill-opacity="0.6" shape-rendering="crispEdges"/>
<path d="M41.419 35.2768L41.1592 35.6236L41.4656 35.9301L62.7678 57.2322C63.7441 58.2085 63.7441 59.7915 62.7678 60.7678C61.7915 61.7441 60.2085 61.7441 59.2322 60.7678L37.9301 39.4656L37.6236 39.1592L37.2768 39.419C33.8546 41.982 29.6053 43.5 25 43.5C13.6782 43.5 4.5 34.3218 4.5 23C4.5 11.6782 13.6782 2.5 25 2.5C36.3218 2.5 45.5 11.6782 45.5 23C45.5 27.6053 43.982 31.8546 41.419 35.2768Z" stroke="url(#paint2_linear_1051_27246)" stroke-opacity="0.8" shape-rendering="crispEdges"/>
</g>
<g filter="url(#filter2_di_1051_27246)">
<path d="M24.9975 13.998L27.0181 20.2169H33.557L28.2669 24.0604L30.2876 30.2792L24.9975 26.4357L19.7074 30.2792L21.7281 24.0604L16.438 20.2169H22.9769L24.9975 13.998Z" fill="white"/>
</g>
<defs>
<filter id="filter0_f_1051_27246" x="2.79883" y="9.00195" width="49.0024" height="49.0029" filterUnits="userSpaceOnUse" color-interpolation-filters="sRGB">
<feFlood flood-opacity="0" result="BackgroundImageFix"/>
<feBlend mode="normal" in="SourceGraphic" in2="BackgroundImageFix" result="shape"/>
<feGaussianBlur stdDeviation="1.5" result="effect1_foregroundBlur_1051_27246"/>
</filter>
<filter id="filter1_di_1051_27246" x="0" y="0" width="68" height="68" filterUnits="userSpaceOnUse" color-interpolation-filters="sRGB">
<feFlood flood-opacity="0" result="BackgroundImageFix"/>
<feColorMatrix in="SourceAlpha" type="matrix" values="0 0 0 0 0 0 0 0 0 0 0 0 0 0 0 0 0 0 127 0" result="hardAlpha"/>
<feOffset dy="2"/>
<feGaussianBlur stdDeviation="2"/>
<feComposite in2="hardAlpha" operator="out"/>
<feColorMatrix type="matrix" values="0 0 0 0 0 0 0 0 0 0 0 0 0 0 0 0 0 0 0.25 0"/>
<feBlend mode="normal" in2="BackgroundImageFix" result="effect1_dropShadow_1051_27246"/>
<feBlend mode="normal" in="SourceGraphic" in2="effect1_dropShadow_1051_27246" result="shape"/>
<feColorMatrix in="SourceAlpha" type="matrix" values="0 0 0 0 0 0 0 0 0 0 0 0 0 0 0 0 0 0 127 0" result="hardAlpha"/>
<feOffset dx="2" dy="2"/>
<feGaussianBlur stdDeviation="2"/>
<feComposite in2="hardAlpha" operator="arithmetic" k2="-1" k3="1"/>
<feColorMatrix type="matrix" values="0 0 0 0 1 0 0 0 0 1 0 0 0 0 1 0 0 0 0.7 0"/>
<feBlend mode="normal" in2="shape" result="effect2_innerShadow_1051_27246"/>
</filter>
<filter id="filter2_di_1051_27246" x="14.438" y="12.998" width="21.1189" height="20.2812" filterUnits="userSpaceOnUse" color-interpolation-filters="sRGB">
<feFlood flood-opacity="0" result="BackgroundImageFix"/>
<feColorMatrix in="SourceAlpha" type="matrix" values="0 0 0 0 0 0 0 0 0 0 0 0 0 0 0 0 0 0 127 0" result="hardAlpha"/>
<feOffset dy="1"/>
<feGaussianBlur stdDeviation="1"/>
<feComposite in2="hardAlpha" operator="out"/>
<feColorMatrix type="matrix" values="0 0 0 0 0 0 0 0 0 0 0 0 0 0 0 0 0 0 0.25 0"/>
<feBlend mode="normal" in2="BackgroundImageFix" result="effect1_dropShadow_1051_27246"/>
<feBlend mode="normal" in="SourceGraphic" in2="effect1_dropShadow_1051_27246" result="shape"/>
<feColorMatrix in="SourceAlpha" type="matrix" values="0 0 0 0 0 0 0 0 0 0 0 0 0 0 0 0 0 0 127 0" result="hardAlpha"/>
<feOffset dy="-0.5"/>
<feGaussianBlur stdDeviation="0.5"/>
<feComposite in2="hardAlpha" operator="arithmetic" k2="-1" k3="1"/>
<feColorMatrix type="matrix" values="0 0 0 0 0 0 0 0 0 0 0 0 0 0 0 0 0 0 0.15 0"/>
<feBlend mode="normal" in2="shape" result="effect2_innerShadow_1051_27246"/>
</filter>
<linearGradient id="paint0_linear_1051_27246" x1="5.79883" y1="12.002" x2="62.4193" y2="35.5733" gradientUnits="userSpaceOnUse">
<stop stop-color="#0D72FF"/>
<stop offset="0.513259" stop-color="#9B69C6"/>
<stop offset="1" stop-color="#E13019"/>
</linearGradient>
<linearGradient id="paint1_linear_1051_27246" x1="64" y1="62" x2="-2.60225" y2="53.454" gradientUnits="userSpaceOnUse">
<stop stop-color="white"/>
<stop offset="1" stop-color="#0D72FF"/>
</linearGradient>
<linearGradient id="paint2_linear_1051_27246" x1="3.62016" y1="2" x2="70.3293" y2="10.5597" gradientUnits="userSpaceOnUse">
<stop stop-color="white"/>
<stop offset="1" stop-color="white" stop-opacity="0"/>
</linearGradient>
</defs>
</svg>
