<svg width="141" height="47" viewBox="0 0 141 47" fill="none" xmlns="http://www.w3.org/2000/svg">
<path d="M19.9384 31.1924L17.3126 33.6722L19.9384 36.1458L22.3075 33.9084L24.6833 36.1458L27.3025 33.6722L24.6833 31.1924L22.3075 33.436L19.9384 31.1924Z" fill="white"/>
<path d="M64.4589 27.3313H64.5379L64.6169 27.3624C66.0834 27.7918 67.6092 28.0138 69.1446 28.0212C70.4969 28.0491 71.8409 27.8143 73.0931 27.3313L73.1853 27.294L73.2774 27.3313C73.806 27.5564 74.3602 27.7232 74.9292 27.8285C75.6719 27.9541 76.4255 28.0123 77.1799 28.0025C78.5282 28.0763 79.8541 27.6529 80.8784 26.8217C81.3354 26.3747 81.6885 25.8426 81.9152 25.2593C82.1418 24.676 82.237 24.0545 82.1946 23.4345C82.1864 22.213 81.964 21.0012 81.5365 19.8484C81.122 18.7009 80.5371 17.6149 79.7991 16.6228L79.707 16.4985L76.9298 18.2387L77.022 18.3754C77.5129 19.0768 77.959 19.8053 78.3579 20.5569C78.7462 21.2592 79.0752 21.918 79.3385 22.5146C79.4553 22.765 79.5286 23.0315 79.5556 23.304C79.5635 23.3674 79.5491 23.4316 79.5146 23.4866C79.4801 23.5416 79.4275 23.5844 79.3648 23.6085C78.605 23.8298 77.8088 23.9182 77.0154 23.8695C76.4436 23.8798 75.8717 23.8507 75.3043 23.7825C75.0411 23.7596 74.7933 23.6547 74.6002 23.4842C74.4478 23.2724 74.3738 23.0189 74.3896 22.7632L74.3304 18.3381H71.3755L71.336 22.726C71.3576 22.9883 71.3078 23.2514 71.1912 23.4904C71.0693 23.6519 70.8848 23.7613 70.6779 23.7949C70.2305 23.8692 69.7763 23.9005 69.3222 23.8882C68.8023 23.8882 68.3088 23.8882 67.8284 23.8571C67.6672 23.8654 67.5059 23.8427 67.3543 23.7903C67.2027 23.738 67.064 23.6571 66.9465 23.5526C66.8645 23.4614 66.8029 23.3554 66.7656 23.2411C66.7283 23.1268 66.7159 23.0065 66.7293 22.8875L67.5585 18.1703L64.6432 17.6731L63.7811 22.1169C63.7164 22.4837 63.6013 22.8409 63.4389 23.1797C63.3476 23.3626 63.1917 23.5099 62.9979 23.5961C62.7139 23.6752 62.4188 23.7129 62.1227 23.7079H61.4646C61.1321 23.7128 60.8003 23.6773 60.4774 23.6023C60.2549 23.5419 60.0617 23.41 59.9312 23.2294C59.7473 22.931 59.6266 22.6017 59.5758 22.2598C59.3602 21.2679 59.0084 20.3068 58.5295 19.4009C58.0598 18.5023 57.3857 17.7128 56.5552 17.0889C55.7099 16.4618 54.662 16.1283 53.5872 16.1442C52.7739 16.1213 51.9733 16.3385 51.297 16.7657C50.638 17.2258 50.0925 17.8153 49.6978 18.4935C49.1893 19.3568 48.7642 20.2617 48.4277 21.1971C48.2321 21.7686 47.9386 22.3061 47.559 22.7881C47.2693 23.126 46.8763 23.3712 46.4337 23.4904C46.2175 23.5442 45.9976 23.5837 45.7756 23.6085H24.9731C23.4069 23.6085 23.2029 22.7881 23.2029 22.7819L23.17 22.6327C22.8786 21.0198 22.4808 19.4256 21.9788 17.8596V17.7353L19.0108 17.9031L19.9716 22.5706C20.0308 22.8328 20.0704 23.0986 20.0901 23.3661L19.8663 23.4345H20.0901L20.123 23.6209H19.9321C19.7992 23.6548 19.6617 23.6695 19.5241 23.6644H15.8388V23.478C15.6744 22.4578 15.3668 21.463 14.924 20.5196C14.48 19.5728 13.8032 18.7397 12.9497 18.0895C12.092 17.477 11.0366 17.163 9.96197 17.2008C9.03531 17.206 8.13433 17.4889 7.38882 18.0087C6.55085 18.5794 5.87312 19.3346 5.41453 20.2089C4.9269 21.1269 4.67443 22.1402 4.67746 23.1672C4.65923 24.3523 5.06502 25.5085 5.82913 26.4488C6.62543 27.4245 7.98769 27.9031 9.91591 27.9031H12.9037L12.647 28.2449C12.3202 28.6629 11.9194 29.0245 11.4624 29.3139C9.86984 30.3829 7.41514 31.3524 4.16415 32.2163L3.99304 32.2598L5.39479 36.1442L5.55273 36.1069C9.32362 35.1001 12.0876 33.6209 13.7658 31.6445C14.6634 30.6 15.302 29.3789 15.6348 28.0709L15.6808 27.9031H17.6946C18.9319 27.8921 20.1582 27.6819 21.3207 27.2816L21.3931 27.2505L21.6498 27.1324L21.7485 27.0703L21.8604 27.12L22.1828 27.2505C23.713 27.6887 25.3104 27.8799 26.9079 27.8161H45.3346C45.9138 27.8161 47.8946 27.6669 49.0134 26.3058L49.066 26.2375C49.1584 26.1174 49.244 25.993 49.3227 25.8646L49.4543 25.6346L49.6649 25.7962C50.1989 26.1947 50.7719 26.5443 51.376 26.8403C52.1664 27.2443 53.0003 27.5673 53.8636 27.8036C55.5417 28.2573 56.9566 28.2946 57.8121 27.7664C58.1339 27.5706 58.4077 27.312 58.615 27.0081L58.7466 26.8092L58.9441 26.9522L59.1283 27.0703L59.2271 27.1262C60.0807 27.6002 61.0534 27.8491 62.0437 27.8471C62.8776 27.8324 63.6995 27.6569 64.4589 27.3313ZM12.6404 23.7825C11.9297 23.8198 11.3242 23.8384 10.8043 23.8384C9.87013 23.8889 8.93429 23.7708 8.04691 23.4904C7.82784 23.4334 7.63459 23.3101 7.49673 23.1395C7.35886 22.9689 7.28398 22.7603 7.28352 22.5457C7.28865 22.2724 7.36795 22.0049 7.51386 21.7688C7.67978 21.4894 7.9293 21.2624 8.23118 21.1163C8.60309 20.9358 9.01763 20.8481 9.4355 20.8614C9.84574 20.8586 10.2523 20.9348 10.6302 21.0855C11.0082 21.2361 11.3496 21.4581 11.6335 21.7378C12.1779 22.2371 12.5904 22.8502 12.8379 23.5277L12.9431 23.8012L12.6404 23.7825ZM56.3775 24.1057C55.7882 24.0779 55.2057 23.9733 54.6467 23.7949C53.8982 23.5805 53.1696 23.3081 52.4684 22.9808C51.931 22.7355 51.4197 22.442 50.9416 22.1045L50.81 21.9988L50.8758 21.8496C51.0626 21.3803 51.357 20.9559 51.7379 20.6066C52.1696 20.2503 52.7317 20.0675 53.3042 20.097C53.8545 20.095 54.3954 20.2324 54.8705 20.4948C55.3773 20.7608 55.8243 21.1175 56.1866 21.5451C56.5344 21.9474 56.8181 22.3955 57.029 22.8751C57.1231 23.1073 57.1722 23.3536 57.1738 23.6023C57.1738 23.9379 56.9303 24.1057 56.3775 24.1057Z" fill="white"/>
<path d="M89.2033 22.4734C88.7031 20.8828 88.0965 19.3239 87.3869 17.8059L87.3277 17.6816H87.2882L83.6226 19.8196C85.1494 22.2497 85.8404 23.2938 86.3998 24.6611L86.6235 25.2826V25.3386C87.433 27.7749 86.1694 29.1484 85.3468 29.745C83.3263 30.8505 81.1538 31.6871 78.8909 32.231L78.7132 32.2808L80.2927 36.159L80.4309 36.1279C81.4829 35.8816 82.5127 35.5575 83.5107 35.1583C84.4704 34.7731 85.3893 34.3028 86.255 33.7537C87.4102 33.0364 88.3724 32.0745 89.0651 30.9445C89.7087 29.7973 90.0304 28.5135 89.9996 27.2155C89.9647 25.6079 89.6967 24.0124 89.2033 22.4734Z" fill="white"/>
<path d="M113.282 35.5704L119.917 39.4912C120.036 39.5741 120.133 39.6844 120.2 39.8128C120.267 39.9412 120.302 40.0838 120.302 40.2286C120.302 40.3734 120.267 40.516 120.2 40.6444C120.133 40.7728 120.036 40.8831 119.917 40.966L113.021 45.0216C112.886 45.1063 112.73 45.1511 112.571 45.1511C112.412 45.1511 112.256 45.1063 112.121 45.0216L105.531 41.1099C105.412 41.027 105.315 40.9167 105.248 40.7883C105.181 40.6599 105.146 40.5173 105.146 40.3725C105.146 40.2277 105.181 40.085 105.248 39.9567C105.315 39.8283 105.412 39.718 105.531 39.6351L112.4 35.5704C112.535 35.4948 112.687 35.4551 112.841 35.4551C112.996 35.4551 113.147 35.4948 113.282 35.5704Z" fill="white"/>
<path d="M129.457 8.6976V24.8843C129.453 25.0325 129.412 25.1774 129.338 25.306C129.264 25.4347 129.16 25.5431 129.034 25.6217L122.498 29.5064C122.379 29.5893 122.282 29.6996 122.215 29.828C122.148 29.9564 122.113 30.0991 122.113 30.2438C122.113 30.3886 122.148 30.5313 122.215 30.6597C122.282 30.788 122.379 30.8984 122.498 30.9812L129.178 34.929C129.313 35.0136 129.469 35.0585 129.628 35.0585C129.787 35.0585 129.943 35.0136 130.078 34.929L137.577 30.4866C137.703 30.4081 137.807 30.2997 137.881 30.171C137.955 30.0424 137.996 29.8975 138 29.7492V12.6633C137.996 12.5151 137.955 12.3702 137.881 12.2416C137.807 12.1129 137.703 12.0045 137.577 11.9259L130.753 7.96021C130.621 7.89506 130.475 7.86325 130.328 7.86758C130.181 7.8719 130.037 7.91222 129.909 7.985C129.781 8.05779 129.673 8.16082 129.594 8.28505C129.515 8.40929 129.468 8.55095 129.457 8.6976Z" fill="white"/>
<path d="M110.518 33.4823V16.5403C110.522 16.3921 110.563 16.2472 110.637 16.1185C110.711 15.9899 110.815 15.8814 110.941 15.8029L117.693 11.8102C117.825 11.745 117.971 11.7132 118.118 11.7176C118.265 11.7219 118.409 11.7622 118.537 11.835C118.665 11.9078 118.773 12.0108 118.852 12.135C118.931 12.2593 118.978 12.4009 118.989 12.5476V27.4483C119 27.595 119.047 27.7366 119.126 27.8609C119.205 27.9851 119.313 28.0881 119.441 28.1609C119.569 28.2337 119.713 28.274 119.86 28.2783C120.007 28.2827 120.153 28.2508 120.285 28.1857L127.091 24.157C127.219 24.0812 127.325 23.9732 127.397 23.8438C127.47 23.7143 127.507 23.568 127.505 23.4196V6.50456C127.502 6.35715 127.463 6.2128 127.39 6.08421C127.318 5.95563 127.215 5.84675 127.091 5.76716L119.43 1.27087C119.293 1.19194 119.138 1.15039 118.98 1.15039C118.822 1.15039 118.667 1.19194 118.53 1.27087L102.425 10.7401C102.299 10.8186 102.194 10.927 102.12 11.0557C102.047 11.1843 102.006 11.3292 102.002 11.4775V37.493C102.013 37.6397 102.06 37.7813 102.139 37.9056C102.218 38.0298 102.326 38.1328 102.454 38.2056C102.582 38.2784 102.726 38.3187 102.873 38.3231C103.02 38.3274 103.166 38.2956 103.298 38.2304L110.104 34.1748C110.222 34.0995 110.321 33.9977 110.393 33.8775C110.465 33.7573 110.508 33.622 110.518 33.4823Z" fill="white"/>
</svg>
