<svg width="412" height="230" fill="none" xmlns="http://www.w3.org/2000/svg">
    <g clip-path="url(#a)">
        <path d="M364.93 78.569c-16.893-14.409-37.254-101.29-107.003-56.043-36.037 23.38-96.801-20.071-147.101-5.068C64.637 31.215 60.184 76.65 64.652 91.443c9.05 29.897-19.036 34.35-45.102 47.187-40.881 20.144-10.818 90.936 27.797 91.276 38.614.341 272.596-.673 272.596-.673s56.108.145 79.438-30.824c25.103-33.321 9.188-82.63-34.451-119.84z" fill="url(#b)"/>
        <path d="M293.775 186.665h96.157V25.111h-96.157v161.554z" fill="#BDD0FB"/>
        <path d="M386.92 25.11h-96.156v161.554h96.156V25.11z" fill="#739AF0"/>
        <path d="M380.591 34.133h-83.282v56.274h83.282V34.133zM379.158 143.213h-44.697v30.041h44.697v-30.041z" fill="#F0F8FF"/>
        <path d="M300.748 62.857s14.221-1.774 22.91 6.234c8.688 8.008 24.871.724 31.388 0 11.332-1.231 20.216 2.476 22.851 6.517v12.229h-77.149v-24.98z" fill="url(#c)"/>
        <path d="M312.363 43.184h-.593v19.093h.593V43.184zM335.742 51.372h-.594v19.094h.594V51.372zM359.875 47.05h-.594v19.094h.594V47.05zM319.016 46.11h-4.569a.494.494 0 0 1-.456-.684.485.485 0 0 1 .266-.27.498.498 0 0 1 .19-.039h4.569a.5.5 0 0 1 .5.5.498.498 0 0 1-.5.492zM319.016 47.897h-4.569a.496.496 0 0 1-.456-.309.494.494 0 0 1 .456-.683h4.569a.498.498 0 0 1 .5.493.502.502 0 0 1-.5.5zM342.057 55.84h-4.569a.502.502 0 0 1-.5-.493.499.499 0 0 1 .5-.5h4.569a.498.498 0 0 1 .492.5.5.5 0 0 1-.492.493zM342.057 57.593h-4.569a.497.497 0 1 1 0-.992h4.569a.5.5 0 0 1 .492.492.496.496 0 0 1-.492.5zM366.58 48.643h-4.547a.497.497 0 1 1 0-.992h4.569a.494.494 0 0 1 .455.689.5.5 0 0 1-.28.272.495.495 0 0 1-.197.031zM366.58 50.395h-4.547a.497.497 0 0 1-.5-.5.496.496 0 0 1 .309-.456.494.494 0 0 1 .191-.036h4.569a.481.481 0 0 1 .35.142.494.494 0 0 1 .105.547.5.5 0 0 1-.28.272.495.495 0 0 1-.197.031z" fill="#BDD0FB"/>
        <path d="M380.507 106.123a8.225 8.225 0 1 0-16.238-2.636 8.225 8.225 0 1 0 16.238 2.636z" fill="#F0F8FF"/>
        <path d="M379.896 104.802a7.52 7.52 0 0 1-1.227 4.11 7.518 7.518 0 0 1-3.272 2.773 7.523 7.523 0 0 1-8.114-1.337l5.069-5.546v-7.53a7.53 7.53 0 0 1 7.544 7.53z" fill="url(#d)"/>
        <path d="M369.505 103.477h-2.7a.225.225 0 0 1-.225-.225.22.22 0 0 1 .063-.163.223.223 0 0 1 .162-.068h2.7a.222.222 0 0 1 .225.231.225.225 0 0 1-.225.225z" fill="#BDD0FB"/>
        <path d="M343.729 104.802a8.222 8.222 0 0 1 5.077-7.6 8.227 8.227 0 1 1 3.148 15.825 8.233 8.233 0 0 1-8.225-8.225z" fill="#F0F8FF"/>
        <path d="m351.955 104.802 4.627 5.937a7.534 7.534 0 0 1-11.904-4.11 7.526 7.526 0 0 1 3.699-8.463 7.532 7.532 0 0 1 11.101 5.948l-7.523.688z" fill="url(#e)"/>
        <path d="M357.754 106.662h-1.883a.222.222 0 0 1-.224-.224.22.22 0 0 1 .015-.088.218.218 0 0 1 .121-.126.223.223 0 0 1 .088-.018h1.883a.236.236 0 0 1 .161.068.233.233 0 0 1-.003.322.22.22 0 0 1-.158.066z" fill="#BDD0FB"/>
        <path d="M364.148 127.436a8.223 8.223 0 0 1 5.078-7.599 8.224 8.224 0 0 1 7.718 14.439 8.233 8.233 0 0 1-4.57 1.386 8.234 8.234 0 0 1-8.226-8.226z" fill="#F0F8FF"/>
        <path d="M379.896 127.435a7.526 7.526 0 0 1-4.499 6.884 7.53 7.53 0 0 1-8.114-1.337l5.069-5.547v-7.508a7.518 7.518 0 0 1 5.328 2.19 7.508 7.508 0 0 1 2.216 5.318z" fill="url(#f)"/>
        <path d="M369.505 126.125h-2.7a.227.227 0 0 1-.208-.138.235.235 0 0 1-.017-.086.223.223 0 0 1 .225-.232h2.7a.223.223 0 0 1 .21.144.22.22 0 0 1 .015.088.224.224 0 0 1-.139.207.227.227 0 0 1-.086.017z" fill="#BDD0FB"/>
        <path d="M343.729 127.436a8.222 8.222 0 0 1 5.077-7.599 8.224 8.224 0 0 1 7.718 14.439 8.233 8.233 0 0 1-4.57 1.386 8.23 8.23 0 0 1-8.225-8.226z" fill="#F0F8FF"/>
        <path d="M359.449 126.762a7.518 7.518 0 0 0-11.081-5.927 7.518 7.518 0 0 0 3.572 14.117 7.515 7.515 0 0 0 4.612-1.564l-4.626-5.938 7.523-.688z" fill="url(#g)"/>
        <path d="M357.754 129.312h-1.883a.225.225 0 0 1-.225-.225.234.234 0 0 1 .225-.232h1.883a.234.234 0 0 1 .224.232.225.225 0 0 1-.224.225zM377.231 171.155h-41.026v-24.242h.507v23.735h40.519v.507z" fill="#BDD0FB"/>
        <path d="M349 162.394c-5.018-4.004-10.361 0-10.361 0v6.835h37.55v-17.674c-10.181.26-22.12 14.836-27.189 10.839zM339.095 148.767h17.501a.434.434 0 0 0 0-.862h-17.501a.437.437 0 0 0-.378.431.432.432 0 0 0 .378.431zM339.095 150.867h17.501a.43.43 0 0 0 .27-.145.431.431 0 0 0 0-.573.43.43 0 0 0-.27-.144h-17.501a.432.432 0 0 0-.378.431.433.433 0 0 0 .378.431zM350.601 151.989h-11.578a.355.355 0 0 0-.355.355v.152c0 .196.159.355.355.355h11.578a.355.355 0 0 0 .354-.355v-.152a.355.355 0 0 0-.354-.355z" fill="#BDD0FB"/>
        <path d="M274.856 0H143.293v198.409h131.563V0z" fill="#739AF0"/>
        <path d="M261.932 11.1H156.008v118.066h105.924V11.1zM158.26 166.883a19.046 19.046 0 0 1 11.761-17.601 19.054 19.054 0 0 1 25.974 13.889 19.05 19.05 0 0 1-25.981 21.312 19.032 19.032 0 0 1-10.307-10.31 19.05 19.05 0 0 1-1.447-7.29z" fill="#F0F8FF"/>
        <path d="M193.406 166.883a16.102 16.102 0 0 0-22.973-14.566 16.103 16.103 0 1 0 16.637 27.367l-9.76-12.801 15.046 5.742a16.094 16.094 0 0 0 1.05-5.742z" fill="url(#h)"/>
        <path d="M223.156 166.883a19.048 19.048 0 0 1 11.76-17.6 19.05 19.05 0 1 1-11.76 17.6z" fill="#F0F8FF"/>
        <path d="M242.208 150.779a16.107 16.107 0 0 0-15.812 19.151 16.11 16.11 0 0 0 4.335 8.248l11.477-11.295 15.053 5.741a16.122 16.122 0 0 0-15.053-21.845z" fill="url(#i)"/>
        <path d="M239.854 158.708h-6.85a.495.495 0 0 0-.492.485.492.492 0 0 0 .492.493h6.85a.489.489 0 1 0 0-.978zM239.855 160.258h-6.85a.48.48 0 0 0-.386.12.487.487 0 0 0-.166.368c0 .07.015.139.044.202a.48.48 0 0 0 .302.268.496.496 0 0 0 .206.019h6.85a.496.496 0 0 0 .508-.287.483.483 0 0 0 0-.404.487.487 0 0 0-.508-.286zM235.836 161.807h-2.831a.496.496 0 0 0-.508.287.483.483 0 0 0 0 .404.49.49 0 0 0 .508.287h2.831a.49.49 0 0 0 .433-.489.49.49 0 0 0-.433-.489zM174.818 158.708h-6.835a.48.48 0 0 0-.348.14.486.486 0 0 0-.109.535.48.48 0 0 0 .457.303h6.849a.492.492 0 0 0 .452-.682.49.49 0 0 0-.466-.296zM174.819 160.258h-6.835a.477.477 0 0 0-.386.12.49.49 0 0 0 .18.838.493.493 0 0 0 .206.019h6.849a.495.495 0 0 0 .509-.691.503.503 0 0 0-.303-.268.478.478 0 0 0-.206-.018h-.014zM170.8 161.807h-2.816a.493.493 0 1 0 0 .978h2.831a.492.492 0 0 0 0-.978h-.015zM176.615 53.291h-11.179v69.626h11.179V53.291zM194.926 33.887h-11.18v89.038h11.18V33.887zM214.91 70.133h-11.18v52.792h11.18V70.133zM234.351 45.769h-11.179v77.149h11.179v-77.15zM253.894 80.466h-11.179v42.459h11.179v-42.46zM233.815 35.733h-9.463a.986.986 0 0 0-.642 1.647.986.986 0 0 0 .642.315h9.463a.984.984 0 1 0 0-1.962zM226.51 39.295h-2.172a.982.982 0 0 0-.9.981.983.983 0 0 0 .9.981h2.172a.982.982 0 0 0 .9-.981.983.983 0 0 0-.9-.981zM194.809 20.57h-9.449a.977.977 0 1 0 0 1.955h9.464a.977.977 0 1 0 0-1.955h-.015zM187.533 24.133h-2.173a.986.986 0 0 0-.977.977.983.983 0 0 0 .977.956h2.173a.986.986 0 0 0 .977-.977.984.984 0 0 0-.977-.956zM214.049 59.735h-9.463a.982.982 0 0 0-.9.982.983.983 0 0 0 .9.98h9.463a.987.987 0 0 0 .901-.98.988.988 0 0 0-.901-.982zM206.743 63.298h-2.172a.983.983 0 0 0-.689 1.674.986.986 0 0 0 .689.288h2.172a.986.986 0 0 0 .978-.977.986.986 0 0 0-.978-.985zM253.04 70.133h-9.471a.977.977 0 1 0 0 1.955h9.471a.977.977 0 1 0 0-1.955zM245.726 73.695h-2.172a.98.98 0 0 0-.978.978.978.978 0 0 0 .978.977h2.172a.977.977 0 1 0 0-1.955z" fill="#BDD0FB"/>
        <path d="M125.545 75.209H29.389v54.131h96.156V75.209z" fill="#91B3FA"/>
        <path d="M128.666 75.209H32.51v54.131h96.156V75.209z" fill="#739AF0"/>
        <path d="M71.105 113.346c6.79-6.79 6.79-17.797 0-24.586-6.789-6.79-17.796-6.79-24.586 0-6.789 6.789-6.789 17.796 0 24.586 6.79 6.789 17.797 6.789 24.586 0zM117.855 91.34H89.059a1.904 1.904 0 0 0-1.897 1.898 1.904 1.904 0 0 0 1.897 1.897h28.804a1.904 1.904 0 0 0 1.897-1.897 1.905 1.905 0 0 0-1.905-1.897zM117.855 99.153H89.059a1.904 1.904 0 0 0-1.897 1.897 1.906 1.906 0 0 0 1.897 1.897h28.804a1.9 1.9 0 0 0 1.897-1.897 1.905 1.905 0 0 0-1.905-1.897zM117.855 106.967H89.059a1.9 1.9 0 0 0-1.897 1.897 1.895 1.895 0 0 0 1.897 1.897h28.804a1.896 1.896 0 0 0 0-3.794h-.008z" fill="#F0F8FF"/>
        <path d="M42.895 100.798h15.929v-15.93a15.93 15.93 0 0 0-15.93 15.93z" fill="url(#j)"/>
        <path d="M74.73 101.312H42.871a15.928 15.928 0 0 0 31.86 0z" fill="url(#k)"/>
        <path d="M56.057 92.615h-8.638a.898.898 0 0 0 0 1.788h8.638a.897.897 0 1 0 0-1.788zM49.388 95.867h-1.97a.898.898 0 0 0 0 1.788h1.97a.9.9 0 0 0 .979-.894.898.898 0 0 0-.979-.894z" fill="#91B3FA"/>
        <path d="M68.888 105.2H60.25a.901.901 0 0 0-.978.894.896.896 0 0 0 .978.894h8.638a.899.899 0 0 0 .582-1.5.899.899 0 0 0-.582-.288zM62.211 108.451H60.25a.909.909 0 0 0-.876.884.9.9 0 0 0 .898.89h1.962a.9.9 0 0 0 .876-.89.906.906 0 0 0-.898-.884z" fill="#BDD0FB"/>
        <path d="M22.613 139.021v55.354h96.135v-55.354H22.613z" fill="#91B3FA"/>
        <path d="M25.74 139.021v55.354h96.156v-55.354H25.74z" fill="#739AF0"/>
        <path d="M67.616 172.716c4.257-8.606.731-19.034-7.875-23.291-8.606-4.257-19.033-.732-23.29 7.874-4.258 8.606-.732 19.034 7.874 23.291 8.606 4.257 19.033.732 23.29-7.874zM82.282 159.085h28.803a1.898 1.898 0 0 0 1.342-3.238 1.898 1.898 0 0 0-1.342-.556H82.282a1.896 1.896 0 0 0 0 3.794zM111.086 163.104H82.283a1.9 1.9 0 0 0-1.787 1.9 1.907 1.907 0 0 0 1.787 1.901h28.803a1.905 1.905 0 0 0 0-3.801zM111.085 170.924H82.282a1.902 1.902 0 0 0-1.897 1.897 1.904 1.904 0 0 0 1.897 1.897h28.803a1.904 1.904 0 0 0 1.897-1.897 1.903 1.903 0 0 0-1.897-1.897z" fill="#F0F8FF"/>
        <path d="m52.038 165.283-15.93-.203a1.964 1.964 0 0 0 0 .203 15.928 15.928 0 0 0 24.46 13.439l-8.53-13.439z" fill="url(#l)"/>
        <path d="M52.624 170.301h-8.646a.89.89 0 0 0-.89.89v.008c0 .491.399.89.89.89h8.646a.89.89 0 0 0 .89-.89v-.008a.89.89 0 0 0-.89-.89zM45.948 173.551h-1.962a.899.899 0 1 0 0 1.789h1.962a.899.899 0 1 0 0-1.789zM118.769 16.176H22.613v50.163h96.156V16.176z" fill="#BDD0FB"/>
        <path d="M121.896 16.176H25.74v50.163h96.156V16.176z" fill="#739AF0"/>
        <path d="M57.345 58.543c9.143-2.93 14.18-12.718 11.25-21.86-2.931-9.144-12.718-14.18-21.862-11.25-9.143 2.93-14.18 12.717-11.25 21.86 2.93 9.144 12.718 14.18 21.862 11.25z" fill="#F0F8FF"/>
        <path d="M52.039 26.066a15.929 15.929 0 0 0-7.64 29.89c2.55-4.721 7.64-13.96 7.64-13.96l7.537 14.018a15.93 15.93 0 0 0-7.537-29.948z" fill="url(#m)"/>
        <path d="M111.085 32.28H82.282a1.897 1.897 0 0 0 0 3.793h28.803a1.897 1.897 0 1 0 0-3.794zM111.086 40.092H82.283a1.904 1.904 0 0 0 0 3.801h28.803a1.904 1.904 0 0 0 0-3.801zM111.085 47.911H82.282a1.897 1.897 0 0 0 0 3.794h28.803a1.896 1.896 0 1 0 0-3.794z" fill="#F0F8FF"/>
        <path d="M52.624 34.394h-8.638a.89.89 0 1 0 0 1.78h8.638a.89.89 0 0 0 0-1.78zM45.948 37.651h-1.962a.898.898 0 0 0-.898.891.905.905 0 0 0 .898.898h1.962a.905.905 0 0 0 .898-.898.898.898 0 0 0-.898-.89z" fill="#BDD0FB"/>
        <path d="M144.197 102.817s11.216 11.585 11.752 15.93c.536 4.344-5.344 11.201-5.344 11.201l-6.408-27.131z" fill="url(#n)"/>
        <path d="M139.397 222.918s-.376 6.155-1.571 6.249h-6.046l-7.509-.044a2.437 2.437 0 0 1 2.245-2.172c2.172-.383 5.865-1.926 7.197-4.829 1.405-3.056 5.684.796 5.684.796z" fill="url(#o)"/>
        <path d="M156.123 222.918s-.384 6.155-1.572 6.249H140.982a2.475 2.475 0 0 1 2.267-2.208c2.172-.384 5.865-1.926 7.197-4.83 1.397-3.063 5.677.789 5.677.789z" fill="url(#p)"/>
        <path d="M131.057 156.913s1.962 12.562 9.289 34.856c7.328 22.294 8.356 31.968 8.356 31.968 1.349.183 2.708.28 4.069.289a25.826 25.826 0 0 0 3.787-.506s.065-24.365-3.309-35.581c-3.374-11.216-.724-40.418-.724-40.418l-21.468 9.392z" fill="url(#q)"/>
        <path d="M127.262 148.188a305.164 305.164 0 0 0 2.997 42.162c3.273 23.243 2.173 33.104 2.173 33.104s2.693.485 3.62.514c.927.029 4.199-.253 4.199-.253s4.685-23.243 3.346-34.878c-1.34-11.636 6.415-39.911 6.415-39.911l-22.75-.738z" fill="url(#r)"/>
        <path d="m142.446 103.903-3.7 2.737-5.344-1.122c.073-.492.428-2.513.724-4.345 0-.101 0-.21.058-.318l.514-2.896 4.989-2.484 1.861-.934c0 .036-.145 1.73-.159 1.977a15.932 15.932 0 0 0 1.057 7.385z" fill="url(#s)"/>
        <path d="M133.771 102.52c.115-.05 7.276-2.172 8.051-1.904.775.268 1.238 1.76 1.238 1.76l-11.701 2.614a5.8 5.8 0 0 1 2.412-2.47z" fill="url(#t)"/>
        <path d="M153.039 150.527c-1.209 5.532-21.396 6.191-26.602 1.166-.587-.572-.616-3.237-.391-6.828.434-7.017 1.832-17.566 1.89-22.96.054-2.582.343-5.153.861-7.683a62.816 62.816 0 0 1 2.556-9.232s9.862-3.186 11.708-2.643c8.885 2.643 11.165 42.648 9.978 48.18z" fill="url(#u)"/>
        <path d="M126.045 144.864c.434-7.016 1.832-17.566 1.89-22.96.055-2.581.343-5.153.861-7.682l5.931-1.05s5.799 23.677-8.682 31.692z" fill="url(#v)"/>
        <path d="M129.253 135.089a1.4 1.4 0 0 1-.442 1.615c-.854.644-1.405 1.701-1.209 2.469.195.768 2.056 2.02 2.701 1.817.644-.202 1.962-1.216 1.817-1.622-.145-.405.891-3.555-.688-4.764-1.578-1.209-2.179.485-2.179.485z" fill="url(#w)"/>
        <path d="M135.886 103.6s-5.792 1.086-10.39 7.877c-4.598 6.792-7.646 11.839-6.792 14.286.854 2.448 8.588 10.941 9.92 10.941 1.332 0 3.483-.97 3.62-3.157 0 0-5.445-8.167-4.344-9.413.456-.521 7.074-5.887 8.015-3.461 1.521 4.033-.029-17.073-.029-17.073z" fill="url(#x)"/>
        <path d="M133.105 98.075s7.392 2.303 8.761-2.317c1.368-4.62 3.236-7.443-1.448-9.109-4.685-1.665-6.104-.18-6.937 1.253-.833 1.434-2.259 9.456-.376 10.173z" fill="url(#y)"/>
        <path d="M133.799 87.46s.471 5.38 1.579 5.148c1.107-.231 2.128-.405 1.962 1.217-.167 1.622-1.709 3.49 1.723 3.78 3.432.29 8.363-8.559 7.422-10.232-2.723-4.83-16.617-5.807-12.686.087z" fill="url(#z)"/>
        <path d="M283.109 151.062s-3.272.84-5.351.21c-2.078-.629-5.654.406-6.234 1.166-.579.76-.362 1.057.666 1.318 1.029.261 4.671 1.817 7.067.92a18.887 18.887 0 0 1 5.518-.934l-1.666-2.68z" fill="url(#A)"/>
        <path d="M311.348 122.65s-3.671 26.11-9.753 28.455c-3.005 1.152-16.27 3.766-20.202 4.034 0 0-.956-.782-.724-3.961 0 0 13.902-5.069 15.879-7.878 2.94-4.127-1.825-16.871 1.861-20.752 3.685-3.881 9.919-5.546 12.939.102z" fill="url(#B)"/>
        <path d="M310.907 223.274v-5.699h8.964a.431.431 0 0 0 .401-.268.431.431 0 0 0 .033-.166v-.912a.426.426 0 0 0-.124-.312.44.44 0 0 0-.31-.13h-8.964v-32.409a1.667 1.667 0 0 0-1.658-1.637h-1.774a1.66 1.66 0 0 0-1.651 1.658v32.373h-8.957a.441.441 0 0 0-.441.442v.912a.438.438 0 0 0 .129.31.443.443 0 0 0 .312.125h8.964v5.698c-6.516.493-11.686 2.824-13.142 5.843h31.36c-1.463-3.004-6.662-5.365-13.142-5.828z" fill="url(#C)"/>
        <path d="M280.394 222.897s-.377 6.155-1.571 6.242h-6.039l-7.509-.051a2.437 2.437 0 0 1 2.245-2.172c2.172-.384 5.865-1.926 7.197-4.83 1.398-3.048 5.677.811 5.677.811z" fill="url(#D)"/>
        <path d="M297.67 205.31s5.192 3.33 4.685 4.416c-.065.145-2.933 5.279-2.933 5.279l-3.7 6.516a2.437 2.437 0 0 1-.818-3.033c.724-2.1 1.18-6.061-.724-8.631-1.962-2.687 3.49-4.547 3.49-4.547z" fill="url(#E)"/>
        <path d="M310.133 177.665a45.83 45.83 0 0 1-3.584 5.141c-3.953 4.981-8.254 9.094-9 12.982-.18.845-.422 1.675-.724 2.484-.311.89-.724 1.824-1.144 2.795a86.876 86.876 0 0 1-6.683 11.425c-4.345 6.408-8.392 11.759-8.392 11.759l-7.465-.318c.304-.724 3.555-9.601 7.906-20.412l5.46-13.562.724-1.795c.55-1.383 1.101-2.737 1.629-4.055 4.091-10.137 7.342-18.247 7.342-18.247s16.335-6.183 18.029-2.172c1.463 3.302.29 6.539-4.098 13.975z" fill="url(#F)"/>
        <path d="M290.647 162.915s-20.498 12.765-22.786 21.353c-2.288 8.587 27.268 26.884 27.268 26.884s3.244-2.86 3.816-4.952c0 0-13.359-16.009-16.255-19.601-1.782-2.172 26.319-7.631 29.752-12.968 3.432-5.336 2.172-9.833 2.172-9.833l-23.967-.883z" fill="url(#G)"/>
        <path d="M329.334 179.322h-41.953c-.843 0-1.527.684-1.527 1.528v8.385c0 .844.684 1.528 1.527 1.528h41.953c.844 0 1.528-.684 1.528-1.528v-8.385c0-.844-.684-1.528-1.528-1.528z" fill="url(#H)"/>
        <path d="M300.132 118.168a11.751 11.751 0 0 0-3.128 2.831c4.916 1.275 13.033-3.28 13.033-3.28a12.047 12.047 0 0 1-4.344-6.792 10.704 10.704 0 0 1-.16-.724 13.874 13.874 0 0 1-.267-2.556l-2.26 2.021-3.75 3.367c.111 1.274.297 2.541.557 3.794.116.412.21.861.319 1.339z" fill="url(#I)"/>
        <path d="M315.238 141.345c-.724 9.457.485 23.844-.319 26.335-.688 2.172-8.79.876-11.925.159a54.499 54.499 0 0 1-4.012-1.093c-4.047-1.253-8.457-3.041-8.927-4.345a.734.734 0 0 1-.044-.152 1.219 1.219 0 0 1 0-.557c.159-.681.768-1.412.833-3.085.087-1.875.072-4.076.145-6.444a7.568 7.568 0 0 1 .036-.825v-.247c.072-2.642.21-5.423.369-8.182.101-1.73.217-3.439.355-5.068.231-3.502.732-6.98 1.499-10.405a16.65 16.65 0 0 1 5.365-8.276l1.492-1.282a8.619 8.619 0 0 0 5.416-.724c1.926-.912 2.592-1.571 2.932-1.325 4.417 3.418 7.617 13.946 6.785 25.516z" fill="url(#J)"/>
        <path d="M299.04 166.767c-4.048-1.253-8.458-3.041-8.928-4.344a.624.624 0 0 1-.044-.153v-.557c.16-.673.768-1.405.84-3.085.08-1.868.065-4.076.138-6.444-.006-.285.004-.57.029-.854v-.246l15.285-6.93s.862 12.317-7.32 22.613z" fill="url(#K)"/>
        <path d="M297.808 112.998s8.051.905 8.537-4.12c.485-5.025 1.86-8.283-3.259-9.073-5.119-.789-6.306 1.029-6.878 2.665-.572 1.637-.478 10.159 1.6 10.528z" fill="url(#L)"/>
        <path d="M306.316 109.226a8.266 8.266 0 0 0-7.841-7.349c-5.018-.478-2.216-4.794-1.688-5.481 0 0 3.845.52 7.791 1.172 8.269 1.369 2.549 10.623 1.738 11.658z" fill="url(#M)"/>
        <path d="m261.363 139.137-.703.228 5.994 18.449.703-.229-5.994-18.448z" fill="url(#N)"/>
        <path d="m286.968 156.198-20.349.433.026 1.216 20.349-.433-.026-1.216z" fill="url(#O)"/>
        <path d="M284.789 155.073s-3.164 1.195-5.3.804c-2.136-.391-5.575 1.028-6.068 1.839-.492.811-.246 1.093.811 1.245 1.057.153 4.844 1.289 7.125.131a19.056 19.056 0 0 1 5.373-1.535l-1.941-2.484z" fill="url(#P)"/>
        <path d="M309.748 123.721s-.767 26.356-6.56 29.354c-2.852 1.448-15.755 5.539-19.629 6.234 0 0-1.036-.666-1.159-3.845 0 0 13.258-6.61 14.916-9.586 2.462-4.424-3.678-16.567-.441-20.832 3.236-4.265 9.231-6.603 12.873-1.325z" fill="url(#Q)"/>
        <path d="M359.138 230H22.946c-.18 0-.333-.238-.333-.528 0-.29.152-.529.333-.529h336.192c.181 0 .326.239.326.529-.015.29-.159.528-.326.528z" fill="#233862"/>
    </g>
    <defs>
        <linearGradient id="b" x1="0" y1="119.783" x2="411.321" y2="119.783" gradientUnits="userSpaceOnUse">
            <stop stop-color="#DAE3FE"/>
            <stop offset="1" stop-color="#E9EFFD"/>
        </linearGradient>
        <linearGradient id="c" x1="300.748" y1="75.274" x2="377.897" y2="75.274" gradientUnits="userSpaceOnUse">
            <stop offset=".03" stop-color="#FE7062"/>
            <stop offset="1" stop-color="#FE7062"/>
        </linearGradient>
        <linearGradient id="d" x1="6765.34" y1="2275.75" x2="6985.06" y2="2275.75" gradientUnits="userSpaceOnUse">
            <stop offset=".03" stop-color="#FE7062"/>
            <stop offset="1" stop-color="#FE7062"/>
        </linearGradient>
        <linearGradient id="e" x1="7494.59" y1="2277.12" x2="7806.34" y2="2277.12" gradientUnits="userSpaceOnUse">
            <stop offset=".03" stop-color="#FE7062"/>
            <stop offset="1" stop-color="#FE7062"/>
        </linearGradient>
        <linearGradient id="f" x1="6765.34" y1="2765.38" x2="6985.06" y2="2765.38" gradientUnits="userSpaceOnUse">
            <stop offset=".03" stop-color="#FE7062"/>
            <stop offset="1" stop-color="#FE7062"/>
        </linearGradient>
        <linearGradient id="g" x1="7480.48" y1="2765.79" x2="7791.61" y2="2765.79" gradientUnits="userSpaceOnUse">
            <stop offset=".03" stop-color="#FE7062"/>
            <stop offset="1" stop-color="#FE7062"/>
        </linearGradient>
        <linearGradient id="h" x1="7331.67" y1="7573.73" x2="8763.89" y2="7573.73" gradientUnits="userSpaceOnUse">
            <stop offset=".03" stop-color="#FE7062"/>
            <stop offset="1" stop-color="#FE7062"/>
        </linearGradient>
        <linearGradient id="i" x1="10282.6" y1="6374.67" x2="11715.1" y2="6374.67" gradientUnits="userSpaceOnUse">
            <stop offset=".03" stop-color="#FE7062"/>
            <stop offset="1" stop-color="#FE7062"/>
        </linearGradient>
        <linearGradient id="j" x1="42.895" y1="92.84" x2="58.809" y2="92.84" gradientUnits="userSpaceOnUse">
            <stop stop-color="#4042E2"/>
            <stop offset="1" stop-color="#4F52FF"/>
        </linearGradient>
        <linearGradient id="k" x1="1930.2" y1="2505.23" x2="3331.03" y2="2505.23" gradientUnits="userSpaceOnUse">
            <stop stop-color="#4042E2"/>
            <stop offset="1" stop-color="#4F52FF"/>
        </linearGradient>
        <linearGradient id="l" x1="1256.25" y1="4019.25" x2="2082.56" y2="4019.25" gradientUnits="userSpaceOnUse">
            <stop stop-color="#4042E2"/>
            <stop offset="1" stop-color="#4F52FF"/>
        </linearGradient>
        <linearGradient id="m" x1="1622.18" y1="1723.79" x2="3020.29" y2="1723.79" gradientUnits="userSpaceOnUse">
            <stop stop-color="#4042E2"/>
            <stop offset="1" stop-color="#4F52FF"/>
        </linearGradient>
        <linearGradient id="n" x1="144.197" y1="116.379" x2="155.985" y2="116.379" gradientUnits="userSpaceOnUse">
            <stop stop-color="#FF928E"/>
            <stop offset=".99" stop-color="#FF928E"/>
        </linearGradient>
        <linearGradient id="o" x1="124.279" y1="225.061" x2="139.397" y2="225.061" gradientUnits="userSpaceOnUse">
            <stop stop-color="#09005D"/>
            <stop offset="1" stop-color="#1A0F91"/>
        </linearGradient>
        <linearGradient id="p" x1="3088.94" y1="2776.25" x2="3405.52" y2="2776.25" gradientUnits="userSpaceOnUse">
            <stop stop-color="#09005D"/>
            <stop offset="1" stop-color="#1A0F91"/>
        </linearGradient>
        <linearGradient id="q" x1="4747.89" y1="19774.1" x2="5645.04" y2="19774.1" gradientUnits="userSpaceOnUse">
            <stop stop-color="#09005D"/>
            <stop offset="1" stop-color="#1A0F91"/>
        </linearGradient>
        <linearGradient id="r" x1="4125.61" y1="19623.7" x2="4841.1" y2="19623.7" gradientUnits="userSpaceOnUse">
            <stop stop-color="#09005D"/>
            <stop offset="1" stop-color="#1A0F91"/>
        </linearGradient>
        <linearGradient id="s" x1="133.402" y1="100.594" x2="142.446" y2="100.594" gradientUnits="userSpaceOnUse">
            <stop stop-color="#FEBBBA"/>
            <stop offset="1" stop-color="#FF928E"/>
        </linearGradient>
        <linearGradient id="t" x1="2254.14" y1="724.887" x2="2443.23" y2="724.887" gradientUnits="userSpaceOnUse">
            <stop offset=".03" stop-color="#FE7062"/>
            <stop offset="1" stop-color="#FE7062"/>
        </linearGradient>
        <linearGradient id="u" x1="4893.16" y1="9489.79" x2="5931.32" y2="9489.79" gradientUnits="userSpaceOnUse">
            <stop stop-color="#FF928E"/>
            <stop offset=".99" stop-color="#FF928E"/>
        </linearGradient>
        <linearGradient id="v" x1="1837.05" y1="5760.45" x2="1970.43" y2="5760.45" gradientUnits="userSpaceOnUse">
            <stop offset=".03" stop-color="#FE7062"/>
            <stop offset="1" stop-color="#FE7062"/>
        </linearGradient>
        <linearGradient id="w" x1="965.926" y1="1434.54" x2="997.189" y2="1434.54" gradientUnits="userSpaceOnUse">
            <stop stop-color="#FEBBBA"/>
            <stop offset="1" stop-color="#FF928E"/>
        </linearGradient>
        <linearGradient id="x" x1="3069.64" y1="5596.94" x2="3518.06" y2="5596.94" gradientUnits="userSpaceOnUse">
            <stop stop-color="#FF928E"/>
            <stop offset=".99" stop-color="#FF928E"/>
        </linearGradient>
        <linearGradient id="y" x1="2183.88" y1="1709.09" x2="2358.19" y2="1709.09" gradientUnits="userSpaceOnUse">
            <stop stop-color="#FEBBBA"/>
            <stop offset="1" stop-color="#FF928E"/>
        </linearGradient>
        <linearGradient id="z" x1="2614.55" y1="1861.09" x2="2866.16" y2="1861.09" gradientUnits="userSpaceOnUse">
            <stop stop-color="#09005D"/>
            <stop offset="1" stop-color="#1A0F91"/>
        </linearGradient>
        <linearGradient id="A" x1="271.206" y1="153.003" x2="284.767" y2="153.003" gradientUnits="userSpaceOnUse">
            <stop stop-color="#FF928E"/>
            <stop offset="1" stop-color="#FEB3B1"/>
        </linearGradient>
        <linearGradient id="B" x1="280.655" y1="137.066" x2="311.37" y2="137.066" gradientUnits="userSpaceOnUse">
            <stop stop-color="#4042E2"/>
            <stop offset="1" stop-color="#3F42CC"/>
        </linearGradient>
        <linearGradient id="C" x1="12968.8" y1="13618.1" x2="14326.9" y2="13618.1" gradientUnits="userSpaceOnUse">
            <stop stop-color="#4042E2"/>
            <stop offset="1" stop-color="#4F52FF"/>
        </linearGradient>
        <linearGradient id="D" x1="5804.24" y1="2777.09" x2="6119.91" y2="2777.09" gradientUnits="userSpaceOnUse">
            <stop stop-color="#4042E2"/>
            <stop offset="1" stop-color="#4F52FF"/>
        </linearGradient>
        <linearGradient id="E" x1="3797.4" y1="4983.93" x2="3900.25" y2="4983.93" gradientUnits="userSpaceOnUse">
            <stop stop-color="#4042E2"/>
            <stop offset="1" stop-color="#4F52FF"/>
        </linearGradient>
        <linearGradient id="F" x1="16000.7" y1="16690.4" x2="18399" y2="16690.4" gradientUnits="userSpaceOnUse">
            <stop stop-color="#09005D"/>
            <stop offset="1" stop-color="#1A0F91"/>
        </linearGradient>
        <linearGradient id="G" x1="17685.3" y1="12624.1" x2="20751.4" y2="12624.1" gradientUnits="userSpaceOnUse">
            <stop stop-color="#09005D"/>
            <stop offset="1" stop-color="#1A0F91"/>
        </linearGradient>
        <linearGradient id="H" x1="18054.6" y1="3103.11" x2="20852.7" y2="3103.11" gradientUnits="userSpaceOnUse">
            <stop stop-color="#FF928E"/>
            <stop offset=".99" stop-color="#FF928E"/>
        </linearGradient>
        <linearGradient id="I" x1="5643.09" y1="2253.46" x2="5878.08" y2="2253.46" gradientUnits="userSpaceOnUse">
            <stop stop-color="#FF928E"/>
            <stop offset="1" stop-color="#FEB3B1"/>
        </linearGradient>
        <linearGradient id="J" x1="10458.9" y1="10553.4" x2="11349.2" y2="10553.4" gradientUnits="userSpaceOnUse">
            <stop stop-color="#4042E2"/>
            <stop offset="1" stop-color="#4F52FF"/>
        </linearGradient>
        <linearGradient id="K" x1="6826.24" y1="4999.09" x2="7194.37" y2="4999.09" gradientUnits="userSpaceOnUse">
            <stop stop-color="#4042E2"/>
            <stop offset="1" stop-color="#3F42CC"/>
        </linearGradient>
        <linearGradient id="L" x1="4781.32" y1="2074.34" x2="4947.6" y2="2074.34" gradientUnits="userSpaceOnUse">
            <stop stop-color="#FF928E"/>
            <stop offset="1" stop-color="#FEB3B1"/>
        </linearGradient>
        <linearGradient id="M" x1="5791.59" y1="1918.2" x2="6042.06" y2="1918.2" gradientUnits="userSpaceOnUse">
            <stop stop-color="#09005D"/>
            <stop offset="1" stop-color="#1A0F91"/>
        </linearGradient>
        <linearGradient id="N" x1="529.51" y1="4117.08" x2="536.342" y2="4117.08" gradientUnits="userSpaceOnUse">
            <stop stop-color="#09005D"/>
            <stop offset="1" stop-color="#1A0F91"/>
        </linearGradient>
        <linearGradient id="O" x1="7761.41" y1="420.172" x2="8334.16" y2="420.172" gradientUnits="userSpaceOnUse">
            <stop stop-color="#09005D"/>
            <stop offset="1" stop-color="#1A0F91"/>
        </linearGradient>
        <linearGradient id="P" x1="5386.19" y1="1140.2" x2="5639.88" y2="1140.2" gradientUnits="userSpaceOnUse">
            <stop stop-color="#FF928E"/>
            <stop offset="1" stop-color="#FEB3B1"/>
        </linearGradient>
        <linearGradient id="Q" x1="10948.7" y1="7590.04" x2="11981.6" y2="7590.04" gradientUnits="userSpaceOnUse">
            <stop stop-color="#4042E2"/>
            <stop offset="1" stop-color="#4F52FF"/>
        </linearGradient>
        <clipPath id="a">
            <path fill="#fff" d="M0 0h411.321v230H0z"/>
        </clipPath>
    </defs>
</svg>
