
<svg width="25" height="24" viewBox="0 0 25 24" fill="none" xmlns="http://www.w3.org/2000/svg">
<mask id="mask0_23889_82165" style="mask-type:alpha" maskUnits="userSpaceOnUse" x="0" y="0" width="25" height="24">
<rect x="0.5" width="24" height="24" fill="#D9D9D9"/>
</mask>
<g mask="url(#mask0_23889_82165)">
<path d="M2.5 21V3H12.5V7H22.5V15H20.5V9H12.5V11H14.5V13H12.5V15H14.5V17H12.5V19H16.5V21H2.5ZM4.5 19H6.5V17H4.5V19ZM4.5 15H6.5V13H4.5V15ZM4.5 11H6.5V9H4.5V11ZM4.5 7H6.5V5H4.5V7ZM8.5 19H10.5V17H8.5V19ZM8.5 15H10.5V13H8.5V15ZM8.5 11H10.5V9H8.5V11ZM8.5 7H10.5V5H8.5V7ZM20.5 23V21H18.5V19H20.5V17H22.5V19H24.5V21H22.5V23H20.5ZM16.5 13V11H18.5V13H16.5ZM16.5 17V15H18.5V17H16.5Z" fill="black"/>
</g>
</svg>
