<svg width="33" height="32" viewBox="0 0 33 32" fill="none" xmlns="http://www.w3.org/2000/svg">
<path d="M15.7731 21.8987C14.1321 21.8134 12.7475 21.181 11.6193 20.0015C10.4911 18.822 9.92699 17.4032 9.92699 15.7449C9.92699 14.0354 10.5253 12.5824 11.7221 11.3861C12.9184 10.1894 14.3713 9.59105 16.0808 9.59105C17.7391 9.59105 19.158 10.1552 20.3374 11.2834C21.5169 12.4116 22.1493 13.8048 22.2347 15.463L20.4396 14.8987C20.2345 13.8559 19.7303 12.997 18.927 12.3221C18.1237 11.6468 17.175 11.3092 16.0808 11.3092C14.8501 11.3092 13.8031 11.7408 12.9399 12.604C12.0767 13.4672 11.6451 14.5141 11.6451 15.7449C11.6451 16.839 11.9828 17.7878 12.6581 18.591C13.3329 19.3943 14.1918 19.8985 15.2347 20.1037L15.7731 21.8987ZM17.0039 25.9498C16.8501 25.967 16.6962 25.98 16.5424 25.9886C16.3885 25.9972 16.2347 26.0015 16.0808 26.0015C14.6622 26.0015 13.3288 25.7322 12.0808 25.1935C10.8328 24.6553 9.7473 23.9246 8.82422 23.0015C7.90114 22.0784 7.17048 20.9929 6.63222 19.7449C6.09355 18.4969 5.82422 17.1636 5.82422 15.7449C5.82422 14.3262 6.09355 12.9929 6.63222 11.7449C7.17048 10.4969 7.90114 9.41136 8.82422 8.48828C9.7473 7.5652 10.8328 6.83454 12.0808 6.29628C13.3288 5.75761 14.6622 5.48828 16.0808 5.48828C17.4995 5.48828 18.8328 5.75761 20.0808 6.29628C21.3288 6.83454 22.4144 7.5652 23.3374 8.48828C24.2605 9.41136 24.9912 10.4969 25.5294 11.7449C26.0681 12.9929 26.3374 14.3262 26.3374 15.7449C26.3374 15.8987 26.3331 16.0526 26.3245 16.2064C26.3159 16.3603 26.303 16.5141 26.2858 16.668L24.6193 16.1554V15.7449C24.6193 13.3687 23.7902 11.3517 22.1319 9.69382C20.4741 8.03556 18.457 7.20644 16.0808 7.20644C13.7046 7.20644 11.6876 8.03556 10.0298 9.69382C8.3715 11.3517 7.54237 13.3687 7.54237 15.7449C7.54237 18.1211 8.3715 20.1381 10.0298 21.796C11.6876 23.4542 13.7046 24.2834 16.0808 24.2834H16.4913L17.0039 25.9498ZM24.8242 26.5141L20.4396 22.1295L19.1578 26.0015L16.0808 15.7449L26.3374 18.8218L22.4654 20.1037L26.8501 24.4883L24.8242 26.5141Z" fill="#A1B7FF"/>
</svg>
