
<svg width="40" height="41" viewBox="0 0 40 41" fill="none" xmlns="http://www.w3.org/2000/svg">
<path d="M23.3332 17.1422V14.3088C24.2498 13.9199 25.1876 13.6283 26.1465 13.4338C27.1043 13.2394 28.1109 13.1422 29.1665 13.1422C29.8887 13.1422 30.5971 13.1977 31.2915 13.3088C31.9859 13.4199 32.6665 13.5588 33.3332 13.7255V16.3922C32.6665 16.1422 31.9932 15.9549 31.3132 15.8305C30.6321 15.7049 29.9165 15.6422 29.1665 15.6422C28.1109 15.6422 27.0971 15.7744 26.1248 16.0388C25.1526 16.3022 24.2221 16.6699 23.3332 17.1422ZM23.3332 26.3088V23.4755C24.2498 23.0866 25.1876 22.7949 26.1465 22.6005C27.1043 22.4061 28.1109 22.3088 29.1665 22.3088C29.8887 22.3088 30.5971 22.3644 31.2915 22.4755C31.9859 22.5866 32.6665 22.7255 33.3332 22.8922V25.5588C32.6665 25.3088 31.9932 25.1216 31.3132 24.9972C30.6321 24.8716 29.9165 24.8088 29.1665 24.8088C28.1109 24.8088 27.0971 24.9338 26.1248 25.1838C25.1526 25.4338 24.2221 25.8088 23.3332 26.3088ZM23.3332 21.7255V18.8922C24.2498 18.5033 25.1876 18.2116 26.1465 18.0172C27.1043 17.8227 28.1109 17.7255 29.1665 17.7255C29.8887 17.7255 30.5971 17.7811 31.2915 17.8922C31.9859 18.0033 32.6665 18.1422 33.3332 18.3088V20.9755C32.6665 20.7255 31.9932 20.5383 31.3132 20.4138C30.6321 20.2883 29.9165 20.2255 29.1665 20.2255C28.1109 20.2255 27.0971 20.3577 26.1248 20.6222C25.1526 20.8855 24.2221 21.2533 23.3332 21.7255ZM10.8332 27.3088C12.1387 27.3088 13.4098 27.4544 14.6465 27.7455C15.8821 28.0377 17.1109 28.4755 18.3332 29.0588V12.6422C17.1943 11.9755 15.9859 11.4755 14.7082 11.1422C13.4304 10.8088 12.1387 10.6422 10.8332 10.6422C9.83317 10.6422 8.84039 10.7394 7.85484 10.9338C6.86817 11.1283 5.9165 11.4199 4.99984 11.8088V28.3088C5.97206 27.9755 6.93761 27.7255 7.8965 27.5588C8.85428 27.3922 9.83317 27.3088 10.8332 27.3088ZM21.6665 29.0588C22.8887 28.4755 24.1182 28.0377 25.3548 27.7455C26.5904 27.4544 27.8609 27.3088 29.1665 27.3088C30.1665 27.3088 31.1459 27.3922 32.1048 27.5588C33.0626 27.7255 34.0276 27.9755 34.9998 28.3088V11.8088C34.0832 11.4199 33.1321 11.1283 32.1465 10.9338C31.1598 10.7394 30.1665 10.6422 29.1665 10.6422C27.8609 10.6422 26.5693 10.8088 25.2915 11.1422C24.0137 11.4755 22.8054 11.9755 21.6665 12.6422V29.0588ZM19.9998 33.9755C18.6665 32.9199 17.2221 32.1005 15.6665 31.5172C14.1109 30.9338 12.4998 30.6422 10.8332 30.6422C9.6665 30.6422 8.52095 30.7949 7.3965 31.1005C6.27095 31.4061 5.19428 31.8366 4.1665 32.3922C3.58317 32.6977 3.02095 32.6838 2.47984 32.3505C1.93762 32.0172 1.6665 31.5311 1.6665 30.8922V10.8088C1.6665 10.5033 1.74317 10.2116 1.8965 9.93384C2.04873 9.65606 2.27761 9.44773 2.58317 9.30884C3.86095 8.64217 5.19428 8.14217 6.58317 7.80884C7.97206 7.4755 9.38873 7.30884 10.8332 7.30884C12.4443 7.30884 14.0209 7.51717 15.5632 7.93384C17.1043 8.3505 18.5832 8.9755 19.9998 9.80884C21.4165 8.9755 22.8959 8.3505 24.4382 7.93384C25.9793 7.51717 27.5554 7.30884 29.1665 7.30884C30.6109 7.30884 32.0276 7.4755 33.4165 7.80884C34.8054 8.14217 36.1387 8.64217 37.4165 9.30884C37.7221 9.44773 37.9515 9.65606 38.1048 9.93384C38.2571 10.2116 38.3332 10.5033 38.3332 10.8088V30.8922C38.3332 31.5311 38.0626 32.0172 37.5215 32.3505C36.9793 32.6838 36.4165 32.6977 35.8332 32.3922C34.8054 31.8366 33.7287 31.4061 32.6032 31.1005C31.4787 30.7949 30.3332 30.6422 29.1665 30.6422C27.4998 30.6422 25.8887 30.9338 24.3332 31.5172C22.7776 32.1005 21.3332 32.9199 19.9998 33.9755Z" fill="#A1B7FF"/>
</svg>
