<svg width="32" height="32" viewBox="0 0 32 32" fill="none" xmlns="http://www.w3.org/2000/svg">
<mask id="mask0_23086_99041" style="mask-type:alpha" maskUnits="userSpaceOnUse" x="3" y="2" width="26" height="25">
<path d="M3.69531 2.09375H28.3107V26.7091H3.69531V2.09375Z" fill="#D9D9D9"/>
</mask>
<g mask="url(#mask0_23086_99041)">
<path fill-rule="evenodd" clip-rule="evenodd" d="M6.25542 22.543C6.59716 22.8851 6.9988 23.0562 7.46034 23.0562H24.5373C24.9988 23.0562 25.4004 22.8851 25.7422 22.543C26.0843 22.2012 26.2554 21.7996 26.2554 21.338V9.38912C26.2554 8.92758 26.0843 8.52594 25.7422 8.1842C25.4004 7.84246 24.9988 7.67158 24.5373 7.67158H18.7939V4.26112C18.7939 3.79958 18.6271 3.39794 18.2936 3.0562C17.9604 2.71405 17.5631 2.54297 17.1016 2.54297H14.9219C14.4603 2.54297 14.0587 2.71405 13.717 3.0562C13.3748 3.39794 13.2037 3.79958 13.2037 4.26112V7.67158H7.46034C6.9988 7.67158 6.59716 7.84246 6.25542 8.1842C5.91326 8.52594 5.74219 8.92758 5.74219 9.38912V21.338C5.74219 21.7996 5.91326 22.2012 6.25542 22.543ZM24.5373 21.338H7.46034V9.38912H13.2037C13.2037 9.88512 13.3789 10.2913 13.7293 10.6076C14.08 10.9235 14.5032 11.0814 14.9988 11.0814H16.9988C17.5116 11.0814 17.9389 10.9235 18.2806 10.6076C18.6228 10.2913 18.7939 9.88512 18.7939 9.38912H24.5373V21.338ZM22.4603 17.1842H18.1785V15.7996H22.4603V17.1842ZM22.4603 14.21H18.1785V12.8507H22.4603V14.21ZM17.1016 9.38912H14.9219V4.26112H17.1016V9.38912ZM9.23017 12.8002V19.1078H16.6148V14.0813H13.1984V12.8002H9.23017ZM12.2819 18.0401H10.1466V13.7072H12.2819V18.0401ZM15.6983 18.1913H12.9225V14.9884H15.6983V18.1913ZM13.5631 16.2948V16.9353H15.0577V16.2948H13.5631Z" fill="#A1B7FF"/>
</g>
</svg>
