<svg width="43" height="39" viewBox="0 0 43 39" fill="none" xmlns="http://www.w3.org/2000/svg">
<path d="M20 26.8524H12.1355V19H7.85238V26.8524H0V31.1476H7.85238V39H12.1355V31.1476H20V26.8524Z" fill="#04B30B"/>
<path d="M43 30V0H26.627V6.792H9.67V16.375H12.4617V9.583H26.627V13.625H23.2934V16.375H26.627V20.417H23.2934V23.208H26.627V27.208H23.2934V30H43ZM40.2083 27.208H36.2088V23.208H40.2083V27.208ZM40.2083 20.417H36.2088V16.375H40.2083V20.417ZM40.2083 13.625H36.2088V9.583H40.2083V13.625ZM40.2083 6.792H36.2088V2.792H40.2083V6.792ZM33.4171 27.208H29.3766V23.208H33.4171V27.208ZM33.4171 20.417H29.3766V16.375H33.4171V20.417ZM33.4171 13.625H29.3766V9.583H33.4171V13.625ZM33.4171 6.792H29.3766V2.792H33.4171V6.792ZM19.2528 16.375V13.625H16.4612V16.375H19.2528ZM19.2528 23.208V20.417H16.4612V23.208H19.2528Z" fill="#A1B7FF"/>
</svg>
