<svg width="24" height="24" viewBox="0 0 24 24" fill="none" xmlns="http://www.w3.org/2000/svg">
<mask id="mask0_23019_93650" style="mask-type:alpha" maskUnits="userSpaceOnUse" x="0" y="0" width="24" height="24">
<rect width="24" height="24" fill="#D9D9D9"/>
</mask>
<g mask="url(#mask0_23019_93650)">
<path d="M14 20V18H17C17.2833 18 17.5207 17.904 17.712 17.712C17.904 17.5207 18 17.2833 18 17V15C18 14.3667 18.1833 13.7917 18.55 13.275C18.9167 12.7583 19.4 12.3917 20 12.175V11.825C19.4 11.6083 18.9167 11.2417 18.55 10.725C18.1833 10.2083 18 9.63333 18 9V7C18 6.71667 17.904 6.479 17.712 6.287C17.5207 6.09567 17.2833 6 17 6H14V4H17C17.8333 4 18.5417 4.29167 19.125 4.875C19.7083 5.45833 20 6.16667 20 7V9C20 9.28333 20.096 9.52067 20.288 9.712C20.4793 9.904 20.7167 10 21 10H22V14H21C20.7167 14 20.4793 14.0957 20.288 14.287C20.096 14.479 20 14.7167 20 15V17C20 17.8333 19.7083 18.5417 19.125 19.125C18.5417 19.7083 17.8333 20 17 20H14ZM7 20C6.16667 20 5.45833 19.7083 4.875 19.125C4.29167 18.5417 4 17.8333 4 17V15C4 14.7167 3.90433 14.479 3.713 14.287C3.521 14.0957 3.28333 14 3 14H2V10H3C3.28333 10 3.521 9.904 3.713 9.712C3.90433 9.52067 4 9.28333 4 9V7C4 6.16667 4.29167 5.45833 4.875 4.875C5.45833 4.29167 6.16667 4 7 4H10V6H7C6.71667 6 6.479 6.09567 6.287 6.287C6.09567 6.479 6 6.71667 6 7V9C6 9.63333 5.81667 10.2083 5.45 10.725C5.08333 11.2417 4.6 11.6083 4 11.825V12.175C4.6 12.3917 5.08333 12.7583 5.45 13.275C5.81667 13.7917 6 14.3667 6 15V17C6 17.2833 6.09567 17.5207 6.287 17.712C6.479 17.904 6.71667 18 7 18H10V20H7Z" fill="#737374"/>
</g>
</svg>
