
<svg width="40" height="40" viewBox="0 0 40 40" fill="none" xmlns="http://www.w3.org/2000/svg">
<g clip-path="url(#clip0_1547_56391)">
<path d="M5.00033 6.66663C5.00033 5.74996 5.75033 4.99996 6.66699 4.99996H10.0003V1.66663H6.66699C3.90033 1.66663 1.66699 3.89996 1.66699 6.66663V9.99996H5.00033V6.66663Z" fill="#A1B7FF"/>
<path d="M5.00033 33.3333V30H1.66699V33.3333C1.66699 36.1 3.90033 38.3333 6.66699 38.3333H10.0003V35H6.66699C5.75033 35 5.00033 34.25 5.00033 33.3333Z" fill="#A1B7FF"/>
<path d="M33.3333 1.66663H30V4.99996H33.3333C34.25 4.99996 35 5.74996 35 6.66663V9.99996H38.3333V6.66663C38.3333 3.89996 36.1 1.66663 33.3333 1.66663Z" fill="#A1B7FF"/>
<path d="M35 33.3333C35 34.25 34.25 35 33.3333 35H30V38.3333H33.3333C36.1 38.3333 38.3333 36.1 38.3333 33.3333V30H35V33.3333Z" fill="#A1B7FF"/>
<path d="M31.6673 24.7833V15.2166C31.6673 14.0166 31.034 12.9166 30.0007 12.3333L21.6673 7.53325C21.1507 7.23325 20.584 7.08325 20.0007 7.08325C19.4173 7.08325 18.8507 7.23325 18.334 7.53325L10.0007 12.3166C8.96732 12.9166 8.33398 14.0166 8.33398 15.2166V24.7833C8.33398 25.9833 8.96732 27.0833 10.0007 27.6666L18.334 32.4666C18.8507 32.7666 19.4173 32.9166 20.0007 32.9166C20.584 32.9166 21.1507 32.7666 21.6673 32.4666L30.0007 27.6666C31.034 27.0833 31.6673 25.9833 31.6673 24.7833ZM18.334 28.6166L11.6673 24.7833V17.0666L18.334 20.9499V28.6166ZM20.0007 18.0666L13.4007 14.2166L20.0007 10.4166L26.6007 14.2166L20.0007 18.0666ZM28.334 24.7833L21.6673 28.6166V20.9499L28.334 17.0666V24.7833Z" fill="#A1B7FF"/>
</g>
<defs>
<clipPath id="clip0_1547_56391">
<rect width="40" height="40" fill="white"/>
</clipPath>
</defs>
</svg>
