<svg width="122" height="35" viewBox="0 0 122 35" fill="none" xmlns="http://www.w3.org/2000/svg">
<path d="M8.556 13.568C8.556 14.256 8.428 14.848 8.172 15.344C7.916 15.848 7.552 16.232 7.08 16.496C6.616 16.768 6.068 16.904 5.436 16.904H3.888L3.78 15.608H5.472C6.04 15.608 6.488 15.464 6.816 15.176C7.144 14.888 7.312 14.496 7.32 14H6.288C5.44 14 4.832 13.828 4.464 13.484C4.096 13.132 3.912 12.584 3.912 11.84C3.912 11.328 4.008 10.876 4.2 10.484C4.4 10.092 4.676 9.788 5.028 9.572C5.388 9.348 5.8 9.236 6.264 9.236C6.976 9.236 7.536 9.476 7.944 9.956C8.352 10.428 8.556 11.076 8.556 11.9V13.568ZM5.16 11.78C5.16 12.116 5.248 12.356 5.424 12.5C5.6 12.636 5.908 12.704 6.348 12.704H7.32V11.924C7.32 11.452 7.224 11.096 7.032 10.856C6.84 10.608 6.564 10.484 6.204 10.484C5.876 10.484 5.62 10.604 5.436 10.844C5.252 11.076 5.16 11.388 5.16 11.78ZM14.9395 10.748C15.7635 9.564 16.6475 8.972 17.5915 8.972C18.0315 8.972 18.4275 9.08 18.7795 9.296C19.1315 9.504 19.4035 9.8 19.5955 10.184C19.7955 10.56 19.8955 10.992 19.8955 11.48C19.8955 12.24 19.6595 12.852 19.1875 13.316C18.7235 13.772 18.0955 14 17.3035 14H12.8515L12.7315 12.704H13.6915V6.248H14.9395V10.748ZM17.3035 12.704C17.7275 12.704 18.0555 12.596 18.2875 12.38C18.5275 12.164 18.6475 11.864 18.6475 11.48C18.6475 11.104 18.5395 10.8 18.3235 10.568C18.1075 10.336 17.8275 10.22 17.4835 10.22C17.0915 10.22 16.6875 10.42 16.2715 10.82C15.8555 11.22 15.3795 11.848 14.8435 12.704H17.3035ZM23.9253 12.704C23.9653 12.704 23.9933 12.748 24.0093 12.836C24.0333 12.924 24.0453 13.104 24.0453 13.376C24.0453 13.632 24.0333 13.8 24.0093 13.88C23.9933 13.96 23.9653 14 23.9253 14H23.5653C22.9253 14 22.4413 13.812 22.1133 13.436C21.7853 13.06 21.6213 12.528 21.6213 11.84V6.248H22.8573V11.756C22.8573 12.084 22.9173 12.324 23.0373 12.476C23.1653 12.628 23.3653 12.704 23.6373 12.704H23.9253ZM25.5495 12.704C25.6295 12.704 25.6695 12.928 25.6695 13.376C25.6695 13.648 25.6575 13.82 25.6335 13.892C25.6095 13.964 25.5815 14 25.5495 14H23.7495C23.6695 14 23.6295 13.792 23.6295 13.376C23.6295 12.928 23.6695 12.704 23.7495 12.704H25.5495ZM27.1741 12.704C27.2541 12.704 27.2941 12.928 27.2941 13.376C27.2941 13.648 27.2821 13.82 27.2581 13.892C27.2341 13.964 27.2061 14 27.1741 14H25.3741C25.2941 14 25.2541 13.792 25.2541 13.376C25.2541 12.928 25.2941 12.704 25.3741 12.704H27.1741ZM28.4388 12.704C28.6948 12.704 28.8988 12.64 29.0508 12.512C29.2108 12.376 29.2908 12.188 29.2908 11.948V10.016H30.5388V11.9C30.5388 12.436 30.8148 12.704 31.3668 12.704H31.7748C31.8548 12.704 31.8948 12.924 31.8948 13.364C31.8948 13.788 31.8548 14 31.7748 14H31.3188C30.6068 14 30.1348 13.784 29.9028 13.352C29.6228 13.784 29.1348 14 28.4388 14H26.9988C26.9188 14 26.8788 13.792 26.8788 13.376C26.8788 12.928 26.9188 12.704 26.9988 12.704H28.4388ZM27.5028 16.58V15.404H28.9428V16.58H27.5028ZM34.9001 11.984C34.9001 12.616 34.7121 13.112 34.3361 13.472C33.9601 13.824 33.4561 14 32.8241 14H31.6001C31.5201 14 31.4801 13.792 31.4801 13.376C31.4801 12.928 31.5201 12.704 31.6001 12.704H32.8241C33.0721 12.704 33.2721 12.64 33.4241 12.512C33.5761 12.376 33.6521 12.188 33.6521 11.948V10.016H34.9001V11.984ZM35.2241 7.496V8.648H31.9601V7.496H35.2241ZM38.4054 13.616C38.4054 14.28 38.2734 14.86 38.0094 15.356C37.7454 15.852 37.3694 16.232 36.8814 16.496C36.4014 16.768 35.8414 16.904 35.2014 16.904H34.3014L34.1934 15.608H35.1894C35.8054 15.608 36.2854 15.432 36.6294 15.08C36.9814 14.736 37.1574 14.248 37.1574 13.616V10.016H38.4054V13.616ZM40.1351 6.248H41.3711V14H40.1351V6.248ZM48.6828 11.3C48.6828 10.868 48.7868 10.536 48.9948 10.304H48.5268C48.1188 10.304 47.8068 10.412 47.5908 10.628C47.3748 10.836 47.2668 11.132 47.2668 11.516V16.904H46.0308V11.516C46.0308 10.764 46.2588 10.168 46.7148 9.728C47.1788 9.28 47.8028 9.056 48.5868 9.056H51.1068C51.8348 9.056 52.3788 9.236 52.7388 9.596C53.1068 9.948 53.2908 10.456 53.2908 11.12V11.852C53.2908 12.548 53.0908 13.08 52.6908 13.448C52.2908 13.816 51.7108 14 50.9508 14C50.2068 14 49.6428 13.824 49.2588 13.472C48.8748 13.112 48.6828 12.616 48.6828 11.984V11.3ZM51.0108 12.704C51.3468 12.704 51.6028 12.636 51.7788 12.5C51.9548 12.364 52.0428 12.136 52.0428 11.816V11.228C52.0428 10.932 51.9588 10.704 51.7908 10.544C51.6308 10.384 51.4028 10.304 51.1068 10.304H50.8068C50.5188 10.304 50.2988 10.392 50.1468 10.568C50.0028 10.736 49.9308 10.96 49.9308 11.24V11.744C49.9308 12.096 50.0148 12.344 50.1828 12.488C50.3588 12.632 50.6348 12.704 51.0108 12.704ZM56.8111 11.864C56.8111 12.424 57.1151 12.704 57.7231 12.704H57.8911C57.9711 12.704 58.0111 12.928 58.0111 13.376C58.0111 13.792 57.9711 14 57.8911 14H57.7231C57.5231 14 57.3391 13.972 57.1711 13.916C57.0111 13.852 56.8911 13.768 56.8111 13.664V13.736C56.7951 14.36 56.6511 14.912 56.3791 15.392C56.1151 15.872 55.7431 16.244 55.2631 16.508C54.7911 16.772 54.2391 16.904 53.6071 16.904H52.7071L52.5991 15.608H53.5951C54.2111 15.608 54.6911 15.432 55.0351 15.08C55.3871 14.736 55.5631 14.248 55.5631 13.616V10.016H56.8111V11.864ZM59.3283 12.704C59.1283 12.544 58.9683 12.332 58.8483 12.068C58.7283 11.796 58.6683 11.52 58.6683 11.24C58.6683 10.808 58.7723 10.412 58.9803 10.052C59.1883 9.692 59.4723 9.408 59.8323 9.2C60.1923 8.992 60.5923 8.888 61.0323 8.888C61.4883 8.888 61.8923 8.984 62.2443 9.176C62.6043 9.368 62.8803 9.64 63.0723 9.992C63.2723 10.336 63.3723 10.732 63.3723 11.18C63.3723 11.82 63.1363 12.328 62.6643 12.704H64.3443C64.4243 12.704 64.4643 12.928 64.4643 13.376C64.4643 13.792 64.4243 14 64.3443 14H62.7363C62.2563 14 61.8883 13.984 61.6323 13.952C61.3843 13.92 61.1883 13.864 61.0443 13.784C60.8923 13.864 60.6803 13.92 60.4083 13.952C60.1443 13.984 59.7843 14 59.3283 14H57.7083C57.6283 14 57.5883 13.792 57.5883 13.376C57.5883 12.928 57.6283 12.704 57.7083 12.704H59.3283ZM61.0323 10.136C60.6963 10.136 60.4243 10.24 60.2163 10.448C60.0163 10.656 59.9163 10.92 59.9163 11.24C59.9163 11.536 60.0123 11.812 60.2043 12.068C60.4043 12.324 60.6803 12.532 61.0323 12.692C61.3923 12.532 61.6643 12.324 61.8483 12.068C62.0403 11.804 62.1363 11.528 62.1363 11.24C62.1363 10.896 62.0363 10.628 61.8363 10.436C61.6443 10.236 61.3763 10.136 61.0323 10.136ZM60.3123 7.568V6.392H61.7523V7.568H60.3123ZM65.9611 12.704C66.0411 12.704 66.0811 12.928 66.0811 13.376C66.0811 13.648 66.0691 13.82 66.0451 13.892C66.0211 13.964 65.9931 14 65.9611 14H64.1611C64.0811 14 64.0411 13.792 64.0411 13.376C64.0411 12.928 64.0811 12.704 64.1611 12.704H65.9611ZM67.2258 12.704C67.4818 12.704 67.6858 12.64 67.8378 12.512C67.9978 12.376 68.0778 12.188 68.0778 11.948V10.016H69.3258V11.9C69.3258 12.436 69.6018 12.704 70.1538 12.704H70.5618C70.6418 12.704 70.6818 12.924 70.6818 13.364C70.6818 13.788 70.6418 14 70.5618 14H70.1058C69.3938 14 68.9218 13.784 68.6898 13.352C68.4098 13.784 67.9218 14 67.2258 14H65.7858C65.7058 14 65.6658 13.792 65.6658 13.376C65.6658 12.928 65.7058 12.704 65.7858 12.704H67.2258ZM69.4578 7.496V8.648H66.1938V7.496H69.4578ZM70.783 12.704C71.031 12.704 71.231 12.64 71.383 12.512C71.535 12.376 71.611 12.188 71.611 11.948V6.248H72.859V11.888C72.859 12.16 72.931 12.364 73.075 12.5C73.219 12.636 73.419 12.704 73.675 12.704H73.999C74.079 12.704 74.119 12.924 74.119 13.364C74.119 13.788 74.079 14 73.999 14H73.615C73.271 14 72.979 13.944 72.739 13.832C72.507 13.72 72.339 13.556 72.235 13.34C71.947 13.78 71.463 14 70.783 14H70.387C70.307 14 70.267 13.792 70.267 13.376C70.267 12.928 70.307 12.704 70.387 12.704H70.783ZM77.1164 11.984C77.1164 12.616 76.9284 13.112 76.5524 13.472C76.1764 13.824 75.6724 14 75.0404 14H73.8164C73.7364 14 73.6964 13.792 73.6964 13.376C73.6964 12.928 73.7364 12.704 73.8164 12.704H75.0404C75.2884 12.704 75.4884 12.64 75.6404 12.512C75.7924 12.376 75.8684 12.188 75.8684 11.948V10.016H77.1164V11.984ZM76.4084 15.404V16.556H73.1444V15.404H76.4084ZM74.1764 18.32V17.204H75.3764V18.32H74.1764ZM7.56994 28.704C7.60994 28.704 7.63794 28.748 7.65394 28.836C7.67794 28.924 7.68994 29.104 7.68994 29.376C7.68994 29.632 7.67794 29.8 7.65394 29.88C7.63794 29.96 7.60994 30 7.56994 30H7.20994C6.56994 30 6.08594 29.812 5.75794 29.436C5.42994 29.06 5.26594 28.528 5.26594 27.84V22.248H6.50194V27.756C6.50194 28.084 6.56194 28.324 6.68194 28.476C6.80994 28.628 7.00994 28.704 7.28194 28.704H7.56994ZM8.96607 28.704C8.78207 28.536 8.63407 28.324 8.52207 28.068C8.41007 27.812 8.35407 27.552 8.35407 27.288C8.35407 26.84 8.45807 26.44 8.66607 26.088C8.87407 25.728 9.15807 25.448 9.51807 25.248C9.87807 25.04 10.2821 24.936 10.7301 24.936C11.1541 24.936 11.5341 25.036 11.8701 25.236C12.2141 25.436 12.4821 25.708 12.6741 26.052C12.8741 26.388 12.9741 26.764 12.9741 27.18C12.9741 27.484 12.9021 27.772 12.7581 28.044C12.6221 28.316 12.4341 28.536 12.1941 28.704H13.6581C13.9541 28.704 14.1781 28.652 14.3301 28.548C14.4821 28.444 14.5581 28.296 14.5581 28.104C14.5581 27.96 14.5221 27.824 14.4501 27.696C14.3861 27.56 14.2541 27.392 14.0541 27.192L11.6781 24.684L12.5661 23.76L15.0021 26.376C15.2821 26.672 15.4861 26.964 15.6141 27.252C15.7421 27.54 15.8061 27.836 15.8061 28.14C15.8061 28.7 15.6141 29.152 15.2301 29.496C14.8461 29.832 14.3221 30 13.6581 30H12.3141C11.7941 30 11.4181 29.988 11.1861 29.964C10.9621 29.932 10.7781 29.872 10.6341 29.784C10.4901 29.864 10.2861 29.92 10.0221 29.952C9.76607 29.984 9.39807 30 8.91807 30H7.39407C7.31407 30 7.27407 29.792 7.27407 29.376C7.27407 28.928 7.31407 28.704 7.39407 28.704H8.96607ZM10.6101 28.692C10.9861 28.532 11.2741 28.332 11.4741 28.092C11.6741 27.852 11.7741 27.584 11.7741 27.288C11.7741 26.96 11.6741 26.696 11.4741 26.496C11.2741 26.288 11.0061 26.184 10.6701 26.184C10.3341 26.184 10.0621 26.288 9.85407 26.496C9.65407 26.696 9.55407 26.96 9.55407 27.288C9.55407 27.896 9.90607 28.364 10.6101 28.692ZM23.5268 28.704C23.7828 28.704 23.9868 28.64 24.1388 28.512C24.2988 28.376 24.3788 28.192 24.3788 27.96V26.016H25.6268V27.9C25.6268 28.436 25.9028 28.704 26.4548 28.704H26.8628C26.9428 28.704 26.9828 28.928 26.9828 29.376C26.9828 29.792 26.9428 30 26.8628 30H26.4068C25.6948 30 25.2228 29.784 24.9908 29.352C24.7108 29.784 24.2228 30 23.5268 30H19.4108C18.6988 30 18.1588 29.816 17.7908 29.448C17.4228 29.072 17.2388 28.544 17.2388 27.864V26.016H18.4748V27.696C18.4748 28.032 18.5548 28.284 18.7148 28.452C18.8748 28.62 19.1268 28.704 19.4708 28.704H23.5268ZM23.0588 23.952V25.104H19.7948V23.952H23.0588ZM29.9582 28.704C30.2622 28.704 30.4982 28.652 30.6662 28.548C30.8342 28.436 30.9182 28.288 30.9182 28.104C30.9182 27.952 30.8822 27.812 30.8102 27.684C30.7382 27.556 30.6222 27.408 30.4622 27.24L27.7502 24.564V23.52L32.1902 21.78L32.5622 22.968L29.2382 24.24L31.3982 26.424C31.9022 26.92 32.1542 27.492 32.1542 28.14C32.1542 28.692 31.9622 29.14 31.5782 29.484C31.1942 29.828 30.6542 30 29.9582 30H26.6822C26.6022 30 26.5622 29.792 26.5622 29.376C26.5622 28.928 26.6022 28.704 26.6822 28.704H29.9582ZM35.8898 27.864C35.8898 28.424 36.1938 28.704 36.8018 28.704H36.9698C37.0498 28.704 37.0898 28.928 37.0898 29.376C37.0898 29.792 37.0498 30 36.9698 30H36.8018C36.6018 30 36.4178 29.972 36.2498 29.916C36.0898 29.852 35.9698 29.768 35.8898 29.664V29.736C35.8738 30.36 35.7298 30.912 35.4578 31.392C35.1938 31.872 34.8218 32.244 34.3418 32.508C33.8698 32.772 33.3178 32.904 32.6858 32.904H31.7858L31.6778 31.608H32.6738C33.2898 31.608 33.7698 31.432 34.1138 31.08C34.4658 30.736 34.6418 30.248 34.6418 29.616V26.016H35.8898V27.864ZM37.735 28.704C38.063 28.704 38.311 28.632 38.479 28.488C38.647 28.336 38.731 28.124 38.731 27.852V26.016H39.979V27.852C39.979 28.42 40.303 28.704 40.951 28.704C41.279 28.704 41.527 28.632 41.695 28.488C41.863 28.336 41.947 28.124 41.947 27.852V26.016H43.195V27.852C43.195 28.124 43.271 28.336 43.423 28.488C43.575 28.632 43.803 28.704 44.107 28.704C44.419 28.704 44.651 28.632 44.803 28.488C44.963 28.336 45.043 28.124 45.043 27.852V26.016H46.279V27.84C46.279 28.52 46.087 29.052 45.703 29.436C45.319 29.812 44.787 30 44.107 30C43.291 30 42.763 29.768 42.523 29.304C42.211 29.768 41.687 30 40.951 30C40.503 30 40.147 29.944 39.883 29.832C39.619 29.712 39.427 29.536 39.307 29.304C38.995 29.768 38.471 30 37.735 30H36.787C36.707 30 36.667 29.792 36.667 29.376C36.667 28.928 36.707 28.704 36.787 28.704H37.735ZM43.159 21.732V22.848H41.899V21.732H43.159ZM44.155 23.496V24.648H40.891V23.496H44.155ZM53.7261 32.904C52.7021 32.904 51.9141 32.608 51.3621 32.016C50.8101 31.432 50.5341 30.608 50.5341 29.544V27.216H51.7701V29.52C51.7701 30.912 52.4261 31.608 53.7381 31.608H54.2301C54.8701 31.608 55.3741 31.432 55.7421 31.08C56.1101 30.728 56.2941 30.244 56.2941 29.628V22.248H57.5421V27.96C57.5421 28.192 57.6101 28.376 57.7461 28.512C57.8901 28.64 58.0941 28.704 58.3581 28.704H58.6341C58.7141 28.704 58.7541 28.928 58.7541 29.376C58.7541 29.792 58.7141 30 58.6341 30H58.4061C58.2221 30 58.0501 29.976 57.8901 29.928C57.7381 29.88 57.6221 29.82 57.5421 29.748V29.808C57.5261 30.408 57.3781 30.944 57.0981 31.416C56.8181 31.888 56.4301 32.252 55.9341 32.508C55.4381 32.772 54.8701 32.904 54.2301 32.904H53.7261ZM59.8941 28.704C60.1501 28.704 60.3541 28.64 60.5061 28.512C60.6661 28.376 60.7461 28.188 60.7461 27.948V26.016H61.9941V27.9C61.9941 28.436 62.2701 28.704 62.8221 28.704H63.2301C63.3101 28.704 63.3501 28.924 63.3501 29.364C63.3501 29.788 63.3101 30 63.2301 30H62.7741C62.0621 30 61.5901 29.784 61.3581 29.352C61.0781 29.784 60.5901 30 59.8941 30H58.4541C58.3741 30 58.3341 29.792 58.3341 29.376C58.3341 28.928 58.3741 28.704 58.4541 28.704H59.8941ZM60.9501 31.404V32.556H57.6861V31.404H60.9501ZM63.4513 28.704C63.6993 28.704 63.8993 28.64 64.0513 28.512C64.2033 28.376 64.2793 28.188 64.2793 27.948V22.248H65.5273V27.888C65.5273 28.16 65.5993 28.364 65.7433 28.5C65.8873 28.636 66.0873 28.704 66.3433 28.704H66.6673C66.7473 28.704 66.7873 28.924 66.7873 29.364C66.7873 29.788 66.7473 30 66.6673 30H66.2833C65.9393 30 65.6473 29.944 65.4073 29.832C65.1753 29.72 65.0073 29.556 64.9033 29.34C64.6153 29.78 64.1313 30 63.4513 30H63.0553C62.9753 30 62.9353 29.792 62.9353 29.376C62.9353 28.928 62.9753 28.704 63.0553 28.704H63.4513ZM70.4927 24.936C70.9887 24.936 71.3927 25.02 71.7047 25.188C72.0167 25.348 72.2767 25.62 72.4847 26.004C72.6927 26.388 72.8767 26.928 73.0367 27.624L72.1847 28.152C72.2887 28.352 72.4207 28.496 72.5807 28.584C72.7487 28.664 72.9727 28.704 73.2527 28.704H73.9967C74.0767 28.704 74.1167 28.928 74.1167 29.376C74.1167 29.648 74.1047 29.82 74.0807 29.892C74.0567 29.964 74.0287 30 73.9967 30H73.2047C72.7407 30 72.3607 29.908 72.0647 29.724C71.7767 29.532 71.5127 29.2 71.2727 28.728L70.6487 29.124C70.1127 29.46 69.5967 29.692 69.1007 29.82C68.6127 29.94 68.0087 30 67.2887 30H66.4847C66.4047 30 66.3647 29.792 66.3647 29.376C66.3647 28.928 66.4047 28.704 66.4847 28.704H67.3487C67.9567 28.704 68.4567 28.66 68.8487 28.572C69.2487 28.484 69.6567 28.32 70.0727 28.08L71.5847 27.216C71.4807 26.84 71.3327 26.584 71.1407 26.448C70.9487 26.304 70.6607 26.232 70.2767 26.232H67.5047L67.6607 24.936H70.4927ZM77.1164 27.984C77.1164 28.616 76.9284 29.112 76.5524 29.472C76.1764 29.824 75.6724 30 75.0404 30H73.8164C73.7364 30 73.6964 29.792 73.6964 29.376C73.6964 28.928 73.7364 28.704 73.8164 28.704H75.0404C75.2884 28.704 75.4884 28.64 75.6404 28.512C75.7924 28.376 75.8684 28.188 75.8684 27.948V26.016H77.1164V27.984ZM77.4404 23.496V24.648H74.1764V23.496H77.4404Z" fill="#0D72FF"/>
<path d="M97.4613 26.8131L102.437 29.7536C102.526 29.8158 102.599 29.8985 102.65 29.9948C102.7 30.0911 102.726 30.1981 102.726 30.3067C102.726 30.4153 102.7 30.5222 102.65 30.6185C102.599 30.7148 102.526 30.7975 102.437 30.8597L97.2655 33.9014C97.1644 33.9649 97.0474 33.9985 96.9279 33.9985C96.8085 33.9985 96.6915 33.9649 96.5904 33.9014L91.6481 30.9676C91.559 30.9055 91.4862 30.8227 91.4359 30.7264C91.3856 30.6301 91.3594 30.5232 91.3594 30.4146C91.3594 30.306 91.3856 30.199 91.4359 30.1027C91.4862 30.0064 91.559 29.9237 91.6481 29.8615L96.7997 26.8131C96.9007 26.7564 97.0146 26.7266 97.1305 26.7266C97.2464 26.7266 97.3603 26.7564 97.4613 26.8131Z" fill="#E8422C"/>
<path d="M109.59 6.66187V18.8017C109.587 18.9129 109.556 19.0216 109.501 19.1181C109.445 19.2145 109.367 19.2959 109.273 19.3548L104.371 22.2683C104.282 22.3305 104.209 22.4132 104.159 22.5095C104.108 22.6058 104.082 22.7128 104.082 22.8214C104.082 22.93 104.108 23.0369 104.159 23.1332C104.209 23.2295 104.282 23.3122 104.371 23.3744L109.381 26.3352C109.482 26.3986 109.599 26.4323 109.718 26.4323C109.838 26.4323 109.955 26.3986 110.056 26.3352L115.68 23.0035C115.774 22.9446 115.853 22.8632 115.908 22.7668C115.963 22.6703 115.994 22.5616 115.997 22.4504V9.63613C115.994 9.52496 115.963 9.41629 115.908 9.3198C115.853 9.22331 115.774 9.14199 115.68 9.08309L110.562 6.10883C110.463 6.05997 110.354 6.03611 110.243 6.03935C110.133 6.0426 110.025 6.07284 109.929 6.12742C109.833 6.18201 109.752 6.25928 109.693 6.35246C109.634 6.44564 109.598 6.55188 109.59 6.66187Z" fill="#0D72FF"/>
<path d="M95.3871 25.2487V12.5423C95.3903 12.4311 95.4209 12.3225 95.4762 12.226C95.5316 12.1295 95.61 12.0482 95.7044 11.9893L100.768 8.99476C100.867 8.94589 100.977 8.92204 101.087 8.92528C101.198 8.92852 101.305 8.95876 101.401 9.01335C101.497 9.06794 101.578 9.14521 101.638 9.23839C101.697 9.33156 101.732 9.4378 101.74 9.5478V20.7232C101.749 20.8332 101.784 20.9394 101.843 21.0326C101.903 21.1258 101.984 21.2031 102.08 21.2577C102.176 21.3122 102.283 21.3425 102.394 21.3457C102.504 21.349 102.614 21.3251 102.713 21.2763L107.817 18.2548C107.913 18.1979 107.992 18.1169 108.046 18.0198C108.101 17.9228 108.129 17.813 108.128 17.7017V5.01558C108.125 4.90503 108.096 4.79677 108.041 4.70033C107.987 4.60389 107.91 4.52223 107.817 4.46254L102.071 1.09036C101.969 1.03116 101.852 1 101.734 1C101.615 1 101.499 1.03116 101.396 1.09036L89.3173 8.19218C89.2229 8.25108 89.1445 8.33239 89.0891 8.42888C89.0338 8.52537 89.0031 8.63404 89 8.74522V28.2567C89.0085 28.3667 89.0438 28.4729 89.1029 28.5661C89.162 28.6593 89.2431 28.7365 89.3391 28.7911C89.4351 28.8457 89.543 28.8759 89.6533 28.8792C89.7637 28.8824 89.8732 28.8586 89.9722 28.8097L95.0765 25.768C95.1652 25.7116 95.2395 25.6352 95.2934 25.5451C95.3473 25.4549 95.3794 25.3534 95.3871 25.2487Z" fill="#0D72FF"/>
</svg>
