
<svg width="40" height="40" viewBox="0 0 40 40" fill="none" xmlns="http://www.w3.org/2000/svg">
<g clip-path="url(#clip0_1547_56544)">
<path d="M20.0003 9.99996C26.317 9.99996 31.9503 13.55 34.7003 19.1666C31.9503 24.7833 26.317 28.3333 20.0003 28.3333C13.6837 28.3333 8.05032 24.7833 5.30033 19.1666C8.05032 13.55 13.6837 9.99996 20.0003 9.99996ZM20.0003 6.66663C11.667 6.66663 4.55033 11.85 1.66699 19.1666C4.55033 26.4833 11.667 31.6666 20.0003 31.6666C28.3337 31.6666 35.4503 26.4833 38.3337 19.1666C35.4503 11.85 28.3337 6.66663 20.0003 6.66663ZM20.0003 15C22.3003 15 24.167 16.8666 24.167 19.1666C24.167 21.4666 22.3003 23.3333 20.0003 23.3333C17.7003 23.3333 15.8337 21.4666 15.8337 19.1666C15.8337 16.8666 17.7003 15 20.0003 15ZM20.0003 11.6666C15.867 11.6666 12.5003 15.0333 12.5003 19.1666C12.5003 23.3 15.867 26.6666 20.0003 26.6666C24.1337 26.6666 27.5003 23.3 27.5003 19.1666C27.5003 15.0333 24.1337 11.6666 20.0003 11.6666Z" fill="#A1B7FF"/>
</g>
<defs>
<clipPath id="clip0_1547_56544">
<rect width="40" height="40" fill="white"/>
</clipPath>
</defs>
</svg>
