<svg width="33" height="32" viewBox="0 0 33 32" fill="none" xmlns="http://www.w3.org/2000/svg">
<path d="M10.0823 26.9958C9.26181 26.9958 8.5611 26.7053 7.98017 26.1244C7.39884 25.5431 7.10817 24.8421 7.10817 24.0216C7.10817 23.2011 7.39884 22.5002 7.98017 21.9189C8.5611 21.3379 9.26181 21.0475 10.0823 21.0475C10.3219 21.0475 10.5357 21.0688 10.7236 21.1115C10.9115 21.1541 11.0996 21.2181 11.2879 21.3035L13.2362 18.8936C12.8604 18.4489 12.5826 17.9488 12.4029 17.3933C12.2237 16.8378 12.1767 16.2694 12.262 15.6881L9.51863 14.7398C9.24499 15.1669 8.89443 15.5043 8.46694 15.7521C8.03987 16.0003 7.55269 16.1244 7.0054 16.1244C6.18489 16.1244 5.48417 15.8337 4.90325 15.2524C4.32192 14.6711 4.03125 13.9701 4.03125 13.1496C4.03125 12.3291 4.32192 11.6284 4.90325 11.0475C5.48417 10.4661 6.18489 10.1755 7.0054 10.1755C7.82592 10.1755 8.52684 10.4661 9.10817 11.0475C9.68951 11.6284 9.98017 12.3291 9.98017 13.1496V13.2783L12.7494 14.2524C13.0739 13.6711 13.4756 13.2138 13.9543 12.8807C14.4331 12.5472 14.9716 12.3207 15.5697 12.2013V9.2524C14.903 9.06451 14.3689 8.69692 13.9672 8.14963C13.5656 7.60276 13.3648 7.01302 13.3648 6.3804C13.3648 5.55989 13.6552 4.85917 14.2362 4.27825C14.8175 3.69692 15.5184 3.40625 16.3389 3.40625C17.1595 3.40625 17.8604 3.69692 18.4417 4.27825C19.0226 4.85917 19.3131 5.55989 19.3131 6.3804C19.3131 7.01302 19.108 7.60276 18.6977 8.14963C18.2875 8.69692 17.7576 9.06451 17.1082 9.2524V12.2013C17.7063 12.3207 18.2491 12.5472 18.7365 12.8807C19.2235 13.2138 19.6208 13.6711 19.9285 14.2524L22.6977 13.2783V13.1496C22.6977 12.3291 22.9884 11.6284 23.5697 11.0475C24.151 10.4661 24.852 10.1755 25.6725 10.1755C26.493 10.1755 27.1937 10.4661 27.7746 11.0475C28.356 11.6284 28.6466 12.3291 28.6466 13.1496C28.6466 13.9701 28.356 14.6711 27.7746 15.2524C27.1937 15.8337 26.493 16.1244 25.6725 16.1244C25.1252 16.1244 24.6337 16.0003 24.198 15.7521C23.7619 15.5043 23.4157 15.1669 23.1592 14.7398L20.4159 15.6881C20.5012 16.2694 20.4585 16.8378 20.2879 17.3933C20.1168 17.9488 19.8347 18.4489 19.4417 18.8936L21.39 21.3035C21.5783 21.2181 21.7664 21.1541 21.9543 21.1115C22.1422 21.0688 22.356 21.0475 22.5956 21.0475C23.4329 21.0475 24.1379 21.3379 24.7106 21.9189C25.2834 22.5002 25.5697 23.2011 25.5697 24.0216C25.5697 24.8421 25.279 25.5431 24.6977 26.1244C24.1168 26.7053 23.4161 26.9958 22.5956 26.9958C21.775 26.9958 21.0741 26.7053 20.4928 26.1244C19.9115 25.5431 19.6208 24.8421 19.6208 24.0216C19.6208 23.6799 19.6721 23.3636 19.7746 23.0727C19.8772 22.7823 20.014 22.5088 20.1851 22.2524L18.2362 19.8419C17.638 20.1669 17.0013 20.3293 16.326 20.3293C15.6507 20.3293 15.014 20.1669 14.4159 19.8419L12.4928 22.2783C12.6639 22.5347 12.8007 22.8038 12.9032 23.0856C13.0058 23.3679 13.0571 23.6799 13.0571 24.0216C13.0571 24.8421 12.7664 25.5431 12.1851 26.1244C11.6038 26.7053 10.9028 26.9958 10.0823 26.9958ZM7.0054 14.4063C7.36438 14.4063 7.66366 14.2867 7.90325 14.0475C8.14243 13.8079 8.26202 13.5086 8.26202 13.1496C8.26202 12.7907 8.14243 12.4916 7.90325 12.2524C7.66366 12.0132 7.36438 11.8936 7.0054 11.8936C6.64643 11.8936 6.34735 12.0132 6.10817 12.2524C5.86899 12.4916 5.7494 12.7907 5.7494 13.1496C5.7494 13.5086 5.86899 13.8079 6.10817 14.0475C6.34735 14.2867 6.64643 14.4063 7.0054 14.4063ZM10.0823 25.2783C10.4413 25.2783 10.7406 25.1585 10.9802 24.9189C11.2194 24.6797 11.3389 24.3806 11.3389 24.0216C11.3389 23.6627 11.2194 23.3636 10.9802 23.1244C10.7406 22.8848 10.4413 22.765 10.0823 22.765C9.72335 22.765 9.42428 22.8848 9.1851 23.1244C8.94592 23.3636 8.82633 23.6627 8.82633 24.0216C8.82633 24.3806 8.94592 24.6797 9.1851 24.9189C9.42428 25.1585 9.72335 25.2783 10.0823 25.2783ZM16.3389 7.63702C16.6979 7.63702 16.997 7.51743 17.2362 7.27825C17.4758 7.03866 17.5956 6.73938 17.5956 6.3804C17.5956 6.02143 17.4758 5.72235 17.2362 5.48317C16.997 5.24399 16.6979 5.1244 16.3389 5.1244C15.98 5.1244 15.6809 5.24399 15.4417 5.48317C15.2021 5.72235 15.0823 6.02143 15.0823 6.3804C15.0823 6.73938 15.2021 7.03866 15.4417 7.27825C15.6809 7.51743 15.98 7.63702 16.3389 7.63702ZM16.3389 18.6112C17.0056 18.6112 17.5697 18.3804 18.0312 17.9189C18.4928 17.4573 18.7236 16.8932 18.7236 16.2266C18.7236 15.5599 18.4928 14.9958 18.0312 14.5343C17.5697 14.0727 17.0056 13.8419 16.3389 13.8419C15.6723 13.8419 15.1082 14.0727 14.6466 14.5343C14.1851 14.9958 13.9543 15.5599 13.9543 16.2266C13.9543 16.8932 14.1851 17.4573 14.6466 17.9189C15.1082 18.3804 15.6723 18.6112 16.3389 18.6112ZM22.5956 25.2783C22.9545 25.2783 23.2536 25.1585 23.4928 24.9189C23.732 24.6797 23.8516 24.3806 23.8516 24.0216C23.8516 23.6627 23.732 23.3636 23.4928 23.1244C23.2536 22.8848 22.9545 22.765 22.5956 22.765C22.2366 22.765 21.9373 22.8848 21.6977 23.1244C21.4585 23.3636 21.3389 23.6627 21.3389 24.0216C21.3389 24.3806 21.4585 24.6797 21.6977 24.9189C21.9373 25.1585 22.2366 25.2783 22.5956 25.2783ZM25.6725 14.4063C26.0315 14.4063 26.3305 14.2867 26.5697 14.0475C26.8089 13.8079 26.9285 13.5086 26.9285 13.1496C26.9285 12.7907 26.8089 12.4916 26.5697 12.2524C26.3305 12.0132 26.0315 11.8936 25.6725 11.8936C25.3135 11.8936 25.0142 12.0132 24.7746 12.2524C24.5355 12.4916 24.4159 12.7907 24.4159 13.1496C24.4159 13.5086 24.5355 13.8079 24.7746 14.0475C25.0142 14.2867 25.3135 14.4063 25.6725 14.4063Z" fill="#A1B7FF"/>
</svg>
