<svg width="24" height="24" viewBox="0 0 24 24" fill="none" xmlns="http://www.w3.org/2000/svg">
<mask id="mask0_23019_105390" style="mask-type:alpha" maskUnits="userSpaceOnUse" x="0" y="0" width="24" height="24">
<rect width="24" height="24" fill="#D9D9D9"/>
</mask>
<g mask="url(#mask0_23019_105390)">
<path d="M12 18C12.35 18 12.6457 17.879 12.887 17.637C13.129 17.3957 13.25 17.1 13.25 16.75C13.25 16.4 13.129 16.1043 12.887 15.863C12.6457 15.621 12.35 15.5 12 15.5C11.65 15.5 11.3543 15.621 11.113 15.863C10.871 16.1043 10.75 16.4 10.75 16.75C10.75 17.1 10.871 17.3957 11.113 17.637C11.3543 17.879 11.65 18 12 18ZM11.1 14.15H12.95C12.95 13.55 13.0167 13.1083 13.15 12.825C13.2833 12.5417 13.5667 12.1833 14 11.75C14.5833 11.1667 14.996 10.679 15.238 10.287C15.4793 9.89567 15.6 9.45 15.6 8.95C15.6 8.06667 15.3 7.354 14.7 6.812C14.1 6.27067 13.2917 6 12.275 6C11.3583 6 10.5793 6.225 9.938 6.675C9.296 7.125 8.85 7.75 8.6 8.55L10.25 9.2C10.3667 8.75 10.6 8.38733 10.95 8.112C11.3 7.83733 11.7083 7.7 12.175 7.7C12.625 7.7 13 7.82067 13.3 8.062C13.6 8.304 13.75 8.625 13.75 9.025C13.75 9.30833 13.6583 9.60833 13.475 9.925C13.2917 10.2417 12.9833 10.5917 12.55 10.975C12 11.4583 11.621 11.9207 11.413 12.362C11.2043 12.804 11.1 13.4 11.1 14.15ZM5 21C4.45 21 3.979 20.8043 3.587 20.413C3.19567 20.021 3 19.55 3 19V5C3 4.45 3.19567 3.979 3.587 3.587C3.979 3.19567 4.45 3 5 3H19C19.55 3 20.021 3.19567 20.413 3.587C20.8043 3.979 21 4.45 21 5V19C21 19.55 20.8043 20.021 20.413 20.413C20.021 20.8043 19.55 21 19 21H5ZM5 19H19V5H5V19Z" fill="#737374"/>
</g>
</svg>
