<svg width="36" height="40" viewBox="0 0 36 40" fill="none" xmlns="http://www.w3.org/2000/svg">
<g clip-path="url(#clip0_757_20892)">
<path d="M18 6.21777C17.4175 6.21777 16.9453 6.68999 16.9453 7.27246C16.9453 7.85493 17.4175 8.32715 18 8.32715C21.4899 8.32715 24.3292 11.1659 24.3292 14.6553C24.3292 15.2377 24.8014 15.71 25.3838 15.71C25.9663 15.71 26.4385 15.2377 26.4385 14.6553C26.4385 10.0028 22.6531 6.21777 18 6.21777Z" fill="#EDA224"/>
<path d="M15.2807 2.2835C10.5156 3.2792 6.65194 7.10589 5.63529 11.9006C4.77685 15.9493 5.8347 20.0141 8.53758 23.0526C9.85882 24.5378 10.6165 26.4984 10.6165 28.4369V30.5463C10.6165 31.9498 11.5353 33.142 12.8027 33.555C13.2196 36.0177 15.357 37.9994 17.9993 37.9994C20.6409 37.9994 22.779 36.0183 23.1959 33.555C24.4634 33.142 25.3821 31.9498 25.3821 30.5462V28.4369C25.3821 26.4945 26.1424 24.5575 27.5226 22.9828C29.5429 20.678 30.6556 17.7206 30.6556 14.6557C30.6556 6.67065 23.3467 0.598395 15.2807 2.2835ZM17.9993 35.8901C16.6436 35.8901 15.4549 34.9572 15.0159 33.7034H20.9827C20.5438 34.9572 19.3551 35.8901 17.9993 35.8901ZM23.2728 30.5463C23.2728 31.1279 22.7996 31.601 22.2181 31.601H13.7806C13.199 31.601 12.7259 31.1279 12.7259 30.5463V29.4916H23.2728V30.5463ZM25.9363 21.5925C24.4654 23.2707 23.5604 25.2943 23.3308 27.3823H12.6681C12.4387 25.2931 11.5361 23.2496 10.1138 21.6507C7.86111 19.1183 6.98086 15.724 7.69882 12.3381C8.53688 8.38558 11.7572 5.17475 15.7122 4.34837C22.4639 2.93741 28.5462 8.00779 28.5462 14.6557C28.5462 17.2089 27.6193 19.6724 25.9363 21.5925Z" fill="#0B65E4"/>
<path d="M3.16406 14.6553H1.05469C0.472219 14.6553 0 15.1275 0 15.71C0 16.2924 0.472219 16.7646 1.05469 16.7646H3.16406C3.74653 16.7646 4.21875 16.2924 4.21875 15.71C4.21875 15.1275 3.74653 14.6553 3.16406 14.6553Z" fill="#EDA224"/>
<path d="M3.60059 9.38151L2.10905 7.88997C1.69723 7.47808 1.0294 7.47808 0.617512 7.88997C0.205621 8.30186 0.205621 8.96962 0.617512 9.38151L2.10905 10.8731C2.52087 11.2849 3.1887 11.285 3.60059 10.8731C4.01248 10.4612 4.01248 9.7934 3.60059 9.38151Z" fill="#EDA224"/>
<path d="M3.60059 20.5472C3.1887 20.1353 2.52087 20.1353 2.10905 20.5472L0.617512 22.0387C0.205621 22.4506 0.205621 23.1184 0.617512 23.5303C1.02933 23.9422 1.69716 23.9422 2.10905 23.5303L3.60059 22.0387C4.01248 21.6268 4.01248 20.9591 3.60059 20.5472Z" fill="#EDA224"/>
<path d="M34.9453 14.6553H32.8359C32.2535 14.6553 31.7812 15.1275 31.7812 15.71C31.7812 16.2924 32.2535 16.7646 32.8359 16.7646H34.9453C35.5278 16.7646 36 16.2924 36 15.71C36 15.1275 35.5278 14.6553 34.9453 14.6553Z" fill="#EDA224"/>
<path d="M35.3819 7.88997C34.97 7.47808 34.3022 7.47808 33.8903 7.88997L32.3988 9.38151C31.9869 9.7934 31.9869 10.4612 32.3988 10.873C32.8106 11.2849 33.4784 11.2849 33.8903 10.873L35.3819 9.38151C35.7938 8.96962 35.7938 8.30186 35.3819 7.88997Z" fill="#EDA224"/>
<path d="M35.3819 22.0387L33.8903 20.5472C33.4785 20.1353 32.8107 20.1353 32.3988 20.5472C31.9869 20.9591 31.9869 21.6268 32.3988 22.0387L33.8903 23.5303C34.3021 23.9421 34.97 23.9422 35.3819 23.5303C35.7938 23.1184 35.7938 22.4506 35.3819 22.0387Z" fill="#EDA224"/>
</g>
<defs>
<clipPath id="clip0_757_20892">
<rect width="36" height="36" fill="white" transform="translate(0 2)"/>
</clipPath>
</defs>
</svg>