<svg width="33" height="32" viewBox="0 0 33 32" fill="none" xmlns="http://www.w3.org/2000/svg">
<path d="M7.15625 13.8191C7.15625 12.4004 7.45102 11.0544 8.04056 9.78096C8.63051 8.50752 9.47235 7.41767 10.5661 6.51142L11.7716 7.76803C10.8486 8.52003 10.1347 9.42178 9.6301 10.4733C9.12589 11.5243 8.87379 12.6396 8.87379 13.8191H7.15625ZM24.4892 13.8191C24.4892 12.6396 24.2414 11.5243 23.7458 10.4733C23.2502 9.42178 22.5493 8.52003 21.643 7.76803L22.8227 6.51142C23.9169 7.4345 24.7501 8.52865 25.3224 9.79388C25.8951 11.0587 26.1815 12.4004 26.1815 13.8191H24.4892ZM8.46394 23.1785V21.4603H10.5919V13.845C10.5919 12.4431 11.0151 11.1781 11.8615 10.0499C12.7074 8.92167 13.8227 8.20373 15.2073 7.89603V7.15265C15.2073 6.75962 15.3482 6.42629 15.6301 6.15265C15.9124 5.87901 16.2586 5.74219 16.6689 5.74219C17.0791 5.74219 17.4254 5.87901 17.7076 6.15265C17.9895 6.42629 18.1304 6.75962 18.1304 7.15265V7.89603C19.515 8.20373 20.6346 8.92167 21.4892 10.0499C22.3441 11.1781 22.7716 12.4431 22.7716 13.845V21.4603H24.8738V23.1785H8.46394ZM16.6689 26.2554C16.122 26.2554 15.6434 26.0546 15.2332 25.653C14.8229 25.2509 14.6178 24.7678 14.6178 24.2037H18.7199C18.7199 24.7678 18.5191 25.2509 18.1175 25.653C17.7158 26.0546 17.233 26.2554 16.6689 26.2554ZM12.2842 21.4603H21.0535V13.845C21.0535 12.6142 20.6303 11.5715 19.7839 10.717C18.938 9.86198 17.9082 9.43449 16.6947 9.43449C15.4639 9.43449 14.4211 9.86198 13.5661 10.717C12.7115 11.5715 12.2842 12.6142 12.2842 13.845V21.4603Z" fill="#98C7FF"/>
</svg>
