
<svg width="40" height="40" viewBox="0 0 40 40" fill="none" xmlns="http://www.w3.org/2000/svg">
<path d="M31.6667 3.33337H8.33333C6.48333 3.33337 5 4.83337 5 6.66671V30C5 31.8334 6.48333 33.3334 8.33333 33.3334H15L20 38.3334L25 33.3334H31.6667C33.5 33.3334 35 31.8334 35 30V6.66671C35 4.83337 33.5 3.33337 31.6667 3.33337ZM31.6667 30H23.6167L22.6333 30.9834L20 33.6167L17.35 30.9667L16.3833 30H8.33333V6.66671H31.6667V30ZM20 18.3334C22.75 18.3334 25 16.0834 25 13.3334C25 10.5834 22.75 8.33337 20 8.33337C17.25 8.33337 15 10.5834 15 13.3334C15 16.0834 17.25 18.3334 20 18.3334ZM20 11.6667C20.9167 11.6667 21.6667 12.4167 21.6667 13.3334C21.6667 14.25 20.9167 15 20 15C19.0833 15 18.3333 14.25 18.3333 13.3334C18.3333 12.4167 19.0833 11.6667 20 11.6667ZM30 25.9667C30 21.8 23.3833 20 20 20C16.6167 20 10 21.8 10 25.9667V28.3334H30V25.9667ZM14.1333 25C15.3667 24.15 17.85 23.3334 20 23.3334C22.15 23.3334 24.6333 24.15 25.8667 25H14.1333Z" fill="#A1B7FF"/>
</svg>
