<svg width="33" height="32" viewBox="0 0 33 32" fill="none" xmlns="http://www.w3.org/2000/svg">
<path d="M7.79628 23.0562C7.33474 23.0562 6.9331 22.8851 6.59136 22.543C6.2492 22.2012 6.07812 21.7996 6.07812 21.338V9.38912C6.07812 8.92758 6.2492 8.52594 6.59136 8.1842C6.9331 7.84246 7.33474 7.67158 7.79628 7.67158H13.5397V4.26112C13.5397 3.79958 13.7107 3.39794 14.0529 3.0562C14.3946 2.71405 14.7963 2.54297 15.2578 2.54297H17.4375C17.899 2.54297 18.2964 2.71405 18.6295 3.0562C18.963 3.39794 19.1298 3.79958 19.1298 4.26112V7.67158H24.8732C25.3347 7.67158 25.7364 7.84246 26.0781 8.1842C26.4203 8.52594 26.5914 8.92758 26.5914 9.38912V21.338C26.5914 21.7996 26.4203 22.2012 26.0781 22.543C25.7364 22.8851 25.3347 23.0562 24.8732 23.0562H7.79628ZM7.79628 21.338H24.8732V9.38912H19.1298C19.1298 9.88512 18.9587 10.2913 18.6166 10.6076C18.2748 10.9235 17.8476 11.0814 17.3347 11.0814H15.3347C14.8392 11.0814 14.416 10.9235 14.0652 10.6076C13.7148 10.2913 13.5397 9.88512 13.5397 9.38912H7.79628V21.338ZM10.0529 18.8254H16.1809V18.4408C16.1809 18.1331 16.104 17.8595 15.9501 17.6199C15.7963 17.3807 15.5912 17.2098 15.3347 17.1073C14.856 16.9362 14.4543 16.8166 14.1298 16.7485C13.8049 16.68 13.48 16.6457 13.155 16.6457C12.8133 16.6457 12.4586 16.6843 12.091 16.7614C11.7235 16.8381 11.3345 16.9534 10.9243 17.1073C10.651 17.2098 10.4375 17.3807 10.2837 17.6199C10.1298 17.8595 10.0529 18.1331 10.0529 18.4408V18.8254ZM18.5144 17.1842H22.7963V15.7996H18.5144V17.1842ZM13.155 15.7996C13.5485 15.7996 13.8861 15.6628 14.168 15.3891C14.4502 15.1159 14.5914 14.7741 14.5914 14.3639C14.5914 13.9705 14.4502 13.6328 14.168 13.351C13.8861 13.0687 13.5485 12.9276 13.155 12.9276C12.762 12.9276 12.4246 13.0687 12.1427 13.351C11.8605 13.6328 11.7194 13.9705 11.7194 14.3639C11.7194 14.7741 11.8605 15.1159 12.1427 15.3891C12.4246 15.6628 12.762 15.7996 13.155 15.7996ZM18.5144 14.21H22.7963V12.8507H18.5144V14.21ZM15.2578 9.38912H17.4375V4.26112H15.2578V9.38912Z" fill="#A1B7FF"/>
</svg>
