<svg width="25" height="24" viewBox="0 0 25 24" fill="none" xmlns="http://www.w3.org/2000/svg">
<g clip-path="url(#clip0_23019_15015)">
<path d="M3.33203 4C3.33203 3.45 3.78203 3 4.33203 3H6.33203V1H4.33203C2.67203 1 1.33203 2.34 1.33203 4V6H3.33203V4Z" fill="#98C7FF"/>
<path d="M3.33203 20V18H1.33203V20C1.33203 21.66 2.67203 23 4.33203 23H6.33203V21H4.33203C3.78203 21 3.33203 20.55 3.33203 20Z" fill="#98C7FF"/>
<path d="M20.332 1H18.332V3H20.332C20.882 3 21.332 3.45 21.332 4V6H23.332V4C23.332 2.34 21.992 1 20.332 1Z" fill="#98C7FF"/>
<path d="M21.332 20C21.332 20.55 20.882 21 20.332 21H18.332V23H20.332C21.992 23 23.332 21.66 23.332 20V18H21.332V20Z" fill="#98C7FF"/>
<path d="M19.332 14.87V9.13C19.332 8.41 18.952 7.75 18.332 7.4L13.332 4.52C13.022 4.34 12.682 4.25 12.332 4.25C11.982 4.25 11.642 4.34 11.332 4.52L6.33203 7.39C5.71203 7.75 5.33203 8.41 5.33203 9.13V14.87C5.33203 15.59 5.71203 16.25 6.33203 16.6L11.332 19.48C11.642 19.66 11.982 19.75 12.332 19.75C12.682 19.75 13.022 19.66 13.332 19.48L18.332 16.6C18.952 16.25 19.332 15.59 19.332 14.87ZM11.332 17.17L7.33203 14.87V10.24L11.332 12.57V17.17ZM12.332 10.84L8.37203 8.53L12.332 6.25L16.292 8.53L12.332 10.84ZM17.332 14.87L13.332 17.17V12.57L17.332 10.24V14.87Z" fill="#98C7FF"/>
</g>
<defs>
<clipPath id="clip0_23019_15015">
<rect width="24" height="24" fill="white" transform="translate(0.332031)"/>
</clipPath>
</defs>
</svg>
