<svg width="24" height="24" viewBox="0 0 24 24" fill="none" xmlns="http://www.w3.org/2000/svg">
<path d="M8.63833 18.21L11.9557 20.1704C12.0151 20.2118 12.0637 20.267 12.0972 20.3312C12.1307 20.3954 12.1482 20.4667 12.1482 20.5391C12.1482 20.6115 12.1307 20.6828 12.0972 20.747C12.0637 20.8112 12.0151 20.8664 11.9557 20.9078L8.50779 22.9356C8.44037 22.9779 8.36236 23.0004 8.28273 23.0004C8.20311 23.0004 8.1251 22.9779 8.05767 22.9356L4.7628 20.9797C4.70337 20.9383 4.65484 20.8831 4.62133 20.819C4.58781 20.7548 4.57031 20.6834 4.57031 20.611C4.57031 20.5386 4.58781 20.4673 4.62133 20.4031C4.65484 20.3389 4.70337 20.2838 4.7628 20.2423L8.19721 18.21C8.26456 18.1722 8.34051 18.1523 8.41777 18.1523C8.49502 18.1523 8.57098 18.1722 8.63833 18.21Z" fill="#961B1E"/>
<path d="M16.7266 4.77458V12.8679C16.7245 12.942 16.7041 13.0145 16.6672 13.0788C16.6303 13.1431 16.578 13.1973 16.515 13.2366L13.2472 15.179C13.1877 15.2204 13.1392 15.2756 13.1057 15.3398C13.0722 15.404 13.0547 15.4753 13.0547 15.5477C13.0547 15.6201 13.0722 15.6914 13.1057 15.7556C13.1392 15.8198 13.1877 15.875 13.2472 15.9164L16.5871 17.8903C16.6545 17.9326 16.7325 17.955 16.8121 17.955C16.8917 17.955 16.9698 17.9326 17.0372 17.8903L20.7867 15.6691C20.8496 15.6298 20.9019 15.5756 20.9388 15.5113C20.9757 15.447 20.9961 15.3745 20.9982 15.3004V6.75745C20.9961 6.68333 20.9757 6.61089 20.9388 6.54656C20.9019 6.48223 20.8496 6.42802 20.7867 6.38875L17.3748 4.40589C17.3088 4.37331 17.2358 4.35741 17.1622 4.35957C17.0886 4.36173 17.0166 4.38189 16.9527 4.41828C16.8887 4.45468 16.8346 4.50619 16.7952 4.56831C16.7558 4.63043 16.7322 4.70125 16.7266 4.77458Z" fill="#013B81"/>
<path d="M7.25813 17.166V8.69495C7.26022 8.62083 7.28064 8.54839 7.31755 8.48406C7.35446 8.41973 7.40672 8.36552 7.46968 8.32625L10.8456 6.3299C10.9116 6.29732 10.9846 6.28142 11.0582 6.28358C11.1318 6.28574 11.2037 6.3059 11.2677 6.34229C11.3317 6.37869 11.3857 6.4302 11.4251 6.49232C11.4646 6.55444 11.4881 6.62527 11.4937 6.69859V14.149C11.4994 14.2223 11.5229 14.2931 11.5624 14.3552C11.6018 14.4174 11.6558 14.4689 11.7198 14.5053C11.7838 14.5416 11.8557 14.5618 11.9293 14.564C12.0029 14.5661 12.0759 14.5502 12.1419 14.5177L15.5448 12.5033C15.6087 12.4654 15.6615 12.4114 15.6978 12.3467C15.7342 12.282 15.7528 12.2088 15.7519 12.1346V3.67708C15.7503 3.60338 15.7305 3.53121 15.6944 3.46691C15.6583 3.40262 15.6069 3.34818 15.5448 3.30839L11.7143 1.06024C11.6459 1.02078 11.5683 1 11.4892 1C11.4102 1 11.3326 1.02078 11.2642 1.06024L3.21156 5.79484C3.14859 5.83411 3.09633 5.88832 3.05942 5.95264C3.02251 6.01697 3.0021 6.08942 3 6.16354V19.1713C3.00564 19.2446 3.02919 19.3155 3.06861 19.3776C3.10802 19.4397 3.16208 19.4912 3.22606 19.5276C3.29004 19.564 3.36198 19.5842 3.43557 19.5863C3.50916 19.5885 3.58216 19.5726 3.64817 19.54L7.05107 17.5122C7.11019 17.4746 7.15969 17.4237 7.19564 17.3636C7.23158 17.3035 7.25298 17.2358 7.25813 17.166Z" fill="#013B81"/>
</svg>
