<svg width="32" height="32" viewBox="0 0 32 32" fill="none" xmlns="http://www.w3.org/2000/svg">
<path d="M24.0003 25.2311L17.3591 18.5905C16.8463 19.0175 16.2481 19.355 15.5646 19.6028C14.8807 19.851 14.1628 19.9751 13.4108 19.9751C11.5474 19.9751 9.97466 19.334 8.69261 18.052C7.41056 16.7699 6.76953 15.2143 6.76953 13.3849C6.76953 11.556 7.41056 9.9962 8.69261 8.70553C9.97466 7.41486 11.5388 6.76953 13.3849 6.76953C15.2138 6.76953 16.7693 7.41486 18.0514 8.70553C19.3334 9.9962 19.9745 11.556 19.9745 13.3849C19.9745 14.1201 19.8549 14.8253 19.6157 15.5006C19.3765 16.1759 19.0261 16.804 18.5646 17.3849L25.2311 24.0003L24.0003 25.2311ZM13.3849 18.2569C14.7355 18.2569 15.885 17.7825 16.8335 16.8335C17.7825 15.885 18.2569 14.7355 18.2569 13.3849C18.2569 12.0348 17.7825 10.8809 16.8335 9.92338C15.885 8.96625 14.7355 8.48769 13.3849 8.48769C12.0175 8.48769 10.8594 8.96625 9.91045 9.92338C8.96194 10.8809 8.48769 12.0348 8.48769 13.3849C8.48769 14.7355 8.96194 15.885 9.91045 16.8335C10.8594 17.7825 12.0175 18.2569 13.3849 18.2569ZM11.436 16.2311L12.18 13.8981L10.2569 12.4108H12.5898L13.3591 10.0772L14.1541 12.4108H16.4618L14.5388 13.8981L15.2821 16.2311L13.3591 14.7695L11.436 16.2311Z" fill="#A1B7FF"/>
</svg>
