<svg width="32" height="32" viewBox="0 0 32 32" fill="none" xmlns="http://www.w3.org/2000/svg">
<path d="M16.0006 18.488L13.5132 16.0006L16.0006 13.5132L18.488 16.0006L16.0006 18.488ZM13.8209 11.4363L11.5391 9.18029L16.0006 4.71875L20.4621 9.18029L18.1803 11.4363L16.0006 9.25721L13.8209 11.4363ZM9.18029 20.4621L4.71875 16.0006L9.18029 11.5391L11.4363 13.8209L9.25721 16.0006L11.4363 18.1803L9.18029 20.4621ZM22.8209 20.4621L20.5649 18.1803L22.744 16.0006L20.5649 13.8209L22.8209 11.5391L27.2824 16.0006L22.8209 20.4621ZM16.0006 27.2824L11.5391 22.8209L13.8209 20.5649L16.0006 22.744L18.1803 20.5649L20.4621 22.8209L16.0006 27.2824Z" fill="#A1B7FF"/>
</svg>
