<svg xmlns="http://www.w3.org/2000/svg" width="50" height="50" viewBox="0 0 36 37" fill="none">
    <g filter="url(#a)">
        <rect x="4.953" y="3.405" width="26.159" height="26.159" rx="3.5" fill="#FFBA08" stroke="#d6815c"/>
        <path d="M21.804 15.73v-4.526c0-.83-.679-1.509-1.509-1.509H15.77c-.83 0-1.51.68-1.51 1.51v1.508h-1.508c-.83 0-1.509.679-1.509 1.509v7.544c0 .83.68 1.509 1.509 1.509h3.772c.415 0 .755-.34.755-.755v-2.263h1.508v2.263c0 .415.34.755.755.755h3.772c.83 0 1.509-.68 1.509-1.509V17.24c0-.83-.68-1.51-1.51-1.51h-1.508zm-7.544 6.036H12.75v-1.509h1.509v1.51zm0-3.018H12.75V17.24h1.509v1.51zm0-3.017H12.75v-1.51h1.509v1.51zm3.018 3.017h-1.51V17.24h1.51v1.51zm0-3.017h-1.51v-1.51h1.51v1.51zm0-3.018h-1.51v-1.509h1.51v1.509zm3.017 6.035h-1.509V17.24h1.51v1.51zm0-3.017h-1.509v-1.51h1.51v1.51zm0-3.018h-1.509v-1.509h1.51v1.509zm3.018 9.053h-1.509v-1.509h1.509v1.51zm0-3.018h-1.509V17.24h1.509v1.51z" fill="#7D6936"/>
    </g>
    <defs>
        <filter id="a" x=".453" y=".905" width="35.16" height="35.159" filterUnits="userSpaceOnUse" color-interpolation-filters="sRGB">
            <feFlood flood-opacity="0" result="BackgroundImageFix"/>
            <feColorMatrix in="SourceAlpha" values="0 0 0 0 0 0 0 0 0 0 0 0 0 0 0 0 0 0 127 0" result="hardAlpha"/>
            <feOffset dy="2"/>
            <feGaussianBlur stdDeviation="2"/>
            <feComposite in2="hardAlpha" operator="out"/>
            <feColorMatrix values="0 0 0 0 0 0 0 0 0 0 0 0 0 0 0 0 0 0 0.16 0"/>
            <feBlend in2="BackgroundImageFix" result="effect1_dropShadow_12202:7717"/>
            <feBlend in="SourceGraphic" in2="effect1_dropShadow_12202:7717" result="shape"/>
        </filter>
    </defs>
</svg>
