 <svg
      xmlns="http://www.w3.org/2000/svg"
      width="36"
      height="33.256"
      viewBox="0 0 36 33.256"
      fill="#fff"
    >
      <g id="analytics-solid-alerted" transform="translate(-2 -.51)">
        <path
          id="Path_313"
          d="M36.9 31.177a2.181 2.181 0 0 1-2.181 2.181H4.181A2.181 2.181 0 0 1 2 31.177v-24A2.181 2.181 0 0 1 4.181 5h19.587l-4.726 8.066a2.063 2.063 0 0 0 1.57 3.224 1.94 1.94 0 0 0 .225.007h8.924l-5.532 7.311-7.363-10.973L9.94 22.757l-2.759-2.444-1.451 1.626 4.614 4.09 6.5-9.511 7.275 10.842L32.5 16.3h4.4z"
          transform="translate(0 .407)"
        />
        <path
          id="Path_314"
          d="M27.393 1.2l-6.239 10.756a1.4 1.4 0 0 0 1.2 2.181h12.489a1.4 1.4 0 0 0 1.2-2.181L29.8 1.2a1.4 1.4 0 0 0-2.41 0z"
          transform="translate(1.715)"
        />
      </g>
    </svg>