 <svg xmlns="http://www.w3.org/2000/svg" id="browser" width="40" height="40" viewBox="0 0 40 40" fill='#fff'>
            
            <path id="Path_184" d="M160.5 34h23.483v1.174H160.5z"  transform="translate(-147.936 -31.339)"/>
            <path id="Path_185" d="M1.174 6.5h7.319V5.323H1.174V1.174H18.58V0H0v26.43h1.174z" />
            <path id="Path_186" d="M1.174 359.285v-6.642H0v6.642a2.939 2.939 0 0 0 2.935 2.935h25.676v-1.174H2.935a1.763 1.763 0 0 1-1.761-1.761z"  transform="translate(0 -325.039)"/>
            <path id="Path_187" d="M133.587 0v1.174h19.072v4.149H123.5V6.5h29.159v10.436h1.174V0z"  transform="translate(-113.833)"/>
            <path id="Path_188" d="M496 231.357h1.174v7.213H496z"  transform="translate(-457.174 -213.247)"/>
            <path id="Path_189" d="M392.849 336h-3.914a2.939 2.939 0 0 0-2.935 2.935v7.828a2.939 2.939 0 0 0 2.935 2.935h3.914a2.939 2.939 0 0 0 2.935-2.935v-1.286h-1.174v1.286a1.763 1.763 0 0 1-1.761 1.761h-3.914a1.763 1.763 0 0 1-1.761-1.761v-4.892h7.436v2.429h1.174v-5.368a2.939 2.939 0 0 0-2.935-2.932zm-2.544 4.7h-3.131v-1.761a1.763 1.763 0 0 1 1.761-1.761h1.37zm4.305 0h-3.131v-3.523h1.37a1.763 1.763 0 0 1 1.761 1.761z"  transform="translate(-355.785 -309.699)"/>
            <path id="Path_190" d="M66.963 121.461v-8a1.292 1.292 0 0 1 2.583 0v11.429h1.174v-11.424a2.466 2.466 0 1 0-4.932 0v8a.98.98 0 0 1-.978.978h-3.732a11.544 11.544 0 1 0 0 1.174h3.732a2.155 2.155 0 0 0 2.153-2.157zm-20.61-8.314a12.764 12.764 0 0 0-2.535 5.993h-3.892a10.423 10.423 0 0 1 6.427-5.993zm-7.179 9.868a10.351 10.351 0 0 1 .357-2.7h4.109a22.794 22.794 0 0 0 0 5.4h-4.108a10.351 10.351 0 0 1-.358-2.699zm.751 3.875h3.892a12.764 12.764 0 0 0 2.535 5.993 10.423 10.423 0 0 1-6.426-5.993zm9.033 6.418c-1.763-.47-3.269-3.022-3.937-6.418h3.937zm0-7.593H44.83a20.811 20.811 0 0 1 0-5.4h4.129zm0-6.575h-3.936c.668-3.4 2.174-5.948 3.937-6.418zm10.207 0h-3.89a12.764 12.764 0 0 0-2.535-5.993 10.423 10.423 0 0 1 6.427 5.993zm-9.033-6.418c1.763.47 3.269 3.022 3.937 6.418h-3.936zm0 7.593h4.129a20.811 20.811 0 0 1 0 5.4h-4.128zm0 12.994v-6.419h3.938c-.67 3.397-2.17 5.949-3.937 6.419zm2.606-.425a12.764 12.764 0 0 0 2.535-5.993h3.892a10.423 10.423 0 0 1-6.426 5.993zm6.821-7.168h-4.107a22.793 22.793 0 0 0 0-5.4h4.108a10.384 10.384 0 0 1 0 5.4z"  transform="translate(-35.025 -102.311)"/>
            <path id="Path_191" d="M73.5 34h1.174v1.174H73.5z"  transform="translate(-67.747 -31.339)"/>
            <path id="Path_192" d="M43.5 34h1.174v1.174H43.5z"  transform="translate(-40.095 -31.339)"/>
            <path id="Path_193" d="M103.5 34h1.174v1.174H103.5z"  transform="translate(-95.398 -31.339)"/>
            <path id="Path_194" d="M208 430h1.174v1.174H208z"  transform="translate(-191.718 -396.341)"/>
            <path id="Path_195" d="M178 430h1.174v1.174H178z"  transform="translate(-164.067 -396.341)"/>
            <path id="Path_196" d="M148 430h1.174v1.174H148z"  transform="translate(-136.415 -396.341)"/>
            <path id="Path_197" d="M441 305.5h1.174v1.174H441z"  transform="translate(-406.479 -281.586)"/>
      </svg>
  