 <svg xmlns="http://www.w3.org/2000/svg" width="40" height="32.918" viewBox="0 0 40 32.918" fill='#fff'>
     
            <g id="hire" transform="translate(0 -45.234)">
               <path id="Path_167" d="M26.1 76.978l-2.036-2.387h-1.169v-2.349h-1.174v2.348H18.2V69.9h3.521v1.171h1.174V69.9H36.4V48.816h-8.22v-3.582H16.4v2.38l-1.589 1.2H3.523V69.9h13.5v4.694h-1.168l-2.036 2.387H0v1.174h40v-1.177zm-1.482-14.125h-4.657v-2.344h4.658zm-5.832-3.518v3.518h-1.213v-1.17H16.4v1.169h-3.484V52.329H16.4v5.832h1.174v-9.433h9.433v14.125h-1.214v-3.518zm8.219-12.927v1.146h-9.432v-1.146zM16.4 51.155h-2.736l2.736-2.068zm-3.142-1.165l-1.5 1.132H4.7V49.99zM4.7 66.406h1.171v-1.174H4.7V52.3h7.045v11.727H28.18V52.3h2.348v-1.178H28.18V49.99h7.045v1.132h-1.174V52.3h1.174v12.932H7.045v1.174h28.18v2.317H4.7zm11.7 9.359h7.128l1.035 1.213h-9.2z" />
               <path id="Path_168" d="M405 120.452h1.174v1.174H405z" transform="translate(-373.297 -69.33)"/>
               <path id="Path_169" d="M75 150.265h1.174v1.174H75z" transform="translate(-69.129 -96.809)"/>
               <path id="Path_170" d="M75 180.134h1.174v2.359H75z" transform="translate(-69.129 -124.34)"/>
               <path id="Path_171" d="M209.49 225.375h1.174v1.213h-1.174z" transform="translate(-193.092 -166.04)"/>
               <path id="Path_172" d="M179.745 150.376h1.174v1.174h-1.174z" transform="translate(-165.675 -96.912)"/>
               <path id="Path_173" d="M179.745 180.376h1.174v1.174h-1.174z" transform="translate(-165.675 -124.563)"/>
               <path id="Path_174" d="M179.745 210.376h1.174v1.174h-1.174z" transform="translate(-165.675 -152.215)"/>
               <path id="Path_175" d="M179.745 240.376h1.174v1.174h-1.174z" transform="translate(-165.675 -179.867)"/>
               <path id="Path_176" d="M314.5 195.594h1.174v1.174H314.5z" transform="translate(-289.882 -138.59)"/>
               <path id="Path_177" d="M239.5 195.594h4.7v1.174h-4.7z" transform="translate(-220.752 -138.59)"/>
               <path id="Path_178" d="M299.5 165.812h2.348v1.174H299.5z" transform="translate(-276.056 -111.139)"/>
               <path id="Path_179" d="M239.5 165.812h3.542v1.174H239.5z" transform="translate(-220.752 -111.139)"/>
               <path id="Path_180" d="M284.5 136.029h3.523v1.171H284.5z" transform="translate(-262.23 -83.688)"/>
               <path id="Path_181" d="M239.5 136.029h2.348v1.171H239.5z" transform="translate(-220.752 -83.688)"/>
               <path id="Path_182" d="M269.5 105.246h4.7v1.174h-4.7z" transform="translate(-248.404 -55.314)"/>
               <path id="Path_183" d="M239.5 105.246h1.174v1.174H239.5z" transform="translate(-220.752 -55.314)"/>
            </g>
      </svg>
      