  <svg xmlns="http://www.w3.org/2000/svg" id="enterprise" width="40" height="40" viewBox="0 0 40 40" fill='#fff'>
   
            <g id="Group_86" transform="translate(14 13.333)">
               <g id="Group_85">
                     <path id="Rectangle_64" d="M0 0H1.333V1.333H0z" />
               </g>
            </g>
            <g id="Group_88" transform="translate(14 16)">
               <g id="Group_87">
                     <path id="Rectangle_65" d="M0 0H1.333V1.333H0z" />
               </g>
            </g>
            <g id="Group_90" transform="translate(14 18.667)">
               <g id="Group_89">
                     <path id="Rectangle_66" d="M0 0H1.333V1.333H0z" />
               </g>
            </g>
            <g id="Group_92" transform="translate(14 21.333)">
               <g id="Group_91">
                     <path id="Rectangle_67" d="M0 0H1.333V1.333H0z" />
               </g>
            </g>
            <g id="Group_94" transform="translate(16.667 13.333)">
               <g id="Group_93">
                     <path id="Rectangle_68" d="M0 0H1.333V1.333H0z" />
               </g>
            </g>
            <g id="Group_96" transform="translate(16.667 16)">
               <g id="Group_95">
                     <path id="Rectangle_69" d="M0 0H1.333V1.333H0z" />
               </g>
            </g>
            <g id="Group_98" transform="translate(16.667 18.667)">
               <g id="Group_97">
                     <path id="Rectangle_70" d="M0 0H1.333V1.333H0z" />
               </g>
            </g>
            <g id="Group_100" transform="translate(16.667 21.333)">
               <g id="Group_99">
                     <path id="Rectangle_71" d="M0 0H1.333V1.333H0z" />
               </g>
            </g>
            <g id="Group_102" transform="translate(19.333 13.333)">
               <g id="Group_101">
                     <path id="Rectangle_72" d="M0 0H1.333V1.333H0z" />
               </g>
            </g>
            <g id="Group_104" transform="translate(19.333 16)">
               <g id="Group_103">
                     <path id="Rectangle_73" d="M0 0H1.333V1.333H0z" />
               </g>
            </g>
            <g id="Group_106" transform="translate(19.333 18.667)">
               <g id="Group_105">
                     <path id="Rectangle_74" d="M0 0H1.333V1.333H0z" />
               </g>
            </g>
            <g id="Group_108" transform="translate(19.333 21.333)">
               <g id="Group_107">
                     <path id="Rectangle_75" d="M0 0H1.333V1.333H0z" />
               </g>
            </g>
            <g id="Group_110" transform="translate(22 13.333)">
               <g id="Group_109">
                     <path id="Rectangle_76" d="M0 0H1.333V1.333H0z" />
               </g>
            </g>
            <g id="Group_112" transform="translate(16.667 10.667)">
               <g id="Group_111">
                     <path id="Rectangle_77" d="M0 0H1.333V1.333H0z" />
               </g>
            </g>
            <g id="Group_114" transform="translate(19.333 10.667)">
               <g id="Group_113">
                     <path id="Rectangle_78" d="M0 0H1.333V1.333H0z" />
               </g>
            </g>
            <g id="Group_116" transform="translate(22 10.667)">
               <g id="Group_115">
                     <path id="Rectangle_79" d="M0 0H1.333V1.333H0z" />
               </g>
            </g>
            <g id="Group_118" transform="translate(22 16)">
               <g id="Group_117">
                     <path id="Rectangle_80" d="M0 0H1.333V1.333H0z" />
               </g>
            </g>
            <g id="Group_120" transform="translate(22 18.667)">
               <g id="Group_119">
                     <path id="Rectangle_81" d="M0 0H1.333V1.333H0z" />
               </g>
            </g>
            <g id="Group_122" transform="translate(22 21.333)">
               <g id="Group_121">
                     <path id="Rectangle_82" d="M0 0H1.333V1.333H0z" />
               </g>
            </g>
            <g id="Group_124" transform="translate(24.667 13.333)">
               <g id="Group_123">
                     <path id="Rectangle_83" d="M0 0H1.333V1.333H0z" />
               </g>
            </g>
            <g id="Group_126" transform="translate(24.667 16)">
               <g id="Group_125">
                     <path id="Rectangle_84" d="M0 0H1.333V1.333H0z" />
               </g>
            </g>
            <g id="Group_128" transform="translate(24.667 18.667)">
               <g id="Group_127">
                     <path id="Rectangle_85" d="M0 0H1.333V1.333H0z" />
               </g>
            </g>
            <g id="Group_130" transform="translate(24.667 21.333)">
               <g id="Group_129">
                     <path id="Rectangle_86" d="M0 0H1.333V1.333H0z" />
               </g>
            </g>
            <g id="Group_132">
               <g id="Group_131">
                     <path id="Path_152" d="M39.334 10h-10V.667A.666.666 0 0 0 28.667 0H11.333a.666.666 0 0 0-.667.666V10h-10a.666.666 0 0 0-.666.666v24a.666.666 0 0 0 .666.667H2.06A4 4 0 0 0 2 36v3.333a.666.666 0 0 0 .666.667h34.667a.666.666 0 0 0 .667-.666V36a3.983 3.983 0 0 0-.06-.667h1.394a.666.666 0 0 0 .666-.666v-24a.666.666 0 0 0-.666-.667zM28.667 28.667a1.333 1.333 0 1 1-1.333-1.333 1.333 1.333 0 0 1 1.333 1.333zm-16-1.333a1.333 1.333 0 1 1-1.333 1.333 1.333 1.333 0 0 1 1.333-1.334zm-4 11.333H3.333V36a2.667 2.667 0 0 1 5.333 0zm-4-8A1.333 1.333 0 1 1 6 32a1.333 1.333 0 0 1-1.333-1.333zm4.1 2.452a4.019 4.019 0 0 0-.839-.621 2.667 2.667 0 1 0-3.858 0A4.026 4.026 0 0 0 2.541 34H1.333V11.333h9.333v15.588a2.63 2.63 0 0 0 .071 3.577 4.011 4.011 0 0 0-1.969 2.621zm6.566 5.548H10V34a2.667 2.667 0 1 1 5.333 0zm8 0h-6.666V34a3.333 3.333 0 1 1 6.667 0zM18 27.333a2 2 0 1 1 2 2 2 2 0 0 1-2-2zm6.06 4.375a4.7 4.7 0 0 0-1.913-1.847 3.333 3.333 0 1 0-4.295 0 4.7 4.7 0 0 0-1.913 1.847A4.027 4.027 0 0 0 14.6 30.5a2.648 2.648 0 0 0-2.6-4.4V1.333h16v24.762a2.655 2.655 0 0 0-2.6 4.4 4.027 4.027 0 0 0-1.34 1.213zM30 36v2.667h-5.333V34A2.667 2.667 0 1 1 30 34zm6.667 2.667h-5.334V36a2.667 2.667 0 0 1 5.333 0zm-4-8A1.333 1.333 0 1 1 34 32a1.333 1.333 0 0 1-1.333-1.333zm6 3.333h-1.208a4.026 4.026 0 0 0-1.53-1.5 2.667 2.667 0 1 0-3.858 0 4.017 4.017 0 0 0-.839.621 4.011 4.011 0 0 0-1.97-2.621 2.63 2.63 0 0 0 .071-3.577v-15.59h9.333V34z" />
               </g>
            </g>
            <g id="Group_134" transform="translate(31.333 15.333)">
               <g id="Group_133">
                     <path id="Rectangle_87" d="M0 0H1.333V10.667H0z" />
               </g>
            </g>
            <g id="Group_136" transform="translate(35.333 15.333)">
               <g id="Group_135">
                     <path id="Rectangle_88" d="M0 0H1.333V10.667H0z" />
               </g>
            </g>
            <g id="Group_138" transform="translate(3.333 15.333)">
               <g id="Group_137">
                     <path id="Rectangle_89" d="M0 0H1.333V10.667H0z" />
               </g>
            </g>
            <g id="Group_140" transform="translate(7.333 15.333)">
               <g id="Group_139">
                     <path id="Rectangle_90" d="M0 0H1.333V10.667H0z" />
               </g>
            </g>
            <g id="Group_142" transform="translate(15.333 2.667)">
               <g id="Group_141">
                     <path id="Path_153" d="M192.667 32h-8a.666.666 0 0 0-.667.666V38a.666.666 0 0 0 .666.667h8a.666.666 0 0 0 .667-.666v-5.334a.666.666 0 0 0-.666-.667zM192 37.333h-6.667v-4H192z"  transform="translate(-184 -32)"/>
               </g>
            </g>
         </svg>