 <svg xmlns="http://www.w3.org/2000/svg" width="40" height="40" viewBox="0 0 40 40" fill='#fff'>

         <g id="Group_143">
            <path id="Path_154" d="M39.219 161.6h-4.58v-16.294a.781.781 0 0 0-.781-.781h-5.626a.781.781 0 0 0-.781.781V161.6h-2.657v-10.628a.781.781 0 0 0-.781-.781h-5.626a.781.781 0 0 0-.781.781V161.6h-2.4v-19.943a.781.781 0 0 0-.781-.781H8.8a.781.781 0 0 0-.781.781V161.6H4.9l.251-34.563c0-.431-.781-.781-.781-.781s-.781.35-.781.781L3.333 161.6H.781a.781.781 0 0 0 0 1.563h2.552v2.255a.781.781 0 0 0 1.563 0v-2.255h34.323a.781.781 0 0 0 0-1.562zm-29.635 0v-19.16h4.063v19.16zm9.585 0v-9.845h4.063v9.845zm9.845 0v-15.512h4.063V161.6h-4.064z"  transform="translate(0 -126.197)"/>
            <path id="Path_156" d="M238.951 0h-17.567a2.7 2.7 0 0 0-2.7 2.7v10.872a2.7 2.7 0 0 0 2.7 2.7h.634v3.338a.788.788 0 0 0 1.321.565l4.089-3.9h11.523a.781.781 0 1 0 0-1.562h-11.836a.781.781 0 0 0-.539.216l-3 2.859V15.49a.781.781 0 0 0-.781-.781h-1.415a1.139 1.139 0 0 1-1.137-1.137V2.7a1.139 1.139 0 0 1 1.137-1.138h17.52a1.139 1.139 0 0 1 1.137 1.138v10.872a1.142 1.142 0 0 1-1.118 1.137.781.781 0 0 0 .027 1.562 2.712 2.712 0 0 0 2.653-2.7V2.7a2.659 2.659 0 0 0-2.648-2.7z"  transform="translate(-201.599)"/>
            <path id="Path_158" d="M274.9 48.907a.781.781 0 0 0-.493.175l-3.843 3.127a.781.781 0 1 0 .986 1.212l3.628-2.951h5.148a.781.781 0 0 0 .509-.189l2.792-2.4v.643a.781.781 0 0 0 1.563 0v-2.518a.781.781 0 0 0-.781-.781h-2.663a.781.781 0 0 0 0 1.563h.76l-2.469 2.12z"  transform="translate(-249.16 -41.692)"/>
         </g>
      </svg>