    <svg xmlns="http://www.w3.org/2000/svg" width="91.854" height="96" viewBox="0 0 91.854 96" >
            <g id="Group_65" transform="translate(-707 -1033)">
               <g id="Group_43" transform="translate(708.406 1034.407)">
                     <path id="Path_32" fill="#56788b" d="M134.939 34.013l-13.247.071-32.9.174c-.988-4.832-1.219-10.738.3-15.433 1.843-5.985 8.094-8.816 13.571-10.153 8.537-2.088 21.294-1.987 24.767 5.428a1.6 1.6 0 0 0 1.309.988c7.161.693 7.642 11.39 6.2 18.925z" transform="translate(-74.984 -7.503)"/>
                     <path id="Path_33" fill="#415e6f" d="M280.919 66.857l-13.247.071 2-8.394c-3.7-11.089 5.044-10.6 5.044-10.6 7.163.69 7.645 11.387 6.203 18.923z" transform="translate(-220.964 -40.346)"/>
                     <path id="Path_34" fill="#ff6b81" d="M92.8 369.391H18.642c0-10.507-2.944-28.929 26.222-30.99q2.638-.186 5.632-.189h10.448q3 0 5.629.189a47.852 47.852 0 0 1 11.184 1.984c17.16 5.486 15.043 20.094 15.043 29.006z" transform="translate(-18.559 -276.204)"/>
                     <path id="Path_35" fill="#ed2061" d="M349.323 378.808h-3.75c0-8.2 1.794-22.254-11.291-29.006 17.16 5.486 15.041 20.098 15.041 29.006z" transform="translate(-275.084 -285.621)"/>
                     <path id="Path_36" fill="#d9f0f4" d="M180.561 338.4a10.867 10.867 0 0 1-21.7.006v-.009q2.638-.186 5.632-.189h10.447q3 0 5.629.189z" transform="translate(-132.547 -276.204)"/>
                     <g id="Group_42" transform="translate(12.253 25.778)">
                        <path id="Path_37" d="M311.363 144.988h-3.271l.021 8.567h3.251a4.284 4.284 0 0 0 0-8.567z" transform="translate(-266.058 -144.988)"/>
                        <path id="Path_38" d="M83.91 149.271a4.284 4.284 0 0 0 4.283 4.284h3.251l.021-8.567h-3.272a4.283 4.283 0 0 0-4.283 4.283z" transform="translate(-83.91 -144.988)"/>
                     </g>
                     <path id="Path_39" d="M199.342 306.5H188.9a10.873 10.873 0 0 1 0 5.945 5.224 5.224 0 1 0 10.447 0 10.871 10.871 0 0 1 0-5.945z" transform="translate(-156.957 -250.439)"/>
                     <path id="Path_40" fill="#fdd9b4" d="M158.66 120.934c0 4.147-3.527 9.1-10.485 14.728a11.128 11.128 0 0 1-6.982 2.443 10.921 10.921 0 0 1-6.906-2.443c-6.958-5.627-10.485-10.581-10.485-14.728 0-.441.017-.881.052-1.314.18-1.809.128-10.071.124-15.4v-.006a4.629 4.629 0 0 1 2.591-4.275c3.551-1.579 9.1-2.366 14.661-2.362a47.72 47.72 0 0 1 11.218 1.215 21.169 21.169 0 0 1 3.444 1.147 4.631 4.631 0 0 1 2.589 4.275v.006c0 5.334-.054 13.6.124 15.4.036.433.054.874.054 1.314z" transform="translate(-104.069 -80.684)"/>
                     <path id="Path_41" fill="#f9c19b" d="M225.919 126.2c0 4.147-3.527 9.1-10.485 14.728a11.128 11.128 0 0 1-6.982 2.443 10.891 10.891 0 0 1-1.869-.157 11.061 11.061 0 0 0 5.1-2.286c6.958-5.627 10.485-10.581 10.485-14.728 0-.441-.019-.881-.054-1.314-.178-1.809-.128-10.071-.124-15.4v-1.318a4.631 4.631 0 0 0-2.284-4.11 21.17 21.17 0 0 1 3.444 1.147 4.631 4.631 0 0 1 2.589 4.275v.006c0 5.334-.054 13.6.124 15.4.037.432.056.873.056 1.314z" transform="translate(-171.328 -85.949)"/>
                     <path id="Path_42" fill="#09eaa3" d="M350.7 289.543A16.465 16.465 0 0 1 334.232 306a16.294 16.294 0 0 1-1.875-.107 16.46 16.46 0 0 1 0-32.707 16.294 16.294 0 0 1 1.875-.107 16.465 16.465 0 0 1 16.468 16.464z" transform="translate(-261.662 -223.286)"/>
                     <path id="Path_43" fill="#14bb87" d="M413.947 289.543A16.465 16.465 0 0 1 397.477 306a16.294 16.294 0 0 1-1.875-.107 16.46 16.46 0 0 0 0-32.707 16.294 16.294 0 0 1 1.875-.107 16.465 16.465 0 0 1 16.47 16.464z" transform="translate(-324.907 -223.286)"/>
               </g>
               <g id="Group_44" transform="translate(707 1033)">
                     <path id="Path_44" d="M16.591 386.931a1.406 1.406 0 0 0-1.942.427c-3.818 5.972-3.667 13.081-3.546 18.793.02.933.039 1.815.039 2.645a1.406 1.406 0 1 0 2.812 0c0-.859-.019-1.756-.039-2.7-.113-5.331-.254-11.966 3.1-17.218a1.406 1.406 0 0 0-.424-1.947z" transform="translate(-11.058 -314.202)"/>
                     <path id="Path_45" d="M96.557 62.4c-2.159-.229-4.493-.359-6.953-.389a11.3 11.3 0 0 1 .094-3.54 12.09 12.09 0 0 0 1.424-1c7.3-5.906 11.008-11.23 11.008-15.822 0-.479-.02-.96-.059-1.431v-.022c-.051-.514-.082-1.617-.1-3.046h1.723a5.687 5.687 0 0 0 3.926-9.8c.943-5.6.848-12.683-2.138-16.673a7.467 7.467 0 0 0-5.437-3.089.2.2 0 0 1-.161-.121l-.029-.066C98.085 3.633 94.09 1.188 88.3.335a40.3 40.3 0 0 0-14.821.876C65.583 3.137 60.541 6.978 58.9 12.3c-1.354 4.2-1.524 9.77-.482 15.391a5.687 5.687 0 0 0 4.249 9.469h1.953c-.019 1.429-.05 2.533-.1 3.046v.022c-.039.47-.059.952-.059 1.431 0 4.592 3.7 9.915 11.005 15.82a12.29 12.29 0 0 0 1.426 1 11.307 11.307 0 0 1 .093 3.538C66.23 62.14 58.4 64.134 53.063 68.1a1.406 1.406 0 1 0 1.678 2.257c3.8-2.824 9.316-4.578 16.453-5.238a12.277 12.277 0 0 0 24.2 0q.438.04.866.085a1.406 1.406 0 1 0 .3-2.8zm7.134-28.057h-1.745c-.007-1.83 0-3.853 0-5.755h1.746a2.877 2.877 0 0 1 0 5.755zm-.464-21.98c2.3 3.07 2.419 8.877 1.764 13.563a5.685 5.685 0 0 0-1.3-.15h-1.741v-.828a6.05 6.05 0 0 0-3.376-5.548l-.047-.022a20.793 20.793 0 0 0-2.572-.929c-.875-2.952-.816-5.194.177-6.509a4.768 4.768 0 0 1 3.661-1.542 4.706 4.706 0 0 1 3.434 1.973zM62.669 34.347a2.877 2.877 0 0 1 0-5.755h1.973c0 1.9.006 3.925 0 5.755zm4.6 7.311c0-.4.016-.8.048-1.188.155-1.6.144-7.533.134-12.765v-2.771-.037a3.23 3.23 0 0 1 1.781-2.965 21.424 21.424 0 0 1 3.989-1.246 1.406 1.406 0 0 0-.607-2.746 24.126 24.126 0 0 0-4.551 1.434l-.047.022a6.05 6.05 0 0 0-3.377 5.556v.829h-1.97a5.668 5.668 0 0 0-1.679.253 29.036 29.036 0 0 1 .594-12.888c1.689-5.484 7.763-8.031 12.563-9.2a37.383 37.383 0 0 1 13.743-.828c3.178.468 7.254 1.705 9.123 4.922a6.48 6.48 0 0 0-3.105 2.174c-1.376 1.8-1.724 4.317-1.042 7.5a52.017 52.017 0 0 0-9.509-.82H83.3c-1.342 0-2.686.043-3.994.131a1.406 1.406 0 1 0 .19 2.806c1.225-.083 2.485-.125 3.748-.125h.112c5.617 0 10.847.832 14.007 2.229A3.23 3.23 0 0 1 99.14 24.9V27.717c-.01 5.227-.022 11.151.134 12.755.032.391.048.79.048 1.188 0 3.649-3.445 8.364-9.966 13.637a9.805 9.805 0 0 1-6.1 2.128 9.509 9.509 0 0 1-6.018-2.13c-6.519-5.27-9.964-9.985-9.964-13.634zm15.953 18.577h.064a12.592 12.592 0 0 0 3.435-.478 11.294 11.294 0 0 0 .384 3.878 3.817 3.817 0 0 1-7.622 0 11.282 11.282 0 0 0 .385-3.87 12.261 12.261 0 0 0 3.354.47zm.072 12.273a9.451 9.451 0 0 1-9.277-7.589q1.365-.069 2.8-.089a6.63 6.63 0 0 0 12.955 0q1.432.021 2.8.088a9.45 9.45 0 0 1-9.277 7.59z" transform="translate(-44.726 -.001)"/>
                     <path id="Path_46" d="M408.5 472.171a1.409 1.409 0 0 0-1.424 1.388c-.008.671-.022 1.328-.036 1.967-.02.949-.039 1.846-.039 2.707a1.406 1.406 0 0 0 2.812 0c0-.83.019-1.713.039-2.647.014-.647.028-1.312.036-1.991a1.406 1.406 0 0 0-1.388-1.424z" transform="translate(-332.764 -383.639)"/>
                     <path id="Path_47" d="M193.634 239.921a6.005 6.005 0 0 0 5.064-2.761 1.406 1.406 0 0 0-2.363-1.525 3.212 3.212 0 0 1-5.4 0 1.406 1.406 0 1 0-2.363 1.525 6.006 6.006 0 0 0 5.062 2.761z" transform="translate(-155.104 -190.93)"/>
                     <path id="Path_49" d="M328.137 265.58a18.038 18.038 0 0 0-3.12.271 1.406 1.406 0 0 0 .488 2.77 15.056 15.056 0 1 1-12.432 14.826 15 15 0 0 1 7-12.717 1.406 1.406 0 0 0-1.508-2.374 17.881 17.881 0 1 0 9.575-2.776z" transform="translate(-254.161 -215.784)"/>
                     <path id="Path_50" d="M93.876 470.968a1.768 1.768 0 0 0-1.278.553c-.552.542-1.285 1.726-1.285 5.735a1.406 1.406 0 0 0 2.812 0 9.913 9.913 0 0 1 .422-3.659 1.406 1.406 0 0 0-.67-2.628z" transform="translate(-76.264 -382.662)"/>
                     <path id="Path_51" d="M323.816 471.521a1.768 1.768 0 0 0-1.278-.553 1.406 1.406 0 0 0-.67 2.628 9.914 9.914 0 0 1 .421 3.659 1.406 1.406 0 0 0 2.813 0c-.002-4.008-.734-5.192-1.286-5.734z" transform="translate(-263.013 -382.662)"/>
                     <path id="Path_52" d="M366.462 329.335h4.79v4.79a1.406 1.406 0 0 0 2.813 0v-4.79h4.79a1.406 1.406 0 0 0 0-2.812h-4.79v-4.79a1.406 1.406 0 0 0-2.812 0v4.79h-4.79a1.406 1.406 0 0 0 0 2.813z" transform="translate(-298.682 -260.265)"/>
               </g>
            </g>
         </svg>
