 <svg xmlns="http://www.w3.org/2000/svg" width="54" height="49.5" viewBox="0 0 54 49.5">
    <defs>
        <filter id="1ukvjfc98a" width="54" height="49.5" x="0" y="0" filterUnits="userSpaceOnUse">
            <feOffset dy="3"/>
            <feGaussianBlur result="blur" stdDeviation="3"/>
            <feFlood/>
            <feComposite in2="blur" operator="in"/>
            <feComposite in="SourceGraphic"/>
        </filter>
    </defs>
    <g filter="url(#1ukvjfc98a)">
        <path fill="#fff" d="M33.772 6.75H33.7l.07 15.61v.14a2.28 2.28 0 0 1-2.249 2.249h-27a2.146 2.146 0 0 1-1.6-.668 2.19 2.19 0 0 1-.65-1.581v-.14l.07-15.61h-.07A2.174 2.174 0 0 1 .672 6.1a2.173 2.173 0 0 1-.651-1.6 2.176 2.176 0 0 1 .651-1.6 2.148 2.148 0 0 1 1.581-.65 2.219 2.219 0 0 1 1.6.651A2.139 2.139 0 0 1 4.52 4.5a2.117 2.117 0 0 1-.949 1.828l7.7 10.9 5.836-12.939a2.091 2.091 0 0 1-.967-.809 2.2 2.2 0 0 1-.369-1.23 2.174 2.174 0 0 1 .651-1.6A2.153 2.153 0 0 1 18 0a2.213 2.213 0 0 1 1.6.651 2.141 2.141 0 0 1 .668 1.6A2.2 2.2 0 0 1 19.9 3.48a2.091 2.091 0 0 1-.967.809l5.837 12.938 7.7-10.9a2.117 2.117 0 0 1-.949-1.827 2.174 2.174 0 0 1 .651-1.6 2.153 2.153 0 0 1 1.582-.651 2.213 2.213 0 0 1 1.6.651 2.141 2.141 0 0 1 .668 1.6 2.151 2.151 0 0 1-.668 1.6 2.188 2.188 0 0 1-1.582.651zM2.271 27h31.5a2.19 2.19 0 0 1 1.582.651 2.126 2.126 0 0 1 .668 1.582 2.184 2.184 0 0 1-.668 1.6 2.156 2.156 0 0 1-1.582.668h-31.5a2.162 2.162 0 0 1-1.581-.669 2.182 2.182 0 0 1-.668-1.6 2.151 2.151 0 0 1 .651-1.582A2.179 2.179 0 0 1 2.272 27z" transform="translate(8.98 6)"/>
    </g>
</svg>