 <svg xmlns="http://www.w3.org/2000/svg" width="40" height="32" viewBox="0 0 40 32" fill='#fff'>
   
         <g id="line_icons" transform="translate(-2 -8.448)">
            <path id="Path_159" d="M38.883 43.573H5.117A3.091 3.091 0 0 1 2 40.518V18.62a3.094 3.094 0 0 1 3.117-3.063h11.758a.56.56 0 1 1 0 1.121H5.117a1.961 1.961 0 0 0-1.974 1.942v21.9a1.958 1.958 0 0 0 1.974 1.936h33.766a1.958 1.958 0 0 0 1.974-1.936v-21.9a1.961 1.961 0 0 0-1.974-1.942H27.125a.56.56 0 1 1 0-1.121h11.758A3.094 3.094 0 0 1 42 18.62v21.9a3.091 3.091 0 0 1-3.117 3.055z"  transform="translate(0 -3.125)"/>
            <path id="Path_160" d="M37.066 15.711h-8.673a1.346 1.346 0 0 1-1.357-1.331v-4.6a1.346 1.346 0 0 1 1.357-1.331h8.673a1.346 1.346 0 0 1 1.357 1.331v4.6a1.346 1.346 0 0 1-1.357 1.331zm-8.673-6.142a.213.213 0 0 0-.214.21v4.6a.213.213 0 0 0 .214.21h8.673a.213.213 0 0 0 .214-.21v-4.6a.213.213 0 0 0-.214-.21z"  transform="translate(-10.73)"/>
            <path id="Path_161" d="M18.434 31.879a3.433 3.433 0 1 1 3.5-3.432 3.467 3.467 0 0 1-3.5 3.432zm0-5.744a2.312 2.312 0 1 0 2.357 2.312 2.335 2.335 0 0 0-2.357-2.312z"  transform="translate(-5.543 -7.283)"/>
            <path id="Path_162" d="M22.171 42.274H9.842a.577.577 0 0 1-.41-.17.555.555 0 0 1-.162-.406 6.743 6.743 0 0 1 13.471 0 .555.555 0 0 1-.162.406.577.577 0 0 1-.41.17zm-11.714-1.121h11.1a5.611 5.611 0 0 0-11.095 0z"  transform="translate(-3.116 -11.793)"/>
            <path id="Path_163" d="M53.843 27.495H41.232a.56.56 0 1 1 0-1.121h12.61a.56.56 0 1 1 0 1.121z"  transform="translate(-16.569 -7.881)"/>
            <path id="Path_164" d="M53.843 36.736H41.232a.56.56 0 1 1 0-1.121h12.61a.56.56 0 1 1 0 1.121z"  transform="translate(-16.569 -11.943)"/>
            <path id="Path_165" d="M53.843 45.977H41.232a.56.56 0 1 1 0-1.121h12.61a.56.56 0 1 1 0 1.121z"  transform="translate(-16.569 -16.006)"/>
            <path id="Path_166" d="M40.39 55.221H9.842a.56.56 0 1 1 0-1.121H40.39a.56.56 0 1 1 0 1.121z"  transform="translate(-3.116 -20.069)"/>
         </g>
      </svg>