 <svg xmlns="http://www.w3.org/2000/svg" width="40" height="25.596" viewBox="0 0 40 25.596" fill='#fff'>

         <g id="group" transform="translate(0 -92.184)">
            <g id="Group_80" transform="translate(11.273 92.184)">
                  <g id="Group_79">
                     <path id="Path_149" d="M159.911 106.6l-3.4-1.513a.667.667 0 0 1-.4-.609v-.935a4.962 4.962 0 0 0 1.879-3.887v-1.313a1.214 1.214 0 0 0 .626-1.061v-.128a4.975 4.975 0 0 0-4.97-4.97h-1.253a4.975 4.975 0 0 0-4.97 4.97v1.159a1.229 1.229 0 0 0 .468.985 1.142 1.142 0 0 0 .159.1v.259a4.962 4.962 0 0 0 1.879 3.887v.935a.667.667 0 0 1-.4.609l-3.4 1.513a3.094 3.094 0 0 0-1.836 2.825v7.766a.586.586 0 0 0 1.172 0v-7.766a1.911 1.911 0 0 1 .012-.2l1.569 1.569a1.285 1.285 0 0 1 .379.914v5.484a.586.586 0 1 0 1.172 0v-5.483a2.448 2.448 0 0 0-.722-1.743L146 108.1a1.914 1.914 0 0 1 .6-.422l3.347-1.488 2.482 2.482v8.525a.586.586 0 0 0 1.172 0v-8.525l2.482-2.482 3.347 1.488a1.913 1.913 0 0 1 .6.422l-1.87 1.87a2.449 2.449 0 0 0-.722 1.743v5.484a.586.586 0 1 0 1.172 0v-5.487a1.284 1.284 0 0 1 .379-.914l1.569-1.569a1.908 1.908 0 0 1 .012.2v7.766a.586.586 0 0 0 1.172 0v-7.766a3.094 3.094 0 0 0-1.831-2.827zm-6.892.994l-2.178-2.178a1.835 1.835 0 0 0 .259-.938v-.238a4.966 4.966 0 0 0 3.838 0v.238a1.835 1.835 0 0 0 .259.938zm0-4.141a3.8 3.8 0 0 1-3.8-3.8V99.4a3.465 3.465 0 0 0 1.064-.691.586.586 0 0 0-.795-.861 2.1 2.1 0 0 1-.87.52h-.016a.119.119 0 0 1-.01-.053v-1.161a3.8 3.8 0 0 1 3.8-3.8h1.253a3.8 3.8 0 0 1 3.8 3.8v.128a.038.038 0 0 1-.026.038c-3.509.693-5.269-.613-5.862-1.207a.586.586 0 0 0-.829.829c1.82 1.82 4.475 1.852 6.091 1.658v1.059a3.8 3.8 0 0 1-3.8 3.798z" transform="translate(-144.292 -92.184)"/>
                  </g>
            </g>
            <g id="Group_82" transform="translate(0 95.315)">
                  <g id="Group_81">
                     <path id="Path_150" d="M10.566 140.366v-1.253a4.343 4.343 0 0 0-1.991-3.649 2.465 2.465 0 1 0-4.7 0 4.342 4.342 0 0 0-1.991 3.648v1.253a4.341 4.341 0 0 0 1.879 3.574v1.289a.663.663 0 0 1-.368.6l-2.027 1.013A2.451 2.451 0 0 0 0 149.042v5.1a.586.586 0 0 0 1.172 0V149.3l.955.955a1.285 1.285 0 0 1 .379.914v2.979a.586.586 0 0 0 1.172 0v-2.979a2.449 2.449 0 0 0-.722-1.743l-1.329-1.329-.02-.018a1.308 1.308 0 0 1 .28-.189l2.027-1.013a1.864 1.864 0 0 0 .291-.181l1.433 1.433v6.02a.586.586 0 0 0 1.172 0v-6.02l1.433-1.433a1.856 1.856 0 0 0 .291.181l.559.279a.586.586 0 1 0 .524-1.048l-.559-.279a.663.663 0 0 1-.369-.6v-1.289a4.341 4.341 0 0 0 1.877-3.574zm-4.344-6.929a1.294 1.294 0 0 1 1.293 1.293 1.313 1.313 0 0 1-.02.231 4.343 4.343 0 0 0-2.543 0 1.285 1.285 0 0 1 1.271-1.523zm0 2.505a3.175 3.175 0 0 1 3.172 3.172v.212a3.678 3.678 0 0 1-3.955-1.19.586.586 0 0 0-.883-.063 3.833 3.833 0 0 1-1.5.959 3.175 3.175 0 0 1 3.166-3.09zm0 11.111L4.868 145.7a1.855 1.855 0 0 0 .061-.47v-.715a4.352 4.352 0 0 0 2.586 0v.715a1.855 1.855 0 0 0 .061.47zm0-3.515a3.175 3.175 0 0 1-3.172-3.172v-.121a4.7 4.7 0 0 0 1.883-.938 5.288 5.288 0 0 0 1.087.791 4.661 4.661 0 0 0 2.239.578 4.908 4.908 0 0 0 1.13-.135 3.176 3.176 0 0 1-3.167 2.997z" transform="translate(0 -132.265)"/>
                  </g>
            </g>
            <g id="Group_84" transform="translate(28.182 96.568)">
                  <g id="Group_83">
                     <path id="Path_151" d="M371.182 160.366l-3.279-1.64a.663.663 0 0 1-.368-.6v-.83a3.709 3.709 0 0 0 1.252-2.779v-.667h.04a.586.586 0 0 0 .586-.586v-1.252a3.722 3.722 0 0 0-3.713-3.712h-1.253a3.722 3.722 0 0 0-3.717 3.717v1.252a.586.586 0 0 0 .586.586h.04v.668a3.709 3.709 0 0 0 1.244 2.777v.83a.663.663 0 0 1-.369.6.586.586 0 1 0 .524 1.048 1.867 1.867 0 0 0 .291-.181l1.433 1.433v7.9a.586.586 0 0 0 1.172 0v-7.9l1.433-1.433a1.861 1.861 0 0 0 .291.181l3.173 1.587-.962.962a2.449 2.449 0 0 0-.722 1.743v4.858a.586.586 0 0 0 1.172 0v-4.858a1.284 1.284 0 0 1 .379-.914l.912-.912a1.3 1.3 0 0 1 .043.33v6.354a.586.586 0 0 0 1.172 0v-6.358a2.451 2.451 0 0 0-1.36-2.204zm-9.284-7.8v-.546a2.548 2.548 0 0 1 2.545-2.545h1.257a2.548 2.548 0 0 1 2.545 2.545v.651a8.961 8.961 0 0 1-4.1-1.138.586.586 0 0 0-.739.073 3.838 3.838 0 0 1-1.506.955zm3.172 7.393l-1.354-1.354a1.856 1.856 0 0 0 .061-.47v-.125a3.714 3.714 0 0 0 2.586 0v.125a1.852 1.852 0 0 0 .061.47zm0-2.889a2.548 2.548 0 0 1-2.545-2.545v-.945a4.959 4.959 0 0 0 1.375-.839 10.41 10.41 0 0 0 3.716 1.056v.727a2.548 2.548 0 0 1-2.546 2.542z" transform="translate(-360.726 -148.298)"/>
                  </g>
            </g>
         </g>
      </svg>
