  <svg xmlns="http://www.w3.org/2000/svg" id="Page-1" width="40" height="40.002" viewBox="0 0 40 40.002" fill='#fff'>

         <g id="_004---Mail">
            <path id="Shape" d="M32 6.667h-7.333V5.333H30A1.333 1.333 0 0 0 31.333 4V1.333A1.333 1.333 0 0 0 30 0h-5.333a1.333 1.333 0 0 0-1.333 1.333v5.334h-10a7.949 7.949 0 0 0-7.884 6.667H2a2 2 0 0 0-2 2v9.333a2 2 0 0 0 2 2h18v12A1.415 1.415 0 0 0 21.481 40h5.7a1.415 1.415 0 0 0 1.481-1.333v-12h10A1.333 1.333 0 0 0 40 25.333V14.667a8.009 8.009 0 0 0-8-8zm-7.333-5.334H30V4h-5.333zM13.333 8A6.674 6.674 0 0 1 20 14.667v10.666h-1.456a1.977 1.977 0 0 0 .123-.667v-9.333a2 2 0 0 0-2-2H6.8A6.624 6.624 0 0 1 13.333 8zM6.481 20.207l-5.148 4.357v-8.713zm1.032.873l.529.447a2.009 2.009 0 0 0 2.583 0l.533-.448 5.022 4.254H2.487zm9.821-5.229v8.713l-5.147-4.357zm-.667-1.185l-6.906 5.847a.667.667 0 0 1-.857 0L2 14.667zm10.68 23.949a.23.23 0 0 1-.162.052h-5.7a.933.933 0 0 1-.133-.019c-.008 0-.013 0-.014.009v-11.99h2v10a.667.667 0 1 0 1.333 0v-10h2.667zm11.32-13.282H21.333V14.667A8 8 0 0 0 17.746 8H32a6.674 6.674 0 0 1 6.667 6.667z" />
            <path id="Shape-2" d="M45.333 28A1.333 1.333 0 0 0 44 29.333V32a1.333 1.333 0 0 0 1.333 1.333h5.333A1.333 1.333 0 0 0 52 32v-2.667A1.333 1.333 0 0 0 50.667 28zm0 4v-2.667h5.333V32z"   transform="translate(-14.667 -9.333)"/>
            <path id="Shape-3" d="M10.667 25.333h4a.667.667 0 0 0 0-1.333h-4a.667.667 0 1 0 0 1.333z"   transform="translate(-3.333 -8)"/>
         </g>
      </svg>