 <svg xmlns="http://www.w3.org/2000/svg" width="96.001" height="96" viewBox="0 0 96.001 96" >
            <g>
               <g transform="translate(0 -.001) translate(1.406 1.407)">
                     <g>
                        <path fill="#09eaa3" d="M119.016 16.135v59.047a8.619 8.619 0 0 1-8.6 8.633H45.681a8.617 8.617 0 0 1-8.6-8.633V16.135a8.617 8.617 0 0 1 8.6-8.633h64.731a8.619 8.619 0 0 1 8.6 8.633z" transform="translate(5.546) translate(-37.078 -7.502)"/>
                        <path fill="#14bb87" d="M420.542 16.135v59.047a8.619 8.619 0 0 1-8.6 8.633h-3.75a8.619 8.619 0 0 0 8.6-8.633V16.135a8.619 8.619 0 0 0-8.6-8.633h3.75a8.619 8.619 0 0 1 8.6 8.633z" transform="translate(5.546) translate(-338.604 -7.502)"/>
                        <path fill="#d9f0f4" d="M137.714 70.1v53.7a3.045 3.045 0 0 1-3.039 3.051H70.039A3.045 3.045 0 0 1 67 123.8V70.1a3.046 3.046 0 0 1 3.041-3.051h64.635a3.046 3.046 0 0 1 3.039 3.051z" transform="translate(5.546) translate(-61.388 -55.886)"/>
                        <path fill="#bae1e5" d="M414.727 70.1v53.7a3.045 3.045 0 0 1-3.039 3.051h-3.75a3.045 3.045 0 0 0 3.039-3.051V70.1a3.046 3.046 0 0 0-3.039-3.051h3.75a3.046 3.046 0 0 1 3.039 3.051z" transform="translate(5.546) translate(-338.401 -55.886)"/>
                     </g>
                     <path fill="#56788b" d="M298.635 291.794l2.365 3.257-5.8 5.813-3.259-2.364-5.391 2.237-.63 3.977H277.706l-.634-3.975-5.394-2.235-3.255 2.366-5.807-5.807 2.363-3.261-2.237-5.394-3.973-.63v-8.216l3.973-.634 2.231-5.4-2.364-3.257 5.805-5.811 3.257 2.364 5.393-2.237.628-3.977H285.908l.632 3.975 5.394 2.233 3.255-2.366 5.809 5.809-2.363 3.259 2.235 5.394 3.975.63v8.218l-3.971.632z" transform="translate(-211.653 -211.529)"/>
                     <path fill="#415e6f" d="M399.767 291.793l2.364 3.257-5.8 5.813-3.259-2.364-5.391 2.237-.63 3.977h-3.8l.724-4.566a3.743 3.743 0 0 1 2.265-2.876l5.393-2.237a3.746 3.746 0 0 1 3.639.428l.666.484 1.279-1.283-.484-.667a3.745 3.745 0 0 1-.431-3.636l2.233-5.4a3.748 3.748 0 0 1 2.874-2.271l.812-.129v-1.815l-.812-.128a3.753 3.753 0 0 1-2.878-2.269l-2.235-5.394a3.753 3.753 0 0 1 .427-3.638l.486-.668-1.281-1.281-.664.482a3.752 3.752 0 0 1-3.639.431l-5.394-2.233a3.748 3.748 0 0 1-2.269-2.876l-.726-4.562h3.8l.632 3.975 5.394 2.233 3.255-2.366 5.809 5.809-2.363 3.259 2.235 5.394 3.975.63v8.218l-3.971.632z" transform="translate(-312.784 -211.528)"/>
                     <circle cx="10.934" cy="10.934" r="10.934" fill="#fff" transform="translate(59.134 59.201)"/>
                     <g>
                        <path fill="#ff6b81" d="M36.891 116.111v14.179A2.892 2.892 0 0 1 34 133.183H15.291L7.5 139.11v-23a2.892 2.892 0 0 1 2.889-2.893H34a2.892 2.892 0 0 1 2.891 2.894z" transform="translate(0 19.822) translate(-7.5 -113.218)"/>
                        <path fill="#ed2061" d="M135.479 116.112v14.179a2.892 2.892 0 0 1-2.889 2.893h-3.75a2.892 2.892 0 0 0 2.889-2.893v-14.179a2.892 2.892 0 0 0-2.889-2.893h3.75a2.892 2.892 0 0 1 2.889 2.893z" transform="translate(0 19.822) translate(-106.089 -113.219)"/>
                     </g>
               </g>
               <g>
                     <path d="M300.148 271.448a1.406 1.406 0 0 0-1.186-1.388l-3.2-.507-1.633-3.941 1.9-2.623a1.406 1.406 0 0 0-.144-1.82l-5.809-5.808a1.406 1.406 0 0 0-1.821-.143l-2.618 1.9-3.94-1.631-.509-3.2a1.406 1.406 0 0 0-1.389-1.185h-8.211a1.406 1.406 0 0 0-1.388 1.198l-.506 3.2-3.937 1.634-2.62-1.9a1.406 1.406 0 0 0-1.821.144l-5.8 5.812a1.406 1.406 0 0 0-.143 1.82l1.9 2.62-1.631 3.944-3.2.509a1.406 1.406 0 0 0-1.185 1.389v8.216a1.406 1.406 0 0 0 1.186 1.388l3.2.507 1.633 3.941-1.9 2.623a1.406 1.406 0 0 0 .144 1.82l5.808 5.808a1.406 1.406 0 0 0 1.821.143l2.618-1.9 3.94 1.631.509 3.2a1.406 1.406 0 0 0 1.389 1.185h8.211a1.406 1.406 0 0 0 1.388-1.186l.507-3.2 3.943-1.648 2.62 1.9a1.406 1.406 0 0 0 1.821-.144l5.8-5.812a1.406 1.406 0 0 0 .143-1.82l-1.9-2.62 1.631-3.943 3.2-.509a1.406 1.406 0 0 0 1.185-1.389zm-5.6 7.462a1.407 1.407 0 0 0-1.078.851l-2.232 5.4a1.406 1.406 0 0 0 .161 1.363l1.66 2.286-4.107 4.113-2.285-1.659a1.405 1.405 0 0 0-1.365-.161l-5.391 2.237a1.406 1.406 0 0 0-.85 1.079l-.442 2.791h-5.81l-.444-2.789a1.407 1.407 0 0 0-.851-1.078l-5.395-2.234a1.406 1.406 0 0 0-1.365.162l-2.283 1.66-4.11-4.11 1.659-2.288a1.406 1.406 0 0 0 .16-1.364l-2.236-5.395a1.407 1.407 0 0 0-1.079-.85l-2.789-.442v-5.816l2.787-.444a1.407 1.407 0 0 0 1.078-.851l2.232-5.4a1.407 1.407 0 0 0-.161-1.364l-1.66-2.286 4.107-4.113 2.285 1.659a1.406 1.406 0 0 0 1.365.161l5.391-2.237a1.407 1.407 0 0 0 .85-1.079l.442-2.791h5.81l.444 2.789a1.407 1.407 0 0 0 .851 1.078l5.395 2.234a1.407 1.407 0 0 0 1.365-.162l2.283-1.66 4.111 4.11-1.659 2.288a1.406 1.406 0 0 0-.16 1.364l2.236 5.395a1.406 1.406 0 0 0 1.079.85l2.789.442v5.816z" transform="translate(0 -.001) translate(0 .001) translate(-204.151 -204.024)"/>
                     <path d="M31.261 17.03a1.406 1.406 0 0 0 1.406-1.406V10.04a7.217 7.217 0 0 1 7.191-7.226h45.348a1.406 1.406 0 0 0 0-2.813H39.859a10.033 10.033 0 0 0-10 10.039v5.584a1.406 1.406 0 0 0 1.402 1.406z" transform="translate(0 -.001) translate(0 .001) translate(-24.257 -.001)"/>
                     <path d="M353.986 2.814h12.777a7.217 7.217 0 0 1 7.191 7.226v38.422a1.406 1.406 0 0 0 2.813 0V10.04A10.033 10.033 0 0 0 366.763 0h-12.777a1.406 1.406 0 1 0 0 2.813z" transform="translate(0 -.001) translate(0 .001) translate(-286.471 -.001)"/>
                     <path d="M67.492 286.138H39.859a7.217 7.217 0 0 1-7.191-7.226v-19.259a1.406 1.406 0 0 0-2.813 0v19.258a10.033 10.033 0 0 0 10 10.039h27.637a1.406 1.406 0 1 0 0-2.812z" transform="translate(0 -.001) translate(0 .001) translate(-24.257 -209.826)"/>
                     <path d="M133.879 381.286h16.338a1.406 1.406 0 1 0 0-2.812h-16.338a1.406 1.406 0 1 0 0 2.813z" transform="translate(0 -.001) translate(0 .001) translate(-107.634 -307.51)"/>
                     <path d="M61.166 242.495a1.406 1.406 0 0 0-1.406 1.405v22.446a4.456 4.456 0 0 0 4.44 4.454h4.013a1.406 1.406 0 0 0 0-2.813H64.2a1.64 1.64 0 0 1-1.632-1.644V243.9a1.406 1.406 0 0 0-1.402-1.405z" transform="translate(0 -.001) translate(0 .001) translate(-48.555 -197.027)"/>
                     <path d="M131.838 96.989a1.406 1.406 0 0 0 1.406-1.406V64.011a4.456 4.456 0 0 0-4.445-4.457H64.2a4.456 4.456 0 0 0-4.444 4.457 1.406 1.406 0 1 0 2.813 0 1.64 1.64 0 0 1 1.631-1.644h64.6a1.64 1.64 0 0 1 1.632 1.644v31.572a1.406 1.406 0 0 0 1.406 1.406z" transform="translate(0 -.001) translate(0 .001) translate(-48.555 -48.388)"/>
                     <path d="M83.464 32.146h5.741a1.406 1.406 0 1 0 0-2.813h-5.741a1.406 1.406 0 1 0 0 2.813z" transform="translate(0 -.001) translate(0 .001) translate(-66.672 -23.833)"/>
                     <path d="M149.167 32.146a1.406 1.406 0 1 0 0-2.813h-5.741a1.406 1.406 0 0 0 0 2.813z" transform="translate(0 -.001) translate(0 .001) translate(-115.391 -23.833)"/>
                     <path d="M27.892 128.39a4.3 4.3 0 0 0 4.293-4.3V109.9a4.3 4.3 0 0 0-4.293-4.3h-1.733a1.406 1.406 0 1 0 0 2.813h1.733a1.487 1.487 0 0 1 1.481 1.489v14.191a1.487 1.487 0 0 1-1.481 1.489H9.193a1.406 1.406 0 0 0-.852.288l-5.528 4.212V109.9a1.487 1.487 0 0 1 1.481-1.489H19.7a1.406 1.406 0 1 0 0-2.813H4.293A4.3 4.3 0 0 0 0 109.9v23.02a1.406 1.406 0 0 0 2.259 1.118l7.409-5.645z" transform="translate(0 -.001) translate(0 .001) translate(0 -85.797)"/>
                     <path d="M56.752 142.7a1.406 1.406 0 0 0-1.406-1.406H39.815a1.406 1.406 0 1 0 0 2.813h15.531a1.406 1.406 0 0 0 1.406-1.407z" transform="translate(0 -.001) translate(0 .001) translate(-31.207 -114.805)"/>
                     <path d="M39.815 175.328a1.406 1.406 0 1 0 0 2.813h13.66a1.406 1.406 0 1 0 0-2.813z" transform="translate(0 -.001) translate(0 .001) translate(-31.207 -142.454)"/>
                     <path d="M338.675 326.675a1.406 1.406 0 0 0-1.406 1.406 9.522 9.522 0 1 1-1.551-5.215 1.406 1.406 0 0 0 2.353-1.541 12.344 12.344 0 1 0 2.011 6.756 1.406 1.406 0 0 0-1.407-1.406z" transform="translate(0 -.001) translate(0 .001) translate(-256.274 -256.539)"/>
                     <path d="M115.842 292.116h6.023a1.406 1.406 0 1 0 0-2.812h-6.023a1.406 1.406 0 1 0 0 2.813z" transform="translate(0 -.001) translate(0 .001) translate(-92.979 -235.059)"/>
                     <path d="M115.842 327.117h9.765a1.406 1.406 0 0 0 0-2.813h-9.765a1.406 1.406 0 0 0 0 2.813z" transform="translate(0 -.001) translate(0 .001) translate(-92.979 -263.497)"/>
                     <path d="M357.678 149.495h-6.023a1.406 1.406 0 0 0 0 2.813h6.023a1.406 1.406 0 0 0 0-2.813z" transform="translate(0 -.001) translate(0 .001) translate(-284.577 -121.465)"/>
                     <path d="M341.463 114.495H331.7a1.406 1.406 0 0 0 0 2.813h9.765a1.406 1.406 0 0 0 0-2.813z" transform="translate(0 -.001) translate(0 .001) translate(-268.362 -93.027)"/>
               </g>
            </g>
         </svg>