<svg xmlns="http://www.w3.org/2000/svg" id="social-network" width="96" height="96" viewBox="0 0 96 96" >

            <g id="Group_63" transform="translate(1.406 1.406)">
               <g id="Group_58" transform="translate(15.788 15.101)">
                     <path id="Path_105" d="M153.386 118.879a30.843 30.843 0 0 1-30.842 30.842q-.945 0-1.875-.056a30.843 30.843 0 0 1 0-61.571q.931-.056 1.875-.056a30.842 30.842 0 0 1 30.842 30.841z" fill='#d9f0f4' transform="translate(-91.702 -88.037)"/>
                     <path id="Path_106" d="M278.909 118.879a30.843 30.843 0 0 1-30.842 30.842q-.945 0-1.875-.056a30.843 30.843 0 0 0 0-61.571q.931-.056 1.875-.056a30.842 30.842 0 0 1 30.842 30.841z" fill='#bae1e5' transform="translate(-217.225 -88.037)"/>
                     <g id="Group_57" transform="translate(1.104 11.708)">
                        <ellipse id="Ellipse_12" cx="3.283" cy="3.281" fill='#ff6b81' rx="3.283" ry="3.281"/>
                        <ellipse id="Ellipse_13" cx="3.283" cy="3.281" fill='#ff6b81' rx="3.283" ry="3.281" transform="translate(26.455 25.589)"/>
                        <ellipse id="Ellipse_14" cx="3.283" cy="3.281" fill='#ff6b81' rx="3.283" ry="3.281" transform="translate(44.308 5.874)"/>
                     </g>
               </g>
               <g id="Group_59">
                     <path  id="Path_107" d="M25.527 16.514A9.016 9.016 0 1 1 16.512 7.5a9 9 0 0 1 9.015 9.014z" fill='#d9f0f4' transform="translate(-7.497 -7.499)"/>
                     <path id="Path_108" d="M56.467 16.514a9.013 9.013 0 0 1-10.886 8.818 9.016 9.016 0 0 0 0-17.636 9.016 9.016 0 0 1 10.89 8.818z" fill='#bae1e5' transform="translate(-38.437 -7.499)"/>
                     <path id="Path_109" d="M38 72.1a9.016 9.016 0 0 1-10.549 0 5.2 5.2 0 0 1 5.274-5.184 5.292 5.292 0 0 1 4.232 2.068A5.116 5.116 0 0 1 38 72.1z" fill='#ff6b81' transform="translate(-23.706 -55.778)"/>
                     <path id="Path_110" fill="#ed2061" d="M52.743 81.065a9.008 9.008 0 0 1-7.143 1.508 9.029 9.029 0 0 0 6.1-4.624 5.116 5.116 0 0 1 1.042 3.116z" transform="translate(-38.453 -64.74)"/>
                     <circle id="Ellipse_15" cx="2.813" cy="2.813" r="2.813" fill='#fdd9b4' transform="translate(6.202 5.516)"/>
               </g>
               <g id="Group_60" transform="translate(75.158)">
                     <path id="Path_111" d="M426.37 16.514a9.016 9.016 0 1 1-9.015-9.014 9 9 0 0 1 9.015 9.014z" fill='#d9f0f4' transform="translate(-408.34 -7.499)"/>
                     <path id="Path_112" d="M457.31 16.514a9.013 9.013 0 0 1-10.886 8.818 9.016 9.016 0 0 0 0-17.636 9.016 9.016 0 0 1 10.89 8.818z" fill='#bae1e5' transform="translate(-439.28 -7.499)"/>
                     <path id="Path_113" fill="#09eaa3" d="M438.839 72.1a9.016 9.016 0 0 1-10.549 0 5.2 5.2 0 0 1 5.274-5.184 5.292 5.292 0 0 1 4.232 2.068 5.116 5.116 0 0 1 1.043 3.116z" transform="translate(-424.549 -55.778)"/>
                     <path id="Path_114" fill="#14bb87" d="M453.586 81.065a9.008 9.008 0 0 1-7.146 1.507 9.029 9.029 0 0 0 6.1-4.624 5.116 5.116 0 0 1 1.042 3.116z" transform="translate(-439.296 -64.74)"/>
                     <circle id="Ellipse_16" cx="2.813" cy="2.813" r="2.813" fill='#fdd9b4' transform="translate(6.202 5.516)"/>
               </g>
               <g id="Group_61" transform="translate(0 75.158)">
                     <path id="Path_115" d="M25.527 417.356a9.016 9.016 0 1 1-9.015-9.015 9 9 0 0 1 9.015 9.015z" fill='#d9f0f4' transform="translate(-7.497 -408.341)"/>
                     <path id="Path_116" d="M56.467 417.356a9.013 9.013 0 0 1-10.886 8.818 9.016 9.016 0 0 0 0-17.636 9.016 9.016 0 0 1 10.89 8.818z" fill='#bae1e5' transform="translate(-38.437 -408.341)"/>
                     <path id="Path_117" fill="#56788b" d="M38 472.946a9.016 9.016 0 0 1-10.549 0 5.2 5.2 0 0 1 5.274-5.184 5.292 5.292 0 0 1 4.232 2.068A5.116 5.116 0 0 1 38 472.946z" transform="translate(-23.706 -456.621)"/>
                     <path id="Path_118" fill="#415e6f" d="M52.743 481.908a9.008 9.008 0 0 1-7.146 1.508 9.029 9.029 0 0 0 6.1-4.624 5.116 5.116 0 0 1 1.046 3.116z" transform="translate(-38.453 -465.582)"/>
                     <circle id="Ellipse_17" cx="2.813" cy="2.813" r="2.813" fill='#fdd9b4' transform="translate(6.202 5.516)"/>
               </g>
               <g id="Group_62" transform="translate(75.158 75.158)">
                     <path id="Path_119" d="M426.37 417.356a9.016 9.016 0 1 1-9.015-9.015 9 9 0 0 1 9.015 9.015z" fill='#d9f0f4' transform="translate(-408.34 -408.341)"/>
                     <path id="Path_120" d="M457.31 417.356a9.013 9.013 0 0 1-10.886 8.818 9.016 9.016 0 0 0 0-17.636 9.016 9.016 0 0 1 10.89 8.818z" fill='#bae1e5' transform="translate(-439.28 -408.341)"/>
                     <path id="Path_121" fill="#9090fb" d="M438.839 472.946a9.016 9.016 0 0 1-10.549 0 5.2 5.2 0 0 1 5.274-5.184 5.292 5.292 0 0 1 4.232 2.068 5.116 5.116 0 0 1 1.043 3.116z" transform="translate(-424.549 -456.621)"/>
                     <path id="Path_122" fill="#6c5fea" d="M453.586 481.908a9.008 9.008 0 0 1-7.146 1.508 9.03 9.03 0 0 0 6.1-4.624 5.116 5.116 0 0 1 1.046 3.116z" transform="translate(-439.296 -465.582)"/>
                     <circle id="Ellipse_18" cx="2.813" cy="2.813" r="2.813" fill='#fdd9b4' transform="translate(6.202 5.516)"/>
               </g>
            </g>
            <g id="Group_64">
               <path id="Path_123" d="M143.613 127.24a1.406 1.406 0 0 0-1.926.5 29.623 29.623 0 0 1-6.5 7.646q-1.735-.781-3.6-1.405a44.254 44.254 0 0 0 4.917-19.782h9.219a29.3 29.3 0 0 1-1.523 8.063 1.406 1.406 0 1 0 2.663.9A32.275 32.275 0 0 0 101.7 84.03a32.568 32.568 0 0 0-10.435 8.432 4.686 4.686 0 0 0-4.694 7.811 32.27 32.27 0 0 0 45.977 40.388 32.446 32.446 0 0 0 11.564-11.5 1.407 1.407 0 0 0-.499-1.921zm-14.782 5.913a49.011 49.011 0 0 0-11.114-1.538V127a4.688 4.688 0 0 0 0-8.944v-3.858h15.978a40.954 40.954 0 0 1-4.864 18.959zM116.31 124.4a1.875 1.875 0 1 1 1.877-1.875 1.878 1.878 0 0 1-1.877 1.875zm-1.406-6.347a4.688 4.688 0 0 0 0 8.944v4.618a49.014 49.014 0 0 0-11.114 1.538 40.954 40.954 0 0 1-4.864-18.959H114.9zm0 16.376v7.7c-3.476-.478-6.769-2.724-9.5-6.478a46.583 46.583 0 0 1 9.496-1.223zm2.812 7.7v-7.7a46.588 46.588 0 0 1 9.5 1.221c-2.736 3.754-6.029 6-9.5 6.478zm0-58.675c3.5.493 6.8 2.8 9.5 6.477a46.584 46.584 0 0 1-9.5 1.219zm-2.812 0v7.7a46.582 46.582 0 0 1-9.518-1.224c2.687-3.68 5.994-5.986 9.518-6.474zm2.812 10.511a49.011 49.011 0 0 0 11.111-1.537 33.853 33.853 0 0 1 2.8 6.445 4.686 4.686 0 0 0 1.8 8.57c.143 1.3.233 2.617.27 3.943h-15.981V93.961zm16.447 10.723a1.875 1.875 0 1 1 1.877-1.875 1.878 1.878 0 0 1-1.876 1.871zm11.563 6.7h-9.219c-.039-1.464-.139-2.921-.3-4.355a4.687 4.687 0 0 0-1.867-8.9 37.36 37.36 0 0 0-2.749-6.525q1.851-.622 3.582-1.4a29.39 29.39 0 0 1 10.554 21.173zm-13.165-23.13q-1.2.477-2.466.879a25.3 25.3 0 0 0-2.563-3.225q-.264-.28-.533-.546a29.407 29.407 0 0 1 5.564 2.885zm-29.59-1.714q1.322-.672 2.687-1.2a24.691 24.691 0 0 0-3.132 3.8q-1.27-.4-2.481-.884a29.254 29.254 0 0 1 2.927-1.723zM89.856 95.06a1.875 1.875 0 1 1-1.877 1.875 1.878 1.878 0 0 1 1.877-1.875zm0 6.563a4.685 4.685 0 0 0 3.717-7.542 29.747 29.747 0 0 1 3.864-3.881q1.733.78 3.593 1.4a38.547 38.547 0 0 0-3.35 8.589 1.406 1.406 0 1 0 2.719.718 35.589 35.589 0 0 1 3.379-8.487 49.012 49.012 0 0 0 11.122 1.541v17.421H98.926c.041-1.462.147-2.916.316-4.34a1.406 1.406 0 1 0-2.793-.331c-.182 1.532-.294 3.1-.336 4.67h-9.22a29.1 29.1 0 0 1 2.186-9.823 4.683 4.683 0 0 0 .777.064zm-2.962 12.571h9.219a44.257 44.257 0 0 0 4.917 19.782q-1.851.622-3.583 1.4a29.39 29.39 0 0 1-10.553-21.182zm13.165 23.131q1.2-.477 2.466-.879a24.786 24.786 0 0 0 3.079 3.764 29.413 29.413 0 0 1-5.546-2.886zm31.069.908a29.168 29.168 0 0 1-4.118 1.986 24.786 24.786 0 0 0 3.087-3.772q1.269.4 2.48.884-.711.469-1.449.901z" transform="translate(-68.289 -65.439)"/>
               <path id="Path_124" d="M10.421 400.843a10.421 10.421 0 1 0 10.421 10.421 10.433 10.433 0 0 0-10.421-10.421zm-3.8 17.01a3.8 3.8 0 0 1 3.8-3.057 3.8 3.8 0 0 1 3.8 3.057 7.6 7.6 0 0 1-7.6 0zm2.395-7.276a1.406 1.406 0 1 1 1.406 1.406 1.408 1.408 0 0 1-1.407-1.406zm7.5 5.242a6.49 6.49 0 0 0-2.591-2.888 4.219 4.219 0 1 0-7 0 6.493 6.493 0 0 0-2.591 2.888 7.609 7.609 0 1 1 12.182 0z" transform="translate(0 -325.685)"/>
               <path id="Path_125" d="M411.263 400.843a10.421 10.421 0 1 0 10.421 10.421 10.433 10.433 0 0 0-10.421-10.421zm-3.8 17.01a3.891 3.891 0 0 1 7.6 0 7.6 7.6 0 0 1-7.6 0zm2.395-7.276a1.406 1.406 0 1 1 1.406 1.406 1.408 1.408 0 0 1-1.407-1.406zm7.5 5.242a6.49 6.49 0 0 0-2.591-2.888 4.219 4.219 0 1 0-7 0 6.493 6.493 0 0 0-2.591 2.888 7.609 7.609 0 1 1 12.182 0z" transform="translate(-325.684 -325.685)"/>
               <path id="Path_126" d="M10.421 20.842A10.421 10.421 0 1 0 0 10.421a10.433 10.433 0 0 0 10.421 10.421zM6.62 17.01a3.8 3.8 0 0 1 3.8-3.057 3.8 3.8 0 0 1 3.8 3.057 7.6 7.6 0 0 1-7.6 0zm2.395-7.276a1.406 1.406 0 1 1 1.406 1.406 1.408 1.408 0 0 1-1.406-1.406zm1.406-6.922a7.6 7.6 0 0 1 6.091 12.163 6.491 6.491 0 0 0-2.591-2.888 4.219 4.219 0 1 0-7 0 6.492 6.492 0 0 0-2.591 2.889 7.6 7.6 0 0 1 6.091-12.164z"/>
               <path id="Path_127" d="M411.263 20.842a10.421 10.421 0 1 0-10.421-10.421 10.433 10.433 0 0 0 10.421 10.421zm-3.8-3.832a3.891 3.891 0 0 1 7.6 0 7.6 7.6 0 0 1-7.6 0zm2.395-7.276a1.406 1.406 0 1 1 1.406 1.406 1.408 1.408 0 0 1-1.407-1.406zm1.406-6.922a7.6 7.6 0 0 1 6.091 12.163 6.491 6.491 0 0 0-2.591-2.888 4.219 4.219 0 1 0-7 0 6.493 6.493 0 0 0-2.591 2.888 7.6 7.6 0 0 1 6.091-12.163z" transform="translate(-325.684)"/>
               <path id="Path_128" d="M37.608 134.681a1.407 1.407 0 0 0-1.7 1.027c-.184.742-4.451 18.446-.017 41.993a1.406 1.406 0 1 0 2.764-.52c-4.315-22.911-.06-40.621-.017-40.8a1.406 1.406 0 0 0-1.03-1.7z" transform="translate(-27.528 -109.395)"/>
               <path id="Path_129" d="M453.051 178.823a1.4 1.4 0 0 0 1.642-1.122c4.434-23.547.167-41.251-.017-41.993a1.406 1.406 0 0 0-2.73.676c.043.176 4.3 17.886-.017 40.8a1.407 1.407 0 0 0 1.122 1.639z" transform="translate(-367.173 -109.395)"/>
               <path id="Path_130" d="M180.336 448.773c-22.91 4.315-40.621.06-40.8.017a1.406 1.406 0 0 0-.676 2.73 92.3 92.3 0 0 0 20.469 2.025 116.585 116.585 0 0 0 21.524-2.008 1.406 1.406 0 0 0-.521-2.764z" transform="translate(-111.959 -364.608)"/>
               <path id="Path_131" d="M139.2 35.52a1.409 1.409 0 0 0 .339-.042c.176-.044 17.846-4.3 40.8.017a1.406 1.406 0 1 0 .521-2.764c-23.547-4.435-41.251-.167-41.993.017a1.406 1.406 0 0 0 .337 2.772z" transform="translate(-111.959 -24.963)"/>
            </g>
         </svg>