<svg xmlns="http://www.w3.org/2000/svg" id="speech-bubble" width="96" height="96" viewBox="0 0 96 96" >
         
            <g id="Group_70" transform="translate(1.406 1.406)">
               <path id="Path_132" fill="#09eaa3" d="M263.358 176.124v30.105a8.612 8.612 0 0 1-8.6 8.625h-2.841l-.292.343-8.749 10.3-9.039-10.641h-17.53a8.612 8.612 0 0 1-8.6-8.625V167.5h47.051a8.612 8.612 0 0 1 8.6 8.624z" transform="translate(-170.171 -137.499)"/>
               <path id="Path_133" fill="#14bb87" d="M451 176.124v30.1a8.612 8.612 0 0 1-8.6 8.625h-2.841l-.293.343-.617-.343a8.612 8.612 0 0 0 8.6-8.625v-30.1a8.612 8.612 0 0 0-8.6-8.625h3.75a8.612 8.612 0 0 1 8.601 8.625z" transform="translate(-357.809 -137.499)"/>
               <g id="Group_66" transform="translate(0 16.875)">
                     <path id="Path_134" fill="#d9f0f4" d="M81.885 106.124V135.1a8.612 8.612 0 0 1-8.6 8.625H37.018l-9.039 10.645-9.041-10.641H16.1a8.612 8.612 0 0 1-8.6-8.629v-28.98a8.612 8.612 0 0 1 8.6-8.62h57.188a8.612 8.612 0 0 1 8.597 8.624z" transform="translate(-7.5 -97.499)"/>
                     <path id="Path_135" fill="#bae1e5" d="M350.717 106.124V135.1a8.612 8.612 0 0 1-8.6 8.625h-3.75a8.612 8.612 0 0 0 8.6-8.625v-28.98a8.612 8.612 0 0 0-8.6-8.625h3.75a8.612 8.612 0 0 1 8.6 8.629z" transform="translate(-276.332 -97.499)"/>
               </g>
               <g id="Group_67" transform="translate(0 78.924)">
                     <path id="Path_136" fill="#4dd4f7" d="M52.239 438.036a4.651 4.651 0 0 1-4.646 4.656H12.146a4.657 4.657 0 0 1 0-9.313h1.245l3.583-4.95 3.581 4.95h27.038a4.651 4.651 0 0 1 4.646 4.657z" transform="translate(-7.5 -428.429)"/>
                     <path id="Path_137" fill="#1e90ff" d="M209.726 459.487a4.651 4.651 0 0 1-4.646 4.656h-3.75a4.657 4.657 0 0 0 0-9.313h3.75a4.651 4.651 0 0 1 4.646 4.657z" transform="translate(-164.987 -449.879)"/>
               </g>
               <g id="Group_68" transform="translate(13.906 37.176)">
                     <ellipse id="Ellipse_19" cx="2.81" cy="2.813" rx="2.81" ry="2.813" transform="translate(13.704)"/>
                     <ellipse id="Ellipse_20" cx="2.81" cy="2.813" rx="2.81" ry="2.813"/>
                     <ellipse id="Ellipse_21" cx="2.81" cy="2.813" rx="2.81" ry="2.813" transform="translate(27.407)"/>
                     <ellipse id="Ellipse_22" cx="2.81" cy="2.813" rx="2.81" ry="2.813" transform="translate(41.111)"/>
               </g>
               <path id="Path_138" fill="#fbdf63" d="M310.629 12.156a4.651 4.651 0 0 1-4.646 4.656h-1.245l-.227.315-3.356 4.637-3.581-4.952h-27.038a4.657 4.657 0 0 1 0-9.313h35.447a4.651 4.651 0 0 1 4.646 4.657z" transform="translate(-217.442 -7.499)"/>
               <g id="Group_69" transform="translate(84.791)">
                     <path id="Path_139" fill="#ffa402" d="M468.116 12.156a4.651 4.651 0 0 1-4.646 4.656h-1.245l-.227.315c-.388-.371-.591-.63-.471-.681A4.659 4.659 0 0 0 459.72 7.5h3.75a4.651 4.651 0 0 1 4.646 4.657z" transform="translate(-459.72 -7.499)"/>
               </g>
            </g>
            <g id="Group_71">
               <path id="Path_140" d="M10 139.042h2.191l8.619 10.145a1.406 1.406 0 0 0 2.144 0l8.619-10.145h35.621a10.029 10.029 0 0 0 10-10.031v-28.98a10.029 10.029 0 0 0-10-10.031h-43.98a1.406 1.406 0 0 0 0 2.813h43.98a7.213 7.213 0 0 1 7.191 7.219v28.978a7.213 7.213 0 0 1-7.191 7.219H30.925a1.407 1.407 0 0 0-1.072.5l-7.969 9.371-7.968-9.379a1.407 1.407 0 0 0-1.072-.5H10a7.213 7.213 0 0 1-7.191-7.219v-28.971A7.213 7.213 0 0 1 10 92.813h6.69a1.406 1.406 0 1 0 0-2.812H10a10.029 10.029 0 0 0-10 10.03v28.979a10.029 10.029 0 0 0 10 10.031z" transform="translate(0 -73.125)"/>
               <path id="Path_141" d="M257.267 312.958a1.406 1.406 0 0 0-1.406 1.406v10.05a7.213 7.213 0 0 1-7.191 7.219h-2.841a1.407 1.407 0 0 0-1.072.5l-7.968 9.379-7.968-9.379a1.407 1.407 0 0 0-1.072-.5h-17.533a7.213 7.213 0 0 1-7.191-7.219 1.406 1.406 0 0 0-2.812 0 10.029 10.029 0 0 0 10 10.031H227.1l8.619 10.145a1.406 1.406 0 0 0 2.143 0l8.619-10.145h2.191a10.029 10.029 0 0 0 10-10.031v-10.05a1.407 1.407 0 0 0-1.405-1.406z" transform="translate(-162.673 -254.278)"/>
               <path id="Path_142" d="M432.88 160h-4.541a1.406 1.406 0 0 0 0 2.813h4.541a7.213 7.213 0 0 1 7.191 7.219V183.6a1.406 1.406 0 0 0 2.813 0v-13.569A10.029 10.029 0 0 0 432.88 160z" transform="translate(-346.883 -130)"/>
               <path id="Path_143" d="M155.684 202.49a4.217 4.217 0 1 0-4.217 4.219 4.223 4.223 0 0 0 4.217-4.219zm-5.621 0a1.4 1.4 0 1 1 1.4 1.406 1.407 1.407 0 0 1-1.4-1.406z" transform="translate(-119.641 -161.095)"/>
               <path id="Path_144" d="M74.165 202.49a4.217 4.217 0 1 0 4.217-4.219 4.222 4.222 0 0 0-4.217 4.219zm4.217-1.406a1.406 1.406 0 1 1-1.4 1.406 1.407 1.407 0 0 1 1.4-1.407z" transform="translate(-60.259 -161.095)"/>
               <path id="Path_145" d="M228.77 202.49a4.217 4.217 0 1 0-4.217 4.219 4.223 4.223 0 0 0 4.217-4.219zm-5.621 0a1.4 1.4 0 1 1 1.4 1.406 1.407 1.407 0 0 1-1.399-1.406z" transform="translate(-179.024 -161.095)"/>
               <path id="Path_146" d="M301.856 202.49a4.217 4.217 0 1 0-4.217 4.219 4.223 4.223 0 0 0 4.217-4.219zm-5.621 0a1.4 1.4 0 1 1 1.4 1.406 1.407 1.407 0 0 1-1.4-1.406z" transform="translate(-238.406 -161.095)"/>
               <path id="Path_147" d="M41.5 425.877H28.715a1.406 1.406 0 0 0 0 2.813H41.5a3.25 3.25 0 0 1 0 6.5H6.053a3.25 3.25 0 0 1 0-6.5H7.3a1.406 1.406 0 0 0 1.139-.582l2.444-3.377 2.444 3.377a1.406 1.406 0 0 0 1.139.582h7.75a1.406 1.406 0 0 0 0-2.812h-7.035l-3.162-4.369a1.406 1.406 0 0 0-2.279 0l-3.162 4.369h-.526a6.063 6.063 0 0 0 0 12.126H41.5a6.063 6.063 0 0 0 0-12.126z" transform="translate(0 -342.002)"/>
               <path id="Path_148" d="M264.439 12.126h5.29a1.406 1.406 0 0 0 0-2.813h-5.29a3.25 3.25 0 0 1 0-6.5h35.447a3.25 3.25 0 0 1 0 6.5h-1.244a1.407 1.407 0 0 0-1.139.582l-2.443 3.377-2.444-3.377a1.407 1.407 0 0 0-1.139-.582h-15.245a1.406 1.406 0 0 0 0 2.813h14.526l3.162 4.369a1.406 1.406 0 0 0 2.279 0l3.162-4.369h.526a6.063 6.063 0 0 0 0-12.126h-35.448a6.063 6.063 0 0 0 0 12.126z" transform="translate(-209.939)"/>
            </g>
         </svg>
