 <svg xmlns="http://www.w3.org/2000/svg" width="36" height="33.6" viewBox="0 0 36 33.6" fill='#fff'>
    <g id="person-add" transform="translate(-1.125 -2.25)">
        <path id="Path_316" d="M20.25 18c3.712 0 6.991-3.495 7.313-7.792a7.407 7.407 0 0 0-1.907-5.667A7.288 7.288 0 0 0 20.25 2.25a7.284 7.284 0 0 0-5.414 2.277 7.445 7.445 0 0 0-1.9 5.68C13.253 14.5 16.532 18 20.25 18z"  transform="translate(1.391)"/>
        <path id="Path_317" d="M37.078 30.921a12.036 12.036 0 0 0-5.769-8 19.078 19.078 0 0 0-9.934-2.673 19.087 19.087 0 0 0-9.934 2.672 12.036 12.036 0 0 0-5.769 8 2.357 2.357 0 0 0 .545 2.047 2.42 2.42 0 0 0 1.831.783H34.7a2.42 2.42 0 0 0 1.833-.783 2.357 2.357 0 0 0 .543-2.047z"  transform="translate(0 2.1)"/>
        <path id="Path_318" d="M7.313 20.25v-2.813h2.813a1.125 1.125 0 1 0 0-2.25H7.313v-2.813a1.125 1.125 0 0 0-2.25 0v2.813H2.25a1.125 1.125 0 0 0 0 2.25h2.813v2.813a1.125 1.125 0 0 0 2.25 0z"  transform="translate(0 .884)"/>
    </g>
</svg>