<svg width="24" height="24" viewBox="0 0 24 24" fill="none" xmlns="http://www.w3.org/2000/svg">
<g clip-path="url(#clip0_22034_159837)">
<path d="M12.0032 3C11.5432 3 11.0732 3.04 10.6032 3.14C7.84325 3.67 5.64325 5.9 5.12325 8.66C4.64325 11.27 5.60325 13.67 7.34325 15.22C7.77325 15.6 8.00325 16.13 8.00325 16.69V19C8.00325 20.1 8.90325 21 10.0032 21H10.2832C10.6332 21.6 11.2632 22 12.0032 22C12.7432 22 13.3832 21.6 13.7232 21H14.0032C15.1032 21 16.0032 20.1 16.0032 19V16.69C16.0032 16.14 16.2232 15.6 16.6432 15.23C18.0932 13.95 19.0032 12.08 19.0032 10C19.0032 6.13 15.8732 3 12.0032 3ZM14.0032 17H10.0032V16H14.0032V17ZM10.0032 19V18H14.0032V19H10.0032ZM15.3132 13.74C15.2232 13.82 15.1532 13.92 15.0732 14H8.92325C8.84325 13.91 8.77325 13.81 8.68325 13.73C7.36325 12.55 6.77325 10.79 7.09325 9.03C7.45325 7.09 9.05324 5.48 10.9832 5.1C11.3232 5.03 11.6632 5 12.0032 5C14.7632 5 17.0032 7.24 17.0032 10C17.0032 11.43 16.3932 12.79 15.3132 13.74Z" fill="#151617"/>
<path d="M12.5 11H11.5V14H12.5V11Z" fill="black"/>
<path d="M10.379 8.87493L9.67188 9.58203L11.7932 11.7033L12.5003 10.9962L10.379 8.87493Z" fill="black"/>
<path d="M11.5038 11.0077L12.2109 11.7148L14.3322 9.59354L13.6251 8.88644L11.5038 11.0077Z" fill="black"/>
</g>
<defs>
<clipPath id="clip0_22034_159837">
<rect width="24" height="24" fill="white"/>
</clipPath>
</defs>
</svg>
