<svg width="18" height="18" viewBox="0 0 18 18" fill="none" xmlns="http://www.w3.org/2000/svg">
<path d="M7.21875 10.275L7.89375 8.11875L6.1125 6.73125H8.2875L9 4.5L9.69375 6.73125H11.8875L10.1063 8.11875L10.7625 10.275L9 8.94375L7.21875 10.275ZM4.575 17.25V11.55C4.0125 10.9625 3.60938 10.3187 3.36563 9.61875C3.12188 8.91875 3 8.2125 3 7.5C3 5.8 3.575 4.375 4.725 3.225C5.875 2.075 7.3 1.5 9 1.5C10.7 1.5 12.125 2.075 13.275 3.225C14.425 4.375 15 5.8 15 7.5C15 8.2125 14.8781 8.91875 14.6344 9.61875C14.3906 10.3187 13.9875 10.9625 13.425 11.55V17.25L9 15.7687L4.575 17.25ZM9 12.375C10.3625 12.375 11.5156 11.9031 12.4594 10.9594C13.4031 10.0156 13.875 8.8625 13.875 7.5C13.875 6.1375 13.4031 4.98437 12.4594 4.04062C11.5156 3.09687 10.3625 2.625 9 2.625C7.6375 2.625 6.48437 3.09687 5.54062 4.04062C4.59687 4.98437 4.125 6.1375 4.125 7.5C4.125 8.8625 4.59687 10.0156 5.54062 10.9594C6.48437 11.9031 7.6375 12.375 9 12.375ZM5.7 15.675L9 14.6437L12.3 15.675V12.4688C11.8 12.8313 11.2625 13.0937 10.6875 13.2562C10.1125 13.4187 9.55 13.5 9 13.5C8.45 13.5 7.8875 13.4187 7.3125 13.2562C6.7375 13.0937 6.2 12.8313 5.7 12.4688V15.675Z" fill="#C1C1FF"/>
</svg>
