<svg width="18" height="18" viewBox="0 0 18 18" fill="none" xmlns="http://www.w3.org/2000/svg">
<g clip-path="url(#clip0_22351_157675)">
<path d="M2.25 3C2.25 2.5875 2.5875 2.25 3 2.25H4.5V0.75H3C1.755 0.75 0.75 1.755 0.75 3V4.5H2.25V3Z" fill="#C1C1FF"/>
<path d="M2.25 15V13.5H0.75V15C0.75 16.245 1.755 17.25 3 17.25H4.5V15.75H3C2.5875 15.75 2.25 15.4125 2.25 15Z" fill="#C1C1FF"/>
<path d="M15 0.75H13.5V2.25H15C15.4125 2.25 15.75 2.5875 15.75 3V4.5H17.25V3C17.25 1.755 16.245 0.75 15 0.75Z" fill="#C1C1FF"/>
<path d="M15.75 15C15.75 15.4125 15.4125 15.75 15 15.75H13.5V17.25H15C16.245 17.25 17.25 16.245 17.25 15V13.5H15.75V15Z" fill="#C1C1FF"/>
<path d="M14.25 11.1525V6.8475C14.25 6.3075 13.965 5.8125 13.5 5.55L9.75 3.39C9.5175 3.255 9.2625 3.1875 9 3.1875C8.7375 3.1875 8.4825 3.255 8.25 3.39L4.5 5.5425C4.035 5.8125 3.75 6.3075 3.75 6.8475V11.1525C3.75 11.6925 4.035 12.1875 4.5 12.45L8.25 14.61C8.4825 14.745 8.7375 14.8125 9 14.8125C9.2625 14.8125 9.5175 14.745 9.75 14.61L13.5 12.45C13.965 12.1875 14.25 11.6925 14.25 11.1525ZM8.25 12.8775L5.25 11.1525V7.68L8.25 9.4275V12.8775ZM9 8.13L6.03 6.3975L9 4.6875L11.97 6.3975L9 8.13ZM12.75 11.1525L9.75 12.8775V9.4275L12.75 7.68V11.1525Z" fill="#C1C1FF"/>
</g>
<defs>
<clipPath id="clip0_22351_157675">
<rect width="18" height="18" fill="white"/>
</clipPath>
</defs>
</svg>
