<svg width="390" height="181" viewBox="0 0 390 181" fill="none" xmlns="http://www.w3.org/2000/svg">
<g clip-path="url(#clip0_682_25158)">
<g filter="url(#filter0_b_682_25158)">
<path d="M0.629883 0.298828L37.8399 88.5988L38.5599 90.2988L37.8399 91.9988L0.629883 180.299L28.4399 88.5988V91.9988L0.629883 0.298828Z" fill="white" fill-opacity="0.6"/>
<path d="M37.3791 91.8047L3.88663 171.283L27.9243 92.0217L27.9614 92.1439L28.9399 91.9988V88.5988L27.9614 88.4537L27.9243 88.576L3.88663 9.3147L37.3791 88.793L37.3795 88.7938L38.0169 90.2988L37.3795 91.8038L37.3791 91.8047Z" stroke="white"/>
</g>
<g filter="url(#filter1_b_682_25158)">
<path d="M47.3203 7.2793L81.7503 88.6993L82.4303 90.2993L81.7503 91.8993L47.3203 173.319L72.8603 88.6993V91.8993L47.3203 7.2793Z" fill="white" fill-opacity="0.6"/>
<path d="M81.2898 91.7046L50.4984 164.52L72.3774 92.0297L72.3816 92.0438L73.3603 91.8993V88.6993L72.3816 88.5548L72.3774 88.5689L50.4984 16.0786L81.2898 88.894L81.2901 88.8949L81.887 90.2993L81.2901 91.7037L81.2898 91.7046Z" stroke="white"/>
</g>
<g filter="url(#filter2_b_682_25158)">
<path d="M94 14.248L125.65 88.788L126.3 90.298L125.65 91.8081L94 166.348L117.29 88.788V91.8081L94 14.248Z" fill="white" fill-opacity="0.6"/>
<path d="M125.19 88.9835L125.191 88.9857L125.756 90.298L125.191 91.6104L125.19 91.6126L97.0951 157.779L116.864 91.944L117.79 91.8081V88.788L116.864 88.6521L97.0951 22.8167L125.19 88.9835Z" stroke="white"/>
</g>
<g filter="url(#filter3_b_682_25158)">
<path d="M140.689 21.2285L169.559 88.8785L170.159 90.2985L169.559 91.7185L140.689 159.369L161.719 88.8785V91.7185L140.689 21.2285Z" fill="white" fill-opacity="0.6"/>
<path d="M169.099 91.5239L143.686 151.072L161.356 91.8445L162.219 91.7185V88.8785L161.356 88.7525L143.686 29.5251L169.099 89.0731L169.1 89.0748L169.617 90.2985L169.1 91.5223L169.099 91.5239Z" stroke="white"/>
</g>
<g filter="url(#filter4_b_682_25158)">
<path d="M187.37 28.1973L213.46 88.9773L214.03 90.2973L213.46 91.6173L187.37 152.397L206.14 88.9773V91.6173L187.37 28.1973Z" fill="white" fill-opacity="0.6"/>
<path d="M213.001 91.42L190.258 144.403L205.846 91.7323L206.64 91.6173V88.9773L205.846 88.8622L190.258 36.1916L213.001 89.1745L213.001 89.1755L213.485 90.2973L213.001 91.419L213.001 91.42Z" stroke="white"/>
</g>
<g filter="url(#filter5_b_682_25158)">
<path d="M234.06 35.1777L257.36 89.0677L257.9 90.2977L257.36 91.5277L234.06 145.418L250.57 89.0677V91.5277L234.06 35.1777Z" fill="white" fill-opacity="0.6"/>
<path d="M256.901 91.3293L236.821 137.771L250.339 91.6325L251.07 91.5277V89.0677L250.339 88.9629L236.821 42.8245L256.901 89.2662L256.902 89.2687L257.354 90.2977L256.902 91.3267L256.901 91.3293Z" stroke="white"/>
</g>
<g filter="url(#filter6_b_682_25158)">
<path d="M280.74 42.1504L301.27 89.1704L301.77 90.3004L301.27 91.4304L280.74 138.45L295 89.1704V91.4304L280.74 42.1504Z" fill="white" fill-opacity="0.6"/>
<path d="M300.812 91.2303L283.356 131.211L294.84 91.524L295.5 91.4304V89.1704L294.84 89.0767L283.356 49.3901L300.812 89.3705L300.813 89.3727L301.224 90.3004L300.813 91.2281L300.812 91.2303Z" stroke="white"/>
</g>
<g filter="url(#filter7_b_682_25158)">
<path d="M327.43 49.127L345.17 89.257L345.64 90.297L345.17 91.337L327.43 131.467L339.43 89.257V91.337L327.43 49.127Z" fill="white" fill-opacity="0.6"/>
<path d="M344.712 91.1348L329.871 124.707L339.335 91.4199L339.93 91.337V89.257L339.335 89.174L329.871 55.8867L344.712 89.4591L344.714 89.4629L345.091 90.297L344.714 91.131L344.712 91.1348Z" stroke="white"/>
</g>
<g filter="url(#filter8_b_682_25158)">
<path d="M374.11 56.1074L389.08 89.3574L389.51 90.2974L389.08 91.2374L374.11 124.487L383.85 89.3574V91.2374L374.11 56.1074Z" fill="white" fill-opacity="0.6"/>
<path d="M388.624 91.0322L376.34 118.318L383.828 91.3085L384.35 91.2374V89.3574L383.828 89.2864L376.34 62.2773L388.624 89.5627L388.626 89.5654L388.961 90.2974L388.626 91.0294L388.624 91.0322Z" stroke="white"/>
</g>
</g>
<defs>
<filter id="filter0_b_682_25158" x="-7.37012" y="-7.70117" width="53.93" height="196" filterUnits="userSpaceOnUse" color-interpolation-filters="sRGB">
<feFlood flood-opacity="0" result="BackgroundImageFix"/>
<feGaussianBlur in="BackgroundImageFix" stdDeviation="4"/>
<feComposite in2="SourceAlpha" operator="in" result="effect1_backgroundBlur_682_25158"/>
<feBlend mode="normal" in="SourceGraphic" in2="effect1_backgroundBlur_682_25158" result="shape"/>
</filter>
<filter id="filter1_b_682_25158" x="39.3203" y="-0.720703" width="51.11" height="182.04" filterUnits="userSpaceOnUse" color-interpolation-filters="sRGB">
<feFlood flood-opacity="0" result="BackgroundImageFix"/>
<feGaussianBlur in="BackgroundImageFix" stdDeviation="4"/>
<feComposite in2="SourceAlpha" operator="in" result="effect1_backgroundBlur_682_25158"/>
<feBlend mode="normal" in="SourceGraphic" in2="effect1_backgroundBlur_682_25158" result="shape"/>
</filter>
<filter id="filter2_b_682_25158" x="86" y="6.24805" width="48.3" height="168.1" filterUnits="userSpaceOnUse" color-interpolation-filters="sRGB">
<feFlood flood-opacity="0" result="BackgroundImageFix"/>
<feGaussianBlur in="BackgroundImageFix" stdDeviation="4"/>
<feComposite in2="SourceAlpha" operator="in" result="effect1_backgroundBlur_682_25158"/>
<feBlend mode="normal" in="SourceGraphic" in2="effect1_backgroundBlur_682_25158" result="shape"/>
</filter>
<filter id="filter3_b_682_25158" x="132.689" y="13.2285" width="45.47" height="154.14" filterUnits="userSpaceOnUse" color-interpolation-filters="sRGB">
<feFlood flood-opacity="0" result="BackgroundImageFix"/>
<feGaussianBlur in="BackgroundImageFix" stdDeviation="4"/>
<feComposite in2="SourceAlpha" operator="in" result="effect1_backgroundBlur_682_25158"/>
<feBlend mode="normal" in="SourceGraphic" in2="effect1_backgroundBlur_682_25158" result="shape"/>
</filter>
<filter id="filter4_b_682_25158" x="179.37" y="20.1973" width="42.66" height="140.2" filterUnits="userSpaceOnUse" color-interpolation-filters="sRGB">
<feFlood flood-opacity="0" result="BackgroundImageFix"/>
<feGaussianBlur in="BackgroundImageFix" stdDeviation="4"/>
<feComposite in2="SourceAlpha" operator="in" result="effect1_backgroundBlur_682_25158"/>
<feBlend mode="normal" in="SourceGraphic" in2="effect1_backgroundBlur_682_25158" result="shape"/>
</filter>
<filter id="filter5_b_682_25158" x="226.06" y="27.1777" width="39.84" height="126.24" filterUnits="userSpaceOnUse" color-interpolation-filters="sRGB">
<feFlood flood-opacity="0" result="BackgroundImageFix"/>
<feGaussianBlur in="BackgroundImageFix" stdDeviation="4"/>
<feComposite in2="SourceAlpha" operator="in" result="effect1_backgroundBlur_682_25158"/>
<feBlend mode="normal" in="SourceGraphic" in2="effect1_backgroundBlur_682_25158" result="shape"/>
</filter>
<filter id="filter6_b_682_25158" x="272.74" y="34.1504" width="37.03" height="112.3" filterUnits="userSpaceOnUse" color-interpolation-filters="sRGB">
<feFlood flood-opacity="0" result="BackgroundImageFix"/>
<feGaussianBlur in="BackgroundImageFix" stdDeviation="4"/>
<feComposite in2="SourceAlpha" operator="in" result="effect1_backgroundBlur_682_25158"/>
<feBlend mode="normal" in="SourceGraphic" in2="effect1_backgroundBlur_682_25158" result="shape"/>
</filter>
<filter id="filter7_b_682_25158" x="319.43" y="41.127" width="34.21" height="98.3398" filterUnits="userSpaceOnUse" color-interpolation-filters="sRGB">
<feFlood flood-opacity="0" result="BackgroundImageFix"/>
<feGaussianBlur in="BackgroundImageFix" stdDeviation="4"/>
<feComposite in2="SourceAlpha" operator="in" result="effect1_backgroundBlur_682_25158"/>
<feBlend mode="normal" in="SourceGraphic" in2="effect1_backgroundBlur_682_25158" result="shape"/>
</filter>
<filter id="filter8_b_682_25158" x="366.11" y="48.1074" width="31.4" height="84.3799" filterUnits="userSpaceOnUse" color-interpolation-filters="sRGB">
<feFlood flood-opacity="0" result="BackgroundImageFix"/>
<feGaussianBlur in="BackgroundImageFix" stdDeviation="4"/>
<feComposite in2="SourceAlpha" operator="in" result="effect1_backgroundBlur_682_25158"/>
<feBlend mode="normal" in="SourceGraphic" in2="effect1_backgroundBlur_682_25158" result="shape"/>
</filter>
<clipPath id="clip0_682_25158">
<rect width="389" height="180" fill="white" transform="translate(0.5 0.150391)"/>
</clipPath>
</defs>
</svg>
