<svg width="427" height="53" viewBox="0 0 427 53" fill="none" xmlns="http://www.w3.org/2000/svg">
<path fill-rule="evenodd" clip-rule="evenodd" d="M282 52H0V48H282V52Z" fill="url(#paint0_linear_25376_182769)"/>
<path d="M313.023 30.376C313.397 30.376 313.583 31.832 313.583 34.744C313.583 37.5813 313.397 39 313.023 39H308.935C308.525 43.144 307.031 46.3733 304.455 48.688C301.917 51.04 298.575 52.216 294.431 52.216H286.535L285.863 43.704H295.383C297.138 43.704 298.501 43.2747 299.471 42.416C300.479 41.5947 300.983 40.456 300.983 39H297.847C293.703 39 290.735 38.1413 288.943 36.424C287.189 34.6693 286.311 31.888 286.311 28.08C286.311 25.6907 286.778 23.5627 287.711 21.696C288.682 19.792 290.026 18.3173 291.743 17.272C293.498 16.1893 295.495 15.648 297.735 15.648C301.282 15.648 304.063 16.7867 306.079 19.064C308.095 21.304 309.103 24.44 309.103 28.472V30.376H313.023ZM294.375 27.688C294.375 28.7707 294.637 29.5547 295.159 30.04C295.719 30.488 296.671 30.712 298.015 30.712H301.095V28.136C301.095 26.68 300.778 25.5787 300.143 24.832C299.546 24.0853 298.687 23.712 297.567 23.712C296.522 23.712 295.719 24.0853 295.159 24.832C294.637 25.5413 294.375 26.4933 294.375 27.688ZM321.819 30.376C322.603 30.376 323.219 30.1893 323.667 29.816C324.115 29.4053 324.339 28.8453 324.339 28.136V19.176H332.571V27.968C332.571 29.5733 333.392 30.376 335.035 30.376H336.883C337.256 30.376 337.443 31.8133 337.443 34.688C337.443 37.5627 337.256 39 336.883 39H334.643C331.656 39 329.547 38.1787 328.315 36.536C327.606 37.3947 326.728 38.0293 325.683 38.44C324.675 38.8133 323.387 39 321.819 39H311.907C311.534 39 311.347 37.5813 311.347 34.744C311.347 31.832 311.534 30.376 311.907 30.376H321.819ZM326.691 44.096V51.04H310.563V44.096H326.691ZM337.403 30.376C338.187 30.376 338.766 30.208 339.139 29.872C339.512 29.536 339.699 28.976 339.699 28.192V26.96C339.699 23.3013 340.744 20.408 342.835 18.28C344.926 16.152 347.763 15.088 351.347 15.088C354.931 15.088 357.694 16.1333 359.635 18.224C361.576 20.2773 362.547 23.2267 362.547 27.072V27.856C362.547 28.752 362.734 29.4053 363.107 29.816C363.518 30.1893 364.096 30.376 364.843 30.376H366.467C366.84 30.376 367.027 31.832 367.027 34.744C367.027 37.5813 366.84 39 366.467 39H364.955C361.856 39 359.71 38.1973 358.515 36.592C356.798 38.1973 354.296 39 351.011 39C349.331 39 347.894 38.776 346.699 38.328C345.504 37.88 344.608 37.2827 344.011 36.536C343.302 37.3947 342.406 38.0293 341.323 38.44C340.278 38.8133 338.971 39 337.403 39H335.779C335.406 39 335.219 37.5813 335.219 34.744C335.219 31.832 335.406 30.376 335.779 30.376H337.403ZM354.539 27.072C354.539 24.5333 353.382 23.264 351.067 23.264C348.79 23.264 347.651 24.5333 347.651 27.072C347.651 28.192 347.931 29.0693 348.491 29.704C349.088 30.3013 349.947 30.6 351.067 30.6C352.262 30.6 353.139 30.32 353.699 29.76C354.259 29.1627 354.539 28.2667 354.539 27.072ZM369.259 30.376C371.275 30.376 372.283 29.5173 372.283 27.8V19.176H380.403V27.8C380.403 29.5173 381.392 30.376 383.371 30.376C384.341 30.376 385.069 30.152 385.555 29.704C386.04 29.256 386.283 28.6213 386.283 27.8V19.176H394.459V27.8C394.459 29.5173 395.373 30.376 397.203 30.376C398.136 30.376 398.827 30.152 399.275 29.704C399.76 29.256 400.003 28.6213 400.003 27.8V19.176H408.123V28.024C408.123 31.4213 407.152 34.1093 405.211 36.088C403.269 38.0293 400.581 39 397.147 39C393.712 39 391.379 38.1227 390.147 36.368C389.437 37.264 388.541 37.936 387.459 38.384C386.376 38.7947 384.995 39 383.315 39C381.485 39 379.992 38.7947 378.835 38.384C377.677 37.936 376.781 37.264 376.147 36.368C375.437 37.264 374.523 37.936 373.403 38.384C372.32 38.7947 370.939 39 369.259 39H365.339C364.965 39 364.779 37.5813 364.779 34.744C364.779 31.832 364.965 30.376 365.339 30.376H369.259ZM423.745 36.592C423.745 39.6533 423.111 42.36 421.841 44.712C420.609 47.1013 418.836 48.9493 416.521 50.256C414.244 51.5627 411.575 52.216 408.513 52.216H403.249L402.577 43.592H408.177C410.529 43.592 412.321 42.9947 413.553 41.8C414.823 40.6427 415.457 38.944 415.457 36.704V19.176H423.745V36.592Z" fill="url(#paint1_linear_25376_182769)"/>
<defs>
<linearGradient id="paint0_linear_25376_182769" x1="282" y1="48.4453" x2="281.325" y2="34.4265" gradientUnits="userSpaceOnUse">
<stop stop-color="#0D72FF"/>
<stop offset="0.513259" stop-color="#9B69C6"/>
<stop offset="1" stop-color="#E13019"/>
</linearGradient>
<linearGradient id="paint1_linear_25376_182769" x1="282" y1="0" x2="377.42" y2="110.769" gradientUnits="userSpaceOnUse">
<stop stop-color="#0D72FF"/>
<stop offset="0.513259" stop-color="#9B69C6"/>
<stop offset="1" stop-color="#E13019"/>
</linearGradient>
</defs>
</svg>
