<svg width="16" height="14" viewBox="0 0 16 14" fill="none" xmlns="http://www.w3.org/2000/svg">
<path d="M8.00174 3.44405V0.599609H0.890625V13.3996H15.1128V3.44405H8.00174ZM3.73507 11.9774H2.31285V10.5552H3.73507V11.9774ZM3.73507 9.13294H2.31285V7.71072H3.73507V9.13294ZM3.73507 6.2885H2.31285V4.86628H3.73507V6.2885ZM3.73507 3.44405H2.31285V2.02183H3.73507V3.44405ZM6.57951 11.9774H5.15729V10.5552H6.57951V11.9774ZM6.57951 9.13294H5.15729V7.71072H6.57951V9.13294ZM6.57951 6.2885H5.15729V4.86628H6.57951V6.2885ZM6.57951 3.44405H5.15729V2.02183H6.57951V3.44405ZM13.6906 11.9774H8.00174V10.5552H9.42396V9.13294H8.00174V7.71072H9.42396V6.2885H8.00174V4.86628H13.6906V11.9774ZM12.2684 6.2885H10.8462V7.71072H12.2684V6.2885ZM12.2684 9.13294H10.8462V10.5552H12.2684V9.13294Z" fill="#C1C1FF"/>
</svg>
