<svg width="18" height="20" viewBox="0 0 18 20" fill="none" xmlns="http://www.w3.org/2000/svg">
<path d="M14.5352 1.35937L13.3086 0H3.66016C2.96484 0 2.69531 0.515625 2.69531 0.917969V4.54688H4.04687V1.65234C4.04687 1.49609 4.17578 1.36719 4.32812 1.36719H11.2305C11.3828 1.36719 11.457 1.39453 11.457 1.51953V6.33984H16.3711C16.5625 6.33984 16.6406 6.4375 16.6406 6.58594V18.3555C16.6406 18.6016 16.543 18.6406 16.3906 18.6406H4.32812C4.17578 18.6406 4.04687 18.5078 4.04687 18.3555V17.2812H2.70703V18.9766C2.69141 19.5781 3.00781 20.0039 3.66406 20.0039H17.0625C17.7617 20.0039 18 19.4961 18 19.0352V6.44531V5.1875L17.6523 4.80859L14.5352 1.35937ZM12.8359 1.51953L13.2227 1.95312L15.8203 4.80859L15.9648 4.98047H13.3125C13.1133 4.98047 12.9844 4.94531 12.9336 4.88281C12.8789 4.81641 12.8477 4.71094 12.8398 4.57031V1.51953H12.8359ZM11.7461 10.668H16.3242V12H11.7461V10.668ZM11.7461 8H16.3242V9.33203H11.7461V8ZM11.7461 13.3359H16.3242V14.668H11.7461V13.3359ZM0 5.625V16.293H10.4648V5.625H0ZM5.23437 11.832L4.59375 12.8086H5.23437V14H2.01562L4.35156 10.4922L2.28125 7.33594H4.00781L5.23047 9.17188L6.45312 7.33594H8.17969L6.10937 10.4922L8.44531 14H6.65625L5.23437 11.832Z" fill="#0074FF"/>
</svg>
