<svg width="17" height="15" viewBox="0 0 17 15" fill="none" xmlns="http://www.w3.org/2000/svg">
<path d="M10.0483 13.6225L12.1858 11.5L10.0483 9.3775L11.1133 8.32L13.2508 10.4275L15.3508 8.32L16.4158 9.3775L14.3083 11.5L16.4158 13.6225L15.3508 14.68L13.2508 12.55L11.1133 14.68L10.0483 13.6225V13.6225ZM8.75083 12.91C8.78083 13.135 8.70583 13.375 8.53333 13.5325C8.46395 13.602 8.38153 13.6572 8.2908 13.6948C8.20007 13.7325 8.10281 13.7518 8.00458 13.7518C7.90635 13.7518 7.80909 13.7325 7.71836 13.6948C7.62763 13.6572 7.54522 13.602 7.47583 13.5325L4.46833 10.525C4.38653 10.445 4.32433 10.3472 4.2866 10.2392C4.24887 10.1313 4.23663 10.016 4.25083 9.9025V6.0625L0.658331 1.465C0.536537 1.30865 0.481581 1.11044 0.505472 0.913697C0.529362 0.716951 0.630157 0.53766 0.785831 0.415C0.928331 0.31 1.08583 0.25 1.25083 0.25H11.7508C11.9158 0.25 12.0733 0.31 12.2158 0.415C12.3715 0.53766 12.4723 0.716951 12.4962 0.913697C12.5201 1.11044 12.4651 1.30865 12.3433 1.465L8.75083 6.0625V12.91V12.91ZM2.78083 1.75L5.75083 5.545V9.685L7.25083 11.185V5.5375L10.2208 1.75H2.78083Z" fill="#6868FA"/>
</svg>
