<svg width="26" height="26" viewBox="0 0 26 26" fill="none" xmlns="http://www.w3.org/2000/svg">
<path d="M10.4688 14.812L11.4287 11.7454L8.89542 9.77203H11.9888L13.0021 6.5987L13.9888 9.77203H17.1088L14.5754 11.7454L15.5088 14.812L13.0021 12.9187L10.4688 14.812ZM6.70875 24.732V16.6254C5.90875 15.7898 5.33542 14.8743 4.98875 13.8787C4.64208 12.8831 4.46875 11.8787 4.46875 10.8654C4.46875 8.44759 5.28653 6.42092 6.92208 4.78536C8.55764 3.14981 10.5843 2.33203 13.0021 2.33203C15.4199 2.33203 17.4465 3.14981 19.0821 4.78536C20.7176 6.42092 21.5354 8.44759 21.5354 10.8654C21.5354 11.8787 21.3621 12.8831 21.0154 13.8787C20.6688 14.8743 20.0954 15.7898 19.2954 16.6254V24.732L13.0021 22.6254L6.70875 24.732ZM13.0021 17.7987C14.9399 17.7987 16.5799 17.1276 17.9221 15.7854C19.2643 14.4431 19.9354 12.8031 19.9354 10.8654C19.9354 8.92759 19.2643 7.28759 17.9221 5.94536C16.5799 4.60314 14.9399 3.93203 13.0021 3.93203C11.0643 3.93203 9.42431 4.60314 8.08208 5.94536C6.73986 7.28759 6.06875 8.92759 6.06875 10.8654C6.06875 12.8031 6.73986 14.4431 8.08208 15.7854C9.42431 17.1276 11.0643 17.7987 13.0021 17.7987ZM8.30875 22.492L13.0021 21.0254L17.6954 22.492V17.932C16.9843 18.4476 16.2199 18.8209 15.4021 19.052C14.5843 19.2831 13.7843 19.3987 13.0021 19.3987C12.2199 19.3987 11.4199 19.2831 10.6021 19.052C9.78431 18.8209 9.01986 18.4476 8.30875 17.932V22.492Z" fill="#C1C1FF"/>
</svg>
