<svg width="71" height="24" viewBox="0 0 71 24" fill="none" xmlns="http://www.w3.org/2000/svg">
<g clip-path="url(#clip0_20736_86595)">
<path d="M10.9692 14.5234L9.65625 15.7633L10.9692 17.0001L12.1537 15.8814L13.3416 17.0001L14.6512 15.7633L13.3416 14.5234L12.1537 15.6453L10.9692 14.5234Z" fill="#961B1E"/>
<path d="M33.2329 12.5944H33.2724L33.3119 12.6099C34.0452 12.8246 34.8081 12.9356 35.5758 12.9393C36.2519 12.9533 36.9239 12.8359 37.55 12.5944L37.5961 12.5757L37.6422 12.5944C37.9065 12.7069 38.1836 12.7903 38.4681 12.843C38.8394 12.9057 39.2162 12.9349 39.5934 12.93C40.2676 12.9669 40.9305 12.7552 41.4427 12.3395C41.6712 12.1161 41.8477 11.85 41.9611 11.5584C42.0744 11.2667 42.122 10.956 42.1008 10.6459C42.0967 10.0352 41.9855 9.42933 41.7717 8.85291C41.5645 8.27917 41.272 7.73615 40.903 7.2401L40.857 7.17795L39.4684 8.04806L39.5145 8.11642C39.7599 8.46711 39.983 8.83134 40.1824 9.20716C40.3766 9.55831 40.5411 9.88771 40.6727 10.186C40.7311 10.3112 40.7678 10.4445 40.7813 10.5807C40.7852 10.6124 40.778 10.6445 40.7608 10.672C40.7435 10.6995 40.7172 10.7209 40.6859 10.733C40.306 10.8436 39.9079 10.8878 39.5112 10.8635C39.2253 10.8686 38.9393 10.8541 38.6556 10.82C38.524 10.8085 38.4001 10.7561 38.3036 10.6708C38.2274 10.5649 38.1904 10.4382 38.1983 10.3103L38.1687 8.09778H36.6912L36.6715 10.2917C36.6823 10.4228 36.6574 10.5544 36.5991 10.6739C36.5381 10.7546 36.4459 10.8094 36.3424 10.8262C36.1187 10.8633 35.8916 10.8789 35.6646 10.8728C35.4047 10.8728 35.1579 10.8728 34.9177 10.8573C34.8371 10.8614 34.7564 10.8501 34.6806 10.8239C34.6048 10.7977 34.5355 10.7573 34.4767 10.705C34.4357 10.6594 34.4049 10.6064 34.3863 10.5493C34.3676 10.4921 34.3614 10.432 34.3682 10.3725L34.7828 8.01388L33.3251 7.76528L32.894 9.98715C32.8617 10.1705 32.8041 10.3492 32.7229 10.5185C32.6773 10.61 32.5993 10.6836 32.5025 10.7267C32.3604 10.7663 32.2129 10.7852 32.0648 10.7827H31.7358C31.5695 10.7851 31.4036 10.7674 31.2422 10.7298C31.1309 10.6996 31.0343 10.6337 30.9691 10.5434C30.8771 10.3942 30.8168 10.2296 30.7914 10.0586C30.6836 9.56268 30.5077 9.08213 30.2682 8.62917C30.0334 8.17984 29.6963 7.78509 29.2811 7.47317C28.8584 7.15963 28.3345 6.99286 27.7971 7.00083C27.3904 6.98934 26.9901 7.09797 26.652 7.31158C26.3225 7.54162 26.0497 7.83634 25.8524 8.17547C25.5981 8.60712 25.3856 9.05954 25.2173 9.52724C25.1195 9.81303 24.9728 10.0818 24.783 10.3228C24.6381 10.4917 24.4416 10.6143 24.2203 10.6739C24.1122 10.7008 24.0023 10.7206 23.8913 10.733H13.4901C12.7069 10.733 12.6049 10.3228 12.6049 10.3197L12.5885 10.2451C12.4428 9.43861 12.2439 8.64153 11.9929 7.8585V7.79635L10.5089 7.88025L10.9893 10.214C11.0189 10.3451 11.0387 10.478 11.0485 10.6118L10.9366 10.6459H11.0485L11.065 10.7392H10.9695C10.9031 10.7561 10.8343 10.7635 10.7655 10.7609H8.92287V10.6677C8.84069 10.1576 8.68688 9.66019 8.46549 9.18852C8.2435 8.7151 7.90508 8.29854 7.47834 7.97348C7.04949 7.6672 6.52177 7.51023 5.98447 7.5291C5.52113 7.53173 5.07064 7.67318 4.69789 7.93308C4.27891 8.21839 3.94004 8.59602 3.71074 9.03314C3.46693 9.49214 3.34069 9.99881 3.34221 10.5123C3.3331 11.1049 3.53599 11.683 3.91804 12.1531C4.31619 12.641 4.99732 12.8803 5.96143 12.8803H7.45531L7.32698 13.0512C7.16357 13.2602 6.9632 13.441 6.7347 13.5857C5.9384 14.1202 4.71105 14.6049 3.08555 15.0369L3 15.0586L3.70087 17.0008L3.77984 16.9822C5.66529 16.4788 7.04729 15.7392 7.88636 14.751C8.33518 14.2287 8.65448 13.6182 8.82086 12.9642L8.84389 12.8803H9.85078C10.4694 12.8747 11.0826 12.7697 11.6638 12.5695L11.7 12.554L11.8284 12.4949L11.8777 12.4638L11.9337 12.4887L12.0949 12.554C12.86 12.773 13.6587 12.8686 14.4575 12.8367H23.6708C23.9604 12.8367 24.9508 12.7622 25.5102 12.0816L25.5365 12.0474C25.5827 11.9874 25.6255 11.9252 25.6648 11.861L25.7306 11.746L25.8359 11.8268C26.1029 12.026 26.3894 12.2009 26.6915 12.3489C27.0867 12.5509 27.5037 12.7123 27.9353 12.8305C28.7743 13.0574 29.4818 13.076 29.9096 12.8119C30.0705 12.714 30.2073 12.5847 30.311 12.4328L30.3768 12.3333L30.4755 12.4048L30.5676 12.4638L30.617 12.4918C31.0438 12.7288 31.5302 12.8533 32.0253 12.8523C32.4423 12.8449 32.8532 12.7571 33.2329 12.5944V12.5944ZM7.32369 10.82C6.96832 10.8386 6.6656 10.8479 6.40565 10.8479C5.93854 10.8732 5.47063 10.8141 5.02694 10.6739C4.9174 10.6454 4.82078 10.5838 4.75184 10.4985C4.68291 10.4132 4.64547 10.3089 4.64524 10.2016C4.6478 10.0649 4.68746 9.93117 4.76041 9.81313C4.84337 9.67342 4.96813 9.55992 5.11907 9.48684C5.30502 9.39663 5.51229 9.35278 5.72123 9.35943C5.92635 9.35799 6.12962 9.3961 6.3186 9.47144C6.50758 9.54678 6.67828 9.65777 6.82025 9.79759C7.09243 10.0472 7.29869 10.3538 7.42241 10.6926L7.47505 10.8293L7.32369 10.82ZM29.1922 10.9816C28.8976 10.9677 28.6063 10.9154 28.3268 10.8262C27.9526 10.7189 27.5883 10.5828 27.2377 10.4191C26.969 10.2964 26.7133 10.1497 26.4743 9.98094L26.4085 9.92811L26.4414 9.85353C26.5348 9.61888 26.682 9.40664 26.8724 9.23202C27.0883 9.05388 27.3693 8.96244 27.6556 8.97721C27.9307 8.97623 28.2012 9.04491 28.4387 9.17609C28.6921 9.3091 28.9157 9.48748 29.0968 9.70126C29.2707 9.90243 29.4125 10.1265 29.518 10.3663C29.565 10.4824 29.5896 10.6055 29.5904 10.7298C29.5904 10.8977 29.4686 10.9816 29.1922 10.9816V10.9816Z" fill="#961B1E"/>
<path d="M45.6044 10.1654C45.3543 9.37013 45.051 8.59064 44.6962 7.83168L44.6666 7.76953H44.6469L42.8141 8.83852C43.5775 10.0536 43.923 10.5756 44.2027 11.2593L44.3145 11.57V11.598C44.7193 12.8161 44.0875 13.5029 43.6762 13.8012C42.6659 14.354 41.5797 14.7722 40.4482 15.0442L40.3594 15.0691L41.1491 17.0082L41.2182 16.9927C41.7442 16.8695 42.2591 16.7074 42.7581 16.5079C43.238 16.3152 43.6974 16.0801 44.1303 15.8056C44.7079 15.4469 45.189 14.966 45.5353 14.401C45.8571 13.8274 46.018 13.1855 46.0025 12.5365C45.9851 11.7327 45.8511 10.9349 45.6044 10.1654V10.1654Z" fill="#961B1E"/>
</g>
<path d="M55.6383 18.21L58.9557 20.1704C59.0151 20.2118 59.0637 20.267 59.0972 20.3312C59.1307 20.3954 59.1482 20.4667 59.1482 20.5391C59.1482 20.6115 59.1307 20.6828 59.0972 20.747C59.0637 20.8112 59.0151 20.8664 58.9557 20.9078L55.5078 22.9356C55.4404 22.9779 55.3624 23.0004 55.2827 23.0004C55.2031 23.0004 55.1251 22.9779 55.0577 22.9356L51.7628 20.9797C51.7034 20.9383 51.6548 20.8831 51.6213 20.819C51.5878 20.7548 51.5703 20.6834 51.5703 20.611C51.5703 20.5386 51.5878 20.4673 51.6213 20.4031C51.6548 20.3389 51.7034 20.2838 51.7628 20.2423L55.1972 18.21C55.2646 18.1722 55.3405 18.1523 55.4178 18.1523C55.495 18.1523 55.571 18.1722 55.6383 18.21Z" fill="#961B1E"/>
<path d="M63.7266 4.77458V12.8679C63.7245 12.942 63.7041 13.0145 63.6672 13.0788C63.6303 13.1431 63.578 13.1973 63.515 13.2366L60.2472 15.179C60.1877 15.2204 60.1392 15.2756 60.1057 15.3398C60.0722 15.404 60.0547 15.4753 60.0547 15.5477C60.0547 15.6201 60.0722 15.6914 60.1057 15.7556C60.1392 15.8198 60.1877 15.875 60.2472 15.9164L63.5871 17.8903C63.6545 17.9326 63.7325 17.955 63.8121 17.955C63.8917 17.955 63.9698 17.9326 64.0372 17.8903L67.7867 15.6691C67.8496 15.6298 67.9019 15.5756 67.9388 15.5113C67.9757 15.447 67.9961 15.3745 67.9982 15.3004V6.75745C67.9961 6.68333 67.9757 6.61089 67.9388 6.54656C67.9019 6.48223 67.8496 6.42802 67.7867 6.38875L64.3748 4.40589C64.3088 4.37331 64.2358 4.35741 64.1622 4.35957C64.0886 4.36173 64.0166 4.38189 63.9527 4.41828C63.8887 4.45468 63.8346 4.50619 63.7952 4.56831C63.7558 4.63043 63.7322 4.70125 63.7266 4.77458Z" fill="#013B81"/>
<path d="M54.2581 17.166V8.69495C54.2602 8.62083 54.2806 8.54839 54.3175 8.48406C54.3545 8.41973 54.4067 8.36552 54.4697 8.32625L57.8456 6.3299C57.9116 6.29732 57.9846 6.28142 58.0582 6.28358C58.1318 6.28574 58.2037 6.3059 58.2677 6.34229C58.3317 6.37869 58.3857 6.4302 58.4251 6.49232C58.4646 6.55444 58.4881 6.62527 58.4937 6.69859V14.149C58.4994 14.2223 58.5229 14.2931 58.5624 14.3552C58.6018 14.4174 58.6558 14.4689 58.7198 14.5053C58.7838 14.5416 58.8557 14.5618 58.9293 14.564C59.0029 14.5661 59.0759 14.5502 59.1419 14.5177L62.5448 12.5033C62.6087 12.4654 62.6615 12.4114 62.6978 12.3467C62.7342 12.282 62.7528 12.2088 62.7519 12.1346V3.67708C62.7503 3.60338 62.7305 3.53121 62.6944 3.46691C62.6583 3.40262 62.6069 3.34818 62.5448 3.30839L58.7143 1.06024C58.6459 1.02078 58.5683 1 58.4892 1C58.4102 1 58.3326 1.02078 58.2642 1.06024L50.2116 5.79484C50.1486 5.83411 50.0963 5.88832 50.0594 5.95264C50.0225 6.01697 50.0021 6.08942 50 6.16353V19.1713C50.0056 19.2446 50.0292 19.3155 50.0686 19.3776C50.108 19.4397 50.1621 19.4912 50.2261 19.5276C50.29 19.564 50.362 19.5842 50.4356 19.5863C50.5092 19.5885 50.5822 19.5726 50.6482 19.54L54.0511 17.5122C54.1102 17.4746 54.1597 17.4237 54.1956 17.3636C54.2316 17.3035 54.253 17.2358 54.2581 17.166Z" fill="#013B81"/>
<defs>
<clipPath id="clip0_20736_86595">
<rect width="43" height="10" fill="white" transform="translate(3 7)"/>
</clipPath>
</defs>
</svg>
