<svg width="18" height="18" viewBox="0 0 18 18" fill="none" xmlns="http://www.w3.org/2000/svg">
<g clip-path="url(#clip0_20779_102417)">
<path d="M9.00139 4.66166C9.82628 4.66166 10.4947 5.3301 10.4947 6.15499C10.4947 6.97988 9.82628 7.64833 9.00139 7.64833C8.1765 7.64833 7.50806 6.97988 7.50806 6.15499C7.50806 5.3301 8.1765 4.66166 9.00139 4.66166ZM9.00139 11.0617C11.1134 11.0617 13.3392 12.0999 13.3392 12.555V13.3372H4.66361V12.555C4.66361 12.0999 6.88939 11.0617 9.00139 11.0617ZM9.00139 3.31055C7.42983 3.31055 6.15694 4.58344 6.15694 6.15499C6.15694 7.72655 7.42983 8.99944 9.00139 8.99944C10.5729 8.99944 11.8458 7.72655 11.8458 6.15499C11.8458 4.58344 10.5729 3.31055 9.00139 3.31055ZM9.00139 9.71055C7.10272 9.71055 3.3125 10.6634 3.3125 12.555V14.6883H14.6903V12.555C14.6903 10.6634 10.9001 9.71055 9.00139 9.71055Z" fill="#C1C1FF"/>
</g>
<defs>
<clipPath id="clip0_20779_102417">
<rect width="17.0667" height="17.0667" fill="white" transform="translate(0.46875 0.466797)"/>
</clipPath>
</defs>
</svg>
