<svg width="412" height="224" viewBox="0 0 412 224" fill="none" xmlns="http://www.w3.org/2000/svg">
    <g clip-path="url(#a)">
        <path d="M179.696 27.758C130.657 22.753 43.373 29.262 15.21 72.307c-28.162 43.045-10.57 150.938 0 150.919H390.31l4.802.164s29.35-42.342 2.784-67.07c-26.566-24.727-8.348-36.034-5.102-45.589 3.713-10.973 4.409-33.072-25.443-60.357C340.741 26.034 320.404-1.99 270.814.13c-49.589 2.12-42.083 32.633-91.118 27.628z" fill="url(#b)"/>
        <path d="M85.916 55.293H12.923a.665.665 0 0 0-.665.665v45.791a.664.664 0 0 0 .665.665h72.993a.665.665 0 0 0 .665-.665v-45.79a.666.666 0 0 0-.665-.666z" fill="url(#c)"/>
        <path d="M85.552 100.693V59.65a.533.533 0 0 0-.53-.529h-71.22a.532.532 0 0 0-.529.53v41.042a.528.528 0 0 0 .53.52h71.22a.53.53 0 0 0 .529-.52z" fill="#F0F8FF"/>
        <path d="M84.131 58.15a.927.927 0 1 0 0-1.856.927.927 0 0 0 0 1.855zM81.022 58.15a.928.928 0 1 0 0-1.856.928.928 0 0 0 0 1.855zM78.853 57.208c0 .187-.055.37-.158.526a.975.975 0 0 1-.424.35.927.927 0 0 1-.544.053.928.928 0 0 1-.743-.743.928.928 0 0 1 .053-.545.975.975 0 0 1 .35-.424.956.956 0 0 1 .525-.158.896.896 0 0 1 .368.065c.115.047.22.115.31.201a.953.953 0 0 1 .275.669l-.012.006z" fill="#BDD0FB"/>
        <path d="M23.47 66.658a3.803 3.803 0 0 1-7.496.942 3.808 3.808 0 0 1 5.31-4.377 3.806 3.806 0 0 1 2.187 3.435z" fill="url(#d)"/>
        <path d="M81.966 62.882h-56.74v1.807h56.74v-1.807zM63.841 65.76H25.227v1.8H63.84v-1.8zM45.307 68.815h-20.08v1.799h20.08v-1.799z" fill="#BDD0FB"/>
        <path d="M23.473 78.782a3.79 3.79 0 0 1-3.423 3.762 3.786 3.786 0 0 1-4.08-3.037 3.79 3.79 0 0 1 5.337-4.158 3.788 3.788 0 0 1 2.166 3.433z" fill="#739AF0"/>
        <path d="M81.966 75.006h-56.74v1.798h56.74v-1.798zM63.841 77.882H25.227v1.801H63.84v-1.801zM45.307 80.936h-20.08v1.799h20.08v-1.799z" fill="#BDD0FB"/>
        <path d="M23.473 90.903a3.805 3.805 0 0 1-3.061 3.731 3.801 3.801 0 0 1-4.255-2.275 3.805 3.805 0 0 1 3.885-5.241 3.802 3.802 0 0 1 3.43 3.785z" fill="url(#e)"/>
        <path d="M81.966 87.127h-56.74v1.798h56.74v-1.798zM63.841 90.006H25.227v1.801H63.84v-1.801zM45.307 93.06h-20.08v1.799h20.08V93.06z" fill="#BDD0FB"/>
        <path d="M90.1 51.247H8.168v55.667H90.1V51.247z" stroke="url(#f)" stroke-miterlimit="10"/>
        <path d="M9.775 49.644H6.566v3.21h3.209v-3.21z" fill="url(#g)"/>
        <path d="M9.775 105.308H6.566v3.209h3.209v-3.209z" fill="url(#h)"/>
        <path d="M91.71 49.644h-3.218v3.21h3.218v-3.21z" fill="url(#i)"/>
        <path d="M202.446 80.107h-27.138a.923.923 0 0 1-.365-.074.921.921 0 0 1-.31-.207.976.976 0 0 1-.281-.681V59.738a.977.977 0 0 1 .281-.678.968.968 0 0 1 .31-.208.92.92 0 0 1 .365-.07h11.033a.946.946 0 0 1 .675.278l1.791 1.792c.089.089.194.16.31.21.117.047.242.071.368.072h12.961a.96.96 0 0 1 .959.96v17.023a.959.959 0 0 1-.959.963v.027z" fill="url(#j)"/>
        <path d="M199.989 47.418v24.415h-23.036V43.775h19.397l3.639 3.643z" fill="#BDD0FB"/>
        <path d="M196.348 47.418v-3.643l3.638 3.643h-3.638z" fill="#BDD0FB"/>
        <path d="M201.427 48.697v24.415h-23.048V45.054h19.394l3.654 3.643z" fill="#F0F8FF"/>
        <path d="M203.466 80.107h-27.135a.96.96 0 0 1-.678-.282.974.974 0 0 1-.278-.68v-16.64a.943.943 0 0 1 .278-.679.954.954 0 0 1 .678-.278h11.034a.955.955 0 0 1 .677.278l1.792 1.796a.948.948 0 0 0 .68.278h12.959a.976.976 0 0 1 .677.285c.18.18.281.424.282.678v14.281a.95.95 0 0 1-.285.678.927.927 0 0 1-.309.207.929.929 0 0 1-.372.078z" fill="url(#k)"/>
        <path d="M197.773 48.697v-3.643l3.651 3.643h-3.651zM196.804 46.657h-17.445v.95h17.445v-.95zM200.378 50.228h-20.956v.598h20.956v-.598zM200.378 51.926h-20.956v.597h20.956v-.597zM196.644 53.618h-17.222v.597h17.222v-.597zM196.644 55.312h-17.222v.597h17.222v-.597zM191.068 57.001h-11.646v.597h11.646v-.597zM191.068 58.697h-11.646v.598h11.646v-.598z" fill="#BDD0FB"/>
        <path d="M71.43 151.17H15.426a.666.666 0 0 0-.668.668v38.492a.667.667 0 0 0 .668.669H71.43a.666.666 0 0 0 .668-.669v-38.492a.667.667 0 0 0-.668-.668z" fill="url(#l)"/>
        <path d="M71.23 189.563v-34.729a.424.424 0 0 0-.425-.427H16.068a.427.427 0 0 0-.427.427v34.729a.43.43 0 0 0 .427.427h54.737a.415.415 0 0 0 .301-.126.414.414 0 0 0 .123-.301z" fill="#fff"/>
        <path d="M51.442 174.232a8.262 8.262 0 0 0-7.573-10.283 8.256 8.256 0 0 0-8.604 9.437 8.263 8.263 0 0 0 9.36 6.989 8.255 8.255 0 0 0 6.817-6.143z" fill="url(#m)"/>
        <path d="m48.267 172.201-3.822 2.204-3.824 2.21v-8.831l3.824 2.207 3.822 2.21z" fill="#F0F8FF"/>
        <path d="M71.237 186.261H15.648v1.095h55.59v-1.095z" fill="#BDD0FB"/>
        <path d="M28.158 186.261h-12.51v1.095h12.51v-1.095z" fill="url(#n)"/>
        <path d="M28.154 187.647a.847.847 0 0 0 .778-.521.842.842 0 1 0-.778.521z" fill="url(#o)"/>
        <path d="M75.165 148.529H11.71v45.831h63.454v-45.831z" stroke="url(#p)" stroke-miterlimit="10"/>
        <path d="M12.956 147.285H10.48v2.476h2.476v-2.476z" fill="url(#q)"/>
        <path d="M12.956 193.116H10.48v2.476h2.476v-2.476z" fill="url(#r)"/>
        <path d="M76.424 193.116H73.95v2.476h2.475v-2.476z" fill="url(#s)"/>
        <path d="M195.299 81.79H57.753a1.386 1.386 0 0 0-1.386 1.387v79.2a1.385 1.385 0 0 0 1.386 1.386H195.3a1.387 1.387 0 0 0 1.386-1.386v-79.2a1.387 1.387 0 0 0-1.386-1.387z" fill="url(#t)"/>
        <path d="M194.751 160.669V89.856a.844.844 0 0 0-.839-.838H59.136a.838.838 0 0 0-.835.838v70.813a.83.83 0 0 0 .243.592.83.83 0 0 0 .592.246h134.776a.838.838 0 0 0 .839-.838z" fill="#F0F8FF"/>
        <path d="M91.71 105.308h-3.218v3.209h3.218v-3.209z" fill="url(#u)"/>
        <path d="M70.829 152.792a.807.807 0 0 1-.489.739.817.817 0 0 1-.461.047.826.826 0 0 1-.412-.22.785.785 0 0 1-.216-.409.785.785 0 0 1 .337-.817.799.799 0 0 1 1.24.66zM68.199 152.792a.798.798 0 0 1-.133.443.778.778 0 0 1-.82.356.798.798 0 0 1-.625-.628.814.814 0 0 1 .043-.462.79.79 0 0 1 .31-.359.796.796 0 0 1 1.237.663l-.012-.013zM65.57 152.792a.8.8 0 0 1-.492.733.787.787 0 0 1-.866-.173.79.79 0 0 1-.17-.864.789.789 0 0 1 1.294-.258.8.8 0 0 1 .234.562z" fill="#fff"/>
        <path d="M76.424 147.285H73.95v2.476h2.475v-2.476z" fill="url(#v)"/>
        <path d="M193.849 85.41a1.778 1.778 0 0 1-2.841 1.454 1.782 1.782 0 0 1-.563-2.132 1.785 1.785 0 0 1 1.643-1.1 1.782 1.782 0 0 1 1.256.521 1.771 1.771 0 0 1 .52 1.256h-.015zM187.977 85.409a1.787 1.787 0 0 1-.651 1.376 1.778 1.778 0 1 1-1.215-3.152 1.779 1.779 0 0 1 1.866 1.776zM182.096 85.41c-.002.353-.11.698-.309.99a1.78 1.78 0 0 1-2.075.685 1.778 1.778 0 0 1-1.042-2.353 1.784 1.784 0 0 1 1.641-1.1 1.773 1.773 0 0 1 1.64 1.098c.09.215.136.446.136.68h.009z" fill="#BDD0FB"/>
        <path d="M113.678 93.066H61.824v37.242h51.854V93.066z" stroke="url(#w)" stroke-miterlimit="10"/>
        <path d="M119.741 99.068H67.887v37.239h51.854V99.068z" fill="#739AF0"/>
        <path d="M116.389 133.32H71.141l14.257-26.907 10.715 18.491 7.265-7.673 13.011 16.089zM98.24 112.325a4.43 4.43 0 0 0 4.343-5.294 4.427 4.427 0 0 0-8.77.868 4.43 4.43 0 0 0 4.427 4.426v0z" stroke="#fff" stroke-width="2" stroke-linecap="round" stroke-linejoin="round"/>
        <path d="M190.286 93.643h-64.583v3.974h64.583v-3.974zM144.26 100.96h-18.565v1.987h18.565v-1.987zM154.327 100.96h-7.534v1.987h7.534v-1.987zM176.982 100.96h-19.759v1.987h19.759v-1.987zM190.288 100.96h-11.733v1.987h11.733v-1.987zM150.171 105.911h-24.468v1.987h24.468v-1.987zM162.403 105.911h-9.52v1.987h9.52v-1.987zM174.095 105.911h-9.521v1.987h9.521v-1.987zM187.658 105.911h-12.092v1.987h12.092v-1.987zM132.514 110.864h-6.807v1.984h6.807v-1.984zM169.865 110.864h-12.224v1.984h12.224v-1.984zM155.591 110.864h-21.513v1.984h21.513v-1.984zM141.13 115.816h-15.427v1.988h15.427v-1.988zM148.96 115.816h-5.183v1.988h5.183v-1.988zM161.561 115.816h-10.186v1.988h10.186v-1.988zM131.607 120.766h-5.904v1.987h5.904v-1.987zM146.798 120.766H133.84v1.987h12.958v-1.987zM119.743 140.259H61.824v17.234h57.919v-17.234z" fill="#BDD0FB"/>
        <path d="M74.357 141.433h-10.99v10.214h10.99v-10.214zM74.357 153.176h-10.99v3.039h10.99v-3.039zM88.358 145.988h-10.99v10.214h10.99v-10.214zM88.358 141.433h-10.99v3.039h10.99v-3.039zM103.451 141.433h-10.99v10.214h10.99v-10.214zM103.451 153.176h-10.99v3.039h10.99v-3.039zM117.462 145.988h-10.993v10.214h10.993v-10.214zM117.462 141.433h-10.993v3.039h10.993v-3.039z" fill="#fff"/>
        <path d="M127.67 126.307h63.94a.622.622 0 0 1 .619.619v2.934h-65.19v-2.934a.621.621 0 0 1 .39-.582.583.583 0 0 1 .241-.037z" fill="url(#x)"/>
        <path d="M191.579 129.179v26.999a1.127 1.127 0 0 1-1.123 1.124h-61.632a1.137 1.137 0 0 1-.795-.328 1.132 1.132 0 0 1-.328-.796v-26.999h63.878zm.659-.657h-65.199v27.669a1.782 1.782 0 0 0 1.782 1.779h61.635a1.77 1.77 0 0 0 1.646-1.099c.089-.215.136-.447.136-.68v-27.669z" fill="url(#y)"/>
        <path d="M137.519 132.063h-8.203v23.676h8.203v-23.676zM189.386 132.063h-39.632v23.676h39.632v-23.676z" fill="#BDD0FB"/>
        <path d="M187.445 133.316h-35.582v2.418h35.582v-2.418zM187.445 137.188h-35.582v1.208h35.582v-1.208z" fill="#fff"/>
        <path d="M147.44 137.188h-8.206v2.823h8.203l.003-2.823z" fill="#BDD0FB"/>
        <path d="M159.519 139.485h-7.652v14.48h7.652v-14.48zM178.315 139.485h-7.655v14.48h7.655v-14.48zM169.502 154.29h-8.299v-15.136h8.308l-.009 15.136zm-7.655-.656h6.999V139.81h-6.999v13.824zM187.777 154.29h-8.32v-15.136h8.311l.009 15.136zm-7.655-.656h6.996V139.81h-6.996v13.824z" fill="#fff"/>
        <path d="M147.44 142.308h-8.206v2.822h8.203l.003-2.822zM147.44 147.428h-8.206v2.826h8.203l.003-2.826zM147.44 152.547h-8.206v2.832h8.203l.003-2.832z" fill="#BDD0FB"/>
        <path d="M144.711 200.953h-32.448c-.152 0-.303-.031-.443-.09a1.222 1.222 0 0 1-.377-.25 1.157 1.157 0 0 1-.337-.824v-36.053h34.768v36.053a1.164 1.164 0 0 1-1.163 1.164z" fill="#fff"/>
        <path d="M145.266 164.355v35.434a.565.565 0 0 1-.344.515.558.558 0 0 1-.213.042h-32.448a.55.55 0 0 1-.551-.557v-35.434h33.556zm.619-.619h-34.787v36.053a1.157 1.157 0 0 0 .337.824c.109.106.237.191.377.25s.291.09.443.09h32.448a1.164 1.164 0 0 0 1.163-1.164v-36.053h.019z" fill="url(#z)"/>
        <path d="M112.255 159.403h32.448a1.153 1.153 0 0 1 .823.338 1.155 1.155 0 0 1 .34.823v3.172h-34.768v-3.194a1.153 1.153 0 0 1 1.157-1.154v.015z" fill="url(#A)"/>
        <path d="M138.305 161.487a.673.673 0 0 1-.117.383.673.673 0 0 1-.309.254.702.702 0 0 1-.755-.148.691.691 0 1 1 1.181-.489zM141.306 161.487c0 .136-.041.27-.118.383a.673.673 0 0 1-.309.254.684.684 0 0 1-.592-.028.682.682 0 0 1-.352-.476.685.685 0 0 1 .294-.709.688.688 0 0 1 .711-.034.7.7 0 0 1 .366.61zM144.321 161.486a.682.682 0 0 1-.118.384.673.673 0 0 1-.309.254.682.682 0 0 1-.752-.149.692.692 0 0 1-.152-.755.691.691 0 0 1 1.331.266z" fill="#BDD0FB"/>
        <path d="M120.147 171.629a2.671 2.671 0 0 1-4.552 1.891 2.678 2.678 0 0 1-.732-2.406 2.667 2.667 0 0 1 5.284.515z" fill="url(#B)"/>
        <path d="M141.186 169.667h-18.713v1.238h18.713v-1.238zM132.909 172.74h-10.436v1.238h10.436v-1.238z" fill="#BDD0FB"/>
        <path d="M120.147 180.958a2.678 2.678 0 0 1-1.294 2.292 2.662 2.662 0 0 1-2.63.065 2.663 2.663 0 0 1-1.407-2.223 2.666 2.666 0 0 1 4.948-1.502c.249.413.381.886.383 1.368z" fill="url(#C)"/>
        <path d="M141.186 178.992h-18.713v1.238h18.713v-1.238zM132.909 182.069h-10.436v1.238h10.436v-1.238z" fill="#BDD0FB"/>
        <path d="M120.146 190.287a2.66 2.66 0 1 1-5.32.002 2.66 2.66 0 0 1 5.32-.002z" fill="#739AF0"/>
        <path d="M141.186 188.325h-18.713v1.238h18.713v-1.238zM132.909 191.397h-10.436v1.239h10.436v-1.239z" fill="#BDD0FB"/>
        <path d="m274.977 52.678-.657.851 25.942 20.038.657-.85-25.942-20.039z" fill="url(#D)"/>
        <path d="M252.264 60.456a21.968 21.968 0 0 1-15.51-18.852 21.976 21.976 0 0 1 11.471-21.55 21.964 21.964 0 0 1 31.398 12.945 21.983 21.983 0 0 1 .024 12.758 22.006 22.006 0 0 1-10.654 13.012 21.994 21.994 0 0 1-16.729 1.687zm12.377-41.061a20.892 20.892 0 0 0-22.209 6.78 20.906 20.906 0 0 0-2.237 23.121 20.893 20.893 0 0 0 38.422-3.852 20.934 20.934 0 0 0-1.602-15.917 20.918 20.918 0 0 0-12.374-10.132z" fill="url(#E)"/>
        <path d="M272.007 52.833c7.412-7.414 7.412-19.435 0-26.85-7.412-7.414-19.429-7.414-26.841 0-7.411 7.415-7.411 19.436 0 26.85 7.412 7.415 19.429 7.415 26.841 0z" fill="#739AF0"/>
        <path d="M273.826 50.786a18.886 18.886 0 0 1-3.273 3.405l-2.33-3.135s-.226 2.361-.498 5.03a19.01 19.01 0 0 1-17.925.123c-.736-2.392-1.296-4.24-1.296-4.24l-1.436 2.507a18.876 18.876 0 0 1-3.713-3.792c.214-.365.431-.724.653-1.083.455-.548 2.711-5.333 4.05-6.002.641-.325 2.547-1.015 4.354-1.65l.724-.25c1.665-.576 3.075-1.052 3.075-1.052h5.338l2.398.773.829.267 2.132.693c1.281.43 3.991 1.801 5.121 4.788a30.862 30.862 0 0 0 1.797 3.618z" fill="url(#F)"/>
        <path d="m262.069 40.51-.526-.272c-.26-.58-.068-3.03-.068-3.03s-5.313-1.353-5.158-.31c.154 1.043-.461 3.439-.461 3.439l-2.723 1.352a21.96 21.96 0 0 0 5.69.542c4.075-.087 5.133-.823 5.133-.823l-1.887-.898z" fill="url(#G)"/>
        <path d="M259.532 25.975s4.168.653 3.531 7.18c-.638 6.528-4.311 5.987-4.564 5.987-.254 0-3.692.117-3.964-7.85.003-.006-.114-5.896 4.997-5.317z" fill="url(#H)"/>
        <path d="M263.123 31.31s.455-.485.619 0c.164.487-.619 2.7-.65 2.786 0 0-.083.192-.191.087-.109-.105.222-2.872.222-2.872z" fill="url(#I)"/>
        <path d="M254.644 31.225s-.448-.493-.618 0c-.171.492.563 2.708.594 2.816 0 0 .083.192.191.09.109-.102-.167-2.906-.167-2.906z" fill="url(#J)"/>
        <path d="m263.124 32.314-.597.805c.016-.676-.01-1.352-.077-2.024-.096-.276-.241-1.114-.325-1.31-.083-.194-3.58-1.182-6.671.285 0 0 .136 1.26-.161 1.368-.297.109-.151 2.052-.151 2.052l-.499-.563s-.748-5.02-.563-5.543c.186-.523.777-3.668 7.117-1.805 0 0 1.977-.415 2.373.947.396 1.362-.446 5.788-.446 5.788z" fill="url(#K)"/>
        <path d="m247.018 94.5 36.659-1.17-.034-1.077-36.659 1.17.034 1.077z" fill="url(#L)"/>
        <path d="M205.718 87.966a21.98 21.98 0 0 1 8.317-9.67 21.96 21.96 0 0 1 24.4.562 21.973 21.973 0 0 1 8.821 22.766 21.974 21.974 0 0 1-17.646 16.867c-4.279.75-8.685.215-12.66-1.538a22.008 22.008 0 0 1-11.232-28.987zm.984.434a20.912 20.912 0 0 0 4.006 22.884 20.897 20.897 0 0 0 32.222-2.429 20.915 20.915 0 0 0-8.668-31.14 20.918 20.918 0 0 0-27.56 10.685z" fill="url(#M)"/>
        <path opacity=".5" d="M244.333 100.909c1.991-10.276-4.722-20.221-14.994-22.213-10.272-1.993-20.214 4.723-22.206 14.999-1.991 10.275 4.722 20.221 14.994 22.213 10.272 1.992 20.214-4.723 22.206-14.999z" fill="#BDD0FB"/>
        <path d="M237.773 108.022a63.8 63.8 0 0 0-1.68.434l-.427.124c-.492.154-.854.294-.854.377 0 .136.523.31 1.015.48.461.164.894.337.826.492a2.141 2.141 0 0 1-.619.706c-.096.083-.195.164-.291.241a1.618 1.618 0 0 0-.538.681c-.118.384-.965.334-1.748.248l-.195-.025c-.384-.043-.73-.09-.947-.09h-.015a.558.558 0 0 0-.115.031c-.792.282-4.412 2.346-8.227 4.008a18.84 18.84 0 0 1-6.578-1.881 19.39 19.39 0 0 1-2.315-1.362 18.801 18.801 0 0 1-2.206-1.774 21.69 21.69 0 0 1 .591-3.095l3.357 2.414 1.018.715.523 1.891.619-.154 2.599-.684c3.419-.907 8.459-2.272 9.317-2.687.533-.228 1.082-.42 1.643-.573a35.675 35.675 0 0 1 2.759-.684l.251-.049a9.823 9.823 0 0 1 2.215-.226.217.217 0 0 1 .16.057.22.22 0 0 1-.138.385z" fill="url(#N)"/>
        <path d="M238.692 110.809a19.46 19.46 0 0 1-2.332 1.832 19.276 19.276 0 0 1-2.705 1.498 10.393 10.393 0 0 1-.198-2.328v-.093c.038-1.193.183-2.382.433-3.55.143-.678.263-1.102.263-1.102l1.111.796.31.22.522.374 1.857.91.309.226.43 1.217z" fill="url(#O)"/>
        <path d="m233.299 100.721 6.56 8.657-7.726 2.82 1.166-11.477z" fill="url(#P)"/>
        <path d="M236.358 112.638a19.084 19.084 0 0 1-10.603 3.194c-.601 0-1.198-.034-1.798-.096a18.872 18.872 0 0 1-5.795-1.523 14.764 14.764 0 0 1-.783-.365 86.077 86.077 0 0 0-.195-1.238 209.768 209.768 0 0 1-.857-6.225 83.653 83.653 0 0 1-.211-1.943l-.055-.582a.16.16 0 0 0 0-.031c-.279-3.021-.31-5.398.173-5.881l.062-.059a6.768 6.768 0 0 1 1.909-1.117.823.823 0 0 1 .074-.035l.043-.018a21.92 21.92 0 0 1 2.55-.836c.059-.018.118-.03.179-.046a6.774 6.774 0 0 1 2.42-.183l.235.025 3.404.461.028.016.031.021h.018l.074.047.053.037c.334.217.928.619 1.618 1.083l.025.016c.037.03.074.055.114.083l.161.112.35.244c1.236.836 2.41 1.76 3.512 2.767l.102.112.099.13v.018c.807 1.161 1.547 4.228 2.104 6.94.018.093.037.182.052.269.034.17.069.334.096.498.056.31.112.579.161.858.081.427.149.832.211 1.198 0 .043 0 .086.021.13.297 1.083.403 1.804.418 1.919z" fill="url(#Q)"/>
        <path d="M218.019 117.738a.97.97 0 0 0 .021.133c0-.04-.018-.086-.024-.133h.003z" fill="url(#R)"/>
        <path d="m232.492 111.585-.191.112-.121.068c-.928.554-3.837 2.272-6.423 4.067-.601 0-1.198-.034-1.798-.096a18.872 18.872 0 0 1-5.795-1.523 14.764 14.764 0 0 1-.783-.365c-.062-.399-.13-.817-.195-1.238a196.87 196.87 0 0 1-.851-6.224 84.21 84.21 0 0 1-.21-1.944l-.056-.582a.16.16 0 0 0 0-.031c-.269-3.021-.291-5.435.235-5.95a6.768 6.768 0 0 1 1.909-1.117.796.796 0 0 1 .074-.034l.044-.018a.498.498 0 0 1 .133-.016c.383 0 1.336.412 2.221 4.049 1.139 4.705-.309 10.428.195 10.932.208.099.436.149.665.146 2.21.198 9.128-.124 10.647-.198l.3-.038z" fill="url(#S)"/>
        <path d="m227.126 96.112.024.015.031.022h.019l.068.046c.421.276 1.318.87 2.314 1.57 0 0 .415 1.662.217 2.729-.198 1.068-.619 1.403-1.204 1.164-.584-.238-1.701-1.814-1.955-1.727-.254.087-1.971 2.241-2.8 1.907-.557-.226-2.228-3.888-3.067-6.064l.18-.046a6.885 6.885 0 0 1 2.661-.158l3.403.461.109.08z" fill="url(#T)"/>
        <path d="m229.693 94.137-.749 3.749s-.711 2.132-2.091 2.132c-1.38 0-3.626-4.438-3.626-4.438l3.233-4.247 3.233 2.804z" fill="url(#U)"/>
        <path d="m229.693 94.137-.749 3.749s-.711 2.132-2.091 2.132c-1.38 0-3.626-4.438-3.626-4.438l3.233-4.247 3.233 2.804z" fill="url(#V)"/>
        <path d="M233.084 85.737s.619 8.55-1.856 9.317c-2.476.768-5.607-1.065-5.607-3.946 0-2.882 1.108-8.658 7.463-5.37z" fill="url(#W)"/>
        <path d="M233.16 86.436c-1.058 0-3.735-.365-4.641.533a9.343 9.343 0 0 0-1.238 1.984c-.142-.35-.445-.913-.903-.836-1.498.257-.644 2.96-.167 3.07-.273.62-.449 1.025-.449 1.025l-.928 1.238s-.136-2.383-1.204-3.921c-1.067-1.539-.189-3.962 1.092-5.572 1.281-1.61 5.007-.145 6.055-.145 0 0 4.697-.969 4.852.396.155 1.365-1.405 2.228-2.469 2.228z" fill="url(#X)"/>
        <path d="m218.947 112.483-.034.171s-.746 0-1.73-.056a69.045 69.045 0 0 1-2.119-.118 18.62 18.62 0 0 1-2.556-2.108c.26-3.575 1.637-11.66 3.694-13.04.805-.541 1.47-.7 2.014-.59 1.547.309 2.138 2.813 2.166 4.821.047 2.566-1.222 9.719-1.435 10.92z" fill="url(#Y)"/>
        <path d="m322.528 82.258-.622-.876 36-25.247.622.879-36 25.244z" fill="#739AF0"/>
        <path d="M380.528 64.576a21.96 21.96 0 0 1-23.084-7.928 21.983 21.983 0 0 1 7.819-33.06 21.963 21.963 0 0 1 30.89 14.115 22.005 22.005 0 0 1-15.625 26.873zM369.566 23.1a20.898 20.898 0 0 0-15.364 17.418 20.91 20.91 0 0 0 10.208 20.864 20.894 20.894 0 0 0 30.272-11.296 20.914 20.914 0 0 0 .432-12.13 20.931 20.931 0 0 0-9.708-12.702 20.919 20.919 0 0 0-15.84-2.142V23.1z" fill="#739AF0"/>
        <path d="M388.331 56.748c7.412-7.414 7.412-19.435 0-26.85-7.411-7.414-19.428-7.414-26.84 0-7.412 7.415-7.412 19.436 0 26.85 7.412 7.415 19.429 7.415 26.84 0z" fill="#BDD0FB"/>
        <path opacity=".5" d="M388.331 56.748c7.412-7.414 7.412-19.435 0-26.85-7.411-7.414-19.428-7.414-26.84 0-7.412 7.415-7.412 19.436 0 26.85 7.412 7.415 19.429 7.415 26.84 0z" fill="#BDD0FB"/>
        <path d="M388.22 56.887a18.844 18.844 0 0 1-3.122 2.476c-1.129-1.359-2.293-2.584-2.293-2.584V56.858l-.099.356c-.189.737-.578 2.25-.879 3.798-.667.258-1.347.479-2.039.662a18.51 18.51 0 0 1-4.458.62h-.737a18.679 18.679 0 0 1-5.776-1.01c-.158-.052-.31-.108-.471-.167a19.25 19.25 0 0 1-2.992-1.424v.022-.025a14.745 14.745 0 0 1 0-2.504c-.04.08-.284.957-.618 2.12a19.26 19.26 0 0 1-2.853-2.24l2.834-8.187c.102-.08 1.318-.666 2.206-1.093.888-.427 1.993-1.062 2.98-1.6h.015c.276-.152.545-.31.799-.424l.043-.022c.189-.096.365-.186.532-.26l.065-.028.056-.028 1.07-.489h.034l.26-.025c.953-.092 3.896-.368 4.886-.427h.309c.521.143 1.031.32 1.529.53l.099.03.114.044.214.08.436.174.158.062c1.596.619 3.425 1.414 3.858 1.73.291.204 1.185 1.897 2.222 3.986a251.59 251.59 0 0 1 1.618 5.767z" fill="url(#Z)"/>
        <path d="M377.914 44.017c-.044 2.123-4.156 3.29-4.156 3.29s-1.717-2.166-1.308-2.364c.16-.084.229-.406.247-.765a7.075 7.075 0 0 0-.022-.966 1.115 1.115 0 0 0-.024-.244s.584-.62 1.333-1.359c1.306-1.294 3.094-2.947 3.094-2.287a.35.35 0 0 1 0 .12c-.318 1.486.836 4.575.836 4.575z" fill="url(#aa)"/>
        <path d="M377.115 39.347c-.353.776-.693 1.337-.789 1.547a2.729 2.729 0 0 1-.48.647c-.677.73-1.937 1.693-3.174 1.66a2.266 2.266 0 0 1-.409-.047 1.948 1.948 0 0 1-1.417-.982c-2.565-5.023-.708-9.13-.708-9.13s7.02-1.984 8.112.127c.777 1.498-.3 4.36-1.135 6.178z" fill="url(#ab)"/>
        <path d="M370.142 33.053s-.647-.037-.811-1.269c-.164-1.232.164-1.547.164-1.547s2.893-1.214 3.933-1.371c1.039-.158 3.598-.31 4.198.377 0 0 1.461-.337 1.857 2.077.619 3.838-2.144 7.565-2.144 7.565s.024-2.508-.529-2.842c-.554-.334-1.028.461-1.028.461l-1.132.202s1.717-3.715-.341-3.845c-2.057-.13-2.988.409-4.167.192z" fill="url(#ac)"/>
        <path d="M375.803 35.49c.108-1.102 2.104-1.526 1.971-.369-.133 1.158-1.117 2.269-1.572 2.232-.455-.037-.483-1.022-.399-1.863z" fill="url(#ad)"/>
        <path d="M388.713 56.385a18.839 18.839 0 0 1-4.48 3.495 15.719 15.719 0 0 0-1.427-3.056l-.021-.03v.05a.016.016 0 0 0 0 .018v.015c-.028.1-.053.214-.078.344-.148.826-.269 2.213-.352 3.58-.17.075-.35.146-.526.218-.667.257-1.348.478-2.039.662a18.53 18.53 0 0 1-4.459.619h-.736a4.524 4.524 0 0 1-.041-.353c-.228-1.857-.362-3.51-.473-4.68a10.651 10.651 0 0 1 .619-4.333c.04-.115.08-.235.124-.35.083-.229.173-.458.263-.684 0-.04.034-.08.052-.118v-.015c.053-.127.105-.25.164-.375.059-.123.152-.334.229-.498.078-.164.192-.387.288-.572.096-.186.201-.375.309-.56l.022-.041c.145-.257.294-.51.442-.755.1-.174.205-.338.31-.502l.229-.359.232-.35.309-.433v-.025l.022-.027c.056-.087.118-.17.176-.254l.192-.26.112-.149c.123-.167.244-.325.359-.47l.043-.056.161-.204.269-.331.35-.415.071-.08a.085.085 0 0 0 .021-.025l.019-.022.09.028.114.043.214.08.436.174.158.062c1.643.644 5.105 1.6 5.541 1.91.251.18.814 1.826 1.461 3.909.511 1.7.922 3.427 1.231 5.175z" fill="url(#ae)"/>
        <path d="M371.292 45.499a42.287 42.287 0 0 0-.928 4.398c-.056.31-.115.663-.174 1.025-.077.445-.151.928-.232 1.43-.018.12-.04.241-.058.362v.059c-.019.111-.038.222-.053.34v.04a2.52 2.52 0 0 1-.034.23c-.028.188-.059.383-.087.584-.26 1.743-.572 4.396-.903 7.299a19.24 19.24 0 0 1-3.463-1.591v.022-.025a11.95 11.95 0 0 1-.618-.384c-.056-.04-.115-.077-.174-.114a19.252 19.252 0 0 1-2.679-2.127c-.136-.13-.272-.266-.409-.4l3.011-7.873c.102-.08 1.442-.805 2.339-1.223.897-.418 2.089-.981 3.122-1.46l.393-.187.309-.133.081-.037.043-.022.074-.034.31-.142.152-.071-.022.034z" fill="url(#af)"/>
        <path d="m378.335 50.272-2.005 1.127.854.879-1.857 10.025h-.736c-.254-2.006-.396-3.8-.511-5.03a10.333 10.333 0 0 1 .548-4.12c.022-.074.046-.145.071-.22a23.419 23.419 0 0 1 .387-1.034c0-.04.034-.08.053-.117v-.015c.052-.127.105-.25.163-.375.059-.123.152-.334.229-.498.078-.164.192-.387.288-.572.096-.186.201-.375.31-.56l.021-.041c.146-.26.291-.51.443-.755.099-.174.204-.338.309-.502l.229-.359.232-.35.31-.433v-.025l.021-.027c.056-.087.118-.17.177-.254l.191-.26.112-.149c.124-.167.244-.325.359-.47l.043-.056.161-.204c.099-.121.186-.232.269-.331.04-.044.074-.087.105-.127.099-.121.183-.217.245-.288l.071-.08a.088.088 0 0 0 .022-.025l.018-.022.09.034c.241.09.501.195.767.31l-1.989 4.924z" fill="url(#ag)"/>
        <path d="M371.32 45.456s-.495 1.613-1.145 5.488c-.077.446-.152.928-.232 1.43l-.059.393c-.062.39-.121.802-.182 1.238-.26 1.74-.579 4.392-.91 7.292-.158-.052-.309-.108-.47-.167l-.338-8.289.953-1.034-.847-1.058 1.788-4.56.028-.068.393-.185.309-.133.081-.037.043-.022.074-.034.31-.142.151-.072.053-.04z" fill="url(#ah)"/>
        <path d="m379.565 45.026-1.659-1.01s-.046.91-4.152 3.288l1.169 3.287 4.642-5.565z" fill="#ADBEE6"/>
        <path d="M372.665 44.475s.065.984 1.093 2.829l-2.278 2.968-.164-4.816 1.349-.981z" fill="#ADBEE6"/>
        <path d="M365.921 53.48c-.309.74-.464 2.315-.532 3.739a55.757 55.757 0 0 0-.062 2.476v.021-.024a11.985 11.985 0 0 1-.619-.384c-.055-.04-.114-.078-.173-.115.204-3.63 1.312-5.587 1.386-5.713z" fill="url(#ai)"/>
        <path d="M298.173 211.028s-1.392 2.597-2.302 3.628c-.91 1.03-4.406 2.875-4.406 5.936-.022 3.324 5.879 2.402 8.178 2.281 2.299-.12 2.475-1.897 3.45-3.776.974-1.879 1.949-1.563 2.128-3.095.18-1.532-.928-4.986-.928-4.986l-6.12.012z" fill="url(#aj)"/>
        <path d="M333.259 210.722s2.837 3.173 5.721 3.838c2.884.666 4.901 1.514 4.923 3.331.021 1.816-8.299 3.02-11.597 1.185-4.923-2.736-5.424-1.913-5.972-3.281-.547-1.368.656-5.03.619-5.463-.043-.539 6.306.39 6.306.39z" fill="url(#ak)"/>
        <path d="M327.079 120.255s2.342 22.756 3.561 30.547c1.424 9.109 1.906 16.637 2.302 21.357.502 5.93.598 36.279.947 38.012.35 1.733-7.76.477-7.76.477s-3.988-39.291-5.476-45.605c-1.387-5.881-6.529-31.2-7.791-29.59-1.263 1.609-2.835 29.522-3.763 34.165-.928 4.642-3.864 42.063-3.864 42.063s-6.455 1.285-8.172-.17c0 0-.708-32.397-.111-41.092.229-3.315-3.88-39.733 1.386-54.392 2.785-7.75 28.741 4.228 28.741 4.228z" fill="url(#al)"/>
        <path d="M306.051 115.21s1.562-2.362 3.215-2.668c1.652-.307-22.798-12.13-22.733-16.355.053-3.427 8.806-9.11 8.806-9.11v.038c.186.678 2.713 10.068 2.8 14.578.096 4.683-.278 20.788-.278 20.788l6.287 1.68 20.022.186 4.57-1.857s-.501-5.178-.684-8.815c-.118-2.312-.566-6.454-.452-10.484 0 0-.071-4.25.35-6.079.046-8.078.535-16.095.535-16.095.268-3.66.457-7.088.566-10.282a91.479 91.479 0 0 0-2.784-1.42 1437.878 1437.878 0 0 0-8.645-4.025c-1.374-.619-2.723-1.095-2.723-1.095s-9.4-.898-10.161-.851c-1.007.272-1.995.61-2.958 1.012-3.332 1.263-9.756 3.84-10.78 4.574-1.501 1.077-11.321 27.071-11.467 28.86-.281 3.235 26.514 17.42 26.514 17.42z" fill="#BDD0FB"/>
        <path d="M328.131 120.771s-13.754 1.17-25.799 0v3.965s17.946 1.715 26.402-.752l-.603-3.213z" fill="#1D2033"/>
        <path d="m359.395 97.23.083 3.93c.553.043 1.108.049 1.662.019.414-.056 2.657 1.569 4.925 1.681h.112s3.314.928 4.641 1.485c1.327.558 1.429-.092 1.402-.349-.028-.344-3.274-1.616-4.66-2.151l-.563-.214c.093.019.309.065.6.139 1.754.406 6.442 1.514 6.894 1.616a.586.586 0 0 0 .58-.216.577.577 0 0 0 .057-.617c-.223-.284-5.176-1.807-6.986-2.352v-.037c1.909.442 7.373 1.699 7.695 1.699.321 0 .488-.74.26-.907-.344-.238-5.954-1.919-7.761-2.454v-.121c1.514.14 5.619.501 6.145.535.656.047.746-.33.359-.764-.386-.433-5.94-1.09-7.085-1.238h-.056c-1.043-.248-3.478-.155-3.072-.672.479-.6 3.183-2.946 2.76-3.665-.424-.718-1.894 1.071-2.491 1.449-.455.276-1.912 1.173-2.503 2.167-.693 1.157-2.998 1.037-2.998 1.037z" fill="url(#am)"/>
        <path d="m367 101.631.563.213c0-.027.028-.046.037-.074a12.872 12.872 0 0 0-.6-.139z" fill="url(#an)"/>
        <path d="M316.398 64.786s2.234 5.262 3.911 17.024c.31 2.25.786 5.277 1.275 8.713a378.448 378.448 0 0 1 1.439 11.143c.684 6.109 2.252 12.38 2.741 17.066.517 4.844 2.067 19.135 2.067 19.135l3.763-2.383c.535-.489 1.293-1.136 1.07-1.836-1.033-3.343-3.017-14.389-4.18-24.015a.03.03 0 0 1 0-.019c-.053-.461-.108-.929-.155-1.377v-.075a146.757 146.757 0 0 1-.535-5.463 17.395 17.395 0 0 1 .164-3.794c.269-4.448.473-9.017.6-12.403a108.872 108.872 0 0 0 2.844 4.333c.671.96 1.374 1.938 2.085 2.864 2.166 2.822 4.465 5.212 6.188 5.648 3.754.929 20.684 3.293 20.684 3.293l1.34-6.038-11.111-2.319c-2.664-.55-8.645-1.857-9.05-2.101-.405-.245-6.386-11.453-6.94-12.657-.554-1.204-3.818-8.01-5.34-8.843-.093-.052-.205-.099-.31-.145-1.828-.87-11.581-5.466-12.55-5.75z" fill="url(#ao)"/>
        <path d="M289.342 94.994c-1.631 3.579 14.969 9.955 14.595 10.834-.897 2.117-4.561 6.431-4.561 6.431s-21.857-10.817-21.612-13.269c.179-1.786 10.418-28.785 11.915-29.847.857-.619 7.29-2.906 10.449-4.144.579-.226 2.54-.966 3.057-1.164.668.746 5.26 5.828 6.9 25.04.275 3.235-.588 10.094-1.17 15.687-.619 5.97-1.299 10.632-1.797 15.624a1633.232 1633.232 0 0 0-1.677 17.662l-9.8-4.352c-1.584-.793-4.331-2.86-3.712-4.529 2.264-6.339 5.659-18.351 5.662-23.913 0 0-1.6-15.35-2.476-18.342-.006 0-3.96 4.287-5.773 8.282z" fill="url(#ap)"/>
        <path d="M304.285 54.596c1.238 6.534 1.3 9.756 1.3 9.756a8.52 8.52 0 0 0 2.685 1.238c.876 1.548 3.856 2.142 3.856 2.142l1.615-1.882c.749-.176 1.172-.442 1.042-.73a5.785 5.785 0 0 1-.349-1.238c-.037-.38-.065-.823-.074-1.285v-.526c0-.489 0-.987.018-1.43.028-.82.056-1.43.056-1.43s-10.483-6.36-10.149-4.615z" fill="url(#aq)"/>
        <path d="M314.412 63.655s-.213 1.66-2.283 4.08l2.259 3.04 1.209-6.303-1.185-.817zM305.386 61.812s3.713 4.732 6.742 5.924l-1.405 3.473-6.411-7.757 1.074-1.64z" fill="#739AF0"/>
        <path d="M317.987 120.982h-6.432v4.882h6.432v-4.882z" fill="#3A4066"/>
        <path d="M307.242 115.5a3.612 3.612 0 0 1-1.145-.216s-.597-.384-1.039-.619a3.824 3.824 0 0 0-.35-.177 6.634 6.634 0 0 1-1.924-.928c-.752-.573-3.206-2.873-3.206-2.873l1.374-2.429.944-2.427s5.724.57 6.497 1.021c.072.043.142.091.208.143.618.446.875 1.037 1.169 1.309.108.099 1.105 1.164 1.049 1.597a1.431 1.431 0 0 1-.746 1.17s-.201 1.17-.807 1.696a2.112 2.112 0 0 1-1.089 1.52s-.285 1.087-.935 1.213z" fill="url(#ar)"/>
        <path d="M306.102 56.674c2.001 2.067 9.328 4.624 10.953 4.457 1.624-.167 2.877-5.572 3.292-6.027.414-.455 2.392-.928 2.122-1.615-.269-.688-2.305-4.875-1.364-5.43 1.135-.662-1.163-4.927-1.163-4.927-4.06-7.456-14.809-5.825-16.136-1.857-1.328 3.968.303 13.322 2.296 15.399z" fill="url(#as)"/>
        <path d="M320.401 44.054s2.348-4.608-1.919-8.029c-4.266-3.42-12.135 2.585-13.023 2.81-.888.227-5.919.576-3.379 9.416 2.185 7.587 2.476 7.909 2.476 7.909s1.63-4.399 2.552-5.067c1.439-1.05 4.598-.796 4.598-.796s-1.503-3.999.848-4.565c2.352-.566 5.467-2.56 7.847-1.678z" fill="url(#at)"/>
        <path d="M314.361 62.065v.523c-5.994-2.012-7.154-5.04-7.154-5.04 1.856 1.322 7.163 3.096 7.163 3.096-.009.427-.009.925-.009 1.42z" fill="url(#au)"/>
        <path d="M6.75 224h403.795a1.11 1.11 0 0 0 1.185-1.012v-.022a1.107 1.107 0 0 0-1.185-1.009H6.749a1.105 1.105 0 0 0-1.179 1.009v.022A1.106 1.106 0 0 0 6.75 224z" fill="#233862"/>
    </g>
    <defs>
        <linearGradient id="b" x1="409.019" y1="111.694" x2="-24.045" y2="111.694" gradientUnits="userSpaceOnUse">
            <stop stop-color="#DAE3FE"/>
            <stop offset="1" stop-color="#E9EFFD"/>
        </linearGradient>
        <linearGradient id="c" x1="12.258" y1="78.854" x2="86.581" y2="78.854" gradientUnits="userSpaceOnUse">
            <stop stop-color="#09005D"/>
            <stop offset="1" stop-color="#1A0F91"/>
        </linearGradient>
        <linearGradient id="d" x1="15.859" y1="66.668" x2="23.471" y2="66.668" gradientUnits="userSpaceOnUse">
            <stop stop-color="#4042E2"/>
            <stop offset="1" stop-color="#4F52FF"/>
        </linearGradient>
        <linearGradient id="e" x1="15.861" y1="90.906" x2="23.473" y2="90.906" gradientUnits="userSpaceOnUse">
            <stop offset=".03" stop-color="#FE7062"/>
            <stop offset="1" stop-color="#FE7062"/>
        </linearGradient>
        <linearGradient id="f" x1="8.357" y1="79.079" x2="89.911" y2="79.079" gradientUnits="userSpaceOnUse">
            <stop offset=".49" stop-color="#001333"/>
            <stop offset="1" stop-color="#001E4F"/>
        </linearGradient>
        <linearGradient id="g" x1="3007.78" y1="-10093.4" x2="3359.8" y2="-10093.4" gradientUnits="userSpaceOnUse">
            <stop offset=".49" stop-color="#001333"/>
            <stop offset="1" stop-color="#001E4F"/>
        </linearGradient>
        <linearGradient id="h" x1="3007.78" y1="-10615" x2="3359.8" y2="-10615" gradientUnits="userSpaceOnUse">
            <stop offset=".49" stop-color="#001333"/>
            <stop offset="1" stop-color="#001E4F"/>
        </linearGradient>
        <linearGradient id="i" x1="12965.8" y1="-10093.4" x2="13318.8" y2="-10093.4" gradientUnits="userSpaceOnUse">
            <stop offset=".49" stop-color="#001333"/>
            <stop offset="1" stop-color="#001E4F"/>
        </linearGradient>
        <linearGradient id="j" x1="1766570" y1="-68587.5" x2="2027960" y2="-68587.5" gradientUnits="userSpaceOnUse">
            <stop offset=".49" stop-color="#001333"/>
            <stop offset="1" stop-color="#001E4F"/>
        </linearGradient>
        <linearGradient id="k" x1="1776210" y1="-59760.4" x2="2037670" y2="-59760.4" gradientUnits="userSpaceOnUse">
            <stop stop-color="#09005D"/>
            <stop offset="1" stop-color="#1A0F91"/>
        </linearGradient>
        <linearGradient id="l" x1="1226960" y1="-141133" x2="3235040" y2="-141133" gradientUnits="userSpaceOnUse">
            <stop stop-color="#09005D"/>
            <stop offset="1" stop-color="#1A0F91"/>
        </linearGradient>
        <linearGradient id="m" x1="162825" y1="-58506.9" x2="210835" y2="-58506.9" gradientUnits="userSpaceOnUse">
            <stop stop-color="#09005D"/>
            <stop offset="1" stop-color="#1A0F91"/>
        </linearGradient>
        <linearGradient id="n" x1="60448" y1="-3756.16" x2="81360.3" y2="-3756.16" gradientUnits="userSpaceOnUse">
            <stop offset=".03" stop-color="#FE7062"/>
            <stop offset="1" stop-color="#FE7062"/>
        </linearGradient>
        <linearGradient id="o" x1="1607.44" y1="-5872.42" x2="1658.07" y2="-5872.42" gradientUnits="userSpaceOnUse">
            <stop offset=".03" stop-color="#FE7062"/>
            <stop offset="1" stop-color="#FE7062"/>
        </linearGradient>
        <linearGradient id="p" x1="1349460" y1="-162478" x2="4056140" y2="-162478" gradientUnits="userSpaceOnUse">
            <stop offset=".49" stop-color="#001333"/>
            <stop offset="1" stop-color="#001E4F"/>
        </linearGradient>
        <linearGradient id="q" x1="2104.03" y1="-8455.9" x2="2267.15" y2="-8455.9" gradientUnits="userSpaceOnUse">
            <stop offset=".49" stop-color="#001333"/>
            <stop offset="1" stop-color="#001E4F"/>
        </linearGradient>
        <linearGradient id="r" x1="2104.03" y1="-8776.78" x2="2267.15" y2="-8776.78" gradientUnits="userSpaceOnUse">
            <stop offset=".49" stop-color="#001333"/>
            <stop offset="1" stop-color="#001E4F"/>
        </linearGradient>
        <linearGradient id="s" x1="6837.77" y1="-8776.78" x2="7000.9" y2="-8776.78" gradientUnits="userSpaceOnUse">
            <stop offset=".49" stop-color="#001333"/>
            <stop offset="1" stop-color="#001E4F"/>
        </linearGradient>
        <linearGradient id="t" x1="16086300" y1="-277906" x2="45531200" y2="-277906" gradientUnits="userSpaceOnUse">
            <stop stop-color="#09005D"/>
            <stop offset="1" stop-color="#1A0F91"/>
        </linearGradient>
        <linearGradient id="u" x1="12965.8" y1="-10615" x2="13318.8" y2="-10615" gradientUnits="userSpaceOnUse">
            <stop offset=".49" stop-color="#001333"/>
            <stop offset="1" stop-color="#001E4F"/>
        </linearGradient>
        <linearGradient id="v" x1="6837.77" y1="-8455.9" x2="7000.9" y2="-8455.9" gradientUnits="userSpaceOnUse">
            <stop offset=".49" stop-color="#001333"/>
            <stop offset="1" stop-color="#001E4F"/>
        </linearGradient>
        <linearGradient id="w" x1="2325170" y1="-124866" x2="3800380" y2="-124866" gradientUnits="userSpaceOnUse">
            <stop stop-color="#09005D"/>
            <stop offset="1" stop-color="#1A0F91"/>
        </linearGradient>
        <linearGradient id="x" x1="6695470" y1="-11987.5" x2="9648720" y2="-11987.5" gradientUnits="userSpaceOnUse">
            <stop stop-color="#09005D"/>
            <stop offset="1" stop-color="#1A0F91"/>
        </linearGradient>
        <linearGradient id="y" x1="6696430" y1="-101682" x2="9650100" y2="-101682" gradientUnits="userSpaceOnUse">
            <stop stop-color="#09005D"/>
            <stop offset="1" stop-color="#1A0F91"/>
        </linearGradient>
        <linearGradient id="z" x1="1704970" y1="-133209" x2="2153290" y2="-133209" gradientUnits="userSpaceOnUse">
            <stop stop-color="#09005D"/>
            <stop offset="1" stop-color="#1A0F91"/>
        </linearGradient>
        <linearGradient id="A" x1="1703770" y1="-15133.1" x2="2151770" y2="-15133.1" gradientUnits="userSpaceOnUse">
            <stop stop-color="#09005D"/>
            <stop offset="1" stop-color="#1A0F91"/>
        </linearGradient>
        <linearGradient id="B" x1="43007.1" y1="-18753.8" x2="44622" y2="-18753.8" gradientUnits="userSpaceOnUse">
            <stop offset=".03" stop-color="#FE7062"/>
            <stop offset="1" stop-color="#FE7062"/>
        </linearGradient>
        <linearGradient id="C" x1="43007.1" y1="-18911.1" x2="44622" y2="-18911.1" gradientUnits="userSpaceOnUse">
            <stop stop-color="#4042E2"/>
            <stop offset="1" stop-color="#4F52FF"/>
        </linearGradient>
        <linearGradient id="D" x1="1240.23" y1="6731.2" x2="1332.48" y2="6731.2" gradientUnits="userSpaceOnUse">
            <stop stop-color="#09005D"/>
            <stop offset="1" stop-color="#1A0F91"/>
        </linearGradient>
        <linearGradient id="E" x1="33838.3" y1="5612.34" x2="40079.8" y2="5612.34" gradientUnits="userSpaceOnUse">
            <stop stop-color="#09005D"/>
            <stop offset="1" stop-color="#1A0F91"/>
        </linearGradient>
        <linearGradient id="F" x1="243.349" y1="49.511" x2="273.823" y2="49.511" gradientUnits="userSpaceOnUse">
            <stop stop-color="#FE7062"/>
            <stop offset="1" stop-color="#FF928E"/>
        </linearGradient>
        <linearGradient id="G" x1="9562.21" y1="39.374" x2="9892.02" y2="39.374" gradientUnits="userSpaceOnUse">
            <stop stop-color="#FEBBBA"/>
            <stop offset="1" stop-color="#FF928E"/>
        </linearGradient>
        <linearGradient id="H" x1="254.535" y1="32.543" x2="263.131" y2="32.543" gradientUnits="userSpaceOnUse">
            <stop stop-color="#FFBCBB"/>
            <stop offset="1" stop-color="#FF928E"/>
        </linearGradient>
        <linearGradient id="I" x1="3273.73" y1="-9640.62" x2="3280.09" y2="-9640.62" gradientUnits="userSpaceOnUse">
            <stop stop-color="#FEBBBA"/>
            <stop offset="1" stop-color="#FF928E"/>
        </linearGradient>
        <linearGradient id="J" x1="2897.55" y1="-9749.08" x2="2902.94" y2="-9749.08" gradientUnits="userSpaceOnUse">
            <stop stop-color="#FEBBBA"/>
            <stop offset="1" stop-color="#FF928E"/>
        </linearGradient>
        <linearGradient id="K" x1="266341" y1="-26217.2" x2="274445" y2="-26217.2" gradientUnits="userSpaceOnUse">
            <stop offset=".49" stop-color="#001333"/>
            <stop offset="1" stop-color="#001E4F"/>
        </linearGradient>
        <linearGradient id="L" x1="29536.8" y1="770.165" x2="33888.3" y2="770.165" gradientUnits="userSpaceOnUse">
            <stop stop-color="#09005D"/>
            <stop offset="1" stop-color="#1A0F91"/>
        </linearGradient>
        <linearGradient id="M" x1="29143.9" y1="13826.1" x2="35383.7" y2="13826.1" gradientUnits="userSpaceOnUse">
            <stop stop-color="#09005D"/>
            <stop offset="1" stop-color="#1A0F91"/>
        </linearGradient>
        <linearGradient id="N" x1="17496.7" y1="3047.74" x2="19534" y2="3047.74" gradientUnits="userSpaceOnUse">
            <stop stop-color="#FEBBBA"/>
            <stop offset="1" stop-color="#FF928E"/>
        </linearGradient>
        <linearGradient id="O" x1="233.454" y1="110.598" x2="238.692" y2="110.598" gradientUnits="userSpaceOnUse">
            <stop offset=".53" stop-color="#FEBBBA"/>
            <stop offset="1" stop-color="#FF928E"/>
        </linearGradient>
        <linearGradient id="P" x1="232.133" y1="106.459" x2="239.859" y2="106.459" gradientUnits="userSpaceOnUse">
            <stop stop-color="#FF928E"/>
            <stop offset=".99" stop-color="#FF928E"/>
        </linearGradient>
        <linearGradient id="Q" x1="14516.3" y1="6999.34" x2="15874.8" y2="6999.34" gradientUnits="userSpaceOnUse">
            <stop stop-color="#FF928E"/>
            <stop offset=".99" stop-color="#FF928E"/>
        </linearGradient>
        <linearGradient id="R" x1="235.444" y1="168.398" x2="235.446" y2="168.398" gradientUnits="userSpaceOnUse">
            <stop stop-color="#FF928E"/>
            <stop offset=".99" stop-color="#FF928E"/>
        </linearGradient>
        <linearGradient id="S" x1="11804.2" y1="6666.3" x2="12696.4" y2="6666.3" gradientUnits="userSpaceOnUse">
            <stop stop-color="#FF928E"/>
            <stop offset=".99" stop-color="#FF928E"/>
        </linearGradient>
        <linearGradient id="T" x1="220.879" y1="98.767" x2="229.96" y2="98.767" gradientUnits="userSpaceOnUse">
            <stop offset=".03" stop-color="#FE7062"/>
            <stop offset="1" stop-color="#FE7062"/>
        </linearGradient>
        <linearGradient id="U" x1="4888.61" y1="2776" x2="5023.76" y2="2776" gradientUnits="userSpaceOnUse">
            <stop stop-color="#FEBBBA"/>
            <stop offset="1" stop-color="#FF928E"/>
        </linearGradient>
        <linearGradient id="V" x1="4888.61" y1="2776" x2="5023.76" y2="2776" gradientUnits="userSpaceOnUse">
            <stop stop-color="#FEBBBA"/>
            <stop offset="1" stop-color="#FF928E"/>
        </linearGradient>
        <linearGradient id="W" x1="5717.84" y1="3130.43" x2="5901.16" y2="3130.43" gradientUnits="userSpaceOnUse">
            <stop stop-color="#FEBBBA"/>
            <stop offset="1" stop-color="#FF928E"/>
        </linearGradient>
        <linearGradient id="X" x1="9230.13" y1="3007.5" x2="9734.12" y2="3007.5" gradientUnits="userSpaceOnUse">
            <stop stop-color="#09005D"/>
            <stop offset="1" stop-color="#1A0F91"/>
        </linearGradient>
        <linearGradient id="Y" x1="5621.55" y1="5489.18" x2="5822.22" y2="5489.18" gradientUnits="userSpaceOnUse">
            <stop stop-color="#FF928E"/>
            <stop offset=".99" stop-color="#FF928E"/>
        </linearGradient>
        <linearGradient id="Z" x1="2256480" y1="3116.67" x2="2483010" y2="3116.67" gradientUnits="userSpaceOnUse">
            <stop stop-color="#DAE3FE"/>
            <stop offset="1" stop-color="#E9EFFD"/>
        </linearGradient>
        <linearGradient id="aa" x1="109052" y1="-25459.3" x2="110917" y2="-25459.3" gradientUnits="userSpaceOnUse">
            <stop stop-color="#FEBBBA"/>
            <stop offset="1" stop-color="#FF928E"/>
        </linearGradient>
        <linearGradient id="ab" x1="280804" y1="-34262.4" x2="288935" y2="-34262.4" gradientUnits="userSpaceOnUse">
            <stop stop-color="#FEBBBA"/>
            <stop offset="1" stop-color="#FF928E"/>
        </linearGradient>
        <linearGradient id="ac" x1="369.285" y1="33.796" x2="379.569" y2="33.796" gradientUnits="userSpaceOnUse">
            <stop stop-color="#E1473D"/>
            <stop offset="1" stop-color="#E9605A"/>
        </linearGradient>
        <linearGradient id="ad" x1="16521" y1="-9051.85" x2="16611.2" y2="-9051.85" gradientUnits="userSpaceOnUse">
            <stop stop-color="#FEBBBA"/>
            <stop offset="1" stop-color="#FF928E"/>
        </linearGradient>
        <linearGradient id="ae" x1="739837" y1="3043.44" x2="776734" y2="3043.44" gradientUnits="userSpaceOnUse">
            <stop stop-color="#09005D"/>
            <stop offset="1" stop-color="#1A0F91"/>
        </linearGradient>
        <linearGradient id="af" x1="321380" y1="2770.83" x2="334275" y2="2770.83" gradientUnits="userSpaceOnUse">
            <stop stop-color="#09005D"/>
            <stop offset="1" stop-color="#1A0F91"/>
        </linearGradient>
        <linearGradient id="ag" x1="140261" y1="3043.98" x2="142998" y2="3043.98" gradientUnits="userSpaceOnUse">
            <stop stop-color="#09005D"/>
            <stop offset="1" stop-color="#1A0F91"/>
        </linearGradient>
        <linearGradient id="ah" x1="40940.9" y1="2776.97" x2="41350.9" y2="2776.97" gradientUnits="userSpaceOnUse">
            <stop stop-color="#09005D"/>
            <stop offset="1" stop-color="#1A0F91"/>
        </linearGradient>
        <linearGradient id="ai" x1="8320.97" y1="1193.95" x2="8351.95" y2="1193.95" gradientUnits="userSpaceOnUse">
            <stop offset=".49" stop-color="#001333"/>
            <stop offset="1" stop-color="#001E4F"/>
        </linearGradient>
        <linearGradient id="aj" x1="-19101.5" y1="8672.14" x2="-19715" y2="8672.14" gradientUnits="userSpaceOnUse">
            <stop stop-color="#09005D"/>
            <stop offset="1" stop-color="#1A0F91"/>
        </linearGradient>
        <linearGradient id="ak" x1="-22509" y1="7038.11" x2="-23522.6" y2="7038.11" gradientUnits="userSpaceOnUse">
            <stop stop-color="#09005D"/>
            <stop offset="1" stop-color="#1A0F91"/>
        </linearGradient>
        <linearGradient id="al" x1="333.902" y1="162.811" x2="295.64" y2="162.811" gradientUnits="userSpaceOnUse">
            <stop offset=".49" stop-color="#001333"/>
            <stop offset="1" stop-color="#001E4F"/>
        </linearGradient>
        <linearGradient id="am" x1="-19617.5" y1="3960.04" x2="-20531.1" y2="3960.04" gradientUnits="userSpaceOnUse">
            <stop stop-color="#FEBBBA"/>
            <stop offset="1" stop-color="#FF928E"/>
        </linearGradient>
        <linearGradient id="an" x1="-353.612" y1="171.832" x2="-354.77" y2="171.832" gradientUnits="userSpaceOnUse">
            <stop stop-color="#FEBBBA"/>
            <stop offset="1" stop-color="#FF928E"/>
        </linearGradient>
        <linearGradient id="ao" x1="56349.8" y1="23987.8" x2="62984.1" y2="23987.8" gradientUnits="userSpaceOnUse">
            <stop offset=".49" stop-color="#001333"/>
            <stop offset="1" stop-color="#001E4F"/>
        </linearGradient>
        <linearGradient id="ap" x1="45722.1" y1="24178.6" x2="49108.3" y2="24178.6" gradientUnits="userSpaceOnUse">
            <stop offset=".49" stop-color="#001333"/>
            <stop offset="1" stop-color="#001E4F"/>
        </linearGradient>
        <linearGradient id="aq" x1="-14180" y1="2703.59" x2="-14538.4" y2="2703.59" gradientUnits="userSpaceOnUse">
            <stop stop-color="#FEBBBA"/>
            <stop offset="1" stop-color="#FF928E"/>
        </linearGradient>
        <linearGradient id="ar" x1="-15311.5" y1="3563.03" x2="-15719.7" y2="3563.03" gradientUnits="userSpaceOnUse">
            <stop stop-color="#FEBBBA"/>
            <stop offset="1" stop-color="#FF928E"/>
        </linearGradient>
        <linearGradient id="as" x1="-25700.8" y1="3753.28" x2="-26888.6" y2="3753.28" gradientUnits="userSpaceOnUse">
            <stop stop-color="#FEBBBA"/>
            <stop offset="1" stop-color="#FF928E"/>
        </linearGradient>
        <linearGradient id="at" x1="-26478.4" y1="3153.84" x2="-27729.5" y2="3153.84" gradientUnits="userSpaceOnUse">
            <stop stop-color="#09005D"/>
            <stop offset="1" stop-color="#1A0F91"/>
        </linearGradient>
        <linearGradient id="au" x1="314.373" y1="60.068" x2="307.21" y2="60.068" gradientUnits="userSpaceOnUse">
            <stop offset=".5" stop-color="#FF928E"/>
            <stop offset=".97" stop-color="#FF928E"/>
        </linearGradient>
        <clipPath id="a">
            <path fill="#fff" d="M0 0h411.73v224H0z"/>
        </clipPath>
    </defs>
</svg>
