<svg width="90" height="16" viewBox="0 0 90 16" fill="none" xmlns="http://www.w3.org/2000/svg">
<path d="M89 9.03711C89.5523 9.03711 90 8.58939 90 8.03711C90 7.48482 89.5523 7.03711 89 7.03711V9.03711ZM0.292892 7.33C-0.0976334 7.72053 -0.0976334 8.35369 0.292892 8.74422L6.65685 15.1082C7.04738 15.4987 7.68054 15.4987 8.07107 15.1082C8.46159 14.7177 8.46159 14.0845 8.07107 13.694L2.41422 8.03711L8.07107 2.38026C8.46159 1.98973 8.46159 1.35657 8.07107 0.966042C7.68054 0.575517 7.04738 0.575517 6.65685 0.966042L0.292892 7.33ZM89 7.03711L1 7.03711V9.03711L89 9.03711V7.03711Z" fill="#FF7F5C"/>
</svg>
