<svg width="638" height="651" viewBox="0 0 638 651" fill="none" xmlns="http://www.w3.org/2000/svg">
<g filter="url(#filter0_f_1547_59062)">
<path d="M299.929 353.617C266.868 432.917 323.651 455.998 316.048 525.959C311.309 569.562 200.154 592.825 208.797 539.385C219.599 472.583 128.49 358.101 86.0526 235.362C43.6155 112.624 248.603 70.5985 314.75 83.0627C380.898 95.5268 332.989 274.317 299.929 353.617Z" fill="url(#paint0_linear_1547_59062)" fill-opacity="0.15"/>
</g>
<g filter="url(#filter1_f_1547_59062)">
<path d="M492.112 497.071C433.884 563.635 373.482 553.767 350.559 540.513C397.4 480.042 361.326 369.191 348.672 314.178C336.018 259.165 180.611 187.986 276.611 139.364C372.612 90.7411 492.904 210.085 533.12 244.239C573.336 278.392 564.896 413.867 492.112 497.071Z" fill="url(#paint1_linear_1547_59062)" fill-opacity="0.15"/>
</g>
<defs>
<filter id="filter0_f_1547_59062" x="0.321289" y="0.962036" width="427.543" height="649.358" filterUnits="userSpaceOnUse" color-interpolation-filters="sRGB">
<feFlood flood-opacity="0" result="BackgroundImageFix"/>
<feBlend mode="normal" in="SourceGraphic" in2="BackgroundImageFix" result="shape"/>
<feGaussianBlur stdDeviation="40" result="effect1_foregroundBlur_1547_59062"/>
</filter>
<filter id="filter1_f_1547_59062" x="165.467" y="47.877" width="471.574" height="582.271" filterUnits="userSpaceOnUse" color-interpolation-filters="sRGB">
<feFlood flood-opacity="0" result="BackgroundImageFix"/>
<feBlend mode="normal" in="SourceGraphic" in2="BackgroundImageFix" result="shape"/>
<feGaussianBlur stdDeviation="40" result="effect1_foregroundBlur_1547_59062"/>
</filter>
<linearGradient id="paint0_linear_1547_59062" x1="192.635" y1="588.758" x2="154.672" y2="69.5589" gradientUnits="userSpaceOnUse">
<stop stop-color="#00D5F0"/>
<stop offset="1" stop-color="#00BED6"/>
</linearGradient>
<linearGradient id="paint1_linear_1547_59062" x1="419.102" y1="591.979" x2="111.259" y2="273.068" gradientUnits="userSpaceOnUse">
<stop stop-color="#0065F2"/>
<stop offset="1" stop-color="#7298FF"/>
</linearGradient>
</defs>
</svg>
