<svg width="16" height="27" viewBox="0 0 16 27" fill="none" xmlns="http://www.w3.org/2000/svg">
<path d="M9 1.33594C9 0.783653 8.55228 0.335938 8 0.335938C7.44772 0.335938 7 0.783653 7 1.33594H9ZM7.29289 26.043C7.68342 26.4336 8.31658 26.4336 8.70711 26.043L15.0711 19.6791C15.4616 19.2886 15.4616 18.6554 15.0711 18.2649C14.6805 17.8743 14.0474 17.8743 13.6569 18.2649L8 23.9217L2.34315 18.2649C1.95262 17.8743 1.31946 17.8743 0.928932 18.2649C0.538408 18.6554 0.538408 19.2886 0.928932 19.6791L7.29289 26.043ZM7 1.33594L7 25.3359H9L9 1.33594H7Z" fill="#FF7F5C"/>
</svg>
