<svg width="36" height="36" viewBox="0 0 36 36" fill="none" xmlns="http://www.w3.org/2000/svg">
<g clip-path="url(#clip0)">
<path fill-rule="evenodd" clip-rule="evenodd" d="M3.00018 36C2.6039 36.0085 2.21 35.9366 1.8422 35.7889C1.4744 35.6411 1.14031 35.4204 0.860032 35.1402C0.579754 34.8599 0.359088 34.5258 0.211317 34.158C0.0635455 33.7902 -0.00827455 33.3963 0.000180211 33C0.000180211 30 3.00018 21 18.0002 21C33.0002 21 36.0002 30 36.0002 33C36.0086 33.3963 35.9368 33.7902 35.789 34.158C35.6413 34.5258 35.4206 34.8599 35.1403 35.1402C34.86 35.4204 34.526 35.6411 34.1582 35.7889C33.7904 35.9366 33.3965 36.0085 33.0002 36H3.00018ZM18.0002 18C19.7802 18 21.5203 17.4722 23.0003 16.4832C24.4804 15.4943 25.6339 14.0887 26.3151 12.4442C26.9963 10.7996 27.1745 8.99002 26.8272 7.24419C26.48 5.49836 25.6228 3.89472 24.3641 2.63604C23.1055 1.37737 21.5018 0.520204 19.756 0.172937C18.0102 -0.17433 16.2006 0.00389951 14.556 0.685088C12.9115 1.36628 11.5059 2.51983 10.517 3.99987C9.52802 5.47991 9.00018 7.21997 9.00018 9C9.00018 11.387 9.94839 13.6761 11.6362 15.364C13.324 17.0518 15.6132 18 18.0002 18V18Z" fill="white"/>
</g>
<defs>
<clipPath id="clip0">
<rect width="36" height="36" fill="white"/>
</clipPath>
</defs>
</svg>
