<svg width="44" height="40" viewBox="0 0 44 40" fill="none" xmlns="http://www.w3.org/2000/svg">
<g clip-path="url(#clip0)">
<path d="M25.0753 18.7501C29.6121 18.7501 33.6198 14.5894 34.0134 9.47394C34.1276 8.2534 33.9793 7.02307 33.5779 5.86147C33.1766 4.69987 32.5311 3.63252 31.6826 2.72751C30.8356 1.85146 29.8109 1.15659 28.6734 0.687058C27.5359 0.217524 26.3106 -0.0164059 25.0753 0.000133541C23.8395 -0.0201584 22.613 0.210381 21.4738 0.677074C20.3345 1.14377 19.3075 1.83639 18.4581 2.71085C17.6115 3.6199 16.9679 4.69033 16.5681 5.85431C16.1684 7.0183 16.0212 8.25047 16.1359 9.47275C16.5234 14.5835 20.531 18.7501 25.0753 18.7501Z" fill="white"/>
<path d="M43.9425 36.6322C43.5244 34.6497 42.6799 32.776 41.4646 31.1345C40.2493 29.4929 38.6907 28.1208 36.8915 27.1084C33.2198 24.9848 29.0199 23.884 24.75 23.9262C20.4802 23.8842 16.2804 24.9845 12.6084 27.1072C10.8092 28.1196 9.25067 29.4917 8.03534 31.1333C6.82001 32.7748 5.97549 34.6485 5.5574 36.631C5.46551 37.0596 5.47789 37.5033 5.59356 37.9264C5.70922 38.3496 5.92496 38.7405 6.22351 39.0679C6.5073 39.369 6.85361 39.6078 7.23946 39.7686C7.6253 39.9293 8.04184 40.0082 8.4614 40H41.0361C41.456 40.0085 41.8731 39.9298 42.2594 39.7691C42.6456 39.6083 42.9924 39.3693 43.2764 39.0679C43.5745 38.7403 43.7898 38.3493 43.9051 37.9261C44.0203 37.503 44.0323 37.0594 43.9401 36.631L43.9425 36.6322Z" fill="white"/>
<path d="M7.56311 22.481V19.1322H11.0012C11.3659 19.1322 11.7156 18.9911 11.9735 18.7399C12.2314 18.4887 12.3762 18.1481 12.3762 17.7929C12.3762 17.4377 12.2314 17.097 11.9735 16.8459C11.7156 16.5947 11.3659 16.4536 11.0012 16.4536H7.56311V13.1048C7.56311 12.7496 7.41825 12.4089 7.16038 12.1578C6.90252 11.9066 6.55278 11.7655 6.18811 11.7655C5.82344 11.7655 5.4737 11.9066 5.21584 12.1578C4.95798 12.4089 4.81311 12.7496 4.81311 13.1048V16.4536H1.375C1.01033 16.4536 0.660591 16.5947 0.402728 16.8459C0.144866 17.097 0 17.4377 0 17.7929C0 18.1481 0.144866 18.4887 0.402728 18.7399C0.660591 18.9911 1.01033 19.1322 1.375 19.1322H4.81311V22.481C4.81311 22.8362 4.95798 23.1768 5.21584 23.428C5.4737 23.6792 5.82344 23.8203 6.18811 23.8203C6.55278 23.8203 6.90252 23.6792 7.16038 23.428C7.41825 23.1768 7.56311 22.8362 7.56311 22.481V22.481Z" fill="white"/>
</g>
<defs>
<clipPath id="clip0">
<rect width="44" height="40" fill="white"/>
</clipPath>
</defs>
</svg>
