<svg width="43" height="40" viewBox="0 0 43 40" fill="none" xmlns="http://www.w3.org/2000/svg">
<g clip-path="url(#clip0)">
<path d="M41.0588 37.3755C41.0588 38.0712 40.7885 38.7384 40.3073 39.2304C39.8261 39.7224 39.1735 39.9987 38.4929 39.9987H2.56588C1.88537 39.9987 1.23273 39.7224 0.75153 39.2304C0.270333 38.7384 0 38.0712 0 37.3755V8.50849C0.00124658 7.81358 0.27213 7.14758 0.753191 6.65666C1.23425 6.16573 1.88618 5.89001 2.56588 5.89001H25.6094L20.0494 15.5917C19.8073 15.9533 19.6632 16.374 19.6317 16.811C19.6002 17.248 19.6825 17.6857 19.8702 18.0797C20.0578 18.4736 20.3441 18.8097 20.7 19.0539C21.056 19.298 21.4688 19.4414 21.8965 19.4695C21.9845 19.4776 22.0729 19.4804 22.1612 19.4779H32.66L26.1518 28.2715L17.4894 15.0733L9.34118 27.248L6.09529 24.3083L4.38824 26.2641L9.81647 31.1835L17.4635 19.7438L26.0224 32.7844L35.8824 19.4815H41.0588V37.3755Z" fill="white"/>
<path d="M31.8915 0.829823L24.5515 13.767C24.3826 14.0237 24.2861 14.3229 24.2726 14.6319C24.2591 14.9409 24.3292 15.2478 24.475 15.5188C24.6208 15.7898 24.8369 16.0145 25.0994 16.1682C25.362 16.322 25.6608 16.3988 25.9633 16.3903H40.6562C40.9587 16.3988 41.2575 16.322 41.5201 16.1682C41.7826 16.0145 41.9987 15.7898 42.1445 15.5188C42.2904 15.2478 42.3604 14.9409 42.3469 14.6319C42.3334 14.3229 42.2369 14.0237 42.068 13.767L34.7233 0.829823C34.5776 0.577993 34.3702 0.369319 34.1216 0.224363C33.8731 0.0794078 33.5918 0.00317383 33.3056 0.00317383C33.0195 0.00317383 32.7382 0.0794078 32.4896 0.224363C32.241 0.369319 32.0337 0.577993 31.888 0.829823H31.8915Z" fill="white"/>
</g>
<defs>
<clipPath id="clip0">
<rect width="42.3529" height="40" fill="white"/>
</clipPath>
</defs>
</svg>
