<svg width="50" height="50" viewBox="0 0 50 50" fill="none" xmlns="http://www.w3.org/2000/svg">
<g clip-path="url(#clip0)">
<path d="M43.8433 43.948C43.8433 42.4 42.5907 41.1473 41.0427 41.1473H8.95694C7.40892 41.1473 6.15625 42.4 6.15625 43.948C6.15625 45.496 7.40892 46.7487 8.95694 46.7487H41.0427C42.5907 46.7487 43.8433 45.491 43.8433 43.948Z" fill="white"/>
<path d="M3.33017 21.2776C3.376 21.2776 3.41674 21.2776 3.46257 21.2725L7.90294 37.3434H25.0024H42.0968L46.5372 21.2725C46.583 21.2725 46.6237 21.2776 46.6696 21.2776C48.5079 21.2776 49.9999 19.7856 49.9999 17.9473C49.9999 16.1091 48.5078 14.617 46.6696 14.617C44.8314 14.617 43.3393 16.1091 43.3393 17.9473C43.3393 18.3038 43.3954 18.65 43.5023 18.9708L35.4719 23.6658L26.8407 9.35685C27.737 8.76106 28.3328 7.73754 28.3328 6.58162C28.3328 4.74335 26.8407 3.25134 25.0025 3.25134C23.1643 3.25134 21.6722 4.74335 21.6722 6.58162C21.6722 7.74263 22.2629 8.76106 23.1643 9.35685L14.533 23.6658L6.50269 18.9708C6.60454 18.65 6.66564 18.3038 6.66564 17.9473C6.66564 16.1091 5.17364 14.617 3.33537 14.617C1.492 14.617 0 16.1091 0 17.9473C0 19.7856 1.4919 21.2776 3.33017 21.2776Z" fill="white"/>
</g>
<defs>
<clipPath id="clip0">
<rect width="50" height="50" fill="white"/>
</clipPath>
</defs>
</svg>
