<svg width="450" height="260" fill="none" xmlns="http://www.w3.org/2000/svg">
    <g clip-path="url(#a)">
        <path d="M421.969 84.789c-10.282-21.972-68.35-120.56-144.578-71.09-39.392 25.548-101.266-3.806-156.237 12.565-50.481 15.06-55.352 64.69-50.466 80.862 9.894 32.665-20.838 37.528-49.324 51.562-44.682 22.032-11.82 99.409 30.389 99.774 42.208.365 297.931-.761 297.931-.761s67.734 11.713 87.993-23.821c17.056-29.864 17.17-78.792-15.708-149.091z" fill="url(#b)"/>
        <g opacity=".4">
            <path opacity=".4" d="M297.718 25.465h-43.22v35.64h43.22v-35.64z" fill="#ADBEE6"/>
            <path opacity=".4" d="M276.113 25.465h-43.22v35.64h43.22v-35.64z" fill="#BDD0FB"/>
            <path opacity=".4" d="M297.695 52.064h-6.849l.609-1.926-.609-1.377h6.849v3.303z" fill="#739AF0"/>
            <path opacity=".4" d="M276.113 36.492h-6.849l.601-1.925-.601-1.377h6.849v3.302z" fill="#ADBEE6"/>
            <path opacity=".4" d="M276.113 33.19h6.85l-.601 1.925.601 1.377h-6.85V33.19z" fill="#739AF0"/>
            <path opacity=".4" d="M232.893 52.452h6.849l-.609 1.926.609 1.377h-6.849v-3.303zM235.723 32.726h12.435v-4.84h-12.435v4.84zM374.052 25.465h-43.22v35.64h43.22v-35.64z" fill="#ADBEE6"/>
            <path opacity=".4" d="M352.439 25.465h-43.22v35.64h43.22v-35.64z" fill="#BDD0FB"/>
            <path opacity=".4" d="M374.029 52.064h-6.849l.601-1.926-.601-1.377h6.849v3.303z" fill="#739AF0"/>
            <path opacity=".4" d="M352.439 36.492h-6.849l.609-1.925-.609-1.377h6.849v3.302z" fill="#ADBEE6"/>
            <path opacity=".4" d="M352.439 33.19h6.85l-.601 1.925.601 1.377h-6.85V33.19z" fill="#739AF0"/>
            <path opacity=".4" d="M309.219 52.452h6.849l-.601 1.926.601 1.377h-6.849v-3.303zM312.051 32.726h12.435v-4.84h-12.435v4.84z" fill="#ADBEE6"/>
            <path opacity=".4" d="M385.384 259.384h16.622V61.098h-16.622v198.286zM205.927 259.384h13.821V61.098h-13.821v198.286z" fill="#BDD0FB"/>
            <path opacity=".4" d="M205.927 66.265h179.458v-5.16H205.927v5.16zM205.927 160.24h179.458v-5.16H205.927v5.16zM205.927 239.063h179.458v-5.159H205.927v5.159z" fill="#BDD0FB"/>
            <path opacity=".4" d="M294.729 118.237h-44.682v36.843h44.682v-36.843z" fill="#ADBEE6"/>
            <path opacity=".4" d="M272.383 118.237h-44.682v36.843h44.682v-36.843z" fill="#BDD0FB"/>
            <path opacity=".4" d="M294.705 145.742h-7.078l.624-1.994-.624-1.423h7.078v3.417z" fill="#739AF0"/>
            <path opacity=".4" d="M272.39 129.639h-7.085l.624-1.987-.624-1.43h7.085v3.417z" fill="#ADBEE6"/>
            <path opacity=".4" d="M272.391 126.222h7.077l-.624 1.994.624 1.423h-7.077v-3.417z" fill="#739AF0"/>
            <path opacity=".4" d="M227.701 146.138h7.078l-.624 1.986.624 1.431h-7.078v-3.417zM230.624 125.742h12.862v-5h-12.862v5zM352.074 118.237h-44.681v36.843h44.681v-36.843z" fill="#ADBEE6"/>
            <path opacity=".4" d="M329.728 118.237h-44.681v36.843h44.681v-36.843z" fill="#BDD0FB"/>
            <path opacity=".4" d="M352.05 145.742h-7.085l.632-1.994-.632-1.423h7.085v3.417z" fill="#739AF0"/>
            <path opacity=".4" d="M329.738 129.639h-7.086l.624-1.987-.624-1.43h7.086v3.417z" fill="#ADBEE6"/>
            <path opacity=".4" d="M329.736 126.222h7.078l-.624 1.994.624 1.423h-7.078v-3.417z" fill="#739AF0"/>
            <path opacity=".4" d="M285.047 146.138h7.078l-.624 1.986.624 1.431h-7.078v-3.417zM285.047 125.742h7.078l-.624 1.994.624 1.423h-7.078v-3.417zM304.257 151.139h20.96v-8.151h-20.96v8.151zM355.506 89.903h-34.164v28.167h34.164V89.903z" fill="#ADBEE6"/>
            <path opacity=".4" d="M338.428 89.903h-34.164v28.167h34.164V89.903z" fill="#BDD0FB"/>
            <path opacity=".4" d="M355.483 110.924h-5.411l.48-1.522-.48-1.089h5.411v2.611z" fill="#739AF0"/>
            <path opacity=".4" d="M338.429 98.617h-5.419l.479-1.522-.479-1.088h5.419v2.61z" fill="#ADBEE6"/>
            <path opacity=".4" d="M338.428 96.007h5.411l-.48 1.522.48 1.088h-5.411v-2.61z" fill="#739AF0"/>
            <path opacity=".4" d="M304.264 111.229h5.411l-.48 1.522.48 1.088h-5.411v-2.61zM306.493 95.634h9.833v-3.828h-9.833v3.828zM294.469 89.903h-34.164v28.167h34.164V89.903z" fill="#ADBEE6"/>
            <path opacity=".4" d="M277.39 89.903h-34.163v28.167h34.163V89.903z" fill="#BDD0FB"/>
            <path opacity=".4" d="M294.446 110.924h-5.411l.48-1.522-.48-1.089h5.411v2.611z" fill="#739AF0"/>
            <path opacity=".4" d="M277.391 98.617h-5.418l.479-1.522-.479-1.088h5.418v2.61z" fill="#ADBEE6"/>
            <path opacity=".4" d="M277.391 96.007h5.411l-.48 1.522.48 1.088h-5.411v-2.61z" fill="#739AF0"/>
            <path opacity=".4" d="M243.227 111.229h5.411l-.48 1.522.48 1.088h-5.411v-2.61zM245.458 95.634h9.833v-3.828h-9.833v3.828z" fill="#ADBEE6"/>
        </g>
        <path d="m72.91 204.321.853-.251c-2.283-7.611 1.826-15.579 9.087-17.718l18.265-5.373a7.31 7.31 0 0 0 4.711-9.186c-3.767-12.786 3.045-26.104 15.221-29.681l-.258-.898c-12.626 3.721-19.719 17.55-15.815 30.83a6.397 6.397 0 0 1-4.125 8.037l-18.265 5.381c-7.725 2.275-12.063 10.731-9.673 18.859z" fill="url(#c)"/>
        <path d="m74.76 210.592.845-.251c-2.284-7.611 1.834-15.579 9.087-17.718l18.265-5.373a7.311 7.311 0 0 0 4.719-9.163c-3.76-12.785 3.044-26.104 15.221-29.681l-.267-.89c-12.626 3.714-19.719 17.504-15.807 30.822a6.39 6.39 0 0 1-4.079 8.014l-18.265 5.381c-7.77 2.276-12.109 10.708-9.72 18.859z" fill="url(#d)"/>
        <path d="M169.701 149.654h38.479v-31.728h-38.479v31.728z" fill="url(#e)"/>
        <path d="M188.941 149.654h38.479v-31.728h-38.479v31.728z" fill="url(#f)"/>
        <path d="M169.725 141.61h6.096l-.541-1.713.541-1.225h-6.096v2.938z" fill="#91B3FA"/>
        <path d="M188.941 127.751h6.096l-.54-1.72.54-1.225h-6.096v2.945z" fill="#BDD0FB"/>
        <path d="M188.942 124.806h-6.096l.532 1.72-.532 1.225h6.096v-2.945z" fill="#91B3FA"/>
        <path d="M227.42 141.952h-6.096l.533 1.72-.533 1.225h6.096v-2.945z" fill="#BDD0FB"/>
        <path d="M224.902 120.08h-11.074v4.308h11.074v-4.308z" fill="#fff"/>
        <path d="M168.316 31.653c5.518 0 11.31-.876 14.514-2.733 5.114-2.945 11.59-1.697 11.651-1.682l.16-.76c-.274-.054-6.849-1.325-12.177 1.773-5.327 3.097-18.455 3.333-24.414 1.301-5.96-2.032-13.661-4.148-16.904-4.148v.761c3.151 0 10.838 2.131 16.645 4.102a35.189 35.189 0 0 0 10.525 1.386z" fill="url(#g)"/>
        <path d="M200.03 105.147h2.527V88.686h-2.527v16.461zM195.038 105.147h2.526V88.686h-2.526v16.461z" fill="#739AF0"/>
        <path d="M168.315 29.88c5.518 0 11.31-.876 14.514-2.733 5.114-2.945 11.591-1.697 11.652-1.682l.159-.761c-.274-.053-6.849-1.324-12.177 1.773-5.327 3.098-18.455 3.334-24.414 1.302-5.959-2.032-13.692-4.186-16.934-4.186v.799c3.151 0 10.838 2.13 16.645 4.11a35.458 35.458 0 0 0 10.555 1.377z" fill="url(#h)"/>
        <path d="M115.179 126.1h1.042v-.799h-1.042a8.805 8.805 0 0 1-8.806-8.798V25.397a8.806 8.806 0 0 1 8.806-8.798h7.763v-.761h-7.763a9.613 9.613 0 0 0-9.605 9.597v91.068a9.614 9.614 0 0 0 9.605 9.597z" fill="url(#i)"/>
        <path d="M116.222 118.39v-.799a6.134 6.134 0 0 1-6.089-6.089v-84.72a5.943 5.943 0 0 1 5.936-5.937h6.157v-.8h-6.157a6.744 6.744 0 0 0-6.735 6.736v84.683a6.935 6.935 0 0 0 6.888 6.926z" fill="url(#j)"/>
        <path d="M199.147 92.339h.008c9.121 0 16.515-7.394 16.515-16.515V48.913c0-9.121-7.394-16.515-16.515-16.515h-.008c-9.121 0-16.515 7.394-16.515 16.515v26.91c0 9.122 7.394 16.516 16.515 16.516z" fill="#739AF0"/>
        <path d="M207.278 43.738a2.877 2.877 0 1 0-1.322-5.6 2.877 2.877 0 0 0 1.322 5.6zM209.49 81.92a2.882 2.882 0 0 0-1.771-2.663 2.874 2.874 0 0 0-3.137.619 2.881 2.881 0 0 0-.627 3.136 2.874 2.874 0 0 0 4.69.938 2.878 2.878 0 0 0 .845-2.03zM194.566 40.93a2.878 2.878 0 1 0-5.756 0 2.878 2.878 0 0 0 5.756 0zM194.566 81.92a2.874 2.874 0 0 0-3.433-2.83 2.875 2.875 0 0 0-2.102 3.922 2.874 2.874 0 0 0 4.69.938 2.878 2.878 0 0 0 .845-2.03z" fill="#DAE6FF"/>
        <path d="M186.879 107.972c.004.591.133 1.175.38 1.712h22.573a4.039 4.039 0 0 0 .381-1.712c0-3.737-5.221-6.774-11.667-6.774s-11.667 3.067-11.667 6.774z" fill="url(#k)"/>
        <path d="M167.326 115.68v30.686a7.473 7.473 0 0 0 3.235 6.157l9.361 6.454a1.465 1.465 0 0 0 1.635.027 1.48 1.48 0 0 0 .039-2.455l-9.361-6.454a4.563 4.563 0 0 1-1.956-3.729V115.68a6.01 6.01 0 0 1 6.005-6.012h44.522a6.01 6.01 0 0 1 5.989 6.012v30.511a4.504 4.504 0 0 1-2.131 3.805l-10.449 6.538a1.478 1.478 0 0 0-.659.918 1.465 1.465 0 0 0 .187 1.114 1.477 1.477 0 0 0 2.032.464l10.457-6.53a7.438 7.438 0 0 0 3.516-6.347V115.68a8.959 8.959 0 0 0-8.958-8.957h-44.521a8.958 8.958 0 0 0-8.943 8.957z" fill="url(#l)"/>
        <path d="M138.696 15.8h61.341v-1.85h-61.341v1.85z" fill="url(#m)"/>
        <path d="M138.696 20.968h61.341v-1.85h-61.341v1.85z" fill="url(#n)"/>
        <path d="M191.193 32.398h18.266V19.567a9.444 9.444 0 0 0-9.415-9.445 9.443 9.443 0 0 0-9.444 9.445v12.238a.594.594 0 0 0 .593.593z" fill="url(#o)"/>
        <path d="M118.323 179.792c0 6.961 5.643 12.604 12.603 12.604 6.961 0 12.603-5.643 12.603-12.604V22.733c0-6.96-5.642-12.603-12.603-12.603-6.96 0-12.603 5.643-12.603 12.603v157.059z" fill="#739AF0"/>
        <path d="M132.426 18.981a1.465 1.465 0 0 0-.89-1.356 1.469 1.469 0 1 0-.632 2.818 1.463 1.463 0 0 0 1.522-1.462z" fill="url(#p)"/>
        <path d="M128.947 157.387h4.863c7.028 0 12.725-5.697 12.725-12.725v-96.13c0-7.027-5.697-12.724-12.725-12.724h-4.863c-7.028 0-12.725 5.697-12.725 12.725v96.129c0 7.028 5.697 12.725 12.725 12.725z" fill="url(#q)"/>
        <path d="M136.299 201.619h-21.843v-10.228a10.209 10.209 0 0 1 .775-3.919 10.22 10.22 0 0 1 9.454-6.325h11.614a10.225 10.225 0 0 1 10.228 10.228 10.226 10.226 0 0 1-10.228 10.244z" fill="url(#r)"/>
        <path d="M200.045 24.711a5.586 5.586 0 1 0 0-11.172 5.586 5.586 0 0 0 0 11.172z" fill="url(#s)"/>
        <path d="M194.283 19.125a5.766 5.766 0 0 1 3.551-5.328 5.764 5.764 0 0 1 6.282 1.244 5.764 5.764 0 0 1-.87 8.866 5.763 5.763 0 0 1-3.202.972 5.768 5.768 0 0 1-5.761-5.754zm.35 0a5.407 5.407 0 0 0 3.351 4.989 5.411 5.411 0 1 0-3.351-4.989z" fill="url(#t)"/>
        <path d="M200.044 22.535a3.41 3.41 0 1 0 0-6.82 3.41 3.41 0 0 0 0 6.82z" fill="url(#u)"/>
        <path d="M62.605 241.941h295.61a20.159 20.159 0 0 0 20.168-20.168 20.165 20.165 0 0 0-20.168-20.169H62.605a20.166 20.166 0 0 0-20.167 20.169 20.165 20.165 0 0 0 12.448 18.634 20.145 20.145 0 0 0 7.72 1.534z" fill="#739AF0"/>
        <path d="M42.438 221.773a20.165 20.165 0 0 0 12.448 18.634 20.145 20.145 0 0 0 7.72 1.534h50.123a1.941 1.941 0 0 0 1.94-1.949v-36.439a1.95 1.95 0 0 0-1.94-1.949H62.606a20.166 20.166 0 0 0-20.169 20.169z" fill="#739AF0"/>
        <path d="M58.04 241.172c.075.259.159.51.235.761.67 2.177 1.416 4.376 2.222 6.621.114.312.229.624.35.936.98 2.664 2.07 5.378 3.273 8.144h29.087l267.025.129v-16.591H58.039z" fill="#7D97F4"/>
        <path d="m271.31 220.296.761 2.169v.053a.54.54 0 0 0 .646.343l1.873-.457h.099a.548.548 0 0 1 .302.067.547.547 0 0 1 .215.222 9.5 9.5 0 0 0 2.382 2.976.565.565 0 0 1 .137.662l-.715 1.446a.557.557 0 0 0 .205.708l1.994 1.263a.558.558 0 0 0 .761-.137l1.302-1.705a.52.52 0 0 1 .54-.197c.305.06.601.106.906.137a9.25 9.25 0 0 0 1.705.038.544.544 0 0 1 .54.319l.921 1.971.045.099a.552.552 0 0 0 .678.29l2.222-.815a.563.563 0 0 0 .373-.67l-.51-2.085a.554.554 0 0 1 .236-.601 9.721 9.721 0 0 0 2.238-1.971.554.554 0 0 1 .662-.145l1.712.845a.574.574 0 0 0 .761-.206l1.271-2.001a.543.543 0 0 0-.129-.715l-2.01-1.523a.562.562 0 0 1-.213-.548c.054-.266.092-.525.122-.761.053-.492.068-.989.046-1.484a.534.534 0 0 1 .312-.517l2.352-1.149a.547.547 0 0 0 .289-.693l-.807-2.23a.56.56 0 0 0-.571-.358h-.084l-2.283.564a.532.532 0 0 1-.57-.198v-.046a2.058 2.058 0 0 0-.099-.145c-.37-.58-.799-1.12-1.279-1.613a.52.52 0 0 1-.099-.616l.883-1.812a.562.562 0 0 0-.198-.761l-.449-.281-1.522-.975a.55.55 0 0 0-.761.13l-1.279 1.674a.52.52 0 0 1-.586.19 10.207 10.207 0 0 0-1.765-.357 9.024 9.024 0 0 0-1.355-.054l-.19-.411-.761-1.704a.545.545 0 0 0-.541-.305.45.45 0 0 0-.137 0l-2.237.807a.565.565 0 0 0-.35.647l.35 1.431a.568.568 0 0 1-.267.616 9.488 9.488 0 0 0-2.443 1.834.535.535 0 0 1-.631.114l-2.162-1.065a.536.536 0 0 0-.685.198l-1.286 2.024a.542.542 0 0 0 .13.716l2.085 1.59a.539.539 0 0 1 .198.586 9.687 9.687 0 0 0-.267 1.454c-.033.268-.05.537-.053.807a.542.542 0 0 1-.32.479l-2.283 1.058a.555.555 0 0 0-.357.784zm15.335-6.378.213.13a4.99 4.99 0 0 1 1.728 2.153c.141.375.246.762.312 1.157a5.194 5.194 0 0 1-1.522 4.672 5.182 5.182 0 0 1-2.202 1.25 5.18 5.18 0 0 1-2.532.06 5.842 5.842 0 0 1-1.865-.761 3.969 3.969 0 0 1-.411-.297 5.389 5.389 0 0 1-1.4-1.948 5.24 5.24 0 0 1 1.484-6.027 5.24 5.24 0 0 1 6.195-.389z" fill="url(#v)"/>
        <path d="m255.998 229.885.563 1.56v.038a.4.4 0 0 0 .464.251l1.347-.335h.069a.387.387 0 0 1 .218.051c.067.037.12.094.155.162a6.962 6.962 0 0 0 1.712 2.139.38.38 0 0 1 .076.084.408.408 0 0 1 0 .388l-.517 1.042a.421.421 0 0 0 .045.419.39.39 0 0 0 .099.091l1.439.906a.394.394 0 0 0 .532-.091l.936-1.233a.39.39 0 0 1 .396-.145c.214.047.43.083.647.107.408.038.818.038 1.225 0a.406.406 0 0 1 .396.228l.662 1.423v.069a.395.395 0 0 0 .487.205l1.705-.555a.406.406 0 0 0 .259-.48l-.365-1.522a.376.376 0 0 1 .167-.426 6.857 6.857 0 0 0 1.606-1.423.394.394 0 0 1 .479-.099l1.233.601a.41.41 0 0 0 .525-.145l.914-1.438a.39.39 0 0 0-.092-.518l-1.446-1.096a.409.409 0 0 1-.152-.395c.039-.189.067-.379.084-.571.043-.353.055-.71.038-1.066a.39.39 0 0 1 .228-.372l1.705-.762a.4.4 0 0 0 .205-.502l-.586-1.598a.394.394 0 0 0-.403-.259h-.061l-1.667.411a.399.399 0 0 1-.411-.144.497.497 0 0 0-.068-.107 6.38 6.38 0 0 0-.921-1.157.386.386 0 0 1-.068-.449l.639-1.301a.404.404 0 0 0-.152-.518l-.312-.205-1.119-.708c-.085-.053-.187-.072-.286-.053a.402.402 0 0 0-.247.152l-.913 1.21a.38.38 0 0 1-.419.129 7.739 7.739 0 0 0-1.278-.258 8.126 8.126 0 0 0-.974-.038l-.137-.29-.571-1.225a.365.365 0 0 0-.388-.221h-.099l-1.606.579a.4.4 0 0 0-.251.464l.251 1.027a.398.398 0 0 1-.19.442 6.961 6.961 0 0 0-1.758 1.324.4.4 0 0 1-.457.084l-1.522-.761a.396.396 0 0 0-.495.137l-.921 1.461a.39.39 0 0 0 .092.518l1.522 1.141a.405.405 0 0 1 .144.419 6.68 6.68 0 0 0-.198 1.05c0 .19 0 .38-.038.578a.376.376 0 0 1-.064.205.374.374 0 0 1-.164.138l-1.636.761a.406.406 0 0 0-.312.472zm11.027-4.567.16.099c.546.384.975.911 1.241 1.522.101.272.175.552.22.838a3.721 3.721 0 0 1-1.092 3.359 3.731 3.731 0 0 1-3.405.941 4.138 4.138 0 0 1-1.34-.564 1.77 1.77 0 0 1-.297-.213 3.703 3.703 0 0 1-1.004-1.4 3.804 3.804 0 0 1 5.517-4.627v.045z" fill="#BDD0FB"/>
        <path d="m184.07 220.296.761 2.169v.053a.552.552 0 0 0 .647.343l1.879-.457h.092a.54.54 0 0 1 .517.289 9.5 9.5 0 0 0 2.382 2.976c.037.034.07.073.099.114a.56.56 0 0 1 0 .548l-.715 1.446a.557.557 0 0 0 .205.708l1.987 1.263a.562.562 0 0 0 .761-.137l1.294-1.705a.55.55 0 0 1 .555-.197c.299.061.602.107.906.137a9.163 9.163 0 0 0 1.697.038.539.539 0 0 1 .54.319l.921 1.971.046.099a.548.548 0 0 0 .677.289l2.222-.814a.57.57 0 0 0 .358-.662l-.51-2.085a.553.553 0 0 1 .236-.601 9.514 9.514 0 0 0 2.23-1.972.566.566 0 0 1 .67-.144l1.712.845a.553.553 0 0 0 .723-.206l1.279-2.002a.54.54 0 0 0-.13-.715l-2.009-1.522a.553.553 0 0 1-.205-.548c.045-.266.083-.525.114-.761.053-.493.068-.989.046-1.484a.533.533 0 0 1 .312-.518l2.374-1.103a.55.55 0 0 0 .289-.693l-.814-2.23a.547.547 0 0 0-.563-.357h-.084l-2.283.563a.532.532 0 0 1-.571-.198l-.038-.046a10.006 10.006 0 0 0-1.37-1.758.52.52 0 0 1-.099-.616l.891-1.812a.57.57 0 0 0-.214-.761l-.441-.281-1.522-.974a.54.54 0 0 0-.407-.092.544.544 0 0 0-.354.221l-1.279 1.674a.528.528 0 0 1-.586.191 10.094 10.094 0 0 0-1.773-.358 8.888 8.888 0 0 0-1.355-.053l-.19-.411-.761-1.705a.543.543 0 0 0-.54-.304.394.394 0 0 0-.137 0l-2.238.806a.563.563 0 0 0-.35.647l.358 1.431a.583.583 0 0 1-.274.616 9.492 9.492 0 0 0-2.443 1.835.53.53 0 0 1-.632.114l-2.169-1.066a.528.528 0 0 0-.677.198l-1.279 2.025a.525.525 0 0 0 .122.715l2.085 1.591a.536.536 0 0 1 .198.586 8.845 8.845 0 0 0-.266 1.453c0 .267-.046.541-.053.807a.55.55 0 0 1-.32.479l-2.283 1.058a.567.567 0 0 0-.251.731zm15.327-6.378.213.13a4.99 4.99 0 0 1 1.728 2.153c.142.375.246.762.312 1.157a5.198 5.198 0 0 1-1.521 4.672 5.186 5.186 0 0 1-4.735 1.31 5.828 5.828 0 0 1-1.864-.761 2.736 2.736 0 0 1-.411-.297 5.331 5.331 0 0 1-1.401-1.948 5.24 5.24 0 0 1 1.484-6.027 5.246 5.246 0 0 1 6.195-.389z" fill="url(#w)"/>
        <path d="m168.757 229.885.564 1.56v.038a.404.404 0 0 0 .464.251l1.354-.335h.099a.384.384 0 0 1 .373.213 6.98 6.98 0 0 0 1.713 2.139.4.4 0 0 1 .076.083.382.382 0 0 1 0 .389l-.51 1.042a.393.393 0 0 0 .046.419.37.37 0 0 0 .098.091l1.431.906a.406.406 0 0 0 .541-.091l.936-1.233a.388.388 0 0 1 .395-.145c.214.047.43.083.647.107.408.037.818.037 1.226 0a.39.39 0 0 1 .388.228l.662 1.423v.069a.398.398 0 0 0 .487.205l1.598-.586a.401.401 0 0 0 .259-.479l-.365-1.523a.387.387 0 0 1 .167-.426 6.834 6.834 0 0 0 1.606-1.423.39.39 0 0 1 .223-.132.39.39 0 0 1 .256.033l1.233.601a.41.41 0 0 0 .525-.144l.914-1.439a.388.388 0 0 0-.092-.517l-1.446-1.096a.412.412 0 0 1-.152-.396c.041-.188.071-.378.091-.571.027-.354.027-.71 0-1.065a.376.376 0 0 1 .229-.373l1.705-.761a.414.414 0 0 0 .205-.502l-.586-1.599a.398.398 0 0 0-.403-.258h-.016l-1.666.411a.4.4 0 0 1-.411-.145.575.575 0 0 0-.069-.107 6.663 6.663 0 0 0-.921-1.156.382.382 0 0 1-.068-.449l.639-1.302a.404.404 0 0 0-.152-.517l-.32-.206-1.111-.708a.407.407 0 0 0-.533.099l-.913 1.21a.384.384 0 0 1-.426.13 7.54 7.54 0 0 0-1.271-.259 8.34 8.34 0 0 0-.974-.038l-.137-.289-.571-1.225a.372.372 0 0 0-.388-.221.236.236 0 0 0-.099 0l-1.606.578a.402.402 0 0 0-.251.464l.251 1.028a.386.386 0 0 1-.198.441 7.093 7.093 0 0 0-1.75 1.325.398.398 0 0 1-.457.083l-1.522-.761a.396.396 0 0 0-.495.137l-.92 1.461a.386.386 0 0 0 .091.518l1.522 1.142a.383.383 0 0 1 .145.418 6.458 6.458 0 0 0-.198 1.05v.579a.384.384 0 0 1-.064.205.387.387 0 0 1-.165.137l-1.636.761a.408.408 0 0 0-.259.186.402.402 0 0 0-.038.317zm11.028-4.567.152.099c.55.381.982.909 1.248 1.522.098.273.172.553.221.837a3.725 3.725 0 0 1-2.677 4.259 3.73 3.73 0 0 1-1.821.041 4.118 4.118 0 0 1-1.339-.563 1.786 1.786 0 0 1-.297-.213 3.766 3.766 0 0 1 4.513-6.005v.023z" fill="#BDD0FB"/>
        <path d="m232.83 218.103.213 2.284v.06a.55.55 0 0 0 .541.495l1.933.038h.091a.544.544 0 0 1 .426.411 9.635 9.635 0 0 0 1.522 3.486c.032.04.055.087.069.137a.556.556 0 0 1-.099.54l-1.043 1.241a.561.561 0 0 0-.099.578.784.784 0 0 0 .107.16l1.606 1.735a.552.552 0 0 0 .761.061l1.697-1.317a.552.552 0 0 1 .578-.061 9.28 9.28 0 0 0 2.474.838.547.547 0 0 1 .441.449l.381 2.138v.107a.536.536 0 0 0 .586.449l2.352-.213a.566.566 0 0 0 .517-.548l.038-2.146a.541.541 0 0 1 .388-.518 9.898 9.898 0 0 0 2.656-1.339.564.564 0 0 1 .685.038l1.439 1.248a.572.572 0 0 0 .761 0l1.743-1.614a.537.537 0 0 0 .06-.723l-1.522-1.986a.583.583 0 0 1-.061-.594c.117-.238.224-.492.32-.761.18-.462.323-.938.426-1.423a.533.533 0 0 1 .434-.426l2.572-.457a.538.538 0 0 0 .457-.586l-.213-2.367a.554.554 0 0 0-.457-.494h-.076l-2.382-.046a.574.574 0 0 1-.51-.343v-.053a1.08 1.08 0 0 0-.053-.167 9.359 9.359 0 0 0-.83-1.88.535.535 0 0 1 .069-.624l1.317-1.522a.559.559 0 0 0 0-.761l-.358-.388-1.248-1.34a.544.544 0 0 0-.761-.061l-1.667 1.294a.527.527 0 0 1-.609 0 9.681 9.681 0 0 0-2.922-1.195l-.077-.449-.327-1.849a.52.52 0 0 0-.441-.434.297.297 0 0 0-.145 0l-2.367.205a.562.562 0 0 0-.502.548v1.462a.555.555 0 0 1-.426.525 9.857 9.857 0 0 0-2.824 1.149.532.532 0 0 1-.639-.046l-1.826-1.583a.538.538 0 0 0-.708 0l-1.758 1.629a.547.547 0 0 0-.061.761l1.613 2.07a.546.546 0 0 1 0 .617 9.452 9.452 0 0 0-.631 1.339 8.85 8.85 0 0 0-.259.761.567.567 0 0 1-.434.388l-2.466.434a.566.566 0 0 0-.472.639zm16.462-2.237.175.182a5.084 5.084 0 0 1 1.119 2.527c.038.398.038.798 0 1.195a5.193 5.193 0 0 1-5.112 4.766 5.19 5.19 0 0 1-2.461-.588 5.743 5.743 0 0 1-1.606-1.233 3.028 3.028 0 0 1-.319-.395 5.163 5.163 0 0 1-.853-2.23 5.25 5.25 0 0 1 2.985-5.423 5.249 5.249 0 0 1 6.072 1.199z" fill="url(#x)"/>
        <path d="M47.704 236.689a21.072 21.072 0 0 1 14.901-35.975h295.61a21.073 21.073 0 1 1 0 42.147H62.605a20.919 20.919 0 0 1-14.901-6.172zm14.901-34.164a19.264 19.264 0 0 0-19.262 19.263 19.262 19.262 0 0 0 19.262 19.262h295.61a19.262 19.262 0 0 0 0-38.525H62.605z" fill="url(#y)"/>
        <path d="M279.529 168.163h-39.453v32.528h39.453v-32.528z" fill="url(#z)"/>
        <path d="M259.803 168.163H220.35v32.528h39.453v-32.528z" fill="url(#A)"/>
        <path d="M279.5 192.441h-6.248l.548-1.758-.548-1.256h6.248v3.014z" fill="#91B3FA"/>
        <path d="M259.795 178.232h-6.248l.548-1.758-.548-1.263h6.248v3.021z" fill="#BDD0FB"/>
        <path d="M259.795 175.211h6.256l-.556 1.766.556 1.255h-6.256v-3.021z" fill="#91B3FA"/>
        <path d="M220.35 192.791h6.248l-.548 1.758.548 1.256h-6.248v-3.014z" fill="#BDD0FB"/>
        <path d="M222.93 174.784h11.355v-4.414H222.93v4.414z" fill="#fff"/>
        <path d="M315.839 147.295s-1.872 10.655-3.912 21.751c-2.222 12.078-4.65 24.719-5.114 24.879-.875.304-.807-1.621-1.415-3.09-.48-1.18-1.964-11.279-1.477-17.573.122-1.522.518-20.495 3.143-22.733 2.626-2.237 8.775-3.234 8.775-3.234z" fill="url(#B)"/>
        <path d="M304.857 187.98a6.23 6.23 0 0 1-.205 3.448c-.662 1.705-.799 2.192.419 3.151 1.217.959 2.549 2.283 3.462 1.902.914-.38.35-8.204.35-8.204l-4.026-.297z" fill="url(#C)"/>
        <path d="M307.399 257.762c1.134-.693.487-5.861.487-5.861s-5.29-4.231-6.013-.989c-.723 3.242-5.023 4.696-7.473 5.092-1.69.274-2.207 1.21-2.375 1.758h15.374z" fill="url(#D)"/>
        <path d="M330.877 257.762c1.142-.693.495-5.861.495-5.861s-5.327-4.231-6.02-.989c-.692 3.242-5.023 4.696-7.466 5.092-1.689.274-2.214 1.21-2.374 1.758h15.365z" fill="url(#E)"/>
        <path d="M323.534 197.783c-1.88 7.953-4.254 17.033-5.183 22.154-.106.594-.19 1.134-.258 1.614-.069.479-.107.898-.13 1.24-.487 9.597-8.067 31.523-9.429 32.033-2.093.761-5.396-.89-7.131-1.446a1.52 1.52 0 0 1-1.035-1.682c3.752-17.26 6.088-41.957 6.568-56.668.251-7.413.593-12.687.593-12.687s18.486-4.931 18.6 1.309c.039 2.42-1.156 7.93-2.595 14.133z" fill="url(#F)"/>
        <path d="m316.258 185.797 6.522 68.145s4.825 1.568 9.186.365c0 0 2.542-37.292 2.283-46.371-.259-9.079 2.055-24.354-.517-26.059-2.573-1.704-17.474 3.92-17.474 3.92z" fill="url(#G)"/>
        <path d="M333.617 167.569c.069.761.365 15.305.388 15.853.023.548-1.621 1.796-7.428 2.664-2.435.346-4.891.53-7.351.548-7.238.083-10.001-2.961-10.001-2.961-.494 0 .548-3.524.716-26.492a1.108 1.108 0 0 1-.381 0 19.714 19.714 0 0 1-4.947-3.045s2.908-8.074 5.655-12.177c.67-1.004 2.473-1.788 4.871-2.283a27.596 27.596 0 0 1 2.017-.35 40.581 40.581 0 0 1 10.898.069c.639.091 1.271.198 1.88.327a17.96 17.96 0 0 1 6.895 2.694c2.557 1.857 4.46 11.363 4.46 11.363s-2.405 2.732-7.824 4.064a50.095 50.095 0 0 0 .152 9.726z" fill="url(#H)"/>
        <path d="m307.529 182.341 2.207-27.512a2.955 2.955 0 0 1 3.045-2.709l15.046.594a2.38 2.38 0 0 1 2.283 2.283c.19 3.615.875 10.654 3.463 12.588l1.362 19.916-16.812 15.222s-1.91-11.158-4.566-14.255c-1.4-1.75-6.028-6.127-6.028-6.127z" fill="url(#I)"/>
        <path d="m329.933 139.639-1.811 14.095-1.888-.297 1.819-14.087c.64.053 1.271.159 1.88.289z" fill="url(#J)"/>
        <path d="m317.155 139.273-2.329 12.611-.198 1.058-.213-.046-1.659-.373 2.382-12.938a19.583 19.583 0 0 1 2.017-.312z" fill="url(#K)"/>
        <path d="M341.289 168.688s-1.126 3.432-15.647 8.181c0 0-.168-3.881.715-4.399 2.732-1.605 9.232-6.385 9.452-7.222.152-.563-1.332-4.787-3.204-9.034 3.44-.38 5.662-.692 8.197-2.047.913 6.674 2.245 11.347.487 14.521z" fill="url(#L)"/>
        <path d="M323.983 172.653a6.088 6.088 0 0 0-2.139-1.058c-.928-.137-2.496-.761-2.245-.182.251.578 1.971 1.423 1.971 1.423l2.413-.183z" fill="url(#M)"/>
        <path d="m321.661 178.772-4.733.578a1.079 1.079 0 0 1-.723-.166 1.078 1.078 0 0 1-.442-.595l-3.234-10.731a1.074 1.074 0 0 1 .126-.909 1.084 1.084 0 0 1 .779-.484l4.727-.578a1.088 1.088 0 0 1 1.172.761l3.234 10.731a1.08 1.08 0 0 1-.123.911 1.07 1.07 0 0 1-.783.482z" fill="#7D97F4"/>
        <path d="m319.987 178.978-4.734.578a1.075 1.075 0 0 1-1.164-.761l-3.242-10.739a1.074 1.074 0 0 1 .133-.901 1.09 1.09 0 0 1 .772-.484l4.734-.578a1.085 1.085 0 0 1 1.172.761l3.235 10.739a1.079 1.079 0 0 1-.465 1.23 1.089 1.089 0 0 1-.441.155z" fill="#7D97F4"/>
        <path d="M316.637 168.193a.33.33 0 0 1-.327-.213l-3.173-9.422a.194.194 0 0 1 .079-.245.208.208 0 0 1 .088-.029.33.33 0 0 1 .335.213l3.174 9.422a.209.209 0 0 1-.087.245.188.188 0 0 1-.089.029z" fill="#7D97F4"/>
        <path d="M326.357 172.471a2.38 2.38 0 0 1-1.439.365 4.03 4.03 0 0 1-1.522-.571c-.601-.411-1.933.137-2.329.396-1.103.761-4.825.708-4.825 1.446s1.614 2.801 3.577 3.417c1.964.617 5.807-.654 5.807-.654l.731-4.399z" fill="url(#N)"/>
        <path d="M326.402 138.977c.084 2.184-1.857 3.249-4.756 2.831-2.9-.419-2.968-2.664-2.968-2.664l.076-2.184.084-2.58.076-2.283 7.024.951c-.023.37-.023.741 0 1.111.076 1.37.274 3.592.464 4.818z" fill="url(#O)"/>
        <path d="M317.483 135.597s8.646 1.75 9.65-3.653c1.005-5.404 2.801-8.813-2.679-10.16-5.479-1.347-6.941.517-7.709 2.237-.769 1.72-1.484 10.982.738 11.576z" fill="url(#P)"/>
        <path d="M326.737 133.185s3.006.677 3.295-4.795c.107-2.108.632-9.513-5.388-9.254a12.258 12.258 0 0 0-9.316 4.391c-4.109 4.635 5.891 1.187 7.223 2.283 1.332 1.096.061 2.854 1.583 3.486 1.522.631 2.724.631 2.473 2.032-.251 1.4.13 1.857.13 1.857z" fill="url(#Q)"/>
        <path d="M314.521 123.595c1.421.516 2.879.923 4.361 1.218l5.328.365 7.298 1.287s1.424-5.419-2.146-8.821a2.783 2.783 0 0 0-.281-.251 9.439 9.439 0 0 0-3.973-1.964c-8.737-2.207-10.548 7.862-10.587 8.166z" fill="url(#R)"/>
        <path d="m318.777 124.646 1.385.182c1.074-1.423 5.069-6.37 9.278-7.108l-.076-.091c-.069-.092-.13-.137-.236-.267h-.046c-5.381 1.302-9.391 6.013-10.305 7.284z" fill="url(#S)"/>
        <path d="M324.211 125.163c.53.61.934 1.318 1.187 2.085.244 1.02 4.985 1.637 5.328 1.104.299-.615.553-1.251.761-1.903l-7.276-1.286z" fill="url(#T)"/>
        <path d="M324.211 125.163s-8.737.168-12.725-1.94a.375.375 0 0 1-.112-.576.372.372 0 0 1 .188-.117 17.713 17.713 0 0 1 3.311-.373s3.127 2.595 9.338 3.006z" fill="url(#U)"/>
        <path d="M83.716 232.609H53.23v25.138h30.487v-25.138z" fill="url(#V)"/>
        <path d="M68.472 232.609H37.984v25.138h30.488v-25.138z" fill="url(#W)"/>
        <path d="M83.694 251.37h-4.833l.426-1.362-.426-.967h4.833v2.329zM68.466 240.387H63.64l.418-1.362-.418-.966h4.825v2.328z" fill="#BDD0FB"/>
        <path d="M68.465 238.059h4.833l-.427 1.354.427.974h-4.833v-2.328z" fill="#91B3FA"/>
        <path d="M37.984 251.636h4.825l-.418 1.362.419.967h-4.826v-2.329z" fill="#BDD0FB"/>
        <path d="M39.979 237.724h8.775v-3.41h-8.775v3.41z" fill="#fff"/>
        <path d="M125.02 232.579H94.47v25.191h30.55v-25.191z" fill="url(#X)"/>
        <path d="M109.754 232.579H79.205v25.191h30.549v-25.191z" fill="url(#Y)"/>
        <path d="M125.004 251.385h-4.84l.426-1.37-.426-.966h4.84v2.336z" fill="#91B3FA"/>
        <path d="M109.745 240.38h-4.841l.426-1.362-.426-.974h4.841v2.336z" fill="#BDD0FB"/>
        <path d="M109.746 238.044h4.84l-.426 1.362.426.974h-4.84v-2.336z" fill="#91B3FA"/>
        <path d="M79.205 251.651h4.833l-.426 1.363.426.974h-4.833v-2.337z" fill="#BDD0FB"/>
        <path d="M81.206 237.709h8.79v-3.417h-8.79v3.417z" fill="#fff"/>
        <path d="M109.189 208.994H80.551v23.616h28.638v-23.616z" fill="url(#Z)"/>
        <path d="M94.875 208.994H66.236v23.616h28.639v-23.616z" fill="url(#aa)"/>
        <path d="M109.175 226.621h-4.536l.395-1.279-.395-.913h4.536v2.192z" fill="#91B3FA"/>
        <path d="M94.874 216.3H90.33l.403-1.278-.403-.914h4.544v2.192z" fill="#89BECA"/>
        <path d="M94.875 214.108h4.536l-.396 1.279.396.913h-4.536v-2.192z" fill="#91B3FA"/>
        <path d="M66.236 226.871h4.536l-.403 1.279.403.913h-4.536v-2.192z" fill="#BDD0FB"/>
        <path d="M68.107 213.796h8.243v-3.204h-8.243v3.204z" fill="#fff"/>
        <path d="M30.2 260.008h381.228c.618 0 1.119-.501 1.119-1.119v-.023c0-.618-.501-1.119-1.119-1.119H30.199c-.618 0-1.118.501-1.118 1.119v.023c0 .618.5 1.119 1.118 1.119z" fill="#233862"/>
    </g>
    <defs>
        <linearGradient id="b" x1=".001" y1="129.79" x2="449.01" y2="129.79" gradientUnits="userSpaceOnUse">
            <stop stop-color="#DAE3FE"/>
            <stop offset="1" stop-color="#E9EFFD"/>
        </linearGradient>
        <linearGradient id="c" x1="72.256" y1="172.767" x2="121.055" y2="172.767" gradientUnits="userSpaceOnUse">
            <stop offset=".01" stop-color="#09005D"/>
            <stop offset="1" stop-color="#09005D"/>
        </linearGradient>
        <linearGradient id="d" x1="4824.62" y1="14986.2" x2="7953.73" y2="14986.2" gradientUnits="userSpaceOnUse">
            <stop offset=".01" stop-color="#09005D"/>
            <stop offset="1" stop-color="#09005D"/>
        </linearGradient>
        <linearGradient id="e" x1="169.701" y1="133.794" x2="208.18" y2="133.794" gradientUnits="userSpaceOnUse">
            <stop stop-color="#060038"/>
            <stop offset="1" stop-color="#0F0957"/>
        </linearGradient>
        <linearGradient id="f" x1="188.941" y1="133.794" x2="227.42" y2="133.794" gradientUnits="userSpaceOnUse">
            <stop stop-color="#09005D"/>
            <stop offset="1" stop-color="#1A0F91"/>
        </linearGradient>
        <linearGradient id="g" x1="10060.1" y1="259.806" x2="13822.4" y2="259.806" gradientUnits="userSpaceOnUse">
            <stop offset=".01" stop-color="#09005D"/>
            <stop offset="1" stop-color="#09005D"/>
        </linearGradient>
        <linearGradient id="h" x1="10065.8" y1="244.767" x2="13830.2" y2="244.767" gradientUnits="userSpaceOnUse">
            <stop offset=".01" stop-color="#09005D"/>
            <stop offset="1" stop-color="#09005D"/>
        </linearGradient>
        <linearGradient id="i" x1="2514.77" y1="10294.5" x2="2911.09" y2="10294.5" gradientUnits="userSpaceOnUse">
            <stop offset=".01" stop-color="#09005D"/>
            <stop offset="1" stop-color="#09005D"/>
        </linearGradient>
        <linearGradient id="j" x1="1960.93" y1="8964.42" x2="2179.32" y2="8964.42" gradientUnits="userSpaceOnUse">
            <stop offset=".01" stop-color="#09005D"/>
            <stop offset="1" stop-color="#09005D"/>
        </linearGradient>
        <linearGradient id="k" x1="5916.55" y1="1276.9" x2="6631.97" y2="1276.9" gradientUnits="userSpaceOnUse">
            <stop stop-color="#09005D"/>
            <stop offset="1" stop-color="#1A0F91"/>
        </linearGradient>
        <linearGradient id="l" x1="167.326" y1="133.025" x2="229.763" y2="133.025" gradientUnits="userSpaceOnUse">
            <stop stop-color="#4042E2"/>
            <stop offset="1" stop-color="#4F52FF"/>
        </linearGradient>
        <linearGradient id="m" x1="11318.1" y1="50.087" x2="16262.2" y2="50.087" gradientUnits="userSpaceOnUse">
            <stop offset=".01" stop-color="#09005D"/>
            <stop offset="1" stop-color="#09005D"/>
        </linearGradient>
        <linearGradient id="n" x1="11318.1" y1="67.838" x2="16262.2" y2="67.838" gradientUnits="userSpaceOnUse">
            <stop offset=".01" stop-color="#09005D"/>
            <stop offset="1" stop-color="#09005D"/>
        </linearGradient>
        <linearGradient id="o" x1="4913.65" y1="632.518" x2="5381.73" y2="632.518" gradientUnits="userSpaceOnUse">
            <stop stop-color="#09005D"/>
            <stop offset="1" stop-color="#1A0F91"/>
        </linearGradient>
        <linearGradient id="p" x1="629.186" y1="90.779" x2="640.496" y2="90.779" gradientUnits="userSpaceOnUse">
            <stop stop-color="#09005D"/>
            <stop offset="1" stop-color="#1A0F91"/>
        </linearGradient>
        <linearGradient id="q" x1="4745.3" y1="15466.6" x2="5952.67" y2="15466.6" gradientUnits="userSpaceOnUse">
            <stop stop-color="#4042E2"/>
            <stop offset="1" stop-color="#4F52FF"/>
        </linearGradient>
        <linearGradient id="r" x1="4937.94" y1="5329.13" x2="6289.41" y2="5329.13" gradientUnits="userSpaceOnUse">
            <stop stop-color="#4042E2"/>
            <stop offset="1" stop-color="#4F52FF"/>
        </linearGradient>
        <linearGradient id="s" x1="3049.1" y1="294.299" x2="3213" y2="294.299" gradientUnits="userSpaceOnUse">
            <stop stop-color="#4042E2"/>
            <stop offset="1" stop-color="#4F52FF"/>
        </linearGradient>
        <linearGradient id="t" x1="3135.73" y1="302.915" x2="3310.06" y2="302.915" gradientUnits="userSpaceOnUse">
            <stop stop-color="#09005D"/>
            <stop offset="1" stop-color="#1A0F91"/>
        </linearGradient>
        <linearGradient id="u" x1="1958.48" y1="187.079" x2="2019.51" y2="187.079" gradientUnits="userSpaceOnUse">
            <stop stop-color="#09005D"/>
            <stop offset="1" stop-color="#1A0F91"/>
        </linearGradient>
        <linearGradient id="v" x1="9226.33" y1="7203.78" x2="10055.4" y2="7203.78" gradientUnits="userSpaceOnUse">
            <stop stop-color="#4042E2"/>
            <stop offset="1" stop-color="#4F52FF"/>
        </linearGradient>
        <linearGradient id="w" x1="6240.78" y1="7188.69" x2="7067.35" y2="7188.69" gradientUnits="userSpaceOnUse">
            <stop stop-color="#4042E2"/>
            <stop offset="1" stop-color="#4F52FF"/>
        </linearGradient>
        <linearGradient id="x" x1="8021.3" y1="7345.37" x2="8872.11" y2="7345.37" gradientUnits="userSpaceOnUse">
            <stop stop-color="#4042E2"/>
            <stop offset="1" stop-color="#4F52FF"/>
        </linearGradient>
        <linearGradient id="y" x1="18473" y1="12482.5" x2="168370" y2="12482.5" gradientUnits="userSpaceOnUse">
            <stop offset=".01" stop-color="#09005D"/>
            <stop offset="1" stop-color="#09005D"/>
        </linearGradient>
        <linearGradient id="z" x1="240.076" y1="184.427" x2="279.522" y2="184.427" gradientUnits="userSpaceOnUse">
            <stop offset=".03" stop-color="#FE7062"/>
            <stop offset="1" stop-color="#FE7062"/>
        </linearGradient>
        <linearGradient id="A" x1="220.35" y1="184.427" x2="259.795" y2="184.427" gradientUnits="userSpaceOnUse">
            <stop stop-color="#FE7062"/>
            <stop offset="1" stop-color="#FF928E"/>
        </linearGradient>
        <linearGradient id="B" x1="303.86" y1="170.621" x2="315.87" y2="170.621" gradientUnits="userSpaceOnUse">
            <stop stop-color="#FF928E"/>
            <stop offset="1" stop-color="#FEB3B1"/>
        </linearGradient>
        <linearGradient id="C" x1="2263.54" y1="2352.84" x2="2295.17" y2="2352.84" gradientUnits="userSpaceOnUse">
            <stop stop-color="#FF928E"/>
            <stop offset="1" stop-color="#FEB3B1"/>
        </linearGradient>
        <linearGradient id="D" x1="6448.33" y1="2940.87" x2="6786.54" y2="2940.87" gradientUnits="userSpaceOnUse">
            <stop stop-color="#FE7062"/>
            <stop offset="1" stop-color="#FF928E"/>
        </linearGradient>
        <linearGradient id="E" x1="6966.44" y1="2940.87" x2="7304.63" y2="2940.87" gradientUnits="userSpaceOnUse">
            <stop stop-color="#FE7062"/>
            <stop offset="1" stop-color="#FF928E"/>
        </linearGradient>
        <linearGradient id="F" x1="10474.2" y1="21505.8" x2="11347.9" y2="21505.8" gradientUnits="userSpaceOnUse">
            <stop stop-color="#09005D"/>
            <stop offset="1" stop-color="#1A0F91"/>
        </linearGradient>
        <linearGradient id="G" x1="8087.26" y1="21166.6" x2="8547.3" y2="21166.6" gradientUnits="userSpaceOnUse">
            <stop stop-color="#09005D"/>
            <stop offset="1" stop-color="#1A0F91"/>
        </linearGradient>
        <linearGradient id="H" x1="14983.9" y1="10328.9" x2="16751.3" y2="10328.9" gradientUnits="userSpaceOnUse">
            <stop stop-color="#FE7062"/>
            <stop offset="1" stop-color="#FF928E"/>
        </linearGradient>
        <linearGradient id="I" x1="11381.6" y1="11949" x2="12370.1" y2="11949" gradientUnits="userSpaceOnUse">
            <stop stop-color="#09005D"/>
            <stop offset="1" stop-color="#1A0F91"/>
        </linearGradient>
        <linearGradient id="J" x1="1911.73" y1="2908.27" x2="1929.71" y2="2908.27" gradientUnits="userSpaceOnUse">
            <stop stop-color="#09005D"/>
            <stop offset="1" stop-color="#1A0F91"/>
        </linearGradient>
        <linearGradient id="K" x1="2120.48" y1="2762.82" x2="2145.91" y2="2762.82" gradientUnits="userSpaceOnUse">
            <stop stop-color="#09005D"/>
            <stop offset="1" stop-color="#1A0F91"/>
        </linearGradient>
        <linearGradient id="L" x1="7394.33" y1="5091.48" x2="7753.17" y2="5091.48" gradientUnits="userSpaceOnUse">
            <stop stop-color="#FF928E"/>
            <stop offset="1" stop-color="#FEB3B1"/>
        </linearGradient>
        <linearGradient id="M" x1="2171.62" y1="547.431" x2="2197.16" y2="547.431" gradientUnits="userSpaceOnUse">
            <stop stop-color="#FF928E"/>
            <stop offset="1" stop-color="#FEB3B1"/>
        </linearGradient>
        <linearGradient id="N" x1="4519.3" y1="1453.52" x2="4653.52" y2="1453.52" gradientUnits="userSpaceOnUse">
            <stop stop-color="#FF928E"/>
            <stop offset="1" stop-color="#FEB3B1"/>
        </linearGradient>
        <linearGradient id="O" x1="3554.34" y1="1896.22" x2="3632.77" y2="1896.22" gradientUnits="userSpaceOnUse">
            <stop stop-color="#FF928E"/>
            <stop offset="1" stop-color="#FEB3B1"/>
        </linearGradient>
        <linearGradient id="P" x1="5399.97" y1="2579" x2="5596.99" y2="2579" gradientUnits="userSpaceOnUse">
            <stop stop-color="#FF928E"/>
            <stop offset="1" stop-color="#FEB3B1"/>
        </linearGradient>
        <linearGradient id="Q" x1="314.347" y1="126.13" x2="330.085" y2="126.13" gradientUnits="userSpaceOnUse">
            <stop stop-color="#E1473D"/>
            <stop offset="1" stop-color="#E9605A"/>
        </linearGradient>
        <linearGradient id="R" x1="7450.44" y1="1916.56" x2="7842.23" y2="1916.56" gradientUnits="userSpaceOnUse">
            <stop stop-color="#09005D"/>
            <stop offset="1" stop-color="#1A0F91"/>
        </linearGradient>
        <linearGradient id="S" x1="4784.84" y1="1305.27" x2="4934.22" y2="1305.27" gradientUnits="userSpaceOnUse">
            <stop stop-color="#060038"/>
            <stop offset="1" stop-color="#0F0957"/>
        </linearGradient>
        <linearGradient id="T" x1="3423.67" y1="689.305" x2="3493.44" y2="689.305" gradientUnits="userSpaceOnUse">
            <stop stop-color="#09005D"/>
            <stop offset="1" stop-color="#1A0F91"/>
        </linearGradient>
        <linearGradient id="U" x1="5598.76" y1="611.141" x2="5818.39" y2="611.141" gradientUnits="userSpaceOnUse">
            <stop stop-color="#060038"/>
            <stop offset="1" stop-color="#0F0957"/>
        </linearGradient>
        <linearGradient id="V" x1="2185.56" y1="8330.72" x2="3406.6" y2="8330.72" gradientUnits="userSpaceOnUse">
            <stop offset=".03" stop-color="#FE7062"/>
            <stop offset="1" stop-color="#FE7062"/>
        </linearGradient>
        <linearGradient id="W" x1="1559.64" y1="8330.72" x2="2780.68" y2="8330.72" gradientUnits="userSpaceOnUse">
            <stop stop-color="#FE7062"/>
            <stop offset="1" stop-color="#FF928E"/>
        </linearGradient>
        <linearGradient id="X" x1="3886.5" y1="8347.87" x2="5112.73" y2="8347.87" gradientUnits="userSpaceOnUse">
            <stop stop-color="#060038"/>
            <stop offset="1" stop-color="#0F0957"/>
        </linearGradient>
        <linearGradient id="Y" x1="3258.42" y1="8347.87" x2="4484.35" y2="8347.87" gradientUnits="userSpaceOnUse">
            <stop stop-color="#09005D"/>
            <stop offset="1" stop-color="#1A0F91"/>
        </linearGradient>
        <linearGradient id="Z" x1="3111.66" y1="7060.36" x2="4189.33" y2="7060.36" gradientUnits="userSpaceOnUse">
            <stop stop-color="#060038"/>
            <stop offset="1" stop-color="#0F0957"/>
        </linearGradient>
        <linearGradient id="aa" x1="2558.65" y1="7060.36" x2="3636.32" y2="7060.36" gradientUnits="userSpaceOnUse">
            <stop stop-color="#09005D"/>
            <stop offset="1" stop-color="#1A0F91"/>
        </linearGradient>
        <clipPath id="a">
            <path fill="#fff" d="M0 0h449.009v260H0z"/>
        </clipPath>
    </defs>
</svg>
