<svg width="18" height="12" viewBox="0 0 18 12" fill="none" xmlns="http://www.w3.org/2000/svg">
<path d="M11.25 0C10.4544 0 9.69129 0.31607 9.12868 0.87868C8.56607 1.44129 8.25 2.20435 8.25 3C8.25 3.79565 8.56607 4.55871 9.12868 5.12132C9.69129 5.68393 10.4544 6 11.25 6C12.0456 6 12.8087 5.68393 13.3713 5.12132C13.9339 4.55871 14.25 3.79565 14.25 3C14.25 2.20435 13.9339 1.44129 13.3713 0.87868C12.8087 0.31607 12.0456 0 11.25 0ZM11.25 1.425C11.4568 1.425 11.6616 1.46574 11.8527 1.54489C12.0438 1.62404 12.2174 1.74005 12.3637 1.88631C12.5099 2.03256 12.626 2.20619 12.7051 2.39727C12.7843 2.58836 12.825 2.79317 12.825 3C12.825 3.20683 12.7843 3.41164 12.7051 3.60273C12.626 3.79381 12.5099 3.96744 12.3637 4.11369C12.2174 4.25995 12.0438 4.37596 11.8527 4.45511C11.6616 4.53426 11.4568 4.575 11.25 4.575C11.0432 4.575 10.8384 4.53426 10.6473 4.45511C10.4562 4.37596 10.2826 4.25995 10.1363 4.11369C9.99005 3.96744 9.87404 3.79381 9.79489 3.60273C9.71574 3.41164 9.675 3.20683 9.675 3C9.675 2.58228 9.84094 2.18168 10.1363 1.88631C10.4317 1.59094 10.8323 1.425 11.25 1.425ZM3 2.25V4.5H0.75V6H3V8.25H4.5V6H6.75V4.5H4.5V2.25H3ZM11.25 6.75C9.2475 6.75 5.25 7.7475 5.25 9.75V12H17.25V9.75C17.25 7.7475 13.2525 6.75 11.25 6.75ZM11.25 8.175C13.4775 8.175 15.825 9.27 15.825 9.75V10.575H6.675V9.75C6.675 9.27 9 8.175 11.25 8.175Z" fill="white"/>
</svg>
