<svg width="15" height="16" viewBox="0 0 15 16" fill="none" xmlns="http://www.w3.org/2000/svg">
<path d="M12.875 1.25C12.3778 1.2504 11.9012 1.44807 11.5496 1.79961C11.1981 2.15116 11.0004 2.62784 11 3.125C11 3.39275 11.0585 3.647 11.1605 3.87875L9.69425 5.528C9.19615 5.18419 8.60524 5.00003 8 5C7.445 5 6.932 5.162 6.48575 5.4245L4.78025 3.71975L4.763 3.737C4.91 3.4385 5 3.10625 5 2.75C5 2.30499 4.86804 1.86998 4.62081 1.49997C4.37357 1.12996 4.02217 0.841569 3.61104 0.671272C3.19991 0.500975 2.74751 0.456417 2.31105 0.543234C1.87459 0.630051 1.47368 0.844343 1.15901 1.15901C0.844343 1.47368 0.630051 1.87459 0.543234 2.31105C0.456417 2.74751 0.500975 3.19991 0.671272 3.61104C0.841569 4.02217 1.12996 4.37357 1.49997 4.62081C1.86998 4.86804 2.30499 5 2.75 5C3.10625 5 3.43775 4.91 3.737 4.763L3.71975 4.78025L5.42525 6.485C5.14973 6.94252 5.00281 7.46593 5 8C5 8.74775 5.285 9.42425 5.73875 9.95075L3.806 11.8828C3.58938 11.796 3.35833 11.751 3.125 11.75C2.0915 11.75 1.25 12.5908 1.25 13.625C1.25 14.6593 2.0915 15.5 3.125 15.5C4.1585 15.5 5 14.6593 5 13.625C5 13.3843 4.9505 13.1555 4.86725 12.9433L6.99575 10.8148C7.3115 10.9273 7.646 11 8 11C9.6545 11 11 9.6545 11 8C11 7.523 10.8778 7.07825 10.679 6.677L12.2668 4.88975C12.4587 4.95575 12.6613 5 12.875 5C13.9093 5 14.75 4.15925 14.75 3.125C14.75 2.09075 13.9093 1.25 12.875 1.25ZM8 9.5C7.17275 9.5 6.5 8.82725 6.5 8C6.5 7.17275 7.17275 6.5 8 6.5C8.82725 6.5 9.5 7.17275 9.5 8C9.5 8.82725 8.82725 9.5 8 9.5Z" fill="#0074FF"/>
</svg>
