<svg width="48" height="48" viewBox="0 0 48 48" fill="none" xmlns="http://www.w3.org/2000/svg">
<path fill-rule="evenodd" clip-rule="evenodd" d="M22.5 0.361305C21.8555 0.554935 19.7514 1.17071 17.8243 1.72966C15.8972 2.28861 14.2308 2.81849 14.1212 2.9071C13.9297 3.0621 13.9201 3.16271 13.875 5.48627L13.8281 7.90407L12.6562 8.2843C12.0117 8.4934 10.7714 8.89492 9.89991 9.1766C9.0285 9.45827 8.22694 9.76039 8.11866 9.84807C7.92572 10.0043 7.92094 10.0856 7.875 14.0177L7.82812 18.0281L6.89128 18.3339C5.883 18.663 5.625 18.8642 5.625 19.3217C5.625 19.6822 5.99775 20.0572 6.35606 20.0572C6.50503 20.0572 6.87216 19.9728 7.17188 19.8697C7.47159 19.7665 7.75369 19.6821 7.79869 19.6821C7.84359 19.6821 7.86863 20.2383 7.85428 20.9181L7.82812 22.1541L6.89128 22.4597C5.883 22.7888 5.625 22.99 5.625 23.4475C5.625 23.808 5.99775 24.183 6.35606 24.183C6.50503 24.183 6.87216 24.0986 7.17188 23.9955C7.47159 23.8923 7.75369 23.8079 7.79869 23.8079C7.84359 23.8079 7.86863 24.3641 7.85428 25.0439L7.82812 26.2798L6.89128 26.5855C5.883 26.9145 5.625 27.1158 5.625 27.5733C5.625 27.9338 5.99775 28.3088 6.35606 28.3088C6.50503 28.3088 6.87216 28.2244 7.17188 28.1212C7.47159 28.0181 7.75369 27.9337 7.79869 27.9337C7.84359 27.9337 7.86863 28.4887 7.85428 29.1671L7.82812 30.4005L6.89859 30.6998C5.89341 31.0233 5.625 31.2339 5.625 31.699C5.625 32.0596 5.99775 32.4346 6.35606 32.4346C6.50503 32.4346 6.87216 32.3502 7.17188 32.247C7.47159 32.1439 7.75378 32.0595 7.79878 32.0595C7.84387 32.0595 7.86891 32.5733 7.85447 33.2014L7.82812 34.3434L6.89606 34.6433C5.88947 34.9674 5.625 35.1743 5.625 35.6373C5.625 35.9978 5.99775 36.3728 6.35606 36.3728C6.50503 36.3728 6.87216 36.2884 7.17188 36.1853C7.47159 36.0821 7.75369 35.9977 7.79869 35.9977C7.84359 35.9977 7.86863 36.5539 7.85428 37.2337L7.82812 38.4696L6.89128 38.7753C5.883 39.1043 5.625 39.3056 5.625 39.7631C5.625 40.1236 5.99775 40.4986 6.35606 40.4986C6.50503 40.4986 6.87216 40.4142 7.17188 40.311C7.47159 40.2079 7.75247 40.1235 7.79597 40.1235C7.83937 40.1235 7.875 41.5582 7.875 43.3116V46.4997H4.6875H1.5L1.50056 36.3025L1.50112 26.1052L2.25056 25.8093L3 25.5134V32.9165V40.3196L3.23016 40.5497C3.53456 40.8542 3.96544 40.8542 4.26984 40.5497L4.5 40.3196V28.4614V16.6032L5.27344 16.3493C6.20194 16.0443 6.46875 15.8313 6.46875 15.3951C6.46875 15.0205 6.11906 14.6186 5.79328 14.619C5.37834 14.6193 3.33375 15.353 3.16406 15.5623C3.0135 15.748 2.99991 16.0976 2.99925 19.8098L2.9985 23.8548L1.71216 24.3643C1.00463 24.6446 0.329906 24.9697 0.212906 25.0867L0 25.2997V36.4459V47.5922L0.216937 47.7961L0.433969 48H23.9869H47.5398L47.7698 47.7698C48.0743 47.4653 48.0743 47.0344 47.7698 46.7299C47.5441 46.504 47.5105 46.4997 45.9886 46.4997H44.4375V35.9977C44.4375 30.2216 44.4718 25.4957 44.5136 25.4957C44.5872 25.4957 46.0013 25.9688 46.3359 26.1052C46.4905 26.1683 46.5 26.6752 46.5 34.8868V43.6014L46.7302 43.8316C47.0346 44.1361 47.4654 44.1361 47.7698 43.8316L48 43.6014V34.4652C48 25.7726 47.9917 25.3188 47.8295 25.1184C47.7122 24.9735 47.1643 24.7405 46.0717 24.3711L44.4844 23.8345L44.4375 19.7339L44.3906 15.6334L44.1708 15.4555C44.0499 15.3576 43.7968 15.2344 43.6083 15.1817C43.4198 15.1289 42.443 14.8183 41.4375 14.4914L39.6094 13.8971L39.5625 11.9637C39.5229 10.3315 39.4914 10.0062 39.3605 9.87535C39.1667 9.68182 35.9629 8.61887 35.571 8.61812C34.9514 8.6169 34.6236 9.4834 35.0859 9.9002C35.202 10.0048 35.9191 10.2877 36.6797 10.5291L38.0625 10.9678V28.7337V46.4997H35.8125H33.5625V44.4368C33.5625 43.3022 33.5962 42.3739 33.6372 42.3739C33.6783 42.3739 34.2142 42.5427 34.8281 42.749C36.1021 43.1771 36.346 43.2008 36.6905 42.9297C37.0059 42.6816 37.0363 42.1174 36.7483 41.8566C36.6443 41.7625 35.8954 41.4687 35.0843 41.2039L33.6094 40.7224L33.5832 39.4852C33.5689 38.8049 33.5919 38.2482 33.6345 38.2482C33.6771 38.2482 34.2142 38.4169 34.8281 38.6232C36.1021 39.0513 36.346 39.075 36.6905 38.8039C37.0059 38.5558 37.0363 37.9916 36.7483 37.7308C36.6443 37.6367 35.8954 37.3429 35.0843 37.0781L33.6094 36.5965L33.5834 35.2657C33.5691 34.5337 33.5921 33.9348 33.6346 33.9348C33.6772 33.9348 34.2142 34.1036 34.8281 34.3099C36.1262 34.7461 36.4474 34.7727 36.7337 34.468C37.0001 34.1843 37.0075 33.6522 36.7483 33.4175C36.6443 33.3234 35.8954 33.0296 35.0843 32.7648L33.6094 32.2833L33.583 31.14C33.5686 30.5111 33.5917 29.9966 33.6343 29.9966C33.677 29.9966 34.2142 30.1654 34.8281 30.3717C36.1021 30.7997 36.346 30.8234 36.6905 30.5524C37.0103 30.3008 37.0362 29.74 36.7404 29.472C36.6321 29.3737 35.8833 29.0811 35.0764 28.8217L33.6094 28.35L33.5832 27.1104C33.5689 26.4286 33.5919 25.8708 33.6345 25.8708C33.6771 25.8708 34.2142 26.0396 34.8281 26.2459C36.1021 26.6739 36.346 26.6977 36.6905 26.4266C37.0103 26.175 37.0362 25.6143 36.7404 25.3462C36.6321 25.2479 35.8833 24.9554 35.0764 24.6959L33.6094 24.2243L33.5832 22.9846C33.5689 22.3029 33.5919 21.745 33.6345 21.745C33.6771 21.745 34.2142 21.9138 34.8281 22.1201C36.1021 22.5482 36.346 22.5719 36.6905 22.3008C37.0059 22.0527 37.0363 21.4885 36.7483 21.2277C36.6443 21.1336 35.8954 20.8398 35.0843 20.575L33.6094 20.0935L33.5832 18.8563C33.5689 18.176 33.5919 17.6193 33.6345 17.6193C33.6771 17.6193 34.2142 17.788 34.8281 17.9943C36.1021 18.4224 36.346 18.4461 36.6905 18.175C37.0059 17.9269 37.0363 17.3627 36.7483 17.1019C36.6443 17.0078 35.8954 16.714 35.0843 16.4492L33.6094 15.9677L33.583 14.8244C33.5686 14.1955 33.5917 13.681 33.6343 13.681C33.677 13.681 34.2142 13.8498 34.8281 14.0561C36.1021 14.4841 36.346 14.5079 36.6905 14.2368C37.0059 13.9887 37.0363 13.4245 36.7483 13.1637C36.6443 13.0696 35.8954 12.7758 35.0843 12.5109L33.6094 12.0293L33.5625 7.57157C33.5122 2.79064 33.5271 2.9237 33.0203 2.7236C32.2189 2.40713 24.1728 -0.00757731 23.9451 1.78786e-05C23.7948 0.00508134 23.1445 0.167581 22.5 0.361305ZM23.25 24.1361V46.4997H19.3125H15.375V25.2769V4.05397L19.2422 2.9221C21.3692 2.29948 23.1411 1.7862 23.1797 1.78132C23.2183 1.77645 23.25 11.8361 23.25 24.1361ZM28.2188 2.85215C29.9977 3.39882 31.5902 3.88913 31.7578 3.94173L32.0625 4.03747V25.2686V46.4997H28.4062H24.75V24.139C24.75 6.29174 24.7736 1.78648 24.8672 1.81836C24.9317 1.8404 26.4398 2.30558 28.2188 2.85215ZM20.2969 6.04457C19.8844 6.16384 18.9664 6.39554 18.2568 6.55945C16.7539 6.90667 16.5 7.05501 16.5 7.58611C16.5 7.99709 16.8253 8.33625 17.2193 8.33625C17.468 8.33625 20.3783 7.67716 21.1753 7.44039C22.08 7.17165 22.4022 6.54219 21.8948 6.03472C21.6098 5.74957 21.3113 5.75145 20.2969 6.04457ZM26.1328 5.98971C25.7944 6.25686 25.7722 6.80043 26.0875 7.09683C26.3144 7.30987 29.7316 8.33597 30.2152 8.33616C30.5646 8.33625 30.9375 7.95658 30.9375 7.60074C30.9375 7.07029 30.7216 6.94502 28.8706 6.40079C26.6776 5.75614 26.4685 5.72472 26.1328 5.98971ZM13.8543 10.7925L13.8281 12.0298L12.3584 12.5065C11.5501 12.7686 10.8013 13.0623 10.6943 13.1591C10.4012 13.4244 10.4287 13.9863 10.747 14.2368C11.0915 14.5079 11.3354 14.4841 12.6094 14.0561C13.2233 13.8498 13.7605 13.681 13.8032 13.681C13.8458 13.681 13.8689 14.1955 13.8545 14.8244L13.8281 15.9677L12.3533 16.4492C11.5421 16.714 10.7932 17.0078 10.6892 17.1019C10.4012 17.3627 10.4316 17.9269 10.747 18.175C11.0915 18.4461 11.3354 18.4224 12.6094 17.9943C13.2233 17.788 13.7604 17.6193 13.803 17.6193C13.8456 17.6193 13.8686 18.1771 13.8543 18.8589L13.8281 20.0985L12.3611 20.5701C11.5542 20.8296 10.8054 21.1221 10.6971 21.2204C10.4013 21.4885 10.4272 22.0492 10.747 22.3008C11.0915 22.5719 11.3354 22.5482 12.6094 22.1201C13.2233 21.9138 13.7604 21.745 13.803 21.745C13.8456 21.745 13.8686 22.3017 13.8543 22.9821L13.8281 24.2193L12.3533 24.7008C11.5421 24.9656 10.7932 25.2594 10.6892 25.3535C10.43 25.5882 10.4374 26.1202 10.7038 26.404C10.9901 26.7087 11.3113 26.6821 12.6094 26.2459C13.2233 26.0396 13.7604 25.8708 13.803 25.8708C13.8456 25.8708 13.8686 26.4275 13.8543 27.1079L13.8281 28.3451L12.3533 28.8266C11.5421 29.0914 10.7932 29.3851 10.6892 29.4793C10.4012 29.74 10.4316 30.3042 10.747 30.5524C11.0915 30.8234 11.3354 30.7997 12.6094 30.3717C13.2233 30.1654 13.7605 29.9966 13.8032 29.9966C13.8458 29.9966 13.8689 30.5111 13.8545 31.14L13.8281 32.2833L12.3533 32.7648C11.5421 33.0296 10.7932 33.3234 10.6892 33.4175C10.4012 33.6783 10.4316 34.2425 10.747 34.4906C11.0915 34.7617 11.3354 34.738 12.6094 34.3099C13.2233 34.1036 13.7603 33.9348 13.8029 33.9348C13.8454 33.9348 13.8684 34.5337 13.8541 35.2657L13.8281 36.5965L12.3533 37.0781C11.5421 37.3429 10.7932 37.6367 10.6892 37.7308C10.4012 37.9916 10.4316 38.5558 10.747 38.8039C11.0915 39.075 11.3354 39.0513 12.6094 38.6232C13.2233 38.4169 13.7604 38.2482 13.803 38.2482C13.8456 38.2482 13.8686 38.806 13.8543 39.4878L13.8281 40.7274L12.3611 41.199C11.5542 41.4585 10.8054 41.751 10.6971 41.8493C10.4013 42.1174 10.4272 42.6781 10.747 42.9297C11.0915 43.2008 11.3354 43.1771 12.6094 42.749C13.2233 42.5427 13.7592 42.3739 13.8003 42.3739C13.8413 42.3739 13.875 43.3022 13.875 44.4368V46.4997H11.625H9.375V28.738V10.9764L11.5078 10.2756C12.6808 9.89026 13.6946 9.57051 13.7605 9.56508C13.8535 9.55748 13.8745 9.83269 13.8543 10.7925ZM20.7188 10.0637C20.5383 10.1298 19.6102 10.3641 18.6562 10.5842C16.7077 11.034 16.5 11.1436 16.5 11.7215C16.5 12.13 16.8316 12.4622 17.2392 12.4618C17.6071 12.4615 21.3221 11.5565 21.6484 11.3877C22.1702 11.1179 22.2843 10.5499 21.8948 10.1605C21.6354 9.90095 21.2498 9.86916 20.7188 10.0637ZM26.1328 10.1155C25.9335 10.2728 25.875 10.3989 25.875 10.6709C25.875 11.109 26.12 11.3517 26.7656 11.5538C27.9047 11.9102 30.012 12.462 30.2339 12.462C30.5643 12.462 30.9375 12.0719 30.9375 11.7265C30.9375 11.1961 30.7216 11.0708 28.8706 10.5266C26.6776 9.88192 26.4685 9.8505 26.1328 10.1155ZM20.7188 14.1895C20.5383 14.2556 19.6102 14.4899 18.6562 14.71C16.7077 15.1598 16.5 15.2693 16.5 15.8472C16.5 16.2558 16.8316 16.588 17.2392 16.5876C17.6071 16.5872 21.3221 15.6823 21.6484 15.5135C22.1702 15.2437 22.2843 14.6757 21.8948 14.2863C21.6354 14.0267 21.2498 13.9949 20.7188 14.1895ZM26.1328 14.2413C25.9335 14.3986 25.875 14.5246 25.875 14.7967C25.875 15.2347 26.12 15.4775 26.7656 15.6796C27.9047 16.036 30.012 16.5878 30.2339 16.5878C30.5643 16.5878 30.9375 16.1976 30.9375 15.8523C30.9375 15.3219 30.7216 15.1966 28.8706 14.6524C26.6776 14.0077 26.4685 13.9763 26.1328 14.2413ZM41.318 16.0749L42.9375 16.5933V31.5466V46.4997H41.25H39.5625V43.3116C39.5625 41.5582 39.5981 40.1235 39.6415 40.1235C39.685 40.1235 39.9659 40.2079 40.2656 40.311C40.5653 40.4142 40.9325 40.4986 41.0814 40.4986C41.4397 40.4986 41.8125 40.1236 41.8125 39.7631C41.8125 39.3 41.548 39.0932 40.5414 38.7691L39.6094 38.4691L39.5832 37.2334C39.5689 36.5538 39.5939 35.9977 39.6388 35.9977C39.6838 35.9977 39.9659 36.0821 40.2656 36.1853C40.5653 36.2884 40.9325 36.3728 41.0814 36.3728C41.4397 36.3728 41.8125 35.9978 41.8125 35.6373C41.8125 35.1743 41.548 34.9674 40.5414 34.6433L39.6094 34.3434L39.583 33.2014C39.5686 32.5733 39.5936 32.0595 39.6387 32.0595C39.6837 32.0595 39.9659 32.1439 40.2656 32.247C40.5653 32.3502 40.9325 32.4346 41.0814 32.4346C41.4397 32.4346 41.8125 32.0596 41.8125 31.699C41.8125 31.2339 41.5441 31.0233 40.5389 30.6998L39.6094 30.4005L39.5832 29.1671C39.5689 28.4887 39.5939 27.9337 39.6388 27.9337C39.6838 27.9337 39.9659 28.0181 40.2656 28.1212C40.5653 28.2244 40.9325 28.3088 41.0814 28.3088C41.4397 28.3088 41.8125 27.9338 41.8125 27.5733C41.8125 27.1102 41.548 26.9034 40.5414 26.5793L39.6094 26.2793L39.5832 25.0436C39.5689 24.364 39.5939 23.8079 39.6388 23.8079C39.6838 23.8079 39.9659 23.8923 40.2656 23.9955C40.5653 24.0986 40.9325 24.183 41.0814 24.183C41.4397 24.183 41.8125 23.808 41.8125 23.4475C41.8125 22.9845 41.548 22.7776 40.5414 22.4535L39.6094 22.1535L39.5832 20.9178C39.5689 20.2382 39.5939 19.6821 39.6388 19.6821C39.6838 19.6821 39.9659 19.7665 40.2656 19.8697C40.5653 19.9728 40.9325 20.0572 41.0814 20.0572C41.4397 20.0572 41.8125 19.6822 41.8125 19.3217C41.8125 18.8587 41.548 18.6518 40.5414 18.3278L39.6094 18.0277L39.5832 16.792C39.5689 16.1124 39.5888 15.5564 39.6277 15.5564C39.6666 15.5564 40.4272 15.7897 41.318 16.0749ZM20.2969 18.4219C19.8844 18.5412 18.9664 18.7729 18.2568 18.9368C16.7614 19.2822 16.5 19.4336 16.5 19.9539C16.5 20.3848 16.8071 20.7137 17.2091 20.7134C17.5989 20.713 21.3069 19.816 21.6484 19.6393C22.1702 19.3694 22.2843 18.8015 21.8948 18.4121C21.6098 18.1269 21.3113 18.1288 20.2969 18.4219ZM26.1328 18.3671C25.9335 18.5244 25.875 18.6504 25.875 18.9224C25.875 19.3605 26.12 19.6033 26.7656 19.8054C27.9047 20.1618 30.012 20.7136 30.2339 20.7136C30.5643 20.7136 30.9375 20.3234 30.9375 19.9781C30.9375 19.4476 30.7216 19.3224 28.8706 18.7781C26.6776 18.1335 26.4685 18.1021 26.1328 18.3671ZM20.2969 22.5477C19.8844 22.667 18.9664 22.8987 18.2568 23.0626C16.7539 23.4098 16.5 23.5581 16.5 24.0892C16.5 24.5077 16.8271 24.8396 17.2392 24.8392C17.6071 24.8388 21.3221 23.9339 21.6484 23.7651C22.1702 23.4952 22.2843 22.9273 21.8948 22.5378C21.6098 22.2527 21.3113 22.2546 20.2969 22.5477ZM26.1328 22.4928C25.7944 22.76 25.7722 23.3035 26.0875 23.5999C26.3144 23.813 29.7316 24.8391 30.2152 24.8393C30.5646 24.8394 30.9375 24.4597 30.9375 24.1039C30.9375 23.5734 30.7216 23.4481 28.8706 22.9039C26.6776 22.2593 26.4685 22.2278 26.1328 22.4928ZM20.2969 26.6735C19.8844 26.7927 18.9664 27.0244 18.2568 27.1883C16.7539 27.5356 16.5 27.6839 16.5 28.215C16.5 28.626 16.8253 28.9652 17.2193 28.9652C17.468 28.9652 20.3783 28.3061 21.1753 28.0693C22.08 27.8006 22.4022 27.1711 21.8948 26.6636C21.6098 26.3785 21.3113 26.3804 20.2969 26.6735ZM26.1328 26.6186C25.7944 26.8858 25.7722 27.4293 26.0875 27.7257C26.3144 27.9388 29.7316 28.9649 30.2152 28.9651C30.5646 28.9651 30.9375 28.5855 30.9375 28.2296C30.9375 27.6992 30.7216 27.5739 28.8706 27.0297C26.6776 26.385 26.4685 26.3536 26.1328 26.6186ZM20.7188 30.6926C20.5383 30.7587 19.6102 30.993 18.6562 31.2131C16.7077 31.6629 16.5 31.7725 16.5 32.3504C16.5 32.7589 16.8316 33.0911 17.2392 33.0907C17.6071 33.0904 21.3221 32.1854 21.6484 32.0166C22.1702 31.7468 22.2843 31.1788 21.8948 30.7894C21.6354 30.5299 21.2498 30.4981 20.7188 30.6926ZM26.1328 30.7444C25.9335 30.9017 25.875 31.0278 25.875 31.2998C25.875 31.7379 26.12 31.9806 26.7656 32.1827C27.9047 32.5391 30.012 33.0909 30.2339 33.0909C30.5643 33.0909 30.9375 32.7008 30.9375 32.3554C30.9375 31.825 30.7216 31.6997 28.8706 31.1555C26.6776 30.5108 26.4685 30.4794 26.1328 30.7444ZM20.7188 34.8184C20.5383 34.8845 19.6102 35.1188 18.6562 35.3389C16.7077 35.7887 16.5 35.8982 16.5 36.4761C16.5 36.8847 16.8316 37.2169 17.2392 37.2165C17.6071 37.2161 21.3221 36.3112 21.6484 36.1424C22.1702 35.8726 22.2843 35.3046 21.8948 34.9152C21.6354 34.6556 21.2498 34.6238 20.7188 34.8184ZM26.1328 34.8702C25.9335 35.0275 25.875 35.1535 25.875 35.4256C25.875 35.8636 26.12 36.1064 26.7656 36.3085C27.9047 36.6649 30.012 37.2167 30.2339 37.2167C30.5643 37.2167 30.9375 36.8265 30.9375 36.4812C30.9375 35.9508 30.7216 35.8255 28.8706 35.2812C26.6776 34.6366 26.4685 34.6052 26.1328 34.8702ZM20.2969 39.0508C19.8844 39.1701 18.9664 39.4018 18.2568 39.5657C16.7614 39.9111 16.5 40.0625 16.5 40.5828C16.5 41.0137 16.8071 41.3426 17.2091 41.3423C17.5989 41.3419 21.3069 40.4449 21.6484 40.2682C22.1702 39.9983 22.2843 39.4304 21.8948 39.041C21.6098 38.7558 21.3113 38.7577 20.2969 39.0508ZM26.1328 38.996C25.9335 39.1533 25.875 39.2793 25.875 39.5513C25.875 39.9894 26.12 40.2322 26.7656 40.4343C27.9047 40.7907 30.012 41.3425 30.2339 41.3425C30.5643 41.3425 30.9375 40.9523 30.9375 40.607C30.9375 40.0765 30.7216 39.9513 28.8706 39.407C26.6776 38.7624 26.4685 38.731 26.1328 38.996ZM3.23016 43.073C2.74509 43.558 3.08006 44.4368 3.75 44.4368C4.15828 44.4368 4.5 44.0737 4.5 43.6398C4.5 43.2059 4.15828 42.8428 3.75 42.8428C3.56737 42.8428 3.37519 42.9278 3.23016 43.073Z" fill="#013B81"/>
</svg>
