<svg width="48" height="48" viewBox="0 0 48 48" fill="none" xmlns="http://www.w3.org/2000/svg">
<path fill-rule="evenodd" clip-rule="evenodd" d="M21.1866 47.7891C20.7744 47.5086 20.5372 47.174 20.4335 46.7272C20.3866 46.5248 20.3466 45.5156 20.3445 44.4844L20.3408 42.6094L19.1001 42.2092C18.4177 41.9892 17.3117 41.5366 16.6423 41.2034L15.4252 40.5975L13.9236 42.087C12.6936 43.307 12.3517 43.5951 12.0335 43.6797C11.8198 43.7365 11.5878 43.7651 11.5178 43.7431C11.4479 43.7212 11.2641 43.6757 11.1094 43.642C10.9057 43.5978 10.1348 42.8914 8.31347 41.0796C6.93038 39.7038 5.73375 38.4548 5.65425 38.3041C5.481 37.9757 5.46497 37.2408 5.62425 36.9281C5.68725 36.8044 6.38794 36.049 7.18134 35.2495L8.62378 33.7959L8.01937 32.5893C7.68694 31.9256 7.23375 30.819 7.01222 30.1302L6.60938 28.8779L4.73438 28.8743C3.70312 28.8722 2.69391 28.8322 2.49159 28.7853C2.04478 28.6816 1.71019 28.4443 1.42969 28.0322C1.21969 27.7237 1.21875 27.7058 1.21875 24C1.21875 20.2942 1.21969 20.2763 1.42969 19.9678C1.71019 19.5557 2.04478 19.3184 2.49159 19.2147C2.69391 19.1678 3.70312 19.1278 4.73438 19.1257L6.60938 19.1221L7.0095 17.8813C7.22953 17.1989 7.68216 16.0929 8.01534 15.4236L8.62125 14.2065L7.13175 12.7048C5.91178 11.4748 5.62369 11.1329 5.53903 10.8147C5.48222 10.6011 5.45363 10.369 5.47566 10.2991C5.49759 10.2292 5.54306 10.0453 5.57672 9.89062C5.62097 9.6869 6.32737 8.9161 8.13919 7.09472C9.51497 5.71162 10.764 4.515 10.9147 4.4355C11.2431 4.26225 11.978 4.24622 12.2906 4.4055C12.4144 4.4685 13.1695 5.169 13.9688 5.96213L15.4219 7.40409L16.6406 6.79744C17.3109 6.46378 18.4177 6.01078 19.1001 5.79075L20.3408 5.39062L20.3445 3.51562C20.3466 2.48438 20.3866 1.47515 20.4335 1.27284C20.5372 0.826031 20.7744 0.491436 21.1866 0.210938C21.4951 0.000938416 21.5129 0 25.2188 0C28.9246 0 28.9424 0.000938416 29.2509 0.210938C29.6631 0.491436 29.9003 0.826031 30.004 1.27284C30.0509 1.47515 30.0903 2.48522 30.0915 3.5175L30.0938 5.39447L30.9141 5.64544L31.7344 5.8964L32.1562 5.48953C32.8825 4.78903 32.9167 4.78125 35.2453 4.78125C37.1515 4.78125 37.3125 4.7685 37.3126 4.61719C37.3126 4.527 37.4382 4.18763 37.5918 3.86316C37.9586 3.08766 38.6826 2.37178 39.5137 1.96265C40.1396 1.65459 40.2128 1.64062 41.206 1.64062C42.217 1.64062 42.2627 1.64981 42.9572 1.99303C44.5575 2.784 45.4927 4.5345 45.2015 6.19378C44.8918 7.95731 43.5495 9.28744 41.7842 9.57994C39.9693 9.88069 38.0728 8.73656 37.4431 6.96094L37.2685 6.46875H35.3908H33.5132L32.1785 7.80591L30.8438 9.14297V11.7434V14.3438H32.0537H33.2636L33.4118 13.9087C34.0394 12.067 35.9529 10.9013 37.8228 11.2216C38.6504 11.3634 39.3253 11.6933 39.9414 12.2575C42.0682 14.2046 41.4993 17.6105 38.8368 18.8718C38.2491 19.1501 38.1318 19.1719 37.2188 19.1719C36.3057 19.1719 36.1884 19.1501 35.6007 18.8718C34.5449 18.3716 33.5648 17.2528 33.3382 16.2891L33.2777 16.0312L31.8967 16.0319L30.5156 16.0327L29.1819 18.481L27.8482 20.9294L28.2306 21.3631C28.6375 21.8247 28.8728 22.2352 29.0571 22.8047L29.1708 23.1562H34.0237H38.8765L38.9955 22.7578C39.4351 21.2851 40.9128 20.1158 42.4842 19.9974C43.7468 19.9022 44.9666 20.3847 45.803 21.3101C47.2392 22.8995 47.1762 25.3028 45.6583 26.8242C45.0579 27.426 44.5937 27.6898 43.7577 27.9042C41.7796 28.4115 39.5734 27.1783 38.9955 25.2422L38.8765 24.8438H34.0237H29.1708L29.0571 25.1953C28.8728 25.7648 28.6375 26.1753 28.2306 26.6369L27.8482 27.0706L29.1819 29.519L30.5156 31.9673L31.8967 31.9681L33.2777 31.9688L33.3382 31.7109C33.5648 30.7472 34.5449 29.6284 35.6007 29.1282C36.1884 28.8499 36.3057 28.8281 37.2188 28.8281C38.1318 28.8281 38.2491 28.8499 38.8368 29.1282C41.4993 30.3895 42.0682 33.7954 39.9414 35.7425C37.7785 37.7228 34.3542 36.8569 33.4118 34.0912L33.2636 33.6562H32.0537H30.8438V36.259V38.8618L32.1809 40.1965L33.518 41.5312H35.4004H37.2828L37.3998 41.1328C37.6666 40.2239 38.6033 39.1713 39.5178 38.7526C40.6475 38.2354 41.8182 38.253 42.9978 38.805C44.5354 39.5245 45.4986 41.3718 45.195 43.0192C44.9474 44.3626 44.1617 45.4117 42.9572 46.007C42.2629 46.3501 42.2168 46.3594 41.208 46.3594C40.2362 46.3594 40.1324 46.3407 39.5368 46.0585C38.7224 45.6728 37.9638 44.9233 37.5918 44.1368C37.4382 43.8124 37.3126 43.473 37.3126 43.3828C37.3125 43.2316 37.1521 43.2188 35.2561 43.2188C34.1167 43.2188 33.0901 43.1771 32.954 43.1253C32.8188 43.0739 32.4881 42.8238 32.2192 42.5693L31.7301 42.1069L30.9119 42.3562L30.0938 42.6055L30.0915 44.4825C30.0903 45.5148 30.0509 46.5248 30.004 46.7272C29.9003 47.174 29.6631 47.5086 29.2509 47.7891C28.9424 47.9991 28.9246 48 25.2188 48C21.5129 48 21.4951 47.9991 21.1866 47.7891ZM28.4062 44.0365C28.4062 41.4173 28.4207 41.3468 28.9925 41.1705C29.1599 41.1188 29.5436 41.0077 29.8451 40.9237L30.3935 40.7707L29.8775 40.2297C29.3081 39.6328 29.1576 39.2576 29.1568 38.4335L29.1562 37.9139L28.1016 38.14C26.7114 38.4382 24.0719 38.4773 22.6875 38.2203C19.7744 37.6795 17.1607 36.2977 15.0409 34.1779C12.9646 32.1017 11.6751 29.7139 11.0455 26.7795C10.7713 25.5012 10.7467 22.8071 10.9972 21.4688C11.3543 19.5594 12.1819 17.5551 13.3213 15.8393C14.1066 14.6569 15.8756 12.8878 17.0581 12.1026C20.4287 9.86419 24.2731 9.08719 28.1016 9.87038L29.1562 10.0861L29.1568 9.56653C29.1576 8.74378 29.3083 8.367 29.8739 7.77403L30.3862 7.23694L30.0759 7.14112C29.9052 7.08844 29.525 6.97828 29.231 6.89634C28.3927 6.66272 28.4062 6.71091 28.4062 3.96347V1.59375H25.2188H22.0312V3.97397C22.0312 6.10191 22.0138 6.37556 21.8672 6.55509C21.7536 6.69422 21.3143 6.86756 20.4375 7.11938C18.9736 7.53975 17.7686 8.04272 16.4876 8.76806C15.1279 9.53794 15.277 9.59166 13.2934 7.61906L11.6218 5.95678L9.39872 8.17997L7.17553 10.4031L8.83781 12.0746C10.8104 14.0583 10.7567 13.9091 9.98681 15.2689C9.26147 16.5499 8.7585 17.7548 8.33813 19.2188C8.08631 20.0956 7.91297 20.5348 7.77384 20.6484C7.59431 20.7951 7.32066 20.8125 5.19272 20.8125H2.8125V24V27.1875H5.19272C7.32066 27.1875 7.59431 27.2049 7.77384 27.3516C7.91297 27.4652 8.08631 27.9044 8.33813 28.7812C8.7585 30.2452 9.26147 31.4501 9.98681 32.7311C10.7567 34.0909 10.8104 33.9417 8.83781 35.9254L7.17553 37.5969L9.39872 39.82L11.6218 42.0432L13.2934 40.3809C15.277 38.4083 15.1279 38.4621 16.4876 39.2319C17.7686 39.9573 18.9736 40.4602 20.4375 40.8806C21.3143 41.1324 21.7536 41.3058 21.8672 41.4449C22.0138 41.6244 22.0312 41.8981 22.0312 44.026V46.4062H25.2188H28.4062V44.0365ZM42.2514 44.523C43.3875 43.9731 43.8937 42.4828 43.3237 41.3657C42.8935 40.5224 42.1678 40.0837 41.2031 40.0837C40.4316 40.0837 39.9507 40.2935 39.4716 40.8392C39.0538 41.315 38.8875 41.7524 38.8875 42.375C38.8875 43.7416 39.8678 44.7188 41.2388 44.7188C41.664 44.7188 41.9688 44.6599 42.2514 44.523ZM26.8594 36.6516C27.2203 36.5994 27.8848 36.4703 28.3359 36.3643L29.1562 36.1718V34.5703V32.9688L27.7734 30.4085C26.7356 28.487 26.3556 27.8613 26.25 27.9005C26.1727 27.9292 25.812 27.9758 25.4484 28.0042C24.3619 28.0885 23.3176 27.7087 22.4788 26.9242C21.9268 26.4079 21.6037 25.8829 21.3641 25.1133C20.5553 22.5147 22.7341 19.7849 25.4484 19.9958C25.812 20.0242 26.1727 20.0708 26.25 20.0996C26.3556 20.1389 26.7354 19.5142 27.7734 17.5942L29.1562 15.0364V13.4392V11.842L28.3359 11.6419C24.7265 10.7607 21.065 11.4028 18.0043 13.4536C17.0772 14.0748 15.6885 15.4113 14.9561 16.3871C13.8072 17.918 12.933 19.9548 12.6171 21.8368C12.4251 22.9807 12.4251 25.0193 12.6171 26.1632C13.2767 30.0928 15.8799 33.5924 19.5 35.4161C20.4526 35.8959 21.9985 36.4062 22.9688 36.561C23.3555 36.6227 23.7352 36.6855 23.8125 36.7007C24.1685 36.7704 26.2707 36.7365 26.8594 36.6516ZM38.2996 34.896C39.3183 34.3724 39.792 33.1891 39.4485 32.0265C39.2968 31.5131 38.4992 30.7082 38.0067 30.5714C37.0412 30.3034 36.2396 30.4971 35.5838 31.1569C34.2976 32.4509 34.809 34.4992 36.5619 35.0743C36.9481 35.201 37.8955 35.1038 38.2996 34.896ZM17.8923 32.3549C15.6088 30.6263 14.2726 28.2005 14.0105 25.3079C13.9494 24.6343 13.9578 24.59 14.2004 24.3016C14.5102 23.9334 15.0271 23.8836 15.3562 24.1901C15.5839 24.4022 15.6 24.4622 15.7363 25.6079C15.9457 27.3665 16.657 28.8369 17.9062 30.0931C18.3445 30.5338 18.8981 31.0494 19.1365 31.2388C19.6154 31.6193 19.7197 31.9011 19.54 32.3285C19.2718 32.9662 18.7116 32.9752 17.8923 32.3549ZM26.1562 26.1487C26.7228 25.8923 27.0728 25.5477 27.3391 24.9844C28.0677 23.443 26.93 21.6581 25.2188 21.6581C24.616 21.6581 23.9003 21.9573 23.5133 22.371C22.6777 23.2642 22.6777 24.7358 23.5133 25.629C24.1427 26.3018 25.3107 26.5314 26.1562 26.1487ZM43.8567 26.1009C44.4295 25.8155 44.8448 25.3472 45.0443 24.762C45.6707 22.9235 43.9636 21.2009 42.0757 21.7665C41.5942 21.9107 40.8928 22.5351 40.6761 23.012C40.4462 23.5181 40.4462 24.4819 40.6761 24.988C40.8797 25.4363 41.5861 26.0869 42.0202 26.2259C42.6052 26.4134 43.3284 26.3642 43.8567 26.1009ZM37.9748 17.4373C38.4583 17.3031 39.0851 16.7243 39.3399 16.1771C40.1053 14.5336 38.7818 12.687 36.9715 12.8724C35.4687 13.0264 34.5451 14.4711 34.989 15.9735C35.1307 16.4529 35.9431 17.2957 36.3865 17.4232C36.8098 17.545 37.5633 17.5517 37.9748 17.4373ZM42.2423 7.70728C43.637 6.99591 43.996 5.23856 42.9876 4.06041C42.5296 3.52538 41.9897 3.28125 41.2643 3.28125C39.8843 3.28125 38.8965 4.22813 38.8888 5.55844C38.8824 6.67275 39.5113 7.53197 40.5932 7.88672C40.9645 8.0085 41.8383 7.91344 42.2423 7.70728Z" fill="#013B81"/>
</svg>
