<svg width="48" height="48" viewBox="0 0 48 48" fill="none" xmlns="http://www.w3.org/2000/svg">
    <path d="M27.2 17.623h-6.4a.8.8 0 0 0-.8.8v22.4a.8.8 0 0 0 .8.8h6.4a.8.8 0 0 0 .8-.8v-22.4a.8.8 0 0 0-.8-.8zm-.8 22.4h-4.8v-20.8h4.8v20.8zM46.4 14.424H40a.8.8 0 0 0-.8.8v25.6a.8.8 0 0 0 .8.8h6.4a.8.8 0 0 0 .8-.8v-25.6a.8.8 0 0 0-.8-.8zm-.8 25.6h-4.8v-24h4.8v24zM36.8 32.023h-6.4a.8.8 0 0 0-.8.8v8a.8.8 0 0 0 .8.8h6.4a.8.8 0 0 0 .8-.8v-8a.8.8 0 0 0-.8-.8zm-.8 8h-4.8v-6.4H36v6.4zM8 20.823H1.6a.8.8 0 0 0-.8.8v19.2a.8.8 0 0 0 .8.8H8a.8.8 0 0 0 .8-.8v-19.2a.8.8 0 0 0-.8-.8zm-.8 19.2H2.4v-17.6h4.8v17.6zM17.6 25.623h-6.4a.8.8 0 0 0-.8.8v14.4a.8.8 0 0 0 .8.8h6.4a.8.8 0 0 0 .8-.8v-14.4a.8.8 0 0 0-.8-.8zm-.8 14.4H12v-12.8h4.8v12.8z" fill="#013B81"/>
    <path d="M43.247.776a3.223 3.223 0 0 0-2.228 5.575l-6.64 12.178a2.938 2.938 0 0 0-1.824.084l-6.177-9.27a3.2 3.2 0 1 0-5.26-.756l-4.858 4.042a3.157 3.157 0 0 0-4.26.5l-4.072-2.037a3.2 3.2 0 1 0-3.128 2.53 3.18 3.18 0 0 0 2.4-1.105l4.073 2.037a3.2 3.2 0 1 0 6.007-.691l4.857-4.043c.837.62 1.93.776 2.907.416l6.176 9.27a3.2 3.2 0 1 0 4.56-.207L42.42 7.12a3.223 3.223 0 1 0 .827-6.344zM4.8 12.023a1.6 1.6 0 1 1 0-3.2 1.6 1.6 0 0 1 0 3.2zm9.6 4.8a1.6 1.6 0 1 1 0-3.2 1.6 1.6 0 0 1 0 3.2zm9.6-8a1.6 1.6 0 1 1 0-3.2 1.6 1.6 0 0 1 0 3.2zm9.6 14.4a1.6 1.6 0 1 1 0-3.2 1.6 1.6 0 0 1 0 3.2zm9.6-17.6a1.6 1.6 0 1 1 0-3.2 1.6 1.6 0 0 1 0 3.2zM47.2 42.423H.8a.8.8 0 0 0-.8.8v3.2a.8.8 0 0 0 .8.8h46.4a.8.8 0 0 0 .8-.8v-3.2a.8.8 0 0 0-.8-.8zm-.8 3.2H1.6v-1.6h44.8v1.6z" fill="#013B81"/>
</svg>
