<svg width="48" height="48" viewBox="0 0 48 48" fill="none" xmlns="http://www.w3.org/2000/svg">
    <path d="M42.349 22.243c-1.634-.816-4.696-.826-4.826-.826a.703.703 0 0 0 0 1.406c.79 0 3.085.122 4.197.678a.7.7 0 0 0 .943-.315.703.703 0 0 0-.314-.943z" fill="#013B81"/>
    <path d="m45.854 32.254-2.904-.83a.295.295 0 0 1-.213-.282v-.97c.237-.163.462-.347.673-.551a5.172 5.172 0 0 0 1.583-3.742V24.54l.28-.561a4.486 4.486 0 0 0 .472-1.996v-3.623a.703.703 0 0 0-.703-.703h-6.767a4.467 4.467 0 0 0-4.462 4.462v.042c0 .573.136 1.147.392 1.66l.36.72v1.148c0 1.82.897 3.453 2.255 4.435v1.016c0 .157 0 .222-.58.388l-1.417.405-4.099-1.49a.702.702 0 0 0-.191-.54l-1.31-1.375v-2.31a8.252 8.252 0 0 0 3.007-6.354V18.02a8.126 8.126 0 0 0 .752-3.418V7.084a.703.703 0 0 0-.703-.703H21.753a6.725 6.725 0 0 0-6.717 6.717v1.504c0 1.183.253 2.332.752 3.418v1.587a8.591 8.591 0 0 0 3.007 6.558v2.364l-1.31 1.376a.702.702 0 0 0-.191.538l-4.327 1.573a3.683 3.683 0 0 0-.869.456l-.68-.34c2.023-.88 2.664-2.118 2.695-2.18a.703.703 0 0 0 0-.629c-.507-1.013-.569-2.872-.618-4.364a38.065 38.065 0 0 0-.062-1.385c-.24-3.373-2.803-5.916-5.964-5.916-3.16 0-5.724 2.543-5.964 5.916-.03.418-.045.887-.061 1.385-.05 1.493-.111 3.35-.618 4.364a.703.703 0 0 0 0 .63c.03.06.67 1.296 2.696 2.177l-1.887.944A2.943 2.943 0 0 0 0 35.72v5.195a.703.703 0 0 0 1.406 0V35.72c0-.591.329-1.123.858-1.388l2.35-1.175.817.777a2.95 2.95 0 0 0 2.038.814 2.95 2.95 0 0 0 2.038-.814l.818-.777.766.383a3.703 3.703 0 0 0-.566 1.963v5.412a.703.703 0 0 0 1.406 0v-5.412c0-.965.61-1.835 1.517-2.165l4.561-1.659 1.899 2.849a1.45 1.45 0 0 0 1.212.648c.384 0 .752-.152 1.027-.427l1.159-1.158v7.324a.703.703 0 0 0 1.406 0v-7.324l1.158 1.158a1.449 1.449 0 0 0 1.172.42 1.45 1.45 0 0 0 1.068-.641l1.899-2.848 4.56 1.658c.908.33 1.517 1.2 1.517 2.166v5.411a.703.703 0 0 0 1.407 0v-5.411c0-.978-.389-1.895-1.04-2.573l.173-.05c.175-.05.415-.118.655-.236l1.795 1.795v6.475a.703.703 0 0 0 1.406 0V34.44l1.783-1.782c.094.048.194.088.299.118l2.904.83a1.56 1.56 0 0 1 1.126 1.493v5.816a.703.703 0 0 0 1.406 0V35.1a2.971 2.971 0 0 0-2.146-2.845zM4.511 31.012c-1.315-.474-1.975-1.105-2.257-1.45.192-.501.317-1.076.401-1.683a5.244 5.244 0 0 0 1.856 2.29v.843zm4.028 1.902c-.6.57-1.54.57-2.139 0l-.654-.62c.11-.208.171-.442.171-.687v-.75a5.231 5.231 0 0 0 3.105 0v.75c0 .245.06.48.17.686l-.653.621zm-1.07-3.227a3.812 3.812 0 0 1-3.807-3.808.703.703 0 0 0-.819-.693l.007-.18c.015-.484.03-.94.058-1.332.09-1.264.595-2.428 1.422-3.279a4.346 4.346 0 0 1 3.14-1.33c1.19 0 2.305.472 3.14 1.33.826.851 1.33 2.015 1.42 3.279.029.391.044.848.06 1.331l.004.126c-.765-1.18-1.947-2.048-3.473-2.538a8.826 8.826 0 0 0-2.675-.424.703.703 0 0 0-.486.215L4.19 23.7a.703.703 0 1 0 1.013.976l1.055-1.095c.91.044 3.834.384 4.971 2.89a3.798 3.798 0 0 1-3.76 3.216zm2.959 1.327v-.839a5.202 5.202 0 0 0 1.856-2.292c.084.606.209 1.18.4 1.68-.28.341-.942.978-2.256 1.451zm6.766-11.407v-1.744a.704.704 0 0 0-.07-.306 6.745 6.745 0 0 1-.682-2.955v-1.504a5.317 5.317 0 0 1 5.311-5.31h9.823v6.814c0 1.024-.23 2.018-.682 2.955a.704.704 0 0 0-.07.306v2.002a6.75 6.75 0 0 1-2.156 4.973 7.01 7.01 0 0 1-.54.457l-.012.009a6.76 6.76 0 0 1-4.562 1.36c-3.566-.23-6.36-3.33-6.36-7.057zm3.959 14.148c-.005.005-.016.016-.04.014a.045.045 0 0 1-.035-.022l-2.187-3.28.704-.74 3.317 2.268-1.759 1.76zm2.856-2.714L20.2 28.44v-1.313a7.916 7.916 0 0 0 3.815.96 8.145 8.145 0 0 0 3.8-.931v1.284L24.01 31.04zm2.93 2.707a.045.045 0 0 1-.035.021c-.023.003-.034-.01-.04-.014l-1.759-1.76 3.318-2.267.704.74-2.187 3.28zm12.84-.594-1.596-1.595c.028-.127.044-.265.044-.418v-.297a4.928 4.928 0 0 0 1.554.249c.534 0 1.054-.08 1.55-.235v.284c0 .14.018.277.051.41l-1.603 1.602zm2.651-4.542a3.78 3.78 0 0 1-2.769 1.073c-2.034-.061-3.69-1.853-3.69-3.995v-1.315a.703.703 0 0 0-.074-.314l-.434-.869a2.316 2.316 0 0 1-.244-1.03v-.042a3.06 3.06 0 0 1 3.056-3.056h6.063v2.92c0 .472-.111.945-.322 1.367l-.355.71a.702.702 0 0 0-.074.314v1.504c0 1.039-.411 2.01-1.157 2.733z" fill="#013B81"/>
    <path d="M44.291 35.701a.703.703 0 0 0-.703.703v4.511a.703.703 0 0 0 1.406 0v-4.51a.703.703 0 0 0-.703-.704zM3.709 36.63a.703.703 0 0 0-.703.704v3.581a.703.703 0 0 0 1.406 0v-3.581a.703.703 0 0 0-.703-.703zM29.768 14.858c-2.659-2.66-8.223-2.151-10.492-1.81a1.443 1.443 0 0 0-1.233 1.439v1.62a.703.703 0 0 0 1.406 0v-1.62c0-.024.016-.045.037-.048.906-.136 2.705-.347 4.568-.223 2.193.146 3.78.696 4.72 1.636a.703.703 0 1 0 .994-.994zM15.74 37.205a.703.703 0 0 0-.703.703v3.007a.703.703 0 0 0 1.406 0v-3.007a.703.703 0 0 0-.703-.703zM32.281 37.205a.703.703 0 0 0-.703.703v3.007a.703.703 0 0 0 1.406 0v-3.007a.703.703 0 0 0-.703-.703z" fill="#013B81"/>
</svg>
