<svg width="433" height="260" viewBox="0 0 433 260" fill="none" xmlns="http://www.w3.org/2000/svg">
    <path d="M186 64c-49-5-136.219 1.5-164.36 44.5-28.14 43-10.56 150.768 0 150.749h374.812l4.798.162s29.328-42.294 2.778-66.993c-26.549-24.698-8.323-35.995-5.094-45.538 3.705-10.962 4.407-33.036-25.423-60.306-26.602-24.312-46.909-52.303-96.46-50.189C227.5 38.5 235 69 186 64z" fill="url(#a)"/>
    <path d="M92.29 91.502H19.354a.667.667 0 0 0-.666.667v45.737c0 .368.298.666.666.666H92.29a.666.666 0 0 0 .667-.666V92.169a.667.667 0 0 0-.667-.667z" fill="url(#b)"/>
    <path d="M91.928 136.854V95.856a.527.527 0 0 0-.528-.527H20.234a.527.527 0 0 0-.527.527v40.998c0 .292.236.528.527.528H91.4a.527.527 0 0 0 .528-.528z" fill="#F0F8FF"/>
    <path d="M90.51 94.357a.94.94 0 1 0 0-1.878.94.94 0 0 0 0 1.878zM87.402 94.357a.94.94 0 1 0 0-1.878.94.94 0 0 0 0 1.878zM85.234 93.418a.943.943 0 1 1-1.885.006.943.943 0 0 1 1.885-.006z" fill="#BDD0FB"/>
    <path d="M29.897 102.857a3.804 3.804 0 0 1-4.54 3.74 3.802 3.802 0 1 1 4.54-3.74z" fill="url(#c)"/>
    <path d="M88.346 99.083H31.648v1.797h56.698v-1.797zM70.234 101.959H31.648v1.797h38.586v-1.797zM51.714 105.011H31.648v1.797h20.066v-1.797z" fill="#BDD0FB"/>
    <path d="M29.897 114.965a3.802 3.802 0 1 1-7.605 0 3.802 3.802 0 0 1 7.605 0z" fill="#739AF0"/>
    <path d="M88.346 111.193H31.648v1.797h56.698v-1.797zM70.234 114.068H31.648v1.797h38.586v-1.797zM51.714 117.119H31.648v1.797h20.066v-1.797z" fill="#BDD0FB"/>
    <path d="M29.897 127.074a3.802 3.802 0 1 1-7.605.007 3.802 3.802 0 0 1 7.605-.007z" fill="url(#d)"/>
    <path d="M88.346 123.302H31.648v1.797h56.698v-1.797zM70.234 126.178H31.648v1.797h38.586v-1.797zM51.714 129.228H31.648v1.796h20.066v-1.796z" fill="#BDD0FB"/>
    <path d="M96.475 87.464H14.604v55.603h81.871V87.464z" stroke="url(#e)" stroke-miterlimit="10"/>
    <path d="M16.208 85.86h-3.206v3.206h3.206V85.86z" fill="url(#f)"/>
    <path d="M16.208 141.464h-3.206v3.206h3.206v-3.206z" fill="url(#g)"/>
    <path d="M98.08 85.86h-3.205v3.206h3.206V85.86z" fill="url(#h)"/>
    <path d="M98.08 141.464h-3.205v3.206h3.206v-3.206z" fill="url(#i)"/>
    <path d="M77.82 187.274H21.874a.667.667 0 0 0-.667.667v38.45c0 .368.299.666.667.666H77.82a.666.666 0 0 0 .666-.666v-38.45a.667.667 0 0 0-.666-.667z" fill="url(#j)"/>
    <path d="M77.621 225.624v-34.692a.424.424 0 0 0-.424-.424H22.499a.424.424 0 0 0-.424.424v34.692c0 .235.19.425.425.425h54.697c.234 0 .424-.19.424-.425zM77.219 188.893a.796.796 0 1 1-1.592.006.796.796 0 0 1 1.592-.006zM74.588 188.893a.794.794 0 0 1-.952.784.79.79 0 0 1-.627-.627.797.797 0 1 1 1.579-.157zM71.965 188.893a.795.795 0 1 1-1.59 0 .795.795 0 0 1 1.59 0z" fill="#fff"/>
    <path d="M57.847 210.31a8.25 8.25 0 0 0-5.968-10.027 8.251 8.251 0 1 0 5.968 10.027z" fill="url(#k)"/>
    <path d="m54.674 208.28-3.818 2.203-3.82 2.206v-8.821l3.82 2.206 3.818 2.206z" fill="#F0F8FF"/>
    <path d="M77.622 222.324H22.076v1.094h55.546v-1.094z" fill="#BDD0FB"/>
    <path d="M34.59 222.324H22.077v1.094h12.515v-1.094z" fill="url(#l)"/>
    <path d="M34.59 223.709a.84.84 0 1 0 0-1.679.84.84 0 0 0 0 1.679z" fill="url(#m)"/>
    <path d="M81.55 184.636H18.145v45.779H81.55v-45.779z" stroke="url(#n)" stroke-miterlimit="10"/>
    <path d="M19.387 183.393h-2.485v2.484h2.485v-2.484z" fill="url(#o)"/>
    <path d="M19.387 229.173h-2.485v2.485h2.485v-2.485z" fill="url(#p)"/>
    <path d="M82.795 183.393h-2.484v2.484h2.484v-2.484z" fill="url(#q)"/>
    <path d="M82.795 229.173h-2.484v2.485h2.484v-2.485z" fill="url(#r)"/>
    <path d="M208.735 116.289h-27.117a.961.961 0 0 1-.886-.593.969.969 0 0 1-.072-.368V95.957a.961.961 0 0 1 .28-.678.948.948 0 0 1 .678-.28h11.023c.254 0 .497.1.676.279l1.791 1.79a.96.96 0 0 0 .679.282h12.948a.958.958 0 0 1 .957.958v17.02a.95.95 0 0 1-.279.679.963.963 0 0 1-.678.282z" fill="url(#s)"/>
    <path d="M206.278 83.64v24.386h-23.02V80h19.384l3.636 3.64z" fill="#BDD0FB"/>
    <path d="M202.641 83.64V80l3.636 3.64h-3.636z" fill="#BDD0FB"/>
    <path d="M207.704 84.915V109.3h-23.02V81.275h19.38l3.64 3.64z" fill="#F0F8FF"/>
    <path d="M209.755 116.289h-27.114a.956.956 0 0 1-.957-.96v-16.62a.955.955 0 0 1 .957-.958h11.024c.254 0 .498.1.679.279l1.79 1.794c.181.179.425.279.679.278h12.948a.961.961 0 0 1 .958.961v14.266a.952.952 0 0 1-.283.68.958.958 0 0 1-.681.28z" fill="url(#t)"/>
    <path d="M204.066 84.915v-3.64l3.64 3.64h-3.64zM203.097 82.877h-17.433v.948h17.433v-.948zM206.665 86.445h-20.938v.597h20.938v-.597zM206.665 88.14h-20.938v.597h20.938v-.597zM202.935 89.83h-17.208v.597h17.208v-.597zM202.935 91.52h-17.208v.598h17.208v-.597zM197.362 93.21h-11.635v.598h11.635v-.597zM197.362 94.903h-11.635v.597h11.635v-.597z" fill="#BDD0FB"/>
    <path d="M201.594 117.972H64.152c-.764 0-1.384.62-1.384 1.384v79.112c0 .765.62 1.385 1.384 1.385h137.442c.765 0 1.385-.62 1.385-1.385v-79.112c0-.764-.62-1.384-1.385-1.384z" fill="url(#u)"/>
    <path d="M201.045 196.762v-70.733a.837.837 0 0 0-.836-.837H65.536a.837.837 0 0 0-.836.837v70.733c0 .462.374.836.836.836H200.21a.836.836 0 0 0 .836-.836z" fill="#F0F8FF"/>
    <path d="M200.143 121.587a1.778 1.778 0 0 1-1.096 1.641 1.783 1.783 0 0 1-1.935-.385 1.778 1.778 0 0 1 .269-2.732 1.775 1.775 0 0 1 2.762 1.476zM194.274 121.587a1.778 1.778 0 0 1-1.096 1.641 1.778 1.778 0 0 1-2.32-2.32 1.77 1.77 0 0 1 1.64-1.096 1.776 1.776 0 0 1 1.776 1.775zM188.401 121.587a1.778 1.778 0 0 1-1.096 1.641 1.778 1.778 0 0 1-2.32-2.32 1.77 1.77 0 0 1 1.64-1.096 1.776 1.776 0 0 1 1.776 1.775z" fill="#BDD0FB"/>
    <path d="M120.034 129.235H68.219v37.196h51.815v-37.196z" stroke="url(#v)" stroke-miterlimit="10"/>
    <path d="M126.095 135.231H74.279v37.196h51.816v-37.196z" fill="#739AF0"/>
    <path d="M122.74 169.442H77.527l14.245-26.875 10.706 18.469 7.26-7.663 13.002 16.069zM104.608 148.473a4.424 4.424 0 1 0 0-8.849 4.424 4.424 0 0 0 0 8.849z" stroke="#fff" stroke-width="2" stroke-linecap="round" stroke-linejoin="round"/>
    <path d="M196.591 129.811h-64.542v3.969h64.542v-3.969zM150.596 137.12h-18.547v1.985h18.547v-1.985zM160.652 137.12h-7.527v1.985h7.527v-1.985zM183.299 137.12h-19.754v1.985h19.754v-1.985zM196.592 137.12h-11.733v1.985h11.733v-1.985zM156.499 142.065h-24.45v1.985h24.45v-1.985zM168.722 142.065h-9.515v1.985h9.515v-1.985zM180.405 142.065h-9.514v1.985h9.514v-1.985zM193.956 142.065h-12.081v1.985h12.081v-1.985zM138.855 147.011h-6.806v1.984h6.806v-1.984zM176.187 147.011h-12.224v1.984h12.224v-1.984zM161.915 147.011h-21.499v1.984h21.499v-1.984zM147.466 151.958h-15.417v1.985h15.417v-1.985zM155.292 151.958h-5.179v1.985h5.179v-1.985zM167.878 151.958h-10.179v1.985h10.179v-1.985zM137.949 156.903h-5.9v1.985h5.9v-1.985zM153.126 156.903h-12.948v1.985h12.948v-1.985zM126.092 176.375H68.219v17.214h57.873v-17.214z" fill="#BDD0FB"/>
    <path d="M80.744 177.546H69.76v10.215h10.984v-10.215zM80.744 189.277H69.76v3.037h10.984v-3.037zM94.734 182.096H83.75v10.214h10.984v-10.214zM94.734 177.546H83.75v3.036h10.984v-3.036zM109.816 177.546H98.832v10.215h10.984v-10.215zM109.816 189.277H98.832v3.037h10.984v-3.037zM123.814 182.096H112.83v10.214h10.984v-10.214zM123.814 177.546H112.83v3.036h10.984v-3.036z" fill="#fff"/>
    <path d="M134.018 162.436h63.891a.624.624 0 0 1 .624.624v2.933h-65.148v-2.933a.62.62 0 0 1 .633-.624z" fill="url(#w)"/>
    <path d="M197.878 165.307v26.968a1.126 1.126 0 0 1-1.125 1.124h-61.582a1.124 1.124 0 0 1-1.124-1.124v-26.968h63.831zm.657-.655h-65.148v27.635a1.775 1.775 0 0 0 1.1 1.645c.216.089.448.134.681.134h61.585c.234 0 .466-.045.682-.134a1.792 1.792 0 0 0 .964-.963c.09-.216.136-.448.136-.682v-27.635z" fill="url(#x)"/>
    <path d="M143.855 168.188h-8.197v23.647h8.197v-23.647zM195.686 168.188h-39.604v23.647h39.604v-23.647z" fill="#BDD0FB"/>
    <path d="M193.746 169.441h-35.553v2.412h35.553v-2.412zM193.746 173.307h-35.553v1.206h35.553v-1.206z" fill="#fff"/>
    <path d="M153.771 173.307h-8.197v2.821h8.197v-2.821z" fill="#BDD0FB"/>
    <path d="M165.841 175.601h-7.648v14.463h7.648v-14.463zM184.619 175.601h-7.648v14.463h7.648v-14.463zM175.814 190.39h-8.302v-15.118h8.302v15.118zm-7.648-.655h6.994v-13.808h-6.994v13.808zM194.076 190.39h-8.303v-15.118h8.303v15.118zm-7.648-.655h6.991v-13.808h-6.991v13.808z" fill="#fff"/>
    <path d="M153.771 178.421h-8.197v2.821h8.197v-2.821zM153.771 183.536h-8.197v2.821h8.197v-2.821zM153.771 188.65h-8.197v2.821h8.197v-2.821z" fill="#BDD0FB"/>
    <path d="M151.043 237H118.62a1.154 1.154 0 0 1-1.157-1.161v-36.001h34.741v36.001a1.164 1.164 0 0 1-1.161 1.161z" fill="#fff"/>
    <path d="M151.598 200.444v35.395a.555.555 0 0 1-.555.555h-32.422a.558.558 0 0 1-.552-.555v-35.395h33.529zm.606-.606h-34.747v36.001a1.167 1.167 0 0 0 .338.821 1.164 1.164 0 0 0 .82.34h32.422a1.164 1.164 0 0 0 1.161-1.161v-36.001h.006z" fill="url(#y)"/>
    <path d="M118.615 195.48h32.422a1.164 1.164 0 0 1 1.161 1.161v3.197h-34.741v-3.203a1.164 1.164 0 0 1 1.158-1.155z" fill="url(#z)"/>
    <path d="M144.634 197.577a.688.688 0 0 1-.427.638.69.69 0 0 1-.902-.903.687.687 0 0 1 .638-.426.691.691 0 0 1 .691.691zM147.642 197.577a.688.688 0 0 1-.427.638.69.69 0 0 1-.942-.504.69.69 0 0 1 1.166-.623.69.69 0 0 1 .203.489zM150.653 197.577a.687.687 0 0 1-.426.638.69.69 0 1 1 .426-.638z" fill="#BDD0FB"/>
    <path d="M126.497 207.71a2.656 2.656 0 0 1-.448 1.481 2.667 2.667 0 0 1-4.099.406 2.666 2.666 0 0 1 .406-4.1 2.664 2.664 0 0 1 4.141 2.213z" fill="url(#A)"/>
    <path d="M147.52 205.749h-18.696v1.23h18.696v-1.23zM139.251 208.82h-10.427v1.231h10.427v-1.231z" fill="#BDD0FB"/>
    <path d="M126.497 217.028a2.658 2.658 0 0 1-1.643 2.463 2.659 2.659 0 0 1-2.904-.577 2.663 2.663 0 1 1 4.547-1.886z" fill="url(#B)"/>
    <path d="M147.52 215.066h-18.696v1.231h18.696v-1.231zM139.251 218.138h-10.427v1.23h10.427v-1.23z" fill="#BDD0FB"/>
    <path d="M126.497 226.346a2.658 2.658 0 0 1-1.643 2.463 2.667 2.667 0 0 1-2.904-.577 2.66 2.66 0 0 1-.577-2.904 2.669 2.669 0 0 1 2.463-1.642 2.661 2.661 0 0 1 2.661 2.66z" fill="#739AF0"/>
    <path d="M147.52 224.385h-18.696v1.23h18.696v-1.23zM139.251 227.456h-10.427v1.23h10.427v-1.23zM331.349 13.92v61.805c0 .702-.327 1.375-.91 1.871-.582.496-1.372.775-2.196.775h-60.882c-.823 0-1.613-.279-2.196-.775-.582-.496-.909-1.169-.909-1.87V13.92c0-.348.08-.692.236-1.012.156-.321.385-.613.674-.858.288-.245.63-.44 1.007-.572a3.58 3.58 0 0 1 1.188-.2h60.878c.408-.002.812.066 1.19.198.377.133.72.327 1.009.573.288.245.518.537.674.858.156.32.237.665.237 1.013z" fill="#BDD0FB"/>
    <path d="M313.009 63.248h-31.31v1.548h31.31v-1.548zM313.009 66.885h-31.31v1.547h31.31v-1.547z" fill="#739AF0"/>
    <path d="M314.768 37.354c-1.501-3.971-5.107-5.799-6.811-6.366l-2.84-.924-4.302-1.386h-7.1s-2.457.823-5.069 1.737c-2.409.842-4.942 1.76-5.794 2.191-1.784.89-4.785 7.256-5.391 7.985a57.034 57.034 0 0 0-3.076 5.628h7.644c.809-1.392 1.42-2.466 1.42-2.466s.473 1.06 1.069 2.466h24.537c.383-1.633.629-3.683.629-3.683s1.311 1.785 2.741 3.683h7.043c-1.728-2.878-3.858-6.627-4.7-8.865z" fill="url(#C)"/>
    <path d="m301.508 28.521-.71-.35c-.345-.771-.089-4.032-.089-4.032s-7.067-1.799-6.863-.426c.203 1.372-.611 4.572-.611 4.572l-3.626 1.798a29.05 29.05 0 0 0 7.573.72c5.42-.114 6.83-1.094 6.83-1.094l-2.504-1.188z" fill="url(#D)"/>
    <path d="M298.122 9.188s5.547.87 4.7 9.551c-.847 8.68-5.737 7.961-6.073 7.961-.336 0-4.913.156-5.272-10.441.004-.005-.152-7.838 6.645-7.071z" fill="url(#E)"/>
    <path d="M302.903 16.286s.606-.648.829 0c.222.649-.829 3.588-.866 3.725 0 0-.109.256-.256.114-.147-.142.293-3.839.293-3.839z" fill="url(#F)"/>
    <path d="M291.629 16.172s-.596-.658-.828 0c-.232.658.748 3.602.791 3.744 0 0 .108.256.255.119.147-.138-.218-3.863-.218-3.863z" fill="url(#G)"/>
    <path d="m302.904 17.617-.795 1.06a21.246 21.246 0 0 0-.105-2.692c-.127-.365-.321-1.482-.43-1.742-.109-.26-4.762-1.572-8.875.378 0 0 .18 1.676-.213 1.823-.393.146-.203 2.726-.203 2.726l-.654-.734s-.998-6.678-.752-7.374c.246-.696 1.036-4.88 9.466-2.4 0 0 2.632-.553 3.157 1.26.525 1.812-.596 7.695-.596 7.695z" fill="url(#H)"/>
    <path d="M299.988 55.69h-5.263v.974h5.263v-.974zM313.131 18.037v.947h5.614v5.268h.947v-6.215h-6.561zm-38.115 6.224h.946v-5.268h5.642v-.946h-6.588v6.214zm43.729 27.178v5.272h-5.614v.947h6.565v-6.22h-.951zm-42.778 0h-.947v6.224h6.584v-.947h-5.637V51.44z" fill="#739AF0"/>
    <path d="M416.349 42.21v84.916a3.64 3.64 0 0 1-1.064 2.571 3.64 3.64 0 0 1-2.571 1.064h-71.266a3.635 3.635 0 0 1-3.635-3.635V42.209a3.624 3.624 0 0 1 2.244-3.355 3.628 3.628 0 0 1 1.391-.275h71.261a3.637 3.637 0 0 1 2.574 1.06 3.631 3.631 0 0 1 1.066 2.57z" fill="#BDD0FB"/>
    <path d="M379.655 92.959h-6.229v1.155h6.229v-1.155zM386.022 103.533h-36.247v2.234h36.247v-2.234zM379.083 114.253h-29.308v2.234h29.308v-2.234zM366.957 108.89h-17.182v2.234h17.182v-2.234zM395.503 47.772v1.126h6.626v6.233h1.127v-7.36h-7.753zm-45.102 7.36h1.126v-6.234h6.626v-1.127h-7.752v7.36zm51.747 32.185v6.214h-6.626v1.131h7.771v-7.378l-1.145.033zm-50.645 0h-1.126v7.365h7.772v-1.15h-6.627l-.019-6.215z" fill="#739AF0"/>
    <path d="M399.459 86.782h-3.786c-.071-.152-.123-.284-.171-.388-1.121-2.651-6.896-8.719-6.896-8.719v.076a.092.092 0 0 0 0 .033v.024c-.236.885-1.42 5.291-1.983 8.945h-25.559c-.061-.34-.128-.662-.208-.946a20.633 20.633 0 0 1-.473-2.646v-.123c0-.156-.038-.308-.048-.474a23.826 23.826 0 0 1-.042-4.231c-.076.151-.592 2.045-1.269 4.383-.369 1.283-.79 2.703-1.212 4.037h-6.115l7.573-21.857c.166-.128 2.13-1.08 3.564-1.766 1.434-.686 3.228-1.718 4.823-2.594.819-.444 1.586-.852 2.253-1.154l.104-.048 1.832-.833.474-.047c1.538-.147 6.309-.596 7.909-.686h.492c.843.23 1.67.514 2.475.852l.152.052.18.07.345.133.71.28.251.099c2.589 1.022 5.557 2.295 6.257 2.802.473.331 1.917 3.067 3.597 6.446 1.823 5.798 4.038 14.157 4.771 18.28z" fill="url(#I)"/>
    <path d="M380.692 57.03c-.071 3.436-6.722 5.32-6.722 5.32s-2.783-3.493-2.12-3.824c.26-.133.369-.654.402-1.236.021-.52.008-1.042-.038-1.562 0-.241-.037-.397-.037-.397s.946-1.004 2.158-2.197c2.111-2.092 5.017-4.766 5.022-3.7a.826.826 0 0 1 0 .198c-.535 2.4 1.335 7.398 1.335 7.398z" fill="url(#J)"/>
    <path d="M379.401 49.475c-.573 1.254-1.122 2.163-1.278 2.523a4.386 4.386 0 0 1-.776 1.046c-1.094 1.183-3.134 2.74-5.136 2.684a3.469 3.469 0 0 1-.663-.076 3.16 3.16 0 0 1-2.29-1.586c-4.151-8.127-1.146-14.772-1.146-14.772s11.36-3.209 13.125.209c1.25 2.4-.483 7.033-1.836 9.972z" fill="url(#K)"/>
    <path d="M368.117 39.294s-1.051-.056-1.316-2.054c-.265-1.997.265-2.523.265-2.523s4.686-1.959 6.366-2.215c1.68-.255 5.822-.501 6.792.61 0 0 2.366-.548 2.996 3.361 1.022 6.206-3.469 12.236-3.469 12.236s.038-4.057-.857-4.596c-.895-.54-1.661.743-1.661.743l-1.832.326s2.778-5.997-.554-6.219c-3.332-.222-4.823.682-6.73.331z" fill="url(#L)"/>
    <path d="M377.277 43.236c.175-1.785 3.403-2.466 3.19-.597-.213 1.87-1.808 3.673-2.542 3.612-.733-.062-.781-1.652-.648-3.015z" fill="url(#M)"/>
    <path d="M396.182 68.672c-1.051-3.37-1.96-6.034-2.367-6.323-.705-.506-6.309-2.05-8.969-3.09l-.251-.1-.71-.28-.345-.132-.18-.07-.152-.053a44.664 44.664 0 0 0-2.939 3.758c-2.745 3.905-6.328 10.233-5.779 16.093.18 1.893.393 4.563.762 7.573.024.241.052.473.085.724h12.406c.146-3.167.416-7.332.828-8.946v-.023a.092.092 0 0 1 0-.034v-.075s3.001 4.69 3.152 9.092h7.81c-.35-4.094-1.543-12.33-3.351-18.114z" fill="url(#N)"/>
    <path d="M369.966 59.448s-.947 3.119-2.145 10.886l-.127.8v.094c-.033.18-.057.365-.086.55v.066c0 .118-.037.246-.056.374-.043.303-.09.62-.138.946-.473 3.176-1.06 8.222-1.67 13.608h-4.904a22.65 22.65 0 0 1-.473-3.786 231.817 231.817 0 0 1-1.283 3.474c-.038.104-.08.208-.118.317h-8.491l8.415-22.019c.166-.132 2.333-1.301 3.787-1.983 1.453-.681 3.388-1.59 5.064-2.367.8-.373 1.552-.714 2.191-1.008l.034.048z" fill="url(#O)"/>
    <path d="m381.37 67.149-3.242 1.827 1.386 1.42-3.038 16.395h-1.155c-.421-3.313-.658-6.29-.847-8.311-.843-9.036 8.169-19.226 8.727-19.846.436.16.904.345 1.387.535l-3.218 7.98z" fill="url(#P)"/>
    <path d="M370.017 59.358s-1.212 3.948-2.618 13.812c-.473 3.17-1.065 8.221-1.675 13.607h-.473l-.63-15.491 1.543-1.67-1.373-1.714 2.935-7.488c.8-.374 1.552-.715 2.191-1.008l.1-.048z" fill="url(#Q)"/>
    <path d="m383.366 58.661-2.684-1.633s-.076 1.472-6.721 5.32l1.893 5.316 7.512-9.003z" fill="#ADBEE6"/>
    <path d="M372.2 57.773s.104 1.59 1.77 4.576l-3.687 4.8-.265-7.79 2.182-1.587z" fill="#ADBEE6"/>
    <path d="M360.423 78.386c-.118 2.437-.099 4.6-.099 4.6v.185-.123a267.942 267.942 0 0 1-1.259 3.412c-.1-1.33-.128-2.57-.099-3.72.175-6.83 2.323-10.413 2.323-10.413-.515 1.193-.752 3.749-.866 6.059z" fill="url(#R)"/>
    <path d="M240.582 244.424s-.578 4.032-.649 4.638c-.071.606-6.403-.355-6.403-.355l-.516-4.804s6.777-.057 7.568.521z" fill="#739AF0"/>
    <path d="M239.999 248.545s2.007 2.433 3.948 3.493c1.94 1.06 4.993 1.477 6.153 2.575.828.795 3.015 4.203-5.046 4.132-8.06-.071-11.951.473-12.812-.824-.862-1.297 1.249-9.65 1.249-9.65s1.898.695 6.508.274z" fill="#001333"/>
    <path d="M285.966 244.424s-.573 4.032-.644 4.638c-.071.606-6.408-.355-6.408-.355l-.512-4.804s6.773-.057 7.564.521z" fill="#739AF0"/>
    <path d="M285.39 248.545s2.007 2.433 3.948 3.493c1.94 1.06 9.082 1.931 10.233 3.029.828.791 2.205 3.976-9.14 3.678-8.046-.208-11.946.473-12.813-.824-.866-1.296 1.25-9.65 1.25-9.65s1.789.743 6.522.274z" fill="#001333"/>
    <path d="M242.826 140.229s-3.351 10.005-2.925 18.643c.426 8.638-1.742 18.076-2.637 27.088-.999 10.053-5.078 33.847-5.206 39.223-.128 5.377.615 22.554.615 22.554l8.165.189s6.858-41.599 8.633-45.845c1.775-4.246 10.583-34.5 10.886-37.898.303-3.399-17.531-23.954-17.531-23.954z" fill="url(#S)"/>
    <path d="M277.159 142.008s4.487 23.666 5.078 28.939c.592 5.272.985 25.559 1.283 28.872.298 3.313 1.974 43.199 3.555 48.107h-10.442s-8.013-29.009-8.013-42.73c0-13.722-6.191-29.819-10.19-38.888-4-9.068-13.144-9.272-15.619-26.07.018-.009 31.02-3.554 34.348 1.77z" fill="url(#T)"/>
    <path d="M255.944 61.171s8.226-3.072 12.022 3.19c3.796 6.262 3.427 18.805-.72 20.353-4.146 1.548-10.379.734-12.5-3.186-2.12-3.919-4.042-9.584-3.952-13.37.09-3.787 2.987-5.893 5.15-6.987z" fill="url(#U)"/>
    <path d="M265.866 84.325s-.331 2.153.218 3.218-10.352 1.089-10.352 1.089a72.024 72.024 0 0 0-2.56-10.664c-1.68-4.884 12.694 6.357 12.694 6.357z" fill="url(#V)"/>
    <path d="M253.169 77.969s.753 1.245 3.825.762c3.072-.483 6.816-4.567 8.098-5.017 1.283-.45 1.292-1.202 1.292-1.202l.805 1.174 1.363.085s-1.245-3.654.63-5.145c1.874-1.491-1.946-11.833-11.795-8.387 0 0-7.573 2.087-7.289 6.39.284 4.302 1.377 9.2 3.071 11.34z" fill="url(#W)"/>
    <path d="M266.729 87.416s-.038-2.03-.946-2.224c-.909-.194-10.158-1.084-11.289-.64v2.367s2.168 1.335 12.235.497z" fill="#ADBEE6"/>
    <path d="M266.18 70.949c-.17-.724-2.007-2.783-2.707-.578-.701 2.206 1.06 5.178 2.045 4.923.984-.256 1.103-2.518.662-4.345z" fill="#FFBCBB"/>
    <path d="M266.733 87.416s5.064 1.822 10.928 4.312c0 0 6.745 2.518 7.479 9.973.388 3.952 4.595 24.943 5.386 26.723.79 1.78 10.129 30.292 10.46 30.902.331.611-7.625 3.891-8.15 3.626-.526-.265-9.041-26.032-9.897-27.925 0 0-4.904-15.449-5.032-17.75 0 0-.142 6.56-.407 8.406-.265 1.846 4.36 37.61 4.227 38.594-.132.985-21.006 2.239-29.345 1.321a102.563 102.563 0 0 1-15.099-2.84s6.574-28.228 6.376-31.357c-.441-6.82-2.722-19.661-2.722-19.661l-6.811 12.841 8.718 22.435-1.997 6.82s-16.201-24.489-16.727-26.723c-.525-2.234.791-5.088 1.647-6.93.857-1.841 6.475-15.86 7.791-17.834 1.316-1.974 3.536-9.878 8.913-12.079 4.491-1.836 12.031-3.346 12.031-3.346l12.231.492z" fill="url(#X)"/>
    <path d="m277.877 172.238 38.174-9.787-6.829-26.633-38.173 9.787 6.828 26.633z" fill="#BDD0FB"/>
    <path d="M304.322 165.148s1.089 1.761 1.491 2.268c.402.506-.98.818-1.571.307-.592-.511.08-2.575.08-2.575z" fill="url(#Y)"/>
    <path d="M296.356 171.168a4.254 4.254 0 0 1-.781-1.103s-.194-.804-.364-1.368a3.086 3.086 0 0 0-.151-.43 7.914 7.914 0 0 1-.871-2.319c-.171-1.084-.644-5.969-.644-5.969l2.958-.748 2.367-.502s5.13 5.122 5.405 6.116c.024.099.047.194.061.288.152.867-.099 1.572-.075 2.036 0 .17 0 1.893-.412 2.186a1.66 1.66 0 0 1-1.567.379s-1.112.819-2.04.767a2.468 2.468 0 0 1-2.139.397s-1.093.687-1.747.27z" fill="url(#Z)"/>
    <path d="M284.816 140.295s6.774 20.518 8.018 22.671c0 0 4.97-1.041 8.151-3.625l-7.441-22.147-8.728 3.101z" fill="url(#aa)"/>
    <path d="M13.158 260h394.684c.639 0 1.158-.443 1.158-.99v-.02c0-.547-.519-.99-1.158-.99H13.158c-.64 0-1.158.443-1.158.99v.02c0 .547.519.99 1.158.99z" fill="#233862"/>
    <defs>
        <linearGradient id="a" x1="415.141" y1="130" x2="-17.591" y2="130" gradientUnits="userSpaceOnUse">
            <stop stop-color="#DAE3FE"/>
            <stop offset="1" stop-color="#E9EFFD"/>
        </linearGradient>
        <linearGradient id="b" x1="18.688" y1="115.037" x2="92.954" y2="115.037" gradientUnits="userSpaceOnUse">
            <stop stop-color="#09005D"/>
            <stop offset="1" stop-color="#1A0F91"/>
        </linearGradient>
        <linearGradient id="c" x1="22.294" y1="102.857" x2="29.897" y2="102.857" gradientUnits="userSpaceOnUse">
            <stop stop-color="#4042E2"/>
            <stop offset="1" stop-color="#4F52FF"/>
        </linearGradient>
        <linearGradient id="d" x1="22.294" y1="127.074" x2="29.897" y2="127.074" gradientUnits="userSpaceOnUse">
            <stop offset=".03" stop-color="#FE7062"/>
            <stop offset="1" stop-color="#FE7062"/>
        </linearGradient>
        <linearGradient id="e" x1="14.452" y1="115.266" x2="96.627" y2="115.266" gradientUnits="userSpaceOnUse">
            <stop offset=".49" stop-color="#001333"/>
            <stop offset="1" stop-color="#001E4F"/>
        </linearGradient>
        <linearGradient id="f" x1="295.634" y1="277.317" x2="329.553" y2="277.317" gradientUnits="userSpaceOnUse">
            <stop offset=".49" stop-color="#001333"/>
            <stop offset="1" stop-color="#001E4F"/>
        </linearGradient>
        <linearGradient id="g" x1="295.634" y1="921.204" x2="329.553" y2="921.204" gradientUnits="userSpaceOnUse">
            <stop offset=".49" stop-color="#001333"/>
            <stop offset="1" stop-color="#001E4F"/>
        </linearGradient>
        <linearGradient id="h" x1="1243.7" y1="277.317" x2="1277.62" y2="277.317" gradientUnits="userSpaceOnUse">
            <stop offset=".49" stop-color="#001333"/>
            <stop offset="1" stop-color="#001E4F"/>
        </linearGradient>
        <linearGradient id="i" x1="1243.7" y1="921.204" x2="1277.62" y2="921.204" gradientUnits="userSpaceOnUse">
            <stop offset=".49" stop-color="#001333"/>
            <stop offset="1" stop-color="#001E4F"/>
        </linearGradient>
        <linearGradient id="j" x1="6622.05" y1="18279" x2="17449.5" y2="18279" gradientUnits="userSpaceOnUse">
            <stop stop-color="#09005D"/>
            <stop offset="1" stop-color="#1A0F91"/>
        </linearGradient>
        <linearGradient id="k" x1="3053.75" y1="7765.15" x2="3952.46" y2="7765.15" gradientUnits="userSpaceOnUse">
            <stop stop-color="#09005D"/>
            <stop offset="1" stop-color="#1A0F91"/>
        </linearGradient>
        <linearGradient id="l" x1="1500.04" y1="776.464" x2="2016.89" y2="776.464" gradientUnits="userSpaceOnUse">
            <stop offset=".03" stop-color="#FE7062"/>
            <stop offset="1" stop-color="#FE7062"/>
        </linearGradient>
        <linearGradient id="m" x1="296.686" y1="1072.43" x2="305.986" y2="1072.43" gradientUnits="userSpaceOnUse">
            <stop offset=".03" stop-color="#FE7062"/>
            <stop offset="1" stop-color="#FE7062"/>
        </linearGradient>
        <linearGradient id="n" x1="6652.32" y1="21057.4" x2="19983.4" y2="21057.4" gradientUnits="userSpaceOnUse">
            <stop offset=".49" stop-color="#001333"/>
            <stop offset="1" stop-color="#001E4F"/>
        </linearGradient>
        <linearGradient id="o" x1="267.934" y1="1128.6" x2="288.309" y2="1128.6" gradientUnits="userSpaceOnUse">
            <stop offset=".49" stop-color="#001333"/>
            <stop offset="1" stop-color="#001E4F"/>
        </linearGradient>
        <linearGradient id="p" x1="267.934" y1="1549.75" x2="288.309" y2="1549.75" gradientUnits="userSpaceOnUse">
            <stop offset=".49" stop-color="#001333"/>
            <stop offset="1" stop-color="#001E4F"/>
        </linearGradient>
        <linearGradient id="q" x1="851.271" y1="1128.6" x2="871.646" y2="1128.6" gradientUnits="userSpaceOnUse">
            <stop offset=".49" stop-color="#001333"/>
            <stop offset="1" stop-color="#001E4F"/>
        </linearGradient>
        <linearGradient id="r" x1="851.271" y1="1549.75" x2="871.646" y2="1549.75" gradientUnits="userSpaceOnUse">
            <stop offset=".49" stop-color="#001333"/>
            <stop offset="1" stop-color="#001E4F"/>
        </linearGradient>
        <linearGradient id="s" x1="18803.5" y1="2643.82" x2="21585.1" y2="2643.82" gradientUnits="userSpaceOnUse">
            <stop offset=".49" stop-color="#001333"/>
            <stop offset="1" stop-color="#001E4F"/>
        </linearGradient>
        <linearGradient id="t" x1="18904" y1="2401.35" x2="21686.1" y2="2401.35" gradientUnits="userSpaceOnUse">
            <stop stop-color="#09005D"/>
            <stop offset="1" stop-color="#1A0F91"/>
        </linearGradient>
        <linearGradient id="u" x1="35450.7" y1="24314.6" x2="100329" y2="24314.6" gradientUnits="userSpaceOnUse">
            <stop stop-color="#09005D"/>
            <stop offset="1" stop-color="#1A0F91"/>
        </linearGradient>
        <linearGradient id="v" x1="14052.2" y1="9760.92" x2="22964.5" y2="9760.92" gradientUnits="userSpaceOnUse">
            <stop stop-color="#09005D"/>
            <stop offset="1" stop-color="#1A0F91"/>
        </linearGradient>
        <linearGradient id="w" x1="31760.3" y1="1275.96" x2="45766.6" y2="1275.96" gradientUnits="userSpaceOnUse">
            <stop stop-color="#09005D"/>
            <stop offset="1" stop-color="#1A0F91"/>
        </linearGradient>
        <linearGradient id="x" x1="31760.3" y1="10841.5" x2="45766.6" y2="10841.5" gradientUnits="userSpaceOnUse">
            <stop stop-color="#09005D"/>
            <stop offset="1" stop-color="#1A0F91"/>
        </linearGradient>
        <linearGradient id="y" x1="15158.6" y1="18479.4" x2="19143.1" y2="18479.4" gradientUnits="userSpaceOnUse">
            <stop stop-color="#09005D"/>
            <stop offset="1" stop-color="#1A0F91"/>
        </linearGradient>
        <linearGradient id="z" x1="15156" y1="2040.29" x2="19139.8" y2="2040.29" gradientUnits="userSpaceOnUse">
            <stop stop-color="#09005D"/>
            <stop offset="1" stop-color="#1A0F91"/>
        </linearGradient>
        <linearGradient id="A" x1="2492.49" y1="2637.09" x2="2586.09" y2="2637.09" gradientUnits="userSpaceOnUse">
            <stop offset=".03" stop-color="#FE7062"/>
            <stop offset="1" stop-color="#FE7062"/>
        </linearGradient>
        <linearGradient id="B" x1="2492.49" y1="2810.23" x2="2586.09" y2="2810.23" gradientUnits="userSpaceOnUse">
            <stop stop-color="#4042E2"/>
            <stop offset="1" stop-color="#4F52FF"/>
        </linearGradient>
        <linearGradient id="C" x1="274.399" y1="37.448" x2="319.458" y2="37.448" gradientUnits="userSpaceOnUse">
            <stop stop-color="#FE7062"/>
            <stop offset="1" stop-color="#FF928E"/>
        </linearGradient>
        <linearGradient id="D" x1="12674.9" y1="1545.64" x2="13113.7" y2="1545.64" gradientUnits="userSpaceOnUse">
            <stop stop-color="#FEBBBA"/>
            <stop offset="1" stop-color="#FF928E"/>
        </linearGradient>
        <linearGradient id="E" x1="291.481" y1="17.92" x2="302.912" y2="17.92" gradientUnits="userSpaceOnUse">
            <stop stop-color="#FFBCBB"/>
            <stop offset="1" stop-color="#FF928E"/>
        </linearGradient>
        <linearGradient id="F" x1="1351.9" y1="769.881" x2="1354.86" y2="769.881" gradientUnits="userSpaceOnUse">
            <stop stop-color="#FEBBBA"/>
            <stop offset="1" stop-color="#FF928E"/>
        </linearGradient>
        <linearGradient id="G" x1="1253.45" y1="773.354" x2="1256.1" y2="773.354" gradientUnits="userSpaceOnUse">
            <stop stop-color="#FEBBBA"/>
            <stop offset="1" stop-color="#FF928E"/>
        </linearGradient>
        <linearGradient id="H" x1="11333" y1="1939.56" x2="11679.6" y2="1939.56" gradientUnits="userSpaceOnUse">
            <stop offset=".49" stop-color="#001333"/>
            <stop offset="1" stop-color="#001E4F"/>
        </linearGradient>
        <linearGradient id="I" x1="47688.1" y1="8625.32" x2="52506.8" y2="8625.32" gradientUnits="userSpaceOnUse">
            <stop stop-color="#DAE3FE"/>
            <stop offset="1" stop-color="#E9EFFD"/>
        </linearGradient>
        <linearGradient id="J" x1="9614.48" y1="3475.94" x2="9783.42" y2="3475.94" gradientUnits="userSpaceOnUse">
            <stop stop-color="#FEBBBA"/>
            <stop offset="1" stop-color="#FF928E"/>
        </linearGradient>
        <linearGradient id="K" x1="15318.7" y1="4337.49" x2="15769.5" y2="4337.49" gradientUnits="userSpaceOnUse">
            <stop stop-color="#FEBBBA"/>
            <stop offset="1" stop-color="#FF928E"/>
        </linearGradient>
        <linearGradient id="L" x1="366.73" y1="40.497" x2="383.371" y2="40.497" gradientUnits="userSpaceOnUse">
            <stop stop-color="#E1473D"/>
            <stop offset="1" stop-color="#E9605A"/>
        </linearGradient>
        <linearGradient id="M" x1="3782.16" y1="1153.63" x2="3804.57" y2="1153.63" gradientUnits="userSpaceOnUse">
            <stop stop-color="#FEBBBA"/>
            <stop offset="1" stop-color="#FF928E"/>
        </linearGradient>
        <linearGradient id="N" x1="26455.3" y1="8399.95" x2="27788.6" y2="8399.95" gradientUnits="userSpaceOnUse">
            <stop stop-color="#09005D"/>
            <stop offset="1" stop-color="#1A0F91"/>
        </linearGradient>
        <linearGradient id="O" x1="19617.4" y1="8190.73" x2="20420.1" y2="8190.73" gradientUnits="userSpaceOnUse">
            <stop stop-color="#09005D"/>
            <stop offset="1" stop-color="#1A0F91"/>
        </linearGradient>
        <linearGradient id="P" x1="10942.3" y1="8398.56" x2="11160.9" y2="8398.56" gradientUnits="userSpaceOnUse">
            <stop stop-color="#09005D"/>
            <stop offset="1" stop-color="#1A0F91"/>
        </linearGradient>
        <linearGradient id="Q" x1="5859.59" y1="8201.97" x2="5921.15" y2="8201.97" gradientUnits="userSpaceOnUse">
            <stop stop-color="#09005D"/>
            <stop offset="1" stop-color="#1A0F91"/>
        </linearGradient>
        <linearGradient id="R" x1="2708.25" y1="4458.4" x2="2719.76" y2="4458.4" gradientUnits="userSpaceOnUse">
            <stop offset=".49" stop-color="#001333"/>
            <stop offset="1" stop-color="#001E4F"/>
        </linearGradient>
        <linearGradient id="S" x1="21137.8" y1="59656" x2="22833.2" y2="59656" gradientUnits="userSpaceOnUse">
            <stop offset=".49" stop-color="#001333"/>
            <stop offset="1" stop-color="#001E4F"/>
        </linearGradient>
        <linearGradient id="T" x1="33931.4" y1="60160.6" x2="38069.2" y2="60160.6" gradientUnits="userSpaceOnUse">
            <stop offset=".49" stop-color="#001333"/>
            <stop offset="1" stop-color="#001E4F"/>
        </linearGradient>
        <linearGradient id="U" x1="15659.1" y1="7486.76" x2="16487.9" y2="7486.76" gradientUnits="userSpaceOnUse">
            <stop stop-color="#FEBBBA"/>
            <stop offset="1" stop-color="#FF928E"/>
        </linearGradient>
        <linearGradient id="V" x1="10481.1" y1="3850.48" x2="10841.9" y2="3850.48" gradientUnits="userSpaceOnUse">
            <stop stop-color="#FEBBBA"/>
            <stop offset="1" stop-color="#FF928E"/>
        </linearGradient>
        <linearGradient id="W" x1="15431.7" y1="5633.64" x2="16239.2" y2="5633.64" gradientUnits="userSpaceOnUse">
            <stop stop-color="#09005D"/>
            <stop offset="1" stop-color="#1A0F91"/>
        </linearGradient>
        <linearGradient id="X" x1="55758.3" y1="32449" x2="68286.3" y2="32449" gradientUnits="userSpaceOnUse">
            <stop offset=".49" stop-color="#001333"/>
            <stop offset="1" stop-color="#001E4F"/>
        </linearGradient>
        <linearGradient id="Y" x1="1984.19" y1="1567.59" x2="1991.7" y2="1567.59" gradientUnits="userSpaceOnUse">
            <stop stop-color="#FEBBBA"/>
            <stop offset="1" stop-color="#FF928E"/>
        </linearGradient>
        <linearGradient id="Z" x1="9705.55" y1="6334.87" x2="9954.02" y2="6334.87" gradientUnits="userSpaceOnUse">
            <stop stop-color="#FEBBBA"/>
            <stop offset="1" stop-color="#FF928E"/>
        </linearGradient>
        <linearGradient id="aa" x1="14024.6" y1="11983.2" x2="14576.9" y2="11983.2" gradientUnits="userSpaceOnUse">
            <stop offset=".49" stop-color="#001333"/>
            <stop offset="1" stop-color="#001E4F"/>
        </linearGradient>
    </defs>
</svg>
