<svg width="373" height="250" fill="none" xmlns="http://www.w3.org/2000/svg">
    <g clip-path="url(#a)">
        <path d="M107.646 10.835c40.943-1.54 85.254 6.992 122.381-1.107 27.24-5.933 57.752-14.438 85.481-6.524 28.635 8.167 64.696 36.315 56.24 75.986-2.75 13.063-13.263 17.51-19.451 27.549-7.899 12.802-5.3 25.555-1.196 39.677 6.807 23.376 17.291 52.803 8.67 77.217-6.085 17.188-20.152 24.064-34.033 24.208-7.15.062-287.161 2.523-288.701.378-16.15-22.475 26.023-45.02-4.723-65.563C7.989 166.417-4.944 122.69 1.76 81.74c8.553-52.066 67.57-69.461 105.886-70.905z" fill="url(#b)"/>
        <path opacity=".6" d="M192.549 23.019a13.064 13.064 0 0 1 4.813-.935C198.991 19.636 202.8 18 207.131 18c2.419-.03 4.808.534 6.958 1.643 2.111-3.046 6.965-5.17 12.465-5.17 3.36-.062 6.673.799 9.577 2.489a11.53 11.53 0 0 1 1.094-.055c3.939 0 7.136 2.021 7.136 4.503a3.076 3.076 0 0 1-.474 1.609h-51.338zM91.44 84.676a17.746 17.746 0 0 0-6.538-1.272c-2.22-3.334-7.398-5.555-13.283-5.555-3.29-.042-6.54.728-9.46 2.241-2.874-4.125-9.468-7.04-16.948-7.04a26.305 26.305 0 0 0-10.939 2.269 76.28 76.28 0 0 0-1.54 8.25l-.144 1.12 58.853-.013zM365.079 49.31a10.632 10.632 0 0 0-3.073-.44c-.371 0-.736 0-1.1.055a18.283 18.283 0 0 0-9.578-2.489c-5.5 0-10.312 2.125-12.464 5.17a14.737 14.737 0 0 0-6.958-1.65c-4.325 0-8.134 1.637-9.763 4.126a13.064 13.064 0 0 0-4.813.935h47.838c-.032-1.912-.061-3.814-.089-5.707zM140.427 26.313a.438.438 0 0 0 .44-.44.438.438 0 0 0-.44-.44h-.626c-1.567-2.352-5.218-3.92-9.364-3.92a14.118 14.118 0 0 0-6.669 1.582c-2.028-2.922-6.676-4.964-11.949-4.964-1.166.002-2.33.103-3.479.302a91.965 91.965 0 0 0-2.248 7.9l34.335-.02z" fill="#BDD0FB"/>
        <path d="M183.246 235.026v.626c0 1.182.2 3.781 1.822 5.693 2.173 2.557 2.18 5.741-.103 6.284-2.282.543-7.748-.172-7.748-.172s-1.238-2.434-.392-8.938c.846-6.504 1.334-13.62 1.334-13.62l6.188-1.107-1.101 11.234z" fill="url(#c)"/>
        <path d="M184.464 237.783a41.055 41.055 0 0 1 2.846 5.033c.543 1.485.427 5.17 0 5.548-3.726 3.342-10.801.337-10.801.337a53.07 53.07 0 0 1-.729-5.459c-.247-3.004-.11-5.809.729-5.809s.99 1.581 2.902 1.134c1.911-.447 3.093-1.224 5.053-.784z" fill="url(#d)"/>
        <path d="M201.2 230.743a7.972 7.972 0 0 0 2.062 7.948 10.85 10.85 0 0 0 2.482 1.739c3.624 1.794 8.319 1.375 8.972 5.081.654 3.706-22.97-1.038-22.97-1.038s1.636-8.973 1.74-10.478c.103-1.506.598-7.082.598-7.082l8.388-.687-1.272 4.517z" fill="url(#e)"/>
        <path d="M192.695 238.127s-.289 1.423-.949 3.836a11.876 11.876 0 0 0-.248 4.696s22.125 1.189 23.026.392c.901-.798.433-3.685.206-3.947-.227-.261-3.032-1.113-4.476-2.124-1.444-1.011-6.359-4.813-8.023-4.668-1.664.144-2.427 1.574-5.597 1.712-3.169.137-3.155-.592-3.939.103z" fill="url(#f)"/>
        <path d="m174.109 142.505 2.001 94.192 9.66-.186s3.513-77.457 5.356-79.623c1.842-2.166 2.585.138 2.585.138s7.934 30.34 6.456 36.397c-1.478 6.058-8.058 42.682-8.058 42.682l9.825-.268s10.595-28.367 10.595-45.659c0-17.291-6.724-46.064-6.724-46.064l-31.696-1.609z" fill="url(#g)"/>
        <path d="m215.095 98.936 1.113 4.008s23.741-6.126 26.491-7.46c2.255-1.086 6.875-2.489 10.203-2.255.543.041 1.093.818.564.942-2.097.509-2.414.564-2.414.976 0 .557 4.208 1.375 3.906 2.063-.619 1.375-2.675 2.173-3.067 3.438-.392 1.265-4.654.281-6.112.281-1.457 0-28.532 16.432-36.721 12.534-8.188-3.898-3.231-21.196-3.231-21.196l9.268 6.669z" fill="url(#h)"/>
        <path d="m204.038 78.867 13.881 18.316-16.357 5.968 2.476-24.284z" fill="url(#i)"/>
        <path d="M167.901 72.954c2.111-2.11 7.02-3.665 10.224-4.49 1.837-.48 3.75-.592 5.631-.33l7.205.977s9.357 6.015 12.871 9.522c3.513 3.506 6.682 25.48 6.682 25.48l-1.588 8.374 1.829 36.865c-.804 0-24.971 2.957-38.392-1.072 0 0 0-19.664-.371-31.627-1.574-9.048-6.882-40.908-4.091-43.7z" fill="url(#j)"/>
        <path d="M168.054 72.81a14.736 14.736 0 0 1 4.2-2.441s2.661-1.458 5.074 8.498c2.414 9.955-.653 22.062.42 23.128 1.072 1.066 24.572-.137 24.572-.137s-13.751 7.892-20.433 13.647c-2.689 2.303-9.818 3.52-9.832 3.438 0-.784-.041-1.54-.062-2.276-.763-4.366-7.178-40.84-3.939-43.858z" fill="url(#k)"/>
        <path d="m227.352 93.78-11.805 22.303a1.497 1.497 0 0 1-1.416.805l-14.019-.832a1.532 1.532 0 0 1-1.424-1.361 1.54 1.54 0 0 1 .09-.702l7.233-20.364a1.512 1.512 0 0 1 1.327-1.004l18.598-1.114a1.518 1.518 0 0 1 1.416 2.269z" fill="#F5FFF5"/>
        <path d="m197.672 113.904 7.323-20.166a1.514 1.514 0 0 1 1.375-.997l.722-.04a1.536 1.536 0 0 0-.922.914l-7.322 20.357a1.521 1.521 0 0 0 .508 1.735c.171.131.368.224.578.273l-.887-.055a1.516 1.516 0 0 1-1.451-1.32 1.517 1.517 0 0 1 .076-.701z" fill="#E5E5E5"/>
        <path d="m171.243 100.078 1.114 4.008s23.733-6.126 26.518-7.46c2.255-1.086 11.206-3.479 14.541-3.245a.476.476 0 0 1 .35.74.473.473 0 0 1-.261.188c-2.103.51-6.277 1.568-6.277 1.98 0 .557 4.201 1.376 3.899 2.063-.612 1.375-2.675 2.173-3.06 3.438-.385 1.265-4.661.282-6.119.282-1.458 0-28.533 16.432-36.721 12.533-8.189-3.898-3.225-21.196-3.225-21.196l9.241 6.669z" fill="url(#l)"/>
        <path d="M190.968 69.11h.035l.055.042.068.041h.042l.151.096c.887.578 2.784 1.836 4.895 3.321 0 0 .88 3.52.461 5.775-.42 2.255-1.293 2.963-2.551 2.462-1.258-.502-3.603-3.837-4.125-3.651-.523.186-4.173 4.737-5.927 4.029-1.182-.475-4.716-8.25-6.49-12.83l.378-.096a14.397 14.397 0 0 1 5.631-.33l7.205.977.172.165z" fill="url(#m)"/>
        <path d="m196.393 64.93-1.588 7.948s-1.499 4.517-4.428 4.517-7.666-9.391-7.666-9.391l6.841-8.993 6.841 5.92z" fill="url(#n)"/>
        <path d="m196.393 64.93-1.588 7.948s-1.499 4.517-4.428 4.517-7.666-9.391-7.666-9.391l6.841-8.993 6.841 5.92z" fill="url(#o)"/>
        <path d="M203.579 47.179s1.34 18.089-3.926 19.718c-5.267 1.63-11.86-2.269-11.86-8.36 0-6.091 2.338-18.336 15.786-11.358z" fill="url(#p)"/>
        <path d="M198.738 43.081s9.942-2.062 10.272.84c.33 2.9-3.039 4.716-5.28 4.716-2.242 0-7.9-.77-9.798 1.127-1.897 1.898-5.796 11.104-5.796 11.104l-1.98 2.592s-.289-5.047-2.544-8.306c-2.255-3.259-.398-8.38 2.317-11.763 2.716-3.383 10.588-.31 12.809-.31z" fill="url(#q)"/>
        <path d="M191.538 54.535s-.687-2.578-2.11-2.337c-3.177.543-1.375 6.263-.358 6.497 2.063.48 3.025-1.08 2.468-4.16z" fill="url(#r)"/>
        <path d="M176.695 80.64c.104 5.941-3.114 23.473-3.114 23.473s-12.479-.247-13.483-1.251c-1.003-1.004 2.214-27.46 7.721-31.166 6.587-4.428 8.78 3.245 8.876 8.945z" fill="url(#s)"/>
        <path d="M247.511 101.494c-.46 1.182 1.478 2.289 2.235 1.306l8.676-13.29-3.582-2.063-7.329 14.047z" fill="url(#t)"/>
        <path d="m251.869 91.132 4.902 2.634a.632.632 0 0 0 .832-.193l.612-.653a1.994 1.994 0 0 0 .487-1.7 2.01 2.01 0 0 0-1.051-1.421l-2.949-1.589a2.002 2.002 0 0 0-1.759-.097 1.99 1.99 0 0 0-1.15 1.335l-.227.887a.65.65 0 0 0 .303.797z" fill="#739AF0"/>
        <path d="M259.49 90.777a4.49 4.49 0 1 0-4.511-7.764 4.49 4.49 0 0 0 4.511 7.764z" fill="url(#u)"/>
        <path d="M249.201 94.735a9.181 9.181 0 0 1 1.905-1.492 14.79 14.79 0 0 1 3.967.261c.364.193-.44 1.293-2.998 1.644a19.257 19.257 0 0 0-4.751 1.375 2.875 2.875 0 0 1 1.877-1.788z" fill="url(#v)"/>
        <path d="M254.242 96.557c-1.224-.447-3.802-.915-3.685-.117.117.797-1.746 1.23-1.822 1.616-.076.385.846 1.375.344 1.973-.502.598.893 1.327 2.062 1.169 1.245-.585.296-1.375 1.877-2.565 1.582-1.19 1.657-1.877 1.224-2.076z" fill="url(#w)"/>
        <path d="M255.3 134.44c3.225-.908 3.307-.344 3.72-.475.412-.13 4.38-5.321 4.38-5.321s11.605-15.126 12.196-15.992l3.658-19.615 11.001-.083s-4.593 21.176-5.04 22.228c-.447 1.052-18.838 19.56-20.399 21.245 0 0-1.004 2.75-1.698 4.427-.695 1.678-2.18 2.929-2.455 3.369a15.088 15.088 0 0 1-2.826 2.847c-1.526 1.182-.721-.688-.721-.688s2.365-2.716 2.062-2.874c-.302-.158-1.375 1.437-3.073 2.75-.426.337-.853.688-1.251.977-1.032.804-1.905.378-.984-.64a12.44 12.44 0 0 1 1.375-1.292 9.542 9.542 0 0 0 1.183-1.286c.435-.417.84-.865 1.21-1.341-.069 0-.048-.275-.522.069a28.477 28.477 0 0 1-2.414 2.125 38.62 38.62 0 0 0-1.505 1.024c-.597.28-1.216.509-1.85.688-.509-.475.495-1.376 1.251-1.685a8.066 8.066 0 0 1 1.417-1.176s1.787-1.952 1.478-2.227c-.138-.117-1.375.942-2.826 1.781-1.451.838-2.826 1.375-3.059 1.106-.385-.412.976-1.437.976-1.437s.997-.687 1.313-.907c.316-.22 1.375-1.244 1.375-1.244s3.355-3.486 3.032-3.72a2.743 2.743 0 0 0-1.65-.419c-.295.144-.687.687-.956.825a.945.945 0 0 1-1.079-.282c-.241-.351.853-1.568.853-1.568a4.81 4.81 0 0 1 1.828-1.189z" fill="url(#x)"/>
        <path d="M273.259 233.637s-.103 6.765-.096 6.779c.138.859 1.196 2.984 1.196 3.767 0 2.929-13.331-2.495-10.313-3.795.268-.117 1.685-1.004 1.774-2.007.138-1.534.488-4.648.488-4.648l6.951-.096z" fill="url(#y)"/>
        <path d="M264.053 240.361c1.556.454 3.135.828 4.73 1.121 1.602.227 3.719-1.664 4.854-1.155 1.244.563 1.121 6.098 1.121 6.098s-16.006.227-21.431-.083c-1.952-.11 4.325-3.891 10.726-5.981z" fill="url(#z)"/>
        <path d="M302.919 233.637s.392 6.765.399 6.779c.292 1.243.522 2.501.688 3.767 0 2.929-13.331-2.495-10.313-3.795.268-.117 2.104-1.67 2.193-2.667.138-1.54.062-3.988.062-3.988l6.971-.096z" fill="url(#A)"/>
        <path d="M293.712 240.361c1.559.453 3.14.828 4.737 1.121 1.602.227 3.713-1.664 4.847-1.155 1.252.563 1.217 6.015 1.217 6.015s-17.876.193-22.234 0c-1.96-.082 5.039-3.891 11.433-5.981z" fill="url(#B)"/>
        <path d="M304.898 194.379c1.485-21.066 4.414-40.908 3.019-48.766-.227-1.265-.653-4.579-1.479-5.411-5.727-5.81-18.047-2.063-20.014-1.444l-4.627-2.956-5.637 2.379-11.853 55.435.474 44.181 9.509.22s4.42-38.976 4.42-41.795c0-1.416 5.171-13.868 10.313-25.899.688 8.353 1.265 15.813 1.265 18.439 0 7.199 4.208 50.114 4.208 50.114l9.522-.055s-.144-14.898.874-33.001c.165-2.798-.2-8.498.006-11.441z" fill="url(#C)"/>
        <path d="m274.523 105.144 11.53-.756s.571-10.093.571-14.906c0-5.837 1.815-14.438 1.107-14.28-1.994.454-5.438 2.249-7.04 4.428-5.528 7.55-6.168 25.514-6.168 25.514z" fill="url(#D)"/>
        <path d="M301.827 74.976s6.572.894 8.298 2.138c1.953 1.375 4.125 4.538 4.125 4.538s-8.064 37.353-8.085 43.637c0 4.868 1.753 16.804 1.753 16.804s-24.393 1.512-33.627-2.063c0 0 2.915-14.197 2.915-17.924 0-3.726 3.486-37.642 4.283-40.007.722-2.152 2.063-6.01 6.491-6.965 4.427-.956 13.847-.158 13.847-.158z" fill="url(#E)"/>
        <path d="m300.046 64.917 1.622 10.436s-5.94 12.417-9.487 11.338c-2.977-.9-1.149-11.888-1.149-11.888s1.623-5.905 1.142-8.855c-.482-2.95 7.872-1.031 7.872-1.031z" fill="url(#F)"/>
        <path d="M301.414 50.19c.234-.082 1.897 11.88-1.251 15.174-3.149 3.293-9.275 4.366-11.468 1.774-2.434-2.867-2.311-15.724 2.578-19.113 4.888-3.39 10.141 2.165 10.141 2.165z" fill="url(#G)"/>
        <path d="M293.135 41.603a13.604 13.604 0 0 1 7.123 3.954c1.719.192 4.049 1.113 6.463 4.998 2.956 4.765.77 10.052-2.675 12.644-3.444 2.592-3.438 5.576-3.438 5.576l-.543-1.54a8.526 8.526 0 0 1-.433-3.645 7.086 7.086 0 0 1 .557-2.193c.832-1.732-1.781-2.887-2.509-4.324-.564-1.107-.592-3.644-1.479-5.5l-1.065-1.376s-2.441-1.849-4.813-1.327c-2.372.523-2.042-8.23 2.812-7.267z" fill="url(#H)"/>
        <path d="M297.873 59.204c0 1.457.688 2.654 1.526 2.667.839.014 1.589-1.155 1.616-2.62.028-1.464-.687-2.653-1.526-2.667-.839-.014-1.588 1.169-1.616 2.62z" fill="url(#I)"/>
        <path d="M311.801 79.788c-2.213-.062-4.173 14.218-2.75 15.628 1.423 1.41 1.671 19.003 1.671 19.003l-20.867-.509c-.405-.261-4.778-3.142-5.404-3.767-.625-.626-3.843-.33-4.682.577-.839.908 1.87.165 2.62.688.749.522-.564 1.726-.564 1.726s-5.287.756-6.318-.317c-1.032-1.072-3.782-2.887-4.16-1.815-.192.557 1.231 2.228 2.028 2.929-.997-.729-2.193-1.506-2.606-1.375-.749.241-.433 1.176 0 1.451.434.275 4.607 3.437 5.26 3.637.653.199 10.402.447 12.094.811 0 0 27.501 6.14 29.075 5.755 1.376-.337 2.751-8.938 2.751-15.566s-1.238-28.663-8.148-28.856z" fill="url(#J)"/>
        <path d="M308.927 76.53s3.85.866 7.824 5.238c3.616 3.981 5.899 26.257 5.899 26.257l-12.486 1.98-.996-10.78-3.342-4.93 3.101-17.766z" fill="url(#K)"/>
        <path d="M69.398 230.405s-2.22 2.2-2.275 3.005c-.056.804-.193 9.446.687 10.251.88.804 3.568 1.375 2.709 2.289-.646.688-5.624.537-8.938.358-.963-.055-2.173-7.852-2.558-8.993-.55-1.664-2.55-5.287-2.062-6.442.24-.564 2.062-1.856 3.72-2.936a15.225 15.225 0 0 0 3.437-3.678l5.28 6.146z" fill="url(#L)"/>
        <path d="m99.121 235.824-1.994 5.706c-.144.901-.729 3.129-.729 3.947 0 3.08 13.703-2.613 10.637-3.981a3.265 3.265 0 0 1-1.245-2.159c-.137-1.615 1.155-3.637 1.155-3.637l-7.824.124z" fill="url(#M)"/>
        <path d="m122.993 140.566-4.957-12.85-3.747 1.072-19.63-.405-4.255 14.307-6.477 43.191L62.03 226.28s3.294 5.054 6.827 5.851l31.077-40.832 5.988-18.165 3.438 15.353-11.351 48.67 8.477 1.21s17.065-41.101 17.876-48.773c1.87-18.364-1.368-49.028-1.368-49.028z" fill="url(#N)"/>
        <path d="M60.852 227.883s4.683 14.328 6.683 15.036c.537.186 3.527.942 4.009 2.063a.931.931 0 0 1 0 .103 1.191 1.191 0 0 1-1.197 1.375h-9.474s-1.375-6.435-1.884-9.268c0 0-2.825-6.91-2.51-7.563.317-.653 4.373-1.746 4.373-1.746z" fill="url(#O)"/>
        <path d="m95.621 246.48 1.526-5.026s3.335 1.416 4.985 1.176a48.993 48.993 0 0 0 4.868-1.176c6.579 2.193 11.963 3.259 11 5.026H95.621z" fill="url(#P)"/>
        <path d="M90.266 47.646c-.254-.09-2.063 12.768 1.375 16.309 3.438 3.54 9.969 4.695 12.334 1.904 2.613-3.08 2.482-16.9-2.75-20.537-5.232-3.637-10.959 2.324-10.959 2.324z" fill="url(#Q)"/>
        <path d="M99.162 38.44a14.706 14.706 0 0 0-7.66 4.25c-1.842.213-4.351 1.203-6.943 5.376-3.177 5.122-.832 10.801 2.874 13.592 3.705 2.792 3.657 5.989 3.657 5.989l.585-1.65a9.05 9.05 0 0 0 .467-3.92 7.563 7.563 0 0 0-.605-2.358c-.887-1.863 1.918-3.1 2.702-4.647.605-1.19.64-3.92 1.588-5.892l1.114-1.506s2.633-1.987 5.205-1.423c2.571.564 2.227-8.842-2.984-7.81z" fill="#163560"/>
        <path d="M94.069 57.36c0 1.569-.688 2.854-1.637 2.868-.949.014-1.712-1.245-1.732-2.812-.021-1.568.687-2.853 1.636-2.867.949-.014 1.705 1.244 1.733 2.812z" fill="url(#R)"/>
        <path d="M90.21 68.066s-6.876 49.503-3.74 53.181l4.551 2.599s1.217-47.907 2.138-54.109l-2.95-1.67z" fill="url(#S)"/>
        <path d="M128.623 88.534c-1.684 1.43.874 7.15 2.558 10.258-3.479 0-8.505-1.89-11.482-3.506.536-3.548 1.038-7.728 3.486-10.313a29.13 29.13 0 0 0 5.438 3.561z" fill="url(#T)"/>
        <path d="M107.75 72.528a7.157 7.157 0 0 1 3.816-.687c2.158.13 7.659 6.58 13.674 11.688-2.447 2.557-5.005 11.09-5.541 14.637-4.503-2.447-8.649-7.563-9.701-9.11-2.393-3.568-2.248-16.528-2.248-16.528z" fill="url(#U)"/>
        <path d="M107.751 72.528s-3.239-1.595-16.57.034c-.688.083-1.939 15.511-1.939 15.511s1.513 41.623.138 48.058c0 0 24.428 6.003 35.841.626 0 0-5.542-31.709-6.876-38.44a106.13 106.13 0 0 0-4.957-17.71 19.658 19.658 0 0 0-5.637-8.08z" fill="url(#V)"/>
        <path d="M93.16 74.088s-2.598-3.644-6.978-1.148c-6.339 3.61-.048 28.643 2.248 36.336 1.011 3.383 4.889.261 8.072-3.362 4.036-4.593 7.673-13.93 7.673-13.93.474-2.976-3.108-8.25-3.108-8.25s-5.823 12.019-7.06 10.78c-1.238-1.237 1.835-15.07-.846-20.426z" fill="url(#W)"/>
        <path d="M86.182 72.94c4.38-2.496 6.978 1.148 6.978 1.148 2.503 5.006 1.65 16.384 2.538 18.853-3.383-.035-8.519 2.062-11.826 3.018-2.104-8.856-1.856-20.647 2.31-23.019z" fill="url(#X)"/>
        <path d="M112.508 68.691c.186.791 2.296 3.534 2.75 5.377.454 1.843 1.506 3.96 3.245 7.308 1.74 3.349 7.79 15.525 10.148 16.783 2.358 1.258 12.073 1.485 5.892-7.563-1.258-1.842-13.207-13.97-13.592-15.614-.385-1.643-.089-2.75.117-4.634.206-1.883-.832-4.365-1.554-4.496-.722-.13.804 2.193.605 2.475-.199.282-1.547-3.582-2.674-3.974-1.128-.392 1.299 3.067 1.457 3.747.158.68.371 1.142.069 1.21-.303.069-.805-1.76-1.43-2.75-.626-.99-1.65-2.489-2.455-1.953-.804.537 1.575 1.974 1.747 2.75.171.778.77 2.16.426 2.38-.344.22-1.946-4.813-2.922-4.813-.976 0-.09 1.292.488 2.434.578 1.14 1.231 2.997.756 3.114-.474.117-.99-.282-1.863-1.19-.873-.907-1.396-1.381-1.21-.59z" fill="url(#Y)"/>
        <path d="M87.363 73.744a3.204 3.204 0 0 1-3.83-2.385l-1.525-6.56a3.197 3.197 0 0 1 2.378-3.829 3.197 3.197 0 0 1 3.83 2.386l1.533 6.559a3.197 3.197 0 0 1-2.386 3.83z" fill="url(#Z)"/>
        <path d="M94.455 55.664 84.01 58.1a3.273 3.273 0 0 0-2.445 3.93l1.49 6.395a3.273 3.273 0 0 0 3.93 2.444l10.446-2.435a3.272 3.272 0 0 0 2.445-3.93l-1.49-6.394a3.273 3.273 0 0 0-3.931-2.445z" fill="url(#aa)"/>
        <path d="M98.826 53.49a34.063 34.063 0 0 1 6.875-1.437c1.475-.141 2.96-.141 4.435 0 2.226.206 4.438.553 6.621 1.038.63.116 1.247.293 1.842.53a8.254 8.254 0 0 1 4.029 4.963c.818 2.586 2.241 10.43.901 11.764-1.341 1.334-6.69 3.706-8.457 4.228-1.767.523-9.13.62-9.13.62a3.323 3.323 0 0 0-4.126-1.843c-2.983.88-3.114 2.502-3.114 2.502a49.83 49.83 0 0 1-6.497.255c-2.207-.18-4.077-1.06-4.504-2.407a107.35 107.35 0 0 1-2.866-11.53 3.162 3.162 0 0 1 .103-2.207c.501-.886 1.65-1.244 2.578-1.677 1.251-.578 2.489-1.183 3.747-1.76a60.004 60.004 0 0 1 7.563-3.04z" fill="url(#ab)"/>
        <path d="m92.129 66.168.983-.288a.46.46 0 0 0 .344-.557l-1.375-4.345a.481.481 0 0 0-.605-.275l-.983.288a.46.46 0 0 0-.337.557l1.375 4.346a.474.474 0 0 0 .598.274z" fill="url(#ac)"/>
        <path d="m89.957 65.474-1.266.37 1.362 4.284 1.327-.165-1.423-4.49z" fill="url(#ad)"/>
        <path d="M111.758 54.102c-3.094-1.375-13.524.186-16.576.688.783-.31 1.567-.612 2.365-.887 4.757-.688 11.915-1.43 14.486-.261 3.589 1.636 5.803 4.18 6.779 7.267.646 2.021 1.856 7.851 2.468 10.911-.172.09-.343.186-.529.275-.598-2.99-1.836-8.986-2.489-11-.983-3.122-3.176-5.473-6.504-6.993z" fill="url(#ae)"/>
        <path d="M107.942 56.433c-3.437-1.575-17.133.687-18.563.956l1.677-.791c4.868-.763 14.253-1.939 17.147-.626 3.583 1.636 5.796 4.187 6.78 7.267.611 1.925 1.732 7.302 2.372 10.45l-.544.22c-.618-3.093-1.739-8.593-2.351-10.505-1.018-3.107-3.176-5.452-6.518-6.971z" fill="url(#af)"/>
        <path d="M110.389 74.185c.171.293.369.57.592.825l.728-.041a4.58 4.58 0 0 1-.811-1.038 1.519 1.519 0 0 1-.151-1.376 3.671 3.671 0 0 1 1.787-1.553l.234-.097-1.437-4.523c-1.079-3.39-2.798-8.003-6.703-8.375-3.08-.288-15.855 1.747-19.863 2.407-.046.17-.071.346-.076.522l3.314-.57 3.548 11.172.55-.165-3.527-11.097c1.533-.234 3.293-.502 5.08-.756l2.194 7.893a2.2 2.2 0 0 0 2.138 1.505l2.62.055c1.643.035 2.901-1.375 2.489-2.75l-2.29-7.563a23.592 23.592 0 0 1 3.706-.158c4.606.433 6.043 7.632 7.563 12.135-1.63.791-2.53 2.104-1.685 3.548zm-10.141-15.49 2.317 7.659a1.765 1.765 0 0 1-1.89 2.11l-2.613-.054a1.67 1.67 0 0 1-1.63-1.142l-2.179-7.824c2.097-.316 4.2-.564 5.995-.75z" fill="url(#ag)"/>
        <path d="m123.274 58.839-3.692.46s-3.974 1.204-3.871 4.641c.124 3.837 1.767 6.099 3.589 6.236 1.487.06 2.977 0 4.455-.178l-.481-11.16z" fill="url(#ah)"/>
        <path d="M86.945 71.6c3.679-.13 17.876-.53 19.478 1.169a5.507 5.507 0 0 1 1.293 2.4l-1.905.04a3.312 3.312 0 0 0-4.125-1.842c-2.99.88-3.121 2.503-3.121 2.503a49.76 49.76 0 0 1-6.49.254c-2.208-.179-4.078-1.066-4.504-2.406-.206-.708-.42-1.41-.626-2.118z" fill="url(#ai)"/>
        <path d="M84.834 62.16c.79 3.905 1.786 7.765 2.984 11.564.605 1.582 3.004 2.249 4.902 2.297.99 0 2.262-.11 5.597-.433.233-1.1 1.608-2.551 4.427-2.75a3.657 3.657 0 0 1 3.287 2.062c1.705 0 7.253-.151 8.855-.687a41.226 41.226 0 0 0 6.724-2.613 9.78 9.78 0 0 0 1.904-1.279c-1.155 1.141-4.51 2.709-6.057 3.383-.969.48-1.994.835-3.052 1.059-2.84.318-5.695.488-8.553.508a3.07 3.07 0 0 0-.282-.515c-.38-.61-.95-1.08-1.623-1.334-1.56-.619-4.53.646-5.067 2.172a1.438 1.438 0 0 0-.069.33c-.467 0-3.025.324-5.706.303-.53 0-2.503.165-4.077-.646a3.19 3.19 0 0 1-1.581-1.863 113.574 113.574 0 0 1-2.613-11.558z" fill="url(#aj)"/>
        <path d="M107.131 59.403a1.373 1.373 0 0 0 1.078-1.15 1.367 1.367 0 0 0-.033-.555l-2.001-6.298a2.75 2.75 0 0 0-3.128-1.746c-1.974.275-5.604.79-7.749 1.155a4.813 4.813 0 0 0-3.527 2.585l-.949 2.062c-.323.688-.556 2.063.812 1.72.783-.18 1.65-.11 1.973-.812l.949-2.063a1.575 1.575 0 0 1 1.162-.852c2.062-.358 5.603-.86 7.562-1.135l1.981 6.236a1.476 1.476 0 0 0 1.87.853z" fill="url(#ak)"/>
        <path d="M124.856 49.022s-2.585.873-3.204 1.876c-.619 1.004-.083.688-.853 1.96s-14.995 5.906-16.906 5.665c-1.911-.24-1.98-2.296-3.142-2.393-1.162-.096-5.872 1.376-5.308 4.751.564 3.376 2.138 3.438 5.432 3.933 3.045.433 23.314-7.748 24.572-9.075 1.258-1.327-.083-3.094-.199-3.438-.117-.344 1.45-1.733 1.45-1.733l-1.842-1.546z" fill="url(#al)"/>
        <path d="M126.842 52.253c1.664.419 3.534-.117 5.198-.51a46.989 46.989 0 0 0 8.532-2.976 3.313 3.313 0 0 0 1.43-4.366 3.142 3.142 0 0 0-1.547-1.334 4.7 4.7 0 0 0-2.475-.185c-2.19.297-4.352.775-6.463 1.43a36.655 36.655 0 0 0-4.874 1.815c-1.307.618-2.517 1.677-2.558 3.052-.041 1.375 1.107 2.6 2.592 3.032l.165.042z" fill="#739AF0"/>
        <path d="M137.19 43.679c-2.173 1.285-.633 4.943 1.121 5.431a4.365 4.365 0 0 1-1.726-2.544 2.641 2.641 0 0 1 .605-2.888z" fill="url(#am)"/>
        <path d="m139.94 53.82-16.611 3.878s-5.417 1.616-4.255 6.655c1.161 5.04 4.771 6.05 4.771 6.05l11.248-.44 4.847-16.143z" fill="url(#an)"/>
        <path d="m144.512 49.475-5.108.343-15.263 7.35 2.922 12.424 1.471.887 4.799.57 11.179-21.574z" fill="url(#ao)"/>
        <path d="m138.565 49.943-13.806 5.328a1.874 1.874 0 0 0-1.169 2.193l2.84 11.571a1.922 1.922 0 0 0 2.571 1.314l14.947-5.79-2.798-13.241a1.93 1.93 0 0 0-1.771-1.506 1.924 1.924 0 0 0-.814.13z" fill="url(#ap)"/>
        <path d="m143.611 49.592-13.751 5.432a1.944 1.944 0 0 0-1.141 2.29l2.984 12.196a1.96 1.96 0 0 0 .978 1.298 1.965 1.965 0 0 0 1.621.118l13.407-5.307a1.952 1.952 0 0 0 1.162-2.249l-2.62-12.306a1.956 1.956 0 0 0-2.64-1.471z" fill="url(#aq)"/>
        <path d="m143.068 50.822-12.19 4.813a1.72 1.72 0 0 0-1.01 2.021l2.64 10.794a1.735 1.735 0 0 0 1.569 1.353c.247.019.495-.016.727-.101l11.42-4.517a2.304 2.304 0 0 0 1.375-2.647l-2.214-10.403a1.727 1.727 0 0 0-.853-1.196 1.735 1.735 0 0 0-1.464-.117z" fill="url(#ar)"/>
        <path d="m130.878 55.629 10.705-4.222c0 .062 0 .124.048.186l2.221 10.443a2.25 2.25 0 0 1-1.334 2.592l-9.976 3.947a.882.882 0 0 0-.035-.124l-2.64-10.794a1.72 1.72 0 0 1 1.011-2.028z" fill="#739AF0"/>
        <path d="m130.878 55.629 5.501-2.16c.524.782.906 1.65 1.127 2.565a7.453 7.453 0 0 1-5.369 9.13l-.399.076-1.857-7.563a1.72 1.72 0 0 1 .997-2.048z" fill="#BDD0FB"/>
        <path d="M107.942 65.37c.234.997-.316 5.24-.075 7.625 1.086 11.049-7.323 27.158-9.303 29.901-1.98 2.743-5.053-4.93-4.702-7.735.35-2.805 8.532-15.861 8.051-17.945-.482-2.083-1.451-3.197-2.75-5.19-1.3-1.994-1.5-5.425-.757-5.975.743-.55.316 2.943.688 3.149.37.206-.241-4.93.81-6.01 1.053-1.078.248 4.209.448 5.068.199.86.213 1.506.598 1.416.385-.09-.069-2.447.069-3.946.137-1.499.481-3.747 1.691-3.589 1.21.158-.687 3.121-.461 4.063.227.942.337 2.881.853 2.943.516.062-.488-6.545.632-7.068 1.121-.522.832 1.416.812 3.032-.021 1.616.282 4.125.887 3.96.605-.165.969-.873 1.45-2.392.482-1.52.825-2.31 1.059-1.307z" fill="url(#as)"/>
        <path d="M115.353 74.55s-19.134 46.703-28.876 46.703l4.125 4.779s8.683-.901 18.288-23.521 10.664-29.783 10.664-29.783l-4.201 1.822z" fill="url(#at)"/>
        <path d="M232.922 36.529v15.125a1.928 1.928 0 0 0 1.193 1.78c.234.097.485.146.739.145h35.882l9.949 4.758-1.149-4.758a1.923 1.923 0 0 0 1.932-1.925V36.53a1.933 1.933 0 0 0-1.932-1.932h-44.689a1.933 1.933 0 0 0-1.925 1.932z" fill="#739AF0"/>
        <path d="M236.834 40.33h40.131a1.087 1.087 0 1 0 0-2.172h-40.131a1.087 1.087 0 0 0 0 2.173zM236.834 43.59h40.131a1.087 1.087 0 1 0 0-2.173h-40.131a1.086 1.086 0 0 0 0 2.173zM236.834 46.848h40.131a1.087 1.087 0 0 0 1.087-1.086 1.083 1.083 0 0 0-1.087-1.072h-40.131a1.087 1.087 0 0 0-1.086 1.086 1.09 1.09 0 0 0 1.086 1.072z" fill="#fff"/>
        <path d="M347.801 246.452H24.717v3.541H347.8v-3.541z" fill="#233862"/>
    </g>
    <defs>
        <linearGradient id="b" x1="635.388" y1="119.836" x2="101.266" y2="126.505" gradientUnits="userSpaceOnUse">
            <stop stop-color="#DAE3FE"/>
            <stop offset="1" stop-color="#E9EFFD"/>
        </linearGradient>
        <linearGradient id="c" x1="176.509" y1="235.817" x2="186.67" y2="235.817" gradientUnits="userSpaceOnUse">
            <stop stop-color="#FEBBBA"/>
            <stop offset="1" stop-color="#FF928E"/>
        </linearGradient>
        <linearGradient id="d" x1="175.67" y1="243.689" x2="187.675" y2="243.689" gradientUnits="userSpaceOnUse">
            <stop stop-color="#09005D"/>
            <stop offset="1" stop-color="#1A0F91"/>
        </linearGradient>
        <linearGradient id="e" x1="6601.44" y1="7349.02" x2="7369.78" y2="7349.02" gradientUnits="userSpaceOnUse">
            <stop stop-color="#FEBBBA"/>
            <stop offset="1" stop-color="#FF928E"/>
        </linearGradient>
        <linearGradient id="f" x1="6783.62" y1="4111.72" x2="7599.53" y2="4111.72" gradientUnits="userSpaceOnUse">
            <stop stop-color="#09005D"/>
            <stop offset="1" stop-color="#1A0F91"/>
        </linearGradient>
        <linearGradient id="g" x1="9903.39" y1="26114.9" x2="12050.3" y2="26114.9" gradientUnits="userSpaceOnUse">
            <stop stop-color="#09005D"/>
            <stop offset="1" stop-color="#1A0F91"/>
        </linearGradient>
        <linearGradient id="h" x1="15254.6" y1="3363" x2="18983.2" y2="3363" gradientUnits="userSpaceOnUse">
            <stop stop-color="#FEBBBA"/>
            <stop offset="1" stop-color="#FF928E"/>
        </linearGradient>
        <linearGradient id="i" x1="201.562" y1="91.009" x2="217.926" y2="91.009" gradientUnits="userSpaceOnUse">
            <stop stop-color="#FF928E"/>
            <stop offset=".99" stop-color="#FF928E"/>
        </linearGradient>
        <linearGradient id="j" x1="10776.6" y1="13155.1" x2="13548" y2="13155.1" gradientUnits="userSpaceOnUse">
            <stop stop-color="#FF928E"/>
            <stop offset=".99" stop-color="#FF928E"/>
        </linearGradient>
        <linearGradient id="k" x1="8718.2" y1="6766.38" x2="10517.7" y2="6766.38" gradientUnits="userSpaceOnUse">
            <stop stop-color="#FF928E"/>
            <stop offset=".99" stop-color="#FF928E"/>
        </linearGradient>
        <linearGradient id="l" x1="12612.4" y1="3406" x2="16751.3" y2="3406" gradientUnits="userSpaceOnUse">
            <stop stop-color="#FEBBBA"/>
            <stop offset="1" stop-color="#FF928E"/>
        </linearGradient>
        <linearGradient id="m" x1="177.747" y1="74.728" x2="196.964" y2="74.728" gradientUnits="userSpaceOnUse">
            <stop offset=".03" stop-color="#FE7062"/>
            <stop offset="1" stop-color="#FE7062"/>
        </linearGradient>
        <linearGradient id="n" x1="3818.67" y1="1882.39" x2="4090.94" y2="1882.39" gradientUnits="userSpaceOnUse">
            <stop stop-color="#FEBBBA"/>
            <stop offset="1" stop-color="#FF928E"/>
        </linearGradient>
        <linearGradient id="o" x1="3818.67" y1="1882.39" x2="4090.94" y2="1882.39" gradientUnits="userSpaceOnUse">
            <stop stop-color="#FEBBBA"/>
            <stop offset="1" stop-color="#FF928E"/>
        </linearGradient>
        <linearGradient id="p" x1="4541.18" y1="1857.28" x2="4910.63" y2="1857.28" gradientUnits="userSpaceOnUse">
            <stop stop-color="#FEBBBA"/>
            <stop offset="1" stop-color="#FF928E"/>
        </linearGradient>
        <linearGradient id="q" x1="7201.82" y1="1699.65" x2="8218.01" y2="1699.65" gradientUnits="userSpaceOnUse">
            <stop stop-color="#09005D"/>
            <stop offset="1" stop-color="#1A0F91"/>
        </linearGradient>
        <linearGradient id="r" x1="1296.08" y1="584.718" x2="1320" y2="584.718" gradientUnits="userSpaceOnUse">
            <stop stop-color="#FEBBBA"/>
            <stop offset="1" stop-color="#FF928E"/>
        </linearGradient>
        <linearGradient id="s" x1="4063.53" y1="4351.14" x2="4473.01" y2="4351.14" gradientUnits="userSpaceOnUse">
            <stop stop-color="#FF928E"/>
            <stop offset=".99" stop-color="#FF928E"/>
        </linearGradient>
        <linearGradient id="t" x1="4199.07" y1="2267.83" x2="4374.55" y2="2267.83" gradientUnits="userSpaceOnUse">
            <stop stop-color="#09005D"/>
            <stop offset="1" stop-color="#1A0F91"/>
        </linearGradient>
        <linearGradient id="u" x1="3553.58" y1="1217.48" x2="3670.94" y2="1217.48" gradientUnits="userSpaceOnUse">
            <stop stop-color="#09005D"/>
            <stop offset="1" stop-color="#1A0F91"/>
        </linearGradient>
        <linearGradient id="v" x1="3064.26" y1="550.649" x2="3153.46" y2="550.649" gradientUnits="userSpaceOnUse">
            <stop stop-color="#FEBBBA"/>
            <stop offset="1" stop-color="#FF928E"/>
        </linearGradient>
        <linearGradient id="w" x1="2324.73" y1="843.54" x2="2372.65" y2="843.54" gradientUnits="userSpaceOnUse">
            <stop stop-color="#FEBBBA"/>
            <stop offset="1" stop-color="#FF928E"/>
        </linearGradient>
        <linearGradient id="x" x1="249.532" y1="120.325" x2="290.248" y2="120.325" gradientUnits="userSpaceOnUse">
            <stop stop-color="#FF928E"/>
            <stop offset="1" stop-color="#FEB3B1"/>
        </linearGradient>
        <linearGradient id="y" x1="4387.84" y1="4202.93" x2="4556.52" y2="4202.93" gradientUnits="userSpaceOnUse">
            <stop stop-color="#FF928E"/>
            <stop offset="1" stop-color="#FEB3B1"/>
        </linearGradient>
        <linearGradient id="z" x1="252.963" y1="243.372" x2="274.758" y2="243.372" gradientUnits="userSpaceOnUse">
            <stop stop-color="#4042E2"/>
            <stop offset="1" stop-color="#4F52FF"/>
        </linearGradient>
        <linearGradient id="A" x1="4881.64" y1="4202.93" x2="5050.33" y2="4202.93" gradientUnits="userSpaceOnUse">
            <stop stop-color="#FF928E"/>
            <stop offset="1" stop-color="#FEB3B1"/>
        </linearGradient>
        <linearGradient id="B" x1="9537.45" y1="2430.63" x2="10278.4" y2="2430.63" gradientUnits="userSpaceOnUse">
            <stop stop-color="#4042E2"/>
            <stop offset="1" stop-color="#4F52FF"/>
        </linearGradient>
        <linearGradient id="C" x1="17170.4" y1="28221.6" x2="19983.2" y2="28221.6" gradientUnits="userSpaceOnUse">
            <stop stop-color="#09005D"/>
            <stop offset="1" stop-color="#1A0F91"/>
        </linearGradient>
        <linearGradient id="D" x1="5613.59" y1="4002.37" x2="5873.66" y2="4002.37" gradientUnits="userSpaceOnUse">
            <stop stop-color="#4042E2"/>
            <stop offset="1" stop-color="#4F52FF"/>
        </linearGradient>
        <linearGradient id="E" x1="16216.1" y1="10769.8" x2="18538.5" y2="10769.8" gradientUnits="userSpaceOnUse">
            <stop stop-color="#4042E2"/>
            <stop offset="1" stop-color="#4F52FF"/>
        </linearGradient>
        <linearGradient id="F" x1="5018.94" y1="2531.07" x2="5201.14" y2="2531.07" gradientUnits="userSpaceOnUse">
            <stop stop-color="#FF928E"/>
            <stop offset="1" stop-color="#FEB3B1"/>
        </linearGradient>
        <linearGradient id="G" x1="6517.78" y1="1865.38" x2="6841.51" y2="1865.38" gradientUnits="userSpaceOnUse">
            <stop stop-color="#FF928E"/>
            <stop offset="1" stop-color="#FEB3B1"/>
        </linearGradient>
        <linearGradient id="H" x1="8364" y1="2226.87" x2="8901.35" y2="2226.87" gradientUnits="userSpaceOnUse">
            <stop stop-color="#09005D"/>
            <stop offset="1" stop-color="#1A0F91"/>
        </linearGradient>
        <linearGradient id="I" x1="1659.5" y1="512.037" x2="1673.86" y2="512.037" gradientUnits="userSpaceOnUse">
            <stop stop-color="#FF928E"/>
            <stop offset="1" stop-color="#FEB3B1"/>
        </linearGradient>
        <linearGradient id="J" x1="19781.9" y1="6672.75" x2="23362.3" y2="6672.75" gradientUnits="userSpaceOnUse">
            <stop stop-color="#FF928E"/>
            <stop offset="1" stop-color="#FEB3B1"/>
        </linearGradient>
        <linearGradient id="K" x1="7789.44" y1="4617.53" x2="8201.12" y2="4617.53" gradientUnits="userSpaceOnUse">
            <stop stop-color="#4042E2"/>
            <stop offset="1" stop-color="#4F52FF"/>
        </linearGradient>
        <linearGradient id="L" x1="1199.92" y1="7823.77" x2="1476.5" y2="7823.77" gradientUnits="userSpaceOnUse">
            <stop stop-color="#FF928E"/>
            <stop offset="1" stop-color="#FEB3B1"/>
        </linearGradient>
        <linearGradient id="M" x1="1650.41" y1="3979.06" x2="1829.07" y2="3979.06" gradientUnits="userSpaceOnUse">
            <stop stop-color="#FF928E"/>
            <stop offset="1" stop-color="#FEB3B1"/>
        </linearGradient>
        <linearGradient id="N" x1="5738.05" y1="29586.4" x2="11494.6" y2="29586.4" gradientUnits="userSpaceOnUse">
            <stop stop-color="#4042E2"/>
            <stop offset="1" stop-color="#4F52FF"/>
        </linearGradient>
        <linearGradient id="O" x1="1296.57" y1="6636.85" x2="1629.29" y2="6636.85" gradientUnits="userSpaceOnUse">
            <stop stop-color="#09005D"/>
            <stop offset="1" stop-color="#1A0F91"/>
        </linearGradient>
        <linearGradient id="P" x1="3223.67" y1="2024.88" x2="3959.13" y2="2024.88" gradientUnits="userSpaceOnUse">
            <stop stop-color="#09005D"/>
            <stop offset="1" stop-color="#1A0F91"/>
        </linearGradient>
        <linearGradient id="Q" x1="2184.3" y1="1932.1" x2="2559.26" y2="1932.1" gradientUnits="userSpaceOnUse">
            <stop stop-color="#FF928E"/>
            <stop offset="1" stop-color="#FEB3B1"/>
        </linearGradient>
        <linearGradient id="R" x1="535.183" y1="528.594" x2="551.693" y2="528.594" gradientUnits="userSpaceOnUse">
            <stop stop-color="#FF928E"/>
            <stop offset="1" stop-color="#FEB3B1"/>
        </linearGradient>
        <linearGradient id="S" x1="1021.02" y1="7853.2" x2="1103.09" y2="7853.2" gradientUnits="userSpaceOnUse">
            <stop stop-color="#09005D"/>
            <stop offset="1" stop-color="#1A0F91"/>
        </linearGradient>
        <linearGradient id="T" x1="2118.68" y1="1932.07" x2="2310.42" y2="1932.07" gradientUnits="userSpaceOnUse">
            <stop stop-color="#FF928E"/>
            <stop offset="1" stop-color="#FEB3B1"/>
        </linearGradient>
        <linearGradient id="U" x1="107.75" y1="85" x2="125.24" y2="85" gradientUnits="userSpaceOnUse">
            <stop stop-color="#FE7062"/>
            <stop offset="1" stop-color="#FF928E"/>
        </linearGradient>
        <linearGradient id="V" x1="4759.25" y1="10371" x2="6643.08" y2="10371" gradientUnits="userSpaceOnUse">
            <stop stop-color="#FE7062"/>
            <stop offset="1" stop-color="#FF928E"/>
        </linearGradient>
        <linearGradient id="W" x1="2605.86" y1="5211.17" x2="3234.24" y2="5211.17" gradientUnits="userSpaceOnUse">
            <stop stop-color="#FF928E"/>
            <stop offset="1" stop-color="#FEB3B1"/>
        </linearGradient>
        <linearGradient id="X" x1="1658.58" y1="2991.71" x2="1908.94" y2="2991.71" gradientUnits="userSpaceOnUse">
            <stop stop-color="#FE7062"/>
            <stop offset="1" stop-color="#FF928E"/>
        </linearGradient>
        <linearGradient id="Y" x1="4054.74" y1="4153.2" x2="4898.43" y2="4153.2" gradientUnits="userSpaceOnUse">
            <stop stop-color="#FF928E"/>
            <stop offset="1" stop-color="#FEB3B1"/>
        </linearGradient>
        <linearGradient id="Z" x1="1023.87" y1="1328.21" x2="1114.77" y2="1328.21" gradientUnits="userSpaceOnUse">
            <stop stop-color="#09005D"/>
            <stop offset="1" stop-color="#1A0F91"/>
        </linearGradient>
        <linearGradient id="aa" x1="2129.02" y1="1263.2" x2="2593.26" y2="1263.2" gradientUnits="userSpaceOnUse">
            <stop stop-color="#09005D"/>
            <stop offset="1" stop-color="#1A0F91"/>
        </linearGradient>
        <linearGradient id="ab" x1="4937.16" y1="2304.02" x2="7193.79" y2="2304.02" gradientUnits="userSpaceOnUse">
            <stop stop-color="#4042E2"/>
            <stop offset="1" stop-color="#4F52FF"/>
        </linearGradient>
        <linearGradient id="ac" x1="526.05" y1="569.933" x2="542.216" y2="569.933" gradientUnits="userSpaceOnUse">
            <stop stop-color="#09005D"/>
            <stop offset="1" stop-color="#1A0F91"/>
        </linearGradient>
        <linearGradient id="ad" x1="435.476" y1="524.509" x2="445.987" y2="524.509" gradientUnits="userSpaceOnUse">
            <stop stop-color="#09005D"/>
            <stop offset="1" stop-color="#1A0F91"/>
        </linearGradient>
        <linearGradient id="ae" x1="3708.28" y1="1788.01" x2="4698.98" y2="1788.01" gradientUnits="userSpaceOnUse">
            <stop stop-color="#09005D"/>
            <stop offset="1" stop-color="#1A0F91"/>
        </linearGradient>
        <linearGradient id="af" x1="3727.33" y1="1797.66" x2="4865.66" y2="1797.66" gradientUnits="userSpaceOnUse">
            <stop stop-color="#09005D"/>
            <stop offset="1" stop-color="#1A0F91"/>
        </linearGradient>
        <linearGradient id="ag" x1="3543.43" y1="1704.66" x2="4690.17" y2="1704.66" gradientUnits="userSpaceOnUse">
            <stop stop-color="#09005D"/>
            <stop offset="1" stop-color="#1A0F91"/>
        </linearGradient>
        <linearGradient id="ah" x1="115.711" y1="64.511" x2="123.755" y2="64.511" gradientUnits="userSpaceOnUse">
            <stop stop-color="#09005D"/>
            <stop offset="1" stop-color="#0A015F"/>
        </linearGradient>
        <linearGradient id="ai" x1="2713.56" y1="573.512" x2="3341.03" y2="573.512" gradientUnits="userSpaceOnUse">
            <stop stop-color="#09005D"/>
            <stop offset="1" stop-color="#1A0F91"/>
        </linearGradient>
        <linearGradient id="aj" x1="4857.62" y1="1479.38" x2="7033.79" y2="1479.38" gradientUnits="userSpaceOnUse">
            <stop stop-color="#09005D"/>
            <stop offset="1" stop-color="#1A0F91"/>
        </linearGradient>
        <linearGradient id="ak" x1="2415.68" y1="834.21" x2="2868.91" y2="834.21" gradientUnits="userSpaceOnUse">
            <stop stop-color="#09005D"/>
            <stop offset="1" stop-color="#1A0F91"/>
        </linearGradient>
        <linearGradient id="al" x1="4438.52" y1="1358.02" x2="5863.69" y2="1358.02" gradientUnits="userSpaceOnUse">
            <stop stop-color="#09005D"/>
            <stop offset="1" stop-color="#1A0F91"/>
        </linearGradient>
        <linearGradient id="am" x1="569.238" y1="410.196" x2="576.195" y2="410.196" gradientUnits="userSpaceOnUse">
            <stop stop-color="#09005D"/>
            <stop offset="1" stop-color="#1A0F91"/>
        </linearGradient>
        <linearGradient id="an" x1="3756.25" y1="1551.95" x2="4399.34" y2="1551.95" gradientUnits="userSpaceOnUse">
            <stop stop-color="#09005D"/>
            <stop offset="1" stop-color="#1A0F91"/>
        </linearGradient>
        <linearGradient id="ao" x1="3802.43" y1="1940.5" x2="4406.03" y2="1940.5" gradientUnits="userSpaceOnUse">
            <stop stop-color="#09005D"/>
            <stop offset="1" stop-color="#1A0F91"/>
        </linearGradient>
        <linearGradient id="ap" x1="3790.81" y1="1858.39" x2="4396.54" y2="1858.39" gradientUnits="userSpaceOnUse">
            <stop stop-color="#09005D"/>
            <stop offset="1" stop-color="#1A0F91"/>
        </linearGradient>
        <linearGradient id="aq" x1="3919.82" y1="1941.57" x2="4517.03" y2="1941.57" gradientUnits="userSpaceOnUse">
            <stop stop-color="#09005D"/>
            <stop offset="1" stop-color="#1A0F91"/>
        </linearGradient>
        <linearGradient id="ar" x1="3499.24" y1="1724.23" x2="3961.95" y2="1724.23" gradientUnits="userSpaceOnUse">
            <stop stop-color="#09005D"/>
            <stop offset="1" stop-color="#1A0F91"/>
        </linearGradient>
        <linearGradient id="as" x1="2027.26" y1="5054.74" x2="2319.25" y2="5054.74" gradientUnits="userSpaceOnUse">
            <stop stop-color="#FF928E"/>
            <stop offset="1" stop-color="#FEB3B1"/>
        </linearGradient>
        <linearGradient id="at" x1="4246.59" y1="7777.86" x2="5836.27" y2="7777.86" gradientUnits="userSpaceOnUse">
            <stop stop-color="#09005D"/>
            <stop offset="1" stop-color="#1A0F91"/>
        </linearGradient>
        <clipPath id="a">
            <path fill="#fff" d="M0 0h372.999v250H0z"/>
        </clipPath>
    </defs>
</svg>
