<svg width="411" height="270" fill="none" xmlns="http://www.w3.org/2000/svg">
    <g clip-path="url(#a)">
        <path d="M59.023 21.59C28.85 46.502 43.212 78.668 26.605 97.505-.101 127.807-9.888 180.354 12.169 227.738c10.93 23.491 14.85 36.864 19.026 40.681h373.95c-15.528-47.055-26.334-84.495-19.674-131.704 6.558-46.545-34.976-152.828-106.387-94.54-71.41 58.287-79.229 23.885-109.447-6.425-16.359-16.41-63.002-53.516-110.614-14.16z" fill="url(#b)"/>
        <path d="M119.57.394H50.207v98.19h69.363V.393z" fill="#F0F8FF"/>
        <path d="M75.084 17.125H58.39a2.178 2.178 0 1 0 0 4.356h16.694a2.178 2.178 0 1 0 0-4.356z" fill="#91B3FA"/>
        <path d="M75.084 9.506H58.39a2.178 2.178 0 1 0 0 4.356h16.694a2.178 2.178 0 1 0 0-4.356zM72.27 54.9H61.194c-.8 0-1.45.648-1.45 1.446 0 .799.65 1.446 1.45 1.446H72.27c.801 0 1.45-.647 1.45-1.446 0-.798-.649-1.446-1.45-1.446z" fill="#739AF0"/>
        <path d="M85.291 60.349H63.234v-.437h21.613v-6.928h.445v7.365z" fill="#739AF0"/>
        <path d="M111.364 13.206a8.936 8.936 0 0 0-4.575-5.23 8.958 8.958 0 0 0-12.063 4.31 8.95 8.95 0 0 0-.223 6.944c.065.189.138.378.218.56.354.794.823 1.53 1.392 2.186a8.956 8.956 0 0 0 15.251-8.807v.037zm-6.172 9.33a6.718 6.718 0 0 1-7.374-1.973 6.505 6.505 0 0 1-1.042-1.668c-.058-.139-.117-.277-.167-.416a6.706 6.706 0 0 1 5.334-8.894 6.715 6.715 0 0 1 6.741 3.186 6.708 6.708 0 0 1-3.492 9.766z" fill="#BDD0FB"/>
        <path d="m96.522 14.219-2.135-.67a8.981 8.981 0 0 1 8.278-6.265l.065 2.236a6.798 6.798 0 0 0-2.055.394 6.727 6.727 0 0 0-4.153 4.305z" fill="url(#c)"/>
        <path d="m96.775 18.895-2.047.896a7.392 7.392 0 0 1-.219-.56 8.883 8.883 0 0 1-.116-5.682l2.135.67a6.729 6.729 0 0 0 .087 4.261c.044.139.102.277.16.415z" fill="#739AF0"/>
        <path d="M96.112 22.013a8.797 8.797 0 0 1-1.391-2.185l2.055-.896c.26.605.612 1.168 1.042 1.668l-1.706 1.413z" fill="url(#d)"/>
        <path d="M50.207 98.583h-.78L49.837 0h69.742v.787H50.586l-.379 97.796z" fill="#BDD0FB"/>
        <path d="m54.71 78.239-.386-.685 16.971-9.637 9.852 6.687 28.309-15.675.379.684-28.732 15.909-9.837-6.68L54.71 78.24z" fill="#739AF0"/>
        <path d="M95.305 30.127A11.809 11.809 0 0 0 81.657 32.7a11.605 11.605 0 0 0-2.077 3.044 11.797 11.797 0 0 0 5.625 15.727 11.816 11.816 0 0 0 15.842-6.004 11.807 11.807 0 0 0-5.735-15.339h-.007zm2.958 14.452a8.859 8.859 0 0 1-8.744 5.04 8.746 8.746 0 0 1-2.529-.59 8.79 8.79 0 0 1-.546-.232 8.86 8.86 0 0 1-4.219-11.786c.403-.84.934-1.61 1.574-2.287a8.862 8.862 0 0 1 15.004 3.745 8.855 8.855 0 0 1-.54 6.11z" fill="#BDD0FB"/>
        <path d="m82.415 44.906-2.623 1.37a11.803 11.803 0 0 1-.212-10.533 11.605 11.605 0 0 1 2.077-3.045l2.186 2.025a9.005 9.005 0 0 0-1.56 2.287 8.84 8.84 0 0 0 .132 7.896z" fill="#739AF0"/>
        <path d="m87.012 49.03-1.086 2.752c-.24-.094-.481-.203-.729-.313a11.78 11.78 0 0 1-5.414-5.193l2.623-1.37a8.786 8.786 0 0 0 4.06 3.897c.181.08.364.153.546.226z" fill="url(#e)"/>
        <path d="M89.3 52.57a11.883 11.883 0 0 1-3.374-.787l1.085-2.754c.81.322 1.662.52 2.529.59l-.24 2.95z" fill="url(#f)"/>
        <path d="m53.66 90.17-.408-.67 17.86-10.875 7.425 6.52 12.388-3.752 11.003.605 6.696-6.265.532.576-6.937 6.49-11.2-.612-12.671 3.839-7.316-6.432L53.66 90.171z" fill="url(#g)"/>
        <path d="M63.067 48.621a1.648 1.648 0 0 1-1.159-.444 1.546 1.546 0 0 1-.35-.481 1.399 1.399 0 0 1-.13-.597c-.002-.207.043-.41.13-.598.087-.184.205-.352.35-.495a1.648 1.648 0 0 1 1.16-.444 1.698 1.698 0 0 1 1.165.444c.146.143.264.31.35.495a1.513 1.513 0 0 1 0 1.195 1.544 1.544 0 0 1-.35.48 1.7 1.7 0 0 1-1.166.444zm-1.173 3.955 2.915-3.438 2.725-3.533.532.46-2.864 3.394-2.783 3.59-.525-.473zm1.173-4.501a.794.794 0 0 0 .59-.284c.076-.09.138-.19.183-.299a1.05 1.05 0 0 0 0-.728 1.064 1.064 0 0 0-.183-.306.823.823 0 0 0-.27-.204.816.816 0 0 0-.648.003.728.728 0 0 0-.262.208 1.041 1.041 0 0 0 0 1.333.911.911 0 0 0 .27.204c.1.047.21.072.32.073zm3.797 5.048a1.66 1.66 0 0 1-.634-.117 1.6 1.6 0 0 1-.525-.328 1.66 1.66 0 0 1-.35-.488 1.457 1.457 0 0 1 0-1.202 1.602 1.602 0 0 1 .874-.809 1.8 1.8 0 0 1 1.276 0c.194.077.371.188.525.329.145.137.263.3.35.48a1.457 1.457 0 0 1 0 1.202 1.66 1.66 0 0 1-.35.488 1.69 1.69 0 0 1-1.166.445zm0-.583a.772.772 0 0 0 .597-.277c.16-.189.246-.43.24-.677 0-.125-.021-.248-.065-.365a.99.99 0 0 0-.19-.298.728.728 0 0 0-.262-.197.728.728 0 0 0-.32-.073.67.67 0 0 0-.32.073.998.998 0 0 0-.511.86c0 .126.022.252.066.371.038.114.1.218.182.306a.792.792 0 0 0 .262.204.765.765 0 0 0 .32.036v.037z" fill="#739AF0"/>
        <path d="M164.384 245.525s.787 4.218 1.195 8.399a2.913 2.913 0 0 1-2.725 3.147c-5.574.291-17.488.852-21.766.728a.94.94 0 0 1-.838-1.282 2.085 2.085 0 0 1 1.064-1.136l19.602-9.236 3.468-.62z" fill="url(#h)"/>
        <path d="m164.973 243.041-.554 5.056s-3.432 1.638-5.829-.146l1.37-5.645 5.013.735z" fill="url(#i)"/>
        <path d="M163.618 148.027c.27 1.319 2.019 65.849-4.605 94.84a.975.975 0 0 0 .568 1.15 17.087 17.087 0 0 0 5.633 1.086 1.69 1.69 0 0 0 1.669-1.224c1.909-6.73 11.039-40.449 11.965-72.572 1.034-35.903 0-1.223 0-1.223l-1.013-22.217-14.217.16z" fill="#7D97F4"/>
        <path d="M187.053 247.514s1.209 2.127 2.412 7.779a1.76 1.76 0 0 1-.29 1.399c-.143.2-.327.367-.54.491a1.743 1.743 0 0 1-.693.23c-1.837.204-4.671.459-6.937.466a1.754 1.754 0 0 1-1.681-1.209 1.731 1.731 0 0 1-.075-.729 14.836 14.836 0 0 1 3.373-8.143l4.431-.284z" fill="url(#j)"/>
        <path d="m188.036 241.01-1.326 7.655s-1.377 1.042-4.124.321l.59-8.231 4.86.255z" fill="url(#k)"/>
        <path d="M190.95 149.746c5.968 34.002-.422 84.175-2.645 94.009a1.52 1.52 0 0 1-1.224 1.173c-1.464.275-2.971.23-4.416-.131a1.41 1.41 0 0 1-1.02-1.282c-.386-7.933-.291-56.612-5.735-75.799a4.364 4.364 0 0 0-1.712-2.396l-10.245-7.161-.926-11.749 27.923 3.336z" fill="#7D97F4"/>
        <path d="M154.372 85.566c16.912-.437 35.618 4.101 35.618 4.101 5.326 29.362 1.457 63.328 1.457 63.328-13.058 3.555-27.886-1.835-27.886-1.835-2.267-12.274-12.723-46.772-12.723-46.772a55.74 55.74 0 0 1-20.738-6.359c4.226-4.996 6.179-11.326 7.024-15.063a56.527 56.527 0 0 0 17.248 2.6z" fill="url(#l)"/>
        <path d="M104.201 61.143a3.238 3.238 0 0 1 3.753-1.1c2.594 10.489 15.725 18.887 29.147 22.923-.845 3.737-2.798 10.066-7.024 15.063-22.385-12.295-25.876-36.886-25.876-36.886z" fill="url(#m)"/>
        <path d="M104.572 61.646c-.167.554 1.851 1.377 3.017-.896 0-1.085.649-5.725 0-6.607-3.497-4.661-10.201-10.489-10.201-10.489a1.587 1.587 0 0 0-.175 2.185l3.272 3.351c-.663 1.231-1.458 2.273-1.859 3.759a4.537 4.537 0 0 0 .474 3.358 39.386 39.386 0 0 0 2.113 3.38 4.473 4.473 0 0 0 3.359 1.959z" fill="url(#n)"/>
        <path d="m101.885 51.39 2.98 2.476.947 2.484-2.609 2.914s-.932-4.939-1.595-6.002c-.663-1.064-.321-1.545.277-1.872z" fill="url(#o)"/>
        <path d="m183.627 106.108 6.332-16.44s15.907 10.584 18.632 24.161a37.51 37.51 0 0 0-13.699 3.817c-1.202-6.417-11.265-11.538-11.265-11.538z" fill="url(#p)"/>
        <path d="M170.001 121.645s17.831 9.848 23.733 1.238a6.715 6.715 0 0 0 1.188-5.237 37.49 37.49 0 0 1 13.699-3.817 18.787 18.787 0 0 1-1.916 12.915c-10.304 19.266-39.014-.692-39.014-.692l2.31-4.407z" fill="url(#q)"/>
        <path d="m171.371 71.676 5.531 15.508a.561.561 0 0 1-.248.677c-1.457.83-6.726 3.22-13.116-.728a2.623 2.623 0 0 1-1.239-1.872l-1.865-13.447 10.937-.138z" fill="url(#r)"/>
        <path d="M159.523 57.384s-5.829 11.174-5.006 15.66c.824 4.488 8.125 4.094 14.486.387l4.372-12.055-13.852-3.992z" fill="url(#s)"/>
        <path d="M168.661 67.531a.46.46 0 0 1-.204-.67 11.838 11.838 0 0 0 1.61-3.489s1.057-.728-2.718-1.551c-3.775-.824-9.407-2.186-10.617-5.405-1.209-3.22 1.771-11.007 6.653-4.786a.46.46 0 0 0 .729 0c.779-1.034 2.841-3.19 5.742-1.923 2.71 1.187 3.031 3.161 3.009 4.16a.46.46 0 0 0 .156.364.447.447 0 0 0 .383.101c1.363-.276 4.642-.531 6.201 2.82 1.29 2.753.489 4.326-.255 5.098a.449.449 0 0 0-.095.42.45.45 0 0 0 .299.309c.904.27 2.07 1.02 1.975 3.124-.138 2.914-3.388 2.681-4.314 2.557a.471.471 0 0 0-.408.146c-.787.889-4.328 4.654-8.19 5.099a.466.466 0 0 1-.496-.605l1.662-4.83a.466.466 0 0 0-.255-.567l-.867-.372z" fill="url(#t)"/>
        <path d="M167.997 68.23s4.182-2.913 4.51-.495c.328 2.419-3.753 3.555-5.829 2.666l1.319-2.17z" fill="url(#u)"/>
        <path d="m173.645 137.211-9.692-33.915a1.012 1.012 0 0 0-.838-.729 427.717 427.717 0 0 0-12.752-1.274c-7.097-.605-15.302-1.086-20.257-.67a.984.984 0 0 0-.802.507.994.994 0 0 0-.007.949c2.799 5.66 14.312 28.685 20.083 36.231a1.001 1.001 0 0 0 .801.394l22.538-.211a.988.988 0 0 0 .926-1.282z" fill="url(#v)"/>
        <path d="M171.298 129.023s1.348-5.565.809-7.539c-.54-1.974-1.611-4.509-5.101-3.948a51.423 51.423 0 0 0-7.688 2.047s.212 2.571 2.915 1.741l-1.661 1.289s.233 2.054 2.499.954l-1.596 1.72a1.804 1.804 0 0 0 2.638.611c1.661-1.1 2.463 3.795 7.185 3.125z" fill="url(#w)"/>
        <path d="M150.99 111.447a2.856 2.856 0 1 1-2.856-2.855 2.852 2.852 0 0 1 2.641 1.761c.143.347.216.719.215 1.094z" fill="#7D97F4"/>
        <path d="m163.014 113.253-1.982-6.701a2.485 2.485 0 0 0-1.873-1.748c-6.215-1.297-23.201-1.574-23.376-1.574v-.378c.175 0 17.197.276 23.449 1.58a2.859 2.859 0 0 1 2.186 2.011l1.982 6.708-.386.102z" fill="#91B3FA"/>
        <path d="M45.128 208.23c-1.035 1.53-5.152 36.217-5.83 49.023a1.519 1.519 0 0 0 .925 1.466 1.524 1.524 0 0 0 2.1-1.161l7.526-48.228-4.721-1.1zM78.216 208.23c1.042 1.53 5.152 36.217 5.83 49.023a1.514 1.514 0 0 1-1.516 1.587 1.516 1.516 0 0 1-1.501-1.282l-7.535-48.228 4.722-1.1z" fill="#7D97F4"/>
        <path d="M38.897 205.521v.379a5.156 5.156 0 0 0 5.253 5.004l34.802.59a5.194 5.194 0 0 0 5.443-4.72v-.35a5.142 5.142 0 0 0-5.246-5.201l-34.817-.619a5.2 5.2 0 0 0-2 .294 5.187 5.187 0 0 0-3.435 4.623z" fill="#7D97F4"/>
        <path d="M112.217 255.993c-6.186 0-8.919-.532-10.143-1.013a2.357 2.357 0 0 0 2.288 1.814h21.861a1.058 1.058 0 0 0 .844-.416c.1-.13.168-.281.199-.441.032-.16.027-.325-.016-.483-2.492.218-7.79.539-15.033.539z" fill="url(#x)"/>
        <path d="M127.257 255.454a.961.961 0 0 0-.182-.371c-1.668-2.127-5.013-5.471-9.567-5.405-6.675.094-8.999.816-14.188.036l-1.224 4.057c-.117.393-.129.81-.036 1.21 1.224.48 3.956 1.012 10.143 1.012 7.258 0 12.555-.32 15.054-.539z" fill="url(#y)"/>
        <path d="m104.821 245.351-1.501 5.098s3.323 1.516 6.252.299l.576-4.429-5.327-.968z" fill="url(#z)"/>
        <path d="M150.18 252.758c-4.824 3.876-7.287 5.172-8.547 5.566a2.348 2.348 0 0 0 2.915 0l17.065-13.702c.128-.102.23-.232.298-.38a1.057 1.057 0 0 0-.342-1.303c-1.814 1.712-5.734 5.296-11.389 9.819z" fill="url(#A)"/>
        <path d="M161.57 242.94a.98.98 0 0 0-.372-.182c-2.623-.605-7.287-1.1-10.828 1.799-5.144 4.254-6.507 6.272-11.032 8.916l1.574 3.911c.153.38.404.712.729.962 1.26-.394 3.723-1.69 8.547-5.565 5.647-4.546 9.567-8.129 11.382-9.841z" fill="url(#B)"/>
        <path d="M72.693 187.201s37.039 3.001 44.625 6.556c7.585 3.555-6.201 53.684-6.201 53.684s-2.07.998-6.675-.437c0 0 4.722-36.974 1.21-44.994l-40.078-6.556 7.12-8.253z" fill="url(#C)"/>
        <path d="M135.658 246.436c.343.313 3.68 7.037 3.68 7.037s3.709-.802 4.467-3.154l-3.338-6.068-4.809 2.185z" fill="url(#D)"/>
        <path d="M50.389 186.874a18.846 18.846 0 0 0-1.159 6.76 10.15 10.15 0 0 0 2.886 6.876 10.162 10.162 0 0 0 6.806 3.052l43.822 1.996c.45.022.881.187 1.23.471.348.285.597.673.709 1.109 1.027 3.978 6.055 16.193 30.604 40.573a1.975 1.975 0 0 0 2.448.262l3.498-2.185a.802.802 0 0 0 .27-1.085l-25.504-43.523a9.88 9.88 0 0 0-5.99-4.443l-37.315-9.535-22.305-.328z" fill="url(#E)"/>
        <path d="M93.541 118.898s-4.692 8.29-9.473 12.303l9.881 5.514s2.23-8.777 7.287-11.348l-7.695-6.469z" fill="url(#F)"/>
        <path d="M49.594 187.202s11.819 2.913 23.099 0c0 0 15.79-21.212 21.897-26.988 0 0 9.742 15.37 31.427 17.548l1.21-2.703s-17.262-7.954-22.589-20.177c-5.327-12.223-7.447-17.438-12.278-20.628-3.017-1.982-4.817-3.344-5.75-4.08a1.554 1.554 0 0 0-1.77-.116c-5.123 3.103-29.264 19.638-35.246 57.144z" fill="url(#G)"/>
        <path d="M93.949 159.988a.854.854 0 0 1-.678-.335 47.5 47.5 0 0 1-5.96-10.562.857.857 0 0 1 .491-1.104.852.852 0 0 1 1.104.492 46.507 46.507 0 0 0 5.72 10.139.854.854 0 0 1-.677 1.37z" fill="url(#H)"/>
        <path d="m124.715 173.625 2.441-.649 7.411-1.719a3.44 3.44 0 0 1 2.601.445l6.376 4.006h-17.598l-1.231-2.083z" fill="url(#I)"/>
        <path d="M100.981 106.465s4.561 7.575 5.356 11.764c.794 4.188 2.055 6.803-2.711 8.289-4.766 1.486-9.196-.393-11.972-4.298 0 0-4.372-6.016-3.913-8.741.459-2.724 13.24-7.014 13.24-7.014z" fill="url(#J)"/>
        <path d="m92.922 118.979.62-.08s-3.228-4.881-1.123-6.09c2.106-1.209 10.719-4.174 12.213-7.561 1.457-3.27-.729-6.956-3.308-7.728a.337.337 0 0 0-.401.211l-.153.408a.332.332 0 0 1-.31.207.335.335 0 0 1-.309-.207.328.328 0 0 0-.605 0c-.46 1.012-1.844 2.746-5.983 4.086-5.865 1.909-9.523 4.866-9.079 9.04a.327.327 0 0 1-.474.335c-.48-.211-1.21-.248-2.054.677-1.458 1.61-.321 5.099 3.694 7.612a.337.337 0 0 1 .143.404.335.335 0 0 1-.085.128c-.605.51-1.457 1.661 1.268 2.681 2.725 1.019 4.292.728 4.853.466a.323.323 0 0 0 .204-.372l-.728-3.642a.338.338 0 0 1 .057-.257.328.328 0 0 1 .227-.136l1.333-.182z" fill="url(#K)"/>
        <path d="M93.177 119.729s-2.011-4.96-4.125-3.212c-2.113 1.748 1.953 5.587 3.826 5.536l.299-2.324z" fill="url(#L)"/>
        <path d="M117.916 179.189h.087l37.592-.036a1.685 1.685 0 0 0 1.573-1.679 1.682 1.682 0 0 0-1.573-1.679h-37.592a1.683 1.683 0 0 0-.08 3.358l-.007.036z" fill="url(#M)"/>
        <path d="m170.155 142.353-.044.08-15.812 34.09a1.67 1.67 0 0 0 .287 1.843 1.682 1.682 0 0 0 2.372.099c.162-.149.294-.329.386-.529l15.813-34.089a1.678 1.678 0 0 0-2.044-2.195c-.4.118-.742.381-.958.738v-.037z" fill="url(#N)"/>
        <path d="M317.602 251.731c.311 1.843.525 3.7.641 5.565a2.396 2.396 0 0 1-2.186 2.528c-4.474.437-14.654 1.238-21.132.299a1.1 1.1 0 0 1-.891-.752 1.086 1.086 0 0 1 .294-1.128c2.681-2.491 9.152-7.349 19.805-8.413l3.469 1.901z" fill="url(#O)"/>
        <path d="m319.824 245.991-2.259 5.543a1.838 1.838 0 0 1-1.894 1.144 10.507 10.507 0 0 1-1.851-.357 2.416 2.416 0 0 1-1.61-3.016l1.705-5.71 5.909 2.396z" fill="url(#P)"/>
        <path d="M358.509 256.139s-4.525 3.787-6.288 8.646a2.05 2.05 0 0 0 .266 1.882c.192.269.447.488.741.639.295.15.622.227.953.225h9.32a2.19 2.19 0 0 0 2.145-1.616c.084-.312.098-.638.041-.955-.62-3.351-2.347-8.807-7.178-8.821z" fill="url(#Q)"/>
        <path d="M364.091 251.214s-.911 4.043-1.618 6.716a.836.836 0 0 1-.427.54.84.84 0 0 1-.688.043 7.856 7.856 0 0 0-3.395-.612.682.682 0 0 1-.273-.029.674.674 0 0 1-.398-.359.648.648 0 0 1-.058-.267l-.088-6.724 6.945.692z" fill="url(#R)"/>
        <path d="m340.009 160.156-27.536 83.986s5.283 3.46 7.796 3.314l32.711-67.495s5.727 41.593 2.915 71.45l9.37.728s15.237-76.301 3.695-102.436l-28.951 10.453z" fill="url(#S)"/>
        <path d="M352.804 179.233h.037a.265.265 0 0 0 .175-.102.251.251 0 0 0 .045-.093.256.256 0 0 0 .006-.103l-1.064-8.486a.272.272 0 0 0-.296-.206.269.269 0 0 0-.236.271l1.071 8.479a.262.262 0 0 0 .262.24z" fill="url(#T)"/>
        <path d="M334.85 86.251s22.313 1.981 19.157 17.875c0 0 12.33 23.2 18.101 50.537a1.609 1.609 0 0 1-.706 1.679 1.616 1.616 0 0 1-.599.23l-37.162 6.359a2.006 2.006 0 0 1-2.274-1.457l-8.875-34.301-3.461 15.952-10.996-2.87 9.254-46.858s1.297-6.855 17.561-7.146z" fill="#7D97F4"/>
        <path d="M322.302 125.628h.058a.286.286 0 0 0 .171-.122.279.279 0 0 0 .04-.205l-3.097-14.219a.279.279 0 0 0-.118-.176.266.266 0 0 0-.209-.035.287.287 0 0 0-.101.041.275.275 0 0 0-.114.178.267.267 0 0 0 .003.109l3.097 14.218a.277.277 0 0 0 .27.211z" fill="url(#U)"/>
        <path d="M324.547 167.935a5.275 5.275 0 0 1 3.833-.502l2.587.641a.94.94 0 0 0 1.158-.802l2.674-23.775c3.345 1.588 8.169 1.399 9.765 1.282l-6.158 28.066h-21.547l7.688-4.91z" fill="url(#V)"/>
        <path d="m267.295 116.298.648-2.185a4.29 4.29 0 0 1 2.5-2.739l11.783-4.735s.174-1.508-2.493-2.535c-2.666-1.027-2.04-4.013-2.04-4.013s3.644 1.661 8.977 4.297a12.524 12.524 0 0 1 5.67 6.17l26.691 32.531-3.133 2.149a8.365 8.365 0 0 1-6.733 1.233 8.384 8.384 0 0 1-3.15-1.525 8.379 8.379 0 0 1-2.25-2.68l-14.479-27.702a53.797 53.797 0 0 1-21.991 1.734z" fill="url(#W)"/>
        <path d="m327.622 71.079 6.842 19.2s-6.077 4.75-10.514 3.14l-3.462-11.006s2.667-13.447 7.134-11.334z" fill="url(#X)"/>
        <path d="M307.139 64.18c0 .3 6.609 18.706 6.609 18.706l10.434-3.991-3.643-18.385s-13.4-1.282-13.4 3.67z" fill="url(#Y)"/>
        <path d="m318.681 64.988 2.667 9.528c.032.121.049.246.051.371 0 .772-.197 3.446-2.915 3.089-2.477-.335-4.736-.597-6.172.08a1.377 1.377 0 0 0-.728 1.72 60.376 60.376 0 0 0 3.76 8.478 1.374 1.374 0 0 0 1.77.568 44.215 44.215 0 0 0 8.949-5.26 1.384 1.384 0 0 0 .495-1.333c-.459-2.432-1.822-9.847-1.88-11.967-.058-1.996 2.186-3.518 3.163-4.086a1.37 1.37 0 0 0 .641-.86c.306-1.282.568-4.188-3.134-4.83a1.379 1.379 0 0 1-.887-.595 1.385 1.385 0 0 1-.198-1.05c.313-1.537.211-3.796-2.704-4.626-2.914-.83-4.823.94-5.778 2.31a1.379 1.379 0 0 1-1.712.45 1.095 1.095 0 0 0-1.225.227 1.37 1.37 0 0 1-1.996-.306 4.123 4.123 0 0 0-5.101-1.683c-4.714 1.53-4.489 6.964-2.762 9.914 1.727 2.95 6.748 1.012 9.123-.947 1.8-1.457 4.555-.598 5.764-.088a1.377 1.377 0 0 1 .809.896z" fill="url(#Z)"/>
        <path d="M325.662 73.737s-2.791-5.274-.94-6.934c1.851-1.661 4.969-1.384 4.882 2.746-.102 5.128-3.942 4.188-3.942 4.188z" fill="url(#aa)"/>
        <path d="M342.399 145.106c.91.005 1.82-.039 2.725-.131h.197l8.125-37.877a.28.28 0 0 0-.036-.209.254.254 0 0 0-.076-.077.26.26 0 0 0-.1-.042.262.262 0 0 0-.108-.003.266.266 0 0 0-.178.114.274.274 0 0 0-.042.1l-8.015 37.477c-1.202.102-7.666.532-11.069-1.879l7.039-32.902-1.457-2.768a.28.28 0 0 0-.164-.135.282.282 0 0 0-.295.09.276.276 0 0 0-.05.096.278.278 0 0 0 .021.211l1.377 2.586-7.119 33.011.146.11c2.462 1.879 6.427 2.228 9.079 2.228z" fill="url(#ab)"/>
        <path d="M275.003 209.294h-4.474v48.337h4.474v-48.337z" fill="#91B3FA"/>
        <path d="M254.572 255.672h36.288a1.456 1.456 0 0 1 1.458 1.457v1.457h-39.13v-1.53a1.383 1.383 0 0 1 1.384-1.384zM294.648 197.785h-42.11a5.107 5.107 0 0 0-5.108 5.106v4.626a5.107 5.107 0 0 0 5.108 5.106h42.11a5.107 5.107 0 0 0 5.108-5.106v-4.626a5.107 5.107 0 0 0-5.108-5.106z" fill="#91B3FA"/>
        <path d="M247.868 249.073s-12.774 9.2-10.552 15.377c0 0 13.969-6.024 15.652-10.773 1.684-4.75-.284-6.84-.284-6.84l-4.816 2.236z" fill="url(#ac)"/>
        <path d="m249.784 241.359 2.084 6.032a2.086 2.086 0 0 1-.809 2.462 5.438 5.438 0 0 1-1.734.67 2.435 2.435 0 0 1-2.696-1.224l-2.522-4.705 5.677-3.235z" fill="url(#ad)"/>
        <path d="M270.1 187.056s-26.233 4.545-37.476 14.932c-11.244 10.387 10.325 43.523 10.325 43.523s3.534 0 7.819-3.693c0 0-12.789-24.919-1.764-32.189 12.388-8.165 26.677-10.008 26.677-10.008l-5.341-11.764-.24-.801z" fill="url(#ae)"/>
        <path d="M255.292 255.25s-2.324-1.574-3.643-1.326-9.283 5.827-12.096 7.109a11.844 11.844 0 0 0-4.605 3.963c-1.072 1.639-1.225 3.139.4 3.387 2.033.313 11.572-1.304 16.563-5.791a11.199 11.199 0 0 0 3.367-4.553 3.65 3.65 0 0 0 .014-2.789z" fill="url(#af)"/>
        <path d="M257.676 251.302c0 .779-1.611 3.43-2.536 4.916a2.432 2.432 0 0 1-2.04 1.144 6.217 6.217 0 0 1-1.691-.204 1.563 1.563 0 0 1-1.049-1.945l1.807-6.162 5.509 2.251z" fill="url(#ag)"/>
        <path d="M295.34 179.189s5.83 15.567 0 20.301c-5.829 4.735-19.718 10.067-22.815 19.493-3.096 9.425-8.365 27.752-15.418 34.235 0 0-4.948-.481-6.806-2.448 0 0 4.015-27.359 6.667-34.381 2.288-6.075 5.669-14.852 12.14-19.754 1.858-1.406 1.53-3.642.67-5.791l-1.559-3.933 27.121-7.722z" fill="url(#ah)"/>
        <path d="M234.635 166.988c9.764.59 6.718-15.006 6.558-15.625l14.821 10.46s-.787 8.341-13.116 12.718a15.31 15.31 0 0 1-8.482.612c.913-2.634.989-5.486.219-8.165z" fill="url(#ai)"/>
        <path d="M215.69 162.29c3.643-2.527 7.76 0 7.76 0 4.868 3.184 8.467 4.538 11.127 4.699.768 2.68.689 5.532-.226 8.165-5.45-1.173-9.356-5.099-11.047-7.138a1.753 1.753 0 0 0-2.433-.263c-.729.598-1.458 1.414-1.363 2.273.262 1.705-1.712 2.244-1.858 1.624-.146-.619.67-4.268.67-4.268s-3.942 3.97-5.487 5.492c-1.545 1.523-3.476 0-3.476 0s2.726-8.049 6.333-10.584z" fill="url(#aj)"/>
        <path d="M280.134 127.275s-14.202-5.682-40.646 16.134c0 0-2.186 4.567.204 8.639 2.39 4.072 25.365 23.885 28.521 34.869 0 0 13.677 4.443 27.813-6.089 0 0-1.246-30.586-15.892-53.553z" fill="url(#ak)"/>
        <path d="m252.05 122.198 6.996 8.479a2.789 2.789 0 0 1 .364 2.994c-.969 1.974-3.272 4.858-8.38 4.458a4.28 4.28 0 0 1-3.527-2.404l-4.853-10.103 9.4-3.424z" fill="url(#al)"/>
        <path d="M291.137 163.572c1.646-6.716-15.055-21.685-15.055-21.685l4.051-14.612s36.077 24.038 26.881 43.312a14.081 14.081 0 0 1-5.1 6.002c-2.9-7.816-7.528-11.4-10.777-13.017z" fill="url(#am)"/>
        <path d="M291.144 162.596a.399.399 0 0 0 .387-.299c1.683-6.868-14.486-21.451-15.179-22.07a.392.392 0 0 0-.524.582c.167.153 16.511 14.889 14.938 21.299a.36.36 0 0 0-.009.153.371.371 0 0 0 .154.256.377.377 0 0 0 .139.065c.03.011.062.016.094.014z" fill="url(#an)"/>
        <path d="M265.828 162.997s19.813 7.684 24.644 1.901c.32-.385.547-.839.663-1.326 3.25 1.617 7.877 5.201 10.785 13.017-10.42 6.65-28.222-3.708-33.038-6.76a3.603 3.603 0 0 0-2.66-.488c-1.858.386-5.101.954-6.799.685-2.528-.386-6.164 8.537-10.267 5.783 0 0 3.512-15.515 16.672-12.812z" fill="url(#ao)"/>
        <path d="M235.16 114.63s1.028 9.149 3.024 13.112c1.997 3.962 2.609 6.927 7.491 5.142 4.882-1.784 7.352-6.14 7.177-11.137 0 0-.218-7.714-2.317-9.724-2.098-2.011-15.375 2.607-15.375 2.607z" fill="url(#ap)"/>
        <path d="m249.755 119.875-.546.313s-.423-6.075-2.915-5.74c-2.492.335-11.513 3.329-14.894 1.457-3.257-1.792-3.811-6.206-2.15-8.486a.342.342 0 0 1 .459-.08l.386.24a.352.352 0 0 0 .39-.013.352.352 0 0 0 .135-.365.344.344 0 0 1 .116-.356.343.343 0 0 1 .372-.038c1.028.554 3.265 1.107 7.542-.4 6.055-2.142 10.93-2.011 13.226 1.726a.345.345 0 0 0 .306.18.346.346 0 0 0 .306-.18c.262-.481.838-.969 2.127-.728 2.23.393 3.505 4.028 1.764 8.624a.353.353 0 0 0 .138.429.349.349 0 0 0 .153.052c.824.043 2.245.459.649 3.015-1.596 2.557-3.119 3.293-3.724 3.46a.352.352 0 0 1-.408-.182l-1.72-3.474a.347.347 0 0 0-.089-.109.348.348 0 0 0-.264-.079.355.355 0 0 0-.135.042l-1.224.692z" fill="url(#aq)"/>
        <path d="M250.017 120.654s-1.457-5.369 1.377-5.267c2.835.102 1.924 5.864.343 7.007l-1.72-1.74z" fill="url(#ar)"/>
        <path d="M255.687 178.155h-.095l-41.535-.044a1.868 1.868 0 0 1-1.748-1.861 1.863 1.863 0 0 1 1.748-1.861l41.535.051a1.858 1.858 0 1 1 .095 3.715z" fill="url(#as)"/>
        <path d="M176.675 140.438h34.642a6.555 6.555 0 0 1 5.96 3.78l16.031 33.915h-42.992a4.013 4.013 0 0 1-3.731-2.535l-12.387-31.38a2.753 2.753 0 0 1 .256-2.534 2.757 2.757 0 0 1 2.221-1.246z" fill="url(#at)"/>
        <path d="M199.817 162.882c1.432-.461 1.986-2.722 1.237-5.05-.75-2.329-2.519-3.842-3.952-3.381-1.433.46-1.987 2.722-1.237 5.05s2.519 3.842 3.952 3.381z" fill="url(#au)"/>
        <path d="M98.823 260.56a1.393 1.393 0 0 1-.56-.124 1.611 1.611 0 0 1-.73-2.032l29.694-75.303a1.376 1.376 0 0 1 .75-.815 1.375 1.375 0 0 1 1.108.006 1.594 1.594 0 0 1 .729 2.025l-29.694 75.31a1.411 1.411 0 0 1-1.297.933z" fill="#BDD0FB"/>
        <path d="M132.27 260.56a1.46 1.46 0 0 1-1.304-.932l-29.679-75.34a1.588 1.588 0 0 1 .729-2.025c.174-.077.362-.117.553-.117a1.366 1.366 0 0 1 1.014.441c.129.14.228.305.291.485l29.693 75.332a1.599 1.599 0 0 1-.728 2.032 1.466 1.466 0 0 1-.569.124zM300.317 260.56a1.397 1.397 0 0 1-.561-.124 1.602 1.602 0 0 1-.728-2.032l29.679-75.303a1.361 1.361 0 0 1 .75-.815 1.375 1.375 0 0 1 1.108.006 1.597 1.597 0 0 1 .729 2.025l-29.68 75.31a1.413 1.413 0 0 1-1.297.933z" fill="#BDD0FB"/>
        <path d="M333.735 260.56a1.457 1.457 0 0 1-1.304-.932l-29.658-75.34a1.588 1.588 0 0 1 .729-2.025c.174-.077.362-.117.553-.117a1.366 1.366 0 0 1 1.014.441c.13.14.229.305.291.485l29.686 75.303a1.599 1.599 0 0 1-.728 2.032c-.182.091-.38.143-.583.153z" fill="#BDD0FB"/>
        <path d="M296.012 177.783h42.992v-4.422h-42.992c.918 0 .918 4.422 0 4.422z" fill="#7D97F4"/>
        <path d="M338.632 177.783a.386.386 0 0 0 .379-.379v-3.678a.379.379 0 0 0-.379-.379h-43.517a.38.38 0 0 1-.379-.379v-.247a.378.378 0 0 1 .379-.379h46.395a1.855 1.855 0 0 1 1.858 1.857v2.805c0 .23-.045.458-.134.67a1.745 1.745 0 0 1-1.622 1.078h-46.497a.379.379 0 0 1-.379-.379v-.24a.379.379 0 0 1 .379-.379l43.517.029z" fill="url(#av)"/>
        <path d="M345.241 180.769a1.297 1.297 0 0 0-.532-1.391 3.18 3.18 0 0 0-1.967-.619H85.082a3.513 3.513 0 0 0-2.471.896 1.397 1.397 0 0 0-.19 1.865l2.791 4.006a4.365 4.365 0 0 0 3.55 1.508H340.97c1.421 0 2.638-.67 2.915-1.588l1.355-4.677z" fill="#BDD0FB"/>
        <path d="M23.29 270h387.364v-2.025H23.289V270z" fill="#233862"/>
    </g>
    <defs>
        <linearGradient id="b" x1=".001" y1="136.271" x2="405.167" y2="136.271" gradientUnits="userSpaceOnUse">
            <stop stop-color="#DAE3FE"/>
            <stop offset="1" stop-color="#E9EFFD"/>
        </linearGradient>
        <linearGradient id="c" x1="94.387" y1="10.744" x2="102.73" y2="10.744" gradientUnits="userSpaceOnUse">
            <stop offset=".03" stop-color="#FE7062"/>
            <stop offset="1" stop-color="#FE7062"/>
        </linearGradient>
        <linearGradient id="d" x1="94.721" y1="20.454" x2="97.818" y2="20.454" gradientUnits="userSpaceOnUse">
            <stop stop-color="#4042E2"/>
            <stop offset="1" stop-color="#4F52FF"/>
        </linearGradient>
        <linearGradient id="e" x1="871.301" y1="501.28" x2="942.936" y2="501.28" gradientUnits="userSpaceOnUse">
            <stop offset=".03" stop-color="#FE7062"/>
            <stop offset="1" stop-color="#FE7062"/>
        </linearGradient>
        <linearGradient id="f" x1="512.117" y1="295.914" x2="530.044" y2="295.914" gradientUnits="userSpaceOnUse">
            <stop stop-color="#4042E2"/>
            <stop offset="1" stop-color="#4F52FF"/>
        </linearGradient>
        <linearGradient id="g" x1="4138.73" y1="1719.83" x2="8427.7" y2="1719.83" gradientUnits="userSpaceOnUse">
            <stop stop-color="#4042E2"/>
            <stop offset="1" stop-color="#4F52FF"/>
        </linearGradient>
        <linearGradient id="h" x1="151.953" y1="161.081" x2="152.332" y2="199.475" gradientUnits="userSpaceOnUse">
            <stop stop-color="#09005D"/>
            <stop offset="1" stop-color="#1A0F91"/>
        </linearGradient>
        <linearGradient id="i" x1="165.107" y1="248.615" x2="158.702" y2="248.679" gradientUnits="userSpaceOnUse">
            <stop stop-color="#FF928E"/>
            <stop offset="1" stop-color="#FEB3B1"/>
        </linearGradient>
        <linearGradient id="j" x1="2926.24" y1="2683.27" x2="2871.63" y2="3115.89" gradientUnits="userSpaceOnUse">
            <stop stop-color="#09005D"/>
            <stop offset="1" stop-color="#1A0F91"/>
        </linearGradient>
        <linearGradient id="k" x1="46509" y1="2794.35" x2="46550.3" y2="2794.35" gradientUnits="userSpaceOnUse">
            <stop stop-color="#FF928E"/>
            <stop offset="1" stop-color="#FEB3B1"/>
        </linearGradient>
        <linearGradient id="l" x1="178.972" y1="100.681" x2="127.79" y2="161.012" gradientUnits="userSpaceOnUse">
            <stop stop-color="#FE7062"/>
            <stop offset="1" stop-color="#FF928E"/>
        </linearGradient>
        <linearGradient id="m" x1="281967" y1="2814.69" x2="283444" y2="2814.69" gradientUnits="userSpaceOnUse">
            <stop stop-color="#FF928E"/>
            <stop offset="1" stop-color="#FEB3B1"/>
        </linearGradient>
        <linearGradient id="n" x1="1853.55" y1="777.76" x2="1623.31" y2="1010.84" gradientUnits="userSpaceOnUse">
            <stop stop-color="#FF928E"/>
            <stop offset="1" stop-color="#FEB3B1"/>
        </linearGradient>
        <linearGradient id="o" x1="806.559" y1="429.269" x2="569.606" y2="722.252" gradientUnits="userSpaceOnUse">
            <stop stop-color="#FF928E"/>
            <stop offset="1" stop-color="#FEB3B1"/>
        </linearGradient>
        <linearGradient id="p" x1="6738.31" y1="4359.15" x2="4748" y2="6451.44" gradientUnits="userSpaceOnUse">
            <stop stop-color="#FE7062"/>
            <stop offset="1" stop-color="#FF928E"/>
        </linearGradient>
        <linearGradient id="q" x1="11779" y1="2288.32" x2="11700.7" y2="2744.21" gradientUnits="userSpaceOnUse">
            <stop stop-color="#FF928E"/>
            <stop offset="1" stop-color="#FEB3B1"/>
        </linearGradient>
        <linearGradient id="r" x1="3918.21" y1="1617.17" x2="4068.89" y2="2480.27" gradientUnits="userSpaceOnUse">
            <stop stop-color="#FF928E"/>
            <stop offset="1" stop-color="#FEB3B1"/>
        </linearGradient>
        <linearGradient id="s" x1="-38237.4" y1="18553.6" x2="-38492.1" y2="19311.1" gradientUnits="userSpaceOnUse">
            <stop stop-color="#FF928E"/>
            <stop offset="1" stop-color="#FEB3B1"/>
        </linearGradient>
        <linearGradient id="t" x1="214.137" y1="5.638" x2="194.625" y2="28.962" gradientUnits="userSpaceOnUse">
            <stop stop-color="#E1473D"/>
            <stop offset="1" stop-color="#E9605A"/>
        </linearGradient>
        <linearGradient id="u" x1="-7640.29" y1="1249.74" x2="-7715.04" y2="1405.78" gradientUnits="userSpaceOnUse">
            <stop stop-color="#FF928E"/>
            <stop offset="1" stop-color="#FEB3B1"/>
        </linearGradient>
        <linearGradient id="v" x1="13061.7" y1="4218.98" x2="11530.8" y2="5434.27" gradientUnits="userSpaceOnUse">
            <stop stop-color="#09005D"/>
            <stop offset="1" stop-color="#1A0F91"/>
        </linearGradient>
        <linearGradient id="w" x1="3436.92" y1="1429.27" x2="3335.16" y2="1672.13" gradientUnits="userSpaceOnUse">
            <stop stop-color="#FF928E"/>
            <stop offset="1" stop-color="#FEB3B1"/>
        </linearGradient>
        <linearGradient id="x" x1="4016.82" y1="863.686" x2="4014.96" y2="681.55" gradientUnits="userSpaceOnUse">
            <stop stop-color="#4042E2"/>
            <stop offset="1" stop-color="#4F52FF"/>
        </linearGradient>
        <linearGradient id="y" x1="4907.6" y1="2116.19" x2="4747.22" y2="3142.3" gradientUnits="userSpaceOnUse">
            <stop stop-color="#4042E2"/>
            <stop offset="1" stop-color="#4F52FF"/>
        </linearGradient>
        <linearGradient id="z" x1="1071.42" y1="2246.29" x2="1135.4" y2="2246.29" gradientUnits="userSpaceOnUse">
            <stop stop-color="#FF928E"/>
            <stop offset="1" stop-color="#FEB3B1"/>
        </linearGradient>
        <linearGradient id="A" x1="4340.5" y1="5461.98" x2="4166.78" y2="3885.23" gradientUnits="userSpaceOnUse">
            <stop stop-color="#4042E2"/>
            <stop offset="1" stop-color="#4F52FF"/>
        </linearGradient>
        <linearGradient id="B" x1="5080.39" y1="5306.49" x2="4078.91" y2="7525.93" gradientUnits="userSpaceOnUse">
            <stop stop-color="#4042E2"/>
            <stop offset="1" stop-color="#4F52FF"/>
        </linearGradient>
        <linearGradient id="C" x1="8230.42" y1="14058.8" x2="2911.62" y2="25967.7" gradientUnits="userSpaceOnUse">
            <stop stop-color="#09005D"/>
            <stop offset="1" stop-color="#1A0F91"/>
        </linearGradient>
        <linearGradient id="D" x1="1652.32" y1="3394.84" x2="1743.4" y2="3394.84" gradientUnits="userSpaceOnUse">
            <stop stop-color="#FF928E"/>
            <stop offset="1" stop-color="#FEB3B1"/>
        </linearGradient>
        <linearGradient id="E" x1="15878.2" y1="14255.9" x2="14751.7" y2="17147.1" gradientUnits="userSpaceOnUse">
            <stop stop-color="#09005D"/>
            <stop offset="1" stop-color="#1A0F91"/>
        </linearGradient>
        <linearGradient id="F" x1="2509.68" y1="2861.46" x2="1892.85" y2="3795.34" gradientUnits="userSpaceOnUse">
            <stop stop-color="#FF928E"/>
            <stop offset="1" stop-color="#FEB3B1"/>
        </linearGradient>
        <linearGradient id="G" x1="7907.64" y1="12779.1" x2="10953.7" y2="19396.6" gradientUnits="userSpaceOnUse">
            <stop stop-color="#FE7062"/>
            <stop offset="1" stop-color="#FF928E"/>
        </linearGradient>
        <linearGradient id="H" x1="1170.4" y1="2259.63" x2="770.331" y2="2747.65" gradientUnits="userSpaceOnUse">
            <stop stop-color="#E1473D"/>
            <stop offset="1" stop-color="#E9605A"/>
        </linearGradient>
        <linearGradient id="I" x1="3347.31" y1="1251.44" x2="3833.85" y2="1251.44" gradientUnits="userSpaceOnUse">
            <stop stop-color="#FF928E"/>
            <stop offset="1" stop-color="#FEB3B1"/>
        </linearGradient>
        <linearGradient id="J" x1="31310.9" y1="-3977.85" x2="31836.6" y2="-3170.72" gradientUnits="userSpaceOnUse">
            <stop stop-color="#FF928E"/>
            <stop offset="1" stop-color="#FEB3B1"/>
        </linearGradient>
        <linearGradient id="K" x1="3093.08" y1="2318.51" x2="3113.18" y2="3361.84" gradientUnits="userSpaceOnUse">
            <stop stop-color="#09005D"/>
            <stop offset="1" stop-color="#1A0F91"/>
        </linearGradient>
        <linearGradient id="L" x1="6569.87" y1="-1017.53" x2="6730.62" y2="-804.139" gradientUnits="userSpaceOnUse">
            <stop stop-color="#FF928E"/>
            <stop offset="1" stop-color="#FEB3B1"/>
        </linearGradient>
        <linearGradient id="M" x1="7372.48" y1="373.586" x2="7373.66" y2="641.774" gradientUnits="userSpaceOnUse">
            <stop stop-color="#09005D"/>
            <stop offset="1" stop-color="#1A0F91"/>
        </linearGradient>
        <linearGradient id="N" x1="4284.57" y1="2241.06" x2="4586.02" y2="5158.91" gradientUnits="userSpaceOnUse">
            <stop stop-color="#09005D"/>
            <stop offset="1" stop-color="#1A0F91"/>
        </linearGradient>
        <linearGradient id="O" x1="254554" y1="-4430.22" x2="254577" y2="-4110.2" gradientUnits="userSpaceOnUse">
            <stop stop-color="#09005D"/>
            <stop offset="1" stop-color="#1A0F91"/>
        </linearGradient>
        <linearGradient id="P" x1="76603.5" y1="3416.47" x2="76633.1" y2="3219.75" gradientUnits="userSpaceOnUse">
            <stop stop-color="#FF928E"/>
            <stop offset="1" stop-color="#FEB3B1"/>
        </linearGradient>
        <linearGradient id="Q" x1="140243" y1="-4839.09" x2="140288" y2="-4503.67" gradientUnits="userSpaceOnUse">
            <stop stop-color="#09005D"/>
            <stop offset="1" stop-color="#1A0F91"/>
        </linearGradient>
        <linearGradient id="R" x1="68493" y1="3117.52" x2="68518.2" y2="2947.84" gradientUnits="userSpaceOnUse">
            <stop stop-color="#FF928E"/>
            <stop offset="1" stop-color="#FEB3B1"/>
        </linearGradient>
        <linearGradient id="S" x1="29720.3" y1="29203.7" x2="15594" y2="44729.1" gradientUnits="userSpaceOnUse">
            <stop stop-color="#4042E2"/>
            <stop offset="1" stop-color="#4F52FF"/>
        </linearGradient>
        <linearGradient id="T" x1="1256.56" y1="1269.51" x2="1004.1" y2="1333.35" gradientUnits="userSpaceOnUse">
            <stop stop-color="#4042E2"/>
            <stop offset="1" stop-color="#4F52FF"/>
        </linearGradient>
        <linearGradient id="U" x1="2443.89" y1="-1430.91" x2="1651.15" y2="-1063.65" gradientUnits="userSpaceOnUse">
            <stop stop-color="#4042E2"/>
            <stop offset="1" stop-color="#4F52FF"/>
        </linearGradient>
        <linearGradient id="V" x1="14121.9" y1="2999.32" x2="13737.5" y2="4042.36" gradientUnits="userSpaceOnUse">
            <stop stop-color="#FF928E"/>
            <stop offset="1" stop-color="#FEB3B1"/>
        </linearGradient>
        <linearGradient id="W" x1="23745.2" y1="3366.3" x2="22949.7" y2="5206.77" gradientUnits="userSpaceOnUse">
            <stop stop-color="#FF928E"/>
            <stop offset="1" stop-color="#FEB3B1"/>
        </linearGradient>
        <linearGradient id="X" x1="145594" y1="3038.96" x2="145085" y2="2719.95" gradientUnits="userSpaceOnUse">
            <stop stop-color="#FF928E"/>
            <stop offset="1" stop-color="#FEB3B1"/>
        </linearGradient>
        <linearGradient id="Y" x1="9164.29" y1="1183.73" x2="8532.91" y2="1444.9" gradientUnits="userSpaceOnUse">
            <stop stop-color="#FF928E"/>
            <stop offset="1" stop-color="#FEB3B1"/>
        </linearGradient>
        <linearGradient id="Z" x1="286091" y1="3482.87" x2="285106" y2="3482.87" gradientUnits="userSpaceOnUse">
            <stop stop-color="#09005D"/>
            <stop offset="1" stop-color="#1A0F91"/>
        </linearGradient>
        <linearGradient id="aa" x1="52693.4" y1="1024.76" x2="52507.7" y2="892.478" gradientUnits="userSpaceOnUse">
            <stop stop-color="#FF928E"/>
            <stop offset="1" stop-color="#FEB3B1"/>
        </linearGradient>
        <linearGradient id="ab" x1="12696.3" y1="-3341.14" x2="9997.62" y2="-665.129" gradientUnits="userSpaceOnUse">
            <stop stop-color="#4042E2"/>
            <stop offset="1" stop-color="#4F52FF"/>
        </linearGradient>
        <linearGradient id="ac" x1="-136143" y1="6045.19" x2="-135945" y2="6410.83" gradientUnits="userSpaceOnUse">
            <stop stop-color="#09005D"/>
            <stop offset="1" stop-color="#1A0F91"/>
        </linearGradient>
        <linearGradient id="ad" x1="251.992" y1="245.97" x2="244.129" y2="245.97" gradientUnits="userSpaceOnUse">
            <stop stop-color="#FEBBBA"/>
            <stop offset="1" stop-color="#FF928E"/>
        </linearGradient>
        <linearGradient id="ae" x1="-389471" y1="18257.2" x2="-392290" y2="15127.1" gradientUnits="userSpaceOnUse">
            <stop stop-color="#09005D"/>
            <stop offset="1" stop-color="#1A0F91"/>
        </linearGradient>
        <linearGradient id="af" x1="7118.54" y1="5460.83" x2="7748.52" y2="5460.83" gradientUnits="userSpaceOnUse">
            <stop stop-color="#09005D"/>
            <stop offset="1" stop-color="#1A0F91"/>
        </linearGradient>
        <linearGradient id="ag" x1="63381.4" y1="3138.68" x2="63456.1" y2="3138.68" gradientUnits="userSpaceOnUse">
            <stop stop-color="#FEBBBA"/>
            <stop offset="1" stop-color="#FF928E"/>
        </linearGradient>
        <linearGradient id="ah" x1="-400039" y1="25434.7" x2="-400330" y2="19081.2" gradientUnits="userSpaceOnUse">
            <stop stop-color="#09005D"/>
            <stop offset="1" stop-color="#1A0F91"/>
        </linearGradient>
        <linearGradient id="ai" x1="-179230" y1="1709.56" x2="-178861" y2="4859.47" gradientUnits="userSpaceOnUse">
            <stop stop-color="#4042E2"/>
            <stop offset="1" stop-color="#4F52FF"/>
        </linearGradient>
        <linearGradient id="aj" x1="221911" y1="2538.28" x2="221834" y2="3465.66" gradientUnits="userSpaceOnUse">
            <stop stop-color="#FEBBBA"/>
            <stop offset="1" stop-color="#FF928E"/>
        </linearGradient>
        <linearGradient id="ak" x1="-485389" y1="3885.46" x2="-484495" y2="11891.1" gradientUnits="userSpaceOnUse">
            <stop stop-color="#4042E2"/>
            <stop offset="1" stop-color="#4F52FF"/>
        </linearGradient>
        <linearGradient id="al" x1="145925" y1="2976" x2="146324" y2="2976" gradientUnits="userSpaceOnUse">
            <stop stop-color="#FEBBBA"/>
            <stop offset="1" stop-color="#FF928E"/>
        </linearGradient>
        <linearGradient id="am" x1="-270174" y1="2970.19" x2="-269161" y2="9335.72" gradientUnits="userSpaceOnUse">
            <stop stop-color="#4042E2"/>
            <stop offset="1" stop-color="#4F52FF"/>
        </linearGradient>
        <linearGradient id="an" x1="289.046" y1="125.025" x2="285.864" y2="140.46" gradientUnits="userSpaceOnUse">
            <stop stop-color="#4042E2"/>
            <stop offset="1" stop-color="#3F42CC"/>
        </linearGradient>
        <linearGradient id="ao" x1="450572" y1="3885.16" x2="450003" y2="7126.11" gradientUnits="userSpaceOnUse">
            <stop stop-color="#FEBBBA"/>
            <stop offset="1" stop-color="#FF928E"/>
        </linearGradient>
        <linearGradient id="ap" x1="-317910" y1="54164.7" x2="-317461" y2="54876" gradientUnits="userSpaceOnUse">
            <stop stop-color="#FEBBBA"/>
            <stop offset="1" stop-color="#FF928E"/>
        </linearGradient>
        <linearGradient id="aq" x1="-494847" y1="175227" x2="-494775" y2="176104" gradientUnits="userSpaceOnUse">
            <stop stop-color="#09005D"/>
            <stop offset="1" stop-color="#1A0F91"/>
        </linearGradient>
        <linearGradient id="ar" x1="-60548.6" y1="-2954.46" x2="-60399.4" y2="-2730.77" gradientUnits="userSpaceOnUse">
            <stop stop-color="#FEBBBA"/>
            <stop offset="1" stop-color="#FF928E"/>
        </linearGradient>
        <linearGradient id="as" x1="56264.3" y1="-1077.69" x2="56106.2" y2="-447.649" gradientUnits="userSpaceOnUse">
            <stop stop-color="#09005D"/>
            <stop offset="1" stop-color="#1A0F91"/>
        </linearGradient>
        <linearGradient id="at" x1="74224.9" y1="7669.69" x2="73137.9" y2="9477.56" gradientUnits="userSpaceOnUse">
            <stop stop-color="#09005D"/>
            <stop offset="1" stop-color="#1A0F91"/>
        </linearGradient>
        <linearGradient id="au" x1="203.058" y1="151.718" x2="192.286" y2="167.951" gradientUnits="userSpaceOnUse">
            <stop stop-color="#53D8FF"/>
            <stop offset="1" stop-color="#3840F7"/>
        </linearGradient>
        <linearGradient id="av" x1="341907" y1="1932.6" x2="341908" y2="1835.33" gradientUnits="userSpaceOnUse">
            <stop stop-color="#4042E2"/>
            <stop offset="1" stop-color="#4F52FF"/>
        </linearGradient>
        <clipPath id="a">
            <path fill="#fff" d="M0 0h410.646v270H0z"/>
        </clipPath>
    </defs>
</svg>
