<svg width="384" height="255" fill="none" xmlns="http://www.w3.org/2000/svg">
    <rect width="384" height="255" rx="12" fill="#EBF3FF"/>
    <path d="M348 213.558H40v.154h308v-.154zM317.138 223.47h-20.402v.154h20.402v-.154zM244.033 225.146h-5.353v.154h5.353v-.154zM296.12 217.753h-11.821v.154h11.821v-.154zM98.92 218.788H72.314v.154H98.92v-.154zM108.307 218.788h-3.899v.154h3.899v-.154zM178.691 221.388h-57.707v.154h57.707v-.154zM185.992 186.085H67.048a3.517 3.517 0 0 1-3.51-3.518v-167.2a3.517 3.517 0 0 1 3.51-3.487h118.944a3.518 3.518 0 0 1 3.517 3.517v167.17a3.517 3.517 0 0 1-3.517 3.518zM67.048 12.003a3.363 3.363 0 0 0-3.357 3.363v167.201a3.362 3.362 0 0 0 3.357 3.364h118.944a3.372 3.372 0 0 0 3.363-3.364v-167.2a3.369 3.369 0 0 0-3.363-3.364H67.048zM319.238 186.085H200.289a3.524 3.524 0 0 1-3.518-3.518v-167.2a3.526 3.526 0 0 1 3.518-3.487h118.949a3.518 3.518 0 0 1 3.505 3.486v167.201a3.516 3.516 0 0 1-3.505 3.518zM200.289 12.003a3.37 3.37 0 0 0-3.364 3.363v167.201c.002.892.357 1.746.987 2.377.631.63 1.485.985 2.377.987h118.949a3.374 3.374 0 0 0 2.377-.987c.63-.631.985-1.485.987-2.377v-167.2a3.373 3.373 0 0 0-3.364-3.364H200.289z" fill="#EBEBEB"/>
    <path d="M217.088 140.729h-89.363v56.844h89.363v-56.844z" fill="#DBE3FF"/>
    <path d="M217.088 140.729h-89.363v3.85h89.363v-3.85z" fill="#ADBEE6"/>
    <path d="M214.599 143.815a1.158 1.158 0 1 0 .001-2.317 1.158 1.158 0 0 0-.001 2.317zM210.742 143.815a1.157 1.157 0 1 0 .001-2.315 1.157 1.157 0 0 0-.001 2.315zM206.887 143.815a1.158 1.158 0 1 0 0-2.316 1.158 1.158 0 0 0 0 2.316z" fill="#BDD0FB"/>
    <path d="M267.002 156.615h-89.363v56.845h89.363v-56.845z" fill="#DBE3FF"/>
    <path d="M267.002 156.615h-89.363v3.85h89.363v-3.85z" fill="#ADBEE6"/>
    <path d="M265.672 158.537a1.158 1.158 0 1 1-2.319.002 1.158 1.158 0 0 1 2.319-.002zM261.816 158.537a1.158 1.158 0 1 1-2.315 0 1.158 1.158 0 0 1 2.315 0zM257.959 158.537a1.155 1.155 0 0 1-.723 1.073 1.154 1.154 0 0 1-1.575-.866 1.156 1.156 0 0 1 1.17-1.365 1.158 1.158 0 0 1 1.128 1.158z" fill="#FAFAFA"/>
    <path d="M203.375 31.524h-.221c.098-.53.15-1.068.154-1.608a8.87 8.87 0 0 0-8.871-8.864h-.068a6.778 6.778 0 0 0-9.425-2.358 6.773 6.773 0 0 0-2.433 2.61 7.383 7.383 0 0 0-1.891-.252 7.455 7.455 0 0 0-7.447 7.177 6.779 6.779 0 0 0-2.352 7.535 6.78 6.78 0 0 0 6.38 4.65 6.68 6.68 0 0 0 1.621-.204h23.223a4.447 4.447 0 1 0 1.33-8.692v.006zM274.504 49.006h-.172a6.7 6.7 0 0 0 .117-1.232 6.775 6.775 0 0 0-6.776-6.776h-.05a5.178 5.178 0 0 0-7.218-1.813 5.183 5.183 0 0 0-1.862 2.004 5.67 5.67 0 0 0-6.509 2.849 5.683 5.683 0 0 0-.642 2.455 5.169 5.169 0 0 0 4.509 9.123h17.457a3.408 3.408 0 0 0 4.448-4.092 3.406 3.406 0 0 0-3.296-2.518h-.006zM134.057 53.934h-.173c.077-.406.117-.819.117-1.232a6.779 6.779 0 0 0-6.776-6.776h-.049a5.18 5.18 0 0 0-9.08.19 5.675 5.675 0 0 0-7.152 5.305 5.167 5.167 0 0 0 .046 8.35 5.17 5.17 0 0 0 4.464.773h17.457a3.405 3.405 0 1 0 1.152-6.61h-.006z" fill="#DBE3FF"/>
    <path d="m88.53 191.616-.777-1.096a1.481 1.481 0 0 0-1.232-.616h-5.433a1.307 1.307 0 0 0-1.133.616l-.616 1.078a1.321 1.321 0 0 1-1.134.616h-3.289a1.307 1.307 0 0 0-.973.418 1.315 1.315 0 0 0-.351.998l1.053 18.228a1.52 1.52 0 0 0 1.49 1.417h25.817a1.313 1.313 0 0 0 1.254-.881c.06-.172.084-.354.071-.536l-1.06-18.191a1.506 1.506 0 0 0-1.484-1.417H89.737a1.506 1.506 0 0 1-1.207-.634z" fill="#ADBEE6"/>
    <path d="M103.312 193.988H79.657a1.98 1.98 0 0 0-1.94 1.768l-1.423 15.788a1.601 1.601 0 0 0 1.626 1.768H101.6a1.99 1.99 0 0 0 1.947-1.768l1.423-15.788a1.595 1.595 0 0 0-1.657-1.768z" fill="#BDD0FB"/>
    <path d="m297.31 191.875-.77-1.078a1.503 1.503 0 0 0-1.232-.616h-5.458a1.297 1.297 0 0 0-1.133.616l-.653 1.078a1.308 1.308 0 0 1-1.134.616h-3.258a1.322 1.322 0 0 0-1.325 1.417l1.06 18.227a1.51 1.51 0 0 0 1.485 1.417h25.841a1.322 1.322 0 0 0 1.253-.881 1.3 1.3 0 0 0 .071-.536l-1.053-18.227a1.524 1.524 0 0 0-1.491-1.417h-10.996a1.502 1.502 0 0 1-1.207-.616z" fill="#ADBEE6"/>
    <path d="M312.093 194.247h-23.648a1.982 1.982 0 0 0-1.947 1.768l-1.423 15.788a1.604 1.604 0 0 0 1.626 1.768h23.649a1.99 1.99 0 0 0 1.946-1.768l1.423-15.788a1.595 1.595 0 0 0-1.626-1.768z" fill="#BDD0FB"/>
    <path d="m222.952 177.146-.776-1.078a1.485 1.485 0 0 0-1.232-.616h-5.458a1.316 1.316 0 0 0-1.133.616l-.641 1.078a1.315 1.315 0 0 1-1.133.616h-3.259a1.322 1.322 0 0 0-1.253.881 1.302 1.302 0 0 0-.071.536l1.053 18.228a1.521 1.521 0 0 0 1.491 1.416h25.81a1.296 1.296 0 0 0 .975-.416 1.319 1.319 0 0 0 .35-1l-1.054-18.228a1.506 1.506 0 0 0-1.484-1.417h-10.996a1.501 1.501 0 0 1-1.189-.616z" fill="#ADBEE6"/>
    <path d="M237.736 179.518h-23.654a1.98 1.98 0 0 0-1.941 1.768l-1.423 15.788a1.607 1.607 0 0 0 .412 1.253 1.601 1.601 0 0 0 1.215.515h23.648a1.994 1.994 0 0 0 1.946-1.768l1.399-15.795a1.59 1.59 0 0 0-1.602-1.761z" fill="#BDD0FB"/>
    <path d="M193.999 241.377c65.963 0 119.436-3.122 119.436-6.973s-53.473-6.973-119.436-6.973c-65.963 0-119.436 3.122-119.436 6.973s53.473 6.973 119.436 6.973z" fill="#DBE3FF"/>
    <path d="M139.564 56.238H78.161a1.46 1.46 0 0 0-1.46 1.46v107.283c0 .806.654 1.46 1.46 1.46h61.403a1.46 1.46 0 0 0 1.46-1.46V57.698a1.46 1.46 0 0 0-1.46-1.46z" fill="#013B81"/>
    <path opacity=".7" d="M139.564 56.238H78.161a1.46 1.46 0 0 0-1.46 1.46v107.283c0 .806.654 1.46 1.46 1.46h61.403a1.46 1.46 0 0 0 1.46-1.46V57.698a1.46 1.46 0 0 0-1.46-1.46z" fill="#fff"/>
    <path d="M93.185 70.203H81.068v1.645h12.117v-1.645zM93.185 73.9H81.068v1.644h12.117V73.9zM136.33 70.203h-12.117v1.645h12.117v-1.645zM113.742 62.596h-12.117v1.644h12.117v-1.644zM136.33 59.725H81.068v1.644h55.262v-1.644zM136.324 79.024H87.228v1.645h49.096v-1.645zM136.33 82.308H81.068v1.644h55.262v-1.644zM136.33 85.597H81.068v1.644h55.262v-1.644zM136.33 88.88H81.068v1.645h55.262V88.88zM130.164 92.163H81.068v1.645h49.096v-1.645zM136.324 98.133H87.228v1.645h49.096v-1.645zM136.33 101.416H81.068v1.645h55.262v-1.645zM136.33 104.705H81.068v1.645h55.262v-1.645zM136.33 107.988H81.068v1.645h55.262v-1.645zM130.164 111.271H81.068v1.645h49.096v-1.645zM136.324 117.24H87.228v1.645h49.096v-1.645zM136.33 120.523H81.068v1.645h55.262v-1.645zM136.33 123.813H81.068v1.645h55.262v-1.645zM136.33 127.097H81.068v1.644h55.262v-1.644zM130.164 130.38H81.068v1.645h49.096v-1.645zM136.324 136.965H87.228v1.645h49.096v-1.645zM136.33 140.248H81.068v1.645h55.262v-1.645zM136.33 143.538H81.068v1.645h55.262v-1.645zM136.33 146.821H81.068v1.645h55.262v-1.645zM130.164 150.104H81.068v1.645h49.096v-1.645zM136.33 159.578h-12.117v1.645h12.117v-1.645z" fill="#013B81"/>
    <g opacity=".2" fill="#fff">
        <path opacity=".2" d="M93.185 70.203H81.068v1.645h12.117v-1.645zM93.185 73.898H81.068v1.645h12.117v-1.645zM136.33 70.203h-12.117v1.645h12.117v-1.645zM113.742 62.595h-12.117v1.644h12.117v-1.644zM136.33 59.725H81.068v1.644h55.262v-1.644zM136.324 79.023H87.228v1.645h49.096v-1.645zM136.33 82.308H81.068v1.644h55.262v-1.644zM136.33 85.597H81.068v1.644h55.262v-1.644zM136.33 88.88H81.068v1.645h55.262V88.88zM130.164 92.163H81.068v1.645h49.096v-1.645zM136.324 98.133H87.228v1.645h49.096v-1.645zM136.33 101.416H81.068v1.645h55.262v-1.645zM136.33 104.705H81.068v1.645h55.262v-1.645zM136.33 107.988H81.068v1.645h55.262v-1.645zM130.164 111.271H81.068v1.645h49.096v-1.645zM136.324 117.24H87.228v1.645h49.096v-1.645zM136.33 120.523H81.068v1.645h55.262v-1.645zM136.33 123.813H81.068v1.645h55.262v-1.645zM136.33 127.097H81.068v1.644h55.262v-1.644zM130.164 130.38H81.068v1.645h49.096v-1.645zM136.324 136.965H87.228v1.645h49.096v-1.645zM136.33 140.248H81.068v1.645h55.262v-1.645zM136.33 143.538H81.068v1.645h55.262v-1.645zM136.33 146.821H81.068v1.645h55.262v-1.645zM130.164 150.104H81.068v1.645h49.096v-1.645zM136.33 159.578h-12.117v1.645h12.117v-1.645z"/>
    </g>
    <path opacity=".1" d="M142.645 141.425h-34.25c-.806 0-1.459.653-1.459 1.46v27.96c0 .806.653 1.46 1.459 1.46h34.25a1.46 1.46 0 0 0 1.46-1.46v-27.96a1.46 1.46 0 0 0-1.46-1.46z" fill="#000"/>
    <path d="M147.229 147.271h-34.25a1.46 1.46 0 0 0-1.459 1.46v27.961c0 .806.653 1.46 1.459 1.46h34.25a1.46 1.46 0 0 0 1.46-1.46v-27.961a1.46 1.46 0 0 0-1.46-1.46z" fill="#013B81"/>
    <path opacity=".3" d="M147.229 147.271h-34.25a1.46 1.46 0 0 0-1.459 1.46v27.961c0 .806.653 1.46 1.459 1.46h34.25a1.46 1.46 0 0 0 1.46-1.46v-27.961a1.46 1.46 0 0 0-1.46-1.46z" fill="#fff"/>
    <path d="M122.544 165.265h-7.392v3.696h7.392v-3.696zM144.104 165.265H123.16v3.696h20.944v-3.696zM122.544 160.337h-7.392v4.312h7.392v-4.312zM122.544 156.024h-7.392v3.696h7.392v-3.696zM144.104 160.337H123.16v4.312h20.944v-4.312zM144.104 169.577H123.16v4.312h20.944v-4.312zM144.104 156.024H123.16v3.696h20.944v-3.696zM122.544 169.577h-7.392v4.312h7.392v-4.312zM122.544 151.097h-7.392v4.312h7.392v-4.312zM144.104 151.097H123.16v4.312h20.944v-4.312z" fill="#013B81"/>
    <path opacity=".1" d="M153.284 88.03h-34.25a1.46 1.46 0 0 0-1.46 1.46v27.96c0 .807.654 1.46 1.46 1.46h34.25a1.46 1.46 0 0 0 1.46-1.46V89.49a1.46 1.46 0 0 0-1.46-1.46z" fill="#000"/>
    <path d="M160.165 86.57h-34.25a1.46 1.46 0 0 0-1.46 1.46v27.96c0 .807.654 1.46 1.46 1.46h34.25a1.46 1.46 0 0 0 1.46-1.46V88.03a1.46 1.46 0 0 0-1.46-1.46z" fill="#013B81"/>
    <path opacity=".3" d="M160.165 86.57h-34.25a1.46 1.46 0 0 0-1.46 1.46v27.96c0 .807.654 1.46 1.46 1.46h34.25a1.46 1.46 0 0 0 1.46-1.46V88.03a1.46 1.46 0 0 0-1.46-1.46z" fill="#fff"/>
    <path d="M157.658 90.728h-9.24v4.313h9.24v-4.313zM147.801 90.728h-9.24v4.313h9.24v-4.313zM147.801 95.041h-9.24v18.48h9.24v-18.48zM157.658 95.041h-9.24v18.48h9.24v-18.48zM137.945 90.728h-9.24v4.313h9.24v-4.313zM137.945 95.041h-9.24v18.48h9.24v-18.48z" fill="#013B81"/>
    <path opacity=".1" d="M164.926 120.438h-34.249a1.46 1.46 0 0 0-1.46 1.46v27.961c0 .806.653 1.46 1.46 1.46h34.249a1.46 1.46 0 0 0 1.46-1.46v-27.961a1.46 1.46 0 0 0-1.46-1.46z" fill="#000"/>
    <path d="M177.413 118.461h-34.25a1.46 1.46 0 0 0-1.46 1.46v27.96c0 .806.654 1.46 1.46 1.46h34.25a1.46 1.46 0 0 0 1.46-1.46v-27.96a1.46 1.46 0 0 0-1.46-1.46z" fill="#013B81"/>
    <path opacity=".3" d="M177.413 118.461h-34.25a1.46 1.46 0 0 0-1.46 1.46v27.96c0 .806.654 1.46 1.46 1.46h34.25a1.46 1.46 0 0 0 1.46-1.46v-27.96a1.46 1.46 0 0 0-1.46-1.46z" fill="#fff"/>
    <path d="M174.904 122.761h-14.168v10.472h14.168v-10.472zM160.121 122.761h-14.168v10.472h14.168v-10.472zM160.121 133.849h-14.168v11.704h14.168v-11.704zM174.904 133.849h-14.168v11.704h14.168v-11.704z" fill="#013B81"/>
    <path opacity=".2" d="M178.601 119.92v20.704h-12.77a2.556 2.556 0 0 1-2.63-2.747v-19.429h14.211c.807 0 1.189.666 1.189 1.472z" fill="#000"/>
    <path opacity=".1" d="M165.702 58.998h-34.25a1.46 1.46 0 0 0-1.46 1.46v27.96c0 .806.654 1.46 1.46 1.46h34.25a1.46 1.46 0 0 0 1.46-1.46v-27.96a1.46 1.46 0 0 0-1.46-1.46z" fill="#000"/>
    <path d="M171.868 53.448h-34.25a1.46 1.46 0 0 0-1.46 1.46v27.96c0 .807.654 1.46 1.46 1.46h34.25a1.46 1.46 0 0 0 1.46-1.46v-27.96a1.46 1.46 0 0 0-1.46-1.46z" fill="#013B81"/>
    <path opacity=".3" d="M171.868 53.448h-34.25a1.46 1.46 0 0 0-1.46 1.46v27.96c0 .807.654 1.46 1.46 1.46h34.25a1.46 1.46 0 0 0 1.46-1.46v-27.96a1.46 1.46 0 0 0-1.46-1.46z" fill="#fff"/>
    <path d="M162.585 57.465h-11.704v3.08h11.704v-3.08zM156.425 61.161h-5.544v19.096h5.544V61.161zM169.361 57.465h-6.16v3.08h6.16v-3.08zM169.361 61.161h-6.16v19.096h6.16V61.161zM162.585 61.161h-5.544v19.096h5.544V61.161zM150.264 61.161h-9.856v19.096h9.856V61.161zM150.264 57.465h-9.856v3.08h9.856v-3.08zM274.136 125.648h-41.938a2.901 2.901 0 0 0-2.901 2.902v41.937a2.901 2.901 0 0 0 2.901 2.901h41.938a2.901 2.901 0 0 0 2.901-2.901V128.55a2.901 2.901 0 0 0-2.901-2.902z" fill="#013B81"/>
    <path opacity=".25" d="M271.001 131.889h-35.47v35.266h35.47v-35.266z" fill="#fff"/>
    <path opacity=".25" d="m235.531 167.111 9.031-7.422 2.95 2.377 9.351-7.897 4.596 4.522 9.542-8.008v16.428h-35.47z" fill="#fff"/>
    <path opacity=".25" d="m235.531 167.112 7.645-14.34 8.932 1.392 6.677-8.723 6.875 1.238 5.341-5.334v25.767h-35.47z" fill="#fff"/>
    <path opacity=".25" d="m235.531 167.112 17.636-2.181 5.717-2.858 6.16.616 5.957-2.969v7.392h-35.47z" fill="#fff"/>
    <path opacity=".2" d="M272.231 125.84v4.928a3.213 3.213 0 0 1-3.08 3.08h-34.496v14.464a2.937 2.937 0 0 1-3.08 2.784h-2.464V128.55c0-1.601 1.479-2.71 3.08-2.71h40.04z" fill="#000"/>
    <path d="M215.991 85.11h-41.937a2.902 2.902 0 0 0-2.902 2.9v41.938a2.901 2.901 0 0 0 2.902 2.901h41.937a2.901 2.901 0 0 0 2.901-2.901V88.011a2.901 2.901 0 0 0-2.901-2.902z" fill="#013B81"/>
    <path opacity=".8" d="M201.091 90.093h-12.327a.535.535 0 0 0-.535.536v6.954c0 .296.239.536.535.536h12.327c.296 0 .535-.24.535-.536V90.63a.535.535 0 0 0-.535-.536z" fill="#fff"/>
    <path opacity=".6" d="M191.684 107.359h-9.763a.536.536 0 0 0-.536.536v5.058c0 .296.24.536.536.536h9.763c.296 0 .536-.24.536-.536v-5.058a.536.536 0 0 0-.536-.536zM208.124 107.359h-9.764a.536.536 0 0 0-.536.536v5.058c0 .296.24.536.536.536h9.764c.296 0 .536-.24.536-.536v-5.058a.536.536 0 0 0-.536-.536z" fill="#fff"/>
    <path opacity=".4" d="M198.017 120.326h-4.614a.536.536 0 0 0-.536.536v4.164c0 .296.24.536.536.536h4.614c.296 0 .536-.24.536-.536v-4.164a.536.536 0 0 0-.536-.536zM205.236 120.326h-4.614a.536.536 0 0 0-.536.536v4.164c0 .296.24.536.536.536h4.614c.296 0 .536-.24.536-.536v-4.164a.536.536 0 0 0-.536-.536zM212.462 120.326h-4.614a.536.536 0 0 0-.536.536v4.164c0 .296.24.536.536.536h4.614c.296 0 .536-.24.536-.536v-4.164a.536.536 0 0 0-.536-.536zM181.304 120.326h-4.614a.536.536 0 0 0-.536.536v4.164c0 .296.24.536.536.536h4.614c.296 0 .536-.24.536-.536v-4.164a.536.536 0 0 0-.536-.536zM189.14 120.326h-4.614a.536.536 0 0 0-.536.536v4.164c0 .296.24.536.536.536h4.614c.296 0 .536-.24.536-.536v-4.164a.536.536 0 0 0-.536-.536z" fill="#fff"/>
    <g opacity=".3" fill="#fff">
        <path opacity=".3" d="M202.623 107.359h.616v-4.312h-8.008v-4.928h-.616v4.928h-8.008v4.312h.616v-3.696h15.4v3.696zM186.608 117.216H178.6v3.08h.616v-2.464h7.392v2.464h.616v-6.776h-.616v3.696zM203.24 117.832v-4.312h-.616v4.312h-7.392v2.464h.616v-1.848h6.776v1.848h.616v-1.848h6.776v1.848h.616v-2.464h-7.392z"/>
    </g>
    <path opacity=".2" d="M218.64 88.011v13.805h-33.837a3.234 3.234 0 0 1-3.123-3.08V85.184h34.317a2.627 2.627 0 0 1 2.501 1.757c.121.343.169.707.142 1.07z" fill="#000"/>
    <path d="M281.454 64.356h-41.937a2.902 2.902 0 0 0-2.902 2.902v41.937a2.901 2.901 0 0 0 2.902 2.901h41.937a2.901 2.901 0 0 0 2.901-2.901V67.258a2.901 2.901 0 0 0-2.901-2.902z" fill="#013B81"/>
    <path opacity=".25" d="M278.219 70.59H242.75v35.267h35.469V70.591z" fill="#fff"/>
    <path opacity=".35" d="M249.946 92.268h-3.573v9.159h3.573v-9.16z" fill="#fff"/>
    <path opacity=".35" d="M249.946 92.268h-3.573v13.589h3.573v-13.59zM256.106 85.849h-3.573v13.484h3.573V85.849z" fill="#fff"/>
    <path opacity=".35" d="M256.106 85.849h-3.573v20.007h3.573V85.849zM262.272 89.797h-3.573v10.823h3.573V89.797z" fill="#fff"/>
    <path opacity=".35" d="M262.272 89.797h-3.573v16.059h3.573v-16.06zM268.436 84.253h-3.573v14.562h3.573V84.253z" fill="#fff"/>
    <path opacity=".35" d="M268.436 84.253h-3.573v21.603h3.573V84.253zM274.596 75.783h-3.573V96.05h3.573V75.783z" fill="#fff"/>
    <path opacity=".35" d="M274.596 75.783h-3.573v30.073h3.573V75.783z" fill="#fff"/>
    <path opacity=".2" d="M249.44 64.24v26.118a2.906 2.906 0 0 1-2.975 2.833h-9.961v-25.94a3.079 3.079 0 0 1 3.006-3.012h9.93z" fill="#000"/>
    <path d="M242.085 31.616h-41.938a2.901 2.901 0 0 0-2.901 2.902v41.937a2.901 2.901 0 0 0 2.901 2.901h41.938a2.901 2.901 0 0 0 2.901-2.901V34.518a2.901 2.901 0 0 0-2.901-2.902z" fill="#013B81"/>
    <path opacity=".25" d="M236.577 57.996c1.385-8.533-4.41-16.573-12.943-17.958-8.533-1.385-16.573 4.41-17.958 12.942-1.385 8.533 4.409 16.574 12.942 17.959 8.533 1.385 16.573-4.41 17.959-12.943z" fill="#fff"/>
    <path opacity=".25" d="m221.104 55.486 15.4 2.92a15.656 15.656 0 0 1-11.473 12.232 15.652 15.652 0 1 1-3.927-30.81v15.658z" fill="#fff"/>
    <path opacity=".25" d="M221.105 55.486v15.652a15.656 15.656 0 0 1-15.328-15.676 15.66 15.66 0 0 1 15.371-15.635l-.043 15.659z" fill="#fff"/>
    <path opacity=".25" d="m221.104 55.486-8.249-13.305a15.39 15.39 0 0 1 3.937-1.744 15.59 15.59 0 0 1 4.262-.616l.05 15.665z" fill="#fff"/>
    <path d="M303.802 86.416s8.316 14.575 8.932 18.067c.616 3.493-7.084 25.823-7.084 25.823s1.694 5.877-.154 6.868c-1.848.992-5.076 2.988-5.544 1.294-.468-1.694 0-7.281 0-7.281l1.392-1.189s4.928-23.334 4.928-24.141c0-.807-8.938-14.568-8.938-14.568l6.468-4.873zM273.145 228.731l-4.996.524-.252-2.895-.684-7.879 4.996-.53.757 8.704.179 2.076zM298.08 228.097h-4.842l-.043-1.097-.006-.135-.246-7.023-.007-.141-.098-2.692h4.848l.394 11.088z" fill="#E4897B"/>
    <path opacity=".2" d="m272.209 217.951.757 8.704-5.069-.295-.684-7.879 4.996-.53zM298.048 227.48h-.006l-4.848-.616h-.006l-.252-6.776h.006l4.854.388.246 6.788.006.216z" fill="#000"/>
    <path d="m309.364 93.396-8.334 5.667-.16-.204-5.058-6.59-3.08-4.042 4.577-12.443c5.261 2.008 12.055 17.612 12.055 17.612z" fill="#263238"/>
    <path opacity=".2" d="m300.87 98.859-5.058-6.591 4.06-6.228s2.482 6.431.998 12.819z" fill="#000"/>
    <path d="M292.56 227.807h5.883a.419.419 0 0 1 .413.333l.954 4.312a.728.728 0 0 1-.152.596.718.718 0 0 1-.556.266c-1.903-.031-3.289-.148-5.68-.148-1.472 0-5.913.154-7.946.154-2.033 0-2.298-2.008-1.466-2.193 3.733-.813 6.542-1.94 7.737-3.012.221-.204.512-.314.813-.308zM267.619 227.653h5.882a.42.42 0 0 1 .413.332l.955 4.312a.733.733 0 0 1-.152.597.74.74 0 0 1-.556.266c-1.904-.031-3.29-.148-5.68-.148-1.472 0-5.914.154-7.946.154-2.033 0-2.298-2.008-1.466-2.193 3.733-.813 6.541-1.941 7.737-3.012.221-.204.512-.315.813-.308z" fill="#263238"/>
    <path d="M266.757 225.632h7.102s-.579-61.138 7.103-81.786c.542 6.825 1.152 13.903 1.749 19.805.37 3.652.745 6.776 1.097 9.184 2.236 15.4 7.872 53.413 7.872 53.413h7.041s-.838-36.43-1.663-51.559c-.918-16.428-1.312-52.545-1.355-55.625h-25.712c-2.446 12.936-8.717 64.68-3.234 106.568z" fill="#013B81"/>
    <path opacity=".6" d="M266.757 225.632h7.102s-.579-61.138 7.103-81.786c.542 6.825 1.152 13.903 1.749 19.805.37 3.652.745 6.776 1.097 9.184 2.236 15.4 7.872 53.413 7.872 53.413h7.041s-.838-36.43-1.663-51.559c-.918-16.428-1.312-52.545-1.355-55.625h-25.712c-2.446 12.936-8.717 64.68-3.234 106.568z" fill="#fff"/>
    <path d="M279.316 64.777c.062.234.129.468.21.683a6.774 6.774 0 0 0 3.277 3.74 6.067 6.067 0 0 0 7.244-1.159c2.427-2.464 2.365-5.279 2.636-10.065a6.565 6.565 0 0 0-9.061-6.554c-4.7 1.916-5.341 9.043-4.306 13.355z" fill="#E4897B"/>
    <path opacity=".2" d="M281.922 68.657c.279.203.574.384.881.542a6.103 6.103 0 0 0 5.242.228 7.035 7.035 0 0 0-.856-1.626 9.467 9.467 0 0 0-5.267.856z" fill="#000"/>
    <path d="M291.563 74.867c-2.36 2.143-8.138 1.349-8.138 1.349s-3.609-.986-2.852-2.113c2.125-.351 3.154-1.343 3.579-2.612a6.164 6.164 0 0 0 .216-2.427 12.61 12.61 0 0 0-.179-1.355l7.14-5.316c-.931 3.517-2.076 9.942.234 12.474z" fill="#E4897B"/>
    <path d="M281.614 54.624c.05.136-.073.413-.166.727a7.029 7.029 0 0 0-.259 1.892 7.801 7.801 0 0 0 2.464 5.544 30.798 30.798 0 0 0 2.156 5.611c.078.186.201.349.358.475.212.11.453.15.69.117l4.176-.142a.845.845 0 0 0 .672-.234c.063-.12.115-.246.154-.376.375-.9 1.965-.474 2.513-1.281.159-.366.269-.751.326-1.146.345-.998 1.756-1.515 1.707-2.575-.031-.616-.616-1.17-.419-1.762.197-.591.924-.776 1.232-1.305.308-.53 0-1.232-.339-1.725a2.255 2.255 0 0 1-.53-1.707 3.85 3.85 0 0 1 .32-.653 2.277 2.277 0 0 0-.412-2.544 3.871 3.871 0 0 1-.764-.794c-.283-.536-.043-1.232-.388-1.768-.345-.536-1.054-.518-1.657-.48-.604.036-1.318 0-1.676-.457-.258-.35-.246-.85-.529-1.176-.407-.456-1.146-.333-1.719-.105-.573.228-1.201.518-1.756.265-.388-.179-.616-.573-.967-.807a1.398 1.398 0 0 0-1.645.092c-.308.265-.492.666-.843.875a2.269 2.269 0 0 1-1.67 0 1.576 1.576 0 0 0-1.608.265c-.517.616.044 1.712-.486 2.335-.302.357-.856.406-1.183.739a.948.948 0 0 0 .456 1.515c.185.037.425.05.493.222.018.077.03.155.037.234.067.24.406.253.616.173.431-.167.603-.154.646-.044z" fill="#263238"/>
    <path d="M284.644 60.76a3.09 3.09 0 0 1-1.596 2.125c-.973.413-1.613-.961-1.472-2.396.136-1.282.795-3.08 1.848-2.84 1.054.24 1.559 1.823 1.22 3.11z" fill="#E4897B"/>
    <path opacity=".2" d="M280.961 143.815c.542 6.826 1.152 13.922 1.749 19.823.875-8.519 1.947-14.593 1.947-14.593s1.004-.825 3.764-5.23c2.759-4.404 0-12.627 0-12.627.086 7.638-7.46 12.627-7.46 12.627z" fill="#000"/>
    <path d="m296.873 124.196-29.365-1.436a262.376 262.376 0 0 1 3.905-31.878 121.121 121.121 0 0 1 3.08-12.541 61.753 61.753 0 0 1 2.236-6.16s18.252 1.503 21.992 4.38c3.739 2.876-2.052 32.647-1.848 47.635z" fill="#263238"/>
    <path d="M281.559 72.667s2.79-2.193 8.008-2.076c5.217.118 5.747 2.076 5.747 2.076s5.747 2.865 1.232 7.59c-4.515 4.724-13.41-7.245-13.41-7.245l-1.577-.345z" fill="#263238"/>
    <path opacity=".25" d="M281.559 72.667s2.79-2.193 8.008-2.076c5.217.118 5.747 2.076 5.747 2.076s5.747 2.865 1.232 7.59c-4.515 4.724-13.41-7.245-13.41-7.245l-1.577-.345z" fill="#fff"/>
    <path opacity=".2" d="M277.19 78.717s-1.263 8.316-5.778 12.166c.802-4.233 1.831-8.42 3.08-12.542l2.698.376z" fill="#000"/>
    <path d="M273.427 72.285s-18.239-3.727-20.802-4.706c-2.563-.98-16.121-13.94-16.121-13.94l-2.969 2.242s10.158 13.182 15.24 16.983c5.082 3.8 22.841 9.542 22.841 9.542l1.811-10.121z" fill="#E4897B"/>
    <path d="m277.235 72.285-15.887-2.901-.407 10.977 11.871 4.823s7.484-7.509 4.423-12.899z" fill="#263238"/>
    <path d="M236.504 53.638c-1.46-1.669-6.776-5.273-7.558-5.58-.782-.309-1.916 4.404-1.688 5.02.228.616 2.84 1.922 4.158 2.076 1.318.154 2.723 1.503 2.723 1.503l2.365-3.019z" fill="#E4897B"/>
    <path d="m260.486 68.983 1.744.4-.795 11.175-1.669-.61.72-10.965z" fill="#263238"/>
    <path opacity=".25" d="m260.486 68.983 1.744.4-.795 11.175-1.669-.61.72-10.965z" fill="#fff"/>
    <path d="m299.953 98.97 9.413-6.375.646 1.626-8.969 5.642-1.09-.893z" fill="#263238"/>
    <path opacity=".25" d="m299.953 98.97 9.413-6.375.646 1.626-8.969 5.642-1.09-.893z" fill="#fff"/>
    <path d="m265.955 223.631.351 2.002h8.39v-1.848l-8.741-.154zM290.879 224.4l.801 1.848h7.041l.462-1.848h-8.304z" fill="#013B81"/>
</svg>
