<svg width="450" height="210" fill="none" xmlns="http://www.w3.org/2000/svg">
    <g clip-path="url(#a)">
        <path d="M386.117 66.175C334.959 47.25 333.505 7.303 261.146 11.788c-26.851 1.666-49.422 15.21-70.679 15.671a300.85 300.85 0 0 0-9.201-.794c-25.499-1.82-54.412-12.57-73.908-17.747C-62.147-36.231 20.725 102.329 17.182 149.7c.66 16.234-14.62 43.348-1.73 55.316 3.768 2.998 3.172 4.754 7.804 4.722 24.922-.186 53.516-.372 83.57-.532a8.816 8.816 0 0 0 3.601.532c91.879-.641 228.35-1.166 320.736-1.25 39.216-23.333 13.832-120.53-45.046-142.314z" fill="url(#b)"/>
        <path d="M299.055 18.15h-64.561v72.057h64.561V18.15z" fill="#BDD0FB"/>
        <path d="M299.638 18.15h-.583v72.057h.583V18.15zM294.275 22.93h-54.996v62.492h54.996V22.93z" fill="#ADBEE6"/>
        <path d="M284.3 65.816h-15.491v21.681H284.3v-21.68z" fill="url(#c)"/>
        <path d="M250.172 89.394h15.485l1.115-21.687h-15.485l-1.115 21.687z" fill="url(#d)"/>
        <path d="M236.686 62.543h15.485l1.115-21.68H237.8l-1.114 21.68z" fill="url(#e)"/>
        <path d="m284.805 26.115-.731 16.667 11.912.522.73-16.667-11.911-.522z" fill="url(#f)"/>
        <path d="m237.414 19.42-.73 16.668 11.911.522.731-16.667-11.912-.522z" fill="url(#g)"/>
        <path d="m284.549 45.764-.221 16.681 11.922.158.221-16.681-11.922-.158z" fill="url(#h)"/>
        <path d="m280.925 25.626-25.251.731 1.024 35.345 25.252-.732-1.025-35.344z" fill="url(#i)"/>
        <path d="M155.191 64.292h85.005a3.767 3.767 0 0 1 3.774 3.774v50.844c0 1.461-.968 2.646-2.159 2.646h-36.48v10.424h21.616a2.924 2.924 0 0 1 2.066.86c.548.548.856 1.292.856 2.068h-63.876a2.924 2.924 0 0 1 2.921-2.928h21.617v-10.424h-36.948c-1.192 0-2.159-1.185-2.159-2.646V68.066a3.763 3.763 0 0 1 2.324-3.487c.457-.19.948-.287 1.443-.287z" fill="url(#j)"/>
        <path d="M166.903 131.98h21.61v-12.334h14.806v12.334h21.61a2.934 2.934 0 0 1 2.928 2.927h-63.882a2.93 2.93 0 0 1 2.928-2.927z" fill="url(#k)"/>
        <path d="M149.406 111.888V68.066a3.773 3.773 0 0 1 3.774-3.774h85.005a3.771 3.771 0 0 1 3.774 3.774v43.822h-92.553z" fill="url(#l)"/>
        <path d="M241.959 111.888v7.047c0 1.461-.968 2.646-2.159 2.646h-88.235c-1.191 0-2.159-1.185-2.159-2.646v-7.047h92.553z" fill="url(#m)"/>
        <path d="M151.578 109.985V68.181a2.01 2.01 0 0 1 .616-1.42 2.022 2.022 0 0 1 1.441-.566h84.102a2.023 2.023 0 0 1 2.056 1.986v41.804h-88.215z" fill="#BDD0FB"/>
        <path d="M212.339 104.911h4.196V72.435h-4.196v32.476z" fill="url(#n)"/>
        <path d="M218.202 104.731h4.196v-22.57h-4.196v22.57z" fill="url(#o)"/>
        <path d="M206.393 104.917h4.197V79.476h-4.197v25.441z" fill="url(#p)"/>
        <path d="M224.063 104.725h4.197V78.284h-4.197v26.441z" fill="url(#q)"/>
        <path d="M229.927 104.731h4.196V86.132h-4.196v18.599z" fill="url(#r)"/>
        <path d="M212.339 104.911h4.196V79.733h-4.196v25.178zM218.202 104.731h4.196V87.363h-4.196v17.368zM206.393 104.911h4.197V85.153h-4.197v19.758zM224.063 104.731h4.197V84.384h-4.197v20.347zM229.927 104.725h4.196V90.412h-4.196v14.313z" fill="#739AF0"/>
        <path d="M224.249 71.108h12.833v-1.672h-12.833v1.672z" fill="url(#s)"/>
        <path d="M226.351 74.184h10.731V72.51h-10.731v1.673z" fill="url(#t)"/>
        <path d="M230.957 77.253h6.131V75.58h-6.131v1.672z" fill="url(#u)"/>
        <path d="M155.211 89.9h46.769V71.633h-46.769v18.265z" fill="#739AF0"/>
        <path d="M155.203 74.715a16.497 16.497 0 0 1 2.319.058c5.01.506 9.303 3.754 12.891 7.29.775.763 1.608 1.59 2.691 1.744 1.281.185 2.511-.641 3.479-1.544 1.691-1.55 3.523-3.518 5.804-3.249 1.627.193 2.864 1.493 4.062 2.62 1.198 1.128 2.749 2.211 4.344 1.833 1.422-.333 2.479-1.5 3.652-2.377 2.633-1.973 5.676-.135 7.528 1.66v7.15h-46.77V74.714z" fill="url(#v)"/>
        <path d="M155.203 79.079a16.482 16.482 0 0 1 2.319.057c5.01.506 9.303 3.755 12.891 7.291.775.763 1.608 1.583 2.691 1.743 1.281.186 2.511-.64 3.479-1.55 1.691-1.551 3.523-3.511 5.804-3.242 1.627.192 2.864 1.492 4.062 2.62 1.198 1.127 2.749 2.21 4.344 1.832 1.422-.34 2.479-1.499 3.652-2.377 2.633-1.973 5.676-.134 7.528 1.653V89.9h-46.77V79.079z" fill="#739AF0"/>
        <path d="M196.303 77.689h3.338v-.385h-3.338v.385z" fill="url(#w)"/>
        <path d="M196.578 78.56h3.063v-.385h-3.063v.385z" fill="url(#x)"/>
        <path d="M182.496 104.033h18.836v-2.78h-18.836v2.78z" fill="url(#y)"/>
        <path d="M155.21 95.308h24.448V92.2H155.21v3.108z" fill="url(#z)"/>
        <path d="M155.21 104.546h24.448v-3.114H155.21v3.114z" fill="url(#A)"/>
        <path d="M182.496 99.65h18.836v-.922h-18.836v.922zM182.496 97.158h18.836v-.922h-18.836v.922zM182.496 94.667h18.836v-.923h-18.836v.923zM175.039 95.308h4.619V92.2h-4.619v3.108z" fill="#739AF0"/>
        <path d="M168.318 96.82h-13.115v3.107h24.455v-3.108h-11.34z" fill="url(#B)"/>
        <path d="M174.219 104.546h5.439v-3.114h-5.439v3.114z" fill="url(#C)"/>
        <path d="M177.78 75.799h-2.639v.384h2.639V75.8z" fill="url(#D)"/>
        <path d="M178.479 76.676h-3.338v.384h3.338v-.384z" fill="url(#E)"/>
        <path d="M155.518 72.294h3.337v-.384h-3.337v.384z" fill="url(#F)"/>
        <path d="M155.525 73.165h2.248v-.384h-2.248v.384z" fill="url(#G)"/>
        <path d="m194.663 80.463 1.166-1.954-.052-.032-1.166 1.96.052.026z" fill="url(#H)"/>
        <path d="m179.973 79.047-1.172-1.954.051-.032 1.172 1.954-.051.032z" fill="url(#I)"/>
        <path d="m159.803 74.523-1.166-1.954.051-.032 1.166 1.954-.051.032z" fill="url(#J)"/>
        <path d="M84.826 165.929h160.291v-8.041H84.826v8.041z" fill="#739AF0"/>
        <path d="M107.595 207.791h1.583v-72.839h-1.583v72.839z" fill="url(#K)"/>
        <path d="M243.535 207.791h1.582v-72.839h-1.582v72.839z" fill="url(#L)"/>
        <path d="M220.968 207.791h1.583v-72.839h-1.583v72.839z" fill="url(#M)"/>
        <path d="m157.799 133.127-15.94-3.845s-5.632-7.553-11.065-14.094c-1.666 1.582-2.627 4.049-4.312 5.618l11.949 13.768a2.334 2.334 0 0 0 1.704.808l16.972.403.692-2.658z" fill="url(#N)"/>
        <path d="M168.638 134.735c.167-.257-.25-.692-.563-1.019a14.125 14.125 0 0 0-2.819-1.384c-1.559.05-3.105.287-4.607.705a4.128 4.128 0 0 1-1.954.23l-1.134-.224-.737 2.742c2.762-.032 5.651.173 5.914.167.826 0 2.351-.891 2.703-1.019a2.468 2.468 0 0 1 1.544.199c.481.224 1.884.762 2.115.64.23-.121-.462-1.037-.462-1.037z" fill="url(#O)"/>
        <path d="m158.529 132.415.679.128v3.844s-.608.167-.679.109c-.07-.058 0-4.081 0-4.081z" fill="#F4F4F4"/>
        <path d="M127.45 110.497c2.864-.429 15.037 18.414 15.037 18.414l16.196 3.414v4.28l-17.702-.717h-.071a7.05 7.05 0 0 1-3.805-1.987c-3.691-4.01-11.93-13.095-12.942-15.376-1.3-3.024.423-7.592 3.287-8.028z" fill="url(#P)"/>
        <path d="M85.029 207.791h1.582v-72.839H85.03v72.839z" fill="url(#Q)"/>
        <path d="M84.826 137.694h160.291v-2.742H84.826v2.742z" fill="#739AF0"/>
        <path d="M220.969 137.694h24.154v-2.742h-24.154v2.742zM220.969 165.929h24.154v-8.041h-24.154v8.041z" fill="#739AF0"/>
        <path d="m114.682 100.368-3.203 8.098s4.164 5.171 7.303 4.966c2.627-.173 1.647-3.78 1.647-3.78s-.327-4.767.596-7.048c.922-2.281-6.343-2.236-6.343-2.236z" fill="url(#R)"/>
        <path d="M110.44 89.278c-.211-.045-.071 9.815 2.992 12.173 3.062 2.358 8.329 2.652 9.854.34 1.678-2.563-.071-12.974-4.607-15.249-4.536-2.274-8.239 2.736-8.239 2.736z" fill="url(#S)"/>
        <path d="M116.295 81.54a11.005 11.005 0 0 0-5.478 3.888c-1.415.327-3.254 1.282-4.779 4.677-1.877 4.152.641 8.227 3.844 9.995a6.535 6.535 0 0 1 2.825 2.729l.43 1.442s4.484-1.858 5.176-2.807c.692-.948-1.729-9.168-2.069-10.379a3.898 3.898 0 0 1 .243-2.421 7.695 7.695 0 0 1 3.076-1.506c3.504-.513.679-6.868-3.268-5.619z" fill="#163560"/>
        <path d="M115.859 91.348s-3.331-5.01-4.017-7.189a2.483 2.483 0 0 0-1.588.449c-.564.506 2.075 6.624 3.427 9.008l2.178-2.268z" fill="url(#T)"/>
        <path d="M113.008 93.334a3.797 3.797 0 0 0 .171 2.191 3.787 3.787 0 1 0-.171-2.191z" fill="url(#U)"/>
        <path d="M113.451 93.43a3.787 3.787 0 1 0 7.395 1.64 3.787 3.787 0 0 0-7.395-1.64z" fill="url(#V)"/>
        <path d="M114.855 93.737a2.347 2.347 0 0 0 .947 2.436 2.354 2.354 0 0 0 3.501-.983 2.346 2.346 0 0 0-.457-2.573 2.354 2.354 0 0 0-3.624.28 2.336 2.336 0 0 0-.367.84z" fill="url(#W)"/>
        <path style="mix-blend-mode:multiply" opacity=".5" d="M118.562 94.557a2.346 2.346 0 0 0-1.358-2.659c.151.002.301.019.448.052a2.343 2.343 0 0 1 1.552 1.006 2.352 2.352 0 0 1-2.564 3.58 2.251 2.251 0 0 1-.429-.14 2.352 2.352 0 0 0 2.351-1.839z" fill="url(#X)"/>
        <path d="m120.518 198.392 2.05-5.869H117.2c-.282 3.768-.385 6.311-.385 6.311l-1.364 3.844-1.41 4.6s4.562 1.179 6.958-.147l-.263-4.562-.218-4.177z" fill="url(#Y)"/>
        <path d="M120.754 202.55a7.626 7.626 0 0 1-5.279.07l-.308.82-1.159 3.844s4.619 1.147 7.047-.179l-.301-4.555z" fill="#001333"/>
        <path d="M155.73 197.329s-1.493 3.536-.25 4.997c1.243 1.461 6.407 2.909 7.048 3.703.388.393.616.916.64 1.467l-14.473-.41.16-4.357 1.333-6.56 5.542 1.16z" fill="url(#Z)"/>
        <path d="M156.376 203.095s-3.723 1.493-5.517.602c-1.793-.89-1.742-1.134-2.261-.8-.519.333-.711 4.408-.711 4.408l16.279.493c1.134 0 1.705-.852.788-1.57a13.884 13.884 0 0 0-1.774-1.051c-1.275-.749-6.804-2.082-6.804-2.082z" fill="#001333"/>
        <path d="M129.802 146.279c1.62-.442 35.538 6.099 38.286 13.576.449 1.217-4.965 20.502-11.916 38.87l-7.381-1.134s.929-18.842 7.272-31.656c-3.742.929-23.961-3.203-27.665-6.535-4.747-4.241-.217-12.685 1.404-13.121z" fill="url(#aa)"/>
        <path d="M136.663 168.953s-10.404 21.444-12.077 25.371a41.856 41.856 0 0 0-2.146 5.888h-6.522s2.511-24.5 6.759-31.259 13.986 0 13.986 0z" fill="url(#ab)"/>
        <path d="m123.854 107.39-25.627.192c-1.954 0-3.3 1.39-2.992 3.075l9.642 53.478c.308 1.678 2.14 3.036 4.101 3.017l25.627-.186c1.96 0 3.299-1.396 2.998-3.081l-9.648-53.471c-.308-1.685-2.14-3.037-4.101-3.024z" fill="url(#ac)"/>
        <path d="M151.84 163.45h-18.894l-10.039-53.388c-.289-1.473-2.108-2.671-4.069-2.671H93.211c-1.96 0-3.312 1.198-3.024 2.671l10.892 57.713c.288 1.473 2.108 2.671 4.068 2.671h46.693c2.562 0 4.638-1.563 4.638-3.498 0-1.935-2.076-3.498-4.638-3.498z" fill="url(#ad)"/>
        <path d="M126.149 170.446h-2.678v32.995h2.678v-32.995z" fill="url(#ae)"/>
        <path d="M111.266 205.184h26.633a2.224 2.224 0 0 1 2.223 2.223.377.377 0 0 1-.115.274.383.383 0 0 1-.276.11h-30.298a.386.386 0 0 1-.272-.112.386.386 0 0 1-.112-.272 2.218 2.218 0 0 1 2.217-2.223z" fill="url(#af)"/>
        <path d="M123.267 203.44h3.261a1.734 1.734 0 0 1 1.615 1.075 1.743 1.743 0 0 1-.379 1.905 1.747 1.747 0 0 1-1.236.512h-3.261a1.75 1.75 0 0 1-1.237-2.983 1.749 1.749 0 0 1 1.237-.509z" fill="url(#ag)"/>
        <path d="M320.082 64.292h85.005a3.771 3.771 0 0 1 3.774 3.774v50.844c0 1.461-.968 2.646-2.16 2.646h-36.48v10.424h21.617a2.926 2.926 0 0 1 2.921 2.928h-63.875a2.923 2.923 0 0 1 2.908-2.928h21.617v-10.424h-36.942c-1.192 0-2.153-1.185-2.153-2.646V68.066a3.77 3.77 0 0 1 3.768-3.774z" fill="url(#ah)"/>
        <path d="M331.793 131.98h21.61v-12.334h14.806v12.334h21.61a2.925 2.925 0 0 1 2.922 2.927h-63.876a2.934 2.934 0 0 1 2.928-2.927z" fill="url(#ai)"/>
        <path d="M314.297 111.888V68.066a3.772 3.772 0 0 1 3.773-3.774h85.006a3.773 3.773 0 0 1 3.773 3.774v43.822h-92.552z" fill="url(#aj)"/>
        <path d="M406.83 111.888v7.047c0 1.461-.967 2.646-2.159 2.646h-88.215c-1.192 0-2.159-1.185-2.159-2.646v-7.047h92.533z" fill="url(#ak)"/>
        <path d="M316.494 109.985V68.181a2.022 2.022 0 0 1 2.057-1.986h84.076a2.026 2.026 0 0 1 2.057 1.986v41.804h-88.19z" fill="#BDD0FB"/>
        <path d="M333.376 69.436h-12.833v1.673h12.833v-1.672z" fill="url(#al)"/>
        <path d="M331.274 72.506h-10.731v1.672h10.731v-1.672z" fill="url(#am)"/>
        <path d="M326.674 75.574h-6.131v1.672h6.131v-1.672z" fill="url(#an)"/>
        <path d="M319.453 101.381h31.336v-4.626h-31.336v4.626z" fill="url(#ao)"/>
        <path d="M319.453 94.09h31.336v-1.531h-31.336v1.53zM319.453 89.939h31.336v-1.532h-31.336v1.532zM319.453 85.786h31.336v-1.531h-31.336v1.531zM249.716 165.929h160.292v-8.041H249.716v8.041z" fill="#739AF0"/>
        <path d="M272.48 207.791h1.582v-72.839h-1.582v72.839z" fill="url(#ap)"/>
        <path d="M408.425 207.791h1.583v-72.839h-1.583v72.839z" fill="url(#aq)"/>
        <path d="M385.861 207.791h1.582v-72.839h-1.582v72.839z" fill="url(#ar)"/>
        <path d="m322.689 133.127-15.94-3.845s-5.631-7.553-11.064-14.094c-1.666 1.582-2.627 4.049-4.312 5.618l11.942 13.768a2.356 2.356 0 0 0 1.711.808l16.972.403.691-2.658z" fill="url(#as)"/>
        <path d="M333.531 134.735c.166-.257-.25-.692-.564-1.019a14.099 14.099 0 0 0-2.819-1.384c-1.558.05-3.105.287-4.606.705a4.13 4.13 0 0 1-1.954.23l-1.134-.224-.737 2.742c2.761-.032 5.651.173 5.913.167.827 0 2.351-.891 2.704-1.019a2.47 2.47 0 0 1 1.544.199c.48.224 1.877.762 2.114.64.237-.121-.461-1.037-.461-1.037z" fill="url(#at)"/>
        <path d="m323.42 132.415.679.128v3.844s-.609.167-.679.109c-.07-.058 0-4.081 0-4.081z" fill="#BDD0FB"/>
        <path d="M292.341 110.497c2.864-.429 15.037 18.414 15.037 18.414l16.196 3.414v4.28l-17.702-.717h-.07a7.047 7.047 0 0 1-3.793-1.987c-3.69-4.01-11.929-13.095-12.942-15.376-1.313-3.024.404-7.592 3.274-8.028z" fill="url(#au)"/>
        <path d="M249.916 207.791h1.582v-72.839h-1.582v72.839z" fill="url(#av)"/>
        <path d="M249.716 137.694h160.292v-2.742H249.716v2.742z" fill="#739AF0"/>
        <path d="M385.861 137.694h24.147v-2.742h-24.147v2.742zM385.861 165.929h24.147v-8.041h-24.147v8.041z" fill="#739AF0"/>
        <path d="m279.578 100.368-3.203 8.098s4.164 5.171 7.297 4.966c2.634-.173 1.653-3.78 1.653-3.78s-.326-4.767.596-7.048c.923-2.281-6.343-2.236-6.343-2.236z" fill="url(#aw)"/>
        <path d="M275.331 89.278c-.212-.045-.071 9.815 2.992 12.173 3.062 2.358 8.328 2.652 9.853.34 1.672-2.563-.07-12.974-4.606-15.249-4.536-2.274-8.239 2.736-8.239 2.736z" fill="url(#ax)"/>
        <path d="M281.186 81.54a11.001 11.001 0 0 0-5.478 3.888c-1.416.327-3.255 1.282-4.779 4.677-1.878 4.152.64 8.227 3.844 9.995a6.54 6.54 0 0 1 2.825 2.729l.429 1.442s4.485-1.858 5.177-2.807c.692-.948-1.736-9.168-2.069-10.379a3.89 3.89 0 0 1 .243-2.421 7.685 7.685 0 0 1 3.082-1.532c3.498-.487.673-6.842-3.274-5.593z" fill="url(#ay)"/>
        <path d="M280.751 91.348s-3.332-5.01-4.023-7.189a2.49 2.49 0 0 0-1.589.449c-.558.506 2.082 6.624 3.434 9.008l2.178-2.268z" fill="url(#az)"/>
        <path d="M277.899 93.334a3.788 3.788 0 0 0 3.619 4.6 3.785 3.785 0 0 0 .898-7.483 3.78 3.78 0 0 0-4.517 2.883z" fill="url(#aA)"/>
        <path d="M278.342 93.43a3.78 3.78 0 0 0 .169 2.196 3.78 3.78 0 0 0 3.456 2.41 3.788 3.788 0 1 0-3.625-4.606z" fill="url(#aB)"/>
        <path d="M279.745 93.737a2.355 2.355 0 0 0 .948 2.436 2.35 2.35 0 1 0 1.852-4.224 2.347 2.347 0 0 0-2.8 1.788z" fill="url(#aC)"/>
        <path style="mix-blend-mode:multiply" opacity=".5" d="M283.448 94.557a2.344 2.344 0 0 0-1.351-2.659c.15.002.301.02.448.052a2.356 2.356 0 0 1 1.91 1.88 2.344 2.344 0 0 1-.399 1.805 2.347 2.347 0 0 1-2.523.902 2.228 2.228 0 0 1-.429-.141 2.346 2.346 0 0 0 2.344-1.839z" fill="url(#aD)"/>
        <path d="m285.409 198.392 2.043-5.869h-5.362a202.333 202.333 0 0 0-.384 6.311l-1.365 3.844-1.384 4.587s4.562 1.179 6.958-.147l-.269-4.562-.237-4.164z" fill="url(#aE)"/>
        <path d="M285.647 202.55a7.646 7.646 0 0 1-5.286.07l-.301.82-1.16 3.844s4.62 1.147 7.016-.179l-.269-4.555z" fill="url(#aF)"/>
        <path d="M320.621 197.329s-1.493 3.536-.25 4.997c1.243 1.461 6.406 2.909 7.047 3.703.389.393.617.916.641 1.467l-14.473-.41.16-4.357 1.333-6.56 5.542 1.16z" fill="url(#aG)"/>
        <path d="M321.268 203.095s-3.722 1.493-5.516.602c-1.794-.89-1.743-1.134-2.262-.8-.519.333-.711 4.408-.711 4.408l16.28.493c1.134 0 1.704-.852.788-1.57a13.896 13.896 0 0 0-1.775-1.051c-1.275-.749-6.804-2.082-6.804-2.082z" fill="url(#aH)"/>
        <path d="M294.712 146.279c1.621-.442 35.538 6.099 38.287 13.576.448 1.217-4.972 20.502-11.917 38.87l-7.38-1.134s.909-18.842 7.278-31.656c-3.742.929-23.962-3.203-27.671-6.535-4.748-4.241-.237-12.685 1.403-13.121z" fill="url(#aI)"/>
        <path d="M301.547 168.953s-10.398 21.444-12.076 25.371a42.046 42.046 0 0 0-2.14 5.888h-6.522s2.511-24.5 6.752-31.259c4.242-6.759 13.986 0 13.986 0z" fill="url(#aJ)"/>
        <path d="m288.747 107.39-25.627.192c-1.954 0-3.3 1.39-2.992 3.075l9.642 53.478c.308 1.678 2.14 3.036 4.094 3.017l25.627-.186c1.961 0 3.3-1.396 2.998-3.081l-9.648-53.471c-.301-1.685-2.134-3.037-4.094-3.024z" fill="url(#aK)"/>
        <path d="M316.745 163.45h-18.906l-10.04-53.388c-.288-1.473-2.114-2.671-4.068-2.671h-25.627c-1.961 0-3.313 1.198-3.024 2.671l10.891 57.713c.289 1.473 2.108 2.671 4.062 2.671h46.725c2.563 0 4.638-1.563 4.638-3.498 0-1.935-2.088-3.498-4.651-3.498z" fill="url(#aL)"/>
        <path d="M291.041 170.446h-2.678v32.995h2.678v-32.995z" fill="url(#aM)"/>
        <path d="M276.131 205.184h26.633a2.222 2.222 0 0 1 2.223 2.223.388.388 0 0 1-.391.384h-30.272a.39.39 0 0 1-.39-.384 2.22 2.22 0 0 1 2.197-2.223z" fill="url(#aN)"/>
        <path d="M288.151 203.44h3.267a1.745 1.745 0 0 1 1.235 2.979 1.746 1.746 0 0 1-1.235.513h-3.267a1.743 1.743 0 0 1-1.232-2.981 1.742 1.742 0 0 1 1.232-.511z" fill="url(#aO)"/>
        <path d="M388.61 67.95h-5.061v39.139h5.061V67.95zM381.542 79.668h-5.062v27.203h5.062V79.668zM395.772 76.427h-5.061v30.663h5.061V76.427zM374.475 75.004h-5.061v31.867h5.061V75.004zM367.409 84.447h-5.061v22.418h5.061V84.447z" fill="#739AF0"/>
        <path d="M388.61 76.746h-5.061v30.343h5.061V76.746z" fill="url(#aP)"/>
        <path d="M381.542 85.934h-5.062v20.931h5.062V85.934z" fill="url(#aQ)"/>
        <path d="M395.772 83.275h-5.061v23.814h5.061V83.275z" fill="url(#aR)"/>
        <path d="M374.475 82.346h-5.061v24.525h5.061V82.346z" fill="url(#aS)"/>
        <path d="M367.409 89.618h-5.061v17.254h5.061V89.618z" fill="url(#aT)"/>
        <path d="m361.073 107.71-1.147-.596 3.235-6.24 1.865 1.512 3.786-7.214 4.696 5.094 8.521-18.702 4.773 7.624 8.662-13.46 1.089.698-9.77 15.178-4.574-7.31-8.329 18.284-4.773-5.176-3.671 6.983-1.858-1.505-2.505 4.83z" fill="url(#aU)"/>
        <path d="m396.31 79.175-1.172-1.724-2.05-.352 4.075-2.78-.853 4.856z" fill="url(#aV)"/>
        <path d="m48.582 73.613 5.875 2.723-.48 6.689c7.764 3.395 19.098 6.182 19.098 6.182s1.063.276 2.454.526l3.786.672a10.85 10.85 0 0 0 2.999.058c.845-.083 2.306-.224 2.915 0 .378.154 1.428.513 1.992.711.564.199 1.224.397 1.512.538.296.084.602.126.91.122a.507.507 0 0 1 .32.884 2.197 2.197 0 0 1-1.345.282c-1.096 0-2.717-.64-2.71-.468.006.174 2.249 2.09 2.492 2.326.243.237 2.832 2.48 3.203 3.082.372.602.045.929-.346.826-.39-.102-4.151-2.928-4.151-2.928s-.487-.358-.461-.032c.025.327 3.478 2.91 3.92 3.39.443.48.513 1.012-.102 1.057-.75.051-4.267-2.935-4.267-2.935s-.448-.365-.525-.128c-.077.237 2.896 2.384 3.069 2.71a.488.488 0 0 1-.551.724c-.673-.089-3.787-2.787-3.787-2.787s-.294-.134-.282.052c.013.185 2.416 2.197 2.499 2.62a.325.325 0 0 1-.243.416c-.641.295-2.704-1.992-3.966-2.735-1.263-.743-2.326-2.185-3.921-2.915a17.304 17.304 0 0 0-4.26-.93l-3.473-.307c-11.257-1.05-26.146-2.8-25.5-6.483.308-1.859 2.224-10.034 3.326-13.942z" fill="url(#aW)"/>
        <path d="m57.27 195.817-.34 6.106c-.122.775-.64 2.684-.64 3.389 0 2.64 11.531-2.242 8.969-3.415-.237-.109-1.461-.909-1.538-1.806-.122-1.384-.423-4.19-.423-4.19l-6.029-.084z" fill="url(#aX)"/>
        <path d="M65.239 201.872a42.016 42.016 0 0 1-4.094 1.012c-1.39.198-3.203-1.499-4.203-1.045-1 .455-.967 5.491-.967 5.491s14.466.865 18.58-.474c1.588-.557-3.774-3.12-9.316-4.984z" fill="#001333"/>
        <path d="M78.874 89.939c.077 0 .954.288.954.288l-1.665 5.292-1.057-.186 1.768-5.394z" fill="#BDD0FB"/>
        <path d="M31.834 196.4s-.333 6.093-.34 6.106c-.122.775-.64 2.684-.64 3.389 0 2.64 11.532-2.242 8.969-3.415-.23-.102-1.826-1.505-1.922-2.402-.115-1.39-.051-3.594-.051-3.594l-6.016-.084z" fill="url(#aY)"/>
        <path d="M39.811 202.454a41.282 41.282 0 0 1-4.1 1.012c-1.39.199-3.204-1.499-4.197-1.038-1.082.5-1.127 5.055-1.127 5.055s15.466 1.141 19.105.071c1.634-.481-4.139-3.216-9.68-5.1z" fill="#001333"/>
        <path d="m55.393 112.458-5.094.09-4.062.481c-1.704-.577-10.635-1.282-17.445-.641-1.032.102-1.083 3.735-1.282 4.875-1.204 7.106 1.32 24.968 2.602 43.938.179 2.64-.141 7.784 0 10.328.884 16.273 1.48 27.331 1.48 27.331l8.252.052s2.915-36.289 2.915-42.772c0-2.377.48-9.079 1.095-16.6 4.485 10.834 8.97 22.046 8.97 23.321 0 2.562 3.844 35.269 3.844 35.269l8.232-.192.417-37.422-9.924-48.058z" fill="url(#aZ)"/>
        <path d="m34.333 44.623-1.41 9.392s5.126 11.186 8.214 10.251c2.563-.814.993-10.712.993-10.712s-1.403-5.311-.98-7.97c.423-2.659-6.817-.961-6.817-.961z" fill="url(#ba)"/>
        <path d="M33.14 31.335c-.205-.07-1.64 10.7 1.083 13.666 2.723 2.966 8.06 3.934 9.937 1.595 2.102-2.563 2-14.159-2.236-17.208-4.235-3.05-8.783 1.947-8.783 1.947z" fill="url(#bb)"/>
        <path d="M36.211 39.479c0 1.313-.57 2.39-1.32 2.403-.75.012-1.377-1.045-1.396-2.358-.02-1.314.563-2.39 1.32-2.403.755-.013 1.37 1.038 1.396 2.358z" fill="url(#bc)"/>
        <path d="M43.277 25.057a2.62 2.62 0 0 0-2.966-1.43c-2.249.462-5.978 2.448-8.765 4.774 0 0-4.863.692-4.196 5.766 0 .205.057.39.09.557a9.123 9.123 0 0 0 3.427 8.33c2.986 2.338 2.947 5.048 2.947 5.048l.468-1.41a7.944 7.944 0 0 0 .372-3.286 6.549 6.549 0 0 0-.48-1.974c-.718-1.556 1.543-2.594 2.171-3.895.493-1 .513-3.28 1.281-4.933l.923-1.282a6.771 6.771 0 0 1 2.947-1.28 3.376 3.376 0 0 0 3.991-1.398c1.455-2.377-.531-7.688-2.21-3.587z" fill="url(#bd)"/>
        <path d="M23.66 118.526a1.417 1.417 0 0 1-.122-.282c-.949-3.204-7.804-26.806-7.823-28.075 0-1.14 3.536-25.044 3.536-25.044l7.08 4.004-3.312 20.355c.134 1.025 3.293 19.931 3.293 19.931s.487 3.479.897 5.516c.352.385.692.75.98 1.045a12.38 12.38 0 0 0 1.922 1.403c.87.551 1.678 1.196 2.409 1.922.295.397.884 1.236 1.23 1.742.346.507.775 1.096.929 1.384.195.247.426.463.685.641a.526.526 0 0 1-.288.942 2.308 2.308 0 0 1-1.281-.596c-.91-.686-1.877-2.217-1.974-2.076-.096.141.583 3.133.641 3.479.058.346.827 3.844.75 4.555-.077.711-.532.801-.801.474-.27-.326-1.647-5.01-1.647-5.01s-.179-.602-.358-.32c-.18.282 1.095 4.587 1.166 5.26.07.673-.199 1.16-.737.82-.64-.423-1.743-5.125-1.743-5.125s-.147-.583-.359-.436c-.211.147.936 3.786.878 4.164a.503.503 0 0 1-.36.45.5.5 0 0 1-.543-.187c-.506-.493-1.435-4.671-1.435-4.671s-.16-.294-.27-.134c-.108.16.641 3.338.468 3.735a.35.35 0 0 1-.19.202.348.348 0 0 1-.277-.003c-.712-.148-1.02-3.332-1.609-4.741-.589-1.41-.582-3.255-1.467-4.857l-.269-.467z" fill="url(#be)"/>
        <path d="m23.05 117.949.52.724 4.721-2.825-.743-.846-4.497 2.947z" fill="#BDD0FB"/>
        <path d="m79.244 89.855-24.346-7.983c.129-4.113.257-18.227-3.844-24-1.28-1.781-3.844-3.274-5.58-3.844h-.096c-.14-.045-.282-.09-.416-.122-.07 0-.141-.038-.212-.057-3.844-.859-12-.141-12-.141a37.352 37.352 0 0 0-6.118 1.39c-.039 0-3.351.807-6.772 4.722-3.133 3.581-5.126 31.431-5.126 31.431l8.15 26.781c.154 0 4.959-2.826 4.959-2.826l-4.14-25.095 2.122-11.308c1.64 8.65 3.203 17.529 3.203 20.2 0 4.377-.814 14.672-.814 14.672s19.317 2.653 27.312-.557c0 0-1.422-13.627-1.422-16.985 0-.583-.09-1.96-.237-3.844l23.795 3.261 1.582-5.695z" fill="url(#bf)"/>
        <path d="m31.834 55.374.942-1.691 9.354-.16 1.544 7.002s-1.198 4.12-1.544 4.613c-.346.493-3.915 1.557-5.343.743-1.429-.814-5.459-2.806-5.459-4.645 0-1.838.506-5.862.506-5.862z" fill="#001333"/>
        <path d="m30.693 54.035 12.98 30.656.314-31.009-2.05-.282-9.149.218-2.095.417z" fill="#BDD0FB"/>
        <path d="m32.777 53.682.551-2.383 5.715 1.73 2.646-1.423.442 1.916-1.416 2.358-1.672-1.07-.98 1.07-5.286-2.198z" fill="#ADBEE6"/>
        <path d="m30.694 54.035-2.838 2.966 15.818 27.69 3.575-28.4-3.261-2.608-.314 31.009-12.98-30.657z" fill="url(#bg)"/>
        <path d="M11.756 209.797H436.68v-1.781H11.756v1.781z" fill="#233862"/>
    </g>
    <defs>
        <linearGradient id="b" x1="-.001" y1="104.853" x2="449.999" y2="104.853" gradientUnits="userSpaceOnUse">
            <stop stop-color="#DAE3FE"/>
            <stop offset="1" stop-color="#E9EFFD"/>
        </linearGradient>
        <linearGradient id="c" x1="6768.65" y1="2659.9" x2="7143.08" y2="2659.9" gradientUnits="userSpaceOnUse">
            <stop stop-color="#DAE3FE"/>
            <stop offset="1" stop-color="#E9EFFD"/>
        </linearGradient>
        <linearGradient id="d" x1="6732.11" y1="2726.53" x2="7162.22" y2="2726.53" gradientUnits="userSpaceOnUse">
            <stop stop-color="#DAE3FE"/>
            <stop offset="1" stop-color="#E9EFFD"/>
        </linearGradient>
        <linearGradient id="e" x1="6369.21" y1="1790.48" x2="6799.31" y2="1790.48" gradientUnits="userSpaceOnUse">
            <stop stop-color="#DAE3FE"/>
            <stop offset="1" stop-color="#E9EFFD"/>
        </linearGradient>
        <linearGradient id="f" x1="7679.41" y1="674.733" x2="8008.57" y2="674.733" gradientUnits="userSpaceOnUse">
            <stop stop-color="#DAE3FE"/>
            <stop offset="1" stop-color="#E9EFFD"/>
        </linearGradient>
        <linearGradient id="g" x1="6397.95" y1="543.33" x2="6727.11" y2="543.33" gradientUnits="userSpaceOnUse">
            <stop stop-color="#DAE3FE"/>
            <stop offset="1" stop-color="#E9EFFD"/>
        </linearGradient>
        <linearGradient id="h" x1="7685.91" y1="1056.56" x2="8002.06" y2="1056.56" gradientUnits="userSpaceOnUse">
            <stop stop-color="#DAE3FE"/>
            <stop offset="1" stop-color="#E9EFFD"/>
        </linearGradient>
        <linearGradient id="i" x1="10337.5" y1="2435.7" x2="11373.5" y2="2435.7" gradientUnits="userSpaceOnUse">
            <stop stop-color="#DAE3FE"/>
            <stop offset="1" stop-color="#E9EFFD"/>
        </linearGradient>
        <linearGradient id="j" x1="151.424" y1="99.6" x2="243.97" y2="99.6" gradientUnits="userSpaceOnUse">
            <stop offset=".01" stop-color="#09005D"/>
            <stop offset="1" stop-color="#09005D"/>
        </linearGradient>
        <linearGradient id="k" x1="163.975" y1="127.277" x2="227.857" y2="127.277" gradientUnits="userSpaceOnUse">
            <stop stop-color="#09005D"/>
            <stop offset="1" stop-color="#1A0F91"/>
        </linearGradient>
        <linearGradient id="l" x1="21732.6" y1="6608.27" x2="35102.8" y2="6608.27" gradientUnits="userSpaceOnUse">
            <stop stop-color="#09005D"/>
            <stop offset="1" stop-color="#1A0F91"/>
        </linearGradient>
        <linearGradient id="m" x1="21732.6" y1="1877.84" x2="35102.8" y2="1877.84" gradientUnits="userSpaceOnUse">
            <stop stop-color="#09005D"/>
            <stop offset="1" stop-color="#1A0F91"/>
        </linearGradient>
        <linearGradient id="n" x1="1616.93" y1="3744.17" x2="1616.93" y2="5390.38" gradientUnits="userSpaceOnUse">
            <stop stop-color="#09005D"/>
            <stop offset="1" stop-color="#1A0F91"/>
        </linearGradient>
        <linearGradient id="o" x1="1661.2" y1="2976.68" x2="1661.2" y2="3771.86" gradientUnits="userSpaceOnUse">
            <stop stop-color="#09005D"/>
            <stop offset="1" stop-color="#1A0F91"/>
        </linearGradient>
        <linearGradient id="p" x1="1572" y1="3235.22" x2="1572" y2="4245.49" gradientUnits="userSpaceOnUse">
            <stop stop-color="#09005D"/>
            <stop offset="1" stop-color="#1A0F91"/>
        </linearGradient>
        <linearGradient id="q" x1="1705.46" y1="3309.36" x2="1705.46" y2="4400.57" gradientUnits="userSpaceOnUse">
            <stop stop-color="#09005D"/>
            <stop offset="1" stop-color="#1A0F91"/>
        </linearGradient>
        <linearGradient id="r" x1="1749.72" y1="2586.38" x2="1749.72" y2="3126.49" gradientUnits="userSpaceOnUse">
            <stop stop-color="#09005D"/>
            <stop offset="1" stop-color="#1A0F91"/>
        </linearGradient>
        <linearGradient id="s" x1="4715.98" y1="252.857" x2="4973.02" y2="252.857" gradientUnits="userSpaceOnUse">
            <stop stop-color="#09005D"/>
            <stop offset="1" stop-color="#1A0F91"/>
        </linearGradient>
        <linearGradient id="t" x1="4017.86" y1="263.937" x2="4197.5" y2="263.937" gradientUnits="userSpaceOnUse">
            <stop stop-color="#09005D"/>
            <stop offset="1" stop-color="#1A0F91"/>
        </linearGradient>
        <linearGradient id="u" x1="2441.15" y1="275.016" x2="2499.82" y2="275.016" gradientUnits="userSpaceOnUse">
            <stop stop-color="#09005D"/>
            <stop offset="1" stop-color="#1A0F91"/>
        </linearGradient>
        <linearGradient id="v" x1="13192.2" y1="1847.16" x2="13192.2" y2="2207.73" gradientUnits="userSpaceOnUse">
            <stop stop-color="#09005D"/>
            <stop offset="1" stop-color="#1A0F91"/>
        </linearGradient>
        <linearGradient id="w" x1="1219.05" y1="123.791" x2="1236.44" y2="123.791" gradientUnits="userSpaceOnUse">
            <stop stop-color="#09005D"/>
            <stop offset="1" stop-color="#1A0F91"/>
        </linearGradient>
        <linearGradient id="x" x1="1136.2" y1="125.208" x2="1150.87" y2="125.208" gradientUnits="userSpaceOnUse">
            <stop stop-color="#09005D"/>
            <stop offset="1" stop-color="#1A0F91"/>
        </linearGradient>
        <linearGradient id="y" x1="5548.11" y1="546.76" x2="6101.7" y2="546.76" gradientUnits="userSpaceOnUse">
            <stop stop-color="#09005D"/>
            <stop offset="1" stop-color="#1A0F91"/>
        </linearGradient>
        <linearGradient id="z" x1="6077.8" y1="546.921" x2="7010.99" y2="546.921" gradientUnits="userSpaceOnUse">
            <stop stop-color="#09005D"/>
            <stop offset="1" stop-color="#1A0F91"/>
        </linearGradient>
        <linearGradient id="A" x1="6077.8" y1="601.958" x2="7010.99" y2="601.958" gradientUnits="userSpaceOnUse">
            <stop stop-color="#09005D"/>
            <stop offset="1" stop-color="#1A0F91"/>
        </linearGradient>
        <linearGradient id="B" x1="6079.36" y1="573.914" x2="7012.79" y2="573.914" gradientUnits="userSpaceOnUse">
            <stop stop-color="#09005D"/>
            <stop offset="1" stop-color="#1A0F91"/>
        </linearGradient>
        <linearGradient id="C" x1="174.212" y1="102.989" x2="179.658" y2="102.989" gradientUnits="userSpaceOnUse">
            <stop offset=".03" stop-color="#FE7062"/>
            <stop offset="1" stop-color="#FE7062"/>
        </linearGradient>
        <linearGradient id="D" x1="896.729" y1="121.395" x2="907.604" y2="121.395" gradientUnits="userSpaceOnUse">
            <stop stop-color="#09005D"/>
            <stop offset="1" stop-color="#1A0F91"/>
        </linearGradient>
        <linearGradient id="E" x1="1087.64" y1="122.797" x2="1104.99" y2="122.797" gradientUnits="userSpaceOnUse">
            <stop stop-color="#09005D"/>
            <stop offset="1" stop-color="#1A0F91"/>
        </linearGradient>
        <linearGradient id="F" x1="965.776" y1="115.159" x2="983.166" y2="115.159" gradientUnits="userSpaceOnUse">
            <stop stop-color="#09005D"/>
            <stop offset="1" stop-color="#1A0F91"/>
        </linearGradient>
        <linearGradient id="G" x1="701.387" y1="116.576" x2="709.28" y2="116.576" gradientUnits="userSpaceOnUse">
            <stop stop-color="#09005D"/>
            <stop offset="1" stop-color="#1A0F91"/>
        </linearGradient>
        <linearGradient id="H" x1="564.378" y1="324.834" x2="566.691" y2="324.834" gradientUnits="userSpaceOnUse">
            <stop stop-color="#09005D"/>
            <stop offset="1" stop-color="#1A0F91"/>
        </linearGradient>
        <linearGradient id="I" x1="520.309" y1="319.03" x2="522.647" y2="319.03" gradientUnits="userSpaceOnUse">
            <stop stop-color="#09005D"/>
            <stop offset="1" stop-color="#1A0F91"/>
        </linearGradient>
        <linearGradient id="J" x1="460.052" y1="300.48" x2="462.365" y2="300.48" gradientUnits="userSpaceOnUse">
            <stop stop-color="#09005D"/>
            <stop offset="1" stop-color="#1A0F91"/>
        </linearGradient>
        <linearGradient id="K" x1="107.595" y1="171.375" x2="109.178" y2="171.375" gradientUnits="userSpaceOnUse">
            <stop offset=".01" stop-color="#09005D"/>
            <stop offset="1" stop-color="#09005D"/>
        </linearGradient>
        <linearGradient id="L" x1="845.093" y1="19618.6" x2="849.001" y2="19618.6" gradientUnits="userSpaceOnUse">
            <stop offset=".01" stop-color="#09005D"/>
            <stop offset="1" stop-color="#09005D"/>
        </linearGradient>
        <linearGradient id="M" x1="766.769" y1="19618.6" x2="770.678" y2="19618.6" gradientUnits="userSpaceOnUse">
            <stop offset=".01" stop-color="#09005D"/>
            <stop offset="1" stop-color="#09005D"/>
        </linearGradient>
        <linearGradient id="N" x1="126.482" y1="125.49" x2="157.799" y2="125.49" gradientUnits="userSpaceOnUse">
            <stop stop-color="#FF928E"/>
            <stop offset="1" stop-color="#FEB3B1"/>
        </linearGradient>
        <linearGradient id="O" x1="3173.12" y1="890.211" x2="3410.2" y2="890.211" gradientUnits="userSpaceOnUse">
            <stop stop-color="#FF928E"/>
            <stop offset="1" stop-color="#FEB3B1"/>
        </linearGradient>
        <linearGradient id="P" x1="6875.24" y1="5146.48" x2="8782.67" y2="5146.48" gradientUnits="userSpaceOnUse">
            <stop stop-color="#09005D"/>
            <stop offset="1" stop-color="#1A0F91"/>
        </linearGradient>
        <linearGradient id="Q" x1="295.031" y1="19618.6" x2="298.939" y2="19618.6" gradientUnits="userSpaceOnUse">
            <stop offset=".01" stop-color="#09005D"/>
            <stop offset="1" stop-color="#09005D"/>
        </linearGradient>
        <linearGradient id="R" x1="1786.97" y1="2281.14" x2="1931.57" y2="2281.14" gradientUnits="userSpaceOnUse">
            <stop stop-color="#FF928E"/>
            <stop offset="1" stop-color="#FEB3B1"/>
        </linearGradient>
        <linearGradient id="S" x1="2442.5" y1="2661.59" x2="2728.53" y2="2661.59" gradientUnits="userSpaceOnUse">
            <stop stop-color="#FF928E"/>
            <stop offset="1" stop-color="#FEB3B1"/>
        </linearGradient>
        <linearGradient id="T" x1="110.177" y1="88.888" x2="115.859" y2="88.888" gradientUnits="userSpaceOnUse">
            <stop stop-color="#060038"/>
            <stop offset="1" stop-color="#0F0957"/>
        </linearGradient>
        <linearGradient id="U" x1="1447.63" y1="1203.19" x2="1537.22" y2="1203.19" gradientUnits="userSpaceOnUse">
            <stop offset=".03" stop-color="#FE7062"/>
            <stop offset="1" stop-color="#FE7062"/>
        </linearGradient>
        <linearGradient id="V" x1="113.362" y1="94.244" x2="120.934" y2="94.244" gradientUnits="userSpaceOnUse">
            <stop stop-color="#FE7062"/>
            <stop offset="1" stop-color="#FF928E"/>
        </linearGradient>
        <linearGradient id="W" x1="957.41" y1="783.823" x2="991.927" y2="783.823" gradientUnits="userSpaceOnUse">
            <stop stop-color="#09005D"/>
            <stop offset="1" stop-color="#1A0F91"/>
        </linearGradient>
        <linearGradient id="X" x1="731.505" y1="786.128" x2="748.906" y2="786.128" gradientUnits="userSpaceOnUse">
            <stop stop-color="#060038"/>
            <stop offset="1" stop-color="#0F0957"/>
        </linearGradient>
        <linearGradient id="Y" x1="1632.26" y1="4952.62" x2="1745.42" y2="4952.62" gradientUnits="userSpaceOnUse">
            <stop stop-color="#FF928E"/>
            <stop offset="1" stop-color="#FEB3B1"/>
        </linearGradient>
        <linearGradient id="Z" x1="3507.86" y1="3764.81" x2="3834.8" y2="3764.81" gradientUnits="userSpaceOnUse">
            <stop stop-color="#FF928E"/>
            <stop offset="1" stop-color="#FEB3B1"/>
        </linearGradient>
        <linearGradient id="aa" x1="8370.94" y1="14272" x2="11100.8" y2="14272" gradientUnits="userSpaceOnUse">
            <stop stop-color="#09005D"/>
            <stop offset="1" stop-color="#1A0F91"/>
        </linearGradient>
        <linearGradient id="ab" x1="3869.34" y1="9957.23" x2="4541.07" y2="9957.23" gradientUnits="userSpaceOnUse">
            <stop stop-color="#09005D"/>
            <stop offset="1" stop-color="#1A0F91"/>
        </linearGradient>
        <linearGradient id="ac" x1="6402.61" y1="12912.2" x2="9216.05" y2="12912.2" gradientUnits="userSpaceOnUse">
            <stop offset=".03" stop-color="#FE7062"/>
            <stop offset="1" stop-color="#FE7062"/>
        </linearGradient>
        <linearGradient id="ad" x1="9422.74" y1="13779.7" x2="16291.9" y2="13779.7" gradientUnits="userSpaceOnUse">
            <stop stop-color="#FE7062"/>
            <stop offset="1" stop-color="#FF928E"/>
        </linearGradient>
        <linearGradient id="ae" x1="123.471" y1="186.944" x2="126.155" y2="186.944" gradientUnits="userSpaceOnUse">
            <stop stop-color="#4042E2"/>
            <stop offset="1" stop-color="#4F52FF"/>
        </linearGradient>
        <linearGradient id="af" x1="5397.98" y1="1045.61" x2="6905.01" y2="1045.61" gradientUnits="userSpaceOnUse">
            <stop stop-color="#4042E2"/>
            <stop offset="1" stop-color="#4F52FF"/>
        </linearGradient>
        <linearGradient id="ag" x1="1403.53" y1="1321.69" x2="1474.83" y2="1321.69" gradientUnits="userSpaceOnUse">
            <stop stop-color="#4042E2"/>
            <stop offset="1" stop-color="#4F52FF"/>
        </linearGradient>
        <linearGradient id="ah" x1="46008.2" y1="11042.2" x2="59376.4" y2="11042.2" gradientUnits="userSpaceOnUse">
            <stop offset=".01" stop-color="#09005D"/>
            <stop offset="1" stop-color="#09005D"/>
        </linearGradient>
        <linearGradient id="ai" x1="33116.9" y1="3151.4" x2="39485.3" y2="3151.4" gradientUnits="userSpaceOnUse">
            <stop stop-color="#09005D"/>
            <stop offset="1" stop-color="#1A0F91"/>
        </linearGradient>
        <linearGradient id="aj" x1="45717.8" y1="6608.27" x2="59087.9" y2="6608.27" gradientUnits="userSpaceOnUse">
            <stop stop-color="#09005D"/>
            <stop offset="1" stop-color="#1A0F91"/>
        </linearGradient>
        <linearGradient id="ak" x1="45708.3" y1="1877.84" x2="59075.7" y2="1877.84" gradientUnits="userSpaceOnUse">
            <stop stop-color="#09005D"/>
            <stop offset="1" stop-color="#1A0F91"/>
        </linearGradient>
        <linearGradient id="al" x1="6741.05" y1="252.855" x2="6998.09" y2="252.855" gradientUnits="userSpaceOnUse">
            <stop stop-color="#09005D"/>
            <stop offset="1" stop-color="#1A0F91"/>
        </linearGradient>
        <linearGradient id="am" x1="5689.65" y1="263.937" x2="5869.4" y2="263.937" gradientUnits="userSpaceOnUse">
            <stop stop-color="#09005D"/>
            <stop offset="1" stop-color="#1A0F91"/>
        </linearGradient>
        <linearGradient id="an" x1="3388.18" y1="275.013" x2="3446.86" y2="275.013" gradientUnits="userSpaceOnUse">
            <stop stop-color="#09005D"/>
            <stop offset="1" stop-color="#1A0F91"/>
        </linearGradient>
        <linearGradient id="ao" x1="15943.7" y1="812.082" x2="17476.3" y2="812.082" gradientUnits="userSpaceOnUse">
            <stop stop-color="#09005D"/>
            <stop offset="1" stop-color="#1A0F91"/>
        </linearGradient>
        <linearGradient id="ap" x1="945.483" y1="19618.6" x2="949.391" y2="19618.6" gradientUnits="userSpaceOnUse">
            <stop offset=".01" stop-color="#09005D"/>
            <stop offset="1" stop-color="#09005D"/>
        </linearGradient>
        <linearGradient id="aq" x1="1417.27" y1="19618.6" x2="1421.16" y2="19618.6" gradientUnits="userSpaceOnUse">
            <stop offset=".01" stop-color="#09005D"/>
            <stop offset="1" stop-color="#09005D"/>
        </linearGradient>
        <linearGradient id="ar" x1="1338.89" y1="19618.6" x2="1342.8" y2="19618.6" gradientUnits="userSpaceOnUse">
            <stop offset=".01" stop-color="#09005D"/>
            <stop offset="1" stop-color="#09005D"/>
        </linearGradient>
        <linearGradient id="as" x1="291.373" y1="125.49" x2="322.689" y2="125.49" gradientUnits="userSpaceOnUse">
            <stop stop-color="#FEBBBA"/>
            <stop offset="1" stop-color="#FF928E"/>
        </linearGradient>
        <linearGradient id="at" x1="6510.43" y1="890.211" x2="6747.43" y2="890.211" gradientUnits="userSpaceOnUse">
            <stop stop-color="#FEBBBA"/>
            <stop offset="1" stop-color="#FF928E"/>
        </linearGradient>
        <linearGradient id="au" x1="16035.6" y1="5146.48" x2="17942.8" y2="5146.48" gradientUnits="userSpaceOnUse">
            <stop stop-color="#09005D"/>
            <stop offset="1" stop-color="#1A0F91"/>
        </linearGradient>
        <linearGradient id="av" x1="867.201" y1="19618.6" x2="871.11" y2="19618.6" gradientUnits="userSpaceOnUse">
            <stop offset=".01" stop-color="#09005D"/>
            <stop offset="1" stop-color="#09005D"/>
        </linearGradient>
        <linearGradient id="aw" x1="4429.59" y1="2281.14" x2="4574.19" y2="2281.14" gradientUnits="userSpaceOnUse">
            <stop stop-color="#FEBBBA"/>
            <stop offset="1" stop-color="#FF928E"/>
        </linearGradient>
        <linearGradient id="ax" x1="6090.17" y1="2661.59" x2="6376.15" y2="2661.59" gradientUnits="userSpaceOnUse">
            <stop stop-color="#FEBBBA"/>
            <stop offset="1" stop-color="#FF928E"/>
        </linearGradient>
        <linearGradient id="ay" x1="6919.3" y1="3398.21" x2="7307.17" y2="3398.21" gradientUnits="userSpaceOnUse">
            <stop stop-color="#09005D"/>
            <stop offset="1" stop-color="#1A0F91"/>
        </linearGradient>
        <linearGradient id="az" x1="2717.37" y1="1396.81" x2="2767.82" y2="1396.81" gradientUnits="userSpaceOnUse">
            <stop stop-color="#060038"/>
            <stop offset="1" stop-color="#0F0957"/>
        </linearGradient>
        <linearGradient id="aA" x1="3561.53" y1="1203.37" x2="3651.05" y2="1203.37" gradientUnits="userSpaceOnUse">
            <stop offset=".03" stop-color="#FE7062"/>
            <stop offset="1" stop-color="#FE7062"/>
        </linearGradient>
        <linearGradient id="aB" x1="3567.21" y1="1204.6" x2="3656.73" y2="1204.6" gradientUnits="userSpaceOnUse">
            <stop stop-color="#FE7062"/>
            <stop offset="1" stop-color="#FF928E"/>
        </linearGradient>
        <linearGradient id="aC" x1="2332.6" y1="783.823" x2="2367.12" y2="783.823" gradientUnits="userSpaceOnUse">
            <stop stop-color="#09005D"/>
            <stop offset="1" stop-color="#1A0F91"/>
        </linearGradient>
        <linearGradient id="aD" x1="1769.46" y1="786.128" x2="1786.86" y2="786.128" gradientUnits="userSpaceOnUse">
            <stop stop-color="#060038"/>
            <stop offset="1" stop-color="#0F0957"/>
        </linearGradient>
        <linearGradient id="aE" x1="3977.95" y1="4948.62" x2="4090.6" y2="4948.62" gradientUnits="userSpaceOnUse">
            <stop stop-color="#FEBBBA"/>
            <stop offset="1" stop-color="#FF928E"/>
        </linearGradient>
        <linearGradient id="aF" x1="3332.86" y1="1866.11" x2="3409.68" y2="1866.11" gradientUnits="userSpaceOnUse">
            <stop stop-color="#4042E2"/>
            <stop offset="1" stop-color="#4F52FF"/>
        </linearGradient>
        <linearGradient id="aG" x1="7397.64" y1="3764.81" x2="7724.58" y2="3764.81" gradientUnits="userSpaceOnUse">
            <stop stop-color="#FEBBBA"/>
            <stop offset="1" stop-color="#FF928E"/>
        </linearGradient>
        <linearGradient id="aH" x1="8867.54" y1="1818.67" x2="9346.8" y2="1818.67" gradientUnits="userSpaceOnUse">
            <stop stop-color="#4042E2"/>
            <stop offset="1" stop-color="#4F52FF"/>
        </linearGradient>
        <linearGradient id="aI" x1="19301.8" y1="14272" x2="22031.9" y2="14272" gradientUnits="userSpaceOnUse">
            <stop stop-color="#09005D"/>
            <stop offset="1" stop-color="#1A0F91"/>
        </linearGradient>
        <linearGradient id="aJ" x1="9370.6" y1="9957.23" x2="10041.9" y2="9957.23" gradientUnits="userSpaceOnUse">
            <stop stop-color="#09005D"/>
            <stop offset="1" stop-color="#1A0F91"/>
        </linearGradient>
        <linearGradient id="aK" x1="17491.3" y1="12912.2" x2="20304.3" y2="12912.2" gradientUnits="userSpaceOnUse">
            <stop offset=".03" stop-color="#FE7062"/>
            <stop offset="1" stop-color="#FE7062"/>
        </linearGradient>
        <linearGradient id="aL" x1="26669.1" y1="13779.7" x2="33540.9" y2="13779.7" gradientUnits="userSpaceOnUse">
            <stop stop-color="#FE7062"/>
            <stop offset="1" stop-color="#FF928E"/>
        </linearGradient>
        <linearGradient id="aM" x1="1493.75" y1="9798.04" x2="1504.94" y2="9798.04" gradientUnits="userSpaceOnUse">
            <stop stop-color="#4042E2"/>
            <stop offset="1" stop-color="#4F52FF"/>
        </linearGradient>
        <linearGradient id="aN" x1="13551.5" y1="1045.6" x2="15057.9" y2="1045.6" gradientUnits="userSpaceOnUse">
            <stop stop-color="#4042E2"/>
            <stop offset="1" stop-color="#4F52FF"/>
        </linearGradient>
        <linearGradient id="aO" x1="3305.14" y1="1321.7" x2="3376.32" y2="1321.7" gradientUnits="userSpaceOnUse">
            <stop stop-color="#4042E2"/>
            <stop offset="1" stop-color="#4F52FF"/>
        </linearGradient>
        <linearGradient id="aP" x1="3433.6" y1="3711.48" x2="3433.6" y2="5148.5" gradientUnits="userSpaceOnUse">
            <stop stop-color="#09005D"/>
            <stop offset="1" stop-color="#1A0F91"/>
        </linearGradient>
        <linearGradient id="aQ" x1="3370.67" y1="2893.4" x2="3370.67" y2="3577.43" gradientUnits="userSpaceOnUse">
            <stop stop-color="#09005D"/>
            <stop offset="1" stop-color="#1A0F91"/>
        </linearGradient>
        <linearGradient id="aR" x1="3497.29" y1="3178.62" x2="3497.29" y2="4063.79" gradientUnits="userSpaceOnUse">
            <stop stop-color="#09005D"/>
            <stop offset="1" stop-color="#1A0F91"/>
        </linearGradient>
        <linearGradient id="aS" x1="3307.81" y1="3234.57" x2="3307.81" y2="4173.39" gradientUnits="userSpaceOnUse">
            <stop stop-color="#09005D"/>
            <stop offset="1" stop-color="#1A0F91"/>
        </linearGradient>
        <linearGradient id="aT" x1="3244.86" y1="2503.03" x2="3244.86" y2="2967.67" gradientUnits="userSpaceOnUse">
            <stop stop-color="#09005D"/>
            <stop offset="1" stop-color="#1A0F91"/>
        </linearGradient>
        <linearGradient id="aU" x1="20936.9" y1="4654.37" x2="23030.9" y2="4654.37" gradientUnits="userSpaceOnUse">
            <stop offset=".03" stop-color="#FE7062"/>
            <stop offset="1" stop-color="#FE7062"/>
        </linearGradient>
        <linearGradient id="aV" x1="2893.11" y1="656.058" x2="2919.02" y2="656.058" gradientUnits="userSpaceOnUse">
            <stop offset=".03" stop-color="#FE7062"/>
            <stop offset="1" stop-color="#FE7062"/>
        </linearGradient>
        <linearGradient id="aW" x1="3328.87" y1="3798.44" x2="6707.44" y2="3798.44" gradientUnits="userSpaceOnUse">
            <stop stop-color="#FEBBBA"/>
            <stop offset="1" stop-color="#FF928E"/>
        </linearGradient>
        <linearGradient id="aX" x1="877.371" y1="3415.99" x2="1013.47" y2="3415.99" gradientUnits="userSpaceOnUse">
            <stop stop-color="#FEBBBA"/>
            <stop offset="1" stop-color="#FF928E"/>
        </linearGradient>
        <linearGradient id="aY" x1="481.094" y1="3425.92" x2="617.194" y2="3425.92" gradientUnits="userSpaceOnUse">
            <stop stop-color="#FEBBBA"/>
            <stop offset="1" stop-color="#FF928E"/>
        </linearGradient>
        <linearGradient id="aZ" x1="13.275" y1="131.954" x2="77.253" y2="182.132" gradientUnits="userSpaceOnUse">
            <stop offset=".49" stop-color="#001333"/>
            <stop offset="1" stop-color="#001E4F"/>
        </linearGradient>
        <linearGradient id="ba" x1="530.5" y1="1755.18" x2="676.897" y2="1755.18" gradientUnits="userSpaceOnUse">
            <stop stop-color="#FEBBBA"/>
            <stop offset="1" stop-color="#FF928E"/>
        </linearGradient>
        <linearGradient id="bb" x1="689.728" y1="1189.64" x2="950.21" y2="1189.64" gradientUnits="userSpaceOnUse">
            <stop stop-color="#FEBBBA"/>
            <stop offset="1" stop-color="#FF928E"/>
        </linearGradient>
        <linearGradient id="bc" x1="175.536" y1="330.605" x2="187.055" y2="330.605" gradientUnits="userSpaceOnUse">
            <stop stop-color="#FEBBBA"/>
            <stop offset="1" stop-color="#FF928E"/>
        </linearGradient>
        <linearGradient id="bd" x1="823.927" y1="1396.74" x2="1370.3" y2="1396.74" gradientUnits="userSpaceOnUse">
            <stop stop-color="#09005D"/>
            <stop offset="1" stop-color="#1A0F91"/>
        </linearGradient>
        <linearGradient id="be" x1="502.779" y1="10089.3" x2="1119.11" y2="10089.3" gradientUnits="userSpaceOnUse">
            <stop stop-color="#FEBBBA"/>
            <stop offset="1" stop-color="#FF928E"/>
        </linearGradient>
        <linearGradient id="bf" x1="1460.4" y1="6631.52" x2="7248.36" y2="12411" gradientUnits="userSpaceOnUse">
            <stop offset=".49" stop-color="#001333"/>
            <stop offset="1" stop-color="#001E4F"/>
        </linearGradient>
        <linearGradient id="bg" x1="871.078" y1="3402.33" x2="1458.11" y2="3402.33" gradientUnits="userSpaceOnUse">
            <stop stop-color="#060038"/>
            <stop offset="1" stop-color="#0F0957"/>
        </linearGradient>
        <clipPath id="a">
            <path fill="#fff" d="M0 0h450v209.797H0z"/>
        </clipPath>
    </defs>
</svg>
