<svg width="36" height="36" viewBox="0 0 36 36" fill="none" xmlns="http://www.w3.org/2000/svg">
<path d="M35.4653 27.1439H31.9425V22.7752C31.9425 22.48 31.7031 22.2405 31.4079 22.2405C31.1126 22.2405 30.8732 22.48 30.8732 22.7752V34.8748H23.5682H21.6974V32.4904V30.8865V27.8123V26.2084V23.1343V21.5304V18.9909H30.8732V20.2799C30.8732 20.5752 31.1126 20.8146 31.4079 20.8146C31.7031 20.8146 31.9425 20.5752 31.9425 20.2799V18.4563C31.9425 18.1611 31.7031 17.9217 31.4079 17.9217H24.1028V0.590625C24.1028 0.295383 23.8634 0.0559692 23.5682 0.0559692H12.4481C12.1529 0.0559692 11.9135 0.295383 11.9135 0.590625V8.58881H4.99746C4.70222 8.58881 4.4628 8.82822 4.4628 9.12347V22.2687H0.534656C0.239414 22.2687 0 22.5081 0 22.8033V35.4094C0 35.7046 0.239414 35.944 0.534656 35.944H4.99746H16.1177C16.1182 35.944 16.1186 35.944 16.119 35.944H21.1627H23.5682H31.4066C31.407 35.944 31.4075 35.944 31.4079 35.944H35.4653C35.7606 35.944 36 35.7046 36 35.4094V27.6785C36 27.3833 35.7606 27.1439 35.4653 27.1439ZM4.4628 34.8747H1.06931V23.338H4.4628V34.8747ZM15.583 34.8747H12.4481V34.8748H5.53212V31.9182H15.583V34.8747ZM15.583 27.249H10.7644C10.4692 27.249 10.2298 27.4885 10.2298 27.7837C10.2298 28.0789 10.4692 28.3184 10.7644 28.3184H15.583V30.8489H5.53212V28.3184H8.26931C8.56456 28.3184 8.80397 28.0789 8.80397 27.7837C8.80397 27.4885 8.56456 27.249 8.26931 27.249H5.53212V24.7185H15.583V27.249ZM15.583 23.6493H5.53212V22.8033V21.1187H15.583V23.6493ZM15.583 20.0495H5.53212V17.519H15.583V20.0495ZM15.583 16.4497H5.53212V13.9191H15.583V16.4497ZM15.583 12.8498H5.53212V9.65805H15.583V12.8498ZM20.6281 18.4564V21.5305V23.1344V26.2086V27.8125V30.8867V32.4906V34.8749H16.6523V9.1234C16.6523 8.82815 16.413 8.58874 16.1177 8.58874H15.3887V7.5195C15.3887 7.22426 15.1494 6.98484 14.8541 6.98484C14.5588 6.98484 14.3194 7.22426 14.3194 7.5195V8.58874H12.9828V1.12528H23.0335V17.9217H21.1627C20.8674 17.9217 20.6281 18.1611 20.6281 18.4564ZM34.9307 34.8747H31.9426V28.2131H34.9307V34.8747Z" fill="#013B81"/>
<path d="M21.1627 11.6397C20.8674 11.6397 20.6281 11.8792 20.6281 12.1744V13.7783C20.6281 14.0736 20.8675 14.3129 21.1627 14.3129C21.458 14.3129 21.6974 14.0735 21.6974 13.7783V12.1744C21.6974 11.8792 21.458 11.6397 21.1627 11.6397Z" fill="#013B81"/>
<path d="M18.0084 11.6397C17.7131 11.6397 17.4738 11.8792 17.4738 12.1744V13.7783C17.4738 14.0736 17.7132 14.3129 18.0084 14.3129C18.3037 14.3129 18.5431 14.0735 18.5431 13.7783V12.1744C18.5431 11.8792 18.3037 11.6397 18.0084 11.6397Z" fill="#013B81"/>
<path d="M21.1627 6.98483C20.8674 6.98483 20.6281 7.22425 20.6281 7.51949V9.12339C20.6281 9.41863 20.8675 9.65804 21.1627 9.65804C21.458 9.65804 21.6974 9.41863 21.6974 9.12339V7.51949C21.6974 7.22425 21.458 6.98483 21.1627 6.98483Z" fill="#013B81"/>
<path d="M18.0084 6.98483C17.7131 6.98483 17.4738 7.22425 17.4738 7.51949V9.12339C17.4738 9.41863 17.7132 9.65804 18.0084 9.65804C18.3037 9.65804 18.5431 9.41863 18.5431 9.12339V7.51949C18.5431 7.22425 18.3037 6.98483 18.0084 6.98483Z" fill="#013B81"/>
<path d="M14.8542 2.32996C14.5589 2.32996 14.3196 2.56937 14.3196 2.86461V4.46851C14.3196 4.76375 14.559 5.00317 14.8542 5.00317C15.1495 5.00317 15.3889 4.76375 15.3889 4.46851V2.86461C15.3889 2.56937 15.1496 2.32996 14.8542 2.32996Z" fill="#013B81"/>
<path d="M21.1627 2.32996C20.8674 2.32996 20.6281 2.56937 20.6281 2.86461V4.46851C20.6281 4.76375 20.8675 5.00317 21.1627 5.00317C21.458 5.00317 21.6974 4.76375 21.6974 4.46851V2.86461C21.6974 2.56937 21.458 2.32996 21.1627 2.32996Z" fill="#013B81"/>
<path d="M18.0084 2.32996C17.7131 2.32996 17.4738 2.56937 17.4738 2.86461V4.46851C17.4738 4.76375 17.7132 5.00317 18.0084 5.00317C18.3037 5.00317 18.5431 4.76375 18.5431 4.46851V2.86461C18.5431 2.56937 18.3037 2.32996 18.0084 2.32996Z" fill="#013B81"/>
<path d="M20.8772 16.4011C20.6608 16.5372 20.5697 16.8204 20.6692 17.0568C20.7547 17.2585 20.9556 17.3919 21.1756 17.3865C21.3998 17.381 21.5993 17.2328 21.6702 17.0201C21.8261 16.5525 21.2913 16.1405 20.8772 16.4011Z" fill="#013B81"/>
<path d="M18.0084 16.3178C17.7131 16.3178 17.4738 16.5572 17.4738 16.8524V18.4563C17.4738 18.7516 17.7132 18.991 18.0084 18.991C18.3037 18.991 18.5431 18.7516 18.5431 18.4563V16.8524C18.5431 16.5571 18.3037 16.3178 18.0084 16.3178Z" fill="#013B81"/>
<path d="M18.0084 30.3519C17.7131 30.3519 17.4738 30.5913 17.4738 30.8865V32.4904C17.4738 32.7857 17.7132 33.0251 18.0084 33.0251C18.3037 33.0251 18.5431 32.7857 18.5431 32.4904V30.8865C18.5431 30.5912 18.3037 30.3519 18.0084 30.3519Z" fill="#013B81"/>
<path d="M18.0084 25.6738C17.7131 25.6738 17.4738 25.9132 17.4738 26.2085V27.8124C17.4738 28.1076 17.7132 28.347 18.0084 28.347C18.3037 28.347 18.5431 28.1076 18.5431 27.8124V26.2085C18.5431 25.9132 18.3037 25.6738 18.0084 25.6738Z" fill="#013B81"/>
<path d="M18.0084 20.9959C17.7131 20.9959 17.4738 21.2353 17.4738 21.5305V23.1344C17.4738 23.4297 17.7132 23.6691 18.0084 23.6691C18.3037 23.6691 18.5431 23.4297 18.5431 23.1344V21.5305C18.5431 21.2352 18.3037 20.9959 18.0084 20.9959Z" fill="#013B81"/>
<path d="M29.2429 30.189H23.328C23.0327 30.189 22.7933 30.4284 22.7933 30.7237C22.7933 31.0189 23.0327 31.2583 23.328 31.2583H29.2429C29.5382 31.2583 29.7776 31.0189 29.7776 30.7237C29.7776 30.4284 29.5383 30.189 29.2429 30.189Z" fill="#013B81"/>
<path d="M29.2429 32.7163H23.328C23.0327 32.7163 22.7933 32.9558 22.7933 33.251C22.7933 33.5462 23.0327 33.7856 23.328 33.7856H29.2429C29.5382 33.7856 29.7776 33.5462 29.7776 33.251C29.7776 32.9557 29.5383 32.7163 29.2429 32.7163Z" fill="#013B81"/>
<path d="M29.2429 27.6618H23.328C23.0327 27.6618 22.7933 27.9012 22.7933 28.1965C22.7933 28.4917 23.0327 28.7312 23.328 28.7312H29.2429C29.5382 28.7312 29.7776 28.4917 29.7776 28.1965C29.7776 27.9012 29.5383 27.6618 29.2429 27.6618Z" fill="#013B81"/>
<path d="M29.2429 20.08H23.328C23.0327 20.08 22.7933 20.3195 22.7933 20.6147C22.7933 20.9099 23.0327 21.1494 23.328 21.1494H29.2429C29.5382 21.1494 29.7776 20.9099 29.7776 20.6147C29.7776 20.3195 29.5383 20.08 29.2429 20.08Z" fill="#013B81"/>
<path d="M29.2429 25.1346H23.328C23.0327 25.1346 22.7933 25.374 22.7933 25.6692C22.7933 25.9644 23.0327 26.2039 23.328 26.2039H29.2429C29.5382 26.2039 29.7776 25.9644 29.7776 25.6692C29.7776 25.374 29.5383 25.1346 29.2429 25.1346Z" fill="#013B81"/>
<path d="M29.2429 22.6074H23.328C23.0327 22.6074 22.7933 22.8468 22.7933 23.142C22.7933 23.4373 23.0327 23.6767 23.328 23.6767H29.2429C29.5382 23.6767 29.7776 23.4373 29.7776 23.142C29.7776 22.8468 29.5383 22.6074 29.2429 22.6074Z" fill="#013B81"/>
<path d="M2.76598 24.1878C2.47067 24.1878 2.23132 24.4272 2.23132 24.7224V26.1124C2.23132 26.4077 2.47067 26.6471 2.76598 26.6471C3.06129 26.6471 3.30064 26.4077 3.30064 26.1124V24.7224C3.30064 24.4272 3.06122 24.1878 2.76598 24.1878Z" fill="#013B81"/>
<path d="M2.76598 27.8767C2.47067 27.8767 2.23132 28.1162 2.23132 28.4114V29.8014C2.23132 30.0967 2.47067 30.3361 2.76598 30.3361C3.06129 30.3361 3.30064 30.0967 3.30064 29.8014V28.4114C3.30064 28.1161 3.06122 27.8767 2.76598 27.8767Z" fill="#013B81"/>
<path d="M2.76598 31.5657C2.47067 31.5657 2.23132 31.8051 2.23132 32.1003V33.4903C2.23132 33.7856 2.47067 34.025 2.76598 34.025C3.06129 34.025 3.30064 33.7856 3.30064 33.4903V32.1003C3.30064 31.805 3.06122 31.5657 2.76598 31.5657Z" fill="#013B81"/>
<path d="M33.4367 29.4962C33.1414 29.4962 32.9021 29.7356 32.9021 30.0308V31.5439C32.9021 31.8392 33.1414 32.0786 33.4367 32.0786C33.7321 32.0786 33.9714 31.8392 33.9714 31.5439V30.0308C33.9714 29.7356 33.7321 29.4962 33.4367 29.4962Z" fill="#013B81"/>
<path d="M31.8693 10.3565H25.3469C25.0516 10.3565 24.8123 10.596 24.8123 10.8912C24.8123 11.1864 25.0516 11.4259 25.3469 11.4259H31.8693C32.1646 11.4259 32.404 11.1864 32.404 10.8912C32.404 10.596 32.1646 10.3565 31.8693 10.3565Z" fill="#013B81"/>
<path d="M33.9008 12.602H29.196C28.9007 12.602 28.6614 12.8414 28.6614 13.1366C28.6614 13.4319 28.9007 13.6713 29.196 13.6713H33.9008C34.1961 13.6713 34.4354 13.4319 34.4354 13.1366C34.4354 12.8414 34.1961 12.602 33.9008 12.602Z" fill="#013B81"/>
<path d="M9.62869 4.04797H4.92394C4.62863 4.04797 4.38928 4.28739 4.38928 4.58263C4.38928 4.87787 4.6287 5.11729 4.92394 5.11729H9.62869C9.924 5.11729 10.1633 4.87787 10.1633 4.58263C10.1633 4.28739 9.92407 4.04797 9.62869 4.04797Z" fill="#013B81"/>
<path d="M6.95552 5.83002H2.25084C1.95553 5.83002 1.71619 6.06943 1.71619 6.36467C1.71619 6.65992 1.9556 6.89933 2.25084 6.89933H6.95559C7.2509 6.89933 7.49025 6.65992 7.49025 6.36467C7.49025 6.06943 7.2509 5.83002 6.95552 5.83002Z" fill="#013B81"/>
</svg>
