<svg width="36" height="36" viewBox="0 0 36 36" fill="none" xmlns="http://www.w3.org/2000/svg">
<path d="M20.4 13.2174H15.6C15.2687 13.2174 15 13.4861 15 13.8174V30.6174C15 30.9488 15.2687 31.2174 15.6 31.2174H20.4C20.7314 31.2174 21 30.9488 21 30.6174V13.8174C21 13.486 20.7314 13.2174 20.4 13.2174ZM19.8 30.0174H16.2V14.4174H19.8V30.0174Z" fill="#013B81"/>
<path d="M34.7999 10.8174H29.9999C29.6686 10.8174 29.3999 11.0861 29.3999 11.4174V30.6174C29.3999 30.9488 29.6686 31.2174 29.9999 31.2174H34.7999C35.1313 31.2174 35.3999 30.9488 35.3999 30.6174V11.4174C35.3999 11.086 35.1313 10.8174 34.7999 10.8174ZM34.1999 30.0174H30.5999V12.0174H34.1999V30.0174Z" fill="#013B81"/>
<path d="M27.5999 24.0174H22.7999C22.4686 24.0174 22.1999 24.286 22.1999 24.6174V30.6174C22.1999 30.9487 22.4686 31.2174 22.7999 31.2174H27.5999C27.9313 31.2174 28.1999 30.9487 28.1999 30.6174V24.6174C28.1999 24.286 27.9313 24.0174 27.5999 24.0174ZM26.9999 30.0174H23.3999V25.2174H26.9999V30.0174Z" fill="#013B81"/>
<path d="M5.99994 15.6174H1.19994C0.868595 15.6174 0.599945 15.8861 0.599945 16.2174V30.6174C0.599945 30.9488 0.868595 31.2174 1.19994 31.2174H5.99994C6.33129 31.2174 6.59994 30.9488 6.59994 30.6174V16.2174C6.59994 15.886 6.33129 15.6174 5.99994 15.6174ZM5.39994 30.0174H1.79994V16.8174H5.39994V30.0174Z" fill="#013B81"/>
<path d="M13.2 19.2174H8.40002C8.06867 19.2174 7.80002 19.4861 7.80002 19.8174V30.6174C7.80002 30.9488 8.06867 31.2174 8.40002 31.2174H13.2C13.5314 31.2174 13.8 30.9488 13.8 30.6174V19.8174C13.8 19.486 13.5314 19.2174 13.2 19.2174ZM12.6 30.0174H9.00002V20.4174H12.6V30.0174Z" fill="#013B81"/>
<path d="M32.4348 0.582675C31.0997 0.573075 30.0097 1.64753 30.0001 2.9826C29.9952 3.6567 30.272 4.30223 30.7638 4.76333L25.7838 13.8971C25.3327 13.7723 24.8535 13.7944 24.4158 13.9601L19.7831 7.008C20.6708 6.02363 20.5923 4.506 19.6079 3.61845C18.6234 2.7309 17.1059 2.80928 16.2183 3.79373C15.5662 4.51703 15.4157 5.56268 15.8375 6.44048L12.1949 9.4722C11.1956 8.74328 9.80363 8.9064 8.99993 9.8466L5.94533 8.319C6.22238 7.02278 5.39611 5.7474 4.09996 5.47043C2.80373 5.19338 1.52836 6.01958 1.25138 7.3158C0.974332 8.61203 1.80053 9.8874 3.09676 10.1644C3.26213 10.1997 3.43081 10.2175 3.59993 10.2174C4.29181 10.2152 4.94858 9.9126 5.39993 9.3882L8.45453 10.9158C8.16631 12.2096 8.98148 13.4921 10.2752 13.7803C11.569 14.0685 12.8515 13.2533 13.1397 11.9596C13.2569 11.4335 13.1936 10.8832 12.9599 10.3974L16.6025 7.3656C17.2304 7.83023 18.05 7.94753 18.7829 7.6776L23.4143 14.6298C22.5291 15.6164 22.6113 17.1338 23.5979 18.019C24.5845 18.9042 26.1019 18.822 26.9871 17.8354C27.8615 16.8609 27.7935 15.3656 26.8344 14.4744L31.8144 5.3406C32.0057 5.39055 32.2024 5.41635 32.4 5.4174C33.7351 5.427 34.8251 4.35255 34.8347 3.01748C34.8443 1.6824 33.7698 0.59235 32.4348 0.582675ZM3.59993 9.0174C2.93716 9.0174 2.39993 8.48018 2.39993 7.8174C2.39993 7.15463 2.93716 6.6174 3.59993 6.6174C4.26271 6.6174 4.79993 7.15463 4.79993 7.8174C4.79993 8.48018 4.26271 9.0174 3.59993 9.0174ZM10.7999 12.6174C10.1372 12.6174 9.59993 12.0802 9.59993 11.4174C9.59993 10.7546 10.1372 10.2174 10.7999 10.2174C11.4627 10.2174 11.9999 10.7546 11.9999 11.4174C11.9999 12.0802 11.4627 12.6174 10.7999 12.6174ZM17.9999 6.6174C17.3372 6.6174 16.7999 6.08018 16.7999 5.4174C16.7999 4.75463 17.3372 4.2174 17.9999 4.2174C18.6627 4.2174 19.1999 4.75463 19.1999 5.4174C19.1999 6.08018 18.6627 6.6174 17.9999 6.6174ZM25.1999 17.4174C24.5372 17.4174 23.9999 16.8802 23.9999 16.2174C23.9999 15.5546 24.5372 15.0174 25.1999 15.0174C25.8627 15.0174 26.3999 15.5546 26.3999 16.2174C26.3999 16.8802 25.8627 17.4174 25.1999 17.4174ZM32.3999 4.2174C31.7372 4.2174 31.1999 3.68018 31.1999 3.0174C31.1999 2.35463 31.7372 1.8174 32.3999 1.8174C33.0627 1.8174 33.5999 2.35463 33.5999 3.0174C33.5999 3.68018 33.0627 4.2174 32.3999 4.2174Z" fill="#013B81"/>
<path d="M35.4 31.8174H0.6C0.26865 31.8174 0 32.086 0 32.4174V34.8174C0 35.1487 0.26865 35.4174 0.6 35.4174H35.4C35.7313 35.4174 36 35.1487 36 34.8174V32.4174C36 32.086 35.7313 31.8174 35.4 31.8174ZM34.8 34.2174H1.2V33.0174H34.8V34.2174Z" fill="#013B81"/>
</svg>
