<svg width="36" height="36" viewBox="0 0 36 36" fill="none" xmlns="http://www.w3.org/2000/svg">
<path d="M18 25.3125V18.459C18.6531 18.2261 19.125 17.6074 19.125 16.875C19.125 16.5729 19.0389 16.2934 18.8994 16.0476C19.3714 15.7483 19.6875 15.2241 19.6875 14.625C19.6875 14.3229 19.6014 14.0434 19.4619 13.7976C19.9339 13.4983 20.25 12.9741 20.25 12.375C20.25 11.5971 19.7184 10.9468 19.0012 10.7527C19.0794 10.5581 19.125 10.3472 19.125 10.125C19.125 9.39262 18.6531 8.77388 18 8.541V5.0625C18.9304 5.0625 19.6875 4.30538 19.6875 3.375V2.25C19.6875 1.31962 18.9304 0.5625 18 0.5625H10.125C9.19462 0.5625 8.4375 1.31962 8.4375 2.25V3.375C8.4375 4.30538 9.19462 5.0625 10.125 5.0625V6.1875H9.79706C9.189 6.1875 8.57981 6.33094 8.03588 6.60319L6.61725 7.3125H6.084C5.85112 6.65944 5.23238 6.1875 4.5 6.1875H0.5625V18.5625H4.5C5.23238 18.5625 5.85112 18.0906 6.084 17.4375H6.58012L8.26762 18.5625H10.125V25.3125C10.125 26.595 11.8176 27.5625 14.0625 27.5625C16.3074 27.5625 18 26.595 18 25.3125ZM17.4375 17.4375H15.1875C14.8776 17.4375 14.625 17.1849 14.625 16.875C14.625 16.5651 14.8776 16.3125 15.1875 16.3125H17.4375C17.7474 16.3125 18 16.5651 18 16.875C18 17.1849 17.7474 17.4375 17.4375 17.4375ZM17.4375 9.5625C17.7474 9.5625 18 9.81506 18 10.125C18 10.4349 17.7474 10.6875 17.4375 10.6875H15.1875C14.8776 10.6875 14.625 10.4349 14.625 10.125C14.625 9.81506 14.8776 9.5625 15.1875 9.5625H17.4375ZM18.5625 14.625C18.5625 14.9349 18.3099 15.1875 18 15.1875H17.4375H15.1875C14.8776 15.1875 14.625 14.9349 14.625 14.625C14.625 14.3151 14.8776 14.0625 15.1875 14.0625H18C18.3099 14.0625 18.5625 14.3151 18.5625 14.625ZM18.5625 12.9375H18H15.1875C14.8776 12.9375 14.625 12.6849 14.625 12.375C14.625 12.0651 14.8776 11.8125 15.1875 11.8125H17.4375H18.5625C18.8724 11.8125 19.125 12.0651 19.125 12.375C19.125 12.6849 18.8724 12.9375 18.5625 12.9375ZM9.5625 3.375V2.25C9.5625 1.94006 9.81506 1.6875 10.125 1.6875H18C18.3099 1.6875 18.5625 1.94006 18.5625 2.25V3.375C18.5625 3.68494 18.3099 3.9375 18 3.9375H10.125C9.81506 3.9375 9.5625 3.68494 9.5625 3.375ZM11.25 5.0625H16.875V8.4375H15.9998C16.1932 8.10506 16.3125 7.72425 16.3125 7.3125C16.3125 6.69206 15.8079 6.1875 15.1875 6.1875H11.25V5.0625ZM5.0625 16.875C5.0625 17.1849 4.80994 17.4375 4.5 17.4375H1.6875V7.3125H4.5C4.80994 7.3125 5.0625 7.56506 5.0625 7.875V16.875ZM8.60794 17.4375L6.92044 16.3125H6.1875V8.4375H6.88275L8.53819 7.6095C8.92744 7.41544 9.36281 7.3125 9.79706 7.3125H15.1875C15.1875 7.93294 14.6829 8.4375 14.0625 8.4375H10.8107L10.7044 8.86331C10.4355 9.93769 9.47531 10.6875 8.36831 10.6875H8.00775V11.8125H8.36831C9.0045 11.8125 9.603 11.6353 10.125 11.3349V17.4375H8.60794ZM14.0625 26.4375C12.3457 26.4375 11.25 25.7709 11.25 25.3125V10.3089C11.4126 10.0783 11.5554 9.83194 11.6601 9.5625H13.6035C13.5405 9.73913 13.5 9.927 13.5 10.125C13.5 10.5587 13.6693 10.9508 13.9388 11.25C13.6688 11.5492 13.5 11.9413 13.5 12.375C13.5 12.8087 13.6693 13.2008 13.9388 13.5C13.6688 13.7992 13.5 14.1913 13.5 14.625C13.5 15.0587 13.6693 15.4508 13.9388 15.75C13.6688 16.0492 13.5 16.4413 13.5 16.875C13.5 17.8054 14.2571 18.5625 15.1875 18.5625H16.875V25.3125C16.875 25.7709 15.7793 26.4375 14.0625 26.4375Z" fill="white"/>
<path d="M29.25 21.2001V15.1875C29.8704 15.1875 30.375 14.6829 30.375 14.0625V12.9375C30.375 12.3171 29.8704 11.8125 29.25 11.8125H22.5C21.8796 11.8125 21.375 12.3171 21.375 12.9375V14.0625C21.375 14.6829 21.8796 15.1875 22.5 15.1875V21.2001L17.0156 29.1774C16.5555 29.8468 16.3125 30.6292 16.3125 31.4415C16.3125 33.6448 18.1052 35.4375 20.3085 35.4375H31.4415C33.6448 35.4375 35.4375 33.6448 35.4375 31.4415C35.4375 30.6292 35.1945 29.8468 34.7344 29.1774L29.25 21.2001ZM32.625 28.125C32.625 28.8714 31.6789 29.25 29.8125 29.25C28.6447 29.25 27.4343 28.7848 26.2761 28.2127C27.513 27.5377 29.0273 27 29.8125 27C31.1957 27 31.77 27.216 32.2926 27.612L32.6205 28.0896C32.6216 28.1014 32.625 28.1126 32.625 28.125ZM22.5 12.9375H29.25L29.2506 14.0625H22.5V12.9375ZM23.625 21.5499V15.1875H28.125V16.3125H25.875V17.4375H28.125V18.5625H27V19.6875H28.125V20.8125H25.875V21.9375H28.3916L31.1625 25.9684C30.7704 25.9059 30.3311 25.875 29.8125 25.875C28.5789 25.875 26.4583 26.7412 25.1027 27.5991C24.9671 27.5248 24.8304 27.4506 24.6977 27.3774C23.2943 26.6046 21.9684 25.875 20.8125 25.875C20.7591 25.875 20.7011 25.8806 20.6454 25.8834L23.625 21.5499ZM31.4415 34.3125H20.3085C18.7256 34.3125 17.4375 33.0244 17.4375 31.4415C17.4375 30.8582 17.6124 30.2957 17.9426 29.8148L19.7477 27.189C20.1549 27.0709 20.5189 27 20.8125 27C21.6793 27 22.8819 27.6621 24.1549 28.3629C25.8683 29.3062 27.81 30.375 29.8125 30.375C31.6687 30.375 32.8612 29.9852 33.4041 29.2286L33.8068 29.8148C34.1376 30.2957 34.3125 30.8582 34.3125 31.4415C34.3125 33.0244 33.0244 34.3125 31.4415 34.3125Z" fill="white"/>
<path d="M25.875 9C25.875 9.93038 26.6321 10.6875 27.5625 10.6875C28.4929 10.6875 29.25 9.93038 29.25 9C29.25 8.06962 28.4929 7.3125 27.5625 7.3125C26.6321 7.3125 25.875 8.06962 25.875 9ZM28.125 9C28.125 9.30994 27.8724 9.5625 27.5625 9.5625C27.2526 9.5625 27 9.30994 27 9C27 8.69006 27.2526 8.4375 27.5625 8.4375C27.8724 8.4375 28.125 8.69006 28.125 9Z" fill="white"/>
<path d="M23.0625 7.875C23.9929 7.875 24.75 7.11788 24.75 6.1875C24.75 5.25712 23.9929 4.5 23.0625 4.5C22.1321 4.5 21.375 5.25712 21.375 6.1875C21.375 7.11788 22.1321 7.875 23.0625 7.875ZM23.0625 5.625C23.3724 5.625 23.625 5.87756 23.625 6.1875C23.625 6.49744 23.3724 6.75 23.0625 6.75C22.7526 6.75 22.5 6.49744 22.5 6.1875C22.5 5.87756 22.7526 5.625 23.0625 5.625Z" fill="white"/>
<path d="M26.4375 3.9375C27.3679 3.9375 28.125 3.18038 28.125 2.25C28.125 1.31962 27.3679 0.5625 26.4375 0.5625C25.5071 0.5625 24.75 1.31962 24.75 2.25C24.75 3.18038 25.5071 3.9375 26.4375 3.9375ZM26.4375 1.6875C26.7474 1.6875 27 1.94006 27 2.25C27 2.55994 26.7474 2.8125 26.4375 2.8125C26.1276 2.8125 25.875 2.55994 25.875 2.25C25.875 1.94006 26.1276 1.6875 26.4375 1.6875Z" fill="white"/>
<path d="M33.75 10.125C34.6804 10.125 35.4375 9.36788 35.4375 8.4375C35.4375 7.50712 34.6804 6.75 33.75 6.75C32.8196 6.75 32.0625 7.50712 32.0625 8.4375C32.0625 9.36788 32.8196 10.125 33.75 10.125ZM33.75 7.875C34.0599 7.875 34.3125 8.12756 34.3125 8.4375C34.3125 8.74744 34.0599 9 33.75 9C33.4401 9 33.1875 8.74744 33.1875 8.4375C33.1875 8.12756 33.4401 7.875 33.75 7.875Z" fill="white"/>
<path d="M2.8125 27.5625H8.4375V28.6875H2.8125V27.5625Z" fill="white"/>
<path d="M2.8125 29.8125H8.4375V30.9375H2.8125V29.8125Z" fill="white"/>
<path d="M5.0625 32.0625H6.1875V33.1875H5.0625V32.0625Z" fill="white"/>
<path d="M2.8125 32.0625H3.9375V33.1875H2.8125V32.0625Z" fill="white"/>
<path d="M7.3125 32.0625H8.4375V33.1875H7.3125V32.0625Z" fill="white"/>
<path d="M14.0625 21.9375C13.1321 21.9375 12.375 22.6946 12.375 23.625C12.375 24.5554 13.1321 25.3125 14.0625 25.3125C14.9929 25.3125 15.75 24.5554 15.75 23.625C15.75 22.6946 14.9929 21.9375 14.0625 21.9375ZM14.0625 24.1875C13.7526 24.1875 13.5 23.9349 13.5 23.625C13.5 23.3151 13.7526 23.0625 14.0625 23.0625C14.3724 23.0625 14.625 23.3151 14.625 23.625C14.625 23.9349 14.3724 24.1875 14.0625 24.1875Z" fill="white"/>
</svg>
