<svg width="36" height="28" viewBox="0 0 36 28" fill="none" xmlns="http://www.w3.org/2000/svg">
<path d="M26.098 16.3478C24.592 16.3478 23.3667 17.573 23.3667 19.079C23.3667 20.585 24.5919 21.8103 26.098 21.8103C27.6041 21.8103 28.8293 20.5851 28.8293 19.079C28.8293 17.573 27.604 16.3478 26.098 16.3478ZM26.098 20.472C25.3299 20.472 24.705 19.8471 24.705 19.079C24.705 18.311 25.3299 17.6861 26.098 17.6861C26.8661 17.6861 27.491 18.311 27.491 19.079C27.491 19.8471 26.8661 20.472 26.098 20.472ZM35.3309 27.9964C35.7004 27.9964 36 27.6968 36 27.3272C36 26.9577 35.7004 26.6581 35.3309 26.6581H30.7927C33.3256 25.0833 35.0156 22.2747 35.0156 19.079C35.0156 17.0178 34.3126 15.1176 33.1338 13.6057V2.22147C33.1338 1.97489 32.9981 1.74822 32.7808 1.63171L29.8849 0.0793769C29.7877 0.0272674 29.6791 0 29.5688 0H27.4717C27.2346 0 27.0152 0.125464 26.8949 0.329887L22.3899 7.98815H16.3937L16.3083 6.66341C16.2856 6.31128 15.9934 6.03735 15.6406 6.03735H12.452V2.95218H13.9947C14.3643 2.95218 14.6639 2.65257 14.6639 2.28303C14.6639 1.9135 14.3643 1.61389 13.9947 1.61389H11.7993C11.7884 1.61364 11.7773 1.61364 11.7663 1.61389H9.57101C9.20148 1.61389 8.90187 1.9135 8.90187 2.28303C8.90187 2.65257 9.20148 2.95218 9.57101 2.95218H11.1136V6.03726H7.7639C5.59253 6.03726 4.63532 7.92533 4.04388 9.57026L2.78531 13.0711C2.75921 13.1437 2.74583 13.2204 2.74583 13.2976V15.6574C1.0795 16.9091 0 18.9012 0 21.1411C0 23.425 1.12249 25.4515 2.84495 26.6981C2.58774 26.7913 2.40398 27.0379 2.40398 27.3273C2.40398 27.6968 2.70359 27.9965 3.07312 27.9965H15.4618C15.8313 27.9965 16.131 27.6968 16.131 27.3273C16.131 26.9578 15.8313 26.6582 15.4618 26.6582H10.9207C12.6122 25.4085 13.7109 23.4008 13.7109 21.1412C13.7109 17.3611 10.6356 14.2858 6.85563 14.2858C5.86998 14.2858 4.93192 14.495 4.08412 14.8711V13.4142L4.13062 13.285H5.82188C6.19142 13.285 6.49103 12.9854 6.49103 12.6159C6.49103 12.2463 6.19142 11.9467 5.82188 11.9467H4.61174L5.3033 10.0232C5.97938 8.14272 6.69219 7.37572 7.7639 7.37572H15.0132L15.0986 8.70045C15.1212 9.05259 15.4135 9.32652 15.7663 9.32652H22.7726C23.0098 9.32652 23.2291 9.20106 23.3494 8.99663L27.8544 1.33837H29.4008L31.7955 2.62204V12.2239C30.2493 10.9366 28.2624 10.1615 26.0979 10.1615C22.5814 10.1615 19.5339 12.2073 18.083 15.1714H13.9516C13.5821 15.1714 13.2825 15.471 13.2825 15.8405C13.2825 16.2101 13.5821 16.5097 13.9516 16.5097H17.5577C17.4424 16.8924 17.3521 17.2863 17.2887 17.6887H15.1678C14.7983 17.6887 14.4987 17.9883 14.4987 18.3579C14.4987 18.7274 14.7983 19.027 15.1678 19.027H17.1807C17.1806 19.0444 17.1805 19.0617 17.1805 19.0791C17.1805 22.2748 18.8705 25.0834 21.4033 26.6582H20.4125C20.0429 26.6582 19.7433 26.9578 19.7433 27.3273C19.7433 27.6968 20.0429 27.9965 20.4125 27.9965H35.3309V27.9964ZM6.85563 15.624C9.89772 15.624 12.3726 18.0989 12.3726 21.1411C12.3726 24.1692 9.92047 26.6353 6.89778 26.6581H6.81347C3.79061 26.6353 1.33829 24.1691 1.33829 21.1411C1.33829 18.0989 3.81336 15.624 6.85563 15.624ZM26.1474 26.6581H26.0485C21.8921 26.6312 18.5188 23.2416 18.5188 19.079C18.5188 14.8998 21.9188 11.4998 26.098 11.4998C30.2773 11.4998 33.6774 14.8998 33.6774 19.079C33.6774 23.2416 30.3039 26.6312 26.1474 26.6581ZM6.85563 23.8724C8.36153 23.8724 9.58673 22.6471 9.58673 21.1411C9.58673 19.6351 8.36162 18.4099 6.85563 18.4099C5.34955 18.4099 4.12427 19.6351 4.12427 21.1411C4.12427 22.6471 5.34955 23.8724 6.85563 23.8724ZM6.85563 19.7482C7.62363 19.7482 8.24845 20.373 8.24845 21.1411C8.24845 21.9092 7.62363 22.5341 6.85563 22.5341C6.08745 22.5341 5.46255 21.9092 5.46255 21.1411C5.46255 20.373 6.08745 19.7482 6.85563 19.7482ZM26.7672 24.1205C26.7672 24.4901 26.4676 24.7897 26.098 24.7897C22.9492 24.7897 20.3875 22.2279 20.3875 19.0791C20.3875 18.7096 20.6871 18.41 21.0566 18.41C21.4261 18.41 21.7257 18.7096 21.7257 19.0791C21.7257 21.49 23.6872 23.4514 26.098 23.4514C26.4676 23.4514 26.7672 23.751 26.7672 24.1205ZM31.1395 19.7483C30.77 19.7483 30.4704 19.4487 30.4704 19.0791C30.4704 16.6682 28.5089 14.7069 26.098 14.7069C25.7285 14.7069 25.4289 14.4072 25.4289 14.0377C25.4289 13.6682 25.7285 13.3686 26.098 13.3686C29.2468 13.3686 31.8087 15.9303 31.8087 19.0791C31.8087 19.4487 31.509 19.7483 31.1395 19.7483Z" fill="white"/>
</svg>
