<svg width="36" height="36" viewBox="0 0 36 36" fill="none" xmlns="http://www.w3.org/2000/svg">
<path d="M36 4.19998V0.599977C36 0.592313 35.9959 0.585914 35.9956 0.57832C35.9945 0.507023 35.9805 0.43657 35.9543 0.370266L35.9534 0.368719C35.9511 0.363234 35.9468 0.359227 35.9445 0.353883C35.9177 0.295383 35.8815 0.241664 35.8373 0.194836C35.8227 0.180281 35.8075 0.1665 35.7915 0.153563C35.7537 0.120305 35.7117 0.0919688 35.6666 0.0693984C35.6481 0.0593437 35.629 0.0502734 35.6095 0.0423281C35.5428 0.0156094 35.4718 0.00126563 35.4 0H16.2C16.0409 7.03125e-05 15.8883 0.0632812 15.7758 0.175781L0.175992 15.7756L0.175078 15.7767C0.126844 15.8266 0.08775 15.8846 0.0595547 15.9481C0.0319922 16.0168 0.0144844 16.0892 0.00745312 16.1629C0.00660938 16.1759 0 16.1869 0 16.2V19.8C0 20.1314 0.268594 20.4 0.599977 20.4H5.09998C6.59046 20.4016 7.79836 21.6095 7.79998 23.1V23.7516L0.175992 31.3756C0.064125 31.4887 0.000984375 31.641 0 31.8V35.4C0 35.7314 0.268594 36 0.599977 36H19.8C19.8809 36 19.9609 35.9835 20.0353 35.9516C20.0434 35.9482 20.0492 35.9407 20.0571 35.9369C20.1208 35.9075 20.1789 35.8672 20.2287 35.8177L20.2345 35.8137L32.2242 23.2242L35.8242 19.6242C35.9367 19.5117 36 19.3591 36 19.2V15.6C36 15.5924 35.9959 15.586 35.9956 15.5784C35.9945 15.5071 35.9805 15.4366 35.9543 15.3703L35.9534 15.3688C35.9511 15.3633 35.9468 15.3593 35.9445 15.3539C35.8855 15.2312 35.7879 15.1313 35.6667 15.0694C35.6482 15.0593 35.6291 15.0503 35.6096 15.0423C35.5428 15.0156 35.4719 15.0012 35.4 15H30.9C30.8489 15.0034 30.7985 15.0135 30.75 15.0303C30.7016 15.0136 30.6512 15.0034 30.6001 15C29.2004 14.9957 28.0371 13.9205 27.9229 12.5255L35.8239 4.62459C35.9359 4.5116 35.9991 4.35916 36 4.19998ZM16.4484 1.20002H33.9515L19.5515 15.6H2.04841L16.4484 1.20002ZM7.79998 25.4484V28.5C7.79836 29.9905 6.59046 31.1984 5.09998 31.2H2.04841L7.79998 25.4484ZM19.2 34.8H1.20002V32.4H5.10005C7.25294 32.3975 8.99754 30.6529 9.00007 28.5V23.1C8.99761 20.9471 7.25294 19.2025 5.10005 19.2H1.20002V16.8H19.2V19.2H15.3C13.1471 19.2024 11.4025 20.9471 11.4 23.1V28.5C11.4024 30.6529 13.1471 32.3975 15.3 32.4H19.2V34.8ZM34.8 18.9515L31.3652 22.3863L20.4 33.8998V32.0399L32.2242 19.6242L34.8 17.0485V18.9515H34.8ZM30.6 16.2C30.6511 16.1966 30.7015 16.1864 30.75 16.1697C30.7984 16.1864 30.8488 16.1966 30.9 16.2H33.9515L31.3652 18.7863L19.5427 31.2H15.3C13.8095 31.1984 12.6016 29.9905 12.6 28.5V23.1C12.6016 21.6095 13.8095 20.4016 15.3 20.4H19.8C19.9591 20.3995 20.1116 20.3363 20.2244 20.224L26.9063 13.542C27.4406 15.1282 28.9264 16.1973 30.6 16.2ZM34.8 3.95156L26.876 11.8756L26.8756 11.8759L20.4 18.3516V16.4484L34.8 2.04841V3.95156Z" fill="white"/>
<path d="M15.2303 28.2123C15.0051 28.1188 14.7458 28.1708 14.5742 28.3439C14.4646 28.4589 14.4025 28.611 14.4002 28.7699C14.4002 29.1013 14.6688 29.3699 15.0002 29.3699C15.3315 29.3699 15.6001 29.1013 15.6001 28.7699C15.6016 28.5261 15.4554 28.3057 15.2303 28.2123Z" fill="white"/>
<path d="M17.5416 25.6739C17.3332 25.6233 17.1137 25.6877 16.9657 25.8428L16.3657 26.4715C16.1379 26.7114 16.1473 27.0905 16.3867 27.3189C16.6261 27.5472 17.0051 27.5388 17.2341 27.3L17.8341 26.6713C17.9821 26.5162 18.0361 26.2938 17.9757 26.0881C17.9154 25.8824 17.7499 25.7245 17.5416 25.6739Z" fill="white"/>
<path d="M19.3657 23.3285L18.7658 23.9572C18.537 24.197 18.5459 24.5769 18.7857 24.8057C19.0254 25.0345 19.4053 25.0256 19.6341 24.7858L20.2341 24.1571C20.4629 23.9173 20.454 23.5374 20.2142 23.3086C19.9744 23.0798 19.5945 23.0887 19.3657 23.3285Z" fill="white"/>
<path d="M21.7657 20.8143L21.1657 21.443C20.9999 21.6167 20.9536 21.8726 21.0481 22.0934C21.1426 22.3142 21.3597 22.4573 21.5999 22.4572C21.7639 22.4575 21.9209 22.3903 22.0341 22.2715L22.634 21.6427C22.8628 21.403 22.8539 21.0231 22.6141 20.7943C22.3744 20.5656 21.9945 20.5745 21.7657 20.8143Z" fill="white"/>
<path d="M24.7423 18.1299C24.5336 18.0794 24.3137 18.1443 24.1658 18.3L23.5659 18.9288C23.4001 19.1025 23.3538 19.3584 23.4483 19.5792C23.5428 19.7999 23.7598 19.9431 24 19.943C24.1641 19.9432 24.3211 19.8761 24.4342 19.7573L25.0342 19.1285C25.1828 18.9735 25.2373 18.7509 25.177 18.5448C25.1167 18.3387 24.951 18.1805 24.7423 18.1299Z" fill="white"/>
<path d="M26.17 16.2723C25.9449 16.3657 25.7987 16.5862 25.8001 16.8299C25.7973 16.9881 25.8603 17.1402 25.9741 17.2501C26.0863 17.3646 26.2397 17.4293 26.4001 17.4299C26.5604 17.4293 26.7139 17.3645 26.8261 17.2501C26.9398 17.1402 27.0028 16.988 27.0002 16.8299C26.9989 16.6709 26.9366 16.5184 26.8261 16.4039C26.6544 16.2308 26.3951 16.1788 26.17 16.2723Z" fill="white"/>
</svg>
