<svg width="36" height="36" viewBox="0 0 36 36" fill="none" xmlns="http://www.w3.org/2000/svg">
<path d="M25.4531 28.668C25.065 28.668 24.75 28.983 24.75 29.3711C24.75 29.7593 25.065 30.0743 25.4531 30.0743C25.8412 30.0743 26.1562 29.7593 26.1562 29.3711C26.1562 28.983 25.8412 28.668 25.4531 28.668Z" fill="white"/>
<path d="M10.5469 28.668C10.1587 28.668 9.84375 28.983 9.84375 29.3711C9.84375 29.7593 10.1587 30.0743 10.5469 30.0743C10.935 30.0743 11.25 29.7593 11.25 29.3711C11.25 28.983 10.935 28.668 10.5469 28.668Z" fill="white"/>
<path d="M7.73438 18.8243C7.34625 18.8243 7.03125 19.1393 7.03125 19.5274C7.03125 19.9155 7.34625 20.2305 7.73438 20.2305C8.1225 20.2305 8.4375 19.9155 8.4375 19.5274C8.4375 19.1393 8.1225 18.8243 7.73438 18.8243Z" fill="white"/>
<path d="M28.8281 18.8243H10.5469C10.1586 18.8243 9.84375 19.1391 9.84375 19.5274C9.84375 19.9157 10.1586 20.2305 10.5469 20.2305H28.8281C29.2164 20.2305 29.5312 19.9157 29.5312 19.5274C29.5312 19.1391 29.2164 18.8243 28.8281 18.8243Z" fill="white"/>
<path d="M35.2969 11.793H32.3538L24.7044 4.14364C23.3338 2.77311 21.1038 2.77311 19.7331 4.14364L18 5.8767L16.2669 4.14364C14.8932 2.76988 12.6697 2.7696 11.2956 4.14364L3.6462 11.793H0.703125C0.314859 11.793 0 12.1079 0 12.4961V15.3086C0 16.2697 0.646383 17.0822 1.52705 17.3356L3.99073 28.4223C4.20652 29.395 5.05322 30.0743 6.04969 30.0743H7.10198C7.42866 31.677 8.84904 32.8868 10.5469 32.8868C12.2447 32.8868 13.6651 31.677 13.9918 30.0743H22.0082C22.3349 31.677 23.7553 32.8868 25.4531 32.8868C27.151 32.8868 28.5713 31.677 28.898 30.0743H29.9503C30.9468 30.0743 31.7935 29.395 32.0092 28.4225L34.473 17.3356C35.3536 17.0822 36 16.2697 36 15.3086V12.4961C36 12.1078 35.6851 11.793 35.2969 11.793ZM20.7275 5.138C21.5498 4.3157 22.8877 4.3157 23.71 5.138L30.3649 11.7929H23.9162L18.9944 6.87106L20.7275 5.138ZM12.29 5.138C13.1123 4.3157 14.4502 4.3157 15.2725 5.138L21.9274 11.7929H5.63505L12.29 5.138ZM10.5469 31.4805C9.38377 31.4805 8.4375 30.5342 8.4375 29.3711C8.4375 28.208 9.38377 27.2618 10.5469 27.2618C11.71 27.2618 12.6562 28.208 12.6562 29.3711C12.6562 30.5342 11.71 31.4805 10.5469 31.4805ZM25.4531 31.4805C24.29 31.4805 23.3438 30.5342 23.3438 29.3711C23.3438 28.208 24.29 27.2618 25.4531 27.2618C26.6162 27.2618 27.5625 28.208 27.5625 29.3711C27.5625 30.5342 26.6162 31.4805 25.4531 31.4805ZM30.6364 28.1177C30.5657 28.4366 30.2771 28.668 29.9503 28.668H28.898C28.5713 27.0652 27.151 25.8555 25.4531 25.8555C23.7553 25.8555 22.3349 27.0652 22.0082 28.668H13.9918C13.6651 27.0652 12.2447 25.8555 10.5469 25.8555C8.84904 25.8555 7.42866 27.0652 7.10198 28.668H6.04969C5.72295 28.668 5.43431 28.4366 5.36351 28.1175L2.98589 17.418H33.0141L30.6364 28.1177ZM34.5938 15.3086C34.5938 15.6963 34.2783 16.0118 33.8906 16.0118H2.10938C1.72167 16.0118 1.40625 15.6963 1.40625 15.3086V13.1993H34.5938V15.3086Z" fill="white"/>
</svg>
