<svg width="412" height="229" fill="none" xmlns="http://www.w3.org/2000/svg">
    <g clip-path="url(#a)">
        <path d="M23.973 226.725s-47.946-58.914-8.27-124.047c25.105-41.254 78.232-53.274 109.13-30.08 13.159 9.883 62.317 1.785 105.302-46.767 45.768-51.689 168.177-26.297 146.941 80.676-11.826 59.56 40.994 61.264 13.245 120.345l-366.348-.127z" fill="url(#b)"/>
        <path d="M358.511 36.925 299.71 56.37l11.807 9.842-50.889 53.267-44.597-38.297-178.04 145.876 1.572.026h44.35l131.679-107.898 47.02 40.374 71.327-74.663 12.739 10.622 11.833-58.594z" fill="#739AF0"/>
        <path d="m141.707 185.791-15.722-1.331s.912-9.696-1.858-22.642a79.537 79.537 0 0 0-13.984-31.344c-13.465-17.9-53.46-27.922-53.46-27.922v-2.318l1.438-.153a5.767 5.767 0 0 0-1.438-.666v-5.467a19.058 19.058 0 0 1 4.541.446 31.191 31.191 0 0 0-4.541-.819v-2.877c57.934 1.552 76.833 36.552 82.76 63.635a108.48 108.48 0 0 1 2.264 31.458z" fill="#739AF0"/>
        <path d="m210.523 180.684-68.816 5.107c-.353-10.601-3.116-21.562-5.793-29.873a140.863 140.863 0 0 0-5.268-13.984c-20.583-45.11-73.963-51.222-73.963-51.222l59.266-24.26c28.635 2.151 48.699 15.896 62.743 33.156 27.489 33.796 31.831 81.076 31.831 81.076z" fill="#BDD0FB"/>
        <path d="m210.523 180.683-68.816 5.108-15.722-1.332s.912-9.696-1.858-22.641a94.39 94.39 0 0 1 11.787-5.893 149.044 149.044 0 0 0 3.529-1.559c43.811-20.224 39.729-51.721 39.229-54.738 27.509 33.775 31.851 81.055 31.851 81.055z" fill="#BDD0FB"/>
        <path d="m205.103 185.984-61.331-1.192.219-1.178c.034-.18 3.183-18.16-4.175-38.624a76.906 76.906 0 0 0-20.857-31.118c-11.953-10.881-27.928-18.985-47.486-24.073l-3.01-.786 47.866-19.052h.207c.512 0 12.845-.2 28.687 7.326a89.059 89.059 0 0 1 25.418 18.246c9.456 9.622 17.407 21.735 23.64 36.006.493 1.092 12.14 27.249 11.521 42.952l-.699 11.493zm-58.927-3.183 57.002 1.099.553-9.543c.246-6.273-1.632-15.515-5.434-26.736-2.89-8.531-5.887-15.23-5.913-15.316-6.127-14.025-13.918-25.911-23.174-35.347a86.976 86.976 0 0 0-24.786-17.834 74.804 74.804 0 0 0-23.354-6.852 15.881 15.881 0 0 0-7.671 1.019L80.223 86.496a1.998 1.998 0 0 0 .133 3.736c16.129 5.194 29.56 12.652 40.009 22.148a79.012 79.012 0 0 1 21.409 32.011 87.127 87.127 0 0 1 4.961 27.696 72.66 72.66 0 0 1-.546 10.714h-.013z" fill="#739AF0"/>
        <path style="mix-blend-mode:multiply" opacity=".3" d="M172.113 115.517c0 10.102-5.913 16.208-16.022 16.208-10.109 0-20.564-6.106-20.564-16.208 0-10.102 5.601-16.149 15.703-16.149s20.883 6.047 20.883 16.149z" fill="url(#c)"/>
        <path d="M263.97 218.694v6.034a2.317 2.317 0 0 1-1.492 2.171 2.108 2.108 0 0 1-.419.119 2.05 2.05 0 0 1-.413.04h-96.159a2.334 2.334 0 0 1-2.324-2.21v-6.273a2.335 2.335 0 0 1 2.324-2.205h96.159a2.126 2.126 0 0 1 .832.154 2.339 2.339 0 0 1 1.492 2.17z" fill="url(#d)"/>
        <path d="M216.756 227.078h-51.515a2.21 2.21 0 0 1-2.078-2.211v-6.273a2.214 2.214 0 0 1 2.078-2.204h45.189c.719 3.123 2.404 7.478 6.326 10.688z" fill="url(#e)"/>
        <path d="M252.27 216.37h-1.092v10.688h1.092V216.37z" fill="url(#f)"/>
        <path d="M248.574 216.37h-1.093v10.688h1.093V216.37z" fill="url(#g)"/>
        <path d="M244.132 216.37h-1.092v10.688h1.092V216.37z" fill="url(#h)"/>
        <path d="M237.333 216.37h-1.092v10.688h1.092V216.37z" fill="url(#i)"/>
        <path d="M230.148 216.37h-1.092v10.688h1.092V216.37z" fill="url(#j)"/>
        <path d="M219.12 216.37h-1.092v10.688h1.092V216.37z" fill="url(#k)"/>
        <path d="M208.799 216.37h-1.092v10.688h1.092V216.37z" fill="url(#l)"/>
        <path d="M199.582 216.37h-1.092v10.688h1.092V216.37z" fill="url(#m)"/>
        <path d="M255.792 216.37H254.7v10.688h1.092V216.37z" fill="url(#n)"/>
        <path d="M258.117 216.37h-1.093v10.688h1.093V216.37z" fill="url(#o)"/>
        <path d="M260.367 216.37h-1.092v10.688h1.092V216.37z" fill="url(#p)"/>
        <path d="M262.059 216.423v10.615c-.136.027-.274.04-.413.04h-.666V216.37h.666c.139.004.278.022.413.053z" fill="url(#q)"/>
        <path d="M263.571 217.396v8.657a2.313 2.313 0 0 1-1.092.865v-10.395c.446.17.828.475 1.092.873z" fill="url(#r)"/>
        <path d="M253.715 208.006v6.034a2.314 2.314 0 0 1-1.911 2.29 2.043 2.043 0 0 1-.413.04h-96.185a2.334 2.334 0 0 1-2.324-2.21v-6.273a2.335 2.335 0 0 1 2.324-2.211H251.784c.145.026.288.067.426.12h.12l.113.06.067.033.06.04.113.066.12.087.086.073.06.054c.059.054.115.112.167.173l.046.053.047.06.087.12c.285.407.432.895.419 1.391z" fill="url(#s)"/>
        <path d="M206.475 216.37H154.96a2.21 2.21 0 0 1-2.078-2.21v-6.273a2.208 2.208 0 0 1 2.078-2.211h45.189l.06.266a19.037 19.037 0 0 0 6.266 10.428z" fill="url(#t)"/>
        <path d="M241.989 205.676h-1.093v10.688h1.093v-10.688z" fill="url(#u)"/>
        <path d="M238.292 205.676H237.2v10.688h1.092v-10.688z" fill="url(#v)"/>
        <path d="M233.858 205.676h-1.092v10.688h1.092v-10.688z" fill="url(#w)"/>
        <path d="M227.051 205.676h-1.092v10.688h1.092v-10.688z" fill="url(#x)"/>
        <path d="M219.867 205.676h-1.093v10.688h1.093v-10.688z" fill="url(#y)"/>
        <path d="M208.839 205.676h-1.092v10.688h1.092v-10.688z" fill="url(#z)"/>
        <path d="M198.517 205.676h-1.092v10.688h1.092v-10.688z" fill="url(#A)"/>
        <path d="M189.301 205.676h-1.092v10.688h1.092v-10.688z" fill="url(#B)"/>
        <path d="M245.511 205.676h-1.092v10.688h1.092v-10.688z" fill="url(#C)"/>
        <path d="M247.834 205.676h-1.092v10.688h1.092v-10.688z" fill="url(#D)"/>
        <path d="M250.085 205.676h-1.092v10.688h1.092v-10.688z" fill="url(#E)"/>
        <path d="M251.777 205.716v10.614a2.043 2.043 0 0 1-.413.04h-.666v-10.694h.666c.139 0 .277.013.413.04z" fill="url(#F)"/>
        <path d="M253.295 206.707v8.657c-.267.395-.648.7-1.092.873v-10.402c.444.173.825.477 1.092.872z" fill="url(#G)"/>
        <path d="M258.662 197.578v6.033a2.31 2.31 0 0 1-1.059 1.977 2.344 2.344 0 0 1-.859.34c-.136.027-.274.04-.412.04h-96.159a2.264 2.264 0 0 1-1.072-.266 2.314 2.314 0 0 1-1.239-1.838v-6.38a2.339 2.339 0 0 1 2.324-2.204h96.159c.138.001.276.012.413.034a2.348 2.348 0 0 1 1.518.992c.251.377.385.819.386 1.272z" fill="url(#H)"/>
        <path d="M211.442 205.942h-51.515a1.841 1.841 0 0 1-.959-.266 2.346 2.346 0 0 1-1.106-1.838v-6.38a2.214 2.214 0 0 1 2.078-2.204h45.163a19.263 19.263 0 0 0 5.993 10.422l.346.266z" fill="url(#I)"/>
        <path d="M246.955 195.254h-1.092v10.688h1.092v-10.688z" fill="url(#J)"/>
        <path d="M243.26 195.254h-1.092v10.688h1.092v-10.688z" fill="url(#K)"/>
        <path d="M238.825 195.254h-1.093v10.688h1.093v-10.688z" fill="url(#L)"/>
        <path d="M232.026 195.254h-1.092v10.688h1.092v-10.688z" fill="url(#M)"/>
        <path d="M224.834 195.254h-1.092v10.688h1.092v-10.688z" fill="url(#N)"/>
        <path d="M213.807 195.254h-1.092v10.688h1.092v-10.688z" fill="url(#O)"/>
        <path d="M203.485 195.254h-1.092v10.688h1.092v-10.688z" fill="url(#P)"/>
        <path d="M194.269 195.254h-1.092v10.688h1.092v-10.688z" fill="url(#Q)"/>
        <path d="M250.479 195.254h-1.092v10.688h1.092v-10.688z" fill="url(#R)"/>
        <path d="M252.809 195.254h-1.092v10.688h1.092v-10.688z" fill="url(#S)"/>
        <path d="M255.053 195.254h-1.092v10.688h1.092v-10.688z" fill="url(#T)"/>
        <path d="M256.745 195.288v10.614c-.136.027-.274.04-.413.04h-.666v-10.688h.666a2.12 2.12 0 0 1 .413.034z" fill="url(#U)"/>
        <path d="M258.263 196.28v8.657c-.269.391-.65.692-1.092.865v-10.395c.444.173.825.477 1.092.873z" fill="url(#V)"/>
        <path d="M260.96 186.89v6.033a2.317 2.317 0 0 1-1.911 2.291c-.136.027-.274.04-.413.04h-96.152a2.34 2.34 0 0 1-2.324-2.211v-6.273a2.343 2.343 0 0 1 2.051-2.191c.091-.006.182-.006.273 0h96.159a2.43 2.43 0 0 1 .839.16c.444.173.825.477 1.092.873.251.379.386.823.386 1.278z" fill="url(#W)"/>
        <path d="M213.76 195.254h-51.529a2.21 2.21 0 0 1-2.078-2.211v-6.273a2.254 2.254 0 0 1 1.832-2.191c.082-.006.164-.006.246 0h45.189c.726 3.143 2.411 7.485 6.34 10.675z" fill="url(#X)"/>
        <path d="M249.26 184.56h-1.092v10.688h1.092V184.56z" fill="url(#Y)"/>
        <path d="M245.564 184.56h-1.092v10.688h1.092V184.56z" fill="url(#Z)"/>
        <path d="M241.129 184.56h-1.092v10.688h1.092V184.56z" fill="url(#aa)"/>
        <path d="M234.324 184.56h-1.093v10.688h1.093V184.56z" fill="url(#ab)"/>
        <path d="M227.138 184.56h-1.092v10.688h1.092V184.56z" fill="url(#ac)"/>
        <path d="M216.111 184.56h-1.092v10.688h1.092V184.56z" fill="url(#ad)"/>
        <path d="M205.788 184.56h-1.092v10.688h1.092V184.56z" fill="url(#ae)"/>
        <path d="M196.573 184.56h-1.093v10.688h1.093V184.56z" fill="url(#af)"/>
        <path d="M252.783 184.56h-1.093v10.688h1.093V184.56z" fill="url(#ag)"/>
        <path d="M255.107 184.56h-1.092v10.688h1.092V184.56z" fill="url(#ah)"/>
        <path d="M257.358 184.56h-1.092v10.688h1.092V184.56z" fill="url(#ai)"/>
        <path d="M259.043 184.6v10.614c-.136.027-.275.04-.413.04h-.666V184.56h.666a2.05 2.05 0 0 1 .413.04z" fill="url(#aj)"/>
        <path d="M260.567 185.591v8.657a2.346 2.346 0 0 1-1.092.872v-10.401c.444.173.825.477 1.092.872z" fill="url(#ak)"/>
        <path d="M253.894 176.215v6.033c.003.464-.137.917-.399 1.299a2.344 2.344 0 0 1-1.519.992.984.984 0 0 1-.133 0h-96.432a2.335 2.335 0 0 1-2.324-2.211V176.055a.557.557 0 0 1 0-.1 2.336 2.336 0 0 1 1.745-2.037h.067c.166-.038.336-.056.506-.054h96.571a2.346 2.346 0 0 1 1.918 2.351z" fill="url(#al)"/>
        <path d="M206.674 184.579h-51.516a2.204 2.204 0 0 1-2.071-2.21V176.096a.557.557 0 0 1 0-.1 2.258 2.258 0 0 1 1.612-2.051h.087c.12-.025.243-.036.366-.034h45.189v.074a19.098 19.098 0 0 0 6.286 10.594h.047z" fill="url(#am)"/>
        <path d="M242.195 173.891h-1.092v10.688h1.092v-10.688z" fill="url(#an)"/>
        <path d="M238.493 173.891H237.4v10.688h1.093v-10.688z" fill="url(#ao)"/>
        <path d="M234.057 173.891h-1.092v10.688h1.092v-10.688z" fill="url(#ap)"/>
        <path d="M227.258 173.891h-1.092v10.688h1.092v-10.688z" fill="url(#aq)"/>
        <path d="M220.066 173.891h-1.092v10.688h1.092v-10.688z" fill="url(#ar)"/>
        <path d="M209.045 173.891h-1.092v10.688h1.092v-10.688z" fill="url(#as)"/>
        <path d="M198.723 173.891h-1.092v10.688h1.092v-10.688z" fill="url(#at)"/>
        <path d="M189.507 173.891h-1.092v10.688h1.092v-10.688z" fill="url(#au)"/>
        <path d="M245.71 173.891h-1.092v10.688h1.092v-10.688z" fill="url(#av)"/>
        <path d="M248.041 173.891h-1.092v10.688h1.092v-10.688z" fill="url(#aw)"/>
        <path d="M250.285 173.891h-1.092v10.688h1.092v-10.688z" fill="url(#ax)"/>
        <path d="M251.976 173.924v10.614a1.974 1.974 0 0 1-.413.04h-.666v-10.694h.666c.139-.001.277.013.413.04z" fill="url(#ay)"/>
        <path d="M253.495 174.916v8.657c-.266.395-.647.7-1.092.873v-10.402c.445.173.826.477 1.092.872z" fill="url(#az)"/>
        <path d="M253.715 165.6v6.04a2.306 2.306 0 0 1-1.485 2.165 1.484 1.484 0 0 1-.333.099.179.179 0 0 1-.086 0 2.05 2.05 0 0 1-.413.04h-96.192c-.1.007-.2.007-.3 0h-.113a2.337 2.337 0 0 1-1.911-2.164v-6.299a2.335 2.335 0 0 1 2.324-2.205h96.571c.146.027.288.067.427.12h.119l.114.054.126.073.113.073.12.087.087.073.06.053c.06.053.116.111.166.173a.187.187 0 0 1 .047.054l.046.053.087.12c.286.407.435.894.426 1.391z" fill="url(#aA)"/>
        <path d="M206.475 173.964h-51.769a2.242 2.242 0 0 1-1.824-2.184v-6.299a2.212 2.212 0 0 1 2.077-2.205h45.19l.06.26a19.092 19.092 0 0 0 6.173 10.355l.093.073z" fill="url(#aB)"/>
        <path d="M241.989 163.276h-1.093v10.688h1.093v-10.688z" fill="url(#aC)"/>
        <path d="M238.292 163.276H237.2v10.688h1.092v-10.688z" fill="url(#aD)"/>
        <path d="M233.858 163.276h-1.092v10.688h1.092v-10.688z" fill="url(#aE)"/>
        <path d="M227.051 163.276h-1.092v10.688h1.092v-10.688z" fill="url(#aF)"/>
        <path d="M219.867 163.276h-1.093v10.688h1.093v-10.688z" fill="url(#aG)"/>
        <path d="M208.839 163.276h-1.092v10.688h1.092v-10.688z" fill="url(#aH)"/>
        <path d="M198.517 163.276h-1.092v10.688h1.092v-10.688z" fill="url(#aI)"/>
        <path d="M189.301 163.276h-1.092v10.688h1.092v-10.688z" fill="url(#aJ)"/>
        <path d="M245.511 163.276h-1.092v10.688h1.092v-10.688z" fill="url(#aK)"/>
        <path d="M247.834 163.276h-1.092v10.688h1.092v-10.688z" fill="url(#aL)"/>
        <path d="M250.085 163.276h-1.092v10.688h1.092v-10.688z" fill="url(#aM)"/>
        <path d="M251.777 163.31v10.614a2.043 2.043 0 0 1-.413.04h-.666v-10.688h.666c.138.001.276.012.413.034z" fill="url(#aN)"/>
        <path d="M253.295 164.302v8.657a2.334 2.334 0 0 1-1.092.866V163.43c.444.173.825.477 1.092.872z" fill="url(#aO)"/>
        <path d="M253.895 154.933v6.039c.007.475-.133.94-.4 1.332a2.338 2.338 0 0 1-1.112.846 2.43 2.43 0 0 1-.426.12h-96.545a2.333 2.333 0 0 1-2.324-2.204v-6.28a2.333 2.333 0 0 1 2.324-2.204h96.305c.095-.01.191-.01.286 0 .147.02.291.061.427.12.068.025.135.054.199.086l.12.067.12.073.1.073c.084.06.162.127.233.2l.067.073.04.04.066.08.093.127c.293.411.443.907.427 1.412z" fill="url(#aP)"/>
        <path d="M206.674 163.296h-51.515a2.195 2.195 0 0 1-2.071-2.204v-6.279a2.196 2.196 0 0 1 2.071-2.205h45.189l.06.247a19.084 19.084 0 0 0 6.246 10.428l.02.013z" fill="url(#aQ)"/>
        <path d="M242.195 152.608h-1.092v10.688h1.092v-10.688z" fill="url(#aR)"/>
        <path d="M238.493 152.608H237.4v10.688h1.093v-10.688z" fill="url(#aS)"/>
        <path d="M234.057 152.608h-1.092v10.688h1.092v-10.688z" fill="url(#aT)"/>
        <path d="M227.258 152.608h-1.092v10.688h1.092v-10.688z" fill="url(#aU)"/>
        <path d="M220.066 152.608h-1.092v10.688h1.092v-10.688z" fill="url(#aV)"/>
        <path d="M209.045 152.608h-1.092v10.688h1.092v-10.688z" fill="url(#aW)"/>
        <path d="M198.723 152.608h-1.092v10.688h1.092v-10.688z" fill="url(#aX)"/>
        <path d="M189.507 152.608h-1.092v10.688h1.092v-10.688z" fill="url(#aY)"/>
        <path d="M245.71 152.608h-1.092v10.688h1.092v-10.688z" fill="url(#aZ)"/>
        <path d="M248.041 152.608h-1.092v10.688h1.092v-10.688z" fill="url(#ba)"/>
        <path d="M250.285 152.608h-1.092v10.688h1.092v-10.688z" fill="url(#bb)"/>
        <path d="M251.976 152.648v10.615a2.585 2.585 0 0 1-.413.033h-.666v-10.688h.666c.139 0 .277.013.413.04z" fill="url(#bc)"/>
        <path d="M253.495 153.633v8.657a2.339 2.339 0 0 1-1.112.859v-10.381a2.33 2.33 0 0 1 1.112.865z" fill="url(#bd)"/>
        <path d="M260.96 144.505v6.039a2.306 2.306 0 0 1-1.485 2.165 1.658 1.658 0 0 1-.426.12c-.136.026-.274.04-.413.039h-96.152a2.266 2.266 0 0 1-1.038-.246 2.358 2.358 0 0 1-1.279-1.865.362.362 0 0 0 0-.093v-6.293a2.343 2.343 0 0 1 2.051-2.191h96.432c.137-.01.275-.01.413 0a2.319 2.319 0 0 1 1.911 2.291l-.014.034z" fill="url(#be)"/>
        <path d="M213.76 152.854h-51.529a1.84 1.84 0 0 1-.925-.246 2.372 2.372 0 0 1-1.146-1.865.362.362 0 0 0 0-.093v-6.279a2.25 2.25 0 0 1 1.831-2.191h45.436a19.315 19.315 0 0 0 5.993 10.428l.34.246z" fill="url(#bf)"/>
        <path d="M249.26 142.167h-1.092v10.688h1.092v-10.688z" fill="url(#bg)"/>
        <path d="M245.564 142.167h-1.092v10.688h1.092v-10.688z" fill="url(#bh)"/>
        <path d="M241.129 142.167h-1.092v10.688h1.092v-10.688z" fill="url(#bi)"/>
        <path d="M234.324 142.167h-1.093v10.688h1.093v-10.688z" fill="url(#bj)"/>
        <path d="M227.138 142.167h-1.092v10.688h1.092v-10.688z" fill="url(#bk)"/>
        <path d="M216.111 142.167h-1.092v10.688h1.092v-10.688z" fill="url(#bl)"/>
        <path d="M205.788 142.167h-1.092v10.688h1.092v-10.688z" fill="url(#bm)"/>
        <path d="M196.573 142.167h-1.093v10.688h1.093v-10.688z" fill="url(#bn)"/>
        <path d="M252.783 142.167h-1.093v10.688h1.093v-10.688z" fill="url(#bo)"/>
        <path d="M255.107 142.167h-1.092v10.688h1.092v-10.688z" fill="url(#bp)"/>
        <path d="M257.358 142.167h-1.092v10.688h1.092v-10.688z" fill="url(#bq)"/>
        <path d="M259.043 142.2v10.615c-.136.027-.275.04-.413.04h-.666V142.2h.666c.137-.01.275-.01.413 0z" fill="url(#br)"/>
        <path d="M260.567 143.173v8.657a2.33 2.33 0 0 1-1.092.865V142.32a2.35 2.35 0 0 1 1.092.853z" fill="url(#bs)"/>
        <path d="M253.895 133.849v5.994a2.348 2.348 0 0 1-1.918 2.29h-96.565a2.328 2.328 0 0 1-2.324-2.204v-6.199a2.335 2.335 0 0 1 2.324-2.205h96.152c.138 0 .277.014.413.04.147.021.29.061.426.12.444.171.825.473 1.092.866.261.383.4.835.4 1.298z" fill="url(#bt)"/>
        <path d="M206.674 142.18h-51.515a2.195 2.195 0 0 1-2.071-2.204V133.73a2.205 2.205 0 0 1 2.071-2.205h45.189c.719 3.144 2.397 7.485 6.306 10.655h.02z" fill="url(#bu)"/>
        <path d="M242.195 131.492h-1.092v10.688h1.092v-10.688z" fill="url(#bv)"/>
        <path d="M238.493 131.492H237.4v10.688h1.093v-10.688z" fill="url(#bw)"/>
        <path d="M234.057 131.492h-1.092v10.688h1.092v-10.688z" fill="url(#bx)"/>
        <path d="M227.258 131.492h-1.092v10.688h1.092v-10.688z" fill="url(#by)"/>
        <path d="M220.066 131.492h-1.092v10.688h1.092v-10.688z" fill="url(#bz)"/>
        <path d="M209.045 131.492h-1.092v10.688h1.092v-10.688z" fill="url(#bA)"/>
        <path d="M198.723 131.492h-1.092v10.688h1.092v-10.688z" fill="url(#bB)"/>
        <path d="M189.507 131.492h-1.092v10.688h1.092v-10.688z" fill="url(#bC)"/>
        <path d="M245.71 131.492h-1.092v10.688h1.092v-10.688z" fill="url(#bD)"/>
        <path d="M248.041 131.492h-1.092v10.688h1.092v-10.688z" fill="url(#bE)"/>
        <path d="M250.285 131.492h-1.092v10.688h1.092v-10.688z" fill="url(#bF)"/>
        <path d="M251.976 131.532v10.615c-.137.01-.275.01-.413 0h-.666v-10.655h.666c.139 0 .277.013.413.04z" fill="url(#bG)"/>
        <path d="M253.495 132.517v8.657a2.336 2.336 0 0 1-1.092.872v-10.395c.444.171.825.473 1.092.866z" fill="url(#bH)"/>
        <path d="M219.471 179.956c4.022-29.785-16.863-57.19-46.648-61.212-29.784-4.021-57.189 16.864-61.211 46.648-4.022 29.784 16.863 57.19 46.647 61.211 29.785 4.022 57.19-16.863 61.212-46.647z" fill="url(#bI)"/>
        <path d="M214.375 182.185c5.255-29.591-14.473-57.84-44.065-63.095-29.592-5.256-57.84 14.473-63.096 44.065-5.255 29.592 14.474 57.84 44.066 63.096 29.591 5.255 57.84-14.474 63.095-44.066z" fill="url(#bJ)"/>
        <path d="M160.786 222.889a49.58 49.58 0 0 1-48.633-39.909 49.587 49.587 0 0 1 89.859-37.224 49.591 49.591 0 0 1-6.165 62.61 49.277 49.277 0 0 1-35.061 14.523zm0-96.205a46.615 46.615 0 1 0 32.996 13.651 46.31 46.31 0 0 0-32.996-13.651z" fill="url(#bK)"/>
        <path d="M167.611 187.696a8.138 8.138 0 0 0-.113-2.877 5.984 5.984 0 0 0-1.219-2.357 11.346 11.346 0 0 0-2.43-2.151 30.334 30.334 0 0 0-3.776-2.111 77.33 77.33 0 0 1-6.966-3.829 24.704 24.704 0 0 1-5.207-4.235 14.47 14.47 0 0 1-3.077-5.168 16.34 16.34 0 0 1 1.332-12.393 13.773 13.773 0 0 1 3.836-4.268 17.122 17.122 0 0 1 5.507-2.617 22.793 22.793 0 0 1 6.866-.793l.972-8.177 6.573.786-.979 8.284a20.768 20.768 0 0 1 6.193 2.663 15.557 15.557 0 0 1 4.469 4.27 15.556 15.556 0 0 1 2.456 5.672c.491 2.309.584 4.686.273 7.026l-11.88-1.412c.36-3.054-.049-5.418-1.225-7.092a7.018 7.018 0 0 0-5.174-2.923 8.885 8.885 0 0 0-3.25.139 6 6 0 0 0-2.364 1.153 5.617 5.617 0 0 0-1.531 1.964 8.44 8.44 0 0 0-.72 2.59 7.474 7.474 0 0 0 .107 2.604 5.588 5.588 0 0 0 1.165 2.291 11.355 11.355 0 0 0 2.457 2.151c1.261.834 2.57 1.59 3.923 2.264a108.352 108.352 0 0 1 6.892 3.916 25.104 25.104 0 0 1 5.181 4.275 13.985 13.985 0 0 1 3.609 11.76 15.015 15.015 0 0 1-1.884 5.893 13.81 13.81 0 0 1-3.863 4.229 16.739 16.739 0 0 1-5.527 2.517 24.826 24.826 0 0 1-6.905.732l-.899 7.599-6.54-.779.899-7.559a28.029 28.029 0 0 1-6.426-2.27 17.79 17.79 0 0 1-5.261-3.996 15.73 15.73 0 0 1-3.296-5.913 19.02 19.02 0 0 1-.546-8.038l11.9 1.359a11.915 11.915 0 0 0 .22 4.614 7.766 7.766 0 0 0 1.691 3.15 7.522 7.522 0 0 0 2.717 1.871c1.045.417 2.14.694 3.256.826 1.15.16 2.318.128 3.457-.093a6.911 6.911 0 0 0 2.603-1.086 5.577 5.577 0 0 0 1.732-1.904 6.82 6.82 0 0 0 .772-2.557z" fill="url(#bL)"/>
        <path d="M323.276 190.286s-5.906-6.886-.366-11.261c0 0 4.049-2.45 7.325-2.25 0 0-4.661 7.837-3.163 8.616 1.498.78 4.581-9.109 4.581-9.109s9.21-.893 12.167.532c0 0-7.871 6.44-6.213 6.826 1.658.386 10.162-5.94 10.162-5.94s8.57 1.458 8.111 6.659c-.46 5.201-3.41 6.846-4.708 6.706-1.299-.14-8.89-3.036-9.05-1.998-.16 1.039 4.401 4.542 7.605 4.702 0 0-6.047 6.659-10.063 4.741-4.015-1.918-4.355-4.968-6.858-6.113-2.504-1.145-4.662-1.139-3.61 0s5.567 2.297 6.999 4.828c1.432 2.53 2.717 4.242-1.438 3.616-4.156-.626-10.908-3.663-11.208-7.146l-.273-3.409z" fill="#BDD0FB"/>
        <path d="M351.692 184.525s-23.308-.892-28.415 5.76a16.797 16.797 0 0 1-4.662 6.506 14.66 14.66 0 0 0-5.327 10.302l.906.08s1.451-6.206 4.088-9.096l.4-.406c.406-.38.666-.666.892-.88 1.299-1.251 3.117-2.87 3.996-3.023 0 .014-2.258-8.244 28.122-9.243z" fill="#ADBEE6"/>
        <path d="M302.633 181.63s9.39-5.261 5.008-12.4c0 0-3.509-4.382-7.265-5.507 0 0 1.998 10.655 0 10.894-1.998.24-1.378-12.026-1.378-12.026s-9.889-4.755-13.772-4.382c0 0 6.133 10.395 4.136 10.142-1.998-.253-8.897-10.768-8.897-10.768s-10.142-1.878-11.767 4.136c-1.625 6.013.999 9.016 2.504 9.389 1.505.373 11.148.253 10.895 1.505-.254 1.252-6.76 3.256-10.402 2.124 0 0 3.995 9.896 9.269 9.396 5.275-.499 6.886-3.755 10.142-3.995 3.257-.24 5.634.626 3.996 1.505-1.638.879-7.139.286-9.769 2.517s-4.761 3.616.126 4.615c4.888.999 13.645.379 15.403-3.376l1.771-3.769z" fill="#BDD0FB"/>
        <path d="M305.137 190.765a19.99 19.99 0 0 1-2.504-9.136c-3.003-9.523-29.3-18.033-29.3-18.033 33.429 13.524 27.549 21.789 27.549 21.789.899.526 2.258 3.043 3.197 4.974.133.32.339.766.665 1.365l.273.606c1.759 4.302.84 11.813.84 11.813l1.045.28c2.291-7.498-1.765-13.658-1.765-13.658z" fill="#ADBEE6"/>
        <path d="M317.57 174.37s-12.379-6.932-6.586-16.341c0 0 4.622-5.774 9.576-7.259 0 0-2.664 14.031 0 14.357 2.664.327 1.811-15.842 1.811-15.842s13.039-6.273 18.16-5.78c0 0-8.091 13.704-5.447 13.371 2.643-.332 11.72-14.197 11.72-14.197s13.372-2.477 15.516 5.447c2.144 7.925-1.332 11.887-3.33 12.38-1.998.493-14.69.333-14.357 1.997.333 1.665 8.91 4.289 13.698 2.804 0 0-5.281 13.039-12.213 12.379-6.932-.659-9.083-4.954-13.372-5.28-4.288-.327-7.431.825-5.28 1.997 2.151 1.172 9.409.38 12.872 3.33 3.463 2.95 6.273 4.761-.167 6.08-6.439 1.318-17.979.499-20.304-4.455l-2.297-4.988z" fill="#BDD0FB"/>
        <path d="M356.2 150.604s-34.668 11.227-38.623 23.766a26.347 26.347 0 0 1-3.297 12.053s-5.327 8.118-2.297 17.98l1.372-.373s-1.212-9.909 1.112-15.576l.346-.772c.413-.806.666-1.399.866-1.831 1.232-2.538 3.016-5.847 4.208-6.54 0 .014-7.764-10.881 36.313-28.707z" fill="#ADBEE6"/>
        <path d="M317.157 225.852a24.25 24.25 0 0 0 24.246-24.252h-48.499a24.261 24.261 0 0 0 24.253 24.252z" fill="#739AF0"/>
        <path d="M323.124 225.666a24.25 24.25 0 0 1-27.263-24.066h5.994a24.255 24.255 0 0 0 21.269 24.066z" fill="#BDD0FB"/>
        <path d="M341.743 227.078h-49.172a2.987 2.987 0 0 1 2.99-2.99h43.185a2.983 2.983 0 0 1 2.119.873 2.988 2.988 0 0 1 .878 2.117zM341.962 201.6h-49.851v.745h49.851v-.745z" fill="#739AF0"/>
        <path d="M104.083 34.242v1.472s-.4 4.601 5.26 5.274c5.661.672 10.309.579 10.156-2.964-.513-2.75-1.425-7.012-1.465-9.323-.011-.92.056-1.84.2-2.75l-10.968-.22-3.23.526.047 7.985z" fill="url(#bM)"/>
        <path d="M119.086 24.219c-1.272 6.845-10.115 6.66-13.938 6.193-1.072-.12-1.751-.26-1.751-.26-1.212-.32-1.885-2.23-2.204-4.735-.619-4.947.166-12.212 1.005-14.07 1.259-2.797 3.63-5.82 12.526-3.643 8.897 2.178 5.994 7.731 4.362 16.515z" fill="url(#bN)"/>
        <path d="M126.318 227.078h-12.526c.218-1.523.552-3.028.999-4.501.189-.619.425-1.222.706-1.805 1.218-2.431 8.956-.886 8.956-.886s.72.62 1.286 2.97a25.15 25.15 0 0 1 .579 4.222z" fill="url(#bO)"/>
        <path d="M88.46 223.083c-.032 1.704-.245 3.329-.865 3.955H62.816c.32-.899 1.206-2.251 3.75-2.663 2.896-.467 7.398-1.858 10.028-4.662a7.497 7.497 0 0 0 1.945-3.516c1.165-5.194 9.636 1.585 9.636 1.585a41.09 41.09 0 0 1 .286 5.301z" fill="url(#bP)"/>
        <path d="M129.601 106.027c-1.718-1.125-7.411-.812-13.478-.073-5.7-5.274-28.521.813-28.521.813a106.623 106.623 0 0 0-2.45 20.077c-.8 23.574-3.01 63.389-9.03 91.044a2.375 2.375 0 0 0 1.671 2.697c2.77.879 8.064 3.576 11.42 2.311 2.178-.819 14.318-35.96 15.11-51.316.116-1.535.323-3.063.62-4.574.233-1.272.512-2.664.845-4.229l8.224 59.64s6.879 1.658 12.227.333c0 0 4.588-60.366 4.202-74.956-.387-14.59 3.289-39.07-.84-41.767z" fill="url(#bQ)"/>
        <path d="M99.461 4.828a29.649 29.649 0 0 0 8.544-2.311c3.749-1.632 8.484.16 10.022.972a2.316 2.316 0 0 0-.38-.926c.394.286.674.7.793 1.172.073.054.106.087.086.1a2.667 2.667 0 0 1 1.286.087s-.353-.053-.48.173a.266.266 0 0 1-.053.067c5.847 2.823 6.393 12.073 4.508 14.21-2.264 2.577-4.981 8.378-4.981 8.378a4.965 4.965 0 0 1-.579-3.636c.413-2.271-1.545-2.271-3.996-3.297-2.45-1.025-.413-3.915-2.577-5.667-2.164-1.751-10.095-.719-9.989-2.057-2.963-1.072-2.204-6.966-2.204-7.265z" fill="url(#bR)"/>
        <path d="m120.838 39.995-3.603 77.36s-30.093.492-29.234-6.32c.86-6.812 10.722-71.34 10.722-71.34l22.115.3z" fill="#BDD0FB"/>
        <path d="M106.547 25.344s-.286.88-2.517.56c0 0-1.871-.273-1.732-1.259a6.08 6.08 0 0 1 4.249.7z" fill="#fff"/>
        <path d="M89.626 41.094c-.713.666-20.804 20.197-24.693 27.835-3.995 7.752 18.107 23.188 18.107 23.188.765.303 1.591.42 2.41.34-1.039 8.57-2.21 16.474-1.518 19.85 1.252 6.1 6.892 8.144 6.892 7.678 0-.153 1.452-22.241 3.183-33.649 3.843-25.304 8.424-49.098 8.424-49.098a42.448 42.448 0 0 0-12.805 3.856zM77.639 72.305v-.113c0-1.118 4.262-3.582 8.87-6.486l.087-.093c-.08 2.377-.074 4.708.066 6.872a87.33 87.33 0 0 1-.513 13.725c-2.197-3.436-8.057-12.64-8.483-13.904h-.027z" fill="url(#bS)"/>
        <path d="M121.69 37.025c.04-.74-3.456-1.758-3.456-1.758s-3.995 5.547-10.601 5.64c0 0 1.884 3.663 4.095 4.608 0 0 9.749-4.109 9.962-8.49zM107.632 40.78s-3.489-2.07-3.502-4.315c0 0-2.258-.286-3.243.813 0 0-.826 3.849.273 6.08 0 0 5.027-.74 6.472-2.578z" fill="#ADBEE6"/>
        <path d="M121.138 36.626c.04-.74-2.324-2.265-2.324-2.265s-4.582 5.328-11.181 5.454c0 0 1.884 3.656 4.095 4.602 0 .02 9.197-3.39 9.41-7.791zM107.632 39.835s-3.529-1.878-3.542-4.122a11.312 11.312 0 0 0-3.117 1.998 6.498 6.498 0 0 0 .186 4.661s5.028-.726 6.473-2.537z" fill="#BDD0FB"/>
        <path d="M81.628 93.408a3.265 3.265 0 0 1 3.683-3.263 1.998 1.998 0 0 1 1.371.76c1.332 1.784 2.617 6.978.24 7.225-.965.093-2.21-.586-3.17-1.332-.959-.746-2.124-1.898-2.124-3.117v-.273z" fill="url(#bT)"/>
        <path d="M134.236 95.679s-3.103 1.545-4.988.772c-1.885-.772-4.095-1.332-6.2 1.039-2.104 2.37-2.55 4.055-2.104 4.941.446.886 5.327.553 6.166 0 .84-.553 2.098-1.918 2.917-1.678 2.251.666 4.149-1.066 5.214-2.43.64-.826-1.092-1.232-1.005-2.644z" fill="url(#bU)"/>
        <path d="M137.898 43.864c-2.917-5.38-15.269-6.746-15.269-6.746l-11.707 51.336s1.525 20.643 4.462 33.635c0 0 15.262.087 19.424-6.692 0 0-.173-.766-.439-2.058-.626-3.183-1.838-9.596-2.611-15.775a15.444 15.444 0 0 0 3.044 1.764s20.17-10.162 20.643-19.218c.473-9.057-14.63-30.832-17.547-36.246zm-6.566 49.71c-.366-4.135-.399-7.77.253-9.728.966-2.85 2.198-9.656 3.283-16.349 4.096 5.42 8.071 10.355 8.491 11.474.706 1.878-8.79 10.535-12.027 14.604z" fill="url(#bV)"/>
        <path d="M118.814 34.38s-9.383 39.29-7.892 54.08c0 0 3.45-15.809 11.747-28.76 0 0-3.03-2.665-2.863-3.65a10.4 10.4 0 0 1 4.428-.22s-.24-16.928-1.598-18.719a9.876 9.876 0 0 0-3.822-2.73z" fill="url(#bW)"/>
        <path d="M104.09 35.713c.126.06-9.323 38.383-10.089 50.656 0 0 .939-21.895.846-28.201 0 0 3.895-2.065 3.895-2.784 0-.72-4.155-2.664-4.155-2.664s2.664-13.478 4.069-14.963c1.405-1.485 5.434-2.044 5.434-2.044z" fill="url(#bX)"/>
        <path d="m238.251 108.173-25.678.031a6.08 6.08 0 0 0-6.072 6.088l.013 11.127a6.08 6.08 0 0 0 6.087 6.073l25.678-.032a6.08 6.08 0 0 0 6.073-6.087l-.014-11.127a6.08 6.08 0 0 0-6.087-6.073z" fill="url(#bY)"/>
        <path d="M240.137 111.089a6.147 6.147 0 0 0-4.695-3.043h-5.7v-2.431a2.002 2.002 0 0 0-1.998-1.998h-7.705a1.997 1.997 0 0 0-1.997 1.998v2.404h-8.824a6.112 6.112 0 0 0-6.093 6.106v11.254a6.115 6.115 0 0 0 6.106 6.094h25.638c.448 0 .895-.049 1.332-.147a6.134 6.134 0 0 0 4.775-5.993v-11.261a6.083 6.083 0 0 0-.839-2.983zm-20.85-5.461a.75.75 0 0 1 .526-.712.645.645 0 0 1 .226-.04h7.705a.759.759 0 0 1 .752.752v2.398h-9.169l-.04-2.398z" fill="url(#bZ)"/>
        <path d="M410.705 227.085H6.573a.613.613 0 1 0 0 1.225h404.132a.613.613 0 1 0 0-1.225z" fill="#233862"/>
    </g>
    <defs>
        <linearGradient id="b" x1="0" y1="113.426" x2="398.485" y2="113.426" gradientUnits="userSpaceOnUse">
            <stop stop-color="#DAE3FE"/>
            <stop offset="1" stop-color="#E9EFFD"/>
        </linearGradient>
        <linearGradient id="c" x1="135.527" y1="115.543" x2="172.113" y2="115.543" gradientUnits="userSpaceOnUse">
            <stop stop-color="#62B3FE"/>
            <stop offset="1" stop-color="#4D00CA"/>
        </linearGradient>
        <linearGradient id="d" x1="163.163" y1="221.711" x2="263.97" y2="221.711" gradientUnits="userSpaceOnUse">
            <stop stop-color="#FF928E"/>
            <stop offset=".99" stop-color="#FF928E"/>
        </linearGradient>
        <linearGradient id="e" x1="163.163" y1="221.71" x2="216.756" y2="221.71" gradientUnits="userSpaceOnUse">
            <stop offset=".03" stop-color="#FE7062"/>
            <stop offset="1" stop-color="#FE7062"/>
        </linearGradient>
        <linearGradient id="f" x1="663.096" y1="3774.82" x2="664.887" y2="3774.82" gradientUnits="userSpaceOnUse">
            <stop offset=".03" stop-color="#FE7062"/>
            <stop offset="1" stop-color="#FE7062"/>
        </linearGradient>
        <linearGradient id="g" x1="653.339" y1="3774.82" x2="655.13" y2="3774.82" gradientUnits="userSpaceOnUse">
            <stop offset=".03" stop-color="#FE7062"/>
            <stop offset="1" stop-color="#FE7062"/>
        </linearGradient>
        <linearGradient id="h" x1="641.613" y1="3774.82" x2="643.415" y2="3774.82" gradientUnits="userSpaceOnUse">
            <stop offset=".03" stop-color="#FE7062"/>
            <stop offset="1" stop-color="#FE7062"/>
        </linearGradient>
        <linearGradient id="i" x1="623.659" y1="3774.82" x2="625.45" y2="3774.82" gradientUnits="userSpaceOnUse">
            <stop offset=".03" stop-color="#FE7062"/>
            <stop offset="1" stop-color="#FE7062"/>
        </linearGradient>
        <linearGradient id="j" x1="604.706" y1="3774.82" x2="606.497" y2="3774.82" gradientUnits="userSpaceOnUse">
            <stop offset=".03" stop-color="#FE7062"/>
            <stop offset="1" stop-color="#FE7062"/>
        </linearGradient>
        <linearGradient id="k" x1="575.598" y1="3774.82" x2="577.39" y2="3774.82" gradientUnits="userSpaceOnUse">
            <stop offset=".03" stop-color="#FE7062"/>
            <stop offset="1" stop-color="#FE7062"/>
        </linearGradient>
        <linearGradient id="l" x1="548.335" y1="3774.82" x2="550.126" y2="3774.82" gradientUnits="userSpaceOnUse">
            <stop offset=".03" stop-color="#FE7062"/>
            <stop offset="1" stop-color="#FE7062"/>
        </linearGradient>
        <linearGradient id="m" x1="524.009" y1="3774.82" x2="525.8" y2="3774.82" gradientUnits="userSpaceOnUse">
            <stop offset=".03" stop-color="#FE7062"/>
            <stop offset="1" stop-color="#FE7062"/>
        </linearGradient>
        <linearGradient id="n" x1="672.407" y1="3774.82" x2="674.198" y2="3774.82" gradientUnits="userSpaceOnUse">
            <stop offset=".03" stop-color="#FE7062"/>
            <stop offset="1" stop-color="#FE7062"/>
        </linearGradient>
        <linearGradient id="o" x1="678.543" y1="3774.82" x2="680.334" y2="3774.82" gradientUnits="userSpaceOnUse">
            <stop offset=".03" stop-color="#FE7062"/>
            <stop offset="1" stop-color="#FE7062"/>
        </linearGradient>
        <linearGradient id="p" x1="684.473" y1="3774.82" x2="686.264" y2="3774.82" gradientUnits="userSpaceOnUse">
            <stop offset=".03" stop-color="#FE7062"/>
            <stop offset="1" stop-color="#FE7062"/>
        </linearGradient>
        <linearGradient id="q" x1="683.739" y1="3781.47" x2="685.519" y2="3781.47" gradientUnits="userSpaceOnUse">
            <stop offset=".03" stop-color="#FE7062"/>
            <stop offset="1" stop-color="#FE7062"/>
        </linearGradient>
        <linearGradient id="r" x1="692.929" y1="3677.44" x2="694.72" y2="3677.44" gradientUnits="userSpaceOnUse">
            <stop offset=".03" stop-color="#FE7062"/>
            <stop offset="1" stop-color="#FE7062"/>
        </linearGradient>
        <linearGradient id="s" x1="23302.4" y1="3594.71" x2="38566.6" y2="3594.71" gradientUnits="userSpaceOnUse">
            <stop stop-color="#FF928E"/>
            <stop offset=".99" stop-color="#FF928E"/>
        </linearGradient>
        <linearGradient id="t" x1="12456.8" y1="3594.71" x2="16770" y2="3594.71" gradientUnits="userSpaceOnUse">
            <stop offset=".03" stop-color="#FE7062"/>
            <stop offset="1" stop-color="#FE7062"/>
        </linearGradient>
        <linearGradient id="u" x1="635.97" y1="3592.6" x2="637.761" y2="3592.6" gradientUnits="userSpaceOnUse">
            <stop offset=".03" stop-color="#FE7062"/>
            <stop offset="1" stop-color="#FE7062"/>
        </linearGradient>
        <linearGradient id="v" x1="626.212" y1="3592.6" x2="628.003" y2="3592.6" gradientUnits="userSpaceOnUse">
            <stop offset=".03" stop-color="#FE7062"/>
            <stop offset="1" stop-color="#FE7062"/>
        </linearGradient>
        <linearGradient id="w" x1="614.494" y1="3592.6" x2="616.285" y2="3592.6" gradientUnits="userSpaceOnUse">
            <stop offset=".03" stop-color="#FE7062"/>
            <stop offset="1" stop-color="#FE7062"/>
        </linearGradient>
        <linearGradient id="x" x1="596.521" y1="3592.6" x2="598.323" y2="3592.6" gradientUnits="userSpaceOnUse">
            <stop offset=".03" stop-color="#FE7062"/>
            <stop offset="1" stop-color="#FE7062"/>
        </linearGradient>
        <linearGradient id="y" x1="577.568" y1="3592.6" x2="579.359" y2="3592.6" gradientUnits="userSpaceOnUse">
            <stop offset=".03" stop-color="#FE7062"/>
            <stop offset="1" stop-color="#FE7062"/>
        </linearGradient>
        <linearGradient id="z" x1="548.455" y1="3592.6" x2="550.246" y2="3592.6" gradientUnits="userSpaceOnUse">
            <stop offset=".03" stop-color="#FE7062"/>
            <stop offset="1" stop-color="#FE7062"/>
        </linearGradient>
        <linearGradient id="A" x1="521.2" y1="3592.6" x2="522.991" y2="3592.6" gradientUnits="userSpaceOnUse">
            <stop offset=".03" stop-color="#FE7062"/>
            <stop offset="1" stop-color="#FE7062"/>
        </linearGradient>
        <linearGradient id="B" x1="496.865" y1="3592.6" x2="498.657" y2="3592.6" gradientUnits="userSpaceOnUse">
            <stop offset=".03" stop-color="#FE7062"/>
            <stop offset="1" stop-color="#FE7062"/>
        </linearGradient>
        <linearGradient id="C" x1="645.27" y1="3592.6" x2="647.061" y2="3592.6" gradientUnits="userSpaceOnUse">
            <stop offset=".03" stop-color="#FE7062"/>
            <stop offset="1" stop-color="#FE7062"/>
        </linearGradient>
        <linearGradient id="D" x1="651.404" y1="3592.6" x2="653.206" y2="3592.6" gradientUnits="userSpaceOnUse">
            <stop offset=".03" stop-color="#FE7062"/>
            <stop offset="1" stop-color="#FE7062"/>
        </linearGradient>
        <linearGradient id="E" x1="657.341" y1="3592.6" x2="659.132" y2="3592.6" gradientUnits="userSpaceOnUse">
            <stop offset=".03" stop-color="#FE7062"/>
            <stop offset="1" stop-color="#FE7062"/>
        </linearGradient>
        <linearGradient id="F" x1="656.8" y1="3594.71" x2="658.569" y2="3594.71" gradientUnits="userSpaceOnUse">
            <stop offset=".03" stop-color="#FE7062"/>
            <stop offset="1" stop-color="#FE7062"/>
        </linearGradient>
        <linearGradient id="G" x1="665.815" y1="3502.01" x2="667.606" y2="3502.01" gradientUnits="userSpaceOnUse">
            <stop offset=".03" stop-color="#FE7062"/>
            <stop offset="1" stop-color="#FE7062"/>
        </linearGradient>
        <linearGradient id="H" x1="24051.6" y1="3414.83" x2="39311.7" y2="3414.83" gradientUnits="userSpaceOnUse">
            <stop stop-color="#FF928E"/>
            <stop offset=".99" stop-color="#FF928E"/>
        </linearGradient>
        <linearGradient id="I" x1="12858.4" y1="3414.81" x2="17170.5" y2="3414.81" gradientUnits="userSpaceOnUse">
            <stop offset=".03" stop-color="#FE7062"/>
            <stop offset="1" stop-color="#FE7062"/>
        </linearGradient>
        <linearGradient id="J" x1="649.09" y1="3414.81" x2="650.892" y2="3414.81" gradientUnits="userSpaceOnUse">
            <stop offset=".03" stop-color="#FE7062"/>
            <stop offset="1" stop-color="#FE7062"/>
        </linearGradient>
        <linearGradient id="K" x1="639.311" y1="3414.81" x2="641.102" y2="3414.81" gradientUnits="userSpaceOnUse">
            <stop offset=".03" stop-color="#FE7062"/>
            <stop offset="1" stop-color="#FE7062"/>
        </linearGradient>
        <linearGradient id="L" x1="627.618" y1="3414.81" x2="629.409" y2="3414.81" gradientUnits="userSpaceOnUse">
            <stop offset=".03" stop-color="#FE7062"/>
            <stop offset="1" stop-color="#FE7062"/>
        </linearGradient>
        <linearGradient id="M" x1="609.653" y1="3414.81" x2="611.444" y2="3414.81" gradientUnits="userSpaceOnUse">
            <stop offset=".03" stop-color="#FE7062"/>
            <stop offset="1" stop-color="#FE7062"/>
        </linearGradient>
        <linearGradient id="N" x1="590.688" y1="3414.81" x2="592.479" y2="3414.81" gradientUnits="userSpaceOnUse">
            <stop offset=".03" stop-color="#FE7062"/>
            <stop offset="1" stop-color="#FE7062"/>
        </linearGradient>
        <linearGradient id="O" x1="561.58" y1="3414.81" x2="563.371" y2="3414.81" gradientUnits="userSpaceOnUse">
            <stop offset=".03" stop-color="#FE7062"/>
            <stop offset="1" stop-color="#FE7062"/>
        </linearGradient>
        <linearGradient id="P" x1="534.32" y1="3414.81" x2="536.122" y2="3414.81" gradientUnits="userSpaceOnUse">
            <stop offset=".03" stop-color="#FE7062"/>
            <stop offset="1" stop-color="#FE7062"/>
        </linearGradient>
        <linearGradient id="Q" x1="509.989" y1="3414.81" x2="511.791" y2="3414.81" gradientUnits="userSpaceOnUse">
            <stop offset=".03" stop-color="#FE7062"/>
            <stop offset="1" stop-color="#FE7062"/>
        </linearGradient>
        <linearGradient id="R" x1="658.379" y1="3414.81" x2="660.17" y2="3414.81" gradientUnits="userSpaceOnUse">
            <stop offset=".03" stop-color="#FE7062"/>
            <stop offset="1" stop-color="#FE7062"/>
        </linearGradient>
        <linearGradient id="S" x1="664.537" y1="3414.81" x2="666.328" y2="3414.81" gradientUnits="userSpaceOnUse">
            <stop offset=".03" stop-color="#FE7062"/>
            <stop offset="1" stop-color="#FE7062"/>
        </linearGradient>
        <linearGradient id="T" x1="670.45" y1="3414.81" x2="672.241" y2="3414.81" gradientUnits="userSpaceOnUse">
            <stop offset=".03" stop-color="#FE7062"/>
            <stop offset="1" stop-color="#FE7062"/>
        </linearGradient>
        <linearGradient id="U" x1="669.815" y1="3414.9" x2="671.584" y2="3414.9" gradientUnits="userSpaceOnUse">
            <stop offset=".03" stop-color="#FE7062"/>
            <stop offset="1" stop-color="#FE7062"/>
        </linearGradient>
        <linearGradient id="V" x1="678.93" y1="3326.69" x2="680.721" y2="3326.69" gradientUnits="userSpaceOnUse">
            <stop offset=".03" stop-color="#FE7062"/>
            <stop offset="1" stop-color="#FE7062"/>
        </linearGradient>
        <linearGradient id="W" x1="24402.6" y1="3230.23" x2="39661.7" y2="3230.23" gradientUnits="userSpaceOnUse">
            <stop stop-color="#FF928E"/>
            <stop offset=".99" stop-color="#FF928E"/>
        </linearGradient>
        <linearGradient id="X" x1="13052.5" y1="3230.24" x2="17366.7" y2="3230.24" gradientUnits="userSpaceOnUse">
            <stop offset=".03" stop-color="#FE7062"/>
            <stop offset="1" stop-color="#FE7062"/>
        </linearGradient>
        <linearGradient id="Y" x1="655.15" y1="3232.56" x2="656.941" y2="3232.56" gradientUnits="userSpaceOnUse">
            <stop offset=".03" stop-color="#FE7062"/>
            <stop offset="1" stop-color="#FE7062"/>
        </linearGradient>
        <linearGradient id="Z" x1="645.41" y1="3232.56" x2="647.201" y2="3232.56" gradientUnits="userSpaceOnUse">
            <stop offset=".03" stop-color="#FE7062"/>
            <stop offset="1" stop-color="#FE7062"/>
        </linearGradient>
        <linearGradient id="aa" x1="633.702" y1="3232.56" x2="635.493" y2="3232.56" gradientUnits="userSpaceOnUse">
            <stop offset=".03" stop-color="#FE7062"/>
            <stop offset="1" stop-color="#FE7062"/>
        </linearGradient>
        <linearGradient id="ab" x1="615.735" y1="3232.56" x2="617.537" y2="3232.56" gradientUnits="userSpaceOnUse">
            <stop offset=".03" stop-color="#FE7062"/>
            <stop offset="1" stop-color="#FE7062"/>
        </linearGradient>
        <linearGradient id="ac" x1="596.765" y1="3232.56" x2="598.556" y2="3232.56" gradientUnits="userSpaceOnUse">
            <stop offset=".03" stop-color="#FE7062"/>
            <stop offset="1" stop-color="#FE7062"/>
        </linearGradient>
        <linearGradient id="ad" x1="567.652" y1="3232.56" x2="569.443" y2="3232.56" gradientUnits="userSpaceOnUse">
            <stop offset=".03" stop-color="#FE7062"/>
            <stop offset="1" stop-color="#FE7062"/>
        </linearGradient>
        <linearGradient id="ae" x1="540.393" y1="3232.56" x2="542.184" y2="3232.56" gradientUnits="userSpaceOnUse">
            <stop offset=".03" stop-color="#FE7062"/>
            <stop offset="1" stop-color="#FE7062"/>
        </linearGradient>
        <linearGradient id="af" x1="516.071" y1="3232.56" x2="517.863" y2="3232.56" gradientUnits="userSpaceOnUse">
            <stop offset=".03" stop-color="#FE7062"/>
            <stop offset="1" stop-color="#FE7062"/>
        </linearGradient>
        <linearGradient id="ag" x1="664.473" y1="3232.56" x2="666.264" y2="3232.56" gradientUnits="userSpaceOnUse">
            <stop offset=".03" stop-color="#FE7062"/>
            <stop offset="1" stop-color="#FE7062"/>
        </linearGradient>
        <linearGradient id="ah" x1="670.591" y1="3232.56" x2="672.393" y2="3232.56" gradientUnits="userSpaceOnUse">
            <stop offset=".03" stop-color="#FE7062"/>
            <stop offset="1" stop-color="#FE7062"/>
        </linearGradient>
        <linearGradient id="ai" x1="676.539" y1="3232.56" x2="678.33" y2="3232.56" gradientUnits="userSpaceOnUse">
            <stop offset=".03" stop-color="#FE7062"/>
            <stop offset="1" stop-color="#FE7062"/>
        </linearGradient>
        <linearGradient id="aj" x1="675.857" y1="3234.46" x2="677.626" y2="3234.46" gradientUnits="userSpaceOnUse">
            <stop offset=".03" stop-color="#FE7062"/>
            <stop offset="1" stop-color="#FE7062"/>
        </linearGradient>
        <linearGradient id="ak" x1="685.036" y1="3151.06" x2="686.827" y2="3151.06" gradientUnits="userSpaceOnUse">
            <stop offset=".03" stop-color="#FE7062"/>
            <stop offset="1" stop-color="#FE7062"/>
        </linearGradient>
        <linearGradient id="al" x1="23327.3" y1="3047.66" x2="38588.9" y2="3047.66" gradientUnits="userSpaceOnUse">
            <stop stop-color="#FF928E"/>
            <stop offset=".99" stop-color="#FF928E"/>
        </linearGradient>
        <linearGradient id="am" x1="12472.1" y1="3045.29" x2="16784.9" y2="3045.29" gradientUnits="userSpaceOnUse">
            <stop offset=".03" stop-color="#FE7062"/>
            <stop offset="1" stop-color="#FE7062"/>
        </linearGradient>
        <linearGradient id="an" x1="636.509" y1="3050.56" x2="638.3" y2="3050.56" gradientUnits="userSpaceOnUse">
            <stop offset=".03" stop-color="#FE7062"/>
            <stop offset="1" stop-color="#FE7062"/>
        </linearGradient>
        <linearGradient id="ao" x1="626.74" y1="3050.56" x2="628.531" y2="3050.56" gradientUnits="userSpaceOnUse">
            <stop offset=".03" stop-color="#FE7062"/>
            <stop offset="1" stop-color="#FE7062"/>
        </linearGradient>
        <linearGradient id="ap" x1="615.026" y1="3050.56" x2="616.817" y2="3050.56" gradientUnits="userSpaceOnUse">
            <stop offset=".03" stop-color="#FE7062"/>
            <stop offset="1" stop-color="#FE7062"/>
        </linearGradient>
        <linearGradient id="aq" x1="597.077" y1="3050.56" x2="598.868" y2="3050.56" gradientUnits="userSpaceOnUse">
            <stop offset=".03" stop-color="#FE7062"/>
            <stop offset="1" stop-color="#FE7062"/>
        </linearGradient>
        <linearGradient id="ar" x1="578.095" y1="3050.56" x2="579.886" y2="3050.56" gradientUnits="userSpaceOnUse">
            <stop offset=".03" stop-color="#FE7062"/>
            <stop offset="1" stop-color="#FE7062"/>
        </linearGradient>
        <linearGradient id="as" x1="549.004" y1="3050.56" x2="550.795" y2="3050.56" gradientUnits="userSpaceOnUse">
            <stop offset=".03" stop-color="#FE7062"/>
            <stop offset="1" stop-color="#FE7062"/>
        </linearGradient>
        <linearGradient id="at" x1="521.745" y1="3050.56" x2="523.536" y2="3050.56" gradientUnits="userSpaceOnUse">
            <stop offset=".03" stop-color="#FE7062"/>
            <stop offset="1" stop-color="#FE7062"/>
        </linearGradient>
        <linearGradient id="au" x1="497.414" y1="3050.56" x2="499.205" y2="3050.56" gradientUnits="userSpaceOnUse">
            <stop offset=".03" stop-color="#FE7062"/>
            <stop offset="1" stop-color="#FE7062"/>
        </linearGradient>
        <linearGradient id="av" x1="645.791" y1="3050.56" x2="647.593" y2="3050.56" gradientUnits="userSpaceOnUse">
            <stop offset=".03" stop-color="#FE7062"/>
            <stop offset="1" stop-color="#FE7062"/>
        </linearGradient>
        <linearGradient id="aw" x1="651.956" y1="3050.56" x2="653.747" y2="3050.56" gradientUnits="userSpaceOnUse">
            <stop offset=".03" stop-color="#FE7062"/>
            <stop offset="1" stop-color="#FE7062"/>
        </linearGradient>
        <linearGradient id="ax" x1="657.863" y1="3050.56" x2="659.654" y2="3050.56" gradientUnits="userSpaceOnUse">
            <stop offset=".03" stop-color="#FE7062"/>
            <stop offset="1" stop-color="#FE7062"/>
        </linearGradient>
        <linearGradient id="ay" x1="657.34" y1="3052.35" x2="659.109" y2="3052.35" gradientUnits="userSpaceOnUse">
            <stop offset=".03" stop-color="#FE7062"/>
            <stop offset="1" stop-color="#FE7062"/>
        </linearGradient>
        <linearGradient id="az" x1="666.36" y1="2973.65" x2="668.151" y2="2973.65" gradientUnits="userSpaceOnUse">
            <stop offset=".03" stop-color="#FE7062"/>
            <stop offset="1" stop-color="#FE7062"/>
        </linearGradient>
        <linearGradient id="aA" x1="23302.3" y1="2865.78" x2="38566.5" y2="2865.78" gradientUnits="userSpaceOnUse">
            <stop stop-color="#FF928E"/>
            <stop offset=".99" stop-color="#FF928E"/>
        </linearGradient>
        <linearGradient id="aB" x1="12456.8" y1="2869.58" x2="16770" y2="2869.58" gradientUnits="userSpaceOnUse">
            <stop offset=".03" stop-color="#FE7062"/>
            <stop offset="1" stop-color="#FE7062"/>
        </linearGradient>
        <linearGradient id="aC" x1="635.97" y1="2869.58" x2="637.761" y2="2869.58" gradientUnits="userSpaceOnUse">
            <stop offset=".03" stop-color="#FE7062"/>
            <stop offset="1" stop-color="#FE7062"/>
        </linearGradient>
        <linearGradient id="aD" x1="626.212" y1="2869.58" x2="628.003" y2="2869.58" gradientUnits="userSpaceOnUse">
            <stop offset=".03" stop-color="#FE7062"/>
            <stop offset="1" stop-color="#FE7062"/>
        </linearGradient>
        <linearGradient id="aE" x1="614.494" y1="2869.58" x2="616.285" y2="2869.58" gradientUnits="userSpaceOnUse">
            <stop offset=".03" stop-color="#FE7062"/>
            <stop offset="1" stop-color="#FE7062"/>
        </linearGradient>
        <linearGradient id="aF" x1="596.521" y1="2869.58" x2="598.323" y2="2869.58" gradientUnits="userSpaceOnUse">
            <stop offset=".03" stop-color="#FE7062"/>
            <stop offset="1" stop-color="#FE7062"/>
        </linearGradient>
        <linearGradient id="aG" x1="577.568" y1="2869.58" x2="579.359" y2="2869.58" gradientUnits="userSpaceOnUse">
            <stop offset=".03" stop-color="#FE7062"/>
            <stop offset="1" stop-color="#FE7062"/>
        </linearGradient>
        <linearGradient id="aH" x1="548.455" y1="2869.58" x2="550.246" y2="2869.58" gradientUnits="userSpaceOnUse">
            <stop offset=".03" stop-color="#FE7062"/>
            <stop offset="1" stop-color="#FE7062"/>
        </linearGradient>
        <linearGradient id="aI" x1="521.2" y1="2869.58" x2="522.991" y2="2869.58" gradientUnits="userSpaceOnUse">
            <stop offset=".03" stop-color="#FE7062"/>
            <stop offset="1" stop-color="#FE7062"/>
        </linearGradient>
        <linearGradient id="aJ" x1="496.865" y1="2869.58" x2="498.657" y2="2869.58" gradientUnits="userSpaceOnUse">
            <stop offset=".03" stop-color="#FE7062"/>
            <stop offset="1" stop-color="#FE7062"/>
        </linearGradient>
        <linearGradient id="aK" x1="645.27" y1="2869.58" x2="647.061" y2="2869.58" gradientUnits="userSpaceOnUse">
            <stop offset=".03" stop-color="#FE7062"/>
            <stop offset="1" stop-color="#FE7062"/>
        </linearGradient>
        <linearGradient id="aL" x1="651.404" y1="2869.58" x2="653.206" y2="2869.58" gradientUnits="userSpaceOnUse">
            <stop offset=".03" stop-color="#FE7062"/>
            <stop offset="1" stop-color="#FE7062"/>
        </linearGradient>
        <linearGradient id="aM" x1="657.341" y1="2869.58" x2="659.132" y2="2869.58" gradientUnits="userSpaceOnUse">
            <stop offset=".03" stop-color="#FE7062"/>
            <stop offset="1" stop-color="#FE7062"/>
        </linearGradient>
        <linearGradient id="aN" x1="656.8" y1="2869.58" x2="658.569" y2="2869.58" gradientUnits="userSpaceOnUse">
            <stop offset=".03" stop-color="#FE7062"/>
            <stop offset="1" stop-color="#FE7062"/>
        </linearGradient>
        <linearGradient id="aO" x1="665.815" y1="2795.54" x2="667.606" y2="2795.54" gradientUnits="userSpaceOnUse">
            <stop offset=".03" stop-color="#FE7062"/>
            <stop offset="1" stop-color="#FE7062"/>
        </linearGradient>
        <linearGradient id="aP" x1="23326.8" y1="2689.59" x2="38588.1" y2="2689.59" gradientUnits="userSpaceOnUse">
            <stop stop-color="#FF928E"/>
            <stop offset=".99" stop-color="#FF928E"/>
        </linearGradient>
        <linearGradient id="aQ" x1="12471.5" y1="2687.8" x2="16784.2" y2="2687.8" gradientUnits="userSpaceOnUse">
            <stop offset=".03" stop-color="#FE7062"/>
            <stop offset="1" stop-color="#FE7062"/>
        </linearGradient>
        <linearGradient id="aR" x1="636.509" y1="2687.8" x2="638.3" y2="2687.8" gradientUnits="userSpaceOnUse">
            <stop offset=".03" stop-color="#FE7062"/>
            <stop offset="1" stop-color="#FE7062"/>
        </linearGradient>
        <linearGradient id="aS" x1="626.74" y1="2687.8" x2="628.531" y2="2687.8" gradientUnits="userSpaceOnUse">
            <stop offset=".03" stop-color="#FE7062"/>
            <stop offset="1" stop-color="#FE7062"/>
        </linearGradient>
        <linearGradient id="aT" x1="615.026" y1="2687.8" x2="616.817" y2="2687.8" gradientUnits="userSpaceOnUse">
            <stop offset=".03" stop-color="#FE7062"/>
            <stop offset="1" stop-color="#FE7062"/>
        </linearGradient>
        <linearGradient id="aU" x1="597.077" y1="2687.8" x2="598.868" y2="2687.8" gradientUnits="userSpaceOnUse">
            <stop offset=".03" stop-color="#FE7062"/>
            <stop offset="1" stop-color="#FE7062"/>
        </linearGradient>
        <linearGradient id="aV" x1="578.095" y1="2687.8" x2="579.886" y2="2687.8" gradientUnits="userSpaceOnUse">
            <stop offset=".03" stop-color="#FE7062"/>
            <stop offset="1" stop-color="#FE7062"/>
        </linearGradient>
        <linearGradient id="aW" x1="549.004" y1="2687.8" x2="550.795" y2="2687.8" gradientUnits="userSpaceOnUse">
            <stop offset=".03" stop-color="#FE7062"/>
            <stop offset="1" stop-color="#FE7062"/>
        </linearGradient>
        <linearGradient id="aX" x1="521.745" y1="2687.8" x2="523.536" y2="2687.8" gradientUnits="userSpaceOnUse">
            <stop offset=".03" stop-color="#FE7062"/>
            <stop offset="1" stop-color="#FE7062"/>
        </linearGradient>
        <linearGradient id="aY" x1="497.414" y1="2687.8" x2="499.205" y2="2687.8" gradientUnits="userSpaceOnUse">
            <stop offset=".03" stop-color="#FE7062"/>
            <stop offset="1" stop-color="#FE7062"/>
        </linearGradient>
        <linearGradient id="aZ" x1="645.791" y1="2687.8" x2="647.593" y2="2687.8" gradientUnits="userSpaceOnUse">
            <stop offset=".03" stop-color="#FE7062"/>
            <stop offset="1" stop-color="#FE7062"/>
        </linearGradient>
        <linearGradient id="ba" x1="651.956" y1="2687.8" x2="653.747" y2="2687.8" gradientUnits="userSpaceOnUse">
            <stop offset=".03" stop-color="#FE7062"/>
            <stop offset="1" stop-color="#FE7062"/>
        </linearGradient>
        <linearGradient id="bb" x1="657.863" y1="2687.8" x2="659.654" y2="2687.8" gradientUnits="userSpaceOnUse">
            <stop offset=".03" stop-color="#FE7062"/>
            <stop offset="1" stop-color="#FE7062"/>
        </linearGradient>
        <linearGradient id="bc" x1="657.34" y1="2687.8" x2="659.109" y2="2687.8" gradientUnits="userSpaceOnUse">
            <stop offset=".03" stop-color="#FE7062"/>
            <stop offset="1" stop-color="#FE7062"/>
        </linearGradient>
        <linearGradient id="bd" x1="673.899" y1="2615.3" x2="675.723" y2="2615.3" gradientUnits="userSpaceOnUse">
            <stop offset=".03" stop-color="#FE7062"/>
            <stop offset="1" stop-color="#FE7062"/>
        </linearGradient>
        <linearGradient id="be" x1="24404.2" y1="2511.36" x2="39664.3" y2="2511.36" gradientUnits="userSpaceOnUse">
            <stop stop-color="#FF928E"/>
            <stop offset=".99" stop-color="#FF928E"/>
        </linearGradient>
        <linearGradient id="bf" x1="13050.9" y1="2506.73" x2="17364.6" y2="2506.73" gradientUnits="userSpaceOnUse">
            <stop offset=".03" stop-color="#FE7062"/>
            <stop offset="1" stop-color="#FE7062"/>
        </linearGradient>
        <linearGradient id="bg" x1="655.15" y1="2509.66" x2="656.941" y2="2509.66" gradientUnits="userSpaceOnUse">
            <stop offset=".03" stop-color="#FE7062"/>
            <stop offset="1" stop-color="#FE7062"/>
        </linearGradient>
        <linearGradient id="bh" x1="645.41" y1="2509.66" x2="647.201" y2="2509.66" gradientUnits="userSpaceOnUse">
            <stop offset=".03" stop-color="#FE7062"/>
            <stop offset="1" stop-color="#FE7062"/>
        </linearGradient>
        <linearGradient id="bi" x1="633.702" y1="2509.66" x2="635.493" y2="2509.66" gradientUnits="userSpaceOnUse">
            <stop offset=".03" stop-color="#FE7062"/>
            <stop offset="1" stop-color="#FE7062"/>
        </linearGradient>
        <linearGradient id="bj" x1="615.735" y1="2509.66" x2="617.537" y2="2509.66" gradientUnits="userSpaceOnUse">
            <stop offset=".03" stop-color="#FE7062"/>
            <stop offset="1" stop-color="#FE7062"/>
        </linearGradient>
        <linearGradient id="bk" x1="596.765" y1="2509.66" x2="598.556" y2="2509.66" gradientUnits="userSpaceOnUse">
            <stop offset=".03" stop-color="#FE7062"/>
            <stop offset="1" stop-color="#FE7062"/>
        </linearGradient>
        <linearGradient id="bl" x1="567.652" y1="2509.66" x2="569.443" y2="2509.66" gradientUnits="userSpaceOnUse">
            <stop offset=".03" stop-color="#FE7062"/>
            <stop offset="1" stop-color="#FE7062"/>
        </linearGradient>
        <linearGradient id="bm" x1="540.393" y1="2509.66" x2="542.184" y2="2509.66" gradientUnits="userSpaceOnUse">
            <stop offset=".03" stop-color="#FE7062"/>
            <stop offset="1" stop-color="#FE7062"/>
        </linearGradient>
        <linearGradient id="bn" x1="516.071" y1="2509.66" x2="517.863" y2="2509.66" gradientUnits="userSpaceOnUse">
            <stop offset=".03" stop-color="#FE7062"/>
            <stop offset="1" stop-color="#FE7062"/>
        </linearGradient>
        <linearGradient id="bo" x1="664.473" y1="2509.66" x2="666.264" y2="2509.66" gradientUnits="userSpaceOnUse">
            <stop offset=".03" stop-color="#FE7062"/>
            <stop offset="1" stop-color="#FE7062"/>
        </linearGradient>
        <linearGradient id="bp" x1="670.591" y1="2509.66" x2="672.393" y2="2509.66" gradientUnits="userSpaceOnUse">
            <stop offset=".03" stop-color="#FE7062"/>
            <stop offset="1" stop-color="#FE7062"/>
        </linearGradient>
        <linearGradient id="bq" x1="676.539" y1="2509.66" x2="678.33" y2="2509.66" gradientUnits="userSpaceOnUse">
            <stop offset=".03" stop-color="#FE7062"/>
            <stop offset="1" stop-color="#FE7062"/>
        </linearGradient>
        <linearGradient id="br" x1="675.857" y1="2504" x2="677.626" y2="2504" gradientUnits="userSpaceOnUse">
            <stop offset=".03" stop-color="#FE7062"/>
            <stop offset="1" stop-color="#FE7062"/>
        </linearGradient>
        <linearGradient id="bs" x1="685.036" y1="2440.48" x2="686.827" y2="2440.48" gradientUnits="userSpaceOnUse">
            <stop offset=".03" stop-color="#FE7062"/>
            <stop offset="1" stop-color="#FE7062"/>
        </linearGradient>
        <linearGradient id="bt" x1="23326.5" y1="2311.38" x2="38587.6" y2="2311.38" gradientUnits="userSpaceOnUse">
            <stop stop-color="#FF928E"/>
            <stop offset=".99" stop-color="#FF928E"/>
        </linearGradient>
        <linearGradient id="bu" x1="12471.5" y1="2320.95" x2="16784.2" y2="2320.95" gradientUnits="userSpaceOnUse">
            <stop offset=".03" stop-color="#FE7062"/>
            <stop offset="1" stop-color="#FE7062"/>
        </linearGradient>
        <linearGradient id="bv" x1="636.509" y1="2327.76" x2="638.3" y2="2327.76" gradientUnits="userSpaceOnUse">
            <stop offset=".03" stop-color="#FE7062"/>
            <stop offset="1" stop-color="#FE7062"/>
        </linearGradient>
        <linearGradient id="bw" x1="626.74" y1="2327.76" x2="628.531" y2="2327.76" gradientUnits="userSpaceOnUse">
            <stop offset=".03" stop-color="#FE7062"/>
            <stop offset="1" stop-color="#FE7062"/>
        </linearGradient>
        <linearGradient id="bx" x1="615.026" y1="2327.76" x2="616.817" y2="2327.76" gradientUnits="userSpaceOnUse">
            <stop offset=".03" stop-color="#FE7062"/>
            <stop offset="1" stop-color="#FE7062"/>
        </linearGradient>
        <linearGradient id="by" x1="597.077" y1="2327.76" x2="598.868" y2="2327.76" gradientUnits="userSpaceOnUse">
            <stop offset=".03" stop-color="#FE7062"/>
            <stop offset="1" stop-color="#FE7062"/>
        </linearGradient>
        <linearGradient id="bz" x1="578.095" y1="2327.76" x2="579.886" y2="2327.76" gradientUnits="userSpaceOnUse">
            <stop offset=".03" stop-color="#FE7062"/>
            <stop offset="1" stop-color="#FE7062"/>
        </linearGradient>
        <linearGradient id="bA" x1="549.004" y1="2327.76" x2="550.795" y2="2327.76" gradientUnits="userSpaceOnUse">
            <stop offset=".03" stop-color="#FE7062"/>
            <stop offset="1" stop-color="#FE7062"/>
        </linearGradient>
        <linearGradient id="bB" x1="521.745" y1="2327.76" x2="523.536" y2="2327.76" gradientUnits="userSpaceOnUse">
            <stop offset=".03" stop-color="#FE7062"/>
            <stop offset="1" stop-color="#FE7062"/>
        </linearGradient>
        <linearGradient id="bC" x1="497.414" y1="2327.76" x2="499.205" y2="2327.76" gradientUnits="userSpaceOnUse">
            <stop offset=".03" stop-color="#FE7062"/>
            <stop offset="1" stop-color="#FE7062"/>
        </linearGradient>
        <linearGradient id="bD" x1="645.791" y1="2327.76" x2="647.593" y2="2327.76" gradientUnits="userSpaceOnUse">
            <stop offset=".03" stop-color="#FE7062"/>
            <stop offset="1" stop-color="#FE7062"/>
        </linearGradient>
        <linearGradient id="bE" x1="651.956" y1="2327.76" x2="653.747" y2="2327.76" gradientUnits="userSpaceOnUse">
            <stop offset=".03" stop-color="#FE7062"/>
            <stop offset="1" stop-color="#FE7062"/>
        </linearGradient>
        <linearGradient id="bF" x1="657.863" y1="2327.76" x2="659.654" y2="2327.76" gradientUnits="userSpaceOnUse">
            <stop offset=".03" stop-color="#FE7062"/>
            <stop offset="1" stop-color="#FE7062"/>
        </linearGradient>
        <linearGradient id="bG" x1="657.34" y1="2322.53" x2="659.109" y2="2322.53" gradientUnits="userSpaceOnUse">
            <stop offset=".03" stop-color="#FE7062"/>
            <stop offset="1" stop-color="#FE7062"/>
        </linearGradient>
        <linearGradient id="bH" x1="666.36" y1="2267.72" x2="668.151" y2="2267.72" gradientUnits="userSpaceOnUse">
            <stop offset=".03" stop-color="#FE7062"/>
            <stop offset="1" stop-color="#FE7062"/>
        </linearGradient>
        <linearGradient id="bI" x1="18271.8" y1="28338.8" x2="36061.3" y2="28338.8" gradientUnits="userSpaceOnUse">
            <stop offset=".03" stop-color="#FE7062"/>
            <stop offset="1" stop-color="#FE7062"/>
        </linearGradient>
        <linearGradient id="bJ" x1="17491" y1="28338.8" x2="35280.5" y2="28338.8" gradientUnits="userSpaceOnUse">
            <stop stop-color="#FF928E"/>
            <stop offset=".99" stop-color="#FF928E"/>
        </linearGradient>
        <linearGradient id="bK" x1="16672.4" y1="25932.4" x2="31439.6" y2="25932.4" gradientUnits="userSpaceOnUse">
            <stop offset=".03" stop-color="#FE7062"/>
            <stop offset="1" stop-color="#FE7062"/>
        </linearGradient>
        <linearGradient id="bL" x1="9210.96" y1="19230.7" x2="12043.2" y2="19230.7" gradientUnits="userSpaceOnUse">
            <stop offset=".03" stop-color="#FE7062"/>
            <stop offset="1" stop-color="#FE7062"/>
        </linearGradient>
        <linearGradient id="bM" x1="104.043" y1="33.536" x2="119.505" y2="33.536" gradientUnits="userSpaceOnUse">
            <stop stop-color="#FEBBBA"/>
            <stop offset="1" stop-color="#FF928E"/>
        </linearGradient>
        <linearGradient id="bN" x1="3109.96" y1="595.54" x2="3692.56" y2="733.14" gradientUnits="userSpaceOnUse">
            <stop stop-color="#FEBBBA"/>
            <stop offset="1" stop-color="#FF928E"/>
        </linearGradient>
        <linearGradient id="bO" x1="113.792" y1="223.229" x2="126.318" y2="223.229" gradientUnits="userSpaceOnUse">
            <stop stop-color="#09005D"/>
            <stop offset="1" stop-color="#1A0F91"/>
        </linearGradient>
        <linearGradient id="bP" x1="2482.08" y1="4456.03" x2="3470" y2="4456.03" gradientUnits="userSpaceOnUse">
            <stop stop-color="#09005D"/>
            <stop offset="1" stop-color="#1A0F91"/>
        </linearGradient>
        <linearGradient id="bQ" x1="6415.86" y1="29438.2" x2="11041.9" y2="29438.2" gradientUnits="userSpaceOnUse">
            <stop stop-color="#09005D"/>
            <stop offset="1" stop-color="#1A0F91"/>
        </linearGradient>
        <linearGradient id="bR" x1="3887.1" y1="536.371" x2="4854.4" y2="536.371" gradientUnits="userSpaceOnUse">
            <stop stop-color="#09005D"/>
            <stop offset="1" stop-color="#1A0F91"/>
        </linearGradient>
        <linearGradient id="bS" x1="3740.63" y1="9821.32" x2="5906.3" y2="9821.32" gradientUnits="userSpaceOnUse">
            <stop stop-color="#09005D"/>
            <stop offset="1" stop-color="#1A0F91"/>
        </linearGradient>
        <linearGradient id="bT" x1="893.179" y1="1223.67" x2="958.988" y2="1223.67" gradientUnits="userSpaceOnUse">
            <stop stop-color="#FEBBBA"/>
            <stop offset="1" stop-color="#FF928E"/>
        </linearGradient>
        <linearGradient id="bU" x1="2768.25" y1="1184.37" x2="3088.19" y2="1184.37" gradientUnits="userSpaceOnUse">
            <stop stop-color="#FEBBBA"/>
            <stop offset="1" stop-color="#FF928E"/>
        </linearGradient>
        <linearGradient id="bV" x1="7528.97" y1="10194.6" x2="10508.7" y2="10194.6" gradientUnits="userSpaceOnUse">
            <stop stop-color="#09005D"/>
            <stop offset="1" stop-color="#1A0F91"/>
        </linearGradient>
        <linearGradient id="bW" x1="2351.63" y1="5022.65" x2="2624.18" y2="5022.65" gradientUnits="userSpaceOnUse">
            <stop stop-color="#09005D"/>
            <stop offset="1" stop-color="#1A0F91"/>
        </linearGradient>
        <linearGradient id="bX" x1="1518.29" y1="4678.88" x2="1671.16" y2="4678.88" gradientUnits="userSpaceOnUse">
            <stop stop-color="#09005D"/>
            <stop offset="1" stop-color="#1A0F91"/>
        </linearGradient>
        <linearGradient id="bY" x1="206.494" y1="119.845" x2="244.345" y2="119.845" gradientUnits="userSpaceOnUse">
            <stop offset=".01" stop-color="#09005D"/>
            <stop offset="1" stop-color="#09005D"/>
        </linearGradient>
        <linearGradient id="bZ" x1="11748" y1="5020.92" x2="13899.4" y2="5020.92" gradientUnits="userSpaceOnUse">
            <stop stop-color="#09005D"/>
            <stop offset="1" stop-color="#1A0F91"/>
        </linearGradient>
        <clipPath id="a">
            <path fill="#fff" d="M0 0h411.318v228.31H0z"/>
        </clipPath>
    </defs>
</svg>
