<svg width="40" height="40" fill="none" xmlns="http://www.w3.org/2000/svg">
    <g clip-path="url(#a)" fill="#002D64">
        <path d="M8.2 7.092h10.467a.586.586 0 1 0 0-1.172H8.199a.586.586 0 1 0 0 1.172zM11.055 10.998c0 .324.262.587.586.587h10.441a.586.586 0 1 0 0-1.172H11.641a.586.586 0 0 0-.586.585zM4.785 11.585h4.856a.586.586 0 0 0 0-1.172H4.785a.586.586 0 1 0 0 1.171zM4.785 14.43H15.82a.586.586 0 1 0 0-1.171H4.785a.586.586 0 1 0 0 1.172zM4.785 29.596h7.031a.586.586 0 1 0 0-1.172h-7.03a.586.586 0 0 0 0 1.172z"/>
        <path d="m39.701 36.035-1.49-1.49a.586.586 0 1 0-.829.828l1.384 1.384-1.83 1.831-5.172-5.171 1.831-1.831 1.854 1.854a.586.586 0 0 0 .829-.83l-1.961-1.96a1.022 1.022 0 0 0-1.137-.21l-1.629-1.628a9.8 9.8 0 0 0 .42-10.345c.122-.046.252-.09.392-.135a.813.813 0 0 0 .564-.776.813.813 0 0 0-.565-.776c-1.562-.505-2.037-.98-2.541-2.542a.812.812 0 0 0-.71-.561V4.265c0-.563-.458-1.021-1.02-1.021h-1.224V2.02c0-.563-.457-1.021-1.02-1.021H1.02C.458 1 0 1.458 0 2.021v33.59c0 .563.458 1.02 1.02 1.02h1.224v1.224c0 .562.458 1.02 1.02 1.02h5.408a.586.586 0 1 0 0-1.172H3.416v-1.071h22.43c.563 0 1.021-.458 1.021-1.021v-3.145c.365-.134.723-.29 1.072-.469v5.706H11.406a.586.586 0 0 0 0 1.172H28.09c.563 0 1.021-.458 1.021-1.02v-6.362l1.508 1.508c-.167.375-.098.83.21 1.138l5.384 5.384a1.018 1.018 0 0 0 1.444 0l2.045-2.044a1.022 1.022 0 0 0 0-1.444zm-8.593-18.48c-1.01.458-1.606 1.054-2.063 2.063-.457-1.01-1.053-1.605-2.062-2.062 1.01-.457 1.605-1.053 2.062-2.063.457 1.01 1.053 1.606 2.063 2.063zm-5.38.777c1.562.504 2.037.98 2.541 2.541a.815.815 0 0 0 1.214.437c.726 2.2.219 4.72-1.528 6.467a6.334 6.334 0 0 1-8.947 0 6.334 6.334 0 0 1 0-8.947 6.284 6.284 0 0 1 4.474-1.853c.601 0 1.19.085 1.752.246a.816.816 0 0 0 .494 1.109zm-.033 17.128H1.172V2.172h24.523V7.52a.586.586 0 1 0 1.172 0V4.416h1.072v10.19a9.653 9.653 0 0 0-1.072-.472v-3.88a.586.586 0 1 0-1.172 0v3.531a9.838 9.838 0 0 0-3.093-.213.585.585 0 0 0-.519-.313h-4.176a.586.586 0 1 0 0 1.171h1.473a9.748 9.748 0 0 0-2.504 1.675H4.784a.586.586 0 1 0 0 1.172h11.007a9.688 9.688 0 0 0-1.462 2.608H4.784a.586.586 0 0 0 0 1.172h9.192a9.83 9.83 0 0 0-.243 1.675H4.784a.586.586 0 0 0 0 1.172h8.95c.035.562.117 1.123.248 1.674H4.784a.586.586 0 0 0 0 1.172h9.555c.217.577.49 1.138.82 1.674h-1.342a.586.586 0 1 0 0 1.172h2.19a9.854 9.854 0 0 0 1.817 1.674H4.784a.586.586 0 0 0 0 1.172h15.24a9.812 9.812 0 0 0 5.671.375v2.643zm-8.294-6.076c-3.352-3.353-3.352-8.808 0-12.16a8.542 8.542 0 0 1 6.08-2.52c1.446 0 2.837.355 4.075 1.023-.252.31-.565.537-.994.736-.956-.43-2-.658-3.08-.658-2.003 0-3.886.78-5.302 2.197-2.924 2.923-2.924 7.68 0 10.604a7.475 7.475 0 0 0 5.302 2.192c1.92 0 3.84-.73 5.302-2.192 2.34-2.34 2.804-5.853 1.399-8.661.2-.405.43-.701.743-.942 1.898 3.288 1.445 7.572-1.364 10.381-3.353 3.353-8.808 3.353-12.16 0zm12.523 1.265c.159-.14.315-.285.467-.436.152-.152.295-.31.435-.468l1.476 1.476-.903.903-1.475-1.475z"/>
        <path d="M20.113 20.273c0 .323.262.586.586.586h5.553a.586.586 0 1 0 0-1.172h-5.553a.586.586 0 0 0-.586.586zM19.367 22.455c0 .324.262.586.586.586h7.044a.586.586 0 1 0 0-1.172h-7.044a.586.586 0 0 0-.586.586zM26.997 24.052h-7.044a.586.586 0 1 0 0 1.172h7.044a.586.586 0 1 0 0-1.172zM25.259 26.234h-3.564a.586.586 0 1 0 0 1.172h3.564a.586.586 0 0 0 0-1.172zM31.875 14.183h.545v.545a.586.586 0 0 0 1.172 0v-.545h.545a.586.586 0 1 0 0-1.172h-.545v-.545a.586.586 0 1 0-1.172 0v.545h-.545a.586.586 0 1 0 0 1.172zM34.853 21.353h.794v.794a.853.853 0 1 0 1.706 0v-.794h.794a.853.853 0 1 0 0-1.706h-.794v-.794a.853.853 0 0 0-1.706 0v.794h-.794a.853.853 0 1 0 0 1.706z"/>
    </g>
    <defs>
        <clipPath id="a">
            <path fill="#fff" d="M0 0h40v40H0z"/>
        </clipPath>
    </defs>
</svg>
