<svg width="40" height="40" fill="none" xmlns="http://www.w3.org/2000/svg">
    <path d="M7.703 9.801h1.015v1.016c.027.776 1.146.775 1.172 0V9.801h1.016c.776-.026.775-1.145 0-1.171H9.89V7.614c-.027-.776-1.145-.775-1.172 0V8.63H7.703c-.776.026-.776 1.145 0 1.171zM2.242 2.77h1.015v1.015c.027.776 1.146.775 1.172 0V2.769h1.016c.776-.027.775-1.145 0-1.172H4.429V.582c-.027-.776-1.145-.776-1.172 0v1.015H2.242c-.776.027-.775 1.146 0 1.172zM.586 15.552H1.6v1.016c.027.776 1.146.775 1.172 0v-1.016H3.79c.776-.027.775-1.145 0-1.171H2.773v-1.016c-.027-.776-1.145-.775-1.172 0v1.015H.586c-.776.027-.776 1.146 0 1.172zM29.093 9.801h1.016v1.016c.027.776 1.145.775 1.172 0V9.801h1.016c.775-.026.775-1.145 0-1.171H31.28V7.614c-.027-.776-1.145-.775-1.172 0V8.63h-1.016c-.776.026-.775 1.145 0 1.171zM34.554 2.77h1.016v1.015c.027.776 1.145.775 1.172 0V2.769h1.015c.776-.027.776-1.145 0-1.172h-1.015V.582c-.027-.776-1.145-.776-1.172 0v1.015h-1.016c-.776.027-.775 1.146 0 1.172zM37.812 12.779a.586.586 0 0 0-.586.586v1.015h-1.015c-.776.027-.776 1.146 0 1.172h1.015v1.016c.027.776 1.145.775 1.172 0v-1.016h1.016c.776-.027.775-1.145 0-1.172h-1.016v-1.015a.586.586 0 0 0-.586-.586zM38.75 36.22V24.097a2.15 2.15 0 0 0-2.148-2.148H33.59c-.776.027-.775 1.145 0 1.172h3.012c.538 0 .976.438.976.976V36.09H26.641V23.12h3.827c.776-.026.775-1.145 0-1.171h-3.827v-4.195a2.15 2.15 0 0 0-2.149-2.148h-8.984a2.15 2.15 0 0 0-2.149 2.148v1.607H3.4a2.15 2.15 0 0 0-2.149 2.148v14.712c-.73.282-1.25.993-1.25 1.822v1.367c0 .324.262.586.586.586h5.56c.776-.027.775-1.146 0-1.172H1.172v-.781c0-.431.35-.782.781-.782h36.094c.43 0 .781.35.781.782v.78H9.401c-.776.028-.775 1.146 0 1.173h30.013A.586.586 0 0 0 40 39.41v-1.367c0-.83-.52-1.54-1.25-1.823zm-25.39-.13H2.421V21.51c0-.54.438-.977.976-.977h9.961V36.09zm12.109 0H14.53V17.754c0-.538.438-.976.977-.976h8.984c.539 0 .977.438.977.976V36.09z" fill="#002D64"/>
    <path d="M19.058 20.581h.515v4.565c.027.776 1.145.776 1.172 0v-5.15a.586.586 0 0 0-.586-.586h-1.1c-.777.026-.776 1.145 0 1.171zM6.362 24.882a.586.586 0 0 0 .688-.462.733.733 0 0 1 1.45.143c0 .784-1.423 2.514-2.433 3.493-.365.354-.178 1.015.222 1.015h3.022s.583-.27.58-.593a.584.584 0 0 0-.594-.58c-.5.007-1.027.01-1.485.012.137-.156.28-.324.423-.501.967-1.192 1.437-2.123 1.437-2.846-.062-2.297-3.269-2.607-3.772-.368a.586.586 0 0 0 .462.687zM32.11 25.274c-.908 0-1.694.646-1.869 1.536a.586.586 0 0 0 1.15.226c.191-.859 1.43-.74 1.45.142a.733.733 0 0 1-.732.732.586.586 0 1 0 0 1.172c.404 0 .733.329.733.732-.027.907-1.304.996-1.457.103.016-.363-.21-.687-.594-.689-.473.017-.653.428-.567.851.13.934.94 1.64 1.885 1.64 1.672.004 2.527-2.038 1.373-3.223 1.154-1.185.299-3.226-1.373-3.222zM5.082 34.233h5.621c.776-.026.776-1.145 0-1.171H5.082c-.776.026-.776 1.145 0 1.171zM28.715 33.648c0 .323.262.585.586.585h5.621c.776-.026.776-1.145 0-1.171h-5.621a.586.586 0 0 0-.586.586zM5.082 31.597h5.621c.776-.027.776-1.145 0-1.172H5.082c-.776.027-.776 1.145 0 1.172zM22.809 33.062h-5.622c-.776.026-.775 1.145 0 1.171h5.622c.776-.026.775-1.145 0-1.171zM22.809 30.425h-5.622c-.776.027-.775 1.146 0 1.172h5.622c.776-.027.775-1.145 0-1.172zM22.809 27.79h-5.622c-.776.026-.775 1.145 0 1.171h5.622c.776-.026.775-1.145 0-1.171zM13.764 6.4l1.94 1.891c.07.069.102.167.085.263l-.458 2.67c-.2 1.163 1.078 2.103 2.132 1.55l2.398-1.261a.297.297 0 0 1 .276 0l2.398 1.26c1.053.553 2.332-.376 2.131-1.549l-.458-2.67a.297.297 0 0 1 .086-.263l1.94-1.89c.845-.824.364-2.335-.814-2.506l-2.681-.39a.297.297 0 0 1-.224-.162L21.316.913c-.522-1.057-2.107-1.068-2.635 0l-1.198 2.43a.297.297 0 0 1-.224.162l-2.68.39c-1.168.17-1.668 1.674-.815 2.506zm.743-1.143a.29.29 0 0 1 .24-.203l2.68-.39c.479-.069.892-.369 1.106-.803l1.2-2.429a.298.298 0 0 1 .532 0l1.2 2.43c.213.433.627.733 1.105.803l2.681.39c.242.035.34.336.165.506l-1.94 1.891a1.468 1.468 0 0 0-.423 1.3l.458 2.67a.298.298 0 0 1-.431.314l-2.397-1.26a1.468 1.468 0 0 0-1.368 0l-2.398 1.26a.298.298 0 0 1-.43-.314l.457-2.67a1.469 1.469 0 0 0-.422-1.3l-1.94-1.89a.29.29 0 0 1-.075-.305z" fill="#002D64"/>
</svg>
