<svg width="40" height="40" fill="none" xmlns="http://www.w3.org/2000/svg">
    <path d="M39.868 12.192a14 14 0 0 0-5.453-9.324c-5.066-3.84-12.121-3.822-17.158.044a.781.781 0 1 0 .951 1.24c4.48-3.44 10.756-3.455 15.263-.04a12.45 12.45 0 0 1 4.849 8.291 12.436 12.436 0 0 1-2.446 9.278c-4.191 5.505-12.091 6.581-17.61 2.398-4.504-3.416-6.17-9.453-4.052-14.679a.781.781 0 0 0-1.448-.587c-2.384 5.88-.51 12.669 4.557 16.511a14.076 14.076 0 0 0 8.53 2.867c4.269 0 8.49-1.918 11.267-5.563a13.989 13.989 0 0 0 2.75-10.436zM27.807 30.49l-6.478 1.69a2.75 2.75 0 0 0-.114-.632 2.707 2.707 0 0 0-1.325-1.612l-2.4-1.28c-1.652-.88-3.663-1.362-5.669-1.362h-.059c-1.998.01-3.976.498-5.787 1.42A1.798 1.798 0 0 0 4.3 27.566H1.793C.804 27.566 0 28.371 0 29.36v7.844c0 .988.804 1.791 1.793 1.791H4.3c.871 0 1.599-.622 1.761-1.444l9.871 2.257c.302.07.603.1.901.1.97 0 1.91-.321 2.736-.66l9.638-3.955c1.266-.522 2.323-1.863 1.79-3.32-.466-1.284-1.719-1.866-3.19-1.482zM4.533 37.203a.234.234 0 0 1-.233.229H1.793a.233.233 0 0 1-.23-.229V29.36c0-.125.105-.23.23-.23H4.3c.126 0 .233.105.233.23v7.844zm24.08-3.356-9.637 3.955c-1.223.502-2.003.642-2.694.482L6.095 35.955v-5.53c4.007-2.333 8.22-1.689 10.66-.39l2.4 1.28c.274.145.474.39.565.688.09.296.061.608-.083.878-.3.564-1.007.779-1.575.478l-3.957-2.088a.781.781 0 0 0-.73 1.382l3.957 2.088a2.734 2.734 0 0 0 3.49-.814l7.38-1.925c.693-.181 1.14-.012 1.327.505.189.516-.329 1.098-.916 1.34z" fill="#002D64"/>
    <path d="M17.023 18.021h3.64v2.217c0 .432.35.782.78.782h8.843c.431 0 .781-.35.781-.782v-2.217h3.64c.43 0 .78-.349.78-.78l.002-2.4c0-1.957-.985-2.986-1.997-3.591.25-.49.392-1.043.392-1.628a3.6 3.6 0 0 0-7.162-.49 3.6 3.6 0 0 0-1.715 0 3.599 3.599 0 0 0-7.162.49c0 .585.143 1.139.393 1.628-1.011.605-1.996 1.634-1.996 3.59v2.4c0 .432.35.781.781.781zm12.482 1.436h-7.28V17.84c0-.182.011-.352.034-.51l.002-.008c.136-.933.66-1.457 1.416-1.853a3.583 3.583 0 0 0 2.189.744c.823 0 1.581-.278 2.188-.743.756.396 1.279.92 1.415 1.852l.001.008c.023.158.035.328.035.51v1.618zm4.42-2.998h-3.052c-.336-1.095-1.061-1.766-1.802-2.21.18-.35.303-.733.358-1.138.278.068.565.102.857.102.823 0 1.582-.277 2.188-.743.888.464 1.453 1.102 1.453 2.37l-.001 1.619zm-5.674-6.837a2.035 2.035 0 0 1 4.071 0 2.035 2.035 0 0 1-3.088 1.735 3.604 3.604 0 0 0-.954-1.398 2.013 2.013 0 0 1-.03-.337zm-.35 2.998a2.035 2.035 0 0 1-4.071 0c0-1.119.913-2.03 2.036-2.03 1.122 0 2.035.911 2.035 2.03zm-6.457-5.028a2.035 2.035 0 0 1 2.005 2.37c-.419.379-.747.856-.95 1.393a2.035 2.035 0 0 1-3.09-1.734c-.001-1.118.912-2.029 2.035-2.029zm-3.64 7.249c0-1.27.566-1.908 1.451-2.371a3.583 3.583 0 0 0 3.047.64c.056.405.18.788.358 1.138-.741.444-1.468 1.115-1.803 2.21h-3.052v-1.617zM15.238 6.819c.2 0 .4-.076.553-.229l.002-.002a.78.78 0 0 0-.001-1.104.783.783 0 1 0-.554 1.335zM3.8 17.805h1.395v1.396c.037 1.066 1.574 1.065 1.61 0v-1.396h1.396c1.066-.037 1.065-1.574 0-1.61H6.805v-1.396c-.037-1.066-1.574-1.065-1.61 0v1.396H3.799c-1.066.037-1.065 1.573 0 1.61zM5.533 8.537h.93v.93c.025.71 1.05.71 1.074 0v-.93h.93c.71-.025.71-1.05 0-1.074h-.93v-.93c-.025-.71-1.05-.71-1.074 0v.93h-.93c-.71.025-.71 1.05 0 1.074zM9.4 2.903h.697V3.6c.019.533.787.533.806 0v-.697h.697c.533-.019.533-.787 0-.806h-.697V1.4c-.019-.533-.787-.533-.806 0v.697H9.4c-.533.019-.533.787 0 .806z" fill="#002D64"/>
</svg>
