<svg width="40" height="40" viewBox="0 0 40 40" fill="none" xmlns="http://www.w3.org/2000/svg">
<path d="M22.1324 12.3451C22.1324 11.0646 21.0907 10.0229 19.8104 10.0229C18.5299 10.0229 17.4883 11.0647 17.4883 12.3451C17.4883 13.6254 18.53 14.6671 19.8104 14.6671C21.0908 14.6671 22.1324 13.6254 22.1324 12.3451ZM19.8104 13.4952C19.1761 13.4952 18.6601 12.9793 18.6601 12.345C18.6601 11.7107 19.176 11.1947 19.8104 11.1947C20.4446 11.1947 20.9606 11.7107 20.9606 12.345C20.9606 12.9793 20.4446 13.4952 19.8104 13.4952Z" fill="#002D64"/>
<path d="M37.0339 37.8858C36.7102 37.8858 36.448 38.148 36.448 38.4717V38.828H34.6038V37.1044C34.6038 36.7807 34.3416 36.5184 34.0179 36.5184C33.6942 36.5184 33.4319 36.7807 33.4319 37.1044V38.828H27.3696L27.3699 33.0265H33.2637C34.8673 33.0265 36.2254 34.2234 36.4228 35.8105C36.4597 36.1071 36.7121 36.3242 37.0035 36.3242C37.0277 36.3242 37.052 36.3227 37.0766 36.3196C37.3977 36.2797 37.6257 35.987 37.5858 35.6659C37.3155 33.4931 35.4575 31.8546 33.2637 31.8546H32.9148C33.6659 31.1153 34.1327 30.088 34.1327 28.9533C34.1327 26.7075 32.3056 24.8804 30.0598 24.8804C28.2342 24.8804 26.6853 26.0878 26.1696 27.7459C25.3755 26.9105 24.2548 26.388 23.0137 26.388H22.6647C23.2978 25.765 23.7278 24.937 23.8477 24.0128C26.4548 23.1109 28.7007 21.3467 30.202 19.0104C30.3769 18.7382 30.298 18.3756 30.0259 18.2007C29.7537 18.0257 29.391 18.1047 29.2162 18.3769C27.9255 20.3854 26.0277 21.9272 23.8195 22.7765C23.5969 21.5166 22.7938 20.4552 21.6967 19.8791C21.7244 19.8191 21.7476 19.7565 21.7655 19.6913L22.2445 17.9498C22.671 17.7645 23.0735 17.532 23.4468 17.2552L25.1951 17.7113C25.7235 17.8491 26.2835 17.6152 26.5565 17.1421L27.338 15.7885C27.6112 15.3154 27.534 14.7134 27.1502 14.3248L25.8807 13.0384C25.9072 12.8063 25.9206 12.5741 25.9206 12.3448C25.9206 12.1155 25.9072 11.8834 25.8806 11.6513L27.1502 10.3648C27.534 9.97609 27.6112 9.37414 27.338 8.90117L26.5562 7.54766C26.2831 7.07445 25.7231 6.84023 25.1947 6.97844L23.4465 7.43453C23.0733 7.15773 22.6706 6.92523 22.2442 6.74L21.7652 4.99836C21.6204 4.47172 21.1377 4.10391 20.5916 4.10391H19.0285C18.4823 4.10391 17.9997 4.47172 17.8548 4.99836L17.3759 6.74C16.9494 6.92516 16.5469 7.15773 16.1736 7.43453L14.4255 6.97844C13.897 6.84062 13.337 7.07445 13.0639 7.54758L12.2823 8.90117C12.0092 9.3743 12.0864 9.97625 12.4702 10.3649L13.7398 11.6513C13.7132 11.8835 13.6998 12.1156 13.6998 12.3449C13.6998 12.5742 13.7132 12.8063 13.7397 13.0384L12.4702 14.3248C12.0864 14.7136 12.0092 15.3155 12.2823 15.7886L13.0638 17.1421C13.337 17.6152 13.8968 17.8491 14.4254 17.7114L16.1736 17.2552C16.5468 17.532 16.9494 17.7646 17.3759 17.9498L17.8548 19.6914C17.8727 19.7565 17.8959 19.819 17.9235 19.8788C16.826 20.4549 16.0227 21.5166 15.8001 22.777C11.4863 21.1278 8.63711 17.0241 8.63711 12.3453C8.63719 6.18422 13.6492 1.17188 19.8098 1.17188C25.9708 1.17188 30.9831 6.18422 30.9831 12.3452C30.9831 13.6159 30.7719 14.8613 30.3553 16.0471C30.248 16.3524 30.4087 16.6869 30.7139 16.7941C31.0194 16.9013 31.3537 16.7408 31.4609 16.4355C31.9215 15.1247 32.155 13.7485 32.155 12.3452C32.155 5.53805 26.6169 0 19.8098 0C13.003 0 7.46531 5.53805 7.46531 12.3452C7.46531 15.0338 8.31469 17.5895 9.92172 19.736C11.3952 21.7041 13.4612 23.2113 15.772 24.0129C15.8918 24.9371 16.3219 25.7651 16.955 26.3881H16.6059C15.3649 26.3881 14.2443 26.9105 13.4501 27.746C12.9344 26.0878 11.3855 24.8805 9.55984 24.8805C7.31406 24.8805 5.48695 26.7076 5.48695 28.9534C5.48695 30.088 5.95367 31.1152 6.70469 31.8545H6.35562C3.95391 31.8545 2 33.8084 2 36.2101V39.4141C2 39.7377 2.26227 40 2.58594 40L37.0338 39.9998C37.3575 39.9998 37.6198 39.7375 37.6198 39.4138V38.4717C37.6198 38.148 37.3575 37.8858 37.0339 37.8858V37.8858ZM19.0286 19.414C19.0082 19.414 18.9902 19.4002 18.9848 19.3805L18.4291 17.3602C18.3794 17.1795 18.2462 17.0334 18.0707 16.9673C17.5642 16.7766 17.0955 16.5058 16.6778 16.1625C16.5718 16.0754 16.44 16.0293 16.3058 16.0293C16.2564 16.0293 16.2066 16.0355 16.1578 16.0483L14.1296 16.5775C14.1099 16.5827 14.089 16.5739 14.0788 16.5562L13.2973 15.2027C13.2871 15.185 13.2899 15.1625 13.3043 15.148L14.7769 13.6559C14.9084 13.5227 14.9684 13.3345 14.938 13.1498C14.8941 12.8809 14.8717 12.6101 14.8717 12.3449C14.8717 12.0798 14.894 11.8091 14.938 11.54C14.9683 11.3552 14.9084 11.1671 14.7769 11.0338L13.3043 9.54172C13.2899 9.52719 13.287 9.50477 13.2973 9.48719L14.0789 8.13344C14.0891 8.11586 14.1098 8.10727 14.1295 8.11227L16.1578 8.64141C16.339 8.68875 16.5327 8.64633 16.6777 8.52719C17.0955 8.18383 17.5641 7.9132 18.0705 7.72242C18.246 7.65633 18.3793 7.51031 18.4291 7.32953L18.9847 5.30914C18.9901 5.28945 19.0081 5.2757 19.0285 5.2757H20.5916C20.6119 5.2757 20.6299 5.28945 20.6354 5.30914L21.191 7.32953C21.2408 7.51031 21.3741 7.65641 21.5495 7.72242C22.0559 7.91313 22.5245 8.18383 22.9423 8.52719C23.0874 8.64641 23.2809 8.68883 23.4623 8.64141L25.4906 8.11227C25.5105 8.10703 25.5312 8.11586 25.5412 8.13344L26.3228 9.48719C26.333 9.50477 26.3302 9.52719 26.3158 9.54164L24.8432 11.0337C24.7116 11.167 24.6518 11.3552 24.682 11.5399C24.726 11.8089 24.7484 12.0797 24.7484 12.3448C24.7484 12.61 24.7261 12.8807 24.682 13.1497C24.6517 13.3345 24.7117 13.5226 24.8432 13.6559L26.3158 15.148C26.3301 15.1625 26.333 15.185 26.3227 15.2026L25.5411 16.5562C25.531 16.5739 25.5098 16.5827 25.4905 16.5774L23.4622 16.0482C23.2809 16.001 23.0873 16.0433 22.9423 16.1624C22.5245 16.5057 22.0559 16.7764 21.5494 16.9673C21.3739 17.0334 21.2407 17.1795 21.1909 17.3602L20.6353 19.3805C20.6299 19.4002 20.6119 19.4139 20.5915 19.4139H19.0286V19.414ZM16.9087 23.4868C16.9087 21.8872 18.2102 20.5858 19.8098 20.5858C21.4094 20.5858 22.7108 21.8872 22.7108 23.4868C22.7108 25.0863 21.4094 26.3878 19.8098 26.3878C18.2102 26.3878 16.9087 25.0864 16.9087 23.4868ZM24.3535 34.5334H26.1977V38.8277H24.3535V34.5334ZM30.0597 26.0523C31.6593 26.0523 32.9607 27.3537 32.9607 28.9533C32.9607 30.5529 31.6594 31.8544 30.0597 31.8544C28.4601 31.8544 27.1586 30.553 27.1586 28.9533C27.1587 27.3537 28.4601 26.0523 30.0597 26.0523ZM6.65883 28.9532C6.65883 27.3536 7.96016 26.0522 9.55984 26.0522C11.1595 26.0522 12.4609 27.3536 12.4609 28.9532C12.4609 30.5528 11.1595 31.8543 9.55984 31.8543C7.96016 31.8543 6.65883 30.5529 6.65883 28.9532ZM3.17187 36.2099C3.17187 34.4544 4.60008 33.0262 6.35562 33.0262H12.2497L12.25 38.8281H6.18766V37.1043C6.18766 36.7806 5.92539 36.5184 5.60172 36.5184C5.27805 36.5184 5.01578 36.7806 5.01578 37.1043V38.8281H3.17187V36.2099ZM23.1816 38.8279H16.4379V38.2201C16.4379 37.8964 16.1756 37.6341 15.8519 37.6341C15.5283 37.6341 15.266 37.8964 15.266 38.2201V38.8277H13.4219V34.5334H15.266V35.4857C15.266 35.8094 15.5283 36.0716 15.8519 36.0716C16.1756 36.0716 16.4379 35.8094 16.4379 35.4857L16.4376 32.0628C16.4376 31.7391 16.1753 31.4769 15.8516 31.4769C15.528 31.4769 15.2657 31.7391 15.2657 32.0628V33.3616H13.4216V30.7435C13.4216 28.988 14.8501 27.5599 16.6059 27.5599H23.0137C24.7694 27.5599 26.198 28.988 26.198 30.7435V33.3616H24.3539V32.0628C24.3539 31.7391 24.0916 31.4769 23.768 31.4769C23.4443 31.4769 23.182 31.7391 23.182 32.0628L23.1816 38.8279Z" fill="#002D64"/>
<path d="M3.34141 20.5368H4.2718V21.4672C4.29642 22.1779 5.321 22.1773 5.34533 21.4672V20.5368H6.27572C6.98647 20.5121 6.98589 19.4876 6.27572 19.4632H5.34533V18.5328C5.32071 17.8221 4.29614 17.8227 4.2718 18.5328V19.4632H3.34141C2.63074 19.4879 2.63124 20.5124 3.34141 20.5368V20.5368Z" fill="#002D64"/>
<path d="M33.3415 20.5368H34.2719V21.4672C34.2965 22.1779 35.3211 22.1773 35.3454 21.4672V20.5368H36.2758C36.9865 20.5121 36.9859 19.4876 36.2758 19.4632H35.3454V18.5328C35.3208 17.8221 34.2962 17.8227 34.2719 18.5328V19.4632H33.3415C32.6307 19.4879 32.6312 20.5124 33.3415 20.5368Z" fill="#002D64"/>
</svg>
