<svg width="40" height="40" fill="none" xmlns="http://www.w3.org/2000/svg">
    <path d="M39.32 9.328c.615-.6.833-1.48.567-2.298a2.227 2.227 0 0 0-1.809-1.525l-3.429-.498a1.068 1.068 0 0 1-.804-.584l-1.534-3.107a2.227 2.227 0 0 0-2.009-1.25c-.86 0-1.63.479-2.01 1.25L26.76 4.423a1.068 1.068 0 0 1-.804.584l-3.43.498a2.227 2.227 0 0 0-1.808 1.526 2.227 2.227 0 0 0 .567 2.297l2.481 2.418c.252.246.367.6.308.946l-.586 3.415a2.227 2.227 0 0 0 .891 2.192 2.233 2.233 0 0 0 2.36.17l3.067-1.612c.311-.164.683-.164.994 0l3.067 1.612c.76.4 1.665.335 2.36-.17a2.227 2.227 0 0 0 .892-2.192l-.113-.653a.586.586 0 1 0-1.156.198l.113.653c.07.41-.089.8-.425 1.045a1.048 1.048 0 0 1-1.125.081l-3.067-1.612a2.24 2.24 0 0 0-2.086 0l-3.067 1.612a1.047 1.047 0 0 1-1.125-.081 1.048 1.048 0 0 1-.425-1.045l.586-3.415a2.24 2.24 0 0 0-.644-1.983l-2.482-2.42c-.297-.29-.398-.699-.27-1.094.129-.395.45-.667.862-.727l3.43-.498a2.24 2.24 0 0 0 1.687-1.226l1.533-3.107c.184-.373.542-.595.958-.595.416 0 .774.222.957.595l1.534 3.107a2.24 2.24 0 0 0 1.687 1.226l3.43.498c.41.06.733.332.862.727.128.395.027.805-.27 1.095l-2.482 2.419a2.24 2.24 0 0 0-.645 1.983l.02.114a.586.586 0 0 0 1.156-.199l-.02-.113c-.059-.347.056-.7.308-.946l2.481-2.418z" fill="#002D64"/>
    <path d="M32.232 25.386a2.739 2.739 0 0 0 .668-1.794 2.754 2.754 0 0 0-2.752-2.751l-8.925-.011c-.002-.003-.1-.29-.163-.424l-.001-.002a1.65 1.65 0 0 1-.146-.915c.131-1.001.163-2.04.19-2.876.066-2.143-.361-3.708-1.308-4.784a5.002 5.002 0 0 0-3.758-1.701h-.032a1.487 1.487 0 0 0-1.466 1.49v2.605c0 1.658-.268 3.964-1.546 5.539-1.356 1.67-2.527 1.656-4.467 1.632l-.201-.003v-.703a2.12 2.12 0 0 0-2.117-2.117H2.117A2.12 2.12 0 0 0 0 20.687v5.89a.586.586 0 1 0 1.173 0v-5.89c0-.52.423-.943.944-.943h4.09c.521 0 .945.423.945.944v17.129c0 .52-.424.944-.944.944H2.117a.945.945 0 0 1-.944-.944v-8.565a.586.586 0 1 0-1.173 0v8.565a2.12 2.12 0 0 0 2.117 2.117h4.09a2.12 2.12 0 0 0 2.118-2.117v-.886h.793c.383 0 .763.134 1.069.378.079.062.17.141.277.232.734.626 2.099 1.792 4.053 1.792h14.395a2.754 2.754 0 0 0 2.751-2.751c0-.656-.23-1.258-.614-1.73a2.756 2.756 0 0 0 1.85-2.6c0-.685-.251-1.312-.667-1.794a2.755 2.755 0 0 0 1.684-2.536c0-1.139-.695-2.118-1.684-2.536zm-7.09-3.372h5.006c.87 0 1.579.708 1.579 1.578a1.58 1.58 0 0 1-1.579 1.579h-5.005a1.58 1.58 0 0 1-1.579-1.579c0-.87.709-1.578 1.579-1.578zM21.656 38.16h-7.138c-1.522 0-2.586-.91-3.29-1.51-.111-.095-.215-.184-.31-.26a2.903 2.903 0 0 0-1.8-.632h-.792V22.564l.187.003c2.054.024 3.678.045 5.391-2.066.826-1.017 1.81-2.93 1.81-6.278v-2.605c0-.174.134-.316.3-.317h.023c1.086 0 2.16.486 2.878 1.302.741.843 1.074 2.142 1.016 3.973-.025.81-.056 1.818-.18 2.761-.069.531.016 1.072.247 1.564l.003.009a.473.473 0 0 1 .007.014v.003c.188.44.331.919.353 1.4.028.6-.093 1.205-.36 1.8-.006.012-.56 1.235-2.09 1.913a.587.587 0 0 0-.297.774c.454 1.024 2.14-.515 2.556-.947.353-.365.694-.793.902-1.262a5.074 5.074 0 0 0 .461-2.332 3.913 3.913 0 0 0-.023-.27h1.39c-.319.45-.507.997-.507 1.59 0 1.138.695 2.118 1.684 2.535a2.738 2.738 0 0 0 0 3.588 2.755 2.755 0 0 0-1.684 2.536c0 .655.23 1.257.614 1.73a2.756 2.756 0 0 0-1.85 2.6c0 .587.184 1.13.499 1.578zm7.257 0h-5.008a1.58 1.58 0 0 1-1.576-1.578c0-.87.708-1.579 1.579-1.579h5.005c.87 0 1.579.708 1.579 1.579a1.58 1.58 0 0 1-1.58 1.578zm1.236-4.33h-5.005a1.58 1.58 0 0 1-1.579-1.578c0-.87.709-1.579 1.579-1.579h5.005c.87 0 1.579.708 1.579 1.579a1.58 1.58 0 0 1-1.579 1.578zm1.017-4.33H26.16a1.58 1.58 0 0 1-1.579-1.578c0-.87.708-1.578 1.579-1.578h5.005c.87 0 1.579.708 1.579 1.578a1.58 1.58 0 0 1-1.579 1.578zM17.533 2.537h.93v.93c.025.71 1.05.71 1.074 0v-.93h.93c.71-.025.71-1.05 0-1.074h-.93v-.93c-.025-.71-1.05-.71-1.074 0v.93h-.93c-.71.025-.71 1.05 0 1.074zM4.4 5.903h.697V6.6c.019.533.787.533.806 0v-.697H6.6c.533-.019.533-.787 0-.806h-.697V4.4c-.019-.533-.787-.533-.806 0v.697H4.4c-.533.019-.533.787 0 .806zM9.8 6.805h1.395v1.396c.037 1.066 1.574 1.065 1.61 0V6.805h1.396c1.066-.037 1.065-1.574 0-1.61h-1.396V3.799c-.037-1.066-1.574-1.065-1.61 0v1.396H9.799c-1.066.037-1.065 1.574 0 1.61z" fill="#002D64"/>
</svg>
