<svg width="40" height="40" viewBox="0 0 40 40" fill="none" xmlns="http://www.w3.org/2000/svg">
<path d="M19.3034 38.2973C14.7569 38.2973 11.1953 30.106 11.1953 19.6487C11.1953 9.19135 14.7569 1 19.3034 1C23.8499 1 27.4115 9.19135 27.4115 19.6487C27.4115 30.106 23.8499 38.2973 19.3034 38.2973ZM19.3034 2.08108C15.4942 2.08108 12.2764 10.1259 12.2764 19.6487C12.2764 29.1714 15.4942 37.2162 19.3034 37.2162C23.1126 37.2162 26.3304 29.1714 26.3304 19.6487C26.3304 10.1259 23.1126 2.08108 19.3034 2.08108Z" fill="#002D64"/>
<path d="M29.5711 36.9168H30.0363V37.382C30.0486 37.7374 30.5609 37.7371 30.5731 37.382V36.9168H31.0383C31.3937 36.9045 31.3934 36.3922 31.0383 36.3801H30.5731V35.9149C30.5608 35.5595 30.0485 35.5598 30.0363 35.9149V36.3801H29.5711C29.2158 36.3924 29.216 36.9046 29.5711 36.9168Z" fill="#002D64"/>
<path d="M36.5711 21.9168H37.0363V22.382C37.0486 22.7374 37.5609 22.7371 37.5731 22.382V21.9168H38.0383C38.3937 21.9045 38.3934 21.3922 38.0383 21.3801H37.5731V20.9149C37.5608 20.5595 37.0485 20.5598 37.0363 20.9149V21.3801H36.5711C36.2158 21.3924 36.216 21.9046 36.5711 21.9168Z" fill="#002D64"/>
<path d="M34.4397 32.9838C34.3243 32.984 34.2119 32.9472 34.1189 32.8788C34.0259 32.8105 33.9572 32.7142 33.9229 32.604C33.8886 32.4938 33.8904 32.3755 33.9282 32.2664C33.9659 32.1574 34.0376 32.0633 34.1327 31.9979C34.4103 31.8081 34.655 31.5742 34.857 31.3054C34.9608 31.1703 35.0514 31.0255 35.1273 30.873C35.1587 30.8089 35.2025 30.7517 35.2561 30.7047C35.3097 30.6576 35.3721 30.6216 35.4397 30.5988C35.5072 30.5759 35.5787 30.5667 35.6498 30.5716C35.721 30.5765 35.7905 30.5954 35.8543 30.6273C35.9181 30.6592 35.975 30.7034 36.0217 30.7574C36.0683 30.8114 36.1038 30.874 36.1261 30.9418C36.1484 31.0096 36.1571 31.0811 36.1516 31.1522C36.1462 31.2233 36.1267 31.2927 36.0943 31.3562C35.988 31.5701 35.8613 31.7732 35.7159 31.9627C35.4431 32.3216 35.1146 32.6346 34.743 32.8898C34.6536 32.9508 34.548 32.9835 34.4397 32.9838V32.9838Z" fill="#002D64"/>
<path d="M30.1641 33.8867H30.1322C28.2381 33.7381 26.3745 33.3219 24.5971 32.6504C22.6742 31.9528 20.8144 31.092 19.0382 30.0775C17.279 29.0853 15.5874 27.9779 13.9744 26.7623C13.2128 26.1926 12.4349 25.5732 11.6636 24.9213C9.88571 23.4196 8.23637 21.7721 6.73278 19.9958C2.32035 14.7456 0.882514 10.0148 2.88792 7.34071C4.6436 4.99747 8.69765 4.74612 14.0112 6.64828C15.9341 7.34595 17.7938 8.20674 19.5701 9.22126C21.3293 10.213 23.0209 11.3201 24.6339 12.5353C25.3955 13.105 26.1733 13.7245 26.9447 14.3764C28.7226 15.878 30.3719 17.5256 31.8755 19.3018C32.5706 20.1203 33.2202 20.9764 33.8214 21.8661C33.8651 21.9248 33.8964 21.9917 33.9135 22.0628C33.9305 22.1339 33.933 22.2078 33.9207 22.2798C33.9084 22.3519 33.8816 22.4208 33.8419 22.4822C33.8022 22.5436 33.7504 22.5964 33.6898 22.6372C33.6291 22.6781 33.5608 22.7062 33.489 22.7199C33.4171 22.7336 33.3433 22.7325 33.2718 22.7168C33.2004 22.7011 33.1329 22.6711 33.0734 22.6286C33.0139 22.586 32.9637 22.5319 32.9258 22.4694C32.3457 21.6118 31.719 20.7868 31.0485 19.998C29.5838 18.2679 27.9771 16.6632 26.2452 15.2007C25.4917 14.5645 24.7317 13.9575 23.9858 13.4007C22.4105 12.2137 20.7582 11.1324 19.0398 10.164C17.3169 9.1791 15.5128 8.34344 13.6474 7.66612C8.88197 5.95909 5.18305 6.07963 3.75549 7.99044C2.09819 10.2007 3.55711 14.5353 7.5636 19.3018C9.0279 21.0315 10.6342 22.6359 12.3658 24.098C13.1193 24.7342 13.8793 25.3413 14.6252 25.898C16.2005 27.0851 17.8528 28.1664 19.5712 29.1348C21.2941 30.1196 23.0982 30.9553 24.9636 31.6326C26.6441 32.2687 28.406 32.6641 30.1971 32.8072C30.3405 32.8112 30.4764 32.872 30.5749 32.9762C30.6734 33.0804 30.7265 33.2195 30.7225 33.3629C30.7185 33.5062 30.6577 33.6421 30.5535 33.7407C30.4493 33.8392 30.3102 33.8923 30.1668 33.8883L30.1641 33.8867Z" fill="#002D64"/>
<path d="M35.8071 27.773C35.6867 27.7729 35.5699 27.7326 35.475 27.6586C35.3801 27.5846 35.3127 27.481 35.2833 27.3643C35.1314 26.7729 34.9326 26.1945 34.6887 25.6346C34.6606 25.5694 34.6456 25.4993 34.6446 25.4283C34.6436 25.3573 34.6565 25.2868 34.6828 25.2208C34.709 25.1549 34.748 25.0947 34.7974 25.0438C34.8469 24.9928 34.9059 24.9522 34.9711 24.9241C35.0363 24.8959 35.1064 24.881 35.1774 24.8799C35.2484 24.8789 35.3189 24.8919 35.3849 24.9181C35.4509 24.9443 35.5111 24.9833 35.562 25.0328C35.6129 25.0823 35.6536 25.1413 35.6817 25.2065C35.9476 25.819 36.1645 26.4516 36.3303 27.0984C36.348 27.1673 36.3519 27.239 36.3418 27.3094C36.3318 27.3798 36.3079 27.4475 36.2716 27.5087C36.2353 27.5699 36.1873 27.6233 36.1303 27.6658C36.0733 27.7084 36.0085 27.7393 35.9395 27.7568C35.8962 27.7674 35.8517 27.7729 35.8071 27.773V27.773Z" fill="#002D64"/>
<path d="M7.79427 33.9145C5.60075 33.9145 3.88021 33.2815 2.88562 31.9545C-0.100868 27.9658 4.764 19.4355 13.9732 12.535C23.1824 5.63446 32.7337 3.35338 35.7235 7.34257C38.7132 11.3318 33.8451 19.8615 24.6359 26.762C18.4937 31.3669 12.1932 33.9145 7.79427 33.9145ZM30.8753 6.47122C26.7478 6.47122 20.4824 9.00636 14.6208 13.3999C6.19048 19.7193 1.2121 27.9188 3.75102 31.3064C6.28994 34.6939 15.5564 32.2161 23.9878 25.8972C32.4191 19.5783 37.397 11.3782 34.8581 7.99068C34.0845 6.95879 32.6851 6.47122 30.8759 6.47122H30.8753Z" fill="#002D64"/>
<path d="M15.9663 19.2486C15.823 19.2486 15.6855 19.1916 15.5841 19.0903C15.4827 18.9889 15.4258 18.8514 15.4258 18.7081V16.5562C15.4258 16.4128 15.4827 16.2753 15.5841 16.1739C15.6855 16.0726 15.823 16.0156 15.9663 16.0156C16.1097 16.0156 16.2472 16.0726 16.3485 16.1739C16.4499 16.2753 16.5069 16.4128 16.5069 16.5562V18.7081C16.5069 18.8514 16.4499 18.9889 16.3485 19.0903C16.2472 19.1916 16.1097 19.2486 15.9663 19.2486Z" fill="#002D64"/>
<path d="M19.3063 18.5313C17.3782 18.5313 15.4258 17.8529 15.4258 16.5562C15.4258 15.2594 17.3782 14.5811 19.3063 14.5811C21.2344 14.5811 23.1869 15.2594 23.1869 16.5562C23.1869 17.8529 21.2344 18.5313 19.3063 18.5313ZM19.3063 15.6621C17.4879 15.6621 16.5069 16.2967 16.5069 16.5562C16.5069 16.8157 17.4879 17.4502 19.3063 17.4502C21.1247 17.4502 22.1058 16.8157 22.1058 16.5562C22.1058 16.2967 21.1247 15.6621 19.3063 15.6621Z" fill="#002D64"/>
<path d="M19.3063 20.6831C17.3782 20.6831 15.4258 20.0048 15.4258 18.708C15.4258 18.5647 15.4827 18.4272 15.5841 18.3258C15.6855 18.2244 15.823 18.1675 15.9663 18.1675C16.1097 18.1675 16.2472 18.2244 16.3485 18.3258C16.4499 18.4272 16.5069 18.5647 16.5069 18.708C16.5069 18.9675 17.4879 19.6021 19.3063 19.6021C21.1247 19.6021 22.1058 18.9675 22.1058 18.708C22.1058 18.5647 22.1627 18.4272 22.2641 18.3258C22.3655 18.2244 22.503 18.1675 22.6463 18.1675C22.7897 18.1675 22.9272 18.2244 23.0285 18.3258C23.1299 18.4272 23.1869 18.5647 23.1869 18.708C23.1869 20.0048 21.2344 20.6831 19.3063 20.6831Z" fill="#002D64"/>
<path d="M22.646 19.2486C22.5027 19.2486 22.3652 19.1916 22.2638 19.0903C22.1624 18.9889 22.1055 18.8514 22.1055 18.7081V16.5562C22.1055 16.4128 22.1624 16.2753 22.2638 16.1739C22.3652 16.0726 22.5027 16.0156 22.646 16.0156C22.7894 16.0156 22.9269 16.0726 23.0282 16.1739C23.1296 16.2753 23.1866 16.4128 23.1866 16.5562V18.7081C23.1866 18.8514 23.1296 18.9889 23.0282 19.0903C22.9269 19.1916 22.7894 19.2486 22.646 19.2486Z" fill="#002D64"/>
<path d="M19.3063 22.8345C17.3782 22.8345 15.4258 22.1561 15.4258 20.8594C15.4258 20.716 15.4827 20.5785 15.5841 20.4772C15.6855 20.3758 15.823 20.3188 15.9663 20.3188C16.1097 20.3188 16.2472 20.3758 16.3485 20.4772C16.4499 20.5785 16.5069 20.716 16.5069 20.8594C16.5069 21.1188 17.4879 21.7534 19.3063 21.7534C21.1247 21.7534 22.1058 21.1188 22.1058 20.8594C22.1058 20.716 22.1627 20.5785 22.2641 20.4772C22.3655 20.3758 22.503 20.3188 22.6463 20.3188C22.7897 20.3188 22.9272 20.3758 23.0285 20.4772C23.1299 20.5785 23.1869 20.716 23.1869 20.8594C23.1869 22.1561 21.2344 22.8345 19.3063 22.8345V22.8345Z" fill="#002D64"/>
<path d="M15.9663 21.3999C15.823 21.3999 15.6855 21.343 15.5841 21.2416C15.4827 21.1402 15.4258 21.0027 15.4258 20.8594V18.708C15.4258 18.5647 15.4827 18.4272 15.5841 18.3258C15.6855 18.2244 15.823 18.1675 15.9663 18.1675C16.1097 18.1675 16.2472 18.2244 16.3485 18.3258C16.4499 18.4272 16.5069 18.5647 16.5069 18.708V20.8594C16.5069 21.0027 16.4499 21.1402 16.3485 21.2416C16.2472 21.343 16.1097 21.3999 15.9663 21.3999Z" fill="#002D64"/>
<path d="M22.646 21.3999C22.5027 21.3999 22.3652 21.343 22.2638 21.2416C22.1624 21.1402 22.1055 21.0027 22.1055 20.8594V18.708C22.1055 18.5647 22.1624 18.4272 22.2638 18.3258C22.3652 18.2244 22.5027 18.1675 22.646 18.1675C22.7894 18.1675 22.9269 18.2244 23.0282 18.3258C23.1296 18.4272 23.1866 18.5647 23.1866 18.708V20.8594C23.1866 21.0027 23.1296 21.1402 23.0282 21.2416C22.9269 21.343 22.7894 21.3999 22.646 21.3999Z" fill="#002D64"/>
<path d="M19.3063 24.9864C17.3782 24.9864 15.4258 24.308 15.4258 23.0112C15.4258 22.8679 15.4827 22.7304 15.5841 22.629C15.6855 22.5277 15.823 22.4707 15.9663 22.4707C16.1097 22.4707 16.2472 22.5277 16.3485 22.629C16.4499 22.7304 16.5069 22.8679 16.5069 23.0112C16.5069 23.2707 17.4879 23.9053 19.3063 23.9053C21.1247 23.9053 22.1058 23.2707 22.1058 23.0112C22.1058 22.8679 22.1627 22.7304 22.2641 22.629C22.3655 22.5277 22.503 22.4707 22.6463 22.4707C22.7897 22.4707 22.9272 22.5277 23.0285 22.629C23.1299 22.7304 23.1869 22.8679 23.1869 23.0112C23.1869 24.308 21.2344 24.9864 19.3063 24.9864Z" fill="#002D64"/>
<path d="M15.9663 23.5518C15.823 23.5518 15.6855 23.4949 15.5841 23.3935C15.4827 23.2921 15.4258 23.1546 15.4258 23.0113V20.8594C15.4258 20.716 15.4827 20.5785 15.5841 20.4772C15.6855 20.3758 15.823 20.3188 15.9663 20.3188C16.1097 20.3188 16.2472 20.3758 16.3485 20.4772C16.4499 20.5785 16.5069 20.716 16.5069 20.8594V23.0113C16.5069 23.1546 16.4499 23.2921 16.3485 23.3935C16.2472 23.4949 16.1097 23.5518 15.9663 23.5518Z" fill="#002D64"/>
<path d="M22.646 23.5518C22.5027 23.5518 22.3652 23.4949 22.2638 23.3935C22.1624 23.2921 22.1055 23.1546 22.1055 23.0113V20.8594C22.1055 20.716 22.1624 20.5785 22.2638 20.4772C22.3652 20.3758 22.5027 20.3188 22.646 20.3188C22.7894 20.3188 22.9269 20.3758 23.0282 20.4772C23.1296 20.5785 23.1866 20.716 23.1866 20.8594V23.0113C23.1866 23.1546 23.1296 23.2921 23.0282 23.3935C22.9269 23.4949 22.7894 23.5518 22.646 23.5518Z" fill="#002D64"/>
</svg>
