<svg width="390" height="220" viewBox="0 0 390 220" fill="none" xmlns="http://www.w3.org/2000/svg">
<path d="M19.3318 219.255C19.3318 219.255 -13.3394 173.145 6.26389 129.268C25.8671 85.3912 63.1097 95.8008 115.373 51.1785C173.277 3.09312 220.192 -12.8606 276.839 10.8214C331.223 33.5571 317.289 86.1331 368.254 120.343C414.2 151.183 376.751 203.639 352.587 211.819C328.424 220 312.077 220 312.077 220L19.3318 219.255Z" fill="#E7F3FE"/>
<path d="M219.939 127.543C211.551 144.916 201.037 192.394 198.168 194.995C195.299 197.597 178.731 207.678 175.865 212.556C172.999 217.433 174.271 215.807 175.546 216.133C176.82 216.459 248.834 216.782 248.834 216.782C248.834 216.782 240.559 166.379 239.592 166.041C238.625 165.703 219.939 127.543 219.939 127.543Z" fill="#0E2549"/>
<path d="M208.016 216.55C221.252 216.644 235.199 216.717 242.882 216.758L232.362 152.554C226.751 141.454 219.94 127.543 219.94 127.543C218.884 129.734 217.79 132.403 216.685 135.398C215.595 183.619 222.4 197.133 217.29 205.725C213.299 212.438 209.659 215.431 208.016 216.55Z" fill="#1B2A43"/>
<path d="M357.536 220H11.7377C11.0303 220 10.3518 219.713 9.85158 219.203C9.35134 218.692 9.07031 218 9.07031 217.278C9.07031 216.556 9.35134 215.863 9.85158 215.353C10.3518 214.842 11.0303 214.556 11.7377 214.556H357.536C358.243 214.556 358.921 214.842 359.422 215.353C359.922 215.863 360.203 216.556 360.203 217.278C360.203 218 359.922 218.692 359.422 219.203C358.921 219.713 358.243 220 357.536 220Z" fill="#2E5B9A"/>
<path d="M264.094 106.573C276.056 117.841 302.678 128.524 302.678 128.524C302.678 128.524 306.723 166.667 303.964 188.262C301.205 209.857 302.735 214.239 302.735 214.239H247.839C247.839 214.239 240.473 203.805 226.984 171.365C218.394 150.704 219.931 127.543 219.931 127.543L253.361 112.206L264.094 106.573Z" fill="#0E2549"/>
<path d="M247.842 214.238H302.738C302.738 214.238 301.207 209.857 303.966 188.262C306.24 170.478 303.897 141.48 303 131.792L298.007 129.608C285.473 133.296 278.251 152.372 276.139 171.013C274.717 183.487 254.463 195.768 241.215 202.531C245.557 211.002 247.842 214.238 247.842 214.238Z" fill="#1B2A43"/>
<path d="M234.39 67.4235C227.771 82.4644 235.713 96.3983 235.475 95.8109C235.236 95.2236 245.491 70.4158 245.491 70.4158L234.39 67.4235Z" fill="#0E2549"/>
<path d="M259.462 78.5471L267.852 109.854C267.969 110.288 267.982 110.745 267.89 111.186C267.797 111.627 267.603 112.039 267.323 112.388C265.355 114.863 262.552 119.952 256.898 121.585C255.736 121.875 254.543 122.013 253.347 121.993C252.789 121.996 252.247 121.8 251.815 121.439C251.383 121.077 251.088 120.573 250.982 120.014L245.359 90.3226L259.462 78.5471Z" fill="#F09959"/>
<path d="M257.86 81.1752L254.792 82.4585L245.359 90.3225L250.421 116.646C259.008 111.184 260.26 107.498 257.86 81.1752Z" fill="#E38540"/>
<path d="M259.147 92.3958C257.289 102.694 249.738 109.66 242.28 107.959C234.821 106.259 231.265 99.5873 232.143 86.229C232.827 75.7456 237.897 64.3489 245.353 66.055C252.808 67.7612 261.003 82.0973 259.147 92.3958Z" fill="#F09959"/>
<path d="M302.682 128.524C313.789 131.085 315.852 154.107 319.466 178.389C319.88 181.185 322.012 204.839 322.012 204.839C322.008 206.2 321.627 207.532 320.915 208.682C320.202 209.833 319.186 210.755 317.984 211.343C314.353 213.196 312.885 214.594 291.854 214.811C271.654 215.02 245.613 214.162 245.613 214.162C245.613 214.162 245.383 206.492 247.455 202.742C250.571 197.107 282.505 189.011 285.48 188.579C285.906 182.509 282.548 160.544 287.181 145.653C290.366 135.407 293.799 130.042 298.083 128.641C299.577 128.177 301.167 128.136 302.682 128.524Z" fill="#0E2549"/>
<path d="M257.027 214.629C266.986 214.782 280.651 214.923 291.845 214.811C312.876 214.594 314.343 213.196 317.975 211.343C322.222 209.173 322.435 205.488 322.435 205.488C322.435 205.488 320.288 180.319 319.885 177.523C317.549 161.26 315.025 142.655 309.147 133.675C314.671 150.199 315.56 164.138 315.661 170.088C315.71 173.104 315.437 177.232 314.574 180.119C313.618 183.314 311.175 185.32 307.351 184.23C299.706 182.063 290.144 186.615 290.144 186.615C290.144 186.615 297.366 184.013 304.166 186.4C310.965 188.788 324.984 204.607 309.688 210.462C305.009 212.265 276.977 213.728 257.027 214.629Z" fill="#1B2A43"/>
<path d="M249.15 203.464C249.15 203.464 251.984 198.552 257.782 198.552C263.581 198.552 263.163 208.242 262.315 211.414C261.466 214.585 258.064 214.738 258.064 214.738L245.602 214.15L249.15 203.464Z" fill="#96CFE0"/>
<path d="M236.51 211.916H157.944C156.754 211.916 155.789 212.901 155.789 214.115V214.747C155.789 215.961 156.754 216.946 157.944 216.946H236.51C237.7 216.946 238.665 215.961 238.665 214.747V214.115C238.665 212.901 237.7 211.916 236.51 211.916Z" fill="#75A1DE"/>
<path d="M247.585 204.043C235.405 199.562 232.211 201.25 229.457 200.431C222.658 198.408 220.96 200.137 216.569 212.427C215.706 214.873 218.27 215.028 220.819 215.028C223.369 215.028 226.482 209.969 227.475 209.39C228.467 208.812 231.158 208.509 231.158 208.509C231.158 208.509 230.295 208.509 229.031 211.111C227.768 213.713 226.2 214.723 228.168 214.723C230.136 214.723 230.433 211.399 234.116 212.121C237.799 212.844 236.383 214.723 245.588 214.579C254.793 214.435 261.742 214.579 261.593 208.944C261.449 203.597 262.03 200.921 257.061 199.982C253.251 199.274 247.585 204.043 247.585 204.043Z" fill="#F09959"/>
<path d="M247.746 204.043C255.89 203.103 253.502 213.457 252.638 214.321C251.775 215.184 257.171 214.614 257.171 214.614C257.171 214.614 259.7 210.459 257.576 205.69C255.453 200.921 251.202 200.698 251.202 200.698L247.605 202.748L247.746 204.043Z" fill="#A86B48"/>
<path d="M256.252 203.141C256.149 204.425 254.011 205.291 251.481 205.074C248.952 204.856 246.984 203.643 247.09 202.36C247.197 201.077 249.332 200.214 251.861 200.428C254.391 200.642 256.359 201.867 256.252 203.141Z" fill="#2E5B9A"/>
<path d="M255.601 202.504C255.509 203.649 253.587 204.425 251.34 204.231C249.092 204.037 247.311 202.953 247.414 201.805C247.518 200.657 249.429 199.888 251.679 200.082C253.929 200.275 255.696 201.359 255.601 202.504Z" fill="#3E6BAB"/>
<path d="M254.193 201.973C254.126 202.798 252.754 203.356 251.125 203.215C249.496 203.074 248.233 202.296 248.299 201.471C248.366 200.645 249.738 200.09 251.37 200.228C253.001 200.366 254.262 201.147 254.193 201.973Z" fill="#F0CEB4"/>
<path d="M155.07 201.062H75.9403C73.9103 201.052 71.9484 200.314 70.3974 198.978C68.8463 197.641 67.8048 195.791 67.4547 193.75L57.1332 135.607C56.1578 130.124 60.2294 125.068 65.616 125.068H144.749C146.779 125.079 148.741 125.817 150.292 127.154C151.843 128.491 152.884 130.342 153.234 132.383L163.556 190.526C164.531 196.008 160.46 201.062 155.07 201.062Z" fill="#407BFF"/>
<path d="M158.77 190.743L148.232 133.798C147.467 129.649 143.824 126.636 139.574 126.636H59.1409C58.2683 127.666 57.6341 128.883 57.2855 130.197C56.9368 131.511 56.8825 132.888 57.1267 134.227L67.8135 193.598C68.1895 195.694 69.2744 197.59 70.8792 198.954C72.484 200.318 74.507 201.064 76.5955 201.062H150.114C155.607 201.062 159.762 196.114 158.77 190.743Z" fill="#8CB0FF"/>
<path d="M139.69 208.85H124.667C121.985 208.85 119.813 206.416 119.813 203.412V175.376C119.813 170.596 116.36 166.719 112.092 166.719H104.243C99.9782 166.719 96.5195 170.596 96.5195 175.376V206.771C96.5195 212.142 100.418 216.482 105.207 216.461L146.213 216.168C146.213 212.124 143.301 208.85 139.69 208.85Z" fill="#407BFF"/>
<path d="M97.1133 176.005V206.921C97.1136 209.328 98.0065 211.646 99.6126 213.408C101.219 215.171 103.419 216.248 105.772 216.423L145.791 216.168C145.791 215.498 142.626 214.28 138.736 214.28H122.481C121.791 214.28 121.108 214.141 120.47 213.871C119.833 213.601 119.254 213.206 118.767 212.708C118.279 212.209 117.893 211.618 117.629 210.967C117.366 210.316 117.231 209.619 117.232 208.915V176.005C117.232 173.746 116.353 171.58 114.788 169.983C113.223 168.386 111.101 167.489 108.888 167.489H105.467C104.37 167.488 103.284 167.707 102.271 168.135C101.257 168.562 100.336 169.189 99.5604 169.98C98.7846 170.771 98.1692 171.71 97.7493 172.744C97.3294 173.778 97.1133 174.886 97.1133 176.005Z" fill="#8CB0FF"/>
<path d="M180.877 205.288C186.919 201.858 194.314 203.003 196.99 206.43C199.666 209.857 200.138 212.145 194.09 212.145C188.042 212.145 175.962 212.603 173.948 212.374C171.934 212.145 180.877 205.288 180.877 205.288Z" fill="#F09959"/>
<path d="M189.84 203.229C196.337 201.632 200.775 205.488 206.193 209.173C210.898 212.374 211.842 215.487 206.642 212.832C199.025 208.944 194.556 208.489 194.556 208.489L189.84 203.229Z" fill="#F09959"/>
<path d="M183.92 205.267C180.64 205.267 177.776 204.199 175.46 204.386C173.144 204.574 165.811 212.265 166.971 212.855C167.058 212.9 167.147 212.939 167.239 212.973C168.09 213.283 169.02 213.286 169.873 212.981C170.727 212.676 171.451 212.081 171.926 211.296C172.965 209.596 174.654 207.62 176.62 208.327C178.788 209.056 181.059 209.416 183.342 209.393L183.92 205.267Z" fill="#F09959"/>
<path d="M182.001 213.516C178.639 212.145 184.015 200.716 185.808 200.716C187.6 200.716 194.319 206.201 194.319 206.201C194.319 206.201 192.74 207.112 187.376 205.288C186.032 204.83 184.913 212.603 183.347 213.51C181.782 214.418 182.001 213.516 182.001 213.516Z" fill="#F7A96F"/>
<path d="M232.145 92.2343C231.831 104.82 236.032 106.949 238.973 108.658C241.914 110.367 254.572 107.542 256.43 104.43C261.187 96.4658 257.184 89.0393 258.246 89.1597C259.308 89.2801 260.283 92.3723 263.057 96.3953C263.316 96.7683 265.118 99.2555 265.21 98.4274C266.499 87.157 272.248 83.6596 270.878 72.2599C269.871 63.8556 264.643 64.5222 264.643 64.5222C264.643 64.5222 261.27 57.4921 250.773 58.2909C243.741 58.8253 237.471 61.6209 230.223 63.5267C222.974 65.4325 238.8 82.2001 248.204 76.0716C257.607 69.943 252.963 83.4393 254.448 84.4877C255.933 85.536 255.162 84.6257 255.841 91.5354C256.52 98.445 247.928 102.95 245.465 103.54C237.589 105.431 236.274 104.104 234.547 101.079C233.051 98.445 232.145 92.2343 232.145 92.2343Z" fill="#0E2549"/>
<path d="M264.742 88.3376C263.838 91.509 261.631 93.5587 259.81 92.9127C257.988 92.2667 257.936 89.6825 258.149 86.003C258.345 82.6789 261.263 80.7819 263.081 81.4279C264.9 82.0739 265.645 85.1661 264.742 88.3376Z" fill="#F09959"/>
<path d="M92.6558 47.593H25.4213C24.6903 47.593 24.0977 48.1978 24.0977 48.9438V78.4707C24.0977 79.2167 24.6903 79.8215 25.4213 79.8215H92.6558C93.3868 79.8215 93.9795 79.2167 93.9795 78.4707V48.9438C93.9795 48.1978 93.3868 47.593 92.6558 47.593Z" fill="#B7E1FF"/>
<path d="M90.9979 56.0591H27.0782C26.4871 56.0591 26.0078 56.5482 26.0078 57.1515V77.2168C26.0078 77.8201 26.4871 78.3092 27.0782 78.3092H90.9979C91.5891 78.3092 92.0684 77.8201 92.0684 77.2168V57.1515C92.0684 56.5482 91.5891 56.0591 90.9979 56.0591Z" fill="white"/>
<path d="M29.1282 49.9628H27.5772C27.2498 49.9628 26.9844 50.2337 26.9844 50.5678V51.8716C26.9844 52.2057 27.2498 52.4765 27.5772 52.4765H29.1282C29.4556 52.4765 29.721 52.2057 29.721 51.8716V50.5678C29.721 50.2337 29.4556 49.9628 29.1282 49.9628Z" fill="white"/>
<path d="M34.1008 49.9628H32.5498C32.2224 49.9628 31.957 50.2337 31.957 50.5678V51.8716C31.957 52.2057 32.2224 52.4765 32.5498 52.4765H34.1008C34.4282 52.4765 34.6936 52.2057 34.6936 51.8716V50.5678C34.6936 50.2337 34.4282 49.9628 34.1008 49.9628Z" fill="white"/>
<path d="M39.0774 49.9628H37.5264C37.199 49.9628 36.9336 50.2337 36.9336 50.5678V51.8716C36.9336 52.2057 37.199 52.4765 37.5264 52.4765H39.0774C39.4048 52.4765 39.6702 52.2057 39.6702 51.8716V50.5678C39.6702 50.2337 39.4048 49.9628 39.0774 49.9628Z" fill="white"/>
<path d="M89.383 60.9367H54.4421C54.3001 60.9443 54.1581 60.9223 54.0248 60.8721C53.8914 60.8219 53.7694 60.7445 53.6663 60.6446C53.5632 60.5448 53.481 60.4245 53.4249 60.2912C53.3688 60.1579 53.3398 60.0143 53.3398 59.8693C53.3398 59.7242 53.3688 59.5806 53.4249 59.4473C53.481 59.314 53.5632 59.1937 53.6663 59.0939C53.7694 58.994 53.8914 58.9166 54.0248 58.8664C54.1581 58.8162 54.3001 58.7942 54.4421 58.8018H89.383C89.6509 58.8162 89.9032 58.9349 90.0879 59.1335C90.2726 59.3321 90.3755 59.5955 90.3755 59.8693C90.3755 60.1431 90.2726 60.4064 90.0879 60.605C89.9032 60.8036 89.6509 60.9223 89.383 60.9367Z" fill="#B7E1FF"/>
<path d="M63.1016 77.393H28.1578C27.8808 77.393 27.6151 77.2807 27.4192 77.0808C27.2233 76.8809 27.1133 76.6098 27.1133 76.3271C27.1133 76.0444 27.2233 75.7732 27.4192 75.5733C27.6151 75.3734 27.8808 75.2611 28.1578 75.2611H63.1016C63.3786 75.2611 63.6443 75.3734 63.8402 75.5733C64.036 75.7732 64.1461 76.0444 64.1461 76.3271C64.1461 76.6098 64.036 76.8809 63.8402 77.0808C63.6443 77.2807 63.3786 77.393 63.1016 77.393Z" fill="#B7E1FF"/>
<path d="M69.5365 75.2611H65.9193C65.7223 75.2611 65.5625 75.4241 65.5625 75.6252V77.0318C65.5625 77.2329 65.7223 77.396 65.9193 77.396H69.5365C69.7335 77.396 69.8933 77.2329 69.8933 77.0318V75.6252C69.8933 75.4241 69.7335 75.2611 69.5365 75.2611Z" fill="#B7E1FF"/>
<path d="M74.9857 75.2611H71.3685C71.1715 75.2611 71.0117 75.4241 71.0117 75.6252V77.0318C71.0117 77.2329 71.1715 77.396 71.3685 77.396H74.9857C75.1827 77.396 75.3425 77.2329 75.3425 77.0318V75.6252C75.3425 75.4241 75.1827 75.2611 74.9857 75.2611Z" fill="#B7E1FF"/>
<path d="M89.7163 65.5822H31.8536C31.7566 65.5885 31.6595 65.5745 31.568 65.541C31.4766 65.5075 31.3929 65.4552 31.3221 65.3873C31.2512 65.3195 31.1948 65.2376 31.1562 65.1466C31.1176 65.0556 31.0977 64.9575 31.0977 64.8584C31.0977 64.7592 31.1176 64.6612 31.1562 64.5702C31.1948 64.4792 31.2512 64.3973 31.3221 64.3294C31.3929 64.2616 31.4766 64.2093 31.568 64.1758C31.6595 64.1423 31.7566 64.1282 31.8536 64.1345H89.7163C89.8966 64.1463 90.0657 64.2276 90.1894 64.3621C90.313 64.4965 90.3818 64.674 90.3818 64.8584C90.3818 65.0428 90.313 65.2202 90.1894 65.3547C90.0657 65.4892 89.8966 65.5705 89.7163 65.5822Z" fill="#B7E1FF"/>
<path d="M89.7163 68.7068H31.8536C31.7566 68.7131 31.6595 68.699 31.568 68.6655C31.4766 68.632 31.3929 68.5797 31.3221 68.5118C31.2512 68.444 31.1948 68.3621 31.1562 68.2711C31.1176 68.1801 31.0977 68.082 31.0977 67.9829C31.0977 67.8838 31.1176 67.7857 31.1562 67.6947C31.1948 67.6037 31.2512 67.5218 31.3221 67.454C31.3929 67.3861 31.4766 67.3338 31.568 67.3003C31.6595 67.2668 31.7566 67.2527 31.8536 67.259H89.7163C89.8966 67.2708 90.0657 67.3521 90.1894 67.4866C90.313 67.6211 90.3818 67.7985 90.3818 67.9829C90.3818 68.1673 90.313 68.3447 90.1894 68.4792C90.0657 68.6137 89.8966 68.695 89.7163 68.7068Z" fill="#B7E1FF"/>
<path d="M41.2132 70.222H108.445C108.796 70.222 109.133 70.3643 109.381 70.6176C109.629 70.871 109.769 71.2145 109.769 71.5728V101.097C109.769 101.456 109.629 101.8 109.38 102.054C109.131 102.308 108.794 102.45 108.442 102.45H41.2132C41.039 102.45 40.8665 102.415 40.7056 102.347C40.5447 102.279 40.3984 102.18 40.2752 102.054C40.1521 101.928 40.0544 101.779 39.9877 101.615C39.921 101.451 39.8867 101.274 39.8867 101.097V71.5728C39.8875 71.2143 40.0276 70.8707 40.2763 70.6175C40.5249 70.3642 40.8619 70.222 41.2132 70.222Z" fill="#9EC8FF"/>
<path d="M106.791 78.688H42.8712C42.28 78.688 41.8008 79.1771 41.8008 79.7804V99.8458C41.8008 100.449 42.28 100.938 42.8712 100.938H106.791C107.382 100.938 107.861 100.449 107.861 99.8458V79.7804C107.861 79.1771 107.382 78.688 106.791 78.688Z" fill="white"/>
<path d="M44.9055 72.5918H43.3545C43.0271 72.5918 42.7617 72.8626 42.7617 73.1967V74.5005C42.7617 74.8346 43.0271 75.1055 43.3545 75.1055H44.9055C45.2329 75.1055 45.4983 74.8346 45.4983 74.5005V73.1967C45.4983 72.8626 45.2329 72.5918 44.9055 72.5918Z" fill="white"/>
<path d="M49.8899 72.5918H48.3389C48.0115 72.5918 47.7461 72.8626 47.7461 73.1967V74.5005C47.7461 74.8346 48.0115 75.1055 48.3389 75.1055H49.8899C50.2173 75.1055 50.4827 74.8346 50.4827 74.5005V73.1967C50.4827 72.8626 50.2173 72.5918 49.8899 72.5918Z" fill="white"/>
<path d="M54.8693 72.5918H53.3154C52.9881 72.5918 52.7227 72.8626 52.7227 73.1967V74.5005C52.7227 74.8346 52.9881 75.1055 53.3154 75.1055H54.8693C55.1967 75.1055 55.4621 74.8346 55.4621 74.5005V73.1967C55.4621 72.8626 55.1967 72.5918 54.8693 72.5918Z" fill="white"/>
<path d="M105.167 83.5657H70.223C69.9551 83.5513 69.7028 83.4326 69.5181 83.234C69.3334 83.0354 69.2305 82.772 69.2305 82.4982C69.2305 82.2244 69.3334 81.9611 69.5181 81.7625C69.7028 81.5639 69.9551 81.4451 70.223 81.4308H105.167C105.435 81.4451 105.687 81.5639 105.872 81.7625C106.056 81.9611 106.159 82.2244 106.159 82.4982C106.159 82.772 106.056 83.0354 105.872 83.234C105.687 83.4326 105.435 83.5513 105.167 83.5657Z" fill="#9EC8FF"/>
<path d="M78.8839 100.022H43.9429C43.6659 100.022 43.4003 99.9097 43.2044 99.7098C43.0085 99.5099 42.8984 99.2387 42.8984 98.956C42.8984 98.6733 43.0085 98.4022 43.2044 98.2023C43.4003 98.0024 43.6659 97.8901 43.9429 97.8901H78.8839C79.1609 97.8901 79.4266 98.0024 79.6224 98.2023C79.8183 98.4022 79.9284 98.6733 79.9284 98.956C79.9284 99.2387 79.8183 99.5099 79.6224 99.7098C79.4266 99.9097 79.1609 100.022 78.8839 100.022Z" fill="#9EC8FF"/>
<path d="M85.3294 97.8901H81.7123C81.5152 97.8901 81.3555 98.0531 81.3555 98.2542V99.6608C81.3555 99.8619 81.5152 100.025 81.7123 100.025H85.3294C85.5265 100.025 85.6862 99.8619 85.6862 99.6608V98.2542C85.6862 98.0531 85.5265 97.8901 85.3294 97.8901Z" fill="#9EC8FF"/>
<path d="M90.7786 97.8901H87.1615C86.9644 97.8901 86.8047 98.0531 86.8047 98.2542V99.6608C86.8047 99.8619 86.9644 100.025 87.1615 100.025H90.7786C90.9757 100.025 91.1355 99.8619 91.1355 99.6608V98.2542C91.1355 98.0531 90.9757 97.8901 90.7786 97.8901Z" fill="#9EC8FF"/>
<path d="M105.507 88.223H47.6414C47.4537 88.223 47.2737 88.1469 47.1409 88.0114C47.0082 87.8759 46.9336 87.6922 46.9336 87.5006C46.9336 87.309 47.0082 87.1253 47.1409 86.9898C47.2737 86.8543 47.4537 86.7782 47.6414 86.7782H105.507C105.695 86.7782 105.875 86.8543 106.008 86.9898C106.14 87.1253 106.215 87.309 106.215 87.5006C106.215 87.6922 106.14 87.8759 106.008 88.0114C105.875 88.1469 105.695 88.223 105.507 88.223Z" fill="#9EC8FF"/>
<path d="M105.508 91.3358H47.6421C47.4618 91.324 47.2926 91.2427 47.169 91.1082C47.0454 90.9738 46.9766 90.7963 46.9766 90.6119C46.9766 90.4275 47.0454 90.2501 47.169 90.1156C47.2926 89.9812 47.4618 89.8998 47.6421 89.8881H105.508C105.688 89.8998 105.857 89.9812 105.981 90.1156C106.104 90.2501 106.173 90.4275 106.173 90.6119C106.173 90.7963 106.104 90.9738 105.981 91.1082C105.857 91.2427 105.688 91.324 105.508 91.3358Z" fill="#9EC8FF"/>
<path d="M134.63 94.563C134.631 96.3945 134.099 98.185 133.103 99.708C132.106 101.231 130.689 102.418 129.031 103.119C127.373 103.821 125.548 104.004 123.788 103.647C122.028 103.29 120.411 102.408 119.142 101.113C117.873 99.8179 117.009 98.1678 116.659 96.3715C116.309 94.5752 116.488 92.7133 117.176 91.0213C117.863 89.3294 119.026 87.8833 120.518 86.8662C122.011 85.849 123.766 85.3064 125.56 85.307C127.966 85.3078 130.272 86.2832 131.973 88.0189C133.674 89.7545 134.63 92.1084 134.63 94.563Z" fill="#9CD499"/>
<path d="M124.664 97.984H124.638C124.544 97.9808 124.452 97.9581 124.368 97.9172C124.283 97.8762 124.207 97.818 124.146 97.7462L121.68 94.8889C121.559 94.7483 121.497 94.5645 121.509 94.3778C121.521 94.1911 121.605 94.0169 121.743 93.8934C121.881 93.77 122.061 93.7075 122.244 93.7196C122.427 93.7317 122.597 93.8175 122.718 93.958L124.701 96.2573L129.443 91.5178C129.508 91.453 129.585 91.4019 129.669 91.3673C129.753 91.3328 129.843 91.3155 129.934 91.3164C130.025 91.3174 130.114 91.3366 130.198 91.3729C130.281 91.4092 130.357 91.4619 130.42 91.5281C130.484 91.5942 130.534 91.6724 130.568 91.7583C130.602 91.8442 130.619 91.9361 130.618 92.0287C130.617 92.1212 130.598 92.2127 130.562 92.2979C130.527 92.383 130.475 92.4602 130.41 92.525L125.147 97.7843C125.018 97.9126 124.844 97.9842 124.664 97.984Z" fill="white"/>
<path d="M192.749 25.0463H135.07C133.586 25.0463 132.383 26.2743 132.383 27.789V48.8205C132.383 50.3353 133.586 51.5632 135.07 51.5632H192.749C194.233 51.5632 195.436 50.3353 195.436 48.8205V27.789C195.436 26.2743 194.233 25.0463 192.749 25.0463Z" fill="#9EC8FF"/>
<path d="M140 47.5607V62.1906L156.532 45.3319C156.532 45.3319 140.334 47.5607 140 47.5607Z" fill="#9EC8FF"/>
<path d="M189.896 27.6746H137.923C136.665 27.6746 135.645 28.7158 135.645 30.0003V46.6064C135.645 47.8909 136.665 48.9321 137.923 48.9321H189.896C191.155 48.9321 192.175 47.8909 192.175 46.6064V30.0003C192.175 28.7158 191.155 27.6746 189.896 27.6746Z" fill="white"/>
<path d="M166.431 32.9309H140.897C140.6 32.9309 140.315 32.8106 140.105 32.5964C139.895 32.3821 139.777 32.0916 139.777 31.7886C139.777 31.4857 139.895 31.1951 140.105 30.9809C140.315 30.7667 140.6 30.6463 140.897 30.6463H166.431C166.728 30.6463 167.013 30.7667 167.223 30.9809C167.433 31.1951 167.551 31.4857 167.551 31.7886C167.551 32.0916 167.433 32.3821 167.223 32.5964C167.013 32.8106 166.728 32.9309 166.431 32.9309Z" fill="#9EC8FF"/>
<path d="M187.762 36.0172H140.399C140.056 36.0172 139.777 36.3012 139.777 36.6515V36.6662C139.777 37.0165 140.056 37.3005 140.399 37.3005H187.762C188.105 37.3005 188.383 37.0165 188.383 36.6662V36.6515C188.383 36.3012 188.105 36.0172 187.762 36.0172Z" fill="#9EC8FF"/>
<path d="M187.762 38.5045H140.399C140.056 38.5045 139.777 38.7885 139.777 39.1388V39.1535C139.777 39.5038 140.056 39.7878 140.399 39.7878H187.762C188.105 39.7878 188.383 39.5038 188.383 39.1535V39.1388C188.383 38.7885 188.105 38.5045 187.762 38.5045Z" fill="#9EC8FF"/>
<path d="M177.972 45.5051H176.421C176.094 45.5051 175.828 45.776 175.828 46.1101V47.4139C175.828 47.748 176.094 48.0188 176.421 48.0188H177.972C178.299 48.0188 178.565 47.748 178.565 47.4139V46.1101C178.565 45.776 178.299 45.5051 177.972 45.5051Z" fill="#9EC8FF"/>
<path d="M182.945 45.5051H181.394C181.066 45.5051 180.801 45.776 180.801 46.1101V47.4139C180.801 47.748 181.066 48.0188 181.394 48.0188H182.945C183.272 48.0188 183.537 47.748 183.537 47.4139V46.1101C183.537 45.776 183.272 45.5051 182.945 45.5051Z" fill="#9EC8FF"/>
<path d="M187.929 45.5051H186.378C186.051 45.5051 185.785 45.776 185.785 46.1101V47.4139C185.785 47.748 186.051 48.0188 186.378 48.0188H187.929C188.256 48.0188 188.522 47.748 188.522 47.4139V46.1101C188.522 45.776 188.256 45.5051 187.929 45.5051Z" fill="#9EC8FF"/>
</svg>
