<svg width="412" height="276" viewBox="0 0 412 276" fill="none" xmlns="http://www.w3.org/2000/svg">
<g clip-path="url(#clip0)">
<path d="M6.98438 275.508C6.98438 275.508 44.4069 117.263 86.2746 103.951C128.142 90.6379 139.022 118.967 158.897 117.142C178.772 115.317 245.467 59.4903 269.287 37.3511C309.861 -0.373108 423.723 -22.2515 399.973 35.1035C380.088 83.1084 309.294 159.063 319.671 179.907C321.689 183.953 364.813 156.278 376.451 159.89C428.621 176.073 358.89 275.685 358.89 275.685L6.98438 275.508Z" fill="#D7E9F4"/>
<path d="M411.663 54.9253H371.773V40.527H382.283C382.372 40.527 382.458 40.4915 382.521 40.4283C382.584 40.365 382.619 40.2793 382.619 40.1899C382.619 40.1005 382.584 40.0147 382.521 39.9515C382.458 39.8882 382.372 39.8527 382.283 39.8527H357.868V26.2973H394.618C394.707 26.2973 394.793 26.2618 394.856 26.1985C394.919 26.1353 394.954 26.0495 394.954 25.9601C394.954 25.8707 394.919 25.785 394.856 25.7217C394.793 25.6585 394.707 25.623 394.618 25.623H324.196C324.106 25.623 324.021 25.6585 323.958 25.7217C323.895 25.785 323.859 25.8707 323.859 25.9601C323.859 26.0495 323.895 26.1353 323.958 26.1985C324.021 26.2618 324.106 26.2973 324.196 26.2973H331.702V39.855H311.856C311.767 39.855 311.681 39.8905 311.618 39.9537C311.555 40.0169 311.52 40.1027 311.52 40.1921C311.52 40.2815 311.555 40.3673 311.618 40.4305C311.681 40.4937 311.767 40.5293 311.856 40.5293H347.327V54.9276H341.236C341.147 54.9276 341.061 54.9631 340.998 55.0263C340.935 55.0896 340.9 55.1753 340.9 55.2647C340.9 55.3541 340.935 55.4399 340.998 55.5031C341.061 55.5663 341.147 55.6019 341.236 55.6019H411.658C411.748 55.6019 411.833 55.5663 411.896 55.5031C411.959 55.4399 411.995 55.3541 411.995 55.2647C411.995 55.1753 411.959 55.0896 411.896 55.0263C411.833 54.9631 411.748 54.9276 411.658 54.9276L411.663 54.9253ZM332.375 39.8527V26.2973H357.195V39.855L332.375 39.8527ZM371.1 54.9253H348V40.527H371.1V54.9253Z" fill="white"/>
<path d="M79.6163 228.874H59.7747V215.323H67.2812C67.3704 215.323 67.456 215.287 67.5191 215.224C67.5822 215.161 67.6176 215.075 67.6176 214.986C67.6176 214.896 67.5822 214.811 67.5191 214.747C67.456 214.684 67.3704 214.649 67.2812 214.649H20.9684C20.8792 214.649 20.7936 214.684 20.7305 214.747C20.6674 214.811 20.632 214.896 20.632 214.986C20.632 215.075 20.6674 215.161 20.7305 215.224C20.7936 215.287 20.8792 215.323 20.9684 215.323H33.6086V228.881H9.19398C9.10475 228.881 9.01918 228.916 8.9561 228.979C8.89301 229.043 8.85756 229.128 8.85756 229.218C8.85756 229.307 8.89301 229.393 8.9561 229.456C9.01918 229.519 9.10475 229.555 9.19398 229.555H19.7035V243.953H8.63329C8.54407 243.953 8.4585 243.989 8.39541 244.052C8.33232 244.115 8.29688 244.201 8.29688 244.29C8.29688 244.38 8.33232 244.466 8.39541 244.529C8.4585 244.592 8.54407 244.628 8.63329 244.628H50.2363C50.3255 244.628 50.4111 244.592 50.4742 244.529C50.5373 244.466 50.5727 244.38 50.5727 244.29C50.5727 244.201 50.5373 244.115 50.4742 244.052C50.4111 243.989 50.3255 243.953 50.2363 243.953H44.1495V229.555H79.6163C79.7056 229.555 79.7911 229.519 79.8542 229.456C79.9173 229.393 79.9528 229.307 79.9528 229.218C79.9528 229.128 79.9173 229.043 79.8542 228.979C79.7911 228.916 79.7056 228.881 79.6163 228.881V228.874ZM43.4722 243.947H20.3718V229.548H43.4722V243.947ZM34.2769 228.874V215.323H59.1019V228.881L34.2769 228.874Z" fill="white"/>
<path d="M238.445 259.887L238.432 266.947H228.673L227.859 260.249L238.445 259.887Z" fill="white"/>
<path d="M238.795 267.313H228.346L227.449 259.896L238.811 259.509L238.795 267.313ZM228.994 266.58H238.066V260.264L228.257 260.599L228.994 266.58Z" fill="#0E2549"/>
<path d="M238.966 266.52C238.966 266.52 253.07 271.015 253.557 274.705H228.266V266.52H238.966Z" fill="#A1C5E2"/>
<path d="M199.103 260.04L198.836 267.183H189.078L188.613 259.887L199.103 260.04Z" fill="white"/>
<path d="M199.185 267.549H188.732L188.223 259.516L199.479 259.68L199.185 267.549ZM189.416 266.816H198.481L198.719 260.402L188.999 260.258L189.416 266.816Z" fill="#0E2549"/>
<path d="M199.381 266.756C199.381 266.756 213.486 271.251 213.972 274.941H188.672V266.756H199.381Z" fill="#A1C5E2"/>
<path d="M214.883 273.537V275.661H188.008V273.231L214.883 273.537Z" fill="#0E2549"/>
<path d="M227.477 273.159V275.425H254.351V272.995L227.477 273.159Z" fill="#0E2549"/>
<path d="M202.337 261.339H186.804L185.48 136.566L230.255 144.314L240.912 261.339H225.958L210.305 183.589L212.097 166.54L202.337 261.339Z" fill="#0E2549"/>
<path d="M191.775 258.961C191.678 258.958 191.587 258.917 191.52 258.847C191.453 258.777 191.417 258.684 191.418 258.588L193.712 155.246C193.716 155.15 193.757 155.058 193.826 154.992C193.896 154.925 193.988 154.888 194.085 154.889C194.133 154.89 194.18 154.9 194.224 154.919C194.268 154.938 194.307 154.966 194.34 155.001C194.374 155.036 194.4 155.076 194.417 155.121C194.434 155.166 194.442 155.214 194.441 155.262L192.149 258.603C192.146 258.7 192.105 258.792 192.035 258.859C191.965 258.926 191.871 258.962 191.775 258.961Z" fill="#A1C5E2"/>
<path d="M229.482 258.531L213.559 167.831C213.549 167.779 213.529 167.73 213.499 167.687C213.469 167.644 213.431 167.608 213.386 167.581L214.252 162.456V162.427V152.2C214.256 152.15 214.249 152.099 214.233 152.052C214.216 152.004 214.19 151.96 214.156 151.923C214.121 151.886 214.08 151.856 214.034 151.836C213.988 151.816 213.938 151.805 213.887 151.805C213.837 151.805 213.787 151.816 213.741 151.836C213.695 151.856 213.653 151.886 213.619 151.923C213.585 151.96 213.558 152.004 213.542 152.052C213.525 152.099 213.519 152.15 213.523 152.2V162.367L209.934 183.528C209.919 183.624 209.942 183.722 209.998 183.8C210.054 183.879 210.14 183.932 210.235 183.948H210.296C210.382 183.948 210.465 183.917 210.531 183.861C210.596 183.805 210.64 183.728 210.654 183.643L213.072 169.348L228.762 258.657C228.777 258.742 228.822 258.818 228.887 258.874C228.953 258.929 229.035 258.96 229.121 258.961C229.142 258.963 229.163 258.963 229.184 258.961C229.232 258.953 229.278 258.936 229.32 258.91C229.361 258.884 229.397 258.85 229.425 258.81C229.453 258.77 229.472 258.724 229.482 258.677C229.492 258.629 229.492 258.579 229.482 258.531Z" fill="#A1C5E2"/>
<path d="M218.977 152.201C218.977 152.201 218.829 162.54 217.035 162.868H199.878C199.317 162.326 198.42 159.24 203.803 159.128C209.185 159.015 210.784 159.128 210.784 159.128L210.531 152.201H218.977Z" fill="white"/>
<path d="M217.064 163.178H199.749L199.66 163.09C199.274 162.717 198.929 161.713 199.287 160.798C199.626 159.928 200.685 158.878 203.795 158.813C207.846 158.728 209.75 158.77 210.461 158.797L210.205 151.886H219.295V152.203C219.259 154.686 218.995 162.816 217.095 163.173L217.064 163.178ZM200.019 162.551H216.994C217.914 162.297 218.564 157.228 218.654 152.511H210.849L211.105 159.463L210.759 159.438C210.743 159.438 209.097 159.328 203.807 159.438C201.039 159.496 200.137 160.337 199.866 161.027C199.776 161.277 199.743 161.544 199.77 161.808C199.797 162.072 199.884 162.327 200.023 162.553L200.019 162.551Z" fill="#0E2549"/>
<path d="M239.772 69.5642C239.772 69.5642 235.629 80.7439 236.208 82.2565C236.787 83.7692 236.881 89.613 236.881 89.613L225.642 111.258L207.207 104.371L211.143 84.6278C211.143 84.6278 221.657 79.883 222.563 78.5749C223.817 76.7633 226.667 66.0556 226.667 66.0556L239.772 69.5642Z" fill="white"/>
<path d="M225.811 111.707L206.812 104.607L210.849 84.4007L211.013 84.3266C215.203 82.4363 221.666 79.2941 222.29 78.3928C223.496 76.6509 226.315 66.0893 226.345 65.9814C226.368 65.892 226.427 65.8157 226.507 65.7693C226.586 65.723 226.681 65.7103 226.771 65.7342C226.86 65.758 226.936 65.8164 226.982 65.8965C227.029 65.9766 227.041 66.0718 227.017 66.1612C226.901 66.5995 224.138 76.9498 222.864 78.7884C221.967 80.0853 213.11 84.14 211.464 84.8862L207.606 104.155L225.479 110.833L236.538 89.5298C236.522 88.7993 236.401 83.7219 235.887 82.3801C235.293 80.8248 238.751 71.3308 239.449 69.4428C239.481 69.3566 239.545 69.2867 239.629 69.2483C239.712 69.21 239.807 69.2063 239.893 69.2382C239.979 69.2701 240.049 69.3349 240.087 69.4184C240.125 69.5018 240.129 69.5971 240.097 69.6833C238.514 73.9537 236.145 81.1192 236.533 82.1329C237.128 83.686 237.226 89.3658 237.231 89.6063V89.6939L237.191 89.7726L225.811 111.707Z" fill="#0E2549"/>
<path d="M244.237 45.8989C246.479 46.9283 251.959 49.3557 250.568 53.5251C248.98 58.2788 246.136 64.1249 244.584 67.1839C244.288 67.7669 243.793 68.2239 243.188 68.4714C242.584 68.719 241.911 68.7406 241.292 68.5325L226.968 63.7315C226.334 63.5174 225.801 63.0774 225.47 62.4951C225.139 61.9128 225.034 61.2289 225.173 60.5736C226.144 55.9975 228.28 46.3349 229.271 45.101C232.635 40.9069 240.684 44.2783 244.237 45.8989Z" fill="#0E2549"/>
<path d="M227.035 67.2041C226.53 66.1388 227.284 62.8482 228.41 59.1824C228.426 59.1311 228.429 59.0766 228.418 59.0239C228.408 58.9712 228.384 58.9221 228.349 58.8812C227.596 58.0046 226.636 56.3458 227.277 54.5567C227.833 53.0059 228.847 53.7116 229.567 54.5118C229.597 54.544 229.635 54.5678 229.677 54.5807C229.72 54.5937 229.764 54.5954 229.808 54.5856C229.851 54.5758 229.89 54.555 229.923 54.5251C229.955 54.4952 229.98 54.4573 229.993 54.4151C231.527 50.0547 233.05 46.2899 233.05 46.2899L250.068 52.0079C250.068 52.0079 248.722 55.9053 247.103 60.2342C247.029 60.4298 242.822 70.6453 242.097 71.4544C241.651 71.9135 241.073 72.2222 240.444 72.3377C240.444 72.3377 239.051 72.8659 232.864 70.7914L227.035 67.2041Z" fill="white"/>
<path d="M239.839 72.7445C238.886 72.7445 236.845 72.4906 232.759 71.1195C232.716 71.1047 232.676 71.0816 232.641 71.0514C232.607 71.0212 232.579 70.9846 232.559 70.9436C232.539 70.9026 232.527 70.858 232.524 70.8124C232.521 70.7668 232.528 70.7211 232.542 70.6778C232.557 70.6346 232.58 70.5947 232.61 70.5604C232.64 70.5261 232.677 70.4981 232.718 70.4779C232.759 70.4578 232.803 70.4459 232.849 70.443C232.894 70.4401 232.94 70.4462 232.983 70.4609C238.841 72.4254 240.326 72.0118 240.341 72.0073H240.375C240.934 71.9072 241.449 71.6363 241.849 71.2319C242.501 70.5036 246.632 60.5264 246.783 60.1196C248.128 56.5661 249.272 53.2688 249.631 52.2349L233.259 46.7417C232.869 47.7217 231.595 50.947 230.33 54.5455C230.296 54.6452 230.236 54.7343 230.158 54.8044C230.079 54.8745 229.984 54.9231 229.881 54.9456C229.781 54.9656 229.677 54.9589 229.579 54.9262C229.482 54.8935 229.395 54.8358 229.327 54.759C228.85 54.2263 228.419 53.9499 228.148 54.006C227.876 54.0622 227.724 54.4039 227.623 54.6803C226.981 56.4784 228.114 58.0518 228.63 58.6609C228.702 58.7469 228.752 58.8498 228.775 58.9601C228.798 59.0704 228.793 59.1847 228.76 59.2925C227.024 64.9453 227.143 66.586 227.367 67.0625C227.39 67.1042 227.403 67.15 227.407 67.1971C227.412 67.2443 227.406 67.2918 227.391 67.3367C227.377 67.3816 227.353 67.4231 227.321 67.4586C227.29 67.494 227.252 67.5227 227.209 67.5429C227.167 67.5631 227.12 67.5743 227.073 67.5759C227.026 67.5776 226.979 67.5695 226.935 67.5524C226.891 67.5352 226.851 67.5092 226.817 67.476C226.784 67.4428 226.757 67.403 226.739 67.3592C226.257 66.341 226.699 63.6394 228.085 59.1037C227.484 58.4002 226.203 56.5661 226.963 54.4466C227.201 53.7723 227.553 53.4037 228.009 53.3228C228.52 53.2216 229.099 53.5093 229.729 54.1724C231.231 49.9154 232.727 46.2135 232.743 46.1753L232.864 45.8741L250.515 51.7899L250.402 52.1203C250.389 52.1607 249.043 56.0739 247.433 60.3579C247.395 60.4567 243.172 70.7913 242.36 71.6881C241.871 72.1983 241.235 72.5424 240.541 72.6726C240.312 72.7292 240.075 72.7534 239.839 72.7445Z" fill="#0E2549"/>
<path d="M237.486 58.8115C237.409 58.8135 237.333 58.7997 237.262 58.771C237.189 58.7427 237.124 58.7005 237.068 58.6466C237.012 58.5928 236.967 58.5284 236.936 58.4572C236.905 58.386 236.888 58.3094 236.887 58.2318C236.885 58.1541 236.899 58.0769 236.928 58.0046L237.062 57.6585C237.09 57.5862 237.133 57.5201 237.186 57.4642C237.24 57.4082 237.304 57.3634 237.375 57.3323C237.446 57.3012 237.523 57.2844 237.6 57.2829C237.678 57.2814 237.755 57.2952 237.827 57.3236C237.899 57.3519 237.965 57.3942 238.021 57.4481C238.077 57.5019 238.121 57.5663 238.152 57.6374C238.183 57.7086 238.2 57.7852 238.202 57.8629C238.203 57.9405 238.189 58.0177 238.161 58.09L238.026 58.4361C237.984 58.5456 237.91 58.6398 237.813 58.7067C237.717 58.7736 237.603 58.8101 237.486 58.8115Z" fill="#0E2549"/>
<path d="M244.564 61.4997C244.498 61.4996 244.433 61.4882 244.371 61.466C244.297 61.4407 244.23 61.4011 244.172 61.3496C244.113 61.298 244.066 61.2355 244.032 61.1655C243.998 61.0956 243.978 61.0196 243.974 60.9419C243.969 60.8643 243.98 60.7865 244.005 60.713L244.149 60.2994C244.2 60.1504 244.308 60.0278 244.449 59.9587C244.591 59.8896 244.754 59.8796 244.902 59.9308C245.051 59.9821 245.173 60.0904 245.242 60.2321C245.311 60.3737 245.321 60.537 245.27 60.686L245.127 61.0996C245.087 61.2173 245.011 61.3193 244.91 61.3912C244.809 61.463 244.688 61.501 244.564 61.4997Z" fill="#0E2549"/>
<path d="M234.912 55.2602C234.819 55.2596 234.728 55.2317 234.651 55.18C234.574 55.1283 234.514 55.055 234.478 54.9692C234.442 54.8835 234.432 54.7891 234.45 54.6978C234.467 54.6065 234.511 54.5222 234.575 54.4556C236.369 52.6327 239.366 53.606 239.493 53.6487C239.607 53.6925 239.699 53.7785 239.751 53.8888C239.803 53.999 239.811 54.1251 239.772 54.2408C239.734 54.3565 239.652 54.4529 239.545 54.51C239.438 54.5672 239.312 54.5807 239.195 54.5477C239.168 54.5477 236.625 53.7183 235.248 55.1186C235.204 55.1634 235.152 55.1989 235.094 55.2232C235.036 55.2475 234.974 55.2601 234.912 55.2602Z" fill="#0E2549"/>
<path d="M240.647 63.8642C240.471 63.8644 240.296 63.8546 240.122 63.8349C240.07 63.8294 240.02 63.8136 239.974 63.7885C239.929 63.7634 239.889 63.7295 239.856 63.6888C239.824 63.648 239.799 63.6012 239.785 63.5511C239.771 63.501 239.766 63.4485 239.772 63.3967C239.778 63.3438 239.794 63.2926 239.82 63.246C239.846 63.1995 239.881 63.1586 239.922 63.1258C239.964 63.0929 240.012 63.0687 240.063 63.0547C240.114 63.0406 240.168 63.0369 240.221 63.0438C240.837 63.1112 241.452 63.0101 241.524 62.8797C241.625 62.6549 241.786 61.2299 241.914 60.0882C242.158 57.9057 242.324 56.5526 242.562 56.1368C242.626 56.0272 242.714 55.9337 242.819 55.8636C242.924 55.7934 243.044 55.7485 243.17 55.7323C244.35 55.5457 246.467 57.4157 246.882 57.7933C246.92 57.8286 246.952 57.8711 246.974 57.9185C246.996 57.9659 247.009 58.0172 247.011 58.0695C247.013 58.1218 247.005 58.174 246.988 58.2232C246.97 58.2725 246.943 58.3177 246.907 58.3564C246.872 58.395 246.83 58.4264 246.783 58.4486C246.735 58.4708 246.684 58.4835 246.632 58.4859C246.58 58.4883 246.528 58.4804 246.478 58.4626C246.429 58.4448 246.384 58.4175 246.346 58.3822C244.583 56.7774 243.419 56.4065 243.255 56.5302C243.08 56.8403 242.854 58.8497 242.703 60.1781C242.479 62.1515 242.376 62.9831 242.219 63.264C241.941 63.7653 241.201 63.8642 240.647 63.8642Z" fill="#0E2549"/>
<path d="M245.787 52.6485C248.03 53.2554 252.45 53.7948 253.455 49.3085C254.459 44.8223 253.094 46.1169 253.094 46.1169C253.094 46.1169 251.871 46.7912 251.524 46.7125C251.176 46.6338 251.795 47.1148 251.824 43.1163C251.824 43.1163 248.765 41.4238 246.688 43.0152C244.612 44.6065 243.977 43.1298 243.786 41.9251C243.623 40.9001 241.878 41.5857 241.319 42.3926C240.485 43.2309 235.654 41.0597 233.918 41.3182C231.189 41.7295 230.215 41.9633 229.255 45.0897C229.069 45.6921 228.094 51.8169 228.094 51.8169L231.987 46.3327C231.987 46.3327 242.129 51.655 245.787 52.6485Z" fill="#0E2549"/>
<path d="M241.222 66.3051C241.339 66.5995 240.883 67.4918 240.065 67.1344C237.966 66.2197 236.568 63.9608 237.042 64.2687C237.225 64.3901 238.477 65.2195 239.345 65.6623C240.527 66.2511 241.096 65.9612 241.222 66.3051Z" fill="#0E2549"/>
<path d="M223.058 79.002C223.058 79.002 237.239 84.0254 237.797 84.0591C238.356 84.0928 228.972 148.429 228.972 148.429L199.168 138.838L223.058 79.002Z" fill="#DC7878"/>
<path d="M203.299 155.284C203.203 155.284 203.111 155.246 203.043 155.178C202.976 155.11 202.938 155.018 202.938 154.922V102.224C202.938 102.128 202.976 102.036 203.043 101.969C203.111 101.901 203.203 101.863 203.299 101.863C203.394 101.863 203.486 101.901 203.554 101.969C203.622 102.036 203.66 102.128 203.66 102.224V154.922C203.66 155.018 203.622 155.11 203.554 155.178C203.486 155.246 203.394 155.284 203.299 155.284Z" fill="#0E2549"/>
<path d="M244.117 113.492C245.187 115.402 268.379 98.3451 268.722 97.0459C269.514 94.0678 267.601 91.3077 267.825 90.4289C268.164 89.0489 271.019 93.3868 271.638 94.6477C271.743 94.8612 271.911 94.8725 272.12 94.7623C274.621 93.3621 281.237 89.3478 281.584 90.7458C281.901 92.027 275.289 95.1961 275.341 95.5108C275.48 96.3379 276.085 99.3722 272.761 100.716C270.615 101.584 264.797 122.294 253.595 120.116C242.392 117.938 243.047 111.584 244.117 113.492Z" fill="white"/>
<path d="M255.257 120.644C254.675 120.644 254.093 120.586 253.521 120.473C245.223 118.852 243.259 114.951 243.205 113.584C243.178 112.982 243.485 112.829 243.617 112.793C243.783 112.746 244.104 112.748 244.414 113.276C244.974 113.409 248.164 112.029 256.803 105.949C262.923 101.642 268.03 97.5831 268.375 96.9358C268.855 95.1062 268.259 93.3576 267.824 92.0787C267.561 91.3077 267.375 90.7526 267.471 90.3412C267.491 90.2034 267.555 90.0757 267.654 89.9779C267.753 89.88 267.881 89.8174 268.019 89.7996H268.075C269.304 89.7996 271.679 93.9734 271.941 94.4454L273.033 93.8228C277.743 91.1257 280.504 89.7389 281.518 90.1727C281.621 90.2148 281.713 90.281 281.785 90.3659C281.858 90.4507 281.909 90.5517 281.935 90.6604C282.173 91.6134 280.502 92.7934 277.129 94.7736C276.579 95.095 275.969 95.4479 275.729 95.6299C276.146 98.3024 275.195 100.125 272.897 101.058C272.448 101.242 271.45 103.218 270.49 105.126C267.521 111.033 262.694 120.644 255.257 120.644ZM243.981 113.874C244.053 114.139 244.158 114.394 244.293 114.634C244.891 115.742 247.006 118.455 253.661 119.756C261.548 121.298 266.738 110.968 269.837 104.796C271.239 102.006 271.941 100.653 272.623 100.377C275.586 99.1789 275.137 96.5155 274.989 95.6389L274.978 95.5692C274.92 95.2186 275.128 95.0972 276.756 94.142C277.714 93.5778 278.907 92.8788 279.838 92.2113C281.282 91.1774 281.226 90.838 281.226 90.8335C281.226 90.829 280.755 90.6087 278.178 91.8539C276.586 92.6293 274.74 93.6835 273.394 94.4544C272.977 94.6949 272.605 94.9039 272.293 95.0815C272.207 95.1367 272.109 95.1732 272.008 95.1886C271.906 95.2041 271.803 95.1983 271.703 95.1714C271.616 95.1413 271.535 95.0935 271.467 95.0308C271.399 94.9682 271.344 94.8921 271.306 94.8073C270.674 93.5171 268.824 90.8852 268.167 90.5593C268.149 90.784 268.33 91.3257 268.508 91.8427C268.956 93.1373 269.613 95.0905 269.07 97.1403C268.806 98.1315 261.062 103.814 258.101 105.92C254.824 108.25 246.955 113.703 244.66 113.993C244.427 114.04 244.184 113.998 243.981 113.874Z" fill="#0E2549"/>
<path d="M175.812 142.327C175.812 142.327 194.77 83.7332 202.726 78.4063C210.681 73.0794 213.204 73.9538 219.703 74.0032C226.203 74.0527 226.295 90.9953 224.225 96.7717C221.583 104.108 207.879 149.562 207.879 149.562L175.812 142.327Z" fill="#A1C5E2"/>
<path d="M222.676 152.9C222.676 152.9 229.404 106.646 232.165 97.2684C233.892 91.3819 235.513 78.9592 238.909 80.0381C246.24 82.3666 250.459 108.612 250.459 108.612L265.158 96.5469L273.981 109.149C273.981 109.149 259.569 133.199 248.638 133.093C243.818 133.044 238.077 119.922 238.077 119.922L233.816 155.41L222.676 152.9Z" fill="#A1C5E2"/>
<path d="M204.593 100.496L203.301 156.705L219.7 156.932L220.606 96.6054L204.593 100.496Z" fill="#A1C5E2"/>
<path d="M220.085 157.334L202.898 157.096L204.199 100.492C204.2 100.44 204.211 100.389 204.231 100.341C204.252 100.294 204.282 100.251 204.319 100.215C204.357 100.18 204.401 100.152 204.449 100.134C204.498 100.116 204.549 100.107 204.601 100.109C204.704 100.112 204.803 100.155 204.875 100.23C204.947 100.305 204.986 100.406 204.984 100.51L203.701 156.32L219.313 156.545L220.21 96.6121C220.212 96.509 220.254 96.4107 220.328 96.3383C220.401 96.266 220.5 96.2255 220.603 96.2255C220.707 96.2279 220.805 96.2712 220.878 96.3461C220.95 96.421 220.99 96.5215 220.988 96.6256L220.085 157.334Z" fill="#0E2549"/>
<path d="M237.957 118.084H237.906C237.854 118.077 237.804 118.06 237.758 118.034C237.713 118.008 237.673 117.972 237.642 117.931C237.61 117.889 237.587 117.841 237.574 117.79C237.562 117.739 237.559 117.686 237.567 117.634L239.796 100.309C239.813 100.209 239.867 100.119 239.949 100.058C240.03 99.9967 240.132 99.9698 240.233 99.9826C240.334 99.9954 240.426 100.047 240.489 100.126C240.553 100.206 240.584 100.307 240.574 100.408L238.345 117.735C238.334 117.831 238.289 117.919 238.217 117.983C238.146 118.048 238.053 118.083 237.957 118.084Z" fill="#0E2549"/>
<path d="M113.374 217.029H73.3139C70.7318 217.029 68.2555 216.001 66.4297 214.171C64.6039 212.341 63.5781 209.86 63.5781 207.272V124.759C63.5781 122.171 64.6038 119.689 66.4295 117.859C68.2553 116.029 70.7316 115.001 73.3139 115H105.105C107.686 115.003 110.16 116.032 111.983 117.862C113.807 119.692 114.832 122.173 114.832 124.759V199.425L123.101 207.272C123.101 209.858 122.077 212.339 120.253 214.169C118.429 215.998 115.955 217.027 113.374 217.029Z" fill="#A1C5E2"/>
<path d="M113.372 217.422H73.3119C70.6266 217.419 68.0521 216.349 66.1534 214.446C64.2546 212.543 63.1866 209.963 63.1836 207.272V124.759C63.186 122.068 64.2537 119.487 66.1526 117.584C68.0514 115.68 70.6262 114.61 73.3119 114.607H105.103C107.788 114.61 110.363 115.68 112.262 117.584C114.161 119.487 115.229 122.068 115.231 124.759V199.257L123.5 207.103V207.272C123.497 209.963 122.429 212.543 120.53 214.446C118.632 216.349 116.057 217.419 113.372 217.422ZM73.3119 115.393C70.8344 115.396 68.4593 116.384 66.7076 118.14C64.956 119.896 63.9709 122.276 63.9686 124.759V207.272C63.9715 209.754 64.9569 212.134 66.7084 213.89C68.46 215.645 70.8348 216.633 73.3119 216.636H113.372C115.82 216.633 118.17 215.669 119.917 213.95C121.663 212.231 122.668 209.894 122.715 207.441L114.446 199.59V124.759C114.444 122.276 113.459 119.896 111.707 118.14C109.955 116.384 107.58 115.396 105.103 115.393H73.3119Z" fill="#0E2549"/>
<path d="M91.3923 202.39L74.6838 202.676C76.9042 175.526 70.2791 135.083 70.2118 134.671C70.2054 134.619 70.1885 134.568 70.162 134.522C70.1354 134.476 70.0999 134.436 70.0575 134.404C70.0152 134.372 69.9668 134.349 69.9154 134.337C69.8639 134.324 69.8104 134.322 69.7582 134.331C69.7059 134.339 69.656 134.358 69.6113 134.387C69.5666 134.415 69.5282 134.453 69.4983 134.496C69.4684 134.54 69.4476 134.59 69.4373 134.642C69.4269 134.694 69.4272 134.747 69.438 134.799C69.5053 135.206 76.1259 175.634 73.8921 202.678L70.3307 202.738C70.2266 202.738 70.1267 202.78 70.0531 202.854C69.9795 202.927 69.9382 203.028 69.9382 203.132C69.9382 203.236 69.9795 203.336 70.0531 203.41C70.1267 203.484 70.2266 203.525 70.3307 203.525L91.3856 203.166C91.4897 203.166 91.5895 203.124 91.6631 203.05C91.7367 202.977 91.7781 202.877 91.7781 202.772C91.7781 202.668 91.7367 202.568 91.6631 202.494C91.5895 202.42 91.4897 202.379 91.3856 202.379L91.3923 202.39Z" fill="#0E2549"/>
<path d="M101.448 267.661H97.7367V221.634C100.096 221.153 101.857 219.277 101.857 217.029H91.2372C91.2372 219.277 92.9978 221.153 95.3572 221.634V267.661H91.6454C89.8747 267.661 88.1764 268.366 86.9243 269.621C85.6722 270.876 84.9688 272.578 84.9688 274.352V275.663H108.123V274.352C108.123 273.474 107.951 272.604 107.615 271.792C107.28 270.98 106.789 270.243 106.169 269.621C105.549 269 104.813 268.507 104.003 268.171C103.193 267.834 102.325 267.661 101.448 267.661Z" fill="#0E2549"/>
<path d="M173.357 248.95L179.802 265.124H168.6L163.078 254.803L173.357 248.95Z" fill="white"/>
<path d="M180.44 265.558H168.341L162.496 254.634L173.573 248.329L180.44 265.558ZM168.859 264.69H179.162L173.14 249.572L163.66 254.967L168.859 264.69Z" fill="#0E2549"/>
<path d="M180.418 264.602C180.418 264.602 196.606 270.096 197.165 274.624H168.137V264.602H180.418Z" fill="#DC7878"/>
<path d="M136.884 256.32L135.574 265.254H124.973L126.094 255.526L136.884 256.32Z" fill="white"/>
<path d="M135.949 265.688H124.488L125.713 255.063L137.375 255.922L135.949 265.688ZM125.459 264.82H135.202L136.391 256.729L126.478 256.001L125.459 264.82Z" fill="#0E2549"/>
<path d="M136.188 264.733C136.188 264.733 152.376 270.228 152.934 274.755H123.906V264.733H136.188Z" fill="#DC7878"/>
<path d="M153.991 273.035V275.638H123.148V272.662L153.991 273.035Z" fill="#0E2549"/>
<path d="M167.227 272.732V275.508H198.071V272.532L167.227 272.732Z" fill="#0E2549"/>
<path d="M137.276 268.399C137.182 268.398 137.091 268.363 137.02 268.302C136.949 268.24 136.902 268.155 136.888 268.062C136.873 267.969 136.892 267.874 136.941 267.794C136.99 267.713 137.066 267.653 137.155 267.623L142.762 265.825C142.86 265.799 142.965 265.812 143.054 265.861C143.144 265.91 143.211 265.992 143.242 266.089C143.273 266.187 143.265 266.292 143.22 266.384C143.175 266.476 143.097 266.547 143.002 266.582L137.395 268.381C137.356 268.393 137.316 268.399 137.276 268.399Z" fill="#0E2549"/>
<path d="M140.076 270.19C139.981 270.191 139.888 270.157 139.816 270.095C139.743 270.034 139.695 269.948 139.681 269.854C139.666 269.759 139.685 269.663 139.736 269.582C139.786 269.501 139.864 269.441 139.955 269.412L145.562 267.614C145.612 267.597 145.665 267.589 145.718 267.593C145.77 267.596 145.822 267.61 145.87 267.634C145.917 267.657 145.959 267.69 145.994 267.731C146.028 267.771 146.054 267.818 146.071 267.868C146.087 267.919 146.093 267.972 146.088 268.025C146.083 268.078 146.068 268.129 146.043 268.176C146.018 268.223 145.984 268.265 145.943 268.298C145.902 268.332 145.855 268.357 145.804 268.372L140.208 270.17C140.165 270.183 140.121 270.19 140.076 270.19Z" fill="#0E2549"/>
<path d="M143.955 271.981C143.86 271.982 143.767 271.948 143.695 271.887C143.622 271.825 143.574 271.739 143.559 271.645C143.545 271.551 143.564 271.454 143.615 271.373C143.665 271.292 143.743 271.232 143.834 271.204L149.429 269.405C149.53 269.373 149.639 269.382 149.733 269.431C149.827 269.479 149.897 269.563 149.93 269.664C149.962 269.765 149.952 269.874 149.904 269.968C149.856 270.062 149.772 270.133 149.672 270.165L144.065 271.963C144.029 271.974 143.992 271.98 143.955 271.981Z" fill="#0E2549"/>
<path d="M180.707 267.659C180.614 267.658 180.523 267.623 180.453 267.561C180.382 267.5 180.335 267.415 180.321 267.322C180.307 267.229 180.326 267.134 180.375 267.054C180.424 266.973 180.499 266.913 180.589 266.884L186.184 265.086C186.234 265.068 186.287 265.061 186.34 265.064C186.393 265.068 186.445 265.081 186.492 265.105C186.54 265.129 186.582 265.162 186.616 265.202C186.651 265.242 186.677 265.289 186.693 265.34C186.709 265.39 186.715 265.444 186.71 265.497C186.706 265.549 186.69 265.601 186.666 265.648C186.641 265.695 186.607 265.736 186.566 265.77C186.525 265.803 186.477 265.828 186.426 265.843L180.82 267.641C180.783 267.653 180.745 267.659 180.707 267.659Z" fill="#0E2549"/>
<path d="M183.506 269.45C183.41 269.451 183.318 269.418 183.245 269.356C183.173 269.294 183.125 269.208 183.11 269.114C183.096 269.02 183.115 268.923 183.166 268.842C183.216 268.761 183.294 268.701 183.384 268.673L188.991 266.875C189.042 266.856 189.095 266.848 189.149 266.85C189.203 266.853 189.255 266.866 189.304 266.89C189.352 266.914 189.395 266.947 189.43 266.987C189.465 267.028 189.492 267.076 189.508 267.127C189.524 267.178 189.53 267.233 189.525 267.286C189.52 267.34 189.504 267.392 189.478 267.439C189.452 267.486 189.417 267.528 189.374 267.561C189.332 267.594 189.283 267.618 189.231 267.632L183.624 269.43C183.586 269.442 183.546 269.449 183.506 269.45Z" fill="#0E2549"/>
<path d="M187.384 271.242C187.289 271.243 187.197 271.209 187.124 271.147C187.052 271.085 187.004 271 186.989 270.905C186.974 270.811 186.994 270.715 187.044 270.634C187.095 270.553 187.172 270.492 187.263 270.464L192.87 268.666C192.971 268.634 193.08 268.643 193.174 268.691C193.268 268.74 193.338 268.824 193.37 268.924C193.403 269.025 193.393 269.135 193.345 269.229C193.297 269.323 193.213 269.394 193.113 269.426L187.506 271.224C187.466 271.236 187.426 271.242 187.384 271.242Z" fill="#0E2549"/>
<path d="M124.993 181.676C124.993 181.676 160.579 180.096 161.476 188.812C162.373 197.528 140.562 259.183 140.562 259.183L123.461 256.749C123.461 256.749 135.758 211.538 135.236 208.295C133.128 195.467 83.9531 179.885 83.9531 179.885L124.993 181.676Z" fill="#1E5272"/>
<path d="M77.5206 174.866C77.5206 174.866 73.2436 203.001 93.6886 204.737C114.335 206.488 134.146 206.175 138.638 210.594C139.954 211.889 163.124 259.174 163.124 259.174L179.31 252.78C179.31 252.78 152.231 194.267 150.154 191.451C146.411 186.385 143.579 183.652 124.997 181.667C108.215 179.885 77.5206 174.866 77.5206 174.866Z" fill="#2E6B99"/>
<path d="M126.308 99.4801C126.308 99.4801 122.592 110.462 123.265 111.894C123.938 113.326 128.957 116.722 128.957 116.722L113.809 140.378L94.3984 134.606L97.4688 115.375C97.4688 115.375 108.099 110.3 108.972 108.994C110.176 107.196 112.58 96.7245 112.58 96.7245L126.308 99.4801Z" fill="white"/>
<path d="M113.959 140.783L113.706 140.702L94.0078 134.858L97.1477 115.148L97.3114 115.07C101.389 113.123 108.077 109.702 108.673 108.808C109.83 107.075 112.21 96.7582 112.235 96.6526C112.263 96.5719 112.321 96.5045 112.396 96.4635C112.471 96.4224 112.558 96.4104 112.641 96.4299C112.724 96.4494 112.798 96.4989 112.847 96.569C112.896 96.6391 112.917 96.7248 112.907 96.8099C112.809 97.2392 110.474 107.356 109.247 109.194C108.384 110.489 99.4353 114.813 97.7711 115.616L94.7748 134.368L113.648 139.987L128.468 116.836C127.328 116.05 123.565 113.384 122.942 112.06C122.242 110.577 125.341 101.242 125.969 99.3879C125.984 99.3449 126.007 99.3051 126.037 99.2709C126.067 99.2368 126.104 99.2089 126.144 99.1888C126.185 99.1688 126.23 99.157 126.275 99.1541C126.32 99.1513 126.366 99.1574 126.409 99.1722C126.452 99.1869 126.492 99.21 126.526 99.2402C126.56 99.2703 126.588 99.3068 126.608 99.3478C126.628 99.3887 126.639 99.4331 126.642 99.4786C126.645 99.524 126.639 99.5696 126.624 99.6127C125.216 103.787 123.125 110.795 123.574 111.745C124.094 112.851 127.768 115.506 129.141 116.436L129.421 116.625L113.959 140.783Z" fill="#0E2549"/>
<path d="M127.819 76.5925C130.234 77.3657 136.128 79.1728 135.121 83.3129C133.971 88.033 131.643 93.9262 130.358 97.0235C130.085 97.6281 129.612 98.1194 129.019 98.414C128.425 98.7085 127.749 98.7882 127.103 98.6395L111.853 95.3984C110.456 95.0995 109.52 93.87 109.677 92.535C110.209 88.0397 111.418 78.5524 112.313 77.2713C115.358 72.9086 123.995 75.3698 127.819 76.5925Z" fill="#0E2549"/>
<path d="M112.288 98.7249C111.66 97.7494 112.1 94.5151 112.885 90.8852C112.895 90.8333 112.892 90.7795 112.875 90.7294C112.858 90.6792 112.828 90.6345 112.788 90.5997C111.922 89.8288 110.77 88.3274 111.243 86.554C111.656 85.0099 112.777 85.5898 113.598 86.2888C113.632 86.3175 113.672 86.3373 113.716 86.3461C113.76 86.355 113.805 86.3527 113.847 86.3395C113.89 86.3263 113.928 86.3026 113.959 86.2705C113.99 86.2385 114.012 86.1992 114.024 86.1562C115.159 81.8182 116.343 78.0647 116.343 78.0647L134.464 81.9171C134.464 81.9171 133.484 85.7921 132.253 90.1098C132.197 90.303 128.909 100.525 128.245 101.373C127.821 101.864 127.259 102.215 126.633 102.38C126.633 102.38 125.253 103.02 118.666 101.62L112.288 98.7249Z" fill="white"/>
<path d="M125.263 102.858C124.074 102.858 122.027 102.676 118.591 101.944C118.509 101.918 118.439 101.862 118.395 101.788C118.351 101.713 118.337 101.625 118.355 101.541C118.373 101.456 118.422 101.381 118.492 101.331C118.562 101.281 118.649 101.259 118.734 101.269C124.992 102.593 126.49 102.042 126.49 102.042L126.523 102.031C127.085 101.885 127.588 101.571 127.968 101.132C128.555 100.381 131.794 90.393 131.913 89.9884C132.918 86.4686 133.763 83.2073 134.032 82.1576L116.577 78.4558C116.274 79.4313 115.292 82.6544 114.357 86.2371C114.33 86.337 114.278 86.4285 114.206 86.5031C114.135 86.5777 114.045 86.6331 113.947 86.664C113.848 86.6949 113.744 86.7004 113.642 86.68C113.541 86.6596 113.447 86.6139 113.368 86.5473C112.809 86.0708 112.322 85.846 112.038 85.9359C111.789 86.0146 111.647 86.3607 111.573 86.6372C111.1 88.3993 112.426 89.8131 113.015 90.3413C113.101 90.4164 113.165 90.5131 113.201 90.6214C113.237 90.7296 113.243 90.8455 113.219 90.9571C112.011 96.5447 112.298 98.1046 112.576 98.5361C112.604 98.5744 112.623 98.618 112.634 98.6642C112.644 98.7103 112.645 98.7581 112.636 98.8047C112.627 98.8512 112.609 98.8954 112.583 98.9347C112.557 98.974 112.523 99.0075 112.483 99.0332C112.443 99.0589 112.399 99.0762 112.352 99.0841C112.306 99.092 112.258 99.0903 112.212 99.0791C112.166 99.0679 112.123 99.0475 112.085 99.0191C112.048 98.9906 112.016 98.9548 111.993 98.9137C111.768 98.5676 111.096 97.5179 112.533 90.8425C111.838 90.2154 110.335 88.5724 110.903 86.4551C111.078 85.8078 111.389 85.41 111.831 85.2729C112.349 85.111 112.982 85.3335 113.717 85.9337C114.839 81.6901 115.996 77.9815 116.007 77.9433L116.104 77.6422L134.887 81.6362L134.797 81.9868C134.797 82.0273 133.803 85.9179 132.583 90.1884C132.554 90.2873 129.253 100.631 128.515 101.573C128.053 102.118 127.437 102.51 126.748 102.696C126.629 102.737 126.227 102.858 125.263 102.858Z" fill="#0E2549"/>
<path d="M120.247 89.658C120.189 89.6575 120.132 89.6492 120.076 89.6332C120.002 89.6109 119.933 89.574 119.873 89.5249C119.813 89.4757 119.763 89.4151 119.726 89.3467C119.69 89.2782 119.667 89.2031 119.659 89.1258C119.651 89.0485 119.659 88.9704 119.682 88.896L119.785 88.5499C119.842 88.4167 119.947 88.3094 120.078 88.2485C120.21 88.1875 120.359 88.1772 120.497 88.2194C120.636 88.2616 120.754 88.3535 120.83 88.4774C120.905 88.6014 120.932 88.7488 120.906 88.8915L120.803 89.2377C120.767 89.3578 120.693 89.4633 120.593 89.5389C120.493 89.6145 120.372 89.6562 120.247 89.658Z" fill="#0E2549"/>
<path d="M128.59 91.4538C128.541 91.4544 128.492 91.4483 128.444 91.4359C128.369 91.4167 128.299 91.3829 128.237 91.3364C128.175 91.2899 128.122 91.2316 128.083 91.1648C128.043 91.098 128.017 91.024 128.006 90.9471C127.995 90.8702 127.999 90.7919 128.018 90.7166L128.124 90.3053C128.143 90.23 128.177 90.1593 128.223 90.0971C128.27 90.0349 128.328 89.9825 128.394 89.9428C128.461 89.9032 128.535 89.877 128.611 89.866C128.688 89.8549 128.766 89.8591 128.841 89.8783C128.917 89.8974 128.987 89.9313 129.049 89.9778C129.111 90.0243 129.164 90.0826 129.203 90.1494C129.243 90.2162 129.269 90.2902 129.28 90.367C129.291 90.4439 129.287 90.5222 129.268 90.5975L129.162 91.0088C129.13 91.1361 129.056 91.249 128.952 91.3296C128.849 91.4102 128.721 91.4539 128.59 91.4538Z" fill="#0E2549"/>
<path d="M122.255 87.208C122.158 87.2076 122.063 87.177 121.984 87.1204C121.155 86.5953 120.17 86.373 119.196 86.4911C119.135 86.5001 119.072 86.4969 119.012 86.4817C118.952 86.4665 118.896 86.4396 118.846 86.4026C118.797 86.3655 118.755 86.3191 118.723 86.2658C118.691 86.2125 118.67 86.1535 118.661 86.0921C118.652 86.0307 118.655 85.9681 118.671 85.908C118.686 85.8478 118.713 85.7912 118.75 85.7414C118.786 85.6917 118.833 85.6497 118.886 85.6179C118.939 85.586 118.998 85.565 119.059 85.556C120.273 85.3967 121.504 85.6781 122.529 86.3494C122.611 86.4072 122.673 86.4898 122.705 86.5852C122.737 86.6806 122.738 86.7838 122.707 86.8797C122.677 86.9756 122.616 87.0591 122.535 87.1182C122.454 87.1773 122.356 87.2088 122.255 87.208Z" fill="#0E2549"/>
<path d="M120.722 95.3445C120.341 95.6794 121.474 97.3426 123.189 97.6348C125.988 98.109 127.28 96.511 126.578 96.4997C126.305 96.4997 125.17 96.8144 123.501 96.4997C121.698 96.1604 120.98 95.1197 120.722 95.3445Z" fill="#0E2549"/>
<path d="M124.171 94.6859H124.119C124.019 94.6784 123.925 94.6331 123.857 94.5591C123.788 94.4851 123.75 94.3879 123.75 94.287C123.75 94.1861 123.788 94.0889 123.857 94.0149C123.925 93.9409 124.019 93.8956 124.119 93.888H124.162C124.803 93.888 125.395 93.7329 125.467 93.6026C125.609 93.2947 125.615 93.2767 125.319 91.4156C125.252 90.9998 125.173 90.4964 125.077 89.8828V89.8513C125.066 89.7097 124.99 88.451 125.362 87.6756C125.499 87.3969 125.81 87.2058 126.284 87.1092C127.501 86.8665 129.592 87.2485 130.646 88.188C130.725 88.2584 130.772 88.3572 130.778 88.4628C130.784 88.5684 130.748 88.6721 130.678 88.7511C130.608 88.8301 130.509 88.8779 130.404 88.884C130.299 88.8901 130.195 88.854 130.116 88.7837C129.345 88.0959 127.762 87.7655 126.739 87.8509C126.29 87.8891 126.102 87.997 126.066 88.033C125.842 88.5117 125.842 89.44 125.862 89.7794C125.956 90.3817 126.035 90.8785 126.1 91.2898C126.409 93.2317 126.436 93.3913 126.185 93.9352C125.88 94.6252 124.628 94.6859 124.171 94.6859Z" fill="#0E2549"/>
<path d="M114.407 77.3747C114.407 77.3747 114.261 72.794 117.322 73.3447C120.384 73.8953 120.911 70.8498 123.777 71.387C126.643 71.9242 125.037 72.6996 127.98 73.5942C130.922 74.4887 132.497 72.8929 133.192 75.2799C133.887 77.6669 136.253 77.2083 137.2 78.8514C138.146 80.4944 137.709 82.3195 136.215 82.8387C134.721 83.3579 136.888 84.7469 135.63 85.9853C134.372 87.2238 129.429 86.79 128.702 84.8076C127.975 82.8252 127.61 81.4833 125.771 81.2765C123.932 81.0698 121.642 81.8879 120.413 81.4564C119.184 81.0248 117.562 79.5841 116.86 79.883C116.158 80.182 115.375 81.299 114.707 81.1687C114.039 81.0383 112.074 78.7188 114.407 77.3747Z" fill="#0E2549"/>
<path d="M117.296 78.0422C117.296 78.0422 116.475 80.2449 115.585 81.1889C114.694 82.1329 113.483 82.751 113.504 84.3356C113.524 85.9201 109.724 83.4927 110.779 81.8632C112.952 78.4805 109.675 77.4803 111.828 75.7946C113.113 74.7922 115.37 74.963 115.37 74.963L117.296 78.0422Z" fill="#0E2549"/>
<path d="M117.296 78.0422C117.296 78.0422 116.475 80.2449 115.585 81.1889C114.694 82.1329 113.483 82.751 113.504 84.3356C113.524 85.9201 109.724 83.4927 110.779 81.8632C112.952 78.4805 109.675 77.4803 111.828 75.7946C113.113 74.7922 115.37 74.963 115.37 74.963L117.296 78.0422Z" fill="#0E2549"/>
<path d="M103.316 108.684C99.3711 106.646 74.4832 123.878 67.45 146.599C59.5577 172.101 88.4892 164.94 88.4892 164.94L84.0194 136.485L76.8067 177.356L123.189 181.676L128.06 151.31C128.06 151.31 125.905 164.745 143.138 165.021C150.728 165.149 161.471 165.021 161.471 165.021L162.709 153.405L143.374 150.65C143.374 150.65 141.62 128.749 133.954 120.801C130.35 117.061 127.387 114.854 125.818 114.472C121.123 113.325 123.351 119.041 103.316 108.684Z" fill="#DC7878"/>
<path d="M130.942 160.31L140.137 159.332L143.122 160.112L143.557 161.223C143.557 161.223 138.646 160.93 135.746 161.816C132.846 162.701 130.641 162.421 130.641 162.421L130.484 161.746L130.942 160.31Z" fill="white"/>
<path d="M129.407 163.317C125.328 162.967 107.848 165.34 107.848 165.34L109.323 155.878C109.323 155.878 128.387 159.128 129.833 158.714C132.547 157.927 136.135 157.453 139.34 157.334C143.575 157.168 147.526 158.184 147.464 159.337C147.428 159.959 141.727 159.463 140.267 160.051C136.135 161.706 132.323 163.569 129.407 163.317Z" fill="white"/>
<path d="M107.289 165.891L108.935 155.327L109.408 155.408C116.704 156.653 128.667 158.525 129.71 158.256C132.278 157.516 135.871 156.992 139.32 156.858C142.967 156.716 146.51 157.417 147.564 158.492C147.685 158.602 147.78 158.737 147.844 158.887C147.908 159.038 147.939 159.2 147.934 159.364C147.892 160.123 146.835 160.141 144.285 160.184C142.852 160.209 141.072 160.238 140.439 160.492C139.807 160.746 139.125 161.029 138.483 161.297C135.119 162.695 131.93 164.014 129.373 163.796C125.395 163.452 108.092 165.787 107.919 165.819L107.289 165.891ZM109.725 156.422L108.422 164.78C111.638 164.353 125.765 162.533 129.456 162.843C131.782 163.045 134.859 161.766 138.12 160.413C138.766 160.144 139.423 159.872 140.087 159.604C140.881 159.285 142.603 159.256 144.268 159.229C145.147 159.215 146.286 159.195 146.842 159.112C146.015 158.364 142.866 157.665 139.358 157.804C135.981 157.936 132.471 158.444 129.972 159.166C128.562 159.582 113.786 157.109 109.725 156.422Z" fill="#0E2549"/>
<path d="M131.854 160.845L141.372 159.438L140.924 159.582C140.924 159.582 149.962 161.083 136.662 162.182C133.61 162.436 131.143 162.146 131.3 162.463L131.388 162.288L131.854 160.845Z" fill="white"/>
<path d="M133.142 163.275C133.024 163.271 132.911 163.224 132.826 163.142C132.741 163.06 132.689 162.949 132.681 162.831C132.673 162.713 132.709 162.596 132.782 162.503C132.855 162.41 132.96 162.348 133.077 162.328C134.173 162.173 135.165 161.942 136.041 161.737C137.109 161.49 138.033 161.274 138.838 161.265C139.818 161.252 142.729 161.216 143.236 160.87C143.233 160.861 143.228 160.853 143.223 160.845C142.998 160.548 141.119 159.822 139.24 159.809C137.84 159.821 136.453 160.065 135.133 160.532C135.014 160.578 134.882 160.573 134.766 160.521C134.651 160.468 134.56 160.372 134.515 160.253C134.47 160.133 134.475 160.001 134.527 159.885C134.579 159.769 134.676 159.678 134.795 159.633C136.201 159.132 137.68 158.866 139.172 158.847H139.246C141.056 158.858 143.604 159.546 144.057 160.377C144.148 160.515 144.2 160.676 144.205 160.841C144.211 161.007 144.172 161.17 144.091 161.315C143.712 161.96 142.536 162.16 138.852 162.214C138.147 162.214 137.282 162.425 136.257 162.663C135.36 162.87 134.346 163.113 133.209 163.268C133.187 163.272 133.164 163.275 133.142 163.275Z" fill="#0E2549"/>
<path d="M99.25 109.577L105.767 106.333L116.432 113.445L111.796 117.142L99.25 109.577Z" fill="#DC7878"/>
<path d="M129.246 116.223L126.169 111.255L116.434 113.445L118.961 118.243L129.246 116.223Z" fill="#DC7878"/>
<path d="M130.008 116.555L126.393 110.712L116.524 112.93L105.8 105.778L98.2617 109.531L111.833 117.713L115.948 114.44C115.5 121.858 112.618 167.433 108.924 179.397C108.891 179.506 108.902 179.623 108.955 179.724C109.008 179.824 109.098 179.9 109.206 179.934C109.248 179.945 109.291 179.952 109.334 179.952C109.425 179.952 109.514 179.923 109.588 179.869C109.661 179.815 109.715 179.738 109.742 179.651C113.373 167.889 116.213 124.096 116.764 115.097L118.709 118.785L130.008 116.555ZM111.759 116.555L100.235 109.617L105.73 106.882L115.625 113.478L111.759 116.555ZM125.942 111.786L128.476 115.879L119.213 117.699L117.141 113.764L125.942 111.786Z" fill="#0E2549"/>
<path d="M83.5054 148.263L116.05 154.107L112.26 165.345C112.26 165.345 89.7201 165.997 84.8982 165.345C75.9137 164.129 66.3125 156.199 66.3125 156.199L83.5054 148.263Z" fill="#DC7878"/>
<path d="M112.462 165.187C112.413 165.188 112.365 165.18 112.318 165.165C112.209 165.126 112.118 165.045 112.067 164.94C112.015 164.835 112.007 164.714 112.043 164.603L115.465 154.459L85.5625 149.708L94.067 135.355C94.0898 135.293 94.1258 135.237 94.1725 135.191C94.2192 135.144 94.2755 135.109 94.3374 135.087C94.3992 135.065 94.4652 135.057 94.5305 135.063C94.5959 135.069 94.6591 135.09 94.7157 135.123C94.7722 135.157 94.8208 135.202 94.8579 135.256C94.895 135.311 94.9197 135.372 94.9304 135.437C94.941 135.502 94.9373 135.569 94.9195 135.632C94.9017 135.696 94.8702 135.754 94.8273 135.804L86.9889 149.031L116.64 153.751L112.881 164.886C112.851 164.973 112.794 165.049 112.719 165.103C112.644 165.157 112.554 165.186 112.462 165.187Z" fill="#DC7878"/>
<path d="M354.142 168.939L85.6874 168.572C84.9736 168.572 84.2891 168.288 83.7844 167.782C83.2796 167.276 82.9961 166.59 82.9961 165.875V165.56C82.9961 164.845 83.2796 164.159 83.7844 163.653C84.2891 163.147 84.9736 162.863 85.6874 162.863L354.145 163.227C354.858 163.227 355.543 163.512 356.048 164.017C356.552 164.523 356.836 165.209 356.836 165.925V166.237C356.837 166.592 356.767 166.943 356.632 167.271C356.497 167.599 356.299 167.897 356.048 168.148C355.798 168.399 355.501 168.598 355.174 168.734C354.847 168.869 354.496 168.939 354.142 168.939Z" fill="#EBF4FE"/>
<path d="M354.143 169.276L85.6856 168.914C84.8824 168.913 84.1126 168.592 83.5452 168.022C82.9779 167.452 82.6596 166.68 82.6602 165.875V165.56C82.6608 164.756 82.9799 163.984 83.5476 163.416C84.1153 162.847 84.8851 162.527 85.6879 162.526L354.145 162.89C354.948 162.891 355.718 163.211 356.285 163.78C356.853 164.349 357.172 165.12 357.173 165.925V166.237C357.173 166.636 357.095 167.031 356.943 167.4C356.791 167.768 356.568 168.103 356.286 168.386C356.005 168.668 355.671 168.892 355.303 169.044C354.935 169.197 354.541 169.276 354.143 169.276ZM85.6856 163.207C85.0616 163.208 84.4636 163.457 84.0226 163.9C83.5816 164.342 83.3336 164.942 83.333 165.567V165.875C83.3336 166.501 83.5819 167.101 84.0234 167.543C84.4649 167.986 85.0635 168.235 85.6879 168.235L354.145 168.597C354.769 168.596 355.368 168.348 355.81 167.905C356.251 167.463 356.499 166.863 356.5 166.237V165.925C356.499 165.299 356.251 164.699 355.81 164.256C355.368 163.814 354.769 163.565 354.145 163.565L85.6856 163.207Z" fill="#0E2549"/>
<path d="M76.5286 275.661H70.832L97.0969 168.619H102.793L76.5286 275.661Z" fill="#EBF4FE"/>
<path d="M76.7756 275.98H70.4219L70.5183 275.586L96.8459 168.302H103.195L103.099 168.694L76.7756 275.98ZM71.2337 275.335H76.2799L102.388 168.936H97.3349L71.2337 275.335Z" fill="#0E2549"/>
<path d="M353.191 275.661H358.89L343.179 168.939H337.48L353.191 275.661Z" fill="#EBF4FE"/>
<path d="M359.289 276.009H352.911L352.868 275.719L337.086 168.602H343.464L343.507 168.889L359.289 276.009ZM353.492 275.335H358.509L342.897 169.285H337.871L353.492 275.335Z" fill="#0E2549"/>
<path d="M182.821 42.8645C185.014 31.0662 177.248 19.7204 165.475 17.5231C153.702 15.3257 142.381 23.1089 140.189 34.9072C137.996 46.7055 145.762 58.0513 157.535 60.2486C169.308 62.446 180.629 54.6628 182.821 42.8645Z" fill="#A1C5E2"/>
<path d="M161.527 39.2684L148.559 33.2649C148.478 33.2274 148.415 33.159 148.384 33.0749C148.353 32.9909 148.357 32.8979 148.394 32.8165C148.432 32.7352 148.5 32.672 148.584 32.6411C148.668 32.6101 148.761 32.6138 148.842 32.6513L161.471 38.4952L176.093 29.0034C176.13 28.9756 176.172 28.9557 176.217 28.9449C176.262 28.9342 176.309 28.9328 176.354 28.9408C176.4 28.9489 176.443 28.9662 176.481 28.9917C176.52 29.0172 176.553 29.0504 176.578 29.0892C176.603 29.128 176.62 29.1715 176.628 29.2171C176.635 29.2627 176.633 29.3094 176.622 29.3543C176.611 29.3991 176.591 29.4412 176.563 29.4779C176.535 29.5146 176.499 29.5451 176.459 29.5676L161.527 39.2684Z" fill="#0E2549"/>
<path d="M206.22 128.11L198.392 159.867H152.688L161.941 128.11H206.22Z" fill="#EBF4FE"/>
<path d="M198.659 160.204H152.234L161.683 127.773H206.652L206.549 128.191L198.659 160.204ZM153.131 159.53H198.132L205.791 128.448H162.194L153.131 159.53Z" fill="#0E2549"/>
<path d="M138.986 162.866H198.352V159.865H138.986V162.866Z" fill="#A1C5E2"/>
<path d="M198.689 163.205H138.652V159.53H198.689V163.205ZM139.325 162.531H198.016V160.204H139.325V162.531Z" fill="#0E2549"/>
<path d="M179.182 150.02C179.088 150.02 178.994 150.02 178.897 150.007C178.352 149.949 177.827 149.769 177.361 149.48C176.895 149.191 176.5 148.8 176.206 148.337C175.537 147.315 175.238 146.094 175.358 144.878C175.582 142.237 177.538 140.236 179.725 140.427C181.911 140.618 183.495 142.916 183.27 145.557C183.046 148.083 181.245 150.02 179.182 150.02ZM179.433 141.088C177.713 141.088 176.208 142.758 176.022 144.934C175.915 145.996 176.174 147.063 176.755 147.957C176.994 148.338 177.316 148.66 177.698 148.899C178.079 149.138 178.509 149.287 178.955 149.335C180.763 149.488 182.398 147.761 182.593 145.5C182.788 143.239 181.472 141.255 179.66 141.099C179.583 141.093 179.507 141.088 179.433 141.088Z" fill="#0E2549"/>
<path d="M259.419 162.868C256.802 162.868 254.292 161.826 252.441 159.971C250.59 158.116 249.551 155.601 249.551 152.978V146.975H269.287V152.978C269.287 155.601 268.247 158.116 266.397 159.971C264.546 161.826 262.036 162.868 259.419 162.868Z" fill="#DC7878"/>
<path d="M267.155 159.465C267.012 159.465 266.868 159.465 266.723 159.451L266.768 158.777C268.921 158.925 270.881 157.847 272.15 155.828C273.272 154.048 273.574 151.872 272.884 150.659C272.785 150.461 272.641 150.29 272.464 150.158C272.286 150.027 272.081 149.94 271.863 149.903C270.491 149.679 268.405 151.196 267.718 151.803L267.27 151.297C267.382 151.198 270.004 148.908 271.98 149.238C272.296 149.29 272.597 149.416 272.856 149.604C273.116 149.793 273.328 150.04 273.476 150.326C274.294 151.769 273.985 154.181 272.727 156.19C271.399 158.287 269.392 159.465 267.155 159.465Z" fill="#DC7878"/>
<path d="M256.121 160C256.072 160 256.024 159.987 255.982 159.964C251.534 157.505 252.07 149.978 252.095 149.656C252.102 149.581 252.139 149.511 252.196 149.462C252.254 149.413 252.329 149.388 252.404 149.393C252.442 149.396 252.479 149.406 252.512 149.423C252.546 149.44 252.576 149.463 252.601 149.492C252.625 149.52 252.644 149.554 252.656 149.59C252.668 149.626 252.672 149.663 252.669 149.701C252.669 149.778 252.137 157.181 256.257 159.46C256.29 159.479 256.319 159.503 256.343 159.533C256.366 159.562 256.384 159.596 256.394 159.633C256.405 159.669 256.408 159.707 256.404 159.744C256.399 159.782 256.388 159.818 256.37 159.851C256.345 159.896 256.309 159.934 256.265 159.96C256.222 159.986 256.172 160 256.121 160Z" fill="white"/>
<path d="M254.518 145.397C254.473 145.397 254.43 145.388 254.389 145.371C254.348 145.353 254.311 145.328 254.28 145.296C254.217 145.233 254.182 145.147 254.182 145.058C254.182 144.968 254.217 144.882 254.28 144.819C256.027 143.082 256.523 142.493 256.498 140.513C256.471 138.726 255.65 137.971 254.78 137.168C254.107 136.541 253.397 135.894 253.038 134.766C252.19 132.095 255.484 129.61 255.626 129.504C255.697 129.451 255.787 129.428 255.876 129.441C255.964 129.454 256.044 129.502 256.097 129.574C256.15 129.645 256.173 129.735 256.16 129.824C256.146 129.913 256.099 129.992 256.027 130.046C255.996 130.068 252.977 132.349 253.679 134.561C253.984 135.519 254.592 136.078 255.236 136.672C256.173 137.535 257.14 138.427 257.171 140.493C257.207 142.74 256.577 143.475 254.756 145.289C254.694 145.355 254.608 145.394 254.518 145.397Z" fill="#0E2549"/>
<path d="M263.287 145.397C263.243 145.397 263.199 145.388 263.158 145.37C263.117 145.353 263.081 145.328 263.05 145.296C262.987 145.233 262.951 145.147 262.951 145.058C262.951 144.968 262.987 144.882 263.05 144.819C264.797 143.082 265.292 142.493 265.268 140.513C265.241 138.726 264.42 137.971 263.55 137.168C262.877 136.541 262.166 135.894 261.807 134.766C260.959 132.095 264.254 129.61 264.395 129.504C264.467 129.451 264.557 129.428 264.645 129.441C264.734 129.454 264.813 129.502 264.866 129.574C264.92 129.645 264.942 129.735 264.929 129.824C264.916 129.913 264.868 129.992 264.797 130.046C264.765 130.068 261.747 132.349 262.449 134.561C262.754 135.519 263.361 136.078 264.005 136.672C264.943 137.535 265.909 138.427 265.941 140.493C265.976 142.74 265.346 143.475 263.525 145.289C263.495 145.322 263.458 145.348 263.417 145.367C263.376 145.385 263.332 145.396 263.287 145.397Z" fill="#0E2549"/>
<path d="M258.592 143.624C258.525 143.624 258.46 143.604 258.404 143.567C258.348 143.53 258.305 143.477 258.279 143.415C258.254 143.353 258.247 143.285 258.261 143.219C258.274 143.153 258.307 143.093 258.354 143.046C260.101 141.311 260.597 140.72 260.572 138.739C260.545 136.955 259.725 136.197 258.854 135.395C258.182 134.77 257.471 134.121 257.112 132.992C256.264 130.322 259.559 127.836 259.7 127.731C259.772 127.677 259.862 127.655 259.95 127.668C259.994 127.674 260.036 127.689 260.074 127.712C260.111 127.735 260.145 127.765 260.171 127.8C260.197 127.836 260.216 127.876 260.227 127.919C260.238 127.962 260.24 128.007 260.234 128.051C260.227 128.094 260.212 128.137 260.19 128.175C260.167 128.213 260.137 128.246 260.101 128.272C260.07 128.295 257.051 130.576 257.753 132.788C258.058 133.745 258.666 134.307 259.31 134.9C260.245 135.761 261.214 136.654 261.245 138.721C261.279 140.969 260.651 141.706 258.828 143.518C258.797 143.55 258.761 143.576 258.72 143.594C258.68 143.613 258.636 143.622 258.592 143.624Z" fill="#0E2549"/>
<path d="M274.141 255.78L275.287 266.92H285.016L286.496 254.994L274.141 255.78Z" fill="white"/>
<path d="M285.337 267.286H274.96L273.742 255.441L286.916 254.603L285.337 267.286ZM275.615 266.556H284.696L286.082 255.385L274.543 256.12L275.615 266.556Z" fill="#0E2549"/>
<path d="M274.757 266.495C274.757 266.495 260.695 270.968 260.211 274.654H285.424V266.495H274.757Z" fill="#DC7878"/>
<path d="M305.56 254.573L303.238 266.693H312.967L314.712 254.946L305.56 254.573Z" fill="white"/>
<path d="M313.283 267.057H302.801L305.268 254.196L315.136 254.598L313.283 267.057ZM303.68 266.328H312.651L314.29 255.295L305.855 254.949L303.68 266.328Z" fill="#0E2549"/>
<path d="M302.707 266.268C302.707 266.268 288.645 270.741 288.16 274.427H313.373V266.268H302.707Z" fill="#DC7878"/>
<path d="M286.98 273.478V275.638H313.77V273.168L286.98 273.478Z" fill="#0E2549"/>
<path d="M286.208 273.076V275.638H259.418V272.889L286.208 273.076Z" fill="#0E2549"/>
<path d="M308.201 273.503C308.113 273.503 308.028 273.468 307.965 273.405C307.902 273.342 307.867 273.257 307.867 273.168V268.273C307.867 268.183 307.903 268.098 307.966 268.034C308.029 267.971 308.114 267.936 308.204 267.936C308.293 267.936 308.378 267.971 308.441 268.034C308.505 268.098 308.54 268.183 308.54 268.273V273.168C308.54 273.212 308.531 273.256 308.514 273.297C308.497 273.338 308.472 273.375 308.441 273.406C308.409 273.438 308.372 273.462 308.331 273.479C308.29 273.495 308.246 273.504 308.201 273.503Z" fill="#0E2549"/>
<path d="M280.248 273.73C280.204 273.73 280.161 273.722 280.121 273.705C280.08 273.689 280.043 273.664 280.012 273.633C279.981 273.602 279.956 273.566 279.94 273.525C279.923 273.485 279.914 273.441 279.914 273.397V268.5C279.914 268.41 279.95 268.325 280.013 268.261C280.076 268.198 280.161 268.163 280.25 268.163C280.34 268.163 280.425 268.198 280.488 268.261C280.551 268.325 280.587 268.41 280.587 268.5V273.397C280.587 273.441 280.578 273.485 280.56 273.526C280.543 273.566 280.518 273.603 280.487 273.634C280.455 273.665 280.418 273.69 280.377 273.706C280.336 273.722 280.292 273.731 280.248 273.73Z" fill="#0E2549"/>
<path d="M319.03 177.113L295.197 199.608L290.099 259.579L272.41 260.028C272.41 260.028 273.623 198.158 275.521 192.359C277.539 186.194 307.206 149.031 307.206 149.031L348.184 143.997C348.184 143.997 353.302 160.474 350.023 168.442C346.744 176.41 316.713 260.855 316.713 260.855L296.827 259.826L319.03 177.113Z" fill="#0E2549"/>
<path d="M319.257 177.394C319.231 177.397 319.205 177.397 319.179 177.394C319.099 177.374 319.031 177.322 318.989 177.252C318.947 177.181 318.935 177.096 318.954 177.017L322.841 162.032C322.862 161.952 322.913 161.885 322.983 161.843C323.054 161.801 323.138 161.79 323.217 161.81C323.296 161.831 323.364 161.882 323.405 161.953C323.447 162.023 323.458 162.107 323.438 162.187L319.551 177.172C319.532 177.235 319.494 177.291 319.441 177.332C319.388 177.372 319.324 177.394 319.257 177.394Z" fill="#A1C5E2"/>
<path d="M319.668 95.6434L323.411 92.8249L327.365 95.1669L325.629 98.3091L332.685 140.436L327.702 151.94L321.736 141.266L322.099 98.4912L319.668 95.6434Z" fill="#E2474B"/>
<path d="M322.804 54.6174C325.087 54.4646 330.629 54.0173 331.326 58.027C332.124 62.601 332.38 68.6179 332.461 71.7938C332.476 72.4004 332.274 72.9925 331.89 73.462C331.506 73.9315 330.967 74.2472 330.371 74.3516L316.56 76.7768C315.949 76.8834 315.32 76.7612 314.792 76.4334C314.265 76.1056 313.876 75.5951 313.7 74.9989C312.476 70.8453 310.3 61.893 310.56 60.4522C311.478 55.5412 319.188 54.8579 322.804 54.6174Z" fill="#0E2549"/>
<path d="M330.31 75.5204C330.31 75.5204 331.786 86.309 332.947 87.3586C334.109 88.4083 339.548 90.3255 339.548 90.3255L324.526 103.951L312.574 95.2748C312.574 95.2748 317.582 91.9393 317.847 90.4357C318.215 88.3566 316.277 77.977 316.277 77.977L330.31 75.5204Z" fill="white"/>
<path d="M324.555 104.384L311.996 95.2613L312.4 94.9916C314.29 93.7329 317.354 91.3684 317.529 90.3772C317.883 88.3813 315.959 78.1411 315.959 78.0377C315.943 77.9483 315.962 77.856 316.014 77.7812C316.065 77.7064 316.145 77.6552 316.234 77.6388C316.323 77.6224 316.415 77.6422 316.49 77.6938C316.564 77.7454 316.616 77.8247 316.632 77.9141C316.713 78.3411 318.585 88.3791 318.202 90.5008C317.957 91.8899 314.447 94.4185 313.185 95.2905L324.524 103.521L338.918 90.4536C337.503 89.9367 333.724 88.5072 332.735 87.6081C331.542 86.5248 330.239 77.3881 329.99 75.5676C329.983 75.5236 329.986 75.4788 329.997 75.4357C330.008 75.3926 330.027 75.3522 330.054 75.3167C330.081 75.2812 330.114 75.2513 330.152 75.2288C330.19 75.2063 330.233 75.1915 330.277 75.1855C330.366 75.1739 330.455 75.1979 330.527 75.2521C330.598 75.3064 330.645 75.3866 330.658 75.4754C331.221 79.5953 332.407 86.3989 333.188 87.1069C334.098 87.9363 336.776 90.0153 338.27 90.539L339.109 91.1931L324.555 104.384Z" fill="#0E2549"/>
<path d="M325.381 80.092C321.544 81.2338 316.522 81.3507 314.928 80.2292C313.993 79.5706 313.134 76.4711 312.403 72.8884C312.382 72.785 310.465 59.9713 310.465 59.9713L327.983 56.8965C327.983 56.8965 328.624 60.7737 329.214 65.1431C329.22 65.1875 329.238 65.2296 329.266 65.2649C329.293 65.3001 329.33 65.3272 329.372 65.3433C329.413 65.3594 329.459 65.3639 329.503 65.3564C329.547 65.3488 329.588 65.3295 329.622 65.3004C330.457 64.6014 331.654 63.9518 331.975 65.5566C332.376 67.5795 330.789 69.1528 329.939 69.7485C329.895 69.7791 329.86 69.8209 329.838 69.8695C329.816 69.9181 329.807 69.9718 329.813 70.0249C330.145 73.1199 330.315 75.8193 330.058 76.8307C329.878 77.4264 329.516 77.9506 329.024 78.3299L325.381 80.092Z" fill="white"/>
<path d="M318.952 81.3642C317.147 81.3642 315.575 81.108 314.736 80.5169C313.839 79.8853 312.966 77.4151 312.074 72.9671C312.051 72.8637 310.582 63.0415 310.131 60.032L310.082 59.7061L328.262 56.5167L328.316 56.8538C328.316 56.892 328.95 60.6905 329.529 64.9453C330.307 64.3227 330.958 64.0979 331.469 64.271C331.895 64.4216 332.178 64.8306 332.308 65.487C332.691 67.4199 331.39 69.1259 330.152 70.0069C330.547 73.711 330.623 75.9699 330.377 76.9094C330.179 77.5735 329.779 78.1591 329.233 78.5839C329.164 78.6414 329.076 78.6694 328.987 78.6619C328.898 78.6543 328.815 78.6117 328.757 78.5435C328.729 78.5096 328.707 78.4703 328.693 78.428C328.68 78.3857 328.675 78.3411 328.679 78.2968C328.682 78.2525 328.695 78.2094 328.715 78.17C328.736 78.1305 328.764 78.0955 328.798 78.0669C329.236 77.7317 329.559 77.2683 329.722 76.7408C329.872 76.1565 329.946 74.5224 329.471 70.0564C329.458 69.9435 329.476 69.8293 329.523 69.7258C329.569 69.6222 329.643 69.5331 329.735 69.4675C329.975 69.2989 332.061 67.7593 331.637 65.6196C331.581 65.3409 331.467 64.9925 331.236 64.9093C330.953 64.8104 330.439 65.0442 329.832 65.5566C329.751 65.6244 329.654 65.6692 329.55 65.6863C329.446 65.7035 329.34 65.6925 329.242 65.6544C329.144 65.6163 329.058 65.5525 328.993 65.4696C328.927 65.3868 328.886 65.288 328.872 65.1835C328.39 61.6031 327.865 58.3193 327.697 57.2854L310.847 60.2477C311.52 64.7025 312.704 72.6434 312.735 72.8345C313.843 78.3502 314.707 79.665 315.122 79.9572C316.582 80.9844 321.52 80.8945 325.286 79.7752C325.371 79.7495 325.464 79.759 325.542 79.8016C325.621 79.8442 325.679 79.9163 325.705 80.0022C325.731 80.088 325.721 80.1805 325.679 80.2593C325.636 80.3382 325.564 80.3968 325.479 80.4225C323.356 81.0323 321.16 81.3492 318.952 81.3642Z" fill="#0E2549"/>
<path d="M315.711 69.6541C315.596 69.6534 315.484 69.6123 315.396 69.5381C315.308 69.4638 315.248 69.361 315.227 69.2472L315.151 68.8359C315.135 68.7703 315.132 68.702 315.144 68.6354C315.155 68.5688 315.18 68.5052 315.216 68.4485C315.253 68.3919 315.301 68.3433 315.357 68.3057C315.413 68.2682 315.476 68.2425 315.542 68.2303C315.609 68.218 315.677 68.2195 315.743 68.2345C315.808 68.2495 315.87 68.2778 315.925 68.3177C315.979 68.3576 316.025 68.4081 316.059 68.4663C316.093 68.5245 316.115 68.5891 316.124 68.6561L316.2 69.0674C316.224 69.1968 316.195 69.3302 316.121 69.4385C316.046 69.5467 315.932 69.621 315.803 69.6451C315.773 69.6503 315.742 69.6533 315.711 69.6541Z" fill="#0E2549"/>
<path d="M323.561 68.3549C323.444 68.3544 323.33 68.3123 323.241 68.2362C323.152 68.1601 323.093 68.0549 323.074 67.9391L323.007 67.5278C322.996 67.4636 322.998 67.398 323.013 67.3346C323.028 67.2712 323.055 67.2113 323.092 67.1584C323.13 67.1055 323.178 67.0606 323.233 67.0262C323.288 66.9918 323.35 66.9687 323.414 66.958C323.478 66.9474 323.543 66.9495 323.606 66.9643C323.67 66.979 323.729 67.0061 323.782 67.044C323.835 67.0819 323.88 67.1298 323.914 67.1851C323.948 67.2403 323.972 67.3018 323.982 67.366L324.049 67.7773C324.061 67.8484 324.057 67.9212 324.038 67.9907C324.019 68.0601 323.985 68.1246 323.938 68.1795C323.892 68.2345 323.834 68.2786 323.769 68.3089C323.704 68.3392 323.632 68.3549 323.561 68.3549Z" fill="#0E2549"/>
<path d="M321.503 65.3296C321.431 65.3306 321.36 65.3049 321.305 65.2573C321.251 65.2097 321.215 65.1435 321.206 65.0714C321.196 64.9993 321.214 64.9263 321.254 64.8661C321.295 64.806 321.357 64.763 321.427 64.7452C321.523 64.7183 323.854 64.089 325.199 64.6486C325.237 64.662 325.272 64.683 325.301 64.7103C325.331 64.7375 325.354 64.7704 325.371 64.8071C325.387 64.8438 325.396 64.8834 325.396 64.9235C325.397 64.9637 325.389 65.0036 325.374 65.0407C325.359 65.0779 325.336 65.1115 325.308 65.1397C325.279 65.1679 325.245 65.1899 325.208 65.2045C325.171 65.2192 325.131 65.226 325.091 65.2247C325.051 65.2234 325.011 65.214 324.975 65.197C323.818 64.716 321.611 65.3116 321.588 65.3184C321.561 65.3258 321.532 65.3296 321.503 65.3296Z" fill="#0E2549"/>
<path d="M316.677 65.8825C316.677 65.8825 315.278 65.406 313.383 66.6512L316.677 65.8825Z" fill="white"/>
<path d="M313.388 66.9479C313.324 66.9474 313.263 66.9266 313.212 66.8884C313.161 66.8502 313.124 66.7967 313.106 66.7358C313.088 66.6749 313.09 66.6098 313.111 66.5501C313.133 66.4903 313.173 66.4391 313.226 66.404C315.218 65.0914 316.716 65.5791 316.779 65.6016C316.815 65.614 316.849 65.6336 316.879 65.6592C316.908 65.6848 316.932 65.716 316.949 65.7509C316.966 65.7858 316.976 65.8237 316.978 65.8625C316.981 65.9013 316.975 65.9402 316.963 65.9769C316.938 66.0514 316.884 66.1129 316.814 66.1478C316.744 66.1828 316.662 66.1884 316.588 66.1635C316.537 66.1478 315.285 65.7589 313.551 66.9007C313.502 66.9316 313.446 66.948 313.388 66.9479Z" fill="#0E2549"/>
<path d="M319.653 72.7648H319.637C319.263 72.749 318.018 72.6479 317.751 71.9286C317.551 71.3892 317.58 71.2341 317.959 69.3461C318.042 68.9393 318.139 68.4471 318.258 67.8514C318.265 67.8 318.282 67.7504 318.308 67.7059C318.335 67.6613 318.37 67.6227 318.412 67.5924C318.454 67.5621 318.502 67.5408 318.553 67.5297C318.603 67.5187 318.656 67.5181 318.707 67.5281C318.757 67.5381 318.806 67.5585 318.848 67.5879C318.891 67.6173 318.927 67.6552 318.955 67.6992C318.982 67.7432 319 67.7923 319.008 67.8436C319.016 67.895 319.013 67.9473 319 67.9975C318.883 68.5954 318.776 69.0876 318.704 69.4967C318.336 71.3263 318.343 71.3465 318.462 71.6634C318.511 71.7983 319.076 71.9803 319.666 72.0051C319.767 72.0068 319.862 72.0486 319.932 72.1211C320.002 72.1936 320.04 72.2909 320.039 72.3916C320.037 72.4924 319.995 72.5883 319.923 72.6583C319.85 72.7282 319.753 72.7665 319.653 72.7648Z" fill="#0E2549"/>
<path d="M329.791 69.6991C329.791 69.6991 329.362 70.3082 328.461 71.5691C327.418 73.0233 315.677 74.3876 314.78 74.1179C312.82 73.52 313.008 71.859 312.356 72.113C311.548 72.4299 313.926 80.5214 314.986 81.5283C316.047 82.5353 324.567 81.4586 328.939 79.7302C332.576 78.3052 329.791 69.6991 329.791 69.6991Z" fill="#0E2549"/>
<path d="M328.167 57.8023C328.167 57.8023 315.751 63.8844 309.031 60.3129C302.312 56.7414 311.676 54.9029 317.428 54.4871C323.181 54.0713 331.306 53.8285 328.167 57.8023Z" fill="#0E2549"/>
<path d="M284.657 110.296C289.705 110.662 312.978 92.3012 315.797 92.3484C316.033 92.3484 323.232 93.0789 323.398 92.9755C325.029 91.9438 326.287 91.9011 327.24 92.6406C330.916 91.5168 335.969 89.7052 336.211 89.7479C346.635 91.6561 358.338 120.765 359.004 122.754C361.408 129.947 352.455 133.691 352.455 133.691C352.374 134.498 355.263 154.911 355.263 154.911L322.429 155.986L300.477 156.97C300.477 156.97 302.96 121.457 302.271 111.141C301.928 106.07 293.854 132.655 286.608 122.127C277.653 109.127 280.884 110.019 284.657 110.296Z" fill="white"/>
<path d="M300.105 157.334L300.132 156.948C300.157 156.592 302.599 121.332 301.926 111.168C301.926 111.08 301.913 111.013 301.904 110.959C301.507 111.408 300.731 112.833 300.038 114.105C297.744 118.342 294.274 124.748 290.473 124.95C288.974 125.029 287.579 124.143 286.323 122.316C280.405 113.719 280.127 111.602 280.717 110.592C281.253 109.66 282.596 109.77 284.15 109.896C284.33 109.911 284.511 109.927 284.695 109.938C284.74 109.938 284.787 109.938 284.837 109.938C287.81 109.938 296.873 103.841 304.18 98.9249C310.572 94.6252 314.562 91.9842 315.802 91.9842H315.818C315.89 91.9842 316.266 92.0202 317.372 92.1236C319.13 92.2899 322.73 92.6248 323.295 92.6203C324.89 91.6314 326.242 91.4965 327.316 92.2405C329.023 91.71 331.028 91.038 332.647 90.4963C335.839 89.4264 336.099 89.3545 336.278 89.386C340.748 90.2041 345.893 95.8052 351.572 106.03C356.03 114.058 359.063 121.806 359.336 122.624C361.597 129.383 354.178 133.24 352.81 133.891C352.929 135.597 354.517 147.121 355.609 154.842L355.663 155.224L322.454 156.316L300.105 157.334ZM301.985 110.147C302.022 110.148 302.06 110.151 302.097 110.159C302.545 110.257 302.586 110.862 302.604 111.121C303.256 120.754 301.112 152.718 300.845 156.608L322.414 155.644L354.857 154.576C354.384 151.236 352.023 134.442 352.101 133.653L352.121 133.449L352.312 133.37C352.664 133.222 360.94 129.657 358.668 122.862C358.408 122.089 355.319 114.243 350.955 106.385C345.478 96.5245 340.371 90.8919 336.184 90.0917C335.884 90.1524 334.343 90.6671 332.852 91.1684C331.174 91.7303 329.088 92.4293 327.339 92.9665L327.168 93.0204L327.027 92.9103C326.155 92.236 325.027 92.3461 323.58 93.2631C323.421 93.362 323.356 93.4003 317.3 92.8271C316.536 92.7552 315.874 92.6923 315.795 92.69C314.708 92.69 309.552 96.1581 304.564 99.5138C296.66 104.832 287.694 110.858 284.646 110.635L284.096 110.592C282.827 110.489 281.629 110.392 281.313 110.945C280.705 111.997 282.531 115.591 286.898 121.932C288.019 123.548 289.201 124.337 290.443 124.267C293.859 124.085 297.351 117.636 299.439 113.782C300.874 111.107 301.424 110.15 301.985 110.15V110.147Z" fill="#0E2549"/>
<path d="M323.403 92.6833L321.855 152.524L323.403 92.6833Z" fill="#E2474B"/>
<path d="M321.859 152.839C321.817 152.838 321.775 152.829 321.736 152.811C321.697 152.794 321.661 152.769 321.632 152.739C321.603 152.708 321.58 152.671 321.564 152.631C321.549 152.591 321.542 152.549 321.543 152.506L323.082 92.6653C323.09 92.5838 323.129 92.5085 323.191 92.4545C323.252 92.4005 323.332 92.3718 323.414 92.374C323.496 92.3763 323.574 92.4094 323.632 92.4667C323.691 92.524 323.726 92.6014 323.73 92.6833L322.191 152.522C322.189 152.608 322.153 152.69 322.09 152.749C322.028 152.808 321.945 152.841 321.859 152.839Z" fill="#0E2549"/>
<path d="M319.682 95.7783L323.423 92.9597L327.662 94.9039L325.006 98.6507L327.682 136.166L322.696 147.667L316.73 136.993L322.113 98.6283L319.682 95.7783Z" fill="#DC7878"/>
<path d="M334.896 109.077C334.896 109.077 339.779 119.895 338.657 121.822C337.536 123.748 314.496 125.825 314.496 125.825L315.75 135.417C315.75 135.417 338.144 137.721 350.441 133.395L334.896 109.077Z" fill="white"/>
<path d="M329.135 136.337C321.747 136.337 315.831 135.746 315.714 135.732L315.465 135.707L314.133 125.535L314.465 125.503C314.523 125.503 320.296 124.977 326.114 124.227C336.919 122.833 338.224 121.909 338.379 121.66C339.135 120.361 336.464 113.344 334.602 109.208C334.575 109.132 334.578 109.048 334.609 108.974C334.641 108.899 334.699 108.84 334.773 108.806C334.846 108.773 334.93 108.769 335.006 108.795C335.083 108.82 335.147 108.874 335.185 108.945C335.692 110.069 340.102 119.972 338.931 121.981C338.707 122.348 338.15 123.33 326.194 124.86C321.155 125.51 316.162 125.984 314.853 126.11L316.03 135.121C318.529 135.346 338.94 137.099 350.344 133.098C350.384 133.084 350.425 133.078 350.467 133.08C350.509 133.083 350.55 133.093 350.588 133.111C350.625 133.13 350.659 133.155 350.687 133.186C350.715 133.217 350.736 133.254 350.75 133.293C350.764 133.333 350.77 133.375 350.768 133.417C350.765 133.459 350.755 133.5 350.737 133.537C350.719 133.575 350.693 133.609 350.662 133.637C350.631 133.665 350.595 133.686 350.555 133.7C344.576 135.797 336.188 136.337 329.135 136.337Z" fill="#0E2549"/>
<path d="M323.395 92.6833L330.549 96.4076L339.213 89.9929L334.525 88.1296L323.395 92.6833Z" fill="white"/>
<path d="M323.398 92.6833L318.648 97.0797L311.891 94.2769L314.398 91.4538L323.398 92.6833Z" fill="white"/>
<path d="M339.906 89.9052L334.524 87.7677L323.337 92.3439L314.269 91.1886L311.004 94.6432L318.326 97.4775L323.418 93.0789L330.583 96.8054L339.906 89.9052ZM318.178 96.6863L312.222 94.3802L314.559 91.9079L322.536 92.9238L318.178 96.6863ZM324.2 92.7215L334.53 88.496L338.527 90.085L330.52 96.012L324.2 92.7215Z" fill="#0E2549"/>
<path d="M317.397 104.557L317.543 106.601L310.005 107.145L309.859 105.095L317.397 104.557Z" fill="white"/>
<path d="M309.693 107.506L309.5 104.78L317.711 104.196L317.904 106.913L309.693 107.506ZM310.22 105.407L310.319 106.783L317.181 106.288L317.085 104.917L310.22 105.407Z" fill="#0E2549"/>
<path d="M266.871 97.8753L274.698 129.63H320.403L311.15 97.8753H266.871Z" fill="#EBF4FE"/>
<path d="M320.853 129.967H274.428L274.366 129.711L266.438 97.5471H311.4L311.47 97.7899L320.853 129.967ZM274.96 129.293H319.954L310.898 98.2214H267.301L274.96 129.293Z" fill="#0E2549"/>
<path d="M334.104 129.63H274.738V132.63H334.104V129.63Z" fill="#A1C5E2"/>
<path d="M334.441 132.968H274.402V129.293H334.441V132.968ZM275.075 132.293H333.768V129.967H275.075V132.293Z" fill="#0E2549"/>
<path d="M293.911 119.783C291.848 119.783 290.047 117.848 289.83 115.321C289.605 112.68 291.196 110.377 293.375 110.19C293.923 110.153 294.473 110.241 294.982 110.446C295.492 110.652 295.948 110.97 296.318 111.377C297.151 112.27 297.654 113.421 297.742 114.64C297.863 115.857 297.563 117.079 296.894 118.102C296.6 118.565 296.205 118.956 295.739 119.245C295.273 119.534 294.748 119.714 294.203 119.772C294.1 119.781 294.006 119.783 293.911 119.783ZM293.663 110.853C293.586 110.853 293.51 110.853 293.438 110.853C291.626 111.008 290.312 112.984 290.505 115.254C290.698 117.524 292.326 119.241 294.143 119.091C294.589 119.042 295.019 118.893 295.4 118.654C295.781 118.416 296.103 118.094 296.343 117.713C296.924 116.819 297.183 115.752 297.076 114.69C297.002 113.625 296.565 112.618 295.838 111.838C295.561 111.534 295.226 111.29 294.851 111.121C294.477 110.951 294.073 110.86 293.663 110.853Z" fill="#0E2549"/>
<path d="M284.092 133.347C284.092 133.347 283.253 127.776 282.046 127.504C280.84 127.232 281.23 132.448 281.111 132.482C280.918 132.523 281.019 126.342 279.902 125.986C278.786 125.631 278.929 131.716 278.821 131.702C278.662 131.684 278.992 127.787 277.951 126.962C276.911 126.137 277.359 131.187 277.153 131.106C277.016 131.053 277.498 127.713 276.442 127.535C275.785 127.423 275.018 131.34 275.018 131.34C275.018 131.34 274.583 133.835 277.305 134.411C278.018 134.552 283.231 135.82 284.092 133.347Z" fill="white"/>
<path d="M280.828 135.175C279.658 135.149 278.494 134.998 277.356 134.725L277.237 134.698C274.252 134.067 274.701 131.295 274.707 131.268C275.533 127.045 276.253 127.166 276.49 127.207C276.598 127.225 276.701 127.265 276.793 127.324C276.886 127.383 276.966 127.459 277.029 127.549C277.118 127.02 277.269 126.71 277.515 126.591C277.619 126.544 277.734 126.529 277.846 126.548C277.958 126.568 278.061 126.62 278.143 126.699C278.455 126.991 278.67 127.371 278.76 127.789C278.895 126.708 279.108 126.004 279.462 125.753C279.538 125.698 279.626 125.662 279.719 125.647C279.812 125.633 279.907 125.64 279.996 125.67C280.547 125.845 280.85 126.726 281.048 128.279C281.102 127.913 281.272 127.574 281.532 127.313C281.612 127.247 281.707 127.201 281.808 127.178C281.909 127.155 282.014 127.155 282.115 127.18C283.425 127.488 284.194 131.936 284.398 133.291L284.409 133.368L284.385 133.442C284.084 134.314 283.192 135.175 280.828 135.175ZM276.432 127.847C276.154 128.108 275.654 129.688 275.311 131.392C275.297 131.473 274.97 133.59 277.356 134.089L277.479 134.114C281.009 134.889 283.232 134.602 283.759 133.307C283.367 130.749 282.575 127.935 281.965 127.794C281.957 127.788 281.948 127.786 281.938 127.786C281.928 127.786 281.919 127.788 281.911 127.794C281.433 128.176 281.436 130.821 281.438 131.691C281.44 132.561 281.438 132.705 281.162 132.763L281.023 132.792L280.9 132.702C280.74 132.579 280.727 132.457 280.653 131.185C280.471 128.063 280.186 126.407 279.805 126.261C279.581 126.402 279.296 127.324 279.175 130.841C279.144 131.785 279.143 131.803 279.013 131.913L278.91 132.003L278.769 131.988C278.457 131.947 278.453 131.745 278.437 130.895C278.419 129.938 278.376 127.704 277.764 127.189C277.54 127.582 277.54 129.335 277.54 130.016C277.54 131.05 277.54 131.21 277.349 131.338L277.212 131.43L277.047 131.372C276.807 131.277 276.822 131.104 276.822 130.457C276.867 128.861 276.737 127.978 276.432 127.847Z" fill="#0E2549"/>
<path d="M318.072 75.7069C317.866 75.9901 318.106 77.078 319.086 76.9252C321.602 76.5318 323.742 74.4932 323.145 74.691C322.921 74.7697 321.333 75.3091 320.275 75.5406C318.832 75.8553 318.31 75.3855 318.072 75.7069Z" fill="white"/>
<path d="M354.473 223.462L363.668 208.402L379.816 215.932L377.999 228.182L354.473 223.462Z" fill="#D2EBFC"/>
<path d="M378.277 228.584L353.93 223.7L363.533 207.966L380.181 215.73L378.277 228.584ZM355.006 223.228L377.714 227.784L379.443 216.134L363.796 208.836L355.006 223.228Z" fill="#0E2549"/>
<path d="M334.641 223.707L337.76 214.28L359.661 221.104L355.339 229.631L334.641 223.707Z" fill="#D2EBFC"/>
<path d="M355.513 230.031L334.207 223.934L337.533 213.86L360.131 220.899L355.513 230.031ZM335.066 223.477L355.163 229.231L359.178 221.306L337.982 214.7L335.066 223.477Z" fill="#0E2549"/>
<path d="M331.859 222.14H381.81L375.826 275.647L337.543 275.762L331.859 222.14Z" fill="#2E6B99"/>
<path d="M396.159 276.009H0.336413C0.24719 276.009 0.161623 275.973 0.098533 275.91C0.0354434 275.847 0 275.761 0 275.672C0 275.582 0.0354434 275.497 0.098533 275.433C0.161623 275.37 0.24719 275.335 0.336413 275.335H396.159C396.249 275.335 396.334 275.37 396.397 275.433C396.46 275.497 396.496 275.582 396.496 275.672C396.496 275.761 396.46 275.847 396.397 275.91C396.334 275.973 396.249 276.009 396.159 276.009Z" fill="#0E2549"/>
</g>
<defs>
<clipPath id="clip0">
<rect width="412" height="276" fill="white"/>
</clipPath>
</defs>
</svg>
