<svg width="80" height="80" viewBox="0 0 80 80" fill="none" xmlns="http://www.w3.org/2000/svg">
<path d="M34.3455 4.88885C37.3314 3.06391 41.2141 2.83551 44.4102 4.25068C47.8702 5.73079 50.3908 9.10526 50.9097 12.829L50.7956 12.8828C50.194 13.147 49.6192 13.4605 49.0533 13.7874C48.9192 11.4161 47.7964 9.13437 46.0183 7.56693C43.7638 5.50463 40.4246 4.73211 37.4947 5.60763C33.7819 6.62871 30.9728 10.2361 30.9258 14.0964C30.9101 17.4866 30.9303 20.8767 30.9168 24.2669C30.9168 25.0125 30.9168 25.7604 30.9168 26.5083C30.928 29.9992 30.9146 33.4879 30.9236 36.9788C30.9325 37.7289 30.9325 38.4813 30.9258 39.2314C30.9168 41.4773 30.9213 43.7255 30.9236 45.9714C30.2817 46.3453 29.6308 46.7036 28.9665 47.0373C28.9531 44.0591 28.9621 41.0832 28.9621 38.1051C28.9643 37.355 28.9576 36.6048 28.9531 35.8547C28.9688 33.1139 28.9554 30.3731 28.9621 27.6346C28.9621 26.8778 28.9643 26.1209 28.9665 25.3641C28.9509 21.8776 28.9688 18.3912 28.9576 14.9048C28.9576 14.2218 29.0023 13.5411 29.0873 12.8626C29.5078 9.58445 31.5118 6.57273 34.3455 4.88885Z" fill="#053272"/>
<path d="M49.0457 17.5693C49.6921 17.1841 50.3474 16.8124 51.0028 16.4385C51.0005 19.4144 51.005 22.3925 50.9983 25.3684C51.0028 26.1208 51.0028 26.8754 51.0005 27.6277C51.0028 30.382 51.0005 33.1362 51.0005 35.8904C50.3586 36.2598 49.7145 36.6248 49.0703 36.9921C49.0413 33.4944 49.0726 29.9946 49.0547 26.4969C49.0435 25.7535 49.0413 25.0124 49.0502 24.2689C49.0614 22.0365 49.0703 19.8017 49.0457 17.5693Z" fill="#053272"/>
<path d="M49.0601 39.2417C49.7087 38.8744 50.3528 38.5005 50.997 38.1221C51.0082 41.613 50.9903 45.1039 51.0059 48.5948C51.0082 49.2889 50.9925 49.9876 50.8986 50.6795C50.4401 54.1346 48.2214 57.2784 45.1483 58.9018C43.9629 59.5086 42.6769 60.0236 41.3237 59.9878C39.6865 59.9318 37.9823 60.1983 36.4189 59.587C32.5719 58.2905 29.5906 54.7056 29.1052 50.6571C29.7292 50.3906 30.3309 50.0704 30.9169 49.7256C31.1271 52.3454 32.4489 54.8802 34.5826 56.4365C36.6828 58.024 39.4942 58.6309 42.0573 58.0084C45.8909 57.1463 48.946 53.5658 49.0444 49.6114C49.0758 46.1541 49.0467 42.699 49.0601 39.2417Z" fill="#053272"/>
<path d="M19.3662 13.5422C22.2715 11.8381 25.982 11.5179 29.0886 12.8615C29.0036 13.5399 28.9589 14.2206 28.9589 14.9036C26.8565 13.8624 24.3515 13.6519 22.1261 14.4177C19.1447 15.3582 16.7695 17.9646 16.0985 21.0188C15.3358 24.1694 16.472 27.6693 18.8898 29.8122C19.8224 30.6586 20.9564 31.2273 22.0367 31.8566C24.347 33.1799 26.6463 34.5234 28.9544 35.8535C28.9589 36.6036 28.9656 37.3538 28.9634 38.1039C25.9574 36.3551 22.9402 34.622 19.9298 32.8799C19.3304 32.5328 18.7422 32.17 18.1897 31.7513C16.0739 30.1346 14.5978 27.6961 14.1236 25.0763C13.9715 23.2133 13.8619 21.2584 14.515 19.4738C15.3627 17.004 17.1027 14.8476 19.3662 13.5422Z" fill="#00C8E9"/>
<path d="M32.266 14.541C34.8336 16.0525 37.428 17.5147 39.9956 19.0239C40.6353 19.3978 41.2727 19.7695 41.9168 20.1368C44.301 21.4982 46.6785 22.8753 49.047 24.2681C49.0381 25.0115 49.0403 25.7527 49.0515 26.4961C46.0299 24.7518 43.0083 23.0052 39.9889 21.2564C39.2553 20.8376 38.5418 20.3853 37.7993 19.9823C35.9586 18.9254 34.1089 17.8797 32.295 16.7825C32.1765 16.0413 32.2704 15.2867 32.266 14.541Z" fill="#00C8E9"/>
<path d="M50.9964 25.3672C53.9576 27.116 56.9502 28.8111 59.9226 30.542C60.5175 30.8846 61.1058 31.2428 61.6627 31.6481C63.9641 33.3746 65.608 36.0459 65.9033 38.9278C65.8652 40.5109 66.109 42.15 65.5767 43.6794C64.7693 46.4157 62.8302 48.7892 60.3162 50.1327C57.4713 51.7136 53.9106 51.8726 50.8979 50.6791C50.9919 49.9872 51.0075 49.2885 51.0053 48.5944C52.7879 49.4363 54.8276 49.7633 56.7712 49.3624C59.4037 48.8721 61.77 47.1434 63.0315 44.7788C64.8051 41.5812 64.3622 37.3178 61.9557 34.5613C60.768 33.0902 59.0213 32.2908 57.431 31.3458C55.2906 30.1009 53.1457 28.8626 50.9986 27.6265C51.0008 26.8742 51.0008 26.1196 50.9964 25.3672Z" fill="#00C8E9"/>
<path d="M30.9275 36.9775C33.9379 38.7577 36.9842 40.4752 40.0036 42.2419C40.6499 42.6203 41.2986 42.9965 41.9472 43.3727C43.7275 44.3826 45.4966 45.4148 47.2747 46.4337C47.4693 46.5747 47.8137 46.6733 47.7444 46.9935C47.7668 47.6451 47.7332 48.2989 47.7153 48.9528C45.1522 47.4458 42.5712 45.9702 40.0013 44.4766C39.3661 44.1071 38.7309 43.7422 38.0935 43.3816C35.7093 41.9911 33.3139 40.6185 30.9297 39.2302C30.9364 38.48 30.9364 37.7277 30.9275 36.9775Z" fill="#00C8E9"/>
<path d="M52.6977 12.2634C55.0103 11.7932 57.4571 12.0373 59.6087 13.0225C62.892 14.4758 65.3836 17.6666 65.8846 21.2381C65.8846 23.0161 66.1284 24.8679 65.4753 26.5697C64.811 28.6208 63.4914 30.4189 61.8207 31.7646L61.6619 31.6504C61.105 31.2451 60.5168 30.8868 59.9218 30.5443L60.1008 30.6025C62.1338 29.2433 63.5652 27.031 63.9924 24.6238C64.2161 22.8459 64.1199 20.9784 63.3394 19.3393C62.3061 17.0083 60.2529 15.1744 57.8262 14.4041C55.5068 13.6271 52.8766 13.8779 50.7384 15.0669C47.7884 16.7441 44.8696 18.4705 41.9173 20.1387C41.2732 19.7715 40.6358 19.3998 39.9961 19.0258C43.011 17.2681 46.0394 15.5416 49.0543 13.7883C49.6201 13.4614 50.1949 13.1479 50.7966 12.8837C51.4094 12.6217 52.058 12.4538 52.6977 12.2634Z" fill="#FFAF89"/>
<path d="M36.2218 21.042C36.9644 21.445 37.6778 21.8974 38.4114 22.3161C35.3965 24.0851 32.3592 25.8115 29.3398 27.567C29.3398 26.8191 29.3398 26.0712 29.3398 25.3256C31.6391 24.0448 33.86 22.6229 36.1995 21.4204C36.2062 21.3264 36.2174 21.136 36.2218 21.042Z" fill="#FFAF89"/>
<path d="M21.2913 29.817C23.8544 28.3436 26.4332 26.8904 28.9672 25.3633C28.965 26.1201 28.9628 26.877 28.9628 27.6338C27.0371 28.7669 25.0845 29.8506 23.1678 30.9971C22.5169 30.6411 21.8907 30.247 21.2913 29.817Z" fill="#FFAF89"/>
<path d="M18.1898 31.7539C18.7422 32.1726 19.3305 32.5354 19.9299 32.8825C18.0511 34.1185 16.6824 36.08 16.1433 38.2655C15.3516 41.2571 16.2775 44.6293 18.4694 46.8103C20.7306 49.1749 24.3449 50.1176 27.4716 49.1704C28.959 48.7494 30.2383 47.8537 31.5758 47.1081C33.7475 45.8698 35.8834 44.5621 38.091 43.3843C38.7284 43.7448 39.3636 44.1098 39.9988 44.4793C36.9704 46.2303 33.9443 47.9791 30.916 49.7279C30.33 50.0728 29.7284 50.393 29.1044 50.6594C26.2863 51.8216 22.9582 51.7253 20.2094 50.4109C16.49 48.6643 13.8039 44.6696 14.0186 40.5002C13.8262 37.1213 15.5417 33.7983 18.1898 31.7539Z" fill="#FFAF89"/>
<path d="M51.0002 35.8908C52.9215 34.7511 54.8852 33.6807 56.784 32.5029C57.4394 32.8702 58.0947 33.2441 58.7455 33.6225C56.1913 35.1721 53.5745 36.6163 50.998 38.1233C50.3539 38.5017 49.7097 38.8757 49.0611 39.2429C46.6926 40.6267 44.3017 41.968 41.9465 43.3742C41.2979 42.998 40.6493 42.6219 40.0029 42.2434C43.0179 40.479 46.0551 38.7548 49.0701 36.9925C49.7142 36.6253 50.3583 36.2603 51.0002 35.8908Z" fill="#FFAF89"/>
<path d="M49.9453 63.333C50.5466 63.6018 51.1094 63.9527 51.5982 64.397C51.2846 64.8912 50.9791 65.3886 50.672 65.886C50.1575 65.5254 49.6157 65.2051 49.0723 64.8944C49.3681 64.3777 49.6591 63.8562 49.9453 63.333Z" fill="#053272"/>
<path d="M19.4141 65.1343C19.9913 64.6289 20.5444 64.0993 21.1296 63.6035C21.5702 64.4695 21.5637 65.4579 21.5927 66.4044C21.5991 67.8032 21.5894 69.202 21.5927 70.6009C21.5637 71.1192 22.0236 71.5522 22.5316 71.549C23.3339 71.5779 24.1491 71.52 24.9241 71.2995C24.863 70.6669 24.7697 70.0375 24.7376 69.4032C25.3292 68.9493 26.0865 68.7046 26.7425 68.3344C26.8502 69.1634 26.8824 70.0004 27.0142 70.8262C27.0818 71.2254 27.4805 71.4476 27.8503 71.4959C28.6767 71.6166 29.5273 71.5184 30.3263 71.2866C30.2411 70.6363 30.1881 69.9843 30.1238 69.3324C30.8023 69.0008 31.4759 68.6596 32.1496 68.3199C32.2284 69.128 32.2895 69.9393 32.3924 70.7457C32.4374 71.1401 32.8008 71.4282 33.177 71.4814C34.0259 71.6214 34.9167 71.5699 35.7302 71.2785C35.5148 70.3771 35.2238 69.495 34.8363 68.6531C35.4601 68.1638 36.0727 67.6599 36.7062 67.1851C37.2335 68.4068 37.5535 69.7316 37.5455 71.0661C37.4152 71.8934 36.9763 72.6403 36.5245 73.3325C35.9794 73.9667 35.0678 74.0488 34.2912 74.1486C33.2092 74.2436 31.8843 74.1599 31.2283 73.1538C30.7781 73.9345 29.7909 74.0263 28.987 74.139C27.8857 74.2452 26.5222 74.1889 25.8453 73.1635C25.3903 73.8895 24.4691 74.0182 23.6925 74.1277C22.7776 74.1953 21.784 74.271 20.9479 73.8186C20.1537 73.3631 19.8337 72.415 19.7999 71.5458C19.7292 69.4081 19.9463 67.2302 19.4141 65.1343Z" fill="#053272"/>
<path d="M60.843 65.1562C61.409 64.6299 61.9765 64.1067 62.5634 63.6045C63.1229 64.7232 62.9798 66.0062 62.9975 67.2134C62.9814 69.3688 63.0377 71.5242 62.9589 73.678C62.4621 73.9709 61.9492 74.2349 61.4347 74.4909C61.4202 72.6478 61.3189 70.8079 61.2611 68.9664C61.1839 67.6915 61.1919 66.3941 60.843 65.1562Z" fill="#053272"/>
<path d="M58.0296 63.9893C58.7547 64.2404 59.4011 64.6782 59.9574 65.2014C59.5876 65.7744 59.2387 66.3587 58.8801 66.9398C58.2788 66.5197 57.6485 66.1495 57.0215 65.7728C57.3543 65.1772 57.7096 64.5929 58.0296 63.9893Z" fill="#053272"/>
<path d="M30.5065 64.7461C31.2059 65.0374 31.8442 65.4544 32.4102 65.9582C32.058 66.5457 31.6882 67.1236 31.3442 67.716C30.7332 67.3071 30.1126 66.9144 29.4727 66.5522C29.8119 65.9469 30.1656 65.3513 30.5065 64.7461Z" fill="#053272"/>
<path d="M49.1148 65.5059C49.7194 65.7779 50.2885 66.1208 50.8095 66.5312C51.0024 66.1932 51.197 65.8552 51.3819 65.5123C52.0909 65.7908 52.726 66.219 53.2984 66.7196C52.9463 67.3039 52.5909 67.885 52.2388 68.4677C51.7034 68.1023 51.1487 67.7659 50.5876 67.4423C50.3834 67.79 50.1696 68.1329 49.9477 68.4693C49.3496 68.0427 48.7129 67.6773 48.0762 67.3152C48.4202 66.7115 48.7659 66.1079 49.1148 65.5059Z" fill="#053272"/>
<path d="M65.9293 68.6052C66.1833 67.8261 66.4486 67.0502 66.7027 66.2695C68.1867 67.0647 69.5871 68.3637 69.8556 70.1038C70.1322 71.2306 69.6 72.3494 68.9842 73.2621C68.1642 74.0717 66.9085 74.2134 65.8103 74.1651C65.082 74.1184 64.1366 73.9671 63.8552 73.18C63.6446 72.1691 63.778 71.1179 63.942 70.1071C64.3906 70.1376 64.8392 70.1859 65.2862 70.2455C65.3135 70.6399 65.0193 71.3256 65.5659 71.464C66.4824 71.6395 67.4374 71.5252 68.3346 71.2918C67.9439 70.0974 66.9792 69.2314 65.9293 68.6052Z" fill="#053272"/>
<path d="M13.7536 66.6514C14.4482 66.9508 15.0929 67.3532 15.6541 67.8635C15.2923 68.4478 14.9386 69.0386 14.5672 69.6164C13.9771 69.1915 13.3484 68.8245 12.7246 68.4526C13.0542 67.8458 13.4031 67.2486 13.7536 66.6514Z" fill="#053272"/>
<path d="M57.7212 68.6504C58.3499 68.1659 58.9528 67.6491 59.5976 67.1855C60.1153 68.4556 60.4835 69.8271 60.4063 71.2066C60.1957 72.0436 59.8001 72.8549 59.2438 73.5149C58.501 74.0509 57.5363 74.1362 56.6488 74.1732C55.7597 74.1877 54.8223 73.9865 54.184 73.3265C53.4492 74.4356 51.6742 74.4131 50.777 73.5149C50.1355 74.2183 49.0792 74.2746 48.2094 74.0638C48.0068 74.6771 47.8251 75.3258 47.4215 75.8409C46.7832 76.4638 45.8845 76.7021 45.0452 76.9178C43.6383 77.2027 42.098 77.3121 40.7716 76.6618C40.0931 76.3367 39.6156 75.6783 39.466 74.9459C39.1284 73.2718 39.5625 71.551 40.233 70.0138C40.7121 70.1554 41.1864 70.3132 41.6543 70.4854C41.3327 71.4931 40.9661 72.5651 41.196 73.6308C41.3086 74.2344 41.9919 74.3567 42.4968 74.4453C43.8055 74.6014 45.14 74.4034 46.3861 73.9881C46.2607 72.6295 46.0324 71.2822 45.7076 69.9574C46.3507 69.5582 47.0019 69.1719 47.6531 68.7856C47.8396 69.526 47.9489 70.2874 48.1933 71.0118C48.4602 71.8504 50.1178 71.7297 50.0728 70.7719C50.1243 70.2955 50.1532 69.8174 50.2047 69.3409C50.7417 69.3409 51.2803 69.3409 51.8189 69.3393C51.8221 70.0267 51.8237 70.7156 51.8205 71.4029C52.2739 71.5639 52.7563 71.5639 53.2258 71.4706C53.1582 70.7365 53.0778 70.0041 53.0151 69.2685C53.684 68.9305 54.3577 68.5972 55.0265 68.2576C55.1214 69.0818 55.1712 69.9092 55.2757 70.7317C55.3208 71.1663 55.7324 71.4593 56.144 71.4995C56.9656 71.609 57.8354 71.5816 58.6136 71.2629C58.3853 70.3695 58.1103 69.4874 57.7212 68.6504Z" fill="#053272"/>
<path d="M16.384 69.231C16.9435 68.7449 17.6831 68.4455 18.3053 68.0205C18.7314 69.4258 18.9678 70.8922 18.9871 72.3602C19.0289 73.2359 18.651 74.0553 18.2539 74.8102C17.995 75.3173 17.4419 75.5587 16.9467 75.7712C15.6685 76.2702 14.2649 76.4746 12.8999 76.333C11.8258 76.2042 10.62 75.7132 10.2469 74.6009C9.68743 72.8238 10.1521 70.8874 10.9078 69.2358C11.374 69.3968 11.8419 69.5545 12.3082 69.7187C11.9754 70.8101 11.5139 72.0335 11.9625 73.1538C12.3307 73.6239 13.0172 73.6577 13.5671 73.7253C14.7392 73.7768 15.9193 73.6029 17.0303 73.2214C16.9291 71.8757 16.6622 70.5493 16.384 69.231Z" fill="#053272"/>
<path d="M24.0629 74.9495C24.6803 75.1958 25.2623 75.529 25.7624 75.9701C25.9553 75.6224 26.1579 75.2811 26.3701 74.9463C27.0551 75.2537 27.7127 75.6417 28.2448 76.1809C27.8815 76.7459 27.5487 77.3302 27.1901 77.8985C26.6627 77.5186 26.108 77.1773 25.5357 76.8699C25.3331 77.2127 25.1273 77.554 24.9247 77.8969C24.3105 77.4864 23.6706 77.1162 23.0371 76.7363C23.3796 76.1407 23.7285 75.5499 24.0629 74.9495Z" fill="#053272"/>
<path d="M34.2159 74.9541C34.933 75.2165 35.5713 75.6511 36.1308 76.1662C35.7707 76.7409 35.425 77.322 35.0761 77.9031C34.4716 77.4765 33.8301 77.1095 33.1934 76.7376C33.5406 76.1469 33.8847 75.5545 34.2159 74.9541Z" fill="#053272"/>
</svg>
