<svg width="80" height="80" viewBox="0 0 80 80" fill="none" xmlns="http://www.w3.org/2000/svg">
<path d="M39.8508 39.555L13.6008 25.2587L39.8508 10.2217L66.1008 25.2587L39.8508 39.555Z" fill="#1DAAE2"/>
<path d="M39.8503 69.6292V39.5551L66.1003 25.2588V54.5921L39.8503 69.6292Z" fill="#7F8285"/>
<path d="M39.8508 69.6292V39.5551L13.6008 25.2588V54.5921L39.8508 69.6292Z" fill="#595A5B"/>
<path d="M39.9996 57.3331C39.6996 57.3331 39.3246 57.259 39.0246 57.1109L24.6996 48.7405C24.0996 48.4442 23.7996 47.7775 23.7996 47.1109V31.8516C23.7996 31.1849 24.1746 30.5183 24.7746 30.222L39.1746 22.5923C39.6996 22.296 40.3746 22.296 40.9746 22.5923L55.1496 30.222C55.7496 30.5183 56.1246 31.1849 56.1246 31.8516V40.6664C56.1246 41.3331 55.7496 41.9998 55.1496 42.2961L40.8996 49.8516C39.9996 50.3701 38.8746 49.9998 38.3496 49.1109C37.8246 48.222 38.1996 47.1109 39.0996 46.5924L52.2246 39.5553V32.9627L39.9996 26.296L27.5496 32.9627V46.1479L39.9996 53.3331L53.1996 46.0738C54.0996 45.5553 55.2246 45.9257 55.7496 46.8146C56.2746 47.7035 55.8996 48.8146 54.9996 49.3331L40.8996 57.1109C40.6746 57.259 40.2996 57.3331 39.9996 57.3331Z" fill="white"/>
<path d="M39.85 73.3326C39.7 73.3326 39.625 73.3326 39.475 73.2586L10.525 56.666C10.3 56.5178 10.15 56.2956 10.15 55.9993L10 23.9993C10 23.703 10.15 23.4808 10.375 23.3326L39.475 6.74002C39.7 6.59187 40 6.59187 40.225 6.74002L69.475 23.0363C69.7 23.1845 69.85 23.4067 69.85 23.703L70 55.703C70 55.9993 69.85 56.2215 69.625 56.3697L40.225 73.2586C40.075 73.3326 39.925 73.3326 39.85 73.3326ZM11.65 55.6289L39.85 71.7771L68.5 55.2586L68.35 24.0734L39.85 8.2215L11.5 24.3697L11.65 55.6289Z" fill="#20AAE2"/>
</svg>
