<svg width="128" height="128" viewBox="0 0 128 128" fill="none" xmlns="http://www.w3.org/2000/svg">
<path d="M90.4805 63.8101C90.4805 68.5568 89.0729 73.197 86.4357 77.1438C83.7986 81.0905 80.0503 84.1667 75.6649 85.9832C71.2795 87.7997 66.4539 88.275 61.7983 87.3489C57.1428 86.4229 52.8664 84.1371 49.5099 80.7806C46.1535 77.4242 43.8677 73.1478 42.9416 68.4922C42.0156 63.8367 42.4909 59.0111 44.3074 54.6257C46.1239 50.2402 49.2 46.492 53.1468 43.8548C57.0936 41.2176 61.7337 39.8101 66.4805 39.8101C72.8457 39.8101 78.9502 42.3386 83.451 46.8395C87.9519 51.3404 90.4805 57.4449 90.4805 63.8101Z" fill="#CCE3FF"/>
<path d="M66.4805 89.8101C61.3382 89.8101 56.3113 88.2852 52.0357 85.4283C47.76 82.5714 44.4275 78.5107 42.4596 73.7598C40.4917 69.009 39.9768 63.7812 40.9801 58.7377C41.9833 53.6942 44.4595 49.0614 48.0957 45.4253C51.7319 41.7891 56.3646 39.3129 61.4081 38.3097C66.4516 37.3064 71.6794 37.8213 76.4302 39.7892C81.1811 41.7571 85.2418 45.0896 88.0987 49.3652C90.9556 53.6409 92.4805 58.6677 92.4805 63.8101C92.4805 67.2244 91.808 70.6054 90.5013 73.7598C89.1947 76.9143 87.2796 79.7805 84.8653 82.1948C82.4509 84.6092 79.5847 86.5243 76.4302 87.8309C73.2758 89.1376 69.8949 89.8101 66.4805 89.8101ZM66.4805 41.8101C62.1293 41.8101 57.8758 43.1003 54.2579 45.5177C50.6401 47.9351 47.8203 51.3711 46.1551 55.391C44.49 59.411 44.0543 63.8345 44.9032 68.1021C45.7521 72.3696 47.8474 76.2897 50.9241 79.3664C54.0009 82.4432 57.9209 84.5385 62.1885 85.3873C66.4561 86.2362 70.8795 85.8005 74.8995 84.1354C78.9195 82.4703 82.3554 79.6505 84.7728 76.0326C87.1902 72.4147 88.4805 68.1613 88.4805 63.8101C88.4805 57.9753 86.1626 52.3795 82.0368 48.2537C77.911 44.1279 72.3152 41.8101 66.4805 41.8101Z" fill="#0074FF"/>
<path d="M117.15 26.5C117.15 29.6645 116.212 32.7579 114.454 35.3891C112.696 38.0203 110.197 40.0711 107.273 41.2821C104.35 42.4931 101.133 42.8099 98.029 42.1926C94.9253 41.5752 92.0743 40.0513 89.8367 37.8137C87.599 35.5761 86.0752 32.7251 85.4578 29.6214C84.8405 26.5177 85.1573 23.3007 86.3683 20.3771C87.5793 17.4534 89.6301 14.9546 92.2613 13.1965C94.8925 11.4384 97.9859 10.5 101.15 10.5C105.394 10.5 109.464 12.1857 112.464 15.1863C115.465 18.1869 117.15 22.2565 117.15 26.5Z" fill="#CCE3FF"/>
<path d="M101.15 44.5C97.5903 44.5 94.1102 43.4443 91.1501 41.4664C88.19 39.4886 85.8829 36.6774 84.5206 33.3883C83.1582 30.0992 82.8017 26.48 83.4963 22.9884C84.1908 19.4967 85.9051 16.2894 88.4225 13.7721C90.9398 11.2547 94.1471 9.54041 97.6388 8.84588C101.13 8.15134 104.75 8.50779 108.039 9.87017C111.328 11.2325 114.139 13.5397 116.117 16.4997C118.095 19.4598 119.15 22.9399 119.15 26.5C119.15 31.2739 117.254 35.8523 113.878 39.2279C110.503 42.6036 105.924 44.5 101.15 44.5ZM101.15 12.5C98.3815 12.5 95.6747 13.3211 93.3724 14.8594C91.0701 16.3978 89.2757 18.5843 88.2161 21.1424C87.1565 23.7006 86.8792 26.5155 87.4194 29.2313C87.9596 31.947 89.293 34.4416 91.2509 36.3995C93.2088 38.3574 95.7034 39.6908 98.4191 40.231C101.135 40.7712 103.95 40.4939 106.508 39.4343C109.066 38.3747 111.253 36.5803 112.791 34.278C114.329 31.9757 115.15 29.2689 115.15 26.5C115.15 22.787 113.675 19.226 111.05 16.6005C108.424 13.975 104.863 12.5 101.15 12.5Z" fill="#0074FF"/>
<path d="M105.77 23.1899C105.77 24.1001 105.5 24.9898 104.994 25.7465C104.488 26.5032 103.769 27.0928 102.928 27.4407C102.087 27.7885 101.162 27.879 100.269 27.7007C99.3766 27.5224 98.557 27.0833 97.9141 26.439C97.2712 25.7947 96.8338 24.9741 96.6575 24.0811C96.4811 23.1882 96.5736 22.2629 96.9233 21.4226C97.273 20.5822 97.8642 19.8645 98.622 19.3602C99.3797 18.856 100.27 18.5879 101.18 18.5899C101.784 18.5899 102.382 18.7089 102.939 18.9402C103.497 19.1715 104.003 19.5105 104.429 19.9378C104.856 20.3651 105.194 20.8722 105.424 21.4303C105.654 21.9883 105.772 22.5863 105.77 23.1899Z" fill="#99C7FF"/>
<path d="M101.15 29.7801C99.8443 29.782 98.5672 29.3966 97.4806 28.6726C96.3939 27.9486 95.5464 26.9185 95.0453 25.7127C94.5442 24.5069 94.4121 23.1795 94.6656 21.8986C94.9192 20.6177 95.547 19.4407 96.4696 18.5167C97.3922 17.5927 98.5682 16.9631 99.8488 16.7076C101.129 16.4522 102.457 16.5823 103.663 17.0815C104.87 17.5808 105.901 18.4267 106.627 19.5123C107.353 20.5978 107.74 21.8743 107.74 23.1801C107.737 24.9279 107.043 26.6036 105.808 27.8405C104.573 29.0774 102.898 29.7748 101.15 29.7801ZM101.15 20.5901C100.635 20.5881 100.131 20.7392 99.7018 21.0241C99.2727 21.309 98.9379 21.715 98.7399 22.1905C98.5419 22.666 98.4895 23.1895 98.5895 23.6948C98.6895 24.2001 98.9374 24.6643 99.3016 25.0285C99.6658 25.3927 100.13 25.6406 100.635 25.7406C101.141 25.8406 101.664 25.7882 102.14 25.5902C102.615 25.3922 103.021 25.0574 103.306 24.6283C103.591 24.1992 103.742 23.6951 103.74 23.1801C103.737 22.494 103.464 21.8367 102.979 21.3516C102.493 20.8664 101.836 20.5927 101.15 20.5901Z" fill="#0074FF"/>
<path d="M101.15 27.77C98.3334 27.7713 95.6276 28.8691 93.606 30.8309C91.5845 32.7927 90.4061 35.4644 90.3203 38.28C93.2727 40.9926 97.136 42.4978 101.145 42.4978C105.155 42.4978 109.018 40.9926 111.97 38.28C111.885 35.4661 110.708 32.7959 108.688 30.8344C106.669 28.8729 103.966 27.7739 101.15 27.77Z" fill="#66ACFF"/>
<path d="M101.15 44.5002C96.6333 44.5097 92.2795 42.8132 88.96 39.7502C88.7514 39.5569 88.5864 39.3213 88.4761 39.0592C88.3657 38.7971 88.3125 38.5144 88.32 38.2301C88.4133 34.8907 89.8054 31.7194 92.2004 29.3904C94.5954 27.0613 97.8043 25.7583 101.145 25.7583C104.486 25.7583 107.695 27.0613 110.09 29.3904C112.485 31.7194 113.877 34.8907 113.97 38.2301C113.978 38.5144 113.924 38.7971 113.814 39.0592C113.704 39.3213 113.539 39.5569 113.33 39.7502C110.015 42.8142 105.664 44.5111 101.15 44.5002ZM92.39 37.4301C94.9002 39.3609 97.9782 40.4077 101.145 40.4077C104.312 40.4077 107.39 39.3609 109.9 37.4301C109.621 35.3054 108.579 33.3545 106.969 31.9412C105.358 30.5279 103.288 29.7486 101.145 29.7486C99.0021 29.7486 96.9323 30.5279 95.3214 31.9412C93.7106 33.3545 92.6687 35.3054 92.39 37.4301Z" fill="#0074FF"/>
<path d="M31.7695 63.8101C31.7695 66.1834 31.0658 68.5035 29.7472 70.4769C28.4286 72.4503 26.5545 73.9884 24.3617 74.8966C22.169 75.8049 19.7562 76.0425 17.4285 75.5795C15.1007 75.1165 12.9625 73.9736 11.2843 72.2953C9.60602 70.6171 8.46314 68.4789 8.00011 66.1511C7.53709 63.8234 7.77473 61.4106 8.68298 59.2179C9.59123 57.0252 11.1293 55.151 13.1027 53.8324C15.0761 52.5139 17.3962 51.8101 19.7695 51.8101C22.9521 51.8101 26.0044 53.0743 28.2548 55.3248C30.5053 57.5752 31.7695 60.6275 31.7695 63.8101Z" fill="#CCE3FF"/>
<path d="M19.8203 77.8101C17.0514 77.8101 14.3446 76.989 12.0423 75.4506C9.74005 73.9123 7.94563 71.7258 6.88601 69.1676C5.82638 66.6095 5.54913 63.7945 6.08932 61.0788C6.62952 58.3631 7.96289 55.8685 9.92082 53.9106C11.8788 51.9526 14.3733 50.6193 17.0891 50.0791C19.8048 49.5389 22.6197 49.8161 25.1779 50.8757C27.7361 51.9354 29.9226 53.7298 31.4609 56.0321C32.9992 58.3344 33.8203 61.0411 33.8203 63.8101C33.8203 67.5231 32.3453 71.084 29.7198 73.7095C27.0943 76.3351 23.5333 77.8101 19.8203 77.8101ZM19.8203 53.8101C17.8425 53.8101 15.9091 54.3965 14.2646 55.4954C12.6201 56.5942 11.3384 58.156 10.5815 59.9832C9.82464 61.8105 9.62661 63.8212 10.0125 65.761C10.3983 67.7008 11.3507 69.4826 12.7492 70.8811C14.1478 72.2797 15.9296 73.2321 17.8694 73.6179C19.8092 74.0038 21.8199 73.8057 23.6472 73.0489C25.4744 72.292 27.0362 71.0103 28.135 69.3658C29.2338 67.7213 29.8203 65.7879 29.8203 63.8101C29.8177 61.1596 28.7629 58.6187 26.8878 56.7455C25.0128 54.8723 22.4707 53.8201 19.8203 53.8201V53.8101Z" fill="#0074FF"/>
<path d="M23.2603 61.3401C23.2623 62.0212 23.0626 62.6876 22.6864 63.2553C22.3103 63.8231 21.7745 64.2668 21.1466 64.5306C20.5187 64.7944 19.8268 64.8665 19.158 64.7377C18.4892 64.6089 17.8735 64.2851 17.3885 63.807C16.9035 63.3289 16.5708 62.7179 16.4324 62.0511C16.2939 61.3842 16.356 60.6913 16.6107 60.0597C16.8654 59.4281 17.3013 58.8859 17.8636 58.5016C18.4259 58.1173 19.0893 57.908 19.7703 57.9001C20.2259 57.8949 20.678 57.9799 21.1006 58.1502C21.5231 58.3206 21.9077 58.573 22.2322 58.8929C22.5567 59.2127 22.8146 59.5936 22.9911 60.0137C23.1675 60.4337 23.2591 60.8845 23.2603 61.3401Z" fill="#99C7FF"/>
<path d="M19.8204 66.7901C18.742 66.7921 17.6873 66.4741 16.7898 65.8765C15.8922 65.2788 15.1921 64.4284 14.7781 63.4327C14.3641 62.437 14.2547 61.3409 14.4639 60.283C14.673 59.2252 15.1913 58.2531 15.9531 57.4899C16.7149 56.7268 17.686 56.2067 18.7434 55.9956C19.8009 55.7845 20.8972 55.8918 21.8937 56.304C22.8901 56.7162 23.7419 57.4148 24.3412 58.3112C24.9405 59.2077 25.2603 60.2618 25.2604 61.3401C25.2604 62.7838 24.6875 64.1685 23.6676 65.1903C22.6477 66.2121 21.264 66.7875 19.8204 66.7901ZM19.8204 59.9001C19.5327 59.8981 19.251 59.9818 19.011 60.1403C18.7711 60.2989 18.5837 60.5253 18.4727 60.7906C18.3617 61.056 18.3321 61.3483 18.3878 61.6305C18.4434 61.9127 18.5817 62.172 18.7851 62.3754C18.9885 62.5788 19.2478 62.7171 19.53 62.7727C19.8122 62.8283 20.1045 62.7988 20.3699 62.6878C20.6352 62.5768 20.8616 62.3894 21.0202 62.1494C21.1787 61.9095 21.2623 61.6277 21.2604 61.3401C21.2604 60.9582 21.1086 60.5919 20.8386 60.3219C20.5685 60.0518 20.2023 59.9001 19.8204 59.9001Z" fill="#0074FF"/>
<path d="M19.7704 64.7798C17.6585 64.7814 15.6302 65.6047 14.1146 67.0754C12.5991 68.5462 11.7153 70.5489 11.6504 72.6598C13.8649 74.6949 16.7628 75.8243 19.7704 75.8243C22.778 75.8243 25.6759 74.6949 27.8904 72.6598C27.8255 70.5489 26.9417 68.5462 25.4261 67.0754C23.9106 65.6047 21.8822 64.7814 19.7704 64.7798Z" fill="#66ACFF"/>
<path d="M19.8199 77.82C16.306 77.8283 12.9192 76.5065 10.3399 74.12C10.1295 73.9276 9.96264 73.6924 9.85054 73.4303C9.73843 73.1681 9.68367 72.885 9.68994 72.6C9.68994 69.916 10.7561 67.3419 12.654 65.4441C14.5519 63.5462 17.1259 62.48 19.8099 62.48C22.4939 62.48 25.068 63.5462 26.9659 65.4441C28.8637 67.3419 29.9299 69.916 29.9299 72.6C29.9375 72.8843 29.8843 73.1669 29.7739 73.429C29.6635 73.6911 29.4986 73.9267 29.2899 74.12C26.7132 76.5041 23.3304 77.8258 19.8199 77.82ZM13.8199 71.82C15.5664 73.0809 17.6658 73.7596 19.8199 73.7596C21.9741 73.7596 24.0734 73.0809 25.8199 71.82C25.5316 70.4421 24.7777 69.2055 23.6851 68.3179C22.5925 67.4302 21.2277 66.9457 19.8199 66.9457C18.4122 66.9457 17.0474 67.4302 15.9548 68.3179C14.8621 69.2055 14.1083 70.4421 13.8199 71.82Z" fill="#0074FF"/>
<path d="M55.7695 106.5C55.7695 108.873 55.0658 111.193 53.7472 113.167C52.4286 115.14 50.5545 116.678 48.3617 117.587C46.169 118.495 43.7562 118.732 41.4285 118.269C39.1007 117.806 36.9625 116.664 35.2843 114.985C33.606 113.307 32.4631 111.169 32.0001 108.841C31.5371 106.513 31.7747 104.101 32.683 101.908C33.5912 99.7151 35.1293 97.8409 37.1027 96.5224C39.0761 95.2038 41.3962 94.5 43.7695 94.5C46.9521 94.5 50.0044 95.7643 52.2548 98.0147C54.5053 100.265 55.7695 103.317 55.7695 106.5Z" fill="#CCE3FF"/>
<path d="M43.8203 120.5C41.0514 120.5 38.3446 119.679 36.0423 118.141C33.74 116.602 31.9456 114.416 30.886 111.858C29.8264 109.299 29.5491 106.484 30.0893 103.769C30.6295 101.053 31.9629 98.5584 33.9208 96.6005C35.8788 94.6426 38.3733 93.3092 41.0891 92.769C43.8048 92.2288 46.6197 92.5061 49.1779 93.5657C51.7361 94.6253 53.9226 96.4197 55.4609 98.722C56.9992 101.024 57.8203 103.731 57.8203 106.5C57.8203 110.213 56.3453 113.774 53.7198 116.4C51.0943 119.025 47.5334 120.5 43.8203 120.5ZM43.8203 96.5C41.8425 96.5 39.9091 97.0865 38.2646 98.1853C36.6201 99.2841 35.3384 100.846 34.5815 102.673C33.8246 104.5 33.6266 106.511 34.0125 108.451C34.3983 110.391 35.3507 112.173 36.7493 113.571C38.1478 114.97 39.9296 115.922 41.8694 116.308C43.8092 116.694 45.8199 116.496 47.6471 115.739C49.4744 114.982 51.0362 113.7 52.135 112.056C53.2338 110.411 53.8203 108.478 53.8203 106.5C53.8203 103.848 52.7668 101.304 50.8914 99.4289C49.016 97.5536 46.4725 96.5 43.8203 96.5Z" fill="#0074FF"/>
<path d="M47.2604 104.01C47.2603 104.691 47.0589 105.356 46.6816 105.922C46.3042 106.489 45.7678 106.931 45.1397 107.193C44.5116 107.456 43.82 107.526 43.1519 107.396C42.4837 107.266 41.869 106.942 41.3849 106.463C40.9009 105.985 40.5692 105.374 40.4316 104.707C40.294 104.041 40.3566 103.348 40.6116 102.717C40.8666 102.086 41.3026 101.545 41.8647 101.161C42.4267 100.777 43.0898 100.568 43.7704 100.56C44.2271 100.553 44.6807 100.638 45.1045 100.808C45.5283 100.979 45.9139 101.232 46.2388 101.553C46.5636 101.874 46.8213 102.257 46.9967 102.679C47.1721 103.101 47.2617 103.553 47.2604 104.01Z" fill="#99C7FF"/>
<path d="M43.8204 109.5C42.742 109.502 41.6873 109.184 40.7898 108.586C39.8922 107.989 39.1921 107.138 38.7781 106.143C38.3641 105.147 38.2547 104.051 38.4639 102.993C38.673 101.935 39.1913 100.963 39.9531 100.2C40.7149 99.4367 41.686 98.9167 42.7434 98.7056C43.8009 98.4945 44.8972 98.6018 45.8937 99.014C46.8901 99.4262 47.7419 100.125 48.3412 101.021C48.9405 101.918 49.2604 102.972 49.2604 104.05C49.2577 105.493 48.6841 106.876 47.6647 107.897C46.6454 108.919 45.2632 109.495 43.8204 109.5ZM43.8204 102.6C43.5332 102.598 43.2518 102.681 43.0121 102.84C42.7723 102.998 42.5849 103.223 42.4736 103.488C42.3623 103.753 42.3322 104.045 42.387 104.327C42.4418 104.609 42.5791 104.868 42.7815 105.072C42.9839 105.276 43.2422 105.415 43.5238 105.471C43.8053 105.528 44.0974 105.5 44.3629 105.391C44.6285 105.281 44.8555 105.095 45.0153 104.857C45.175 104.618 45.2603 104.337 45.2604 104.05C45.2657 103.857 45.2324 103.665 45.1626 103.485C45.0927 103.305 44.9877 103.141 44.8536 103.002C44.7194 102.864 44.559 102.753 44.3816 102.677C44.2041 102.601 44.0133 102.561 43.8204 102.56V102.6Z" fill="#0074FF"/>
<path d="M43.7704 107.44C41.6585 107.442 39.6302 108.265 38.1146 109.736C36.5991 111.206 35.7153 113.209 35.6504 115.32C37.8649 117.355 40.7628 118.484 43.7704 118.484C46.778 118.484 49.6759 117.355 51.8904 115.32C51.8255 113.209 50.9417 111.206 49.4261 109.736C47.9106 108.265 45.8822 107.442 43.7704 107.44Z" fill="#66ACFF"/>
<path d="M43.8199 120.5C40.3074 120.511 36.9207 119.193 34.3399 116.81C34.1295 116.618 33.9626 116.382 33.8505 116.12C33.7384 115.858 33.6837 115.575 33.6899 115.29C33.6899 112.606 34.7561 110.032 36.654 108.134C38.5519 106.236 41.1259 105.17 43.8099 105.17C46.4939 105.17 49.068 106.236 50.9659 108.134C52.8637 110.032 53.9299 112.606 53.9299 115.29C53.9375 115.574 53.8843 115.857 53.7739 116.119C53.6635 116.381 53.4986 116.617 53.2899 116.81C50.7122 119.191 47.3292 120.509 43.8199 120.5ZM37.8199 114.5C39.5664 115.761 41.6658 116.44 43.8199 116.44C45.9741 116.44 48.0734 115.761 49.8199 114.5C49.5413 113.114 48.7915 111.867 47.6977 110.971C46.6039 110.075 45.2337 109.586 43.8199 109.586C42.4062 109.586 41.036 110.075 39.9422 110.971C38.8484 111.867 38.0985 113.114 37.8199 114.5Z" fill="#0074FF"/>
<path d="M117.15 85.15C117.154 87.2612 116.531 89.3261 115.361 91.0834C114.191 92.8407 112.526 94.2114 110.577 95.022C108.627 95.8327 106.481 96.0468 104.41 95.6374C102.339 95.228 100.436 94.2133 98.9418 92.7219C97.4476 91.2305 96.4294 89.3293 96.0161 87.259C95.6027 85.1887 95.8129 83.0423 96.6199 81.0914C97.4269 79.1405 98.7945 77.4729 100.55 76.2996C102.305 75.1263 104.368 74.5 106.48 74.5C109.306 74.5 112.017 75.6214 114.017 77.6181C116.018 79.6148 117.144 82.3236 117.15 85.15Z" fill="#CCE3FF"/>
<path d="M106.48 97.8102C103.973 97.8102 101.523 97.0669 99.4395 95.6742C97.3557 94.2816 95.7317 92.3022 94.7731 89.9865C93.8144 87.6708 93.5641 85.1228 94.0538 82.6647C94.5434 80.2067 95.7511 77.9492 97.5241 76.1776C99.297 74.4061 101.556 73.2002 104.014 72.7125C106.472 72.2247 109.02 72.477 111.335 73.4375C113.65 74.398 115.628 76.0235 117.019 78.1084C118.41 80.1933 119.152 82.6439 119.15 85.1502C119.144 88.508 117.807 91.7265 115.432 94.0999C113.057 96.4732 109.837 97.8076 106.48 97.8102ZM106.48 76.4802C104.765 76.4802 103.089 76.9887 101.663 77.9414C100.237 78.8941 99.1258 80.2481 98.4695 81.8324C97.8133 83.4166 97.6416 85.1598 97.9762 86.8417C98.3107 88.5235 99.1364 90.0683 100.349 91.2808C101.561 92.4933 103.106 93.3191 104.788 93.6536C106.47 93.9882 108.213 93.8165 109.797 93.1603C111.382 92.504 112.736 91.3928 113.688 89.967C114.641 88.5412 115.15 86.865 115.15 85.1502C115.144 82.8543 114.229 80.6541 112.603 79.0325C110.978 77.4109 108.776 76.5002 106.48 76.5002V76.4802Z" fill="#0074FF"/>
<path d="M109.54 82.9501C109.54 83.5553 109.36 84.147 109.024 84.6502C108.688 85.1534 108.21 85.5456 107.651 85.7772C107.092 86.0088 106.477 86.0694 105.883 85.9513C105.289 85.8333 104.744 85.5418 104.316 85.1139C103.888 84.6859 103.597 84.1407 103.479 83.5471C103.361 82.9535 103.421 82.3383 103.653 81.7791C103.884 81.22 104.277 80.7421 104.78 80.4058C105.283 80.0696 105.875 79.8901 106.48 79.8901C107.291 79.8901 108.07 80.2125 108.644 80.7864C109.218 81.3603 109.54 82.1386 109.54 82.9501Z" fill="#99C7FF"/>
<path d="M106.48 88.0101C105.479 88.0101 104.501 87.7134 103.669 87.1574C102.837 86.6014 102.188 85.8111 101.805 84.8865C101.422 83.9619 101.322 82.9445 101.517 81.963C101.712 80.9814 102.194 80.0798 102.902 79.3722C103.61 78.6645 104.511 78.1826 105.493 77.9874C106.474 77.7921 107.492 77.8923 108.416 78.2753C109.341 78.6583 110.131 79.3068 110.687 80.1389C111.243 80.9711 111.54 81.9494 111.54 82.9501C111.537 84.2913 111.003 85.5768 110.055 86.5252C109.107 87.4735 107.821 88.0075 106.48 88.0101ZM106.48 81.8901C106.34 81.8888 106.202 81.9153 106.073 81.9681C105.943 82.0209 105.826 82.0989 105.727 82.1976C105.629 82.2963 105.551 82.4137 105.498 82.5429C105.445 82.6721 105.419 82.8106 105.42 82.9501C105.42 84.1201 107.54 84.1201 107.54 82.9501C107.541 82.8106 107.515 82.6721 107.462 82.5429C107.409 82.4137 107.331 82.2963 107.232 82.1976C107.134 82.0989 107.016 82.0209 106.887 81.9681C106.758 81.9153 106.62 81.8888 106.48 81.8901Z" fill="#0074FF"/>
<path d="M106.48 86C104.603 86.0016 102.801 86.7329 101.453 88.0391C100.106 89.3454 99.3195 91.1244 99.2598 93C101.23 94.8074 103.806 95.8102 106.48 95.8102C109.153 95.8102 111.73 94.8074 113.7 93C113.64 91.1244 112.853 89.3454 111.506 88.0391C110.159 86.7329 108.356 86.0016 106.48 86Z" fill="#66ACFF"/>
<path d="M106.48 97.82C103.305 97.8273 100.244 96.6343 97.9105 94.48C97.6988 94.2865 97.5311 94.0497 97.419 93.7857C97.3068 93.5217 97.2528 93.2367 97.2605 92.95C97.2605 90.5047 98.2319 88.1596 99.961 86.4305C101.69 84.7014 104.035 83.73 106.48 83.73C108.926 83.73 111.271 84.7014 113 86.4305C114.729 88.1596 115.7 90.5047 115.7 92.95C115.706 93.2355 115.652 93.5191 115.542 93.7826C115.432 94.0461 115.268 94.2836 115.06 94.48C112.723 96.6341 109.659 97.8269 106.48 97.82ZM101.37 92.16C102.868 93.2099 104.652 93.7731 106.48 93.7731C108.309 93.7731 110.093 93.2099 111.59 92.16C111.346 90.9859 110.704 89.932 109.773 89.1755C108.843 88.4189 107.68 88.006 106.48 88.006C105.281 88.006 104.118 88.4189 103.188 89.1755C102.257 89.932 101.615 90.9859 101.37 92.16Z" fill="#0074FF"/>
<path d="M50.4798 21.1498C50.4818 22.9979 49.9354 24.8051 48.9099 26.3426C47.8844 27.8801 46.4258 29.0788 44.7187 29.7869C43.0116 30.4951 41.1328 30.6809 39.3201 30.3208C37.5074 29.9608 35.8423 29.071 34.5354 27.7642C33.2286 26.4574 32.3389 24.7922 31.9788 22.9795C31.6187 21.1668 31.8045 19.288 32.5127 17.5809C33.2208 15.8739 34.4195 14.4153 35.957 13.3897C37.4945 12.3642 39.3017 11.8179 41.1498 11.8198C42.375 11.8198 43.5883 12.0611 44.7202 12.53C45.8522 12.9989 46.8807 13.6861 47.7471 14.5525C48.6135 15.4189 49.3007 16.4474 49.7696 17.5794C50.2385 18.7113 50.4798 19.9246 50.4798 21.1498Z" fill="#CCE3FF"/>
<path d="M41.1503 32.4998C38.9095 32.4998 36.7189 31.8353 34.8557 30.5904C32.9925 29.3454 31.5403 27.5759 30.6828 25.5056C29.8252 23.4354 29.6008 21.1573 30.038 18.9595C30.4752 16.7617 31.5543 14.7429 33.1388 13.1583C34.7233 11.5738 36.7421 10.4947 38.9399 10.0576C41.1377 9.62038 43.4158 9.84474 45.4861 10.7023C47.5564 11.5598 49.3259 13.012 50.5709 14.8752C51.8158 16.7385 52.4803 18.929 52.4803 21.1698C52.4777 24.1739 51.2831 27.0542 49.1589 29.1784C47.0347 31.3026 44.1544 32.4972 41.1503 32.4998ZM41.1503 13.8398C39.7006 13.8398 38.2834 14.2697 37.078 15.0752C35.8726 15.8806 34.9331 17.0254 34.3783 18.3648C33.8235 19.7042 33.6783 21.178 33.9612 22.5999C34.244 24.0217 34.9421 25.3278 35.9672 26.3529C36.9923 27.3781 38.2984 28.0762 39.7203 28.359C41.1422 28.6418 42.616 28.4967 43.9554 27.9419C45.2948 27.3871 46.4396 26.4476 47.245 25.2422C48.0504 24.0368 48.4803 22.6196 48.4803 21.1698C48.4829 20.2056 48.2953 19.2503 47.9281 18.3586C47.5609 17.467 47.0214 16.6566 46.3405 15.9738C45.6596 15.291 44.8506 14.7493 43.96 14.3797C43.0694 14.0101 42.1146 13.8198 41.1503 13.8199V13.8398Z" fill="#0074FF"/>
<path d="M43.8304 19.22C43.8225 19.7483 43.6587 20.2624 43.3594 20.6979C43.0602 21.1333 42.6389 21.4706 42.1486 21.6673C41.6582 21.864 41.1207 21.9114 40.6035 21.8035C40.0863 21.6957 39.6125 21.4373 39.2417 21.061C38.8709 20.6846 38.6196 20.2071 38.5194 19.6883C38.4191 19.1696 38.4745 18.6328 38.6785 18.1454C38.8824 17.658 39.2259 17.2418 39.6657 16.949C40.1055 16.6563 40.6221 16.5001 41.1504 16.5C41.5054 16.5013 41.8565 16.5728 42.1837 16.7105C42.5109 16.8481 42.8076 17.0492 43.0567 17.302C43.3059 17.5548 43.5025 17.8545 43.6353 18.1837C43.768 18.5129 43.8344 18.8651 43.8304 19.22Z" fill="#99C7FF"/>
<path d="M41.1502 23.9098C40.2222 23.9118 39.3144 23.6384 38.5419 23.1242C37.7693 22.6101 37.1666 21.8783 36.8101 21.0215C36.4536 20.1647 36.3593 19.2214 36.5391 18.3109C36.7189 17.4005 37.1648 16.5639 37.8203 15.907C38.4758 15.2501 39.3115 14.8024 40.2215 14.6206C41.1316 14.4389 42.0751 14.5312 42.9327 14.8858C43.7902 15.2405 44.5233 15.8416 45.0391 16.6131C45.5549 17.3846 45.8302 18.2918 45.8302 19.2198C45.8302 20.4619 45.3375 21.6533 44.4601 22.5326C43.5827 23.4118 42.3923 23.9071 41.1502 23.9098ZM41.1502 18.5398C40.9699 18.5398 40.7969 18.6114 40.6694 18.7389C40.5418 18.8665 40.4702 19.0394 40.4702 19.2198C40.4702 19.9698 41.8302 19.9698 41.8302 19.2198C41.8342 19.1275 41.8197 19.0354 41.7874 18.9488C41.7552 18.8623 41.7059 18.7831 41.6425 18.7159C41.5791 18.6488 41.5028 18.5951 41.4183 18.5579C41.3337 18.5208 41.2425 18.501 41.1502 18.4998V18.5398Z" fill="#0074FF"/>
<path d="M41.1501 21.8999C39.5071 21.9017 37.9291 22.5422 36.7498 23.6861C35.5704 24.8301 34.882 26.3877 34.8301 28.0299C36.5552 29.6068 38.8079 30.4812 41.1451 30.4812C43.4823 30.4812 45.735 29.6068 47.4601 28.0299C47.4132 26.3878 46.7278 24.8287 45.5495 23.684C44.3712 22.5393 42.7929 21.8992 41.1501 21.8999Z" fill="#66ACFF"/>
<path d="M41.1498 32.4998C38.3031 32.5038 35.56 31.4323 33.4698 29.4998C33.2612 29.3066 33.0962 29.071 32.9858 28.8089C32.8755 28.5468 32.8223 28.2641 32.8298 27.9798C32.9046 25.8245 33.8133 23.7824 35.3645 22.284C36.9157 20.7857 38.9881 19.9482 41.1448 19.9482C43.3015 19.9482 45.3739 20.7857 46.9251 22.284C48.4763 23.7824 49.385 25.8245 49.4598 27.9798C49.4673 28.2641 49.4141 28.5468 49.3038 28.8089C49.1934 29.071 49.0284 29.3066 48.8198 29.4998C46.7337 31.4325 43.9936 32.5043 41.1498 32.4998ZM36.9598 27.1898C38.199 28.0213 39.6575 28.4653 41.1498 28.4653C42.6421 28.4653 44.1006 28.0213 45.3398 27.1898C45.1054 26.2561 44.5658 25.4274 43.8067 24.8353C43.0476 24.2432 42.1125 23.9217 41.1498 23.9217C40.1871 23.9217 39.252 24.2432 38.4929 24.8353C37.7338 25.4274 37.1942 26.2561 36.9598 27.1898Z" fill="#0074FF"/>
<path d="M71.5202 53.5V87.26C69.8786 87.6233 68.2015 87.8011 66.5202 87.79C60.4534 87.8176 54.6089 85.5078 50.2002 81.34V53.5H71.5202Z" fill="#99C7FF"/>
<path d="M71.4902 58.7999V48.1299L50.1602 53.4699V81.3599" fill="#99C7FF"/>
<path d="M52.16 81.3698H48.16V53.4998C48.1467 53.0429 48.2903 52.5953 48.5669 52.2314C48.8434 51.8675 49.2363 51.6093 49.68 51.4998L71.01 46.1698C71.3045 46.097 71.6117 46.0921 71.9084 46.1556C72.205 46.219 72.4834 46.3491 72.7223 46.5361C72.9612 46.723 73.1545 46.9618 73.2875 47.2344C73.4206 47.5071 73.4898 47.8064 73.49 48.1098V58.7798H69.49V50.6998L52.16 55.0398V81.3698Z" fill="#0074FF"/>
<path d="M82.1602 58.8598V81.9498C77.8118 85.7323 72.2435 87.8169 66.4802 87.8198H66.1602V58.8198L82.1602 58.8598Z" fill="#99C7FF"/>
<path d="M66.4802 89.8198C65.9159 89.8274 65.3684 89.6281 64.941 89.2596C64.5136 88.8912 64.2358 88.379 64.1602 87.8198V58.8198C64.1602 58.2894 64.3709 57.7807 64.7459 57.4056C65.121 57.0305 65.6297 56.8198 66.1602 56.8198H82.1602C82.6906 56.8198 83.1993 57.0305 83.5744 57.4056C83.9494 57.7807 84.1602 58.2894 84.1602 58.8198V81.9098C84.16 82.1962 84.0983 82.4793 83.9792 82.7398C83.8602 83.0003 83.6866 83.2322 83.4702 83.4198C78.7669 87.5372 72.731 89.8109 66.4802 89.8198ZM68.1602 60.8198V85.6998C72.5418 85.3604 76.7214 83.7164 80.1602 80.9798V60.8598L68.1602 60.8198Z" fill="#0074FF"/>
<path d="M76.8398 68.8301H71.5098C70.9793 68.8301 70.4706 68.6194 70.0956 68.2443C69.7205 67.8692 69.5098 67.3605 69.5098 66.8301C69.5098 66.2996 69.7205 65.7909 70.0956 65.4159C70.4706 65.0408 70.9793 64.8301 71.5098 64.8301H76.8398C77.3702 64.8301 77.8789 65.0408 78.254 65.4159C78.6291 65.7909 78.8398 66.2996 78.8398 66.8301C78.8398 67.3605 78.6291 67.8692 78.254 68.2443C77.8789 68.6194 77.3702 68.8301 76.8398 68.8301Z" fill="#0074FF"/>
<path d="M76.8398 74.1699H71.5098C70.9793 74.1699 70.4706 73.9592 70.0956 73.5841C69.7205 73.2091 69.5098 72.7004 69.5098 72.1699C69.5098 71.6395 69.7205 71.1308 70.0956 70.7557C70.4706 70.3806 70.9793 70.1699 71.5098 70.1699H76.8398C77.3702 70.1699 77.8789 70.3806 78.254 70.7557C78.6291 71.1308 78.8398 71.6395 78.8398 72.1699C78.8398 72.7004 78.6291 73.2091 78.254 73.5841C77.8789 73.9592 77.3702 74.1699 76.8398 74.1699Z" fill="#0074FF"/>
<path d="M76.8398 79.5H71.5098C70.9793 79.5 70.4706 79.2893 70.0956 78.9142C69.7205 78.5391 69.5098 78.0304 69.5098 77.5C69.5098 76.9696 69.7205 76.4609 70.0956 76.0858C70.4706 75.7107 70.9793 75.5 71.5098 75.5H76.8398C77.3702 75.5 77.8789 75.7107 78.254 76.0858C78.6291 76.4609 78.8398 76.9696 78.8398 77.5C78.8398 78.0304 78.6291 78.5391 78.254 78.9142C77.8789 79.2893 77.3702 79.5 76.8398 79.5Z" fill="#0074FF"/>
<path d="M60.8398 68.8301H55.5098C54.9793 68.8301 54.4706 68.6194 54.0956 68.2443C53.7205 67.8692 53.5098 67.3605 53.5098 66.8301C53.5098 66.2996 53.7205 65.7909 54.0956 65.4159C54.4706 65.0408 54.9793 64.8301 55.5098 64.8301H60.8398C61.3702 64.8301 61.8789 65.0408 62.254 65.4159C62.6291 65.7909 62.8398 66.2996 62.8398 66.8301C62.8398 67.3605 62.6291 67.8692 62.254 68.2443C61.8789 68.6194 61.3702 68.8301 60.8398 68.8301Z" fill="#0074FF"/>
<path d="M60.8398 63.5H55.5098C54.9793 63.5 54.4706 63.2893 54.0956 62.9142C53.7205 62.5391 53.5098 62.0304 53.5098 61.5C53.5098 60.9696 53.7205 60.4609 54.0956 60.0858C54.4706 59.7107 54.9793 59.5 55.5098 59.5H60.8398C61.3702 59.5 61.8789 59.7107 62.254 60.0858C62.6291 60.4609 62.8398 60.9696 62.8398 61.5C62.8398 62.0304 62.6291 62.5391 62.254 62.9142C61.8789 63.2893 61.3702 63.5 60.8398 63.5Z" fill="#0074FF"/>
<path d="M60.8398 74.1699H55.5098C54.9793 74.1699 54.4706 73.9592 54.0956 73.5841C53.7205 73.2091 53.5098 72.7004 53.5098 72.1699C53.5098 71.6395 53.7205 71.1308 54.0956 70.7557C54.4706 70.3806 54.9793 70.1699 55.5098 70.1699H60.8398C61.3702 70.1699 61.8789 70.3806 62.254 70.7557C62.6291 71.1308 62.8398 71.6395 62.8398 72.1699C62.8398 72.7004 62.6291 73.2091 62.254 73.5841C61.8789 73.9592 61.3702 74.1699 60.8398 74.1699Z" fill="#0074FF"/>
<path d="M60.8398 79.5H55.5098C54.9793 79.5 54.4706 79.2893 54.0956 78.9142C53.7205 78.5391 53.5098 78.0304 53.5098 77.5C53.5098 76.9696 53.7205 76.4609 54.0956 76.0858C54.4706 75.7107 54.9793 75.5 55.5098 75.5H60.8398C61.3702 75.5 61.8789 75.7107 62.254 76.0858C62.6291 76.4609 62.8398 76.9696 62.8398 77.5C62.8398 78.0304 62.6291 78.5391 62.254 78.9142C61.8789 79.2893 61.3702 79.5 60.8398 79.5Z" fill="#0074FF"/>
<path d="M81.7699 47.3498C81.3756 47.3482 80.9905 47.23 80.6632 47.0101C80.3358 46.7902 80.0808 46.4785 79.9301 46.1141C79.7794 45.7496 79.7398 45.3488 79.8163 44.962C79.8928 44.5751 80.0819 44.2195 80.3599 43.9398L88.1599 36.1398C88.5352 35.7645 89.0442 35.5537 89.5749 35.5537C90.1056 35.5537 90.6146 35.7645 90.9899 36.1398C91.3652 36.5151 91.576 37.0241 91.576 37.5548C91.576 38.0855 91.3652 38.5945 90.9899 38.9698L83.1799 46.7698C82.8049 47.1417 82.2981 47.3502 81.7699 47.3498Z" fill="#0074FF"/>
<path d="M54.3603 45.1002C53.9968 45.1011 53.6399 45.0028 53.3281 44.816C53.0162 44.6293 52.7612 44.3611 52.5903 44.0402L44.9403 29.5702C44.8012 29.3373 44.7109 29.0785 44.6749 28.8097C44.6389 28.5408 44.658 28.2673 44.731 28.0061C44.8041 27.7448 44.9295 27.5011 45.0997 27.2898C45.2699 27.0785 45.4813 26.9041 45.721 26.7771C45.9607 26.6501 46.2238 26.5732 46.4942 26.5511C46.7646 26.529 47.0366 26.5621 47.2938 26.6485C47.551 26.7348 47.7879 26.8726 47.9902 27.0534C48.1924 27.2342 48.3558 27.4543 48.4703 27.7002L56.1303 42.1702C56.3768 42.6397 56.4268 43.1878 56.2693 43.6941C56.1118 44.2004 55.7596 44.6234 55.2903 44.8702C55.0049 45.0246 54.6848 45.1038 54.3603 45.1002Z" fill="#0074FF"/>
<path d="M42.4803 65.8101H31.8203C31.2899 65.8101 30.7812 65.5993 30.4061 65.2243C30.031 64.8492 29.8203 64.3405 29.8203 63.8101C29.8203 63.2796 30.031 62.7709 30.4061 62.3958C30.7812 62.0208 31.2899 61.8101 31.8203 61.8101H42.4803C43.0107 61.8101 43.5195 62.0208 43.8945 62.3958C44.2696 62.7709 44.4803 63.2796 44.4803 63.8101C44.4803 64.3405 44.2696 64.8492 43.8945 65.2243C43.5195 65.5993 43.0107 65.8101 42.4803 65.8101Z" fill="#0074FF"/>
<path d="M49.4003 97.8699C49.1787 97.8567 48.9599 97.813 48.7503 97.7399C48.2415 97.5934 47.8115 97.2511 47.5547 96.7881C47.2979 96.3251 47.2352 95.7791 47.3803 95.2699C47.4378 95.0502 47.5362 94.8432 47.6703 94.6599C48.2603 93.7199 53.7803 84.3299 53.7803 84.3299C53.8996 84.0812 54.069 83.8599 54.2779 83.6798C54.4868 83.4998 54.7307 83.3649 54.9943 83.2836C55.2578 83.2023 55.5353 83.1765 55.8094 83.2076C56.0834 83.2387 56.348 83.3262 56.5866 83.4645C56.8252 83.6029 57.0327 83.789 57.1959 84.0114C57.3591 84.2337 57.4745 84.4874 57.535 84.7565C57.5954 85.0256 57.5995 85.3043 57.5471 85.575C57.4947 85.8458 57.3868 86.1028 57.2303 86.3299C51.4003 96.2699 50.4603 97.8699 49.4003 97.8699Z" fill="#0074FF"/>
<path d="M97.2 81.89C96.8473 81.8903 96.5013 81.7935 96.2 81.61L86.97 76.21C86.7214 76.0908 86.5 75.9213 86.32 75.7124C86.1399 75.5035 86.005 75.2596 85.9238 74.9961C85.8425 74.7325 85.8166 74.455 85.8477 74.181C85.8789 73.9069 85.9664 73.6423 86.1047 73.4037C86.243 73.1651 86.4292 72.9577 86.6515 72.7945C86.8739 72.6313 87.1275 72.5158 87.3966 72.4554C87.6657 72.3949 87.9444 72.3908 88.2152 72.4432C88.4859 72.4956 88.743 72.6035 88.97 72.76L98.2 78.16C98.5803 78.3806 98.8773 78.7204 99.0451 79.1267C99.2129 79.533 99.2421 79.9833 99.1283 80.408C99.0144 80.8326 98.7639 81.2079 98.4153 81.4758C98.0668 81.7437 97.6396 81.8893 97.2 81.89Z" fill="#0074FF"/>
<path d="M106.48 76.5C105.97 76.5009 105.479 76.3068 105.107 75.9573C104.735 75.6078 104.511 75.1294 104.48 74.62L102.48 42.26C102.464 41.9972 102.5 41.7339 102.586 41.485C102.671 41.2361 102.806 41.0066 102.98 40.8096C103.155 40.6127 103.367 40.4521 103.604 40.3372C103.84 40.2223 104.098 40.1553 104.36 40.14C104.887 40.1251 105.399 40.3112 105.792 40.6604C106.186 41.0097 106.432 41.4958 106.48 42.02L108.48 74.38C108.497 74.6427 108.461 74.9061 108.375 75.155C108.289 75.4039 108.155 75.6334 107.981 75.8303C107.806 76.0273 107.594 76.1878 107.357 76.3028C107.12 76.4177 106.863 76.4847 106.6 76.5H106.48Z" fill="#0074FF"/>
<path d="M55.8203 108.5C55.3413 108.502 54.8776 108.331 54.5135 108.02C54.1495 107.708 53.9093 107.277 53.8366 106.803C53.764 106.33 53.8637 105.846 54.1176 105.44C54.3715 105.034 54.7628 104.732 55.2203 104.59L98.6703 91.0999C98.9236 91.013 99.1919 90.9779 99.459 90.9966C99.7262 91.0153 99.9869 91.0875 100.226 91.2089C100.464 91.3303 100.676 91.4984 100.849 91.7032C101.021 91.9081 101.151 92.1455 101.23 92.4014C101.309 92.6573 101.336 92.9265 101.309 93.193C101.282 93.4594 101.202 93.7178 101.073 93.9527C100.945 94.1876 100.77 94.3942 100.56 94.5604C100.35 94.7265 100.109 94.8488 99.8503 94.9199L56.4103 108.39C56.2201 108.455 56.0213 108.492 55.8203 108.5Z" fill="#0074FF"/>
<path d="M85.1495 28.4999C85.0464 28.5095 84.9426 28.5095 84.8395 28.4999L50.1795 23.1599C49.6559 23.0786 49.186 22.7928 48.8729 22.3653C48.5597 21.9379 48.4291 21.4036 48.5095 20.8799C48.5451 20.619 48.6319 20.3677 48.7649 20.1404C48.8979 19.9131 49.0744 19.7144 49.2844 19.5555C49.4944 19.3966 49.7336 19.2808 49.9885 19.2146C50.2434 19.1484 50.5088 19.1332 50.7695 19.1699L85.4495 24.4999C85.7122 24.5196 85.9684 24.5908 86.2035 24.7095C86.4386 24.8282 86.648 24.9921 86.8198 25.1917C86.9916 25.3914 87.1224 25.6229 87.2047 25.8731C87.287 26.1233 87.3192 26.3872 87.2995 26.6499C87.2798 26.9125 87.2086 27.1687 87.0899 27.4038C86.9712 27.6389 86.8073 27.8484 86.6077 28.0201C86.408 28.1919 86.1765 28.3227 85.9263 28.405C85.6761 28.4873 85.4122 28.5196 85.1495 28.4999Z" fill="#0074FF"/>
<path d="M24.1705 54.6399C23.8957 54.6421 23.6233 54.5876 23.3705 54.4799C22.891 54.2616 22.517 53.8629 22.3298 53.3705C22.1426 52.8781 22.1572 52.3316 22.3705 51.8499L33.0305 27.2299C33.2413 26.7419 33.6374 26.3577 34.1316 26.1617C34.6257 25.9657 35.1775 25.9741 35.6655 26.1849C36.1535 26.3958 36.5377 26.7918 36.7337 27.286C36.9297 27.7801 36.9213 28.3319 36.7105 28.8199L26.0105 53.4299C25.8559 53.7895 25.5991 54.0959 25.272 54.311C24.9449 54.526 24.5619 54.6404 24.1705 54.6399Z" fill="#0074FF"/>
<path d="M35.6998 99.6598C35.3491 99.6595 35.0046 99.5669 34.701 99.3914C34.3973 99.2158 34.1452 98.9636 33.9698 98.6598L20.7698 76.4998C20.5307 76.0427 20.4775 75.5109 20.6212 75.0155C20.7649 74.5201 21.0945 74.0994 21.5411 73.8412C21.9877 73.5831 22.5168 73.5075 23.0178 73.6302C23.5189 73.7529 23.9531 74.0645 24.2298 74.4998L37.4098 96.6598C37.5845 96.9622 37.6769 97.3051 37.6778 97.6543C37.6788 98.0036 37.5883 98.3469 37.4154 98.6503C37.2425 98.9537 36.9931 99.2066 36.6921 99.3837C36.3911 99.5608 36.049 99.656 35.6998 99.6598Z" fill="#0074FF"/>
<path d="M66.4805 89.8101C61.3382 89.8101 56.3113 88.2852 52.0357 85.4283C47.76 82.5714 44.4275 78.5107 42.4596 73.7598C40.4917 69.009 39.9768 63.7812 40.9801 58.7377C41.9833 53.6942 44.4595 49.0614 48.0957 45.4253C51.7319 41.7891 56.3646 39.3129 61.4081 38.3097C66.4516 37.3064 71.6794 37.8213 76.4302 39.7892C81.1811 41.7571 85.2418 45.0896 88.0987 49.3652C90.9556 53.6409 92.4805 58.6677 92.4805 63.8101C92.4805 67.2244 91.808 70.6054 90.5013 73.7598C89.1947 76.9143 87.2796 79.7805 84.8653 82.1948C82.4509 84.6092 79.5847 86.5243 76.4302 87.8309C73.2758 89.1376 69.8949 89.8101 66.4805 89.8101ZM66.4805 41.8101C62.1293 41.8101 57.8758 43.1003 54.2579 45.5177C50.6401 47.9351 47.8203 51.3711 46.1551 55.391C44.49 59.411 44.0543 63.8345 44.9032 68.1021C45.7521 72.3696 47.8474 76.2897 50.9241 79.3664C54.0009 82.4432 57.9209 84.5385 62.1885 85.3873C66.4561 86.2362 70.8795 85.8005 74.8995 84.1354C78.9195 82.4703 82.3554 79.6505 84.7728 76.0326C87.1902 72.4147 88.4805 68.1613 88.4805 63.8101C88.4805 57.9753 86.1626 52.3795 82.0368 48.2537C77.911 44.1279 72.3152 41.8101 66.4805 41.8101Z" fill="#0074FF"/>
</svg>
