<svg width="170" height="176" viewBox="0 0 170 176" fill="none" xmlns="http://www.w3.org/2000/svg">
<path d="M138.334 10.6665H31.667V74.6665H138.334V10.6665Z" fill="#CCE3FF"/>
<path d="M138.333 76.6936H31.6667C31.1385 76.6797 30.6366 76.46 30.268 76.0815C29.8994 75.7029 29.6932 75.1953 29.6934 74.6669V10.6669C29.6934 10.1436 29.9012 9.64163 30.2713 9.27155C30.6414 8.90148 31.1433 8.69359 31.6667 8.69359H138.333C138.597 8.68647 138.859 8.73224 139.105 8.82822C139.351 8.92419 139.574 9.06841 139.763 9.25237C139.952 9.43632 140.102 9.65628 140.205 9.89924C140.307 10.1422 140.36 10.4032 140.36 10.6669V74.6669C140.36 75.2044 140.146 75.7199 139.766 76.1C139.386 76.4801 138.871 76.6936 138.333 76.6936ZM33.6934 72.6936H136.307V12.6936H33.6934V72.6936Z" fill="#0074FF"/>
<path d="M46.067 18.6665H39.667V29.3332H46.067V18.6665Z" fill="#99C7FF"/>
<path d="M46.0667 31.3603H39.6667C39.1385 31.3464 38.6366 31.1267 38.268 30.7481C37.8994 30.3695 37.6932 29.862 37.6934 29.3336V18.6669C37.6934 18.1436 37.9012 17.6416 38.2713 17.2716C38.6414 16.9015 39.1433 16.6936 39.6667 16.6936H46.0667C46.3303 16.6865 46.5926 16.7322 46.8382 16.8282C47.0838 16.9242 47.3077 17.0684 47.4967 17.2524C47.6856 17.4363 47.8357 17.6563 47.9382 17.8992C48.0407 18.1422 48.0934 18.4032 48.0933 18.6669V29.3336C48.0933 29.8711 47.8798 30.3866 47.4998 30.7667C47.1197 31.1467 46.6042 31.3603 46.0667 31.3603ZM41.6934 27.3603H44.0933V20.6936H41.6934V27.3603Z" fill="#0074FF"/>
<path d="M45 58.0268H39.6667C39.1385 58.0129 38.6366 57.7932 38.268 57.4146C37.8994 57.036 37.6932 56.5285 37.6934 56.0001V37.3334C37.6934 36.8101 37.9012 36.3081 38.2713 35.9381C38.6414 35.568 39.1433 35.3601 39.6667 35.3601H45C45.2636 35.353 45.526 35.3987 45.7716 35.4947C46.0172 35.5907 46.241 35.7349 46.43 35.9189C46.6189 36.1028 46.7691 36.3228 46.8715 36.5657C46.974 36.8087 47.0268 37.0697 47.0267 37.3334V56.0001C47.0267 56.5376 46.8131 57.0531 46.4331 57.4332C46.053 57.8132 45.5375 58.0268 45 58.0268ZM41.6934 54.0268H43.0267V39.3601H41.6934V54.0268Z" fill="#0074FF"/>
<path d="M55.6663 45.3335H50.333V56.0002H55.6663V45.3335Z" fill="#99C7FF"/>
<path d="M55.667 58.0268H50.3337C49.8055 58.0129 49.3036 57.7932 48.935 57.4146C48.5664 57.036 48.3602 56.5285 48.3604 56.0001V45.3334C48.3604 45.0743 48.4114 44.8177 48.5105 44.5783C48.6097 44.3389 48.7551 44.1213 48.9383 43.9381C49.1216 43.7548 49.3391 43.6095 49.5785 43.5103C49.8179 43.4111 50.0745 43.3601 50.3337 43.3601H55.667C55.9306 43.353 56.193 43.3987 56.4386 43.4947C56.6842 43.5907 56.908 43.7349 57.097 43.9189C57.2859 44.1028 57.436 44.3228 57.5385 44.5657C57.641 44.8087 57.6938 45.0697 57.6937 45.3334V56.0001C57.6937 56.5376 57.4801 57.0531 57.1001 57.4332C56.72 57.8132 56.2045 58.0268 55.667 58.0268ZM52.3604 54.0268H53.6937V47.3601H52.3604V54.0268Z" fill="#0074FF"/>
<path d="M66.333 58.0266H60.9997C60.4715 58.0127 59.9696 57.793 59.601 57.4145C59.2324 57.0359 59.0262 56.5283 59.0264 55.9999V39.9999C59.0264 39.7408 59.0774 39.4842 59.1766 39.2448C59.2757 39.0054 59.4211 38.7878 59.6043 38.6046C59.7876 38.4213 60.0051 38.276 60.2445 38.1768C60.4839 38.0776 60.7405 38.0266 60.9997 38.0266H66.333C66.5966 38.0195 66.859 38.0652 67.1046 38.1612C67.3502 38.2572 67.5741 38.4014 67.763 38.5854C67.9519 38.7693 68.1021 38.9893 68.2045 39.2322C68.307 39.4752 68.3598 39.7362 68.3597 39.9999V55.9999C68.3597 56.5374 68.1461 57.0529 67.7661 57.433C67.386 57.8131 66.8705 58.0266 66.333 58.0266ZM63.0264 54.0266H64.3597V42.0266H63.0264V54.0266Z" fill="#0074FF"/>
<path d="M84.9997 20.6936H52.9997C52.4715 20.6797 51.9696 20.46 51.601 20.0815C51.2324 19.7029 51.0262 19.1953 51.0264 18.6669C51.0264 18.4078 51.0774 18.1512 51.1766 17.9118C51.2757 17.6723 51.4211 17.4548 51.6043 17.2716C51.7876 17.0883 52.0051 16.943 52.2445 16.8438C52.4839 16.7446 52.7405 16.6936 52.9997 16.6936H84.9997C85.2633 16.6865 85.5256 16.7322 85.7712 16.8282C86.0168 16.9242 86.2407 17.0684 86.4296 17.2524C86.6186 17.4363 86.7687 17.6563 86.8712 17.8992C86.9737 18.1422 87.0265 18.4032 87.0264 18.6669C87.0264 19.2044 86.8128 19.7199 86.4327 20.1C86.0527 20.4801 85.5372 20.6936 84.9997 20.6936Z" fill="#0074FF"/>
<path d="M74.333 26.0266H52.9997C52.4715 26.0127 51.9696 25.793 51.601 25.4145C51.2324 25.0359 51.0262 24.5283 51.0264 23.9999C51.0264 23.7408 51.0774 23.4842 51.1766 23.2448C51.2757 23.0053 51.4211 22.7878 51.6043 22.6046C51.7876 22.4213 52.0051 22.276 52.2445 22.1768C52.4839 22.0776 52.7405 22.0266 52.9997 22.0266H74.333C74.5966 22.0195 74.859 22.0652 75.1046 22.1612C75.3502 22.2572 75.5741 22.4014 75.763 22.5854C75.9519 22.7693 76.1021 22.9893 76.2045 23.2322C76.307 23.4752 76.3598 23.7362 76.3597 23.9999C76.3597 24.5374 76.1461 25.0529 75.7661 25.433C75.386 25.8131 74.8705 26.0266 74.333 26.0266Z" fill="#0074FF"/>
<path d="M63.6663 31.3601H52.9997C52.4715 31.3462 51.9696 31.1265 51.601 30.748C51.2324 30.3694 51.0262 29.8618 51.0264 29.3334C51.0264 29.0743 51.0774 28.8177 51.1766 28.5783C51.2757 28.3388 51.4211 28.1213 51.6043 27.9381C51.7876 27.7548 52.0051 27.6095 52.2445 27.5103C52.4839 27.4111 52.7405 27.3601 52.9997 27.3601H63.6663C63.9299 27.353 64.1923 27.3987 64.4379 27.4947C64.6835 27.5907 64.9074 27.7349 65.0963 27.9189C65.2852 28.1028 65.4354 28.3228 65.5379 28.5657C65.6404 28.8087 65.6931 29.0697 65.693 29.3334C65.693 29.8709 65.4795 30.3864 65.0994 30.7665C64.7193 31.1466 64.2038 31.3601 63.6663 31.3601Z" fill="#0074FF"/>
<path d="M68.9997 58.0266H36.9997C36.4715 58.0127 35.9696 57.793 35.601 57.4145C35.2324 57.0359 35.0262 56.5283 35.0264 55.9999C35.0264 55.4765 35.2343 54.9746 35.6043 54.6046C35.9744 54.2345 36.4763 54.0266 36.9997 54.0266H68.9997C69.2633 54.0195 69.5256 54.0652 69.7712 54.1612C70.0168 54.2572 70.2407 54.4014 70.4296 54.5854C70.6186 54.7693 70.7687 54.9893 70.8712 55.2322C70.9737 55.4752 71.0265 55.7362 71.0264 55.9999C71.0264 56.5374 70.8128 57.0529 70.4327 57.433C70.0527 57.8131 69.5372 58.0266 68.9997 58.0266Z" fill="#0074FF"/>
<path d="M47.6663 68.6931H36.9997C36.4715 68.6792 35.9696 68.4595 35.601 68.081C35.2324 67.7024 35.0262 67.1948 35.0264 66.6664C35.0264 66.1431 35.2343 65.6411 35.6043 65.2711C35.9744 64.901 36.4763 64.6931 36.9997 64.6931H47.6663C47.9299 64.686 48.1923 64.7317 48.4379 64.8277C48.6835 64.9237 48.9074 65.0679 49.0963 65.2519C49.2852 65.4358 49.4354 65.6558 49.5379 65.8988C49.6404 66.1417 49.6931 66.4027 49.693 66.6664C49.693 67.2039 49.4795 67.7194 49.0994 68.0995C48.7193 68.4796 48.2038 68.6931 47.6663 68.6931Z" fill="#0074FF"/>
<path d="M130.333 55.3601H111.667C111.138 55.3462 110.637 55.1265 110.268 54.748C109.899 54.3694 109.693 53.8618 109.693 53.3334C109.693 52.81 109.901 52.3081 110.271 51.9381C110.641 51.568 111.143 51.3601 111.667 51.3601H130.333C130.597 51.353 130.859 51.3987 131.105 51.4947C131.351 51.5907 131.574 51.7349 131.763 51.9189C131.952 52.1028 132.102 52.3228 132.205 52.5657C132.307 52.8087 132.36 53.0697 132.36 53.3334C132.36 53.8709 132.146 54.3864 131.766 54.7665C131.386 55.1466 130.871 55.3601 130.333 55.3601Z" fill="#0074FF"/>
<path d="M58.333 63.3601H36.9997C36.4715 63.3462 35.9696 63.1265 35.601 62.748C35.2324 62.3694 35.0262 61.8618 35.0264 61.3334C35.0264 60.81 35.2343 60.3081 35.6043 59.9381C35.9744 59.568 36.4763 59.3601 36.9997 59.3601H58.333C58.5966 59.353 58.859 59.3987 59.1046 59.4947C59.3502 59.5907 59.5741 59.7349 59.763 59.9189C59.9519 60.1028 60.1021 60.3228 60.2045 60.5657C60.307 60.8087 60.3598 61.0697 60.3597 61.3334C60.3597 61.8709 60.1461 62.3864 59.7661 62.7665C59.386 63.1466 58.8705 63.3601 58.333 63.3601Z" fill="#0074FF"/>
<path d="M65.2668 70.1865C64.7464 70.1763 64.2498 69.9662 63.8801 69.5998L56.9468 62.6665C56.5719 62.2916 56.3613 61.7832 56.3613 61.2531C56.3613 60.723 56.5719 60.2146 56.9468 59.8398C57.3216 59.465 57.83 59.2544 58.3601 59.2544C58.8902 59.2544 59.3986 59.465 59.7734 59.8398L66.7067 66.7732C66.9751 67.0591 67.1548 67.4168 67.224 67.8028C67.2932 68.1888 67.2488 68.5866 67.0964 68.9479C66.9439 69.3092 66.6899 69.6186 66.3652 69.8385C66.0404 70.0583 65.6589 70.1792 65.2668 70.1865Z" fill="#0074FF"/>
<path d="M130.333 60.6931H111.667C111.138 60.6792 110.637 60.4595 110.268 60.081C109.899 59.7024 109.693 59.1948 109.693 58.6664C109.693 58.1431 109.901 57.6411 110.271 57.2711C110.641 56.901 111.143 56.6931 111.667 56.6931H130.333C130.597 56.686 130.859 56.7317 131.105 56.8277C131.351 56.9237 131.574 57.0679 131.763 57.2519C131.952 57.4358 132.102 57.6558 132.205 57.8988C132.307 58.1417 132.36 58.4027 132.36 58.6664C132.36 59.2039 132.146 59.7194 131.766 60.0995C131.386 60.4796 130.871 60.6931 130.333 60.6931Z" fill="#0074FF"/>
<path d="M104.733 67.6264C104.212 67.6162 103.716 67.4062 103.346 67.0398C103.158 66.8559 103.008 66.6361 102.905 66.3934C102.803 66.1507 102.75 65.8899 102.75 65.6264C102.75 65.363 102.803 65.1022 102.905 64.8595C103.008 64.6167 103.158 64.3969 103.346 64.2131L110.28 57.2798C110.654 56.9049 111.163 56.6943 111.693 56.6943C112.223 56.6943 112.731 56.9049 113.106 57.2798C113.481 57.6546 113.692 58.163 113.692 58.6931C113.692 59.2232 113.481 59.7316 113.106 60.1064L106.173 67.0398C105.787 67.4142 105.271 67.6244 104.733 67.6264Z" fill="#0074FF"/>
<path d="M117 47.3599C112.993 47.331 109.16 45.7209 106.334 42.8799C105.959 42.4938 105.749 41.9777 105.747 41.4399C105.746 41.1812 105.798 40.925 105.899 40.6867C106 40.4484 106.148 40.2329 106.334 40.0533L115.774 30.6133C115.953 30.4271 116.169 30.2791 116.407 30.1783C116.645 30.0775 116.902 30.0259 117.16 30.0266H130.494C130.757 30.0195 131.02 30.0652 131.265 30.1612C131.511 30.2572 131.735 30.4014 131.924 30.5854C132.113 30.7693 132.263 30.9893 132.365 31.2322C132.468 31.4752 132.521 31.7362 132.52 31.9999C132.521 34.0306 132.118 36.0411 131.336 37.9151C130.554 39.7892 129.408 41.4896 127.965 42.918C126.522 44.3465 124.81 45.4745 122.928 46.237C121.046 46.9994 119.031 47.3811 117 47.3599ZM110.547 41.3332C112.448 42.6364 114.695 43.3421 117 43.3599C119.663 43.3548 122.24 42.419 124.285 40.7146C126.33 39.0102 127.715 36.6444 128.2 34.0266H117.854L110.547 41.3332Z" fill="#0074FF"/>
<path d="M117 18.6665V31.9999L107.56 41.4399C105.69 39.5751 104.417 37.1972 103.9 34.6076C103.384 32.018 103.648 29.3335 104.659 26.8942C105.67 24.4549 107.383 22.3707 109.58 20.906C111.777 19.4412 114.359 18.6618 117 18.6665Z" fill="#66ACFF"/>
<path d="M107.56 43.5201C107.301 43.5208 107.045 43.4692 106.807 43.3684C106.568 43.2676 106.353 43.1197 106.173 42.9335C104.048 40.7954 102.599 38.0792 102.006 35.1233C101.414 32.1675 101.705 29.1027 102.842 26.3108C103.979 23.5189 105.913 21.1233 108.402 19.4227C110.891 17.722 113.826 16.7914 116.84 16.7468C117.103 16.7397 117.366 16.7855 117.611 16.8814C117.857 16.9774 118.081 17.1216 118.27 17.3056C118.459 17.4895 118.609 17.7095 118.711 17.9525C118.814 18.1954 118.867 18.4565 118.867 18.7201V32.0535C118.864 32.5913 118.654 33.1074 118.28 33.4935L108.84 42.9335C108.494 43.2719 108.042 43.4793 107.56 43.5201ZM115.027 20.9068C113.156 21.246 111.4 22.0494 109.92 23.2433C108.441 24.4371 107.284 25.9833 106.557 27.7401C105.83 29.4968 105.555 31.408 105.758 33.2984C105.962 35.1888 106.636 36.998 107.72 38.5601L114.973 31.2001L115.027 20.9068Z" fill="#0074FF"/>
<path d="M130.333 31.9998H117V18.6665C120.536 18.6665 123.928 20.0713 126.428 22.5717C128.929 25.0722 130.333 28.4636 130.333 31.9998Z" fill="#99C7FF"/>
<path d="M130.333 34.0267H117C116.471 34.0128 115.97 33.7931 115.601 33.4145C115.232 33.036 115.026 32.5284 115.026 32V18.6667C115.026 18.1433 115.234 17.6414 115.604 17.2713C115.974 16.9012 116.476 16.6934 117 16.6934C121.064 16.6933 124.963 18.3043 127.842 21.1733C130.721 24.0424 132.346 27.9355 132.36 32C132.36 32.5375 132.146 33.053 131.766 33.4331C131.386 33.8132 130.871 34.0267 130.333 34.0267ZM119.026 30.0267H128.2C127.776 27.7502 126.672 25.6554 125.035 24.018C123.398 22.3806 121.303 21.2773 119.026 20.8534V30.0267Z" fill="#0074FF"/>
<path d="M127.667 119.36H42.3337C41.8055 119.346 41.3036 119.127 40.935 118.748C40.5664 118.369 40.3602 117.862 40.3604 117.333C40.3604 116.81 40.5682 116.308 40.9383 115.938C41.3084 115.568 41.8103 115.36 42.3337 115.36H127.667C127.931 115.353 128.193 115.399 128.439 115.495C128.684 115.591 128.908 115.735 129.097 115.919C129.286 116.103 129.436 116.323 129.539 116.566C129.641 116.809 129.694 117.07 129.694 117.333C129.694 117.871 129.48 118.386 129.1 118.767C128.72 119.147 128.204 119.36 127.667 119.36Z" fill="#0074FF"/>
<path d="M111.88 95.0398L94.3333 90.6664L91.9333 83.3598C93.8905 82.1804 95.5088 80.5141 96.6304 78.5232C97.752 76.5323 98.3387 74.2848 98.3333 71.9998V64.8531C98.4067 61.4517 97.2318 58.1413 95.0307 55.5471C92.8296 52.9529 89.7546 51.2546 86.3867 50.7731C84.5289 50.5872 82.6528 50.7918 80.8789 51.374C79.1049 51.9562 77.4724 52.9031 76.0861 54.1537C74.6999 55.4044 73.5906 56.9312 72.8295 58.636C72.0684 60.3409 71.6723 62.1861 71.6667 64.0531V72.0531C71.672 74.3423 72.269 76.5912 73.3997 78.5816C74.5304 80.572 76.1564 82.2364 78.12 83.4131L75.6667 90.7198L58.12 95.0931C57.025 95.3738 56.0474 95.9951 55.3285 96.8674C54.6095 97.7398 54.1863 98.818 54.12 99.9465L53 117.386H117L115.933 99.9465C115.875 98.8016 115.449 97.7061 114.719 96.8223C113.989 95.9385 112.993 95.3134 111.88 95.0398Z" fill="#99C7FF"/>
<path d="M117 119.36H52.9997C52.4556 119.338 51.9404 119.109 51.5597 118.72C51.3724 118.521 51.2282 118.286 51.1364 118.029C51.0446 117.772 51.0072 117.499 51.0264 117.227L52.093 99.7866C52.1787 98.2588 52.7384 96.7957 53.6943 95.6009C54.6502 94.406 55.9547 93.5388 57.4264 93.1199L73.9064 89.0132L75.5064 84.1599C73.6284 82.7385 72.1064 80.9001 71.0606 78.7899C70.0147 76.6796 69.4735 74.3551 69.4797 71.9999V63.9999C69.472 61.8556 69.9197 59.7341 70.7931 57.7758C71.6665 55.8174 72.9458 54.0669 74.5464 52.6399C76.1419 51.2051 78.0185 50.118 80.0568 49.4478C82.0952 48.7775 84.2507 48.5387 86.3864 48.7466C90.2308 49.2899 93.7465 51.2127 96.2781 54.1564C98.8097 57.1002 100.185 60.8641 100.146 64.7466V71.9466C100.155 74.3077 99.609 76.6379 98.553 78.7499C97.4971 80.8618 95.9603 82.6965 94.0664 84.1065L95.6664 88.9599L112.146 93.0665C113.63 93.4635 114.948 94.3247 115.908 95.5241C116.867 96.7235 117.418 98.1984 117.48 99.7332L118.6 117.173C118.61 117.719 118.42 118.25 118.066 118.667C117.79 119.001 117.417 119.243 117 119.36ZM55.133 115.36H114.973L114.013 99.9999C113.983 99.2954 113.72 98.6208 113.267 98.0807C112.814 97.5406 112.195 97.1653 111.506 97.0132L93.6397 92.5865C93.32 92.506 93.0257 92.3467 92.7835 92.1231C92.5412 91.8995 92.3589 91.6187 92.253 91.3065L89.7997 83.9999C89.6595 83.5696 89.6674 83.1048 89.822 82.6795C89.9767 82.2542 90.2692 81.893 90.653 81.6532C92.2922 80.6333 93.6429 79.2107 94.5765 77.5209C95.5101 75.8311 95.9955 73.9304 95.9864 71.9999V64.8532C96.0555 61.9462 95.0572 59.1146 93.1802 56.8936C91.3032 54.6727 88.6776 53.2163 85.7997 52.7999C84.2254 52.6439 82.636 52.8184 81.1331 53.3123C79.6302 53.8062 78.2471 54.6085 77.0722 55.6679C75.8973 56.7272 74.9567 58.0203 74.3105 59.4643C73.6643 60.9083 73.3269 62.4713 73.3197 64.0532V72.0532C73.3003 73.9857 73.7813 75.8903 74.7158 77.5818C75.6504 79.2734 77.0068 80.6944 78.653 81.7066C79.0301 81.9526 79.3171 82.3144 79.471 82.7376C79.6249 83.1607 79.6373 83.6224 79.5064 84.0532L77.6397 91.5199C77.5291 91.8385 77.3386 92.1235 77.0865 92.3476C76.8344 92.5716 76.5291 92.7274 76.1997 92.7999L58.653 97.2265C57.9726 97.3945 57.3632 97.7743 56.9127 98.3111C56.4621 98.8479 56.1938 99.514 56.1464 100.213L55.133 115.36Z" fill="#0074FF"/>
<path d="M66.3337 119.36C65.8055 119.346 65.3036 119.126 64.935 118.748C64.5664 118.369 64.3602 117.861 64.3604 117.333V104C64.4381 103.525 64.6819 103.094 65.0482 102.783C65.4146 102.472 65.8797 102.301 66.3604 102.301C66.8411 102.301 67.3061 102.472 67.6724 102.783C68.0388 103.094 68.2826 103.525 68.3604 104V117.333C68.3604 117.871 68.1468 118.386 67.7667 118.766C67.3867 119.146 66.8712 119.36 66.3337 119.36Z" fill="#0074FF"/>
<path d="M104.306 119.36C103.778 119.346 103.276 119.126 102.908 118.748C102.539 118.369 102.333 117.861 102.333 117.333V104C102.411 103.525 102.655 103.094 103.021 102.783C103.387 102.472 103.852 102.301 104.333 102.301C104.814 102.301 105.279 102.472 105.645 102.783C106.011 103.094 106.255 103.525 106.333 104V117.333C106.333 117.871 106.119 118.386 105.739 118.766C105.359 119.146 104.844 119.36 104.306 119.36Z" fill="#0074FF"/>
<path d="M3.575 150.904H9.015V145.624H12.343V150.904H17.783V154.232H12.343V159.576H9.015V154.232H3.575V150.904ZM40.667 138.648C41.0937 141.187 41.307 143.064 41.307 144.28C41.307 144.344 41.275 144.632 41.211 145.144C41.659 145.763 42.2883 146.072 43.099 146.072C43.675 146.072 44.155 145.901 44.539 145.56C44.9443 145.197 45.147 144.739 45.147 144.184C45.147 143.501 44.9443 141.891 44.539 139.352L47.835 138.648C48.2617 141.187 48.475 143.064 48.475 144.28C48.475 145.283 48.251 146.189 47.803 147C47.3763 147.789 46.7683 148.408 45.979 148.856C45.211 149.304 44.3363 149.528 43.355 149.528C42.587 149.528 41.8723 149.4 41.211 149.144C40.571 148.867 40.091 148.504 39.771 148.056C39.4297 148.525 38.9283 148.888 38.267 149.144C37.627 149.4 36.923 149.528 36.155 149.528C35.1097 149.528 34.3843 149.304 33.979 148.856C34.0003 149.197 34.011 149.795 34.011 150.648V159H30.715V150.68C30.715 148.589 30.6083 146.787 30.395 145.272C30.1817 143.736 29.755 141.901 29.115 139.768L32.283 138.648L33.723 144.248C34.043 145.464 34.7683 146.072 35.899 146.072C36.475 146.072 36.9657 145.901 37.371 145.56C37.7763 145.197 37.979 144.739 37.979 144.184C37.979 143.459 37.7657 141.848 37.339 139.352L40.667 138.648ZM55.9185 156.664H52.9105L52.0465 162.648H54.5425L55.9185 156.664ZM66.178 143.16C67.2447 143.16 68.2687 143.459 69.25 144.056C70.2527 144.653 71.0527 145.443 71.65 146.424C72.2473 147.405 72.546 148.429 72.546 149.496C72.546 150.563 72.2473 151.597 71.65 152.6C71.0527 153.581 70.2527 154.371 69.25 154.968C68.2687 155.565 67.2447 155.864 66.178 155.864C65.1113 155.864 64.0767 155.565 63.074 154.968C62.0927 154.371 61.3033 153.581 60.706 152.6C60.1087 151.597 59.81 150.563 59.81 149.496C59.81 148.429 60.1087 147.405 60.706 146.424C61.3033 145.443 62.0927 144.653 63.074 144.056C64.0767 143.459 65.1113 143.16 66.178 143.16ZM66.178 152.696C66.69 152.696 67.1913 152.547 67.682 152.248C68.194 151.928 68.5993 151.523 68.898 151.032C69.218 150.52 69.378 150.008 69.378 149.496C69.378 148.984 69.218 148.483 68.898 147.992C68.5993 147.501 68.194 147.107 67.682 146.808C67.1913 146.509 66.69 146.36 66.178 146.36C65.666 146.36 65.154 146.52 64.642 146.84C64.1513 147.139 63.746 147.533 63.426 148.024C63.1273 148.493 62.978 148.984 62.978 149.496C62.978 150.008 63.1273 150.52 63.426 151.032C63.746 151.523 64.1513 151.928 64.642 152.248C65.154 152.547 65.666 152.696 66.178 152.696ZM83.5493 143.16C84.6159 143.16 85.6399 143.459 86.6213 144.056C87.6239 144.653 88.4239 145.443 89.0213 146.424C89.6186 147.405 89.9173 148.429 89.9173 149.496C89.9173 150.563 89.6186 151.597 89.0213 152.6C88.4239 153.581 87.6239 154.371 86.6213 154.968C85.6399 155.565 84.6159 155.864 83.5493 155.864C82.4826 155.864 81.4479 155.565 80.4453 154.968C79.4639 154.371 78.6746 153.581 78.0773 152.6C77.4799 151.597 77.1813 150.563 77.1813 149.496C77.1813 148.429 77.4799 147.405 78.0773 146.424C78.6746 145.443 79.4639 144.653 80.4453 144.056C81.4479 143.459 82.4826 143.16 83.5493 143.16ZM83.5493 152.696C84.0613 152.696 84.5626 152.547 85.0533 152.248C85.5653 151.928 85.9706 151.523 86.2693 151.032C86.5893 150.52 86.7493 150.008 86.7493 149.496C86.7493 148.984 86.5893 148.483 86.2693 147.992C85.9706 147.501 85.5653 147.107 85.0533 146.808C84.5626 146.509 84.0613 146.36 83.5493 146.36C83.0373 146.36 82.5253 146.52 82.0133 146.84C81.5226 147.139 81.1173 147.533 80.7973 148.024C80.4986 148.493 80.3493 148.984 80.3493 149.496C80.3493 150.008 80.4986 150.52 80.7973 151.032C81.1173 151.523 81.5226 151.928 82.0133 152.248C82.5253 152.547 83.0373 152.696 83.5493 152.696ZM100.921 143.16C101.987 143.16 103.011 143.459 103.993 144.056C104.995 144.653 105.795 145.443 106.393 146.424C106.99 147.405 107.289 148.429 107.289 149.496C107.289 150.563 106.99 151.597 106.393 152.6C105.795 153.581 104.995 154.371 103.993 154.968C103.011 155.565 101.987 155.864 100.921 155.864C99.8538 155.864 98.8192 155.565 97.8165 154.968C96.8352 154.371 96.0458 153.581 95.4485 152.6C94.8512 151.597 94.5525 150.563 94.5525 149.496C94.5525 148.429 94.8512 147.405 95.4485 146.424C96.0458 145.443 96.8352 144.653 97.8165 144.056C98.8192 143.459 99.8538 143.16 100.921 143.16ZM100.921 152.696C101.433 152.696 101.934 152.547 102.425 152.248C102.937 151.928 103.342 151.523 103.641 151.032C103.961 150.52 104.121 150.008 104.121 149.496C104.121 148.984 103.961 148.483 103.641 147.992C103.342 147.501 102.937 147.107 102.425 146.808C101.934 146.509 101.433 146.36 100.921 146.36C100.409 146.36 99.8965 146.52 99.3845 146.84C98.8938 147.139 98.4885 147.533 98.1685 148.024C97.8698 148.493 97.7205 148.984 97.7205 149.496C97.7205 150.008 97.8698 150.52 98.1685 151.032C98.4885 151.523 98.8938 151.928 99.3845 152.248C99.8965 152.547 100.409 152.696 100.921 152.696ZM115.06 156.664H112.052L111.188 162.648H113.684L115.06 156.664ZM125.319 143.16C126.386 143.16 127.41 143.459 128.391 144.056C129.394 144.653 130.194 145.443 130.791 146.424C131.389 147.405 131.687 148.429 131.687 149.496C131.687 150.563 131.389 151.597 130.791 152.6C130.194 153.581 129.394 154.371 128.391 154.968C127.41 155.565 126.386 155.864 125.319 155.864C124.253 155.864 123.218 155.565 122.215 154.968C121.234 154.371 120.445 153.581 119.847 152.6C119.25 151.597 118.951 150.563 118.951 149.496C118.951 148.429 119.25 147.405 119.847 146.424C120.445 145.443 121.234 144.653 122.215 144.056C123.218 143.459 124.253 143.16 125.319 143.16ZM125.319 152.696C125.831 152.696 126.333 152.547 126.823 152.248C127.335 151.928 127.741 151.523 128.039 151.032C128.359 150.52 128.519 150.008 128.519 149.496C128.519 148.984 128.359 148.483 128.039 147.992C127.741 147.501 127.335 147.107 126.823 146.808C126.333 146.509 125.831 146.36 125.319 146.36C124.807 146.36 124.295 146.52 123.783 146.84C123.293 147.139 122.887 147.533 122.567 148.024C122.269 148.493 122.119 148.984 122.119 149.496C122.119 150.008 122.269 150.52 122.567 151.032C122.887 151.523 123.293 151.928 123.783 152.248C124.295 152.547 124.807 152.696 125.319 152.696ZM142.691 143.16C143.757 143.16 144.781 143.459 145.763 144.056C146.765 144.653 147.565 145.443 148.163 146.424C148.76 147.405 149.059 148.429 149.059 149.496C149.059 150.563 148.76 151.597 148.163 152.6C147.565 153.581 146.765 154.371 145.763 154.968C144.781 155.565 143.757 155.864 142.691 155.864C141.624 155.864 140.589 155.565 139.587 154.968C138.605 154.371 137.816 153.581 137.219 152.6C136.621 151.597 136.323 150.563 136.323 149.496C136.323 148.429 136.621 147.405 137.219 146.424C137.816 145.443 138.605 144.653 139.587 144.056C140.589 143.459 141.624 143.16 142.691 143.16ZM142.691 152.696C143.203 152.696 143.704 152.547 144.195 152.248C144.707 151.928 145.112 151.523 145.411 151.032C145.731 150.52 145.891 150.008 145.891 149.496C145.891 148.984 145.731 148.483 145.411 147.992C145.112 147.501 144.707 147.107 144.195 146.808C143.704 146.509 143.203 146.36 142.691 146.36C142.179 146.36 141.667 146.52 141.155 146.84C140.664 147.139 140.259 147.533 139.939 148.024C139.64 148.493 139.491 148.984 139.491 149.496C139.491 150.008 139.64 150.52 139.939 151.032C140.259 151.523 140.664 151.928 141.155 152.248C141.667 152.547 142.179 152.696 142.691 152.696ZM160.062 143.16C161.128 143.16 162.152 143.459 163.134 144.056C164.136 144.653 164.936 145.443 165.534 146.424C166.131 147.405 166.43 148.429 166.43 149.496C166.43 150.563 166.131 151.597 165.534 152.6C164.936 153.581 164.136 154.371 163.134 154.968C162.152 155.565 161.128 155.864 160.062 155.864C158.995 155.864 157.96 155.565 156.958 154.968C155.976 154.371 155.187 153.581 154.59 152.6C153.992 151.597 153.694 150.563 153.694 149.496C153.694 148.429 153.992 147.405 154.59 146.424C155.187 145.443 155.976 144.653 156.958 144.056C157.96 143.459 158.995 143.16 160.062 143.16ZM160.062 152.696C160.574 152.696 161.075 152.547 161.566 152.248C162.078 151.928 162.483 151.523 162.782 151.032C163.102 150.52 163.262 150.008 163.262 149.496C163.262 148.984 163.102 148.483 162.782 147.992C162.483 147.501 162.078 147.107 161.566 146.808C161.075 146.509 160.574 146.36 160.062 146.36C159.55 146.36 159.038 146.52 158.526 146.84C158.035 147.139 157.63 147.533 157.31 148.024C157.011 148.493 156.862 148.984 156.862 149.496C156.862 150.008 157.011 150.52 157.31 151.032C157.63 151.523 158.035 151.928 158.526 152.248C159.038 152.547 159.55 152.696 160.062 152.696Z" fill="#0074FF"/>
</svg>
