<svg width="170" height="176" viewBox="0 0 170 176" fill="none" xmlns="http://www.w3.org/2000/svg">
<path d="M138.55 63.79C138.554 74.343 135.428 84.6601 129.566 93.4357C123.705 102.211 115.372 109.051 105.622 113.09C95.8727 117.128 85.1441 118.184 74.7942 116.123C64.4443 114.062 54.9383 108.978 47.4789 101.513C40.0196 94.0479 34.9422 84.538 32.8892 74.1866C30.8362 63.8351 31.8999 53.1073 35.9457 43.3606C39.9915 33.6139 46.8376 25.2863 55.6176 19.4316C64.3977 13.5768 74.7171 10.4581 85.2701 10.4699C92.286 10.4139 99.2427 11.7551 105.735 14.4154C112.227 17.0756 118.125 21.0017 123.084 25.9646C128.043 30.9276 131.965 36.8281 134.62 43.3223C137.275 49.8164 138.611 56.7742 138.55 63.79Z" fill="#CCE3FF"/>
<path d="M85.2698 119.12C72.4035 119.155 59.9258 114.713 49.9759 106.556C40.026 98.3988 33.2237 87.0343 30.7352 74.411C28.2467 61.7876 30.2271 48.6918 36.3368 37.3687C42.4465 26.0455 52.305 17.2005 64.222 12.3501C76.1389 7.49958 89.3721 6.94581 101.653 10.7837C113.933 14.6215 124.496 22.612 131.531 33.385C138.565 44.1581 141.633 57.0427 140.207 69.8298C138.782 82.6169 132.953 94.51 123.72 103.47C113.433 113.499 99.6364 119.115 85.2698 119.12ZM85.2698 12.4701C71.6594 12.4833 58.61 17.8952 48.9851 27.5183C39.3601 37.1414 33.9457 50.1896 33.9298 63.8001C33.9243 73.8871 36.8926 83.7519 42.4636 92.1609C48.0347 100.57 55.9611 107.15 65.2519 111.078C74.5426 115.006 84.7852 116.109 94.6989 114.247C104.613 112.385 113.757 107.642 120.99 100.61C125.953 95.8548 129.897 90.1389 132.581 83.8105C135.264 77.4822 136.632 70.6738 136.6 63.8001C136.584 50.1914 131.171 37.1446 121.548 27.5218C111.925 17.899 98.8785 12.4859 85.2698 12.4701Z" fill="#0074FF"/>
<path d="M104.21 36.0402V47.7802H97.8096V45.5402C97.7928 44.7107 97.5834 43.8965 97.1978 43.1619C96.8123 42.4273 96.2612 41.7924 95.588 41.3074C94.9149 40.8224 94.1381 40.5006 93.3192 40.3675C92.5003 40.2343 91.6617 40.2935 90.8696 40.5402C89.033 41.0647 87.1294 41.3174 85.2196 41.2902C83.1231 41.2881 81.038 40.9815 79.0296 40.3802C78.237 40.134 77.3974 40.0788 76.5794 40.2192C75.7614 40.3596 74.9882 40.6916 74.323 41.188C73.6579 41.6844 73.1197 42.3312 72.7523 43.0755C72.385 43.8197 72.199 44.6403 72.2096 45.4702V47.8202H65.8096V39.8202C65.8148 36.2847 67.2203 32.8951 69.7185 30.3932C72.2166 27.8913 75.604 26.4808 79.1396 26.4702H94.6096C95.4574 26.4729 96.2699 26.8108 96.8694 27.4104C97.4689 28.0099 97.8069 28.8223 97.8096 29.6702V32.8702H101.01C101.852 32.8728 102.66 33.2066 103.259 33.7997C103.858 34.3928 104.199 35.1976 104.21 36.0402Z" fill="#99C7FF"/>
<path d="M104.21 49.7802H97.8096C97.2791 49.7802 96.7704 49.5695 96.3954 49.1944C96.0203 48.8194 95.8096 48.3106 95.8096 47.7802V45.5402C95.8147 45.0514 95.7041 44.5682 95.4869 44.1303C95.2696 43.6923 94.9519 43.3119 94.5596 43.0202C94.1158 42.6852 93.5996 42.459 93.0525 42.36C92.5053 42.261 91.9426 42.2919 91.4096 42.4502C87.1451 43.6065 82.6423 43.5476 78.4096 42.2802C77.9225 42.1187 77.4036 42.0771 76.897 42.1589C76.3904 42.2408 75.9111 42.4436 75.4996 42.7502C75.0836 43.0682 74.7496 43.4809 74.5252 43.954C74.3009 44.4271 74.1926 44.9469 74.2096 45.4702V47.8202C74.2096 48.3507 73.9989 48.8594 73.6238 49.2344C73.2487 49.6095 72.74 49.8202 72.2096 49.8202H65.8096C65.2791 49.8202 64.7704 49.6095 64.3954 49.2344C64.0203 48.8594 63.8096 48.3507 63.8096 47.8202V39.8202C63.8096 35.7526 65.424 31.8513 68.2984 28.9732C71.1728 26.0951 75.072 24.4755 79.1396 24.4702H94.6096C95.9871 24.4755 97.3067 25.025 98.2807 25.9991C99.2548 26.9731 99.8043 28.2927 99.8096 29.6702V30.8702H101.01C102.388 30.8729 103.709 31.4216 104.684 32.3962C105.658 33.3708 106.207 34.6919 106.21 36.0702V47.8102C106.202 48.3354 105.988 48.8365 105.613 49.2051C105.239 49.5737 104.735 49.7803 104.21 49.7802ZM99.8096 45.7802H102.21V36.0402C102.204 35.7236 102.076 35.4213 101.852 35.1974C101.628 34.9735 101.326 34.8454 101.01 34.8402H97.8096C97.2791 34.8402 96.7704 34.6295 96.3954 34.2544C96.0203 33.8794 95.8096 33.3706 95.8096 32.8402V29.6402C95.8044 29.3236 95.6763 29.0213 95.4524 28.7974C95.2285 28.5734 94.9262 28.4454 94.6096 28.4402H79.1396C76.1346 28.4455 73.2543 29.6423 71.1304 31.7681C69.0064 33.8939 67.8122 36.7752 67.8096 39.7802V45.7802H70.2096V45.4702C70.2046 44.3191 70.4741 43.1834 70.9959 42.1573C71.5176 41.1312 72.2765 40.2443 73.2096 39.5702C74.1161 38.8916 75.1709 38.4379 76.287 38.2467C77.4032 38.0555 78.5488 38.1321 79.6296 38.4702C83.1065 39.5116 86.8048 39.5636 90.3096 38.6202C91.4412 38.2938 92.6333 38.2359 93.7913 38.4512C94.9492 38.6664 96.0409 39.1489 96.9796 39.8602C97.8628 40.5241 98.5787 41.3852 99.07 42.3749C99.5614 43.3645 99.8146 44.4553 99.8096 45.5602V45.7802Z" fill="#0074FF"/>
<path d="M94.0798 71.5399C93.6529 71.5432 93.2362 71.4098 92.8905 71.1592C92.5449 70.9086 92.2885 70.554 92.1589 70.1473C92.0293 69.7405 92.0332 69.3029 92.1701 68.8985C92.307 68.4942 92.5697 68.1442 92.9198 67.8999C93.3584 67.6034 93.77 67.2688 94.1498 66.8999C94.6279 66.529 95.0669 66.1101 95.4598 65.6499C95.8286 65.2845 96.1633 64.8862 96.4598 64.4599C96.5717 64.1999 96.7376 63.9665 96.9464 63.7754C97.1552 63.5842 97.4022 63.4395 97.6711 63.3509C97.94 63.2623 98.2246 63.2318 98.5062 63.2615C98.7877 63.2911 99.0598 63.3801 99.3044 63.5227C99.5489 63.6653 99.7604 63.8582 99.9249 64.0887C100.089 64.3191 100.203 64.5819 100.258 64.8595C100.314 65.1372 100.309 65.4234 100.246 65.6993C100.182 65.9752 100.061 66.2344 99.8898 66.4599C99.4893 67.0913 99.0306 67.6839 98.5198 68.2299C98.0024 68.8553 97.4114 69.416 96.7598 69.8999C96.3094 70.3746 95.8099 70.8004 95.2698 71.1699C94.9227 71.4168 94.5058 71.5465 94.0798 71.5399Z" fill="#0074FF"/>
<path d="M101.54 58.36H101.01C100.479 58.36 99.9706 58.1493 99.5956 57.7742C99.2205 57.3991 99.0098 56.8904 99.0098 56.36C99.0098 55.8295 99.2205 55.3208 99.5956 54.9458C99.9706 54.5707 100.479 54.36 101.01 54.36H101.54C101.984 54.0765 102.521 53.9795 103.036 54.0899C103.551 54.2004 104.001 54.5094 104.29 54.95C104.44 55.1707 104.545 55.4194 104.598 55.6814C104.651 55.9434 104.651 56.2134 104.598 56.4753C104.545 56.7373 104.44 56.9859 104.289 57.2066C104.138 57.4272 103.945 57.6154 103.72 57.76C103.071 58.1777 102.311 58.3871 101.54 58.36Z" fill="#0074FF"/>
<path d="M103.41 57.5598C102.981 57.5608 102.563 57.4238 102.218 57.169C101.872 56.9143 101.618 56.5553 101.493 56.1451C101.367 55.7348 101.377 55.2951 101.52 54.8908C101.664 54.4866 101.934 54.1391 102.29 53.8998C102.665 53.5161 103.176 53.2949 103.713 53.2837C104.249 53.2724 104.769 53.4721 105.16 53.8398C105.341 54.0201 105.485 54.2344 105.583 54.4703C105.681 54.7063 105.731 54.9593 105.731 55.2148C105.731 55.4704 105.681 55.7234 105.583 55.9593C105.485 56.1953 105.341 56.4096 105.16 56.5898C104.942 56.8131 104.712 57.0235 104.47 57.2198C104.156 57.4312 103.788 57.5491 103.41 57.5598Z" fill="#0074FF"/>
<path d="M104.21 49.8301H98.5C97.9696 49.8301 97.4609 49.6194 97.0858 49.2443C96.7107 48.8692 96.5 48.3605 96.5 47.8301C96.5 47.2996 96.7107 46.7909 97.0858 46.4159C97.4609 46.0408 97.9696 45.8301 98.5 45.8301H104.21C104.74 45.8301 105.249 46.0408 105.624 46.4159C105.999 46.7909 106.21 47.2996 106.21 47.8301C106.21 48.3605 105.999 48.8692 105.624 49.2443C105.249 49.6194 104.74 49.8301 104.21 49.8301Z" fill="#0074FF"/>
<path d="M71.5096 49.8301H65.8096C65.2791 49.8301 64.7704 49.6194 64.3954 49.2443C64.0203 48.8692 63.8096 48.3605 63.8096 47.8301C63.8096 47.2996 64.0203 46.7909 64.3954 46.4159C64.7704 46.0408 65.2791 45.8301 65.8096 45.8301H71.5096C72.04 45.8301 72.5487 46.0408 72.9238 46.4159C73.2989 46.7909 73.5096 47.2996 73.5096 47.8301C73.5096 48.3605 73.2989 48.8692 72.9238 49.2443C72.5487 49.6194 72.04 49.8301 71.5096 49.8301Z" fill="#0074FF"/>
<path d="M66.5395 57.5399C66.1833 57.535 65.8361 57.4274 65.5395 57.2299C65.2965 57.042 65.0691 56.8346 64.8595 56.6099C64.5136 56.2138 64.3314 55.7008 64.3499 55.1752C64.3685 54.6495 64.5865 54.1507 64.9596 53.7799C65.3299 53.4341 65.8178 53.2417 66.3245 53.2417C66.8313 53.2417 67.3192 53.4341 67.6895 53.7799C68.1356 54.0831 68.4465 54.5477 68.5565 55.0757C68.6666 55.6037 68.5673 56.1538 68.2796 56.6099C68.0912 56.8988 67.8329 57.1355 67.5288 57.298C67.2246 57.4606 66.8844 57.5438 66.5395 57.5399Z" fill="#0074FF"/>
<path d="M69.0098 58.3602H68.4698C67.7021 58.3871 66.9446 58.1777 66.2998 57.7602C65.8864 57.4662 65.6002 57.0261 65.4991 56.5291C65.398 56.032 65.4895 55.5151 65.7552 55.083C66.0208 54.6509 66.4407 54.3359 66.9298 54.2017C67.419 54.0674 67.9408 54.1241 68.3898 54.3602H69.0098C69.5402 54.3602 70.0489 54.5709 70.424 54.9459C70.7991 55.321 71.0098 55.8297 71.0098 56.3602C71.0098 56.8906 70.7991 57.3993 70.424 57.7744C70.0489 58.1494 69.5402 58.3602 69.0098 58.3602Z" fill="#0074FF"/>
<path d="M75.9397 71.5398C75.5274 71.5379 75.1257 71.4087 74.7897 71.1698C74.1627 70.7413 73.5738 70.2595 73.0297 69.7298C72.4951 69.3193 72.0087 68.8497 71.5797 68.3298C71.0563 67.7522 70.5845 67.1298 70.1697 66.4698C69.9766 66.0211 69.9544 65.5173 70.1073 65.0534C70.2601 64.5895 70.5775 64.1975 70.9994 63.9515C71.4214 63.7054 71.9188 63.6223 72.3978 63.7178C72.8768 63.8133 73.3043 64.0808 73.5997 64.4698C73.8725 64.8937 74.1875 65.2891 74.5397 65.6498C74.8371 66.0172 75.1723 66.3524 75.5397 66.6498C76.0065 67.0987 76.5081 67.51 77.0397 67.8798C77.3891 68.1236 77.6514 68.4727 77.7886 68.876C77.9257 69.2794 77.9304 69.716 77.8021 70.1223C77.6737 70.5286 77.419 70.8832 77.075 71.1346C76.731 71.3859 76.3158 71.5209 75.8897 71.5198L75.9397 71.5398Z" fill="#0074FF"/>
<path d="M104.21 47.7798V53.6398C104.21 54.186 104.061 54.7219 103.78 55.1898L103.41 55.5598C103.188 55.7984 102.914 55.9831 102.61 56.0998C102.274 56.2506 101.908 56.3225 101.54 56.3098H101.01C101.01 56.8498 100.95 57.3798 100.9 57.9098C100.904 58.3088 100.85 58.7064 100.74 59.0898C100.354 61.3716 99.4622 63.538 98.1296 65.4298C97.41 66.486 96.5486 67.4383 95.5696 68.2598C95.096 68.6826 94.5949 69.0734 94.0696 69.4298C92.7692 70.3146 91.3524 71.0146 89.8596 71.5098C89.8176 71.5181 89.7793 71.5391 89.7496 71.5698C89.0096 71.7798 88.2596 71.9398 87.4596 72.0998C86.6474 72.2078 85.8289 72.2613 85.0096 72.2598C84.1869 72.2633 83.3649 72.2098 82.5496 72.0998C81.7704 72.0003 81.0032 71.8227 80.2596 71.5698C80.2319 71.5365 80.1925 71.5151 80.1496 71.5098C79.3946 71.3052 78.6638 71.0203 77.9696 70.6598C77.2822 70.2844 76.6147 69.8739 75.9696 69.4298C75.4493 69.0709 74.9517 68.6801 74.4796 68.2598C73.9921 67.8424 73.5281 67.3984 73.0896 66.9298C72.6668 66.4563 72.2759 65.9552 71.9196 65.4298C70.5839 63.5538 69.679 61.406 69.2696 59.1398C69.164 58.7553 69.1102 58.3585 69.1096 57.9598C69.1096 57.4298 69.0096 56.8998 69.0096 56.3598H68.4696C68.1048 56.3724 67.742 56.3005 67.4096 56.1498C67.1039 56.0357 66.8297 55.8506 66.6096 55.6098L66.2296 55.2398C65.9567 54.7686 65.8119 54.2343 65.8096 53.6898V47.8298H72.2096V45.4698C72.2022 44.6416 72.3905 43.8234 72.7592 43.0817C73.1279 42.34 73.6665 41.6959 74.3312 41.2018C74.9959 40.7076 75.7679 40.3774 76.5843 40.2381C77.4008 40.0987 78.2386 40.1541 79.0296 40.3998C81.038 41.0011 83.1231 41.3076 85.2196 41.3098C87.1294 41.337 89.033 41.0843 90.8696 40.5598C91.6617 40.3131 92.5003 40.2539 93.3192 40.3871C94.1381 40.5202 94.9149 40.842 95.588 41.327C96.2612 41.812 96.8123 42.4468 97.1978 43.1815C97.5834 43.9161 97.7928 44.7303 97.8096 45.5598V47.7998L104.21 47.7798Z" fill="white"/>
<path d="M85.0103 74.3101C84.1006 74.3122 83.1918 74.2521 82.2903 74.1301C81.367 74.0176 80.4585 73.8064 79.5803 73.5001L79.4303 73.4401C78.5913 73.191 77.7804 72.8559 77.0103 72.4401C76.2618 72.0336 75.5342 71.5897 74.8303 71.1101C74.2318 70.7046 73.6606 70.2603 73.1203 69.7801C72.5747 69.3109 72.0571 68.81 71.5703 68.2801C71.1076 67.7538 70.6737 67.203 70.2703 66.6301C68.746 64.4986 67.7207 62.0515 67.2703 59.4701C67.1455 59.0377 67.0815 58.5901 67.0803 58.1401C66.8782 58.0782 66.681 58.0013 66.4903 57.9101C65.9837 57.7114 65.529 57.4003 65.1603 57.0001L64.7903 56.6201C64.6547 56.492 64.54 56.3436 64.4503 56.1801C64.008 55.4141 63.7768 54.5445 63.7803 53.6601V47.8001C63.7803 47.2696 63.991 46.7609 64.3661 46.3859C64.7412 46.0108 65.2499 45.8001 65.7803 45.8001H70.1803V45.4701C70.1753 44.319 70.4449 43.1833 70.9666 42.1572C71.4884 41.1311 72.2472 40.2442 73.1803 39.5701C74.0903 38.8866 75.1503 38.4303 76.2721 38.239C77.3939 38.0477 78.5453 38.1269 79.6303 38.4701C83.1072 39.5115 86.8055 39.5634 90.3103 38.6201C91.4419 38.2936 92.6341 38.2358 93.792 38.451C94.9499 38.6663 96.0416 39.1488 96.9803 39.8601C97.8635 40.5239 98.5794 41.3851 99.0708 42.3747C99.5621 43.3644 99.8154 44.4552 99.8103 45.5601V45.8001H104.21C104.741 45.8001 105.249 46.0108 105.625 46.3859C106 46.7609 106.21 47.2696 106.21 47.8001V53.6601C106.208 54.5464 105.97 55.4161 105.52 56.1801C105.434 56.3406 105.327 56.4887 105.2 56.6201L104.83 56.9901C104.386 57.4431 103.841 57.7856 103.24 57.9901C103.127 58.0416 103.01 58.085 102.89 58.1201C102.886 58.635 102.808 59.1468 102.66 59.6401C102.226 62.1366 101.238 64.5043 99.7703 66.5701C99.3638 67.1556 98.923 67.7166 98.4503 68.2501C97.9603 68.7834 97.4394 69.2876 96.8903 69.7601C96.3576 70.2265 95.8001 70.6638 95.2203 71.0701C93.7936 72.0397 92.243 72.8133 90.6103 73.3701C90.5112 73.4203 90.4074 73.4605 90.3003 73.4901C89.5003 73.7201 88.7103 73.8901 87.8503 74.0601C86.9105 74.2086 85.9616 74.2921 85.0103 74.3101ZM81.0103 69.7601C81.5947 69.9581 82.1978 70.0955 82.8103 70.1701C84.2611 70.3551 85.7295 70.3551 87.1803 70.1701C87.7703 70.0501 88.4103 69.9101 89.0603 69.7301L89.2403 69.6601C90.5549 69.2184 91.8031 68.5994 92.9503 67.8201C93.3994 67.5165 93.8271 67.1824 94.2303 66.8201C94.6609 66.4594 95.0684 66.072 95.4503 65.6601C95.8108 65.2448 96.1448 64.8073 96.4503 64.3501C97.6144 62.7042 98.3936 60.8177 98.7303 58.8301C98.8165 58.5512 98.8636 58.2618 98.8703 57.9701C98.9303 57.3001 98.9803 56.8401 98.9803 56.3701C98.9803 55.8396 99.191 55.3309 99.5661 54.9558C99.9412 54.5808 100.45 54.3701 100.98 54.3701H101.51L102.14 53.9601C102.155 53.874 102.155 53.7861 102.14 53.7001V49.8401H97.7403C97.2099 49.8401 96.7012 49.6293 96.3261 49.2543C95.951 48.8792 95.7403 48.3705 95.7403 47.8401V45.6001C95.7454 45.1112 95.6348 44.6281 95.4176 44.1901C95.2004 43.7522 94.8826 43.3718 94.4903 43.0801C94.0466 42.745 93.5303 42.5189 92.9832 42.4199C92.4361 42.3209 91.8733 42.3517 91.3403 42.5101C87.0758 43.6663 82.5731 43.6074 78.3403 42.3401C77.8532 42.1786 77.3344 42.137 76.8278 42.2188C76.3212 42.3006 75.8418 42.5034 75.4303 42.8101C75.0355 43.1293 74.7199 43.5355 74.5083 43.997C74.2966 44.4584 74.1946 44.9626 74.2103 45.4701V47.8201C74.2103 48.3505 73.9996 48.8592 73.6245 49.2343C73.2494 49.6094 72.7407 49.8201 72.2103 49.8201H67.8103V53.6801C67.806 53.8071 67.8299 53.9334 67.8803 54.0501L68.0203 54.1901L69.0203 54.3501C69.5507 54.3501 70.0595 54.5608 70.4345 54.9359C70.8096 55.3109 71.0203 55.8196 71.0203 56.3501C71.0238 56.8147 71.0538 57.2788 71.1103 57.7401C71.0999 58.0367 71.1336 58.3333 71.2103 58.6201C71.544 60.6956 72.344 62.6684 73.5503 64.3901C73.8545 64.845 74.1886 65.2793 74.5503 65.6901C74.9322 66.1051 75.3397 66.4959 75.7703 66.8601C76.1851 67.2169 76.6191 67.5507 77.0703 67.8601C77.6303 68.2301 78.2703 68.6201 78.9003 68.9701C79.4713 69.2619 80.0712 69.4931 80.6903 69.6601L81.0103 69.7601Z" fill="#0074FF"/>
<path d="M100.74 61.14C100.554 61.1379 100.369 61.111 100.19 61.06C99.9374 60.9875 99.7011 60.8657 99.4953 60.7018C99.2894 60.5378 99.1179 60.3348 98.9906 60.1044C98.8633 59.874 98.7827 59.6207 98.7536 59.3591C98.7244 59.0975 98.7471 58.8327 98.8204 58.58C98.8748 58.3778 98.9017 58.1693 98.9004 57.96C98.9004 57.4295 99.1112 56.9208 99.4862 56.5457C99.8613 56.1707 100.37 55.96 100.9 55.96C101.431 55.96 101.94 56.1707 102.315 56.5457C102.69 56.9208 102.9 57.4295 102.9 57.96C102.903 58.5451 102.822 59.1276 102.66 59.69C102.541 60.1072 102.289 60.4744 101.943 60.736C101.597 60.9975 101.174 61.1393 100.74 61.14Z" fill="#0074FF"/>
<path d="M69.2704 61.14C68.8364 61.1393 68.4143 60.9975 68.068 60.736C67.7216 60.4744 67.4697 60.1072 67.3504 59.69C67.1895 59.1274 67.1087 58.545 67.1104 57.96C67.1104 57.4295 67.3211 56.9208 67.6962 56.5457C68.0712 56.1707 68.5799 55.96 69.1104 55.96C69.6408 55.96 70.1495 56.1707 70.5246 56.5457C70.8997 56.9208 71.1104 57.4295 71.1104 57.96C71.1086 58.17 71.1389 58.3791 71.2004 58.58C71.2737 58.8327 71.2965 59.0975 71.2673 59.3591C71.2381 59.6207 71.1575 59.874 71.0302 60.1044C70.903 60.3348 70.7315 60.5378 70.5256 60.7018C70.3197 60.8657 70.0834 60.9875 69.8304 61.06C69.648 61.1111 69.4597 61.138 69.2704 61.14Z" fill="#0074FF"/>
<path d="M122.34 95.7201V102.02C112.427 111.695 99.1229 117.111 85.2704 117.11H85.1104V117.06C85.5404 116.68 87.3004 115.14 89.6504 112.84C90.1304 112.36 90.6504 111.84 91.1904 111.35C92.8504 109.7 94.6104 107.83 96.3704 105.86C96.9504 105.27 97.4304 104.63 97.9704 104.04C97.9704 103.99 97.9704 103.99 97.9704 103.94C98.5004 103.3 99.0404 102.71 99.5204 102.07C102.08 98.7101 104.21 95.3501 104.96 92.4701C105.097 91.9797 105.06 91.4571 104.856 90.9906C104.652 90.5242 104.293 90.1425 103.84 89.9101C102.84 89.3801 101.6 88.4201 101.6 87.1401C101.6 85.0001 104.48 82.6001 104.48 82.6001C105.6 83.2401 106.77 83.7801 107.94 84.3101L117.44 88.3101C118.898 88.9228 120.141 89.9536 121.013 91.2724C121.886 92.5913 122.347 94.139 122.34 95.7201Z" fill="#99C7FF"/>
<path d="M85.27 119.11C84.8685 119.11 84.4751 118.996 84.1354 118.782C83.7957 118.568 83.5234 118.262 83.35 117.9C83.1848 117.547 83.1262 117.154 83.1812 116.769C83.2363 116.383 83.4027 116.022 83.66 115.73C84.27 115.18 86 113.66 88.3 111.41L89.83 109.94C91.46 108.31 93.19 106.47 94.92 104.52C95.32 104.12 95.6 103.79 95.92 103.46L96.39 102.91C96.4442 102.82 96.5044 102.733 96.57 102.65L97.07 102.07C97.41 101.67 97.74 101.28 98.07 100.87C100.93 97.12 102.6 94.21 103.18 91.97C100.93 90.56 99.76 88.97 99.76 87.14C99.76 84.21 102.76 81.57 103.35 81.07C103.664 80.8074 104.051 80.6474 104.459 80.6117C104.866 80.5759 105.275 80.6661 105.63 80.87C106.69 81.47 107.79 81.97 108.9 82.48L118.38 86.48C120.176 87.2576 121.707 88.5419 122.785 90.1758C123.863 91.8098 124.442 93.7225 124.45 95.68V101.98C124.449 102.247 124.394 102.511 124.29 102.757C124.185 103.002 124.032 103.224 123.84 103.41C113.538 113.496 99.6875 119.134 85.27 119.11ZM99.74 105.06C99.6666 105.175 99.5865 105.285 99.5 105.39L98.94 106.04C98.59 106.45 98.23 106.87 97.83 107.27C96.12 109.19 94.34 111.08 92.66 112.76L91.11 114.26L90.52 114.83C101.714 113.699 112.217 108.892 120.39 101.16V95.72C120.389 94.5423 120.041 93.3909 119.391 92.4093C118.74 91.4277 117.814 90.6594 116.73 90.2L107.26 86.2C106.45 85.83 105.68 85.48 104.92 85.1C104.33 85.6722 103.908 86.395 103.7 87.19C103.7 87.29 104.01 87.74 104.87 88.19C105.729 88.6264 106.41 89.3475 106.797 90.2302C107.184 91.113 107.252 92.1026 106.99 93.03C106.27 95.83 104.43 99.1 101.21 103.33C100.85 103.8 100.46 104.26 100.07 104.72L99.74 105.06Z" fill="#0074FF"/>
<path d="M84.9499 117.11C70.9708 117.064 57.5741 111.505 47.6699 101.64V95.7199C47.6695 94.1518 48.13 92.6182 48.994 91.3097C49.8581 90.0011 51.0877 88.9754 52.5299 88.3599L61.9699 84.3599C63.1735 83.8545 64.3486 83.2836 65.4899 82.6499C65.4899 82.6499 68.3699 85.0499 68.3699 87.1899C68.3699 88.4699 67.1399 89.4299 66.0699 89.9599C65.6407 90.2023 65.3038 90.5801 65.112 91.0342C64.9202 91.4883 64.8843 91.9932 65.0099 92.4699C65.9099 95.8799 68.7899 100.1 72.0099 104.04C72.5399 104.63 73.0099 105.27 73.6099 105.86C74.2099 106.45 74.8299 107.24 75.4199 107.86C75.8999 108.34 76.3299 108.86 76.8099 109.3C77.4999 110 78.1399 110.69 78.8099 111.3C79.8099 112.3 80.6799 113.17 81.5299 113.91C83.2899 115.62 84.5299 116.69 84.8899 117.01L84.9499 117.11Z" fill="#99C7FF"/>
<path d="M84.9499 119.11C70.446 119.073 56.544 113.308 46.2699 103.07C46.0797 102.884 45.9287 102.661 45.8257 102.416C45.7226 102.17 45.6697 101.906 45.6699 101.64V95.72C45.674 93.772 46.2429 91.867 47.3079 90.2358C48.3729 88.6046 49.8881 87.3174 51.6699 86.53L61.1799 82.47C62.3115 81.9972 63.4165 81.4631 64.4899 80.87C64.8448 80.6661 65.2536 80.5759 65.6614 80.6117C66.0691 80.6474 66.456 80.8074 66.7699 81.07C67.3699 81.57 70.3699 84.21 70.3699 87.14C70.3699 88.96 69.1299 90.62 66.9699 91.7C67.6399 94.61 69.9699 98.35 73.5899 102.77L74.1699 103.44C74.4499 103.78 74.7399 104.12 75.0599 104.44C75.6799 105.16 76.2299 105.76 76.7399 106.32L80.2699 109.94C81.1999 110.86 82.0699 111.74 82.8999 112.46C84.1199 113.64 85.0499 114.46 85.6399 114.99C85.9899 115.3 86.2299 115.52 86.3499 115.64C86.6402 115.919 86.8394 116.28 86.9215 116.674C87.0036 117.068 86.9647 117.478 86.8099 117.85C86.6617 118.222 86.4052 118.541 86.0736 118.766C85.7419 118.991 85.3505 119.11 84.9499 119.11ZM49.6699 100.8C57.7888 108.629 68.2703 113.552 79.4799 114.8C78.8399 114.2 78.1399 113.5 77.3999 112.8L74.0499 109.34C73.2399 108.46 72.6599 107.82 72.1199 107.18C71.8299 106.91 71.4699 106.48 71.1199 106.06L70.5699 105.42C66.4399 100.42 63.9399 96.27 63.0799 93.02C62.8236 92.0981 62.8889 91.1164 63.2652 90.2366C63.6415 89.3568 64.3062 88.6315 65.1499 88.18C66.0499 87.73 66.3599 87.28 66.3799 87.18C66.1694 86.3837 65.7439 85.6607 65.1499 85.09C64.3799 85.48 63.5899 85.83 62.7699 86.18L53.3299 90.24C52.2473 90.7009 51.3241 91.4699 50.6751 92.4513C50.0261 93.4328 49.6801 94.5834 49.6799 95.76L49.6699 100.8Z" fill="#0074FF"/>
<path d="M94.0704 69.54V76.54L85.0104 83.68L75.9404 76.54V69.54C76.5774 69.9787 77.2459 70.3698 77.9404 70.71C78.6346 71.0705 79.3655 71.3554 80.1204 71.56C80.1634 71.5653 80.2027 71.5867 80.2304 71.62C80.9741 71.8729 81.7413 72.0505 82.5204 72.15C83.3314 72.3018 84.1555 72.3722 84.9804 72.36C85.802 72.3696 86.6225 72.2993 87.4304 72.15C88.2304 71.99 88.9804 71.83 89.7204 71.62C89.7501 71.5893 89.7885 71.5684 89.8304 71.56C91.3522 71.1429 92.7878 70.459 94.0704 69.54Z" fill="white"/>
<path d="M85.0104 85.7198C84.5605 85.7201 84.1236 85.5686 83.7704 85.2898L74.7004 78.1498C74.4634 77.9625 74.2719 77.724 74.1403 77.4521C74.0086 77.1801 73.9403 76.8819 73.9404 76.5798V69.5798C73.9411 69.2181 74.0399 68.8633 74.2262 68.5532C74.4126 68.2432 74.6795 67.9895 74.9987 67.8191C75.3178 67.6488 75.6771 67.5682 76.0385 67.5859C76.3998 67.6037 76.7495 67.7191 77.0504 67.9198C77.6065 68.2987 78.1917 68.6331 78.8004 68.9198C79.4043 69.2389 80.0415 69.4904 80.7004 69.6698L81.0204 69.7798C81.6048 69.9778 82.208 70.1152 82.8204 70.1898C84.2189 70.4796 85.6619 70.4796 87.0604 70.1898C87.7704 70.0498 88.4204 69.9098 89.0604 69.7298C89.1449 69.6939 89.2318 69.6638 89.3204 69.6398C90.6097 69.2744 91.8248 68.6854 92.9104 67.8998C93.2103 67.6891 93.5623 67.5648 93.9279 67.5405C94.2936 67.5162 94.659 67.5929 94.984 67.7622C95.3091 67.9314 95.5814 68.1867 95.7712 68.5002C95.9611 68.8137 96.0611 69.1734 96.0604 69.5398V76.5398C96.0606 76.8419 95.9922 77.1401 95.8606 77.412C95.729 77.684 95.5375 77.9225 95.3004 78.1098L86.2704 85.2898C85.9119 85.5729 85.4672 85.7246 85.0104 85.7198ZM77.9404 75.5998L85.0104 81.1698L92.0704 75.5998V72.9198C91.5796 73.1185 91.0789 73.292 90.5704 73.4398L90.3004 73.5398C89.5004 73.7698 88.7104 73.9398 87.8504 74.1098C85.9723 74.4848 84.0386 74.4848 82.1604 74.1098C81.2811 73.9991 80.4162 73.7946 79.5804 73.4998L79.4304 73.4398C78.8904 73.2698 78.4304 73.0998 77.9404 72.9098V75.5998Z" fill="#0074FF"/>
<path d="M77.9696 72.71C77.6788 72.7114 77.3915 72.6464 77.1296 72.52C76.3295 72.1409 75.5605 71.6995 74.8296 71.2C74.5563 71.0177 74.3322 70.7708 74.177 70.4813C74.0217 70.1918 73.9402 69.8685 73.9396 69.54C73.9351 69.1731 74.0316 68.812 74.2186 68.4963C74.4055 68.1806 74.6757 67.9224 74.9996 67.75C75.3098 67.585 75.6579 67.5046 76.009 67.5168C76.3601 67.5291 76.7018 67.6337 76.9996 67.82C77.5896 68.21 78.2296 68.6 78.8596 68.95C79.2506 69.161 79.5602 69.4963 79.7396 69.9028C79.9189 70.3093 79.9578 70.764 79.85 71.1951C79.7422 71.6262 79.494 72.0091 79.1444 72.2834C78.7949 72.5577 78.3639 72.7078 77.9196 72.71H77.9696Z" fill="#0074FF"/>
<path d="M85.0102 74.3599C84.0542 74.3737 83.0993 74.2899 82.1602 74.1099C81.6593 73.9997 81.2198 73.7012 80.9326 73.2762C80.6455 72.8512 80.5326 72.332 80.6173 71.8261C80.7021 71.3202 80.978 70.8662 81.388 70.558C81.798 70.2497 82.3107 70.1108 82.8202 70.1699C84.271 70.3549 85.7395 70.3549 87.1902 70.1699C87.7047 70.1004 88.2261 70.2337 88.6441 70.5416C89.0622 70.8495 89.3441 71.3079 89.4302 71.8199C89.5156 72.332 89.3985 72.8573 89.1037 73.2846C88.8088 73.712 88.3593 74.0079 87.8502 74.1099C86.9142 74.2873 85.9629 74.371 85.0102 74.3599Z" fill="#0074FF"/>
<path d="M89.8597 73.5602C89.3853 73.5568 88.9276 73.3849 88.5682 73.0751C88.2089 72.7654 87.9714 72.338 87.8981 71.8693C87.8247 71.4006 87.9204 70.9211 88.168 70.5164C88.4156 70.1118 88.799 69.8083 89.2497 69.6602C90.5643 69.2185 91.8125 68.5995 92.9597 67.8202C93.2599 67.6199 93.6087 67.5046 93.9692 67.4864C94.3296 67.4683 94.6883 67.548 95.0071 67.7171C95.3259 67.8863 95.593 68.1385 95.7801 68.4472C95.9671 68.7558 96.0672 69.1093 96.0697 69.4702V69.5302C96.0698 69.8492 95.9936 70.1636 95.8475 70.4472C95.7014 70.7307 95.4895 70.9752 95.2297 71.1602C93.7669 72.2147 92.1279 73.0003 90.3897 73.4802C90.2174 73.5305 90.0391 73.5574 89.8597 73.5602Z" fill="#0074FF"/>
<path d="M88.5205 90.4402L85.0005 94.1702L81.4805 90.4402L85.0005 83.7202L88.5205 90.4402Z" fill="#0074FF"/>
<path d="M85.0099 96.1698C84.7371 96.1715 84.4669 96.1174 84.2158 96.0108C83.9647 95.9041 83.7381 95.7473 83.5499 95.5498L80.0299 91.8198C79.7455 91.5163 79.5627 91.1316 79.5072 90.7194C79.4516 90.3071 79.526 89.8878 79.7199 89.5198L83.2299 82.7898C83.4175 82.4881 83.6789 82.2391 83.9895 82.0665C84.3001 81.8938 84.6496 81.8032 85.0049 81.8032C85.3602 81.8032 85.7097 81.8938 86.0203 82.0665C86.3309 82.2391 86.5923 82.4881 86.7799 82.7898L90.2999 89.5198C90.4926 89.8888 90.5653 90.3088 90.5079 90.721C90.4505 91.1333 90.266 91.5174 89.9799 91.8198L86.4599 95.5498C86.2729 95.746 86.0479 95.9022 85.7986 96.0088C85.5493 96.1154 85.281 96.1702 85.0099 96.1698ZM83.9199 90.1098L85.0099 91.2598L86.0899 90.1098L85.0099 88.0298L83.9199 90.1098Z" fill="#0074FF"/>
<path d="M90.1799 105.64C87.9399 111.4 85.3799 116.31 85.1099 117.06V117.11H84.9999L84.9499 117.06C84.6799 116.31 82.1199 111.4 79.8799 105.64C82.3399 99.4002 85.0599 94.1802 85.0599 94.1802C85.0599 94.1802 87.7299 99.4002 90.1799 105.64Z" fill="#0074FF"/>
<path d="M85.06 119.11C84.497 119.112 83.954 118.902 83.54 118.52C83.3086 118.3 83.1307 118.03 83.02 117.73C82.93 117.52 82.68 117 82.32 116.25C81.32 114.25 79.57 110.49 77.97 106.37C77.786 105.901 77.786 105.379 77.97 104.91C80.43 98.6401 83.12 93.4701 83.23 93.2501C83.4158 92.9459 83.6766 92.6947 83.9874 92.5203C84.2982 92.346 84.6486 92.2544 85.005 92.2544C85.3614 92.2544 85.7118 92.346 86.0226 92.5203C86.3334 92.6947 86.5942 92.9459 86.78 93.2501C86.89 93.4701 89.58 98.6401 92.04 104.91C92.224 105.379 92.224 105.901 92.04 106.37C90.43 110.51 88.64 114.26 87.67 116.28C87.32 117.02 87.08 117.52 86.99 117.74C86.8433 118.136 86.5807 118.478 86.2364 118.723C85.8921 118.967 85.4822 119.102 85.06 119.11ZM81.98 105.65C83.04 108.29 84.12 110.7 84.98 112.57C85.85 110.71 86.98 108.27 87.98 105.65C86.92 103.01 85.83 100.59 84.98 98.7301C84.13 100.59 83.04 103.01 81.98 105.65Z" fill="#0074FF"/>
<path d="M94.0698 76.5801V90.4701C94.0698 94.6301 92.2098 100.47 90.1798 105.67C87.7298 99.4301 85.0098 94.2101 85.0098 94.2101L88.5298 90.4701L85.0098 83.7501L94.0698 76.5801Z" fill="#99C7FF"/>
<path d="M90.18 107.64C89.7795 107.64 89.388 107.52 89.0564 107.296C88.7247 107.071 88.4682 106.752 88.32 106.38C85.93 100.31 83.26 95.1499 83.23 95.0999C83.0374 94.7309 82.9647 94.311 83.022 93.8987C83.0794 93.4864 83.2639 93.1023 83.55 92.7999L86.09 90.1099L83.27 84.6499C83.0539 84.2357 82.9895 83.7589 83.0882 83.3023C83.1868 82.8456 83.4422 82.4379 83.81 82.1499L92.88 75.0099C93.1749 74.7798 93.5285 74.6371 93.9005 74.5979C94.2724 74.5587 94.6479 74.6246 94.9843 74.7882C95.3207 74.9517 95.6045 75.2062 95.8035 75.523C96.0025 75.8397 96.1087 76.2058 96.11 76.5799V90.4699C96.11 94.2099 94.76 99.5699 92.11 106.4C91.9634 106.774 91.7075 107.095 91.3758 107.322C91.044 107.548 90.6517 107.669 90.25 107.67L90.18 107.64ZM87.42 94.5299C88.02 95.7299 88.98 97.7199 90.05 100.14C91.1889 97.0222 91.8628 93.7538 92.05 90.4399V80.6999L87.53 84.2699L90.28 89.5199C90.4727 89.8889 90.5454 90.3088 90.488 90.7211C90.4306 91.1334 90.2461 91.5175 89.96 91.8199L87.42 94.5299Z" fill="#0074FF"/>
<path d="M105.01 92.4701C104.26 95.3501 102.13 98.7101 99.5702 102.07C99.0302 102.71 98.5702 103.3 98.0202 103.94C98.0202 103.94 98.0202 103.94 98.0202 104.04C97.4802 104.63 96.9502 105.27 96.4202 105.86C94.6602 107.86 92.9002 109.7 91.2402 111.35C90.7102 111.88 90.1802 112.35 89.7002 112.84C87.3502 115.14 85.5902 116.68 85.1602 117.06C85.4302 116.31 87.9902 111.4 90.2302 105.64C92.2302 100.47 94.1202 94.6401 94.1202 90.4401V76.5801L102.23 81.3201C102.984 81.7992 103.769 82.2268 104.58 82.6001C104.58 82.6001 101.7 85.0001 101.7 87.1401C101.7 88.4201 102.92 89.3801 103.94 89.9101C104.384 90.1504 104.732 90.5355 104.927 91.0012C105.122 91.467 105.151 91.9853 105.01 92.4701Z" fill="#66ACFF"/>
<path d="M85.1096 119.06C84.7068 119.056 84.314 118.935 83.9796 118.71C83.6142 118.46 83.3423 118.095 83.2066 117.673C83.0708 117.251 83.0789 116.797 83.2296 116.38C83.3196 116.14 83.6196 115.5 84.0696 114.55C85.0096 112.55 86.7596 108.92 88.3196 104.92C90.7696 98.64 92.0696 93.64 92.0696 90.44V76.58C92.07 76.2291 92.1627 75.8845 92.3383 75.5807C92.514 75.277 92.7665 75.0248 93.0705 74.8495C93.3745 74.6742 93.7192 74.5819 94.0701 74.582C94.421 74.5821 94.7657 74.6745 95.0696 74.85L103.18 79.6C103.881 80.0422 104.609 80.4396 105.36 80.79C105.665 80.9317 105.929 81.148 106.128 81.4189C106.328 81.6898 106.455 82.0066 106.5 82.34C106.544 82.6747 106.504 83.0153 106.381 83.3301C106.259 83.6448 106.059 83.9235 105.8 84.14C104.8 85 103.64 86.46 103.64 87.14C103.64 87.24 103.95 87.69 104.81 88.14C105.667 88.5759 106.346 89.2954 106.733 90.176C107.12 91.0566 107.189 92.0439 106.93 92.97C106.2 95.78 104.36 99.06 101.15 103.28L99.6896 105.04C99.6154 105.163 99.5318 105.28 99.4396 105.39L97.8396 107.2C96.0596 109.2 94.2796 111.08 92.5996 112.76L91.0496 114.26C88.6396 116.61 86.8496 118.18 86.4196 118.56C86.0576 118.879 85.5923 119.057 85.1096 119.06ZM96.1096 80.06V90.47C96.1096 94.21 94.7596 99.57 92.1096 106.4C91.8296 107.13 91.5396 107.84 91.2496 108.53C92.4596 107.29 93.6996 105.95 94.9396 104.53L96.3796 102.91C96.4305 102.823 96.4873 102.739 96.5496 102.66L98.0996 100.8C100.89 97.13 102.56 94.22 103.1 91.98C103.1 91.93 103.1 91.78 103.02 91.72C100.85 90.58 99.6796 88.96 99.6796 87.16C99.7781 85.6859 100.35 84.283 101.31 83.16L101.13 83.05L96.1096 80.06Z" fill="#0074FF"/>
<path d="M81.4904 90.4701L85.0104 94.2101C85.0104 94.2101 82.2904 99.4301 79.8304 105.67C77.8304 100.5 75.9404 94.6701 75.9404 90.4701V76.5801L85.0104 83.7201L81.4904 90.4701Z" fill="#99C7FF"/>
<path d="M79.8297 107.64C79.428 107.64 79.0357 107.518 78.704 107.292C78.3722 107.065 78.1164 106.744 77.9697 106.37C75.2997 99.5399 73.9697 94.1799 73.9697 90.4399V76.5799C73.9696 76.2041 74.0753 75.8359 74.2748 75.5174C74.4743 75.199 74.7594 74.9431 75.0976 74.7793C75.4358 74.6154 75.8133 74.5501 76.1868 74.5909C76.5604 74.6317 76.9149 74.7769 77.2097 75.0099L86.2697 82.1499C86.6376 82.4379 86.8929 82.8456 86.9916 83.3023C87.0902 83.759 87.0259 84.2357 86.8097 84.6499L83.9497 90.1099L86.4897 92.7999C86.7758 93.1023 86.9604 93.4864 87.0177 93.8987C87.0751 94.311 87.0024 94.7309 86.8097 95.0999C86.8097 95.1499 84.1097 100.31 81.7297 106.38C81.5791 106.758 81.3164 107.082 80.9768 107.307C80.6373 107.532 80.2371 107.648 79.8297 107.64ZM77.9397 80.6999V90.4699C78.1231 93.7843 78.7971 97.0532 79.9397 100.17C80.9997 97.7499 81.9397 95.7599 82.5597 94.5599L79.9997 91.8499C79.7153 91.5464 79.5326 91.1617 79.477 90.7495C79.4214 90.3372 79.4958 89.9179 79.6897 89.5499L82.4297 84.2999L77.9397 80.6999Z" fill="#0074FF"/>
<path d="M84.9 117.06C84.58 116.74 83.3 115.67 81.54 113.96C80.74 113.22 79.7801 112.31 78.8201 111.35C78.1801 110.71 77.5401 110.02 76.8201 109.35C76.3901 108.87 75.9101 108.35 75.4301 107.91C74.8401 107.27 74.2 106.58 73.62 105.91C73.04 105.24 72.55 104.68 72.02 104.09C68.76 100.15 65.88 95.9299 65.02 92.5199C64.8821 92.0362 64.9118 91.52 65.1042 91.0553C65.2966 90.5905 65.6405 90.2045 66.08 89.9599C67.15 89.4299 68.38 88.4699 68.38 87.1899C68.38 85.0499 65.5001 82.6499 65.5001 82.6499C66.3091 82.2785 67.091 81.8508 67.84 81.3699L75.95 76.6299V90.4699C75.95 94.6299 77.82 100.47 79.84 105.67C82.07 111.4 84.63 116.31 84.9 117.06Z" fill="#66ACFF"/>
<path d="M84.8997 119.06C84.6357 119.06 84.3744 119.008 84.1307 118.907C83.887 118.806 83.6657 118.657 83.4797 118.47L82.9497 117.98C82.3297 117.43 81.3497 116.56 80.1497 115.4C79.3596 114.66 78.3797 113.74 77.3996 112.76L75.3996 110.76C74.9197 110.22 74.4697 109.76 74.0197 109.32C73.2097 108.44 72.6297 107.8 72.0897 107.16L70.5297 105.4C66.3997 100.4 63.8996 96.25 63.0396 93C62.7833 92.0781 62.8486 91.0964 63.2249 90.2166C63.6012 89.3368 64.2659 88.6114 65.1096 88.16C66.0096 87.71 66.3197 87.26 66.3397 87.16C66.3397 86.48 65.1797 84.99 64.1797 84.16C63.9205 83.9448 63.7199 83.6675 63.5965 83.354C63.473 83.0405 63.4308 82.701 63.4737 82.3668C63.5166 82.0326 63.6432 81.7147 63.8418 81.4426C64.0404 81.1704 64.3045 80.9528 64.6096 80.81C65.3391 80.4702 66.047 80.0861 66.7297 79.66L74.8996 74.87C75.2035 74.6945 75.5482 74.6021 75.8991 74.6021C76.25 74.602 76.5948 74.6942 76.8988 74.8695C77.2027 75.0448 77.4553 75.297 77.6309 75.6007C77.8066 75.9045 77.8993 76.2491 77.8996 76.6V90.47C77.8996 93.67 79.1997 98.67 81.6597 104.94C83.2097 108.94 84.8897 112.45 85.8897 114.55C86.3497 115.55 86.6597 116.17 86.7397 116.41C86.8947 116.838 86.8989 117.307 86.7516 117.737C86.6043 118.168 86.3143 118.536 85.9297 118.78C85.6167 118.962 85.2616 119.058 84.8997 119.06ZM68.7297 83.12C69.6925 84.2421 70.2677 85.6449 70.3697 87.12C70.3697 88.94 69.1296 90.6 66.9696 91.68C67.6396 94.59 69.9697 98.33 73.5897 102.75L75.1197 104.47C75.6797 105.12 76.2297 105.72 76.7397 106.28C77.2497 106.84 77.8897 107.44 78.3397 107.96L78.8197 108.44C78.5297 107.75 78.2496 107.05 77.9696 106.33C75.2996 99.5 73.9696 94.14 73.9696 90.4V80.07L68.8697 83.07L68.7297 83.12Z" fill="#0074FF"/>
<path d="M84.97 119.15C84.4536 119.145 83.9591 118.941 83.59 118.58V118.52C83.3895 118.338 83.2282 118.117 83.1158 117.87C83.0034 117.624 82.9423 117.357 82.9361 117.086C82.9299 116.815 82.9788 116.546 83.0798 116.295C83.1809 116.043 83.3319 115.815 83.5238 115.624C83.7157 115.433 83.9445 115.282 84.1963 115.182C84.448 115.082 84.7175 115.034 84.9883 115.041C85.2591 115.048 85.5257 115.11 85.7718 115.224C86.0179 115.337 86.2384 115.499 86.42 115.7C86.6089 115.886 86.759 116.108 86.8614 116.353C86.9639 116.597 87.0166 116.86 87.0166 117.125C87.0166 117.39 86.9639 117.653 86.8614 117.898C86.759 118.142 86.6089 118.364 86.42 118.55C86.2312 118.743 86.0055 118.895 85.7563 118.998C85.5071 119.101 85.2396 119.153 84.97 119.15Z" fill="#0074FF"/>
<path d="M85.0096 119.16C84.6086 119.163 84.2161 119.044 83.8831 118.821C83.55 118.598 83.2918 118.279 83.142 117.907C82.9921 117.535 82.9575 117.127 83.0427 116.735C83.1279 116.343 83.3289 115.986 83.6196 115.71C83.8092 115.523 84.0343 115.375 84.2816 115.276C84.529 115.177 84.7937 115.128 85.0601 115.133C85.3266 115.138 85.5894 115.196 85.8332 115.303C86.0769 115.411 86.2967 115.566 86.4796 115.76C86.8461 116.134 87.0513 116.636 87.0513 117.16C87.0513 117.684 86.8461 118.186 86.4796 118.56V118.61C86.2843 118.796 86.0534 118.941 85.8008 119.035C85.5482 119.13 85.2791 119.172 85.0096 119.16Z" fill="#0074FF"/>
<path d="M19.3681 150.904H24.8081V145.624H28.1361V150.904H33.5761V154.232H28.1361V159.576H24.8081V154.232H19.3681V150.904ZM51.9481 149.528C50.9028 149.528 50.1775 149.304 49.7721 148.856C49.7935 149.197 49.8041 149.795 49.8041 150.648V159H46.5081V150.68C46.5081 148.589 46.4015 146.787 46.1881 145.272C45.9748 143.736 45.5481 141.901 44.9081 139.768L48.0761 138.648L49.5161 144.248C49.8361 145.464 50.5615 146.072 51.6921 146.072C52.2681 146.072 52.7588 145.901 53.1641 145.56C53.5695 145.197 53.7721 144.739 53.7721 144.184C53.7721 143.459 53.5588 141.848 53.1321 139.352L56.4601 138.648C56.8868 141.187 57.1001 143.064 57.1001 144.28C57.1001 145.283 56.8761 146.189 56.4281 147C55.9801 147.789 55.3615 148.408 54.5721 148.856C53.8041 149.304 52.9295 149.528 51.9481 149.528ZM67.7561 143.16C68.8228 143.16 69.8468 143.459 70.8281 144.056C71.8308 144.653 72.6308 145.443 73.2281 146.424C73.8255 147.405 74.1241 148.429 74.1241 149.496C74.1241 150.563 73.8255 151.597 73.2281 152.6C72.6308 153.581 71.8308 154.371 70.8281 154.968C69.8468 155.565 68.8228 155.864 67.7561 155.864C66.6895 155.864 65.6548 155.565 64.6521 154.968C63.6708 154.371 62.8815 153.581 62.2841 152.6C61.6868 151.597 61.3881 150.563 61.3881 149.496C61.3881 148.429 61.6868 147.405 62.2841 146.424C62.8815 145.443 63.6708 144.653 64.6521 144.056C65.6548 143.459 66.6895 143.16 67.7561 143.16ZM67.7561 152.696C68.2681 152.696 68.7695 152.547 69.2601 152.248C69.7721 151.928 70.1775 151.523 70.4761 151.032C70.7961 150.52 70.9561 150.008 70.9561 149.496C70.9561 148.984 70.7961 148.483 70.4761 147.992C70.1775 147.501 69.7721 147.107 69.2601 146.808C68.7695 146.509 68.2681 146.36 67.7561 146.36C67.2441 146.36 66.7321 146.52 66.2201 146.84C65.7295 147.139 65.3241 147.533 65.0041 148.024C64.7055 148.493 64.5561 148.984 64.5561 149.496C64.5561 150.008 64.7055 150.52 65.0041 151.032C65.3241 151.523 65.7295 151.928 66.2201 152.248C66.7321 152.547 67.2441 152.696 67.7561 152.696ZM85.1274 143.16C86.194 143.16 87.218 143.459 88.1994 144.056C89.202 144.653 90.002 145.443 90.5994 146.424C91.1967 147.405 91.4954 148.429 91.4954 149.496C91.4954 150.563 91.1967 151.597 90.5994 152.6C90.002 153.581 89.202 154.371 88.1994 154.968C87.218 155.565 86.194 155.864 85.1274 155.864C84.0607 155.864 83.026 155.565 82.0234 154.968C81.042 154.371 80.2527 153.581 79.6554 152.6C79.058 151.597 78.7594 150.563 78.7594 149.496C78.7594 148.429 79.058 147.405 79.6554 146.424C80.2527 145.443 81.042 144.653 82.0234 144.056C83.026 143.459 84.0607 143.16 85.1274 143.16ZM85.1274 152.696C85.6394 152.696 86.1407 152.547 86.6314 152.248C87.1434 151.928 87.5487 151.523 87.8474 151.032C88.1674 150.52 88.3274 150.008 88.3274 149.496C88.3274 148.984 88.1674 148.483 87.8474 147.992C87.5487 147.501 87.1434 147.107 86.6314 146.808C86.1407 146.509 85.6394 146.36 85.1274 146.36C84.6154 146.36 84.1034 146.52 83.5914 146.84C83.1007 147.139 82.6954 147.533 82.3754 148.024C82.0767 148.493 81.9274 148.984 81.9274 149.496C81.9274 150.008 82.0767 150.52 82.3754 151.032C82.6954 151.523 83.1007 151.928 83.5914 152.248C84.1034 152.547 84.6154 152.696 85.1274 152.696ZM99.2666 156.664H96.2586L95.3946 162.648H97.8906L99.2666 156.664ZM109.526 143.16C110.593 143.16 111.617 143.459 112.598 144.056C113.601 144.653 114.401 145.443 114.998 146.424C115.595 147.405 115.894 148.429 115.894 149.496C115.894 150.563 115.595 151.597 114.998 152.6C114.401 153.581 113.601 154.371 112.598 154.968C111.617 155.565 110.593 155.864 109.526 155.864C108.459 155.864 107.425 155.565 106.422 154.968C105.441 154.371 104.651 153.581 104.054 152.6C103.457 151.597 103.158 150.563 103.158 149.496C103.158 148.429 103.457 147.405 104.054 146.424C104.651 145.443 105.441 144.653 106.422 144.056C107.425 143.459 108.459 143.16 109.526 143.16ZM109.526 152.696C110.038 152.696 110.539 152.547 111.03 152.248C111.542 151.928 111.947 151.523 112.246 151.032C112.566 150.52 112.726 150.008 112.726 149.496C112.726 148.984 112.566 148.483 112.246 147.992C111.947 147.501 111.542 147.107 111.03 146.808C110.539 146.509 110.038 146.36 109.526 146.36C109.014 146.36 108.502 146.52 107.99 146.84C107.499 147.139 107.094 147.533 106.774 148.024C106.475 148.493 106.326 148.984 106.326 149.496C106.326 150.008 106.475 150.52 106.774 151.032C107.094 151.523 107.499 151.928 107.99 152.248C108.502 152.547 109.014 152.696 109.526 152.696ZM126.897 143.16C127.964 143.16 128.988 143.459 129.969 144.056C130.972 144.653 131.772 145.443 132.369 146.424C132.967 147.405 133.265 148.429 133.265 149.496C133.265 150.563 132.967 151.597 132.369 152.6C131.772 153.581 130.972 154.371 129.969 154.968C128.988 155.565 127.964 155.864 126.897 155.864C125.831 155.864 124.796 155.565 123.793 154.968C122.812 154.371 122.023 153.581 121.425 152.6C120.828 151.597 120.529 150.563 120.529 149.496C120.529 148.429 120.828 147.405 121.425 146.424C122.023 145.443 122.812 144.653 123.793 144.056C124.796 143.459 125.831 143.16 126.897 143.16ZM126.897 152.696C127.409 152.696 127.911 152.547 128.401 152.248C128.913 151.928 129.319 151.523 129.617 151.032C129.937 150.52 130.097 150.008 130.097 149.496C130.097 148.984 129.937 148.483 129.617 147.992C129.319 147.501 128.913 147.107 128.401 146.808C127.911 146.509 127.409 146.36 126.897 146.36C126.385 146.36 125.873 146.52 125.361 146.84C124.871 147.139 124.465 147.533 124.145 148.024C123.847 148.493 123.697 148.984 123.697 149.496C123.697 150.008 123.847 150.52 124.145 151.032C124.465 151.523 124.871 151.928 125.361 152.248C125.873 152.547 126.385 152.696 126.897 152.696ZM144.269 143.16C145.335 143.16 146.359 143.459 147.341 144.056C148.343 144.653 149.143 145.443 149.741 146.424C150.338 147.405 150.637 148.429 150.637 149.496C150.637 150.563 150.338 151.597 149.741 152.6C149.143 153.581 148.343 154.371 147.341 154.968C146.359 155.565 145.335 155.864 144.269 155.864C143.202 155.864 142.167 155.565 141.165 154.968C140.183 154.371 139.394 153.581 138.797 152.6C138.199 151.597 137.901 150.563 137.901 149.496C137.901 148.429 138.199 147.405 138.797 146.424C139.394 145.443 140.183 144.653 141.165 144.056C142.167 143.459 143.202 143.16 144.269 143.16ZM144.269 152.696C144.781 152.696 145.282 152.547 145.773 152.248C146.285 151.928 146.69 151.523 146.989 151.032C147.309 150.52 147.469 150.008 147.469 149.496C147.469 148.984 147.309 148.483 146.989 147.992C146.69 147.501 146.285 147.107 145.773 146.808C145.282 146.509 144.781 146.36 144.269 146.36C143.757 146.36 143.245 146.52 142.733 146.84C142.242 147.139 141.837 147.533 141.517 148.024C141.218 148.493 141.069 148.984 141.069 149.496C141.069 150.008 141.218 150.52 141.517 151.032C141.837 151.523 142.242 151.928 142.733 152.248C143.245 152.547 143.757 152.696 144.269 152.696Z" fill="#0074FF"/>
</svg>
