<svg width="170" height="176" viewBox="0 0 170 176" fill="none" xmlns="http://www.w3.org/2000/svg">
<path d="M138.334 11.1465H31.667V96.4798H138.334V11.1465Z" fill="#CCE3FF"/>
<path d="M138.333 98.5069H31.6667C31.1385 98.493 30.6366 98.2733 30.268 97.8948C29.8994 97.5162 29.6932 97.0086 29.6934 96.4802V11.1469C29.6934 10.8877 29.7444 10.6311 29.8435 10.3917C29.9427 10.1523 30.0881 9.93478 30.2713 9.75153C30.4546 9.56829 30.6721 9.42293 30.9115 9.32376C31.1509 9.22459 31.4075 9.17357 31.6667 9.17357H138.333C138.597 9.16645 138.859 9.2122 139.105 9.30818C139.351 9.40415 139.574 9.54837 139.763 9.73233C139.952 9.91628 140.102 10.1363 140.205 10.3792C140.307 10.6222 140.36 10.8832 140.36 11.1469V96.4802C140.36 97.0177 140.146 97.5332 139.766 97.9133C139.386 98.2934 138.871 98.5069 138.333 98.5069ZM33.6934 94.5069H136.307V13.1736H33.6934V94.5069Z" fill="#0074FF"/>
<path d="M138.334 11.1465H31.667V24.4798H138.334V11.1465Z" fill="#99C7FF"/>
<path d="M138.333 26.5068H31.6663C31.1379 26.507 30.6304 26.3008 30.2518 25.9322C29.8732 25.5636 29.6536 25.0617 29.6396 24.5335V11.2001C29.6396 10.941 29.6907 10.6844 29.7899 10.445C29.889 10.2056 30.0344 9.98804 30.2176 9.8048C30.4009 9.62156 30.6184 9.47619 30.8578 9.37702C31.0972 9.27785 31.3539 9.22679 31.613 9.22679H138.28C138.543 9.21967 138.806 9.26546 139.051 9.36144C139.297 9.45741 139.521 9.60164 139.71 9.78559C139.899 9.96955 140.049 10.1895 140.151 10.4324C140.254 10.6754 140.306 10.9365 140.306 11.2001V24.5335C140.293 25.0526 140.081 25.5467 139.713 25.9139C139.346 26.2811 138.852 26.4933 138.333 26.5068ZM33.693 22.5068H136.306V13.1735H33.693V22.5068Z" fill="#0074FF"/>
<path d="M98.2269 19.8398H39.5603C39.0321 19.8259 38.5302 19.6063 38.1615 19.2277C37.7929 18.8491 37.5867 18.3415 37.5869 17.8132C37.5869 17.554 37.638 17.2974 37.7371 17.058C37.8363 16.8186 37.9817 16.601 38.1649 16.4178C38.3482 16.2346 38.5657 16.0892 38.8051 15.99C39.0445 15.8909 39.3011 15.8398 39.5603 15.8398H98.2269C98.4861 15.8398 98.7427 15.8909 98.9821 15.99C99.2215 16.0892 99.439 16.2346 99.6223 16.4178C99.8055 16.601 99.9509 16.8186 100.05 17.058C100.149 17.2974 100.2 17.554 100.2 17.8132C100.2 18.3415 99.9943 18.8491 99.6256 19.2277C99.257 19.6063 98.7551 19.8259 98.2269 19.8398Z" fill="#0074FF"/>
<path d="M117.053 19.8398C116.516 19.8398 116 19.6263 115.62 19.2462C115.24 18.8661 115.026 18.3507 115.026 17.8132C115.026 17.5544 115.077 17.2982 115.178 17.0599C115.279 16.8216 115.427 16.6062 115.613 16.4265C115.998 16.0704 116.502 15.8726 117.026 15.8726C117.55 15.8726 118.055 16.0704 118.44 16.4265C118.626 16.6062 118.774 16.8216 118.875 17.0599C118.975 17.2982 119.027 17.5544 119.026 17.8132C119.024 18.3509 118.814 18.8671 118.44 19.2532C118.07 19.6195 117.573 19.8296 117.053 19.8398Z" fill="#0074FF"/>
<path d="M122.387 19.8398C121.849 19.8398 121.334 19.6263 120.954 19.2462C120.573 18.8661 120.36 18.3507 120.36 17.8132C120.31 17.5668 120.31 17.3128 120.36 17.0665C120.458 16.8266 120.603 16.6089 120.787 16.4265C121.171 16.0704 121.676 15.8726 122.2 15.8726C122.724 15.8726 123.229 16.0704 123.613 16.4265C123.815 16.5933 123.964 16.8159 124.04 17.0665C124.09 17.3128 124.09 17.5668 124.04 17.8132C124.038 18.3509 123.828 18.8671 123.453 19.2532C123.262 19.4256 123.046 19.5693 122.813 19.6798C122.678 19.7504 122.535 19.8041 122.387 19.8398Z" fill="#0074FF"/>
<path d="M127.72 19.8398C127.183 19.8398 126.667 19.6263 126.287 19.2462C125.907 18.8661 125.693 18.3507 125.693 17.8132C125.693 17.5544 125.744 17.2982 125.845 17.0599C125.946 16.8216 126.094 16.6062 126.28 16.4265C126.665 16.0704 127.169 15.8726 127.693 15.8726C128.217 15.8726 128.722 16.0704 129.107 16.4265C129.309 16.5933 129.457 16.8159 129.533 17.0665C129.584 17.3128 129.584 17.5668 129.533 17.8132C129.531 18.3509 129.321 18.8671 128.947 19.2532C128.623 19.5918 128.187 19.8005 127.72 19.8398Z" fill="#0074FF"/>
<path d="M130.334 64.48V116.853H117V111.52H101V116.853H87.667V64.48H130.334Z" fill="#99C7FF"/>
<path d="M130.333 118.88H117C116.481 118.866 115.987 118.654 115.62 118.287C115.252 117.92 115.04 117.426 115.027 116.907V113.547H103.027V116.907C103.013 117.435 102.793 117.937 102.415 118.305C102.036 118.674 101.528 118.88 101 118.88H87.6667C87.1476 118.866 86.6534 118.654 86.2863 118.287C85.9191 117.92 85.7068 117.426 85.6934 116.907V64.4799C85.6934 63.9565 85.9012 63.4546 86.2713 63.0845C86.6414 62.7145 87.1433 62.5066 87.6667 62.5066H130.333C130.597 62.4995 130.859 62.5452 131.105 62.6412C131.351 62.7372 131.574 62.8814 131.763 63.0653C131.952 63.2493 132.102 63.4693 132.205 63.7122C132.307 63.9552 132.36 64.2162 132.36 64.4799V116.907C132.346 117.435 132.126 117.937 131.748 118.305C131.369 118.674 130.862 118.88 130.333 118.88ZM119.027 114.88H128.36V66.5066H89.6934V114.88H98.9733V111.573C98.9732 111.045 99.1794 110.537 99.548 110.159C99.9166 109.78 100.418 109.56 100.947 109.547H116.947C117.484 109.547 118 109.76 118.38 110.14C118.76 110.52 118.973 111.036 118.973 111.573L119.027 114.88Z" fill="#0074FF"/>
<path d="M119.666 72.48H98.333V80.48H119.666V72.48Z" fill="#66ACFF"/>
<path d="M119.667 82.5065H98.3337C97.8055 82.4926 97.3036 82.2729 96.935 81.8944C96.5664 81.5158 96.3602 81.0082 96.3604 80.4798V72.5332C96.3604 72.274 96.4114 72.0174 96.5105 71.778C96.6097 71.5386 96.7551 71.321 96.9383 71.1378C97.1216 70.9546 97.3391 70.8092 97.5785 70.71C97.8179 70.6109 98.0745 70.5598 98.3337 70.5598H119.667C119.931 70.5527 120.193 70.5985 120.439 70.6944C120.684 70.7904 120.908 70.9346 121.097 71.1186C121.286 71.3026 121.436 71.5225 121.539 71.7655C121.641 72.0084 121.694 72.2695 121.694 72.5332V80.5332C121.68 81.0614 121.46 81.5633 121.082 81.9319C120.703 82.3005 120.195 82.5067 119.667 82.5065ZM100.36 78.5065H117.694V74.5065H100.36V78.5065Z" fill="#0074FF"/>
<path d="M101 90.5066H98.3337C97.8055 90.4927 97.3036 90.273 96.935 89.8944C96.5664 89.5159 96.3602 89.0083 96.3604 88.4799C96.3604 87.9565 96.5682 87.4546 96.9383 87.0845C97.3084 86.7145 97.8103 86.5066 98.3337 86.5066H101C101.264 86.4995 101.526 86.5452 101.772 86.6412C102.017 86.7372 102.241 86.8814 102.43 87.0653C102.619 87.2493 102.769 87.4693 102.872 87.7122C102.974 87.9552 103.027 88.2162 103.027 88.4799C103.027 89.0174 102.813 89.5329 102.433 89.913C102.053 90.293 101.538 90.5066 101 90.5066Z" fill="#0074FF"/>
<path d="M119.667 90.5065H106.333C105.805 90.5067 105.297 90.3005 104.919 89.9319C104.54 89.5633 104.321 89.0614 104.307 88.5332C104.307 88.0098 104.515 87.5079 104.885 87.1378C105.255 86.7677 105.757 86.5598 106.28 86.5598H119.613C119.877 86.5527 120.139 86.5985 120.385 86.6944C120.63 86.7904 120.854 86.9346 121.043 87.1186C121.232 87.3026 121.382 87.5225 121.485 87.7655C121.587 88.0084 121.64 88.2695 121.64 88.5332C121.626 89.0523 121.414 89.5464 121.047 89.9136C120.68 90.2808 120.186 90.493 119.667 90.5065Z" fill="#0074FF"/>
<path d="M101 98.5066H98.3337C97.8055 98.4927 97.3036 98.273 96.935 97.8944C96.5664 97.5159 96.3602 97.0083 96.3604 96.4799C96.3604 95.9565 96.5682 95.4546 96.9383 95.0845C97.3084 94.7145 97.8103 94.5066 98.3337 94.5066H101C101.264 94.4995 101.526 94.5452 101.772 94.6412C102.017 94.7372 102.241 94.8814 102.43 95.0653C102.619 95.2493 102.769 95.4693 102.872 95.7122C102.974 95.9552 103.027 96.2162 103.027 96.4799C103.027 97.0174 102.813 97.5329 102.433 97.913C102.053 98.293 101.538 98.5066 101 98.5066Z" fill="#0074FF"/>
<path d="M119.667 98.5066H106.334C105.805 98.4927 105.304 98.273 104.935 97.8944C104.566 97.5159 104.36 97.0083 104.36 96.4799C104.36 95.9565 104.568 95.4546 104.938 95.0845C105.308 94.7145 105.81 94.5066 106.334 94.5066H119.667C119.931 94.4995 120.193 94.5452 120.439 94.6412C120.684 94.7372 120.908 94.8814 121.097 95.0653C121.286 95.2493 121.436 95.4693 121.539 95.7122C121.641 95.9552 121.694 96.2162 121.694 96.4799C121.694 97.0174 121.48 97.5329 121.1 97.913C120.72 98.293 120.204 98.5066 119.667 98.5066Z" fill="#0074FF"/>
<path d="M101 106.507H98.3337C97.8055 106.493 97.3036 106.273 96.935 105.894C96.5664 105.516 96.3602 105.008 96.3604 104.48C96.3604 103.957 96.5682 103.455 96.9383 103.085C97.3084 102.714 97.8103 102.507 98.3337 102.507H101C101.264 102.499 101.526 102.545 101.772 102.641C102.017 102.737 102.241 102.881 102.43 103.065C102.619 103.249 102.769 103.469 102.872 103.712C102.974 103.955 103.027 104.216 103.027 104.48C103.027 105.017 102.813 105.533 102.433 105.913C102.053 106.293 101.538 106.507 101 106.507Z" fill="#0074FF"/>
<path d="M119.667 106.506H106.333C105.805 106.507 105.297 106.3 104.919 105.932C104.54 105.563 104.321 105.061 104.307 104.533C104.307 104.01 104.515 103.508 104.885 103.138C105.255 102.768 105.757 102.56 106.28 102.56H119.613C119.877 102.553 120.139 102.598 120.385 102.694C120.63 102.79 120.854 102.935 121.043 103.119C121.232 103.303 121.382 103.522 121.485 103.765C121.587 104.008 121.64 104.269 121.64 104.533C121.626 105.052 121.414 105.546 121.047 105.914C120.68 106.281 120.186 106.493 119.667 106.506Z" fill="#0074FF"/>
<path d="M71.6667 71.1465H45V79.1465H71.6667V71.1465Z" fill="#99C7FF"/>
<path d="M71.6663 81.1736H44.9997C44.4715 81.1597 43.9696 80.94 43.601 80.5614C43.2324 80.1829 43.0262 79.6753 43.0264 79.1469V71.1469C43.0264 70.6235 43.2343 70.1216 43.6043 69.7515C43.9744 69.3815 44.4763 69.1736 44.9997 69.1736H71.6663C71.9299 69.1664 72.1923 69.2122 72.4379 69.3082C72.6835 69.4041 72.9074 69.5484 73.0963 69.7323C73.2852 69.9163 73.4354 70.1363 73.5379 70.3792C73.6404 70.6222 73.6931 70.8832 73.693 71.1469V79.1469C73.693 79.6844 73.4795 80.1999 73.0994 80.5799C72.7193 80.96 72.2038 81.1736 71.6663 81.1736ZM47.0264 77.1736H69.693V73.1736H47.0264V77.1736Z" fill="#0074FF"/>
<path d="M74.333 43.1465H58.333V64.4798H74.333V43.1465Z" fill="#99C7FF"/>
<path d="M74.3337 66.5069H58.3337C57.8055 66.493 57.3036 66.2733 56.935 65.8948C56.5664 65.5162 56.3602 65.0086 56.3604 64.4802V43.1469C56.3604 42.8877 56.4114 42.6311 56.5105 42.3917C56.6097 42.1523 56.7551 41.9348 56.9383 41.7515C57.1216 41.5683 57.3391 41.4229 57.5785 41.3238C57.8179 41.2246 58.0745 41.1736 58.3337 41.1736H74.3337C74.5973 41.1664 74.8596 41.2122 75.1052 41.3082C75.3508 41.4041 75.5747 41.5484 75.7636 41.7323C75.9526 41.9163 76.1027 42.1363 76.2052 42.3792C76.3077 42.6222 76.3604 42.8832 76.3604 43.1469V64.4802C76.3604 65.0177 76.1468 65.5332 75.7667 65.9133C75.3867 66.2934 74.8712 66.5069 74.3337 66.5069ZM60.3604 62.5069H72.307V45.1736H60.307L60.3604 62.5069Z" fill="#0074FF"/>
<path d="M63.6671 66.4535H42.3337C41.8146 66.44 41.3205 66.2277 40.9533 65.8605C40.5861 65.4933 40.3739 64.9992 40.3604 64.4801V37.8134C40.3564 37.3658 40.5008 36.9294 40.7709 36.5724C41.0411 36.2154 41.4218 35.9579 41.8538 35.8401L63.1871 30.5068C63.4811 30.4338 63.788 30.4296 64.084 30.4943C64.3799 30.5591 64.657 30.6911 64.8938 30.8801C65.1469 31.0619 65.3521 31.3025 65.4915 31.5813C65.6309 31.86 65.7003 32.1685 65.6938 32.4801V43.1468H61.6404V35.2001L44.3071 39.5201V62.6135H63.6138L63.6671 66.4535Z" fill="#0074FF"/>
<path d="M79.6663 66.5066H36.9997C36.4715 66.4927 35.9696 66.273 35.601 65.8944C35.2324 65.5159 35.0262 65.0083 35.0264 64.4799C35.0264 63.9565 35.2343 63.4546 35.6043 63.0845C35.9744 62.7145 36.4763 62.5066 36.9997 62.5066H79.6663C79.9299 62.4995 80.1923 62.5452 80.4379 62.6412C80.6835 62.7372 80.9074 62.8814 81.0963 63.0653C81.2852 63.2493 81.4354 63.4693 81.5379 63.7122C81.6404 63.9552 81.6931 64.2162 81.693 64.4799C81.693 65.0174 81.4795 65.5329 81.0994 65.913C80.7193 66.293 80.2038 66.5066 79.6663 66.5066Z" fill="#0074FF"/>
<path d="M69 50.5066H63.6667C63.1385 50.4927 62.6366 50.273 62.268 49.8944C61.8994 49.5159 61.6932 49.0083 61.6934 48.4799C61.6934 48.2207 61.7444 47.9641 61.8435 47.7247C61.9427 47.4853 62.0881 47.2678 62.2713 47.0845C62.4546 46.9013 62.6721 46.7559 62.9115 46.6568C63.1509 46.5576 63.4075 46.5066 63.6667 46.5066H69C69.2636 46.4995 69.526 46.5452 69.7716 46.6412C70.0172 46.7372 70.241 46.8814 70.43 47.0653C70.6189 47.2493 70.7691 47.4693 70.8715 47.7122C70.974 47.9552 71.0268 48.2162 71.0267 48.4799C71.0267 49.0174 70.8131 49.5329 70.4331 49.913C70.053 50.293 69.5375 50.5066 69 50.5066Z" fill="#0074FF"/>
<path d="M69 55.8401H63.6667C63.1385 55.8262 62.6366 55.6065 62.268 55.2279C61.8994 54.8494 61.6932 54.3418 61.6934 53.8134C61.6934 53.5542 61.7444 53.2976 61.8435 53.0582C61.9427 52.8188 62.0881 52.6013 62.2713 52.418C62.4546 52.2348 62.6721 52.0894 62.9115 51.9903C63.1509 51.8911 63.4075 51.8401 63.6667 51.8401H69C69.2636 51.8329 69.526 51.8787 69.7716 51.9747C70.0172 52.0707 70.241 52.2149 70.43 52.3988C70.6189 52.5828 70.7691 52.8028 70.8715 53.0457C70.974 53.2887 71.0268 53.5497 71.0267 53.8134C71.0267 54.3509 70.8131 54.8664 70.4331 55.2464C70.053 55.6265 69.5375 55.8401 69 55.8401Z" fill="#0074FF"/>
<path d="M69 61.1736H63.6667C63.1385 61.1597 62.6366 60.94 62.268 60.5614C61.8994 60.1829 61.6932 59.6753 61.6934 59.1469C61.6934 58.6235 61.9012 58.1216 62.2713 57.7515C62.6414 57.3815 63.1433 57.1736 63.6667 57.1736H69C69.2636 57.1664 69.526 57.2122 69.7716 57.3082C70.0172 57.4041 70.241 57.5484 70.43 57.7323C70.6189 57.9163 70.7691 58.1363 70.8715 58.3792C70.974 58.6222 71.0268 58.8832 71.0267 59.1469C71.0267 59.6844 70.8131 60.1999 70.4331 60.5799C70.053 60.96 69.5375 61.1736 69 61.1736Z" fill="#0074FF"/>
<path d="M53 50.5066H47.6667C47.1385 50.4927 46.6366 50.273 46.268 49.8944C45.8994 49.5159 45.6932 49.0083 45.6934 48.4799C45.6934 48.2207 45.7444 47.9641 45.8435 47.7247C45.9427 47.4853 46.0881 47.2678 46.2713 47.0845C46.4546 46.9013 46.6721 46.7559 46.9115 46.6568C47.1509 46.5576 47.4075 46.5066 47.6667 46.5066H53C53.2636 46.4995 53.526 46.5452 53.7716 46.6412C54.0172 46.7372 54.241 46.8814 54.43 47.0653C54.6189 47.2493 54.7691 47.4693 54.8715 47.7122C54.974 47.9552 55.0268 48.2162 55.0267 48.4799C55.0267 49.0174 54.8131 49.5329 54.4331 49.913C54.053 50.293 53.5375 50.5066 53 50.5066Z" fill="#0074FF"/>
<path d="M53 45.1736H47.6667C47.1385 45.1597 46.6366 44.94 46.268 44.5614C45.8994 44.1829 45.6932 43.6753 45.6934 43.1469C45.6934 42.6235 45.9012 42.1216 46.2713 41.7515C46.6414 41.3815 47.1433 41.1736 47.6667 41.1736H53C53.2636 41.1664 53.526 41.2122 53.7716 41.3082C54.0172 41.4041 54.241 41.5484 54.43 41.7323C54.6189 41.9163 54.7691 42.1363 54.8715 42.3792C54.974 42.6222 55.0268 42.8832 55.0267 43.1469C55.0267 43.6844 54.8131 44.1999 54.4331 44.5799C54.053 44.96 53.5375 45.1736 53 45.1736Z" fill="#0074FF"/>
<path d="M53 55.8401H47.6667C47.1385 55.8262 46.6366 55.6065 46.268 55.2279C45.8994 54.8494 45.6932 54.3418 45.6934 53.8134C45.6934 53.5542 45.7444 53.2976 45.8435 53.0582C45.9427 52.8188 46.0881 52.6013 46.2713 52.418C46.4546 52.2348 46.6721 52.0894 46.9115 51.9903C47.1509 51.8911 47.4075 51.8401 47.6667 51.8401H53C53.2636 51.8329 53.526 51.8787 53.7716 51.9747C54.0172 52.0707 54.241 52.2149 54.43 52.3988C54.6189 52.5828 54.7691 52.8028 54.8715 53.0457C54.974 53.2887 55.0268 53.5497 55.0267 53.8134C55.0267 54.3509 54.8131 54.8664 54.4331 55.2464C54.053 55.6265 53.5375 55.8401 53 55.8401Z" fill="#0074FF"/>
<path d="M53 61.1736H47.6667C47.1385 61.1597 46.6366 60.94 46.268 60.5614C45.8994 60.1829 45.6932 59.6753 45.6934 59.1469C45.6934 58.6235 45.9012 58.1216 46.2713 57.7515C46.6414 57.3815 47.1433 57.1736 47.6667 57.1736H53C53.2636 57.1664 53.526 57.2122 53.7716 57.3082C54.0172 57.4041 54.241 57.5484 54.43 57.7323C54.6189 57.9163 54.7691 58.1363 54.8715 58.3792C54.974 58.6222 55.0268 58.8832 55.0267 59.1469C55.0267 59.6844 54.8131 60.1999 54.4331 60.5799C54.053 60.96 53.5375 61.1736 53 61.1736Z" fill="#0074FF"/>
<path d="M64.733 112.16C63.0384 113.862 60.9517 115.122 58.6564 115.828C56.3611 116.535 53.9274 116.667 51.569 116.213C49.2106 115.76 46.9998 114.734 45.1307 113.225C43.2616 111.717 41.7914 109.773 40.8493 107.564C39.9073 105.355 39.5221 102.948 39.7277 100.555C39.9333 98.1626 40.7233 95.8569 42.0284 93.8408C43.3335 91.8247 45.1137 90.16 47.2127 88.9928C49.3117 87.8257 51.6651 87.1918 54.0664 87.1469C56.0384 87.1157 57.9969 87.4768 59.8281 88.2093C61.6592 88.9418 63.3266 90.031 64.733 91.4136" fill="#CCE3FF"/>
<path d="M54.3331 118.507C50.0759 118.266 46.0722 116.405 43.1435 113.306C40.2147 110.206 38.583 106.104 38.583 101.84C38.583 97.5758 40.2147 93.4734 43.1435 90.3742C46.0722 87.275 50.0759 85.4141 54.3331 85.1732C56.5216 85.159 58.691 85.5808 60.7147 86.4141C62.7384 87.2474 64.5758 88.4754 66.1198 90.0265L63.2931 92.8532C62.1203 91.6736 60.7234 90.7404 59.1847 90.1085C57.646 89.4765 55.9965 89.1585 54.3331 89.1732C51.1158 89.3821 48.0985 90.8074 45.8938 93.1599C43.689 95.5124 42.4622 98.6157 42.4622 101.84C42.4622 105.064 43.689 108.167 45.8938 110.52C48.0985 112.872 51.1158 114.298 54.3331 114.507C56.0003 114.514 57.652 114.188 59.191 113.547C60.7299 112.905 62.1247 111.962 63.2931 110.773L66.1198 113.6C64.5785 115.158 62.7427 116.394 60.7192 117.237C58.6957 118.079 56.5249 118.511 54.3331 118.507Z" fill="#0074FF"/>
<path d="M75.6663 101.814C75.6685 104.616 75.1186 107.391 74.0479 109.981C72.9773 112.571 71.4068 114.924 69.4264 116.907L54.333 101.814L69.4264 86.7202C71.4068 88.7029 72.9773 91.0563 74.0479 93.6461C75.1186 96.2358 75.6685 99.0112 75.6663 101.814Z" fill="#99C7FF"/>
<path d="M69.427 118.88C69.1683 118.881 68.912 118.829 68.6738 118.728C68.4355 118.628 68.22 118.48 68.0403 118.293L52.947 103.2C52.7609 103.02 52.6129 102.805 52.5121 102.567C52.4113 102.328 52.3597 102.072 52.3604 101.813C52.3624 101.276 52.5727 100.759 52.947 100.373L68.0403 85.28C68.22 85.0939 68.4355 84.9459 68.6738 84.8451C68.912 84.7443 69.1683 84.6927 69.427 84.6934C69.9474 84.7036 70.444 84.9137 70.8137 85.28C75.1876 89.66 77.6443 95.5968 77.6443 101.787C77.6443 107.977 75.1876 113.913 70.8137 118.293C70.444 118.66 69.9474 118.87 69.427 118.88ZM57.1604 101.813L69.3737 113.973C72.1666 110.526 73.6906 106.224 73.6906 101.787C73.6906 97.3498 72.1666 93.0476 69.3737 89.6L57.1604 101.813Z" fill="#0074FF"/>
<path d="M127.667 55.8403H90.3337C89.8055 55.8263 89.3036 55.6067 88.935 55.2281C88.5664 54.8495 88.3602 54.3419 88.3604 53.8136V32.4802C88.4381 32.0058 88.6819 31.5746 89.0482 31.2633C89.4146 30.9521 89.8797 30.7812 90.3604 30.7812C90.8411 30.7812 91.3061 30.9521 91.6724 31.2633C92.0388 31.5746 92.2826 32.0058 92.3604 32.4802V51.8403H127.667C127.931 51.8331 128.193 51.8789 128.439 51.9749C128.684 52.0708 128.908 52.215 129.097 52.399C129.286 52.583 129.436 52.8029 129.539 53.0459C129.641 53.2889 129.694 53.5499 129.694 53.8136C129.694 54.3511 129.48 54.8665 129.1 55.2466C128.72 55.6267 128.204 55.8403 127.667 55.8403Z" fill="#0074FF"/>
<path d="M101 38.3468C102.767 38.3468 104.2 36.9141 104.2 35.1468C104.2 33.3795 102.767 31.9468 101 31.9468C99.2325 31.9468 97.7998 33.3795 97.7998 35.1468C97.7998 36.9141 99.2325 38.3468 101 38.3468Z" fill="#99C7FF"/>
<path d="M101 40.5334C99.9455 40.5334 98.9144 40.2205 98.0373 39.6345C97.1602 39.0485 96.4766 38.2155 96.073 37.241C95.6693 36.2665 95.5637 35.1941 95.7695 34.1595C95.9753 33.125 96.4832 32.1747 97.2291 31.4288C97.9749 30.6829 98.9253 30.175 99.9598 29.9692C100.994 29.7634 102.067 29.869 103.041 30.2727C104.016 30.6763 104.849 31.3599 105.435 32.237C106.021 33.114 106.334 34.1452 106.334 35.2C106.334 36.6145 105.772 37.9711 104.772 38.9713C103.771 39.9715 102.415 40.5334 101 40.5334ZM101 34.1867C100.689 34.1867 100.391 34.3103 100.171 34.5303C99.9506 34.7504 99.827 35.0488 99.827 35.36C99.827 36.6933 102.227 36.6933 102.227 35.36C102.26 35.1845 102.252 35.0038 102.205 34.8317C102.157 34.6596 102.071 34.5007 101.952 34.367C101.834 34.2332 101.687 34.1283 101.522 34.06C101.357 33.9918 101.178 33.9622 101 33.9733V34.1867Z" fill="#0074FF"/>
<path d="M125 41.0133C126.767 41.0133 128.2 39.5806 128.2 37.8133C128.2 36.046 126.767 34.6133 125 34.6133C123.232 34.6133 121.8 36.046 121.8 37.8133C121.8 39.5806 123.232 41.0133 125 41.0133Z" fill="#99C7FF"/>
<path d="M125 42.9865C123.945 42.9865 122.914 42.6737 122.037 42.0877C121.16 41.5016 120.477 40.6687 120.073 39.6941C119.669 38.7196 119.564 37.6472 119.769 36.6127C119.975 35.5781 120.483 34.6278 121.229 33.8819C121.975 33.136 122.925 32.6281 123.96 32.4223C124.994 32.2165 126.067 32.3221 127.041 32.7258C128.016 33.1294 128.849 33.813 129.435 34.6901C130.021 35.5672 130.334 36.5983 130.334 37.6531C130.334 39.0676 129.772 40.4242 128.772 41.4244C127.771 42.4246 126.415 42.9865 125 42.9865ZM125 36.6398C124.689 36.6398 124.391 36.7634 124.171 36.9835C123.951 37.2035 123.827 37.502 123.827 37.8131C123.827 39.1465 126.227 39.1465 126.227 37.8131C126.227 37.6545 126.195 37.4974 126.133 37.3515C126.071 37.2055 125.979 37.0737 125.865 36.964C125.75 36.8543 125.614 36.7691 125.466 36.7133C125.317 36.6576 125.159 36.6326 125 36.6398Z" fill="#0074FF"/>
<path d="M113 46.3468C114.767 46.3468 116.2 44.9141 116.2 43.1468C116.2 41.3795 114.767 39.9468 113 39.9468C111.232 39.9468 109.8 41.3795 109.8 43.1468C109.8 44.9141 111.232 46.3468 113 46.3468Z" fill="#66ACFF"/>
<path d="M113 48.32C111.945 48.32 110.914 48.0072 110.037 47.4212C109.16 46.8351 108.477 46.0022 108.073 45.0276C107.669 44.0531 107.564 42.9807 107.769 41.9462C107.975 40.9116 108.483 39.9613 109.229 39.2154C109.975 38.4695 110.925 37.9616 111.96 37.7558C112.994 37.55 114.067 37.6556 115.041 38.0593C116.016 38.4629 116.849 39.1465 117.435 40.0236C118.021 40.9007 118.334 41.9318 118.334 42.9866C118.334 44.4011 117.772 45.7577 116.772 46.7579C115.771 47.7581 114.415 48.32 113 48.32ZM113 41.9733C112.689 41.9733 112.391 42.0969 112.171 42.317C111.951 42.537 111.827 42.8355 111.827 43.1466C111.827 44.48 114.227 44.48 114.227 43.1466C114.227 42.988 114.195 42.8309 114.133 42.685C114.071 42.539 113.979 42.4072 113.865 42.2975C113.75 42.1878 113.614 42.1026 113.466 42.0468C113.317 41.9911 113.159 41.9661 113 41.9733Z" fill="#0074FF"/>
<path d="M90.3335 47.2534C90.0618 47.2546 89.793 47.1982 89.5448 47.0879C89.2966 46.9776 89.0746 46.8158 88.8935 46.6134C88.5253 46.235 88.3193 45.7279 88.3193 45.2C88.3193 44.6721 88.5253 44.1651 88.8935 43.7867L97.2668 35.9467C97.6452 35.5786 98.1522 35.3726 98.6801 35.3726C99.208 35.3726 99.7151 35.5786 100.093 35.9467C100.282 36.1306 100.432 36.3503 100.535 36.5931C100.637 36.8358 100.69 37.0966 100.69 37.36C100.69 37.6235 100.637 37.8843 100.535 38.127C100.432 38.3697 100.282 38.5895 100.093 38.7734L91.6668 46.6134C91.4999 46.8052 91.2955 46.961 91.0662 47.071C90.837 47.1811 90.5876 47.2432 90.3335 47.2534Z" fill="#0074FF"/>
<path d="M110.227 43.5734C109.805 43.5811 109.393 43.4499 109.053 43.2L102.547 38.5067C102.329 38.3527 102.145 38.1574 102.003 37.9319C101.861 37.7065 101.766 37.4553 101.721 37.1928C101.676 36.9303 101.684 36.6616 101.743 36.402C101.803 36.1424 101.913 35.8971 102.067 35.68C102.394 35.2611 102.869 34.9835 103.395 34.9042C103.921 34.8248 104.457 34.9498 104.893 35.2534L111.4 39.9467C111.619 40.1 111.805 40.2963 111.945 40.5235C112.086 40.7507 112.179 41.0042 112.219 41.2685C112.259 41.5329 112.245 41.8026 112.177 42.0613C112.11 42.3199 111.991 42.5622 111.827 42.7733C111.645 43.0265 111.404 43.2317 111.126 43.3711C110.847 43.5105 110.538 43.5799 110.227 43.5734Z" fill="#0074FF"/>
<path d="M116.2 44.4266C115.812 44.4172 115.435 44.2966 115.113 44.0791C114.792 43.8617 114.54 43.5565 114.387 43.1999C114.282 42.9587 114.227 42.6989 114.224 42.436C114.221 42.173 114.271 41.9122 114.37 41.6687C114.469 41.4253 114.616 41.2041 114.802 41.0183C114.988 40.8324 115.21 40.6857 115.453 40.5866L121.693 37.9199C121.935 37.8152 122.194 37.7598 122.457 37.757C122.72 37.7541 122.981 37.8038 123.225 37.9032C123.468 38.0025 123.689 38.1496 123.875 38.3356C124.061 38.5217 124.208 38.743 124.307 38.9866C124.411 39.2278 124.467 39.4875 124.47 39.7505C124.472 40.0134 124.423 40.2743 124.323 40.5177C124.224 40.7612 124.077 40.9824 123.891 41.1682C123.705 41.354 123.484 41.5008 123.24 41.5999L117 44.2666C116.746 44.3709 116.475 44.4252 116.2 44.4266Z" fill="#0074FF"/>
<path d="M7.16875 150.904H12.6088V145.624H15.9368V150.904H21.3768V154.232H15.9368V159.576H12.6088V154.232H7.16875V150.904ZM39.7488 149.528C38.7034 149.528 37.9781 149.304 37.5728 148.856C37.5941 149.197 37.6048 149.795 37.6048 150.648V159H34.3088V150.68C34.3088 148.589 34.2021 146.787 33.9888 145.272C33.7754 143.736 33.3488 141.901 32.7088 139.768L35.8768 138.648L37.3168 144.248C37.6368 145.464 38.3621 146.072 39.4928 146.072C40.0688 146.072 40.5594 145.901 40.9648 145.56C41.3701 145.197 41.5728 144.739 41.5728 144.184C41.5728 143.459 41.3594 141.848 40.9328 139.352L44.2608 138.648C44.6874 141.187 44.9008 143.064 44.9008 144.28C44.9008 145.283 44.6768 146.189 44.2288 147C43.7808 147.789 43.1621 148.408 42.3728 148.856C41.6048 149.304 40.7301 149.528 39.7488 149.528ZM52.3248 156.664H49.3168L48.4528 162.648H50.9488L52.3248 156.664ZM62.5843 143.16C63.6509 143.16 64.6749 143.459 65.6563 144.056C66.6589 144.653 67.4589 145.443 68.0563 146.424C68.6536 147.405 68.9523 148.429 68.9523 149.496C68.9523 150.563 68.6536 151.597 68.0563 152.6C67.4589 153.581 66.6589 154.371 65.6563 154.968C64.6749 155.565 63.6509 155.864 62.5843 155.864C61.5176 155.864 60.4829 155.565 59.4803 154.968C58.4989 154.371 57.7096 153.581 57.1123 152.6C56.5149 151.597 56.2163 150.563 56.2163 149.496C56.2163 148.429 56.5149 147.405 57.1123 146.424C57.7096 145.443 58.4989 144.653 59.4803 144.056C60.4829 143.459 61.5176 143.16 62.5843 143.16ZM62.5843 152.696C63.0963 152.696 63.5976 152.547 64.0883 152.248C64.6003 151.928 65.0056 151.523 65.3043 151.032C65.6243 150.52 65.7843 150.008 65.7843 149.496C65.7843 148.984 65.6243 148.483 65.3043 147.992C65.0056 147.501 64.6003 147.107 64.0883 146.808C63.5976 146.509 63.0963 146.36 62.5843 146.36C62.0723 146.36 61.5603 146.52 61.0483 146.84C60.5576 147.139 60.1523 147.533 59.8323 148.024C59.5336 148.493 59.3843 148.984 59.3843 149.496C59.3843 150.008 59.5336 150.52 59.8323 151.032C60.1523 151.523 60.5576 151.928 61.0483 152.248C61.5603 152.547 62.0723 152.696 62.5843 152.696ZM79.9555 143.16C81.0222 143.16 82.0462 143.459 83.0275 144.056C84.0302 144.653 84.8302 145.443 85.4275 146.424C86.0248 147.405 86.3235 148.429 86.3235 149.496C86.3235 150.563 86.0248 151.597 85.4275 152.6C84.8302 153.581 84.0302 154.371 83.0275 154.968C82.0462 155.565 81.0222 155.864 79.9555 155.864C78.8888 155.864 77.8542 155.565 76.8515 154.968C75.8702 154.371 75.0808 153.581 74.4835 152.6C73.8862 151.597 73.5875 150.563 73.5875 149.496C73.5875 148.429 73.8862 147.405 74.4835 146.424C75.0808 145.443 75.8702 144.653 76.8515 144.056C77.8542 143.459 78.8888 143.16 79.9555 143.16ZM79.9555 152.696C80.4675 152.696 80.9688 152.547 81.4595 152.248C81.9715 151.928 82.3768 151.523 82.6755 151.032C82.9955 150.52 83.1555 150.008 83.1555 149.496C83.1555 148.984 82.9955 148.483 82.6755 147.992C82.3768 147.501 81.9715 147.107 81.4595 146.808C80.9688 146.509 80.4675 146.36 79.9555 146.36C79.4435 146.36 78.9315 146.52 78.4195 146.84C77.9288 147.139 77.5235 147.533 77.2035 148.024C76.9048 148.493 76.7555 148.984 76.7555 149.496C76.7555 150.008 76.9048 150.52 77.2035 151.032C77.5235 151.523 77.9288 151.928 78.4195 152.248C78.9315 152.547 79.4435 152.696 79.9555 152.696ZM97.3268 143.16C98.3934 143.16 99.4174 143.459 100.399 144.056C101.401 144.653 102.201 145.443 102.799 146.424C103.396 147.405 103.695 148.429 103.695 149.496C103.695 150.563 103.396 151.597 102.799 152.6C102.201 153.581 101.401 154.371 100.399 154.968C99.4174 155.565 98.3934 155.864 97.3268 155.864C96.2601 155.864 95.2254 155.565 94.2228 154.968C93.2414 154.371 92.4521 153.581 91.8548 152.6C91.2574 151.597 90.9588 150.563 90.9588 149.496C90.9588 148.429 91.2574 147.405 91.8548 146.424C92.4521 145.443 93.2414 144.653 94.2228 144.056C95.2254 143.459 96.2601 143.16 97.3268 143.16ZM97.3268 152.696C97.8388 152.696 98.3401 152.547 98.8308 152.248C99.3428 151.928 99.7481 151.523 100.047 151.032C100.367 150.52 100.527 150.008 100.527 149.496C100.527 148.984 100.367 148.483 100.047 147.992C99.7481 147.501 99.3428 147.107 98.8308 146.808C98.3401 146.509 97.8388 146.36 97.3268 146.36C96.8148 146.36 96.3028 146.52 95.7908 146.84C95.3001 147.139 94.8948 147.533 94.5748 148.024C94.2761 148.493 94.1268 148.984 94.1268 149.496C94.1268 150.008 94.2761 150.52 94.5748 151.032C94.8948 151.523 95.3001 151.928 95.7908 152.248C96.3028 152.547 96.8148 152.696 97.3268 152.696ZM111.466 156.664H108.458L107.594 162.648H110.09L111.466 156.664ZM121.726 143.16C122.792 143.16 123.816 143.459 124.798 144.056C125.8 144.653 126.6 145.443 127.198 146.424C127.795 147.405 128.094 148.429 128.094 149.496C128.094 150.563 127.795 151.597 127.198 152.6C126.6 153.581 125.8 154.371 124.798 154.968C123.816 155.565 122.792 155.864 121.726 155.864C120.659 155.864 119.624 155.565 118.622 154.968C117.64 154.371 116.851 153.581 116.254 152.6C115.656 151.597 115.358 150.563 115.358 149.496C115.358 148.429 115.656 147.405 116.254 146.424C116.851 145.443 117.64 144.653 118.622 144.056C119.624 143.459 120.659 143.16 121.726 143.16ZM121.726 152.696C122.238 152.696 122.739 152.547 123.23 152.248C123.742 151.928 124.147 151.523 124.446 151.032C124.766 150.52 124.926 150.008 124.926 149.496C124.926 148.984 124.766 148.483 124.446 147.992C124.147 147.501 123.742 147.107 123.23 146.808C122.739 146.509 122.238 146.36 121.726 146.36C121.214 146.36 120.702 146.52 120.19 146.84C119.699 147.139 119.294 147.533 118.974 148.024C118.675 148.493 118.526 148.984 118.526 149.496C118.526 150.008 118.675 150.52 118.974 151.032C119.294 151.523 119.699 151.928 120.19 152.248C120.702 152.547 121.214 152.696 121.726 152.696ZM139.097 143.16C140.163 143.16 141.187 143.459 142.169 144.056C143.171 144.653 143.971 145.443 144.569 146.424C145.166 147.405 145.465 148.429 145.465 149.496C145.465 150.563 145.166 151.597 144.569 152.6C143.971 153.581 143.171 154.371 142.169 154.968C141.187 155.565 140.163 155.864 139.097 155.864C138.03 155.864 136.995 155.565 135.993 154.968C135.011 154.371 134.222 153.581 133.625 152.6C133.027 151.597 132.729 150.563 132.729 149.496C132.729 148.429 133.027 147.405 133.625 146.424C134.222 145.443 135.011 144.653 135.993 144.056C136.995 143.459 138.03 143.16 139.097 143.16ZM139.097 152.696C139.609 152.696 140.11 152.547 140.601 152.248C141.113 151.928 141.518 151.523 141.817 151.032C142.137 150.52 142.297 150.008 142.297 149.496C142.297 148.984 142.137 148.483 141.817 147.992C141.518 147.501 141.113 147.107 140.601 146.808C140.11 146.509 139.609 146.36 139.097 146.36C138.585 146.36 138.073 146.52 137.561 146.84C137.07 147.139 136.665 147.533 136.345 148.024C136.046 148.493 135.897 148.984 135.897 149.496C135.897 150.008 136.046 150.52 136.345 151.032C136.665 151.523 137.07 151.928 137.561 152.248C138.073 152.547 138.585 152.696 139.097 152.696ZM156.468 143.16C157.535 143.16 158.559 143.459 159.54 144.056C160.543 144.653 161.343 145.443 161.94 146.424C162.537 147.405 162.836 148.429 162.836 149.496C162.836 150.563 162.537 151.597 161.94 152.6C161.343 153.581 160.543 154.371 159.54 154.968C158.559 155.565 157.535 155.864 156.468 155.864C155.401 155.864 154.367 155.565 153.364 154.968C152.383 154.371 151.593 153.581 150.996 152.6C150.399 151.597 150.1 150.563 150.1 149.496C150.1 148.429 150.399 147.405 150.996 146.424C151.593 145.443 152.383 144.653 153.364 144.056C154.367 143.459 155.401 143.16 156.468 143.16ZM156.468 152.696C156.98 152.696 157.481 152.547 157.972 152.248C158.484 151.928 158.889 151.523 159.188 151.032C159.508 150.52 159.668 150.008 159.668 149.496C159.668 148.984 159.508 148.483 159.188 147.992C158.889 147.501 158.484 147.107 157.972 146.808C157.481 146.509 156.98 146.36 156.468 146.36C155.956 146.36 155.444 146.52 154.932 146.84C154.441 147.139 154.036 147.533 153.716 148.024C153.417 148.493 153.268 148.984 153.268 149.496C153.268 150.008 153.417 150.52 153.716 151.032C154.036 151.523 154.441 151.928 154.932 152.248C155.444 152.547 155.956 152.696 156.468 152.696Z" fill="#0074FF"/>
</svg>
