<svg width="128" height="128" viewBox="0 0 128 128" fill="none" xmlns="http://www.w3.org/2000/svg">
<path d="M84.9068 68.1068C84.3783 70.8592 83.2891 73.4734 81.7068 75.7868L85.5468 79.6268C83.9268 81.9523 81.9463 84.0047 79.6801 85.7068L75.8401 81.8668C73.5268 83.449 70.9126 84.5383 68.1601 85.0668V90.4001C65.4091 90.898 62.5911 90.898 59.8402 90.4001V85.0668C57.0877 84.5383 54.4735 83.449 52.1601 81.8668L48.3201 85.7068C46.0515 84.0736 44.0538 82.0939 42.4001 79.8401L46.2401 76.0001C44.6986 73.6708 43.6294 71.0614 43.0934 68.3201H37.7601C37.2623 65.5691 37.2623 62.7511 37.7601 60.0001H43.0934C43.6294 57.2588 44.6986 54.6494 46.2401 52.3201L42.4001 48.4801C44.0276 46.2039 46.0293 44.2202 48.3201 42.6134L52.1068 46.4534C54.4578 44.789 57.1267 43.6271 59.9468 43.0401V37.7068C61.3357 37.4455 62.7469 37.3204 64.1601 37.3334C65.538 37.3229 66.9134 37.448 68.2668 37.7068V43.0401C71.012 43.5924 73.6216 44.6797 75.9468 46.2401L79.7868 42.4001C82.0067 44.0785 83.9503 46.094 85.5468 48.3734L81.6535 52.2134C83.2327 54.5345 84.3382 57.1443 84.9068 59.8934H90.2401C90.5014 61.2824 90.6265 62.6935 90.6135 64.1068C90.624 65.4846 90.4989 66.8601 90.2401 68.2134L84.9068 68.1068Z" fill="#99C7FF"/>
<path d="M63.9998 92.6934C62.4608 92.6963 60.9251 92.5534 59.4131 92.2667C58.9614 92.1694 58.5565 91.9207 58.2655 91.5618C57.9745 91.2029 57.8149 90.7554 57.8131 90.2934V86.5067C55.958 85.9593 54.1694 85.208 52.4798 84.2667L49.7597 86.9867C49.3982 87.2812 48.9461 87.4421 48.4798 87.4421C48.0134 87.4421 47.5613 87.2812 47.1998 86.9867C44.7638 85.2179 42.6219 83.076 40.8531 80.64C40.5488 80.283 40.3817 79.8292 40.3817 79.36C40.3817 78.8909 40.5488 78.4371 40.8531 78.08L43.6264 75.3067C42.6375 73.6407 41.8836 71.8459 41.3864 69.9734H37.5998C37.1302 69.969 36.6768 69.8018 36.3169 69.5003C35.957 69.1987 35.7129 68.7816 35.6264 68.32C35.0581 65.3245 35.0581 62.2489 35.6264 59.2534C35.7143 58.797 35.9604 58.3863 36.3214 58.0936C36.6824 57.8009 37.1351 57.645 37.5998 57.6534H41.3864C41.8783 55.779 42.6325 53.9835 43.6264 52.32L40.8531 49.6C40.5544 49.23 40.3914 48.7689 40.3914 48.2934C40.3914 47.8178 40.5544 47.3567 40.8531 46.9867C42.6268 44.5369 44.7886 42.3932 47.2531 40.64C47.6529 40.3771 48.1312 40.26 48.6072 40.3086C49.0832 40.3572 49.528 40.5684 49.8664 40.9067L52.4798 43.5734C54.158 42.622 55.9501 41.8873 57.8131 41.3867V37.7067C57.8174 37.2372 57.9846 36.7837 58.2862 36.4238C58.5877 36.0639 59.0049 35.8198 59.4665 35.7334C62.4651 35.1996 65.5345 35.1996 68.5331 35.7334C68.9895 35.8212 69.4002 36.0673 69.6929 36.4283C69.9856 36.7893 70.1415 37.242 70.1331 37.7067V41.4934C71.9983 42.0119 73.7903 42.7646 75.4665 43.7334L78.1864 41.0134C78.552 40.705 79.0149 40.5359 79.4931 40.5359C79.9714 40.5359 80.4342 40.705 80.7998 41.0134C83.2345 42.7627 85.3766 44.8868 87.1464 47.3067C87.4548 47.6723 87.6239 48.1351 87.6239 48.6134C87.6239 49.0916 87.4548 49.5545 87.1464 49.92L84.4264 52.64C85.3858 54.3208 86.138 56.1116 86.6664 57.9734H90.5065C90.9711 57.965 91.4238 58.1209 91.7848 58.4136C92.1458 58.7063 92.3919 59.117 92.4798 59.5734C92.7518 61.0866 92.8768 62.6227 92.8531 64.16C92.8726 65.6619 92.7476 67.1621 92.4798 68.64C92.3933 69.1015 92.1492 69.5187 91.7893 69.8203C91.4294 70.1218 90.976 70.289 90.5065 70.2934H86.6131C86.0698 72.1583 85.2996 73.9495 84.3198 75.6267L87.0398 78.3467C87.3481 78.7123 87.5172 79.1751 87.5172 79.6534C87.5172 80.1316 87.3481 80.5945 87.0398 80.96C85.2566 83.3837 83.1168 85.5235 80.6931 87.3067C80.3231 87.6054 79.8619 87.7684 79.3864 87.7684C78.9109 87.7684 78.4498 87.6054 78.0798 87.3067L75.3598 84.5867C73.6746 85.5371 71.8849 86.2888 70.0264 86.8267V90.6134C70.0348 91.078 69.8789 91.5308 69.5862 91.8918C69.2935 92.2528 68.8828 92.4989 68.4264 92.5867C66.9574 92.7598 65.4754 92.7955 63.9998 92.6934ZM61.8131 88.5867C63.2511 88.6935 64.6951 88.6935 66.1331 88.5867V84.9067C66.1374 84.4372 66.3046 83.9837 66.6062 83.6238C66.9077 83.2639 67.3249 83.0198 67.7864 82.9334C70.2718 82.463 72.6326 81.4824 74.7197 80.0534C75.0994 79.7879 75.5623 79.6687 76.023 79.7177C76.4837 79.7667 76.9111 79.9807 77.2264 80.32L79.8398 82.88C80.9613 81.963 81.9967 80.9455 82.9331 79.84L80.2664 77.2267C79.981 76.8611 79.826 76.4105 79.826 75.9467C79.826 75.4828 79.981 75.0323 80.2664 74.6667C81.6822 72.5724 82.6616 70.2144 83.1464 67.7334C83.2343 67.277 83.4804 66.8663 83.8414 66.5736C84.2024 66.2809 84.6551 66.125 85.1198 66.1334H88.7464C88.801 65.4233 88.801 64.7101 88.7464 64C88.8023 63.2722 88.8023 62.5412 88.7464 61.8134H85.1198C84.6577 61.8116 84.2102 61.6519 83.8513 61.3609C83.4924 61.0699 83.2437 60.6651 83.1464 60.2134C82.6305 57.7165 81.6342 55.3436 80.2131 53.2267C79.9277 52.8611 79.7726 52.4105 79.7726 51.9467C79.7726 51.4828 79.9277 51.0323 80.2131 50.6667L82.8798 48.1067C81.9298 47.014 80.8955 45.9976 79.7864 45.0667L77.1731 47.68C76.8158 47.9612 76.3744 48.114 75.9198 48.114C75.4651 48.114 75.0237 47.9612 74.6664 47.68C72.5442 46.2801 70.172 45.3023 67.6797 44.8C67.2281 44.7028 66.8232 44.4541 66.5322 44.0952C66.2412 43.7363 66.0816 43.2887 66.0798 42.8267V39.2C64.6418 39.0933 63.1978 39.0933 61.7597 39.2V43.04C61.7681 43.5047 61.6123 43.9574 61.3196 44.3184C61.0269 44.6794 60.6161 44.9255 60.1598 45.0134C57.6748 45.4852 55.3143 46.4657 53.2264 47.8934C52.8349 48.1523 52.3656 48.2672 51.8987 48.2186C51.4318 48.1699 50.9962 47.9607 50.6664 47.6267L48.1064 45.0667C46.9892 45.9706 45.9703 46.9895 45.0664 48.1067L47.6264 50.72C47.9268 51.0685 48.0919 51.5133 48.0919 51.9734C48.0919 52.4334 47.9268 52.8782 47.6264 53.2267C46.2217 55.3211 45.2598 57.6805 44.7998 60.16C44.7133 60.6215 44.4692 61.0387 44.1093 61.3403C43.7494 61.6418 43.296 61.809 42.8264 61.8134H39.1464C39.1464 62.4534 39.1464 63.2 39.1464 63.9467C39.1464 64.6934 39.1464 65.44 39.1464 66.1334H42.8264C43.2911 66.125 43.7438 66.2809 44.1048 66.5736C44.4658 66.8663 44.7119 67.277 44.7998 67.7334C45.2698 70.2265 46.2306 72.6014 47.6264 74.72C47.9168 75.0732 48.0755 75.5162 48.0755 75.9734C48.0755 76.4305 47.9168 76.8736 47.6264 77.2267L45.0664 79.7867C46.0028 80.8921 47.0382 81.9097 48.1598 82.8267L50.7197 80.2667C51.0496 79.9326 51.4851 79.7234 51.952 79.6748C52.4189 79.6262 52.8882 79.7411 53.2798 80C55.3616 81.4388 57.7246 82.4204 60.2131 82.88C60.6648 82.9773 61.0697 83.226 61.3607 83.5849C61.6517 83.9438 61.8113 84.3913 61.8131 84.8534V88.5867Z" fill="#0074FF"/>
<path d="M63.9997 74.6668C69.8907 74.6668 74.6663 69.8912 74.6663 64.0002C74.6663 58.1091 69.8907 53.3335 63.9997 53.3335C58.1086 53.3335 53.333 58.1091 53.333 64.0002C53.333 69.8912 58.1086 74.6668 63.9997 74.6668Z" fill="white"/>
<path d="M63.9996 76.6932C61.4869 76.7038 59.0275 75.9683 56.9331 74.58C54.8387 73.1916 53.2034 71.2129 52.2345 68.8945C51.2656 66.576 51.0066 64.0221 51.4904 61.5564C51.9741 59.0906 53.1788 56.8239 54.9518 55.0433C56.7249 53.2628 58.9865 52.0486 61.4503 51.5545C63.914 51.0604 66.4689 51.3086 68.7914 52.2677C71.1139 53.2269 73.0995 54.8538 74.4966 56.9423C75.8938 59.0309 76.6396 61.4871 76.6396 63.9999C76.6257 67.3528 75.2912 70.5653 72.9253 72.9412C70.5593 75.3172 67.3525 76.6652 63.9996 76.6932ZM63.9996 55.3599C62.2757 55.3493 60.5876 55.8516 59.1499 56.8027C57.7121 57.7539 56.5896 59.111 55.9251 60.7017C55.2605 62.2924 55.0838 64.0447 55.4175 65.736C55.7513 67.4273 56.5803 68.9812 57.7993 70.2001C59.0183 71.4191 60.5722 72.2482 62.2635 72.5819C63.9548 72.9157 65.7071 72.739 67.2978 72.0744C68.8884 71.4098 70.2456 70.2873 71.1968 68.8496C72.1479 67.4118 72.6501 65.7237 72.6396 63.9999C72.6396 61.7084 71.7293 59.5108 70.109 57.8905C68.4887 56.2702 66.2911 55.3599 63.9996 55.3599Z" fill="#0074FF"/>
<path d="M58.0264 43.36V43.3066H62.0264L58.0264 43.36Z" fill="#0074FF"/>
<path d="M58.0264 37.92V37.8667H62.0264L58.0264 37.92Z" fill="#0074FF"/>
<path d="M47.0934 44.1067L47.04 44.0533L49.92 41.1733L47.0934 44.1067Z" fill="#0074FF"/>
<path d="M45.067 53.8135L45.0137 53.7601L47.8937 50.9868L45.067 53.8135Z" fill="#0074FF"/>
<path d="M37.9195 62.0269H37.8662V58.0269L37.9195 62.0269Z" fill="#0074FF"/>
<path d="M43.36 70.3999H43.3066V66.3999L43.36 70.3999Z" fill="#0074FF"/>
<path d="M53.8136 83.3599L50.9336 80.5332L53.8669 83.3065L53.8136 83.3599Z" fill="#0074FF"/>
<path d="M58.0264 90.5602V90.5068H62.0264L58.0264 90.5602Z" fill="#0074FF"/>
<path d="M66.4004 85.1199V85.0132H70.4004L66.4004 85.1199Z" fill="#0074FF"/>
<path d="M80.5338 77.4402L80.4805 77.3868L83.2538 74.5068L80.5338 77.4402Z" fill="#0074FF"/>
<path d="M117.334 10.6665H90.667V37.3332H117.334V10.6665Z" fill="#CCE3FF"/>
<path d="M117.333 39.3601H90.6663C90.1288 39.3601 89.6134 39.1466 89.2333 38.7665C88.8532 38.3865 88.6396 37.871 88.6396 37.3335V10.6668C88.6396 10.1293 88.8532 9.61381 89.2333 9.23373C89.6134 8.85366 90.1288 8.64014 90.6663 8.64014H117.333C117.597 8.64004 117.858 8.6928 118.101 8.79529C118.344 8.89778 118.564 9.04792 118.748 9.23685C118.932 9.42577 119.076 9.64965 119.172 9.89525C119.268 10.1409 119.313 10.4032 119.306 10.6668V37.3335C119.313 37.5971 119.268 37.8594 119.172 38.105C119.076 38.3506 118.932 38.5745 118.748 38.7634C118.564 38.9524 118.344 39.1025 118.101 39.205C117.858 39.3075 117.597 39.3602 117.333 39.3601ZM92.6396 35.3601H115.306V12.6935H92.6396V35.3601Z" fill="#0074FF"/>
<path d="M107.36 10.6665V21.2798L104 17.2798L100.693 21.3332V10.6665H107.36Z" fill="#99C7FF"/>
<path d="M100.694 23.3599C100.466 23.4143 100.228 23.4143 100 23.3599C99.6113 23.2265 99.2736 22.9749 99.0345 22.6402C98.7955 22.3056 98.667 21.9045 98.667 21.4933V10.8266C98.6669 10.5629 98.7197 10.3019 98.8221 10.0589C98.9246 9.81595 99.0747 9.59599 99.2637 9.41204C99.4526 9.22808 99.6765 9.08386 99.9221 8.98788C100.168 8.89191 100.43 8.84613 100.694 8.85326H107.36C107.884 8.85326 108.386 9.06116 108.756 9.43123C109.126 9.8013 109.334 10.3032 109.334 10.8266V21.4933C109.334 21.9045 109.205 22.3056 108.966 22.6402C108.727 22.9749 108.389 23.2265 108 23.3599C107.621 23.5065 107.204 23.5286 106.811 23.4232C106.418 23.3177 106.069 23.0902 105.814 22.7733L104 20.6399L102.24 22.8266C102.034 23.0181 101.789 23.1644 101.523 23.2563C101.257 23.3481 100.974 23.3834 100.694 23.3599ZM104 15.3066C104.488 15.3009 104.961 15.4714 105.334 15.7866V12.6933H102.614V15.7866C102.986 15.4714 103.459 15.3009 103.947 15.3066H104Z" fill="#0074FF"/>
<path d="M37.3337 90.6665H10.667V117.333H37.3337V90.6665Z" fill="#CCE3FF"/>
<path d="M37.333 119.36H10.6663C10.1288 119.36 9.61335 119.147 9.23328 118.767C8.8532 118.386 8.63965 117.871 8.63965 117.333V90.6668C8.63965 90.4007 8.6921 90.1371 8.79395 89.8912C8.89579 89.6453 9.04508 89.4219 9.23328 89.2337C9.42147 89.0456 9.64486 88.8963 9.89075 88.7944C10.1366 88.6926 10.4002 88.6401 10.6663 88.6401H37.333C37.5967 88.64 37.8577 88.6928 38.1007 88.7953C38.3436 88.8978 38.5636 89.0479 38.7476 89.2368C38.9315 89.4258 39.0757 89.6497 39.1717 89.8953C39.2677 90.1409 39.3134 90.4032 39.3063 90.6668V117.333C39.3134 117.597 39.2677 117.859 39.1717 118.105C39.0757 118.351 38.9315 118.574 38.7476 118.763C38.5636 118.952 38.3436 119.103 38.1007 119.205C37.8577 119.307 37.5967 119.36 37.333 119.36ZM12.6396 115.36H35.3063V92.6935H12.6396V115.36Z" fill="#0074FF"/>
<path d="M27.36 90.6665V101.28L24 97.2798L20.6934 101.333V90.6665H27.36Z" fill="#99C7FF"/>
<path d="M20.6936 103.36C20.4657 103.414 20.2282 103.414 20.0003 103.36C19.6113 103.227 19.2736 102.975 19.0345 102.64C18.7955 102.306 18.667 101.905 18.667 101.493V90.8266C18.6669 90.5629 18.7197 90.3019 18.8221 90.0589C18.9246 89.8159 19.0747 89.596 19.2637 89.412C19.4526 89.2281 19.6765 89.0839 19.9221 88.9879C20.1677 88.8919 20.43 88.8461 20.6936 88.8533H27.3603C27.8837 88.8533 28.3856 89.0612 28.7557 89.4312C29.1257 89.8013 29.3337 90.3032 29.3337 90.8266V101.493C29.3337 101.905 29.2051 102.306 28.9661 102.64C28.727 102.975 28.3894 103.227 28.0003 103.36C27.6207 103.506 27.2043 103.529 26.8113 103.423C26.4183 103.318 26.0689 103.09 25.8136 102.773L24.0003 100.64L22.2403 102.827C22.0337 103.018 21.7895 103.164 21.5232 103.256C21.2569 103.348 20.9744 103.383 20.6936 103.36ZM24.0003 95.3066C24.4881 95.3009 24.9615 95.4714 25.3337 95.7866V92.6933H22.6136V95.7866C22.9859 95.4714 23.4593 95.3009 23.947 95.3066H24.0003Z" fill="#0074FF"/>
<path d="M64.0001 112.374C59.8803 112.372 55.7769 111.853 51.7868 110.827C51.2727 110.689 50.8334 110.354 50.564 109.895C50.2946 109.436 50.2165 108.89 50.3468 108.374C50.4847 107.859 50.8193 107.42 51.2784 107.151C51.7374 106.881 52.284 106.803 52.8001 106.934C59.3316 108.644 66.1681 108.836 72.7852 107.494C79.4023 106.153 85.6242 103.313 90.9739 99.1943C96.3235 95.0752 100.659 89.7857 103.647 83.7313C106.635 77.6769 108.197 71.0185 108.213 64.2668C108.291 63.7925 108.535 63.3612 108.901 63.0499C109.268 62.7387 109.733 62.5679 110.213 62.5679C110.694 62.5679 111.159 62.7387 111.526 63.0499C111.892 63.3612 112.136 63.7925 112.213 64.2668C112.228 70.5973 110.989 76.8679 108.57 82.7179C106.151 88.5678 102.598 93.8814 98.1171 98.3527C93.6358 102.824 88.3144 106.365 82.4591 108.771C76.6039 111.177 70.3305 112.402 64.0001 112.374Z" fill="#0074FF"/>
<path d="M110.4 53.7598L103.467 63.9998H117.333L110.4 53.7598Z" fill="#CCE3FF"/>
<path d="M117.333 66.0269H103.466C103.103 66.0282 102.747 65.9293 102.436 65.7411C102.126 65.5529 101.873 65.2827 101.706 64.9602C101.513 64.6479 101.41 64.2877 101.41 63.9202C101.41 63.5527 101.513 63.1925 101.706 62.8802L108.64 52.6402C108.827 52.376 109.075 52.1606 109.363 52.0119C109.65 51.8632 109.969 51.7856 110.293 51.7856C110.617 51.7856 110.936 51.8632 111.224 52.0119C111.511 52.1606 111.759 52.376 111.946 52.6402L118.88 62.8802C119.062 63.1964 119.158 63.5551 119.158 63.9202C119.158 64.2853 119.062 64.644 118.88 64.9602C118.727 65.2496 118.507 65.4978 118.238 65.6836C117.968 65.8693 117.658 65.9871 117.333 66.0269ZM107.2 62.0269H113.546L110.4 57.3335L107.2 62.0269Z" fill="#0074FF"/>
<path d="M18.1335 66.4002C17.6053 66.3863 17.1034 66.1666 16.7348 65.7881C16.3662 65.4095 16.16 64.9019 16.1602 64.3735C16.1602 51.6431 21.2173 39.4342 30.219 30.4324C39.2208 21.4307 51.4298 16.3735 64.1602 16.3735C68.2796 16.3816 72.3821 16.9011 76.3735 17.9202C76.627 17.9879 76.8645 18.1056 77.072 18.2662C77.2795 18.4268 77.4529 18.6272 77.582 18.8557C77.7112 19.0841 77.7934 19.336 77.824 19.5967C77.8546 19.8573 77.8329 20.1214 77.7601 20.3735C77.6978 20.6261 77.5861 20.8638 77.4316 21.073C77.2771 21.2822 77.0827 21.4588 76.8596 21.5927C76.6366 21.7265 76.3892 21.8149 76.1319 21.8528C75.8746 21.8907 75.6123 21.8774 75.3601 21.8135C68.8287 20.1032 61.9922 19.9114 55.3751 21.253C48.758 22.5945 42.5361 25.4337 37.1864 29.5527C31.8367 33.6718 27.5015 38.9614 24.5132 45.0158C21.5248 51.0702 19.9628 57.7285 19.9468 64.4802C19.924 64.9642 19.7285 65.4239 19.3958 65.7761C19.0632 66.1284 18.6154 66.3498 18.1335 66.4002Z" fill="#0074FF"/>
<path d="M17.9734 74.6135L24.9067 64.3735H11.04L17.9734 74.6135Z" fill="#CCE3FF"/>
<path d="M17.9735 76.6402C17.649 76.6449 17.3284 76.5695 17.04 76.4206C16.7516 76.2718 16.5044 76.0541 16.3202 75.7869L9.38685 65.4935C9.18121 65.1953 9.06165 64.8463 9.04123 64.4846C9.0208 64.1229 9.10033 63.7626 9.27108 63.4432C9.44184 63.1237 9.69723 62.8574 10.0093 62.6734C10.3213 62.4895 10.678 62.3949 11.0402 62.4002H24.9069C25.2645 62.3937 25.6172 62.4846 25.9272 62.6631C26.2372 62.8416 26.4929 63.101 26.6669 63.4136C26.8494 63.7298 26.9455 64.0884 26.9455 64.4536C26.9455 64.8187 26.8494 65.1773 26.6669 65.4935L19.7335 75.7869C19.536 76.0661 19.271 76.2907 18.9633 76.4399C18.6556 76.5891 18.3151 76.658 17.9735 76.6402ZM14.7735 66.4002L17.9735 71.0935L21.1202 66.4002H14.7735Z" fill="#0074FF"/>
</svg>
