<svg width="80" height="80" viewBox="0 0 80 80" fill="none" xmlns="http://www.w3.org/2000/svg">
<path fill-rule="evenodd" clip-rule="evenodd" d="M41.5446 15.2427C29.6498 19.2766 24.3865 35.1176 24.3146 47.3636C17.4182 50.7167 9.70892 53.9764 6.99794 60.3195C6.66562 61.7001 6.23749 63.0063 7.64613 61.6258C9.80922 59.7102 23.3072 52.3553 24.2114 52.4238C24.5706 52.3392 24.6036 52.3947 25.0736 53.835C26.3715 57.8237 28.1798 60.6155 30.6393 62.4363C39.115 68.2517 45.724 63.4568 50.417 55.2681C52.1505 53.956 55.6039 52.625 56.5844 50.5155C57.4197 49.2486 57.6323 48.6304 57.6203 47.4263C57.6128 46.0209 57.4302 45.8882 55.562 45.9218L54.1025 45.948C54.5875 45.0981 55.7357 44.4217 57.291 43.7612C59.192 42.9727 60.8108 41.6538 61.9435 39.9708C62.8716 38.6092 62.4749 38.6194 59.5963 40.0321C56.1233 41.729 53.6698 43.684 51.6804 46.3431C47.3827 52.3713 42.5011 64.5094 33.5269 57.3703C31.8204 55.9227 29.4327 52.0549 30.1288 49.8609C31.3264 48.9381 32.2425 48.6786 34.6197 47.2222C47.8887 39.3891 52.848 33.4338 51.1849 21.4386C49.7598 16.7939 46.1162 14.1552 41.5446 15.2427ZM44.0804 20.7053C46.6058 21.822 46.742 27.7438 44.3514 32.4454C43.1538 34.7983 41.3575 36.6921 38.3171 38.8031C35.8861 40.4927 31.0465 43.1621 30.8189 42.939C30.6168 42.7407 30.7875 39.0655 31.0944 37.0376C32.1422 30.0793 33.6511 26.5076 36.8501 23.4023C37.8815 22.4037 38.4968 21.9445 39.4279 21.4707C41.4278 20.4633 42.9622 20.2111 44.0804 20.7053Z" fill="#053272"/>
<path d="M64.1625 38.2499C64.7404 37.6609 67.5082 35.4144 67.971 35.1607C68.4184 34.9129 69.1715 34.961 69.5048 35.2409C69.667 35.3823 70.3704 36.2833 71.0693 37.2454C73.1936 40.1831 73.189 40.1349 71.3687 41.447C70.6472 41.966 69.5591 42.7619 68.9495 43.2154C67.2924 44.4487 67.2732 44.4414 65.55 41.8377C64.7879 40.6758 64.0444 39.5109 63.9037 39.25L63.6472 38.7747L64.1625 38.2499Z" fill="#EE8D21"/>
</svg>
