<svg width="80" height="80" viewBox="0 0 80 80" fill="none" xmlns="http://www.w3.org/2000/svg">
<path d="M24.0201 16.7568H33.1469C33.0585 17.1385 32.9757 17.4976 32.8929 17.8568C31.2647 24.9022 29.621 31.9433 28.0195 38.9943C27.682 40.4808 27.4583 41.9968 27.2703 43.5107C27.2001 44.0803 27.3404 44.6927 27.4681 45.2645C27.5958 45.8362 27.9823 46.2754 28.4797 46.6072C27.2047 46.167 26.0024 45.5393 24.9124 44.7447C22.3 42.8211 20.7433 40.222 20.1127 37.0658C19.8405 35.7028 20.0425 34.3376 20.3364 33.0005C21.3887 28.2414 22.4548 23.4856 23.5347 18.733C23.6834 18.0771 23.8567 17.424 24.0201 16.7568Z" fill="#38773E"/>
<path d="M60.9379 16.7424C60.6917 17.7947 60.4616 18.7922 60.2238 19.7877C59.06 24.6527 57.9151 29.5234 56.7078 34.3793C56.5092 35.1776 56.0841 35.9367 55.6737 36.6635C53.6204 40.3015 50.5947 42.9259 46.958 44.8909C45.4909 45.6924 43.9238 46.2953 42.2979 46.684C42.3771 46.6356 42.4571 46.5878 42.5364 46.538C43.0408 46.2238 43.5599 45.9298 44.046 45.5882C44.8759 45.0052 45.4435 44.223 45.6925 43.2283C46.5287 39.8925 47.3825 36.5603 48.1962 33.219C49.4983 27.872 50.7844 22.5206 52.0546 17.1647C52.1353 16.8259 52.2714 16.7333 52.6109 16.7354C55.2388 16.7501 57.8667 16.7438 60.4946 16.7438L60.9379 16.7424Z" fill="#38773E"/>
<path d="M44.2528 10C44.5173 10.4293 44.7439 10.7808 44.9543 11.1414C46.0576 13.0269 46.9055 15.0508 47.4756 17.1597C47.5745 17.5231 47.4637 17.6395 47.1501 17.7553C44.3251 18.7992 41.7084 20.2106 39.3927 22.1552C35.7251 25.23 33.4101 29.1003 32.6462 33.8383C32.3361 35.7584 32.4406 37.7044 32.7163 39.6315C33.1001 42.3148 33.9187 44.8536 35.293 47.2023C35.3084 47.2275 35.3133 47.2591 35.272 47.2984C31.1526 41.165 29.9201 34.3995 31.4213 27.2469C33.0243 19.6129 37.6747 14.0814 44.2528 10Z" fill="#38773E"/>
<path d="M36.7661 47.4636C40.7564 44.2219 43.4755 40.1818 44.4737 35.1168C45.4636 30.0961 44.8652 25.2696 42.2885 20.7687C43.0517 20.1689 46.8413 18.3793 47.8368 18.166C48.0087 19.0078 48.2135 19.8448 48.3482 20.6915C48.8568 23.9002 48.8863 27.1139 48.2331 30.3023C47.8459 32.1929 47.0904 33.9712 46.3524 35.7503C44.3664 40.5396 41.0482 44.2457 36.9597 47.3254C36.8973 47.3794 36.8307 47.4201 36.7661 47.4636Z" fill="#38773E"/>
<path d="M45.3148 57.027C45.0805 57.2929 44.8812 57.5349 44.6659 57.7615C44.4765 57.9614 44.2625 58.0204 43.97 57.9404C43.7883 57.8906 43.5491 57.9635 43.3625 58.0428C43.2088 58.1073 43.0903 58.2582 42.9626 58.3781C42.7637 58.5748 42.5277 58.73 42.2682 58.8346C42.0088 58.9393 41.7312 58.9913 41.4515 58.9878C40.6735 58.9927 39.9229 59.1849 39.2929 59.6893C38.872 60.0274 38.8987 60.2147 39.3954 60.4161C39.5139 60.4638 39.6346 60.5094 39.7552 60.5521C40.0674 60.6623 40.2463 60.8875 40.2337 61.2116C40.1488 63.112 39.5462 64.757 37.8633 65.8367C37.2663 66.2197 36.5949 66.299 35.9067 66.1797C35.0782 66.0394 34.5366 65.4494 34.4588 64.5662C34.4235 64.1249 34.4435 63.6809 34.5184 63.2446C34.759 61.8072 35.3988 60.5269 36.1684 59.295C36.162 59.3504 36.1517 59.4053 36.1375 59.4592C36.12 59.5146 36.0877 59.5651 36.0674 59.6191C35.7383 60.4532 35.3336 61.267 35.0986 62.1271C34.644 63.7939 35.4311 64.6988 37.147 64.5417C38.16 64.4484 38.9836 63.9622 39.6023 63.1492C39.6915 63.0263 39.7644 62.8923 39.8191 62.7507C39.9517 62.4245 39.8892 62.2786 39.5637 62.1495C39.4234 62.0934 39.2761 62.0541 39.1309 62.0092C38.4476 61.8037 38.261 61.4746 38.4203 60.7731C38.6251 59.8696 39.1618 59.2094 39.9082 58.6903C40.0261 58.5949 40.1129 58.4664 40.1572 58.3213C40.3754 57.6619 40.7184 57.0796 41.2754 56.6657C41.777 56.2946 42.2653 56.5514 42.2723 57.1813C42.2723 57.4746 42.1888 57.7685 42.1376 58.0933C42.4649 58.0786 42.7747 57.9408 43.0047 57.7075C43.225 57.497 43.42 57.2655 43.6361 57.0558C43.8521 56.846 44.1145 56.7576 44.393 56.9555C44.588 57.0958 44.7115 57.0067 44.8258 56.8453C44.9809 56.6264 45.1408 56.4104 45.298 56.1936C45.4761 55.9474 45.7048 55.8365 45.9953 55.9733C46.3797 56.1543 46.5965 55.9986 46.8301 55.6794C47.2227 55.1318 47.6576 54.6158 48.1307 54.136C48.3208 53.9473 48.6673 53.8674 48.9529 53.8358C49.331 53.7944 49.5337 54.0273 49.5548 54.404C49.6397 55.9193 47.9034 57.6633 46.4084 57.5735C46.1974 57.5674 45.9902 57.5153 45.8013 57.421C45.6124 57.3266 45.4464 57.1921 45.3148 57.027V57.027ZM46.9072 55.9418L47.0061 56.0758C47.6921 56.0326 48.3439 55.761 48.8575 55.3041C49.0469 55.1357 49.023 54.9975 48.7768 54.8895C48.4962 54.7667 48.205 54.7436 47.9785 54.9295C47.5989 55.2388 47.2622 55.6015 46.9072 55.9418ZM41.1709 58.2491C41.5511 58.1698 41.8149 57.9881 41.8065 57.7783C41.7981 57.5686 41.509 57.3574 41.2453 57.3497C40.9983 57.3497 40.6104 57.6429 40.6925 57.8092C40.7809 57.9902 41.0053 58.1052 41.1709 58.2491Z" fill="#38773E"/>
<path d="M54.8618 55.8047C54.5763 57.3656 54.29 58.9271 54.0073 60.4719C54.041 60.4333 54.1027 60.3596 54.168 60.2902C54.2975 60.1403 54.4349 59.9974 54.5798 59.8623C54.9137 59.5746 55.2897 59.5115 55.538 59.6848C55.7864 59.8581 55.8783 60.213 55.6966 60.6417C55.4798 61.1531 55.2139 61.6434 54.9796 62.1219C55.7408 61.8525 56.4619 60.9728 56.4788 60.3204C56.4963 59.6322 56.7832 58.9405 57.1607 58.3751C57.261 58.9054 57.0021 60.1927 56.6696 60.9616C56.2424 61.9437 55.5472 62.6038 54.4949 62.8725C54.2753 62.9279 54.0838 63.0829 53.8691 63.165C53.437 63.3257 53.007 63.5438 52.5594 63.5979C51.7569 63.6954 51.2062 63.266 51.0764 62.4586C51.0097 61.9752 51.0097 61.4849 51.0764 61.0015C51.212 59.8674 51.3769 58.7366 51.571 57.609C51.6523 57.1467 51.8516 56.7047 51.9954 56.2537L52.0978 56.2712C52.088 56.3834 52.0796 56.4957 52.069 56.6072C51.9372 58.0103 51.7947 59.4133 51.6797 60.8163C51.6439 61.2513 51.8424 61.6119 52.217 61.8539C52.5524 62.0707 52.6506 62.0272 52.9088 61.7318C53.5254 61.0268 53.6734 60.1667 53.7155 59.2877C53.7758 58.0229 54.2557 56.9012 54.8618 55.8047ZM55.2995 60.8479C54.4963 60.3835 53.94 60.6922 53.2251 61.9703C54.0908 61.8925 54.7671 61.5424 55.2995 60.8479V60.8479Z" fill="#38773E"/>
<path d="M13.625 59.3332C13.5717 59.4567 13.5128 59.578 13.4658 59.7036C13.1269 60.6156 12.7067 61.5149 12.4738 62.4564C12.1511 63.7591 12.861 64.5462 14.2108 64.5574C15.242 64.5665 16.0937 64.1639 16.8001 63.4385C16.9672 63.2598 17.1067 63.0572 17.214 62.8373C17.4244 62.4269 17.3543 62.281 16.9264 62.1288C16.7727 62.074 16.6128 62.0376 16.4584 61.9885C15.9358 61.8159 15.7282 61.5262 15.8222 60.9825C15.8841 60.6268 15.9951 60.2814 16.1519 59.9562C16.7496 58.7264 17.6707 57.7857 18.8338 57.0799C18.9419 57.0089 19.0579 56.951 19.1796 56.9073C19.2663 56.8924 19.3548 56.8905 19.442 56.9017C19.4497 56.9873 19.4471 57.0735 19.4343 57.1585C19.3922 57.304 19.3409 57.4467 19.2807 57.5857C19.1235 57.9687 19 58.2704 18.4388 58.33C17.5746 58.4226 16.9804 59.0582 16.509 59.7695C16.3455 60.0165 16.4255 60.2178 16.6752 60.3476C16.8307 60.4282 16.9929 60.4951 17.16 60.5475C17.5276 60.664 17.691 60.9285 17.6742 61.2897C17.5991 62.9138 17.087 64.3575 15.8432 65.4631C15.2385 66.0004 14.5173 66.2789 13.6895 66.227C12.572 66.1569 11.9119 65.4841 11.8656 64.3638C11.8214 63.2757 12.1252 62.2592 12.5489 61.2813C12.8421 60.6022 13.1943 59.9484 13.5205 59.2848L13.625 59.3332Z" fill="#38773E"/>
<path d="M58.3996 60.3591C58.2741 60.6811 58.1253 60.9961 58.0285 61.3265C57.8756 61.8498 57.6918 62.3788 57.642 62.9147C57.576 63.6162 57.9345 64.1431 58.5764 64.4581C59.6785 64.9982 61.2597 64.6994 62.246 63.7643C63.2184 62.8432 63.6098 61.6997 63.5256 60.3808C63.4723 59.553 63.8883 58.8669 64.2117 58.1465C64.1682 58.5323 64.1177 58.9182 64.0819 59.304C63.9732 60.5036 63.8182 61.6941 63.3804 62.8284C62.9749 63.8877 62.4355 64.8628 61.5431 65.5966C60.9216 66.1094 60.2138 66.4083 59.3951 66.4104C58.0433 66.4104 57.1502 65.5244 57.1607 64.1725C57.1678 62.9898 57.5347 61.9017 58.0447 60.8529C58.1302 60.6762 58.2236 60.5022 58.3133 60.3296L58.3996 60.3591Z" fill="#38773E"/>
<path d="M6.23535 63.5915C6.69555 63.266 7.10033 63.0008 7.48125 62.7041C7.86218 62.4073 8.19609 62.0727 8.38691 61.5599C8.20171 61.5823 8.0586 61.6076 7.91479 61.6167C7.24062 61.6567 6.89688 61.2197 7.14311 60.5967C7.29635 60.2068 7.49234 59.835 7.72748 59.4883C8.04597 59.0253 8.54195 59.0674 8.81203 59.5627C8.93059 59.7815 8.97198 60.0418 9.0751 60.3687L9.97024 59.8159C10.1891 59.9436 10.4038 59.8229 10.5911 59.59C10.6311 59.5402 10.7075 59.475 10.7566 59.4827C11.0653 59.5332 11.2302 59.3487 11.388 59.1319C11.4088 59.1067 11.435 59.0864 11.4646 59.0726C11.4942 59.0588 11.5265 59.0517 11.5592 59.052C11.9401 59.1179 12.1204 58.864 12.267 58.596C12.5946 58.0095 12.5722 57.3578 12.5476 56.7187C12.5055 55.5107 12.6129 54.913 13.1734 53.6973C13.1734 53.9519 13.1818 54.1259 13.1734 54.2992C13.1102 55.3802 13.0731 56.4641 12.9629 57.5409C12.8928 58.2564 12.6262 58.9159 12.1071 59.4539C11.6574 59.9204 11.0674 60.1428 10.5069 60.4143C10.0074 60.657 9.4911 60.8647 8.99022 61.1053C8.90043 61.1481 8.83447 61.2688 8.78888 61.3684C8.65629 61.6532 8.52512 61.9401 8.41919 62.2355C8.09158 63.1523 7.35497 63.4764 6.47527 63.5985C6.39523 63.6016 6.31507 63.5993 6.23535 63.5915V63.5915Z" fill="#38773E"/>
<path d="M72.0884 56.276C71.9755 57.1999 71.8387 58.1224 71.7594 59.0491C71.7014 59.6962 71.6932 60.3468 71.7349 60.9951C71.7643 61.416 72.0155 61.7668 72.4771 61.8678C72.9597 61.9709 73.4108 61.9057 73.7573 61.5107C73.9678 61.2722 74.1783 61.1081 74.5374 61.16C74.8819 61.2098 75.1078 60.9642 75.3217 60.7159C75.4199 60.6016 75.5939 60.556 75.7251 60.4655C75.8499 60.3909 75.9625 60.2977 76.059 60.1891C76.16 60.0565 76.219 59.893 76.3242 59.6889C76.4021 60.3904 75.9636 61.174 75.4192 61.4188C75.3049 61.472 75.1998 61.543 75.1078 61.6293C74.8377 61.879 74.5466 62.0544 74.1635 62.1077C73.9475 62.1372 73.7251 62.3034 73.5588 62.4634C73.3484 62.6626 73.2017 62.9222 73.02 63.1502C72.7058 63.5423 72.2961 63.6967 71.8078 63.5774C71.3196 63.4581 71.0972 63.0716 71.0572 62.6247C71.0053 62.0813 71.0067 61.5341 71.0614 60.9909C71.1673 59.9947 71.3055 59 71.4823 58.0136C71.5897 57.4153 71.7938 56.8337 71.9544 56.2451L72.0884 56.276Z" fill="#38773E"/>
<path d="M45.0798 69.6676C45.0798 68.8349 45.0672 68.0015 45.0798 67.1688C45.1016 65.9762 45.1935 64.7935 45.4783 63.6296C45.8424 62.1431 46.5769 60.9491 47.9939 60.2329C48.2002 60.1284 48.3187 59.8246 48.4464 59.5952C48.8828 58.8116 48.9186 58.7927 49.7709 59.1041C50.25 59.2781 50.3496 59.4914 50.168 59.9621C49.9112 60.6285 49.4938 61.0565 48.7277 61.1645C48.2219 61.2347 47.714 61.4381 47.2545 61.6745C46.2128 62.2119 45.7849 63.1856 45.6558 64.2793C45.4572 65.9566 45.3254 67.6416 45.1647 69.3239C45.1542 69.4389 45.1528 69.554 45.1472 69.6697L45.0798 69.6676Z" fill="#38773E"/>
<path d="M65.9486 56.2459C65.8287 57.2281 65.6919 58.2067 65.5979 59.1923C65.5302 59.8062 65.5086 60.4244 65.5334 61.0415C65.5481 61.3144 65.7235 61.6069 65.8995 61.8335C66.0539 62.0335 66.2664 62.0124 66.3597 61.7143C66.4215 61.515 66.5 61.3221 66.58 61.1152C66.8845 61.151 66.9946 61.3607 67.0108 61.5943C67.0528 62.1941 66.9167 62.7595 66.5449 63.2415C66.1177 63.7964 65.412 63.7767 65.1223 63.1468C64.9258 62.7203 64.808 62.1934 64.8543 61.7311C64.9946 60.3176 65.2106 58.9103 65.4393 57.5073C65.5095 57.0688 65.7136 56.6521 65.8603 56.2256L65.9486 56.2459Z" fill="#38773E"/>
<path d="M21.8757 47.2746C21.5165 47.7088 21.2057 48.1985 20.7897 48.5689C19.1005 50.0743 17.1748 51.2515 15.2632 52.4448C14.7581 52.7598 14.2481 53.0663 13.7388 53.3743C13.6044 53.4622 13.4565 53.5273 13.301 53.5672C13.4834 53.1021 13.8032 52.7037 14.2179 52.4251C15.3951 51.6233 16.5905 50.8488 17.7585 50.0344C19.0696 49.1224 20.359 48.1746 21.6582 47.243C21.694 47.2177 21.7333 47.1967 21.7712 47.1729L21.8757 47.2746Z" fill="#38773E"/>
<path d="M28.0717 61.084C27.9854 61.8823 27.8437 62.6709 27.3036 63.3135C26.8827 63.8178 26.2071 63.7049 26.0135 63.0658C25.8653 62.588 25.8115 62.086 25.8549 61.5877C25.9952 60.2548 26.191 58.9261 26.4084 57.6031C26.4849 57.1415 26.689 56.7016 26.8343 56.252L26.9423 56.2737C26.9037 56.5732 26.8553 56.8707 26.8286 57.1709C26.7178 58.4014 26.6035 59.6319 26.5165 60.8644C26.4994 61.0971 26.5554 61.3293 26.6764 61.5288C26.7915 61.6979 27.0314 61.8697 27.2215 61.8753C27.3898 61.8802 27.5905 61.681 27.728 61.5246C27.8437 61.3962 27.8886 61.2047 27.9644 61.0412L28.0717 61.084Z" fill="#38773E"/>
<path d="M25.2051 61.2197C25.3152 61.9802 24.4411 63.3692 23.7621 63.5467C23.5723 63.6031 23.3722 63.6153 23.177 63.5824C22.9613 63.5265 22.7346 63.5286 22.5199 63.5886C22.3053 63.6486 22.1104 63.7644 21.9549 63.9241C21.8705 63.988 21.7803 64.0439 21.6855 64.091C21.6919 63.9718 21.6743 63.8869 21.7031 63.8224C21.9886 63.1861 22.3653 62.6094 22.9399 62.2026C23.1153 62.0784 23.3832 61.9879 23.5881 62.0202C24.2517 62.124 24.7645 61.9802 25.0725 61.3411C25.0907 61.3039 25.1377 61.2801 25.2051 61.2197Z" fill="#38773E"/>
<path d="M30.0639 56.8081C29.9987 57.4037 29.932 58.0007 29.8682 58.5956C29.7777 59.4416 29.7405 60.2974 29.5813 61.1294C29.4711 61.704 29.1968 62.2477 28.9836 62.7998C28.926 62.9261 28.8329 63.0329 28.7156 63.107C28.8068 62.616 28.926 62.1354 28.9836 61.6444C29.0937 60.6952 29.1063 59.7299 29.281 58.7941C29.4101 58.1024 29.7328 57.4465 29.9692 56.7744L30.0639 56.8081Z" fill="#38773E"/>
<path d="M20.0151 63.0955C20.436 61.7324 20.3785 60.3048 20.5953 58.9172C20.711 58.1785 21.0541 57.4749 21.2968 56.7559L21.3824 56.7895C21.2889 57.7918 21.1981 58.7942 21.1102 59.7969C21.0253 60.7531 20.8955 61.6995 20.441 62.5651C20.335 62.7658 20.2109 62.9566 20.0951 63.1516L20.0151 63.0955Z" fill="#38773E"/>
<path d="M3 63.546C3.65732 62.9147 4.44653 62.3626 4.93549 61.6176C5.42445 60.8726 5.60755 59.9339 5.98777 59.0879C5.99531 59.1578 5.99531 59.2284 5.98777 59.2983C5.76188 60.2854 5.54161 61.2745 5.29819 62.2574C5.15788 62.8137 4.78397 63.1581 4.23257 63.3096C3.83271 63.4205 3.43307 63.532 3.03367 63.6443L3 63.546Z" fill="#38773E"/>
<path d="M70.444 59.1091C70.2595 60.2687 70.0743 61.429 69.6176 62.5248C69.558 62.6846 69.4636 62.8291 69.3412 62.9477C69.2187 63.0664 69.0713 63.1563 68.9098 63.2109C68.4306 63.368 67.9459 63.5104 67.464 63.6591L67.3938 63.5315C67.5208 63.4066 67.6309 63.2558 67.7775 63.1618C69.0578 62.341 69.8295 61.1863 70.1101 59.6948C70.1515 59.4788 70.2504 59.2739 70.3205 59.0635L70.444 59.1091Z" fill="#38773E"/>
<path d="M30.7451 63.5482C31.4024 62.9168 32.1923 62.3696 32.6799 61.626C33.1675 60.8824 33.3548 59.9423 33.7322 59.0879C33.7406 59.1688 33.7406 59.2504 33.7322 59.3313C33.54 60.2194 33.347 61.1076 33.145 61.9971C32.9703 62.7688 32.4961 63.2388 31.7188 63.4078C31.4038 63.478 31.0924 63.5622 30.7788 63.64L30.7451 63.5482Z" fill="#38773E"/>
<path d="M60.6979 59.9941C61.7319 60.5617 62.1275 61.165 60.8473 62.2123C60.5625 61.9738 60.2664 61.736 59.9858 61.4814C59.9635 61.4461 59.9502 61.406 59.947 61.3644C59.9439 61.3228 59.9509 61.2811 59.9676 61.2428C60.1991 60.8268 60.4453 60.4207 60.6979 59.9941Z" fill="#38773E"/>
<path d="M69.0942 56.8719C69.3826 56.4327 69.6554 56.002 69.9487 55.5846C69.9866 55.5299 70.1388 55.5032 70.2089 55.5327C70.8403 55.795 71.0199 56.3991 70.6425 56.9617C70.5772 57.0584 70.5048 57.1501 70.4257 57.236C70.0897 57.6078 70.0104 57.6127 69.6309 57.3019C69.4611 57.1637 69.2893 57.0276 69.0942 56.8719Z" fill="#38773E"/>
<path d="M58.3948 54.5143C58.3948 54.8398 57.9227 55.5153 57.6154 55.617C57.5501 55.6388 57.466 55.6093 57.3909 55.5974C57.3713 55.5974 57.3544 55.57 57.3355 55.5567C56.5891 55.0236 56.5891 55.0236 57.0977 54.2505C57.1302 54.1886 57.1698 54.1307 57.2155 54.0779C57.3797 53.9264 57.3713 53.5581 57.6996 53.624C58.0279 53.69 58.3948 54.2014 58.3948 54.5143Z" fill="#38773E"/>
<path d="M42.4087 52.5155L43.355 51.0781C43.7563 51.3082 44.1211 51.5152 44.166 51.9992C44.1976 52.3338 43.7823 52.9891 43.4441 53.1287C43.3924 53.1444 43.338 53.149 43.2844 53.1421C43.2309 53.1352 43.1794 53.117 43.1334 53.0887C42.8948 52.9245 42.6767 52.7316 42.4087 52.5155Z" fill="#38773E"/>
<path d="M23.6455 58.5912L24.5666 57.1924C25.0661 57.3636 25.3902 57.7248 25.4007 58.1044C25.4105 58.4376 24.9798 59.0998 24.655 59.2268C24.6137 59.2409 24.5699 59.246 24.5265 59.2419C24.4831 59.2378 24.441 59.2245 24.4032 59.2029C24.1513 59.0121 23.9128 58.808 23.6455 58.5912Z" fill="#38773E"/>
<path d="M54.7617 54.7152C55.0521 54.2712 55.3229 53.8489 55.6071 53.4392C55.6404 53.4076 55.681 53.3847 55.7253 53.3724C55.7696 53.3602 55.8162 53.359 55.861 53.369C56.5008 53.6202 56.686 54.255 56.2967 54.8226C56.2433 54.8991 56.1856 54.9727 56.1241 55.0428C55.7502 55.4708 55.687 55.4743 55.2605 55.113C55.1097 54.9888 54.9525 54.8689 54.7617 54.7152Z" fill="#38773E"/>
<path d="M39.324 53.7673L40.2402 52.3643C40.7432 52.5375 41.0715 52.8995 41.082 53.2699C41.0918 53.5989 40.652 54.278 40.3377 54.3924C40.2957 54.4064 40.2512 54.4116 40.2071 54.4075C40.163 54.4034 40.1203 54.3901 40.0816 54.3685C39.8305 54.1882 39.5941 53.9848 39.324 53.7673Z" fill="#38773E"/>
<path d="M11.0822 53.7441C11.4898 53.9637 11.8482 54.1728 11.8594 54.626C11.8714 55.1086 11.5333 55.4264 11.2035 55.7224C11.1649 55.743 11.1218 55.7538 11.078 55.7538C11.0342 55.7538 10.991 55.743 10.9524 55.7224C10.7245 55.563 10.5062 55.3904 10.2986 55.2054C10.278 55.1747 10.2655 55.1393 10.2623 55.1025C10.2591 55.0657 10.2653 55.0287 10.2803 54.995C10.5343 54.586 10.8009 54.1805 11.0822 53.7441Z" fill="#38773E"/>
<path d="M11.1327 52.7524C11.0401 53.1776 10.782 53.5241 10.4207 53.8005C10.3981 53.8157 10.3723 53.8251 10.3453 53.8281C10.3183 53.831 10.2909 53.8273 10.2657 53.8174C10.0138 53.63 9.76407 53.4399 9.53046 53.2316C9.49679 53.2014 9.53046 53.0576 9.56764 52.991C9.77389 52.6535 9.98154 52.3161 10.2158 51.9997C10.2591 51.9603 10.3116 51.9323 10.3684 51.9183C10.4253 51.9044 10.4847 51.9049 10.5414 51.9197C10.8655 52.0825 11.1026 52.3315 11.1327 52.7524Z" fill="#38773E"/>
<path d="M27.2129 68.8006C27.4886 68.3755 27.7341 67.982 27.9986 67.6017C28.0291 67.5661 28.0677 67.5384 28.1112 67.521C28.1547 67.5035 28.2017 67.4968 28.2483 67.5014C28.3773 67.5382 28.496 67.6044 28.5951 67.6949C28.6941 67.7853 28.7708 67.8975 28.8191 68.0227C28.8673 68.1478 28.8859 68.2825 28.8733 68.416C28.8607 68.5495 28.8173 68.6783 28.7464 68.7922L28.7275 68.8217C28.2918 69.5379 28.1894 69.5583 27.5433 69.0546C27.4444 68.9767 27.3434 68.903 27.2129 68.8006Z" fill="#38773E"/>
<path d="M10.2005 54.8306C10.1416 55.234 9.8315 55.5504 9.51091 55.8597C9.24082 55.6872 8.96513 55.5223 8.70627 55.3343C8.64524 55.2901 8.58841 55.1372 8.61788 55.0874C8.85359 54.6987 9.10895 54.3206 9.36571 53.946C9.3897 53.924 9.41847 53.9079 9.44975 53.8988C9.48103 53.8898 9.51397 53.8882 9.54599 53.8941C9.86307 53.9607 10.2145 54.4322 10.2005 54.8306Z" fill="#38773E"/>
<path d="M25.5566 68.8865C25.8604 68.4326 26.1543 67.9914 26.456 67.541C26.8369 67.7515 27.1947 67.9416 27.2186 68.3828C27.2438 68.8585 26.9127 69.1699 26.5823 69.4505C26.524 69.5004 26.3529 69.4835 26.2757 69.433C26.0344 69.2738 25.8134 69.0851 25.5566 68.8865Z" fill="#38773E"/>
</svg>
