<svg width="80" height="80" viewBox="0 0 80 80" fill="none" xmlns="http://www.w3.org/2000/svg">
<path fill-rule="evenodd" clip-rule="evenodd" d="M34.894 19.6493C32.9082 23.0177 32.9082 23.2984 34.6103 25.2633C35.3195 26.1055 35.9578 27.1581 35.9578 27.509C35.9578 27.93 34.7522 29.4739 33.1919 31.0177C31.7025 32.5616 29.7876 34.5265 29.0784 35.3686C27.3054 37.3335 24.4685 39.7195 23.972 39.7195C23.5465 39.7195 22.3408 41.9651 22.3408 42.6669C22.3408 42.8072 22.7664 42.5967 23.2628 42.1756C23.7593 41.7546 24.7522 41.1932 25.4614 40.9827C26.5252 40.7019 26.6671 40.7721 26.3834 41.4739C24.6812 45.8949 23.6883 52.5616 24.3976 55.1581C25.1777 58.1055 27.0217 59.4388 30.4259 59.4388C34.2557 59.4388 37.4472 57.7546 43.9011 52.4914C47.5891 49.4739 50.1422 47.7897 51.6316 47.3686C52.8373 47.0177 53.8302 46.5967 53.8302 46.316C53.8302 46.1055 53.05 45.5441 52.0571 45.0528C50.355 44.2809 50.2132 44.2809 47.4472 45.6844C45.8869 46.4563 43.1919 48.0704 41.4188 49.3335C34.043 54.4563 30.1422 55.4388 27.8018 52.702C25.9578 50.5265 25.6742 48.3511 26.8089 44.4212C27.8727 40.5616 27.8727 40.5616 33.6883 42.4563C39.5749 44.3511 43.9011 42.8072 46.1706 38.0353C47.9437 34.1756 47.8727 30.8072 45.8869 28.9125C43.5465 26.5967 41.4898 26.3862 36.9508 28.2809C36.5252 28.4212 36.9508 27.509 37.8727 26.1756C39.7876 23.4388 40.0004 21.1932 38.4401 19.8598C37.8727 19.3686 37.3763 18.5967 37.3763 18.2458C37.5181 16.4212 36.3834 17.123 34.894 19.6493ZM44.1848 31.6493C45.4614 33.123 45.6742 34.737 44.894 36.8423C44.1848 38.8072 42.4827 38.9476 37.8727 37.4037C35.6032 36.7019 33.05 36.0704 32.199 36.0704C31.3479 36.0704 30.6387 35.8598 30.6387 35.6493C30.6387 34.8774 34.6103 31.4388 36.3834 30.5967C39.1493 29.4739 42.6954 29.8949 44.1848 31.6493ZM50.4969 50.316C48.8657 51.2984 45.8869 53.5441 43.972 55.2984C39.433 59.3686 37.0217 60.4914 33.121 60.4914C30.1422 60.4914 30.0713 60.4914 30.9224 61.4739C31.7734 62.4563 33.121 62.8774 37.0926 63.4388C39.5749 63.7897 41.7025 62.5967 46.9508 57.6142C51.7735 53.123 53.5465 51.8598 55.8869 51.2283L57.7309 50.737L55.8869 49.6142C54.894 48.9826 53.9011 48.4914 53.7593 48.4914C53.6174 48.5616 52.1281 49.3335 50.4969 50.316Z" fill="#E78D0C"/>
<path d="M39.9289 73.333C38.936 73.333 37.0211 72.2803 36.5247 71.9996L36.4537 71.9295C32.4112 69.6137 32.4112 69.6137 28.1559 69.4733C24.1842 69.333 23.0495 69.1926 22.3403 68.2102C22.1275 67.8593 21.2055 66.4558 20.4963 65.2628C18.3686 61.754 18.0849 61.5435 15.4608 60.0698C14.1133 59.2979 12.2693 58.1049 11.5601 57.4733L10.5672 56.561C10.2835 56.2803 10.1417 55.9295 10.1417 55.5084V48.2803L8.5814 45.1926C6.6665 41.5435 6.6665 40.561 6.6665 40.2803C6.6665 39.4382 7.3048 37.8944 8.43955 35.7189L9.85799 33.0523L9.99984 28.8417C10.1417 23.9996 10.2835 23.4382 14.0424 21.333L14.2552 21.1926C15.4608 20.4908 16.8793 19.6487 17.4466 19.368C18.0849 18.947 19.1488 17.333 19.9998 15.9996C20.9927 14.3856 22.3403 12.3505 23.0495 11.9294C23.7587 11.5084 26.3828 11.368 28.4396 11.2979L32.2693 11.1575L35.1771 9.4733C36.4537 8.70137 38.7942 7.36803 39.7871 7.36803C40.6381 7.29786 42.9786 8.56102 44.7516 9.54347L47.9431 11.368H51.4892C56.3828 11.368 57.0211 11.5084 58.936 14.8768C60.5672 17.8242 61.631 19.0873 61.9857 19.368C62.1984 19.5084 63.3332 20.2101 64.5388 20.8417C65.6736 21.4733 67.3048 22.3856 67.9431 22.947L68.936 23.7189C69.2197 23.9996 69.4325 24.3505 69.4325 24.7716L69.7162 33.0523L71.2764 35.7189C72.6949 38.1049 73.1913 39.368 73.1913 40.3505C73.1913 41.333 72.624 42.6663 71.2055 45.1926L69.5743 47.9996V55.7891C69.5743 56.2102 69.3615 56.6312 69.0779 56.8417L67.9431 57.754C67.163 58.3856 65.2481 59.5786 63.8296 60.3505L61.4183 61.6838L59.7162 64.9119C57.3048 68.9119 56.7374 69.0523 56.3119 69.1926C55.6736 69.333 52.6949 69.5435 51.7729 69.5435C47.8013 69.754 47.092 69.9646 43.5459 71.9295C42.9076 72.2803 40.9218 73.333 39.9289 73.333ZM24.4679 66.3856C25.1771 66.526 27.2339 66.5961 28.1559 66.6663C33.1204 66.8768 33.2623 66.947 37.8013 69.5435L37.8722 69.6137C38.7232 70.1049 39.5743 70.4558 39.858 70.526C40.2126 70.3856 41.0637 70.0347 42.0566 69.4733C46.0282 67.2979 47.163 66.947 51.5601 66.7365C53.2623 66.6663 54.6098 66.5961 55.2481 66.526C55.6027 66.1049 56.3119 65.0523 57.2339 63.5084L59.3615 59.9996C59.5034 59.7891 59.6452 59.5786 59.858 59.5084L62.624 58.0347C64.1842 57.1926 65.8154 56.14 66.241 55.7189L66.8793 55.2277V47.6488C66.8793 47.4382 66.9502 47.1575 67.092 46.947L68.8651 43.7891C70.3545 41.1926 70.4963 40.4909 70.4963 40.3505C70.4963 40.2102 70.3545 39.5786 68.936 37.1224L67.2339 34.1751C67.092 33.9645 67.0211 33.754 67.0211 33.5435L66.7374 25.5435L66.241 25.1926C65.8154 24.8417 64.5389 24.0698 63.2623 23.368C62.3403 22.8768 60.7091 21.9645 60.2126 21.5435C59.0069 20.561 57.3757 17.8242 56.4537 16.2101C55.8154 15.0172 55.4608 14.5961 55.1062 14.3856C54.5389 14.1751 53.2623 14.1751 51.4183 14.1751H47.5176C47.3048 14.1751 47.0211 14.1049 46.8084 13.9645L43.2623 11.9996C41.5601 11.0172 40.2835 10.4558 39.7162 10.2452C39.2197 10.4558 38.0849 11.0172 36.5247 11.8593L33.3332 13.754C33.1204 13.8944 32.9076 13.9645 32.6949 13.9645L28.5105 14.1049C26.5956 14.1751 25.0353 14.3154 24.397 14.4558C24.0424 14.8768 23.2623 15.9294 22.3403 17.4733C20.7091 20.0698 19.7871 21.1926 18.7942 21.8242C18.2268 22.1751 16.7374 23.0172 15.5318 23.7189L15.319 23.8593C13.9005 24.7014 13.2622 25.0523 13.0495 25.4733C12.7658 25.9645 12.7658 27.1575 12.6949 29.0523L12.553 33.5435C12.553 33.754 12.4821 33.9645 12.4112 34.1751L10.9218 37.0523C9.85799 39.0172 9.50338 39.9996 9.50338 40.2803C9.57431 40.561 9.92892 41.6838 11.0637 43.9295L12.7658 47.2979C12.8367 47.5084 12.9076 47.7189 12.9076 47.9295V55.0172L13.4041 55.5084C13.8296 55.8593 15.319 56.8417 16.8083 57.754C19.9289 59.5084 20.4963 60.0698 22.8367 63.9295C23.6169 65.0523 24.1842 65.9645 24.4679 66.3856Z" fill="#EFDFBD"/>
</svg>
