<svg viewBox="0 0 518 250" fill="none" xmlns="http://www.w3.org/2000/svg">
<path d="M25.0635 59.9858H37.8074" stroke="#2D2F30" stroke-linecap="round" stroke-linejoin="round"/>
<path d="M10.9688 59.9858H22.7609" stroke="#2D2F30" stroke-linecap="round" stroke-linejoin="round"/>
<path d="M32.876 64.0093H37.8068" stroke="#2D2F30" stroke-linecap="round" stroke-linejoin="round"/>
<path d="M10.9688 64.0093H30.5741" stroke="#2D2F30" stroke-linecap="round" stroke-linejoin="round"/>
<path d="M35.8682 68.0347H37.8078" stroke="#2D2F30" stroke-linecap="round" stroke-linejoin="round"/>
<path d="M25.29 68.0347H32.65" stroke="#2D2F30" stroke-linecap="round" stroke-linejoin="round"/>
<path d="M10.9688 68.0347H23.2232" stroke="#2D2F30" stroke-linecap="round" stroke-linejoin="round"/>
<path d="M10.9688 72.0581H37.8071" stroke="#2D2F30" stroke-linecap="round" stroke-linejoin="round"/>
<path d="M33.3389 76.0835H37.8074" stroke="#2D2F30" stroke-linecap="round" stroke-linejoin="round"/>
<path d="M17.9395 76.0835H28.7437" stroke="#2D2F30" stroke-linecap="round" stroke-linejoin="round"/>
<path d="M10.9688 76.0835H14.7212" stroke="#2D2F30" stroke-linecap="round" stroke-linejoin="round"/>
<path d="M23.2236 80.1089H37.8075" stroke="#2D2F30" stroke-linecap="round" stroke-linejoin="round"/>
<path d="M10.9688 80.1089H20.6944" stroke="#2D2F30" stroke-linecap="round" stroke-linejoin="round"/>
<path d="M30.5752 84.1313H37.8082" stroke="#2D2F30" stroke-linecap="round" stroke-linejoin="round"/>
<path d="M23.4512 84.1313H28.5089" stroke="#2D2F30" stroke-linecap="round" stroke-linejoin="round"/>
<path d="M10.9688 84.1313H20.6944" stroke="#2D2F30" stroke-linecap="round" stroke-linejoin="round"/>
<path d="M172.635 127.158H137.059V79.7173H165.012L172.635 87.1678V127.158Z" fill="#EBF3FF" stroke="#2D2F30" stroke-linecap="round" stroke-linejoin="round"/>
<path d="M141.572 90.0317H168.963" stroke="#2D2F30" stroke-linecap="round" stroke-linejoin="round"/>
<path d="M141.572 96.8022H168.963" stroke="#2D2F30" stroke-linecap="round" stroke-linejoin="round"/>
<path d="M141.572 103.583H168.963" stroke="#2D2F30" stroke-linecap="round" stroke-linejoin="round"/>
<path d="M141.572 110.354H168.963" stroke="#2D2F30" stroke-linecap="round" stroke-linejoin="round"/>
<path d="M141.572 117.132H168.963" stroke="#2D2F30" stroke-linecap="round" stroke-linejoin="round"/>
<path d="M144.355 50.894H157.099" stroke="#2D2F30" stroke-linecap="round" stroke-linejoin="round"/>
<path d="M130.262 50.894H142.054" stroke="#2D2F30" stroke-linecap="round" stroke-linejoin="round"/>
<path d="M152.168 54.9194H157.099" stroke="#2D2F30" stroke-linecap="round" stroke-linejoin="round"/>
<path d="M130.262 54.9194H149.867" stroke="#2D2F30" stroke-linecap="round" stroke-linejoin="round"/>
<path d="M155.15 58.9429H157.099" stroke="#2D2F30" stroke-linecap="round" stroke-linejoin="round"/>
<path d="M144.582 58.9429H151.933" stroke="#2D2F30" stroke-linecap="round" stroke-linejoin="round"/>
<path d="M130.262 58.9429H142.516" stroke="#2D2F30" stroke-linecap="round" stroke-linejoin="round"/>
<path d="M130.262 62.9683H157.1" stroke="#2D2F30" stroke-linecap="round" stroke-linejoin="round"/>
<path d="M152.631 66.9917H157.099" stroke="#2D2F30" stroke-linecap="round" stroke-linejoin="round"/>
<path d="M137.231 66.9917H148.027" stroke="#2D2F30" stroke-linecap="round" stroke-linejoin="round"/>
<path d="M130.262 66.9917H134.014" stroke="#2D2F30" stroke-linecap="round" stroke-linejoin="round"/>
<path d="M142.515 71.0151H157.099" stroke="#2D2F30" stroke-linecap="round" stroke-linejoin="round"/>
<path d="M130.262 71.0151H139.987" stroke="#2D2F30" stroke-linecap="round" stroke-linejoin="round"/>
<path d="M149.866 75.0415H157.099" stroke="#2D2F30" stroke-linecap="round" stroke-linejoin="round"/>
<path d="M142.742 75.0415H147.8" stroke="#2D2F30" stroke-linecap="round" stroke-linejoin="round"/>
<path d="M130.262 75.0415H139.987" stroke="#2D2F30" stroke-linecap="round" stroke-linejoin="round"/>
<path d="M106.486 48.5014H70.9102V1.06982H98.8634L106.486 8.52038V48.5014Z" fill="#EBF3FF" stroke="#2D2F30" stroke-linecap="round" stroke-linejoin="round"/>
<path d="M99.8242 7.7417V9.68138L106.486 8.53026L99.8242 7.7417Z" fill="#2D2F30" stroke="#2D2F30" stroke-linecap="round" stroke-linejoin="round"/>
<path d="M98.8633 1.06982V8.52945H106.486L98.8633 1.06982Z" fill="#EBF3FF" stroke="#2D2F30" stroke-linecap="round" stroke-linejoin="round"/>
<path d="M75.4326 11.3755H102.815" stroke="#2D2F30" stroke-linecap="round" stroke-linejoin="round"/>
<path d="M75.4326 18.1548H102.815" stroke="#2D2F30" stroke-linecap="round" stroke-linejoin="round"/>
<path d="M75.4326 24.9272H102.815" stroke="#2D2F30" stroke-linecap="round" stroke-linejoin="round"/>
<path d="M75.4326 31.7046H102.815" stroke="#2D2F30" stroke-linecap="round" stroke-linejoin="round"/>
<path d="M75.4326 38.4761H102.815" stroke="#2D2F30" stroke-linecap="round" stroke-linejoin="round"/>
<path d="M13.835 109.846H18.7657" stroke="#2D2F30" stroke-linecap="round" stroke-linejoin="round"/>
<path d="M16.8252 113.872H18.7649" stroke="#2D2F30" stroke-linecap="round" stroke-linejoin="round"/>
<path d="M14.2959 121.918H18.7644" stroke="#2D2F30" stroke-linecap="round" stroke-linejoin="round"/>
<path d="M15.0859 105.822H27.8298" stroke="#2D2F30" stroke-linecap="round" stroke-linejoin="round"/>
<path d="M1 105.822H12.7831" stroke="#2D2F30" stroke-linecap="round" stroke-linejoin="round"/>
<path d="M1 109.845H20.5962" stroke="#2D2F30" stroke-linecap="round" stroke-linejoin="round"/>
<path d="M15.3115 113.871H22.6714" stroke="#2D2F30" stroke-linecap="round" stroke-linejoin="round"/>
<path d="M1 113.871H13.2454" stroke="#2D2F30" stroke-linecap="round" stroke-linejoin="round"/>
<path d="M1 117.894H27.8293" stroke="#2D2F30" stroke-linecap="round" stroke-linejoin="round"/>
<path d="M7.95996 121.919H18.7642" stroke="#2D2F30" stroke-linecap="round" stroke-linejoin="round"/>
<path d="M1 121.919H4.74341" stroke="#2D2F30" stroke-linecap="round" stroke-linejoin="round"/>
<path d="M13.2451 125.944H27.829" stroke="#2D2F30" stroke-linecap="round" stroke-linejoin="round"/>
<path d="M1 125.944H10.7165" stroke="#2D2F30" stroke-linecap="round" stroke-linejoin="round"/>
<path d="M20.5967 129.967H27.8297" stroke="#2D2F30" stroke-linecap="round" stroke-linejoin="round"/>
<path d="M13.4717 129.967H18.5294" stroke="#2D2F30" stroke-linecap="round" stroke-linejoin="round"/>
<path d="M1 129.967H10.7165" stroke="#2D2F30" stroke-linecap="round" stroke-linejoin="round"/>
<path d="M87.715 159.915H58.375V120.795H81.4246L87.715 126.932V159.915Z" fill="#0074FF" stroke="#2D2F30" stroke-linecap="round" stroke-linejoin="round"/>
<path d="M82.2129 126.297V127.893L87.7147 126.941L82.2129 126.297Z" fill="#2D2F30" stroke="#2D2F30" stroke-linecap="round" stroke-linejoin="round"/>
<path d="M81.4248 120.795V126.941H87.7152L81.4248 120.795Z" fill="#EBF3FF" stroke="#2D2F30" stroke-linecap="round" stroke-linejoin="round"/>
<path d="M62.0996 129.288H84.687" stroke="#2D2F30" stroke-linecap="round" stroke-linejoin="round"/>
<path d="M62.0996 134.88H84.687" stroke="#2D2F30" stroke-linecap="round" stroke-linejoin="round"/>
<path d="M62.0996 140.472H84.687" stroke="#2D2F30" stroke-linecap="round" stroke-linejoin="round"/>
<path d="M62.0996 146.055H84.687" stroke="#2D2F30" stroke-linecap="round" stroke-linejoin="round"/>
<path d="M62.0996 151.65H84.687" stroke="#2D2F30" stroke-linecap="round" stroke-linejoin="round"/>
<path d="M56.8699 52.8881H21.2939V5.45654H49.2471L56.8699 12.898V52.8881Z" fill="#0074FF" stroke="#2D2F30" stroke-linecap="round" stroke-linejoin="round"/>
<path d="M50.1992 12.1284V14.0681L56.8703 12.9079L50.1992 12.1284Z" fill="#2D2F30" stroke="#2D2F30" stroke-linecap="round" stroke-linejoin="round"/>
<path d="M49.248 5.45654V12.9071H56.8708L49.248 5.45654Z" fill="#EBF3FF" stroke="#2D2F30" stroke-linecap="round" stroke-linejoin="round"/>
<path d="M25.8076 15.7612H53.1988" stroke="#2D2F30" stroke-linecap="round" stroke-linejoin="round"/>
<path d="M25.8076 22.5327H53.1988" stroke="#2D2F30" stroke-linecap="round" stroke-linejoin="round"/>
<path d="M25.8076 29.313H53.1988" stroke="#2D2F30" stroke-linecap="round" stroke-linejoin="round"/>
<path d="M25.8076 36.0923H53.1988" stroke="#2D2F30" stroke-linecap="round" stroke-linejoin="round"/>
<path d="M25.8076 42.8647H53.1988" stroke="#2D2F30" stroke-linecap="round" stroke-linejoin="round"/>
<path d="M133.061 74.5876H97.4854V27.147H125.439L133.061 34.5975V74.5876Z" fill="#0074FF" stroke="#2D2F30" stroke-linecap="round" stroke-linejoin="round"/>
<path d="M126.399 33.8188V35.7676L133.061 34.6074L126.399 33.8188Z" fill="#2D2F30" stroke="#2D2F30" stroke-linecap="round" stroke-linejoin="round"/>
<path d="M125.439 27.147V34.6066H133.062L125.439 27.147Z" fill="#EBF3FF" stroke="#2D2F30" stroke-linecap="round" stroke-linejoin="round"/>
<path d="M102.01 37.4624H129.392" stroke="#2D2F30" stroke-linecap="round" stroke-linejoin="round"/>
<path d="M102.01 44.2319H129.392" stroke="#2D2F30" stroke-linecap="round" stroke-linejoin="round"/>
<path d="M102.01 51.0122H129.392" stroke="#2D2F30" stroke-linecap="round" stroke-linejoin="round"/>
<path d="M102.01 57.7827H129.392" stroke="#2D2F30" stroke-linecap="round" stroke-linejoin="round"/>
<path d="M102.01 64.561H129.392" stroke="#2D2F30" stroke-linecap="round" stroke-linejoin="round"/>
<path d="M81.5157 40.6509H42.3685C38.0585 40.6509 34.5645 44.1449 34.5645 48.4549V94.9892C34.5645 99.2992 38.0585 102.793 42.3685 102.793H81.5157C85.8257 102.793 89.3197 99.2992 89.3197 94.9892V48.4549C89.3197 44.1449 85.8257 40.6509 81.5157 40.6509Z" fill="#EBF3FF" stroke="#2D2F30" stroke-linecap="round" stroke-linejoin="round"/>
<path d="M83.2273 40.6509H40.6268C39.0138 40.6509 37.4669 41.2917 36.3263 42.4322C35.1857 43.5728 34.5449 45.1198 34.5449 46.7328V48.0471H89.2911V46.7418C89.2935 45.1304 88.6563 43.5838 87.5194 42.4418C86.3825 41.2998 84.8388 40.6557 83.2273 40.6509Z" fill="#2D2F30" stroke="#2D2F30" stroke-linecap="round" stroke-linejoin="round"/>
<path d="M42.377 58.9077H81.4878" stroke="#2D2F30" stroke-linecap="round" stroke-linejoin="round"/>
<path d="M42.377 68.4595H81.4878" stroke="#2D2F30" stroke-linecap="round" stroke-linejoin="round"/>
<path d="M42.377 78.022H81.4878" stroke="#2D2F30" stroke-linecap="round" stroke-linejoin="round"/>
<path d="M42.377 87.5864H81.4878" stroke="#2D2F30" stroke-linecap="round" stroke-linejoin="round"/>
<path d="M75.3341 44.1324C75.3341 43.7882 75.232 43.4517 75.0408 43.1655C74.8496 42.8793 74.5778 42.6563 74.2598 42.5246C73.9418 42.3929 73.5919 42.3584 73.2543 42.4255C72.9167 42.4927 72.6066 42.6584 72.3632 42.9018C72.1198 43.1452 71.9541 43.4553 71.887 43.7928C71.8198 44.1304 71.8543 44.4803 71.986 44.7983C72.1177 45.1163 72.3408 45.3881 72.6269 45.5794C72.9131 45.7706 73.2496 45.8726 73.5938 45.8726C74.0553 45.8726 74.498 45.6893 74.8244 45.3629C75.1507 45.0366 75.3341 44.5939 75.3341 44.1324Z" fill="#EBF3FF"/>
<path d="M81.0977 44.1324C81.0977 43.7882 80.9957 43.4517 80.8045 43.1655C80.6132 42.8793 80.3414 42.6563 80.0234 42.5246C79.7055 42.3929 79.3555 42.3584 79.018 42.4255C78.6804 42.4927 78.3703 42.6584 78.1269 42.9018C77.8835 43.1452 77.7178 43.4553 77.6506 43.7928C77.5835 44.1304 77.6179 44.4803 77.7497 44.7983C77.8814 45.1163 78.1044 45.3881 78.3906 45.5794C78.6768 45.7706 79.0133 45.8726 79.3575 45.8726C79.819 45.8726 80.2617 45.6893 80.588 45.3629C80.9144 45.0366 81.0977 44.5939 81.0977 44.1324Z" fill="#EBF3FF"/>
<path d="M86.8165 44.1323C86.8165 43.7878 86.7142 43.4509 86.5226 43.1646C86.3309 42.8782 86.0586 42.6551 85.7401 42.5237C85.4216 42.3922 85.0712 42.3583 84.7334 42.4262C84.3955 42.4941 84.0855 42.6607 83.8424 42.905C83.5994 43.1493 83.4344 43.4603 83.3683 43.7984C83.3022 44.1366 83.3379 44.4868 83.471 44.8046C83.6041 45.1225 83.8286 45.3936 84.116 45.5838C84.4034 45.7739 84.7407 45.8744 85.0853 45.8726C85.3134 45.8726 85.5393 45.8275 85.7499 45.74C85.9605 45.6524 86.1518 45.5241 86.3126 45.3624C86.4735 45.2006 86.6009 45.0087 86.6873 44.7976C86.7738 44.5866 86.8177 44.3604 86.8165 44.1323Z" fill="#EBF3FF"/>
<path d="M43.991 91.5376H21.6302C17.3202 91.5376 13.8262 95.0316 13.8262 99.3416V126.824C13.8262 131.134 17.3202 134.628 21.6302 134.628H43.991C48.301 134.628 51.795 131.134 51.795 126.824V99.3416C51.795 95.0316 48.301 91.5376 43.991 91.5376Z" fill="#EBF3FF" stroke="#2D2F30" stroke-linecap="round" stroke-linejoin="round"/>
<path d="M47.5712 91.5552H18.0409C16.9231 91.5552 15.8511 91.9992 15.0606 92.7896C14.2702 93.5801 13.8262 94.6521 13.8262 95.7699V96.6763H51.7678V95.7699C51.7678 94.6552 51.3263 93.5859 50.5398 92.796C49.7533 92.0061 48.6859 91.56 47.5712 91.5552Z" fill="#2D2F30" stroke="#2D2F30" stroke-linecap="round" stroke-linejoin="round"/>
<path d="M19.2461 104.19H46.3654" stroke="#2D2F30" stroke-linecap="round" stroke-linejoin="round"/>
<path d="M19.2461 110.817H46.3654" stroke="#2D2F30" stroke-linecap="round" stroke-linejoin="round"/>
<path d="M19.2461 117.452H46.3654" stroke="#2D2F30" stroke-linecap="round" stroke-linejoin="round"/>
<path d="M19.2461 124.077H46.3654" stroke="#2D2F30" stroke-linecap="round" stroke-linejoin="round"/>
<path d="M40.9174 95.1449C41.5832 95.1449 42.1229 94.6052 42.1229 93.9394C42.1229 93.2736 41.5832 92.7339 40.9174 92.7339C40.2516 92.7339 39.7119 93.2736 39.7119 93.9394C39.7119 94.6052 40.2516 95.1449 40.9174 95.1449Z" fill="#EBF3FF"/>
<path d="M44.8881 95.1449C45.5539 95.1449 46.0936 94.6052 46.0936 93.9394C46.0936 93.2736 45.5539 92.7339 44.8881 92.7339C44.2223 92.7339 43.6826 93.2736 43.6826 93.9394C43.6826 94.6052 44.2223 95.1449 44.8881 95.1449Z" fill="#EBF3FF"/>
<path d="M50.0624 93.9394C50.0624 93.701 49.9917 93.4679 49.8592 93.2696C49.7268 93.0714 49.5385 92.9169 49.3182 92.8257C49.0979 92.7344 48.8555 92.7105 48.6217 92.7571C48.3879 92.8036 48.173 92.9184 48.0045 93.087C47.8359 93.2556 47.721 93.4704 47.6745 93.7042C47.628 93.938 47.6519 94.1804 47.7431 94.4007C47.8344 94.621 47.9889 94.8093 48.1871 94.9417C48.3854 95.0742 48.6184 95.1449 48.8569 95.1449C49.0152 95.1449 49.1719 95.1137 49.3182 95.0531C49.4645 94.9925 49.5974 94.9037 49.7093 94.7918C49.8212 94.6799 49.91 94.547 49.9706 94.4007C50.0312 94.2544 50.0624 94.0977 50.0624 93.9394Z" fill="#EBF3FF"/>
<path d="M32.6055 147.598H45.3494" stroke="#2D2F30" stroke-linecap="round" stroke-linejoin="round"/>
<path d="M18.5117 147.598H30.3039" stroke="#2D2F30" stroke-linecap="round" stroke-linejoin="round"/>
<path d="M40.4189 151.622H45.3497" stroke="#2D2F30" stroke-linecap="round" stroke-linejoin="round"/>
<path d="M18.5117 151.622H38.117" stroke="#2D2F30" stroke-linecap="round" stroke-linejoin="round"/>
<path d="M43.4014 155.647H45.3501" stroke="#2D2F30" stroke-linecap="round" stroke-linejoin="round"/>
<path d="M32.833 155.647H40.1839" stroke="#2D2F30" stroke-linecap="round" stroke-linejoin="round"/>
<path d="M18.5117 155.647H30.7662" stroke="#2D2F30" stroke-linecap="round" stroke-linejoin="round"/>
<path d="M18.5117 159.67H45.35" stroke="#2D2F30" stroke-linecap="round" stroke-linejoin="round"/>
<path d="M40.8809 163.695H45.3494" stroke="#2D2F30" stroke-linecap="round" stroke-linejoin="round"/>
<path d="M25.4814 163.695H36.2766" stroke="#2D2F30" stroke-linecap="round" stroke-linejoin="round"/>
<path d="M18.5117 163.695H22.2642" stroke="#2D2F30" stroke-linecap="round" stroke-linejoin="round"/>
<path d="M30.7656 167.72H45.3495" stroke="#2D2F30" stroke-linecap="round" stroke-linejoin="round"/>
<path d="M18.5117 167.72H28.2373" stroke="#2D2F30" stroke-linecap="round" stroke-linejoin="round"/>
<path d="M38.1162 171.743H45.3492" stroke="#2D2F30" stroke-linecap="round" stroke-linejoin="round"/>
<path d="M30.9922 171.743H36.0499" stroke="#2D2F30" stroke-linecap="round" stroke-linejoin="round"/>
<path d="M18.5117 171.743H28.2373" stroke="#2D2F30" stroke-linecap="round" stroke-linejoin="round"/>
<path d="M122.692 142.185H135.445" stroke="#2D2F30" stroke-linecap="round" stroke-linejoin="round"/>
<path d="M108.606 142.185H120.399" stroke="#2D2F30" stroke-linecap="round" stroke-linejoin="round"/>
<path d="M130.505 146.218H135.445" stroke="#2D2F30" stroke-linecap="round" stroke-linejoin="round"/>
<path d="M108.606 146.218H128.212" stroke="#2D2F30" stroke-linecap="round" stroke-linejoin="round"/>
<path d="M133.497 150.245H135.446" stroke="#2D2F30" stroke-linecap="round" stroke-linejoin="round"/>
<path d="M122.927 150.245H130.278" stroke="#2D2F30" stroke-linecap="round" stroke-linejoin="round"/>
<path d="M108.606 150.245H120.861" stroke="#2D2F30" stroke-linecap="round" stroke-linejoin="round"/>
<path d="M108.606 154.268H135.445" stroke="#2D2F30" stroke-linecap="round" stroke-linejoin="round"/>
<path d="M130.968 158.292H135.445" stroke="#2D2F30" stroke-linecap="round" stroke-linejoin="round"/>
<path d="M115.569 158.292H126.374" stroke="#2D2F30" stroke-linecap="round" stroke-linejoin="round"/>
<path d="M108.606 158.292H112.35" stroke="#2D2F30" stroke-linecap="round" stroke-linejoin="round"/>
<path d="M120.862 162.317H135.446" stroke="#2D2F30" stroke-linecap="round" stroke-linejoin="round"/>
<path d="M108.606 162.317H118.332" stroke="#2D2F30" stroke-linecap="round" stroke-linejoin="round"/>
<path d="M128.212 166.341H135.445" stroke="#2D2F30" stroke-linecap="round" stroke-linejoin="round"/>
<path d="M121.088 166.341H126.146" stroke="#2D2F30" stroke-linecap="round" stroke-linejoin="round"/>
<path d="M108.606 166.341H118.332" stroke="#2D2F30" stroke-linecap="round" stroke-linejoin="round"/>
<path d="M92.3926 91.8727V131.863H127.969V84.4312H100.024L92.3926 91.8727Z" fill="#EBF3FF" stroke="#2D2F30" stroke-linecap="round" stroke-linejoin="round"/>
<path d="M99.0636 91.1021V93.0417L92.3926 91.8906L99.0636 91.1021Z" fill="#2D2F30" stroke="#2D2F30" stroke-linecap="round" stroke-linejoin="round"/>
<path d="M100.015 84.4312V91.8908H92.3926L100.015 84.4312Z" fill="#EBF3FF" stroke="#2D2F30" stroke-linecap="round" stroke-linejoin="round"/>
<path d="M123.454 94.7358H96.0625" stroke="#2D2F30" stroke-linecap="round" stroke-linejoin="round"/>
<path d="M123.454 101.507H96.0625" stroke="#2D2F30" stroke-linecap="round" stroke-linejoin="round"/>
<path d="M123.454 108.289H96.0625" stroke="#2D2F30" stroke-linecap="round" stroke-linejoin="round"/>
<path d="M123.454 115.067H96.0625" stroke="#2D2F30" stroke-linecap="round" stroke-linejoin="round"/>
<path d="M127.969 120.795H92.3926V131.872H127.969V120.795Z" fill="#2D2F30" stroke="#2D2F30" stroke-linecap="round" stroke-linejoin="round"/>
<path d="M133.46 94.9829H108.843V106.839H133.46V94.9829Z" fill="#2D2F30" stroke="#2D2F30" stroke-linecap="round" stroke-linejoin="round"/>
<path d="M118.949 96.6567C120.209 96.6567 120.762 97.4 120.762 98.6055V99.5663C120.802 99.8183 120.783 100.076 120.708 100.32C120.633 100.564 120.503 100.787 120.328 100.973C120.153 101.158 119.937 101.301 119.698 101.391C119.459 101.48 119.203 101.513 118.949 101.488H118.16V104.642H117.254V96.6567H118.949ZM118.885 100.69C119.547 100.69 119.864 100.382 119.864 99.6206V98.5602C119.864 97.835 119.601 97.4634 118.958 97.4634H118.106V100.69H118.885Z" fill="#EBF3FF"/>
<path d="M123.372 96.6567C124.614 96.6567 125.185 97.409 125.185 98.6417V102.666C125.185 103.89 124.614 104.642 123.372 104.642H121.469V96.6567H123.372ZM123.372 103.826C124.007 103.826 124.279 103.427 124.279 102.702V98.5964C124.279 97.8622 123.97 97.4634 123.327 97.4634H122.366V103.808L123.372 103.826Z" fill="#EBF3FF"/>
<path d="M128.702 100.373V101.18H126.889V104.642H125.982V96.6567H129.155V97.4634H126.871V100.373H128.702Z" fill="#EBF3FF"/>
<path d="M165.964 86.3892V88.3379L172.635 87.1777L165.964 86.3892Z" fill="#2D2F30" stroke="#2D2F30" stroke-linecap="round" stroke-linejoin="round"/>
<path d="M165.012 79.7163V87.1759H172.634L165.012 79.7163Z" fill="#EBF3FF" stroke="#2D2F30" stroke-linecap="round" stroke-linejoin="round"/>
<path d="M252.487 141.342C252.705 141.34 252.92 141.381 253.122 141.462C253.324 141.543 253.507 141.663 253.662 141.816C253.817 141.968 253.941 142.15 254.025 142.35C254.11 142.551 254.154 142.766 254.155 142.983V153.352C254.124 153.774 253.934 154.169 253.624 154.457C253.314 154.746 252.906 154.906 252.483 154.906C252.059 154.906 251.652 154.746 251.342 154.457C251.031 154.169 250.842 153.774 250.811 153.352V142.983C250.813 142.765 250.858 142.55 250.944 142.35C251.029 142.149 251.153 141.968 251.309 141.815C251.465 141.663 251.649 141.543 251.851 141.462C252.053 141.381 252.27 141.34 252.487 141.342Z" fill="#2D2F30"/>
<path d="M248.444 141.342C248.662 141.34 248.878 141.381 249.08 141.462C249.282 141.543 249.467 141.663 249.622 141.815C249.778 141.968 249.902 142.149 249.988 142.35C250.073 142.55 250.119 142.765 250.121 142.983V153.352C250.09 153.774 249.9 154.169 249.59 154.457C249.28 154.746 248.872 154.906 248.449 154.906C248.025 154.906 247.618 154.746 247.307 154.457C246.997 154.169 246.807 153.774 246.776 153.352V142.983C246.781 142.545 246.959 142.126 247.272 141.819C247.584 141.511 248.006 141.34 248.444 141.342Z" fill="#2D2F30"/>
<path d="M244.467 141.342C244.684 141.34 244.9 141.381 245.101 141.462C245.303 141.543 245.487 141.663 245.642 141.816C245.797 141.968 245.92 142.15 246.004 142.35C246.089 142.551 246.133 142.766 246.134 142.983V153.352C246.133 153.57 246.089 153.785 246.004 153.985C245.92 154.185 245.797 154.367 245.642 154.519C245.487 154.672 245.303 154.792 245.101 154.873C244.9 154.954 244.684 154.995 244.467 154.993C244.249 154.995 244.033 154.954 243.832 154.873C243.63 154.792 243.447 154.672 243.292 154.519C243.137 154.367 243.013 154.185 242.929 153.985C242.844 153.785 242.8 153.57 242.799 153.352V142.983C242.8 142.766 242.844 142.551 242.929 142.35C243.013 142.15 243.137 141.968 243.292 141.816C243.447 141.663 243.63 141.543 243.832 141.462C244.033 141.381 244.249 141.34 244.467 141.342Z" fill="#2D2F30"/>
<path d="M240.45 141.342C240.668 141.34 240.884 141.381 241.086 141.462C241.288 141.543 241.472 141.663 241.628 141.815C241.784 141.968 241.908 142.149 241.994 142.35C242.079 142.55 242.124 142.765 242.127 142.983V153.352C242.096 153.774 241.906 154.169 241.596 154.457C241.286 154.746 240.878 154.906 240.455 154.906C240.031 154.906 239.623 154.746 239.313 154.457C239.003 154.169 238.813 153.774 238.782 153.352V142.983C238.787 142.545 238.965 142.126 239.278 141.819C239.59 141.511 240.012 141.34 240.45 141.342Z" fill="#2D2F30"/>
<path d="M236.445 141.342C236.662 141.34 236.878 141.381 237.08 141.462C237.282 141.543 237.465 141.663 237.62 141.816C237.775 141.968 237.898 142.15 237.983 142.35C238.068 142.551 238.112 142.766 238.113 142.983V153.352C238.113 153.794 237.937 154.219 237.624 154.531C237.312 154.844 236.887 155.02 236.445 155.02C236.003 155.02 235.579 154.844 235.266 154.531C234.953 154.219 234.777 153.794 234.777 153.352V142.983C234.779 142.766 234.823 142.551 234.907 142.35C234.992 142.15 235.115 141.968 235.27 141.816C235.425 141.663 235.609 141.543 235.81 141.462C236.012 141.381 236.228 141.34 236.445 141.342Z" fill="#2D2F30"/>
<path d="M232.429 141.342C232.646 141.34 232.863 141.381 233.065 141.462C233.267 141.543 233.451 141.663 233.607 141.815C233.762 141.968 233.887 142.149 233.972 142.35C234.058 142.55 234.103 142.765 234.105 142.983V153.352C234.103 153.57 234.058 153.785 233.972 153.986C233.887 154.186 233.762 154.367 233.607 154.52C233.451 154.672 233.267 154.792 233.065 154.873C232.863 154.955 232.646 154.995 232.429 154.993C231.99 154.995 231.569 154.824 231.256 154.516C230.944 154.209 230.766 153.79 230.761 153.352V142.983C230.766 142.545 230.944 142.126 231.256 141.819C231.569 141.511 231.99 141.34 232.429 141.342Z" fill="#2D2F30"/>
<path d="M228.423 141.342C228.64 141.34 228.856 141.381 229.057 141.462C229.259 141.543 229.443 141.663 229.598 141.816C229.753 141.968 229.876 142.15 229.961 142.35C230.045 142.551 230.089 142.766 230.09 142.983V153.352C230.09 153.794 229.915 154.219 229.602 154.531C229.289 154.844 228.865 155.02 228.423 155.02C227.98 155.02 227.556 154.844 227.243 154.531C226.931 154.219 226.755 153.794 226.755 153.352V142.983C226.756 142.766 226.8 142.551 226.885 142.35C226.969 142.15 227.093 141.968 227.248 141.816C227.403 141.663 227.586 141.543 227.788 141.462C227.99 141.381 228.205 141.34 228.423 141.342Z" fill="#2D2F30"/>
<path d="M224.416 141.342C224.854 141.34 225.276 141.511 225.588 141.819C225.901 142.126 226.079 142.545 226.084 142.983V153.352C226.053 153.774 225.863 154.169 225.553 154.457C225.243 154.746 224.835 154.906 224.412 154.906C223.988 154.906 223.58 154.746 223.27 154.457C222.96 154.169 222.77 153.774 222.739 153.352V142.983C222.742 142.765 222.787 142.55 222.872 142.35C222.958 142.149 223.082 141.968 223.238 141.815C223.394 141.663 223.578 141.543 223.78 141.462C223.982 141.381 224.198 141.34 224.416 141.342Z" fill="#2D2F30"/>
<path d="M220.402 141.342C220.62 141.34 220.835 141.381 221.037 141.462C221.239 141.543 221.422 141.663 221.577 141.816C221.732 141.968 221.855 142.15 221.94 142.35C222.025 142.551 222.069 142.766 222.07 142.983V153.352C222.07 153.794 221.894 154.219 221.581 154.531C221.269 154.844 220.844 155.02 220.402 155.02C219.96 155.02 219.536 154.844 219.223 154.531C218.91 154.219 218.734 153.794 218.734 153.352V142.983C218.736 142.766 218.78 142.551 218.864 142.35C218.949 142.15 219.072 141.968 219.227 141.816C219.382 141.663 219.566 141.543 219.767 141.462C219.969 141.381 220.185 141.34 220.402 141.342Z" fill="#2D2F30"/>
<path d="M216.397 141.342C216.835 141.34 217.256 141.511 217.569 141.819C217.881 142.126 218.06 142.545 218.064 142.983V153.352C218.033 153.774 217.844 154.169 217.533 154.457C217.223 154.746 216.815 154.906 216.392 154.906C215.969 154.906 215.561 154.746 215.251 154.457C214.941 154.169 214.751 153.774 214.72 153.352V142.983C214.722 142.765 214.767 142.55 214.853 142.35C214.938 142.149 215.063 141.968 215.218 141.815C215.374 141.663 215.558 141.543 215.76 141.462C215.963 141.381 216.179 141.34 216.397 141.342Z" fill="#2D2F30"/>
<path d="M212.379 141.342C212.596 141.34 212.812 141.381 213.013 141.462C213.215 141.543 213.399 141.663 213.554 141.816C213.709 141.968 213.832 142.15 213.917 142.35C214.001 142.551 214.045 142.766 214.046 142.983V153.352C214.046 153.794 213.871 154.219 213.558 154.531C213.245 154.844 212.821 155.02 212.379 155.02C211.936 155.02 211.512 154.844 211.199 154.531C210.887 154.219 210.711 153.794 210.711 153.352V142.983C210.712 142.766 210.756 142.551 210.841 142.35C210.925 142.15 211.049 141.968 211.204 141.816C211.359 141.663 211.542 141.543 211.744 141.462C211.946 141.381 212.161 141.34 212.379 141.342Z" fill="#2D2F30"/>
<path d="M209.514 141.342C209.471 141.5 209.471 141.665 209.514 141.823C209.668 141.974 209.791 142.155 209.875 142.354C209.959 142.553 210.003 142.767 210.004 142.983V153.352C210.003 153.568 209.959 153.782 209.875 153.981C209.791 154.18 209.668 154.361 209.514 154.512C208.79 154.855 207.995 155.02 207.194 154.993C205.309 154.993 204.112 154.258 204.52 153.352L208.798 142.983C209.078 142.455 209.317 141.906 209.514 141.342Z" fill="#2D2F30"/>
<path d="M209.516 141.342C209.195 141.868 208.913 142.416 208.673 142.983L203.388 153.352C202.962 154.258 201.095 154.993 199.21 154.993C197.325 154.993 196.554 154.258 197.506 153.352L207.875 142.983L209.062 141.823C209.362 141.524 209.516 141.342 209.516 141.342Z" fill="#2D2F30"/>
<path d="M209.515 141.342C209.345 141.479 209.184 141.628 209.034 141.786L207.874 142.983L197.505 153.352C196.598 154.258 195.864 153.506 195.864 151.539C195.864 149.572 196.598 147.714 197.505 147.306L207.874 142.122C208.44 141.904 208.988 141.643 209.515 141.342Z" fill="#2D2F30"/>
<path d="M209.515 141.343C208.953 141.521 208.405 141.739 207.874 141.995L197.505 146.137C196.598 146.536 195.864 145.304 195.864 143.373C195.863 142.926 195.906 142.48 195.991 142.041C196.031 141.844 196.082 141.651 196.145 141.46C196.16 141.391 196.191 141.326 196.236 141.27L196.345 141.152C196.495 140.995 196.675 140.87 196.874 140.785C197.073 140.699 197.288 140.655 197.505 140.654H207.874C208.091 140.655 208.306 140.699 208.505 140.785C208.704 140.87 208.884 140.995 209.034 141.152L209.134 141.27C209.134 141.325 209.197 141.361 209.234 141.352H209.515V141.343Z" fill="#2D2F30"/>
<path d="M209.515 138.26C209.52 138.48 209.481 138.699 209.401 138.904C209.321 139.108 209.202 139.295 209.049 139.454C208.897 139.612 208.715 139.739 208.513 139.826C208.311 139.914 208.094 139.961 207.875 139.964H197.506C197.074 139.933 196.67 139.739 196.375 139.422C196.081 139.105 195.917 138.689 195.917 138.256C195.917 137.823 196.081 137.406 196.375 137.089C196.67 136.772 197.074 136.579 197.506 136.547H207.875C208.095 136.552 208.312 136.6 208.514 136.689C208.715 136.777 208.898 136.905 209.05 137.064C209.202 137.223 209.322 137.411 209.402 137.616C209.481 137.821 209.52 138.04 209.515 138.26Z" fill="#2D2F30"/>
<path d="M209.515 134.156C209.52 134.376 209.481 134.595 209.402 134.8C209.322 135.005 209.202 135.193 209.05 135.352C208.898 135.511 208.715 135.639 208.514 135.727C208.312 135.816 208.095 135.864 207.875 135.869H197.506C197.074 135.837 196.67 135.644 196.375 135.327C196.081 135.01 195.917 134.593 195.917 134.16C195.917 133.727 196.081 133.311 196.375 132.994C196.67 132.677 197.074 132.483 197.506 132.452H207.875C208.094 132.455 208.311 132.502 208.513 132.59C208.715 132.677 208.897 132.804 209.049 132.963C209.202 133.121 209.321 133.308 209.401 133.513C209.481 133.717 209.52 133.936 209.515 134.156Z" fill="#2D2F30"/>
<path d="M209.515 130.057C209.52 130.277 209.481 130.496 209.402 130.702C209.322 130.907 209.202 131.094 209.05 131.253C208.898 131.413 208.715 131.54 208.514 131.629C208.312 131.717 208.095 131.765 207.875 131.77H197.506C197.074 131.739 196.67 131.545 196.375 131.228C196.081 130.911 195.917 130.494 195.917 130.062C195.917 129.629 196.081 129.212 196.375 128.895C196.67 128.578 197.074 128.384 197.506 128.353H207.875C208.094 128.357 208.311 128.404 208.513 128.491C208.715 128.579 208.897 128.706 209.049 128.864C209.202 129.022 209.321 129.209 209.401 129.414C209.481 129.619 209.52 129.837 209.515 130.057Z" fill="#2D2F30"/>
<path d="M209.515 125.998C209.52 126.218 209.481 126.436 209.401 126.641C209.321 126.846 209.202 127.033 209.049 127.191C208.897 127.349 208.715 127.476 208.513 127.564C208.311 127.651 208.094 127.698 207.875 127.702H197.506C197.074 127.67 196.67 127.477 196.375 127.16C196.081 126.843 195.917 126.426 195.917 125.993C195.917 125.56 196.081 125.144 196.375 124.827C196.67 124.51 197.074 124.316 197.506 124.285H207.875C208.095 124.289 208.312 124.337 208.514 124.426C208.715 124.515 208.898 124.642 209.05 124.801C209.202 124.96 209.322 125.148 209.402 125.353C209.481 125.559 209.52 125.778 209.515 125.998Z" fill="#2D2F30"/>
<path d="M209.515 121.854C209.52 122.074 209.481 122.293 209.402 122.498C209.322 122.704 209.202 122.891 209.05 123.05C208.898 123.209 208.715 123.337 208.514 123.426C208.312 123.514 208.095 123.562 207.875 123.567H197.506C197.074 123.536 196.67 123.342 196.375 123.025C196.081 122.708 195.917 122.291 195.917 121.858C195.917 121.426 196.081 121.009 196.375 120.692C196.67 120.375 197.074 120.181 197.506 120.15H207.875C208.094 120.153 208.311 120.2 208.513 120.288C208.715 120.376 208.897 120.502 209.049 120.661C209.202 120.819 209.321 121.006 209.401 121.211C209.481 121.416 209.52 121.634 209.515 121.854Z" fill="#2D2F30"/>
<path d="M209.515 117.757C209.52 117.976 209.481 118.195 209.401 118.4C209.321 118.604 209.202 118.791 209.049 118.95C208.897 119.108 208.715 119.235 208.513 119.322C208.311 119.41 208.094 119.457 207.875 119.461H197.506C197.074 119.429 196.67 119.235 196.375 118.918C196.081 118.602 195.917 118.185 195.917 117.752C195.917 117.319 196.081 116.902 196.375 116.586C196.67 116.269 197.074 116.075 197.506 116.043H207.875C208.095 116.048 208.312 116.096 208.514 116.185C208.715 116.274 208.898 116.401 209.05 116.56C209.202 116.719 209.322 116.907 209.402 117.112C209.481 117.317 209.52 117.536 209.515 117.757Z" fill="#2D2F30"/>
<path d="M209.515 112.646C209.514 113.094 209.468 113.54 209.379 113.979C209.343 114.175 209.294 114.368 209.234 114.559C209.218 114.627 209.184 114.69 209.135 114.74C209.106 114.786 209.073 114.829 209.035 114.867C208.885 115.024 208.705 115.149 208.506 115.234C208.306 115.32 208.092 115.365 207.875 115.365H197.506C197.289 115.365 197.074 115.32 196.875 115.234C196.675 115.149 196.495 115.024 196.345 114.867L196.237 114.74C196.237 114.695 196.173 114.658 196.146 114.668H195.874C196.439 114.499 196.988 114.281 197.515 114.015L207.884 109.882C208.781 109.474 209.515 110.716 209.515 112.646Z" fill="#2D2F30"/>
<path d="M209.515 104.442C209.515 106.373 208.78 108.267 207.874 108.675L197.505 113.851C196.942 114.089 196.394 114.361 195.864 114.667C195.864 114.667 196.046 114.522 196.345 114.222L197.505 113.035L207.874 102.666C208.78 101.714 209.515 102.512 209.515 104.442Z" fill="#2D2F30"/>
<path d="M206.279 101.026C208.092 101.026 208.817 101.76 207.874 102.666L197.505 113.036L196.308 114.214C196.152 114.363 196.003 114.52 195.864 114.685C196.188 114.162 196.476 113.617 196.725 113.054L202.164 102.685C202.626 101.76 204.466 101.026 206.279 101.026Z" fill="#2D2F30"/>
<path d="M198.539 101.026C200.352 101.026 201.485 101.76 201.059 102.666L196.527 113.036C196.256 113.563 196.02 114.108 195.82 114.667C195.833 114.51 195.833 114.353 195.82 114.196V113.951C195.76 113.862 195.708 113.768 195.666 113.67C195.581 113.469 195.538 113.253 195.539 113.036V102.666C195.539 102.446 195.582 102.227 195.666 102.023C195.706 101.927 195.758 101.835 195.82 101.751C195.937 101.655 196.065 101.573 196.201 101.506C196.931 101.163 197.733 100.999 198.539 101.026Z" fill="#2D2F30"/>
<path d="M193.326 101.026C193.757 101.031 194.169 101.206 194.471 101.513C194.774 101.821 194.942 102.235 194.94 102.666V113.036C194.94 113.463 194.77 113.874 194.467 114.176C194.165 114.479 193.754 114.649 193.326 114.649C192.898 114.649 192.488 114.479 192.185 114.176C191.883 113.874 191.713 113.463 191.713 113.036V102.666C191.71 102.235 191.879 101.821 192.181 101.513C192.483 101.206 192.895 101.031 193.326 101.026Z" fill="#2D2F30"/>
<path d="M189.458 101.026C189.889 101.031 190.301 101.206 190.603 101.513C190.906 101.821 191.074 102.235 191.072 102.666V113.036C191.072 113.463 190.902 113.874 190.599 114.176C190.296 114.479 189.886 114.649 189.458 114.649C189.03 114.649 188.62 114.479 188.317 114.176C188.015 113.874 187.845 113.463 187.845 113.036V102.666C187.842 102.453 187.882 102.24 187.962 102.042C188.042 101.844 188.16 101.663 188.31 101.511C188.46 101.358 188.639 101.237 188.836 101.154C189.033 101.07 189.244 101.027 189.458 101.026Z" fill="#2D2F30"/>
<path d="M185.587 101.026C186.018 101.031 186.43 101.206 186.732 101.513C187.035 101.821 187.203 102.235 187.201 102.666V113.036C187.202 113.249 187.161 113.46 187.081 113.657C187 113.854 186.882 114.034 186.732 114.186C186.582 114.337 186.404 114.458 186.208 114.54C186.011 114.623 185.8 114.666 185.587 114.667C185.373 114.667 185.162 114.625 184.964 114.543C184.767 114.461 184.588 114.34 184.437 114.189C184.286 114.037 184.167 113.857 184.086 113.659C184.005 113.461 183.964 113.249 183.965 113.036V102.666C183.964 102.452 184.005 102.24 184.086 102.041C184.166 101.843 184.286 101.662 184.436 101.51C184.587 101.358 184.766 101.237 184.964 101.154C185.161 101.07 185.373 101.027 185.587 101.026Z" fill="#2D2F30"/>
<path d="M182.84 120.985V94.9438C185.525 94.9438 188.1 96.0105 189.999 97.9092C191.898 99.8079 192.964 102.383 192.964 105.068V110.86C192.964 112.19 192.702 113.506 192.194 114.735C191.685 115.963 190.939 117.079 189.999 118.019C189.059 118.959 187.943 119.705 186.714 120.214C185.486 120.723 184.169 120.985 182.84 120.985Z" fill="#EBF3FF" stroke="#2D2F30" stroke-linecap="round" stroke-linejoin="round"/>
<path d="M156.8 146.101L183.883 132.731C185.162 132.101 186.238 131.124 186.991 129.913C187.744 128.702 188.143 127.305 188.143 125.879V90.5297C188.143 89.1038 187.744 87.7064 186.991 86.4954C186.238 85.2845 185.162 84.3083 183.883 83.6774L156.8 70.3081V146.101Z" fill="#EBF3FF" stroke="#2D2F30" stroke-linecap="round" stroke-linejoin="round"/>
<path d="M207.44 160.974H227.454" stroke="#2D2F30" stroke-linecap="round" stroke-linejoin="round"/>
<path d="M203.442 164.483H211.446" stroke="#2D2F30" stroke-linecap="round" stroke-linejoin="round"/>
<path d="M215.942 109.166V128.68" stroke="#2D2F30" stroke-linecap="round" stroke-linejoin="round"/>
<path d="M212.443 116.171V104.17" stroke="#2D2F30" stroke-linecap="round" stroke-linejoin="round"/>
<path d="M189.431 140.681V150.688" stroke="#2D2F30" stroke-linecap="round" stroke-linejoin="round"/>
<path d="M192.938 137.182V146.192" stroke="#2D2F30" stroke-linecap="round" stroke-linejoin="round"/>
<path d="M325.116 132.758H345.945V70.2622H358.571" stroke="#2D2F30" stroke-width="4" stroke-linecap="round" stroke-linejoin="round"/>
<path d="M368.996 70.7069L358.119 77.7715L358.119 63.6422L368.996 70.7069Z" fill="#2D2F30"/>
<path d="M368.996 196.695L358.119 203.76L358.119 189.631L368.996 196.695Z" fill="#2D2F30"/>
<path d="M321.064 151.856H345.365V196.414H359.478" stroke="#2D2F30" stroke-width="4" stroke-linecap="round" stroke-linejoin="round"/>
<path d="M246.052 73.5991H240.858V120.65" stroke="#2D2F30" stroke-width="4" stroke-linecap="round" stroke-linejoin="round"/>
<path d="M250.094 73.5991H246.052" stroke="#2D2F30" stroke-width="7" stroke-linecap="round" stroke-linejoin="round"/>
<path d="M296.529 91.2554H272.791V116.689H296.529V91.2554Z" fill="#2D2F30" stroke="#2D2F30" stroke-linecap="round" stroke-linejoin="round"/>
<path d="M318.409 56.0776H295.097V78.9731H318.409V56.0776Z" fill="#2D2F30" stroke="#2D2F30" stroke-linecap="round" stroke-linejoin="round"/>
<path d="M309.091 78.9642H319.415C316.957 85.4825 312.692 91.1647 307.118 95.3442C301.545 99.5237 294.896 102.027 287.95 102.561C281.004 103.095 274.05 101.637 267.904 98.3578C261.757 95.079 256.674 90.1153 253.249 84.0491C250.02 78.371 248.385 71.9261 248.517 65.3955C248.517 64.8245 248.517 64.2444 248.563 63.6734C249.133 54.8945 252.842 46.6135 259.011 40.3417C265.18 34.0698 273.398 30.2253 282.167 29.5097C290.935 28.7942 299.668 31.2552 306.773 36.4438C313.877 41.6324 318.879 49.2026 320.866 57.7728H309.082C307.691 57.7728 306.313 58.0468 305.028 58.5793C303.742 59.1118 302.574 59.8923 301.59 60.8762C300.606 61.8601 299.826 63.0281 299.293 64.3137C298.761 65.5992 298.487 66.977 298.487 68.3685C298.487 69.76 298.761 71.1378 299.293 72.4233C299.826 73.7089 300.606 74.8769 301.59 75.8608C302.574 76.8447 303.742 77.6252 305.028 78.1577C306.313 78.6902 307.691 78.9642 309.082 78.9642H309.091Z" fill="#EBF3FF" stroke="#2D2F30" stroke-linecap="round" stroke-linejoin="round"/>
<path d="M287.892 67.5171H298.496" stroke="#2D2F30" stroke-linecap="round" stroke-linejoin="round"/>
<path d="M279.417 31.061V101.007" stroke="#2D2F30" stroke-linecap="round" stroke-linejoin="round"/>
<path d="M278.564 76.8435C283.715 76.8435 287.891 72.6678 287.891 67.5167C287.891 62.3657 283.715 58.1899 278.564 58.1899C273.413 58.1899 269.237 62.3657 269.237 67.5167C269.237 72.6678 273.413 76.8435 278.564 76.8435Z" fill="#2D2F30" stroke="#2D2F30" stroke-linecap="round" stroke-linejoin="round"/>
<path d="M283.233 67.5161C283.233 66.5924 282.959 65.6896 282.446 64.9218C281.933 64.1539 281.203 63.5556 280.35 63.2026C279.496 62.8496 278.557 62.7577 277.651 62.9385C276.746 63.1194 275.914 63.5648 275.261 64.2186C274.609 64.8723 274.165 65.7049 273.986 66.611C273.807 67.5171 273.901 68.4559 274.255 69.3087C274.61 70.1615 275.21 70.8899 275.979 71.4017C276.747 71.9135 277.651 72.1858 278.574 72.184C279.187 72.184 279.794 72.0632 280.359 71.8285C280.925 71.5938 281.439 71.2498 281.872 70.8162C282.305 70.3827 282.648 69.868 282.881 69.3017C283.115 68.7354 283.235 68.1286 283.233 67.5161Z" fill="#EBF3FF" stroke="#2D2F30" stroke-linecap="round" stroke-linejoin="round"/>
<path d="M309.935 72.1756C312.508 72.1756 314.594 70.0898 314.594 67.5168C314.594 64.9438 312.508 62.8579 309.935 62.8579C307.362 62.8579 305.276 64.9438 305.276 67.5168C305.276 70.0898 307.362 72.1756 309.935 72.1756Z" fill="#0074FF"/>
<path d="M260.336 65.395V84.0486H253.221C249.993 78.3705 248.358 71.9256 248.49 65.395H260.336Z" fill="#2D2F30" stroke="#2D2F30" stroke-linecap="round" stroke-linejoin="round"/>
<path d="M284.665 189.899V244.962" stroke="#2D2F30" stroke-width="3" stroke-linecap="round" stroke-linejoin="round"/>
<path d="M284.665 227.975C292.484 227.975 298.823 221.637 298.823 213.818C298.823 205.998 292.484 199.66 284.665 199.66C276.846 199.66 270.507 205.998 270.507 213.818C270.507 221.637 276.846 227.975 284.665 227.975Z" fill="#EBF3FF" stroke="#2D2F30" stroke-linecap="round" stroke-linejoin="round"/>
<path d="M284.665 248.93C288.42 248.93 291.463 245.887 291.463 242.132C291.463 238.378 288.42 235.334 284.665 235.334C280.911 235.334 277.867 238.378 277.867 242.132C277.867 245.887 280.911 248.93 284.665 248.93Z" fill="#EBF3FF" stroke="#2D2F30" stroke-linecap="round" stroke-linejoin="round"/>
<path d="M335.377 126.251L319.742 172.849C315.382 185.828 302.167 194.693 287.184 194.693H282.135C267.153 194.693 253.937 185.828 249.587 172.849L233.942 126.251C231.568 119.172 237.423 112.03 245.59 112.03H323.73C331.905 112.03 337.752 119.172 335.377 126.251Z" fill="#EBF3FF" stroke="#2D2F30" stroke-linecap="round" stroke-linejoin="round"/>
<path d="M328.842 130.621C326.949 130.105 324.93 130.329 323.195 131.249C321.461 132.168 320.142 133.713 319.506 135.57L306.871 172.478C306.256 174.276 306.327 176.239 307.069 177.989C307.812 179.738 309.175 181.152 310.896 181.959L313.615 183.255C316.334 180.237 318.409 176.696 319.715 172.85L333.456 131.89L328.842 130.621Z" fill="#EBF3FF" stroke="#2D2F30" stroke-linecap="round" stroke-linejoin="round"/>
<path d="M249.433 135.57C248.797 133.713 247.478 132.168 245.744 131.249C244.01 130.329 241.991 130.105 240.097 130.621L235.801 131.79L249.587 172.85C250.868 176.644 252.903 180.14 255.569 183.128L258.044 181.959C259.759 181.146 261.114 179.73 261.851 177.981C262.588 176.232 262.656 174.273 262.041 172.478L249.433 135.57Z" fill="#EBF3FF" stroke="#2D2F30" stroke-linecap="round" stroke-linejoin="round"/>
<path d="M309.173 112.03C308.988 113.751 308.172 115.343 306.884 116.499C305.595 117.655 303.925 118.294 302.194 118.293H265.938C264.207 118.294 262.537 117.655 261.248 116.499C259.96 115.343 259.145 113.751 258.959 112.03H309.173Z" fill="#EBF3FF" stroke="#2D2F30" stroke-linecap="round" stroke-linejoin="round"/>
<path d="M284.702 194.43V118.292" stroke="#2D2F30" stroke-linecap="round" stroke-linejoin="round"/>
<path d="M305.294 127.357H264.035C261.502 127.357 259.448 129.41 259.448 131.943V150.742C259.448 153.275 261.502 155.328 264.035 155.328H305.294C307.827 155.328 309.88 153.275 309.88 150.742V131.943C309.88 129.41 307.827 127.357 305.294 127.357Z" fill="#0074FF" stroke="#2D2F30" stroke-linecap="round" stroke-linejoin="round"/>
<g clip-path="url(#clip0_19793_152539)">
<path d="M270.721 143.929L269.408 145.169L270.721 146.406L271.906 145.287L273.094 146.406L274.403 145.169L273.094 143.929L271.906 145.051L270.721 143.929Z" fill="#EBF3FF"/>
<path d="M292.981 141.999H293.02L293.06 142.014C293.793 142.229 294.556 142.34 295.324 142.344C296 142.358 296.672 142.24 297.298 141.999L297.344 141.98L297.39 141.999C297.655 142.111 297.932 142.195 298.216 142.247C298.587 142.31 298.964 142.339 299.341 142.334C300.016 142.371 300.679 142.159 301.191 141.744C301.419 141.52 301.596 141.254 301.709 140.963C301.822 140.671 301.87 140.36 301.849 140.05C301.845 139.44 301.734 138.834 301.52 138.257C301.313 137.683 301.02 137.14 300.651 136.644L300.605 136.582L299.216 137.452L299.263 137.521C299.508 137.871 299.731 138.236 299.93 138.611C300.125 138.963 300.289 139.292 300.421 139.59C300.479 139.716 300.516 139.849 300.529 139.985C300.533 140.017 300.526 140.049 300.509 140.076C300.492 140.104 300.465 140.125 300.434 140.137C300.054 140.248 299.656 140.292 299.259 140.268C298.973 140.273 298.687 140.258 298.404 140.224C298.272 140.213 298.148 140.16 298.052 140.075C297.975 139.969 297.938 139.842 297.946 139.715L297.917 137.502H296.439L296.42 139.696C296.43 139.827 296.405 139.959 296.347 140.078C296.286 140.159 296.194 140.214 296.09 140.23C295.867 140.268 295.64 140.283 295.413 140.277C295.153 140.277 294.906 140.277 294.666 140.262C294.585 140.266 294.504 140.254 294.429 140.228C294.353 140.202 294.284 140.162 294.225 140.109C294.184 140.064 294.153 140.011 294.134 139.954C294.116 139.896 294.109 139.836 294.116 139.777L294.531 137.418L293.073 137.17L292.642 139.391C292.61 139.575 292.552 139.753 292.471 139.923C292.425 140.014 292.347 140.088 292.25 140.131C292.108 140.171 291.961 140.189 291.813 140.187H291.484C291.318 140.189 291.152 140.172 290.99 140.134C290.879 140.104 290.782 140.038 290.717 139.948C290.625 139.799 290.565 139.634 290.539 139.463C290.432 138.967 290.256 138.486 290.016 138.033C289.781 137.584 289.444 137.189 289.029 136.877C288.606 136.564 288.083 136.397 287.545 136.405C287.138 136.394 286.738 136.502 286.4 136.716C286.071 136.946 285.798 137.241 285.6 137.58C285.346 138.011 285.134 138.464 284.965 138.932C284.868 139.217 284.721 139.486 284.531 139.727C284.386 139.896 284.19 140.019 283.968 140.078C283.86 140.105 283.75 140.125 283.639 140.137H273.238C272.455 140.137 272.353 139.727 272.353 139.724L272.337 139.649C272.191 138.843 271.992 138.046 271.741 137.263V137.201L270.257 137.285L270.737 139.618C270.767 139.749 270.787 139.882 270.797 140.016L270.685 140.05H270.797L270.813 140.143H270.718C270.651 140.16 270.582 140.168 270.514 140.165H268.671V140.072C268.589 139.562 268.435 139.064 268.214 138.593C267.992 138.119 267.653 137.703 267.226 137.378C266.798 137.072 266.27 136.915 265.733 136.933C265.269 136.936 264.819 137.077 264.446 137.337C264.027 137.623 263.688 138 263.459 138.437C263.215 138.896 263.089 139.403 263.09 139.917C263.081 140.509 263.284 141.087 263.666 141.557C264.064 142.045 264.745 142.285 265.709 142.285H267.203L267.075 142.455C266.912 142.664 266.711 142.845 266.483 142.99C265.686 143.524 264.459 144.009 262.834 144.441L262.748 144.463L263.449 146.405L263.528 146.386C265.413 145.883 266.795 145.143 267.634 144.155C268.083 143.633 268.403 143.022 268.569 142.368L268.592 142.285H269.599C270.217 142.279 270.831 142.174 271.412 141.974L271.448 141.958L271.576 141.899L271.626 141.868L271.682 141.893L271.843 141.958C272.608 142.177 273.407 142.273 274.206 142.241H283.419C283.708 142.241 284.699 142.166 285.258 141.486L285.285 141.452C285.331 141.392 285.374 141.329 285.413 141.265L285.479 141.15L285.584 141.231C285.851 141.43 286.137 141.605 286.44 141.753C286.835 141.955 287.252 142.117 287.683 142.235C288.522 142.462 289.23 142.48 289.658 142.216C289.818 142.118 289.955 141.989 290.059 141.837L290.125 141.738L290.224 141.809L290.316 141.868L290.365 141.896C290.792 142.133 291.278 142.258 291.773 142.257C292.19 142.249 292.601 142.161 292.981 141.999ZM267.072 140.224C266.716 140.243 266.414 140.252 266.154 140.252C265.687 140.277 265.219 140.218 264.775 140.078C264.665 140.05 264.569 139.988 264.5 139.903C264.431 139.817 264.394 139.713 264.393 139.606C264.396 139.469 264.436 139.335 264.508 139.217C264.591 139.078 264.716 138.964 264.867 138.891C265.053 138.801 265.26 138.757 265.469 138.764C265.674 138.762 265.878 138.8 266.067 138.876C266.256 138.951 266.426 139.062 266.568 139.202C266.84 139.452 267.047 139.758 267.17 140.097L267.223 140.234L267.072 140.224ZM288.94 140.386C288.646 140.372 288.354 140.32 288.075 140.23C287.701 140.123 287.336 139.987 286.986 139.823C286.717 139.701 286.461 139.554 286.222 139.385L286.157 139.332L286.189 139.258C286.283 139.023 286.43 138.811 286.62 138.636C286.836 138.458 287.117 138.367 287.404 138.382C287.679 138.381 287.949 138.449 288.187 138.58C288.44 138.713 288.664 138.892 288.845 139.106C289.019 139.307 289.161 139.531 289.266 139.771C289.313 139.887 289.338 140.01 289.338 140.134C289.338 140.302 289.217 140.386 288.94 140.386Z" fill="#EBF3FF"/>
<path d="M305.353 139.57C305.103 138.774 304.8 137.995 304.445 137.236L304.416 137.174H304.396L302.563 138.243C303.326 139.458 303.672 139.98 303.952 140.664L304.064 140.974V141.002C304.468 142.22 303.837 142.907 303.425 143.206C302.415 143.758 301.329 144.177 300.197 144.449L300.108 144.473L300.898 146.412L300.967 146.397C301.493 146.274 302.008 146.112 302.507 145.912C302.987 145.72 303.446 145.484 303.879 145.21C304.457 144.851 304.938 144.37 305.284 143.805C305.606 143.232 305.767 142.59 305.752 141.941C305.734 141.137 305.6 140.339 305.353 139.57Z" fill="#EBF3FF"/>
</g>
<path d="M284.665 169.504C287.668 169.504 290.103 167.069 290.103 164.066C290.103 161.062 287.668 158.627 284.665 158.627C281.661 158.627 279.227 161.062 279.227 164.066C279.227 167.069 281.661 169.504 284.665 169.504Z" fill="#2D2F30" stroke="#2D2F30" stroke-linecap="round" stroke-linejoin="round"/>
<path d="M284.664 166.332C285.916 166.332 286.93 165.318 286.93 164.066C286.93 162.815 285.916 161.8 284.664 161.8C283.413 161.8 282.398 162.815 282.398 164.066C282.398 165.318 283.413 166.332 284.664 166.332Z" fill="#0074FF"/>
<path d="M505.217 14.7554H379.836C373.328 14.7554 368.053 20.0309 368.053 26.5385V113.027C368.053 119.534 373.328 124.81 379.836 124.81H505.217C511.725 124.81 517 119.534 517 113.027V26.5385C517 20.0309 511.725 14.7554 505.217 14.7554Z" fill="#2D2F30" stroke="#2D2F30" stroke-linecap="round" stroke-linejoin="round"/>
<path d="M502.335 21.4722H382.718C378.083 21.4722 374.325 25.2299 374.325 29.8654V109.691C374.325 114.327 378.083 118.085 382.718 118.085H502.335C506.971 118.085 510.728 114.327 510.728 109.691V29.8654C510.728 25.2299 506.971 21.4722 502.335 21.4722Z" fill="#EBF3FF" stroke="#2D2F30" stroke-linecap="round" stroke-linejoin="round"/>
<path d="M500.124 37.6147H391.973V41.5576H500.124V37.6147Z" fill="#E0E0E0"/>
<path d="M500.124 46.897H391.973V50.8398H500.124V46.897Z" fill="#E0E0E0"/>
<path d="M500.124 56.1782H391.973V60.121H500.124V56.1782Z" fill="#E0E0E0"/>
<path d="M500.124 65.4683H391.973V69.4111H500.124V65.4683Z" fill="#E0E0E0"/>
<path d="M500.124 74.7495H391.973V78.6923H500.124V74.7495Z" fill="#E0E0E0"/>
<path d="M500.124 84.0308H391.973V87.9736H500.124V84.0308Z" fill="#E0E0E0"/>
<path d="M500.124 93.312H391.973V97.2548H500.124V93.312Z" fill="#E0E0E0"/>
<path d="M403.203 60.7554H392.671V104.262H403.203V60.7554Z" fill="#2D2F30"/>
<path d="M419.309 72.9556H408.776V104.262H419.309V72.9556Z" fill="#0074FF"/>
<path d="M435.416 65.3687H424.884V104.262H435.416V65.3687Z" fill="#2D2F30"/>
<path d="M451.532 81.0952H441V104.272H451.532V81.0952Z" fill="#0074FF"/>
<path d="M467.639 66.1841H457.106V104.271H467.639V66.1841Z" fill="#2D2F30"/>
<path d="M483.754 56.1499H473.222V104.261H483.754V56.1499Z" fill="#0074FF"/>
<path d="M499.86 49.9146H489.328V104.262H499.86V49.9146Z" fill="#2D2F30"/>
<path d="M383.996 38.3481H387.595" stroke="#2D2F30" stroke-linecap="round" stroke-linejoin="round"/>
<path d="M383.996 43.5161H387.595" stroke="#2D2F30" stroke-linecap="round" stroke-linejoin="round"/>
<path d="M383.996 48.6919H387.595" stroke="#2D2F30" stroke-linecap="round" stroke-linejoin="round"/>
<path d="M383.996 53.8677H387.595" stroke="#2D2F30" stroke-linecap="round" stroke-linejoin="round"/>
<path d="M383.996 59.0415H387.595" stroke="#2D2F30" stroke-linecap="round" stroke-linejoin="round"/>
<path d="M383.996 64.2075H387.595" stroke="#2D2F30" stroke-linecap="round" stroke-linejoin="round"/>
<path d="M383.996 69.3833H387.595" stroke="#2D2F30" stroke-linecap="round" stroke-linejoin="round"/>
<path d="M383.996 74.5591H387.595" stroke="#2D2F30" stroke-linecap="round" stroke-linejoin="round"/>
<path d="M383.996 79.7349H387.595" stroke="#2D2F30" stroke-linecap="round" stroke-linejoin="round"/>
<path d="M383.996 84.9019H387.595" stroke="#2D2F30" stroke-linecap="round" stroke-linejoin="round"/>
<path d="M383.996 90.0767H387.595" stroke="#2D2F30" stroke-linecap="round" stroke-linejoin="round"/>
<path d="M383.996 95.2515H387.595" stroke="#2D2F30" stroke-linecap="round" stroke-linejoin="round"/>
<path d="M383.996 100.427H387.595" stroke="#2D2F30" stroke-linecap="round" stroke-linejoin="round"/>
<path d="M383.996 105.594H387.595" stroke="#2D2F30" stroke-linecap="round" stroke-linejoin="round"/>
<path d="M500.16 107.081V110.679" stroke="#2D2F30" stroke-linecap="round" stroke-linejoin="round"/>
<path d="M491.567 107.081V110.679" stroke="#2D2F30" stroke-linecap="round" stroke-linejoin="round"/>
<path d="M482.975 107.081V110.679" stroke="#2D2F30" stroke-linecap="round" stroke-linejoin="round"/>
<path d="M474.391 107.081V110.679" stroke="#2D2F30" stroke-linecap="round" stroke-linejoin="round"/>
<path d="M465.798 107.081V110.679" stroke="#2D2F30" stroke-linecap="round" stroke-linejoin="round"/>
<path d="M457.206 107.081V110.679" stroke="#2D2F30" stroke-linecap="round" stroke-linejoin="round"/>
<path d="M448.622 107.081V110.679" stroke="#2D2F30" stroke-linecap="round" stroke-linejoin="round"/>
<path d="M440.029 107.081V110.679" stroke="#2D2F30" stroke-linecap="round" stroke-linejoin="round"/>
<path d="M431.437 107.081V110.679" stroke="#2D2F30" stroke-linecap="round" stroke-linejoin="round"/>
<path d="M422.854 107.081V110.679" stroke="#2D2F30" stroke-linecap="round" stroke-linejoin="round"/>
<path d="M414.261 107.081V110.679" stroke="#2D2F30" stroke-linecap="round" stroke-linejoin="round"/>
<path d="M405.668 107.081V110.679" stroke="#2D2F30" stroke-linecap="round" stroke-linejoin="round"/>
<path d="M397.075 107.081V110.679" stroke="#2D2F30" stroke-linecap="round" stroke-linejoin="round"/>
<path d="M388.492 107.081V110.679" stroke="#2D2F30" stroke-linecap="round" stroke-linejoin="round"/>
<path d="M454.124 28.6323H430.032V32.5842H454.124V28.6323Z" fill="#2D2F30"/>
<path d="M505.217 138.161H379.836C373.328 138.161 368.053 143.436 368.053 149.944V236.432C368.053 242.939 373.328 248.215 379.836 248.215H505.217C511.725 248.215 517 242.939 517 236.432V149.944C517 143.436 511.725 138.161 505.217 138.161Z" fill="#2D2F30" stroke="#2D2F30" stroke-linecap="round" stroke-linejoin="round"/>
<path d="M502.335 144.887H382.718C378.083 144.887 374.325 148.645 374.325 153.28V233.107C374.325 237.742 378.083 241.5 382.718 241.5H502.335C506.971 241.5 510.728 237.742 510.728 233.107V153.28C510.728 148.645 506.971 144.887 502.335 144.887Z" fill="#EBF3FF" stroke="#2D2F30" stroke-linecap="round" stroke-linejoin="round"/>
<path d="M419.626 232.154C410.508 232.153 401.716 228.76 394.961 222.635C388.207 216.509 383.973 208.09 383.084 199.015C382.195 189.94 384.715 180.859 390.153 173.539C395.59 166.219 403.557 161.185 412.502 159.416L414.243 168.316C410.525 169.045 406.997 170.531 403.877 172.68C400.758 174.829 398.113 177.596 396.107 180.809C394.101 184.023 392.776 187.614 392.216 191.361C391.655 195.107 391.87 198.929 392.848 202.589C393.825 206.249 395.544 209.669 397.898 212.637C400.252 215.605 403.191 218.058 406.532 219.844C409.873 221.629 413.546 222.709 417.322 223.016C421.097 223.324 424.896 222.852 428.482 221.63L431.392 230.214C427.602 231.499 423.628 232.155 419.626 232.154Z" fill="#2D2F30"/>
<path d="M445.632 186.036C443.376 179.837 438.983 174.647 433.243 171.399C427.502 168.15 420.791 167.057 414.316 168.316L412.503 159.415C421.112 157.739 430.036 159.193 437.669 163.513C445.301 167.834 451.14 174.738 454.134 182.981L445.632 186.036Z" fill="#0074FF"/>
<path d="M431.419 230.233L428.51 221.649C431.991 220.464 435.201 218.598 437.953 216.159C440.704 213.72 442.942 210.757 444.536 207.443C446.13 204.13 447.048 200.532 447.236 196.859C447.424 193.187 446.879 189.514 445.632 186.055L454.161 182.973C455.815 187.567 456.538 192.443 456.287 197.319C456.036 202.195 454.817 206.972 452.7 211.371C450.583 215.771 447.611 219.704 443.957 222.943C440.303 226.181 436.041 228.659 431.419 230.233Z" fill="#A8A8A8"/>
<path d="M478.842 167.147H468.654V177.335H478.842V167.147Z" fill="#2D2F30"/>
<path d="M478.842 192.082H468.654V202.269H478.842V192.082Z" fill="#0074FF"/>
<path d="M478.842 217.027H468.654V227.215H478.842V217.027Z" fill="#A8A8A8"/>
<path d="M484.198 172.513H501.365" stroke="#2D2F30" stroke-linecap="round" stroke-linejoin="round"/>
<path d="M484.198 196.642H501.365" stroke="#2D2F30" stroke-linecap="round" stroke-linejoin="round"/>
<path d="M410.191 196.106H427.359" stroke="#2D2F30" stroke-linecap="round" stroke-linejoin="round"/>
<path d="M484.198 221.849H501.365" stroke="#2D2F30" stroke-linecap="round" stroke-linejoin="round"/>
<defs>
<clipPath id="clip0_19793_152539">
<rect width="43" height="10" fill="white" transform="translate(262.748 136.406)"/>
</clipPath>
</defs>
</svg>
