<svg width="36" height="36" viewBox="0 0 36 36" fill="none" xmlns="http://www.w3.org/2000/svg">
<g clip-path="url(#clip0)">
<path d="M35.4863 0.646123C35.4584 0.262368 35.1247 -0.0260349 34.741 0.00183012C34.5468 0.0159368 34.3674 0.110678 34.2463 0.262978C34.2463 0.262978 32.1146 2.88229 29.0077 2.70814C26.5695 2.57578 25.5245 5.64093 25.1484 7.27104C25.0588 7.28907 24.9735 7.32459 24.8976 7.37553L21.0174 10.0715C20.7006 10.2899 20.6208 10.7236 20.8392 11.0404C20.8631 11.0751 20.8901 11.1075 20.9198 11.1373L21.0661 11.2836C17.7154 14.1607 1.30283 28.6435 0.466878 35.2127C0.416808 35.5942 0.685532 35.944 1.06702 35.994C1.09898 35.9982 1.13129 36.0002 1.1635 35.9999H1.2471C7.81629 35.164 22.2992 18.7445 25.1902 15.4076L25.3364 15.5539C25.4679 15.6843 25.6459 15.757 25.831 15.756H25.8937C26.108 15.7462 26.306 15.6383 26.4301 15.4634L29.1261 11.5832C29.2214 11.4447 29.2635 11.2765 29.2445 11.1095C30.6663 10.972 32.0056 10.3782 33.062 9.41665C34.9429 7.63329 35.7649 4.67959 35.4863 0.646123ZM2.09698 34.3628C4.31226 27.8564 19.1574 14.7667 22.0484 12.2659L24.2009 14.4184C21.6931 17.3025 8.60348 32.1406 2.09698 34.3628ZM25.7335 13.9726L22.4872 10.7263L25.2041 8.84542L27.6144 11.2836L25.7335 13.9726ZM32.0937 8.37171C30.9908 9.34934 29.5455 9.8503 28.0742 9.76496L26.3883 8.07913C26.6531 6.72071 27.4681 3.9969 28.9171 4.09442C30.8213 4.15433 32.6802 3.50656 34.1348 2.27623C34.1348 5.06273 33.4382 7.11778 32.0937 8.37171Z" fill="white"/>
</g>
<defs>
<clipPath id="clip0">
<rect width="36" height="36" fill="white"/>
</clipPath>
</defs>
</svg>
