<svg width="36" height="36" viewBox="0 0 36 36" fill="none" xmlns="http://www.w3.org/2000/svg">
<path d="M35.4727 33.9573H34.1025V11.6849C34.1025 10.9841 33.5324 10.4139 32.8314 10.4139H28.3312C28.04 10.4139 27.8039 10.65 27.8039 10.9413C27.8039 11.2325 28.04 11.4686 28.3312 11.4686H32.8314C32.9508 11.4686 33.0479 11.5656 33.0479 11.6849V33.9574H26.396V31.3252H30.4189C30.9565 31.3252 31.394 30.8878 31.394 30.3501V29.1028C31.394 28.5652 30.9566 28.1277 30.4189 28.1277H26.396V26.5805H30.4189C30.9565 26.5805 31.394 26.1431 31.394 25.6054V24.3581C31.394 23.8205 30.9566 23.383 30.4189 23.383H26.396V21.8358H30.4189C30.9565 21.8358 31.394 21.3984 31.394 20.8607V19.6135C31.394 19.0758 30.9566 18.6384 30.4189 18.6384H26.396V17.0912H30.4189C30.9565 17.0912 31.394 16.6538 31.394 16.1161V14.8688C31.394 14.3312 30.9566 13.8937 30.4189 13.8937H26.396V6.83592C26.396 6.32116 26.0889 5.86068 25.6138 5.66289L14.6226 1.0821C14.2448 0.924604 13.8161 0.965947 13.4757 1.19292C13.1351 1.41988 12.9319 1.79985 12.9319 2.20935V4.68042H10.1329V2.51957C10.1329 2.22834 9.89684 1.99223 9.6056 1.99223C9.31437 1.99223 9.07826 2.22834 9.07826 2.51957V4.68049H5.9142C5.21332 4.68049 4.64309 5.25065 4.64309 5.9516V7.60521H2.86523C2.16429 7.60521 1.59398 8.17516 1.59398 8.87575V30.5355H1.27125C0.570305 30.5355 0 31.1058 0 31.8068V33.7411C0 34.442 0.570305 35.0123 1.27125 35.0123L35.4727 35.0121C35.7639 35.0121 36 34.776 36 34.4848C36 34.1935 35.7639 33.9573 35.4727 33.9573ZM30.3393 29.1824V30.2706H26.396V29.1824H30.3393ZM30.3393 24.4377V25.5258H26.396V24.4377H30.3393ZM30.3393 19.6931V20.7812H26.396V19.6931H30.3393ZM30.3393 14.9484V16.0366H26.396V14.9484H30.3393ZM13.9866 2.20935C13.9866 2.13152 14.033 2.08898 14.0606 2.07049C14.0883 2.05213 14.1453 2.02563 14.2168 2.05558L20.4303 4.64519V28.4034C20.4303 28.6946 20.6664 28.9307 20.9576 28.9307C21.2489 28.9307 21.485 28.6946 21.485 28.4034V5.08471L25.2083 6.63651C25.2892 6.67019 25.3414 6.74845 25.3414 6.83592L25.3412 33.9576H21.485V30.8762C21.485 30.5849 21.2489 30.3488 20.9576 30.3488C20.6664 30.3488 20.4303 30.5849 20.4303 30.8762V33.9576H17.8397V16.802C17.8397 16.0162 17.2004 15.3768 16.4145 15.3768H13.9866V2.20935ZM16.4145 16.4315C16.6188 16.4315 16.785 16.5977 16.785 16.802V33.9574H10.1329V16.802C10.1329 16.5978 10.2991 16.4315 10.5034 16.4315H16.4145ZM9.07826 16.802V20.5215H2.64867V16.4315H9.12881C9.09682 16.5499 9.07826 16.6737 9.07826 16.802ZM2.64867 21.5762H9.07826V25.667H2.64867V21.5762ZM5.69784 5.95153C5.69784 5.83221 5.79495 5.7351 5.91427 5.7351H12.9317V7.60492H5.69784V5.95153ZM2.86523 8.65982H12.9319V10.5132H6.40315C6.11191 10.5132 5.8758 10.7493 5.8758 11.0405C5.8758 11.3318 6.11191 11.5679 6.40315 11.5679H12.9319V15.3768H2.64867V11.5679H3.9472C4.23844 11.5679 4.47455 11.3318 4.47455 11.0405C4.47455 10.7493 4.23844 10.5132 3.9472 10.5132H2.64867V8.87568C2.64867 8.75671 2.74584 8.65982 2.86523 8.65982ZM2.64867 26.7218H9.07826V30.5355H2.64867V26.7218ZM1.27125 33.9576C1.15186 33.9576 1.05469 33.8605 1.05469 33.741V31.8067C1.05469 31.6873 1.15186 31.5901 1.27125 31.5901H9.07826V33.9576H1.27125Z" fill="white"/>
<path d="M12.2374 19.904C12.5286 19.904 12.7647 19.6679 12.7647 19.3767V18.2491C12.7647 17.9578 12.5286 17.7217 12.2374 17.7217C11.9461 17.7217 11.71 17.9578 11.71 18.2491V19.3767C11.71 19.6679 11.9461 19.904 12.2374 19.904Z" fill="white"/>
<path d="M14.6607 19.904C14.9519 19.904 15.188 19.6679 15.188 19.3767V18.2491C15.188 17.9578 14.9519 17.7217 14.6607 17.7217C14.3695 17.7217 14.1334 17.9578 14.1334 18.2491V19.3767C14.1334 19.6679 14.3695 19.904 14.6607 19.904Z" fill="white"/>
<path d="M12.2374 23.8438C12.5286 23.8438 12.7647 23.6077 12.7647 23.3165V22.1889C12.7647 21.8976 12.5286 21.6615 12.2374 21.6615C11.9461 21.6615 11.71 21.8976 11.71 22.1889V23.3165C11.71 23.6077 11.9461 23.8438 12.2374 23.8438Z" fill="white"/>
<path d="M14.6607 23.8438C14.9519 23.8438 15.188 23.6077 15.188 23.3165V22.1889C15.188 21.8976 14.9519 21.6615 14.6607 21.6615C14.3695 21.6615 14.1334 21.8976 14.1334 22.1889V23.3165C14.1334 23.6077 14.3695 23.8438 14.6607 23.8438Z" fill="white"/>
<path d="M12.2374 27.7836C12.5286 27.7836 12.7647 27.5475 12.7647 27.2562V26.1286C12.7647 25.8374 12.5286 25.6013 12.2374 25.6013C11.9461 25.6013 11.71 25.8374 11.71 26.1286V27.2562C11.71 27.5475 11.9461 27.7836 12.2374 27.7836Z" fill="white"/>
<path d="M14.6607 27.7836C14.9519 27.7836 15.188 27.5475 15.188 27.2562V26.1286C15.188 25.8374 14.9519 25.6013 14.6607 25.6013C14.3695 25.6013 14.1334 25.8374 14.1334 26.1286V27.2562C14.1334 27.5475 14.3695 27.7836 14.6607 27.7836Z" fill="white"/>
<path d="M12.2374 31.7234C12.5286 31.7234 12.7647 31.4873 12.7647 31.1961V30.0685C12.7647 29.7773 12.5286 29.5412 12.2374 29.5412C11.9461 29.5412 11.71 29.7773 11.71 30.0685V31.1961C11.71 31.4873 11.9461 31.7234 12.2374 31.7234Z" fill="white"/>
<path d="M14.6607 31.7234C14.9519 31.7234 15.188 31.4873 15.188 31.1961V30.0685C15.188 29.7773 14.9519 29.5412 14.6607 29.5412C14.3695 29.5412 14.1334 29.7773 14.1334 30.0685V31.1961C14.1334 31.4873 14.3695 31.7234 14.6607 31.7234Z" fill="white"/>
</svg>
