<svg width="36" height="36" viewBox="0 0 36 36" fill="none" xmlns="http://www.w3.org/2000/svg">
<path d="M17.8196 3.24247C17.7049 3.13131 17.5472 3.07191 17.389 3.07896C16.3568 3.11955 15.3276 3.26423 14.3307 3.51008L14.6124 4.65226C15.3352 4.47405 16.0763 4.35348 16.8238 4.29173V15.4148H4.19392C4.3486 14.6855 4.56151 13.968 4.82912 13.2733L3.73222 12.8499C3.35169 13.8356 3.07349 14.8649 2.90528 15.9088C2.87764 16.0794 2.92646 16.2523 3.0382 16.3841C3.14995 16.5158 3.31346 16.5911 3.48579 16.5911H17.412C17.7372 16.5911 18.0001 16.3276 18.0001 16.0029V3.66652C18.0001 3.50655 17.9354 3.35363 17.8196 3.24247Z" fill="white"/>
<path d="M30.2329 9.17982L29.2918 9.88619C31.1392 12.3441 32.1155 15.2725 32.1155 18.3555C32.1155 18.5432 32.1108 18.7378 32.1014 18.9437H20.3526V4.43935C21.2871 4.59638 22.2035 4.84693 23.0851 5.18747L23.5092 4.09057C22.3311 3.63535 21.0948 3.32774 19.835 3.17718C19.665 3.15718 19.5003 3.21011 19.3745 3.32127C19.248 3.43243 19.1763 3.59241 19.1763 3.76121V19.5318C19.1763 19.8565 19.4392 20.12 19.7644 20.12H32.6525C32.9589 20.12 33.2142 19.8841 33.2389 19.5789C33.2748 19.1319 33.2918 18.7319 33.2918 18.3555C33.2918 15.0154 32.2337 11.843 30.2329 9.17982Z" fill="white"/>
<path d="M17.4115 17.7674H3.29597C2.97073 17.7674 2.70782 18.0309 2.70782 18.3555C2.70782 19.1772 2.77311 20 2.9025 20.8022L4.0641 20.6152C3.97529 20.0659 3.91941 19.506 3.89647 18.9437H16.8234V32.4193C15.6842 32.3252 14.5649 32.0947 13.4868 31.7312L13.111 32.8463C14.4879 33.3104 15.9265 33.5751 17.388 33.6321C17.3957 33.6321 17.4033 33.6327 17.411 33.6327C17.5627 33.6327 17.7092 33.5739 17.8185 33.4686C17.935 33.3574 17.9997 33.2045 17.9997 33.0445V18.3555C17.9997 18.0309 17.7368 17.7674 17.4115 17.7674Z" fill="white"/>
<path d="M32.7366 21.5221C32.626 21.3792 32.4555 21.2963 32.2749 21.2963H19.7644C19.4392 21.2963 19.1763 21.5598 19.1763 21.8844V32.9499C19.1763 33.1181 19.248 33.278 19.3739 33.3898C19.4827 33.4862 19.6215 33.538 19.7644 33.538C19.7874 33.538 19.8109 33.5368 19.8344 33.5339C20.4496 33.4604 21.0672 33.348 21.6694 33.1998L21.3877 32.0576C21.0466 32.1417 20.7002 32.2135 20.352 32.2717V22.4726H31.5021C31.4615 22.6067 31.4186 22.7402 31.3739 22.8731L32.4884 23.2489C32.6249 22.8443 32.7454 22.4326 32.8448 22.0256C32.8884 21.8503 32.8484 21.6645 32.7366 21.5221Z" fill="white"/>
<path d="M13.7633 5.77268C13.7627 5.77209 13.7622 5.77209 13.7616 5.77209C12.9388 5.15454 11.9642 4.82811 10.9426 4.82811C10.7655 4.82811 10.5856 4.84164 10.4015 4.86458C9.82803 3.69299 8.83759 2.76312 7.6213 2.27202C8.10593 1.75798 8.71467 1.35274 9.38457 1.10101L8.9711 0C8.12593 0.317012 7.35781 0.829878 6.74849 1.48213C6.60733 1.63329 6.48205 1.7868 6.3656 1.94148C6.13034 1.90972 5.89273 1.88737 5.64923 1.88737C2.73025 1.88737 0.355896 4.26231 0.355896 7.18071C0.355896 10.0991 2.73025 12.474 5.64923 12.474C6.15681 12.474 6.64674 12.3982 7.11196 12.2641C7.78422 13.2051 8.78524 13.8727 9.92155 14.1244C9.92214 14.1244 9.92214 14.125 9.92272 14.125C10.2639 14.2003 10.6073 14.2385 10.9426 14.2385C12.0624 14.2385 13.1499 13.835 14.0033 13.1034C14.0039 13.1028 14.0039 13.1028 14.0045 13.1022C15.0484 12.2059 15.6478 10.9049 15.6478 9.5333C15.6478 8.04293 14.9608 6.67255 13.7633 5.77268ZM5.64923 11.2977C3.37957 11.2977 1.53219 9.45096 1.53219 7.18071C1.53219 4.91045 3.37957 3.06367 5.64923 3.06367C5.66511 3.06367 5.67982 3.06602 5.6957 3.06602C5.46573 3.57712 5.33752 4.05646 5.26694 4.44464L6.42383 4.65579C6.49382 4.27231 6.63438 3.77827 6.91023 3.26305C8.10593 3.64887 9.0605 4.56756 9.50043 5.73798C9.54219 5.84973 9.57924 5.96206 9.611 6.07499C9.61512 6.08969 9.61865 6.1044 9.62218 6.1191C9.64982 6.22144 9.67394 6.32378 9.69393 6.42729C9.70217 6.47258 9.70805 6.51845 9.71511 6.56374C9.72687 6.6402 9.73922 6.71666 9.74687 6.79371C9.75863 6.92075 9.76628 7.05014 9.76628 7.18071C9.76628 7.4836 9.72922 7.79768 9.6557 8.1141C9.23047 9.9356 7.59777 11.2977 5.64923 11.2977ZM9.61395 12.8011C9.07991 12.5834 8.6088 12.2353 8.23768 11.793C9.10637 11.3036 9.82509 10.579 10.3021 9.70269L9.61395 12.8011ZM14.4227 8.94515H12.1189L13.4993 7.10543C13.9874 7.61535 14.3074 8.25173 14.4227 8.94515ZM12.5582 6.39847L12.0442 7.08366L11.0161 8.45405L10.8491 8.15292V8.15233C10.8785 7.99471 10.9026 7.83532 10.9173 7.67299C10.9338 7.50831 10.9426 7.34363 10.9426 7.18071C10.9426 6.98603 10.9302 6.79429 10.9096 6.60491C10.9067 6.57727 10.9008 6.55021 10.8973 6.52257C10.8761 6.35259 10.8473 6.18497 10.8102 6.02029C10.8097 6.01617 10.8091 6.01206 10.8079 6.00735C11.4384 5.97971 12.0212 6.11969 12.5582 6.39847ZM10.762 13.0575L11.2614 10.8096L12.7588 12.5564C12.1612 12.9157 11.4701 13.094 10.762 13.0575ZM13.6516 11.79L12.2218 10.1215H14.4221C14.318 10.7349 14.0521 11.3107 13.6516 11.79Z" fill="white"/>
<path d="M23.2933 11.2978H22.117V12.4741H23.2933V11.2978Z" fill="white"/>
<path d="M25.646 12.474H24.4697V13.6503H25.646V12.474Z" fill="white"/>
<path d="M27.9989 16.5911H26.8226V17.7674H27.9989V16.5911Z" fill="white"/>
<path d="M23.2933 16.0029H22.117V17.1792H23.2933V16.0029Z" fill="white"/>
<path d="M22.7052 13.6503H21.5289V14.8266H22.7052V13.6503Z" fill="white"/>
<path d="M30.9396 14.2385H29.7633V15.4148H30.9396V14.2385Z" fill="white"/>
<path d="M27.9989 11.8859H26.8226V13.0622H27.9989V11.8859Z" fill="white"/>
<path d="M25.646 14.8267H24.4697V16.0029H25.646V14.8267Z" fill="white"/>
<path d="M27.9989 14.2385H26.8226V15.4148H27.9989V14.2385Z" fill="white"/>
<path d="M35.6444 0.71107C34.1117 0.71107 32.6519 1.10983 31.3379 1.79562C31.2233 1.53448 31.0674 1.28451 30.8551 1.07219C30.0558 0.273487 28.5825 0.686368 28.4166 0.735772C28.2278 0.792822 28.0796 0.940448 28.0226 1.12924C27.9731 1.29451 27.5597 2.76783 28.3596 3.56771C28.4519 3.65946 28.5519 3.73827 28.6536 3.81179C28.2684 4.21644 27.919 4.65814 27.5967 5.12219C27.5156 5.00456 27.4297 4.88928 27.3262 4.78576C26.551 4.01117 25.1036 4.27643 24.9407 4.30995C24.723 4.35406 24.5489 4.51698 24.4895 4.73107C24.4101 5.02102 24.0543 6.50492 24.8307 7.28128C25.2206 7.67005 25.7105 7.88825 26.1958 7.93118C25.8452 8.99514 25.6458 10.1262 25.6458 11.2977H26.8221C26.8221 10.4526 26.948 9.62799 27.1656 8.83576C27.4903 9.01926 27.8755 9.12924 28.2925 9.12924C29.4171 9.12924 30.1916 7.80356 30.2763 7.65181C30.3757 7.4736 30.3757 7.25599 30.2763 7.07719C30.2022 6.94486 29.6011 5.9156 28.7001 5.65858C29.0612 5.16277 29.4647 4.70401 29.9058 4.28819C30.2058 4.94692 30.9492 5.41626 31.8214 5.41626C32.9459 5.41626 33.7205 4.09057 33.8052 3.93883C33.9046 3.76062 33.9046 3.54301 33.8052 3.36421C33.7546 3.27363 33.4529 2.7643 32.9806 2.36847C33.8293 2.06028 34.7251 1.88737 35.6444 1.88737V0.71107ZM26.821 6.412C26.7739 6.50434 26.7345 6.60079 26.6898 6.6949C26.6563 6.70372 26.6222 6.71136 26.5904 6.72607C26.3681 6.82664 25.9787 6.76489 25.6629 6.44905C25.5047 6.29084 25.4953 5.82679 25.5512 5.4192C25.9129 5.40273 26.3234 5.44626 26.4945 5.61741C26.7163 5.83914 26.841 6.13204 26.8198 6.382C26.8192 6.392 26.8216 6.402 26.821 6.412ZM29.0583 7.3648C28.8295 7.66416 28.5189 7.95295 28.2925 7.95295C27.9902 7.95295 27.7138 7.83884 27.5532 7.68357C27.675 7.39126 27.8114 7.1066 27.9596 6.8284C28.0655 6.79665 28.1766 6.77665 28.2925 6.77665C28.5195 6.77665 28.8295 7.06543 29.0583 7.3648ZM29.5606 2.97721C29.4353 2.92545 29.3088 2.8537 29.1918 2.73607C29.033 2.57727 29.0236 2.1585 29.0795 1.79268C29.4247 1.74151 29.857 1.73739 30.0234 1.90384C30.1705 2.05087 30.2693 2.22908 30.3169 2.40553C30.0564 2.58374 29.8046 2.77488 29.5606 2.97721ZM31.8214 4.23996C31.3515 4.23996 30.9392 3.9653 30.938 3.68534C30.9398 3.67475 30.9474 3.62652 30.9486 3.61594C30.9556 3.55712 30.9515 3.4989 30.9409 3.44184C31.0692 3.35186 31.1997 3.26599 31.3315 3.18247C31.4809 3.11013 31.6455 3.06366 31.8214 3.06366C32.0484 3.06366 32.3584 3.35245 32.5872 3.65181C32.3584 3.95118 32.0478 4.23996 31.8214 4.23996Z" fill="white"/>
<path d="M13.7586 23.8094C13.841 23.5701 13.8833 23.3178 13.8833 23.0607C13.8833 21.7633 12.8282 20.7081 11.5307 20.7081C10.8138 20.7081 10.1462 21.0416 9.70746 21.5833C9.21459 21.3145 8.62527 21.2286 8.073 21.3545C7.55307 20.9352 6.91317 20.7081 6.23738 20.7081C4.61586 20.7081 3.29664 22.0274 3.29664 23.6489C1.99918 23.6489 0.944045 24.704 0.944045 26.0015C0.944045 26.3997 1.04285 26.7814 1.22871 27.1207C0.6882 27.5595 0.355896 28.2259 0.355896 28.9422C0.355896 30.2397 1.41103 31.2948 2.70849 31.2948C3.55895 31.2948 4.30649 30.8408 4.71937 30.162L5.67158 32.0665L6.24562 35.5083C6.29267 35.7918 6.53793 36 6.82553 36H11.5307C11.856 36 12.1189 35.7365 12.1189 35.4118V31.9318L12.6988 28.4511C12.7041 28.4188 12.707 28.3864 12.707 28.3541C14.3285 28.3541 15.6478 27.2989 15.6478 26.0015C15.6478 25.004 14.8685 24.1476 13.7586 23.8094ZM12.707 27.1778C12.5682 27.1778 12.4235 27.1607 12.2383 27.1225C12.0654 27.0866 11.8848 27.1307 11.7477 27.2425C11.6107 27.3542 11.5307 27.5213 11.5307 27.6983V28.3058L10.9508 31.7865C10.9455 31.8183 10.9426 31.8506 10.9426 31.883V34.8237H7.32369L6.81789 31.7859C6.80789 31.7283 6.79024 31.6724 6.76378 31.6195L4.99933 28.0906C4.89935 27.8918 4.69585 27.7659 4.47294 27.7659H4.35531C4.16298 27.7659 3.98242 27.86 3.87303 28.0176C3.76245 28.1759 3.73716 28.3776 3.80362 28.5576C3.85891 28.7081 3.88479 28.8305 3.88479 28.9422C3.88479 29.5909 3.35722 30.1185 2.70849 30.1185C2.05976 30.1185 1.53219 29.5909 1.53219 28.9422C1.53219 28.4552 1.84215 28.0135 2.30384 27.8436C2.49558 27.7724 2.63674 27.6077 2.67732 27.4066C2.71731 27.206 2.65026 26.999 2.50029 26.8602C2.25503 26.6331 2.12034 26.3279 2.12034 26.0015C2.12034 25.3527 2.64791 24.8252 3.29664 24.8252C3.41427 24.8252 3.53837 24.8499 3.68541 24.9028C3.86538 24.9675 4.06535 24.9405 4.22297 24.8305C4.38001 24.7205 4.47294 24.5411 4.47294 24.3494V23.6489C4.47294 22.6761 5.26459 21.8844 6.23738 21.8844C6.71672 21.8844 7.16666 22.0762 7.50308 22.4244C7.66953 22.5973 7.92537 22.6514 8.14769 22.5602C8.60468 22.3732 9.11755 22.4949 9.44926 22.8525C9.58866 23.0025 9.79627 23.0696 9.99624 23.029C10.1968 22.989 10.3621 22.8472 10.4326 22.6555C10.6026 22.1944 11.0437 21.8844 11.5307 21.8844C12.1795 21.8844 12.707 22.412 12.707 23.0607C12.707 23.3495 12.5964 23.6295 12.3953 23.8494C12.2406 24.0188 12.1989 24.2617 12.2865 24.4729C12.3747 24.684 12.5776 24.8252 12.8064 24.834C13.7239 24.8699 14.4715 25.3939 14.4715 26.0015C14.4715 26.639 13.6634 27.1778 12.707 27.1778Z" fill="white"/>
<path d="M31.6752 23.6489H31.0588C29.0109 23.6489 27.3129 25.1857 27.1088 27.2236L26.8547 29.7662L25.6637 30.4808L25.4737 30.2908C25.3638 30.1803 25.2144 30.1185 25.0579 30.1185H24.7638C23.6287 30.1185 22.7053 31.0419 22.7053 32.177C22.7053 33.2186 23.4829 34.082 24.488 34.2173C24.6233 35.2225 25.4867 36 26.5283 36C27.6634 36 28.5868 35.0766 28.5868 33.9415V33.6474C28.5868 33.4915 28.5251 33.3416 28.4145 33.2316L28.2245 33.0416L28.9373 31.8536L32.0345 31.5718C34.0925 31.3848 35.6446 29.685 35.6446 27.6189C35.6446 25.4298 33.8643 23.6489 31.6752 23.6489ZM27.0682 33.5486L27.4105 33.8909V33.9415C27.4105 34.4279 27.0147 34.8237 26.5283 34.8237C26.0419 34.8237 25.6461 34.4279 25.6461 33.9415V33.6474C25.6461 33.3227 25.3832 33.0593 25.0579 33.0593H24.7638C24.2774 33.0593 23.8816 32.6634 23.8816 32.177C23.8816 31.6906 24.2774 31.2948 24.7638 31.2948H24.8144L25.1567 31.6371C25.3473 31.8283 25.6431 31.8641 25.8754 31.7253L27.3193 30.859L27.5828 31.1225L27.8463 31.386L26.98 32.8299C26.8412 33.0616 26.8776 33.3574 27.0682 33.5486ZM31.9281 30.4002L28.808 30.6837L28.0234 29.8991L28.2798 27.3401C28.4233 25.9062 29.6178 24.8252 31.0588 24.8252H31.6752C33.215 24.8252 34.4683 26.0785 34.4683 27.6189C34.4683 29.0728 33.3767 30.2685 31.9281 30.4002Z" fill="white"/>
<path d="M7.15814 5.46685C6.74232 5.96501 6.05771 6.14087 5.49368 5.89385C5.01669 5.68447 4.69262 5.19277 4.66792 4.64168L3.4928 4.69402C3.53691 5.68917 4.13682 6.58257 5.02081 6.97075C5.34253 7.1119 5.68424 7.17954 6.02478 7.17954C6.78584 7.17954 7.54279 6.84077 8.06095 6.22086L7.15814 5.46685Z" fill="white"/>
<path d="M30.0014 26.392C29.4115 26.8272 29.1874 27.5212 29.1745 28.0265L30.3508 28.057C30.352 28.0088 30.372 27.5806 30.7002 27.3389C31.0019 27.1166 31.4395 27.1248 31.7912 27.3566L32.4393 26.3749C31.6777 25.8715 30.6972 25.8785 30.0014 26.392Z" fill="white"/>
<path d="M8.34466 27.1348C7.64182 26.4408 6.60138 26.0015 5.64917 26.0015V27.1778C6.67608 27.1778 8.00177 28.0335 8.00177 28.9422V31.2948H9.17806V28.9422C9.17806 28.2347 9.3498 26.5896 10.9425 26.5896V25.4133C9.70916 25.4133 8.80459 26.0497 8.34466 27.1348Z" fill="white"/>
</svg>
