<svg width="36" height="36" viewBox="0 0 36 36" fill="none" xmlns="http://www.w3.org/2000/svg">
<path d="M25.3125 15.1875H20.8125C20.6633 15.1875 20.5202 15.2468 20.4148 15.3523C20.3093 15.4577 20.25 15.6008 20.25 15.75V16.3125C20.25 16.4617 20.1907 16.6048 20.0852 16.7102C19.9798 16.8157 19.8367 16.875 19.6875 16.875H16.3125C16.1633 16.875 16.0202 16.8157 15.9148 16.7102C15.8093 16.6048 15.75 16.4617 15.75 16.3125V15.75C15.75 15.6008 15.6907 15.4577 15.5852 15.3523C15.4798 15.2468 15.3367 15.1875 15.1875 15.1875H10.6875C10.5383 15.1875 10.3952 15.2468 10.2898 15.3523C10.1843 15.4577 10.125 15.6008 10.125 15.75C10.125 15.8992 10.1843 16.0423 10.2898 16.1477C10.3952 16.2532 10.5383 16.3125 10.6875 16.3125H14.625C14.625 16.7601 14.8028 17.1893 15.1193 17.5057C15.4357 17.8222 15.8649 18 16.3125 18H19.6875C20.1351 18 20.5643 17.8222 20.8807 17.5057C21.1972 17.1893 21.375 16.7601 21.375 16.3125H25.3125C25.4617 16.3125 25.6048 16.2532 25.7102 16.1477C25.8157 16.0423 25.875 15.8992 25.875 15.75C25.875 15.6008 25.8157 15.4577 25.7102 15.3523C25.6048 15.2468 25.4617 15.1875 25.3125 15.1875Z" fill="white"/>
<path d="M30.9128 14.6813C30.815 11.925 29.8342 9.27316 28.1149 7.11668C26.3957 4.9602 24.0289 3.41325 21.3638 2.70394C21.337 2.27711 21.149 1.87644 20.8377 1.58321C20.5264 1.28998 20.1152 1.12616 19.6875 1.125H16.3125C15.884 1.12609 15.4721 1.29047 15.1605 1.58466C14.849 1.87885 14.6613 2.28072 14.6357 2.70844C11.9684 3.41288 9.59908 4.9578 7.87864 7.1143C6.1582 9.27081 5.17821 11.9242 5.08388 14.6813C4.44491 14.8071 3.86933 15.1505 3.45517 15.6531C3.04101 16.1557 2.81389 16.7863 2.8125 17.4375V18.5625C2.8125 19.0101 2.99029 19.4393 3.30676 19.7557C3.62322 20.0722 4.05245 20.25 4.5 20.25H5.0625V24.1875C5.0625 24.3367 5.12176 24.4798 5.22725 24.5852C5.33274 24.6907 5.47582 24.75 5.625 24.75H8.856C9.03256 25.3251 9.26308 25.8822 9.5445 26.4139L7.263 28.7004C7.15755 28.8059 7.09831 28.949 7.09831 29.0981C7.09831 29.2473 7.15755 29.3903 7.263 29.4958L10.4411 32.6739C10.5466 32.7794 10.6897 32.8386 10.8388 32.8386C10.988 32.8386 11.131 32.7794 11.2365 32.6739L13.5231 30.3924C14.0549 30.6741 14.6122 30.9048 15.1875 31.0815V34.3125C15.1875 34.4617 15.2468 34.6048 15.3523 34.7102C15.4577 34.8157 15.6008 34.875 15.75 34.875H20.25C20.3992 34.875 20.5423 34.8157 20.6477 34.7102C20.7532 34.6048 20.8125 34.4617 20.8125 34.3125V31.0815C21.3869 30.9042 21.943 30.6722 22.473 30.3885L24.7629 32.6745C24.8684 32.78 25.0115 32.8392 25.1606 32.8392C25.3098 32.8392 25.4528 32.78 25.5583 32.6745L28.7364 29.4964C28.8419 29.3909 28.9011 29.2478 28.9011 29.0987C28.9011 28.9495 28.8419 28.8065 28.7364 28.701L26.451 26.4111C26.7347 25.8809 26.9668 25.3246 27.144 24.75H30.375C30.5242 24.75 30.6673 24.6907 30.7727 24.5852C30.8782 24.4798 30.9375 24.3367 30.9375 24.1875V20.25H31.5C31.9476 20.25 32.3768 20.0722 32.6932 19.7557C33.0097 19.4393 33.1875 19.0101 33.1875 18.5625V17.4375C33.186 16.7858 32.9584 16.1548 32.5435 15.6522C32.1287 15.1495 31.5523 14.8064 30.9128 14.6813ZM29.8125 23.625H26.7188C26.5941 23.625 26.4729 23.6665 26.3744 23.7428C26.2758 23.8192 26.2054 23.9262 26.1743 24.0469C25.9776 24.8096 25.6726 25.5402 25.2686 26.2164C25.2043 26.3239 25.1776 26.4497 25.1929 26.5741C25.2082 26.6984 25.2645 26.814 25.353 26.9027L27.5434 29.0964L25.1601 31.4797L22.9663 29.2894C22.8776 29.2008 22.7618 29.1444 22.6374 29.1291C22.513 29.1138 22.387 29.1405 22.2795 29.205C21.6036 29.6092 20.8731 29.9142 20.1105 30.1106C19.9894 30.1416 19.882 30.2121 19.8054 30.3109C19.7288 30.4097 19.6873 30.5312 19.6875 30.6562V33.75H16.3125V30.6562C16.3125 30.5316 16.271 30.4104 16.1947 30.3119C16.1183 30.2133 16.0113 30.1429 15.8906 30.1118C15.126 29.9153 14.3929 29.6123 13.7126 29.2118C13.6053 29.1485 13.4801 29.1226 13.3565 29.1381C13.2329 29.1537 13.118 29.2099 13.0297 29.2978L10.8399 31.4826L8.45662 29.0992L10.6414 26.9094C10.7293 26.8212 10.7855 26.7063 10.801 26.5827C10.8166 26.4591 10.7907 26.3339 10.7274 26.2266C10.3269 25.5463 10.0239 24.8131 9.82744 24.0486C9.79652 23.9272 9.72601 23.8197 9.62707 23.743C9.52814 23.6663 9.40644 23.6248 9.28125 23.625H6.1875V20.25H12.6433C12.373 21.0935 12.3057 21.9889 12.447 22.8634C12.5882 23.7378 12.9339 24.5665 13.456 25.282C13.9781 25.9976 14.6618 26.5797 15.4514 26.981C16.241 27.3824 17.1142 27.5915 18 27.5915C18.8858 27.5915 19.759 27.3824 20.5486 26.981C21.3382 26.5797 22.0219 25.9976 22.544 25.282C23.0661 24.5665 23.4118 23.7378 23.553 22.8634C23.6943 21.9889 23.627 21.0935 23.3567 20.25H29.8125V23.625ZM22.1625 20.25C22.4433 20.9335 22.5514 21.6756 22.4773 22.4108C22.4033 23.146 22.1494 23.8516 21.7379 24.4654C21.3265 25.0792 20.7703 25.5822 20.1184 25.9301C19.4665 26.2779 18.7389 26.4599 18 26.4599C17.2611 26.4599 16.5335 26.2779 15.8816 25.9301C15.2297 25.5822 14.6735 25.0792 14.2621 24.4654C13.8506 23.8516 13.5967 23.146 13.5227 22.4108C13.4486 21.6756 13.5567 20.9335 13.8375 20.25H22.1625ZM32.0625 18.5625C32.0625 18.7117 32.0032 18.8548 31.8977 18.9602C31.7923 19.0657 31.6492 19.125 31.5 19.125H4.5C4.35082 19.125 4.20774 19.0657 4.10225 18.9602C3.99676 18.8548 3.9375 18.7117 3.9375 18.5625V17.4375C3.93894 17.0897 4.0478 16.7509 4.24917 16.4674C4.45055 16.1838 4.73461 15.9694 5.0625 15.8535V17.4375C5.0625 17.5867 5.12176 17.7298 5.22725 17.8352C5.33274 17.9407 5.47582 18 5.625 18C5.77418 18 5.91726 17.9407 6.02275 17.8352C6.12824 17.7298 6.1875 17.5867 6.1875 17.4375V15.1875C6.17643 12.6421 6.99357 10.1622 8.51559 8.12196C10.0376 6.08173 12.182 4.59191 14.625 3.87731V11.25C14.625 11.3992 14.6843 11.5423 14.7898 11.6477C14.8952 11.7532 15.0383 11.8125 15.1875 11.8125C15.3367 11.8125 15.4798 11.7532 15.5852 11.6477C15.6907 11.5423 15.75 11.3992 15.75 11.25V2.8125C15.75 2.66332 15.8093 2.52024 15.9148 2.41475C16.0202 2.30926 16.1633 2.25 16.3125 2.25H19.6875C19.8367 2.25 19.9798 2.30926 20.0852 2.41475C20.1907 2.52024 20.25 2.66332 20.25 2.8125V11.25C20.25 11.3992 20.3093 11.5423 20.4148 11.6477C20.5202 11.7532 20.6633 11.8125 20.8125 11.8125C20.9617 11.8125 21.1048 11.7532 21.2102 11.6477C21.3157 11.5423 21.375 11.3992 21.375 11.25V3.87C23.8141 4.59371 25.9537 6.08691 27.4744 8.12665C28.9951 10.1664 29.8153 12.6433 29.8125 15.1875V17.4375C29.8125 17.5867 29.8718 17.7298 29.9773 17.8352C30.0827 17.9407 30.2258 18 30.375 18C30.5242 18 30.6673 17.9407 30.7727 17.8352C30.8782 17.7298 30.9375 17.5867 30.9375 17.4375V15.8535C31.2654 15.9694 31.5494 16.1838 31.7508 16.4674C31.9522 16.7509 32.0611 17.0897 32.0625 17.4375V18.5625Z" fill="white"/>
<path d="M23.0625 10.125C23.2117 10.125 23.3548 10.0657 23.4602 9.96025C23.5657 9.85476 23.625 9.71168 23.625 9.5625V6.1875C23.625 6.03832 23.5657 5.89524 23.4602 5.78975C23.3548 5.68426 23.2117 5.625 23.0625 5.625C22.9133 5.625 22.7702 5.68426 22.6648 5.78975C22.5593 5.89524 22.5 6.03832 22.5 6.1875V9.5625C22.5 9.71168 22.5593 9.85476 22.6648 9.96025C22.7702 10.0657 22.9133 10.125 23.0625 10.125Z" fill="white"/>
<path d="M12.9375 10.125C13.0867 10.125 13.2298 10.0657 13.3352 9.96025C13.4407 9.85476 13.5 9.71168 13.5 9.5625V6.1875C13.5 6.03832 13.4407 5.89524 13.3352 5.78975C13.2298 5.68426 13.0867 5.625 12.9375 5.625C12.7883 5.625 12.6452 5.68426 12.5398 5.78975C12.4343 5.89524 12.375 6.03832 12.375 6.1875V9.5625C12.375 9.71168 12.4343 9.85476 12.5398 9.96025C12.6452 10.0657 12.7883 10.125 12.9375 10.125Z" fill="white"/>
<path d="M28.125 15.1875H27.5625C27.4133 15.1875 27.2702 15.2468 27.1648 15.3523C27.0593 15.4577 27 15.6008 27 15.75C27 15.8992 27.0593 16.0423 27.1648 16.1477C27.2702 16.2532 27.4133 16.3125 27.5625 16.3125H28.125C28.2742 16.3125 28.4173 16.2532 28.5227 16.1477C28.6282 16.0423 28.6875 15.8992 28.6875 15.75C28.6875 15.6008 28.6282 15.4577 28.5227 15.3523C28.4173 15.2468 28.2742 15.1875 28.125 15.1875Z" fill="white"/>
<path d="M8.4375 15.1875H7.875C7.72582 15.1875 7.58274 15.2468 7.47725 15.3523C7.37176 15.4577 7.3125 15.6008 7.3125 15.75C7.3125 15.8992 7.37176 16.0423 7.47725 16.1477C7.58274 16.2532 7.72582 16.3125 7.875 16.3125H8.4375C8.58668 16.3125 8.72976 16.2532 8.83525 16.1477C8.94074 16.0423 9 15.8992 9 15.75C9 15.6008 8.94074 15.4577 8.83525 15.3523C8.72976 15.2468 8.58668 15.1875 8.4375 15.1875Z" fill="white"/>
<path d="M7.3125 21.375H8.4375V22.5H7.3125V21.375Z" fill="white"/>
<path d="M10.0408 29.095L10.8363 28.2995L11.6318 29.095L10.8363 29.8905L10.0408 29.095Z" fill="white"/>
<path d="M17.4375 31.5H18.5625V32.625H17.4375V31.5Z" fill="white"/>
<path d="M24.358 29.0964L25.1535 28.301L25.949 29.0964L25.1535 29.8919L24.358 29.0964Z" fill="white"/>
<path d="M27.5625 21.375H28.6875V22.5H27.5625V21.375Z" fill="white"/>
</svg>
