<svg width="36" height="36" viewBox="0 0 36 36" fill="none" xmlns="http://www.w3.org/2000/svg">
<g clip-path="url(#clip0)">
<path d="M4.5 22.5C2.019 22.5 0 20.481 0 18C0 15.519 2.019 13.5 4.5 13.5C6.981 13.5 9 15.519 9 18C9 20.481 6.981 22.5 4.5 22.5ZM4.5 15C2.8455 15 1.5 16.3455 1.5 18C1.5 19.6545 2.8455 21 4.5 21C6.1545 21 7.5 19.6545 7.5 18C7.5 16.3455 6.1545 15 4.5 15Z" fill="white"/>
<path d="M18 22.5C15.519 22.5 13.5 20.481 13.5 18C13.5 15.519 15.519 13.5 18 13.5C20.481 13.5 22.5 15.519 22.5 18C22.5 20.481 20.481 22.5 18 22.5ZM18 15C16.3455 15 15 16.3455 15 18C15 19.6545 16.3455 21 18 21C19.6545 21 21 19.6545 21 18C21 16.3455 19.6545 15 18 15Z" fill="white"/>
<path d="M31.5 22.5C29.019 22.5 27 20.481 27 18C27 15.519 29.019 13.5 31.5 13.5C33.981 13.5 36 15.519 36 18C36 20.481 33.981 22.5 31.5 22.5ZM31.5 15C29.8455 15 28.5 16.3455 28.5 18C28.5 19.6545 29.8455 21 31.5 21C33.1545 21 34.5 19.6545 34.5 18C34.5 16.3455 33.1545 15 31.5 15Z" fill="white"/>
</g>
<defs>
<clipPath id="clip0">
<rect width="36" height="36" fill="white"/>
</clipPath>
</defs>
</svg>
