<svg width="36" height="36" viewBox="0 0 36 36" fill="none" xmlns="http://www.w3.org/2000/svg">
<g clip-path="url(#clip0)">
<path d="M35.9496 20.2885C35.8249 20.0228 35.5085 19.9087 35.2428 20.0331C33.6606 20.7755 30.7785 20.7755 29.1961 20.0331C27.5465 19.2592 24.9008 19.1631 23.0038 19.7448V8.17306C25.6131 7.37242 26.9911 6.28384 26.9911 5.01885C26.9911 3.72404 25.5462 2.61395 22.8126 1.80852C20.3164 1.07298 17.0074 0.667908 13.4955 0.667908C9.98353 0.667908 6.67462 1.07291 4.17839 1.80852C1.44485 2.61395 0 3.72404 0 5.01885C0 6.28349 1.37728 7.37185 3.98531 8.1725V27.8262C1.37637 28.6259 0 29.712 0 30.9792C0 32.2749 1.44485 33.3855 4.17839 34.1913C6.67434 34.927 9.98325 35.3322 13.4956 35.3322C17.0079 35.3322 20.3168 34.927 22.8127 34.1913C25.5463 33.3856 26.9911 32.2749 26.9911 30.9792C26.9911 29.7124 25.6141 28.6262 23.0039 27.8262V26.2371C23.0039 26.235 23.0039 20.8671 23.0039 20.8671C24.6296 20.2558 27.2597 20.2985 28.7448 20.9953C29.6866 21.4372 30.9531 21.6581 32.2196 21.6581C33.486 21.6581 34.7526 21.4372 35.6943 20.9953C35.9599 20.8706 36.0742 20.5542 35.9496 20.2885ZM20.9706 29.4913L11.7363 26.6065L16.8107 25.0217L21.9411 26.6243V28.3047C21.9411 28.7014 21.5937 29.1127 20.9706 29.4913ZM9.95098 17.4836L5.04802 15.9515V12.7812L8.52096 13.8662L15.0282 15.8979L9.95098 17.4836ZM8.16898 18.0402L5.04802 19.0149V17.0649L8.16898 18.0402ZM5.04802 20.1282L10.1023 18.5497C10.1108 18.5472 10.1193 18.5447 10.1277 18.5418L16.9707 16.4046C16.9737 16.4036 16.9767 16.4028 16.9798 16.4018L21.9411 14.8523V18.0226L13.8071 20.5628L11.8028 21.19L5.04802 23.2987V20.1282ZM21.9411 12.6603L11.2282 9.31445C11.97 9.35235 12.7279 9.37175 13.4955 9.37175C16.6132 9.37175 19.5701 9.05225 21.9411 8.46599V12.6603ZM21.8857 13.7562L16.8108 15.3412L8.83772 12.8518L5.04795 11.6679V8.49756L21.8857 13.7562ZM5.04802 24.4119L12.1199 22.2043L14.1242 21.577L21.9411 19.1358V22.3061L9.81647 26.0928C9.80241 26.0966 9.78862 26.1009 9.77498 26.1058L5.04802 27.5821V24.4119ZM21.9411 23.4194V25.5109L18.5929 24.4651L21.9411 23.4194ZM1.0627 5.01885C1.0627 3.64578 5.79255 1.73061 13.4956 1.73061C21.1986 1.73061 25.9284 3.64578 25.9284 5.01885C25.9284 6.39268 21.1986 8.30905 13.4956 8.30905C5.79255 8.30905 1.0627 6.39268 1.0627 5.01885ZM25.9284 30.9792C25.9284 32.353 21.1986 34.2695 13.4956 34.2695C5.79255 34.2695 1.0627 32.353 1.0627 30.9792C1.0627 30.4308 1.87207 29.6192 4.09127 28.9066C4.52095 30.1156 6.25683 31.0987 9.00218 31.6553C9.03783 31.6626 9.07327 31.666 9.10828 31.666C9.35585 31.666 9.57741 31.4921 9.62852 31.2401C9.68688 30.9526 9.50098 30.6721 9.21333 30.6138C6.80843 30.1262 5.50441 29.3256 5.14913 28.6639L9.95414 27.1632L19.5078 30.1478C18.0022 30.6613 15.9002 31.0155 13.4956 31.0155C12.8744 31.0155 12.2479 30.9912 11.6338 30.9434C11.3401 30.9198 11.0856 31.1394 11.0628 31.4319C11.04 31.7245 11.2587 31.9802 11.5514 32.003C12.1929 32.0529 12.8469 32.0782 13.4956 32.0782C17.7119 32.0782 22.1694 30.9715 22.8993 28.9071C25.1188 29.6198 25.9284 30.4311 25.9284 30.9792Z" fill="white"/>
<path d="M18.0203 6.12191C19.5564 5.80051 20.2718 5.34172 20.2718 4.67833C20.2718 4.01493 19.5565 3.55614 18.0203 3.23474C16.8058 2.98063 15.1989 2.84064 13.4955 2.84064C12.9939 2.84064 12.4782 2.85357 11.9627 2.8791C11.6696 2.89365 11.4438 3.14298 11.4583 3.43611C11.4728 3.72918 11.7222 3.95425 12.0153 3.94054C12.5133 3.91586 13.0113 3.90334 13.4955 3.90334C16.6132 3.90334 18.5248 4.36382 19.088 4.6784C18.5248 4.99297 16.6132 5.45345 13.4955 5.45345C10.3886 5.45345 8.47951 4.99621 7.909 4.6817C8.14363 4.55394 8.65304 4.36065 9.6093 4.19422C9.89842 4.14388 10.0921 3.86868 10.0417 3.57962C9.99137 3.2905 9.7168 3.09679 9.42712 3.1472C7.57965 3.4686 6.71924 3.95516 6.71924 4.67825C6.71924 5.34165 7.4346 5.80044 8.97072 6.12184C10.1852 6.37595 11.7921 6.51594 13.4955 6.51594C15.1988 6.51601 16.8058 6.37602 18.0203 6.12191Z" fill="white"/>
</g>
<defs>
<clipPath id="clip0">
<rect width="36" height="36" fill="white"/>
</clipPath>
</defs>
</svg>
