<svg width="36" height="36" viewBox="0 0 36 36" fill="none" xmlns="http://www.w3.org/2000/svg">
<path d="M28.125 25.0312C28.4356 25.0312 28.6875 25.2831 28.6875 25.5938C28.6875 25.9039 28.9399 26.1562 29.25 26.1562C29.5601 26.1562 29.8125 25.9039 29.8125 25.5938C29.8125 25.2836 29.5601 25.0312 29.25 25.0312C28.9394 25.0312 28.6875 24.7794 28.6875 24.4688C28.6875 24.1581 28.9394 23.9062 29.25 23.9062C30.1805 23.9062 30.9375 24.6633 30.9375 25.5938C30.9375 26.5242 30.1805 27.2812 29.25 27.2812C28.3195 27.2812 27.5625 26.5242 27.5625 25.5938C27.5625 25.2831 27.8144 25.0312 28.125 25.0312Z" fill="white"/>
<path d="M5.625 25.0312C5.93564 25.0312 6.1875 25.2831 6.1875 25.5938C6.1875 25.9039 6.43985 26.1562 6.75 26.1562C7.06015 26.1562 7.3125 25.9039 7.3125 25.5938C7.3125 25.2836 7.06015 25.0312 6.75 25.0312C6.43936 25.0312 6.1875 24.7794 6.1875 24.4688C6.1875 24.1581 6.43936 23.9062 6.75 23.9062C7.68052 23.9062 8.4375 24.6633 8.4375 25.5938C8.4375 26.5242 7.68052 27.2812 6.75 27.2812C5.81948 27.2812 5.0625 26.5242 5.0625 25.5938C5.0625 25.2831 5.31436 25.0312 5.625 25.0312Z" fill="white"/>
<path d="M0 17.7188C0 17.5619 0.0643349 17.4201 0.167908 17.3181C0.408443 16.6533 0.895782 16.0951 1.55468 15.7656C1.57226 15.7568 1.59019 15.749 1.60861 15.7421L3.4676 15.0443L4.60006 10.7415C4.60167 10.7353 4.60336 10.7291 4.60526 10.723C4.96484 9.52425 6.04744 8.71875 7.29907 8.71875H11.25V7.59375C11.25 6.97345 11.7547 6.46875 12.375 6.46875H34.875C35.4953 6.46875 36 6.97345 36 7.59375V23.3438C36 23.964 35.4953 24.4688 34.875 24.4688H33.0229C33.0774 24.6511 33.1191 24.8389 33.1467 25.0312H35.4375C35.7481 25.0312 36 25.2831 36 25.5938C36 25.9044 35.7481 26.1562 35.4375 26.1562H33.1466C32.8728 28.0619 31.2301 29.5312 29.25 29.5312C27.2699 29.5312 25.6271 28.0619 25.3534 26.1562H24.1875C24.1875 27.0867 23.4305 27.8438 22.5 27.8438H19.125C18.1945 27.8438 17.4375 27.0867 17.4375 26.1562H10.6466C10.3728 28.0619 8.73007 29.5312 6.75 29.5312C4.76993 29.5312 3.12715 28.0619 2.85335 26.1562H0.5625C0.251858 26.1562 0 25.9044 0 25.5938C0 25.2831 0.251858 25.0312 0.5625 25.0312H2.85335C2.88099 24.8389 2.92268 24.6511 2.97717 24.4688H1.125C0.504704 24.4688 0 23.964 0 23.3438V18.2812C0 18.1491 0.00921249 18.0186 0.0269279 17.8905C0.00956345 17.8363 0 17.7787 0 17.7188ZM1.125 21.0938H1.6875V20.5312H1.125V21.0938ZM1.55398 17.1562H11.25V16.0312H4.03952L2.03344 16.7843C1.84866 16.8804 1.68764 17.0073 1.55398 17.1562ZM7.29907 9.84375C6.55108 9.84375 5.90365 10.3232 5.68533 11.0378L4.6672 14.9062H11.25V9.84375H7.29907ZM32.6249 23.3438H34.875V20.5312H17.4372C17.1266 20.5312 16.8747 20.2794 16.8747 19.9688C16.8747 19.6581 17.1266 19.4062 17.4372 19.4062H34.875V7.59375H12.375V23.3438H19.125H22.5H25.8749C25.9213 23.3438 25.9663 23.35 26.0095 23.3606C26.7205 22.332 27.9076 21.6562 29.25 21.6562C30.5924 21.6562 31.7794 22.332 32.4905 23.3606C32.5337 23.35 32.5785 23.3438 32.6249 23.3438ZM29.25 28.4062C30.8008 28.4062 32.0625 27.1446 32.0625 25.5938C32.0625 24.0429 30.8008 22.7812 29.25 22.7812C27.6992 22.7812 26.4375 24.0429 26.4375 25.5938C26.4375 27.1446 27.6992 28.4062 29.25 28.4062ZM25.3534 25.0312C25.381 24.8389 25.4227 24.6511 25.4772 24.4688H24.0907C24.1532 24.6448 24.1875 24.8341 24.1875 25.0312H25.3534ZM18.5625 26.1562C18.5625 26.4664 18.8149 26.7188 19.125 26.7188H22.5C22.8101 26.7188 23.0625 26.4664 23.0625 26.1562V25.5951C23.0625 25.5946 23.0624 25.5942 23.0624 25.5938C23.0624 25.5933 23.0625 25.5928 23.0625 25.5924V25.0312C23.0625 24.7211 22.8101 24.4688 22.5 24.4688H19.125C18.8149 24.4688 18.5625 24.7211 18.5625 25.0312V26.1562ZM17.5343 24.4688H11.8125H10.5229C10.5774 24.6511 10.6191 24.8389 10.6467 25.0312H17.4375C17.4375 24.8341 17.4718 24.6448 17.5343 24.4688ZM6.75 28.4062C8.30081 28.4062 9.5625 27.1446 9.5625 25.5938C9.5625 24.0429 8.30081 22.7812 6.75 22.7812C5.19919 22.7812 3.9375 24.0429 3.9375 25.5938C3.9375 27.1446 5.19919 28.4062 6.75 28.4062ZM3.375 23.3438C3.42141 23.3438 3.46634 23.35 3.50951 23.3606C4.22058 22.332 5.40759 21.6562 6.75 21.6562C8.09241 21.6562 9.27942 22.332 9.99049 23.3606C10.0337 23.35 10.0785 23.3438 10.1249 23.3438H11.2499V18.2812H1.12493V19.4062H1.68743C2.30773 19.4062 2.81243 19.911 2.81243 20.5312V21.0938C2.81243 21.714 2.30773 22.2188 1.68743 22.2188H1.12493V23.3438H3.375Z" fill="white"/>
<path d="M21.9375 25.0312C22.0859 25.0312 22.2307 25.0916 22.3355 25.1958C22.4402 25.3005 22.5 25.4461 22.5 25.5938C22.5 25.742 22.4402 25.887 22.3355 25.9917C22.2307 26.0964 22.0859 26.1562 21.9375 26.1562C21.7891 26.1562 21.6443 26.0964 21.5395 25.9917C21.4348 25.887 21.375 25.7413 21.375 25.5938C21.375 25.446 21.4348 25.3005 21.5395 25.1958C21.6443 25.0916 21.7891 25.0312 21.9375 25.0312Z" fill="white"/>
<path d="M15.1871 20.5312H14.0624C13.7518 20.5312 13.4999 20.2794 13.4999 19.9688C13.4999 19.6581 13.7518 19.4062 14.0624 19.4062H15.1871C15.4978 19.4062 15.7496 19.6581 15.7496 19.9688C15.7496 20.2794 15.4978 20.5312 15.1871 20.5312Z" fill="white"/>
</svg>
