<svg width="36" height="36" viewBox="0 0 36 36" fill="none" xmlns="http://www.w3.org/2000/svg">
<path d="M13.0778 22.5751C13.0778 20.7295 12.2414 19.3376 11.1318 19.3376C10.0223 19.3376 9.18616 20.7295 9.18616 22.5751C9.18616 24.4207 10.0226 25.8123 11.1318 25.8123C11.2624 25.8123 11.3876 25.7604 11.4799 25.6681C11.5722 25.5758 11.624 25.4506 11.624 25.3201C11.624 25.1896 11.5722 25.0644 11.4799 24.9721C11.3876 24.8798 11.2624 24.8279 11.1318 24.8279C10.7398 24.8279 10.1705 23.9504 10.1705 22.5751C10.1705 21.1998 10.7398 20.322 11.1318 20.322C11.5239 20.322 12.0934 21.1995 12.0934 22.5751C12.0934 22.7056 12.1453 22.8308 12.2376 22.9231C12.3299 23.0154 12.4551 23.0673 12.5856 23.0673C12.7162 23.0673 12.8414 23.0154 12.9337 22.9231C13.026 22.8308 13.0778 22.7056 13.0778 22.5751Z" fill="white"/>
<path d="M5.87737 25.3932C5.92448 25.3489 5.9624 25.2957 5.98896 25.2368C6.01552 25.1778 6.03021 25.1142 6.03218 25.0495C6.03415 24.9849 6.02337 24.9204 6.00045 24.86C5.97753 24.7995 5.94292 24.7441 5.8986 24.697C5.85428 24.6499 5.80112 24.612 5.74214 24.5854C5.68316 24.5588 5.61953 24.5442 5.55488 24.5422C5.49023 24.5402 5.42582 24.551 5.36534 24.5739C5.30486 24.5968 5.24948 24.6314 5.20237 24.6758C5.12229 24.7639 5.01169 24.8183 4.89299 24.8279C4.50093 24.8279 3.9314 23.9504 3.9314 22.5751C3.9314 21.1998 4.50093 20.322 4.89299 20.322C5.02353 20.322 5.14872 20.2702 5.24102 20.1778C5.33333 20.0855 5.38518 19.9604 5.38518 19.8298C5.38518 19.6993 5.33333 19.5741 5.24102 19.4818C5.14872 19.3895 5.02353 19.3376 4.89299 19.3376C3.78374 19.3376 2.94702 20.7295 2.94702 22.5751C2.94702 24.4207 3.78374 25.8123 4.89299 25.8123C5.26288 25.8048 5.61557 25.6546 5.87737 25.3932Z" fill="white"/>
<path d="M6.18688 23.9279C6.2153 23.9329 6.24409 23.9355 6.27295 23.9355C6.38854 23.9354 6.50039 23.8945 6.58889 23.8202C6.67739 23.7458 6.7369 23.6427 6.75698 23.5288C6.81206 23.2139 6.83945 22.8948 6.83882 22.5751C6.83882 22.4446 6.78697 22.3194 6.69466 22.2271C6.60236 22.1348 6.47717 22.0829 6.34663 22.0829C6.2161 22.0829 6.09091 22.1348 5.9986 22.2271C5.9063 22.3194 5.85445 22.4446 5.85445 22.5751C5.85493 22.8374 5.83262 23.0992 5.78779 23.3575C5.77654 23.4212 5.77793 23.4864 5.7919 23.5496C5.80587 23.6127 5.83213 23.6724 5.86919 23.7254C5.90625 23.7784 5.95338 23.8235 6.00789 23.8583C6.0624 23.893 6.12322 23.9167 6.18688 23.9279Z" fill="white"/>
<path d="M9.4495 12.9327C9.31897 12.9327 9.19378 12.9846 9.10148 13.0769C9.00917 13.1692 8.95732 13.2944 8.95732 13.4249C8.95732 14.7144 8.39763 15.5377 8.01232 15.5377C7.62701 15.5377 7.06732 14.7144 7.06732 13.4249C7.06732 12.1354 7.62701 11.3127 8.01232 11.3127C8.14285 11.3127 8.26804 11.2609 8.36035 11.1686C8.45265 11.0763 8.50451 10.9511 8.50451 10.8205C8.50451 10.69 8.45265 10.5648 8.36035 10.4725C8.26804 10.3802 8.14285 10.3284 8.01232 10.3284C6.91263 10.3284 6.08295 11.6595 6.08295 13.4249C6.08295 15.1903 6.91263 16.522 8.01232 16.522C9.112 16.522 9.94169 15.1906 9.94169 13.4249C9.94162 13.2944 9.88974 13.1693 9.79745 13.077C9.70516 12.9847 9.58002 12.9328 9.4495 12.9327Z" fill="white"/>
<path d="M34.7177 22.5897C34.7177 22.5847 34.7177 22.5799 34.7177 22.5751C34.7177 19.7421 33.1356 17.5163 31.114 17.5078H30.1423C31.0294 16.5926 31.5981 15.1197 31.5981 13.4249C31.5981 10.5922 30.016 8.36635 27.9944 8.35791H8.01271C6.02118 8.35791 4.4009 10.631 4.4009 13.4249C4.4009 15.1009 4.98618 16.5848 5.88252 17.5078H4.89337C2.90184 17.5078 1.28156 19.7809 1.28156 22.5751C1.28156 25.3693 2.90155 27.6421 4.89337 27.6421H11.1323H31.1163C33.1286 27.6345 34.7056 25.4245 34.7163 22.606C34.7163 22.6024 34.7163 22.599 34.7163 22.5954L34.7177 22.5897ZM29.7466 10.404H18.5877C18.4572 10.404 18.332 10.4559 18.2397 10.5482C18.1474 10.6405 18.0955 10.7657 18.0955 10.8962C18.0955 11.0267 18.1474 11.1519 18.2397 11.2442C18.332 11.3365 18.4572 11.3884 18.5877 11.3884H30.2596C30.4977 12.0408 30.6177 12.7304 30.614 13.4249C30.6172 14.0789 30.512 14.7288 30.3026 15.3484H15.042C14.9115 15.3484 14.7863 15.4002 14.694 15.4925C14.6017 15.5848 14.5498 15.71 14.5498 15.8406C14.5498 15.9711 14.6017 16.0963 14.694 16.1886C14.7863 16.2809 14.9115 16.3328 15.042 16.3328H29.8265C29.3534 17.0556 28.7062 17.5047 27.9927 17.5078H10.1429C11.0325 16.5169 11.55 15.2476 11.6068 13.9171H21.5715C21.702 13.9171 21.8272 13.8652 21.9195 13.7729C22.0118 13.6806 22.0637 13.5555 22.0637 13.4249C22.0637 13.2944 22.0118 13.1692 21.9195 13.0769C21.8272 12.9846 21.702 12.9327 21.5715 12.9327H11.6068C11.5502 11.6026 11.0332 10.3334 10.1443 9.34229H27.9938C28.6674 9.34538 29.2814 9.74926 29.7466 10.404ZM9.00215 18.4922C8.5787 18.9394 8.24306 19.4623 8.01271 20.0335C7.78257 19.4621 7.44691 18.9393 7.02327 18.4922H9.00215ZM5.38527 13.4249C5.38527 11.212 6.58846 9.34229 8.01271 9.34229C9.43696 9.34229 10.6401 11.212 10.6401 13.4249C10.6401 15.6378 9.43696 17.5078 8.01271 17.5078C6.58846 17.5078 5.38527 15.6375 5.38527 13.4249ZM2.26565 22.5751C2.26565 20.3619 3.46884 18.4922 4.89309 18.4922C6.31734 18.4922 7.52052 20.3619 7.52052 22.5751C7.52052 24.7883 6.31734 26.6577 4.89337 26.6577C3.4694 26.6577 2.26565 24.788 2.26565 22.5751ZM8.01271 25.1156C8.24306 25.6868 8.5787 26.2097 9.00215 26.6569H7.02327C7.44691 26.2098 7.78257 25.6869 8.01271 25.1156ZM8.5049 22.5743C8.5049 20.3611 9.70837 18.4914 11.1323 18.4914C12.5563 18.4914 13.7601 20.3611 13.7601 22.5743C13.7601 24.7874 12.5566 26.6569 11.1323 26.6569C9.70809 26.6569 8.5049 24.788 8.5049 22.5751V22.5743ZM31.1143 26.6577H13.2628C14.1483 25.6718 14.6651 24.4097 14.7253 23.0859H18.1315C18.2621 23.0859 18.3873 23.034 18.4796 22.9417C18.5719 22.8494 18.6237 22.7242 18.6237 22.5937C18.6237 22.4631 18.5719 22.3379 18.4796 22.2456C18.3873 22.1533 18.2621 22.1015 18.1315 22.1015H14.7284C14.6939 21.5666 14.5954 21.0378 14.4348 20.5265H25.5464C25.6769 20.5265 25.8021 20.4746 25.8944 20.3823C25.9867 20.29 26.0386 20.1648 26.0386 20.0343C26.0386 19.9038 25.9867 19.7786 25.8944 19.6863C25.8021 19.594 25.6769 19.5421 25.5464 19.5421H14.0194C13.8174 19.1583 13.5627 18.8046 13.2628 18.4914H31.1126C32.455 18.4967 33.5631 20.0773 33.7145 22.1012H22.2291C22.0985 22.1012 21.9733 22.1531 21.881 22.2454C21.7887 22.3377 21.7369 22.4629 21.7369 22.5934C21.7369 22.7239 21.7887 22.8491 21.881 22.9414C21.9733 23.0337 22.0985 23.0856 22.2291 23.0856H33.7105C33.5477 25.0917 32.446 26.6521 31.1143 26.6577Z" fill="white"/>
<path d="M27.8497 20.5273H29.256C29.3865 20.5273 29.5117 20.4755 29.604 20.3832C29.6963 20.2909 29.7482 20.1657 29.7482 20.0351C29.7482 19.9046 29.6963 19.7794 29.604 19.6871C29.5117 19.5948 29.3865 19.5429 29.256 19.5429H27.8497C27.7192 19.5429 27.594 19.5948 27.5017 19.6871C27.4094 19.7794 27.3575 19.9046 27.3575 20.0351C27.3575 20.1657 27.4094 20.2909 27.5017 20.3832C27.594 20.4755 27.7192 20.5273 27.8497 20.5273Z" fill="white"/>
<path d="M23.1464 24.4454H17.0281C16.8975 24.4454 16.7724 24.4973 16.68 24.5896C16.5877 24.6819 16.5359 24.8071 16.5359 24.9376C16.5359 25.0681 16.5877 25.1933 16.68 25.2856C16.7724 25.3779 16.8975 25.4298 17.0281 25.4298H23.1464C23.2769 25.4298 23.4021 25.3779 23.4944 25.2856C23.5867 25.1933 23.6386 25.0681 23.6386 24.9376C23.6386 24.8071 23.5867 24.6819 23.4944 24.5896C23.4021 24.4973 23.2769 24.4454 23.1464 24.4454Z" fill="white"/>
<path d="M30.9034 24.4454H27.158C27.0275 24.4454 26.9023 24.4973 26.81 24.5896C26.7177 24.6819 26.6658 24.8071 26.6658 24.9376C26.6658 25.0681 26.7177 25.1933 26.81 25.2856C26.9023 25.3779 27.0275 25.4298 27.158 25.4298H30.9034C31.034 25.4298 31.1592 25.3779 31.2515 25.2856C31.3438 25.1933 31.3956 25.0681 31.3956 24.9376C31.3956 24.8071 31.3438 24.6819 31.2515 24.5896C31.1592 24.4973 31.034 24.4454 30.9034 24.4454Z" fill="white"/>
<path d="M13.728 11.3884H15.3842C15.5148 11.3884 15.64 11.3365 15.7323 11.2442C15.8246 11.1519 15.8764 11.0267 15.8764 10.8962C15.8764 10.7657 15.8246 10.6405 15.7323 10.5482C15.64 10.4559 15.5148 10.404 15.3842 10.404H13.728C13.5974 10.404 13.4722 10.4559 13.3799 10.5482C13.2876 10.6405 13.2358 10.7657 13.2358 10.8962C13.2358 11.0267 13.2876 11.1519 13.3799 11.2442C13.4722 11.3365 13.5974 11.3884 13.728 11.3884Z" fill="white"/>
<path d="M24.3128 13.9171H26.2321C26.3626 13.9171 26.4878 13.8652 26.5801 13.7729C26.6724 13.6806 26.7242 13.5554 26.7242 13.4249C26.7242 13.2944 26.6724 13.1692 26.5801 13.0769C26.4878 12.9846 26.3626 12.9327 26.2321 12.9327H24.3128C24.1823 12.9327 24.0571 12.9846 23.9648 13.0769C23.8725 13.1692 23.8206 13.2944 23.8206 13.4249C23.8206 13.5554 23.8725 13.6806 23.9648 13.7729C24.0571 13.8652 24.1823 13.9171 24.3128 13.9171Z" fill="white"/>
</svg>
