<svg width="49" height="48" viewBox="0 0 49 48" fill="none" xmlns="http://www.w3.org/2000/svg">
<g clip-path="url(#clip0_23532_143932)">
<g clip-path="url(#clip1_23532_143932)">
<path d="M22.3017 24.7796C19.6322 24.2321 17.2609 22.7132 15.6474 20.5172C14.0338 18.3212 13.2928 15.6044 13.568 12.8932C13.8431 10.1821 15.1148 7.66955 17.1367 5.84249C19.1586 4.01543 21.7867 3.00391 24.5117 3.00391C27.2368 3.00391 29.8649 4.01543 31.8868 5.84249C33.9087 7.66955 35.1804 10.1821 35.4555 12.8932C35.7307 15.6044 34.9897 18.3212 33.3761 20.5172C31.7625 22.7132 29.3913 24.2321 26.7217 24.7796L26.3217 22.7796C28.5111 22.3312 30.4559 21.086 31.7795 19.2853C33.1031 17.4847 33.7111 15.2568 33.4858 13.0334C33.2604 10.8101 32.2177 8.74952 30.5597 7.2511C28.9017 5.75268 26.7465 4.92308 24.5117 4.92308C22.277 4.92308 20.1218 5.75268 18.4638 7.2511C16.8058 8.74952 15.7631 10.8101 15.5377 13.0334C15.3124 15.2568 15.9204 17.4847 17.244 19.2853C18.5675 21.086 20.5124 22.3312 22.7017 22.7796L22.3017 24.7796Z" fill="#30363D"/>
<path d="M25.5 11.58H27.52L20.5 17L23.48 12.42H21.48L28.5 7L25.5 11.58Z" fill="#30363D"/>
<path d="M34.5 45V43C35.2956 43 36.0587 42.6839 36.6213 42.1213C37.1839 41.5587 37.5 40.7956 37.5 40V32C37.5 31.7348 37.3946 31.4804 37.2071 31.2929C37.0196 31.1054 36.7652 31 36.5 31C36.2348 31 35.9804 31.1054 35.7929 31.2929C35.6054 31.4804 35.5 31.7348 35.5 32H33.5V30C33.5 29.7348 33.3946 29.4804 33.2071 29.2929C33.0196 29.1054 32.7652 29 32.5 29C32.2348 29 31.9804 29.1054 31.7929 29.2929C31.6054 29.4804 31.5 29.7348 31.5 30H29.5V28C29.5 27.7348 29.3946 27.4804 29.2071 27.2929C29.0196 27.1054 28.7652 27 28.5 27C28.2348 27 27.9804 27.1054 27.7929 27.2929C27.6054 27.4804 27.5 27.7348 27.5 28H25.5V20C25.5 19.7348 25.3946 19.4804 25.2071 19.2929C25.0196 19.1054 24.7652 19 24.5 19C24.2348 19 23.9804 19.1054 23.7929 19.2929C23.6054 19.4804 23.5 19.7348 23.5 20V32H21.5C21.5 31.7348 21.3946 31.4804 21.2071 31.2929C21.0196 31.1054 20.7652 31 20.5 31C20.2348 31 19.9804 31.1054 19.7929 31.2929C19.6054 31.4804 19.5 31.7348 19.5 32V40C19.5052 40.794 19.823 41.5541 20.3845 42.1155C20.9459 42.677 21.706 42.9948 22.5 43H24.5V45H22.5C21.1755 44.9947 19.9068 44.4663 18.9703 43.5297C18.0337 42.5932 17.5053 41.3245 17.5 40V32C17.5 31.2044 17.8161 30.4413 18.3787 29.8787C18.9413 29.3161 19.7044 29 20.5 29C20.8416 28.9981 21.1806 29.0591 21.5 29.18V20C21.5 19.2044 21.8161 18.4413 22.3787 17.8787C22.9413 17.3161 23.7044 17 24.5 17C25.2956 17 26.0587 17.3161 26.6213 17.8787C27.1839 18.4413 27.5 19.2044 27.5 20V25.18C27.8199 25.0608 28.1586 24.9998 28.5 25C29.1595 25.0026 29.8 25.2211 30.3236 25.622C30.8473 26.0228 31.2253 26.5841 31.4 27.22C31.7484 27.0743 32.1224 26.9995 32.5 27C33.1517 27.0013 33.7852 27.2147 34.3049 27.608C34.8245 28.0013 35.2019 28.5531 35.38 29.18C35.8382 28.9956 36.3349 28.9271 36.8259 28.9807C37.3169 29.0344 37.7871 29.2084 38.1947 29.4874C38.6023 29.7664 38.9347 30.1417 39.1624 30.58C39.3901 31.0183 39.5061 31.5061 39.5 32V40C39.5 41.3261 38.9732 42.5979 38.0355 43.5355C37.0979 44.4732 35.8261 45 34.5 45Z" fill="#30363D"/>
<path d="M35.5 31.9609H33.5V34.0009H35.5V31.9609Z" fill="#30363D"/>
<path d="M23.5 31.9609H21.5V35.9809H23.5V31.9609Z" fill="#30363D"/>
<path d="M23.5 31.9609H21.5V34.0009H23.5V31.9609Z" fill="#30363D"/>
<path d="M27.5 28H25.5V34H27.5V28Z" fill="#30363D"/>
<path d="M27.5 28H25.5V34H27.5V28Z" fill="#30363D"/>
<path d="M31.5 30H29.5V34H31.5V30Z" fill="#30363D"/>
<path d="M31.5 30H29.5V34H31.5V30Z" fill="#30363D"/>
<path d="M35.5 31.9609H33.5V34.0009H35.5V31.9609Z" fill="#30363D"/>
<path d="M40.5 13H36.5V15H40.5V13Z" fill="#30363D"/>
<path d="M36.1176 17.1597L35.4336 19.0391L39.1924 20.4071L39.8764 18.5278L36.1176 17.1597Z" fill="#30363D"/>
<path d="M39.1926 7.59742L35.4336 8.96484L36.1173 10.8443L39.8763 9.47692L39.1926 7.59742Z" fill="#30363D"/>
<path d="M12.5 13H8.5V15H12.5V13Z" fill="#30363D"/>
<path d="M12.8645 17.1599L9.10547 18.5273L9.78918 20.4068L13.5482 19.0394L12.8645 17.1599Z" fill="#30363D"/>
<path d="M9.81295 7.60304L9.12891 9.48242L12.8877 10.8505L13.5717 8.97112L9.81295 7.60304Z" fill="#30363D"/>
</g>
</g>
<defs>
<clipPath id="clip0_23532_143932">
<rect width="48" height="48" fill="white" transform="translate(0.5)"/>
</clipPath>
<clipPath id="clip1_23532_143932">
<rect width="32" height="42" fill="white" transform="translate(8.5 3)"/>
</clipPath>
</defs>
</svg>
