<svg width="48" height="48" viewBox="0 0 48 48" fill="none" xmlns="http://www.w3.org/2000/svg">
<path d="M34.4328 43.5923H13.5631C13.4572 43.5923 13.3555 43.5511 13.2796 43.4774C13.2036 43.4036 13.1594 43.3032 13.1562 43.1974V6.26852C13.1604 6.20604 13.1775 6.14508 13.2063 6.08948C13.2351 6.03389 13.2751 5.98484 13.3238 5.94543C13.3801 5.91961 13.4413 5.90625 13.5033 5.90625C13.5652 5.90625 13.6265 5.91961 13.6828 5.94543L34.5525 12.3715C34.6345 12.3954 34.7062 12.4462 34.756 12.5155C34.8059 12.5849 34.8311 12.669 34.8277 12.7544V43.1974C34.8277 43.3021 34.7861 43.4025 34.712 43.4766C34.638 43.5507 34.5375 43.5923 34.4328 43.5923V43.5923ZM13.97 42.8144H34.0259V12.9937L13.97 6.81899V42.8144Z" fill="black"/>
<path d="M32.8328 12.2882C32.727 12.2883 32.6253 12.2471 32.5493 12.1733C32.4733 12.0996 32.4291 11.9991 32.426 11.8933V9.08118H21.6561C21.5976 9.09132 21.5377 9.08855 21.4804 9.07308C21.4232 9.0576 21.37 9.0298 21.3246 8.99161C21.2792 8.95342 21.2427 8.90576 21.2177 8.85199C21.1927 8.79821 21.1797 8.73962 21.1797 8.6803C21.1797 8.62099 21.1927 8.56239 21.2177 8.50861C21.2427 8.45484 21.2792 8.40719 21.3246 8.36899C21.37 8.3308 21.4232 8.303 21.4804 8.28752C21.5377 8.27205 21.5976 8.26929 21.6561 8.27942H32.8927C32.9974 8.27942 33.0979 8.32103 33.1719 8.39508C33.246 8.46914 33.2876 8.56958 33.2876 8.67432V11.8933C33.2882 11.9506 33.2764 12.0074 33.2529 12.0597C33.2295 12.1119 33.1949 12.1585 33.1516 12.196C33.1084 12.2336 33.0574 12.2613 33.0024 12.2772C32.9473 12.2932 32.8895 12.2969 32.8328 12.2882V12.2882Z" fill="black"/>
<path d="M17.5723 13.4961H15.9688V16.7031H17.5723V13.4961Z" fill="black"/>
<path d="M19.9785 13.4961H18.375V16.7031H19.9785V13.4961Z" fill="black"/>
<path d="M22.4004 13.4961H20.7969V16.7031H22.4004V13.4961Z" fill="black"/>
<path d="M17.5723 9.48828H15.9688V12.6953H17.5723V9.48828Z" fill="black"/>
<path d="M19.9785 9.48828H18.375V12.6953H19.9785V9.48828Z" fill="black"/>
<path d="M24.7988 13.4961H23.1953V16.7031H24.7988V13.4961Z" fill="black"/>
<path d="M27.2051 13.4961H25.6016V16.7031H27.2051V13.4961Z" fill="black"/>
<path d="M17.5723 17.5059H15.9688V20.7129H17.5723V17.5059Z" fill="black"/>
<path d="M19.9785 17.5059H18.375V20.7129H19.9785V17.5059Z" fill="black"/>
<path d="M22.4004 17.5059H20.7969V20.7129H22.4004V17.5059Z" fill="black"/>
<path d="M24.7988 17.5059H23.1953V20.7129H24.7988V17.5059Z" fill="black"/>
<path d="M27.2051 17.5059H25.6016V20.7129H27.2051V17.5059Z" fill="black"/>
<path d="M17.5723 21.5254H15.9688V24.7324H17.5723V21.5254Z" fill="black"/>
<path d="M19.9785 21.5254H18.375V24.7324H19.9785V21.5254Z" fill="black"/>
<path d="M22.4004 21.5254H20.7969V24.7324H22.4004V21.5254Z" fill="black"/>
<path d="M24.7988 21.5254H23.1953V24.7324H24.7988V21.5254Z" fill="black"/>
<path d="M27.2051 21.5254H25.6016V24.7324H27.2051V21.5254Z" fill="black"/>
<path d="M17.5723 25.5352H15.9688V28.7422H17.5723V25.5352Z" fill="black"/>
<path d="M19.9785 25.5352H18.375V28.7422H19.9785V25.5352Z" fill="black"/>
<path d="M22.4004 25.5352H20.7969V28.7422H22.4004V25.5352Z" fill="black"/>
<path d="M24.7988 25.5352H23.1953V28.7422H24.7988V25.5352Z" fill="black"/>
<path d="M27.2051 25.5352H25.6016V28.7422H27.2051V25.5352Z" fill="black"/>
<path d="M17.5723 29.543H15.9688V32.75H17.5723V29.543Z" fill="black"/>
<path d="M19.9785 29.543H18.375V32.75H19.9785V29.543Z" fill="black"/>
<path d="M22.4004 29.543H20.7969V32.75H22.4004V29.543Z" fill="black"/>
<path d="M24.7988 29.543H23.1953V32.75H24.7988V29.543Z" fill="black"/>
<path d="M27.2051 29.543H25.6016V32.75H27.2051V29.543Z" fill="black"/>
<path d="M29.6113 13.4961H28.0078V16.7031H29.6113V13.4961Z" fill="black"/>
<path d="M29.6113 17.5059H28.0078V20.7129H29.6113V17.5059Z" fill="black"/>
<path d="M29.6113 21.5254H28.0078V24.7324H29.6113V21.5254Z" fill="black"/>
<path d="M29.6113 25.5352H28.0078V28.7422H29.6113V25.5352Z" fill="black"/>
<path d="M29.6113 29.543H28.0078V32.75H29.6113V29.543Z" fill="black"/>
<path d="M32.0254 13.4961H30.4219V16.7031H32.0254V13.4961Z" fill="black"/>
<path d="M32.0254 17.5059H30.4219V20.7129H32.0254V17.5059Z" fill="black"/>
<path d="M32.0254 21.5254H30.4219V24.7324H32.0254V21.5254Z" fill="black"/>
<path d="M32.0254 25.5352H30.4219V28.7422H32.0254V25.5352Z" fill="black"/>
<path d="M32.0254 29.543H30.4219V32.75H32.0254V29.543Z" fill="black"/>
<path d="M28.0104 43.5931H19.9928C19.8869 43.5931 19.7852 43.5519 19.7093 43.4781C19.6333 43.4044 19.5891 43.304 19.5859 43.1982V35.1686C19.5859 35.1152 19.5965 35.0622 19.6169 35.0129C19.6374 34.9635 19.6673 34.9187 19.7051 34.8809C19.7429 34.8431 19.7877 34.8131 19.8371 34.7927C19.8865 34.7722 19.9394 34.7617 19.9928 34.7617H28.0104C28.0638 34.7617 28.1167 34.7722 28.1661 34.7927C28.2155 34.8131 28.2603 34.8431 28.2981 34.8809C28.3359 34.9187 28.3658 34.9635 28.3863 35.0129C28.4067 35.0622 28.4173 35.1152 28.4173 35.1686V43.1982C28.4141 43.304 28.3699 43.4044 28.2939 43.4781C28.218 43.5519 28.1163 43.5931 28.0104 43.5931V43.5931ZM20.3877 42.8152H27.5676V35.6353H20.3877V42.8152Z" fill="black"/>
<path d="M24.7987 39.5831H23.1951C23.1367 39.5933 23.0767 39.5905 23.0195 39.575C22.9622 39.5596 22.909 39.5318 22.8636 39.4936C22.8183 39.4554 22.7818 39.4077 22.7567 39.3539C22.7317 39.3002 22.7188 39.2416 22.7188 39.1823C22.7188 39.1229 22.7317 39.0643 22.7567 39.0106C22.7818 38.9568 22.8183 38.9091 22.8636 38.8709C22.909 38.8328 22.9622 38.805 23.0195 38.7895C23.0767 38.774 23.1367 38.7712 23.1951 38.7814H24.7987C24.8571 38.7712 24.917 38.774 24.9743 38.7895C25.0316 38.805 25.0848 38.8328 25.1301 38.8709C25.1755 38.9091 25.212 38.9568 25.237 39.0106C25.2621 39.0643 25.275 39.1229 25.275 39.1823C25.275 39.2416 25.2621 39.3002 25.237 39.3539C25.212 39.4077 25.1755 39.4554 25.1301 39.4936C25.0848 39.5318 25.0316 39.5596 24.9743 39.575C24.917 39.5905 24.8571 39.5933 24.7987 39.5831V39.5831Z" fill="black"/>
<path d="M40.0504 43.5918H34.4381C34.3322 43.5919 34.2305 43.5506 34.1546 43.4769C34.0786 43.4032 34.0344 43.3027 34.0312 43.1969V18.3065C34.0335 18.2406 34.0509 18.1761 34.082 18.1181C34.1132 18.06 34.1572 18.0098 34.2107 17.9714C34.2693 17.9389 34.3352 17.9219 34.4022 17.9219C34.4692 17.9219 34.5351 17.9389 34.5937 17.9714L40.218 20.3647C40.2903 20.3957 40.3517 20.4475 40.3943 20.5136C40.4369 20.5797 40.4589 20.657 40.4573 20.7357V43.1969C40.4542 43.3027 40.4099 43.4032 40.334 43.4769C40.258 43.5506 40.1563 43.5919 40.0504 43.5918ZM34.833 42.814H39.6196V20.987L34.833 18.9168V42.814Z" fill="black"/>
<path d="M13.5661 43.5922H7.94185C7.83712 43.5922 7.73668 43.5506 7.66262 43.4766C7.58856 43.4025 7.54696 43.3021 7.54696 43.1973V20.7241C7.54537 20.6455 7.5673 20.5682 7.60994 20.5021C7.65258 20.436 7.71399 20.3841 7.78629 20.3532L13.4106 17.9599C13.467 17.9273 13.5309 17.9102 13.5961 17.9102C13.6612 17.9102 13.7251 17.9273 13.7815 17.9599C13.8387 17.9955 13.8861 18.0448 13.9195 18.1032C13.9529 18.1617 13.9713 18.2276 13.973 18.2949V43.1854C13.973 43.2933 13.9301 43.3968 13.8538 43.4731C13.7775 43.5494 13.674 43.5922 13.5661 43.5922ZM8.34872 42.8144H13.1353V18.8813L8.34872 20.9515V42.8144Z" fill="black"/>
<path d="M41.6627 43.5928H6.33734C6.2429 43.5764 6.15727 43.5272 6.09556 43.4539C6.03384 43.3805 6 43.2877 6 43.1919C6 43.096 6.03384 43.0033 6.09556 42.9299C6.15727 42.8566 6.2429 42.8074 6.33734 42.791H41.6627C41.7571 42.8074 41.8427 42.8566 41.9044 42.9299C41.9662 43.0033 42 43.096 42 43.1919C42 43.2877 41.9662 43.3805 41.9044 43.4539C41.8427 43.5272 41.7571 43.5764 41.6627 43.5928Z" fill="black"/>
</svg>
