<svg width="48" height="48" viewBox="0 0 48 48" fill="none" xmlns="http://www.w3.org/2000/svg">
<path d="M21.7978 24.7796C19.1283 24.2321 16.757 22.7132 15.1435 20.5172C13.5299 18.3212 12.7889 15.6044 13.0641 12.8932C13.3392 10.1821 14.6109 7.66955 16.6328 5.84249C18.6547 4.01543 21.2827 3.00391 24.0078 3.00391C26.7329 3.00391 29.361 4.01543 31.3829 5.84249C33.4048 7.66955 34.6765 10.1821 34.9516 12.8932C35.2268 15.6044 34.4858 18.3212 32.8722 20.5172C31.2586 22.7132 28.8874 24.2321 26.2178 24.7796L25.8178 22.7796C28.0071 22.3312 29.952 21.086 31.2756 19.2853C32.5992 17.4847 33.2072 15.2568 32.9819 13.0334C32.7565 10.8101 31.7138 8.74952 30.0558 7.2511C28.3978 5.75268 26.2426 4.92308 24.0078 4.92308C21.7731 4.92308 19.6179 5.75268 17.9599 7.2511C16.3019 8.74952 15.2592 10.8101 15.0338 13.0334C14.8085 15.2568 15.4165 17.4847 16.7401 19.2853C18.0636 21.086 20.0085 22.3312 22.1978 22.7796L21.7978 24.7796Z" fill="#4F4F4F"/>
<path d="M25 11.58H27.02L20 17L22.98 12.42H20.98L28 7L25 11.58Z" fill="#4F4F4F"/>
<path d="M34 45V43C34.7956 43 35.5587 42.6839 36.1213 42.1213C36.6839 41.5587 37 40.7956 37 40V32C37 31.7348 36.8946 31.4804 36.7071 31.2929C36.5196 31.1054 36.2652 31 36 31C35.7348 31 35.4804 31.1054 35.2929 31.2929C35.1054 31.4804 35 31.7348 35 32H33V30C33 29.7348 32.8946 29.4804 32.7071 29.2929C32.5196 29.1054 32.2652 29 32 29C31.7348 29 31.4804 29.1054 31.2929 29.2929C31.1054 29.4804 31 29.7348 31 30H29V28C29 27.7348 28.8946 27.4804 28.7071 27.2929C28.5196 27.1054 28.2652 27 28 27C27.7348 27 27.4804 27.1054 27.2929 27.2929C27.1054 27.4804 27 27.7348 27 28H25V20C25 19.7348 24.8946 19.4804 24.7071 19.2929C24.5196 19.1054 24.2652 19 24 19C23.7348 19 23.4804 19.1054 23.2929 19.2929C23.1054 19.4804 23 19.7348 23 20V32H21C21 31.7348 20.8946 31.4804 20.7071 31.2929C20.5196 31.1054 20.2652 31 20 31C19.7348 31 19.4804 31.1054 19.2929 31.2929C19.1054 31.4804 19 31.7348 19 32V40C19.0052 40.794 19.323 41.5541 19.8845 42.1155C20.4459 42.677 21.206 42.9948 22 43H24V45H22C20.6755 44.9947 19.4068 44.4663 18.4703 43.5297C17.5337 42.5932 17.0053 41.3245 17 40V32C17 31.2044 17.3161 30.4413 17.8787 29.8787C18.4413 29.3161 19.2044 29 20 29C20.3416 28.9981 20.6806 29.0591 21 29.18V20C21 19.2044 21.3161 18.4413 21.8787 17.8787C22.4413 17.3161 23.2044 17 24 17C24.7956 17 25.5587 17.3161 26.1213 17.8787C26.6839 18.4413 27 19.2044 27 20V25.18C27.3199 25.0608 27.6586 24.9998 28 25C28.6595 25.0026 29.3 25.2211 29.8236 25.622C30.3473 26.0228 30.7253 26.5841 30.9 27.22C31.2484 27.0743 31.6224 26.9995 32 27C32.6517 27.0013 33.2852 27.2147 33.8049 27.608C34.3245 28.0013 34.7019 28.5531 34.88 29.18C35.3382 28.9956 35.8349 28.9271 36.3259 28.9807C36.8169 29.0344 37.2871 29.2084 37.6947 29.4874C38.1023 29.7664 38.4347 30.1417 38.6624 30.58C38.8901 31.0183 39.0061 31.5061 39 32V40C39 41.3261 38.4732 42.5979 37.5355 43.5355C36.5979 44.4732 35.3261 45 34 45Z" fill="#4F4F4F"/>
<path d="M35 31.9609H33V34.0009H35V31.9609Z" fill="#4F4F4F"/>
<path d="M23 31.9609H21V35.9809H23V31.9609Z" fill="#4F4F4F"/>
<path d="M23 31.9609H21V34.0009H23V31.9609Z" fill="#4F4F4F"/>
<path d="M27 28H25V34H27V28Z" fill="#4F4F4F"/>
<path d="M27 28H25V34H27V28Z" fill="#4F4F4F"/>
<path d="M31 30H29V34H31V30Z" fill="#4F4F4F"/>
<path d="M31 30H29V34H31V30Z" fill="#4F4F4F"/>
<path d="M35 31.9609H33V34.0009H35V31.9609Z" fill="#4F4F4F"/>
<path d="M40 13H36V15H40V13Z" fill="#4F4F4F"/>
<path d="M35.6215 17.1597L34.9375 19.0391L38.6963 20.4071L39.3803 18.5278L35.6215 17.1597Z" fill="#4F4F4F"/>
<path d="M38.6887 7.59742L34.9297 8.96484L35.6134 10.8443L39.3724 9.47692L38.6887 7.59742Z" fill="#4F4F4F"/>
<path d="M12 13H8V15H12V13Z" fill="#4F4F4F"/>
<path d="M12.3684 17.1599L8.60938 18.5273L9.29309 20.4068L13.0521 19.0394L12.3684 17.1599Z" fill="#4F4F4F"/>
<path d="M9.31685 7.60304L8.63281 9.48242L12.3916 10.8505L13.0756 8.97112L9.31685 7.60304Z" fill="#4F4F4F"/>
</svg>
