<svg width="48" height="48" viewBox="0 0 48 48" fill="none" xmlns="http://www.w3.org/2000/svg">
<path d="M41.3854 39.6594H37.1481C37.0535 39.6459 36.966 39.6013 36.8996 39.5326C36.8332 39.4639 36.7915 39.375 36.7812 39.28V13.7799C36.7822 13.7049 36.8028 13.6315 36.841 13.5669C36.8791 13.5023 36.9335 13.4488 36.9987 13.4117C37.0639 13.3746 37.1377 13.3552 37.2127 13.3555C37.2877 13.3557 37.3614 13.3756 37.4263 13.4131L41.6637 15.9429C41.7265 15.979 41.7791 16.0304 41.8167 16.0924C41.8543 16.1543 41.8756 16.2247 41.8787 16.297V39.28C41.863 39.3954 41.8024 39.5 41.71 39.571C41.6177 39.642 41.501 39.6738 41.3854 39.6594V39.6594ZM37.5908 38.812H40.9554V16.5121L37.5655 14.4756L37.5908 38.812Z" fill="black"/>
<path d="M26.9691 15.9045C26.8675 15.9037 26.7692 15.868 26.6908 15.8033C26.645 15.7614 26.6079 15.7106 26.5819 15.6542C26.5558 15.5977 26.5412 15.5366 26.5391 15.4745V4.44468C26.5416 4.36574 26.5653 4.28893 26.6075 4.2222C26.6498 4.15548 26.7091 4.10128 26.7794 4.06521C26.8477 4.02259 26.9266 4 27.0071 4C27.0876 4 27.1665 4.02259 27.2348 4.06521L31.4721 7.4551C31.5231 7.4963 31.5643 7.54831 31.5927 7.60737C31.6212 7.66643 31.6361 7.73107 31.6366 7.79662V14.7155C31.6377 14.8161 31.6025 14.9137 31.5375 14.9904C31.4724 15.0671 31.3818 15.1177 31.2824 15.1329L27.0324 15.8413L26.9691 15.9045ZM27.3865 5.3301V14.9812L30.7891 14.412V8.08754L27.3865 5.3301Z" fill="black"/>
<path d="M16.788 39.6596H9.99555C9.8837 39.6563 9.77753 39.6095 9.6996 39.5292C9.62166 39.4489 9.57809 39.3414 9.57814 39.2295V13.7801C9.5776 13.7119 9.59378 13.6446 9.62527 13.5841C9.65675 13.5236 9.70257 13.4717 9.75874 13.433C9.8149 13.3944 9.87968 13.37 9.94743 13.3622C10.0152 13.3543 10.0838 13.3632 10.1473 13.388L16.9397 15.9177C17.0185 15.9485 17.0861 16.0024 17.1336 16.0725C17.181 16.1425 17.206 16.2253 17.2054 16.3098V39.2801C17.1932 39.3831 17.1443 39.4781 17.0676 39.5479C16.9909 39.6176 16.8916 39.6573 16.788 39.6596V39.6596ZM10.4636 38.8121H16.3958V16.6261L10.4636 14.3872V38.8121Z" fill="black"/>
<path d="M9.99183 39.6584H6.60194C6.49612 39.6592 6.39376 39.6209 6.31441 39.5509C6.23507 39.4808 6.18432 39.384 6.17188 39.279V16.3213C6.1738 16.2547 6.19072 16.1894 6.22138 16.1303C6.25204 16.0712 6.29565 16.0197 6.34896 15.9798L9.73885 13.45C9.80571 13.4099 9.88223 13.3887 9.96021 13.3887C10.0382 13.3887 10.1147 13.4099 10.1816 13.45C10.2536 13.4838 10.3145 13.5374 10.3571 13.6047C10.3997 13.6719 10.4222 13.7499 10.4219 13.8295V39.279C10.4094 39.384 10.3587 39.4808 10.2794 39.5509C10.2 39.6209 10.0976 39.6592 9.99183 39.6584V39.6584ZM7.01935 38.811H9.54912V14.6264L7.01935 16.5363V38.811Z" fill="black"/>
<path d="M20.1715 39.6598H16.7816C16.6676 39.6598 16.5582 39.6145 16.4775 39.5339C16.3969 39.4532 16.3516 39.3438 16.3516 39.2298V9.0876C16.353 9.00517 16.3775 8.92479 16.4222 8.85551C16.4669 8.78623 16.53 8.73081 16.6045 8.69549L26.7868 4.06602C26.8488 4.03169 26.9184 4.01367 26.9892 4.01367C27.06 4.01367 27.1297 4.03169 27.1916 4.06602C27.2489 4.1059 27.296 4.15878 27.329 4.22034C27.3619 4.28189 27.3799 4.35037 27.3813 4.42018V34.9924C27.3813 35.1031 27.3374 35.2093 27.2591 35.2876C27.1808 35.3659 27.0746 35.4098 26.9639 35.4098H20.6395V39.2045C20.6434 39.2664 20.6339 39.3284 20.6116 39.3863C20.5892 39.4442 20.5547 39.4965 20.5102 39.5398C20.4658 39.583 20.4125 39.6162 20.354 39.6369C20.2955 39.6576 20.2333 39.6654 20.1715 39.6598V39.6598ZM17.199 38.8124H19.7288V35.0177C19.7288 34.9058 19.7723 34.7983 19.8503 34.718C19.9282 34.6377 20.0344 34.5909 20.1462 34.5877H26.4706V5.12852L17.1358 9.39118L17.199 38.8124Z" fill="black"/>
<path d="M37.1447 39.6583H33.7422C33.6303 39.655 33.5242 39.6083 33.4462 39.528C33.3683 39.4477 33.3247 39.3401 33.3248 39.2282V35.4336H27.0004C26.8885 35.4336 26.781 35.3901 26.7007 35.3121C26.6204 35.2342 26.5736 35.128 26.5703 35.0162V15.4737C26.5717 15.3738 26.6078 15.2776 26.6724 15.2014C26.737 15.1252 26.8262 15.0739 26.9245 15.0563L37.0435 13.3614C37.1034 13.3494 37.1653 13.3511 37.2244 13.3665C37.2836 13.3818 37.3385 13.4103 37.385 13.4499C37.4327 13.4904 37.471 13.5408 37.4972 13.5976C37.5234 13.6544 37.537 13.7162 37.5368 13.7788V39.2788C37.5254 39.3777 37.4801 39.4695 37.4086 39.5387C37.3371 39.6079 37.2439 39.6502 37.1447 39.6583V39.6583ZM34.1722 38.8108H36.702V14.2847L27.3672 15.8405V34.5608H33.6916C33.7481 34.5608 33.804 34.5719 33.8562 34.5936C33.9083 34.6152 33.9557 34.6468 33.9957 34.6868C34.0356 34.7267 34.0673 34.7741 34.0889 34.8263C34.1105 34.8785 34.1216 34.9344 34.1216 34.9909L34.1722 38.8108Z" fill="black"/>
<path d="M33.7474 43.8954H20.1752C20.0645 43.8954 19.9583 43.8514 19.8801 43.7731C19.8018 43.6948 19.7578 43.5887 19.7578 43.478V34.9906C19.7578 34.8787 19.8013 34.7712 19.8793 34.6909C19.9572 34.6106 20.0634 34.5638 20.1752 34.5605H33.7474C33.8039 34.5605 33.8598 34.5717 33.912 34.5933C33.9642 34.6149 34.0116 34.6466 34.0515 34.6865C34.0915 34.7264 34.1231 34.7739 34.1447 34.826C34.1664 34.8782 34.1775 34.9341 34.1775 34.9906V43.478C34.1742 43.5898 34.1274 43.696 34.0471 43.7739C33.9668 43.8519 33.8593 43.8954 33.7474 43.8954ZM20.6053 43.0732H33.33V35.4839H20.6053V43.0732Z" fill="black"/>
<path d="M42.2328 43.8968H5.75354C5.69177 43.9075 5.6284 43.9046 5.56787 43.8882C5.50735 43.8718 5.45113 43.8424 5.40316 43.8021C5.35519 43.7617 5.31662 43.7113 5.29017 43.6545C5.26371 43.5977 5.25 43.5357 5.25 43.473C5.25 43.4103 5.26371 43.3484 5.29017 43.2916C5.31662 43.2347 5.35519 43.1843 5.40316 43.144C5.45113 43.1036 5.50735 43.0742 5.56787 43.0579C5.6284 43.0415 5.69177 43.0386 5.75354 43.0493H42.2328C42.2946 43.0386 42.3579 43.0415 42.4185 43.0579C42.479 43.0742 42.5352 43.1036 42.5832 43.144C42.6312 43.1843 42.6697 43.2347 42.6962 43.2916C42.7226 43.3484 42.7363 43.4103 42.7363 43.473C42.7363 43.5357 42.7226 43.5977 42.6962 43.6545C42.6697 43.7113 42.6312 43.7617 42.5832 43.8021C42.5352 43.8424 42.479 43.8718 42.4185 43.8882C42.3579 43.9046 42.2946 43.9075 42.2328 43.8968Z" fill="black"/>
<path d="M21.0231 10.3887H19.3281V13.7786H21.0231V10.3887Z" fill="black"/>
<path d="M23.5621 10.3887H21.8672V13.7786H23.5621V10.3887Z" fill="black"/>
<path d="M21.0231 14.627H19.3281V18.0168H21.0231V14.627Z" fill="black"/>
<path d="M23.5621 14.627H21.8672V18.0168H23.5621V14.627Z" fill="black"/>
<path d="M21.0231 18.877H19.3281V22.2668H21.0231V18.877Z" fill="black"/>
<path d="M23.5621 18.877H21.8672V22.2668H23.5621V18.877Z" fill="black"/>
<path d="M21.0231 23.1152H19.3281V26.5051H21.0231V23.1152Z" fill="black"/>
<path d="M14.2262 18.877H12.5312V22.2668H14.2262V18.877Z" fill="black"/>
<path d="M14.2262 23.1152H12.5312V26.5051H14.2262V23.1152Z" fill="black"/>
<path d="M14.2262 27.3516H12.5312V30.7414H14.2262V27.3516Z" fill="black"/>
<path d="M14.2262 31.6016H12.5312V34.9915H14.2262V31.6016Z" fill="black"/>
<path d="M23.5621 23.1152H21.8672V26.5051H23.5621V23.1152Z" fill="black"/>
<path d="M30.359 17.1699H28.6641V19.7123H30.359V17.1699Z" fill="black"/>
<path d="M32.8981 17.1699H31.2031V19.7123H32.8981V17.1699Z" fill="black"/>
<path d="M35.4371 17.1699H33.7422V19.7123H35.4371V17.1699Z" fill="black"/>
<path d="M30.359 20.5723H28.6641V23.1147H30.359V20.5723Z" fill="black"/>
<path d="M32.8981 20.5723H31.2031V23.1147H32.8981V20.5723Z" fill="black"/>
<path d="M35.4371 20.5723H33.7422V23.1147H35.4371V20.5723Z" fill="black"/>
<path d="M30.359 23.9609H28.6641V26.5033H30.359V23.9609Z" fill="black"/>
<path d="M32.8981 23.9609H31.2031V26.5033H32.8981V23.9609Z" fill="black"/>
<path d="M35.4371 23.9609H33.7422V26.5033H35.4371V23.9609Z" fill="black"/>
<path d="M30.359 27.3516H28.6641V29.894H30.359V27.3516Z" fill="black"/>
<path d="M32.8981 27.3516H31.2031V29.894H32.8981V27.3516Z" fill="black"/>
<path d="M30.359 30.7539H28.6641V33.2963H30.359V30.7539Z" fill="black"/>
<path d="M21.0231 27.3516H19.3281V30.7414H21.0231V27.3516Z" fill="black"/>
<path d="M31.2061 36.6855H22.7188V38.3805H31.2061V36.6855Z" fill="black"/>
<path d="M31.2061 39.2285H22.7188V40.9235H31.2061V39.2285Z" fill="black"/>
<path d="M20.1775 43.8956H8.30022C8.18952 43.8956 8.08335 43.8516 8.00507 43.7733C7.92679 43.695 7.88281 43.5889 7.88281 43.4782V39.2787C7.88281 39.168 7.92679 39.0619 8.00507 38.9836C8.08335 38.9053 8.18952 38.8613 8.30022 38.8613H20.1775C20.2894 38.8613 20.3969 38.9049 20.4772 38.9828C20.5575 39.0607 20.6043 39.1669 20.6075 39.2787V43.5287C20.5923 43.6315 20.5403 43.7253 20.4612 43.7927C20.3822 43.8602 20.2814 43.8967 20.1775 43.8956V43.8956ZM8.79353 43.0481H19.8233V39.6582H8.73029L8.79353 43.0481Z" fill="black"/>
<path d="M38.0472 43.8972C37.9353 43.8973 37.8278 43.8537 37.7475 43.7758C37.6672 43.6978 37.6205 43.5917 37.6172 43.4798V39.2804C37.6345 39.1806 37.6865 39.0901 37.764 39.0248C37.8415 38.9596 37.9396 38.9238 38.0409 38.9238C38.1422 38.9238 38.2403 38.9596 38.3178 39.0248C38.3954 39.0901 38.4474 39.1806 38.4647 39.2804V43.5304C38.4522 43.6321 38.4028 43.7257 38.3259 43.7934C38.2489 43.861 38.1497 43.898 38.0472 43.8972V43.8972Z" fill="black"/>
</svg>
