<svg width="49" height="48" viewBox="0 0 49 48" fill="none" xmlns="http://www.w3.org/2000/svg">
<g clip-path="url(#clip0_793_5146)">
<path d="M24.5 27C23.1155 27 21.7622 26.5895 20.611 25.8203C19.4599 25.0511 18.5627 23.9579 18.0328 22.6788C17.503 21.3997 17.3644 19.9922 17.6345 18.6344C17.9046 17.2765 18.5713 16.0292 19.5503 15.0503C20.5292 14.0713 21.7765 13.4046 23.1344 13.1345C24.4922 12.8644 25.8997 13.003 27.1788 13.5328C28.4579 14.0627 29.5511 14.9599 30.3203 16.111C31.0895 17.2622 31.5 18.6155 31.5 20C31.5 21.8565 30.7625 23.637 29.4498 24.9497C28.137 26.2625 26.3565 27 24.5 27V27ZM24.5 15C23.5111 15 22.5444 15.2932 21.7222 15.8427C20.8999 16.3921 20.259 17.173 19.8806 18.0866C19.5022 19.0002 19.4032 20.0056 19.5961 20.9755C19.789 21.9454 20.2652 22.8363 20.9645 23.5355C21.6637 24.2348 22.5546 24.711 23.5246 24.9039C24.4945 25.0969 25.4998 24.9978 26.4134 24.6194C27.3271 24.241 28.1079 23.6001 28.6574 22.7779C29.2068 21.9556 29.5 20.9889 29.5 20C29.5 18.6739 28.9732 17.4022 28.0355 16.4645C27.0979 15.5268 25.8261 15 24.5 15V15Z" fill="#4F4F4F"/>
<path d="M26.5034 19.8398L27.9834 21.8198L25.5034 21.5598L24.5034 23.8198L23.5034 21.5598L21.0234 21.8198L22.5034 19.8398L21.0234 17.8398L23.5034 18.0998L24.5034 15.8398L25.5034 18.0998L27.9834 17.8398L26.5034 19.8398Z" fill="#4F4F4F"/>
<path d="M28.5 32.8409C28.3388 32.8419 28.1802 32.8005 28.04 32.7209L24.62 30.9409L20.94 32.7409C20.7887 32.8198 20.6206 32.861 20.45 32.861C20.2794 32.861 20.1113 32.8198 19.96 32.7409C19.8192 32.6506 19.7033 32.5263 19.6229 32.3796C19.5425 32.2328 19.5003 32.0683 19.5 31.9009V24.4609H21.5V30.2409L24.2 28.9209C24.3412 28.8562 24.4947 28.8227 24.65 28.8227C24.8053 28.8227 24.9588 28.8562 25.1 28.9209L27.5 30.1609V24.4609H29.5V31.8409C29.4901 32.103 29.3816 32.3516 29.1961 32.5371C29.0107 32.7225 28.7621 32.831 28.5 32.8409V32.8409Z" fill="#4F4F4F"/>
<path d="M10.5 33C9.70435 33 8.94129 32.6839 8.37868 32.1213C7.81607 31.5587 7.5 30.7956 7.5 30V22C7.5 21.2044 7.81607 20.4413 8.37868 19.8787C8.94129 19.3161 9.70435 19 10.5 19C11.2956 19 12.0587 19.3161 12.6213 19.8787C13.1839 20.4413 13.5 21.2044 13.5 22V30C13.5 30.7956 13.1839 31.5587 12.6213 32.1213C12.0587 32.6839 11.2956 33 10.5 33ZM10.5 21C10.2348 21 9.98043 21.1054 9.79289 21.2929C9.60536 21.4804 9.5 21.7348 9.5 22V30C9.5 30.2652 9.60536 30.5196 9.79289 30.7071C9.98043 30.8946 10.2348 31 10.5 31C10.7652 31 11.0196 30.8946 11.2071 30.7071C11.3946 30.5196 11.5 30.2652 11.5 30V22C11.5 21.7348 11.3946 21.4804 11.2071 21.2929C11.0196 21.1054 10.7652 21 10.5 21Z" fill="#4F4F4F"/>
<path d="M6.5 31C5.70435 31 4.94129 30.6839 4.37868 30.1213C3.81607 29.5587 3.5 28.7956 3.5 28V24C3.5 23.2044 3.81607 22.4413 4.37868 21.8787C4.94129 21.3161 5.70435 21 6.5 21C7.29565 21 8.05871 21.3161 8.62132 21.8787C9.18393 22.4413 9.5 23.2044 9.5 24V28C9.5 28.7956 9.18393 29.5587 8.62132 30.1213C8.05871 30.6839 7.29565 31 6.5 31V31ZM6.5 23C6.23478 23 5.98043 23.1054 5.79289 23.2929C5.60536 23.4804 5.5 23.7348 5.5 24V28C5.5 28.2652 5.60536 28.5196 5.79289 28.7071C5.98043 28.8946 6.23478 29 6.5 29C6.76522 29 7.01957 28.8946 7.20711 28.7071C7.39464 28.5196 7.5 28.2652 7.5 28V24C7.5 23.7348 7.39464 23.4804 7.20711 23.2929C7.01957 23.1054 6.76522 23 6.5 23Z" fill="#4F4F4F"/>
<path d="M26.5 43H22.5C21.7044 43 20.9413 42.6839 20.3787 42.1213C19.8161 41.5587 19.5 40.7956 19.5 40C19.5 39.2044 19.8161 38.4413 20.3787 37.8787C20.9413 37.3161 21.7044 37 22.5 37H26.5C27.2956 37 28.0587 37.3161 28.6213 37.8787C29.1839 38.4413 29.5 39.2044 29.5 40C29.5 40.7956 29.1839 41.5587 28.6213 42.1213C28.0587 42.6839 27.2956 43 26.5 43ZM22.5 39C22.2348 39 21.9804 39.1054 21.7929 39.2929C21.6054 39.4804 21.5 39.7348 21.5 40C21.5 40.2652 21.6054 40.5196 21.7929 40.7071C21.9804 40.8946 22.2348 41 22.5 41H26.5C26.7652 41 27.0196 40.8946 27.2071 40.7071C27.3946 40.5196 27.5 40.2652 27.5 40C27.5 39.7348 27.3946 39.4804 27.2071 39.2929C27.0196 39.1054 26.7652 39 26.5 39H22.5Z" fill="#4F4F4F"/>
<path d="M38.5 33C37.7044 33 36.9413 32.6839 36.3787 32.1213C35.8161 31.5587 35.5 30.7956 35.5 30V22C35.5 21.2044 35.8161 20.4413 36.3787 19.8787C36.9413 19.3161 37.7044 19 38.5 19C39.2956 19 40.0587 19.3161 40.6213 19.8787C41.1839 20.4413 41.5 21.2044 41.5 22V30C41.5 30.7956 41.1839 31.5587 40.6213 32.1213C40.0587 32.6839 39.2956 33 38.5 33ZM38.5 21C38.2348 21 37.9804 21.1054 37.7929 21.2929C37.6054 21.4804 37.5 21.7348 37.5 22V30C37.5 30.2652 37.6054 30.5196 37.7929 30.7071C37.9804 30.8946 38.2348 31 38.5 31C38.7652 31 39.0196 30.8946 39.2071 30.7071C39.3946 30.5196 39.5 30.2652 39.5 30V22C39.5 21.7348 39.3946 21.4804 39.2071 21.2929C39.0196 21.1054 38.7652 21 38.5 21Z" fill="#4F4F4F"/>
<path d="M42.5 31C41.7044 31 40.9413 30.6839 40.3787 30.1213C39.8161 29.5587 39.5 28.7956 39.5 28V24C39.5 23.2044 39.8161 22.4413 40.3787 21.8787C40.9413 21.3161 41.7044 21 42.5 21C43.2956 21 44.0587 21.3161 44.6213 21.8787C45.1839 22.4413 45.5 23.2044 45.5 24V28C45.5 28.7956 45.1839 29.5587 44.6213 30.1213C44.0587 30.6839 43.2956 31 42.5 31V31ZM42.5 23C42.2348 23 41.9804 23.1054 41.7929 23.2929C41.6054 23.4804 41.5 23.7348 41.5 24V28C41.5 28.2652 41.6054 28.5196 41.7929 28.7071C41.9804 28.8946 42.2348 29 42.5 29C42.7652 29 43.0196 28.8946 43.2071 28.7071C43.3946 28.5196 43.5 28.2652 43.5 28V24C43.5 23.7348 43.3946 23.4804 43.2071 23.2929C43.0196 23.1054 42.7652 23 42.5 23Z" fill="#4F4F4F"/>
<path d="M41.5 22H39.5C39.5 18.0218 37.9196 14.2064 35.1066 11.3934C32.2936 8.58035 28.4782 7 24.5 7C20.5218 7 16.7064 8.58035 13.8934 11.3934C11.0804 14.2064 9.5 18.0218 9.5 22H7.5C7.5 17.4913 9.29107 13.1673 12.4792 9.97919C15.6673 6.79107 19.9913 5 24.5 5C29.0087 5 33.3327 6.79107 36.5208 9.97919C39.7089 13.1673 41.5 17.4913 41.5 22V22Z" fill="#4F4F4F"/>
<path d="M36.5 41H28.5V39H36.5C37.2956 39 38.0587 38.6839 38.6213 38.1213C39.1839 37.5587 39.5 36.7956 39.5 36V30H41.5V36C41.5 36.6566 41.3707 37.3068 41.1194 37.9134C40.8681 38.52 40.4998 39.0712 40.0355 39.5355C39.5712 39.9998 39.02 40.3681 38.4134 40.6194C37.8068 40.8707 37.1566 41 36.5 41V41Z" fill="#4F4F4F"/>
</g>
<defs>
<clipPath id="clip0_793_5146">
<rect width="42" height="38" fill="white" transform="translate(3.5 5)"/>
</clipPath>
</defs>
</svg>
