<svg width="49" height="48" viewBox="0 0 49 48" fill="none" xmlns="http://www.w3.org/2000/svg">
<g clip-path="url(#clip0_793_2069)">
<path d="M44.5 21.0808C44.4932 19.4024 43.8836 17.7823 42.7823 16.5158C41.681 15.2492 40.1612 14.4206 38.5 14.1808V10.0008V9.6008L38.2 9.3008L32.2 3.3008L31.96 3.0408H31.72C31.647 3.03067 31.573 3.03067 31.5 3.0408H15.5C14.7128 3.04586 13.9587 3.3581 13.3983 3.91099C12.838 4.46389 12.5156 5.21374 12.5 6.0008V7.0008H11.5C10.706 7.00604 9.94595 7.3238 9.38447 7.88527C8.82299 8.44675 8.50524 9.20677 8.5 10.0008V11.0008H7.5C6.70597 11.006 5.94595 11.3238 5.38447 11.8853C4.82299 12.4468 4.50524 13.2068 4.5 14.0008V42.0008C4.51036 42.7932 4.82976 43.5503 5.39014 44.1107C5.95051 44.671 6.70757 44.9904 7.5 45.0008H27.5C28.294 44.9956 29.0541 44.6778 29.6155 44.1163C30.177 43.5549 30.4948 42.7948 30.5 42.0008V41.0008H31.5C32.294 40.9956 33.0541 40.6778 33.6155 40.1163C34.177 39.5549 34.4948 38.7948 34.5 38.0008V37.0008H35.5C36.294 36.9956 37.0541 36.6778 37.6155 36.1163C38.177 35.5549 38.4948 34.7948 38.5 34.0008V32.5608L41.06 33.8208C41.1868 33.921 41.3393 33.9833 41.5 34.0008C41.7621 33.9909 42.0107 33.8824 42.1961 33.6969C42.3816 33.5115 42.4901 33.2629 42.5 33.0008V26.0008C43.1409 25.3528 43.6476 24.5846 43.9908 23.7403C44.334 22.896 44.5071 21.9922 44.5 21.0808ZM42.5 21.0808C42.4842 22.0661 42.1776 23.0249 41.6187 23.8365C41.0598 24.6482 40.2735 25.2766 39.3586 25.6428C38.4437 26.009 37.441 26.0966 36.4764 25.8948C35.5119 25.6929 34.6284 25.2105 33.9372 24.5082C33.2459 23.8058 32.7776 22.9149 32.591 21.9472C32.4045 20.9795 32.5081 19.9783 32.8887 19.0694C33.2694 18.1604 33.9102 17.3842 34.7306 16.8382C35.5511 16.2923 36.5145 16.0009 37.5 16.0008C38.1634 16.0007 38.8202 16.1326 39.4321 16.3889C40.044 16.6452 40.5988 17.0206 41.0641 17.4934C41.5295 17.9662 41.8961 18.5269 42.1426 19.1428C42.3891 19.7587 42.5106 20.4175 42.5 21.0808V21.0808ZM35.1 9.0808H32.5V6.3808L35.1 9.0808ZM28.5 42.0008C28.5001 42.2679 28.3953 42.5243 28.2084 42.7151C28.0214 42.9058 27.767 43.0156 27.5 43.0208H7.5C7.23296 43.0156 6.97863 42.9058 6.79165 42.7151C6.60466 42.5243 6.49995 42.2679 6.5 42.0008V14.0008C6.50512 13.7372 6.61212 13.4858 6.79856 13.2994C6.985 13.1129 7.23639 13.0059 7.5 13.0008H8.5V38.0008C8.51036 38.7932 8.82976 39.5503 9.39014 40.1107C9.95051 40.671 10.7076 40.9904 11.5 41.0008H28.5V42.0008ZM32.5 38.0008C32.5001 38.2679 32.3953 38.5243 32.2084 38.7151C32.0214 38.9058 31.767 39.0156 31.5 39.0208H11.5C11.233 39.0156 10.9786 38.9058 10.7916 38.7151C10.6047 38.5243 10.4999 38.2679 10.5 38.0008V10.0008C10.5051 9.73719 10.6121 9.4858 10.7986 9.29936C10.985 9.11292 11.2364 9.00592 11.5 9.0008H12.5V34.0008C12.5104 34.7932 12.8298 35.5503 13.3901 36.1107C13.9505 36.671 14.7076 36.9904 15.5 37.0008H32.5V38.0008ZM35.5 35.0008H15.5C15.2364 34.9957 14.985 34.8887 14.7986 34.7022C14.6121 34.5158 14.5051 34.2644 14.5 34.0008V6.0008C14.5051 5.73719 14.6121 5.4858 14.7986 5.29936C14.985 5.11292 15.2364 5.00592 15.5 5.0008H30.5V10.0008C30.5 10.266 30.6054 10.5204 30.7929 10.7079C30.9804 10.8954 31.2348 11.0008 31.5 11.0008H36.5V14.2008C34.8388 14.4406 33.319 15.2692 32.2177 16.5358C31.1164 17.8023 30.5068 19.4224 30.5 21.1008C30.4964 22.9277 31.2153 24.6819 32.5 25.9808V32.9408C32.5005 33.1104 32.545 33.2769 32.6291 33.4242C32.7133 33.5714 32.8342 33.6943 32.98 33.7808C33.1259 33.8651 33.2915 33.9094 33.46 33.9094C33.6285 33.9094 33.7941 33.8651 33.94 33.7808L36.5 32.5208V34.0008C36.5 34.266 36.3946 34.5204 36.2071 34.7079C36.0196 34.8954 35.7652 35.0008 35.5 35.0008ZM37.94 30.0008C37.8035 29.9322 37.6528 29.8965 37.5 29.8965C37.3472 29.8965 37.1965 29.9322 37.06 30.0008L34.5 31.2808V27.2808C35.4331 27.7412 36.4595 27.9806 37.5 27.9806C38.5405 27.9806 39.5669 27.7412 40.5 27.2808V31.2808L37.94 30.0008Z" fill="#4F4F4F"/>
<path d="M34.1969 20.3801L32.7969 21.8001L35.8369 24.8401C35.9267 24.9357 36.0351 25.012 36.1555 25.0641C36.2759 25.1162 36.4057 25.1431 36.5369 25.1431C36.6681 25.1431 36.7979 25.1162 36.9183 25.0641C37.0387 25.012 37.1471 24.9357 37.2369 24.8401L42.0969 20.0001L40.6769 18.5801L36.5369 22.7401L34.1969 20.3801Z" fill="#4F4F4F"/>
<path d="M25.5 12.2793H17.5V14.2793H25.5V12.2793Z" fill="#4F4F4F"/>
<path d="M27.5 16.2793H17.5V18.2793H27.5V16.2793Z" fill="#4F4F4F"/>
<path d="M27.5 20.2793H17.5V22.2793H27.5V20.2793Z" fill="#4F4F4F"/>
<path d="M27.5 24.2793H17.5V26.2793H27.5V24.2793Z" fill="#4F4F4F"/>
</g>
<defs>
<clipPath id="clip0_793_2069">
<rect width="40" height="42" fill="white" transform="translate(4.5 3)"/>
</clipPath>
</defs>
</svg>
