<svg width="48" height="48" viewBox="0 0 48 48" fill="none" xmlns="http://www.w3.org/2000/svg">
<path d="M33.204 43.9029H14.6501C14.5883 43.9029 14.5272 43.8907 14.4701 43.8671C14.413 43.8434 14.3612 43.8088 14.3175 43.7651C14.2738 43.7214 14.2391 43.6695 14.2155 43.6125C14.1919 43.5554 14.1797 43.4942 14.1797 43.4324V7.23783C14.1833 7.11548 14.2344 6.99936 14.3223 6.91411C14.4101 6.82886 14.5277 6.7812 14.6501 6.78125H33.204C33.3264 6.7812 33.444 6.82886 33.5318 6.91411C33.6197 6.99936 33.6708 7.11548 33.6744 7.23783V43.4601C33.6674 43.58 33.6147 43.6927 33.5272 43.775C33.4398 43.8573 33.3241 43.9031 33.204 43.9029V43.9029ZM15.1067 42.9759H32.7474V7.70825H15.1067V42.9759Z" fill="black"/>
<path d="M30.4232 7.70801H17.4314C17.3066 7.70801 17.1869 7.65845 17.0987 7.57022C17.0105 7.482 16.9609 7.36235 16.9609 7.23759V4.47042C16.9609 4.34566 17.0105 4.226 17.0987 4.13778C17.1869 4.04956 17.3066 4 17.4314 4H30.4232C30.5456 4.0036 30.6617 4.05475 30.747 4.14258C30.8322 4.23041 30.8799 4.34802 30.8798 4.47042V7.23759C30.8799 7.35999 30.8322 7.47759 30.747 7.56543C30.6617 7.65326 30.5456 7.70441 30.4232 7.70801ZM17.8879 6.781H29.9528V4.927H17.8879V6.781V6.781Z" fill="black"/>
<path d="M39.5975 43.7233H8.40254C8.35316 43.735 8.3025 43.7318 8.25412 43.7139C8.20573 43.6961 8.16079 43.6639 8.12244 43.6197C8.08409 43.5755 8.05326 43.5204 8.03211 43.4582C8.01096 43.396 8 43.3283 8 43.2597C8 43.191 8.01096 43.1233 8.03211 43.0611C8.05326 42.9989 8.08409 42.9438 8.12244 42.8996C8.16079 42.8554 8.20573 42.8233 8.25412 42.8054C8.3025 42.7875 8.35316 42.7843 8.40254 42.796H39.5975C39.6468 42.7843 39.6975 42.7875 39.7459 42.8054C39.7943 42.8233 39.8392 42.8554 39.8776 42.8996C39.9159 42.9438 39.9467 42.9989 39.9679 43.0611C39.989 43.1233 40 43.191 40 43.2597C40 43.3283 39.989 43.396 39.9679 43.4582C39.9467 43.5204 39.9159 43.5755 39.8776 43.6197C39.8392 43.6639 39.7943 43.6961 39.7459 43.7139C39.6975 43.7318 39.6468 43.735 39.5975 43.7233Z" fill="black"/>
<path d="M22.9866 10.0195H18.3516V11.8735H22.9866V10.0195Z" fill="black"/>
<path d="M29.4788 10.0195H24.8438V11.8735H29.4788V10.0195Z" fill="black"/>
<path d="M22.9866 12.8125H18.3516V14.6665H22.9866V12.8125Z" fill="black"/>
<path d="M29.4788 12.8145H24.8438V14.6685H29.4788V12.8145Z" fill="black"/>
<path d="M22.9866 15.5938H18.3516V17.4477H22.9866V15.5938Z" fill="black"/>
<path d="M29.4788 15.5938H24.8438V17.4477H29.4788V15.5938Z" fill="black"/>
<path d="M22.9866 18.375H18.3516V20.229H22.9866V18.375Z" fill="black"/>
<path d="M29.4788 18.375H24.8438V20.229H29.4788V18.375Z" fill="black"/>
<path d="M22.9866 21.1562H18.3516V23.0102H22.9866V21.1562Z" fill="black"/>
<path d="M29.4788 21.1562H24.8438V23.0102H29.4788V21.1562Z" fill="black"/>
<path d="M22.9866 23.9512H18.3516V25.8052H22.9866V23.9512Z" fill="black"/>
<path d="M29.4788 23.9512H24.8438V25.8052H29.4788V23.9512Z" fill="black"/>
<path d="M22.9866 26.7324H18.3516V28.5864H22.9866V26.7324Z" fill="black"/>
<path d="M29.4788 26.7324H24.8438V28.5864H29.4788V26.7324Z" fill="black"/>
<path d="M22.9866 29.5137H18.3516V31.3677H22.9866V29.5137Z" fill="black"/>
<path d="M29.4788 29.5137H24.8438V31.3677H29.4788V29.5137Z" fill="black"/>
<path d="M22.9866 32.2949H18.3516V34.1489H22.9866V32.2949Z" fill="black"/>
<path d="M29.4788 32.2949H24.8438V34.1489H29.4788V32.2949Z" fill="black"/>
<path d="M28.5668 43.902H19.2829C19.2211 43.902 19.16 43.8898 19.1029 43.8662C19.0458 43.8426 18.994 43.8079 18.9503 43.7642C18.9066 43.7205 18.8719 43.6687 18.8483 43.6116C18.8247 43.5545 18.8125 43.4934 18.8125 43.4316V38.7966C18.8125 38.6718 18.8621 38.5522 18.9503 38.464C19.0385 38.3757 19.1582 38.3262 19.2829 38.3262H28.5668C28.6891 38.3298 28.8052 38.3809 28.8905 38.4688C28.9757 38.5566 29.0234 38.6742 29.0233 38.7966V43.4593C29.0165 43.5768 28.9657 43.6875 28.8812 43.7695C28.7967 43.8514 28.6845 43.8987 28.5668 43.902ZM19.7533 42.975H28.0548V39.3085H19.7533V43.0303V42.975Z" fill="black"/>
</svg>
