<svg width="48" height="48" viewBox="0 0 48 48" fill="none" xmlns="http://www.w3.org/2000/svg">
<g clip-path="url(#clip0_23532_143926)">
<g clip-path="url(#clip1_23532_143926)">
<path d="M24 27C22.6155 27 21.2622 26.5895 20.111 25.8203C18.9599 25.0511 18.0627 23.9579 17.5328 22.6788C17.003 21.3997 16.8644 19.9922 17.1345 18.6344C17.4046 17.2765 18.0713 16.0292 19.0503 15.0503C20.0292 14.0713 21.2765 13.4046 22.6344 13.1345C23.9922 12.8644 25.3997 13.003 26.6788 13.5328C27.9579 14.0627 29.0511 14.9599 29.8203 16.111C30.5895 17.2622 31 18.6155 31 20C31 21.8565 30.2625 23.637 28.9498 24.9497C27.637 26.2625 25.8565 27 24 27ZM24 15C23.0111 15 22.0444 15.2932 21.2222 15.8427C20.3999 16.3921 19.759 17.173 19.3806 18.0866C19.0022 19.0002 18.9032 20.0056 19.0961 20.9755C19.289 21.9454 19.7652 22.8363 20.4645 23.5355C21.1637 24.2348 22.0546 24.711 23.0246 24.9039C23.9945 25.0969 24.9998 24.9978 25.9134 24.6194C26.8271 24.241 27.6079 23.6001 28.1574 22.7779C28.7068 21.9556 29 20.9889 29 20C29 18.6739 28.4732 17.4022 27.5355 16.4645C26.5979 15.5268 25.3261 15 24 15Z" fill="#30363D"/>
<path d="M25.9995 19.8398L27.4795 21.8198L24.9995 21.5598L23.9995 23.8198L22.9995 21.5598L20.5195 21.8198L21.9995 19.8398L20.5195 17.8398L22.9995 18.0998L23.9995 15.8398L24.9995 18.0998L27.4795 17.8398L25.9995 19.8398Z" fill="#30363D"/>
<path d="M28 32.8409C27.8388 32.8419 27.6802 32.8005 27.54 32.7209L24.12 30.9409L20.44 32.7409C20.2887 32.8198 20.1206 32.861 19.95 32.861C19.7794 32.861 19.6113 32.8198 19.46 32.7409C19.3192 32.6506 19.2033 32.5263 19.1229 32.3796C19.0425 32.2328 19.0003 32.0683 19 31.9009V24.4609H21V30.2409L23.7 28.9209C23.8412 28.8562 23.9947 28.8227 24.15 28.8227C24.3053 28.8227 24.4588 28.8562 24.6 28.9209L27 30.1609V24.4609H29V31.8409C28.9901 32.103 28.8816 32.3516 28.6961 32.5371C28.5107 32.7225 28.2621 32.831 28 32.8409Z" fill="#30363D"/>
<path d="M10 33C9.20435 33 8.44129 32.6839 7.87868 32.1213C7.31607 31.5587 7 30.7956 7 30V22C7 21.2044 7.31607 20.4413 7.87868 19.8787C8.44129 19.3161 9.20435 19 10 19C10.7956 19 11.5587 19.3161 12.1213 19.8787C12.6839 20.4413 13 21.2044 13 22V30C13 30.7956 12.6839 31.5587 12.1213 32.1213C11.5587 32.6839 10.7956 33 10 33ZM10 21C9.73478 21 9.48043 21.1054 9.29289 21.2929C9.10536 21.4804 9 21.7348 9 22V30C9 30.2652 9.10536 30.5196 9.29289 30.7071C9.48043 30.8946 9.73478 31 10 31C10.2652 31 10.5196 30.8946 10.7071 30.7071C10.8946 30.5196 11 30.2652 11 30V22C11 21.7348 10.8946 21.4804 10.7071 21.2929C10.5196 21.1054 10.2652 21 10 21Z" fill="#30363D"/>
<path d="M6 31C5.20435 31 4.44129 30.6839 3.87868 30.1213C3.31607 29.5587 3 28.7956 3 28V24C3 23.2044 3.31607 22.4413 3.87868 21.8787C4.44129 21.3161 5.20435 21 6 21C6.79565 21 7.55871 21.3161 8.12132 21.8787C8.68393 22.4413 9 23.2044 9 24V28C9 28.7956 8.68393 29.5587 8.12132 30.1213C7.55871 30.6839 6.79565 31 6 31ZM6 23C5.73478 23 5.48043 23.1054 5.29289 23.2929C5.10536 23.4804 5 23.7348 5 24V28C5 28.2652 5.10536 28.5196 5.29289 28.7071C5.48043 28.8946 5.73478 29 6 29C6.26522 29 6.51957 28.8946 6.70711 28.7071C6.89464 28.5196 7 28.2652 7 28V24C7 23.7348 6.89464 23.4804 6.70711 23.2929C6.51957 23.1054 6.26522 23 6 23Z" fill="#30363D"/>
<path d="M26 43H22C21.2044 43 20.4413 42.6839 19.8787 42.1213C19.3161 41.5587 19 40.7956 19 40C19 39.2044 19.3161 38.4413 19.8787 37.8787C20.4413 37.3161 21.2044 37 22 37H26C26.7956 37 27.5587 37.3161 28.1213 37.8787C28.6839 38.4413 29 39.2044 29 40C29 40.7956 28.6839 41.5587 28.1213 42.1213C27.5587 42.6839 26.7956 43 26 43ZM22 39C21.7348 39 21.4804 39.1054 21.2929 39.2929C21.1054 39.4804 21 39.7348 21 40C21 40.2652 21.1054 40.5196 21.2929 40.7071C21.4804 40.8946 21.7348 41 22 41H26C26.2652 41 26.5196 40.8946 26.7071 40.7071C26.8946 40.5196 27 40.2652 27 40C27 39.7348 26.8946 39.4804 26.7071 39.2929C26.5196 39.1054 26.2652 39 26 39H22Z" fill="#30363D"/>
<path d="M38 33C37.2044 33 36.4413 32.6839 35.8787 32.1213C35.3161 31.5587 35 30.7956 35 30V22C35 21.2044 35.3161 20.4413 35.8787 19.8787C36.4413 19.3161 37.2044 19 38 19C38.7956 19 39.5587 19.3161 40.1213 19.8787C40.6839 20.4413 41 21.2044 41 22V30C41 30.7956 40.6839 31.5587 40.1213 32.1213C39.5587 32.6839 38.7956 33 38 33ZM38 21C37.7348 21 37.4804 21.1054 37.2929 21.2929C37.1054 21.4804 37 21.7348 37 22V30C37 30.2652 37.1054 30.5196 37.2929 30.7071C37.4804 30.8946 37.7348 31 38 31C38.2652 31 38.5196 30.8946 38.7071 30.7071C38.8946 30.5196 39 30.2652 39 30V22C39 21.7348 38.8946 21.4804 38.7071 21.2929C38.5196 21.1054 38.2652 21 38 21Z" fill="#30363D"/>
<path d="M42 31C41.2044 31 40.4413 30.6839 39.8787 30.1213C39.3161 29.5587 39 28.7956 39 28V24C39 23.2044 39.3161 22.4413 39.8787 21.8787C40.4413 21.3161 41.2044 21 42 21C42.7956 21 43.5587 21.3161 44.1213 21.8787C44.6839 22.4413 45 23.2044 45 24V28C45 28.7956 44.6839 29.5587 44.1213 30.1213C43.5587 30.6839 42.7956 31 42 31ZM42 23C41.7348 23 41.4804 23.1054 41.2929 23.2929C41.1054 23.4804 41 23.7348 41 24V28C41 28.2652 41.1054 28.5196 41.2929 28.7071C41.4804 28.8946 41.7348 29 42 29C42.2652 29 42.5196 28.8946 42.7071 28.7071C42.8946 28.5196 43 28.2652 43 28V24C43 23.7348 42.8946 23.4804 42.7071 23.2929C42.5196 23.1054 42.2652 23 42 23Z" fill="#30363D"/>
<path d="M41 22H39C39 18.0218 37.4196 14.2064 34.6066 11.3934C31.7936 8.58035 27.9782 7 24 7C20.0218 7 16.2064 8.58035 13.3934 11.3934C10.5804 14.2064 9 18.0218 9 22H7C7 17.4913 8.79107 13.1673 11.9792 9.97919C15.1673 6.79107 19.4913 5 24 5C28.5087 5 32.8327 6.79107 36.0208 9.97919C39.2089 13.1673 41 17.4913 41 22Z" fill="#30363D"/>
<path d="M36 41H28V39H36C36.7956 39 37.5587 38.6839 38.1213 38.1213C38.6839 37.5587 39 36.7956 39 36V30H41V36C41 36.6566 40.8707 37.3068 40.6194 37.9134C40.3681 38.52 39.9998 39.0712 39.5355 39.5355C39.0712 39.9998 38.52 40.3681 37.9134 40.6194C37.3068 40.8707 36.6566 41 36 41Z" fill="#30363D"/>
</g>
</g>
<defs>
<clipPath id="clip0_23532_143926">
<rect width="48" height="48" fill="white"/>
</clipPath>
<clipPath id="clip1_23532_143926">
<rect width="42" height="38" fill="white" transform="translate(3 5)"/>
</clipPath>
</defs>
</svg>
