<svg width="36" height="36" viewBox="0 0 36 36" fill="none" xmlns="http://www.w3.org/2000/svg">
<path d="M0 22.2001V13.7999H3.6C3.90476 12.7542 4.324 11.7455 4.84981 10.7916L2.3023 8.24392L8.24216 2.30383L10.7897 4.85156C11.7442 4.3251 12.7534 3.90498 13.7999 3.6V0H22.2001V3.6C23.2458 3.90476 24.2545 4.324 25.2084 4.8498L27.7561 2.30164L33.6962 8.24172L31.1484 10.789C31.6753 11.7439 32.095 12.7534 32.4 13.7999H36V22.2001H32.4C32.0952 23.2458 31.676 24.2545 31.1502 25.2083L33.6984 27.7559L27.7583 33.6959L25.211 31.1484C24.2561 31.6749 23.2466 32.0946 22.2001 32.4V36H13.7999V32.4C12.7542 32.0952 11.7455 31.676 10.7917 31.1502L8.24414 33.6977L2.30405 27.7578L4.85156 25.2101C4.3251 24.2558 3.90542 23.2462 3.6 22.2001H0ZM4.63667 21.4495C4.95923 22.6973 5.45625 23.8928 6.11323 25.0014L6.35339 25.4024L3.99946 27.7561L8.24392 32.0014L10.5976 29.6477L10.9986 29.8876C12.1069 30.5453 13.3027 31.0425 14.5505 31.3642L14.9999 31.4798V34.8001H21.0001V31.4798L21.4495 31.3633C22.6973 31.041 23.8931 30.544 25.0014 29.8868L25.4024 29.6466L27.7561 32.0014L32.0014 27.7559L29.6477 25.4021L29.8876 25.0014C30.5451 23.8928 31.0421 22.6969 31.3642 21.4495L31.4798 20.9997H34.8001V14.9999H31.4798L31.3633 14.5505C31.041 13.3027 30.544 12.1069 29.8868 10.9986L29.6466 10.5976L32.0014 8.24392L27.7561 3.99858L25.4024 6.35229L25.0014 6.11235C23.8931 5.45471 22.6973 4.95747 21.4495 4.63579L21.0001 4.52021V1.19993H14.9999V4.52021L14.5505 4.63667C13.3027 4.95901 12.1069 5.45603 10.9986 6.11323L10.5976 6.35339L8.24392 3.99858L3.99858 8.24392L6.35229 10.5976L6.11235 10.9986C5.45471 12.1069 4.95747 13.3027 4.63579 14.5505L4.51934 14.9999H1.19993V21.0001H4.52022L4.63667 21.4495Z" fill="#013B81"/>
<path d="M18.0001 7.80008C23.6304 7.79701 28.1972 12.3592 28.2 17.9892C28.202 21.9986 25.8542 25.6366 22.2002 27.2861V27.2999L21.8288 27.4529H21.8251L21.0002 27.7871V27.7462C20.0286 28.0477 19.0172 28.2006 18.0001 28.1999C17.7975 28.1999 17.598 28.1933 17.4 28.1819V28.2076L16.7276 28.123L16.2001 28.0593V28.0325C10.6568 27.0418 6.96629 21.7452 7.95682 16.2022C8.82627 11.3379 13.0587 7.79701 18.0001 7.80008ZM21.0002 26.4858V20.5513L21.2004 20.3711C23.1749 18.6051 23.3436 15.5729 21.5775 13.5987C20.6671 12.5807 19.3657 11.9993 18.0001 12.0002C17.8241 12.0002 17.6481 12.0094 17.4727 12.0281L20.2628 14.8201L19.7298 18.5322L16.0177 19.0648L13.2281 16.2749C13.2096 16.4492 13.2002 16.6245 13.2002 16.8001C13.2109 19.0367 14.7549 20.9733 16.9327 21.4829L17.4 21.5886V26.9813C18.621 27.0598 19.8456 26.8912 21.0002 26.4858ZM16.2001 26.8218V22.5264C13.7088 21.7268 12.0143 19.4161 12.0002 16.8001C11.9976 16.1479 12.1039 15.5 12.3144 14.883L12.6269 13.9746L16.44 17.7893L18.6685 17.4702L18.9893 15.24L15.1746 11.4247L16.0832 11.1127C16.7004 10.9028 17.3484 10.7972 18.0001 10.8C21.3122 10.7985 23.9984 13.4822 23.9999 16.7941C24.0008 18.4067 23.3522 19.9516 22.2002 21.0804V25.9603C26.5932 23.6395 28.2734 18.1975 25.9531 13.8043C23.6328 9.41112 18.1901 7.73109 13.7972 10.0514C9.40416 12.3717 7.72369 17.8141 10.0442 22.2073C11.3024 24.5887 13.5612 26.2815 16.2001 26.8201V26.8218Z" fill="#013B81"/>
</svg>
