<svg width="36" height="36" viewBox="0 0 36 36" fill="none" xmlns="http://www.w3.org/2000/svg">
<path d="M31.7616 16.6824C30.5366 16.0699 28.2399 16.0628 28.1427 16.0628C27.8515 16.0628 27.6154 16.2989 27.6154 16.5902C27.6154 16.8814 27.8515 17.1175 28.1427 17.1175C28.7354 17.1176 30.4561 17.2089 31.29 17.6257C31.3657 17.6636 31.4461 17.6815 31.5254 17.6815C31.7188 17.6815 31.9051 17.5746 31.9974 17.3899C32.1277 17.1294 32.0221 16.8126 31.7616 16.6824Z" fill="#013B81"/>
<path d="M34.3907 24.1904L32.2128 23.5681C32.1187 23.5413 32.0531 23.4542 32.0531 23.3564V22.6294C32.2303 22.5067 32.3993 22.3693 32.5573 22.2159C33.323 21.4729 33.7447 20.4762 33.7447 19.4094V18.4063L33.9552 17.9852C34.1864 17.5229 34.3085 17.0053 34.3085 16.4885V13.7709C34.3085 13.4797 34.0724 13.2436 33.7811 13.2436H28.7065C26.8612 13.2436 25.3599 14.7449 25.3599 16.5902V16.6216C25.3599 17.0513 25.4615 17.4817 25.6537 17.8661L25.9237 18.4062V19.2675C25.9237 20.6326 26.5964 21.8573 27.6153 22.5944L27.6154 23.3563C27.6154 23.4738 27.6154 23.5224 27.18 23.6469L26.1173 23.9505L23.0432 22.8326C23.0542 22.6876 23.0053 22.5401 22.8994 22.4289L21.9171 21.3969V19.6644C22.021 19.5788 22.1233 19.4909 22.2225 19.398C23.4618 18.2364 24.1725 16.5964 24.1725 14.8986V13.515C24.5467 12.7007 24.7364 11.839 24.7364 10.9516V5.31323C24.7364 5.022 24.5002 4.78589 24.209 4.78589H16.3151C13.5371 4.78589 11.277 7.04601 11.277 9.82399V10.9517C11.277 11.8391 11.4666 12.7008 11.8408 13.5151V14.7056C11.8408 16.6769 12.7174 18.4528 14.0962 19.6237V21.3969L13.1139 22.429C13.0081 22.5401 12.9592 22.6877 12.9702 22.8327L9.72563 24.0125C9.4905 24.098 9.27204 24.2138 9.07369 24.3541L8.5642 24.0993C10.0808 23.4392 10.5613 22.5107 10.5844 22.4646C10.6586 22.3161 10.6586 22.1413 10.5844 21.9929C10.2042 21.2325 10.1581 19.8389 10.1211 18.7191C10.1088 18.3463 10.0972 17.9941 10.0749 17.6805C9.89508 15.1511 7.97217 13.2436 5.60194 13.2436C3.2317 13.2436 1.30873 15.151 1.12901 17.6805C1.10672 17.9942 1.09505 18.3464 1.08274 18.7192C1.04576 19.839 0.999633 21.2325 0.619523 21.9928C0.545273 22.1413 0.545273 22.3161 0.619523 22.4645C0.642586 22.5106 1.12205 23.4372 2.64171 24.0981L1.22653 24.8057C0.469969 25.1842 0 25.9447 0 26.7905V30.6864C0 30.9776 0.236109 31.2138 0.527344 31.2138C0.818578 31.2138 1.05469 30.9776 1.05469 30.6864V26.7905C1.05469 26.3467 1.30127 25.9476 1.69819 25.7491L3.46043 24.8681L4.07341 25.4506C4.50204 25.8579 5.05188 26.0615 5.60194 26.0615C6.15185 26.0615 6.70198 25.8578 7.13046 25.4506L7.74337 24.8681L8.31797 25.1554C8.04741 25.5883 7.89384 26.096 7.89384 26.6278V30.6866C7.89384 30.9778 8.12995 31.2139 8.42119 31.2139C8.71242 31.2139 8.94853 30.9778 8.94853 30.6866V26.6278C8.94853 25.9038 9.40563 25.2512 10.086 25.0038L13.5069 23.7599L14.9309 25.896C15.113 26.1691 15.4047 26.3443 15.7313 26.3766C15.7677 26.3802 15.8039 26.382 15.8401 26.382C16.1282 26.382 16.4042 26.2685 16.6105 26.0623L17.4793 25.1935V30.6866C17.4793 30.9779 17.7154 31.214 18.0066 31.214C18.2978 31.214 18.534 30.9779 18.534 30.6866V25.1935L19.4027 26.0623C19.609 26.2686 19.8849 26.382 20.1731 26.382C20.2092 26.382 20.2455 26.3803 20.2819 26.3767C20.6085 26.3443 20.9002 26.1692 21.0823 25.8961L22.5064 23.76L25.9272 25.0039C26.6075 25.2513 27.0647 25.904 27.0647 26.6279V30.6867C27.0647 30.9779 27.3008 31.214 27.592 31.214C27.8833 31.214 28.1194 30.9779 28.1194 30.6867V26.6279C28.1194 25.8947 27.8281 25.207 27.3394 24.6985L27.4697 24.6613C27.6011 24.6237 27.7804 24.5723 27.9604 24.4841L29.3068 25.8305V30.6867C29.3068 30.9779 29.5429 31.214 29.8342 31.214C30.1254 31.214 30.3615 30.9779 30.3615 30.6867V25.8305L31.6986 24.4934C31.7696 24.5296 31.8443 24.5601 31.9229 24.5825L34.1009 25.2048C34.598 25.3468 34.9453 25.8071 34.9453 26.3242V30.6867C34.9453 30.9779 35.1814 31.214 35.4727 31.214C35.7639 31.214 36 30.9779 36 30.6867V26.3242C36 25.3386 35.3382 24.4612 34.3907 24.1904ZM3.38309 23.259C2.39667 22.904 1.90188 22.4308 1.69066 22.1724C1.83466 21.796 1.92804 21.3648 1.99125 20.9097C2.28206 21.607 2.76912 22.2022 3.38309 22.6269V23.259ZM6.40406 24.6862C5.95427 25.1135 5.24967 25.1134 4.80002 24.6861L4.30959 24.2201C4.39235 24.065 4.43784 23.8892 4.43784 23.7051V23.143C4.80572 23.258 5.1968 23.32 5.60208 23.32C6.00687 23.32 6.39773 23.2577 6.76624 23.1434L6.76617 23.705C6.76617 23.8892 6.81159 24.0651 6.89442 24.2202L6.40406 24.6862ZM5.60222 22.2653C4.0275 22.2653 2.74648 20.9842 2.74648 19.4096C2.74648 19.1183 2.51037 18.8822 2.21913 18.8822C2.1896 18.8822 2.16077 18.8852 2.13258 18.8899C2.13412 18.8446 2.1356 18.7992 2.13715 18.7542C2.14889 18.3916 2.16021 18.0491 2.18109 17.7554C2.24845 16.8078 2.62709 15.9347 3.24724 15.2967C3.87295 14.6529 4.70925 14.2984 5.60208 14.2984C6.49491 14.2984 7.33113 14.6529 7.95691 15.2967C8.57707 15.9347 8.9557 16.8078 9.02306 17.7554C9.04387 18.0491 9.05527 18.3915 9.06722 18.754C9.06827 18.7852 9.06933 18.8167 9.07038 18.8481C8.49663 17.9641 7.61055 17.3127 6.46566 16.9448C5.40795 16.605 4.49824 16.626 4.45985 16.627C4.32176 16.6309 4.1907 16.6887 4.09486 16.7881L3.14339 17.7749C2.94124 17.9845 2.94729 18.3184 3.15696 18.5205C3.36663 18.7227 3.70048 18.7166 3.90263 18.507L4.69434 17.6859C5.37616 17.7192 7.5697 17.9743 8.4228 19.8529C8.20814 21.2372 7.01831 22.2653 5.60222 22.2653ZM7.82079 23.2607L7.82086 22.6318C8.43434 22.2094 8.92209 21.6153 9.21312 20.9127C9.27633 21.3668 9.36963 21.7969 9.51335 22.1726C9.30333 22.4285 8.80622 22.9059 7.82079 23.2607ZM12.8955 14.7055V13.3971C12.8955 13.3177 12.8776 13.2394 12.8431 13.1678C12.5037 12.4651 12.3317 11.7195 12.3317 10.9517V9.82406C12.3317 7.62757 14.1187 5.84065 16.3151 5.84065H23.6817V10.9518C23.6817 11.7196 23.5096 12.4652 23.1703 13.1679C23.1358 13.2394 23.1178 13.3178 23.1178 13.3972V14.8987C23.1178 16.3268 22.5437 17.6515 21.5013 18.6286C21.3711 18.7505 21.2361 18.8648 21.0964 18.9714C21.0933 18.9735 21.0904 18.9758 21.0874 18.978C20.1108 19.7194 18.9146 20.0798 17.6655 19.9988C14.9907 19.8257 12.8955 17.5006 12.8955 14.7055ZM15.8647 25.3164C15.8611 25.3201 15.8526 25.3287 15.8354 25.3269C15.8182 25.3252 15.8115 25.3152 15.8086 25.3108L14.1685 22.8507L14.6963 22.2962L17.1843 23.9968L15.8647 25.3164ZM18.0067 23.2814L15.1509 21.3294V20.345C15.8899 20.7444 16.7172 20.9943 17.5972 21.0512C17.7362 21.0602 17.8744 21.0646 18.0121 21.0646C19.0204 21.0646 19.9909 20.8236 20.8624 20.3661V21.3294L18.0067 23.2814ZM20.2048 25.311C20.2019 25.3153 20.1952 25.3254 20.178 25.3271C20.1608 25.3292 20.1523 25.3202 20.1486 25.3166L18.8291 23.997L21.3171 22.2963L21.8449 22.8509L20.2048 25.311ZM29.8342 24.866L28.6374 23.6694C28.6583 23.5745 28.6701 23.4707 28.6701 23.3561L28.67 23.1336C29.0021 23.2426 29.3521 23.3073 29.7143 23.3181C29.7549 23.3194 29.7952 23.3199 29.8357 23.3199C30.2359 23.3199 30.6266 23.2594 30.9984 23.1441V23.3564C30.9984 23.4616 31.0116 23.5647 31.0365 23.6637L29.8342 24.866ZM31.8228 21.4591C31.2639 22.0015 30.5255 22.2879 29.746 22.2639C28.2199 22.2181 26.9784 20.874 26.9784 19.2677V18.2818C26.9784 18.1999 26.9594 18.1192 26.9227 18.046L26.597 17.3945C26.4776 17.1558 26.4146 16.8886 26.4146 16.6217V16.5902C26.4146 15.3264 27.4428 14.2983 28.7065 14.2983H33.2538V16.4886C33.2538 16.8425 33.1701 17.197 33.0119 17.5136L32.7457 18.046C32.709 18.1192 32.69 18.1999 32.69 18.2818V19.4095C32.69 20.1885 32.382 20.9164 31.8228 21.4591Z" fill="#013B81"/>
<path d="M33.2173 26.776C32.9261 26.776 32.6899 27.0121 32.6899 27.3033V30.6864C32.6899 30.9777 32.9261 31.2138 33.2173 31.2138C33.5085 31.2138 33.7446 30.9777 33.7446 30.6864V27.3033C33.7446 27.0122 33.5085 26.776 33.2173 26.776Z" fill="#013B81"/>
<path d="M2.78271 27.4731C2.49148 27.4731 2.25537 27.7092 2.25537 28.0004V30.6864C2.25537 30.9776 2.49148 31.2138 2.78271 31.2138C3.07395 31.2138 3.31006 30.9776 3.31006 30.6864V28.0004C3.31006 27.7092 3.07395 27.4731 2.78271 27.4731Z" fill="#013B81"/>
<path d="M22.3264 11.1428C20.3319 9.1483 16.159 9.5296 14.4572 9.7861C13.9213 9.86689 13.5323 10.3205 13.5323 10.8646V12.0795C13.5323 12.3707 13.7684 12.6068 14.0596 12.6068C14.3509 12.6068 14.587 12.3707 14.587 12.0795V10.8646C14.587 10.8466 14.5988 10.8313 14.6145 10.8289C15.2942 10.7265 16.6431 10.5684 18.0405 10.6616C19.685 10.771 20.8761 11.1838 21.5807 11.8885C21.7866 12.0945 22.1205 12.0945 22.3264 11.8885C22.5324 11.6826 22.5324 11.3487 22.3264 11.1428Z" fill="#013B81"/>
<path d="M11.8044 27.9037C11.5132 27.9037 11.2771 28.1398 11.2771 28.4311V30.6865C11.2771 30.9777 11.5132 31.2138 11.8044 31.2138C12.0957 31.2138 12.3318 30.9777 12.3318 30.6865V28.4311C12.3318 28.1399 12.0957 27.9037 11.8044 27.9037Z" fill="#013B81"/>
<path d="M24.209 27.9037C23.9177 27.9037 23.6816 28.1398 23.6816 28.4311V30.6865C23.6816 30.9777 23.9177 31.2138 24.209 31.2138C24.5002 31.2138 24.7363 30.9777 24.7363 30.6865V28.4311C24.7363 28.1399 24.5002 27.9037 24.209 27.9037Z" fill="#013B81"/>
</svg>
