<svg width="25" height="25" viewBox="0 0 25 25" fill="none" xmlns="http://www.w3.org/2000/svg">
<path d="M22.5 3.00391L20.83 4.67391L19.17 3.00391L17.5 4.67391L15.83 3.00391L14.17 4.67391L12.5 3.00391L10.83 4.67391L9.17 3.00391L7.5 4.67391L5.83 3.00391L4.17 4.67391L2.5 3.00391V19.0039C2.5 20.1039 3.4 21.0039 4.5 21.0039H20.5C21.6 21.0039 22.5 20.1039 22.5 19.0039V3.00391ZM11.5 19.0039H4.5V13.0039H11.5V19.0039ZM20.5 19.0039H13.5V17.0039H20.5V19.0039ZM20.5 15.0039H13.5V13.0039H20.5V15.0039ZM20.5 11.0039H4.5V8.00391H20.5V11.0039Z" fill="black"/>
</svg>
