<svg width="20" height="20" fill="none" xmlns="http://www.w3.org/2000/svg">
    <path d="M19.414 5.898h-1.758V4.165c0-.97-.788-1.782-1.758-1.782H1.758A1.76 1.76 0 0 0 0 4.14v10.546a2.933 2.933 0 0 0 2.93 2.93h14.14a2.933 2.933 0 0 0 2.93-2.93V6.485a.586.586 0 0 0-.586-.586zm-4.102-1.757c0-.329.27-.595.603-.586a.603.603 0 0 1 .57.61v8.765h-1.172V4.14zM1.172 14.687V4.142c0-.323.263-.586.586-.586H14.24a1.76 1.76 0 0 0-.1.586v10.546c0 .66.22 1.268.588 1.758H2.93a1.76 1.76 0 0 1-1.758-1.758zm17.656 0a1.76 1.76 0 0 1-1.758 1.758 1.76 1.76 0 0 1-1.758-1.758v-.585h1.758a.586.586 0 0 0 .586-.586V7.07h1.172v7.617z" fill="#5B5C5D"/>
    <path d="M12.383 4.727H2.93a.586.586 0 1 0 0 1.171h9.453a.586.586 0 1 0 0-1.171zM12.383 7.07H2.93a.586.586 0 1 0 0 1.172h9.453a.586.586 0 1 0 0-1.172zM7.695 9.414H2.97a.586.586 0 0 0-.586.586v4.688c0 .323.262.585.586.585h4.726a.586.586 0 0 0 .586-.585V10a.586.586 0 0 0-.586-.586zm-.586 4.688H3.555v-3.516h3.554v3.516zM12.383 9.414H10a.586.586 0 1 0 0 1.172h2.383a.586.586 0 1 0 0-1.172zM12.383 11.758H10a.586.586 0 1 0 0 1.172h2.383a.586.586 0 1 0 0-1.172zM12.383 14.102H10a.586.586 0 1 0 0 1.171h2.383a.586.586 0 1 0 0-1.171z" fill="#5B5C5D"/>
</svg>
