<svg xmlns="http://www.w3.org/2000/svg" width="24" height="24" fill="none" viewBox="0 0 24 24">
    <g clip-path="url(#clip0)">
        <path fill="#000" d="M23.4 10.392l-.002-.002L13.608.6c-.417-.417-.972-.647-1.562-.647-.59 0-1.145.23-1.563.647L.698 10.385l-.01.01c-.857.862-.855 2.26.005 3.12.392.393.91.62 1.466.645.022.002.045.003.068.003h.39v7.204c0 1.426 1.16 2.586 2.586 2.586h3.83c.388 0 .703-.315.703-.703v-5.648c0-.651.53-1.18 1.18-1.18h2.26c.65 0 1.179.529 1.179 1.18v5.648c0 .388.315.703.703.703h3.83c1.426 0 2.586-1.16 2.586-2.586v-7.204h.362c.59 0 1.145-.23 1.563-.648.86-.86.86-2.261 0-3.123zm-.996 2.13c-.152.15-.353.235-.568.235h-1.065c-.388 0-.703.314-.703.703v7.907c0 .65-.53 1.18-1.18 1.18h-3.127v-4.945c0-1.426-1.16-2.586-2.586-2.586h-2.259c-1.426 0-2.586 1.16-2.586 2.586v4.945H5.203c-.65 0-1.18-.53-1.18-1.18V13.46c0-.389-.315-.703-.703-.703H2.273l-.033-.002c-.21-.004-.406-.087-.553-.234-.313-.313-.313-.823 0-1.136h.001l9.79-9.79c.152-.152.353-.236.568-.236.214 0 .416.084.568.236l9.787 9.787.005.004c.311.314.31.823-.002 1.135z"/>
    </g>
    <defs>
        <clipPath id="clip0">
            <path fill="#fff" d="M0 0H24V24H0z"/>
        </clipPath>
    </defs>
</svg>
