
<svg width="24" height="24" viewBox="0 0 24 24" fill="none" xmlns="http://www.w3.org/2000/svg">
<g clip-path="url(#clip0_22941_28370)">
<path d="M12 5.10938C11.7088 5.10938 11.4727 5.34548 11.4727 5.63672C11.4727 5.92795 11.7088 6.16406 12 6.16406C13.7449 6.16406 15.1646 7.58346 15.1646 9.32812C15.1646 9.61936 15.4007 9.85547 15.6919 9.85547C15.9832 9.85547 16.2193 9.61936 16.2193 9.32812C16.2193 7.00191 14.3265 5.10938 12 5.10938Z" fill="#D9BD07"/>
<path d="M10.6403 3.14126C8.25781 3.63911 6.32597 5.55246 5.81765 7.9498C5.38842 9.97416 5.91735 12.0065 7.26879 13.5258C7.92941 14.2684 8.30826 15.2487 8.30826 16.218V17.2727C8.30826 17.9744 8.76764 18.5705 9.40137 18.777C9.60978 20.0084 10.6785 20.9992 11.9997 20.9992C13.3204 20.9992 14.3895 20.0087 14.598 18.777C15.2317 18.5705 15.6911 17.9744 15.6911 17.2726V16.2179C15.6911 15.2468 16.0712 14.2783 16.7613 13.4909C17.7715 12.3385 18.3278 10.8598 18.3278 9.32736C18.3278 5.33484 14.6733 2.29871 10.6403 3.14126ZM11.9997 19.9445C11.3218 19.9445 10.7274 19.4781 10.5079 18.8512H13.4913C13.2719 19.4781 12.6775 19.9445 11.9997 19.9445ZM14.6364 17.2727C14.6364 17.5634 14.3998 17.8 14.109 17.8H9.89029C9.59951 17.8 9.36294 17.5634 9.36294 17.2727V16.7453H14.6364V17.2727ZM15.9682 12.7958C15.2327 13.6348 14.7802 14.6466 14.6654 15.6906H9.33404C9.21936 14.6461 8.76803 13.6243 8.05689 12.8248C6.93055 11.5587 6.49043 9.86149 6.84941 8.16857C7.26844 6.1923 8.8786 4.58689 10.8561 4.1737C14.2319 3.46822 17.2731 6.0034 17.2731 9.32736C17.2731 10.604 16.8097 11.8357 15.9682 12.7958Z" fill="#0056BC"/>
<path d="M4.58203 9.32812H3.52734C3.23611 9.32812 3 9.56423 3 9.85547C3 10.1467 3.23611 10.3828 3.52734 10.3828H4.58203C4.87327 10.3828 5.10938 10.1467 5.10938 9.85547C5.10938 9.56423 4.87327 9.32812 4.58203 9.32812Z" fill="#D9BD07"/>
<path d="M4.80225 6.68929L4.05648 5.94352C3.85057 5.73758 3.51665 5.73758 3.31071 5.94352C3.10476 6.14947 3.10476 6.48335 3.31071 6.68929L4.05648 7.43506C4.26239 7.64101 4.5963 7.64104 4.80225 7.43506C5.00819 7.22912 5.00819 6.89524 4.80225 6.68929Z" fill="#D9BD07"/>
<path d="M4.80225 12.2716C4.5963 12.0657 4.26239 12.0657 4.05648 12.2716L3.31071 13.0174C3.10476 13.2234 3.10476 13.5572 3.31071 13.7632C3.51662 13.9691 3.85053 13.9692 4.05648 13.7632L4.80225 13.0174C5.00819 12.8115 5.00819 12.4776 4.80225 12.2716Z" fill="#D9BD07"/>
<path d="M20.4727 9.32812H19.418C19.1267 9.32812 18.8906 9.56423 18.8906 9.85547C18.8906 10.1467 19.1267 10.3828 19.418 10.3828H20.4727C20.7639 10.3828 21 10.1467 21 9.85547C21 9.56423 20.7639 9.32812 20.4727 9.32812Z" fill="#D9BD07"/>
<path d="M20.6929 5.94352C20.487 5.73758 20.1531 5.73758 19.9471 5.94352L19.2013 6.68929C18.9954 6.89523 18.9954 7.22911 19.2013 7.43506C19.4072 7.64097 19.7412 7.641 19.9471 7.43506L20.6929 6.68929C20.8988 6.48334 20.8988 6.14947 20.6929 5.94352Z" fill="#D9BD07"/>
<path d="M20.6929 13.0174L19.9471 12.2716C19.7412 12.0657 19.4073 12.0657 19.2013 12.2716C18.9954 12.4776 18.9954 12.8115 19.2013 13.0174L19.9471 13.7632C20.153 13.9691 20.4869 13.9691 20.6929 13.7632C20.8988 13.5572 20.8988 13.2234 20.6929 13.0174Z" fill="#D9BD07"/>
</g>
<defs>
<clipPath id="clip0_22941_28370">
<rect width="18" height="18" fill="white" transform="translate(3 3)"/>
</clipPath>
</defs>
</svg>
