<svg xmlns="http://www.w3.org/2000/svg" width="20" height="20" fill="none" viewBox="0 0 20 20">
    <path fill="#151617" d="M3.333 8.75c-.691 0-1.25.558-1.25 1.25s.559 1.25 1.25 1.25c.692 0 1.25-.558 1.25-1.25s-.558-1.25-1.25-1.25zm0-5c-.691 0-1.25.558-1.25 1.25s.559 1.25 1.25 1.25c.692 0 1.25-.558 1.25-1.25s-.558-1.25-1.25-1.25zm0 10c-.691 0-1.25.567-1.25 1.25s.567 1.25 1.25 1.25c.684 0 1.25-.567 1.25-1.25s-.558-1.25-1.25-1.25zm3.334 2.083h10c.458 0 .833-.375.833-.833 0-.458-.375-.833-.833-.833h-10c-.458 0-.833.375-.833.833 0 .458.375.833.833.833zm0-5h10c.458 0 .833-.375.833-.833 0-.458-.375-.833-.833-.833h-10c-.458 0-.833.375-.833.833 0 .458.375.833.833.833zM5.834 5c0 .458.375.833.833.833h10c.458 0 .833-.375.833-.833 0-.458-.375-.833-.833-.833h-10c-.458 0-.833.375-.833.833z"/>
</svg>
