<svg xmlns="http://www.w3.org/2000/svg" width="20" height="20" fill="none" viewBox="0 0 20 20">
    <path fill="#DA1414" d="M4.167 4.167h5c.458 0 .833-.375.833-.834 0-.458-.375-.833-.833-.833h-5C3.25 2.5 2.5 3.25 2.5 4.167v11.666c0 .917.75 1.667 1.667 1.667h5c.458 0 .833-.375.833-.833 0-.459-.375-.834-.833-.834h-5V4.167z"/>
    <path fill="#DA1414" d="M17.208 9.708l-2.325-2.325c-.266-.266-.716-.083-.716.292v1.492H8.333c-.458 0-.833.375-.833.833 0 .458.375.833.833.833h5.834v1.492c0 .375.45.558.708.292l2.325-2.325c.167-.159.167-.425.008-.584z"/>
</svg>
