
<svg width="106" height="28" viewBox="0 0 106 28" fill="none" xmlns="http://www.w3.org/2000/svg">
<path d="M18.7037 18.7812L16.7344 20.6411L18.7037 22.4963L20.4806 20.8182L22.2624 22.4963L24.2268 20.6411L22.2624 18.7812L20.4806 20.464L18.7037 18.7812Z" fill="#0D72FF"/>
<path d="M52.0955 15.8837H52.1547L52.214 15.907C53.3139 16.2291 54.4582 16.3956 55.6097 16.4011C56.624 16.4221 57.632 16.246 58.5712 15.8837L58.6403 15.8558L58.7094 15.8837C59.1058 16.0526 59.5215 16.1777 59.9482 16.2566C60.5052 16.3508 61.0705 16.3945 61.6362 16.3871C62.6474 16.4425 63.6419 16.125 64.4101 15.5015C64.7529 15.1663 65.0177 14.7672 65.1877 14.3297C65.3577 13.8923 65.4291 13.4261 65.3973 12.9611C65.3911 12.045 65.2243 11.1362 64.9037 10.2715C64.5928 9.41095 64.1541 8.59641 63.6007 7.85234L63.5316 7.75912L61.4487 9.06428L61.5178 9.16682C61.886 9.69285 62.2206 10.2392 62.5197 10.8029C62.8109 11.3297 63.0577 11.8238 63.2552 12.2712C63.3428 12.459 63.3978 12.6589 63.418 12.8632C63.4239 12.9108 63.4131 12.959 63.3873 13.0002C63.3614 13.0415 63.3219 13.0736 63.2749 13.0916C62.7051 13.2576 62.1079 13.3239 61.5129 13.2874C61.084 13.2951 60.6551 13.2733 60.2296 13.2221C60.0321 13.205 59.8463 13.1263 59.7014 12.9984C59.5872 12.8395 59.5316 12.6494 59.5435 12.4577L59.4991 9.13886H57.2829L57.2533 12.4297C57.2695 12.6265 57.2322 12.8238 57.1447 13.0031C57.0533 13.1242 56.915 13.2062 56.7598 13.2315C56.4242 13.2872 56.0835 13.3106 55.743 13.3014C55.3531 13.3014 54.9829 13.3014 54.6226 13.2781C54.5017 13.2843 54.3807 13.2673 54.2671 13.228C54.1534 13.1888 54.0493 13.1281 53.9612 13.0497C53.8997 12.9813 53.8535 12.9018 53.8255 12.8161C53.7975 12.7304 53.7883 12.6401 53.7983 12.5509L54.4202 9.013L52.2337 8.6401L51.5871 11.9729C51.5386 12.248 51.4523 12.516 51.3305 12.77C51.262 12.9072 51.1451 13.0177 50.9998 13.0823C50.7868 13.1417 50.5654 13.17 50.3433 13.1662H49.8497C49.6004 13.1699 49.3516 13.1433 49.1094 13.087C48.9425 13.0417 48.7976 12.9427 48.6997 12.8073C48.5618 12.5835 48.4712 12.3365 48.4332 12.0801C48.2715 11.3362 48.0076 10.6154 47.6484 9.93594C47.2962 9.26195 46.7906 8.66982 46.1677 8.20194C45.5337 7.73163 44.7478 7.48147 43.9417 7.49343C43.3317 7.4762 42.7313 7.63915 42.2241 7.95955C41.7298 8.30462 41.3207 8.7467 41.0247 9.25539C40.6433 9.90287 40.3245 10.5815 40.0721 11.283C39.9254 11.7117 39.7053 12.1148 39.4206 12.4763C39.2033 12.7297 38.9086 12.9137 38.5766 13.0031C38.4144 13.0434 38.2495 13.073 38.083 13.0916H22.4812C21.3065 13.0916 21.1535 12.4763 21.1535 12.4717L21.1288 12.3598C20.9103 11.1501 20.6119 9.95449 20.2354 8.77994V8.68671L18.0094 8.81257L18.73 12.3132C18.7744 12.5099 18.8041 12.7092 18.8189 12.9098L18.6511 12.9611H18.8189L18.8435 13.1009H18.7004C18.6007 13.1264 18.4976 13.1374 18.3944 13.1336H15.6304V12.9937C15.5071 12.2286 15.2764 11.4825 14.9443 10.775C14.6113 10.0648 14.1037 9.44 13.4636 8.95241C12.8203 8.49299 12.0287 8.25753 11.2228 8.28584C10.5278 8.28978 9.85206 8.50195 9.29293 8.89181C8.66445 9.31978 8.15616 9.88622 7.81221 10.5419C7.44649 11.2304 7.25713 11.9904 7.25941 12.7607C7.24574 13.6495 7.55008 14.5167 8.12316 15.2218C8.72038 15.9536 9.74208 16.3126 11.1882 16.3126H13.4291L13.2366 16.5689C12.9914 16.8824 12.6909 17.1537 12.3481 17.3707C11.1537 18.1724 9.31267 18.8996 6.87442 19.5475L6.74609 19.5801L7.7974 22.4934L7.91586 22.4655C10.744 21.7103 12.817 20.6009 14.0756 19.1187C14.7489 18.3353 15.2278 17.4194 15.4774 16.4384L15.5119 16.3126H17.0223C17.9503 16.3043 18.87 16.1467 19.7418 15.8464L19.7961 15.8231L19.9886 15.7346L20.0627 15.688L20.1466 15.7252L20.3884 15.8231C21.536 16.1518 22.7341 16.2952 23.9323 16.2473H37.7523C38.1866 16.2473 39.6723 16.1354 40.5114 15.1146L40.5508 15.0633C40.6201 14.9733 40.6843 14.88 40.7433 14.7837L40.8421 14.6112L41 14.7324C41.4005 15.0313 41.8302 15.2935 42.2833 15.5155C42.8761 15.8185 43.5016 16.0607 44.149 16.238C45.4076 16.5783 46.4688 16.6062 47.1104 16.21C47.3518 16.0632 47.5571 15.8693 47.7126 15.6413L47.8113 15.4922L47.9594 15.5994L48.0976 15.688L48.1716 15.7299C48.8119 16.0854 49.5414 16.2721 50.2841 16.2706C50.9095 16.2596 51.5259 16.1279 52.0955 15.8837ZM13.2316 13.2221C12.6986 13.2501 12.2445 13.2641 11.8546 13.2641C11.1539 13.302 10.452 13.2134 9.7865 13.0031C9.62219 12.9603 9.47726 12.8678 9.37386 12.7399C9.27046 12.6119 9.21429 12.4555 9.21395 12.2945C9.2178 12.0896 9.27728 11.8889 9.3867 11.7119C9.51115 11.5023 9.69829 11.3321 9.9247 11.2224C10.2036 11.0871 10.5145 11.0214 10.8279 11.0313C11.1356 11.0292 11.4405 11.0863 11.724 11.1994C12.0075 11.3124 12.2635 11.4788 12.4765 11.6886C12.8847 12.0631 13.1941 12.5229 13.3797 13.031L13.4587 13.2361L13.2316 13.2221ZM46.0344 13.4645C45.5924 13.4437 45.1556 13.3653 44.7363 13.2315C44.1749 13.0706 43.6285 12.8664 43.1026 12.6208C42.6995 12.4368 42.3161 12.2168 41.9575 11.9636L41.8588 11.8844L41.9082 11.7725C42.0483 11.4205 42.2691 11.1021 42.5547 10.8402C42.8785 10.573 43.3001 10.4358 43.7295 10.458C44.1422 10.4565 44.5478 10.5595 44.9042 10.7563C45.2843 10.9558 45.6196 11.2234 45.8913 11.5441C46.1521 11.8458 46.3649 12.1819 46.5231 12.5416C46.5937 12.7157 46.6304 12.9005 46.6317 13.087C46.6317 13.3387 46.449 13.4645 46.0344 13.4645Z" fill="#0D72FF"/>
<path d="M70.6527 12.2384C70.2776 11.0454 69.8226 9.87619 69.2904 8.73776L69.246 8.64453H69.2164L66.4672 10.248C67.6123 12.0706 68.1305 12.8537 68.5501 13.8791L68.7179 14.3453V14.3872C69.325 16.2144 68.3773 17.2446 67.7604 17.6921C66.245 18.5212 64.6156 19.1486 62.9184 19.5566L62.7852 19.5939L63.9697 22.5025L64.0734 22.4792C64.8624 22.2945 65.6348 22.0514 66.3833 21.7521C67.1031 21.4631 67.7922 21.1104 68.4415 20.6986C69.3079 20.1606 70.0295 19.4392 70.549 18.5917C71.0317 17.7313 71.273 16.7684 71.2499 15.7949C71.2237 14.5892 71.0228 13.3926 70.6527 12.2384Z" fill="#0D72FF"/>
<path d="M85.5191 20.8961L89.2044 23.0739C89.2704 23.1199 89.3243 23.1812 89.3615 23.2525C89.3988 23.3238 89.4182 23.403 89.4182 23.4835C89.4182 23.5639 89.3988 23.6431 89.3615 23.7144C89.3243 23.7857 89.2704 23.847 89.2044 23.893L85.3741 26.1457C85.2992 26.1927 85.2126 26.2177 85.1241 26.2177C85.0356 26.2177 84.949 26.1927 84.8741 26.1457L81.2138 23.973C81.1478 23.9269 81.0939 23.8657 81.0567 23.7943C81.0194 23.723 81 23.6438 81 23.5634C81 23.483 81.0194 23.4037 81.0567 23.3324C81.0939 23.2611 81.1478 23.1998 81.2138 23.1538L85.0291 20.8961C85.1039 20.8541 85.1883 20.832 85.2741 20.832C85.3599 20.832 85.4443 20.8541 85.5191 20.8961Z" fill="#E8422C"/>
<path d="M94.5088 5.96906V14.9599C94.5065 15.0422 94.4838 15.1227 94.4428 15.1941C94.4018 15.2656 94.3437 15.3258 94.2738 15.3695L90.6435 17.5272C90.5775 17.5733 90.5236 17.6346 90.4864 17.7059C90.4491 17.7772 90.4297 17.8564 90.4297 17.9368C90.4297 18.0173 90.4491 18.0965 90.4864 18.1678C90.5236 18.2391 90.5775 18.3004 90.6435 18.3464L94.3538 20.5392C94.4287 20.5862 94.5153 20.6111 94.6038 20.6111C94.6922 20.6111 94.7789 20.5862 94.8538 20.5392L99.0191 18.0717C99.089 18.0281 99.1471 17.9678 99.1881 17.8964C99.2291 17.8249 99.2518 17.7444 99.2541 17.6621V8.17181C99.2518 8.08948 99.2291 8.009 99.1881 7.93754C99.1471 7.86608 99.089 7.80585 99.0191 7.76223L95.2288 5.55948C95.1555 5.5233 95.0744 5.50563 94.9927 5.50803C94.9109 5.51043 94.831 5.53283 94.7599 5.57325C94.6888 5.61368 94.6288 5.67091 94.585 5.73991C94.5412 5.80892 94.515 5.8876 94.5088 5.96906Z" fill="#0D72FF"/>
<path d="M83.9842 19.736V10.3256C83.9866 10.2433 84.0092 10.1628 84.0502 10.0913C84.0912 10.0199 84.1493 9.95964 84.2192 9.91602L87.9695 7.69828C88.0428 7.66209 88.1239 7.64443 88.2057 7.64683C88.2874 7.64923 88.3673 7.67162 88.4384 7.71205C88.5095 7.75248 88.5695 7.80971 88.6133 7.87871C88.6571 7.94772 88.6833 8.0264 88.6895 8.10786V16.3844C88.6958 16.4659 88.722 16.5446 88.7658 16.6136C88.8095 16.6826 88.8696 16.7398 88.9407 16.7802C89.0117 16.8206 89.0917 16.843 89.1734 16.8454C89.2552 16.8478 89.3363 16.8302 89.4096 16.794L93.1898 14.5563C93.2608 14.5142 93.3194 14.4542 93.3598 14.3823C93.4002 14.3104 93.4209 14.2291 93.4199 14.1467V4.75129C93.4181 4.66942 93.3962 4.58924 93.356 4.51781C93.3159 4.44639 93.2589 4.38591 93.1898 4.34171L88.9346 1.84426C88.8585 1.80042 88.7723 1.77734 88.6845 1.77734C88.5968 1.77734 88.5105 1.80042 88.4345 1.84426L79.4889 7.10389C79.419 7.14751 79.3609 7.20773 79.3199 7.2792C79.2789 7.35066 79.2562 7.43114 79.2539 7.51347V21.9637C79.2602 22.0452 79.2863 22.1238 79.3301 22.1929C79.3739 22.2619 79.434 22.3191 79.505 22.3595C79.5761 22.3999 79.656 22.4223 79.7378 22.4247C79.8195 22.4271 79.9006 22.4095 79.974 22.3733L83.7542 20.1206C83.8199 20.0788 83.8749 20.0223 83.9148 19.9555C83.9547 19.8887 83.9785 19.8136 83.9842 19.736Z" fill="#0D72FF"/>
</svg>
