<svg width="24" height="24" viewBox="0 0 24 24" fill="none" xmlns="http://www.w3.org/2000/svg">
<path d="M19 16H17C16.9992 15.4133 16.8198 14.8408 16.4858 14.3585C16.1518 13.8763 15.6789 13.5071 15.13 13.3L9 11H1V22H7V20.56L14 22.5L22 20V19C22 18.2044 21.6839 17.4413 21.1213 16.8787C20.5587 16.3161 19.7956 16 19 16ZM3 20V13H5V20H3ZM14 20.41L7 18.48V13H8.61L14.43 15.17C14.5977 15.2346 14.7419 15.3485 14.8437 15.4966C14.9454 15.6448 14.9999 15.8203 15 16C14.2312 15.9902 13.4635 15.9402 12.7 15.85L10.32 15.06L9.69 17L12.07 17.79C12.5793 17.961 13.1128 18.0488 13.65 18.05H19C19.1874 18.0496 19.3712 18.1019 19.5303 18.2009C19.6894 18.3 19.8175 18.4417 19.9 18.61L14 20.41Z" fill="black"/>
<path d="M19.9237 7C19.9191 6.78882 19.8991 6.57826 19.8638 6.37L21.0037 5.37L20.0037 3.63L18.5537 4.12C18.2327 3.84944 17.8673 3.63632 17.4737 3.49L17.1737 2H15.1737L14.8737 3.49C14.4802 3.63632 14.1148 3.84944 13.7937 4.12L12.3438 3.63L11.3438 5.36L12.4837 6.36C12.4484 6.56826 12.4284 6.77882 12.4237 6.99C12.4284 7.20118 12.4484 7.41174 12.4837 7.62L11.3438 8.62L12.3438 10.35L13.7937 9.86C14.1148 10.1306 14.4802 10.3437 14.8737 10.49L15.1737 11.98H17.1737L17.4737 10.49C17.8673 10.3437 18.2327 10.1306 18.5537 9.86L20.0037 10.35L21.0037 8.62L19.8638 7.62C19.8986 7.41504 19.9186 7.20784 19.9237 7ZM16.1737 9C15.7782 9 15.3915 8.8827 15.0626 8.66294C14.7337 8.44318 14.4774 8.13082 14.326 7.76537C14.1746 7.39991 14.135 6.99778 14.2122 6.60982C14.2893 6.22186 14.4798 5.86549 14.7595 5.58579C15.0392 5.30608 15.3956 5.1156 15.7836 5.03843C16.1715 4.96126 16.5737 5.00087 16.9391 5.15224C17.3046 5.30362 17.6169 5.55996 17.8367 5.88886C18.0565 6.21776 18.1737 6.60444 18.1737 7C18.1737 7.53043 17.963 8.03914 17.588 8.41421C17.2129 8.78929 16.7042 9 16.1737 9Z" fill="black"/>
</svg>
