<svg width="25" height="25" viewBox="0 0 25 25" fill="none" xmlns="http://www.w3.org/2000/svg">
<path d="M12.4982 3.004C12.0279 3.00155 11.5586 3.04847 11.0982 3.144C9.82634 3.40396 8.65185 4.01246 7.70595 4.9015C6.76005 5.79053 6.07999 6.92508 5.74177 8.17837C5.40355 9.43165 5.42049 10.7543 5.7907 11.9985C6.16091 13.2427 6.8698 14.3595 7.83816 15.224C8.04708 15.4074 8.21413 15.6336 8.328 15.8872C8.44187 16.1409 8.4999 16.416 8.49816 16.694V19.004C8.49816 19.5344 8.70887 20.0431 9.08395 20.4182C9.45902 20.7933 9.96773 21.004 10.4982 21.004H10.7782C10.9552 21.3024 11.2069 21.5497 11.5085 21.7214C11.8101 21.8931 12.1511 21.9834 12.4982 21.9834C12.8452 21.9834 13.1862 21.8931 13.4878 21.7214C13.7894 21.5497 14.0411 21.3024 14.2182 21.004H14.4982C15.0286 21.004 15.5373 20.7933 15.9124 20.4182C16.2874 20.0431 16.4982 19.5344 16.4982 19.004V16.694C16.4953 16.4192 16.5509 16.1469 16.6613 15.8952C16.7716 15.6435 16.9342 15.4181 17.1382 15.234C18.1978 14.2914 18.9461 13.0491 19.2839 11.6718C19.6218 10.2944 19.5334 8.8469 19.0303 7.52092C18.5273 6.19494 17.6333 5.05305 16.4668 4.24644C15.3003 3.43983 13.9164 3.00656 12.4982 3.004ZM14.4982 17.004H10.4982V16.004H14.4982V17.004ZM10.4982 19.004V18.004H14.4982V19.004H10.4982ZM15.8082 13.744C15.7182 13.824 15.6482 13.924 15.5682 14.004H9.41816C9.34351 13.9094 9.26337 13.8192 9.17816 13.734C8.55369 13.1795 8.07807 12.4773 7.79473 11.6917C7.51138 10.9061 7.42934 10.062 7.55608 9.23653C7.68283 8.41105 8.01433 7.63046 8.52031 6.96604C9.0263 6.30161 9.69066 5.77452 10.4527 5.43287C11.2148 5.09121 12.0503 4.94589 12.883 5.01017C13.7157 5.07445 14.519 5.34628 15.2196 5.80084C15.9202 6.2554 16.4958 6.87822 16.8938 7.61242C17.2918 8.34663 17.4996 9.16885 17.4982 10.004C17.4971 10.7115 17.3459 11.4107 17.0546 12.0554C16.7632 12.7001 16.3384 13.2756 15.8082 13.744Z" fill="black"/>
<path d="M22.5 9.00391H20.5V11.0039H22.5V9.00391Z" fill="black"/>
<path d="M20.3637 11.8003L19.6797 13.6797L21.5591 14.3637L22.2431 12.4843L20.3637 11.8003Z" fill="black"/>
<path d="M21.5593 5.64474L19.6797 6.32812L20.3631 8.20775L22.2427 7.52436L21.5593 5.64474Z" fill="black"/>
<path d="M4.5 9.00391H2.5V11.0039H4.5V9.00391Z" fill="black"/>
<path d="M4.63744 11.8049L2.75781 12.4883L3.4412 14.3679L5.32082 13.6845L4.63744 11.8049Z" fill="black"/>
<path d="M3.43404 5.65186L2.75 7.53125L4.62939 8.21529L5.31343 6.33591L3.43404 5.65186Z" fill="black"/>
</svg>
