<svg width="24" height="24" viewBox="0 0 24 24" fill="none" xmlns="http://www.w3.org/2000/svg">
<path d="M12 24C18.6274 24 24 18.6274 24 12C24 5.37258 18.6274 0 12 0C5.37258 0 0 5.37258 0 12C0 18.6274 5.37258 24 12 24Z" fill="url(#paint0_linear_19689_152122)"/>
<path d="M8.11719 12.8765L9.53941 16.8179C9.53941 16.8179 9.71719 17.1859 9.90919 17.1859C10.1012 17.1859 12.9314 14.2365 12.9314 14.2365L16.0923 8.14941L8.1723 11.8614L8.11719 12.8765Z" fill="#C8DAEA"/>
<path d="M10.0074 13.8862L9.73537 16.7911C9.73537 16.7911 9.61982 17.68 10.5105 16.7911C11.4012 15.9022 12.2509 15.216 12.2509 15.216L10.0074 13.8862Z" fill="#A9C6D8"/>
<path d="M8.14701 13.017L5.21901 12.0605C5.21901 12.0605 4.86345 11.9183 4.98078 11.5965C5.00389 11.5308 5.0519 11.4739 5.19056 11.3761C5.83945 10.9246 17.2012 6.84099 17.2012 6.84099C17.3649 6.78332 17.5411 6.77044 17.7115 6.80367C17.7583 6.81867 17.8004 6.84554 17.8338 6.88168C17.8671 6.91783 17.8905 6.96199 17.9017 7.00987C17.9216 7.09428 17.9299 7.18101 17.9266 7.26766C17.9266 7.34411 17.9159 7.41343 17.9088 7.52365C17.8394 8.6401 15.7754 16.9725 15.7754 16.9725C15.7754 16.9725 15.651 17.4597 15.2066 17.4757C15.0976 17.4796 14.9891 17.4614 14.8873 17.4223C14.7856 17.3832 14.6928 17.324 14.6146 17.2481C13.7434 16.4979 10.7319 14.4748 10.067 14.0303C10.052 14.0199 10.0394 14.0064 10.0299 13.9908C10.0204 13.9752 10.0143 13.9578 10.0119 13.9396C10.003 13.8934 10.0546 13.8348 10.0546 13.8348C10.0546 13.8348 15.2972 9.17521 15.4359 8.67921C15.4466 8.64188 15.4057 8.62232 15.3506 8.63832C14.995 8.76632 8.96656 12.5779 8.2999 12.9992C8.25119 13.0177 8.19866 13.0238 8.14701 13.017Z" fill="white"/>
<defs>
<linearGradient id="paint0_linear_19689_152122" x1="12" y1="24" x2="12" y2="0" gradientUnits="userSpaceOnUse">
<stop stop-color="#1D93D2"/>
<stop offset="1" stop-color="#38B0E3"/>
</linearGradient>
</defs>
</svg>
