<svg width="24" height="24" viewBox="0 0 24 24" fill="none" xmlns="http://www.w3.org/2000/svg">
<path d="M12 24C18.6274 24 24 18.6274 24 12C24 5.37258 18.6274 0 12 0C5.37258 0 0 5.37258 0 12C0 18.6274 5.37258 24 12 24Z" fill="#5A99EC"/>
<path d="M9.57423 18.91C15.4409 18.91 18.6409 14.0549 18.6409 9.84336C18.6409 9.70647 18.6409 9.56958 18.6409 9.43269C19.2643 8.98132 19.8024 8.42269 20.2302 7.78291C19.6486 8.03944 19.0321 8.20838 18.4009 8.28425C19.0661 7.88558 19.564 7.25888 19.8018 6.52069C19.1767 6.89239 18.4923 7.15397 17.7787 7.29402C17.3414 6.82841 16.7743 6.50491 16.151 6.36546C15.5277 6.22602 14.8768 6.27706 14.2828 6.51197C13.6889 6.74688 13.1792 7.15482 12.8198 7.6829C12.4605 8.21098 12.2681 8.83483 12.2676 9.47358C12.2665 9.7183 12.294 9.96231 12.3494 10.2007C11.0824 10.1372 9.84305 9.80791 8.71166 9.23425C7.58028 8.6606 6.58219 7.85539 5.78224 6.87091C5.37429 7.57239 5.24924 8.40304 5.43257 9.19354C5.61591 9.98403 6.09383 10.6748 6.7689 11.1251C6.26281 11.1097 5.7678 10.9731 5.32535 10.7269C5.32442 10.7405 5.32442 10.7542 5.32535 10.7678C5.32555 11.5035 5.58024 12.2165 6.04619 12.7858C6.51214 13.3551 7.16068 13.7457 7.8818 13.8914C7.4128 14.0187 6.92095 14.0375 6.44358 13.9465C6.64835 14.5788 7.04492 15.1316 7.57822 15.5282C8.11153 15.9249 8.75509 16.1456 9.41956 16.1598C8.29057 17.045 6.8969 17.5252 5.46224 17.5234C5.20854 17.5238 4.95504 17.509 4.70312 17.4789C6.15997 18.4146 7.85525 18.9114 9.58669 18.91" fill="white"/>
</svg>
