<svg width="421" height="224" viewBox="0 0 421 224" fill="none" xmlns="http://www.w3.org/2000/svg">
    <path d="M180 27.728c-49-5-136.219 1.5-164.36 44.5-28.14 42.999-10.56 150.767 0 150.749h374.812l4.798.161s29.328-42.294 2.778-66.992c-26.549-24.699-8.323-35.995-5.094-45.538 3.705-10.962 4.407-33.036-25.423-60.306-26.602-24.312-46.909-52.304-96.46-50.19C221.5 2.229 229 32.728 180 27.729z" fill="url(#a)"/>
    <path d="M86.29 55.23H13.354a.667.667 0 0 0-.666.666v45.737c0 .368.298.667.666.667H86.29a.667.667 0 0 0 .667-.667V55.896a.667.667 0 0 0-.667-.666z" fill="url(#b)"/>
    <path d="M85.928 100.582V59.584a.527.527 0 0 0-.528-.527H14.234a.527.527 0 0 0-.527.527v40.998c0 .291.236.527.527.527H85.4a.527.527 0 0 0 .528-.527z" fill="#F0F8FF"/>
    <path d="M84.51 58.085a.94.94 0 1 0 0-1.879.94.94 0 0 0 0 1.879zM81.402 58.085a.94.94 0 1 0 0-1.879.94.94 0 0 0 0 1.879zM79.234 57.145a.942.942 0 1 1-1.884.006.942.942 0 0 1 1.884-.006z" fill="#BDD0FB"/>
    <path d="M23.897 66.585a3.803 3.803 0 1 1-7.606.018 3.803 3.803 0 0 1 7.606-.018z" fill="url(#c)"/>
    <path d="M82.346 62.81H25.648v1.797h56.698V62.81zM64.234 65.686H25.648v1.797h38.586v-1.797zM45.714 68.738H25.648v1.797h20.066v-1.797z" fill="#BDD0FB"/>
    <path d="M23.897 78.692a3.803 3.803 0 1 1-7.606 0 3.803 3.803 0 0 1 7.606 0z" fill="#739AF0"/>
    <path d="M82.346 74.92H25.648v1.798h56.698V74.92zM64.234 77.796H25.648v1.797h38.586v-1.797zM45.714 80.847H25.648v1.797h20.066v-1.797z" fill="#BDD0FB"/>
    <path d="M23.897 90.802a3.803 3.803 0 1 1-7.607.006 3.803 3.803 0 0 1 7.607-.006z" fill="url(#d)"/>
    <path d="M82.346 87.03H25.648v1.796h56.698V87.03zM64.234 89.905H25.648v1.797h38.586v-1.797zM45.714 92.955H25.648v1.797h20.066v-1.797z" fill="#BDD0FB"/>
    <path d="M90.475 51.191H8.604v55.604h81.871V51.191z" stroke="url(#e)" stroke-miterlimit="10"/>
    <path d="M10.208 49.588H7.002v3.206h3.206v-3.206z" fill="url(#f)"/>
    <path d="M10.208 105.191H7.002v3.206h3.206v-3.206z" fill="url(#g)"/>
    <path d="M92.08 49.588h-3.205v3.206h3.206v-3.206z" fill="url(#h)"/>
    <path d="M92.08 105.191h-3.205v3.206h3.206v-3.206z" fill="url(#i)"/>
    <path d="M71.82 151.002H15.874a.666.666 0 0 0-.667.667v38.449c0 .368.298.667.667.667H71.82a.667.667 0 0 0 .666-.667v-38.449a.666.666 0 0 0-.666-.667z" fill="url(#j)"/>
    <path d="M71.621 189.352V154.66a.424.424 0 0 0-.424-.425H16.499a.424.424 0 0 0-.424.425v34.692c0 .234.19.424.425.424h54.697c.234 0 .424-.19.424-.424zM71.219 152.62a.799.799 0 0 1-.95.785.795.795 0 0 1-.29-1.444.795.795 0 0 1 1.24.659zM68.588 152.62a.798.798 0 1 1-1.595.006.798.798 0 0 1 1.595-.006zM65.965 152.62a.793.793 0 0 1-1.356.561.792.792 0 0 1 .562-1.355.794.794 0 0 1 .794.794z" fill="#fff"/>
    <path d="M51.847 174.037a8.25 8.25 0 1 0-15.995-4.059 8.25 8.25 0 1 0 15.995 4.059z" fill="url(#k)"/>
    <path d="m48.674 172.008-3.818 2.203-3.82 2.205v-8.82l3.82 2.206 3.818 2.206z" fill="#F0F8FF"/>
    <path d="M71.622 186.052H16.076v1.094h55.546v-1.094z" fill="#BDD0FB"/>
    <path d="M28.59 186.052H16.077v1.094h12.515v-1.094z" fill="url(#l)"/>
    <path d="M28.59 187.437a.84.84 0 1 0-.001-1.68.84.84 0 0 0 0 1.68z" fill="url(#m)"/>
    <path d="M75.55 148.363H12.145v45.78H75.55v-45.78z" stroke="url(#n)" stroke-miterlimit="10"/>
    <path d="M13.387 147.12h-2.485v2.485h2.485v-2.485z" fill="url(#o)"/>
    <path d="M13.387 192.9h-2.485v2.485h2.485V192.9z" fill="url(#p)"/>
    <path d="M76.795 147.12h-2.484v2.485h2.484v-2.485z" fill="url(#q)"/>
    <path d="M76.795 192.9h-2.484v2.485h2.484V192.9z" fill="url(#r)"/>
    <path d="M202.735 80.016h-27.117a.956.956 0 0 1-.958-.96V59.684a.961.961 0 0 1 .28-.678.948.948 0 0 1 .678-.28h11.023c.254 0 .497.1.676.28l1.791 1.79a.963.963 0 0 0 .679.282h12.948a.958.958 0 0 1 .957.957v17.02a.946.946 0 0 1-.279.68.96.96 0 0 1-.678.281z" fill="url(#s)"/>
    <path d="M200.278 47.367v24.387h-23.02V43.727h19.384l3.636 3.64z" fill="#BDD0FB"/>
    <path d="M196.641 47.367v-3.64l3.636 3.64h-3.636z" fill="#BDD0FB"/>
    <path d="M201.704 48.642V73.03h-23.02V45.003h19.38l3.64 3.64z" fill="#F0F8FF"/>
    <path d="M203.755 80.017h-27.114a.96.96 0 0 1-.957-.96V62.436a.955.955 0 0 1 .957-.958h11.024c.254 0 .498.1.679.28l1.79 1.793c.181.18.425.28.679.279h12.948a.96.96 0 0 1 .958.96v14.266a.951.951 0 0 1-.283.68.955.955 0 0 1-.681.281z" fill="url(#t)"/>
    <path d="M198.066 48.642v-3.64l3.64 3.64h-3.64zM197.097 46.605h-17.433v.948h17.433v-.948zM200.665 50.173h-20.938v.597h20.938v-.597zM200.665 51.867h-20.938v.597h20.938v-.597zM196.935 53.558h-17.208v.597h17.208v-.597zM196.935 55.248h-17.208v.597h17.208v-.597zM191.362 56.938h-11.635v.597h11.635v-.596zM191.362 58.63h-11.635v.598h11.635v-.597z" fill="#BDD0FB"/>
    <path d="M195.594 81.7H58.152c-.764 0-1.384.62-1.384 1.384v79.111c0 .765.62 1.385 1.384 1.385h137.442c.765 0 1.385-.62 1.385-1.385V83.084c0-.765-.62-1.385-1.385-1.385z" fill="url(#u)"/>
    <path d="M195.045 160.489V89.756a.837.837 0 0 0-.836-.836H59.536a.836.836 0 0 0-.836.836v70.733c0 .462.374.837.836.837H194.21a.837.837 0 0 0 .836-.837z" fill="#F0F8FF"/>
    <path d="M194.143 85.315a1.776 1.776 0 1 1-3.553 0 1.776 1.776 0 0 1 3.553 0zM188.274 85.315a1.776 1.776 0 1 1-3.553 0 1.776 1.776 0 0 1 3.553 0zM182.401 85.315a1.776 1.776 0 1 1-3.553 0 1.776 1.776 0 0 1 3.553 0z" fill="#BDD0FB"/>
    <path d="M114.034 92.963H62.219v37.195h51.815V92.963z" stroke="url(#v)" stroke-miterlimit="10"/>
    <path d="M120.095 98.959H68.279v37.195h51.816V98.959z" fill="#739AF0"/>
    <path d="M116.74 133.169H71.527l14.245-26.874 10.706 18.469 7.26-7.664 13.002 16.069zM98.608 112.201a4.424 4.424 0 1 0 0-8.849 4.424 4.424 0 0 0 0 8.849z" stroke="#fff" stroke-width="2" stroke-linecap="round" stroke-linejoin="round"/>
    <path d="M190.591 93.538h-64.542v3.97h64.542v-3.97zM144.596 100.848h-18.547v1.984h18.547v-1.984zM154.652 100.848h-7.527v1.984h7.527v-1.984zM177.299 100.848h-19.754v1.984h19.754v-1.984zM190.592 100.848h-11.733v1.984h11.733v-1.984zM150.499 105.793h-24.45v1.985h24.45v-1.985zM162.722 105.793h-9.515v1.985h9.515v-1.985zM174.405 105.793h-9.514v1.985h9.514v-1.985zM187.956 105.793h-12.081v1.985h12.081v-1.985zM132.855 110.738h-6.806v1.985h6.806v-1.985zM170.187 110.738h-12.224v1.985h12.224v-1.985zM155.915 110.738h-21.499v1.985h21.499v-1.985zM141.466 115.686h-15.417v1.984h15.417v-1.984zM149.292 115.686h-5.179v1.984h5.179v-1.984zM161.878 115.686h-10.179v1.984h10.179v-1.984zM131.949 120.631h-5.9v1.985h5.9v-1.985zM147.126 120.631h-12.948v1.985h12.948v-1.985zM120.092 140.103H62.219v17.214h57.873v-17.214z" fill="#BDD0FB"/>
    <path d="M74.744 141.273H63.76v10.215h10.984v-10.215zM74.744 153.005H63.76v3.036h10.984v-3.036zM88.734 145.823H77.75v10.215h10.984v-10.215zM88.734 141.273H77.75v3.037h10.984v-3.037zM103.816 141.273H92.832v10.215h10.984v-10.215zM103.816 153.005H92.832v3.036h10.984v-3.036zM117.814 145.823H106.83v10.215h10.984v-10.215zM117.814 141.273H106.83v3.037h10.984v-3.037z" fill="#fff"/>
    <path d="M128.018 126.163h63.891a.625.625 0 0 1 .624.624v2.934h-65.148v-2.934a.628.628 0 0 1 .186-.444.636.636 0 0 1 .447-.18z" fill="url(#w)"/>
    <path d="M191.878 129.034v26.969a1.128 1.128 0 0 1-1.125 1.124h-61.582a1.133 1.133 0 0 1-.794-.33 1.131 1.131 0 0 1-.33-.794v-26.969h63.831zm.657-.654h-65.148v27.635a1.786 1.786 0 0 0 .522 1.259 1.774 1.774 0 0 0 1.259.52h61.585a1.791 1.791 0 0 0 1.26-.52 1.771 1.771 0 0 0 .522-1.259V128.38z" fill="url(#x)"/>
    <path d="M137.855 131.915h-8.197v23.647h8.197v-23.647zM189.686 131.915h-39.604v23.647h39.604v-23.647z" fill="#BDD0FB"/>
    <path d="M187.746 133.169h-35.553v2.412h35.553v-2.412zM187.746 137.034h-35.553v1.206h35.553v-1.206z" fill="#fff"/>
    <path d="M147.771 137.034h-8.197v2.821h8.197v-2.821z" fill="#BDD0FB"/>
    <path d="M159.841 139.328h-7.648v14.463h7.648v-14.463zM178.619 139.328h-7.648v14.463h7.648v-14.463zM169.814 154.117h-8.302V139h8.302v15.117zm-7.648-.654h6.994v-13.808h-6.994v13.808zM188.076 154.117h-8.303V139h8.303v15.117zm-7.648-.654h6.991v-13.808h-6.991v13.808z" fill="#fff"/>
    <path d="M147.771 142.148h-8.197v2.821h8.197v-2.821zM147.771 147.264h-8.197v2.821h8.197v-2.821zM147.771 152.378h-8.197v2.821h8.197v-2.821z" fill="#BDD0FB"/>
    <path d="M145.043 200.727H112.62a1.16 1.16 0 0 1-1.157-1.16v-36.002h34.741v36.002a1.16 1.16 0 0 1-1.161 1.16z" fill="#fff"/>
    <path d="M145.598 164.171v35.396a.555.555 0 0 1-.555.554h-32.422a.557.557 0 0 1-.552-.554v-35.396h33.529zm.606-.606h-34.747v36.002a1.167 1.167 0 0 0 .338.82 1.151 1.151 0 0 0 .82.34h32.422a1.16 1.16 0 0 0 1.161-1.16v-36.002h.006z" fill="url(#y)"/>
    <path d="M112.615 159.208h32.422a1.16 1.16 0 0 1 1.161 1.161v3.196h-34.741v-3.203a1.16 1.16 0 0 1 1.158-1.154z" fill="url(#z)"/>
    <path d="M138.634 161.304a.691.691 0 1 1-1.383-.002.691.691 0 0 1 1.383.002zM141.642 161.304a.691.691 0 1 1-1.383-.002.691.691 0 0 1 1.383.002zM144.653 161.304a.69.69 0 1 1-1.38.002.69.69 0 0 1 1.38-.002z" fill="#BDD0FB"/>
    <path d="M120.497 171.438a2.658 2.658 0 0 1-1.643 2.463 2.659 2.659 0 0 1-2.904-.577 2.66 2.66 0 0 1-.577-2.904 2.668 2.668 0 0 1 2.463-1.643 2.664 2.664 0 0 1 2.661 2.661z" fill="url(#A)"/>
    <path d="M141.52 169.477h-18.696v1.23h18.696v-1.23zM133.251 172.548h-10.427v1.23h10.427v-1.23z" fill="#BDD0FB"/>
    <path d="M120.497 180.755a2.656 2.656 0 0 1-.448 1.481 2.667 2.667 0 0 1-4.099.406 2.666 2.666 0 0 1 .406-4.1 2.664 2.664 0 0 1 4.141 2.213z" fill="url(#B)"/>
    <path d="M141.52 178.794h-18.696v1.23h18.696v-1.23zM133.251 181.865h-10.427v1.23h10.427v-1.23z" fill="#BDD0FB"/>
    <path d="M120.497 190.074a2.652 2.652 0 0 1-.448 1.48 2.658 2.658 0 0 1-2.734 1.135 2.666 2.666 0 0 1-1.942-3.633c.202-.487.544-.903.983-1.195a2.661 2.661 0 0 1 4.141 2.213z" fill="#739AF0"/>
    <path d="M141.52 188.112h-18.696v1.231h18.696v-1.231zM133.251 191.184h-10.427v1.23h10.427v-1.23zM324.173 110.354h-38.552v-2.285h38.552v2.285z" fill="#BDD0FB"/>
    <path d="M291 116.728h3v106h-3v-106z" fill="url(#C)"/>
    <path d="M344.938 110.687h-26.797v-3.266h26.797v3.266z" fill="#BDD0FB"/>
    <path d="M336.61 110.35h-10.145V79.569h10.145v30.781z" fill="url(#D)"/>
    <path d="M420.267 116.298H271.795v-5.91h148.472v5.91zM401.271 154.684H290.789v-10.596h110.482v10.596z" fill="#739AF0"/>
    <path d="M243.301 74.617s-1.623 22.746 2.807 25.465c2.806 1.705 13.901 7.474 13.564 8.535-.337 1.06-6.272 9.6-6.272 9.6s-21.348-14.043-22.036-18.467c-.673-4.32 1.048-33.299 3.985-34.635 2.199-1 3.359-.173 6.128 1.869 3.929 2.892 1.824 7.633 1.824 7.633z" fill="url(#E)"/>
    <path d="m282.207 81.112 1.871-.696s-2.339-5.499-3.372-5.368c-.893.137-1.778.32-2.652.547l4.153 5.517z" fill="#EAD8CF"/>
    <path d="M282.639 82.059c-.244-.178-4-7.381-4-7.381l-8.031 1.093 4.336 8.53 7.695-2.242z" fill="#F0F8FF"/>
    <path d="M269.562 206.052s-.664 4.602-.748 5.293c-.084.692-7.381-.406-7.381-.406l-.594-5.48s7.811-.056 8.723.593z" fill="#424773"/>
    <path d="M268.897 210.761s2.315 2.775 4.551 3.981c2.236 1.205 5.754 1.691 7.077 2.938.936.906 3.48 4.793-5.814 4.714-9.294-.08-13.775.551-14.771-.935-.997-1.485 1.44-11.006 1.44-11.006s2.203.79 7.517.308z" fill="url(#F)"/>
    <path d="M316.35 206.099s-.665 4.601-.749 5.293c-.084.691-7.385-.407-7.385-.407l-.599-5.475s7.816-.06 8.733.589z" fill="#739AF0"/>
    <path d="M315.676 210.802s2.315 2.775 4.551 3.985 10.473 2.2 11.796 3.452c.936.902 2.545 4.536-10.533 4.205-9.29-.243-13.771.546-14.767-.935-.996-1.481 1.441-11.001 1.441-11.001s2.072.831 7.512.294z" fill="url(#G)"/>
    <path d="M246.011 126.562s26.545 4.484 32.541 5.423c5.997.939 38.505 9.021 42.565 11.483 3.233 1.962-1.697 49.028-2.853 66.981h-12.802l-.935-53.863c-15.366.383-26.33-3.588-37.519-1.869-11.188 1.719-20.52 4.111-27.629-5.414.014-.024-.248-20.663 6.632-22.741z" fill="url(#H)"/>
    <path d="m272.178 210.495-12.479-.771-1.217-53.139c-6.613.164-8.887-.252-14.233-.901l-10.071-23.391c8.827 1.766 37.121 8.876 40.891 11.174 3.232 1.962-1.74 49.071-2.891 67.028z" fill="url(#I)"/>
    <path d="M258.235 27.178s9.729-2.686 13.443 4.863c3.713 7.55 2.03 21.845-2.877 23.19-4.907 1.345-11.956-.2-13.99-4.896-2.035-4.695-3.663-11.37-3.176-15.692.486-4.32 4.013-6.428 6.6-7.465z" fill="url(#J)"/>
    <path d="M266.26 53.727s-.107 5.737.524 6.96c.632 1.224-13.564.935-13.564.935s2.235-6.89.968-12.758c-1.268-5.868 12.072 4.863 12.072 4.863z" fill="url(#K)"/>
    <path d="m252.852 45.584.426.822a.616.616 0 0 1 .037.056c.038.066.08.122.117.183.038.06.753 1.541 4.43 1.289 3.676-.252 8.513-4.672 10.07-5.069 1.558-.397 1.652-1.275 1.652-1.275l.827 1.462 1.595.238s-1.085-4.433 1.282-5.989c2.367-1.555-1.071-14.136-13.041-11.104 0 0-3.742.682-6.459 2.504-2.769.691-7.681 3.611-.936 16.883z" fill="url(#L)"/>
    <path d="M252.861 45.607c.128.282.27.556.426.823l-.426-.823z" fill="url(#M)"/>
    <path d="M267.535 60.541s-.042-2.336-1.104-2.564c-1.062-.23-11.146-1.607-12.451-1.098l-.557 3.088s2.507 1.541 14.112.574z" fill="url(#N)"/>
    <path d="M270.452 40.566c-.271-1.916-2.456-4.116-3.704-1.13-1.249 2.984.846 7.329 2.245 7.095 1.398-.233 1.829-3.363 1.459-5.965z" fill="url(#O)"/>
    <path d="M309.788 88.155c.057.028.066.033 0 0z" fill="#323657"/>
    <path d="m228.955 216.796.884 2.48 37.294-11.543-1.787-5.022-36.391 14.085z" fill="#7D97F4"/>
    <path d="M268.414 205.969h-4.238v-40.493h4.238v40.493z" fill="#7D97F4"/>
    <path d="M278.792 165.708h-25.001v-2.387h25.001v2.387zM303.959 216.796l-.879 2.481-37.294-11.544 1.637-5.335 36.536 14.398z" fill="#7D97F4"/>
    <path d="M277.686 219.011v2.882l-11.9-14.16 1.637-5.335 10.263 16.613zM307.445 220.244a3.485 3.485 0 0 1-4.167 3.423 3.495 3.495 0 0 1-1.788-.952 3.48 3.48 0 0 1 .527-5.364 3.494 3.494 0 0 1 3.274-.324 3.497 3.497 0 0 1 1.889 1.884c.175.423.265.876.265 1.333z" fill="#7D97F4"/>
    <path d="M277.98 220.244a3.48 3.48 0 0 1-4.164 3.413 3.479 3.479 0 0 1 .68-6.893 3.483 3.483 0 0 1 3.484 3.48zM232.441 220.244a3.48 3.48 0 0 1-4.164 3.413 3.479 3.479 0 0 1 .68-6.893 3.487 3.487 0 0 1 3.219 2.148c.175.422.265.875.265 1.332z" fill="#7D97F4"/>
    <path d="M240.872 163.321h51.171a4.027 4.027 0 0 0 4.028-4.022v-.99a4.028 4.028 0 0 0-4.028-4.023h-51.171a4.034 4.034 0 0 0-4.032 4.027v.963a4.024 4.024 0 0 0 4.027 4.022l.005.023z" fill="url(#P)"/>
    <path d="M401 221.728h-3v-105h3v105z" fill="url(#Q)"/>
    <path d="M369.061 94.397h-75.05a6.282 6.282 0 0 1-6.286-6.28V38.94a6.282 6.282 0 0 1 6.286-6.278h75.05a6.283 6.283 0 0 1 6.287 6.278v49.178a6.283 6.283 0 0 1-6.287 6.279z" fill="url(#R)"/>
    <path d="M371.921 84.722H291.16V35.997h80.761v48.725z" fill="#F0F8FF"/>
    <path d="M349.682 110.466v-1.098s-1.544-6.83-12.485-6.83c-10.94 0-10.716 7.942-10.716 7.942l23.201-.014z" fill="url(#S)"/>
    <path d="M326.324 103.554s2.376-.187 3.274-.71c.899-.524 6.081-4.023 7.302-3.462 1.221.56 9.355 3.05 9.084 4.242-.272 1.191-1.039 1.074-1.609.859-.571-.215-6.488-1.448-7.017-1.238 0 0 5.81 2.117 5.833 3.658.024 1.542-1.216 1.92-1.768 2.504-.552.584-1.211 2.037-2.708 2.144-1.497.108-8.798-2.424-10.291-2.541-1.492-.117-4.289.093-4.476-.149-.187-.243 2.376-5.307 2.376-5.307z" fill="url(#T)"/>
    <path d="M283.083 63.779c-7.573-1.332-15.548-3.238-15.548-3.238l-14.112-.574s-12.952 2.845-18.051 5.139c-.467.214-.467 11.538-1.814 14.481l4.209 8.91s2.442 17.648 2.952 25.501c.229 3.602-.66 34.822-.66 34.822s1.268.626 10.899 1.686c9.631 1.061 33.677-.383 33.846-1.518.168-1.135-4.678-42.301-4.874-44.436-.327-3.27.935-18.387.935-18.387 1.815 2.434 6.441 13.426 11.264 18.658 2.858 3.107 16.89 4.994 19.556 5.083 5.758.191 16.273 1.336 16.582.78.243-.336.935-9.32.252-9.539-.575-.192-20.113-1.318-25.094-3.967-1.829-.967-7.302-12.879-7.302-12.879s-8.859-18.644-13.04-20.522z" fill="url(#U)"/>
    <path d="M235.105 147.953h16.643c3.208 0 6.284-1.273 8.553-3.538a12.077 12.077 0 0 0 3.543-8.543v-32.336c0-3.204-1.275-6.277-3.543-8.543a12.104 12.104 0 0 0-8.553-3.538h-16.652a12.103 12.103 0 0 0-8.553 3.538 12.071 12.071 0 0 0-3.543 8.543v32.336a12.072 12.072 0 0 0 3.548 8.545 12.1 12.1 0 0 0 8.557 3.536z" fill="url(#V)"/>
    <path d="M256.63 161.074c-6.02 0-10.908-2.023-14.5-6.008-8.167-9.002-6.698-24.83-6.633-25.498a2.27 2.27 0 0 1 2.478-1.977 2.274 2.274 0 0 1 2.045 2.421c0 .182-1.319 14.529 5.487 22.017 2.75 3.032 6.394 4.504 11.142 4.504a2.272 2.272 0 0 1 1.607 3.876 2.276 2.276 0 0 1-1.607.665h-.019z" fill="url(#W)"/>
    <path d="M319.643 42.453h-21.854a.902.902 0 0 1-.902-.902v-.77c0-.498.404-.902.902-.902h21.854c.498 0 .902.404.902.902v.77a.902.902 0 0 1-.902.902zM297.789 47.975h21.849a.903.903 0 0 0 .903-.902v-.776a.898.898 0 0 0-.898-.896h-21.854a.903.903 0 0 0-.902.901v.771a.902.902 0 0 0 .902.902zM317.514 80.84h-17.596a3.029 3.029 0 0 1-3.031-3.027V54.758a3.03 3.03 0 0 1 3.031-3.027h17.596a3.03 3.03 0 0 1 3.031 3.027v23.055a3.029 3.029 0 0 1-3.031 3.027zM362.656 80.84h-32.541a4.792 4.792 0 0 1-4.795-4.788V44.663a4.792 4.792 0 0 1 4.795-4.788h32.541a4.791 4.791 0 0 1 4.794 4.788v31.389a4.79 4.79 0 0 1-4.794 4.788z" fill="#BDD0FB"/>
    <path d="M7.158 223.728h394.684c.639 0 1.158-.444 1.158-.99v-.021c0-.546-.519-.989-1.158-.989H7.158c-.64 0-1.158.443-1.158.989v.021c0 .546.519.99 1.158.99z" fill="#233862"/>
    <defs>
        <linearGradient id="a" x1="409.141" y1="93.728" x2="-23.591" y2="93.728" gradientUnits="userSpaceOnUse">
            <stop stop-color="#DAE3FE"/>
            <stop offset="1" stop-color="#E9EFFD"/>
        </linearGradient>
        <linearGradient id="b" x1="12.688" y1="78.765" x2="86.954" y2="78.765" gradientUnits="userSpaceOnUse">
            <stop stop-color="#09005D"/>
            <stop offset="1" stop-color="#1A0F91"/>
        </linearGradient>
        <linearGradient id="c" x1="16.294" y1="66.585" x2="23.897" y2="66.585" gradientUnits="userSpaceOnUse">
            <stop stop-color="#4042E2"/>
            <stop offset="1" stop-color="#4F52FF"/>
        </linearGradient>
        <linearGradient id="d" x1="16.294" y1="90.802" x2="23.897" y2="90.802" gradientUnits="userSpaceOnUse">
            <stop offset=".03" stop-color="#FE7062"/>
            <stop offset="1" stop-color="#FE7062"/>
        </linearGradient>
        <linearGradient id="e" x1="8.452" y1="78.993" x2="90.627" y2="78.993" gradientUnits="userSpaceOnUse">
            <stop offset=".49" stop-color="#001333"/>
            <stop offset="1" stop-color="#001E4F"/>
        </linearGradient>
        <linearGradient id="f" x1="289.634" y1="241.045" x2="323.553" y2="241.045" gradientUnits="userSpaceOnUse">
            <stop offset=".49" stop-color="#001333"/>
            <stop offset="1" stop-color="#001E4F"/>
        </linearGradient>
        <linearGradient id="g" x1="289.634" y1="884.931" x2="323.553" y2="884.931" gradientUnits="userSpaceOnUse">
            <stop offset=".49" stop-color="#001333"/>
            <stop offset="1" stop-color="#001E4F"/>
        </linearGradient>
        <linearGradient id="h" x1="1237.7" y1="241.045" x2="1271.62" y2="241.045" gradientUnits="userSpaceOnUse">
            <stop offset=".49" stop-color="#001333"/>
            <stop offset="1" stop-color="#001E4F"/>
        </linearGradient>
        <linearGradient id="i" x1="1237.7" y1="884.931" x2="1271.62" y2="884.931" gradientUnits="userSpaceOnUse">
            <stop offset=".49" stop-color="#001333"/>
            <stop offset="1" stop-color="#001E4F"/>
        </linearGradient>
        <linearGradient id="j" x1="6616.05" y1="18242.7" x2="17443.5" y2="18242.7" gradientUnits="userSpaceOnUse">
            <stop stop-color="#09005D"/>
            <stop offset="1" stop-color="#1A0F91"/>
        </linearGradient>
        <linearGradient id="k" x1="3047.75" y1="7728.87" x2="3946.46" y2="7728.87" gradientUnits="userSpaceOnUse">
            <stop stop-color="#09005D"/>
            <stop offset="1" stop-color="#1A0F91"/>
        </linearGradient>
        <linearGradient id="l" x1="1494.04" y1="740.192" x2="2010.89" y2="740.192" gradientUnits="userSpaceOnUse">
            <stop offset=".03" stop-color="#FE7062"/>
            <stop offset="1" stop-color="#FE7062"/>
        </linearGradient>
        <linearGradient id="m" x1="290.686" y1="1036.16" x2="299.986" y2="1036.16" gradientUnits="userSpaceOnUse">
            <stop offset=".03" stop-color="#FE7062"/>
            <stop offset="1" stop-color="#FE7062"/>
        </linearGradient>
        <linearGradient id="n" x1="6646.32" y1="21021.1" x2="19977.4" y2="21021.1" gradientUnits="userSpaceOnUse">
            <stop offset=".49" stop-color="#001333"/>
            <stop offset="1" stop-color="#001E4F"/>
        </linearGradient>
        <linearGradient id="o" x1="261.934" y1="1092.33" x2="282.309" y2="1092.33" gradientUnits="userSpaceOnUse">
            <stop offset=".49" stop-color="#001333"/>
            <stop offset="1" stop-color="#001E4F"/>
        </linearGradient>
        <linearGradient id="p" x1="261.934" y1="1513.48" x2="282.309" y2="1513.48" gradientUnits="userSpaceOnUse">
            <stop offset=".49" stop-color="#001333"/>
            <stop offset="1" stop-color="#001E4F"/>
        </linearGradient>
        <linearGradient id="q" x1="845.271" y1="1092.33" x2="865.646" y2="1092.33" gradientUnits="userSpaceOnUse">
            <stop offset=".49" stop-color="#001333"/>
            <stop offset="1" stop-color="#001E4F"/>
        </linearGradient>
        <linearGradient id="r" x1="845.271" y1="1513.48" x2="865.646" y2="1513.48" gradientUnits="userSpaceOnUse">
            <stop offset=".49" stop-color="#001333"/>
            <stop offset="1" stop-color="#001E4F"/>
        </linearGradient>
        <linearGradient id="s" x1="18797.5" y1="2607.55" x2="21579.1" y2="2607.55" gradientUnits="userSpaceOnUse">
            <stop offset=".49" stop-color="#001333"/>
            <stop offset="1" stop-color="#001E4F"/>
        </linearGradient>
        <linearGradient id="t" x1="18898" y1="2365.07" x2="21680.1" y2="2365.07" gradientUnits="userSpaceOnUse">
            <stop stop-color="#09005D"/>
            <stop offset="1" stop-color="#1A0F91"/>
        </linearGradient>
        <linearGradient id="u" x1="35444.7" y1="24278.3" x2="100323" y2="24278.3" gradientUnits="userSpaceOnUse">
            <stop stop-color="#09005D"/>
            <stop offset="1" stop-color="#1A0F91"/>
        </linearGradient>
        <linearGradient id="v" x1="14046.2" y1="9724.65" x2="22958.5" y2="9724.65" gradientUnits="userSpaceOnUse">
            <stop stop-color="#09005D"/>
            <stop offset="1" stop-color="#1A0F91"/>
        </linearGradient>
        <linearGradient id="w" x1="31754.3" y1="1239.69" x2="45760.6" y2="1239.69" gradientUnits="userSpaceOnUse">
            <stop stop-color="#09005D"/>
            <stop offset="1" stop-color="#1A0F91"/>
        </linearGradient>
        <linearGradient id="x" x1="31754.3" y1="10805.3" x2="45760.6" y2="10805.3" gradientUnits="userSpaceOnUse">
            <stop stop-color="#09005D"/>
            <stop offset="1" stop-color="#1A0F91"/>
        </linearGradient>
        <linearGradient id="y" x1="15152.6" y1="18443.1" x2="19137.1" y2="18443.1" gradientUnits="userSpaceOnUse">
            <stop stop-color="#09005D"/>
            <stop offset="1" stop-color="#1A0F91"/>
        </linearGradient>
        <linearGradient id="z" x1="15150" y1="2004.02" x2="19133.8" y2="2004.02" gradientUnits="userSpaceOnUse">
            <stop stop-color="#09005D"/>
            <stop offset="1" stop-color="#1A0F91"/>
        </linearGradient>
        <linearGradient id="A" x1="2486.49" y1="2600.81" x2="2580.09" y2="2600.81" gradientUnits="userSpaceOnUse">
            <stop offset=".03" stop-color="#FE7062"/>
            <stop offset="1" stop-color="#FE7062"/>
        </linearGradient>
        <linearGradient id="B" x1="2486.49" y1="2773.95" x2="2580.09" y2="2773.95" gradientUnits="userSpaceOnUse">
            <stop stop-color="#4042E2"/>
            <stop offset="1" stop-color="#4F52FF"/>
        </linearGradient>
        <linearGradient id="C" x1="294" y1="169.725" x2="291" y2="169.725" gradientUnits="userSpaceOnUse">
            <stop offset=".01" stop-color="#09005D"/>
            <stop offset="1" stop-color="#09005D"/>
        </linearGradient>
        <linearGradient id="D" x1="-8378.29" y1="12957.1" x2="-8598.44" y2="12957.1" gradientUnits="userSpaceOnUse">
            <stop stop-color="#09005D"/>
            <stop offset="1" stop-color="#1A0F91"/>
        </linearGradient>
        <linearGradient id="E" x1="-28868.2" y1="22055.7" x2="-30600" y2="22055.7" gradientUnits="userSpaceOnUse">
            <stop stop-color="#09005D"/>
            <stop offset="1" stop-color="#1A0F91"/>
        </linearGradient>
        <linearGradient id="F" x1="-21069" y1="8356.63" x2="-22091" y2="8356.63" gradientUnits="userSpaceOnUse">
            <stop stop-color="#09005D"/>
            <stop offset="1" stop-color="#1A0F91"/>
        </linearGradient>
        <linearGradient id="G" x1="-22351.7" y1="8323.23" x2="-23814" y2="8323.23" gradientUnits="userSpaceOnUse">
            <stop stop-color="#09005D"/>
            <stop offset="1" stop-color="#1A0F91"/>
        </linearGradient>
        <linearGradient id="H" x1="-73371.6" y1="48428.1" x2="-88034.9" y2="48428.1" gradientUnits="userSpaceOnUse">
            <stop stop-color="#09005D"/>
            <stop offset="1" stop-color="#1A0F91"/>
        </linearGradient>
        <linearGradient id="I" x1="-41198.2" y1="45643.6" x2="-44963.8" y2="45643.6" gradientUnits="userSpaceOnUse">
            <stop stop-color="#09005D"/>
            <stop offset="1" stop-color="#1A0F91"/>
        </linearGradient>
        <linearGradient id="J" x1="273.694" y1="41.207" x2="251.55" y2="41.207" gradientUnits="userSpaceOnUse">
            <stop stop-color="#FEBBBA"/>
            <stop offset="1" stop-color="#FF928E"/>
        </linearGradient>
        <linearGradient id="K" x1="-13430.2" y1="4867.62" x2="-13824.5" y2="4867.62" gradientUnits="userSpaceOnUse">
            <stop stop-color="#FEBBBA"/>
            <stop offset="1" stop-color="#FF928E"/>
        </linearGradient>
        <linearGradient id="L" x1="273.994" y1="36.872" x2="249.452" y2="36.872" gradientUnits="userSpaceOnUse">
            <stop stop-color="#E1473D"/>
            <stop offset="1" stop-color="#E9605A"/>
        </linearGradient>
        <linearGradient id="M" x1="-188.191" y1="303.438" x2="-188.578" y2="303.438" gradientUnits="userSpaceOnUse">
            <stop stop-color="#E1473D"/>
            <stop offset="1" stop-color="#E9605A"/>
        </linearGradient>
        <linearGradient id="N" x1="-13938.9" y1="1452.51" x2="-14364.6" y2="1452.51" gradientUnits="userSpaceOnUse">
            <stop stop-color="#09005D"/>
            <stop offset="1" stop-color="#1A0F91"/>
        </linearGradient>
        <linearGradient id="O" x1="-3942.69" y1="2656.02" x2="-3980.6" y2="2656.02" gradientUnits="userSpaceOnUse">
            <stop stop-color="#FEBBBA"/>
            <stop offset="1" stop-color="#FF928E"/>
        </linearGradient>
        <linearGradient id="P" x1="296.071" y1="158.804" x2="236.845" y2="158.804" gradientUnits="userSpaceOnUse">
            <stop stop-color="#FE7062"/>
            <stop offset="1" stop-color="#FF928E"/>
        </linearGradient>
        <linearGradient id="Q" x1="-1761.31" y1="60522.2" x2="-1782.97" y2="60522.2" gradientUnits="userSpaceOnUse">
            <stop offset=".01" stop-color="#09005D"/>
            <stop offset="1" stop-color="#09005D"/>
        </linearGradient>
        <linearGradient id="R" x1="-67635.8" y1="21706.5" x2="-84050.2" y2="21706.5" gradientUnits="userSpaceOnUse">
            <stop stop-color="#09005D"/>
            <stop offset="1" stop-color="#1A0F91"/>
        </linearGradient>
        <linearGradient id="S" x1="-18931.6" y1="3621.23" x2="-20082.4" y2="3621.23" gradientUnits="userSpaceOnUse">
            <stop stop-color="#09005D"/>
            <stop offset="1" stop-color="#1A0F91"/>
        </linearGradient>
        <linearGradient id="T" x1="-18154.9" y1="5491.68" x2="-19194.7" y2="5491.68" gradientUnits="userSpaceOnUse">
            <stop stop-color="#FEBBBA"/>
            <stop offset="1" stop-color="#FF928E"/>
        </linearGradient>
        <linearGradient id="U" x1="-83086" y1="40131.1" x2="-102483" y2="40131.1" gradientUnits="userSpaceOnUse">
            <stop stop-color="#09005D"/>
            <stop offset="1" stop-color="#1A0F91"/>
        </linearGradient>
        <linearGradient id="V" x1="-41174.5" y1="26720.1" x2="-44741" y2="26720.1" gradientUnits="userSpaceOnUse">
            <stop stop-color="#FE7062"/>
            <stop offset="1" stop-color="#FF928E"/>
        </linearGradient>
        <linearGradient id="W" x1="-23902" y1="17677.2" x2="-25089.3" y2="17677.2" gradientUnits="userSpaceOnUse">
            <stop offset=".03" stop-color="#FE7062"/>
            <stop offset="1" stop-color="#FE7062"/>
        </linearGradient>
    </defs>
</svg>
