<svg width="19" height="18" viewBox="0 0 19 18" fill="none" xmlns="http://www.w3.org/2000/svg">
<path d="M9.275 13.5C8.075 13.4375 7.0625 12.975 6.2375 12.1125C5.4125 11.25 5 10.2125 5 9C5 7.75 5.4375 6.6875 6.3125 5.8125C7.1875 4.9375 8.25 4.5 9.5 4.5C10.7125 4.5 11.75 4.9125 12.6125 5.7375C13.475 6.5625 13.9375 7.575 14 8.775L12.425 8.30625C12.2625 7.63125 11.9125 7.07825 11.375 6.64725C10.8375 6.21575 10.2125 6 9.5 6C8.675 6 7.96875 6.29375 7.38125 6.88125C6.79375 7.46875 6.5 8.175 6.5 9C6.5 9.7125 6.71575 10.3375 7.14725 10.875C7.57825 11.4125 8.13125 11.7625 8.80625 11.925L9.275 13.5ZM9.5 16.5C8.4625 16.5 7.4875 16.303 6.575 15.909C5.6625 15.5155 4.86875 14.9813 4.19375 14.3063C3.51875 13.6313 2.9845 12.8375 2.591 11.925C2.197 11.0125 2 10.0375 2 9C2 7.9625 2.197 6.9875 2.591 6.075C2.9845 5.1625 3.51875 4.36875 4.19375 3.69375C4.86875 3.01875 5.6625 2.48425 6.575 2.09025C7.4875 1.69675 8.4625 1.5 9.5 1.5C10.5375 1.5 11.5125 1.69675 12.425 2.09025C13.3375 2.48425 14.1313 3.01875 14.8063 3.69375C15.4813 4.36875 16.0155 5.1625 16.409 6.075C16.803 6.9875 17 7.9625 17 9C17 9.1125 17 9.225 17 9.3375C17 9.45 16.9875 9.5625 16.9625 9.675L15.5 9.225V9C15.5 7.325 14.9187 5.90625 13.7562 4.74375C12.5937 3.58125 11.175 3 9.5 3C7.825 3 6.40625 3.58125 5.24375 4.74375C4.08125 5.90625 3.5 7.325 3.5 9C3.5 10.675 4.08125 12.0937 5.24375 13.2562C6.40625 14.4187 7.825 15 9.5 15H9.725L10.175 16.4625C10.0625 16.4875 9.95 16.5 9.8375 16.5C9.725 16.5 9.6125 16.5 9.5 16.5ZM15.8937 16.875L12.6875 13.6688L11.75 16.5L9.5 9L17 11.25L14.1688 12.1875L17.375 15.3937L15.8937 16.875Z" fill="white"/>
</svg>
