<svg width="20" height="20" viewBox="0 0 20 20" fill="none" xmlns="http://www.w3.org/2000/svg">
<g clip-path="url(#clip0_461_5214)">
<path d="M15.5352 1.35938L14.3086 0H4.66016C3.96484 0 3.69531 0.515625 3.69531 0.917969V4.54688H5.04687V1.65234C5.04687 1.49609 5.17578 1.36719 5.32812 1.36719H12.2305C12.3828 1.36719 12.457 1.39453 12.457 1.51953V6.33984H17.3711C17.5625 6.33984 17.6406 6.4375 17.6406 6.58594V18.3555C17.6406 18.6016 17.543 18.6406 17.3906 18.6406H5.32812C5.17578 18.6406 5.04687 18.5078 5.04687 18.3555V17.2812H3.70703V18.9766C3.69141 19.5781 4.00781 20.0039 4.66406 20.0039H18.0625C18.7617 20.0039 19 19.4961 19 19.0352V6.44531V5.1875L18.6523 4.80859L15.5352 1.35938ZM13.8359 1.51953L14.2227 1.95312L16.8203 4.80859L16.9648 4.98047H14.3125C14.1133 4.98047 13.9844 4.94531 13.9336 4.88281C13.8789 4.81641 13.8477 4.71094 13.8398 4.57031V1.51953H13.8359ZM12.7461 10.668H17.3242V12H12.7461V10.668ZM12.7461 8H17.3242V9.33203H12.7461V8ZM12.7461 13.3359H17.3242V14.668H12.7461V13.3359ZM1 5.625V16.293H11.4648V5.625H1ZM6.23437 11.832L5.59375 12.8086H6.23437V14H3.01562L5.35156 10.4922L3.28125 7.33594H5.00781L6.23047 9.17188L7.45312 7.33594H9.17969L7.10937 10.4922L9.44531 14H7.65625L6.23437 11.832Z" fill="black"/>
</g>
<defs>
<clipPath id="clip0_461_5214">
<rect width="20" height="20" fill="white"/>
</clipPath>
</defs>
</svg>
