<svg width="24" height="24" viewBox="0 0 24 24" fill="none" xmlns="http://www.w3.org/2000/svg">
<path d="M22 11.9995C22 17.5235 17.523 21.9995 12 21.9995C6.477 21.9995 2 17.5235 2 11.9995C2 6.47751 6.477 1.99951 12 1.99951C17.523 1.99951 22 6.47751 22 11.9995Z" fill="#E8422C"/>
<path d="M11.9941 14.9287C12.4871 14.9287 12.8791 15.3217 12.8791 15.8037C12.8791 16.2857 12.4871 16.6787 12.0041 16.6787C11.5191 16.6787 11.1241 16.2857 11.1241 15.8037C11.1241 15.3217 11.5151 14.9287 11.9941 14.9287ZM11.9941 7.33594C12.4761 7.33594 12.8691 7.72894 12.8691 8.21094V12.6309C12.8691 13.1129 12.4761 13.5059 11.9941 13.5059C11.5121 13.5059 11.1191 13.1129 11.1191 12.6309V8.21094C11.1191 7.72894 11.5121 7.33594 11.9941 7.33594Z" fill="white"/>
</svg>
