<svg width="24" height="25" viewBox="0 0 24 25" fill="none" xmlns="http://www.w3.org/2000/svg">
<path d="M8.2627 12.1523C8.2627 14.213 9.93922 15.8894 12 15.8894C14.0607 15.8894 15.7371 14.2129 15.7371 12.1523C15.7371 10.0916 14.0607 8.41504 12 8.41504C9.93922 8.41504 8.2627 10.0916 8.2627 12.1523Z" fill="white"/>
<path d="M20.6054 7.21916C20.6346 7.16795 20.634 7.10507 20.6039 7.05438C19.7334 5.58828 18.4946 4.36021 17.0214 3.50297C15.5031 2.61936 13.7666 2.15234 12 2.15234C8.94262 2.15234 6.09331 3.52441 4.18262 5.91674C4.14046 5.96946 4.13495 6.04257 4.16872 6.101L6.9838 10.9767C7.01331 11.0279 7.06773 11.0587 7.1257 11.0587C7.13305 11.0587 7.14052 11.0582 7.14793 11.0572C7.2139 11.0482 7.26787 11.0002 7.28452 10.9358C7.8396 8.785 9.77868 7.2829 12 7.2829C12.1378 7.2829 12.2802 7.2892 12.4233 7.30139C12.4279 7.30185 12.4327 7.30205 12.4373 7.30205H20.4629C20.5219 7.30205 20.5763 7.27044 20.6054 7.21916Z" fill="white"/>
<path d="M13.4777 16.9016C13.437 16.8489 13.3687 16.8263 13.3042 16.8441C12.8808 16.962 12.442 17.0218 12 17.0218C10.1219 17.0218 8.39095 15.9202 7.5901 14.2156C7.58813 14.2114 7.58597 14.2073 7.58367 14.2033L3.56793 7.24798C3.53869 7.19716 3.48452 7.16602 3.42597 7.16602C3.4257 7.16602 3.42538 7.16602 3.42511 7.16602C3.36623 7.16634 3.312 7.19815 3.28315 7.24943C2.44374 8.73893 2 10.4343 2 12.1524C2 14.5625 2.86951 16.8906 4.44833 18.7077C6.01148 20.5067 8.16348 21.6907 10.5081 22.0415C10.5162 22.0427 10.5243 22.0433 10.5324 22.0433C10.5903 22.0433 10.6447 22.0124 10.6743 21.9613L13.4901 17.084C13.5234 17.0263 13.5185 16.9542 13.4777 16.9016Z" fill="white"/>
<path d="M21.1591 8.39551H15.5214C15.4548 8.39551 15.3948 8.43584 15.3697 8.49748C15.3445 8.55911 15.3591 8.62993 15.4067 8.67649C16.35 9.60121 16.8694 10.8354 16.8694 12.1519C16.8694 13.1485 16.5687 14.1076 15.9997 14.9255C15.9971 14.9293 15.9947 14.9332 15.9924 14.9372L11.9697 21.9046C11.9403 21.9556 11.9405 22.0185 11.9702 22.0693C11.9996 22.1196 12.0535 22.1505 12.1117 22.1505C12.1123 22.1505 12.1129 22.1505 12.1135 22.1505C14.7607 22.121 17.2449 21.0678 19.1082 19.1851C20.973 17.3008 22.0001 14.803 22.0001 12.1519C22.0001 10.8918 21.7685 9.66298 21.3117 8.49957C21.287 8.43675 21.2265 8.39551 21.1591 8.39551Z" fill="white"/>
</svg>
