<svg width="19" height="20" viewBox="0 0 19 20" fill="none" xmlns="http://www.w3.org/2000/svg">
<path d="M16.5 1C15.8371 1.00053 15.2015 1.26409 14.7328 1.73282C14.2641 2.20155 14.0005 2.83712 14 3.5C14 3.857 14.078 4.196 14.214 4.505L12.259 6.704C11.5949 6.24558 10.807 6.00004 10 6C9.26 6 8.576 6.216 7.981 6.566L5.707 4.293L5.684 4.316C5.88 3.918 6 3.475 6 3C6 2.40666 5.82405 1.82664 5.49441 1.33329C5.16477 0.839943 4.69623 0.455426 4.14805 0.228363C3.59987 0.00129986 2.99667 -0.0581102 2.41473 0.0576455C1.83279 0.173401 1.29824 0.459124 0.878681 0.878681C0.459124 1.29824 0.173401 1.83279 0.0576455 2.41473C-0.0581102 2.99667 0.00129986 3.59987 0.228363 4.14805C0.455426 4.69623 0.839943 5.16477 1.33329 5.49441C1.82664 5.82405 2.40666 6 3 6C3.475 6 3.917 5.88 4.316 5.684L4.293 5.707L6.567 7.98C6.19964 8.59003 6.00375 9.28791 6 10C6 10.997 6.38 11.899 6.985 12.601L4.408 15.177C4.11917 15.0614 3.81111 15.0013 3.5 15C2.122 15 1 16.121 1 17.5C1 18.879 2.122 20 3.5 20C4.878 20 6 18.879 6 17.5C6 17.179 5.934 16.874 5.823 16.591L8.661 13.753C9.082 13.903 9.528 14 10 14C12.206 14 14 12.206 14 10C14 9.364 13.837 8.771 13.572 8.236L15.689 5.853C15.945 5.941 16.215 6 16.5 6C17.879 6 19 4.879 19 3.5C19 2.121 17.879 1 16.5 1ZM10 12C8.897 12 8 11.103 8 10C8 8.897 8.897 8 10 8C11.103 8 12 8.897 12 10C12 11.103 11.103 12 10 12Z" fill="#0D72FF"/>
</svg>
