<svg width="14" height="14" viewBox="0 0 14 14" fill="none" xmlns="http://www.w3.org/2000/svg">
<mask id="mask0_212_10031" style="mask-type:alpha" maskUnits="userSpaceOnUse" x="0" y="0" width="14" height="14">
<rect width="14" height="14" fill="#D9D9D9"/>
</mask>
<g mask="url(#mask0_212_10031)">
<path d="M6.79438 9.69958H7.58062V6.22391H6.79438V9.69958ZM7.1875 5.31728C7.30838 5.31728 7.4092 5.27449 7.48995 5.1889C7.57022 5.10331 7.61035 5.00008 7.61035 4.87919C7.61035 4.76846 7.57022 4.67031 7.48995 4.58472C7.4092 4.49865 7.30838 4.45561 7.1875 4.45561C7.06662 4.45561 6.9658 4.49599 6.88505 4.57674C6.80478 4.65749 6.76465 4.75831 6.76465 4.87919C6.76465 5.00008 6.80478 5.10331 6.88505 5.1889C6.9658 5.27449 7.06662 5.31728 7.1875 5.31728ZM7.1875 12.4492C6.43221 12.4492 5.71948 12.3059 5.0493 12.0191C4.3796 11.7319 3.79524 11.339 3.29623 10.8405C2.7977 10.3415 2.40483 9.75712 2.11761 9.08742C1.83087 8.41724 1.6875 7.7045 1.6875 6.94922C1.6875 6.18378 1.83087 5.46863 2.11761 4.80376C2.40483 4.1389 2.7977 3.55696 3.29623 3.05795C3.79524 2.55942 4.3796 2.16655 5.0493 1.87933C5.71948 1.59259 6.43221 1.44922 7.1875 1.44922C7.95294 1.44922 8.66809 1.59259 9.33296 1.87933C9.99782 2.16655 10.5798 2.55942 11.0788 3.05795C11.5773 3.55696 11.9702 4.14132 12.2574 4.81102C12.5441 5.4812 12.6875 6.19393 12.6875 6.94922C12.6875 7.7045 12.5441 8.41724 12.2574 9.08742C11.9702 9.75712 11.5773 10.3415 11.0788 10.8405C10.5798 11.339 9.9954 11.7319 9.3257 12.0191C8.65552 12.3059 7.94279 12.4492 7.1875 12.4492ZM7.1875 11.6637C8.49692 11.6637 9.61002 11.2053 10.5268 10.2885C11.4436 9.37174 11.902 8.25864 11.902 6.94922C11.902 5.6398 11.4436 4.52669 10.5268 3.60991C9.61002 2.69312 8.49692 2.23473 7.1875 2.23473C5.87808 2.23473 4.76498 2.69312 3.84819 3.60991C2.9314 4.52669 2.47301 5.6398 2.47301 6.94922C2.47301 8.25864 2.9314 9.37174 3.84819 10.2885C4.76498 11.2053 5.87808 11.6637 7.1875 11.6637Z" fill="#474747"/>
</g>
</svg>
