<svg width="18" height="18" viewBox="0 0 18 18" fill="none" xmlns="http://www.w3.org/2000/svg">
<path d="M16.4853 5.91004C16.4502 5.11303 16.3213 4.5651 16.1367 4.0903C15.9462 3.58632 15.6532 3.13511 15.2693 2.76001C14.8942 2.37908 14.44 2.08308 13.9418 1.89559C13.4643 1.71096 12.9192 1.58207 12.1222 1.54693C11.3193 1.50881 11.0644 1.5 9.02783 1.5C6.9913 1.5 6.73639 1.50881 5.93641 1.54395C5.1394 1.57909 4.59146 1.70809 4.11678 1.89261C3.61269 2.08308 3.16147 2.3761 2.78638 2.76001C2.40544 3.13511 2.10956 3.5893 1.92195 4.08744C1.73732 4.5651 1.60844 5.11006 1.5733 5.90707C1.53518 6.71003 1.52637 6.96494 1.52637 9.00147C1.52637 11.038 1.53518 11.2929 1.57032 12.0929C1.60546 12.8899 1.73446 13.4378 1.91909 13.9126C2.10956 14.4166 2.40544 14.8678 2.78638 15.2429C3.16147 15.6239 3.61566 15.9199 4.11381 16.1073C4.59146 16.292 5.13642 16.4209 5.93354 16.456C6.73341 16.4913 6.98844 16.5 9.02497 16.5C11.0615 16.5 11.3164 16.4913 12.1164 16.456C12.9134 16.4209 13.4613 16.292 13.936 16.1073C14.9441 15.7176 15.7411 14.9206 16.1308 13.9126C16.3154 13.435 16.4444 12.8899 16.4795 12.0929C16.5146 11.2929 16.5235 11.038 16.5235 9.00147C16.5235 6.96494 16.5205 6.71003 16.4853 5.91004ZM15.1346 12.0343C15.1023 12.7669 14.9792 13.1624 14.8767 13.4262C14.6246 14.0796 14.106 14.5983 13.4525 14.8503C13.1888 14.9529 12.7903 15.0759 12.0606 15.1081C11.2695 15.1433 11.0322 15.152 9.0308 15.152C7.02942 15.152 6.78916 15.1433 6.00085 15.1081C5.26828 15.0759 4.8727 14.9529 4.60898 14.8503C4.28379 14.7301 3.98778 14.5397 3.74753 14.2906C3.49845 14.0474 3.30799 13.7543 3.1878 13.4291C3.08524 13.1654 2.96219 12.7669 2.93003 12.0373C2.89477 11.2461 2.88608 11.0087 2.88608 9.0073C2.88608 7.00591 2.89477 6.76565 2.93003 5.97746C2.96219 5.2449 3.08524 4.84931 3.1878 4.58559C3.30799 4.26028 3.49845 3.96439 3.7505 3.72402C3.99362 3.47495 4.28665 3.28448 4.61195 3.16441C4.87568 3.06185 5.27424 2.9388 6.00382 2.90652C6.79499 2.87138 7.03239 2.86257 9.03367 2.86257C11.038 2.86257 11.2753 2.87138 12.0636 2.90652C12.7962 2.9388 13.1918 3.06185 13.4555 3.16441C13.7807 3.28448 14.0767 3.47495 14.3169 3.72402C14.566 3.96726 14.7565 4.26028 14.8767 4.58559C14.9792 4.84931 15.1023 5.24776 15.1346 5.97746C15.1697 6.76863 15.1785 7.00591 15.1785 9.0073C15.1785 11.0087 15.1697 11.2431 15.1346 12.0343Z" fill="#0D72FF"/>
<path d="M9.02785 5.14844C6.90055 5.14844 5.17456 6.87431 5.17456 9.00173C5.17456 11.1291 6.90055 12.855 9.02785 12.855C11.1553 12.855 12.8811 11.1291 12.8811 9.00173C12.8811 6.87431 11.1553 5.14844 9.02785 5.14844ZM9.02785 11.5013C7.64777 11.5013 6.52832 10.3819 6.52832 9.00173C6.52832 7.62153 7.64777 6.50219 9.02785 6.50219C10.408 6.50219 11.5274 7.62153 11.5274 9.00173C11.5274 10.3819 10.408 11.5013 9.02785 11.5013Z" fill="#0D72FF"/>
<path d="M13.933 4.99625C13.933 5.49302 13.5302 5.89581 13.0334 5.89581C12.5366 5.89581 12.1338 5.49302 12.1338 4.99625C12.1338 4.49936 12.5366 4.09668 13.0334 4.09668C13.5302 4.09668 13.933 4.49936 13.933 4.99625Z" fill="#0D72FF"/>
</svg>
