<svg width="18" height="18" viewBox="0 0 18 18" fill="none" xmlns="http://www.w3.org/2000/svg">
<path d="M16.4963 16.4997V16.499H16.5V10.9978C16.5 8.30652 15.9207 6.2334 12.7744 6.2334C11.2619 6.2334 10.2469 7.0634 9.83254 7.85027H9.78879V6.48465H6.80566V16.499H9.91191V11.5403C9.91191 10.2346 10.1594 8.97215 11.7763 8.97215C13.3694 8.97215 13.3932 10.4621 13.3932 11.624V16.4997H16.4963Z" fill="#0D72FF"/>
<path d="M1.74731 6.48535H4.85731V16.4997H1.74731V6.48535Z" fill="#0D72FF"/>
<path d="M3.30125 1.5C2.30687 1.5 1.5 2.30688 1.5 3.30125C1.5 4.29563 2.30687 5.11938 3.30125 5.11938C4.29562 5.11938 5.1025 4.29563 5.1025 3.30125C5.10188 2.30688 4.295 1.5 3.30125 1.5V1.5Z" fill="#0D72FF"/>
</svg>
