<svg width="6" height="24" viewBox="0 0 6 24" fill="none" xmlns="http://www.w3.org/2000/svg">
<path d="M2.99922 23.0335C2.24366 23.0335 1.58811 22.7615 1.03255 22.2175C0.476997 21.6726 0.199219 21.0112 0.199219 20.2335C0.199219 19.4779 0.476997 18.8277 1.03255 18.2828C1.58811 17.7388 2.24366 17.4668 2.99922 17.4668C3.777 17.4668 4.43833 17.7388 4.98322 18.2828C5.52722 18.8277 5.79922 19.4779 5.79922 20.2335C5.79922 21.0112 5.52722 21.6726 4.98322 22.2175C4.43833 22.7615 3.777 23.0335 2.99922 23.0335ZM2.99922 14.8001C2.24366 14.8001 1.58811 14.5224 1.03255 13.9668C0.476997 13.4112 0.199219 12.7557 0.199219 12.0001C0.199219 11.2224 0.476997 10.561 1.03255 10.0161C1.58811 9.47213 2.24366 9.20013 2.99922 9.20013C3.777 9.20013 4.43833 9.47213 4.98322 10.0161C5.52722 10.561 5.79922 11.2224 5.79922 12.0001C5.79922 12.7557 5.52722 13.4112 4.98322 13.9668C4.43833 14.5224 3.777 14.8001 2.99922 14.8001ZM2.99922 6.53346C2.24366 6.53346 1.58811 6.26102 1.03255 5.71613C0.476997 5.17213 0.199219 4.52235 0.199219 3.7668C0.199219 2.98902 0.476997 2.32769 1.03255 1.7828C1.58811 1.2388 2.24366 0.966797 2.99922 0.966797C3.777 0.966797 4.43833 1.2388 4.98322 1.7828C5.52722 2.32769 5.79922 2.98902 5.79922 3.7668C5.79922 4.52235 5.52722 5.17213 4.98322 5.71613C4.43833 6.26102 3.777 6.53346 2.99922 6.53346Z" fill="#0848A1"/>
</svg>
