<svg width="24" height="24" viewBox="0 0 24 24" fill="none" xmlns="http://www.w3.org/2000/svg">
<mask id="mask0_212_10013" style="mask-type:alpha" maskUnits="userSpaceOnUse" x="0" y="0" width="24" height="24">
<rect width="24" height="24" fill="#D9D9D9"/>
</mask>
<g mask="url(#mask0_212_10013)">
<path d="M4.05 21C3.75 21 3.5 20.9 3.3 20.7C3.1 20.5 3 20.25 3 19.95V15.9C3 15.6667 3.075 15.4623 3.225 15.287C3.375 15.1123 3.56667 15 3.8 14.95L7.25 14.25C7.48333 14.2167 7.721 14.2373 7.963 14.312C8.20433 14.3873 8.4 14.5 8.55 14.65L10.9 17C12.1667 16.2333 13.325 15.325 14.375 14.275C15.425 13.225 16.3 12.1 17 10.9L14.6 8.45C14.45 8.3 14.354 8.129 14.312 7.937C14.2707 7.74567 14.2667 7.53333 14.3 7.3L14.95 3.8C14.9833 3.56667 15.0917 3.375 15.275 3.225C15.4583 3.075 15.6667 3 15.9 3H19.95C20.25 3 20.5 3.1 20.7 3.3C20.9 3.5 21 3.75 21 4.05C21 6.2 20.5207 8.29567 19.562 10.337C18.604 12.379 17.3373 14.1873 15.762 15.762C14.1873 17.3373 12.3793 18.604 10.338 19.562C8.296 20.5207 6.2 21 4.05 21Z" fill="#A6A6A6"/>
</g>
</svg>
