<svg width="142" height="46" viewBox="0 0 142 46" fill="none" xmlns="http://www.w3.org/2000/svg">
<path d="M19.9412 31.0422L17.3154 33.522L19.9412 35.9956L22.3104 33.7582L24.6861 35.9956L27.3053 33.522L24.6861 31.0422L22.3104 33.2859L19.9412 31.0422Z" fill="#E8422C"/>
<path d="M64.462 27.1812H64.5409L64.6199 27.2122C66.0865 27.6416 67.6122 27.8636 69.1476 27.871C70.5 27.899 71.8439 27.6642 73.0962 27.1812L73.1883 27.1439L73.2805 27.1812C73.809 27.4063 74.3633 27.5731 74.9323 27.6784C75.6749 27.8039 76.4286 27.8622 77.183 27.8524C78.5312 27.9261 79.8572 27.5028 80.8815 26.6715C81.3385 26.2246 81.6916 25.6924 81.9182 25.1092C82.1449 24.5259 82.24 23.9043 82.1977 23.2843C82.1894 22.0629 81.9671 20.8511 81.5396 19.6982C81.1251 18.5508 80.5401 17.4647 79.8022 16.4726L79.7101 16.3483L76.9329 18.0886L77.025 18.2253C77.516 18.9266 77.9621 19.6551 78.361 20.4068C78.7492 21.1091 79.0783 21.7679 79.3415 22.3645C79.4583 22.6149 79.5316 22.8814 79.5587 23.1538C79.5665 23.2173 79.5521 23.2815 79.5177 23.3365C79.4832 23.3915 79.4306 23.4343 79.3678 23.4583C78.608 23.6796 77.8119 23.7681 77.0184 23.7194C76.4466 23.7297 75.8747 23.7006 75.3074 23.6324C75.0441 23.6095 74.7964 23.5045 74.6032 23.334C74.4508 23.1222 74.3768 22.8688 74.3926 22.6131L74.3334 18.188H71.3786L71.3391 22.5758C71.3607 22.8381 71.3108 23.1013 71.1943 23.3403C71.0724 23.5017 70.8879 23.6112 70.681 23.6448C70.2336 23.7191 69.7794 23.7503 69.3253 23.738C68.8054 23.738 68.3118 23.738 67.8314 23.7069C67.6702 23.7153 67.509 23.6926 67.3574 23.6402C67.2058 23.5879 67.067 23.5069 66.9496 23.4024C66.8675 23.3113 66.806 23.2053 66.7686 23.091C66.7313 22.9767 66.719 22.8564 66.7324 22.7374L67.5616 18.0202L64.6462 17.523L63.7841 21.9667C63.7194 22.3335 63.6044 22.6908 63.4419 23.0295C63.3507 23.2125 63.1948 23.3597 63.001 23.4459C62.717 23.5251 62.4218 23.5628 62.1257 23.5578H61.4676C61.1351 23.5627 60.8034 23.5272 60.4805 23.4521C60.258 23.3917 60.0648 23.2598 59.9343 23.0792C59.7503 22.7809 59.6296 22.4516 59.5789 22.1097C59.3633 21.1178 59.0115 20.1567 58.5325 19.2508C58.0629 18.3521 57.3887 17.5626 56.5582 16.9388C55.7129 16.3117 54.665 15.9781 53.5902 15.9941C52.7769 15.9711 51.9763 16.1884 51.3 16.6156C50.6411 17.0757 50.0955 17.6651 49.7009 18.3434C49.1923 19.2067 48.7672 20.1115 48.4307 21.0469C48.2351 21.6185 47.9417 22.156 47.5621 22.638C47.2724 22.9758 46.8794 23.2211 46.4367 23.3403C46.2205 23.3941 46.0006 23.4335 45.7786 23.4583H24.9762C23.4099 23.4583 23.2059 22.638 23.2059 22.6317L23.173 22.4826C22.8816 20.8697 22.4838 19.2755 21.9819 17.7094V17.5851L19.0138 17.7529L19.9747 22.4204C20.0338 22.6827 20.0734 22.9485 20.0931 23.216L19.8694 23.2843H20.0931L20.126 23.4708H19.9352C19.8023 23.5047 19.6647 23.5193 19.5272 23.5143H15.8418V23.3278C15.6775 22.3077 15.3698 21.3128 14.9271 20.3695C14.4831 19.4226 13.8062 18.5895 12.9528 17.9394C12.0951 17.3268 11.0396 17.0129 9.96503 17.0506C9.03836 17.0559 8.13738 17.3388 7.39187 17.8586C6.55391 18.4292 5.87618 19.1845 5.41758 20.0587C4.92995 20.9767 4.67748 21.9901 4.68051 23.0171C4.66229 24.2022 5.06807 25.3584 5.83218 26.2986C6.62848 27.2744 7.99074 27.7529 9.91896 27.7529H12.9067L12.6501 28.0948C12.3232 28.5128 11.9225 28.8744 11.4655 29.1638C9.87289 30.2327 7.41819 31.2023 4.1672 32.0662L3.99609 32.1097L5.39784 35.9941L5.55578 35.9568C9.32667 34.95 12.0907 33.4708 13.7688 31.4944C14.6664 30.4499 15.3051 29.2288 15.6378 27.9207L15.6839 27.7529H17.6977C18.935 27.7419 20.1613 27.5317 21.3238 27.1314L21.3962 27.1004L21.6528 26.9823L21.7515 26.9201L21.8634 26.9698L22.1859 27.1004C23.716 27.5385 25.3135 27.7297 26.911 27.6659H45.3377C45.9168 27.6659 47.8977 27.5168 49.0165 26.1557L49.0691 26.0873C49.1614 25.9673 49.2471 25.8428 49.3258 25.7144L49.4574 25.4844L49.668 25.646C50.202 26.0445 50.7749 26.3941 51.379 26.6902C52.1694 27.0942 53.0034 27.4171 53.8666 27.6535C55.5448 28.1072 56.9597 28.1445 57.8152 27.6162C58.137 27.4204 58.4107 27.1619 58.6181 26.858L58.7497 26.6591L58.9471 26.802L59.1314 26.9201L59.2301 26.9761C60.0838 27.45 61.0565 27.699 62.0468 27.697C62.8806 27.6823 63.7025 27.5067 64.462 27.1812ZM12.6435 23.6324C11.9327 23.6697 11.3273 23.6883 10.8074 23.6883C9.87318 23.7388 8.93734 23.6207 8.04997 23.3403C7.83089 23.2832 7.63764 23.16 7.49978 22.9894C7.36192 22.8187 7.28703 22.6102 7.28657 22.3956C7.2917 22.1223 7.371 21.8548 7.51691 21.6187C7.68283 21.3393 7.93235 21.1123 8.23423 20.9661C8.60614 20.7857 9.02068 20.698 9.43855 20.7113C9.84879 20.7084 10.2553 20.7846 10.6333 20.9353C11.0112 21.086 11.3526 21.308 11.6366 21.5876C12.181 22.0869 12.5935 22.7 12.8409 23.3776L12.9462 23.651L12.6435 23.6324ZM56.3805 23.9555C55.7912 23.9278 55.2088 23.8232 54.6498 23.6448C53.9012 23.4303 53.1727 23.158 52.4715 22.8306C51.934 22.5853 51.4227 22.2919 50.9447 21.9543L50.8131 21.8486L50.8789 21.6995C51.0657 21.2302 51.3601 20.8057 51.741 20.4565C52.1727 20.1002 52.7347 19.9173 53.3072 19.9468C53.8576 19.9449 54.3984 20.0822 54.8735 20.3446C55.3803 20.6106 55.8274 20.9674 56.1897 21.395C56.5374 21.7973 56.8212 22.2453 57.0321 22.725C57.1262 22.9572 57.1752 23.2035 57.1768 23.4521C57.1768 23.7877 56.9333 23.9555 56.3805 23.9555Z" fill="#E8422C"/>
<path d="M89.2059 22.3228C88.7057 20.7322 88.0991 19.1732 87.3895 17.6553L87.3303 17.531H87.2908L83.6252 19.669C85.152 22.0991 85.843 23.1432 86.4024 24.5105L86.6261 25.132V25.1879C87.4356 27.6242 86.172 28.9978 85.3494 29.5944C83.3289 30.6999 81.1564 31.5364 78.8935 32.0804L78.7158 32.1301L80.2952 36.0083L80.4334 35.9772C81.4855 35.731 82.5153 35.4068 83.5133 35.0077C84.473 34.6224 85.3919 34.1521 86.2576 33.6031C87.4128 32.8858 88.375 31.9239 89.0677 30.7939C89.7113 29.6467 90.033 28.3629 90.0022 27.0649C89.9672 25.4573 89.6993 23.8617 89.2059 22.3228Z" fill="#E8422C"/>
<path d="M113.285 35.42L119.92 39.3408C120.039 39.4237 120.136 39.534 120.203 39.6624C120.27 39.7908 120.305 39.9334 120.305 40.0782C120.305 40.223 120.27 40.3656 120.203 40.494C120.136 40.6224 120.039 40.7327 119.92 40.8156L113.024 44.8713C112.89 44.9559 112.734 45.0008 112.574 45.0008C112.415 45.0008 112.259 44.9559 112.124 44.8713L105.534 40.9595C105.416 40.8766 105.318 40.7663 105.251 40.6379C105.184 40.5095 105.149 40.3669 105.149 40.2221C105.149 40.0773 105.184 39.9346 105.251 39.8063C105.318 39.6779 105.416 39.5676 105.534 39.4847L112.403 35.42C112.538 35.3444 112.69 35.3047 112.844 35.3047C112.999 35.3047 113.151 35.3444 113.285 35.42Z" fill="#E8422C"/>
<path d="M129.46 8.54721V24.7339C129.456 24.8821 129.415 25.027 129.341 25.1556C129.267 25.2843 129.163 25.3927 129.037 25.4713L122.501 29.3561C122.382 29.4389 122.285 29.5492 122.218 29.6776C122.151 29.806 122.116 29.9487 122.116 30.0935C122.116 30.2382 122.151 30.3809 122.218 30.5093C122.285 30.6377 122.382 30.748 122.501 30.8308L129.181 34.7786C129.316 34.8632 129.472 34.9081 129.631 34.9081C129.79 34.9081 129.946 34.8632 130.081 34.7786L137.58 30.3362C137.706 30.2577 137.811 30.1493 137.884 30.0206C137.958 29.892 137.999 29.7471 138.003 29.5989V12.5129C137.999 12.3647 137.958 12.2198 137.884 12.0912C137.811 11.9625 137.706 11.8541 137.58 11.7756L130.756 7.80982C130.624 7.74467 130.478 7.71286 130.331 7.71719C130.184 7.72151 130.04 7.76183 129.912 7.83461C129.784 7.9074 129.676 8.01043 129.597 8.13466C129.518 8.2589 129.471 8.40056 129.46 8.54721Z" fill="#0D72FF"/>
<path d="M110.521 33.3319V16.3899C110.525 16.2417 110.566 16.0968 110.64 15.9681C110.714 15.8395 110.818 15.731 110.944 15.6525L117.696 11.6598C117.828 11.5946 117.974 11.5628 118.121 11.5672C118.268 11.5715 118.412 11.6118 118.54 11.6846C118.668 11.7574 118.776 11.8604 118.855 11.9846C118.934 12.1089 118.981 12.2505 118.992 12.3972V27.2979C119.004 27.4446 119.051 27.5862 119.13 27.7105C119.208 27.8347 119.317 27.9377 119.444 28.0105C119.572 28.0833 119.716 28.1236 119.864 28.1279C120.011 28.1323 120.157 28.1005 120.289 28.0353L127.095 24.0066C127.222 23.9308 127.328 23.8228 127.4 23.6934C127.473 23.5639 127.51 23.4176 127.509 23.2692V6.35417C127.505 6.20676 127.466 6.06241 127.394 5.93382C127.322 5.80523 127.219 5.69636 127.095 5.61677L119.433 1.12048C119.297 1.04155 119.141 1 118.983 1C118.825 1 118.67 1.04155 118.533 1.12048L102.428 10.5897C102.302 10.6682 102.198 10.7766 102.124 10.9053C102.05 11.0339 102.009 11.1788 102.005 11.3271V37.3426C102.016 37.4893 102.063 37.631 102.142 37.7552C102.221 37.8794 102.329 37.9825 102.457 38.0552C102.585 38.128 102.729 38.1683 102.876 38.1727C103.023 38.177 103.169 38.1452 103.301 38.08L110.107 34.0244C110.225 33.9491 110.324 33.8474 110.396 33.7271C110.468 33.6069 110.511 33.4716 110.521 33.3319Z" fill="#0D72FF"/>
</svg>
