<svg width="401" height="222" viewBox="0 0 401 222" fill="none" xmlns="http://www.w3.org/2000/svg">
<path d="M359.202 167.858C346.677 149.562 317.382 145.968 300.828 160.779C300.392 139.652 282.858 122.989 261.73 123.424C251.929 123.642 242.563 127.672 235.593 134.533C237.989 126.256 229.276 118.088 220.564 117.652C211.96 117.217 203.901 121.791 196.604 126.256C189.198 130.721 181.139 135.295 172.536 134.751C163.17 134.097 155.437 127.563 146.725 124.187C125.379 115.91 98.3702 130.612 93.5783 152.938C69.9456 143.463 39.6696 159.037 33.6797 183.759L379.567 187.788C377.171 177.987 369.221 170.254 359.202 167.858Z" fill="#F5F5F5"/>
<path d="M345.263 56.5554C345.808 52.1991 339.709 48.6052 335.135 48.2785C332.957 48.0606 330.67 48.3874 328.601 47.7339C324.135 46.2092 322.284 40.3283 317.928 38.4769C314.66 37.0611 310.849 38.368 307.69 39.8926C304.532 41.5262 301.374 43.4866 297.78 43.7044C294.731 43.9222 291.354 42.7242 288.632 44.2489C286.563 45.338 285.582 47.7339 283.731 49.0408C281.88 50.4566 279.484 50.6744 277.305 50.7833C275.127 50.8922 272.731 50.8922 270.662 51.8724C268.593 52.8525 266.85 55.0307 267.286 57.2088L345.263 56.5554Z" fill="#FAFAFA"/>
<path d="M44.1359 20.8339C44.4627 18.438 41.0866 16.3688 38.4728 16.2599C37.2748 16.2599 36.0769 16.151 34.8789 15.9331C32.374 15.0619 31.3939 11.7947 28.889 10.8145C27.0376 10.0522 24.9684 10.7056 23.2259 11.5769C21.4834 12.4481 19.632 13.5372 17.6716 13.755C15.9291 13.8639 14.0777 13.2105 12.553 14.0817C11.4639 14.7352 10.8105 15.9331 9.83035 16.8044C8.74128 17.4578 7.54332 17.7846 6.23644 17.7846C4.92956 17.7846 3.73158 18.0024 2.53361 18.438C1.33563 18.8736 0.573287 20.0716 0.682194 21.3785L44.1359 20.8339Z" fill="#FAFAFA"/>
<path d="M400.694 100.88C401.347 95.8708 394.377 91.7323 389.041 91.4056C386.536 91.1878 383.922 91.6234 381.417 90.7522C376.19 88.9008 374.121 82.2574 369.111 80.0793C365.299 78.4457 360.943 79.8615 357.349 81.7129C353.646 83.5643 350.052 85.8514 345.914 86.1781C342.32 86.3959 338.508 85.089 335.35 86.8315C333.063 88.1384 331.865 90.8611 329.687 92.3858C327.509 93.9105 324.895 94.2372 322.281 94.3461C319.667 94.455 316.945 94.5639 314.658 95.653C312.371 96.742 310.301 99.2469 310.846 101.752L400.694 100.88Z" fill="#EBEBEB"/>
<path d="M391.001 15.1709C391.437 11.6859 386.536 8.74543 382.833 8.41871C381.091 8.30981 379.239 8.52762 377.497 7.98309C373.794 6.67621 372.378 1.99322 368.784 0.468526C366.062 -0.62054 363.121 0.359618 360.507 1.6665C357.894 2.97338 355.389 4.60698 352.448 4.82479C349.943 4.9337 347.221 4.06245 345.043 5.26042C343.409 6.24058 342.538 8.09199 341.013 9.18106C339.488 10.1612 337.637 10.5968 335.786 10.5968C333.934 10.5968 332.083 10.8147 330.34 11.4681C328.707 12.2304 327.291 13.9729 327.618 15.8244L391.001 15.1709Z" fill="#EBEBEB"/>
<path d="M58.4013 99.1379C58.7281 96.5241 55.0252 94.346 52.3026 94.1282C50.9957 94.2371 49.6888 94.0193 48.3819 93.8015C45.6593 92.8213 44.5702 89.3363 41.9564 88.2472C39.9961 87.376 37.7091 88.1383 35.7488 89.1185C33.7884 90.0986 31.937 91.2966 29.7589 91.4055C27.9075 91.5144 25.8383 90.861 24.2047 91.7322C23.0067 92.3857 22.3532 93.8015 21.2642 94.6727C20.0662 95.4351 18.7593 95.7618 17.3435 95.7618C15.9277 95.7618 14.6209 95.9796 13.314 96.4152C12.0071 96.9597 11.1359 98.2666 11.3537 99.6824L58.4013 99.1379Z" fill="#EBEBEB"/>
<path d="M155.984 58.9511C156.747 53.3969 148.905 48.8228 143.133 48.3871C140.302 48.1693 137.47 48.605 134.747 47.6248C129.084 45.6645 126.688 38.2588 121.134 35.8629C116.996 34.1204 112.095 35.6451 108.065 37.7143C104.036 39.7835 100.006 42.2884 95.4321 42.6151C91.5114 42.8329 87.1552 41.4171 83.7791 43.3774C81.1653 44.7932 79.8584 47.7337 77.4625 49.5851C75.0665 51.3276 72.1261 51.6543 69.1856 51.7632C66.354 51.8722 63.3046 51.9811 60.6909 53.179C58.0771 54.377 55.899 57.2086 56.4435 60.0402L155.984 58.9511Z" fill="#F5F5F5"/>
<path d="M191.816 151.304C184.519 154.789 181.252 164.808 185.064 171.887C186.588 174.719 188.984 177.223 189.311 180.382C189.856 185.283 185.173 189.094 183.757 193.668C182.232 199.44 185.608 205.321 191.271 207.064C193.776 207.717 196.717 207.608 198.459 209.569C200.637 212.074 199.004 216.212 200.855 218.935C202.489 221.44 206.301 221.549 208.805 219.915C211.31 218.281 212.617 215.45 213.597 212.618C214.577 209.787 215.34 206.846 216.973 204.45C218.825 201.727 221.656 199.876 223.943 197.589C229.389 191.926 231.022 183.322 229.824 175.59C228.626 167.749 224.815 160.67 220.567 154.026" fill="#0074FF"/>
<g opacity="0.3">
<path d="M191.816 151.304C184.519 154.789 181.252 164.808 185.064 171.887C186.588 174.719 188.984 177.223 189.311 180.382C189.856 185.283 185.173 189.094 183.757 193.668C182.232 199.44 185.608 205.321 191.271 207.064C193.776 207.717 196.717 207.608 198.459 209.569C200.637 212.074 199.004 216.212 200.855 218.935C202.489 221.44 206.301 221.549 208.805 219.915C211.31 218.281 212.617 215.45 213.597 212.618C214.577 209.787 215.34 206.846 216.973 204.45C218.825 201.727 221.656 199.876 223.943 197.589C229.389 191.926 231.022 183.322 229.824 175.59C228.626 167.749 224.815 160.67 220.567 154.026" fill="white"/>
</g>
<path d="M198.128 155.333C191.92 158.056 189.197 166.66 192.682 172.432C194.861 175.917 198.999 179.184 197.91 183.105C197.256 185.827 194.316 187.461 193.445 190.184C192.356 193.778 195.732 197.48 199.435 197.916C203.137 198.352 206.731 196.391 209.563 193.886C219.256 185.392 221.652 168.62 215.553 157.185" fill="#0074FF"/>
<path d="M230.035 100.989C230.035 100.989 261.836 122.008 258.351 158.383L229.164 145.314L230.035 100.989Z" fill="#0074FF"/>
<path d="M177.328 144.552L184.516 156.423H221.871L229.168 145.206L177.328 144.552Z" fill="#263238"/>
<path d="M201.286 23.8838C186.475 24.864 175.039 37.2793 175.366 52.0907L177.218 145.097H229.057L230.8 51.9817C231.126 36.6259 218.929 23.9927 203.573 23.666C202.811 23.7749 202.048 23.8838 201.286 23.8838Z" fill="#0074FF"/>
<g opacity="0.8">
<path d="M201.286 23.8833C186.475 24.8635 175.039 37.2789 175.366 52.0902L177.218 145.096H229.057L230.8 51.9813C231.126 36.6254 218.929 23.9922 203.573 23.6655C202.811 23.7744 202.048 23.8833 201.286 23.8833Z" fill="white"/>
</g>
<path d="M176.35 100.989C176.35 100.989 144.658 122.008 148.143 158.383L177.33 145.205L176.35 100.989Z" fill="#0074FF"/>
<path d="M175.694 49.0407C186.693 39.4569 221.108 39.6747 230.365 47.516C227.969 12.9926 201.613 0.0327148 201.613 0.0327148C174.605 18.6557 175.694 49.0407 175.694 49.0407Z" fill="#0074FF"/>
<path d="M201.508 0.0327148L201.835 0.359438C202.052 0.577251 202.379 0.795068 202.706 1.23069L204.122 2.64648L205.102 3.51773L206.082 4.6068C206.735 5.36915 207.498 6.13149 208.369 7.11165L210.874 10.2699C211.309 10.8145 211.745 11.4679 212.181 12.1214C212.616 12.7748 213.161 13.4282 213.488 14.0817C214.359 15.4975 215.23 16.9132 216.101 18.5468C217.953 22.0319 219.368 25.8436 220.349 29.6553C220.893 31.8335 221.329 34.0116 221.547 36.1897C221.656 37.2788 221.764 38.4768 221.982 39.6747C222.091 40.8727 222.091 42.0707 222.091 43.2687C222.091 52.9614 221.982 63.5253 221.873 74.6338C221.656 96.8507 221.329 116.998 221.111 131.592C221.002 138.889 220.893 144.77 220.784 148.908C220.784 150.977 220.675 152.502 220.675 153.7C220.675 154.245 220.675 154.68 220.675 154.898C220.675 155.116 220.675 155.334 220.675 155.334C220.675 155.334 220.675 155.225 220.675 154.898C220.675 154.571 220.675 154.245 220.675 153.7C220.675 152.611 220.675 150.977 220.675 148.908C220.675 144.879 220.784 138.889 220.893 131.592C221.111 116.998 221.329 96.8507 221.656 74.6338C221.764 63.5253 221.873 52.9614 221.873 43.2687C221.873 42.0707 221.873 40.8727 221.764 39.6747C221.656 38.4768 221.547 37.3877 221.329 36.1897C221.111 34.0116 220.675 31.8335 220.131 29.6553C219.151 25.8436 217.735 22.1408 215.883 18.5468C215.012 16.9132 214.141 15.3886 213.27 14.0817C212.834 13.3193 212.29 12.7748 211.963 12.1214C211.527 11.4679 211.092 10.8145 210.656 10.2699L208.151 7.11165C207.389 6.13149 206.518 5.36915 205.864 4.6068L204.884 3.51773L204.013 2.64648L202.597 1.23069L201.726 0.359438L201.508 0.0327148Z" fill="#263238"/>
<path d="M213.688 72.5561C215.321 65.1556 211.075 57.9263 204.203 56.4091C197.332 54.8919 190.436 59.6612 188.802 67.0617C187.168 74.4622 191.415 81.6914 198.286 83.2086C205.158 84.7258 212.054 79.9565 213.688 72.5561Z" fill="#FAFAFA"/>
<path d="M204.229 56.4463C204.12 56.4463 204.12 56.4463 204.011 56.4463L203.358 56.3374L202.922 56.2285H202.378H201.724C201.506 56.2285 201.288 56.2285 200.962 56.2285C200.417 56.2285 199.764 56.3374 199.219 56.4463C198.566 56.5552 197.912 56.773 197.259 56.9909C195.734 57.6443 194.318 58.5156 193.012 59.7135C191.487 61.1293 190.398 62.7629 189.635 64.7232C189.418 65.2678 189.2 65.8123 189.091 66.3568C188.982 66.6836 188.982 66.9014 188.873 67.2281L188.764 68.0993L188.655 68.535V68.9706C188.655 69.2973 188.655 69.5151 188.546 69.8418C188.546 70.1686 188.546 70.3864 188.546 70.7131V71.1487V71.5843C188.764 74.1981 189.744 76.594 191.378 78.6633C194.863 83.2374 201.18 84.6531 206.189 81.9305C208.476 80.7325 210.437 78.8811 211.744 76.703L211.961 76.2673L212.179 75.8317L212.615 75.0694L212.941 74.1981L213.05 73.7625L213.159 73.3269L213.377 72.4556C213.486 72.1289 213.486 71.9111 213.486 71.5843C213.595 71.0398 213.595 70.4953 213.704 69.9507C213.813 67.8815 213.486 65.9212 212.724 63.9609C211.852 61.7827 210.437 59.8224 208.476 58.4066C208.041 58.0799 207.496 57.7532 207.061 57.4265C206.843 57.3176 206.625 57.2087 206.407 57.0998L205.863 56.8819L205.318 56.6641L204.882 56.5552L204.229 56.3374C204.338 56.5552 204.338 56.5552 204.229 56.4463H204.447L205.1 56.5552L205.536 56.6641L206.08 56.8819L206.734 57.0998L207.387 57.4265C207.932 57.7532 208.367 58.0799 208.912 58.4066C209.456 58.8423 210.001 59.2779 210.437 59.8224C211.635 61.0204 212.506 62.4362 213.159 64.0698C213.922 66.0301 214.248 68.0993 214.139 70.1686C214.139 70.7131 214.031 71.2576 213.922 71.9111C213.813 72.2378 213.813 72.4556 213.813 72.7823C213.813 73.109 213.704 73.3269 213.595 73.6536L213.486 74.0892L213.377 74.5248L213.05 75.3961L212.615 76.2673L212.397 76.703L212.179 77.1386C210.872 79.4256 208.912 81.277 206.516 82.475C201.288 85.1977 194.863 83.7819 191.269 79.0989C189.635 77.0297 188.655 74.5248 188.438 71.9111V71.4754V71.0398C188.438 70.7131 188.438 70.3864 188.438 70.0597C188.438 69.7329 188.437 69.4062 188.546 69.0795V68.6439L188.655 68.2082C188.764 67.8815 188.764 67.6637 188.764 67.337C188.764 67.0103 188.873 66.7925 188.982 66.4657C189.091 65.9212 189.309 65.3767 189.527 64.8321C190.289 62.8718 191.487 61.1293 193.012 59.8224C194.21 58.6245 195.734 57.7532 197.259 57.0998C197.912 56.882 198.566 56.6641 199.219 56.5552C199.764 56.4463 200.417 56.3374 200.962 56.3374C201.18 56.3374 201.506 56.3374 201.724 56.3374H202.378H202.922L203.358 56.4463L204.011 56.5552L204.229 56.4463Z" fill="#263238"/>
<path d="M188.109 67.7725C188.109 67.8814 185.169 67.8814 181.684 68.5349C178.199 69.1883 175.476 70.2774 175.367 70.0595C175.912 69.7328 176.456 69.4061 177.11 69.1883C180.05 68.0992 183.1 67.5547 186.258 67.5547C186.802 67.5547 187.456 67.6636 188.109 67.7725Z" fill="#263238"/>
<path d="M230.041 67.7725C229.279 67.7725 228.517 67.6635 227.754 67.5546C226.339 67.3368 224.378 67.119 222.2 67.0101C220.022 66.9012 218.062 66.7923 216.537 66.7923C215.775 66.7923 215.012 66.7923 214.25 66.6834C215.012 66.4656 215.775 66.3567 216.537 66.4656C218.388 66.3567 220.349 66.3567 222.2 66.5745C224.052 66.6834 225.903 66.9012 227.754 67.3368C228.626 67.3368 229.279 67.4457 230.041 67.7725Z" fill="#263238"/>
<path d="M230.363 121.028C230.145 121.028 230.036 121.028 229.818 121.028L228.294 120.919L222.522 120.483C217.621 120.156 210.977 119.83 203.572 119.83C196.166 119.83 189.414 120.156 184.513 120.483L178.741 120.919L177.216 121.028C176.999 121.028 176.89 121.028 176.672 121.028C176.89 120.919 176.999 120.919 177.216 120.919L178.741 120.701C180.048 120.483 182.008 120.265 184.404 120.048C189.305 119.612 196.057 119.176 203.463 119.176C210.869 119.176 217.73 119.503 222.522 120.048C224.917 120.265 226.878 120.483 228.294 120.701L229.818 120.919C229.927 120.919 230.145 120.919 230.363 121.028Z" fill="#263238"/>
<path d="M189.525 81.1685C189.525 81.2774 189.198 81.2774 188.98 81.6041C188.872 81.822 188.763 82.0398 188.872 82.2576C188.98 82.4754 189.198 82.6932 189.416 82.6932C189.634 82.6932 189.961 82.5843 190.069 82.3665C190.178 82.1487 190.178 81.9309 190.069 81.713C189.961 81.2774 189.634 81.2774 189.634 81.1685C189.634 81.0596 190.069 81.0596 190.396 81.4952C190.614 81.822 190.614 82.1487 190.505 82.5843C190.287 83.0199 189.852 83.2377 189.416 83.2377C188.872 83.2377 188.327 82.6932 188.436 82.1487C188.436 81.9309 188.545 81.713 188.654 81.4952C189.089 80.9507 189.525 81.0596 189.525 81.1685Z" fill="#263238"/>
<path d="M200.854 87.2673C200.854 87.3762 200.528 87.3762 200.31 87.703C200.201 87.9208 200.201 88.1386 200.201 88.3564C200.31 88.5742 200.528 88.792 200.745 88.792C200.963 88.792 201.29 88.6831 201.399 88.4653C201.508 88.2475 201.508 88.0297 201.399 87.8119C201.181 87.3762 200.963 87.3762 200.963 87.2673C200.963 87.1584 201.399 87.1584 201.725 87.5941C201.943 87.9208 201.943 88.2475 201.834 88.6831C201.617 89.1187 201.181 89.3366 200.745 89.3366C200.201 89.3366 199.656 88.9009 199.656 88.2475C199.656 87.9208 199.765 87.703 199.983 87.4851C200.419 87.0495 200.854 87.1584 200.854 87.2673Z" fill="#263238"/>
<path d="M213.271 82.0396C213.271 82.1485 212.944 82.1485 212.726 82.4752C212.617 82.693 212.617 82.9109 212.617 83.1287C212.726 83.3465 212.944 83.5643 213.162 83.5643C213.379 83.5643 213.706 83.4554 213.815 83.2376C213.924 83.0198 213.924 82.802 213.815 82.5841C213.706 82.1485 213.379 82.1485 213.379 82.0396C213.379 81.9307 213.815 81.9307 214.142 82.3663C214.36 82.693 214.36 83.0198 214.251 83.4554C214.033 83.891 213.597 84.1088 213.162 84.1088C212.726 84.1088 212.29 83.7821 212.181 83.3465C212.073 83.0198 212.181 82.5841 212.508 82.3663C212.835 81.8218 213.271 81.9307 213.271 82.0396Z" fill="#263238"/>
<path d="M217.294 72.6738C217.294 72.7827 216.967 72.7827 216.749 73.1094C216.641 73.3272 216.641 73.545 216.641 73.7629C216.749 73.9807 216.967 74.1985 217.185 74.1985C217.403 74.1985 217.73 74.0896 217.839 73.8718C217.947 73.654 217.947 73.4361 217.839 73.2183C217.73 72.7827 217.403 72.7827 217.403 72.6738C217.403 72.5649 217.838 72.5649 218.165 73.0005C218.383 73.3272 218.383 73.6539 218.274 74.0896C218.056 74.5252 217.621 74.743 217.185 74.743C216.749 74.743 216.314 74.4163 216.205 73.9807C216.096 73.654 216.205 73.2183 216.532 73.0005C216.858 72.5649 217.403 72.6738 217.294 72.6738Z" fill="#263238"/>
<path d="M185.388 71.8017C185.388 71.9106 185.061 71.9106 184.843 72.2373C184.734 72.4552 184.734 72.673 184.734 72.8908C184.843 73.1086 185.061 73.3264 185.279 73.3264C185.497 73.3264 185.823 73.2175 185.932 72.9997C186.041 72.7819 186.041 72.5641 185.932 72.3463C185.823 71.9106 185.497 71.9106 185.497 71.8017C185.497 71.6928 185.932 71.6928 186.259 72.1284C186.477 72.4551 186.477 72.7819 186.368 73.2175C186.15 73.6531 185.714 73.8709 185.279 73.8709C184.843 73.8709 184.408 73.5442 184.299 73.1086C184.19 72.7819 184.299 72.3462 184.625 72.1284C184.952 71.5839 185.388 71.8017 185.388 71.8017Z" fill="#263238"/>
<path d="M213.27 59.0599C213.27 58.951 213.597 58.951 213.815 58.6243C213.924 58.4065 214.033 58.1887 213.924 57.9709C213.815 57.7531 213.597 57.5353 213.379 57.5353C213.162 57.5353 212.835 57.6442 212.726 57.862C212.617 58.0798 212.617 58.2976 212.726 58.5154C212.835 58.951 213.162 58.951 213.162 59.0599C213.162 59.1688 212.726 59.1689 212.399 58.7332C212.181 58.4065 212.181 58.0798 212.29 57.6442C212.508 57.2085 212.944 56.9907 213.379 56.9907C213.924 56.9907 214.468 57.4263 214.468 58.0798C214.468 58.4065 214.36 58.6243 214.142 58.8421C213.706 59.2778 213.162 59.0599 213.27 59.0599Z" fill="#263238"/>
<path d="M200.741 53.5058C200.741 53.3968 201.068 53.3968 201.285 53.0701C201.394 52.8523 201.394 52.6345 201.394 52.4167C201.285 52.1989 201.068 51.9811 200.85 51.9811C200.632 51.9811 200.305 52.09 200.196 52.3078C200.087 52.5256 200.087 52.7434 200.196 52.9612C200.305 53.3968 200.632 53.3968 200.632 53.5058C200.632 53.6147 200.196 53.6147 199.87 53.179C199.543 52.7434 199.652 52.09 200.087 51.6543C200.305 51.4365 200.632 51.4365 200.85 51.4365C201.285 51.4365 201.721 51.7632 201.83 52.1989C201.939 52.5256 201.83 52.9612 201.503 53.179C201.177 53.7236 200.741 53.6147 200.741 53.5058Z" fill="#263238"/>
<path d="M188.436 59.0599C188.436 58.951 188.763 58.951 188.981 58.6243C189.09 58.4065 189.09 58.1887 189.09 57.9709C188.981 57.7531 188.763 57.5353 188.545 57.5353C188.327 57.5353 188.001 57.6442 187.892 57.862C187.783 58.0798 187.783 58.2976 187.892 58.5154C188.001 58.951 188.327 58.951 188.327 59.0599C188.327 59.1688 187.892 59.1689 187.565 58.7332C187.238 58.2976 187.347 57.6442 187.783 57.2085C188.001 56.9907 188.327 56.9907 188.545 56.9907C188.981 56.9907 189.416 57.3174 189.525 57.7531C189.634 58.0798 189.525 58.5154 189.199 58.7332C188.872 59.2778 188.436 59.0599 188.436 59.0599Z" fill="#263238"/>
<path d="M199.219 104.801L200.308 160.343C200.308 161.977 201.724 163.175 203.248 163.175C204.773 163.175 206.08 161.868 206.08 160.343C206.189 150.324 206.515 116.672 206.624 104.692C206.624 102.623 204.991 100.989 202.922 100.989C202.704 100.989 202.486 100.989 202.377 100.989C200.526 101.316 199.219 102.95 199.219 104.801Z" fill="#0074FF"/>
<g opacity="0.3">
<path d="M199.219 104.801L200.308 160.343C200.308 161.977 201.724 163.175 203.248 163.175C204.773 163.175 206.08 161.868 206.08 160.343C206.189 150.324 206.515 116.672 206.624 104.692C206.624 102.623 204.991 100.989 202.922 100.989C202.704 100.989 202.486 100.989 202.377 100.989C200.526 101.316 199.219 102.95 199.219 104.801Z" fill="black"/>
</g>
<path d="M200.959 3.19089C201.068 3.4087 199.325 5.15121 196.602 8.3095C195.296 9.8342 193.771 11.7945 192.137 13.9726C190.504 16.3686 188.87 18.8734 187.454 21.4872C186.038 24.101 184.84 26.7147 183.751 29.5463C182.771 32.0512 182.009 34.4471 181.464 36.4074C180.375 40.3281 179.831 42.9418 179.613 42.8329C179.286 42.8329 179.504 40.2192 180.375 36.0807C180.92 33.6848 181.573 31.2888 182.445 29.0018C183.425 26.1702 184.732 23.4475 186.147 20.7249C187.563 18.1111 189.197 15.4973 191.048 13.1014C192.573 11.1411 194.098 9.28966 195.84 7.54715C198.672 4.49777 200.85 3.08198 200.959 3.19089Z" fill="white"/>
<path d="M175.149 106.543C175.258 106.761 172.644 108.395 169.05 111.88L167.634 113.187C167.09 113.622 166.654 114.167 166.218 114.711C165.129 115.8 164.258 116.998 163.169 118.305C160.991 121.137 159.03 124.077 157.288 127.236C155.654 130.394 154.239 133.661 153.15 137.146C152.714 138.671 152.169 140.196 151.952 141.611C151.843 142.374 151.625 143.027 151.516 143.681C151.407 144.334 151.298 144.987 151.189 145.532C150.427 150.433 150.536 153.591 150.209 153.591C150.1 153.591 149.991 152.829 149.882 151.413C149.882 151.086 149.882 150.651 149.773 150.215C149.773 149.779 149.773 149.344 149.773 148.799C149.773 147.601 149.882 146.512 149.991 145.423C150.1 144.77 150.1 144.116 150.209 143.463C150.318 142.809 150.427 142.047 150.536 141.285C150.754 139.76 151.189 138.235 151.625 136.602C153.694 129.523 157.07 122.988 161.862 117.325C162.842 116.127 163.931 114.929 165.129 113.84C165.674 113.296 166.218 112.751 166.654 112.315L168.179 111.009C169.05 110.246 169.921 109.593 170.901 108.939C171.337 108.613 171.664 108.395 172.099 108.177L173.079 107.524C174.386 106.761 175.04 106.434 175.149 106.543Z" fill="white"/>
</svg>
