<svg width="20" height="18" viewBox="0 0 20 18" fill="none" xmlns="http://www.w3.org/2000/svg">
<path d="M8.16512 4.1902L8.58512 3.7002V11.5202C8.58512 12.2575 8.42645 12.9109 8.10912 13.4802C7.80112 14.0589 7.36712 14.5069 6.80712 14.8242C6.25645 15.1415 5.63578 15.3002 4.94512 15.3002H4.24512C3.12512 15.3002 2.26178 14.9689 1.65512 14.3062C1.04845 13.6435 0.745117 12.7149 0.745117 11.5202V9.0702H1.16512V11.5202C1.16512 12.5935 1.44045 13.4195 1.99112 13.9982C2.55112 14.5862 3.32578 14.8802 4.31512 14.8802H4.94512C5.57045 14.8802 6.12578 14.7402 6.61112 14.4602C7.09645 14.1895 7.47445 13.8022 7.74512 13.2982C8.02512 12.8035 8.16512 12.2342 8.16512 11.5902V4.1902ZM16.6151 9.9102C16.6151 10.4889 16.4285 10.9509 16.0551 11.2962C15.6911 11.6322 15.2245 11.8002 14.6551 11.8002C14.0018 11.8002 13.3485 11.8002 12.6951 11.8002C12.0791 11.8002 11.6078 11.6042 11.2811 11.2122C10.9638 10.8202 10.8051 10.2695 10.8051 9.5602V3.1902L11.2251 2.7002V9.5602C11.2251 10.1575 11.3465 10.6102 11.5891 10.9182C11.8411 11.2262 12.2098 11.3802 12.6951 11.3802C13.3485 11.3802 14.0018 11.3802 14.6551 11.3802C15.1218 11.3802 15.4951 11.2589 15.7751 11.0162C16.0551 10.7735 16.1951 10.4282 16.1951 9.9802V7.6702H16.6151V9.9102ZM19.2551 7.6702V11.5202C19.2551 12.3135 19.1011 12.9949 18.7931 13.5642C18.4851 14.1335 18.0651 14.5629 17.5331 14.8522C17.0105 15.1509 16.4178 15.3002 15.7551 15.3002H15.4051L15.3351 14.8802H15.6851C16.6651 14.8802 17.4351 14.5815 17.9951 13.9842C18.5551 13.3869 18.8351 12.5655 18.8351 11.5202V7.6702H19.2551ZM14.5029 13.9002V14.3902H10.3851V13.9002H14.5029Z" fill="black"/>
<path d="M11.2251 3.1902V2.7002L8.58512 3.7002V4.1902L11.2251 3.1902Z" fill="black"/>
</svg>
