<svg width="15" height="15" viewBox="0 0 14 14" fill="none" xmlns="http://www.w3.org/2000/svg">
<path d="M14 14H0V13.087C0 12.3566 0.175738 11.7071 0.527214 11.1384C0.87869 10.5706 1.36654 10.165 1.99076 9.92153C2.92803 9.55634 3.81656 9.28269 4.65636 9.10058C5.49615 8.9175 6.30642 8.82596 7.08717 8.82596C7.82948 8.82596 8.5718 8.90728 9.31412 9.06991C10.0555 9.23157 10.9731 9.51544 12.0669 9.92153C12.6527 10.165 13.1213 10.5706 13.4728 11.1384C13.8243 11.7071 14 12.3566 14 13.087V14Z" fill="white"/>
<path d="M9.40129 5.84307C8.75738 6.49263 7.98601 6.8174 7.08717 6.8174C6.18926 6.8174 5.41836 6.49263 4.77445 5.84307C4.12961 5.19449 3.80719 4.38328 3.80719 3.40943C3.80719 2.47551 4.12961 1.67404 4.77445 1.00501C5.41836 0.335003 6.18926 0 7.08717 0C7.98601 0 8.75738 0.335003 9.40129 1.00501C10.0461 1.67404 10.3685 2.47551 10.3685 3.40943C10.3685 4.38328 10.0461 5.19449 9.40129 5.84307Z" fill="white"/>
</svg>
