<svg class="hidden" viewBox="0 0 0 0"><symbol viewBox="0 0 24 24" xmlns="http://www.w3.org/2000/svg" id="mail"><path d="M22 6C22 4.9 21.1 4 20 4H4C2.9 4 2 4.9 2 6V18C2 19.1 2.9 20 4 20H20C21.1 20 22 19.1 22 18V6ZM20 6L12 11L4 6H20ZM20 18H4V8L12 13L20 8V18Z"/></symbol><symbol viewBox="0 0 24 24" xmlns="http://www.w3.org/2000/svg" id="site"><path d="M11.99 2C6.47 2 2 6.48 2 12C2 17.52 6.47 22 11.99 22C17.52 22 22 17.52 22 12C22 6.48 17.52 2 11.99 2ZM18.92 8H15.97C15.65 6.75 15.19 5.55 14.59 4.44C16.43 5.07 17.96 6.35 18.92 8ZM12 4.04C12.83 5.24 13.48 6.57 13.91 8H10.09C10.52 6.57 11.17 5.24 12 4.04ZM4.26 14C4.1 13.36 4 12.69 4 12C4 11.31 4.1 10.64 4.26 10H7.64C7.56 10.66 7.5 11.32 7.5 12C7.5 12.68 7.56 13.34 7.64 14H4.26ZM5.08 16H8.03C8.35 17.25 8.81 18.45 9.41 19.56C7.57 18.93 6.04 17.66 5.08 16ZM8.03 8H5.08C6.04 6.34 7.57 5.07 9.41 4.44C8.81 5.55 8.35 6.75 8.03 8ZM12 19.96C11.17 18.76 10.52 17.43 10.09 16H13.91C13.48 17.43 12.83 18.76 12 19.96ZM14.34 14H9.66C9.57 13.34 9.5 12.68 9.5 12C9.5 11.32 9.57 10.65 9.66 10H14.34C14.43 10.65 14.5 11.32 14.5 12C14.5 12.68 14.43 13.34 14.34 14ZM14.59 19.56C15.19 18.45 15.65 17.25 15.97 16H18.92C17.96 17.65 16.43 18.93 14.59 19.56ZM16.36 14C16.44 13.34 16.5 12.68 16.5 12C16.5 11.32 16.44 10.66 16.36 10H19.74C19.9 10.64 20 11.31 20 12C20 12.69 19.9 13.36 19.74 14H16.36Z"/></symbol><symbol viewBox="0 0 24 24" xmlns="http://www.w3.org/2000/svg" id="social"><path d="M4 13C5.1 13 6 12.1 6 11C6 9.9 5.1 9 4 9C2.9 9 2 9.9 2 11C2 12.1 2.9 13 4 13ZM5.13 14.1C4.76 14.04 4.39 14 4 14C3.01 14 2.07 14.21 1.22 14.58C0.48 14.9 0 15.62 0 16.43V18H4.5V16.39C4.5 15.56 4.73 14.78 5.13 14.1ZM20 13C21.1 13 22 12.1 22 11C22 9.9 21.1 9 20 9C18.9 9 18 9.9 18 11C18 12.1 18.9 13 20 13ZM24 16.43C24 15.62 23.52 14.9 22.78 14.58C21.93 14.21 20.99 14 20 14C19.61 14 19.24 14.04 18.87 14.1C19.27 14.78 19.5 15.56 19.5 16.39V18H24V16.43ZM16.24 13.65C15.07 13.13 13.63 12.75 12 12.75C10.37 12.75 8.93 13.14 7.76 13.65C6.68 14.13 6 15.21 6 16.39V18H18V16.39C18 15.21 17.32 14.13 16.24 13.65ZM8.07 16C8.16 15.77 8.2 15.61 8.98 15.31C9.95 14.93 10.97 14.75 12 14.75C13.03 14.75 14.05 14.93 15.02 15.31C15.79 15.61 15.83 15.77 15.93 16H8.07ZM12 8C12.55 8 13 8.45 13 9C13 9.55 12.55 10 12 10C11.45 10 11 9.55 11 9C11 8.45 11.45 8 12 8ZM12 6C10.34 6 9 7.34 9 9C9 10.66 10.34 12 12 12C13.66 12 15 10.66 15 9C15 7.34 13.66 6 12 6Z"/></symbol><symbol viewBox="0 0 24 24" fill="none" xmlns="http://www.w3.org/2000/svg" id="dislike"><g clip-path="url(#clip0_653_60894)"><path d="m10.9 22 5.5-5.6c.4-.4.6-.9.6-1.4V5a2 2 0 0 0-2-2H6a2 2 0 0 0-1.8 1.2L.9 11.8A3 3 0 0 0 3.7 16h5.6l-1 4.6c0 .5.1 1 .5 1.3.6.6 1.5.6 2 0ZM21 3a2 2 0 0 0-2 2v8c0 1.1.9 2 2 2a2 2 0 0 0 2-2V5a2 2 0 0 0-2-2Z" fill="#E8422C"/></g><defs><clipPath id="clip0_653_60894"><rect width="24" height="24" fill="#fff"/></clipPath></defs></symbol><symbol viewBox="0 0 24 24" xmlns="http://www.w3.org/2000/svg" id="postal"><mask id="mask0_143_22278" style="mask-type:alpha" maskUnits="userSpaceOnUse" x="0" y="0" width="24" height="24"><rect width="24" height="24"/></mask><g mask="url(#mask0_143_22278)"><path d="M4 17a2 2 0 0 1-1.4-.6A2 2 0 0 1 2 15V7.2c0-.3 0-.5.2-.8l.6-.6L10.5 2l7.6 3.8.5.5.3.7h-3l-5.4-2.8L4 7.5V17Zm3 4a2 2 0 0 1-1.4-.6A2 2 0 0 1 5 19v-9c0-.6.2-1 .6-1.4A2 2 0 0 1 7 8h13c.6 0 1 .2 1.4.6.4.4.6.8.6 1.4v9c0 .6-.2 1-.6 1.4a2 2 0 0 1-1.4.6H7Zm6.5-5.7L7 12v7h13v-7l-6.5 3.3Zm0-2L20 10H7l6.5 3.3Z"/></g></symbol><symbol viewBox="0 0 24 24" xmlns="http://www.w3.org/2000/svg" id="phone"><mask id="mask0_212_10013" style="mask-type:alpha" maskUnits="userSpaceOnUse" x="0" y="0" width="24" height="24"><rect width="24" height="24"/></mask><g mask="url(#mask0_212_10013)"><path d="M4 21a1 1 0 0 1-1-1v-4.1c0-.2 0-.4.2-.6l.6-.4 3.5-.7a1.6 1.6 0 0 1 1.3.5l2.3 2.3a18.3 18.3 0 0 0 6.1-6.1l-2.4-2.5a1 1 0 0 1-.3-.5v-.6l.6-3.5c0-.2.2-.4.4-.6l.6-.2h4A1 1 0 0 1 21 4c0 2.2-.5 4.3-1.4 6.3a19 19 0 0 1-9.3 9.3c-2 1-4.1 1.4-6.3 1.4Z"/></g></symbol><symbol viewBox="0 0 24 28" xmlns="http://www.w3.org/2000/svg" id="location"><mask id="mask0_180_23465" style="mask-type:alpha" maskUnits="userSpaceOnUse" x="0" y="2" width="24" height="24"><rect y="2" width="24" height="24"/></mask><g mask="url(#mask0_180_23465)"><path d="M12 14c.6 0 1-.2 1.4-.6.4-.4.6-.8.6-1.4 0-.6-.2-1-.6-1.4A2 2 0 0 0 12 10a2 2 0 0 0-1.4.6A2 2 0 0 0 10 12c0 .6.2 1 .6 1.4.4.4.8.6 1.4.6Zm0 7.4c2-2 3.5-3.6 4.5-5.1 1-1.6 1.5-3 1.5-4.1a6 6 0 0 0-1.7-4.5A5.8 5.8 0 0 0 12 6c-1.7 0-3.1.6-4.3 1.7A6 6 0 0 0 6 12.2c0 1.2.5 2.5 1.5 4 1 1.6 2.5 3.3 4.5 5.2Zm0 2.6a33.2 33.2 0 0 1-6-6.4c-1.3-2-2-3.7-2-5.4 0-2.5.8-4.5 2.4-6A8 8 0 0 1 12 4a8 8 0 0 1 5.6 2.2 7.7 7.7 0 0 1 2.4 6c0 1.7-.7 3.5-2 5.4-1.3 2-3.3 4.1-6 6.4Z"/></g></symbol><symbol viewBox="0 0 20 21" xmlns="http://www.w3.org/2000/svg" id="newspaper-outlined"><path d="M19.414 6.39806H17.656V4.66506C17.656 3.69506 16.868 2.88306 15.898 2.88306H1.758C0.788 2.88306 0 3.67006 0 4.64006V15.1861C0 16.8021 1.314 18.1161 2.93 18.1161H17.07C18.686 18.1161 20 16.8021 20 15.1861V6.98506C20 6.66206 19.738 6.39906 19.414 6.39906V6.39806ZM15.312 4.64106C15.312 4.31206 15.582 4.04606 15.915 4.05506C16.229 4.06406 16.485 4.33706 16.485 4.66506V13.4301H15.313V4.64006L15.312 4.64106ZM1.172 15.1871V4.64206C1.172 4.31906 1.435 4.05606 1.758 4.05606H14.24C14.175 4.24106 14.14 4.43906 14.14 4.64206V15.1881C14.14 15.8481 14.36 16.4561 14.728 16.9461H2.93C1.96 16.9461 1.172 16.1581 1.172 15.1881V15.1871ZM18.828 15.1871C18.828 16.1571 18.04 16.9451 17.07 16.9451C16.101 16.9451 15.312 16.1571 15.312 15.1871V14.6021H17.07C17.394 14.6021 17.656 14.3391 17.656 14.0161V7.57006H18.828V15.1871Z"/><path d="M12.3828 5.22705H2.92975C2.60575 5.22705 2.34375 5.48905 2.34375 5.81205C2.34375 6.13605 2.60575 6.39805 2.92975 6.39805H12.3828C12.7068 6.39805 12.9688 6.13605 12.9688 5.81305C12.9688 5.48905 12.7068 5.22705 12.3828 5.22705ZM12.3828 7.57005H2.92975C2.60575 7.57005 2.34375 7.83305 2.34375 8.15605C2.34375 8.48005 2.60575 8.74205 2.92975 8.74205H12.3828C12.7068 8.74205 12.9688 8.48005 12.9688 8.15605C12.9688 7.83305 12.7068 7.57005 12.3828 7.57005ZM7.69475 9.91405H2.96975C2.64575 9.91405 2.38375 10.1761 2.38375 10.5001V15.1881C2.38375 15.5111 2.64575 15.7731 2.96975 15.7731H7.69575C8.01975 15.7731 8.28175 15.5111 8.28175 15.1881V10.5001C8.28175 10.1761 8.01975 9.91405 7.69575 9.91405H7.69475ZM7.10875 14.6021H3.55475V11.0861H7.10875V14.6021ZM12.3828 9.91405H9.99975C9.67575 9.91405 9.41375 10.1761 9.41375 10.5001C9.41375 10.8241 9.67575 11.0861 9.99975 11.0861H12.3828C12.7068 11.0861 12.9688 10.8241 12.9688 10.5001C12.9688 10.1761 12.7068 9.91405 12.3828 9.91405ZM12.3828 12.2581H9.99975C9.67575 12.2581 9.41375 12.5201 9.41375 12.8441C9.41375 13.1671 9.67575 13.4301 9.99975 13.4301H12.3828C12.7068 13.4301 12.9688 13.1671 12.9688 12.8441C12.9688 12.5201 12.7068 12.2581 12.3828 12.2581ZM12.3828 14.6021H9.99975C9.67575 14.6021 9.41375 14.8641 9.41375 15.1871C9.41375 15.5111 9.67575 15.7731 9.99975 15.7731H12.3828C12.7068 15.7731 12.9688 15.5111 12.9688 15.1881C12.9688 14.864 12.7068 14.6021 12.3828 14.6021Z"/></symbol><symbol viewBox="0 0 24 24" fill="none" xmlns="http://www.w3.org/2000/svg" id="like"><g clip-path="url(#clip0_653_60890)"><path d="M13.1 2 7.6 7.7A2 2 0 0 0 7 9v10c0 1.1.9 2 2 2h9a2 2 0 0 0 1.8-1.2l3.3-7.6A3 3 0 0 0 20.3 8h-5.6l1-4.6c0-.5-.1-1-.5-1.4-.6-.5-1.5-.5-2 0ZM3 21a2 2 0 0 0 2-2v-8a2 2 0 0 0-2-2 2 2 0 0 0-2 2v8c0 1.1.9 2 2 2Z" fill="#00AB66"/></g><defs><clipPath id="clip0_653_60890"><rect width="24" height="24" fill="#fff"/></clipPath></defs></symbol><symbol xmlns="http://www.w3.org/2000/svg" fill="none" viewBox="0 0 20 20" id="newspaper"><path fill="#5B5C5D" d="M19.4 5.9h-1.7V4.2c0-1-.8-1.8-1.8-1.8H1.8C.8 2.4 0 3.2 0 4v10.6a3 3 0 0 0 3 3h14a3 3 0 0 0 3-3V6.5c0-.3-.3-.6-.6-.6zm-4-1.8c0-.3.2-.6.5-.5.3 0 .6.2.6.6v8.7h-1.2V4.1zM1.1 14.7V4c0-.3.2-.5.6-.5h12.4v11.1c0 .6.2 1.3.5 1.7H3c-1 0-1.7-.7-1.7-1.7zm17.6 0a1.8 1.8 0 0 1-3.5 0V14h1.8c.3 0 .6-.3.6-.6V7.1h1.1v7.6z"/><path fill="#5B5C5D" d="M12.4 4.7H2.9A.6.6 0 1 0 3 6h9.5a.6.6 0 1 0 0-1.2zm0 2.4H2.9a.6.6 0 0 0 0 1.1h9.5a.6.6 0 1 0 0-1.1zM7.7 9.4H3c-.4 0-.6.3-.6.6v4.7c0 .3.2.6.6.6h4.7c.3 0 .6-.3.6-.6V10c0-.3-.3-.6-.6-.6zm-.6 4.7H3.6v-3.5H7V14zm5.3-4.7H10a.6.6 0 1 0 0 1.2h2.4a.6.6 0 1 0 0-1.2zm0 2.4H10a.6.6 0 1 0 0 1.1h2.4a.6.6 0 0 0 0-1.1zm0 2.3H10a.6.6 0 1 0 0 1.2h2.4a.6.6 0 1 0 0-1.2z"/></symbol><symbol xmlns="http://www.w3.org/2000/svg" fill="none" viewBox="0 0 24 24" id="phone"><path fill="#4A4E54" d="M17 1H7a2 2 0 0 0-2 2v18c0 1.1.9 2 2 2h10a2 2 0 0 0 2-2V3a2 2 0 0 0-2-2zm0 18H7V5h10v14z"/></symbol><symbol xmlns="http://www.w3.org/2000/svg" fill="none" viewBox="0 0 24 24" id="post"><path fill="#4A4E54" d="M20 6H10v5c0 .6-.5 1-1 1s-1-.5-1-1V4h5c.6 0 1-.5 1-1V1c0-.6-.5-1-1-1H7a1 1 0 0 0-1 1v5H4a2 2 0 0 0-2 2v12c0 1.1.9 2 2 2h16a2 2 0 0 0 2-2V8a2 2 0 0 0-2-2z"/></symbol><symbol xmlns="http://www.w3.org/2000/svg" fill="none" viewBox="0 0 24 24" id="product"><path fill="#151617" d="M22 6.3a.6.6 0 0 0 0-.2h-.1l-2.5-3.8a.6.6 0 0 0-.5-.3H5c-.2 0-.4.1-.5.3L2.1 6a.7.7 0 0 0 0 .3H2v14.4c0 .7.6 1.3 1.3 1.3h17.4c.7 0 1.3-.6 1.3-1.3V6.4zm-3.5-3 1.7 2.5h-5.8L14 3.3h4.5zm-7.2 0h1.4l.4 2.5H11l.4-2.5zM10.7 7h2.6v2.3l-1.1-.4h-.4l-1 .4V7zM5.5 3.2H10l-.4 2.5H3.8l1.7-2.5zm15.3 18.2v-.6H3.1V7h6.3v3.1c0 .2.1.4.3.5.1.2.3.2.5.1l1.7-.5 1.7.5h.5l.3-.6V7h6.3v14.4z"/><path fill="#151617" d="M8.9 15.8H5a.6.6 0 0 0 0 1.2H9a.6.6 0 0 0 0-1.3zM7 18.1H5.1a.6.6 0 0 0 0 1.3H7a.6.6 0 0 0 0-1.3z"/></symbol><symbol fill="none" xmlns="http://www.w3.org/2000/svg" viewBox="0 0 24 24" id="services"><path d="M19 16h-2a2.9 2.9 0 0 0-1.9-2.7L9 11H1v11h6v-1.4l7 1.9 8-2.5v-1a3 3 0 0 0-3-3ZM3 20v-7h2v7H3Zm11 .4-7-2V13h1.6l5.8 2.2a.9.9 0 0 1 .6.8c-.8 0-1.5 0-2.3-.2l-2.4-.7-.6 1.9 2.4.8c.5.2 1 .2 1.6.3H19a1 1 0 0 1 .9.5L14 20.4ZM20 7l-.1-.6 1.1-1-1-1.8-1.4.5c-.4-.3-.7-.5-1.1-.6L17.2 2h-2l-.3 1.5c-.4.1-.8.3-1.1.6l-1.5-.5-1 1.8 1.2 1v1.2l-1.2 1 1 1.8 1.5-.5 1 .6.4 1.5h2l.3-1.5 1-.6 1.5.4 1-1.7-1.1-1V7Zm-3.8 2a2 2 0 1 1 0-4 2 2 0 0 1 0 4Z" fill="currentColor"/></symbol><symbol xmlns="http://www.w3.org/2000/svg" fill="none" viewBox="0 0 20 20" id="signature"><g clip-path="url(#clip0)"><path fill="#013B81" d="m14.6 7.7 3 1.1-2.5 6.9c-.2.6-1.5 2.6-2.3 3l-.3.6a.4.4 0 0 1-.4.2.4.4 0 0 1-.3-.4l.2-.6c-.4-.9 0-3.4.1-4l2.5-6.8zM19 .5c-.8-.3-1.8.3-2 1.1l-1.9 5 3 1L20 2.8c.3-.6 0-1.9-.9-2.2zm-5.5 7a.7.7 0 0 0 1-.4l1.9-5.2a.7.7 0 1 0-1.4-.5l-1.9 5.1c-.1.4 0 .8.4 1zm-3 9.7-.9-.6c-.3-.2-.6-.2-.9-.2-.2-.4-.5-.6-1-.7-.5-.2-1 .1-1.3.3l.1-.5c.1-.4.2-.9.1-1.3 0-.4-.3-.6-.7-.7-.9 0-1.6.5-2.3 1-.7.4-1.1.7-1.6.5-.5-.2-.5-1.6-.3-3 .2-1 .7-3.3 1.8-4.2.3-.4.9-.7 1.3-.6.5.2 1 1 1 2.1.1.4.5.8 1 .7.3 0 .7-.4.6-.8-.1-1.7-1-3-2-3.4-.7-.3-1.7-.3-3 .8C1.1 7.8.5 9.9.2 11.8c-.2.9-.7 4 1.3 4.7 1.2.4 2.2-.3 3-.8l.4-.3c-.1.6-.2 1.2.1 1.7.5.8 1.3.9 2.2.3l.1-.1c0 .2.2.4.5.5.3.2.7.2.9.2H9l.4.3.4.4.5.1a.8.8 0 0 0 .5-1.4c-.2 0-.3-.1-.3-.2z"/></g><defs><clipPath id="clip0"><path fill="#fff" d="M0 0h20v20H0z"/></clipPath></defs></symbol><symbol fill="none" xmlns="http://www.w3.org/2000/svg" viewBox="0 0 25 25" id="solutions"><path d="m12.5 3-1.4.1a7 7 0 0 0-3.3 12.1 2 2 0 0 1 .7 1.5V19a2 2 0 0 0 2 2h.3a2 2 0 0 0 3.4 0h.3a2 2 0 0 0 2-2v-2.3a2 2 0 0 1 .6-1.5A7 7 0 0 0 12.5 3Zm2 14h-4v-1h4v1Zm-4 2v-1h4v1h-4Zm5.3-5.3-.2.3H9.4l-.2-.3a5 5 0 1 1 6.6 0ZM22.5 9h-2v2h2V9ZM20.4 11.8l-.7 1.9 1.9.7.6-2-1.8-.6Z" fill="currentColor"/><path d="m21.6 5.6-2 .7.8 2 1.8-.8-.6-1.9ZM4.5 9h-2v2h2V9ZM4.6 11.8l-1.8.7.6 1.9 2-.7-.8-1.9ZM3.4 5.7l-.6 1.8 1.8.7.7-1.9-1.9-.6Z" fill="currentColor"/></symbol><symbol xmlns="http://www.w3.org/2000/svg" fill="none" viewBox="0 0 24 24" id="stamp"><g clip-path="url(#clip0)"><path fill="#5B5C5D" d="M19 15.5h-3.5v-.7c0-.9-.5-1.6-1.3-2 .3-1.5.7-3 2-5.4a5 5 0 1 0-8.2.3c1 1.5 1.5 3.4 1.8 5.2-.8.3-1.3 1-1.3 2v.6H5c-2 0-3.5 1.6-3.5 3.5v1.5c0 .4.3.7.7.7h.7v.7c0 1.2 1 2.1 2 2.1H19c1.2 0 2.1-1 2.1-2.1v-.7h.7c.4 0 .7-.3.7-.7V19c0-2-1.5-3.5-3.5-3.5zM9.1 7c-.5-.8-.7-1.7-.5-2.7A3.5 3.5 0 1 1 15 6.7c-1.5 2.5-2 4.2-2.3 6h-1.6c-.3-2-.9-4-2-5.8zm5 8v.6H10v-.7c0-.4.3-.7.7-.7h2.8c.4 0 .7.3.7.7zm5.6 7c0 .4-.3.7-.7.7H5a.7.7 0 0 1-.7-.7v-.7h15.4v.7zm1.4-2.1H3V19c0-1.1 1-2 2-2H19c1.2 0 2.1.9 2.1 2v.8z"/></g><defs><clipPath id="clip0"><path fill="#fff" d="M0 0h24v24H0z"/></clipPath></defs></symbol><symbol xmlns="http://www.w3.org/2000/svg" fill="none" viewBox="0 0 24 24" id="tel"><path fill="#4A4E54" d="m19.2 15.3-2.5-.3a2 2 0 0 0-1.6.5l-1.9 1.9a15 15 0 0 1-6.6-6.6l1.9-1.9c.4-.4.6-1 .5-1.6l-.2-2.5a2 2 0 0 0-2-1.8H5a2 2 0 0 0-2 2 17 17 0 0 0 16 16 2 2 0 0 0 2-2v-1.8a2 2 0 0 0-1.8-2z"/></symbol><symbol fill="none" xmlns="http://www.w3.org/2000/svg" viewBox="0 0 24 24" id="telegram"><path d="M12 24a12 12 0 1 0 0-24 12 12 0 0 0 0 24Z" fill="#2AABEE"/><path d="m8.1 12.9 1.4 4s.2.3.4.3 3-3 3-3l3.2-6-8 3.7v1Z" fill="#C8DAEA"/><path d="m10 13.9-.3 2.9s0 .9.8 0l1.8-1.6L10 14Z" fill="#A9C6D8"/><path d="m8.1 13-2.9-1s-.3 0-.2-.4l.2-.2a283.9 283.9 0 0 1 12.6-4.5l.1.1v.5c0 1.1-2.1 9.5-2.1 9.5s-.1.5-.6.5a.8.8 0 0 1-.6-.3A79.2 79.2 0 0 0 10 14s5.3-4.7 5.4-5.2C15 8.6 9 12.5 8.3 13h-.2Z" fill="#fff"/></symbol><symbol fill="none" xmlns="http://www.w3.org/2000/svg" viewBox="0 0 24 24" id="twitter"><path d="M12 24a12 12 0 1 0 0-24 12 12 0 0 0 0 24Z" fill="#5A99EC"/><path d="M9.6 19a9 9 0 0 0 9-9.2v-.4c.7-.4 1.2-1 1.6-1.6l-1.8.5c.7-.4 1.2-1 1.4-1.8-.6.4-1.3.7-2 .8a3.2 3.2 0 0 0-5.5 2.9 9 9 0 0 1-6.5-3.3 3.2 3.2 0 0 0 1 4.2c-.5 0-1-.1-1.5-.4A3.2 3.2 0 0 0 8 14H6.4a3.2 3.2 0 0 0 3 2.3 6.4 6.4 0 0 1-4.7 1.3 9 9 0 0 0 4.9 1.4" fill="#fff"/></symbol><symbol xmlns="http://www.w3.org/2000/svg" fill="none" viewBox="0 0 24 24" id="website"><path fill="#4A4E54" d="M12 2a10 10 0 1 0 0 20 10 10 0 0 0 0-20zm7 6h-3c-.3-1.3-.8-2.5-1.4-3.6A8 8 0 0 1 18.9 8zm-7-4a14 14 0 0 1 2 4h-4a14 14 0 0 1 2-4zM4.3 14a8.2 8.2 0 0 1 0-4h3.3a16.5 16.5 0 0 0 0 4H4.3zm.8 2h3c.3 1.3.7 2.5 1.3 3.6A8 8 0 0 1 5.1 16zm3-8H5a8 8 0 0 1 4.3-3.6C8.8 5.5 8.4 6.7 8 8zM12 20a14 14 0 0 1-2-4h4a14 14 0 0 1-2 4zm2.3-6H9.7a14.7 14.7 0 0 1 0-4h4.6a14.6 14.6 0 0 1 0 4zm.3 5.6c.6-1.2 1-2.4 1.4-3.6h3a8 8 0 0 1-4.4 3.6zm1.8-5.6a16.5 16.5 0 0 0 0-4h3.3a8.2 8.2 0 0 1 0 4h-3.3z"/></symbol><symbol fill="none" xmlns="http://www.w3.org/2000/svg" viewBox="0 0 24 24" id="Whatsapp"><path d="M12 24a12 12 0 1 0 0-24 12 12 0 0 0 0 24Z" fill="#2BB741"/><path fill-rule="evenodd" clip-rule="evenodd" d="M17.8 6.4a7.6 7.6 0 0 0-12 9.2l-1 3.9 4-1a7.6 7.6 0 0 0 9-12.1ZM12.4 18c-1.1 0-2.3-.3-3.2-1h-.3l-2.4.6.7-2.3L7 15a6.3 6.3 0 1 1 5.4 3Zm3.5-4.8-1.3-.6-.5.1-.6.8s-.2.1-.4 0a5.2 5.2 0 0 1-2.6-2.2l.1-.4.3-.4.2-.3a.4.4 0 0 0 0-.3l-.6-1.4c-.2-.4-.3-.3-.4-.4h-.4a.7.7 0 0 0-.5.3 2.1 2.1 0 0 0-.7 1.6c0 1 .7 1.8.8 2 0 0 1.3 2 3.2 2.8l1.1.4c.4.1.8.2 1.2 0 .4 0 1.1-.4 1.3-.8.2-.5.2-.8.1-1 0 0-.2 0-.3-.2Z" fill="#fff"/></symbol><symbol fill="none" xmlns="http://www.w3.org/2000/svg" viewBox="0 0 25 25" id="blog"><path d="m22.5 3-1.7 1.7L19.2 3l-1.7 1.7L15.8 3l-1.6 1.7L12.5 3l-1.7 1.7L9.2 3 7.5 4.7 5.8 3 4.2 4.7 2.5 3v16c0 1.1.9 2 2 2h16a2 2 0 0 0 2-2V3Zm-11 16h-7v-6h7v6Zm9 0h-7v-2h7v2Zm0-4h-7v-2h7v2Zm0-4h-16V8h16v3Z" fill="currentColor"/></symbol><symbol xmlns="http://www.w3.org/2000/svg" fill="none" viewBox="0 0 20 20" id="copy"><path fill="#737374" d="M13.5 16.7H5.2V5.8c0-.4-.4-.8-.9-.8-.4 0-.8.4-.8.8v10.9c0 .9.8 1.6 1.7 1.6h8.3c.5 0 .8-.3.8-.8s-.3-.8-.8-.8zm4.2-3.4v-10c0-.9-.8-1.6-1.7-1.6H8.5c-1 0-1.7.7-1.7 1.6v10c0 1 .8 1.7 1.7 1.7H16c1 0 1.7-.7 1.7-1.7zm-1.7 0H8.5v-10H16v10z"/></symbol><symbol xmlns="http://www.w3.org/2000/svg" fill="none" viewBox="0 0 20 20" id="earnings"><path fill="#5B5C5D" d="M5.3 14.1H.6c-.3 0-.6.3-.6.6v4.7c0 .3.3.6.6.6h4.7c.3 0 .6-.3.6-.6v-4.7c0-.3-.3-.6-.6-.6zm-.6 1.2v1.2H1.2v-1.2h3.5zm0 3.5H1.2v-1.1h3.5v1.1zm7.6-7H7.7c-.4 0-.6.3-.6.6v7c0 .3.2.6.6.6h4.6c.4 0 .6-.3.6-.6v-7c0-.3-.2-.6-.6-.6zm-4 3.5h3.5v1.2H8.2v-1.2zm3.5-2.3V14H8.2V13h3.6zm0 5.8H8.2v-1.1h3.6v1.1zm7.6-11.7h-4.7c-.3 0-.6.3-.6.6v11.7c0 .3.3.6.6.6h4.7c.3 0 .6-.3.6-.6V7.7c0-.3-.3-.6-.6-.6zm-4 7V13h3.4V14h-3.5zm3.4-2.3h-3.5v-1.2h3.5v1.2zm-3.5 3.5h3.5v1.2h-3.5v-1.2zm3.5-7v1.2h-3.5V8.3h3.5zm0 10.5h-3.5v-1.1h3.5v1.1zM3 10.6c.1 0 .3 0 .4-.2l4.3-4.3 1.9 2c.2.2.6.2.8 0l6-6v.8a.6.6 0 1 0 1.2 0V.6c0-.3-.2-.6-.6-.6h-2.3a.6.6 0 0 0 0 1.2h1L10 6.8 8 5a.6.6 0 0 0-.8 0L2.6 9.6a.6.6 0 0 0 .4 1z"/></symbol><symbol xmlns="http://www.w3.org/2000/svg" fill="none" viewBox="0 0 24 24" id="emails"><path fill="#4A4E54" d="M20 4H4a2 2 0 0 0-2 2v12c0 1.1.9 2 2 2h16a2 2 0 0 0 2-2V6a2 2 0 0 0-2-2zm-.4 4.3-7 4.4a1 1 0 0 1-1.1 0L4.4 8.3a.8.8 0 1 1 .9-1.4L12 11l6.7-4.2a.8.8 0 1 1 .9 1.5z"/></symbol><symbol fill="none" xmlns="http://www.w3.org/2000/svg" viewBox="0 0 24 24" id="Email"><circle cx="12" cy="12" r="12" fill="#961B1E"/><path d="M19.1 8.3c0-.8-.6-1.4-1.4-1.4H6.3c-.8 0-1.4.6-1.4 1.4v8.6c0 .7.6 1.4 1.4 1.4h11.4c.8 0 1.4-.7 1.4-1.4V8.3Zm-1.4 0L12 11.9 6.3 8.3h11.4Zm0 8.6H6.3V9.7l5.7 3.6 5.7-3.6V17Z" fill="#fff"/></symbol><symbol xmlns="http://www.w3.org/2000/svg" fill="#0074ff" viewBox="0 0 24 24" id="excel"><g clip-path="url(#clip0_382_48719)"><path d="M17.5 3.4 16.3 2H6.7c-.7 0-1 .5-1 1v3.5H7V3.7c0-.2.2-.3.3-.3h7l.2.1v4.8h4.9c.2 0 .2.1.2.3v11.8c0 .2 0 .2-.2.2h-12a.3.3 0 0 1-.4-.2v-1.1H5.7V21c0 .6.3 1 1 1H20c.7 0 .9-.5.9-1V7.2l-.3-.4-3.2-3.4Zm-1.7.1.4.5 2.6 2.8.2.2h-2.7l-.4-.1V3.6Zm-1 9.2h4.5V14h-4.6v-1.3Zm0-2.7h4.5v1.3h-4.6V10Zm0 5.3h4.5v1.4h-4.6v-1.4ZM3 7.6v10.7h10.5V7.6H3Zm5.2 6.2-.6 1h.6V16H5l2.4-3.5-2.1-3.2H7l1.2 1.9 1.3-1.9h1.7l-2 3.2 2.2 3.5H9.7l-1.5-2.2Z"/></g><defs><clipPath id="clip0_382_48719"><rect width="20" height="20" fill="#fff" transform="translate(2 2)"/></clipPath></defs></symbol><symbol fill="none" xmlns="http://www.w3.org/2000/svg" viewBox="0 0 24 24" id="Facebook"><path d="M24 12a12 12 0 1 0-13.9 11.8v-8.3h-3V12h3V9.4c0-3 1.8-4.7 4.6-4.7.9 0 1.8 0 2.6.2v3h-1.5c-1.5 0-2 .9-2 1.8V12h3.4l-.5 3.5h-2.8v8.3A12 12 0 0 0 24 12Z" fill="#4676ED"/><path d="m16.7 15.5.5-3.5h-3.3V9.7c0-.9.4-1.8 2-1.8h1.4v-3l-2.6-.2c-2.8 0-4.6 1.6-4.6 4.7V12h-3v3.5h3v8.4H14v-8.4h2.8Z" fill="#fff"/></symbol><symbol xmlns="http://www.w3.org/2000/svg" fill="none" viewBox="0 0 24 24" id="fax"><path fill="#4A4E54" d="M19 8H5a3 3 0 0 0-3 3v4c0 1.1.9 2 2 2h2v2c0 1.1.9 2 2 2h8a2 2 0 0 0 2-2v-2h2a2 2 0 0 0 2-2v-4a3 3 0 0 0-3-3zm-4 11H9a1 1 0 0 1-1-1v-4h8v4c0 .6-.5 1-1 1zm4-7c-.6 0-1-.5-1-1s.5-1 1-1 1 .5 1 1-.5 1-1 1zm-2-9H7a1 1 0 0 0-1 1v2c0 .6.5 1 1 1h10c.6 0 1-.5 1-1V4c0-.6-.5-1-1-1z"/></symbol><symbol fill="none" xmlns="http://www.w3.org/2000/svg" viewBox="0 0 24 25" id="industry"><path d="M22 22H2V10l7-3v2l5-2v3h3l1-8h3l1 8v12ZM12 10l-5 2v-2l-3 1.3V20h16v-8h-8v-2Zm-1 8h2v-4h-2v4Zm-4 0h2v-4H7v4Zm10-4h-2v4h2v-4Z" fill="currentColor"/></symbol><symbol fill="none" xmlns="http://www.w3.org/2000/svg" viewBox="0 0 15 16" id="graph"><path d="M12.9 1.3a1.9 1.9 0 0 0-1.7 2.6L9.7 5.5a3 3 0 0 0-3.2 0L4.8 3.6a2.2 2.2 0 0 0-1.2-3 2.2 2.2 0 1 0 .1 4l1.7 1.8A3 3 0 0 0 5 8c0 .7.3 1.4.7 2l-1.9 1.9-.7-.2A1.9 1.9 0 1 0 5 13L7 11l1 .1a3 3 0 0 0 2.7-4.3l1.6-1.8.6.1a1.9 1.9 0 0 0 0-3.8ZM8 9.4a1.5 1.5 0 1 1 0-3 1.5 1.5 0 0 1 0 3Z" fill="#0074FF"/></symbol><symbol xmlns="http://www.w3.org/2000/svg" fill="none" viewBox="0 0 20 20" id="internet"><path fill="#5B5C5D" d="M10 0a10 10 0 0 0 0 20 10 10 0 0 0 0-20zM7 1.7c-.7.9-1.2 2-1.5 3H3c1-1.4 2.4-2.4 4-3zM2.2 5.9h3c-.3 1-.5 2.3-.5 3.5H1.2c0-1.3.4-2.5 1-3.5zm0 8.2c-.6-1-1-2.2-1-3.5h3.5c0 1.2.2 2.4.5 3.5h-3zm.8 1.2h2.5c.3 1 .8 2.1 1.5 3-1.6-.6-3-1.6-4-3zm6.4 3.4c-1.3-.4-2.2-2-2.7-3.4h2.7v3.4zm0-4.6h-3c-.3-1-.5-2.3-.5-3.5h3.5V14zm0-4.7H6c0-1.2.2-2.4.5-3.5h3v3.5zm0-4.7H6.7c.5-1.3 1.4-3 2.7-3.4v3.4zm8.4 1.2c.6 1 1 2.2 1 3.5h-3.5c0-1.2-.2-2.4-.5-3.5h3zM17 4.7h-2.5a10 10 0 0 0-1.5-3c1.6.6 3 1.6 4 3zm-6.4-3.4c1.3.4 2.2 2 2.7 3.4h-2.7V1.3zm0 4.6h3c.3 1 .5 2.3.5 3.5h-3.5V6zm0 4.7H14c0 1.2-.2 2.4-.5 3.5h-3v-3.5zm0 8.1v-3.4h2.7c-.5 1.3-1.4 3-2.7 3.4zm2.4-.4c.7-.9 1.2-2 1.5-3H17a8.9 8.9 0 0 1-4 3zm4.8-4.2h-3c.3-1 .5-2.3.5-3.5h3.5c0 1.3-.4 2.5-1 3.5z"/></symbol><symbol fill="currentColor" xmlns="http://www.w3.org/2000/svg" viewBox="0 0 24 24" id="jet"><g id="shuttle"><path id="Path_12" d="M24 1.8A1.9 1.9 0 0 0 22.2 0 18.5 18.5 0 0 0 13 2a18.2 18.2 0 0 0-5.3 4.4L4 6.7a1.9 1.9 0 0 0-1.4.9L.2 11a1.3 1.3 0 0 0 .9 2l3 .4v.2a1.9 1.9 0 0 0 .4 1.6l4.2 4.2a1.9 1.9 0 0 0 1.3.5 1.8 1.8 0 0 0 .3 0h.2l.4 3a1.3 1.3 0 0 0 2 .8l3.6-2.4a1.9 1.9 0 0 0 .9-1.4l.2-3.5.1-.1a18.2 18.2 0 0 0 4.4-5.3A18.5 18.5 0 0 0 24 1.8zm-8.3 18.4-3.4 2.3-.5-2.9a15.8 15.8 0 0 0 4.3-2l-.1 2.3a.5.5 0 0 1-.2.3zm-6-1.7-4.2-4.2a.5.5 0 0 1 0-.4 12.1 12.1 0 0 1 .5-2L12 18a12.1 12.1 0 0 1-2 .6.5.5 0 0 1-.4-.1zM4 8 6.4 8a15.8 15.8 0 0 0-2 4.3l-3-.5 2.4-3.4A.5.5 0 0 1 4 8zm12.7 7.3a16.1 16.1 0 0 1-3.3 2.2l-7-7a16.4 16.4 0 0 1 2.2-3.3 16.8 16.8 0 0 1 4.9-4A17.1 17.1 0 0 1 22 1.3a.5.5 0 0 1 .5.5 17.1 17.1 0 0 1-1.7 8.5 16.8 16.8 0 0 1-4.1 5z"/><path id="Path_13" d="M279.2 93.3a3.5 3.5 0 1 0-2.4-1 3.5 3.5 0 0 0 2.4 1zm-1.5-5a2.1 2.1 0 1 1-.6 1.5 2.1 2.1 0 0 1 .6-1.5z" transform="translate(-262.8 -82.3)"/><path id="Path_14" d="M1 346.7a.7.7 0 0 0 .5-.2l2.3-2.3a.7.7 0 0 0-1-1l-2.3 2.3a.7.7 0 0 0 .5 1.2z" transform="translate(-.3 -326.9)"/><path id="Path_15" d="M5.6 388a.7.7 0 0 0-1 0l-4.4 4.5a.7.7 0 1 0 1 1l4.4-4.5a.7.7 0 0 0 0-1z" transform="translate(0 -369.7)"/><path id="Path_16" d="m92.6 433-2.3 2.2a.7.7 0 1 0 1 1l2.3-2.3a.7.7 0 1 0-1-1z" transform="translate(-85.8 -412.4)"/></g></symbol><symbol viewBox="0 0 18 18" fill="none" xmlns="http://www.w3.org/2000/svg" id="telegram-outlined"><path d="M2.19844 7.89415L15.501 2.71765C16.1184 2.49254 16.6576 2.86966 16.4576 3.8119L16.4587 3.81074L14.1937 14.5803C14.0259 15.3439 13.5763 15.5295 12.9474 15.1698L9.49818 12.6042L7.83449 14.2218C7.65054 14.4074 7.49532 14.5641 7.1389 14.5641L7.3838 11.0214L13.7764 5.19277C14.0546 4.9456 13.7143 4.80636 13.3475 5.05236L5.44762 10.0722L2.04207 9.00001C1.30279 8.76329 1.28669 8.25388 2.19844 7.89415Z" fill="#0D72FF"/></symbol><symbol viewBox="0 0 18 18" fill="none" xmlns="http://www.w3.org/2000/svg" id="linkedin-outlined"><path d="M16.4963 16.4997V16.499H16.5V10.9978C16.5 8.30652 15.9207 6.2334 12.7744 6.2334C11.2619 6.2334 10.2469 7.0634 9.83254 7.85027H9.78879V6.48465H6.80566V16.499H9.91191V11.5403C9.91191 10.2346 10.1594 8.97215 11.7763 8.97215C13.3694 8.97215 13.3932 10.4621 13.3932 11.624V16.4997H16.4963Z" fill="#0D72FF"/><path d="M1.74731 6.48535H4.85731V16.4997H1.74731V6.48535Z" fill="#0D72FF"/><path d="M3.30125 1.5C2.30687 1.5 1.5 2.30688 1.5 3.30125C1.5 4.29563 2.30687 5.11938 3.30125 5.11938C4.29562 5.11938 5.1025 4.29563 5.1025 3.30125C5.10188 2.30688 4.295 1.5 3.30125 1.5V1.5Z" fill="#0D72FF"/></symbol><symbol viewBox="0 0 18 18" fill="none" xmlns="http://www.w3.org/2000/svg" id="twitter-outlined"><path d="M16.5 4.34906C15.9422 4.59375 15.3478 4.75594 14.7281 4.83469C15.3656 4.45406 15.8522 3.85594 16.0809 3.135C15.4866 3.48937 14.8303 3.73969 14.1309 3.87938C13.5666 3.27844 12.7622 2.90625 11.8847 2.90625C10.1822 2.90625 8.81156 4.28813 8.81156 5.98219C8.81156 6.22594 8.83219 6.46031 8.88281 6.68344C6.32625 6.55875 4.06406 5.33344 2.54437 3.46688C2.27906 3.92719 2.12344 4.45406 2.12344 5.02125C2.12344 6.08625 2.67188 7.03031 3.48937 7.57687C2.99531 7.5675 2.51063 7.42406 2.1 7.19812C2.1 7.2075 2.1 7.21969 2.1 7.23187C2.1 8.72625 3.16594 9.9675 4.56375 10.2534C4.31344 10.3219 4.04063 10.3547 3.7575 10.3547C3.56063 10.3547 3.36187 10.3434 3.17531 10.3022C3.57375 11.52 4.70438 12.4153 6.04875 12.4444C5.0025 13.2628 3.67406 13.7559 2.23594 13.7559C1.98375 13.7559 1.74187 13.7447 1.5 13.7137C2.86219 14.5922 4.47656 15.0938 6.2175 15.0938C11.8763 15.0938 14.97 10.4062 14.97 6.34312C14.97 6.20719 14.9653 6.07594 14.9587 5.94563C15.5691 5.5125 16.0819 4.97156 16.5 4.34906Z" fill="#0D72FF"/></symbol><symbol viewBox="0 0 24 24" fill="none" xmlns="http://www.w3.org/2000/svg" id="whatsapp-outlined"><path d="M12.04 2.00006C6.58 2.00006 2.13 6.45006 2.13 11.9101C2.13 13.6601 2.59 15.3601 3.45 16.8601L2.05 22.0001L7.3 20.6201C8.75 21.4101 10.38 21.8301 12.04 21.8301C17.5 21.8301 21.95 17.3801 21.95 11.9201C21.95 9.27006 20.92 6.78006 19.05 4.91006C18.1332 3.98399 17.0412 3.24973 15.8376 2.75011C14.6341 2.25049 13.3431 1.99552 12.04 2.00006ZM12.05 3.67006C14.25 3.67006 16.31 4.53006 17.87 6.09006C18.6356 6.85541 19.2426 7.76438 19.6562 8.76482C20.0697 9.76526 20.2817 10.8375 20.28 11.9201C20.28 16.4601 16.58 20.1501 12.04 20.1501C10.56 20.1501 9.11 19.7601 7.85 19.0001L7.55 18.8301L4.43 19.6501L5.26 16.6101L5.06 16.2901C4.23394 14.9787 3.79702 13.4599 3.8 11.9101C3.81 7.37006 7.5 3.67006 12.05 3.67006ZM8.53 7.33006C8.37 7.33006 8.1 7.39006 7.87 7.64006C7.65 7.89006 7 8.50006 7 9.71006C7 10.9301 7.89 12.1001 8 12.2701C8.14 12.4401 9.76 14.9401 12.25 16.0001C12.84 16.2701 13.3 16.4201 13.66 16.5301C14.25 16.7201 14.79 16.6901 15.22 16.6301C15.7 16.5601 16.68 16.0301 16.89 15.4501C17.1 14.8701 17.1 14.3801 17.04 14.2701C16.97 14.1701 16.81 14.1101 16.56 14.0001C16.31 13.8601 15.09 13.2601 14.87 13.1801C14.64 13.1001 14.5 13.0601 14.31 13.3001C14.15 13.5501 13.67 14.1101 13.53 14.2701C13.38 14.4401 13.24 14.4601 13 14.3401C12.74 14.2101 11.94 13.9501 11 13.1101C10.26 12.4501 9.77 11.6401 9.62 11.3901C9.5 11.1501 9.61 11.0001 9.73 10.8901C9.84 10.7801 10 10.6001 10.1 10.4501C10.23 10.3101 10.27 10.2001 10.35 10.0401C10.43 9.87006 10.39 9.73006 10.33 9.61006C10.27 9.50006 9.77 8.26006 9.56 7.77006C9.36 7.29006 9.16 7.35006 9 7.34006C8.86 7.34006 8.7 7.33006 8.53 7.33006Z" fill="#0D72FF"/></symbol><symbol viewBox="0 0 18 18" fill="none" xmlns="http://www.w3.org/2000/svg" id="instagram-outlined"><path fill="#0D72FF" d="M16.4853 5.91004C16.4502 5.11303 16.3213 4.5651 16.1367 4.0903C15.9462 3.58632 15.6532 3.13511 15.2693 2.76001C14.8942 2.37908 14.44 2.08308 13.9418 1.89559C13.4643 1.71096 12.9192 1.58207 12.1222 1.54693C11.3193 1.50881 11.0644 1.5 9.02783 1.5C6.9913 1.5 6.73639 1.50881 5.93641 1.54395C5.1394 1.57909 4.59146 1.70809 4.11678 1.89261C3.61269 2.08308 3.16147 2.3761 2.78638 2.76001C2.40544 3.13511 2.10956 3.5893 1.92195 4.08744C1.73732 4.5651 1.60844 5.11006 1.5733 5.90707C1.53518 6.71003 1.52637 6.96494 1.52637 9.00147C1.52637 11.038 1.53518 11.2929 1.57032 12.0929C1.60546 12.8899 1.73446 13.4378 1.91909 13.9126C2.10956 14.4166 2.40544 14.8678 2.78638 15.2429C3.16147 15.6239 3.61566 15.9199 4.11381 16.1073C4.59146 16.292 5.13642 16.4209 5.93354 16.456C6.73341 16.4913 6.98844 16.5 9.02497 16.5C11.0615 16.5 11.3164 16.4913 12.1164 16.456C12.9134 16.4209 13.4613 16.292 13.936 16.1073C14.9441 15.7176 15.7411 14.9206 16.1308 13.9126C16.3154 13.435 16.4444 12.8899 16.4795 12.0929C16.5146 11.2929 16.5235 11.038 16.5235 9.00147C16.5235 6.96494 16.5205 6.71003 16.4853 5.91004ZM15.1346 12.0343C15.1023 12.7669 14.9792 13.1624 14.8767 13.4262C14.6246 14.0796 14.106 14.5983 13.4525 14.8503C13.1888 14.9529 12.7903 15.0759 12.0606 15.1081C11.2695 15.1433 11.0322 15.152 9.0308 15.152C7.02942 15.152 6.78916 15.1433 6.00085 15.1081C5.26828 15.0759 4.8727 14.9529 4.60898 14.8503C4.28379 14.7301 3.98778 14.5397 3.74753 14.2906C3.49845 14.0474 3.30799 13.7543 3.1878 13.4291C3.08524 13.1654 2.96219 12.7669 2.93003 12.0373C2.89477 11.2461 2.88608 11.0087 2.88608 9.0073C2.88608 7.00591 2.89477 6.76565 2.93003 5.97746C2.96219 5.2449 3.08524 4.84931 3.1878 4.58559C3.30799 4.26028 3.49845 3.96439 3.7505 3.72402C3.99362 3.47495 4.28665 3.28448 4.61195 3.16441C4.87568 3.06185 5.27424 2.9388 6.00382 2.90652C6.79499 2.87138 7.03239 2.86257 9.03367 2.86257C11.038 2.86257 11.2753 2.87138 12.0636 2.90652C12.7962 2.9388 13.1918 3.06185 13.4555 3.16441C13.7807 3.28448 14.0767 3.47495 14.3169 3.72402C14.566 3.96726 14.7565 4.26028 14.8767 4.58559C14.9792 4.84931 15.1023 5.24776 15.1346 5.97746C15.1697 6.76863 15.1785 7.00591 15.1785 9.0073C15.1785 11.0087 15.1697 11.2431 15.1346 12.0343Z"/><path fill="#0D72FF" d="M9.02785 5.14844C6.90055 5.14844 5.17456 6.87431 5.17456 9.00173C5.17456 11.1291 6.90055 12.855 9.02785 12.855C11.1553 12.855 12.8811 11.1291 12.8811 9.00173C12.8811 6.87431 11.1553 5.14844 9.02785 5.14844ZM9.02785 11.5013C7.64777 11.5013 6.52832 10.3819 6.52832 9.00173C6.52832 7.62153 7.64777 6.50219 9.02785 6.50219C10.408 6.50219 11.5274 7.62153 11.5274 9.00173C11.5274 10.3819 10.408 11.5013 9.02785 11.5013Z"/><path fill="#0D72FF" d="M13.933 4.99625C13.933 5.49302 13.5302 5.89581 13.0334 5.89581C12.5366 5.89581 12.1338 5.49302 12.1338 4.99625C12.1338 4.49936 12.5366 4.09668 13.0334 4.09668C13.5302 4.09668 13.933 4.49936 13.933 4.99625Z"/></symbol><symbol fill="none" xmlns="http://www.w3.org/2000/svg" viewBox="0 0 24 24" id="linkedin"><path d="M12 24a12 12 0 1 0 0-24 12 12 0 0 0 0 24Z" fill="#4467AD"/><path d="m13 10.4.5-.7a3 3 0 0 1 2.2-.8l1.4.1c1 .3 1.6 1 2 2l.2 2.4v5c0 .1 0 .2-.2.2a154 154 0 0 0-2.7-.2v-4.8c0-.3 0-.7-.2-1.1-.2-.7-.7-1-1.4-1-1 0-1.6.5-1.7 1.5V18.4c0 .1 0 .2-.2.2h-2.6c-.2 0-.2 0-.2-.2V9.3c0-.2 0-.2.2-.2a140.9 140.9 0 0 0 2.6.2v1ZM8.2 13.8v4.5c0 .2 0 .3-.2.3H5.5c-.2 0-.2 0-.2-.2V9.3c0-.2 0-.2.2-.2H8l.1.2v4.5ZM8.5 6A1.7 1.7 0 1 1 5 6a1.7 1.7 0 0 1 3.4 0Z" fill="#FEFEFE"/></symbol><symbol xmlns="http://www.w3.org/2000/svg" fill="none" viewBox="0 0 24 24" id="location"><path fill="#4A4E54" d="M12 2a8 8 0 0 0-8 8.2c0 3.2 2.5 7 7.3 11.2.4.4 1 .4 1.4 0 4.9-4.3 7.3-8 7.3-11.2A8 8 0 0 0 12 2zm0 10c-1.1 0-2-.9-2-2s.9-2 2-2 2 .9 2 2-.9 2-2 2z"/></symbol><symbol fill="none" xmlns="http://www.w3.org/2000/svg" viewBox="0 0 151 33" id="logo-tagline-header"><g clip-path="url(#clip0_1773_86308)"><path d="m9.5 10 .1.7v.7h-.2c-.5 0-1-.1-1.3-.5-.2 2.4-1.6 3.8-4 3.8a3.4 3.4 0 0 1-3.5-3.6c0-1 .3-2 .8-3l1 .5c-.4.8-.6 1.6-.7 2.5 0 1.3 1 2.2 2.5 2.2 1.9 0 2.8-1 2.7-3-.1-3.9-.3-5.4-.5-6.6l1.3-.3.3 5.1c.1 1.2.3 1.5 1.4 1.5h.1Z" fill="#013B81"/><path d="m9.5 12.6 1 1-1 .9-1-1 1-1ZM9.4 10c2.1 0 2.6-.3 2.8-.9a5 5 0 0 0 0-1.8l1-.2.2 2.1a1 1 0 0 0 1 .8h.2v1.4h-.1a2 2 0 0 1-1.7-1c-.4.8-1.4 1-3.3 1h-.1V10Zm2.4 2.6 1 1-1 .9-1-1 1-1v.1Z" fill="#013B81"/><path d="M18.5 10v1.4h-.2a2 2 0 0 1-1.7-1 2 2 0 0 1-1.8 1h-.3V10h.3c1 0 1.3-.4 1.3-1.2v-.1l-.3-5 1.3-.3.2 5.3c0 .9.4 1.2 1 1.2l.2.1Z" fill="#013B81"/><path d="M28.3 10v1.4h-.1c-1.6 0-2.6-.5-3-1.6a12 12 0 0 1-5.8 1.6h-1V10h1c2.1 0 4.1-.5 5.9-1.5l.2-.1-1.4-.6c-.6-.4-1.3-.6-2-.7a1.9 1.9 0 0 0-1.6 1l-.8-.5A2.7 2.7 0 0 1 22 5.8c1 0 1.7.4 2.5.8.8.5 1.6.8 2.5 1V9l-1 .4a2.5 2.5 0 0 0 1.9.7h.3Z" fill="#013B81"/><path d="M28.2 10h.5c1.9 0 2.5-.3 2.5-1-.1-.9-.4-1.6-.7-2.4l1-.6c.5 1 .8 2 .9 3 0 1.6-1.2 2.5-3.5 2.5h-.7V10Zm1.2-6.6 1 1-1 1-1-1 1-1Zm2.3 0 1 1-1 1-1-1 1-1ZM40 11.3c-1.2.3-3 0-3.5-1-.7-1.5.5-4 2-4 1.6 0 2.7 2.4 2.7 4.4 0 2.3-1.8 4-4.8 4.5l-.4-1.3c2.5-.5 3.8-1.3 4-2.6Zm0-1.3c-.1-1.2-.7-2.4-1.5-2.5-.8 0-1.4 1.4-1 2 .4.5 1.5.6 2.6.5ZM48.6 11.4c-1.5 0-3-.1-3.5-1.2-.7-1.4.4-4 2-4 1.5 0 2.4 2 2.6 3.8h.5v1.4h-.5c-.4 2-2 3.3-4.7 3.8l-.4-1.3c2.4-.5 3.7-1.3 4-2.5Zm0-1.4c-.1-1.2-.7-2.4-1.5-2.5-.9 0-1.5 1.4-1 2 .4.5 1.4.5 2.5.5Z" fill="#013B81"/><path d="M60 10v1.4h-.1c-1.6 0-2.6-.5-3-1.6a12 12 0 0 1-5.9 1.6h-1V10h1.1c2 0 4.1-.5 5.9-1.6h.2l-1.4-.7c-.6-.3-1.3-.5-2-.6a1.9 1.9 0 0 0-1.6 1l-.8-.6a2.7 2.7 0 0 1 2.5-1.8c.8.1 1.7.4 2.4.9.8.4 1.6.8 2.5 1v1.2l-1 .5a2.5 2.5 0 0 0 2 .7h.2Zm-5.6 2.4 1 1-1 1-1-1 1-1Z" fill="#013B81"/><path d="M59.9 10h.1c2 0 2.5-.3 2.7-.9a5 5 0 0 0 0-1.8l1-.2.2 2.1a1 1 0 0 0 1.1.8l.2.7-.1.7H65a2 2 0 0 1-1.7-1c-.4.8-1.4 1-3.3 1h-.1V10ZM61 4.1l1 1-1 1-1-1 1-1Zm2.3 0 1 1-1 1-1-1 1-1Z" fill="#013B81"/><path d="M70.5 10.1a2.1 2.1 0 0 1-1.8 1.3 1.5 1.5 0 0 1-1.5-1.3 2.6 2.6 0 0 1-2.2 1.3V10a1.9 1.9 0 0 0 1.5-.7c.3-.5.6-1 .7-1.7l1 .2A7 7 0 0 0 68 9c0 .6.2.9.7.9a1.3 1.3 0 0 0 1.2-.8l.4-1.7h1.1L71.2 9c0 .7.3 1.1 1 1.1a1.5 1.5 0 0 0 1-.5l-.3-2 1.1-.3c0 .7.2 1.4.4 2a1 1 0 0 0 1.1.7l.2.8-.1.7a2 2 0 0 1-1.8-.8 2 2 0 0 1-1.6.8 1.7 1.7 0 0 1-1.7-1.3Z" fill="#013B81"/><path d="M75.5 10h1c2.1 0 4.1-.5 5.9-1.5l.2-.1-1.4-.6c-.6-.4-1.3-.6-2-.7a1.9 1.9 0 0 0-1.6 1l-.8-.5a2.7 2.7 0 0 1 2.4-1.8c.9 0 1.7.3 2.4.8.8.5 1.7.8 2.5 1V9l-1.4.7c-1.9 1.1-4 1.8-6.3 1.8h-1V10Zm4.3 2.5 1 1-1 1-1-1 1-1ZM89 11.2 88.3 8l1.2-.4c.3 1.1.6 2.4.6 3.6 0 1.7-1.5 3.2-3.5 4l-.6-1.3c1.7-.6 3-1.8 3-2.7ZM95.1 11.4c-1.6 0-3-.1-3.5-1.2-.7-1.4.4-4 2-4 1.5 0 2.4 1.9 2.6 3.8h.5v1.4h-.5c-.4 2-2 3.3-4.7 3.8l-.4-1.3c2.4-.5 3.7-1.3 4-2.5Zm0-1.4c-.2-1.2-.7-2.4-1.5-2.5-.9 0-1.5 1.4-1 2 .4.5 1.3.5 2.5.5Z" fill="#013B81"/><path d="M96.5 10h.6c1.8 0 2.5-.3 2.5-1-.2-.9-.4-1.6-.8-2.4L100 6c.5 1 .7 2 .8 3 0 1.6-1.1 2.5-3.4 2.5h-.8V10Zm1.3-6.6 1 1-1 1-1-1 1-1Zm2.3 0 .9 1-1 1-.9-1 .9-1ZM105.7 11.4c-1.6 0-3-.1-3.5-1.2-.8-1.4.4-4 2-4 1.5 0 2.4 2 2.6 3.8h.5v1.4h-.6c-.3 2-2 3.3-4.6 3.8l-.5-1.3c2.5-.5 3.8-1.3 4.1-2.5Zm0-1.4c-.2-1.2-.7-2.4-1.6-2.5-.8 0-1.4 1.4-1 2 .5.5 1.4.5 2.6.5Z" fill="#013B81"/><path d="M107.1 10h.3a2 2 0 0 0 1.7-1.2c.7-1.3 1.4-2.4 2.4-2.5 2.4-.1 3.1 4 1.2 5-.7.4-1.8 0-3.3-1a2.6 2.6 0 0 1-2 1h-.3V10Zm5.2.1c.8-.4.4-2.5-.7-2.5-.4 0-1 .6-1.5 1.7 1 .6 1.9 1 2.2.8ZM3 27.5l-.7-3.2 1.2-.5c.3 1.2.6 2.5.6 3.7 0 1.6-1.5 3.1-3.5 4L0 30.1c1.7-.7 3-1.8 3-2.7ZM9.1 27.7c-1.6 0-3-.2-3.5-1.2-.7-1.5.4-4 2-4 1.5 0 2.4 1.9 2.6 3.8h.5v1.4h-.5c-.4 1.9-2 3.2-4.7 3.8L5 30.1c2.5-.6 3.8-1.4 4.1-2.5Zm0-1.5C9 25 8.4 24 7.6 23.8c-.9 0-1.5 1.3-1 1.9.4.6 1.3.5 2.5.5Z" fill="#013B81"/><path d="M10.5 26.2h4l.1.7v.7h-4v-1.4Z" fill="#013B81"/><path d="M20 26.4a2.1 2.1 0 0 1-1.9 1.2 1.5 1.5 0 0 1-1.5-1.2 2.6 2.6 0 0 1-2.2 1.2l-.1-.7v-.7h.1a1.9 1.9 0 0 0 1.6-.7c.3-.5.6-1 .7-1.6h1a7 7 0 0 0-.2 1.4c0 .6.2 1 .7 1a1.4 1.4 0 0 0 1.2-1l.4-1.6 1 .1v1.3c0 .7.2 1.1.8 1.1a1.5 1.5 0 0 0 1.2-.5l-.4-2 1-.3.5 2a1 1 0 0 0 1 .8h.1v1.4a2 2 0 0 1-1.8-.8 2 2 0 0 1-1.5.8 1.7 1.7 0 0 1-1.8-1.2Zm-.7-5.9 1 1-1 .9-1-1 1-.9Zm1.2-1.3.8.8-.8.8-.9-.8.9-.8Zm1.2 1.3 1 1-1 .9-1-1 1-.9Z" fill="#013B81"/><path d="m29.8 20.3-3 1c1.1 1 3 2.9 2.5 4.5-.5 1.2-2 1.8-4.1 1.8h-.4v-1.4h.4c1.7 0 2.7-.3 3-.8.2-.9-.8-2-2.7-3.6l.1-1.3 3.8-1.4.4 1.2ZM32.7 27.4c.1-1 .4-2 .9-3l1 .5c-.4.8-.7 1.6-.7 2.5 0 1.7 1 2.5 2.7 2.5 1.6 0 3-.7 3.1-1.2a7.7 7.7 0 0 0-2.5-1.5l.3-1.4c1.1.3 2.3.4 3.4.4h.3v1.5H40a1.6 1.6 0 0 1 .8 1.1c0 1.3-2 2.6-4.3 2.6s-4-1.5-3.9-4Z" fill="#013B81"/><path d="M41 26.2h.2A2 2 0 0 0 43 25c.7-1.3 1.5-2.4 2.5-2.5 1.2 0 1.7.9 2 2 .4 1.3.6 1.7 1.1 1.7h.2v1.4h-.2a1.3 1.3 0 0 1-1.2-1 1.4 1.4 0 0 1-.8 1c-.6.3-1.8 0-3.2-1a2.6 2.6 0 0 1-2.1 1H41v-1.4Zm5.4.2c.5-.6 0-2.6-1-2.6-.5 0-1 .7-1.5 1.7.7.6 1.6 1 2.5 1Z" fill="#013B81"/><path d="M48.5 26.2h2.7l.1.7v.7h-2.8v-1.4Z" fill="#013B81"/><path d="M59.3 25.2c-.1-.8-.3-1.6-.7-2.4l1-.5c.5.9.8 2 .9 3a2.2 2.2 0 0 1-2 2.3h-.1a1.7 1.7 0 0 1-1.7-1.2 2.1 2.1 0 0 1-1.8 1.2 1.5 1.5 0 0 1-1.5-1.2 2.6 2.6 0 0 1-2.2 1.2L51 27v-.7h.1a1.9 1.9 0 0 0 1.5-.7c.4-.5.6-1 .7-1.6h1.1a7 7 0 0 0-.3 1.4c0 .6.2 1 .7 1a1.4 1.4 0 0 0 1.2-1c.2-.4.4-1 .4-1.6l1.1.1-.1 1.3c0 .7.2 1.1.9 1.1a.9.9 0 0 0 1-1ZM63 27.5l-.8-3.2 1.2-.5c.3 1.2.6 2.5.6 3.7 0 1.6-1.5 3.1-3.6 3.9l-.5-1.2c1.7-.7 3-1.8 3-2.7ZM68.8 26.8c0 1.6 1 2.5 2.7 2.5a3.4 3.4 0 0 0 3.2-1.7s-.4-.3-1.5-.6c-1.4-.4-2-.8-1.9-1.8a3.9 3.9 0 0 1 3.7-3.7c.4 0 .8 0 1.2.3l-.4 1.2-.8-.1a2.6 2.6 0 0 0-2.5 1.9c0 .4 0 .6 1.4 1 1.6.4 2 .8 2 1.4 0 1.7-1.7 3.5-4.4 3.5-2.3 0-4-1.5-3.9-4 .1-1 .4-2 .9-3l1 .5c-.4.8-.7 1.7-.7 2.6ZM79 24.3c0 1.4 0 2 1.3 2l.1.6v.7h-.1c-2 0-2.5-1-2.5-3.1 0-1.5 0-3-.3-4.6l1.3-.3c.2 1.6.2 3.2.2 4.7Z" fill="#013B81"/><path d="M80.3 26.2h3.4v1.4h-3.4v-1.4Z" fill="#013B81"/><path d="M83.6 26.2H85.2a2 2 0 0 1-.7-1.7c.1-.6.4-1.3.9-1.8l-.4-.1.5-1.3c6.2 2 6.5 3.4 6 5-.4 1.5-2.7 1.7-4.5 1-1 .3-2.1.4-3.2.4h-.1v-1.5ZM87 26a1.5 1.5 0 0 0 1.1-1.2 1.4 1.4 0 0 0-.7-1.4H87a1.4 1.4 0 0 0-1.3 1.3c0 .4.5 1 1.2 1.3Zm3.6 0c.2-.6-.3-1.2-1.5-1.9v.9c0 .5-.3 1-.6 1.4 1 .2 2 0 2-.5h.1ZM94 22.6l-.5-.3.8-1.1c2.3 1.4 3.4 2.7 3.2 4.3a2.4 2.4 0 0 1-2.6 2.2 2.2 2.2 0 0 1-2.2-2.9c.3-.8.7-1.6 1.3-2.2Zm1 3.7c.8 0 1.4-.4 1.5-1 0-.5-.5-1.3-1.6-2-.5.4-1 1-1.1 1.8-.1.7.3 1.1 1.2 1.2ZM101.1 26.3a2 2 0 0 0 1.8-.6c.2-.5-.4-1.9-2.7-3.5l.7-1.3c2.4 1.8 3.6 4 3 5.4a2.7 2.7 0 0 1-2.6 1.4c-1 0-2.1-.3-3-1l.6-1c.7.4 1.4.6 2.2.6ZM105.3 20l1.3-.4c.3 2.7.3 5.4.1 8.1l-1.2-.1c.2-2.6.1-5.1-.2-7.7ZM110.9 26.3a2 2 0 0 0 1.7-.6c.3-.5-.3-1.9-2.6-3.5l.7-1.3c2.3 1.8 3.6 4 3 5.4a2.7 2.7 0 0 1-2.7 1.4c-1 0-2.2-.3-3-1l.6-1c.7.4 1.5.6 2.3.6Z" fill="#013B81"/><path d="m136.5 28.7-5-2.9a.7.7 0 0 0-.7 0l-5.1 3a.7.7 0 0 0-.3.6.7.7 0 0 0 .3.5l5 3a.6.6 0 0 0 .6 0l5.2-3a.7.7 0 0 0 .3-.6.7.7 0 0 0-.3-.6Z" fill="#961B1E"/><path d="m150 8.3-.3-.2-5.1-3a.7.7 0 0 0-1 .5v12.2a.7.7 0 0 1-.3.6l-5 2.9a.7.7 0 0 0-.2.5.7.7 0 0 0 .3.6l5 3a.6.6 0 0 0 .7 0l5.6-3.4a.7.7 0 0 0 .3-.6V8.3Z" fill="#013B81"/><path d="m129.3 24.5.1-.3V11.5a.7.7 0 0 1 .3-.5l5.1-3a.7.7 0 0 1 1 .5v11.2a.7.7 0 0 0 1 .6l5.1-3a.6.6 0 0 0 .3-.6V4a.7.7 0 0 0-.3-.6L136.1.1a.7.7 0 0 0-.7 0l-12 7a.7.7 0 0 0-.4.6v19.6a.7.7 0 0 0 1 .5l5.1-3c.1 0 .2-.1.2-.3Z" fill="#013B81"/></g><defs><clipPath id="clip0_1773_86308"><rect width="150" height="33" fill="#fff"/></clipPath></defs></symbol></svg>