<svg width="28" height="28" viewBox="0 0 28 28" fill="none" xmlns="http://www.w3.org/2000/svg">
<mask id="mask0_66_8899" style="mask-type:alpha" maskUnits="userSpaceOnUse" x="0" y="0" width="28" height="28">
<rect width="28" height="28" fill="#D9D9D9"/>
</mask>
<g mask="url(#mask0_66_8899)">
<path d="M16.3335 25.6662V23.5954L22.1668 17.7912L24.2085 19.862L18.4043 25.6662H16.3335ZM24.9668 19.0745L22.896 17.0329L23.8877 16.0412C24.0043 15.9245 24.1451 15.8662 24.31 15.8662C24.4757 15.8662 24.6168 15.9245 24.7335 16.0412L25.9585 17.2662C26.0752 17.3829 26.1335 17.519 26.1335 17.6745C26.1335 17.8301 26.0752 17.9662 25.9585 18.0829L24.9668 19.0745Z" fill="#00AB66"/>
<path fill-rule="evenodd" clip-rule="evenodd" d="M13.9045 11.5478V18.0829H11.7625V11.5478H13.9045ZM13.61 9.43163C13.3958 9.64591 13.1369 9.75305 12.8335 9.75305C12.5301 9.75305 12.2712 9.64591 12.057 9.43163C11.8427 9.21736 11.7355 8.95851 11.7355 8.6551C11.7355 8.35168 11.8427 8.09283 12.057 7.87856C12.2712 7.66428 12.5301 7.55714 12.8335 7.55714C13.1369 7.55714 13.3958 7.66428 13.61 7.87856C13.8243 8.09283 13.9315 8.35168 13.9315 8.6551C13.9315 8.95851 13.8243 9.21736 13.61 9.43163ZM8.74895 22.5158C10.0252 23.0609 11.3867 23.3335 12.8335 23.3335C13.0938 23.3335 13.3512 23.3247 13.606 23.307L16.7492 20.1659C15.5806 20.7957 14.2754 21.1106 12.8335 21.1106C10.5296 21.1106 8.57453 20.3066 6.96831 18.6987C5.36037 17.0925 4.55641 15.1374 4.55641 12.8335C4.55641 10.5296 5.36037 8.57453 6.96831 6.96831C8.57453 5.36037 10.5296 4.55641 12.8335 4.55641C15.1374 4.55641 17.0925 5.36037 18.6987 6.96831C20.3066 8.57453 21.1106 10.5296 21.1106 12.8335C21.1106 14.2774 20.7948 15.5843 20.1632 16.7542L23.3066 13.6129C23.3245 13.3559 23.3335 13.0961 23.3335 12.8335C23.3335 11.3867 23.0609 10.0252 22.5158 8.74895C21.9716 7.47186 21.2216 6.3559 20.2659 5.40109C19.3111 4.44541 18.1998 3.69544 16.9322 3.15118C15.6637 2.60606 14.2974 2.3335 12.8335 2.3335C11.3867 2.3335 10.0252 2.60606 8.74895 3.15118C7.47186 3.69544 6.3559 4.44541 5.40109 5.40109C4.44541 6.3559 3.69544 7.46757 3.15118 8.73609C2.60606 10.0038 2.3335 11.3696 2.3335 12.8335C2.3335 14.2803 2.60606 15.6418 3.15118 16.918C3.69544 18.1951 4.44541 19.3111 5.40109 20.2659C6.3559 21.2216 7.47186 21.9716 8.74895 22.5158Z" fill="black"/>
</g>
</svg>
