<svg width="18" height="18" viewBox="0 0 18 18" fill="none" xmlns="http://www.w3.org/2000/svg">
<path d="M16.5 4.34906C15.9422 4.59375 15.3478 4.75594 14.7281 4.83469C15.3656 4.45406 15.8522 3.85594 16.0809 3.135C15.4866 3.48937 14.8303 3.73969 14.1309 3.87938C13.5666 3.27844 12.7622 2.90625 11.8847 2.90625C10.1822 2.90625 8.81156 4.28813 8.81156 5.98219C8.81156 6.22594 8.83219 6.46031 8.88281 6.68344C6.32625 6.55875 4.06406 5.33344 2.54437 3.46688C2.27906 3.92719 2.12344 4.45406 2.12344 5.02125C2.12344 6.08625 2.67188 7.03031 3.48937 7.57687C2.99531 7.5675 2.51063 7.42406 2.1 7.19812C2.1 7.2075 2.1 7.21969 2.1 7.23187C2.1 8.72625 3.16594 9.9675 4.56375 10.2534C4.31344 10.3219 4.04063 10.3547 3.7575 10.3547C3.56063 10.3547 3.36187 10.3434 3.17531 10.3022C3.57375 11.52 4.70438 12.4153 6.04875 12.4444C5.0025 13.2628 3.67406 13.7559 2.23594 13.7559C1.98375 13.7559 1.74187 13.7447 1.5 13.7137C2.86219 14.5922 4.47656 15.0938 6.2175 15.0938C11.8763 15.0938 14.97 10.4062 14.97 6.34312C14.97 6.20719 14.9653 6.07594 14.9587 5.94563C15.5691 5.5125 16.0819 4.97156 16.5 4.34906Z" fill="#0D72FF"/>
</svg>
