<svg width="24" height="26" viewBox="0 0 24 26" fill="none" xmlns="http://www.w3.org/2000/svg">
<mask id="mask0_49_3590" style="mask-type:alpha" maskUnits="userSpaceOnUse" x="0" y="0" width="24" height="24">
<rect width="24" height="24" fill="#D9D9D9"/>
</mask>
<g mask="url(#mask0_49_3590)">
<path d="M8.6 22.5L6.7 19.3L3.1 18.5L3.45 14.8L1 12L3.45 9.2L3.1 5.5L6.7 4.7L8.6 1.5L12 2.95L15.4 1.5L17.3 4.7L20.9 5.5L20.55 9.2L23 12L20.55 14.8L20.9 18.5L17.3 19.3L15.4 22.5L12 21.05L8.6 22.5ZM10.95 15.55L16.6 9.9L15.2 8.45L10.95 12.7L8.8 10.6L7.4 12L10.95 15.55Z" fill="url(#paint0_linear_49_3590)"/>
</g>
<defs>
<linearGradient id="paint0_linear_49_3590" x1="19.7782" y1="19.4246" x2="4.94499" y2="3.88509" gradientUnits="userSpaceOnUse">
<stop stop-color="#0065F2"/>
<stop offset="1" stop-color="#7298FF"/>
</linearGradient>
</defs>
</svg>
