<svg width="411" height="224" viewBox="0 0 411 224" fill="none" xmlns="http://www.w3.org/2000/svg">
    <g clip-path="url(#a)">
        <path d="M179.376 27.76c-48.947-5.006-136.079 1.502-164.193 44.548-28.113 43.046-10.55 150.939 0 150.919h374.433l4.795.163s29.299-42.34 2.784-67.067c-26.515-24.727-8.323-36.036-5.114-45.592 3.702-10.975 4.402-33.075-25.398-60.373-26.558-24.34-46.846-52.35-96.345-50.246-49.5 2.104-42.012 32.653-90.962 27.648z" fill="url(#b)"/>
        <path d="M85.761 55.292h-72.86a.667.667 0 0 0-.669.67v45.787a.671.671 0 0 0 .668.665h72.861a.67.67 0 0 0 .668-.665V55.962a.67.67 0 0 0-.668-.67z" fill="url(#c)"/>
        <path d="M85.4 100.697V59.652a.527.527 0 0 0-.526-.526H13.78a.529.529 0 0 0-.529.526v41.045a.53.53 0 0 0 .529.522h71.095a.523.523 0 0 0 .525-.522z" fill="#F0F8FF"/>
        <path d="M83.983 58.15a.937.937 0 0 0 .92-1.124.941.941 0 0 0-1.279-.686.94.94 0 0 0 .36 1.81zM80.878 58.15a.938.938 0 0 0 .92-1.124.941.941 0 0 0-1.28-.686.94.94 0 0 0-.304 1.534.937.937 0 0 0 .664.276zM78.735 57.209a.943.943 0 0 1-.712.92.937.937 0 0 1-.414.009.918.918 0 0 1-.74-.742.914.914 0 0 1 .052-.546.956.956 0 0 1 .875-.581.922.922 0 0 1 .66.279c.09.085.16.188.207.302.046.114.07.236.072.359z" fill="#BDD0FB"/>
        <path d="M23.431 66.66a3.81 3.81 0 0 1-.976 2.566 3.794 3.794 0 0 1-6.547-1.812 3.815 3.815 0 0 1 .676-3.003 3.8 3.8 0 0 1 2.672-1.52 3.79 3.79 0 0 1 2.92.96 3.805 3.805 0 0 1 1.255 2.81z" fill="url(#d)"/>
        <path d="M81.82 62.883H25.18v1.797h56.64v-1.797zM63.728 65.753H25.18v1.801h38.548v-1.801zM45.225 68.816H25.18v1.798h20.045v-1.798z" fill="#BDD0FB"/>
        <path d="M23.43 78.783a3.812 3.812 0 0 1-2.345 3.515 3.788 3.788 0 0 1-4.501-1.261 3.82 3.82 0 0 1 .95-5.433 3.787 3.787 0 0 1 5.368 1.208c.353.593.538 1.27.537 1.96l-.008.011z" fill="#739AF0"/>
        <path d="M81.82 75.006H25.18v1.797h56.64v-1.797zM63.728 77.883H25.18V79.7h38.548v-1.817zM45.225 80.94H25.18v1.797h20.045V80.94z" fill="#BDD0FB"/>
        <path d="M23.431 90.906a3.81 3.81 0 0 1-1.386 2.944 3.79 3.79 0 0 1-3.151.79 3.764 3.764 0 0 1-1.948-1.04 3.814 3.814 0 0 1 .073-5.314 3.798 3.798 0 0 1 5.303-.07 3.799 3.799 0 0 1 1.11 2.69z" fill="url(#e)"/>
        <path d="M81.82 87.128H25.18v1.797h56.64v-1.797zM63.728 90.009H25.18v1.797h38.548v-1.797zM45.225 93.061H25.18v1.782h20.045V93.06z" fill="#BDD0FB"/>
        <path d="M89.944 51.251H8.152v55.662h81.792V51.251z" stroke="url(#f)" stroke-miterlimit="10"/>
        <path d="M9.755 49.645h-3.18v3.188h3.2l-.02-3.188z" fill="url(#g)"/>
        <path d="M9.755 105.312h-3.18v3.207h3.2l-.02-3.207z" fill="url(#h)"/>
        <path d="M91.549 49.645h-3.205v3.188h3.205v-3.188z" fill="url(#i)"/>
        <path d="M202.089 80.099h-27.088a.925.925 0 0 1-.68-.283.95.95 0 0 1-.278-.678V59.751a.95.95 0 0 1 .958-.956h11.011a.953.953 0 0 1 .676.279l1.79 1.793a.95.95 0 0 0 .676.28h12.935a.958.958 0 0 1 .954.96v17.04a.94.94 0 0 1-.278.677.915.915 0 0 1-.31.211.953.953 0 0 1-.366.072v-.008z" fill="url(#j)"/>
        <path d="M199.621 47.422v24.412h-22.98V43.775h19.361l3.619 3.647z" fill="#BDD0FB"/>
        <path d="M196.002 47.422v-3.647l3.619 3.647h-3.619z" fill="#BDD0FB"/>
        <path d="M201.06 48.697v24.416h-22.996V45.055h19.362l3.634 3.642z" fill="#F0F8FF"/>
        <path d="M203.107 80.098h-27.084a.959.959 0 0 1-.959-.96v-16.63a.952.952 0 0 1 .959-.96h11.011c.254 0 .498.1.68.279l1.785 1.797a.969.969 0 0 0 .68.279h12.936a.941.941 0 0 1 .675.283.956.956 0 0 1 .279.677v14.283a.96.96 0 0 1-.962.96v-.008z" fill="url(#k)"/>
        <path d="M197.426 48.697v-3.642l3.634 3.642h-3.634zM196.458 46.656h-17.417v.949h17.417v-.949zM200.018 50.23h-20.916v.598h20.916v-.598zM200.018 51.925h-20.916v.598h20.916v-.598zM196.296 53.618h-17.191v.598h17.191v-.598zM196.296 55.312h-17.191v.597h17.191v-.597zM190.729 56.985h-11.624v.598h11.624v-.598zM190.729 58.7h-11.624v.597h11.624v-.598z" fill="#BDD0FB"/>
        <path d="M71.307 151.171H15.418a.668.668 0 0 0-.668.657v38.495a.67.67 0 0 0 .668.666h55.89a.653.653 0 0 0 .469-.195.665.665 0 0 0 .194-.471v-38.495a.671.671 0 0 0-.664-.657z" fill="url(#l)"/>
        <path d="M71.109 189.566v-34.733a.425.425 0 0 0-.426-.423h-54.64a.426.426 0 0 0-.426.423v34.733a.426.426 0 0 0 .426.426h54.64a.425.425 0 0 0 .426-.426z" fill="#fff"/>
        <path d="M51.353 174.236a8.277 8.277 0 0 0-.221-4.791 8.258 8.258 0 0 0-2.84-3.86 8.234 8.234 0 0 0-9.147-.477 8.256 8.256 0 0 0-3.224 3.545 8.277 8.277 0 0 0 1.318 9.083 8.242 8.242 0 0 0 7.31 2.646 8.239 8.239 0 0 0 6.804-6.146z" fill="url(#m)"/>
        <path d="m48.183 172.204-3.813 2.204-3.81 2.207v-8.846l3.818 2.207 3.805 2.228z" fill="#F0F8FF"/>
        <path d="M71.109 186.263H15.62v1.096H71.11v-1.096z" fill="#BDD0FB"/>
        <path d="M28.123 186.263H15.621v1.096h12.502v-1.096z" fill="url(#n)"/>
        <path d="M28.118 187.649a.84.84 0 1 0 0-1.68.84.84 0 0 0 0 1.68z" fill="url(#o)"/>
        <path d="M75.035 148.532H11.693v45.828h63.342v-45.828z" stroke="url(#p)" stroke-miterlimit="10"/>
        <path d="M12.932 147.285h-2.48v2.487h2.48v-2.487z" fill="url(#q)"/>
        <path d="M12.932 193.116h-2.48v2.491h2.48v-2.491z" fill="url(#r)"/>
        <path d="M76.278 193.116h-2.481v2.491h2.481v-2.491z" fill="url(#s)"/>
        <path d="M194.955 81.792H57.659a1.382 1.382 0 0 0-1.383 1.387v79.201a1.39 1.39 0 0 0 .85 1.296c.169.071.35.107.533.107h137.296a1.387 1.387 0 0 0 .978-.406 1.382 1.382 0 0 0 .406-.981V83.179a1.387 1.387 0 0 0-1.384-1.387z" fill="url(#t)"/>
        <path d="M194.407 160.671V89.857a.835.835 0 0 0-.835-.837H59.036a.834.834 0 0 0-.835.837v70.814a.843.843 0 0 0 .245.591.83.83 0 0 0 .59.245h134.536a.837.837 0 0 0 .772-.516.841.841 0 0 0 .063-.32z" fill="#F0F8FF"/>
        <path d="M91.549 105.312h-3.205v3.207h3.205v-3.207z" fill="url(#u)"/>
        <path d="M70.706 152.792a.822.822 0 0 1-.49.742.801.801 0 0 1-1.089-.57.801.801 0 0 1 1.301-.7.803.803 0 0 1 .29.54l-.012-.012zM68.078 152.792a.824.824 0 0 1-.489.741.792.792 0 0 1-.461.044.797.797 0 0 1-.398-.219.797.797 0 0 1-.218-.399.8.8 0 0 1 .342-.821.763.763 0 0 1 .44-.131.796.796 0 0 1 .796.793l-.012-.008zM65.458 152.792a.8.8 0 0 1-.49.733.822.822 0 0 1-.456.048.798.798 0 0 1-.613-.618.796.796 0 0 1 .796-.948c.194.007.38.085.52.219.15.149.234.351.235.562l.008.004z" fill="#fff"/>
        <path d="M76.278 147.285h-2.481v2.487h2.481v-2.487z" fill="url(#v)"/>
        <path d="M193.505 85.41a1.782 1.782 0 0 1-1.094 1.643 1.77 1.77 0 0 1-1.026.103 1.799 1.799 0 0 1-1.397-1.394 1.783 1.783 0 0 1 .093-1.029 1.774 1.774 0 0 1 3.412.678h.012zM187.642 85.41a1.77 1.77 0 0 1-1.093 1.642 1.769 1.769 0 0 1-1.933-.383 1.807 1.807 0 0 1-.505-.912c-.067-.344-.031-.7.104-1.024a1.764 1.764 0 0 1 1.638-1.1 1.776 1.776 0 0 1 1.774 1.777h.015zM181.777 85.41a1.783 1.783 0 0 1-2.123 1.746 1.806 1.806 0 0 1-.907-.487 1.8 1.8 0 0 1-.485-.912 1.776 1.776 0 0 1 .321-1.399 1.78 1.78 0 0 1 1.247-.705 1.774 1.774 0 0 1 1.947 1.757z" fill="#BDD0FB"/>
        <path d="M113.479 93.07H61.717v37.239h51.762v-37.24z" stroke="url(#w)" stroke-miterlimit="10"/>
        <path d="M119.533 99.071H67.768v37.236h51.765V99.071z" fill="#739AF0"/>
        <path d="M116.18 133.322H71.012l14.231-26.923L95.94 124.89l7.249-7.671 12.991 16.103zM98.068 112.328a4.414 4.414 0 0 0 4.086-2.735 4.442 4.442 0 0 0-.959-4.829 4.416 4.416 0 0 0-6.803.671 4.44 4.44 0 0 0 .55 5.596 4.416 4.416 0 0 0 3.126 1.297z" stroke="#fff" stroke-width="2" stroke-linecap="round" stroke-linejoin="round"/>
        <path d="M189.957 93.647h-64.475v3.985h64.475v-3.985zM144.009 100.96h-18.527v1.992h18.527v-1.992zM154.053 100.96h-7.52v1.992h7.52v-1.992zM176.681 100.96h-19.736v1.992h19.736v-1.992zM189.957 100.96h-11.719v1.992h11.719v-1.992zM149.914 105.913h-24.432v1.993h24.432v-1.993zM162.117 105.913h-9.508v1.993h9.508v-1.993zM173.773 105.913h-9.503v1.993h9.503v-1.993zM187.324 105.913h-12.068v1.993h12.068v-1.993zM132.278 110.862h-6.796v1.993h6.796v-1.993zM169.575 110.862h-12.212v1.993h12.212v-1.993zM155.319 110.862h-21.473v1.993h21.473v-1.993zM140.883 115.815h-15.401v1.993h15.401v-1.993zM148.72 115.815h-5.169v1.993h5.169v-1.993zM161.275 115.815h-10.168v1.993h10.172l-.004-1.993zM131.376 120.765h-5.894v1.992h5.894v-1.992zM146.537 120.765h-12.928v1.992h12.936l-.008-1.992zM119.531 140.271H61.717v17.236h57.814v-17.236z" fill="#BDD0FB"/>
        <path d="M74.227 141.432H63.256v10.229h10.97v-10.229zM74.227 153.179H63.256v3.032h10.97v-3.032zM88.204 145.99H77.232v10.222h10.972V145.99zM88.204 141.432H77.232v3.04h10.972v-3.04zM103.27 141.432H92.299v10.229h10.971v-10.229zM103.27 153.179H92.299v3.032h10.971v-3.032zM117.254 145.99h-10.975v10.222h10.975V145.99zM117.254 141.432h-10.975v3.04h10.975v-3.04z" fill="#fff"/>
        <path d="M127.447 126.324h63.822a.62.62 0 0 1 .441.184.636.636 0 0 1 .183.442v2.937h-65.079v-2.937a.617.617 0 0 1 .398-.578.653.653 0 0 1 .235-.048z" fill="url(#x)"/>
        <path d="M191.241 129.181v26.998a1.128 1.128 0 0 1-1.121 1.124H128.6c-.299 0-.585-.119-.795-.331a1.149 1.149 0 0 1-.33-.797v-26.994h63.766zm.656-.658h-65.079v27.688a1.737 1.737 0 0 0 .533 1.259c.164.17.36.306.577.399.216.088.447.134.68.135h61.512c.233 0 .464-.046.68-.135.217-.093.413-.229.576-.399.171-.163.307-.359.398-.577.09-.216.136-.448.135-.682v-27.688h-.012z" fill="url(#y)"/>
        <path d="M137.273 132.066h-8.187v23.671h8.187v-23.671zM189.054 132.066h-39.566v23.671h39.566v-23.671z" fill="#BDD0FB"/>
        <path d="M187.113 133.317H151.6v2.415h35.513v-2.415zM187.113 137.191H151.6v1.196h35.513v-1.196z" fill="#fff"/>
        <path d="M147.182 137.191h-8.192v2.822h8.192v-2.822z" fill="#BDD0FB"/>
        <path d="M159.238 139.475H151.6v14.477h7.638v-14.477zM177.996 139.475h-7.639v14.477h7.639v-14.477zM169.201 154.29h-8.291v-15.143h8.291v15.143zm-7.639-.653h6.987v-13.824h-6.987v13.824zM187.443 154.29h-8.295v-15.143h8.295v15.143zm-7.638-.653h6.982v-13.824h-6.982v13.824z" fill="#fff"/>
        <path d="M147.182 142.308h-8.192v2.825h8.192v-2.825zM147.182 147.444h-8.192v2.826h8.192v-2.826zM147.182 152.549h-8.192v2.825h8.192v-2.825z" fill="#BDD0FB"/>
        <path d="M144.456 200.955h-32.389a1.135 1.135 0 0 1-.441-.092 1.092 1.092 0 0 1-.378-.251 1.164 1.164 0 0 1-.338-.821v-36.04h34.707v36.04a1.161 1.161 0 0 1-1.161 1.164z" fill="#fff"/>
        <path d="M145.012 164.357v35.434a.558.558 0 0 1-.556.558h-32.389a.562.562 0 0 1-.552-.558v-35.434h33.497zm.605-.606h-34.711v36.04a1.164 1.164 0 0 0 .338.821c.219.216.513.338.819.343h32.389c.307-.001.602-.124.819-.343a1.14 1.14 0 0 0 .338-.821v-36.04h.008z" fill="url(#z)"/>
        <path d="M112.063 159.4h32.389c.306.003.599.124.819.338a1.161 1.161 0 0 1 .338.825v3.188h-34.703v-3.208a1.163 1.163 0 0 1 .339-.818 1.14 1.14 0 0 1 .376-.25c.14-.058.291-.088.442-.087v.012z" fill="url(#A)"/>
        <path d="M138.052 161.487a.69.69 0 0 1-1.368.148.725.725 0 0 1 .039-.399.696.696 0 0 1 1.17-.169.701.701 0 0 1 .159.436v-.016zM141.059 161.488a.664.664 0 0 1-.119.398.688.688 0 0 1-.306.256.704.704 0 0 1-.398.039.693.693 0 0 1-.534-.848.694.694 0 0 1 .374-.457.7.7 0 0 1 .784.138.69.69 0 0 1 .199.474zM144.064 161.487a.689.689 0 0 1-1.364.148.689.689 0 0 1 .036-.399.731.731 0 0 1 .258-.311.688.688 0 0 1 .398-.115.67.67 0 0 1 .489.202.68.68 0 0 1 .199.491l-.016-.016z" fill="#BDD0FB"/>
        <path d="M119.936 171.629a2.677 2.677 0 0 1-1.643 2.467 2.652 2.652 0 0 1-3.073-.771 2.669 2.669 0 0 1 1.157-4.202 2.655 2.655 0 0 1 3.033.919c.341.459.525 1.015.526 1.587z" fill="url(#B)"/>
        <path d="M140.936 169.669h-18.69v1.231h18.69v-1.231zM132.676 172.741h-10.418v1.236h10.418v-1.236z" fill="#BDD0FB"/>
        <path d="M119.936 180.958a2.677 2.677 0 0 1-1.644 2.464 2.655 2.655 0 0 1-3.625-2.978 2.665 2.665 0 0 1 1.589-1.941 2.662 2.662 0 0 1 2.494.244 2.676 2.676 0 0 1 1.186 2.211z" fill="url(#C)"/>
        <path d="M140.936 178.994h-18.69v1.235h18.69v-1.235zM132.676 182.07h-10.418v1.24h10.418v-1.24z" fill="#BDD0FB"/>
        <path d="M119.935 190.287a2.67 2.67 0 0 1-1.643 2.464 2.665 2.665 0 0 1-2.902-.575 2.675 2.675 0 0 1-.575-2.907 2.656 2.656 0 0 1 2.46-1.644 2.658 2.658 0 0 1 2.66 2.662z" fill="#739AF0"/>
        <path d="M140.936 188.326h-18.69v1.232h18.69v-1.232zM132.676 191.398h-10.418v1.232h10.418v-1.232z" fill="#BDD0FB"/>
        <path d="M246.833 58.771s.064.459.179 1.168c.088.526.195 1.195.326 1.893.35 1.92.839 4.22 1.32 5.204.907 1.845-9.646-4.128-9.646-4.128a99.44 99.44 0 0 0-3.245-13.633c-2.255-7.07 11.066 9.496 11.066 9.496z" fill="url(#D)"/>
        <path d="m297.799 77.891-43.324 13.665 13.641 43.436 43.324-13.665-13.641-43.436z" fill="#739AF0"/>
        <path d="M295.354 82.597 259.172 94.01l11.393 36.278 36.182-11.411-11.393-36.279z" fill="#BDD0FB"/>
        <path d="m277.221 56.435-25.367 8 7.987 25.434 25.368-8-7.988-25.434z" fill="#739AF0"/>
        <path d="m275.786 59.189-21.184 6.681 6.67 21.241 21.185-6.681-6.671-21.241z" fill="#BDD0FB"/>
        <path d="M305.566 104.475a4.17 4.17 0 0 1-1.261.323s-.747-.112-1.288-.155a2.972 2.972 0 0 0-.422 0 6.82 6.82 0 0 1-2.298-.028c-.966-.236-4.752-2.423-4.752-2.423l.831-2.666.453-2.563s6.212-2.12 7.158-2.016c.089.01.176.025.262.048.796.171 1.245.653 1.639.797.143.052 1.523.685 1.59 1.16a1.82 1.82 0 0 1-.397 1.574s.167 1.315-.299 2.151a2.725 2.725 0 0 1-.644 2.105s.052 1.247-.572 1.693z" fill="url(#E)"/>
        <path d="M205.112 197.385s3.106 2.295 4.406 3.228c1.3.932 2.585.398 2.131 1.414-.453 1.016-1.236 5.109-.672 6.711.565 1.602 4.8 11.68 2.828 13.15-1.973 1.471-5.329-2.391-9.353-8.256-4.024-5.866-5.674-5.057-7.114-9.732-.449-1.462 7.774-6.515 7.774-6.515z" fill="url(#F)"/>
        <path d="M287.52 213.041s3.654-1.594 5.169-2.26c1.515-.665 1.694-2.096 2.354-1.167.66.928 3.885 3.742 5.599 4.073 1.714.33 12.828 1.761 13.122 4.271.295 2.511-4.871 3.515-12.152 4.065-7.281.55-7.416 2.435-12.303 1.303-1.555-.354-1.789-10.285-1.789-10.285z" fill="url(#G)"/>
        <path d="m286.676 210.758 1.006 2.729 6.629-2.984-.931-2.658-6.704 2.913zM207.008 195.213l-1.897 2.172 5.742 4.383 1.869-2.072-5.714-4.483z" fill="#EEA886"/>
        <path d="M284.14 164.683c.123-4.192-4.514-14.613-7.918-21.12-4.461-8.695-10.501-19.244-12.374-22.487-3.241-9.963-3.83-13.247-4.013-19.782v-1.327c0-.933.044-1.825.076-2.686.266-7.723-.131-12.752-4.863-21.618-2.68-5.013-6.12-9.277-6.732-9.513-8.566-3.666-9.623-3.475-9.623-3.475-4.53 5.329-6.884 7.377-7.607 15.542 0 0-1.591 25.161 5.909 55.144.023 2.618.131 5.292.27 7.731 0 .247-.255 15.394-.931 19.925-1.017 6.854-5.567 8.444-11.674 14.828-4.967 5.181-21.644 20.921-21.644 20.921l9.726 7.197s21.274-20.255 30.543-26.392c3.106-2.053 8.935-13.219 12.538-20.571a371.725 371.725 0 0 0 2.163-4.495c2.414 2.283 5.456 5.181 7.238 6.934 5.244 5.18 3.845 6.428 6.159 14.111 2.072 6.882 14.443 41.719 14.443 41.719l10.736-5.476s-12.589-39.463-12.422-45.11z" fill="url(#H)"/>
        <path d="M236.204 70.933s3.579-2.598 7.038-1.973c3.46.626 5.865 2.826 8.088 10.903 2.223 8.078-4.271 12.828-8.402 11.792-4.132-1.036-12.665-15.278-6.724-20.722z" fill="url(#I)"/>
        <path d="M247.012 59.938c.088.526.195 1.196.326 1.893a36.724 36.724 0 0 1-7.106-4.049c1.615 1.028 6.78 2.156 6.78 2.156z" fill="url(#J)"/>
        <path d="M252.405 41.336s2.783 4.34 1.614 5.137c-.95.653 1.543 4.93 1.881 5.635.338.705-1.71 1.386-2.12 1.885-.409.498-1.296 6.344-3.002 6.646-1.706.303-9.655-1.82-11.929-3.861-2.275-2.04-4.748-11.847-3.651-16.143 1.098-4.296 12.323-6.878 17.207.701z" fill="url(#K)"/>
        <path d="M252.984 42.241c-2.584-.745-5.73 1.666-8.167 2.455-2.438.79-.537 4.902-.537 4.902s-.45.095-1.106.247c-.23-.67-.974-2.483-2.549-2.06-1.133.306-1.165 1.593-.636 2.869l-.513.151c-1.662.518-1.63 6.165-1.63 6.165s-.286.29-3.917-8.767c-2.175-5.424 1.905-9.927 2.827-10.238.923-.31 7.158-4.47 11.93-1.195 4.772 3.275 4.298 5.471 4.298 5.471z" fill="url(#L)"/>
        <path d="M253.568 42.185s-5.038-13.445-16.172-7.516c-12.959 6.894-1.757 17.702-1.757 17.702s3.213-6.006 17.929-10.186z" fill="url(#M)"/>
        <path d="M253.1 41.014c1.075 0 2.148.089 3.209.267 3.805.82-8.216 2.662-9.242 3.128-9.543 4.32 6.033-3.395 6.033-3.395z" fill="url(#N)"/>
        <path d="M248.316 71.104s-8.386-7.603-12.804.618c-3.976 7.404 5.619 10.504 21.906 23.627 0 0 5.245 3.678 9.361 4.566 6.577 1.411 28.499 3.152 30.559 3.722l-.294-7.396s-10.876-1.526-16.077-3.212c-5.201-1.685-14.069-3.311-14.069-3.311l-18.582-18.614z" fill="url(#O)"/>
        <path d="M259.9 97.278c-.032.86-.06 1.753-.076 2.686v1.327c-6.032-4.659-9.635-11.469-9.742-11.605 2.143 1.547 9.818 7.592 9.818 7.592z" fill="url(#P)"/>
        <path d="M257.986 152.505a387.565 387.565 0 0 1-2.163 4.495 72.35 72.35 0 0 1-9.882-18.893c4.291 6.273 12.045 14.398 12.045 14.398z" fill="url(#Q)"/>
        <path d="m238.688 62.656.031-1.438 9.409 3.447.187 1.466-9.627-3.475z" fill="url(#R)"/>
        <path d="M6.738 224h403.079a1.112 1.112 0 0 0 1.193-1.012v-.02a1.117 1.117 0 0 0-.389-.753 1.104 1.104 0 0 0-.804-.259H6.737a1.106 1.106 0 0 0-1.192 1.012v.02A1.107 1.107 0 0 0 6.738 224z" fill="#233862"/>
        <path d="M364.334 221.88h45.896v-46.019h-45.896v46.019z" fill="#739AF0"/>
        <path d="M381.944 181.209h10.669v-5.348h-10.669v5.348z" fill="#BDD0FB"/>
        <path d="M317.729 221.88h45.896v-46.019h-45.896v46.019z" fill="#739AF0"/>
        <path d="M335.345 181.209h10.669v-5.348h-10.669v5.348z" fill="#BDD0FB"/>
        <path d="M345.19 175.93h45.896v-46.019H345.19v46.019z" fill="#739AF0"/>
        <path d="M362.806 135.259h10.669v-5.348h-10.669v5.348z" fill="#BDD0FB"/>
    </g>
    <defs>
        <linearGradient id="b" x1="408.293" y1="111.695" x2="-24.001" y2="111.695" gradientUnits="userSpaceOnUse">
            <stop stop-color="#DAE3FE"/>
            <stop offset="1" stop-color="#E9EFFD"/>
        </linearGradient>
        <linearGradient id="c" x1="12.232" y1="78.855" x2="86.429" y2="78.855" gradientUnits="userSpaceOnUse">
            <stop stop-color="#09005D"/>
            <stop offset="1" stop-color="#1A0F91"/>
        </linearGradient>
        <linearGradient id="d" x1="15.836" y1="66.669" x2="23.431" y2="66.669" gradientUnits="userSpaceOnUse">
            <stop stop-color="#4042E2"/>
            <stop offset="1" stop-color="#4F52FF"/>
        </linearGradient>
        <linearGradient id="e" x1="15.836" y1="90.906" x2="23.431" y2="90.906" gradientUnits="userSpaceOnUse">
            <stop offset=".03" stop-color="#FE7062"/>
            <stop offset="1" stop-color="#FE7062"/>
        </linearGradient>
        <linearGradient id="f" x1="8.299" y1="79.082" x2="89.797" y2="79.082" gradientUnits="userSpaceOnUse">
            <stop offset=".49" stop-color="#001333"/>
            <stop offset="1" stop-color="#001E4F"/>
        </linearGradient>
        <linearGradient id="g" x1="2332.21" y1="-8476.11" x2="2605" y2="-8476.11" gradientUnits="userSpaceOnUse">
            <stop offset=".49" stop-color="#001333"/>
            <stop offset="1" stop-color="#001E4F"/>
        </linearGradient>
        <linearGradient id="h" x1="2332.21" y1="-8921.9" x2="2605" y2="-8921.9" gradientUnits="userSpaceOnUse">
            <stop offset=".49" stop-color="#001333"/>
            <stop offset="1" stop-color="#001E4F"/>
        </linearGradient>
        <linearGradient id="i" x1="10050.6" y1="-8476.11" x2="10323.8" y2="-8476.11" gradientUnits="userSpaceOnUse">
            <stop offset=".49" stop-color="#001333"/>
            <stop offset="1" stop-color="#001E4F"/>
        </linearGradient>
        <linearGradient id="j" x1="1369660" y1="-57909.9" x2="1572320" y2="-57909.9" gradientUnits="userSpaceOnUse">
            <stop offset=".49" stop-color="#001333"/>
            <stop offset="1" stop-color="#001E4F"/>
        </linearGradient>
        <linearGradient id="k" x1="1377170" y1="-50481" x2="1579890" y2="-50481" gradientUnits="userSpaceOnUse">
            <stop stop-color="#09005D"/>
            <stop offset="1" stop-color="#1A0F91"/>
        </linearGradient>
        <linearGradient id="l" x1="951039" y1="-118310" x2="2507530" y2="-118310" gradientUnits="userSpaceOnUse">
            <stop stop-color="#09005D"/>
            <stop offset="1" stop-color="#1A0F91"/>
        </linearGradient>
        <linearGradient id="m" x1="126249" y1="-49038.2" x2="163472" y2="-49038.2" gradientUnits="userSpaceOnUse">
            <stop stop-color="#09005D"/>
            <stop offset="1" stop-color="#1A0F91"/>
        </linearGradient>
        <linearGradient id="n" x1="46926.8" y1="-3117.17" x2="63160.2" y2="-3117.17" gradientUnits="userSpaceOnUse">
            <stop offset=".03" stop-color="#FE7062"/>
            <stop offset="1" stop-color="#FE7062"/>
        </linearGradient>
        <linearGradient id="o" x1="1250.88" y1="-4883.51" x2="1290.08" y2="-4883.51" gradientUnits="userSpaceOnUse">
            <stop offset=".03" stop-color="#FE7062"/>
            <stop offset="1" stop-color="#FE7062"/>
        </linearGradient>
        <linearGradient id="p" x1="1047740" y1="-136232" x2="3149280" y2="-136232" gradientUnits="userSpaceOnUse">
            <stop offset=".49" stop-color="#001333"/>
            <stop offset="1" stop-color="#001E4F"/>
        </linearGradient>
        <linearGradient id="q" x1="1640.5" y1="-7109.72" x2="1767.52" y2="-7109.72" gradientUnits="userSpaceOnUse">
            <stop offset=".49" stop-color="#001333"/>
            <stop offset="1" stop-color="#001E4F"/>
        </linearGradient>
        <linearGradient id="r" x1="1640.5" y1="-7362.12" x2="1767.52" y2="-7362.12" gradientUnits="userSpaceOnUse">
            <stop offset=".49" stop-color="#001333"/>
            <stop offset="1" stop-color="#001E4F"/>
        </linearGradient>
        <linearGradient id="s" x1="5340.21" y1="-7362.12" x2="5467.23" y2="-7362.12" gradientUnits="userSpaceOnUse">
            <stop offset=".49" stop-color="#001333"/>
            <stop offset="1" stop-color="#001E4F"/>
        </linearGradient>
        <linearGradient id="t" x1="12472000" y1="-233908" x2="35301000" y2="-233908" gradientUnits="userSpaceOnUse">
            <stop stop-color="#09005D"/>
            <stop offset="1" stop-color="#1A0F91"/>
        </linearGradient>
        <linearGradient id="u" x1="10050.6" y1="-8921.9" x2="10323.8" y2="-8921.9" gradientUnits="userSpaceOnUse">
            <stop offset=".49" stop-color="#001333"/>
            <stop offset="1" stop-color="#001E4F"/>
        </linearGradient>
        <linearGradient id="v" x1="5340.21" y1="-7109.72" x2="5467.23" y2="-7109.72" gradientUnits="userSpaceOnUse">
            <stop offset=".49" stop-color="#001333"/>
            <stop offset="1" stop-color="#001E4F"/>
        </linearGradient>
        <linearGradient id="w" x1="1805860" y1="-105147" x2="2951600" y2="-105147" gradientUnits="userSpaceOnUse">
            <stop stop-color="#09005D"/>
            <stop offset="1" stop-color="#1A0F91"/>
        </linearGradient>
        <linearGradient id="x" x1="5191710" y1="-10088.1" x2="7481670" y2="-10088.1" gradientUnits="userSpaceOnUse">
            <stop stop-color="#09005D"/>
            <stop offset="1" stop-color="#1A0F91"/>
        </linearGradient>
        <linearGradient id="y" x1="5192670" y1="-85519.8" x2="7483040" y2="-85519.8" gradientUnits="userSpaceOnUse">
            <stop stop-color="#09005D"/>
            <stop offset="1" stop-color="#1A0F91"/>
        </linearGradient>
        <linearGradient id="z" x1="1321410" y1="-111572" x2="1668860" y2="-111572" gradientUnits="userSpaceOnUse">
            <stop stop-color="#09005D"/>
            <stop offset="1" stop-color="#1A0F91"/>
        </linearGradient>
        <linearGradient id="A" x1="1320880" y1="-12718.3" x2="1668190" y2="-12718.3" gradientUnits="userSpaceOnUse">
            <stop stop-color="#09005D"/>
            <stop offset="1" stop-color="#1A0F91"/>
        </linearGradient>
        <linearGradient id="B" x1="33344.1" y1="-15701.2" x2="34595.2" y2="-15701.2" gradientUnits="userSpaceOnUse">
            <stop offset=".03" stop-color="#FE7062"/>
            <stop offset="1" stop-color="#FE7062"/>
        </linearGradient>
        <linearGradient id="C" x1="33344.1" y1="-15799.6" x2="34595.2" y2="-15799.6" gradientUnits="userSpaceOnUse">
            <stop stop-color="#4042E2"/>
            <stop offset="1" stop-color="#4F52FF"/>
        </linearGradient>
        <linearGradient id="D" x1="235.512" y1="57.456" x2="248.714" y2="57.456" gradientUnits="userSpaceOnUse">
            <stop stop-color="#FFBCBB"/>
            <stop offset="1" stop-color="#FF928E"/>
        </linearGradient>
        <linearGradient id="E" x1="11861.6" y1="2564.5" x2="12222.2" y2="2564.5" gradientUnits="userSpaceOnUse">
            <stop stop-color="#FFBCBB"/>
            <stop offset="1" stop-color="#FF928E"/>
        </linearGradient>
        <linearGradient id="F" x1="12332.6" y1="13262.2" x2="13059.7" y2="13262.2" gradientUnits="userSpaceOnUse">
            <stop stop-color="#09005D"/>
            <stop offset="1" stop-color="#1A0F91"/>
        </linearGradient>
        <linearGradient id="G" x1="25029.9" y1="8017.35" x2="26761.3" y2="8017.35" gradientUnits="userSpaceOnUse">
            <stop stop-color="#09005D"/>
            <stop offset="1" stop-color="#1A0F91"/>
        </linearGradient>
        <linearGradient id="H" x1="203.016" y1="138.96" x2="296.578" y2="138.96" gradientUnits="userSpaceOnUse">
            <stop stop-color="#FE7062"/>
            <stop offset="1" stop-color="#FF928E"/>
        </linearGradient>
        <linearGradient id="I" x1="14441.4" y1="4691.64" x2="15222.3" y2="4691.64" gradientUnits="userSpaceOnUse">
            <stop offset=".49" stop-color="#001333"/>
            <stop offset="1" stop-color="#001E4F"/>
        </linearGradient>
        <linearGradient id="J" x1="6115.31" y1="665.42" x2="6242.29" y2="665.42" gradientUnits="userSpaceOnUse">
            <stop stop-color="#FFBCBB"/>
            <stop offset="1" stop-color="#FF928E"/>
        </linearGradient>
        <linearGradient id="K" x1="17323.4" y1="2982.53" x2="18433.2" y2="2982.53" gradientUnits="userSpaceOnUse">
            <stop stop-color="#FFBCBB"/>
            <stop offset="1" stop-color="#FF928E"/>
        </linearGradient>
        <linearGradient id="L" x1="16087.7" y1="2523.87" x2="17063.4" y2="2523.87" gradientUnits="userSpaceOnUse">
            <stop offset=".49" stop-color="#001333"/>
            <stop offset="1" stop-color="#001E4F"/>
        </linearGradient>
        <linearGradient id="M" x1="18259.5" y1="2094.94" x2="19524.6" y2="2094.94" gradientUnits="userSpaceOnUse">
            <stop stop-color="#FE7062"/>
            <stop offset="1" stop-color="#FF928E"/>
        </linearGradient>
        <linearGradient id="N" x1="11179.6" y1="553.509" x2="11609.6" y2="553.509" gradientUnits="userSpaceOnUse">
            <stop stop-color="#FE7062"/>
            <stop offset="1" stop-color="#FF928E"/>
        </linearGradient>
        <linearGradient id="O" x1="51117.8" y1="7759.55" x2="61011.7" y2="7759.55" gradientUnits="userSpaceOnUse">
            <stop stop-color="#09005D"/>
            <stop offset="1" stop-color="#1A0F91"/>
        </linearGradient>
        <linearGradient id="P" x1="250.094" y1="95.489" x2="259.904" y2="95.489" gradientUnits="userSpaceOnUse">
            <stop stop-color="#E1473D"/>
            <stop offset="1" stop-color="#E9605A"/>
        </linearGradient>
        <linearGradient id="Q" x1="10377.3" y1="7133.55" x2="10742.2" y2="7133.55" gradientUnits="userSpaceOnUse">
            <stop stop-color="#E1473D"/>
            <stop offset="1" stop-color="#E9605A"/>
        </linearGradient>
        <linearGradient id="R" x1="8072.39" y1="846.294" x2="8305.37" y2="846.294" gradientUnits="userSpaceOnUse">
            <stop stop-color="#09005D"/>
            <stop offset="1" stop-color="#1A0F91"/>
        </linearGradient>
        <clipPath id="a">
            <path fill="#fff" d="M0 0h411v224H0z"/>
        </clipPath>
    </defs>
</svg>
