<svg width="40" height="41" viewBox="0 0 40 41" fill="none" xmlns="http://www.w3.org/2000/svg">
<path d="M23.3346 17.2835V14.4502C24.2513 14.0613 25.1891 13.7696 26.148 13.5752C27.1057 13.3808 28.1124 13.2835 29.168 13.2835C29.8902 13.2835 30.5985 13.3391 31.293 13.4502C31.9874 13.5613 32.668 13.7002 33.3346 13.8669V16.5335C32.668 16.2835 31.9946 16.0963 31.3146 15.9719C30.6335 15.8463 29.918 15.7835 29.168 15.7835C28.1124 15.7835 27.0985 15.9158 26.1263 16.1802C25.1541 16.4435 24.2235 16.8113 23.3346 17.2835ZM23.3346 26.4502V23.6169C24.2513 23.228 25.1891 22.9363 26.148 22.7419C27.1057 22.5474 28.1124 22.4502 29.168 22.4502C29.8902 22.4502 30.5985 22.5058 31.293 22.6169C31.9874 22.728 32.668 22.8669 33.3346 23.0335V25.7002C32.668 25.4502 31.9946 25.263 31.3146 25.1385C30.6335 25.013 29.918 24.9502 29.168 24.9502C28.1124 24.9502 27.0985 25.0752 26.1263 25.3252C25.1541 25.5752 24.2235 25.9502 23.3346 26.4502ZM23.3346 21.8669V19.0335C24.2513 18.6446 25.1891 18.353 26.148 18.1585C27.1057 17.9641 28.1124 17.8669 29.168 17.8669C29.8902 17.8669 30.5985 17.9224 31.293 18.0335C31.9874 18.1446 32.668 18.2835 33.3346 18.4502V21.1169C32.668 20.8669 31.9946 20.6796 31.3146 20.5552C30.6335 20.4296 29.918 20.3669 29.168 20.3669C28.1124 20.3669 27.0985 20.4991 26.1263 20.7635C25.1541 21.0269 24.2235 21.3946 23.3346 21.8669ZM10.8346 27.4502C12.1402 27.4502 13.4113 27.5957 14.648 27.8869C15.8835 28.1791 17.1124 28.6169 18.3346 29.2002V12.7835C17.1957 12.1169 15.9874 11.6169 14.7096 11.2835C13.4319 10.9502 12.1402 10.7835 10.8346 10.7835C9.83463 10.7835 8.84186 10.8808 7.8563 11.0752C6.86963 11.2696 5.91797 11.5613 5.0013 11.9502V28.4502C5.97352 28.1169 6.93908 27.8669 7.89797 27.7002C8.85575 27.5335 9.83463 27.4502 10.8346 27.4502ZM21.668 29.2002C22.8902 28.6169 24.1196 28.1791 25.3563 27.8869C26.5919 27.5957 27.8624 27.4502 29.168 27.4502C30.168 27.4502 31.1474 27.5335 32.1063 27.7002C33.0641 27.8669 34.0291 28.1169 35.0013 28.4502V11.9502C34.0846 11.5613 33.1335 11.2696 32.148 11.0752C31.1613 10.8808 30.168 10.7835 29.168 10.7835C27.8624 10.7835 26.5707 10.9502 25.293 11.2835C24.0152 11.6169 22.8069 12.1169 21.668 12.7835V29.2002ZM20.0013 34.1169C18.668 33.0613 17.2235 32.2419 15.668 31.6585C14.1124 31.0752 12.5013 30.7835 10.8346 30.7835C9.66797 30.7835 8.52241 30.9363 7.39797 31.2419C6.27241 31.5474 5.19575 31.978 4.16797 32.5335C3.58464 32.8391 3.02241 32.8252 2.4813 32.4919C1.93908 32.1585 1.66797 31.6724 1.66797 31.0335V10.9502C1.66797 10.6446 1.74464 10.353 1.89797 10.0752C2.05019 9.79742 2.27908 9.58908 2.58464 9.45019C3.86241 8.78353 5.19575 8.28353 6.58464 7.9502C7.97352 7.61686 9.39019 7.4502 10.8346 7.4502C12.4457 7.4502 14.0224 7.65853 15.5646 8.0752C17.1057 8.49186 18.5846 9.11686 20.0013 9.9502C21.418 9.11686 22.8974 8.49186 24.4396 8.0752C25.9807 7.65853 27.5569 7.4502 29.168 7.4502C30.6124 7.4502 32.0291 7.61686 33.418 7.9502C34.8069 8.28353 36.1402 8.78353 37.418 9.45019C37.7235 9.58908 37.953 9.79742 38.1063 10.0752C38.2585 10.353 38.3346 10.6446 38.3346 10.9502V31.0335C38.3346 31.6724 38.0641 32.1585 37.523 32.4919C36.9807 32.8252 36.418 32.8391 35.8346 32.5335C34.8069 31.978 33.7302 31.5474 32.6046 31.2419C31.4802 30.9363 30.3346 30.7835 29.168 30.7835C27.5013 30.7835 25.8902 31.0752 24.3346 31.6585C22.7791 32.2419 21.3346 33.0613 20.0013 34.1169Z" fill="url(#paint0_linear_1065_27018)"/>
<defs>
<linearGradient id="paint0_linear_1065_27018" x1="38.3346" y1="34.1169" x2="-1.78793" y2="27.038" gradientUnits="userSpaceOnUse">
<stop stop-color="#0065F2"/>
<stop offset="1" stop-color="#7298FF"/>
</linearGradient>
</defs>
</svg>
