<svg width="41" height="41" viewBox="0 0 41 41" fill="none" xmlns="http://www.w3.org/2000/svg">
<path d="M20.0044 18.9499C16.2211 17.9665 15.0044 16.9499 15.0044 15.3665C15.0044 13.5499 16.6878 12.2832 19.5044 12.2832C22.4711 12.2832 23.5711 13.6999 23.6711 15.7832H27.3544C27.2378 12.9165 25.4878 10.2832 22.0044 9.4332V5.7832H17.0044V9.3832C13.7711 10.0832 11.1711 12.1832 11.1711 15.3999C11.1711 19.2499 14.3544 21.1665 19.0044 22.2832C23.1711 23.2832 24.0044 24.7499 24.0044 26.2999C24.0044 27.4499 23.1878 29.2832 19.5044 29.2832C16.0711 29.2832 14.7211 27.7499 14.5378 25.7832H10.8711C11.0711 29.4332 13.8044 31.4832 17.0044 32.1665V35.7832H22.0044V32.1999C25.2544 31.5832 27.8378 29.6999 27.8378 26.2832C27.8378 21.5499 23.7878 19.9332 20.0044 18.9499Z" fill="url(#paint0_linear_1065_27029)"/>
<defs>
<linearGradient id="paint0_linear_1065_27029" x1="27.8378" y1="35.7832" x2="8.79433" y2="34.4012" gradientUnits="userSpaceOnUse">
<stop stop-color="#0065F2"/>
<stop offset="1" stop-color="#7298FF"/>
</linearGradient>
</defs>
</svg>
