<svg width="41" height="41" viewBox="0 0 41 41" fill="none" xmlns="http://www.w3.org/2000/svg">
<g clip-path="url(#clip0_1065_26988)">
<path d="M20.6693 10.7835C26.9859 10.7835 32.6193 14.3335 35.3693 19.9502C32.6193 25.5669 26.9859 29.1169 20.6693 29.1169C14.3526 29.1169 8.71927 25.5669 5.96927 19.9502C8.71927 14.3335 14.3526 10.7835 20.6693 10.7835ZM20.6693 7.4502C12.3359 7.4502 5.21927 12.6335 2.33594 19.9502C5.21927 27.2669 12.3359 32.4502 20.6693 32.4502C29.0026 32.4502 36.1193 27.2669 39.0026 19.9502C36.1193 12.6335 29.0026 7.4502 20.6693 7.4502ZM20.6693 15.7835C22.9693 15.7835 24.8359 17.6502 24.8359 19.9502C24.8359 22.2502 22.9693 24.1169 20.6693 24.1169C18.3693 24.1169 16.5026 22.2502 16.5026 19.9502C16.5026 17.6502 18.3693 15.7835 20.6693 15.7835ZM20.6693 12.4502C16.5359 12.4502 13.1693 15.8169 13.1693 19.9502C13.1693 24.0835 16.5359 27.4502 20.6693 27.4502C24.8026 27.4502 28.1693 24.0835 28.1693 19.9502C28.1693 15.8169 24.8026 12.4502 20.6693 12.4502Z" fill="url(#paint0_linear_1065_26988)"/>
</g>
<defs>
<linearGradient id="paint0_linear_1065_26988" x1="39.0026" y1="32.4502" x2="-0.953772" y2="24.9307" gradientUnits="userSpaceOnUse">
<stop stop-color="#0065F2"/>
<stop offset="1" stop-color="#7298FF"/>
</linearGradient>
<clipPath id="clip0_1065_26988">
<rect width="40" height="40" fill="white" transform="translate(0.667969 0.783203)"/>
</clipPath>
</defs>
</svg>
