<svg width="41" height="41" viewBox="0 0 41 41" fill="none" xmlns="http://www.w3.org/2000/svg">
<path d="M32.0026 4.11621H8.66927C6.81927 4.11621 5.33594 5.61621 5.33594 7.44954V30.7829C5.33594 32.6162 6.81927 34.1162 8.66927 34.1162H15.3359L20.3359 39.1162L25.3359 34.1162H32.0026C33.8359 34.1162 35.3359 32.6162 35.3359 30.7829V7.44954C35.3359 5.61621 33.8359 4.11621 32.0026 4.11621ZM32.0026 30.7829H23.9526L22.9693 31.7662L20.3359 34.3995L17.6859 31.7495L16.7193 30.7829H8.66927V7.44954H32.0026V30.7829ZM20.3359 19.1162C23.0859 19.1162 25.3359 16.8662 25.3359 14.1162C25.3359 11.3662 23.0859 9.11621 20.3359 9.11621C17.5859 9.11621 15.3359 11.3662 15.3359 14.1162C15.3359 16.8662 17.5859 19.1162 20.3359 19.1162ZM20.3359 12.4495C21.2526 12.4495 22.0026 13.1995 22.0026 14.1162C22.0026 15.0329 21.2526 15.7829 20.3359 15.7829C19.4193 15.7829 18.6693 15.0329 18.6693 14.1162C18.6693 13.1995 19.4193 12.4495 20.3359 12.4495ZM30.3359 26.7495C30.3359 22.5829 23.7193 20.7829 20.3359 20.7829C16.9526 20.7829 10.3359 22.5829 10.3359 26.7495V29.1162H30.3359V26.7495ZM14.4693 25.7829C15.7026 24.9329 18.1859 24.1162 20.3359 24.1162C22.4859 24.1162 24.9693 24.9329 26.2026 25.7829H14.4693Z" fill="url(#paint0_linear_1065_27046)"/>
<defs>
<linearGradient id="paint0_linear_1065_27046" x1="35.3359" y1="39.1162" x2="1.89109" y2="35.4378" gradientUnits="userSpaceOnUse">
<stop stop-color="#0065F2"/>
<stop offset="1" stop-color="#7298FF"/>
</linearGradient>
</defs>
</svg>
