<svg width="41" height="41" viewBox="0 0 41 41" fill="none" xmlns="http://www.w3.org/2000/svg">
<g clip-path="url(#clip0_1065_26994)">
<path d="M5.66927 7.4502C5.66927 6.53353 6.41927 5.78353 7.33594 5.78353H10.6693V2.4502H7.33594C4.56927 2.4502 2.33594 4.68353 2.33594 7.4502V10.7835H5.66927V7.4502Z" fill="url(#paint0_linear_1065_26994)"/>
<path d="M5.66927 34.1165V30.7832H2.33594V34.1165C2.33594 36.8832 4.56927 39.1165 7.33594 39.1165H10.6693V35.7832H7.33594C6.41927 35.7832 5.66927 35.0332 5.66927 34.1165Z" fill="url(#paint1_linear_1065_26994)"/>
<path d="M34.0013 2.4502H30.668V5.78353H34.0013C34.918 5.78353 35.668 6.53353 35.668 7.4502V10.7835H39.0013V7.4502C39.0013 4.68353 36.768 2.4502 34.0013 2.4502Z" fill="url(#paint2_linear_1065_26994)"/>
<path d="M35.668 34.1165C35.668 35.0332 34.918 35.7832 34.0013 35.7832H30.668V39.1165H34.0013C36.768 39.1165 39.0013 36.8832 39.0013 34.1165V30.7832H35.668V34.1165Z" fill="url(#paint3_linear_1065_26994)"/>
<path d="M32.3372 25.5672V16.0005C32.3372 14.8005 31.7039 13.7005 30.6706 13.1172L22.3372 8.31719C21.8206 8.01719 21.2539 7.86719 20.6706 7.86719C20.0872 7.86719 19.5206 8.01719 19.0039 8.31719L10.6706 13.1005C9.63724 13.7005 9.00391 14.8005 9.00391 16.0005V25.5672C9.00391 26.7672 9.63724 27.8672 10.6706 28.4505L19.0039 33.2505C19.5206 33.5505 20.0872 33.7005 20.6706 33.7005C21.2539 33.7005 21.8206 33.5505 22.3372 33.2505L30.6706 28.4505C31.7039 27.8672 32.3372 26.7672 32.3372 25.5672ZM19.0039 29.4005L12.3372 25.5672V17.8505L19.0039 21.7339V29.4005ZM20.6706 18.8505L14.0706 15.0005L20.6706 11.2005L27.2706 15.0005L20.6706 18.8505ZM29.0039 25.5672L22.3372 29.4005V21.7339L29.0039 17.8505V25.5672Z" fill="url(#paint4_linear_1065_26994)"/>
</g>
<defs>
<linearGradient id="paint0_linear_1065_26994" x1="10.6693" y1="10.7835" x2="1.41896" y2="9.59659" gradientUnits="userSpaceOnUse">
<stop stop-color="#0065F2"/>
<stop offset="1" stop-color="#7298FF"/>
</linearGradient>
<linearGradient id="paint1_linear_1065_26994" x1="10.6693" y1="39.1165" x2="1.41896" y2="37.9296" gradientUnits="userSpaceOnUse">
<stop stop-color="#0065F2"/>
<stop offset="1" stop-color="#7298FF"/>
</linearGradient>
<linearGradient id="paint2_linear_1065_26994" x1="39.0013" y1="10.7835" x2="29.751" y2="9.59659" gradientUnits="userSpaceOnUse">
<stop stop-color="#0065F2"/>
<stop offset="1" stop-color="#7298FF"/>
</linearGradient>
<linearGradient id="paint3_linear_1065_26994" x1="39.0013" y1="39.1165" x2="29.751" y2="37.9296" gradientUnits="userSpaceOnUse">
<stop stop-color="#0065F2"/>
<stop offset="1" stop-color="#7298FF"/>
</linearGradient>
<linearGradient id="paint4_linear_1065_26994" x1="32.3372" y1="33.7005" x2="6.35886" y2="30.6897" gradientUnits="userSpaceOnUse">
<stop stop-color="#0065F2"/>
<stop offset="1" stop-color="#7298FF"/>
</linearGradient>
<clipPath id="clip0_1065_26994">
<rect width="40" height="40" fill="white" transform="translate(0.667969 0.783203)"/>
</clipPath>
</defs>
</svg>
