<svg width="260" height="182" viewBox="0 0 260 182" fill="none" xmlns="http://www.w3.org/2000/svg">
    <rect width="260" height="182" rx="8" fill="#51B8AC"/>
    <rect x="33.369" y="29.438" width="19.232" height="19.232" rx="4" fill="#83B9F9"/>
    <rect x="32.969" y="28.837" width="19.232" height="19.232" rx="4" fill="#fff"/>
    <path d="M46.784 33.737h-8.398a2.113 2.113 0 0 0-2.113 2.113v5.5a2.113 2.113 0 0 0 2.113 2.114h8.398a2.113 2.113 0 0 0 2.113-2.113v-5.5a2.113 2.113 0 0 0-2.113-2.114zm-8.398.846h8.398a1.268 1.268 0 0 1 1.268 1.267v.199l-5.257 3.015a.423.423 0 0 1-.423 0l-5.253-3.015v-.199a1.268 1.268 0 0 1 1.267-1.267zm8.398 8.036h-8.398a1.267 1.267 0 0 1-1.267-1.268v-4.328l4.836 2.773a1.268 1.268 0 0 0 1.26 0l4.837-2.773v4.328a1.268 1.268 0 0 1-1.268 1.268z" fill="#2469BD"/>
    <rect x="39.684" y="58.224" width="180.631" height="65.552" rx="4" fill="#fff"/>
    <rect x="68.481" y="71.462" width="122.384" height="2.583" rx="1.292" fill="#2469BC"/>
    <rect x="47.537" y="88.9" width="164.924" height="3.229" rx="1.615" fill="#41628B"/>
    <rect x="47.537" y="96.004" width="164.924" height="1.937" rx=".969" fill="#C2DAF8"/>
    <rect x="47.537" y="100.525" width="164.924" height="1.937" rx=".969" fill="#C2DAF8"/>
    <rect x="47.537" y="105.046" width="164.924" height="1.937" rx=".969" fill="#C2DAF8"/>
    <rect x="47.537" y="109.567" width="164.924" height="1.937" rx=".969" fill="#C2DAF8"/>
    <rect x="100.551" y="114.088" width="111.913" height="1.937" rx=".969" fill="#C2DAF8"/>
    <rect x="114.619" y="76.631" width="33.705" height="1.292" rx=".646" fill="#A1BDE0"/>
    <rect x="152.252" y="76.631" width="38.613" height="1.292" rx=".646" fill="#A1BDE0"/>
    <rect x="195.295" y="66.475" width="16.671" height="16.437" rx="3.5" fill="#fff" stroke="#E9E9E9"/>
    <path d="M206.348 74.154v-3.229c0-.592-.491-1.076-1.09-1.076h-3.273c-.6 0-1.091.484-1.091 1.076v1.076h-1.09c-.6 0-1.091.485-1.091 1.077v5.382c0 .592.491 1.076 1.091 1.076h2.727c.3 0 .545-.242.545-.538v-1.615h1.091v1.615c0 .296.245.538.545.538h2.727c.6 0 1.091-.484 1.091-1.076v-3.23c0-.592-.491-1.076-1.091-1.076h-1.091zm-5.454 4.306h-1.09v-1.077h1.09v1.077zm0-2.153h-1.09V75.23h1.09v1.076zm0-2.153h-1.09v-1.076h1.09v1.076zm2.182 2.153h-1.091V75.23h1.091v1.076zm0-2.153h-1.091v-1.076h1.091v1.076zm0-2.153h-1.091v-1.076h1.091v1.076zm2.182 4.306h-1.091V75.23h1.091v1.076zm0-2.153h-1.091v-1.076h1.091v1.076zm0-2.153h-1.091v-1.076h1.091v1.076zm2.181 6.459h-1.091v-1.077h1.091v1.077zm0-2.153h-1.091V75.23h1.091v1.076z" fill="#A9A9EA"/>
    <rect x="60.182" y="135.778" width="24.971" height="24.971" rx="4" fill="#83B9F9"/>
    <rect x="59.402" y="134.998" width="24.971" height="24.971" rx="4" fill="#fff"/>
    <path d="M77.167 150.214a3.052 3.052 0 0 1-.686-1.942v-1.608a4.595 4.595 0 0 0-4.001-4.551v-.804a.57.57 0 0 0-1.138 0v.824c-2.256.274-4.001 2.216-4.001 4.55v1.608c0 .707-.236 1.393-.687 1.942l-.706.863a1.47 1.47 0 0 0-.196 1.589 1.49 1.49 0 0 0 1.353.863h2.197c.098 1.314 1.216 2.373 2.59 2.373a2.624 2.624 0 0 0 2.608-2.393h2.196c.589 0 1.099-.333 1.354-.863a1.468 1.468 0 0 0-.196-1.588l-.687-.863zm-5.276 4.55c-.726 0-1.334-.53-1.451-1.236h2.903a1.475 1.475 0 0 1-1.452 1.236zm5.139-2.569a.33.33 0 0 1-.314.196h-9.63a.33.33 0 0 1-.314-.196c-.02-.059-.079-.216.04-.373l.705-.863a4.2 4.2 0 0 0 .942-2.648v-1.608a3.436 3.436 0 0 1 3.432-3.433 3.45 3.45 0 0 1 3.432 3.433v1.608c0 .961.334 1.903.942 2.648l.706.863c.137.137.078.294.059.373zM76.147 141.113a.584.584 0 0 0-.804.098.584.584 0 0 0 .098.804 6.15 6.15 0 0 1 2.098 3.099.565.565 0 0 0 .55.412c.058 0 .098 0 .157-.019a.548.548 0 0 0 .392-.706 6.925 6.925 0 0 0-2.491-3.688zM66.242 145.114a5.91 5.91 0 0 1 2.099-3.098.567.567 0 0 0 .098-.805.566.566 0 0 0-.804-.098 7.07 7.07 0 0 0-2.51 3.688.577.577 0 0 0 .391.706c.06.019.098.019.157.019.255 0 .49-.157.57-.412zM81.204 145.016a9.432 9.432 0 0 0-3.726-5.963.57.57 0 0 0-.805.118.57.57 0 0 0 .118.804 8.244 8.244 0 0 1 3.276 5.237.586.586 0 0 0 .568.471h.098a.592.592 0 0 0 .471-.667zM66.99 139.975a.57.57 0 0 0 .117-.804.57.57 0 0 0-.804-.118 9.432 9.432 0 0 0-3.727 5.963.577.577 0 0 0 .47.667h.099c.274 0 .51-.196.569-.471.372-2.099 1.55-3.962 3.275-5.237z" fill="#2469BD"/>
    <rect x="151.021" y="30.786" width="78.184" height="19.018" rx="2" fill="#83B9F9"/>
    <rect x="152.369" y="29.439" width="78.184" height="19.018" rx="2" fill="#fff"/>
    <rect x="158.818" y="38.078" width="48.601" height="2.113" rx="1.057" fill="#D9E6ED"/>
    <g clip-path="url(#a)">
        <path d="M222.918 35.518a.632.632 0 0 0-.895 0l-3.579 3.58.895.894 3.579-3.585a.636.636 0 0 0 0-.889zm2.69-.006-6.269 6.27-2.209-2.202a.631.631 0 0 0-.894 0 .631.631 0 0 0 0 .894l2.652 2.653a.632.632 0 0 0 .895 0l6.72-6.714a.633.633 0 0 0 0-.895h-.006a.62.62 0 0 0-.889-.006zm-12.958 4.969 2.653 2.652a.632.632 0 0 0 .895 0l.444-.444-3.097-3.11a.632.632 0 0 0-.895 0 .64.64 0 0 0 0 .902z" fill="#006C04"/>
    </g>
    <defs>
        <clipPath id="a">
            <path fill="#fff" transform="translate(211.939 31.52)" d="M0 0h15.229v15.229H0z"/>
        </clipPath>
    </defs>
</svg>
