<svg width="260" height="182" viewBox="0 0 260 182" fill="none" xmlns="http://www.w3.org/2000/svg">
    <rect width="260" height="182" rx="8" fill="#78A7C9"/>
    <rect x="46" y="19" width="169" height="143.444" rx="4" fill="#EBF3FF"/>
    <rect x="50.945" y="23.946" width="159.107" height="40.395" rx="2" fill="#fff"/>
    <rect x="55.893" y="31.366" width="22.259" height="8.244" rx="1" fill="#013B81"/>
    <rect x="159.916" y="43.057" width="19.485" height="6.295" rx=".85" fill="#fff" stroke="#0074FF" stroke-width=".3"/>
    <circle cx="195.215" cy="37.137" r="9.643" fill="#fff" stroke="#F5F5F5" stroke-width=".5"/>
    <path d="M166.188 38.04c-.004-.11-.006-.272-.006-.488 0-.22.002-.384.006-.494.576 0 1.023-.035 1.339-.106.321-.075.565-.193.732-.356.167-.163.308-.4.422-.712l.686.079a1.984 1.984 0 0 0-.125.6c0 .277.145.415.435.415l.053.489-.053.494c-.18 0-.347-.04-.501-.118a.985.985 0 0 1-.369-.343.935.935 0 0 1-.132-.495l.132.026a2.157 2.157 0 0 1-1.029.792c-.414.145-.943.217-1.59.217zm-1.642-2.427c-.114.356-.171.625-.171.805 0 .119.07.226.211.323.145.097.356.174.633.23.281.058.622.087 1.022.087.009.11.013.272.013.488 0 .22-.004.384-.013.494-.787.005-1.407-.114-1.86-.356-.448-.242-.692-.58-.732-1.015a1.529 1.529 0 0 1-.006-.159c0-.189.026-.393.079-.613.052-.22.116-.416.191-.587l.633.303zm1.313-.923.547.554c-.119.123-.24.244-.363.363l-.184.184-.271-.277-.277-.27.548-.554zm1.154 0 .547.554c-.119.123-.24.244-.363.363l-.184.184-.271-.277-.277-.27.548-.554z" fill="#013B81"/>
    <path d="m172.679 33.833-1.906.81c.145.124.31.293.495.509.189.21.356.45.501.719.15.268.224.527.224.778 0 .075-.011.16-.033.257-.088.356-.321.622-.699.798-.378.172-.853.257-1.424.257h-.225v-.983h.225c.373 0 .683-.028.93-.085.246-.062.408-.143.488-.244-.036-.211-.165-.462-.389-.752-.225-.29-.554-.611-.99-.963l.093-.857 2.446-1.03.264.786zM174.487 37.961a.903.903 0 0 1-.726-.33c-.185-.22-.338-.527-.462-.923l.594-.363c.062.233.136.398.224.495a.486.486 0 0 0 .37.138h.059l.053.495-.053.488h-.059zm-2.658 1.095c.29-.119.556-.257.798-.415a2.66 2.66 0 0 0 .567-.462c.141-.154.211-.286.211-.396 0-.18-.117-.67-.35-1.47l-.033-.133.739-.29c.106.304.189.63.251.976.061.343.092.649.092.917 0 .431-.169.829-.508 1.194-.338.37-.793.673-1.365.91l-.402-.831z" fill="#013B81"/>
    <path d="M178.181 36.978a.41.41 0 0 0 .304-.112.395.395 0 0 0 .112-.29c0-.118-.046-.307-.139-.567a6.864 6.864 0 0 0-.224-.593l.673-.37c.083.172.171.418.263.739.093.316.139.593.139.83 0 .247-.048.474-.145.68a1.26 1.26 0 0 1-.402.488.997.997 0 0 1-.581.178h-.02v-.983h.02zm-1.787.983-.053-.488.053-.495h.033c.224 0 .398-.12.521-.362.083-.167.158-.425.224-.772l.679.033c-.048.29-.072.497-.072.62 0 .321.134.481.402.481h.013l.053.495-.053.488h-.013a.944.944 0 0 1-.6-.191 1.012 1.012 0 0 1-.343-.54l.165-.014c-.268.497-.6.745-.996.745h-.013zm-1.886 0-.053-.488.053-.495h.033c.136 0 .27-.028.402-.085a.766.766 0 0 0 .297-.224c.092-.106.162-.225.211-.357.048-.131.092-.272.132-.422l.686.073c-.005.022-.029.11-.073.264a1.46 1.46 0 0 0-.066.409c0 .228.092.342.277.342h.013l.053.495-.053.488h-.033a.821.821 0 0 1-.494-.151.8.8 0 0 1-.297-.403c-.141.18-.303.319-.488.416-.18.092-.374.138-.58.138h-.02zm2.974-4.82.468.46-.468.462-.152-.151a12.081 12.081 0 0 1-.31-.31l.462-.462zm.62.718c.18.172.356.347.528.528l-.528.527a13.9 13.9 0 0 0-.528-.527l.528-.528zm-1.24 0c.18.172.356.347.528.528l-.528.527c-.171-.18-.347-.356-.527-.527l.527-.528zM197.443 57.73c.038.396.07.697.096.904.011.112.026.195.046.25.02.055.05.094.089.116a.37.37 0 0 0 .175.033h.049l.02.181-.02.181h-.049c-.183 0-.322-.055-.419-.165-.097-.112-.159-.295-.188-.55-.011-.117-.034-.31-.069-.58-.007-.069-.019-.171-.036-.307l.306-.063zm-.026 1.434a1.255 1.255 0 0 1-.399.066.761.761 0 0 1-.458-.128.413.413 0 0 1-.175-.353c0-.182.077-.336.231-.462.153-.127.36-.236.62-.326l.065.33c-.164.041-.309.1-.435.174-.123.075-.188.147-.194.215-.007.057.019.105.079.145a.466.466 0 0 0 .244.056c.108 0 .223-.022.346-.066l.076.35z" fill="#013B81"/>
    <path d="M197.859 59.033h.05a.46.46 0 0 0 .263-.07.477.477 0 0 0 .162-.224c.042-.101.075-.237.099-.409l.274.056a1.386 1.386 0 0 0-.017.221c0 .183.047.311.142.386.097.075.254.112.471.112.201 0 .379-.023.535-.07a.955.955 0 0 0 .362-.18c.088-.075.132-.153.132-.235a.211.211 0 0 0-.089-.174.355.355 0 0 0-.237-.073c-.178 0-.36.078-.544.234a2.246 2.246 0 0 0-.505.656l-.224-.148c.171-.339.367-.603.587-.795.222-.193.442-.29.659-.29a.69.69 0 0 1 .324.076c.096.05.171.12.224.211a.554.554 0 0 1 .082.3.66.66 0 0 1-.165.445 1.057 1.057 0 0 1-.458.297 1.91 1.91 0 0 1-.656.106c-.446 0-.719-.138-.818-.413a.653.653 0 0 1-.231.258.72.72 0 0 1-.376.085h-.046v-.362zM202.79 59.395c-.198 0-.343-.072-.436-.217-.09-.145-.137-.342-.141-.59a.423.423 0 0 1 .042-.218c.031-.055.065-.083.103-.083.022 0 .039.011.052.033.016.022.023.054.023.096 0 .147.01.265.03.353a.372.372 0 0 0 .109.198.342.342 0 0 0 .224.066h.033v.362h-.039zm-.455-2.344c.033.257.058.484.075.682.018.196.027.392.027.587l-.004.162a.837.837 0 0 1-.395.725c-.253.165-.575.26-.966.287l-.089-.346c.343-.033.618-.1.827-.201.209-.101.314-.256.314-.465 0-.22-.009-.43-.027-.63a15.903 15.903 0 0 0-.076-.732l.314-.07zm-1.174.287c.136.285.24.558.313.818.075.259.112.482.112.669a.96.96 0 0 1-.03.254l-.29.066a.587.587 0 0 0 .036-.225 2.2 2.2 0 0 0-.112-.62 6.826 6.826 0 0 0-.293-.781l.264-.181z" fill="#013B81"/>
    <path d="M202.793 59.033h.283c.271 0 .523-.032.759-.096.235-.064.475-.16.719-.29a2.09 2.09 0 0 1 .214-.102c.075-.033.136-.056.185-.07l.009.195a1.412 1.412 0 0 1-.349-.05 2.302 2.302 0 0 1-.363-.148c-.204-.108-.377-.162-.518-.162a.406.406 0 0 0-.244.08.524.524 0 0 0-.161.181l-.211-.148a.924.924 0 0 1 .27-.34.586.586 0 0 1 .353-.115c.095 0 .184.016.267.049.086.03.206.086.36.165.142.072.257.126.343.161.085.036.181.064.286.086l.014.32a.82.82 0 0 0-.159.066c-.063.03-.133.067-.207.109-.302.16-.572.279-.812.356-.237.077-.5.115-.788.115h-.25v-.362zm.682-1.587c.086-.09.172-.175.257-.257.086.082.172.167.258.258l-.258.257-.257-.258z" fill="#013B81"/>
    <path d="M178.055 60.348c-.207 0-.385-.041-.534-.125a.844.844 0 0 1-.343-.333.973.973 0 0 1-.116-.475c0-.132.022-.273.066-.422a2.48 2.48 0 0 1 .155-.402l.258.118c-.123.255-.185.477-.185.667 0 .2.06.351.181.455.121.103.294.155.518.155.169 0 .313-.031.432-.093a.613.613 0 0 0 .353-.534 1.4 1.4 0 0 0-.066-.373 3.328 3.328 0 0 0-.129-.385l.277-.142c.134.314.201.614.201.9a.96.96 0 0 1-.501.847c-.16.095-.349.142-.567.142zm1.751-.88c-.251 0-.465-.057-.643-.172-.176-.114-.318-.303-.425-.567l.234-.151c.057.145.119.255.184.33a.56.56 0 0 0 .254.158c.101.028.237.042.406.042.176 0 .333-.023.472-.069a.824.824 0 0 0 .319-.178c.077-.075.116-.151.116-.23a.22.22 0 0 0-.089-.175.34.34 0 0 0-.234-.076c-.2 0-.391.087-.571.26-.18.174-.333.374-.458.6l-.224-.148a2.7 2.7 0 0 1 .316-.498c.128-.163.269-.297.426-.402a.85.85 0 0 1 .484-.162c.126 0 .238.03.337.09a.588.588 0 0 1 .29.57.704.704 0 0 1-.185.412 1.026 1.026 0 0 1-.422.27 1.696 1.696 0 0 1-.587.096zM181.647 57.05c.018.126.032.326.043.6.011.273.017.527.017.763v.145c-.002.132.003.23.016.293.013.064.043.11.089.139.046.028.12.043.221.043h.017l.019.181-.019.181h-.017c-.233 0-.397-.06-.491-.181-.092-.123-.139-.318-.139-.584 0-.242-.006-.516-.019-.824a6.707 6.707 0 0 0-.05-.686l.313-.07z" fill="#24719B"/>
    <path d="m184.547 59.033.02.181-.02.181h-.033c-.228-.002-.41-.048-.544-.138a.675.675 0 0 1-.273-.402l.197-.162a.398.398 0 0 0 .185.244.735.735 0 0 0 .392.096h.076zm-2.532 0h.283c.271 0 .524-.032.759-.096s.475-.16.719-.29a2.09 2.09 0 0 1 .214-.102c.075-.033.136-.056.185-.07l.01.195a1.414 1.414 0 0 1-.35-.05 2.302 2.302 0 0 1-.363-.148c-.204-.108-.377-.162-.517-.162a.402.402 0 0 0-.244.08.517.517 0 0 0-.162.181l-.211-.148a.924.924 0 0 1 .27-.34.586.586 0 0 1 .353-.115c.095 0 .184.016.267.049.086.03.206.086.36.165.143.072.257.126.343.161.085.036.181.064.287.086l.013.32a.82.82 0 0 0-.159.066c-.063.03-.133.067-.207.109-.301.16-.572.279-.811.356a2.553 2.553 0 0 1-.789.115h-.25v-.362zm.682-1.587c.086-.09.172-.175.258-.257.085.082.171.167.257.258l-.257.257-.258-.258z" fill="#24719B"/>
    <path d="M186.36 59.033c.077 0 .136-.021.175-.063a.265.265 0 0 0 .06-.185c0-.07-.022-.17-.066-.3a3.217 3.217 0 0 0-.113-.31l.268-.148c.044.094.088.216.132.366.046.15.069.282.069.399a.678.678 0 0 1-.069.307.56.56 0 0 1-.185.217.476.476 0 0 1-.271.08h-.006v-.363h.006zm-.893.362v-.362h.01a.28.28 0 0 0 .168-.053.54.54 0 0 0 .132-.162c.048-.09.086-.227.112-.412l.277.013c-.026.139-.04.248-.04.327 0 .094.019.166.056.214.038.048.097.073.178.073h.007l.02.181-.02.181h-.007a.431.431 0 0 1-.303-.105.522.522 0 0 1-.148-.304l.062-.006a.78.78 0 0 1-.207.3.425.425 0 0 1-.291.115h-.006zm-.947 0-.019-.181.019-.181h.017a.476.476 0 0 0 .382-.188.704.704 0 0 0 .103-.188c.026-.068.049-.142.069-.221l.277.03a3.094 3.094 0 0 1-.036.135.839.839 0 0 0-.033.224c0 .068.013.12.039.155.029.035.073.053.132.053h.007l.019.181-.019.181h-.013a.377.377 0 0 1-.251-.085.382.382 0 0 1-.129-.231c-.145.21-.328.316-.55.316h-.014zm1.507-2.282.07.07.141.142-.211.21-.207-.21.207-.212zm.07.584.158-.158.079-.08.237.238-.079.08-.158.157a6.316 6.316 0 0 0-.237-.237zm-.614 0 .159-.158.079-.08.237.238-.079.08-.158.157a5.669 5.669 0 0 0-.238-.237zM187.244 59.376c.018-.132.027-.363.027-.693 0-.301-.008-.61-.023-.926a6.471 6.471 0 0 0-.047-.637l.314-.07c.015.11.031.327.046.65.015.324.023.636.023.937 0 .343-.011.601-.033.775l-.307-.036zM161.02 60.038c.142-.052.271-.118.385-.198.117-.079.208-.161.274-.247.068-.084.102-.162.102-.234 0-.092-.058-.365-.175-.818l.291-.112c.05.156.091.321.122.495.033.171.049.316.049.435 0 .202-.084.392-.254.57-.167.18-.384.32-.653.42l-.141-.31zm.418-2.186a7.18 7.18 0 0 1 .258-.257c.085.081.171.167.257.257l-.257.257-.258-.257zM162.304 60.028c.36-.077.625-.179.794-.306a.568.568 0 0 0 .254-.475c0-.126-.016-.25-.049-.376a.894.894 0 0 0-.145-.313c-.062-.086-.134-.133-.218-.142-.048-.007-.096.01-.142.05a.432.432 0 0 0-.148.326.2.2 0 0 0 .026.109c.035.052.116.087.241.105.127.018.292.026.495.026h.323l.02.182-.02.181-.406.003c-.239 0-.434-.018-.584-.056a.458.458 0 0 1-.31-.24.608.608 0 0 1-.056-.26.913.913 0 0 1 .284-.65.423.423 0 0 1 .284-.116c.129 0 .245.057.346.172.103.112.182.257.237.435.057.176.086.353.086.53a.953.953 0 0 1-.32.726c-.211.198-.505.334-.884.41l-.108-.32z" fill="#24719B"/>
    <path d="m166.221 59.032.02.182-.02.181h-.033c-.228-.002-.41-.048-.544-.138a.68.68 0 0 1-.274-.403l.198-.161a.397.397 0 0 0 .185.244.734.734 0 0 0 .392.096h.076zm-2.532 0h.283c.271 0 .523-.031.759-.095.235-.064.475-.16.719-.29.068-.038.139-.072.214-.103a1.36 1.36 0 0 1 .185-.069l.009.195a1.417 1.417 0 0 1-.349-.05 2.312 2.312 0 0 1-.363-.148c-.204-.108-.377-.162-.518-.162a.406.406 0 0 0-.244.08.525.525 0 0 0-.161.18l-.211-.148a.923.923 0 0 1 .27-.34.585.585 0 0 1 .353-.115c.095 0 .184.017.267.05.086.03.206.086.36.165.143.072.257.126.343.161.085.035.181.064.286.086l.014.32a.82.82 0 0 0-.159.066c-.063.03-.133.067-.207.109-.302.16-.572.279-.812.356-.237.077-.5.115-.788.115h-.25v-.363zm.844.878c.086-.09.171-.176.257-.258.086.082.172.167.257.258l-.257.257-.257-.257z" fill="#24719B"/>
    <path d="M166.834 58.779c.136.092.259.164.369.217.11.053.195.08.254.08a.118.118 0 0 0 .053-.014.174.174 0 0 0 .076-.086.373.373 0 0 0 .026-.141.506.506 0 0 0-.079-.277c-.053-.084-.121-.126-.204-.126-.066 0-.137.045-.211.136-.073.09-.153.228-.241.415a.747.747 0 0 1-.261.31.672.672 0 0 1-.369.102h-.059l.006-.363h.06a.427.427 0 0 0 .244-.075.607.607 0 0 0 .191-.231c.097-.19.194-.339.293-.449a.47.47 0 0 1 .324-.174.431.431 0 0 1 .303.092.642.642 0 0 1 .201.27.92.92 0 0 1 .069.353c0 .121-.023.232-.069.333a.483.483 0 0 1-.204.224.311.311 0 0 1-.152.037c-.174 0-.428-.111-.762-.333l.142-.3zM147.594 60.325c-.194 0-.365-.036-.515-.109a.832.832 0 0 1-.353-.32.927.927 0 0 1-.128-.494c0-.132.022-.274.066-.425.046-.152.099-.288.158-.41l.254.12c-.055.123-.099.24-.132.352-.033.11-.05.217-.05.32 0 .2.061.35.182.452.121.103.293.155.518.155a1.301 1.301 0 0 0 .652-.172c.077-.046.125-.089.142-.128-.024-.04-.102-.101-.234-.185a2.39 2.39 0 0 0-.419-.211l.076-.343c.176.035.332.062.468.08.139.017.273.026.403.026h.069l.02.181-.02.181h-.069c-.145 0-.288-.01-.429-.03a11.688 11.688 0 0 1-.518-.095l.079-.228.073.033c.218.095.403.192.557.29.154.097.23.202.228.314-.002.103-.053.206-.152.307a1.065 1.065 0 0 1-.396.244 1.435 1.435 0 0 1-.53.095z" fill="#24719B"/>
    <path d="M148.694 59.033h.105c.123 0 .211-.027.264-.08.055-.052.083-.135.083-.247 0-.127-.011-.395-.033-.801-.02-.409-.039-.67-.056-.785l.313-.07c.013.115.029.383.049.805.022.42.033.696.033.828a.826.826 0 0 1-.079.37.613.613 0 0 1-.227.253.637.637 0 0 1-.34.09h-.112v-.363zM150.152 57.05c.018.126.032.326.043.6.011.273.017.527.017.763v.145c-.003.132.003.23.016.293.013.064.043.11.089.139.046.028.12.043.221.043h.017l.019.181-.019.181h-.017c-.233 0-.397-.06-.491-.181-.093-.123-.139-.318-.139-.584 0-.242-.006-.516-.02-.824a6.775 6.775 0 0 0-.049-.686l.313-.07z" fill="#24719B"/>
    <path d="M151.169 58.779c.137.092.26.165.37.217.109.053.194.08.253.08a.115.115 0 0 0 .053-.014.174.174 0 0 0 .076-.085.355.355 0 0 0 .026-.142.506.506 0 0 0-.079-.277c-.052-.084-.121-.126-.204-.126-.066 0-.136.045-.211.136-.073.09-.153.228-.241.415a.751.751 0 0 1-.26.31.677.677 0 0 1-.37.102h-.059l.007-.362h.059a.428.428 0 0 0 .244-.076.598.598 0 0 0 .191-.231c.097-.19.195-.339.294-.448a.469.469 0 0 1 .323-.175.432.432 0 0 1 .303.092.643.643 0 0 1 .201.27c.046.113.07.23.07.353 0 .121-.024.232-.07.333a.483.483 0 0 1-.204.225.312.312 0 0 1-.152.036c-.173 0-.427-.111-.762-.333l.142-.3zM125.594 59.428a3.852 3.852 0 0 1 0-.36c.202 0 .376-.012.521-.039.145-.028.256-.061.333-.099.077-.037.119-.071.125-.102-.015-.136-.079-.355-.191-.656l.274-.148c.046.107.09.24.132.395.041.156.062.286.062.39 0 .13-.053.241-.161.336a1.093 1.093 0 0 1-.445.21 2.637 2.637 0 0 1-.65.073zm-.854-1.164a1.302 1.302 0 0 0-.092.406c0 .024.001.043.003.056.017.108.108.192.27.254.165.06.399.089.703.089a3.066 3.066 0 0 1 0 .36c-.387.002-.69-.052-.907-.162-.218-.112-.336-.274-.356-.485a.67.67 0 0 1-.004-.076c0-.09.013-.186.037-.287.024-.103.054-.197.089-.28l.257.125zm.409-.168.158-.158.241.237c-.079.082-.16.162-.241.241l-.237-.24.079-.08zm.58 0 .158-.158.241.237c-.079.082-.159.162-.241.241l-.237-.24.079-.08zM128.578 57.05c.033.258.058.486.076.683a6.4 6.4 0 0 1 .026.587l-.003.162c-.009.319-.141.56-.396.725-.252.165-.575.26-.966.287l-.089-.346c.343-.033.619-.1.828-.201.209-.101.313-.256.313-.465 0-.22-.009-.43-.026-.63a17.442 17.442 0 0 0-.076-.732l.313-.07zm-1.174.288c.136.285.241.558.313.818.075.259.113.482.113.669a.96.96 0 0 1-.03.254l-.29.066a.587.587 0 0 0 .036-.225 2.2 2.2 0 0 0-.112-.62 7.035 7.035 0 0 0-.294-.781l.264-.181zM128.93 60.029c.36-.078.625-.18.794-.307a.568.568 0 0 0 .254-.475c0-.125-.016-.25-.049-.376a.892.892 0 0 0-.145-.313c-.062-.086-.135-.133-.218-.142-.048-.007-.096.01-.142.05a.433.433 0 0 0-.148.326.2.2 0 0 0 .026.109c.035.052.116.088.241.105.127.018.292.027.494.027h.324l.019.181-.019.181-.406.004c-.24 0-.434-.019-.584-.056a.458.458 0 0 1-.31-.241.608.608 0 0 1-.056-.26.913.913 0 0 1 .284-.65.423.423 0 0 1 .284-.116c.129 0 .245.057.346.172.103.112.182.257.237.435.057.176.086.353.086.531a.953.953 0 0 1-.32.725c-.211.198-.506.335-.884.41l-.108-.32z" fill="#24719B"/>
    <path d="m133.22 59.033.02.181-.02.181h-.02c-.275 0-.473-.005-.594-.016a.596.596 0 0 1-.283-.093l.138-.154c.317-.066.564-.1.742-.1h.017zm-2.905 0h.049a.461.461 0 0 0 .264-.07.476.476 0 0 0 .161-.224c.042-.101.075-.237.099-.409l.274.056a1.39 1.39 0 0 0-.016.221c0 .183.047.311.141.386.097.075.254.112.472.112.2 0 .378-.023.534-.07a.968.968 0 0 0 .363-.18c.088-.075.132-.153.132-.235 0-.07-.03-.128-.089-.174a.358.358 0 0 0-.238-.073c-.178 0-.359.078-.544.234-.182.154-.35.373-.504.656l-.225-.148c.172-.339.368-.603.587-.795.222-.193.442-.29.66-.29.119 0 .226.025.323.076a.54.54 0 0 1 .224.211.555.555 0 0 1 .083.3.66.66 0 0 1-.165.445 1.07 1.07 0 0 1-.458.297 1.92 1.92 0 0 1-.657.106c-.446 0-.719-.138-.817-.413a.668.668 0 0 1-.231.258.722.722 0 0 1-.376.085h-.046v-.362z" fill="#24719B"/>
    <path d="m135.716 59.033.02.181-.02.181h-.033c-.228-.002-.41-.048-.544-.138a.675.675 0 0 1-.273-.402l.197-.162a.398.398 0 0 0 .185.244.736.736 0 0 0 .393.096h.075zm-2.532 0h.283c.271 0 .524-.032.759-.096s.475-.16.719-.29a2.09 2.09 0 0 1 .214-.102c.075-.033.136-.056.185-.07l.01.195a1.414 1.414 0 0 1-.35-.05 2.302 2.302 0 0 1-.363-.148c-.204-.108-.377-.162-.517-.162a.404.404 0 0 0-.244.08.517.517 0 0 0-.162.181l-.211-.148a.924.924 0 0 1 .27-.34.588.588 0 0 1 .353-.115c.095 0 .184.016.267.049.086.03.206.086.36.165.143.072.257.126.343.161.085.036.181.064.287.086l.013.32a.791.791 0 0 0-.158.066c-.064.03-.133.067-.208.109-.301.16-.572.279-.811.356a2.553 2.553 0 0 1-.789.115h-.25v-.362z" fill="#24719B"/>
    <path d="M136.329 58.779c.136.092.26.165.37.217.109.053.194.08.253.08a.115.115 0 0 0 .053-.014.174.174 0 0 0 .076-.085.355.355 0 0 0 .026-.142.506.506 0 0 0-.079-.277c-.052-.084-.121-.126-.204-.126-.066 0-.136.045-.211.136-.073.09-.153.228-.241.415a.751.751 0 0 1-.26.31.677.677 0 0 1-.37.102h-.059l.006-.362h.06a.428.428 0 0 0 .244-.076.598.598 0 0 0 .191-.231c.097-.19.195-.339.294-.448a.469.469 0 0 1 .323-.175.432.432 0 0 1 .303.092.643.643 0 0 1 .201.27c.046.113.07.23.07.353 0 .121-.024.232-.07.333a.483.483 0 0 1-.204.225.312.312 0 0 1-.152.036c-.174 0-.427-.111-.762-.333l.142-.3zM106.703 60.325c-.194 0-.365-.036-.515-.109a.824.824 0 0 1-.352-.32.919.919 0 0 1-.129-.494c0-.132.022-.274.066-.426.046-.151.099-.288.158-.409l.254.119c-.055.123-.099.24-.132.353-.033.11-.049.216-.049.32 0 .2.06.35.181.451.121.104.294.155.518.155a1.31 1.31 0 0 0 .653-.171c.077-.046.124-.089.142-.129-.025-.04-.103-.1-.235-.184a2.387 2.387 0 0 0-.418-.211l.076-.343c.175.035.331.061.468.079.138.017.272.026.402.026h.069l.02.182-.02.181h-.069c-.145 0-.288-.01-.429-.03a11.66 11.66 0 0 1-.517-.095l.079-.228.072.033c.218.095.404.191.558.29.154.097.229.201.227.314-.002.103-.053.205-.151.306a1.066 1.066 0 0 1-.396.244c-.163.064-.34.096-.531.096z" fill="#24719B"/>
    <path d="M107.803 59.032h.172c.171 0 .294-.02.369-.062a.207.207 0 0 0 .112-.195c0-.06-.023-.16-.069-.303a2.308 2.308 0 0 0-.106-.3l.274-.149c.042.086.085.206.129.36.044.151.066.282.066.392 0 .205-.067.36-.202.465-.131.103-.323.155-.573.155h-.172v-.363zm.254-1.447c.086-.09.172-.176.257-.258.086.082.172.168.258.258l-.258.257-.257-.257zM109.403 57.05c.018.126.032.326.043.6.011.273.017.527.017.762v.145c-.003.132.003.23.016.294.013.064.043.11.089.138.046.029.12.043.221.043h.017l.019.182-.019.181h-.017c-.233 0-.397-.06-.491-.181-.093-.123-.139-.318-.139-.584 0-.242-.006-.517-.02-.824a6.773 6.773 0 0 0-.049-.686l.313-.07z" fill="#24719B"/>
    <path d="M109.774 59.032h.092c.414 0 .661-.066.742-.198.007-.02.01-.04.01-.062 0-.101-.06-.228-.181-.38a3.013 3.013 0 0 0-.508-.48l.036-.33 1.214-.518.099.29-1.006.435c.163.136.308.295.435.475.13.178.195.348.195.511a.569.569 0 0 1-.363.508c-.174.075-.398.112-.673.112h-.092v-.363zm.228-1.84 1.055-.445.049.139-1.121.474.017-.168zM110.914 60.038c.143-.053.272-.119.386-.198.117-.079.208-.161.274-.247.068-.084.102-.162.102-.234 0-.093-.058-.365-.175-.818l.29-.112c.051.156.092.32.123.494.032.172.049.317.049.436 0 .202-.085.392-.254.57a1.65 1.65 0 0 1-.653.419l-.142-.31zM112.096 60.038c.143-.053.272-.119.386-.198.117-.079.208-.161.274-.247.068-.084.102-.162.102-.234 0-.093-.058-.365-.175-.818l.29-.112c.051.156.092.32.122.494.033.172.05.317.05.436 0 .202-.085.392-.254.57a1.65 1.65 0 0 1-.653.419l-.142-.31zm.419-2.186c.086-.09.171-.176.257-.258.086.082.172.168.257.258l-.257.257-.257-.257zM113.796 57.05a7 7 0 0 1 .043.6c.011.273.016.527.016.762v.145c-.002.132.003.23.017.294.013.064.042.11.089.138a.432.432 0 0 0 .221.043h.016l.02.182-.02.181h-.016c-.233 0-.397-.06-.492-.181-.092-.123-.138-.318-.138-.584 0-.242-.007-.517-.02-.824a6.705 6.705 0 0 0-.05-.686l.314-.07z" fill="#24719B"/>
    <path d="M114.166 59.032h.172c.171 0 .294-.02.369-.062a.207.207 0 0 0 .112-.195c0-.06-.023-.16-.069-.303a2.52 2.52 0 0 0-.105-.3l.273-.149c.042.086.085.206.129.36.044.151.066.282.066.392 0 .205-.067.36-.201.465-.132.103-.323.155-.574.155h-.172v-.363zm-.009.91c.085-.09.171-.175.257-.257.085.081.171.167.257.257l-.257.258-.257-.258zM90.824 60.038a1.72 1.72 0 0 0 .386-.197 1.17 1.17 0 0 0 .274-.248c.068-.083.102-.161.102-.234 0-.092-.058-.365-.175-.818l.29-.112c.05.156.092.321.122.495.033.171.05.316.05.435 0 .202-.085.392-.254.57a1.65 1.65 0 0 1-.653.42l-.142-.31zM92.524 57.05c.017.126.032.326.043.6.01.273.016.527.016.763v.145c-.002.132.003.23.017.293.013.064.043.11.089.139.046.028.12.043.22.043h.017l.02.181-.02.181h-.016c-.233 0-.397-.06-.492-.181-.092-.123-.138-.318-.138-.584 0-.242-.007-.516-.02-.824a6.741 6.741 0 0 0-.05-.686l.314-.07z" fill="#24719B"/>
    <path d="M92.894 59.033h.027a.99.99 0 0 0 .36-.05.266.266 0 0 0 .158-.168.406.406 0 0 0 .013-.115c0-.07-.013-.187-.04-.35l.274-.056c.03.147.046.325.046.534.011.064.04.114.09.152.05.035.113.053.19.053h.023l.02.181-.02.181h-.023a.47.47 0 0 1-.287-.092.555.555 0 0 1-.18-.237l.075.013a.443.443 0 0 1-.244.244 1.186 1.186 0 0 1-.455.072h-.027v-.362zm-.052.913c.085-.09.171-.176.257-.257.086.081.171.167.257.257l-.257.257-.257-.257z" fill="#24719B"/>
    <path d="M93.999 59.033h.284c.27 0 .523-.032.758-.096s.475-.16.719-.29c.068-.038.14-.072.214-.102.075-.033.136-.056.185-.07l.01.195a1.41 1.41 0 0 1-.35-.05 2.3 2.3 0 0 1-.362-.148c-.205-.108-.378-.162-.518-.162a.405.405 0 0 0-.244.08.521.521 0 0 0-.162.181l-.21-.148a.918.918 0 0 1 .27-.34.585.585 0 0 1 .352-.115.72.72 0 0 1 .267.049c.086.03.206.086.36.165.143.072.257.126.343.161.086.036.181.064.287.086l.013.32a.817.817 0 0 0-.158.066c-.064.03-.133.067-.208.109-.301.16-.572.279-.811.356-.238.077-.5.115-.788.115h-.251v-.362zm.683-1.587c.085-.09.171-.175.257-.257.086.082.171.167.257.258l-.257.257-.257-.258zM96.562 59.376c.018-.132.026-.363.026-.693 0-.301-.007-.61-.023-.926a6.426 6.426 0 0 0-.046-.637l.313-.07c.016.11.031.327.047.65.015.324.023.636.023.937 0 .343-.011.601-.033.775l-.307-.036z" fill="#24719B"/>
    <path d="M163.857 46.865c-.002-.03-.002-.074-.002-.133 0-.061 0-.107.002-.136.152 0 .282-.01.391-.03.109-.022.192-.046.25-.074.057-.028.089-.054.094-.077a2.45 2.45 0 0 0-.144-.492l.205-.111c.035.08.068.18.099.296.032.117.047.215.047.292 0 .098-.04.182-.121.253a.82.82 0 0 1-.334.158 1.97 1.97 0 0 1-.487.054zm-.64-.873a.969.969 0 0 0-.07.304c0 .019.001.032.003.042.013.081.081.145.203.19.123.045.299.068.526.068a2.475 2.475 0 0 1 0 .27c-.29 0-.517-.04-.68-.122-.163-.084-.252-.205-.267-.364a.933.933 0 0 1 .025-.272 1.24 1.24 0 0 1 .067-.21l.193.094zm.306-.126.119-.119.181.178c-.06.061-.12.122-.181.18l-.178-.18.059-.059zm.436 0 .118-.119.181.178c-.06.061-.12.122-.181.18l-.178-.18.06-.059zM165.286 45.082c.014.094.024.244.033.45.008.205.012.395.012.571v.11c-.002.098.002.172.012.22a.15.15 0 0 0 .067.103c.035.022.09.032.166.032h.012l.015.136-.015.136h-.012c-.175 0-.298-.045-.369-.136-.069-.092-.104-.238-.104-.437 0-.182-.004-.388-.014-.619a5.46 5.46 0 0 0-.037-.514l.234-.052z" fill="#0074FF"/>
    <path d="M166.212 46.57c.152 0 .287-.016.404-.051a.723.723 0 0 0 .274-.136c.066-.056.099-.116.099-.178a.159.159 0 0 0-.064-.129.261.261 0 0 0-.173-.052c-.134 0-.273.063-.418.188a1.865 1.865 0 0 0-.399.517l-.168-.114c.137-.267.29-.475.46-.625.17-.15.337-.225.5-.225.089 0 .169.019.24.056a.428.428 0 0 1 .232.386.496.496 0 0 1-.126.334.816.816 0 0 1-.346.223 1.475 1.475 0 0 1-.492.076h-.671v-.272l.648.003zm-.262-.222c.005-.062.008-.137.008-.222 0-.165-.009-.351-.025-.56a4.441 4.441 0 0 0-.045-.43l.235-.054c.014.08.026.2.038.359.013.158.019.315.019.472 0 .145-.005.273-.017.383l-.213.052zM167.687 45.082c.013.094.024.244.032.45.009.205.013.395.013.571v.11c-.002.098.002.172.012.22a.15.15 0 0 0 .067.103c.034.022.09.032.166.032h.012l.015.136-.015.136h-.012c-.175 0-.298-.045-.369-.136-.069-.092-.104-.238-.104-.437 0-.182-.005-.388-.015-.619a4.847 4.847 0 0 0-.037-.514l.235-.052z" fill="#0074FF"/>
    <path d="M167.965 46.568h.02c.12 0 .21-.012.27-.037a.198.198 0 0 0 .118-.126.29.29 0 0 0 .01-.086c0-.053-.01-.14-.03-.263l.206-.042c.023.11.034.244.034.401a.18.18 0 0 0 .067.114c.038.026.086.04.144.04h.017l.015.135-.015.136h-.017a.356.356 0 0 1-.216-.069.42.42 0 0 1-.136-.178l.057.01a.33.33 0 0 1-.183.183.885.885 0 0 1-.341.054h-.02v-.272zm-.039.686c.064-.068.128-.132.193-.193.064.06.128.125.192.193l-.192.192-.193-.192z" fill="#0074FF"/>
    <path d="M168.796 46.568h.104c.173 0 .295-.015.366-.047.071-.033.106-.084.106-.153a.94.94 0 0 0-.052-.225 1.8 1.8 0 0 0-.081-.22l.205-.111c.033.066.065.154.096.264.033.11.05.207.05.29 0 .156-.054.275-.163.356-.109.079-.272.118-.49.118h-.141v-.272zm.116-1.132.119-.119.181.178c-.06.061-.12.121-.181.18l-.178-.18.059-.06zm.436 0 .118-.119.181.178c-.06.061-.12.121-.181.18l-.178-.18.06-.06zM169.506 47.323c.108-.04.204-.09.29-.149a.874.874 0 0 0 .205-.185c.051-.063.077-.121.077-.176 0-.069-.044-.274-.131-.613l.217-.084a2.748 2.748 0 0 1 .129.697.615.615 0 0 1-.191.428c-.125.135-.288.24-.489.314l-.107-.232zM170.578 46.826a4.6 4.6 0 0 0 .02-.52c0-.226-.006-.457-.017-.695a4.875 4.875 0 0 0-.035-.477l.235-.052c.012.082.023.245.035.487.011.243.017.477.017.703 0 .257-.008.45-.025.58l-.23-.026zM172.789 46.865l-.018-.136.013-.136h.03c.252 0 .444-.025.576-.074.133-.051.212-.13.235-.237 0-.088-.013-.176-.037-.265a.643.643 0 0 0-.107-.225c-.046-.061-.099-.092-.16-.092a.176.176 0 0 0-.107.037.273.273 0 0 0-.076.097.251.251 0 0 0-.028.114c0 .031.008.059.023.084.024.038.07.067.136.089a.84.84 0 0 0 .403.015v.25a1.08 1.08 0 0 1-.22.022.803.803 0 0 1-.305-.055.378.378 0 0 1-.19-.168.447.447 0 0 1-.047-.205c0-.086.018-.17.054-.25a.533.533 0 0 1 .154-.2.34.34 0 0 1 .217-.08c.093 0 .175.037.248.11.072.07.128.163.168.279a1.084 1.084 0 0 1 .057.428.547.547 0 0 1-.272.44c-.168.105-.411.159-.727.16l-.02-.002zm-.651-.873a.99.99 0 0 0-.069.304c0 .019.001.032.003.042.013.081.08.145.202.19.124.045.3.068.527.068.003.066.005.115.005.148 0 .028-.002.068-.005.121-.29.002-.517-.039-.68-.121-.163-.084-.252-.205-.267-.364a.937.937 0 0 1 .025-.272c.018-.077.04-.147.066-.21l.193.094zm.98-.907c.064-.068.128-.132.193-.193.064.06.128.125.193.192l-.193.193-.193-.193zM174.095 46.826a4.6 4.6 0 0 0 .02-.52c0-.226-.006-.457-.018-.695a4.986 4.986 0 0 0-.034-.477l.235-.052a14.217 14.217 0 0 1 .052 1.19c0 .257-.009.45-.025.58l-.23-.026zM175.265 46.84a.306.306 0 0 1-.25-.11.959.959 0 0 1-.151-.322l.166-.102a.502.502 0 0 0 .086.206.198.198 0 0 0 .149.056h.017l.015.136-.015.136h-.017zm-.945.483c.107-.04.204-.09.289-.149a.88.88 0 0 0 .206-.185.285.285 0 0 0 .076-.176c0-.069-.043-.274-.131-.613l.218-.084c.038.117.068.24.091.37.025.13.037.238.037.327a.613.613 0 0 1-.19.428c-.125.135-.289.24-.49.314l-.106-.232z" fill="#0074FF"/>
    <path d="M175.257 46.568h.069c.31 0 .495-.05.556-.148a.146.146 0 0 0 .008-.047c0-.076-.046-.17-.136-.284a2.29 2.29 0 0 0-.381-.361l.027-.248.91-.388.074.218-.754.326c.122.102.231.221.327.356a.66.66 0 0 1 .146.384.428.428 0 0 1-.273.38c-.13.056-.298.084-.504.084h-.069v-.272zm.17-1.38.792-.334.037.104-.841.357.012-.127z" fill="#0074FF"/>
    <path d="m61.52 34.614.451 1.068c.042.101.09.172.142.211a.371.371 0 0 0 .218.056h.036l.02.182-.02.181h-.036a.584.584 0 0 1-.363-.112.918.918 0 0 1-.257-.36l-.465-1.08.274-.146zm-.838 1.207c.086.048.167.088.244.119.08.028.175.043.287.043.22 0 .417-.073.59-.218l.162.22c-.057.06-.112.112-.165.156a.868.868 0 0 1-.224.125.86.86 0 0 1-.333.06c-.156 0-.29-.025-.403-.073a1.553 1.553 0 0 1-.303-.172l.145-.26z" fill="#fff"/>
    <path d="M62.335 35.95h.026c.172 0 .305-.008.4-.024a.526.526 0 0 0 .203-.066.226.226 0 0 0 .09-.128.436.436 0 0 0 .013-.122c0-.06-.006-.127-.017-.201a11.966 11.966 0 0 1-.02-.142l.274-.056c.031.147.046.325.046.534a.24.24 0 0 0 .086.152.324.324 0 0 0 .195.053h.023l.02.18-.02.182h-.023a.47.47 0 0 1-.287-.092.556.556 0 0 1-.182-.237l.073.013a.439.439 0 0 1-.267.247c-.13.046-.332.07-.607.07h-.026v-.364zm-.122.82.158-.158.24.238c-.078.081-.159.161-.24.24l-.238-.24.08-.08zm.583 0 .159-.158.24.238c-.079.081-.159.161-.24.24l-.238-.24.08-.08z" fill="#fff"/>
    <path d="M63.62 35.95h.026c.16 0 .28-.017.36-.05a.266.266 0 0 0 .158-.168.406.406 0 0 0 .013-.115c0-.07-.013-.187-.04-.35l.274-.056c.03.147.046.325.046.534.011.064.04.114.09.152.05.035.114.053.19.053h.023l.02.18-.02.182h-.023a.47.47 0 0 1-.286-.092.555.555 0 0 1-.182-.237l.076.013a.443.443 0 0 1-.244.244 1.186 1.186 0 0 1-.455.072h-.026v-.362zm.168-1.257c.086-.09.171-.176.257-.257.086.081.171.167.257.257l-.257.257-.257-.257z" fill="#fff"/>
    <path d="m66.231 34.218-1.006.436c.16.136.31.3.446.494s.204.376.204.548a.477.477 0 0 1-.023.151c-.05.156-.166.273-.346.35-.178.077-.407.115-.686.115h-.093v-.362h.093c.209 0 .377-.018.504-.053.13-.038.212-.09.248-.158a.284.284 0 0 0 .006-.053c0-.11-.06-.244-.181-.403a2.96 2.96 0 0 0-.515-.507l.04-.33 1.21-.521.099.293zM69.034 33.968c.028.266.061.945.099 2.038.01.36-.07.64-.244.84-.172.203-.419.304-.742.304-.172 0-.328-.035-.469-.106a.814.814 0 0 1-.336-.296.804.804 0 0 1-.122-.442c0-.121.021-.256.063-.406a2.24 2.24 0 0 1 .158-.406l.254.12c-.057.12-.101.233-.132.339-.03.103-.046.205-.046.306 0 .159.057.286.171.383a.676.676 0 0 0 .459.148c.483 0 .715-.256.696-.768a50.361 50.361 0 0 0-.06-1.194c-.02-.35-.04-.613-.06-.791l.31-.07zM69.79 33.968c.017.125.031.325.042.6.011.272.017.526.017.762v.145c-.003.132.003.23.016.293.013.064.043.11.09.139.045.028.119.043.22.043h.017l.02.18-.02.182h-.017c-.233 0-.397-.06-.491-.181-.093-.123-.139-.318-.139-.584 0-.242-.006-.516-.02-.824a6.739 6.739 0 0 0-.049-.686l.313-.07z" fill="#fff"/>
    <path d="M70.16 35.95h.026c.16 0 .28-.017.36-.05a.266.266 0 0 0 .158-.168.41.41 0 0 0 .013-.115c0-.07-.013-.187-.04-.35l.274-.056c.031.147.047.325.047.534.01.064.04.114.089.152.05.035.114.053.19.053h.024l.02.18-.02.182h-.023a.47.47 0 0 1-.287-.092.555.555 0 0 1-.181-.237l.075.013a.443.443 0 0 1-.244.244 1.186 1.186 0 0 1-.455.072h-.026v-.362zm-.053.913c.086-.09.172-.176.257-.257.086.081.172.167.258.257l-.258.257-.257-.257z" fill="#fff"/>
    <path d="M71.268 35.95h.171c.172 0 .295-.021.37-.063a.208.208 0 0 0 .112-.195c0-.06-.023-.16-.07-.303a2.427 2.427 0 0 0-.105-.3l.274-.148a2.3 2.3 0 0 1 .128.359c.044.152.066.282.066.392 0 .205-.067.36-.201.465-.132.104-.323.155-.574.155h-.171v-.362zm.254-1.448a7.01 7.01 0 0 1 .257-.257c.086.081.171.167.257.257l-.257.257-.257-.257zM72.588 35.82c.085.047.17.086.254.116.083.029.19.043.32.043a.77.77 0 0 0 .29-.046c.076-.03.127-.066.151-.105a.179.179 0 0 0 .01-.063c0-.095-.056-.216-.168-.363a2.33 2.33 0 0 0-.518-.478l.178-.313a2.5 2.5 0 0 1 .58.58c.144.202.215.391.215.567 0 .084-.015.16-.046.228a.497.497 0 0 1-.25.25.915.915 0 0 1-.41.09c-.178 0-.33-.026-.455-.076a1.087 1.087 0 0 1-.297-.169l.146-.26z" fill="#fff"/>
    <rect x="50.945" y="67.639" width="159.107" height="46.166" rx="2" fill="#fff"/>
    <rect x="93.814" y="117.103" width="116.239" height="42.044" rx="2" fill="#fff"/>
    <rect x="187.795" y="74.234" width="15.663" height="1.649" rx=".824" fill="#63AFD8"/>
    <rect x="187.795" y="82.478" width="15.663" height="1.649" rx=".824" fill="#63AFD8"/>
    <rect x="187.795" y="90.722" width="15.663" height="1.649" rx=".824" fill="#63AFD8"/>
    <rect x="187.795" y="98.966" width="15.663" height="1.649" rx=".824" fill="#63AFD8"/>
    <rect x="177.078" y="77.531" width="26.381" height="1.649" rx=".824" fill="#D9E6ED"/>
    <rect x="177.078" y="85.775" width="26.381" height="1.649" rx=".824" fill="#D9E6ED"/>
    <rect x="177.078" y="94.019" width="26.381" height="1.649" rx=".824" fill="#D9E6ED"/>
    <rect x="177.078" y="102.264" width="26.381" height="1.649" rx=".824" fill="#D9E6ED"/>
    <rect x="139.98" y="74.234" width="16.488" height="1.649" rx=".824" fill="#63AFD8"/>
    <rect x="114.424" y="74.234" width="16.488" height="1.649" rx=".824" fill="#63AFD8"/>
    <rect x="139.98" y="82.478" width="16.488" height="1.649" rx=".824" fill="#63AFD8"/>
    <rect x="114.424" y="82.478" width="16.488" height="1.649" rx=".824" fill="#63AFD8"/>
    <rect x="139.98" y="90.723" width="16.488" height="1.649" rx=".824" fill="#63AFD8"/>
    <rect x="114.424" y="90.723" width="16.488" height="1.649" rx=".824" fill="#63AFD8"/>
    <rect x="139.98" y="98.966" width="16.488" height="1.649" rx=".824" fill="#63AFD8"/>
    <rect x="114.424" y="98.966" width="16.488" height="1.649" rx=".824" fill="#63AFD8"/>
    <rect x="138.332" y="77.532" width="18.137" height="1.649" rx=".824" fill="#D9E6ED"/>
    <rect x="112.775" y="77.532" width="18.137" height="1.649" rx=".824" fill="#D9E6ED"/>
    <rect x="138.332" y="85.775" width="18.137" height="1.649" rx=".824" fill="#D9E6ED"/>
    <rect x="112.775" y="85.775" width="18.137" height="1.649" rx=".824" fill="#D9E6ED"/>
    <rect x="138.332" y="94.019" width="18.137" height="1.649" rx=".824" fill="#D9E6ED"/>
    <rect x="112.775" y="94.019" width="18.137" height="1.649" rx=".824" fill="#D9E6ED"/>
    <rect x="138.332" y="102.264" width="18.137" height="1.649" rx=".824" fill="#D9E6ED"/>
    <rect x="112.775" y="102.264" width="18.137" height="1.649" rx=".824" fill="#D9E6ED"/>
    <rect x="50.945" y="117.103" width="39.571" height="42.044" rx="2" fill="#fff"/>
    <rect x="55.893" y="122.049" width="29.678" height="1.649" rx=".824" fill="#63AFD8"/>
    <rect x="55.893" y="130.293" width="29.678" height="1.649" rx=".824" fill="#63AFD8"/>
    <rect x="55.893" y="138.537" width="29.678" height="1.649" rx=".824" fill="#63AFD8"/>
    <rect x="55.893" y="146.78" width="29.678" height="1.649" rx=".824" fill="#63AFD8"/>
    <rect x="63.313" y="125.347" width="22.259" height="1.649" rx=".824" fill="#D9E6ED"/>
    <rect x="63.313" y="133.591" width="22.259" height="1.649" rx=".824" fill="#D9E6ED"/>
    <rect x="63.313" y="141.834" width="22.259" height="1.649" rx=".824" fill="#D9E6ED"/>
    <rect x="63.313" y="150.078" width="22.259" height="1.649" rx=".824" fill="#D9E6ED"/>
    <rect x="78.152" y="74.234" width="15.663" height="1.649" rx=".824" fill="#63AFD8"/>
    <rect x="55.895" y="77.532" width="37.922" height="1.649" rx=".824" fill="#D9E6ED"/>
    <rect x="78.152" y="82.478" width="15.663" height="1.649" rx=".824" fill="#63AFD8"/>
    <rect x="55.895" y="85.776" width="37.922" height="1.649" rx=".824" fill="#D9E6ED"/>
    <rect x="78.152" y="90.722" width="15.663" height="1.649" rx=".824" fill="#63AFD8"/>
    <rect x="55.895" y="94.019" width="37.922" height="1.649" rx=".824" fill="#D9E6ED"/>
    <rect x="78.152" y="98.966" width="15.663" height="1.649" rx=".824" fill="#63AFD8"/>
    <rect x="55.895" y="102.264" width="37.922" height="1.649" rx=".824" fill="#D9E6ED"/>
    <rect x="124.318" y="122.049" width="79.141" height="2.473" rx="1.237" fill="#63AFD7"/>
    <rect x="99.586" y="131.941" width="103.873" height="1.649" rx=".824" fill="#D9E6ED"/>
    <rect x="99.586" y="140.186" width="103.873" height="1.649" rx=".824" fill="#D9E6ED"/>
    <rect x="151.521" y="148.43" width="51.937" height="1.649" rx=".824" fill="#D9E6ED"/>
    <rect x="99.586" y="127.819" width="103.873" height="1.649" rx=".824" fill="#D9E6ED"/>
    <rect x="99.586" y="136.063" width="103.873" height="1.649" rx=".824" fill="#D9E6ED"/>
    <rect x="99.586" y="144.308" width="103.873" height="1.649" rx=".824" fill="#D9E6ED"/>
    <path d="M197.962 36.587V33.29c0-.605-.495-1.1-1.099-1.1h-3.298c-.604 0-1.099.495-1.099 1.1v1.099h-1.099c-.605 0-1.099.494-1.099 1.099v5.496c0 .605.494 1.1 1.099 1.1h2.748a.55.55 0 0 0 .549-.55v-1.65h1.1v1.65c0 .302.247.55.549.55h2.748c.605 0 1.099-.495 1.099-1.1v-3.298c0-.604-.494-1.099-1.099-1.099h-1.099zm-5.496 4.397h-1.099v-1.1h1.099v1.1zm0-2.198h-1.099v-1.1h1.099v1.1zm0-2.199h-1.099v-1.099h1.099v1.1zm2.198 2.199h-1.099v-1.1h1.099v1.1zm0-2.199h-1.099v-1.099h1.099v1.1zm0-2.198h-1.099v-1.1h1.099v1.1zm2.199 4.397h-1.099v-1.1h1.099v1.1zm0-2.199h-1.099v-1.099h1.099v1.1zm0-2.198h-1.099v-1.1h1.099v1.1zm2.198 6.595h-1.099v-1.1h1.099v1.1zm0-2.198h-1.099v-1.1h1.099v1.1z" fill="#6868FA"/>
    <rect x="202" y="107.797" width="46.203" height="11.239" rx="2" fill="#83B9F9"/>
    <rect x="202.797" y="107" width="46.203" height="11.239" rx="2" fill="#fff"/>
    <rect x="207.791" y="111.995" width="28.721" height="1.249" rx=".624" fill="#D9E6ED"/>
    <g clip-path="url(#a)">
        <path d="M243.38 109.497c-1.311 0-2.497 1.005-2.497 2.56 0 .993.765 2.16 2.291 3.506a.317.317 0 0 0 .415 0c1.524-1.346 2.289-2.513 2.289-3.506 0-1.555-1.187-2.56-2.498-2.56zm0 3.122a.626.626 0 0 1-.624-.624c0-.344.281-.625.624-.625.344 0 .625.281.625.625a.626.626 0 0 1-.625.624z" fill="#0074FF"/>
    </g>
    <rect x="196" y="68.086" width="48.169" height="11.717" rx="2" fill="#83B9F9"/>
    <rect x="196.832" y="67.256" width="48.169" height="11.717" rx="2" fill="#fff"/>
    <rect x="202.037" y="72.463" width="29.943" height="1.302" rx=".651" fill="#D9E6ED"/>
    <g clip-path="url(#b)">
        <path d="m241.495 74.826-.827-.094a.648.648 0 0 0-.534.185l-.599.599a4.9 4.9 0 0 1-2.145-2.145l.602-.602a.647.647 0 0 0 .186-.534l-.094-.82a.652.652 0 0 0-.648-.576h-.563a.646.646 0 0 0-.651.674 5.53 5.53 0 0 0 5.172 5.171.646.646 0 0 0 .673-.65v-.564a.644.644 0 0 0-.572-.644z" fill="#0074FF"/>
    </g>
    <rect x="14.797" y="55.333" width="46.203" height="11.239" rx="2" fill="#83B9F9"/>
    <rect x="14" y="54.536" width="46.203" height="11.239" rx="2" fill="#fff"/>
    <rect x="18.994" y="59.531" width="28.721" height="1.249" rx=".624" fill="#D9E6ED"/>
    <g clip-path="url(#c)">
        <path d="M57.082 57.658h-4.995a.624.624 0 0 0-.621.625l-.003 3.746c0 .343.28.624.624.624h4.995a.626.626 0 0 0 .625-.624v-3.746a.626.626 0 0 0-.625-.625zm-.125 1.327-2.207 1.38a.315.315 0 0 1-.33 0l-2.208-1.38a.265.265 0 1 1 .281-.45l2.092 1.309 2.091-1.309a.265.265 0 1 1 .281.45z" fill="#0074FF"/>
    </g>
    <defs>
        <clipPath id="a">
            <path fill="#fff" transform="translate(239.635 108.873)" d="M0 0h7.492v7.492H0z"/>
        </clipPath>
        <clipPath id="b">
            <path fill="#fff" transform="translate(235.236 69.86)" d="M0 0h7.811v7.811H0z"/>
        </clipPath>
        <clipPath id="c">
            <path fill="#fff" transform="translate(50.838 56.41)" d="M0 0h7.492v7.492H0z"/>
        </clipPath>
    </defs>
</svg>
