<svg width="260" height="182" viewBox="0 0 260 182" fill="none" xmlns="http://www.w3.org/2000/svg">
    <rect width="260" height="182" rx="8" fill="#7E8EC8"/>
    <path d="M124.692 13H45.308A3.306 3.306 0 0 0 42 16.304v118.392A3.306 3.306 0 0 0 45.308 138h79.384a3.306 3.306 0 0 0 3.308-3.304V16.304A3.306 3.306 0 0 0 124.692 13z" fill="#fff"/>
    <path d="M108.957 21.315c.037.268.066.631.088 1.09.022.455.033.878.033 1.267v.209a1.84 1.84 0 0 0 .028.424.305.305 0 0 0 .132.204c.07.04.177.06.32.06h.027l.045.413-.045.408h-.027c-.404 0-.697-.116-.877-.347-.176-.231-.264-.584-.264-1.057a30.4 30.4 0 0 0-.044-1.372c-.022-.466-.055-.85-.1-1.15l.684-.15zm.581 3.254h.088c.588 0 1.021-.042 1.301-.126.283-.085.439-.22.468-.408l.006-.055a.48.48 0 0 0-.121-.314.48.48 0 0 0-.342-.181.48.48 0 0 0-.331.143.441.441 0 0 0-.149.325c0 .124.081.242.243.352.165.11.367.198.606.264.239.063.461.094.667.094a.882.882 0 0 0 .375-.066c.095-.044.143-.11.143-.198 0-.35-.838-.753-2.513-1.212l.303-.76c.724.22 1.29.432 1.698.634.408.198.694.394.86.589a.96.96 0 0 1 .248.633c0 .14-.032.312-.094.518a.693.693 0 0 1-.386.43 1.623 1.623 0 0 1-.711.142c-.309 0-.621-.055-.937-.165a2.22 2.22 0 0 1-.788-.468c-.206-.202-.309-.428-.309-.677 0-.04.007-.101.022-.182.048-.231.128-.439.242-.622.118-.184.256-.323.414-.419a.8.8 0 0 1 .502-.115.76.76 0 0 1 .441.198c.135.117.242.266.319.446a1.4 1.4 0 0 1 .1.754c-.048.32-.159.571-.331.755-.173.183-.418.315-.733.396-.313.077-.717.116-1.213.116h-.088v-.82zm5.468.82a.753.753 0 0 1-.606-.274c-.155-.184-.284-.441-.386-.771l.496-.303c.051.194.114.332.187.413a.408.408 0 0 0 .309.115h.05l.044.413-.044.408h-.05zm-2.222.915c.243-.1.465-.215.667-.347.202-.129.36-.257.474-.386.118-.128.177-.238.177-.33 0-.15-.098-.56-.292-1.228l-.028-.11.618-.242c.088.253.157.525.209.815.051.286.077.541.077.765 0 .36-.141.692-.424.997-.283.308-.664.561-1.141.76l-.337-.694zm2.223-1.735h.039c.33 0 .577-.016.738-.05.162-.036.269-.09.32-.159a.501.501 0 0 0 .077-.303c0-.106-.018-.28-.055-.523l.568-.11c.052.268.077.57.077.909a.288.288 0 0 0 .121.165.488.488 0 0 0 .287.071h.033l.044.413-.044.408h-.033a.85.85 0 0 1-.468-.138 1.04 1.04 0 0 1-.337-.358l.138.028c-.099.169-.261.29-.485.363-.221.07-.548.105-.981.105h-.039v-.82zm.436-2.461.457.462c-.099.103-.2.204-.303.303l-.154.154-.226-.23-.232-.227.458-.462zm.964 0 .458.462c-.099.103-.2.204-.303.303l-.155.154-.226-.23-.231-.227.457-.462zm2.468 2.461.044.413-.044.408h-.055a.852.852 0 0 1-.507-.17 1.23 1.23 0 0 1-.375-.463 1.436 1.436 0 0 1-.143-.645c-.011-.26-.033-.7-.067-1.316a34.185 34.185 0 0 0-.088-1.321l.689-.155c.03.298.061.971.094 2.021l.033.777c.007.161.04.277.099.347.063.07.151.104.265.104h.055zm-1.72 0h.116c.187 0 .321-.033.402-.099.085-.07.125-.189.122-.358l.49.06c0 .357-.088.649-.264.876-.177.228-.421.342-.734.342h-.132v-.82zm1.664 0h.038c.331 0 .577-.016.739-.05.162-.036.268-.09.32-.159a.508.508 0 0 0 .077-.303c0-.106-.019-.28-.055-.523l.568-.11c.051.268.077.57.077.909a.284.284 0 0 0 .121.165.486.486 0 0 0 .287.071h.033l.044.413-.044.408h-.033a.853.853 0 0 1-.469-.138 1.047 1.047 0 0 1-.336-.358l.138.028a.839.839 0 0 1-.485.363c-.221.07-.548.105-.982.105h-.038v-.82zm0 1.283.457.463c-.099.103-.2.204-.303.303l-.154.154-.226-.231-.232-.226.458-.463zm.964 0 .458.463c-.099.103-.2.204-.303.303l-.155.154-.226-.231-.231-.226.457-.463zm1.184-1.283h.082c.401 0 .725-.016.971-.05.25-.036.443-.098.579-.186a.511.511 0 0 0 .237-.386c0-.198-.03-.395-.089-.59a1.346 1.346 0 0 0-.242-.484c-.099-.125-.212-.187-.336-.187a.363.363 0 0 0-.293.154.494.494 0 0 0-.121.314c0 .059.013.107.039.143.055.07.156.127.303.171a2.164 2.164 0 0 0 .876.027v.733c-.183.04-.362.06-.534.06-.261 0-.495-.045-.7-.137a.862.862 0 0 1-.436-.402 1.117 1.117 0 0 1-.099-.474c0-.209.044-.413.132-.611.088-.198.211-.36.369-.485a.812.812 0 0 1 .524-.192c.217 0 .412.086.585.259.172.168.306.392.402.671.099.28.149.575.149.887 0 .507-.191.898-.574 1.173-.378.275-.962.413-1.753.413h-.071v-.82zm.639-3.441.513-.507.507.507-.171.17c-.11.114-.222.226-.336.336l-.513-.506z" fill="#151617"/>
    <path d="M128 32.411H42" stroke="#98C7FF" stroke-width=".4"/>
    <path d="M83.276 85.137c-.164.34-.247.637-.247.89 0 .267.081.47.243.608.162.138.392.207.692.207.227 0 .42-.041.578-.124a.822.822 0 0 0 .353-.312.741.741 0 0 0 .119-.401c0-.127-.027-.292-.08-.498a7.774 7.774 0 0 0-.176-.59l.375-.18c.088.255.153.485.194.69.044.206.066.398.066.578a1.286 1.286 0 0 1-.67 1.132c-.215.126-.468.19-.759.19-.276 0-.514-.056-.714-.168a1.135 1.135 0 0 1-.459-.445 1.3 1.3 0 0 1-.154-.634c0-.177.03-.365.088-.564.059-.2.128-.38.207-.538l.344.159zm.437-.357c.115-.12.23-.235.344-.344.114.11.23.224.344.344l-.344.344-.344-.344zm2.149 1.432c.023-.176.035-.485.035-.925 0-.403-.01-.815-.03-1.238a8.607 8.607 0 0 0-.063-.85l.42-.093c.02.147.04.436.061.868.02.432.031.849.031 1.251 0 .458-.015.803-.044 1.035l-.41-.048zm2.175-2.243.604 1.428c.056.135.12.229.19.282.07.05.167.075.29.075h.05l.026.242-.027.242h-.048a.782.782 0 0 1-.485-.15c-.133-.102-.247-.262-.344-.48l-.622-1.445.366-.194zm-1.12 1.613c.114.065.223.117.326.159.106.038.234.057.384.057a1.2 1.2 0 0 0 .79-.291l.215.295c-.076.08-.15.148-.22.207s-.17.115-.3.168a1.15 1.15 0 0 1-.446.079c-.208 0-.388-.032-.538-.097a2.08 2.08 0 0 1-.406-.23l.195-.347zm2.21.172h.035c.215 0 .375-.022.48-.066a.356.356 0 0 0 .212-.225.54.54 0 0 0 .018-.154c0-.094-.018-.25-.053-.467l.366-.075c.041.197.062.435.062.714a.313.313 0 0 0 .119.202c.067.047.153.07.256.07h.03l.027.243-.026.242h-.031a.63.63 0 0 1-.384-.123.742.742 0 0 1-.242-.317l.1.017a.592.592 0 0 1-.325.326c-.153.065-.356.097-.609.097h-.035v-.484zm.225-1.679c.114-.12.229-.235.344-.343.114.108.229.223.344.343l-.344.344-.344-.344zm2.12 1.34c.183.123.348.22.495.29.147.07.26.106.34.106a.155.155 0 0 0 .07-.018.23.23 0 0 0 .101-.114.486.486 0 0 0 .035-.19.678.678 0 0 0-.105-.37c-.07-.111-.162-.167-.274-.167-.088 0-.182.06-.282.18-.097.12-.204.306-.322.556a.997.997 0 0 1-.348.414.905.905 0 0 1-.494.136h-.08l.01-.484h.079a.572.572 0 0 0 .326-.102.8.8 0 0 0 .256-.308c.129-.252.26-.452.392-.6.132-.146.277-.224.432-.233a.578.578 0 0 1 .406.124.86.86 0 0 1 .27.361c.06.15.092.307.092.471 0 .162-.031.31-.093.445a.646.646 0 0 1-.273.3.416.416 0 0 1-.203.048c-.233 0-.572-.148-1.019-.445l.19-.4zm1.239 1.682a2.31 2.31 0 0 0 .516-.264 1.57 1.57 0 0 0 .366-.33c.09-.112.136-.216.136-.313 0-.124-.078-.488-.233-1.093l.388-.15c.067.209.121.43.163.661.044.23.066.423.066.582 0 .27-.113.524-.34.762-.223.24-.514.427-.873.56l-.19-.415zm2.273-3.99c.023.166.042.434.057.8.014.365.022.704.022 1.019v.193c-.003.177.004.307.022.392a.27.27 0 0 0 .119.185c.062.039.16.058.296.058h.022l.026.242-.026.242h-.023c-.311 0-.53-.08-.657-.242-.123-.164-.185-.424-.185-.78 0-.323-.009-.69-.026-1.101a8.94 8.94 0 0 0-.067-.916l.42-.093zm2.464.334-1.346.581c.215.182.413.403.596.661.182.259.273.502.273.731 0 .074-.01.141-.03.203-.069.209-.223.364-.464.467-.238.103-.544.154-.917.154h-.124v-.484h.124c.28 0 .504-.024.675-.07.173-.05.283-.121.33-.212a.385.385 0 0 0 .01-.07c0-.148-.082-.327-.243-.538a3.968 3.968 0 0 0-.688-.679l.053-.44 1.618-.696.133.392zm1.278 3.643c.482-.103.837-.24 1.063-.41.226-.167.34-.379.34-.634a2.12 2.12 0 0 0-.071-.502 1.173 1.173 0 0 0-.194-.419c-.082-.114-.178-.177-.287-.19-.064-.008-.128.014-.19.067a.603.603 0 0 0-.198.436c0 .062.012.11.035.145a.442.442 0 0 0 .243.155 1.5 1.5 0 0 0 .397.048c.12 0 .243-.012.366-.035v.454c-.132.035-.28.052-.441.052-.2 0-.38-.032-.542-.096a.638.638 0 0 1-.344-.309.805.805 0 0 1-.075-.348 1.207 1.207 0 0 1 .379-.868.567.567 0 0 1 .38-.154c.172 0 .327.076.462.23.138.149.244.343.318.58.076.236.114.472.114.71 0 .382-.142.705-.427.97-.283.263-.677.445-1.182.545l-.146-.427zm4.359-2.427c-.315.261-.482.499-.503.713a.333.333 0 0 0-.004.062c0 .106.037.19.11.256a.518.518 0 0 0 .331.092.583.583 0 0 0 .326-.084.3.3 0 0 0 .146-.224c-.003-.162-.083-.322-.239-.48-.155-.162-.404-.347-.745-.556l.243-.378c.373.22.651.441.833.665.185.22.278.454.278.7a.804.804 0 0 1-.423.723.9.9 0 0 1-.437.105c-.25 0-.447-.069-.591-.207a.708.708 0 0 1-.212-.528c0-.083.011-.16.031-.234.044-.176.119-.339.225-.489.106-.15.236-.298.388-.445l.243.309zm2.254 1.581a.546.546 0 0 1-.445-.198 1.723 1.723 0 0 1-.269-.573l.295-.18c.041.173.093.295.154.365a.35.35 0 0 0 .265.102h.031l.026.242-.026.242h-.031zm-1.685.86a2.31 2.31 0 0 0 .516-.265 1.56 1.56 0 0 0 .366-.33c.092-.112.137-.216.137-.313 0-.124-.078-.488-.234-1.093l.388-.15c.068.209.123.43.164.661.044.23.066.423.066.582 0 .27-.113.524-.34.762a2.2 2.2 0 0 1-.873.56l-.19-.415zm1.786-1.344h.185c.309 0 .526-.028.653-.084.126-.059.189-.15.189-.273a1.77 1.77 0 0 0-.092-.401 3.072 3.072 0 0 0-.146-.392l.366-.198c.059.117.116.274.172.471.059.197.088.369.088.515 0 .28-.097.49-.291.635-.194.14-.485.211-.873.211h-.251v-.484zm.031 1.097.211-.212.322.317c-.106.11-.213.216-.322.322l-.317-.322.106-.105zm.78 0 .212-.212.322.317c-.106.11-.214.216-.322.322l-.318-.322.106-.105zm-.913-.613-.026-.242.026-.242h.146v.484h-.146zm3.139-2.269.604 1.428c.056.135.12.229.19.282a.5.5 0 0 0 .291.075h.049l.026.242-.026.242h-.049a.781.781 0 0 1-.485-.15c-.132-.102-.247-.262-.344-.48l-.622-1.445.366-.194zm-1.12 1.613c.115.065.224.117.326.159.106.038.234.057.384.057.294 0 .557-.097.79-.291l.216.295c-.077.08-.15.148-.221.207a1.16 1.16 0 0 1-.3.168c-.126.052-.275.079-.445.079-.209 0-.388-.032-.538-.097a2.068 2.068 0 0 1-.406-.23l.194-.347zm3.075-.167c.182.123.347.22.493.29.147.07.261.106.34.106a.156.156 0 0 0 .071-.018.227.227 0 0 0 .101-.114.476.476 0 0 0 .035-.19.682.682 0 0 0-.105-.37c-.071-.111-.162-.167-.274-.167-.088 0-.182.06-.282.18-.097.12-.204.306-.322.556a.991.991 0 0 1-.349.414.902.902 0 0 1-.493.136h-.08l.009-.484h.079a.573.573 0 0 0 .327-.102c.1-.067.185-.17.255-.308.13-.252.261-.452.393-.6.132-.146.276-.224.432-.233a.578.578 0 0 1 .406.124.86.86 0 0 1 .269.361c.062.15.093.307.093.471 0 .162-.031.31-.093.445a.65.65 0 0 1-.273.3.418.418 0 0 1-.203.048c-.233 0-.572-.148-1.019-.445l.19-.4zm4.769.867a6.425 6.425 0 0 1 0-.48c.368 0 .662-.028.882-.084.224-.058.399-.148.525-.268.126-.124.225-.29.296-.498l.37.044a1.356 1.356 0 0 0-.079.41c0 .232.117.348.352.348l.027.242-.027.242a.676.676 0 0 1-.485-.185.634.634 0 0 1-.185-.484l.088.008a1.384 1.384 0 0 1-.683.542c-.286.11-.646.163-1.081.163zm-1.151-1.555c-.082.232-.123.413-.123.542 0 .032.001.057.004.075.023.144.144.257.362.34.22.079.533.118.939.118.006.118.009.206.009.264 0 .05-.003.122-.009.216-.518.003-.922-.069-1.213-.216-.291-.15-.45-.365-.476-.647a1.666 1.666 0 0 1 .044-.485c.032-.138.072-.263.119-.374l.344.167zm.679-.233.212-.212.322.318c-.106.108-.213.215-.322.321l-.318-.322.106-.105zm.777 0 .211-.212.322.318c-.106.108-.213.215-.322.321l-.317-.322.106-.105zm3.516 1.26.026.242-.026.242H119a.771.771 0 0 1-.454-.132.702.702 0 0 1-.256-.405l-.146-.643-.039-.19.357-.114c.065.302.121.537.167.704.03.1.075.175.137.225.062.047.14.07.234.07h.022zm-.437-.287c-.038.268-.144.463-.317.586-.171.124-.418.185-.741.185h-.027v-.484h.027c.235 0 .413-.03.533-.088.124-.06.193-.147.208-.265l.317.066zm-.41-1.158a.57.57 0 0 1-.326-.141.378.378 0 0 1-.133-.291c0-.097.03-.185.089-.264a.373.373 0 0 1 .225-.154.546.546 0 0 1 .114-.014c.083 0 .184.02.305.058l-.067.242a.745.745 0 0 0-.247-.049.218.218 0 0 0-.154.058.172.172 0 0 0-.062.127c0 .03.012.06.036.093a.251.251 0 0 0 .101.08c.047.017.1.021.159.012l-.04.243zm-.591-.053.944-.3v.247l-.944.3v-.247zm1.394 1.498h.035c.229 0 .407-.01.534-.031a.705.705 0 0 0 .273-.088.297.297 0 0 0 .119-.172.571.571 0 0 0 .018-.163c0-.08-.008-.169-.022-.269a15.971 15.971 0 0 1-.027-.19l.366-.074c.041.197.062.435.062.714a.321.321 0 0 0 .115.202.43.43 0 0 0 .26.07h.031l.026.243-.026.242h-.031a.632.632 0 0 1-.384-.123.74.74 0 0 1-.242-.317l.097.017a.589.589 0 0 1-.357.33c-.174.062-.445.093-.812.093h-.035v-.484zm-.163 1.097.211-.212.322.317c-.106.11-.213.216-.322.322l-.317-.322.106-.105zm.78 0 .212-.212.322.317c-.106.11-.213.216-.322.322l-.318-.322.106-.105zm1.11-1.097h.062c.502 0 .865-.046 1.089-.137.224-.094.335-.24.335-.436a.501.501 0 0 0-.106-.317.325.325 0 0 0-.269-.137.363.363 0 0 0-.198.066.566.566 0 0 0-.163.172.397.397 0 0 0-.066.212c0 .111.063.217.189.317.127.097.284.176.472.238.191.058.371.088.538.088.138 0 .25-.022.335-.066.085-.047.128-.116.128-.207 0-.153-.156-.32-.467-.503-.312-.182-.782-.358-1.412-.528l.172-.45c.544.177.968.344 1.271.503.305.158.517.31.635.453a.706.706 0 0 1 .176.45c0 .097-.019.205-.057.326a.545.545 0 0 1-.296.33c-.147.074-.325.11-.533.11-.233 0-.468-.042-.706-.127a1.633 1.633 0 0 1-.591-.353.688.688 0 0 1-.225-.581 1.12 1.12 0 0 1 .154-.437c.083-.137.183-.248.3-.33a.612.612 0 0 1 .362-.128c.126 0 .244.043.353.128a.83.83 0 0 1 .256.33.987.987 0 0 1 .088.56.974.974 0 0 1-.256.55c-.135.136-.326.234-.573.296a3.912 3.912 0 0 1-.935.092h-.062v-.484z" fill="#151617"/>
    <path d="M123.59 91.882H46.41" stroke="#EBEBFF" stroke-width=".4"/>
    <path d="m50.788 84.39-1.07 1.068-1.069-1.068a.275.275 0 0 0-.389.388l1.266 1.264a.275.275 0 0 0 .388 0l1.265-1.264a.274.274 0 0 0 0-.388.28.28 0 0 0-.391 0z" fill="#000"/>
    <path d="M95.53 66.458a6.566 6.566 0 0 1 0-.48c.368 0 .661-.027.882-.083a1.18 1.18 0 0 0 .525-.27c.126-.123.225-.288.295-.497l.37.044c-.052.162-.079.298-.079.41 0 .232.118.348.353.348l.027.242-.027.242a.676.676 0 0 1-.485-.185.634.634 0 0 1-.185-.484l.088.009a1.387 1.387 0 0 1-.684.541c-.285.11-.645.163-1.08.163zm-1.151-1.555c-.082.232-.124.413-.124.542 0 .032.002.058.005.075.023.144.144.257.361.34.22.079.534.118.94.118a3.533 3.533 0 0 1 0 .48c-.518.004-.922-.069-1.213-.215-.291-.15-.45-.366-.476-.648a1.652 1.652 0 0 1 .044-.485c.032-.138.072-.263.119-.374l.344.167zm.679-.233.212-.212.322.318c-.106.108-.213.216-.322.321l-.318-.321.106-.106zm.776 0 .212-.212.322.318c-.106.108-.213.216-.322.321l-.318-.321.106-.106zm1.995 1.26h.102c.385 0 .705-.052.961-.154.256-.103.447-.218.574-.344.126-.13.208-.242.246-.34-.03-.058-.094-.105-.194-.14a.995.995 0 0 0-.34-.053c-.12 0-.237.016-.352.048a.792.792 0 0 0-.291.141c.176.203.344.365.503.485.158.12.33.21.516.269.185.058.4.088.644.088h.119l.026.242-.026.242h-.119c-.312 0-.581-.04-.807-.119a2.05 2.05 0 0 1-.636-.383 5.447 5.447 0 0 1-.665-.736l.017-.317c.124-.123.278-.215.463-.277.188-.065.383-.097.582-.097.23 0 .431.04.605.123.176.08.285.191.326.335a.303.303 0 0 1 .009.088c0 .176-.099.375-.296.595a2.468 2.468 0 0 1-.794.56c-.332.152-.689.228-1.071.228h-.102v-.484zm2.442 0h.035c.215 0 .375-.022.481-.066a.355.355 0 0 0 .212-.225.536.536 0 0 0 .017-.154c0-.094-.017-.25-.052-.467l.366-.075c.041.197.061.435.061.714a.317.317 0 0 0 .119.202c.068.047.153.07.256.07h.031l.027.243-.027.242h-.031a.626.626 0 0 1-.383-.123.743.743 0 0 1-.243-.317l.101.017a.59.59 0 0 1-.326.326c-.153.065-.356.097-.609.097h-.035v-.484zm.225-1.679c.115-.12.229-.235.344-.343.115.108.229.223.344.343l-.344.344-.344-.344zm1.252 1.679h.066c.145 0 .262-.031.353-.093a.635.635 0 0 0 .216-.3c.056-.135.1-.316.133-.546l.366.075a1.82 1.82 0 0 0-.022.296c0 .243.063.415.189.515.13.1.34.15.631.15.268 0 .506-.031.714-.093.209-.061.371-.142.486-.242.117-.1.176-.204.176-.313a.285.285 0 0 0-.119-.233.476.476 0 0 0-.318-.097c-.238 0-.48.104-.727.313-.244.205-.469.497-.675.876l-.3-.198c.229-.452.491-.806.785-1.062.297-.258.591-.387.882-.387.159 0 .303.034.432.1.13.068.23.162.3.283.074.117.11.251.11.4a.883.883 0 0 1-.22.596c-.147.17-.351.302-.613.396a2.561 2.561 0 0 1-.878.14c-.596 0-.961-.183-1.093-.55a.889.889 0 0 1-.309.344c-.126.076-.294.114-.503.114h-.062v-.484zm5.345 1.33c.482-.103.836-.24 1.063-.41.226-.167.339-.378.339-.634a2.118 2.118 0 0 0-.07-.502 1.177 1.177 0 0 0-.194-.419c-.083-.114-.178-.177-.287-.189-.065-.009-.128.013-.19.066a.591.591 0 0 0-.198.436c0 .062.012.11.035.146a.442.442 0 0 0 .243.154c.117.032.25.048.397.048.12 0 .242-.012.366-.035v.454c-.133.035-.28.053-.441.053-.2 0-.381-.033-.543-.097a.642.642 0 0 1-.344-.309.803.803 0 0 1-.075-.348 1.199 1.199 0 0 1 .379-.868.57.57 0 0 1 .38-.154c.173 0 .328.076.463.23.138.15.244.343.317.58.077.236.115.472.115.71 0 .382-.143.705-.428.97-.282.264-.676.446-1.182.546l-.145-.428zm4.001-3.978c.024.168.043.435.057.802.015.364.022.703.022 1.018v.193c-.002.177.005.307.022.392a.273.273 0 0 0 .119.186c.062.038.161.057.296.057h.022l.026.242-.026.242h-.022c-.312 0-.531-.08-.657-.242-.124-.164-.185-.424-.185-.78 0-.323-.009-.69-.027-1.101a9.225 9.225 0 0 0-.066-.916l.419-.093zm.505 2.648h.061c.503 0 .866-.046 1.09-.137.223-.094.335-.239.335-.436a.501.501 0 0 0-.106-.317.326.326 0 0 0-.269-.137.36.36 0 0 0-.198.066.568.568 0 0 0-.164.172.396.396 0 0 0-.066.212c0 .111.063.217.19.317.126.097.283.176.472.238.191.058.37.088.538.088a.73.73 0 0 0 .335-.066c.085-.047.128-.116.128-.207 0-.153-.156-.32-.468-.502-.311-.182-.782-.359-1.411-.53l.172-.448c.544.176.967.343 1.27.502.306.158.518.31.635.453a.702.702 0 0 1 .177.45c0 .097-.019.206-.058.326a.544.544 0 0 1-.295.33c-.147.074-.325.11-.534.11-.232 0-.467-.042-.705-.127a1.623 1.623 0 0 1-.591-.353.69.69 0 0 1-.225-.581c.02-.156.072-.301.154-.436.083-.138.182-.249.3-.33a.559.559 0 0 1 .714 0 .821.821 0 0 1 .256.33.973.973 0 0 1 .088.56.973.973 0 0 1-.255.55c-.136.135-.327.233-.574.295a3.912 3.912 0 0 1-.935.092h-.061v-.484zm2.64 1.343a2.31 2.31 0 0 0 .516-.264c.156-.106.278-.216.366-.33.091-.112.137-.216.137-.313 0-.123-.078-.488-.234-1.093l.388-.15c.068.21.122.43.163.661.044.23.066.423.066.582 0 .27-.113.524-.339.762a2.214 2.214 0 0 1-.873.56l-.19-.415zm.56-2.92c.115-.12.229-.235.344-.344.115.109.229.223.344.344l-.344.343-.344-.343zm1.158 2.907c.482-.103.836-.24 1.062-.41.227-.167.34-.378.34-.634 0-.167-.022-.335-.066-.502a1.177 1.177 0 0 0-.194-.419c-.083-.114-.18-.177-.291-.189-.065-.009-.128.013-.19.066a.591.591 0 0 0-.198.436c0 .062.011.11.035.146.047.07.154.117.322.14.17.024.391.036.661.036h.433l.026.242-.026.242-.543.005c-.32 0-.581-.025-.781-.075a.608.608 0 0 1-.414-.322.803.803 0 0 1-.075-.348c0-.158.034-.317.101-.476.071-.158.164-.289.278-.391a.568.568 0 0 1 .38-.155c.173 0 .327.076.463.23.138.15.244.343.317.58.076.236.115.472.115.71 0 .382-.143.705-.428.97-.282.264-.676.446-1.182.546l-.145-.428zm5.239-1.33.026.242-.026.242h-.044c-.306-.003-.548-.064-.728-.185a.908.908 0 0 1-.366-.537l.265-.216c.029.13.111.238.247.326a.984.984 0 0 0 .524.128h.102zm-3.387 0h.379c.362 0 .7-.043 1.014-.128.315-.085.636-.214.962-.388a2.83 2.83 0 0 1 .287-.136c.1-.044.182-.075.247-.093l.013.26a1.897 1.897 0 0 1-.468-.066 3.098 3.098 0 0 1-.485-.198c-.273-.144-.504-.216-.692-.216a.543.543 0 0 0-.327.106.696.696 0 0 0-.216.242l-.282-.198c.1-.2.221-.351.362-.454a.782.782 0 0 1 .472-.154c.126 0 .245.022.357.066.114.041.275.115.481.22.191.097.344.169.458.216.115.047.243.085.384.115l.018.427a1.078 1.078 0 0 0-.212.088 5.23 5.23 0 0 0-.278.145 6.71 6.71 0 0 1-1.085.476 3.41 3.41 0 0 1-1.054.154h-.335v-.484zm1.129 1.172c.115-.12.229-.235.344-.344.115.109.229.223.344.344l-.344.343-.344-.343zm3.077-1.511c.183.123.347.22.494.29.148.07.261.106.34.106a.15.15 0 0 0 .07-.017.229.229 0 0 0 .102-.115.475.475 0 0 0 .035-.19.675.675 0 0 0-.106-.37c-.07-.111-.161-.167-.273-.167-.088 0-.182.06-.282.18-.097.121-.205.306-.322.556a.998.998 0 0 1-.349.414.902.902 0 0 1-.494.136h-.079l.009-.484h.079a.573.573 0 0 0 .327-.102c.1-.067.185-.17.255-.308.13-.252.261-.452.393-.599.132-.147.276-.225.432-.234a.578.578 0 0 1 .406.124.868.868 0 0 1 .269.361c.062.15.092.307.092.472 0 .161-.03.31-.092.444a.647.647 0 0 1-.274.3.411.411 0 0 1-.202.048c-.233 0-.572-.148-1.019-.445l.189-.4z" fill="#151617"/>
    <path d="M123.59 72.059H46.41" stroke="#EBEBFF" stroke-width=".4"/>
    <path d="m50.788 64.567-1.07 1.068-1.069-1.068a.275.275 0 0 0-.389.388l1.266 1.264a.275.275 0 0 0 .388 0l1.265-1.264a.274.274 0 0 0 0-.388.28.28 0 0 0-.391 0z" fill="#000"/>
    <path d="M91.803 127.128c-.268 0-.504-.053-.71-.158a1.124 1.124 0 0 1-.477-.458 1.289 1.289 0 0 1-.14-.705c.005-.168.036-.343.092-.525.059-.182.125-.349.198-.502l.344.159c-.162.355-.242.655-.242.898 0 .268.08.469.242.604.162.138.393.207.693.207a1.746 1.746 0 0 0 .873-.229c.103-.062.166-.119.19-.172-.033-.053-.137-.135-.314-.247a3.234 3.234 0 0 0-.56-.281l.102-.459c.464.094.89.141 1.274.141h.208l.026.243-.026.242h-.208c-.364 0-.823-.056-1.376-.167l.106-.304.097.044c.291.126.54.255.746.387.206.129.307.269.304.419-.003.138-.07.274-.203.41a1.42 1.42 0 0 1-.53.325c-.22.086-.457.128-.71.128zm1.84-1.727h.185c.31 0 .527-.027.653-.083.126-.059.19-.15.19-.273a1.734 1.734 0 0 0-.093-.401 3.056 3.056 0 0 0-.145-.392l.366-.199c.058.118.116.275.172.472.058.197.088.368.088.515 0 .279-.097.491-.291.634-.194.141-.485.212-.873.212h-.252v-.485zm.031 1.097.212-.211.322.317a16.85 16.85 0 0 1-.322.322l-.318-.322.106-.106zm.78 0 .212-.211.322.317a16.85 16.85 0 0 1-.322.322l-.317-.322.106-.106zm-.912-.612-.027-.242.027-.243h.145v.485h-.145zm2.393-3.132c.024.167.043.435.058.802.015.364.022.703.022 1.017v.194c-.003.176.004.307.022.392a.269.269 0 0 0 .119.185c.062.038.16.057.295.057h.023l.026.243-.026.242h-.023c-.311 0-.53-.081-.657-.242-.123-.165-.185-.425-.185-.78 0-.323-.009-.69-.026-1.101a8.97 8.97 0 0 0-.067-.917l.42-.092zm.496 2.647h.036c.229 0 .407-.01.533-.03a.697.697 0 0 0 .274-.089.302.302 0 0 0 .119-.171.587.587 0 0 0 .017-.163c0-.08-.007-.169-.022-.269a17.936 17.936 0 0 1-.026-.19l.366-.074c.041.196.062.434.062.713a.322.322 0 0 0 .114.203c.065.047.152.07.26.07h.031l.027.243-.027.242h-.03a.631.631 0 0 1-.384-.123.744.744 0 0 1-.243-.318l.097.018a.584.584 0 0 1-.357.33c-.173.062-.444.093-.811.093h-.036v-.485zm-.163 1.097.212-.211.322.317c-.106.109-.213.216-.322.322l-.318-.322.106-.106zm.78 0 .212-.211.322.317c-.105.109-.213.216-.322.322l-.317-.322.106-.106zm1.097-1.097h.058c.461 0 .808-.038 1.04-.114.236-.076.374-.209.415-.397 0-.155-.022-.312-.066-.471a1.127 1.127 0 0 0-.19-.401c-.082-.109-.178-.163-.287-.163a.311.311 0 0 0-.19.066.506.506 0 0 0-.184.375c0 .056.013.105.04.149.043.068.124.121.242.159.12.038.256.057.406.057.114 0 .219-.01.313-.031v.445c-.127.027-.257.04-.393.04-.203 0-.383-.032-.542-.097a.669.669 0 0 1-.34-.299.793.793 0 0 1-.084-.366c0-.153.033-.301.097-.445a.958.958 0 0 1 .274-.357.608.608 0 0 1 .388-.141c.165 0 .312.065.441.194.13.126.23.292.3.498a1.9 1.9 0 0 1 .101.762c-.023.329-.183.581-.48.758-.297.176-.73.264-1.301.264h-.058v-.485zm.596-2.656c.114-.12.229-.235.344-.344.114.109.229.224.344.344l-.344.344-.344-.344zm1.756 3.115c.023-.177.035-.485.035-.926 0-.402-.01-.815-.031-1.237a8.225 8.225 0 0 0-.062-.851l.419-.092c.021.147.041.436.062.868.021.431.031.848.031 1.251 0 .458-.015.803-.044 1.035l-.41-.048zm2.086.026a.548.548 0 0 1-.446-.198 1.76 1.76 0 0 1-.269-.573l.296-.181c.041.174.092.296.154.366a.348.348 0 0 0 .265.101h.031l.026.243-.026.242h-.031zm-1.685.859c.191-.071.363-.159.516-.264.156-.106.278-.216.366-.331.091-.111.137-.216.137-.313 0-.123-.078-.487-.234-1.092l.388-.15c.068.209.122.429.163.661.044.229.067.423.067.581 0 .271-.114.525-.34.763a2.211 2.211 0 0 1-.873.559l-.19-.414zm1.67-1.344h.102c.385 0 .706-.051.962-.154.255-.103.446-.217.573-.343.126-.13.209-.243.247-.34-.03-.058-.094-.105-.194-.141a1 1 0 0 0-.34-.052c-.12 0-.238.016-.353.048a.79.79 0 0 0-.291.141c.177.203.344.364.503.485.159.12.331.21.516.268.185.059.4.088.644.088h.119l.026.243-.026.242h-.119c-.312 0-.581-.04-.807-.119a2.045 2.045 0 0 1-.635-.383 5.465 5.465 0 0 1-.666-.736l.018-.317c.123-.123.277-.216.463-.278.188-.064.382-.097.582-.097.229 0 .43.041.604.124.176.079.285.191.326.335a.3.3 0 0 1 .009.088c0 .176-.098.374-.295.594a2.465 2.465 0 0 1-.794.56c-.333.153-.69.229-1.072.229h-.102v-.485zm.94-2.061c.115-.121.229-.235.344-.344.115.109.229.223.344.344l-.344.343-.344-.343zm1.498 2.061h.38a3.88 3.88 0 0 0 1.014-.127c.314-.085.635-.215.961-.388.092-.05.187-.096.287-.137.1-.044.182-.074.247-.092l.013.26a1.894 1.894 0 0 1-.467-.066 2.985 2.985 0 0 1-.485-.199c-.274-.144-.505-.215-.693-.215a.544.544 0 0 0-.326.105.695.695 0 0 0-.216.243l-.283-.199c.1-.199.221-.351.362-.453a.783.783 0 0 1 .472-.155c.126 0 .246.022.357.067.115.041.275.114.481.22.191.097.344.169.459.216.114.047.242.085.383.114l.018.428a1.045 1.045 0 0 0-.212.088 5.14 5.14 0 0 0-.278.145 6.746 6.746 0 0 1-1.085.476 3.43 3.43 0 0 1-1.054.154h-.335v-.485zm1.129 1.177c.115-.121.23-.235.344-.344.115.109.23.223.344.344l-.344.343-.344-.343zm5.155-.648a6.353 6.353 0 0 1 0-.48c.271 0 .503-.018.697-.053.194-.038.343-.082.446-.132.103-.05.158-.096.167-.137-.02-.182-.106-.474-.256-.876l.366-.199c.062.144.121.321.177.529.056.208.084.382.084.52a.579.579 0 0 1-.216.449 1.472 1.472 0 0 1-.596.282 3.503 3.503 0 0 1-.869.097zm-1.142-1.555c-.082.232-.123.413-.123.542 0 .032.001.057.004.075.024.144.144.257.362.339.22.079.533.119.939.119.006.117.009.206.009.264 0 .05-.003.122-.009.216-.517.003-.922-.069-1.213-.216-.291-.15-.45-.365-.476-.647a.857.857 0 0 1-.005-.102c0-.12.017-.248.049-.383.032-.138.072-.263.119-.374l.344.167zm.547-.225.212-.211.322.317c-.106.109-.214.216-.322.322l-.318-.322.106-.106zm.776 0 .212-.211.322.317c-.106.109-.213.216-.322.322l-.318-.322.106-.106zm2.368-1.396c.024.167.043.435.057.802.015.364.023.703.023 1.017v.194c-.003.176.004.307.022.392a.266.266 0 0 0 .119.185c.061.038.16.057.295.057h.022l.027.243-.027.242h-.022c-.311 0-.53-.081-.657-.242-.123-.165-.185-.425-.185-.78 0-.323-.009-.69-.027-1.101a8.665 8.665 0 0 0-.066-.917l.419-.092zm.496 2.647h.053c.5 0 .908-.017 1.226-.052.321-.039.597-.1.829-.186l.097.428c-.241.1-.53.175-.869.224a9.37 9.37 0 0 1-1.283.071h-.053v-.485zm1.491.357a1.198 1.198 0 0 1-.547-.092 1.02 1.02 0 0 1-.424-.326.808.808 0 0 1-.163-.498c0-.162.043-.313.128-.454a.945.945 0 0 1 .344-.335.897.897 0 0 1 .851-.039c.13.056.249.13.358.224l-.168.326a1.175 1.175 0 0 0-.547-.158.688.688 0 0 0-.304.066.518.518 0 0 0-.207.163.354.354 0 0 0 .022.462.644.644 0 0 0 .264.181.88.88 0 0 0 .366.048l.027.432zm3.596.128c-.265 0-.459-.097-.582-.291-.121-.194-.184-.457-.19-.788a.564.564 0 0 1 .057-.291c.041-.074.087-.11.137-.11.029 0 .053.014.071.044.02.029.03.072.03.128 0 .196.014.353.04.471.03.118.078.206.146.264.07.059.17.088.3.088h.044v.485h-.053zm-.609-3.132c.044.343.078.647.102.912.023.261.035.523.035.784l-.005.216c-.011.426-.188.749-.529.969-.338.22-.769.348-1.292.383l-.119-.462c.459-.044.828-.134 1.107-.269s.419-.342.419-.621c0-.294-.012-.574-.035-.842-.021-.27-.055-.596-.102-.978l.419-.092zm-1.57.383c.182.382.322.746.419 1.093.1.346.15.644.15.894 0 .129-.013.242-.04.339l-.388.088a.78.78 0 0 0 .049-.299c0-.224-.05-.5-.15-.829a9.287 9.287 0 0 0-.393-1.044l.353-.242zm3.342 2.269c.271 0 .511-.031.719-.093a1.28 1.28 0 0 0 .49-.242c.118-.1.176-.206.176-.317a.283.283 0 0 0-.114-.229.467.467 0 0 0-.309-.093c-.238 0-.487.112-.745.335-.259.223-.496.53-.71.921l-.3-.203c.244-.476.517-.847.82-1.114.303-.268.6-.401.891-.401.159 0 .301.034.428.101a.76.76 0 0 1 .414.687.883.883 0 0 1-.225.595 1.45 1.45 0 0 1-.617.396 2.61 2.61 0 0 1-.878.137h-1.195v-.485l1.155.005zm-.467-.397c.009-.111.013-.243.013-.396 0-.294-.014-.626-.044-.996a8.005 8.005 0 0 0-.079-.766l.419-.097c.023.144.045.357.066.639.024.281.035.562.035.841 0 .259-.01.486-.031.683l-.379.092zm2.736.851c.023-.177.035-.485.035-.926 0-.402-.01-.815-.031-1.237a8.531 8.531 0 0 0-.062-.851l.419-.092c.021.147.041.436.062.868.021.431.031.848.031 1.251 0 .458-.015.803-.044 1.035l-.41-.048z" fill="#151617"/>
    <path d="M123.59 131.53H46.41" stroke="#EBEBFF" stroke-width=".4"/>
    <path d="m50.788 124.038-1.07 1.068-1.069-1.068a.274.274 0 0 0-.389 0 .274.274 0 0 0 0 .388l1.266 1.264a.275.275 0 0 0 .388 0l1.265-1.264a.274.274 0 0 0 0-.388.28.28 0 0 0-.391 0z" fill="#000"/>
    <path d="M101.746 107.304c-.259 0-.488-.048-.688-.145a1.104 1.104 0 0 1-.472-.428 1.225 1.225 0 0 1-.172-.66c0-.177.03-.366.088-.569a3.77 3.77 0 0 1 .212-.546l.34.159a3.644 3.644 0 0 0-.177.471 1.485 1.485 0 0 0-.066.427c0 .268.081.469.243.604.161.138.392.207.692.207a1.743 1.743 0 0 0 .873-.229c.103-.062.166-.119.19-.172-.032-.053-.137-.135-.313-.247a3.336 3.336 0 0 0-.56-.282l.101-.458c.235.047.444.083.626.106.186.023.365.035.538.035h.093l.026.243-.026.242h-.093c-.194 0-.385-.013-.573-.04a14.756 14.756 0 0 1-.692-.128l.105-.304.097.045c.292.126.54.255.746.387.206.129.307.269.304.419-.003.138-.07.274-.203.409a1.402 1.402 0 0 1-.529.326 1.931 1.931 0 0 1-.71.128zm1.472-1.727h.141c.164 0 .282-.035.353-.105.073-.071.11-.181.11-.331 0-.17-.015-.527-.044-1.07a14.095 14.095 0 0 0-.075-1.049l.419-.092c.017.152.039.511.066 1.075.029.56.044.929.044 1.105 0 .185-.035.35-.106.494a.806.806 0 0 1-.304.339.854.854 0 0 1-.454.119h-.15v-.485zm1.95-2.647c.024.167.043.434.057.801.015.365.022.704.022 1.018v.194c-.002.176.005.307.022.392a.27.27 0 0 0 .12.185c.061.038.16.057.295.057h.022l.027.243-.027.242h-.022c-.311 0-.531-.081-.657-.242-.124-.165-.185-.425-.185-.78 0-.323-.009-.69-.027-1.101a8.642 8.642 0 0 0-.066-.917l.419-.092zm1.36 2.308c.183.123.347.22.494.291.147.07.26.106.34.106a.152.152 0 0 0 .07-.018.227.227 0 0 0 .102-.115.493.493 0 0 0 .035-.189.674.674 0 0 0-.106-.37c-.07-.112-.161-.167-.273-.167-.088 0-.182.06-.282.18-.097.12-.205.305-.322.555-.089.182-.205.32-.349.414a.904.904 0 0 1-.494.137h-.079l.009-.485h.079a.573.573 0 0 0 .326-.101.79.79 0 0 0 .256-.308c.13-.253.26-.453.393-.6.132-.146.276-.224.432-.233a.578.578 0 0 1 .406.123.869.869 0 0 1 .269.362c.062.149.092.307.092.471 0 .162-.03.31-.092.445a.643.643 0 0 1-.274.299.404.404 0 0 1-.203.049c-.232 0-.571-.149-1.018-.445l.189-.401zm4.761.868a4.72 4.72 0 0 1-.004-.238c0-.109.001-.189.004-.242.271 0 .503-.018.697-.053.194-.038.342-.082.445-.132.103-.05.159-.096.168-.137-.021-.182-.106-.474-.256-.877l.366-.198c.062.144.121.32.176.529.056.208.084.382.084.52a.579.579 0 0 1-.216.449 1.467 1.467 0 0 1-.595.282 3.508 3.508 0 0 1-.869.097zm-1.142-1.555c-.082.232-.124.413-.124.542 0 .032.002.057.005.075.023.144.144.256.361.339.221.079.534.119.94.119a3.483 3.483 0 0 1 0 .48c-.518.003-.922-.069-1.213-.216-.291-.15-.45-.366-.477-.648a1.616 1.616 0 0 1 .045-.484c.032-.138.072-.263.119-.375l.344.168zm.547-.225.211-.211.322.317a13.92 13.92 0 0 1-.322.321l-.317-.321.106-.106zm.776 0 .211-.211.322.317c-.105.109-.213.216-.322.321l-.317-.321.106-.106zm2.368-1.396c.023.167.043.434.057.801.015.365.022.704.022 1.018v.194c-.003.176.005.307.022.392a.273.273 0 0 0 .119.185.587.587 0 0 0 .296.057h.022l.026.243-.026.242h-.022c-.312 0-.531-.081-.657-.242-.124-.165-.186-.425-.186-.78 0-.323-.008-.69-.026-1.101a9.223 9.223 0 0 0-.066-.917l.419-.092zm.496 2.647h.053c.499 0 .908-.017 1.226-.053.32-.038.596-.1.829-.185l.097.428c-.241.1-.531.175-.869.224a9.532 9.532 0 0 1-1.283.071h-.053v-.485zm1.49.357a1.2 1.2 0 0 1-.547-.092 1.023 1.023 0 0 1-.423-.326.802.802 0 0 1-.163-.498c0-.162.043-.313.128-.454a.945.945 0 0 1 .344-.335.895.895 0 0 1 .851-.039c.129.055.248.13.357.224l-.167.326a1.178 1.178 0 0 0-.547-.158.696.696 0 0 0-.305.066.525.525 0 0 0-.207.163.354.354 0 0 0 .022.462.647.647 0 0 0 .265.181.877.877 0 0 0 .366.048l.026.432zm3.596.128c-.264 0-.458-.097-.582-.291-.12-.194-.184-.457-.189-.788a.564.564 0 0 1 .057-.291c.041-.074.087-.11.137-.11.029 0 .053.014.07.044a.217.217 0 0 1 .031.127c0 .197.013.354.04.472a.498.498 0 0 0 .145.264.457.457 0 0 0 .3.088h.044v.485h-.053zm-.608-3.132c.044.343.078.647.101.912.024.261.035.522.035.784l-.004.216c-.012.426-.188.748-.529.969-.338.22-.769.348-1.292.383l-.119-.463c.458-.044.827-.133 1.107-.268.279-.135.418-.343.418-.621 0-.294-.011-.574-.035-.842-.02-.27-.054-.596-.101-.978l.419-.092zm-1.57.383c.182.382.322.746.419 1.092.1.347.15.645.15.895 0 .129-.014.242-.04.339l-.388.088a.784.784 0 0 0 .048-.3c0-.223-.05-.499-.15-.828-.1-.329-.23-.677-.392-1.044l.353-.242zm3.342 2.269c.271 0 .51-.031.719-.093.212-.062.375-.142.49-.242.117-.1.176-.206.176-.317a.281.281 0 0 0-.115-.229.462.462 0 0 0-.308-.093c-.239 0-.487.112-.746.335-.258.223-.495.53-.71.921l-.3-.203c.244-.476.518-.847.821-1.115.302-.267.599-.4.89-.4.159 0 .302.033.428.101a.755.755 0 0 1 .415.687.883.883 0 0 1-.225.595c-.15.17-.356.302-.618.396a2.63 2.63 0 0 1-.877.137h-1.195v-.485l1.155.005zm-.467-.397a5.55 5.55 0 0 0 .013-.396c0-.294-.015-.626-.044-.996a7.908 7.908 0 0 0-.08-.766l.419-.097c.024.144.046.357.066.638.024.282.036.563.036.842 0 .258-.01.486-.031.683l-.379.092zm2.735.85c.024-.176.036-.484.036-.925 0-.402-.011-.815-.031-1.238a8.831 8.831 0 0 0-.062-.85l.419-.092c.021.146.041.436.062.868.02.431.031.848.031 1.251 0 .458-.015.803-.044 1.035l-.411-.049z" fill="#151617"/>
    <path d="M123.59 111.706H46.41" stroke="#EBEBFF" stroke-width=".4"/>
    <path d="m50.788 104.214-1.07 1.069-1.069-1.069a.275.275 0 0 0-.389.389l1.266 1.263a.274.274 0 0 0 .388 0l1.265-1.263a.275.275 0 0 0 0-.389.282.282 0 0 0-.391 0z" fill="#000"/>
    <path d="M89.324 46.106c.103 0 .18-.028.233-.084a.355.355 0 0 0 .08-.247c0-.094-.03-.227-.088-.4a4.233 4.233 0 0 0-.15-.415l.357-.198c.059.127.118.29.176.49.062.199.093.377.093.532 0 .15-.031.287-.093.41a.745.745 0 0 1-.247.29.637.637 0 0 1-.361.106h-.01v-.484h.01zm-1.195.484v-.484h.013c.085 0 .16-.024.225-.07a.702.702 0 0 0 .176-.217c.065-.12.115-.304.15-.55l.37.017c-.035.185-.052.33-.052.436 0 .127.025.222.075.287.05.065.13.097.238.097h.008l.027.242-.026.242h-.01a.58.58 0 0 1-.405-.14.7.7 0 0 1-.199-.406l.084-.009c-.067.165-.16.298-.278.401a.566.566 0 0 1-.388.154h-.008zm-.42-.925a.94.94 0 0 0 .16.34c.061.067.158.1.29.1l-.022.485a.52.52 0 0 1-.436-.224 1.278 1.278 0 0 1-.225-.551l.234-.15zm-1.98.009c-.164.34-.247.637-.247.89 0 .267.081.47.243.608.162.138.392.207.692.207.227 0 .42-.041.578-.123a.822.822 0 0 0 .353-.313c.08-.127.119-.26.119-.401 0-.13-.026-.297-.08-.502a7.212 7.212 0 0 0-.176-.586l.375-.18c.088.255.153.485.194.69.044.206.066.399.066.578a1.287 1.287 0 0 1-.67 1.132c-.215.126-.468.19-.759.19-.276 0-.514-.056-.714-.168a1.134 1.134 0 0 1-.459-.445 1.3 1.3 0 0 1-.154-.634c0-.176.03-.364.088-.564.059-.2.128-.379.207-.538l.344.159zm5.14-2.216c.023.168.042.435.057.802.015.364.022.703.022 1.018v.193c-.003.177.005.307.022.392a.269.269 0 0 0 .12.185c.06.039.16.058.295.058h.022l.026.242-.026.242h-.022c-.312 0-.531-.08-.657-.242-.124-.164-.186-.424-.186-.78 0-.323-.008-.69-.026-1.101a8.95 8.95 0 0 0-.066-.916l.419-.093zm.496 2.648h.088c.24 0 .435-.137.582-.41a3.21 3.21 0 0 1 .419-.617c.135-.144.284-.216.445-.216a.53.53 0 0 1 .424.185c.109.124.194.294.256.511.055.2.107.341.154.423.05.083.117.124.203.124h.044l.026.242-.026.242h-.044c-.203 0-.347-.111-.433-.335a.35.35 0 0 1-.083.181.597.597 0 0 1-.16.128.415.415 0 0 1-.202.048c-.217 0-.516-.122-.895-.365a.87.87 0 0 1-.318.26.962.962 0 0 1-.401.083h-.08v-.484zm1.005-.247c.159.111.307.195.445.251.142.053.253.08.336.08.02 0 .042-.004.066-.01a.417.417 0 0 0 .062-.242.917.917 0 0 0-.049-.29.666.666 0 0 0-.137-.247.268.268 0 0 0-.203-.097c-.15 0-.323.185-.52.555zm1.566.247h.185c.309 0 .526-.028.653-.084.126-.059.19-.15.19-.273a1.741 1.741 0 0 0-.093-.401 3.004 3.004 0 0 0-.146-.392l.366-.198c.059.117.116.274.172.471.059.197.088.369.088.516 0 .278-.097.49-.29.634-.195.14-.486.211-.874.211h-.251v-.484zm.207-2.018.212-.211.322.317c-.106.109-.213.216-.322.321l-.318-.321.106-.106zm.776 0 .212-.211.322.317c-.106.109-.213.216-.322.321l-.318-.321.106-.106zm2.113 3.348c.482-.103.836-.24 1.063-.41.226-.167.34-.378.34-.634a2.104 2.104 0 0 0-.071-.502 1.171 1.171 0 0 0-.194-.419c-.083-.114-.178-.177-.287-.19-.065-.008-.128.014-.19.067a.603.603 0 0 0-.198.436c0 .062.012.11.035.145a.442.442 0 0 0 .243.155c.117.032.25.048.397.048.12 0 .242-.012.366-.035v.454a1.71 1.71 0 0 1-.441.052c-.2 0-.381-.032-.543-.096a.64.64 0 0 1-.344-.309.805.805 0 0 1-.075-.348 1.207 1.207 0 0 1 .38-.868.568.568 0 0 1 .379-.154c.173 0 .328.076.463.23.138.149.244.343.317.58.077.236.115.472.115.71 0 .382-.143.705-.428.97-.282.264-.676.446-1.182.545l-.145-.427zm4.8.397c-.259 0-.488-.049-.688-.146-.2-.097-.358-.24-.472-.427a1.226 1.226 0 0 1-.172-.66c0-.177.029-.367.088-.57a3.62 3.62 0 0 1 .212-.545l.339.158a3.818 3.818 0 0 0-.176.471c-.044.147-.066.29-.066.428 0 .267.081.468.242.603.162.138.393.207.693.207a1.745 1.745 0 0 0 .873-.229c.103-.061.166-.119.19-.171-.033-.053-.137-.136-.314-.247a3.212 3.212 0 0 0-.56-.282l.102-.458c.235.047.444.082.626.105.185.024.364.036.538.036h.093l.026.242-.026.242h-.093a4.1 4.1 0 0 1-.573-.04c-.188-.029-.419-.071-.693-.127l.106-.304.097.044c.291.126.54.256.746.388.205.129.307.268.304.418-.003.138-.071.275-.203.41a1.424 1.424 0 0 1-.529.326 1.933 1.933 0 0 1-.71.128zm1.471-1.727h.035c.23 0 .408-.01.534-.031a.696.696 0 0 0 .273-.088.304.304 0 0 0 .12-.172.617.617 0 0 0 .017-.163c0-.08-.007-.169-.022-.269l-.026-.19.366-.074c.041.197.061.435.061.714a.321.321 0 0 0 .115.202c.065.047.152.07.26.07h.031l.027.243-.027.242h-.031a.628.628 0 0 1-.383-.123.743.743 0 0 1-.243-.317l.097.017a.584.584 0 0 1-.357.33c-.174.063-.444.093-.812.093h-.035v-.484zm.199-1.762.211-.212.322.317c-.106.11-.213.216-.322.322l-.317-.322.106-.105zm.776 0 .211-.212.322.317c-.105.11-.213.216-.322.322l-.317-.322.106-.105zm2.265 1.762.027.242-.027.242h-.022a.774.774 0 0 1-.454-.132.702.702 0 0 1-.256-.405 69.79 69.79 0 0 1-.145-.643l-.04-.19.357-.114c.065.302.121.537.168.705.029.1.075.174.136.224.062.047.14.07.234.07h.022zm-.436-.287c-.039.268-.145.463-.318.586-.171.124-.417.185-.741.185h-.026v-.484h.026c.235 0 .413-.03.534-.088.123-.059.192-.147.207-.265l.318.066zm-1.134 1.503c.115-.12.23-.235.344-.344.115.109.23.223.344.344l-.344.343-.344-.343zm1.526-1.216h.185c.309 0 .526-.028.653-.084.126-.059.189-.15.189-.273a1.715 1.715 0 0 0-.092-.401 2.93 2.93 0 0 0-.146-.392l.366-.198c.059.117.116.274.172.471.059.197.089.369.089.516 0 .278-.097.49-.292.634-.194.14-.485.211-.873.211h-.251v-.484zm.829-2.7.093.092.189.19-.282.281-.278-.282.278-.282zm.093.779.211-.211.106-.106.318.317-.106.106-.212.211a7.836 7.836 0 0 0-.317-.317zm-.821 0 .212-.211.106-.106.317.317-.105.106-.212.211a7.861 7.861 0 0 0-.318-.317zm4.688 2.45a6.345 6.345 0 0 1 0-.48c.271 0 .503-.019.697-.054.194-.038.343-.082.446-.132.103-.05.158-.095.167-.136-.02-.182-.106-.475-.256-.877l.367-.198c.061.144.12.32.176.528.056.209.084.382.084.52a.58.58 0 0 1-.216.45 1.464 1.464 0 0 1-.596.281 3.517 3.517 0 0 1-.869.097zm-1.142-1.556c-.082.232-.123.413-.123.542 0 .032.001.057.004.075.024.144.144.257.362.34.22.078.533.118.939.118.006.118.009.206.009.264 0 .05-.003.123-.009.216-.517.003-.922-.069-1.213-.215-.291-.15-.45-.366-.476-.648a1.667 1.667 0 0 1 .044-.485c.033-.138.072-.263.119-.374l.344.167zm.547-.224.212-.212.322.317c-.106.11-.213.216-.322.322l-.318-.322.106-.105zm.776 0 .212-.212.322.317c-.106.11-.213.216-.322.322l-.318-.322.106-.105zm2.368-1.397c.024.168.043.435.058.802.014.364.022.703.022 1.018v.193c-.003.177.004.307.022.392a.266.266 0 0 0 .119.185c.062.039.16.058.295.058h.022l.027.242-.027.242h-.022c-.311 0-.53-.08-.657-.242-.123-.164-.185-.424-.185-.78 0-.323-.009-.69-.027-1.101a8.646 8.646 0 0 0-.066-.916l.419-.093zm.496 2.648h.053c.5 0 .909-.018 1.226-.053.321-.038.597-.1.829-.185l.097.427c-.241.1-.53.175-.869.225-.335.047-.763.07-1.283.07h-.053v-.484zm1.491.356a1.193 1.193 0 0 1-.547-.092 1.013 1.013 0 0 1-.423-.326.802.802 0 0 1-.164-.498c0-.161.043-.313.128-.453a.939.939 0 0 1 .344-.335.897.897 0 0 1 .851-.04c.13.056.249.13.358.225l-.168.326a1.168 1.168 0 0 0-.547-.159.69.69 0 0 0-.304.066.53.53 0 0 0-.207.163.356.356 0 0 0-.075.216c0 .088.032.17.097.247a.65.65 0 0 0 .264.18.883.883 0 0 0 .366.049l.027.431zm3.596.128c-.265 0-.459-.097-.582-.29-.121-.194-.184-.457-.19-.789a.565.565 0 0 1 .057-.29c.041-.074.087-.11.137-.11.03 0 .053.014.071.043.02.03.031.072.031.128 0 .197.013.354.039.471a.5.5 0 0 0 .146.265c.07.058.17.088.3.088h.044v.484h-.053zm-.609-3.132c.044.344.078.648.102.912.023.261.035.523.035.784l-.004.216c-.012.426-.189.749-.53.97-.338.22-.768.347-1.292.382l-.119-.462c.459-.044.828-.134 1.107-.269s.419-.342.419-.621a9.82 9.82 0 0 0-.035-.841 22.43 22.43 0 0 0-.102-.978l.419-.093zm-1.57.383c.182.382.322.746.419 1.093.1.347.15.645.15.894 0 .13-.013.242-.04.34l-.388.087a.765.765 0 0 0 .049-.3c0-.222-.05-.498-.15-.827a9.287 9.287 0 0 0-.393-1.044l.353-.243zm3.343 2.27c.27 0 .51-.032.718-.093.212-.062.375-.143.49-.243.118-.1.176-.205.176-.317a.284.284 0 0 0-.114-.229.469.469 0 0 0-.309-.092c-.238 0-.486.111-.745.334-.259.224-.496.53-.71.921l-.3-.203c.244-.475.517-.847.82-1.114.303-.268.6-.401.891-.401.159 0 .301.034.428.101a.76.76 0 0 1 .414.688.883.883 0 0 1-.225.594c-.15.17-.355.303-.617.397a2.63 2.63 0 0 1-.878.136h-1.195v-.484l1.156.004zm-.468-.397c.009-.112.013-.244.013-.397 0-.294-.014-.625-.044-.995a8.013 8.013 0 0 0-.079-.767l.419-.097c.024.144.046.357.066.639.024.282.035.562.035.841 0 .259-.01.486-.031.683l-.379.093zm2.736.85c.023-.176.035-.485.035-.925 0-.403-.01-.815-.031-1.238a8.617 8.617 0 0 0-.061-.85l.418-.093c.021.147.042.436.062.868.021.432.031.849.031 1.251 0 .458-.015.803-.044 1.035l-.41-.048z" fill="#151617"/>
    <path d="M123.59 52.234H46.41" stroke="#EBEBFF" stroke-width=".4"/>
    <path d="m50.788 44.743-1.07 1.068-1.069-1.068a.275.275 0 0 0-.389.388l1.266 1.264a.275.275 0 0 0 .388 0l1.265-1.264a.274.274 0 0 0 0-.388.28.28 0 0 0-.391 0z" fill="#000"/>
    <path d="M214.692 20h-79.384A3.317 3.317 0 0 0 132 23.326v141.348a3.317 3.317 0 0 0 3.308 3.326h79.384a3.317 3.317 0 0 0 3.308-3.326V23.326A3.317 3.317 0 0 0 214.692 20z" fill="#fff"/>
    <path d="M206.383 52.87a.438.438 0 0 1 .123-.302.39.39 0 0 1 .286-.12c.044 0 .082.005.116.015.1-.212.21-.384.331-.516.121-.132.25-.202.386-.21a.502.502 0 0 1 .355.11c.103.08.182.186.236.318.056.132.085.27.085.415a.937.937 0 0 1-.081.392.563.563 0 0 1-.243.264.355.355 0 0 1-.174.042c-.098 0-.221-.03-.371-.09a5.724 5.724 0 0 1-.586-.298.062.062 0 0 0-.039-.011c-.038 0-.059.023-.061.07v.116c0 .178.006.368.019.57.013.202.032.454.058.757.007.067.011.119.011.155l.008.082-.363.07-.015-.164a48.141 48.141 0 0 1-.062-.783 9.821 9.821 0 0 1-.019-.881zm.818-.251c.278.176.477.263.598.263.031 0 .053-.005.066-.015a.18.18 0 0 0 .088-.101.431.431 0 0 0 .031-.17.587.587 0 0 0-.092-.323c-.06-.098-.138-.147-.236-.147-.131 0-.283.164-.455.493zm1.853-2.119c.02.147.037.383.05.706.013.32.019.62.019.896v.171c-.002.155.004.27.02.346.015.075.05.129.104.163.054.033.14.05.259.05h.019l.023.213-.023.214h-.019c-.273 0-.465-.071-.575-.214-.109-.145-.163-.373-.163-.686 0-.285-.007-.608-.023-.97a7.926 7.926 0 0 0-.058-.808l.367-.081zm.434 2.332h.201c.2 0 .344-.025.432-.074a.245.245 0 0 0 .131-.229c0-.07-.027-.188-.081-.357a2.896 2.896 0 0 0-.124-.353l.321-.174c.049.1.099.242.15.423.051.178.077.332.077.461 0 .24-.078.423-.235.547-.154.122-.378.183-.671.183h-.201v-.427zm.297-1.703c.1-.107.201-.207.301-.303.1.096.201.196.301.303l-.301.302-.301-.302z" fill="#151617"/>
    <path d="M208.077 57.139h-66.154a3.317 3.317 0 0 0-3.308 3.325v4.99a3.317 3.317 0 0 0 3.308 3.325h66.154a3.316 3.316 0 0 0 3.307-3.326v-4.989a3.316 3.316 0 0 0-3.307-3.325z" fill="#EBEBFF"/>
    <path d="M192.883 65.181c-.245 0-.453-.049-.626-.147a.998.998 0 0 1-.386-.392 1.152 1.152 0 0 1-.127-.535c0-.156.026-.319.077-.49.052-.17.111-.325.178-.465l.262.124c-.144.305-.216.572-.216.8 0 .245.072.433.216.562.144.13.351.194.622.194.208 0 .382-.039.521-.116a.75.75 0 0 0 .312-.291c.067-.117.1-.24.1-.369 0-.121-.024-.271-.073-.45a4.008 4.008 0 0 0-.158-.473l.285-.136c.16.38.24.733.24 1.06 0 .185-.049.365-.147.538a1.098 1.098 0 0 1-.421.423 1.279 1.279 0 0 1-.659.163zm2.08-1.028c-.301 0-.556-.066-.765-.198-.205-.134-.37-.354-.494-.66l.228-.147c.067.173.143.307.228.4.088.093.193.159.316.198.127.038.29.058.49.058.206 0 .39-.029.552-.085a.98.98 0 0 0 .382-.222.418.418 0 0 0 .135-.29.298.298 0 0 0-.115-.237.445.445 0 0 0-.301-.097c-.24 0-.462.105-.668.314-.206.21-.382.446-.529.71l-.239-.147a3.35 3.35 0 0 1 .355-.551 2.23 2.23 0 0 1 .49-.47.986.986 0 0 1 .571-.194.73.73 0 0 1 .382.101.638.638 0 0 1 .332.64.8.8 0 0 1-.208.462 1.15 1.15 0 0 1-.479.306 1.922 1.922 0 0 1-.663.11zm.744-.341a4.703 4.703 0 0 1 .822-.093l.02.174-.02.175c-.278 0-.487-.005-.629-.016a.681.681 0 0 1-.324-.097l.131-.143zm3.741-.093.019.174-.019.175h-.039c-.254-.003-.457-.056-.609-.16a.769.769 0 0 1-.301-.473l.2-.147c.029.127.105.23.228.31a.93.93 0 0 0 .482.12h.039zm-2.964 0h.355c.322 0 .622-.04.9-.117.28-.08.56-.195.841-.345.157-.085.311-.15.463-.194l.011.14a1.726 1.726 0 0 1-.829-.21 2.465 2.465 0 0 0-.332-.148.89.89 0 0 0-.29-.05.482.482 0 0 0-.293.097.646.646 0 0 0-.197.229l-.208-.144a.975.975 0 0 1 .305-.38.673.673 0 0 1 .405-.132.82.82 0 0 1 .301.055c.095.036.235.1.421.194.172.087.307.153.405.197.1.042.213.076.339.101l.012.307a1.342 1.342 0 0 0-.162.062 4.984 4.984 0 0 0-.235.124 6.559 6.559 0 0 1-.946.42c-.28.095-.584.143-.911.143h-.355v-.35zm.822-1.859.093-.093.181-.183.182.183.092.093-.274.276-.274-.276zm4.264 1.859c.193 0 .289-.108.289-.322 0-.088-.025-.211-.077-.37a2.908 2.908 0 0 0-.131-.364l.274-.151c.051.108.103.25.154.427.052.173.077.326.077.458a.757.757 0 0 1-.077.345.585.585 0 0 1-.208.24.54.54 0 0 1-.301.086h-.008v-.35h.008zm-1.05.349-.019-.175.019-.174h.012c.144 0 .267-.091.37-.272a.773.773 0 0 0 .077-.221c.021-.086.04-.18.058-.283l.286.015c-.003.01-.012.058-.027.144a1.345 1.345 0 0 0-.023.248c0 .124.023.217.069.28.049.059.125.089.228.089h.008l.019.174-.019.175h-.008a.492.492 0 0 1-.359-.132.627.627 0 0 1-.158-.377l.062-.003a.93.93 0 0 1-.24.368.496.496 0 0 1-.347.144h-.008zm-1.103 0-.02-.175.02-.174h.019a.578.578 0 0 0 .27-.066.5.5 0 0 0 .197-.175.858.858 0 0 0 .112-.221c.028-.078.056-.17.085-.276l.289.031a3.233 3.233 0 0 0-.069.291 1.02 1.02 0 0 0-.012.148c0 .178.072.268.216.268h.008l.019.174-.019.175h-.012a.435.435 0 0 1-.297-.105.468.468 0 0 1-.139-.291.868.868 0 0 1-.285.295.694.694 0 0 1-.367.1h-.015zm1.771-2.608.231.237-.231.233-.232-.233.232-.237zm.355.396.262.264-.262.26a11.755 11.755 0 0 0-.259-.26l.259-.264zm-.71 0 .262.264-.262.26a11.755 11.755 0 0 0-.259-.26l.259-.264zm2.963 1.855a.398.398 0 0 1 .112-.276.348.348 0 0 1 .382-.085 2.28 2.28 0 0 1 .328-.52c.116-.132.242-.202.378-.21a.49.49 0 0 1 .344.105c.1.075.176.176.227.303a1 1 0 0 1 .081.396.858.858 0 0 1-.081.372.555.555 0 0 1-.239.252.362.362 0 0 1-.162.04.984.984 0 0 1-.363-.094 5.269 5.269 0 0 1-.571-.299.12.12 0 0 0-.05-.015c-.046 0-.071.03-.073.089l-.004.147c0 .249.023.652.069 1.211l.023.287-.305.055-.011-.128c-.029-.3-.05-.56-.066-.777a9.197 9.197 0 0 1-.019-.853zm.741-.23c.139.091.262.16.37.206.108.047.193.07.255.07a.144.144 0 0 0 .07-.015.22.22 0 0 0 .104-.117.485.485 0 0 0 .034-.19.636.636 0 0 0-.096-.341c-.062-.104-.143-.155-.243-.155-.139 0-.304.18-.494.543zm1.843-2.114c.02.132.036.364.046.695.013.328.019.627.019.896v.163l-.004.136a.99.99 0 0 0 .031.28.24.24 0 0 0 .116.139.627.627 0 0 0 .262.043h.02l.019.174-.019.175h-.02a.86.86 0 0 1-.428-.09.513.513 0 0 1-.22-.275 1.54 1.54 0 0 1-.062-.481 28.9 28.9 0 0 0-.019-1.001 7.283 7.283 0 0 0-.05-.788l.309-.066zm.453 2.352h.201c.205 0 .353-.028.443-.082a.271.271 0 0 0 .139-.252c0-.08-.026-.203-.077-.369a3.628 3.628 0 0 0-.127-.36l.278-.148c.048.109.099.252.15.43.051.177.077.327.077.45-.002.223-.08.393-.231.509-.152.114-.37.17-.652.17h-.201v-.348zm.332-1.731.092-.093.182-.183.181.183.093.093-.274.276-.274-.276z" fill="#5B5C5D"/>
    <path d="M193.496 77.85c.167-.062.318-.14.452-.232.136-.094.243-.19.32-.291.08-.099.12-.19.12-.276 0-.109-.069-.43-.205-.962l.34-.132c.059.184.107.378.142.582.039.202.058.372.058.512 0 .238-.099.462-.297.671-.195.212-.45.377-.764.493l-.166-.365zm1.503-.011c.422-.09.732-.211.93-.361.198-.148.297-.334.297-.559a1.821 1.821 0 0 0-.062-.442 1.038 1.038 0 0 0-.169-.369c-.072-.1-.156-.156-.251-.167-.057-.007-.112.012-.166.058a.505.505 0 0 0-.128.175.547.547 0 0 0-.046.21c0 .054.01.097.031.128.041.06.112.105.212.135.103.03.219.043.348.043.105 0 .212-.01.32-.03v.399a1.492 1.492 0 0 1-.861-.039.564.564 0 0 1-.301-.272.708.708 0 0 1-.065-.306c0-.14.029-.28.088-.42a1 1 0 0 1 .244-.345.49.49 0 0 1 .331-.135c.152 0 .287.067.406.201.121.132.213.303.277.513.067.207.101.415.101.624 0 .337-.125.621-.375.854-.247.233-.591.393-1.034.481l-.127-.376zm3.011-2.743.529 1.257a.583.583 0 0 0 .166.248.434.434 0 0 0 .255.066h.042l.023.213-.023.214h-.042a.682.682 0 0 1-.425-.132 1.079 1.079 0 0 1-.301-.423l-.544-1.273.32-.17zm-.98 1.42c.1.056.196.103.286.14.092.033.204.05.335.05.258 0 .488-.086.691-.256l.189.26c-.067.07-.131.13-.193.182a.995.995 0 0 1-.262.147c-.111.047-.241.07-.39.07-.183 0-.339-.028-.471-.085a1.831 1.831 0 0 1-.355-.202l.17-.306zm1.93.15h.058a.539.539 0 0 0 .309-.08.566.566 0 0 0 .189-.264c.049-.12.087-.28.116-.481l.32.065c-.013.08-.019.167-.019.26 0 .215.055.367.166.454.113.088.297.132.551.132.234 0 .443-.027.626-.081.182-.055.324-.126.424-.214.103-.087.154-.18.154-.275a.249.249 0 0 0-.104-.206.415.415 0 0 0-.278-.085c-.208 0-.42.092-.636.275-.214.181-.411.439-.591.773l-.262-.175c.2-.398.429-.71.687-.935.259-.228.517-.342.771-.342.139 0 .265.03.379.09.113.06.2.142.262.248a.658.658 0 0 1 .097.353c0 .2-.065.374-.193.524-.129.15-.308.266-.537.35a2.222 2.222 0 0 1-.768.123c-.522 0-.841-.161-.957-.485a.768.768 0 0 1-.27.303.84.84 0 0 1-.44.1h-.054v-.426zm7.382 0 .023.214-.023.214h-.043a.534.534 0 0 1-.455-.225c-.108-.15-.161-.348-.159-.594l.213-.043c.007.12.023.21.046.272.026.06.066.102.12.128a.615.615 0 0 0 .235.035h.043zm-.545-2.331c.034.313.072 1.112.116 2.398.013.424-.082.754-.285.99-.201.237-.49.356-.869.356-.2 0-.383-.041-.548-.124a.957.957 0 0 1-.393-.35.951.951 0 0 1-.143-.519c0-.142.024-.301.073-.477.052-.179.114-.338.186-.477l.297.14a2.728 2.728 0 0 0-.155.399 1.268 1.268 0 0 0-.054.36c0 .187.067.337.201.45.134.117.313.175.536.175.566 0 .838-.3.815-.904a60.178 60.178 0 0 0-.07-1.404 19 19 0 0 0-.069-.932l.362-.081zm3.464 2.332.023.213-.023.214h-.038c-.268-.003-.48-.057-.637-.163a.8.8 0 0 1-.321-.474l.232-.19c.026.114.098.21.216.287a.857.857 0 0 0 .459.113h.089zm-2.964 0h.332c.317 0 .612-.038.888-.113.275-.075.556-.188.841-.341.08-.044.164-.084.251-.12.087-.04.16-.066.216-.082l.012.23a1.631 1.631 0 0 1-.409-.06 2.661 2.661 0 0 1-.425-.174c-.239-.126-.441-.19-.606-.19-.105 0-.2.031-.285.093a.611.611 0 0 0-.189.214l-.247-.175c.087-.176.193-.309.316-.4a.682.682 0 0 1 .413-.135c.11 0 .215.019.313.058.1.036.24.1.42.194.167.085.301.149.401.19.101.041.213.075.336.1l.016.377a.975.975 0 0 0-.186.078 5.234 5.234 0 0 0-.243.128 5.89 5.89 0 0 1-.949.419c-.278.09-.585.136-.922.136h-.294v-.427zm3.681-.299c.16.109.304.194.433.256a.755.755 0 0 0 .297.093c.02 0 .041-.005.061-.015a.203.203 0 0 0 .089-.101.42.42 0 0 0 .031-.167.599.599 0 0 0-.093-.326c-.061-.098-.141-.147-.239-.147-.077 0-.159.053-.247.159-.085.106-.179.269-.282.489a.876.876 0 0 1-.304.365.794.794 0 0 1-.433.12h-.069l.008-.427h.069c.103 0 .198-.03.286-.09a.711.711 0 0 0 .224-.27c.113-.224.227-.4.343-.529.116-.13.242-.198.378-.205a.504.504 0 0 1 .355.108c.103.08.182.187.236.319.054.132.081.27.081.415a.937.937 0 0 1-.081.392.567.567 0 0 1-.24.263.357.357 0 0 1-.177.043c-.204 0-.501-.13-.892-.392l.166-.353z" fill="#151617"/>
    <path d="M208.077 80.974h-66.154a3.317 3.317 0 0 0-3.308 3.325v4.99a3.317 3.317 0 0 0 3.308 3.325h66.154a3.316 3.316 0 0 0 3.307-3.326V84.3a3.316 3.316 0 0 0-3.307-3.325z" fill="#EBEBFF"/>
    <path d="M146.196 87.349h-.218l-.077-.075a1.81 1.81 0 0 0 .408-1.48 1.807 1.807 0 0 0-1.541-1.48 1.798 1.798 0 0 0-2.004 2.015c.094.776.706 1.419 1.472 1.549a1.785 1.785 0 0 0 1.472-.41l.074.077v.22l1.172 1.177a.29.29 0 0 0 .41 0 .294.294 0 0 0 0-.413l-1.168-1.18zm-1.654 0a1.242 1.242 0 0 1-1.241-1.248c0-.69.554-1.247 1.241-1.247.686 0 1.24.557 1.24 1.248 0 .69-.554 1.247-1.24 1.247z" fill="#013B81"/>
    <path d="M190.211 88.714a1.83 1.83 0 0 0 .448-.225c.133-.094.237-.193.312-.3a.52.52 0 0 0 .116-.298c0-.132-.066-.455-.197-.97l.297-.113c.057.184.103.378.139.583.039.204.058.37.058.5a.835.835 0 0 1-.135.446c-.09.148-.215.28-.374.396a1.951 1.951 0 0 1-.533.283l-.131-.302zm1.442-.008c.412-.09.716-.213.915-.369a.702.702 0 0 0 .297-.578 1.948 1.948 0 0 0-.062-.454 1.08 1.08 0 0 0-.17-.376c-.074-.104-.163-.16-.266-.167a.23.23 0 0 0-.166.07.536.536 0 0 0-.131.19.567.567 0 0 0-.05.221c0 .057.011.105.034.144a.375.375 0 0 0 .209.14c.1.03.215.046.343.046.124 0 .237-.012.34-.035v.33a1.433 1.433 0 0 1-.386.046c-.17 0-.323-.025-.459-.077a.538.538 0 0 1-.294-.256.649.649 0 0 1-.061-.291 1.027 1.027 0 0 1 .316-.738.463.463 0 0 1 .313-.132c.152 0 .285.068.401.202.116.135.205.304.266.509.062.201.093.4.093.597 0 .32-.122.594-.367.819-.241.225-.58.382-1.015.47l-.1-.311zm2.939-2.747.529 1.257a.612.612 0 0 0 .174.264c.067.049.156.073.27.073h.042l.019.175-.019.175h-.042a.699.699 0 0 1-.417-.124.954.954 0 0 1-.293-.404l-.541-1.269.278-.147zm-.961 1.424c.101.06.197.108.29.147a.904.904 0 0 0 .332.055.969.969 0 0 0 .401-.074 1.97 1.97 0 0 0 .316-.19l.155.22a2.783 2.783 0 0 1-.205.175 1.126 1.126 0 0 1-.262.14 1.079 1.079 0 0 1-.378.062c-.175 0-.326-.027-.452-.081a1.746 1.746 0 0 1-.347-.198l.15-.256zm1.934.17h.058a.551.551 0 0 0 .32-.085.57.57 0 0 0 .197-.268c.049-.124.088-.29.116-.496l.282.058c-.013.103-.02.189-.02.256 0 .223.058.382.174.477.119.093.302.14.552.14.239 0 .453-.029.641-.085.187-.057.333-.132.436-.225.105-.094.158-.193.158-.3a.288.288 0 0 0-.108-.232.447.447 0 0 0-.301-.093c-.211 0-.423.093-.637.28-.211.185-.409.448-.594.787l-.24-.147c.201-.391.429-.698.684-.92.257-.223.512-.334.764-.334.134 0 .254.029.362.086a.638.638 0 0 1 .355.57c0 .191-.064.36-.193.504a1.227 1.227 0 0 1-.524.338c-.224.08-.478.12-.761.12-.293 0-.515-.044-.667-.132a.607.607 0 0 1-.286-.368.783.783 0 0 1-.262.31c-.108.072-.259.109-.452.109h-.054v-.35zm7.471 0 .019.175-.019.175h-.042a.517.517 0 0 1-.309-.097.65.65 0 0 1-.209-.276.954.954 0 0 1-.057-.4l.177-.034a.952.952 0 0 0 .05.279.263.263 0 0 0 .116.14.552.552 0 0 0 .232.038h.042zm-.54-2.35c.025.263.065 1.05.119 2.362.016.414-.076.736-.274.966-.195.23-.48.346-.852.346-.199 0-.379-.042-.541-.124a.96.96 0 0 1-.382-.342.947.947 0 0 1-.139-.512c0-.137.025-.291.074-.462.048-.17.108-.327.177-.47l.263.129c-.142.29-.213.541-.213.756 0 .202.068.365.205.49.139.123.324.185.556.185.29 0 .504-.079.64-.236.136-.158.198-.395.185-.71-.046-1.172-.087-1.943-.123-2.313l.305-.066zm3.461 2.35.019.175-.019.175h-.039c-.254-.003-.458-.056-.609-.16a.764.764 0 0 1-.301-.473l.2-.147a.49.49 0 0 0 .228.31.93.93 0 0 0 .482.12h.039zm-2.964 0h.355c.322 0 .622-.038.899-.116.281-.08.561-.195.842-.345.156-.086.311-.15.463-.194l.011.14a1.715 1.715 0 0 1-.829-.21 2.52 2.52 0 0 0-.332-.148.895.895 0 0 0-.29-.05.48.48 0 0 0-.293.097.635.635 0 0 0-.197.229l-.208-.144a.974.974 0 0 1 .305-.38.67.67 0 0 1 .405-.132c.108 0 .208.018.301.055.095.036.235.1.421.194.172.087.307.153.405.197.1.042.213.076.339.101l.012.307a1.226 1.226 0 0 0-.162.062 4.888 4.888 0 0 0-.236.124 6.495 6.495 0 0 1-.945.42 2.808 2.808 0 0 1-.911.143h-.355v-.35zm3.665-.306c.163.111.308.197.436.256.129.06.228.09.298.09a.14.14 0 0 0 .065-.016.218.218 0 0 0 .104-.117.457.457 0 0 0 .035-.186.644.644 0 0 0-.096-.345c-.062-.104-.144-.155-.247-.155-.08 0-.165.056-.255.17-.09.111-.189.276-.297.493a.875.875 0 0 1-.301.35.75.75 0 0 1-.413.116h-.069l.003-.35h.074c.105 0 .202-.03.289-.089a.697.697 0 0 0 .224-.271c.108-.22.22-.396.336-.528a.546.546 0 0 1 .382-.21.48.48 0 0 1 .339.105.687.687 0 0 1 .228.303.972.972 0 0 1 .081.392.867.867 0 0 1-.081.376.555.555 0 0 1-.239.252.323.323 0 0 1-.166.04c-.196 0-.485-.129-.868-.385l.138-.291z" fill="#5B5C5D"/>
    <path d="M193.758 140.878a2.553 2.553 0 0 1-.004-.175c0-.078.001-.136.004-.175.314 0 .57-.025.768-.077.198-.055.354-.137.467-.249.115-.113.204-.263.266-.45l.285.031a1.334 1.334 0 0 0-.065.365c0 .228.111.342.332.342l.019.174-.019.175a.584.584 0 0 1-.425-.163.596.596 0 0 1-.162-.439h.077a1.205 1.205 0 0 1-.594.489c-.252.101-.568.152-.949.152zm.023 0c-.448.002-.798-.06-1.05-.187-.249-.129-.386-.313-.409-.551a1.537 1.537 0 0 1 .035-.426c.028-.119.063-.224.104-.315l.263.132a1.53 1.53 0 0 0-.108.477c0 .037.001.064.003.082.021.14.128.248.321.326.193.075.472.112.837.112.005.044.008.109.008.194 0 .07-.001.122-.004.156zm-.274-1.673.274.276-.274.275-.274-.275.274-.276zm.691 0 .274.276-.274.275-.274-.275.274-.276zm1.576 1.285h.096c.615 0 .923-.128.923-.385 0-.131-.074-.293-.22-.485a3.63 3.63 0 0 0-.606-.605l.042-.33 1.409-.613.1.287-1.208.528c.206.176.387.379.544.609.16.228.24.44.24.637a.555.555 0 0 1-.035.194c-.062.173-.194.302-.398.388-.203.083-.467.124-.791.124h-.096v-.349zm2.793.349a.446.446 0 0 1-.371-.167 1.385 1.385 0 0 1-.22-.481l.216-.132c.039.158.085.269.139.334a.3.3 0 0 0 .236.097h.027l.019.174-.019.175h-.027zm-1.432.811c.164-.057.314-.132.448-.225.133-.093.237-.193.312-.299a.52.52 0 0 0 .116-.299c0-.132-.066-.455-.197-.97l.297-.112c.057.183.103.377.139.582.039.204.058.371.058.5a.834.834 0 0 1-.135.446c-.09.148-.215.28-.374.396a1.926 1.926 0 0 1-.533.283l-.131-.302zm3.573-1.16h.008c.193 0 .289-.108.289-.322 0-.088-.025-.211-.077-.369a2.898 2.898 0 0 0-.131-.365l.274-.151c.052.109.103.251.154.427.052.173.078.326.078.458a.76.76 0 0 1-.078.345.579.579 0 0 1-.208.24.539.539 0 0 1-.301.086h-.008v-.349zm-1.042 0h.012c.144 0 .268-.091.37-.272a.807.807 0 0 0 .078-.221c.02-.086.04-.18.058-.283l.285.015c-.002.01-.012.058-.027.144a1.43 1.43 0 0 0-.023.248c0 .124.023.217.069.279.049.06.125.09.228.09h.008l.019.174-.019.175h-.008a.492.492 0 0 1-.359-.132.628.628 0 0 1-.158-.376l.062-.004a.928.928 0 0 1-.24.368.493.493 0 0 1-.347.144h-.008v-.349zm-1.103.349-.02-.175.02-.174h.019a.58.58 0 0 0 .27-.066.503.503 0 0 0 .197-.175.868.868 0 0 0 .112-.221c.028-.078.057-.169.085-.276l.289.031-.031.117c-.015.062-.028.12-.038.174a1.035 1.035 0 0 0-.012.148c0 .178.072.268.216.268h.008l.019.174-.019.175h-.012a.435.435 0 0 1-.297-.105.466.466 0 0 1-.139-.291.86.86 0 0 1-.285.295.696.696 0 0 1-.367.101h-.015zm1.416-2.212.262.26-.262.264-.259-.264.259-.26zm.71 0 .259.26-.259.264-.262-.264.262-.26zm-.355-.396.232.233-.232.237-.235-.237.235-.233zm3.43 2.619c-.203 0-.377-.027-.521-.081a1.229 1.229 0 0 1-.343-.194l.15-.256c.01.005.048.027.112.066.067.036.151.067.251.093.103.026.211.039.324.039.139 0 .252-.02.34-.058.09-.042.147-.087.173-.136a.251.251 0 0 0 .02-.097c0-.122-.067-.272-.201-.45-.131-.181-.332-.371-.602-.571l.174-.302c.285.217.508.442.667.675.162.23.243.446.243.648a.603.603 0 0 1-.05.252.54.54 0 0 1-.278.275 1.039 1.039 0 0 1-.459.097zm1.258-.034c.018-.156.027-.418.027-.788 0-.352-.008-.715-.023-1.09a7.704 7.704 0 0 0-.046-.734l.308-.066c.016.119.031.379.047.78.018.398.027.778.027 1.137 0 .362-.009.629-.027.799l-.313-.038zm2.811.023a.695.695 0 0 1-.417-.124.968.968 0 0 1-.294-.404l-.54-1.269.278-.147.529 1.257a.618.618 0 0 0 .173.264.449.449 0 0 0 .271.074h.042l.019.174-.019.175h-.042zm-1.285.015c-.176 0-.326-.027-.452-.081a1.708 1.708 0 0 1-.347-.198l.15-.256c.101.059.197.109.29.147a.89.89 0 0 0 .331.055c.16 0 .294-.025.402-.074.108-.052.213-.115.316-.19l.155.221a3.08 3.08 0 0 1-.205.175 1.063 1.063 0 0 1-.64.201zm1.289-.364h.081c.34 0 .624-.051.853-.152.229-.101.4-.212.513-.333.113-.125.183-.227.208-.307-.025-.054-.084-.098-.177-.132a.915.915 0 0 0-.316-.05c-.109 0-.215.015-.321.046a.757.757 0 0 0-.27.132c.162.194.313.348.452.462.139.111.29.195.455.252.165.054.356.082.575.082h.096l.02.174-.02.175h-.096c-.268 0-.499-.035-.695-.105a1.694 1.694 0 0 1-.54-.334 5.262 5.262 0 0 1-.571-.64l.012-.229a.994.994 0 0 1 .393-.236c.16-.055.324-.082.494-.082.193 0 .361.034.506.101.144.064.234.157.27.275a.353.353 0 0 1 .007.066c0 .14-.081.304-.243.493a2.023 2.023 0 0 1-.667.489 2.166 2.166 0 0 1-.938.202h-.081v-.349zm2.11 0h.155c.275 0 .469-.026.582-.078a.273.273 0 0 0 .17-.264 1.466 1.466 0 0 0-.081-.365 2.495 2.495 0 0 0-.127-.357l.278-.147c.051.101.101.238.15.411.052.171.077.32.077.447 0 .23-.083.404-.251.523-.167.119-.419.179-.756.179h-.197v-.349zm.367-1.983.274.275-.274.276-.274-.276.274-.275zm.691 0 .274.275-.274.276-.274-.276.274-.275zM139.31 159.51c0-.212-.006-.429-.019-.652a8.9 8.9 0 0 0-.046-.589 4.046 4.046 0 0 0-.29-1.095l.328-.19c.139.295.238.709.297 1.242.036.326.054.736.054 1.23v.229h-.324v-.175zm1.634.008a.621.621 0 0 1-.313-.081.658.658 0 0 1-.228-.229.6.6 0 0 1 0-.613.615.615 0 0 1 .228-.225.597.597 0 0 1 .313-.086c.113 0 .217.029.312.086a.615.615 0 0 1 .313.531.6.6 0 0 1-.085.307.658.658 0 0 1-.228.229.62.62 0 0 1-.312.081zm0-.306a.289.289 0 0 0 .212-.086.314.314 0 0 0 .085-.225.303.303 0 0 0-.085-.221.28.28 0 0 0-.212-.089.294.294 0 0 0-.301.31c0 .091.028.166.084.225.06.057.132.086.217.086zm1.737.306a.624.624 0 0 1-.313-.081.647.647 0 0 1-.227-.229.59.59 0 0 1 0-.613.605.605 0 0 1 .227-.225.6.6 0 0 1 .313-.086c.113 0 .217.029.312.086a.608.608 0 0 1 .228.225.59.59 0 0 1 0 .613.65.65 0 0 1-.228.229.62.62 0 0 1-.312.081zm0-.306a.287.287 0 0 0 .212-.086.31.31 0 0 0 .085-.225.3.3 0 1 0-.598 0 .31.31 0 0 0 .085.225.3.3 0 0 0 .216.086zm1.946.473a.868.868 0 0 1-.429-.089.513.513 0 0 1-.22-.276 1.539 1.539 0 0 1-.062-.481c0-.295-.006-.628-.019-1.001a7.295 7.295 0 0 0-.05-.788l.309-.066c.02.132.036.364.046.695.013.328.019.627.019.896v.163l-.004.136c0 .122.011.215.031.279a.24.24 0 0 0 .116.14.62.62 0 0 0 .263.043h.019l.019.174-.019.175h-.019zm-.018-.349h.154c.276 0 .47-.026.583-.078a.274.274 0 0 0 .17-.264 1.56 1.56 0 0 0-.081-.364 2.381 2.381 0 0 0-.128-.357l.278-.148c.052.101.102.238.151.411.051.171.077.32.077.447 0 .23-.084.405-.251.523-.167.119-.419.179-.756.179h-.197v-.349zm.367-1.983.274.275-.274.276-.274-.276.274-.275zm.69 0 .274.275-.274.276-.274-.276.274-.275zM206.801 148.432a.627.627 0 0 1-.313-.081.647.647 0 0 1-.227-.229.59.59 0 0 1 0-.613.605.605 0 0 1 .227-.225.602.602 0 0 1 .313-.086c.113 0 .217.029.313.086a.605.605 0 0 1 .227.225.59.59 0 0 1 0 .613.647.647 0 0 1-.227.229.627.627 0 0 1-.313.081zm0-.306a.286.286 0 0 0 .212-.086.31.31 0 0 0 .085-.225.3.3 0 1 0-.598 0 .31.31 0 0 0 .085.225.3.3 0 0 0 .216.086zm2.245 1.284c.165-.057.314-.132.448-.225a1.25 1.25 0 0 0 .313-.299.517.517 0 0 0 .115-.299c0-.132-.065-.455-.197-.97l.298-.112c.056.184.102.378.139.582.038.204.057.371.057.5a.837.837 0 0 1-.135.447c-.09.147-.215.279-.374.395a1.964 1.964 0 0 1-.532.284l-.132-.303zm.768-2.84.274.275-.274.276-.274-.276.274-.275zm.871 2.006a7.84 7.84 0 0 0 .027-.788c0-.352-.007-.715-.023-1.09a7.731 7.731 0 0 0-.046-.734l.309-.066c.015.119.03.379.046.78.018.399.027.778.027 1.137 0 .362-.009.629-.027.8l-.313-.039z" fill="#000"/>
    <path d="M138.615 152.896h72.769" stroke="#013B81"/>
    <path d="M209.731 154.558a1.52 1.52 0 0 0 1.516-1.524 1.52 1.52 0 0 0-1.516-1.524 1.52 1.52 0 0 0-1.516 1.524 1.52 1.52 0 0 0 1.516 1.524z" fill="#013B81" stroke="#013B81"/>
    <path d="M194.584 100.967a5.017 5.017 0 0 1 0-.423c.321 0 .579-.024.772-.073a1.04 1.04 0 0 0 .459-.237c.11-.109.197-.255.258-.439l.324.04a1.212 1.212 0 0 0-.069.36c0 .204.103.307.309.307l.023.213-.023.213a.59.59 0 0 1-.425-.163.56.56 0 0 1-.162-.426l.077.007a1.212 1.212 0 0 1-.598.478c-.249.095-.565.143-.945.143zm-1.007-1.37a1.564 1.564 0 0 0-.109.478c0 .028.002.05.004.066.021.126.126.226.317.298.193.07.467.105.822.105a3.304 3.304 0 0 1 0 .423c-.453.003-.807-.061-1.061-.19-.255-.132-.394-.322-.417-.57a1.473 1.473 0 0 1 .038-.427c.029-.122.063-.232.105-.33l.301.147zm.594-.205.185-.186.282.279c-.093.096-.187.19-.282.283l-.278-.283.093-.093zm.679 0 .185-.186.282.279c-.093.096-.187.19-.282.283l-.278-.283.093-.093zm3.505-.927-1.177.512c.188.16.362.354.521.582.16.227.24.442.24.644 0 .064-.01.124-.027.178-.06.184-.195.321-.406.412-.208.09-.476.135-.802.135h-.108v-.426h.108c.244 0 .441-.021.59-.063.152-.044.248-.106.29-.186a.333.333 0 0 0 .007-.062c0-.129-.071-.287-.212-.473a3.455 3.455 0 0 0-.602-.598l.046-.388 1.417-.613.115.346zm1.053 2.463a.478.478 0 0 1-.39-.174 1.536 1.536 0 0 1-.235-.505l.258-.159c.037.153.081.26.135.322.057.06.134.09.232.09h.027l.023.213-.023.213h-.027zm-1.474.757c.167-.062.318-.14.451-.233.137-.093.243-.19.321-.291a.446.446 0 0 0 .119-.275c0-.109-.068-.43-.204-.963l.339-.132c.06.184.107.378.143.583.039.201.058.372.058.512 0 .238-.099.461-.297.671a1.94 1.94 0 0 1-.764.493l-.166-.365zm3.623-1.183c.09 0 .158-.025.204-.074a.316.316 0 0 0 .07-.217c0-.083-.026-.201-.078-.354a3.45 3.45 0 0 0-.131-.364l.313-.175c.051.111.103.255.154.43.054.177.081.333.081.47a.798.798 0 0 1-.081.361.643.643 0 0 1-.216.256.556.556 0 0 1-.316.093h-.008v-.426h.008zm-1.046.426v-.426h.011a.32.32 0 0 0 .197-.063.621.621 0 0 0 .155-.19c.056-.106.1-.267.131-.485l.324.016a2.182 2.182 0 0 0-.046.384c0 .111.022.195.065.252.044.057.114.086.209.086h.007l.023.213-.023.213h-.007a.502.502 0 0 1-.355-.124.616.616 0 0 1-.174-.357l.073-.008a.931.931 0 0 1-.243.354.493.493 0 0 1-.339.135h-.008zm-1.108 0-.023-.213.023-.213h.02a.544.544 0 0 0 .258-.063.468.468 0 0 0 .189-.159.777.777 0 0 0 .12-.221 2.13 2.13 0 0 0 .081-.26l.324.035a2.821 2.821 0 0 1-.042.16.978.978 0 0 0-.039.263.3.3 0 0 0 .046.182c.034.042.085.063.155.063h.007l.024.213-.024.213h-.015a.435.435 0 0 1-.444-.372c-.17.248-.384.372-.644.372h-.016zm1.764-2.685.081.082c.111.11.166.167.166.167l-.247.248-.243-.248.243-.249zm.081.687.185-.186.093-.093.278.28-.093.092-.185.187a7.252 7.252 0 0 0-.278-.28zm-.718 0 .185-.186.093-.093.278.28-.093.092-.185.187a6.598 6.598 0 0 0-.278-.28zm5.784 1.572.023.213-.023.213h-.043a.534.534 0 0 1-.455-.225c-.108-.15-.161-.348-.158-.593l.212-.043c.008.119.023.21.046.272a.247.247 0 0 0 .12.128.621.621 0 0 0 .235.035h.043zm-.544-2.332c.033.313.071 1.112.115 2.398.013.424-.082.754-.285.989-.201.238-.49.357-.869.357-.2 0-.383-.041-.548-.124a.944.944 0 0 1-.536-.869c0-.143.024-.302.073-.478.052-.178.113-.337.186-.477l.297.14a2.727 2.727 0 0 0-.155.399 1.27 1.27 0 0 0-.054.361.56.56 0 0 0 .201.45c.134.117.313.175.536.175.566 0 .838-.301.815-.904a60.105 60.105 0 0 0-.07-1.405 18.983 18.983 0 0 0-.069-.93l.363-.082zm3.463 2.332.023.213-.023.213h-.039c-.267-.002-.479-.056-.636-.163a.797.797 0 0 1-.321-.473l.232-.19a.469.469 0 0 0 .216.287.858.858 0 0 0 .459.113h.089zm-2.964 0h.332c.317 0 .613-.038.888-.113.275-.075.555-.189.841-.341.08-.044.163-.084.251-.12.087-.04.159-.067.216-.082l.011.229a1.682 1.682 0 0 1-.409-.058 2.747 2.747 0 0 1-.424-.175c-.239-.127-.441-.19-.606-.19a.474.474 0 0 0-.286.093.632.632 0 0 0-.189.213l-.247-.174c.088-.176.193-.31.317-.4a.68.68 0 0 1 .413-.136c.111 0 .215.02.312.058.101.037.241.101.421.195.167.085.301.148.401.19.101.04.213.075.336.1l.015.377c-.048.013-.11.039-.185.077a5.118 5.118 0 0 0-.243.129 5.99 5.99 0 0 1-.949.419 2.98 2.98 0 0 1-.922.135h-.294v-.426zm3.681-.299c.16.108.304.194.432.256a.764.764 0 0 0 .298.093c.02 0 .041-.005.061-.016a.2.2 0 0 0 .089-.1.421.421 0 0 0 .031-.167.6.6 0 0 0-.093-.326c-.061-.099-.141-.148-.239-.148-.077 0-.16.053-.247.16-.085.106-.179.269-.282.488a.876.876 0 0 1-.305.365.789.789 0 0 1-.432.12h-.069l.008-.426h.069c.103 0 .198-.03.286-.09a.699.699 0 0 0 .223-.271 2.5 2.5 0 0 1 .344-.528c.116-.13.242-.198.378-.206a.504.504 0 0 1 .355.109c.103.08.181.186.235.318.054.132.081.27.081.415a.935.935 0 0 1-.081.392.565.565 0 0 1-.239.264.352.352 0 0 1-.177.043c-.204 0-.501-.131-.892-.392l.166-.353z" fill="#151617"/>
    <path d="M208.077 104.81h-66.154a3.317 3.317 0 0 0-3.308 3.325v4.989a3.317 3.317 0 0 0 3.308 3.326h66.154a3.316 3.316 0 0 0 3.307-3.326v-4.989a3.316 3.316 0 0 0-3.307-3.325z" fill="#EBEBFF"/>
    <path d="M199.722 110.791c-.144.305-.216.572-.216.799 0 .246.072.433.216.563.144.129.351.194.621.194.209 0 .383-.039.521-.117a.745.745 0 0 0 .313-.291.725.725 0 0 0 .1-.368c0-.215-.07-.538-.212-.97l.286-.132c.074.238.129.444.166.617.035.171.054.332.054.485 0 .186-.049.366-.147.539a1.103 1.103 0 0 1-.421.423 1.277 1.277 0 0 1-.66.163c-.244 0-.452-.049-.625-.147a1.002 1.002 0 0 1-.386-.392 1.154 1.154 0 0 1-.127-.536c0-.155.026-.318.077-.489.052-.17.111-.326.178-.465l.262.124zm.429-.264.092-.093.182-.182.181.182.093.093-.274.276-.274-.276zm2.105-1.49c.021.132.036.363.046.695.013.328.019.627.019.896v.163l-.003.136c0 .121.01.215.03.279.021.062.06.109.116.14.06.028.147.042.263.042h.019l.019.175-.019.175h-.019c-.183 0-.326-.03-.429-.09a.515.515 0 0 1-.22-.275 1.547 1.547 0 0 1-.061-.481c0-.295-.007-.629-.02-1.001a7.295 7.295 0 0 0-.05-.788l.309-.066zm.453 2.351h.035c.198 0 .352-.007.463-.023a.6.6 0 0 0 .243-.081.308.308 0 0 0 .112-.148.514.514 0 0 0 .023-.167c0-.082-.015-.225-.046-.426l.286-.055c.03.163.047.37.05.621.036.186.153.279.351.279h.027l.019.175-.019.175h-.027a.544.544 0 0 1-.34-.113.612.612 0 0 1-.2-.295l.077.016a.475.475 0 0 1-.166.233.798.798 0 0 1-.32.124 3.277 3.277 0 0 1-.533.035h-.035v-.35zm.213-1.571.173-.175.259.26-.259.264-.258-.264.085-.085zm.686 0 .174-.175.259.26-.259.264-.258-.264.084-.085zm2.766 1.571c.193 0 .289-.107.289-.322 0-.087-.026-.21-.077-.368a2.898 2.898 0 0 0-.131-.365l.274-.151c.051.108.103.251.154.427.052.173.078.325.078.457a.762.762 0 0 1-.078.346.586.586 0 0 1-.208.24.541.541 0 0 1-.301.086h-.008v-.35h.008zm-1.05.35-.019-.175.019-.175h.012c.144 0 .267-.09.37-.271a.842.842 0 0 0 .078-.221c.02-.086.039-.18.057-.284l.286.016c-.003.01-.012.058-.027.144a1.43 1.43 0 0 0-.023.248c0 .124.023.217.069.279.049.06.125.089.228.089h.008l.019.175-.019.175h-.008a.492.492 0 0 1-.359-.132.622.622 0 0 1-.158-.377l.062-.003a.928.928 0 0 1-.24.368.497.497 0 0 1-.347.144h-.008zm-1.103 0-.02-.175.02-.175h.019a.578.578 0 0 0 .27-.065.51.51 0 0 0 .197-.175.868.868 0 0 0 .112-.221c.028-.078.056-.17.085-.276l.289.031-.031.117c-.015.062-.028.12-.038.174a1.035 1.035 0 0 0-.012.148c0 .178.072.267.216.267h.008l.019.175-.019.175h-.012a.435.435 0 0 1-.297-.105.466.466 0 0 1-.139-.291.887.887 0 0 1-.285.295.696.696 0 0 1-.367.101h-.015zm3.184-.024c.018-.155.027-.417.027-.787 0-.352-.008-.716-.023-1.091a7.7 7.7 0 0 0-.046-.733l.308-.066c.016.119.031.379.047.78.018.398.027.777.027 1.137 0 .362-.009.628-.027.799l-.313-.039z" fill="#5B5C5D"/>
    <path d="M146.196 111.184h-.218l-.077-.075a1.81 1.81 0 0 0 .408-1.48 1.806 1.806 0 0 0-1.541-1.48 1.798 1.798 0 0 0-2.004 2.015 1.808 1.808 0 0 0 1.472 1.549 1.788 1.788 0 0 0 1.472-.41l.074.077v.219l1.172 1.178a.289.289 0 0 0 .41 0 .294.294 0 0 0 0-.413l-1.168-1.18zm-1.654 0a1.242 1.242 0 0 1-1.241-1.248c0-.69.554-1.247 1.241-1.247.686 0 1.24.557 1.24 1.247 0 .691-.554 1.248-1.24 1.248z" fill="#013B81"/>
    <path d="M208.077 120.884h-66.154a3.317 3.317 0 0 0-3.308 3.326v4.988a3.317 3.317 0 0 0 3.308 3.326h66.154a3.316 3.316 0 0 0 3.307-3.326v-4.988a3.316 3.316 0 0 0-3.307-3.326z" fill="#EBEBFF"/>
    <path d="M194.714 126.866c-.144.305-.216.572-.216.799 0 .246.072.434.216.563.144.13.352.194.622.194.208 0 .382-.039.521-.116a.748.748 0 0 0 .413-.66c0-.215-.071-.538-.213-.97l.286-.132c.074.238.13.444.166.617.036.171.054.332.054.485 0 .186-.049.366-.147.539a1.093 1.093 0 0 1-.42.423 1.282 1.282 0 0 1-.66.163c-.245 0-.453-.049-.625-.147a.989.989 0 0 1-.386-.392 1.143 1.143 0 0 1-.128-.536 1.7 1.7 0 0 1 .077-.488c.052-.171.111-.326.178-.466l.262.124zm.429-.264.092-.093.182-.182.181.182.093.093-.274.276-.274-.276zm2.105-1.49c.021.132.036.364.046.695.013.328.02.627.02.896v.163l-.004.136c0 .122.01.215.031.279a.24.24 0 0 0 .115.14c.06.029.147.043.263.043h.019l.019.174-.019.175h-.019a.863.863 0 0 1-.428-.089.508.508 0 0 1-.22-.276 1.514 1.514 0 0 1-.062-.481c0-.295-.007-.629-.019-1.001a7.493 7.493 0 0 0-.051-.788l.309-.066zm.453 2.352h.035c.198 0 .352-.008.463-.024a.6.6 0 0 0 .243-.081.299.299 0 0 0 .112-.148.512.512 0 0 0 .023-.166c0-.083-.015-.225-.046-.427l.286-.055c.031.163.047.37.05.621.036.187.153.28.351.28h.027l.019.174-.019.175h-.027a.544.544 0 0 1-.34-.113.612.612 0 0 1-.2-.295l.077.016a.475.475 0 0 1-.166.233.784.784 0 0 1-.32.124 3.277 3.277 0 0 1-.533.035h-.035v-.349zm.213-1.572.173-.174.259.26-.259.263-.258-.263.085-.086zm.687 0 .173-.174.259.26-.259.263-.258-.263.085-.086zm2.765 1.572c.193 0 .29-.108.29-.322 0-.088-.026-.211-.078-.369a2.958 2.958 0 0 0-.131-.365l.274-.151c.051.109.103.251.155.427.051.173.077.326.077.458a.77.77 0 0 1-.077.345.548.548 0 0 1-.51.326h-.008v-.349h.008zm-1.05.349-.019-.175.019-.174h.012c.144 0 .267-.091.371-.272a.842.842 0 0 0 .077-.221c.02-.085.039-.18.058-.283l.285.015c-.003.01-.011.058-.027.144a1.43 1.43 0 0 0-.023.248c0 .124.023.217.069.279.049.06.125.09.228.09h.008l.019.174-.019.175h-.008a.492.492 0 0 1-.359-.132.628.628 0 0 1-.158-.376l.062-.004a.937.937 0 0 1-.239.368.5.5 0 0 1-.348.144h-.008zm-1.103 0-.019-.175.019-.174h.019a.58.58 0 0 0 .27-.066.503.503 0 0 0 .197-.175.852.852 0 0 0 .112-.221 3.65 3.65 0 0 0 .085-.276l.289.031-.031.117a3.14 3.14 0 0 0-.038.175 1.011 1.011 0 0 0-.012.147c0 .178.072.268.216.268h.008l.019.174-.019.175h-.012a.435.435 0 0 1-.297-.105.466.466 0 0 1-.139-.291.869.869 0 0 1-.285.295.696.696 0 0 1-.367.101h-.015zm4.032 0a.447.447 0 0 1-.371-.167 1.423 1.423 0 0 1-.22-.481l.217-.132c.038.158.084.269.138.334a.3.3 0 0 0 .236.097h.027l.019.174-.019.175h-.027zm-1.432.811c.165-.057.314-.132.448-.225s.238-.193.312-.299a.513.513 0 0 0 .116-.299c0-.132-.065-.455-.197-.97l.298-.112c.056.183.103.377.138.582.039.204.058.371.058.5a.832.832 0 0 1-.135.446 1.37 1.37 0 0 1-.374.396 1.941 1.941 0 0 1-.533.284l-.131-.303zm1.424-1.16h.24c.319 0 .561-.043.725-.128.168-.088.257-.211.27-.369a.428.428 0 0 0-.085-.275.86.86 0 0 0-.25-.249c-.075.114-.143.28-.205.497a2.288 2.288 0 0 0-.093.636c0 .168.03.316.089.443a.74.74 0 0 0 .224.294c.09.07.179.105.266.105.07 0 .129-.021.178-.062.031-.026.046-.066.046-.12a.582.582 0 0 0-.123-.318.951.951 0 0 0-.321-.295l.062-.295c.131.049.274.084.428.105.157.02.338.031.541.031l.019.174-.019.175c-.199 0-.38-.016-.544-.047a2.694 2.694 0 0 1-.487-.143l.078-.218c.123.05.234.119.331.21a.99.99 0 0 1 .232.303.72.72 0 0 1 .085.326.469.469 0 0 1-.155.357.536.536 0 0 1-.366.135.73.73 0 0 1-.413-.135.966.966 0 0 1-.32-.404 1.46 1.46 0 0 1-.108-.648c.013-.292.057-.551.135-.776.077-.228.157-.406.239-.535l.278-.113c.159.093.288.217.386.373a.855.855 0 0 1 .146.469c0 .269-.121.477-.362.625-.24.147-.564.221-.973.221h-.174v-.349zm4.106 0c.193 0 .289-.108.289-.322 0-.088-.025-.211-.077-.369a3.135 3.135 0 0 0-.131-.365l.274-.151c.051.109.103.251.154.427.052.173.077.326.077.458a.757.757 0 0 1-.077.345.548.548 0 0 1-.509.326h-.008v-.349h.008zm-1.05.349-.019-.175.019-.174h.012c.144 0 .267-.091.37-.272a.775.775 0 0 0 .077-.221c.021-.085.04-.18.058-.283l.286.015c-.003.01-.012.058-.027.144a1.339 1.339 0 0 0-.023.248c0 .124.023.217.069.279.049.06.125.09.228.09h.008l.019.174-.019.175h-.008a.492.492 0 0 1-.359-.132.628.628 0 0 1-.158-.376l.061-.004a.926.926 0 0 1-.239.368.495.495 0 0 1-.347.144h-.008zm-1.103 0-.02-.175.02-.174h.019a.58.58 0 0 0 .27-.066.51.51 0 0 0 .197-.175.852.852 0 0 0 .112-.221 3.65 3.65 0 0 0 .085-.276l.289.031-.031.117a3.14 3.14 0 0 0-.038.175 1.011 1.011 0 0 0-.012.147c0 .178.072.268.216.268h.008l.019.174-.019.175h-.012a.435.435 0 0 1-.297-.105.466.466 0 0 1-.139-.291.869.869 0 0 1-.285.295.696.696 0 0 1-.367.101h-.015zm1.771-2.608.231.237-.231.233-.232-.233.232-.237zm.355.396.262.264-.262.26a10.582 10.582 0 0 0-.259-.26l.259-.264zm-.71 0 .262.264-.262.26a10.582 10.582 0 0 0-.259-.26l.259-.264z" fill="#5B5C5D"/>
    <path d="M146.196 127.259h-.218l-.077-.075a1.81 1.81 0 0 0 .408-1.48 1.807 1.807 0 0 0-1.541-1.48 1.798 1.798 0 0 0-2.004 2.015 1.808 1.808 0 0 0 1.472 1.549 1.785 1.785 0 0 0 1.472-.41l.074.078v.219l1.172 1.177a.289.289 0 0 0 .41 0 .294.294 0 0 0 0-.413l-1.168-1.18zm-1.654 0a1.242 1.242 0 0 1-1.241-1.247c0-.69.554-1.248 1.241-1.248.686 0 1.24.558 1.24 1.248s-.554 1.247-1.24 1.247z" fill="#013B81"/>
    <path d="M198.957 28.37c.037.27.066.636.088 1.098.022.458.033.883.033 1.275v.21c-.004.189.006.331.028.427a.307.307 0 0 0 .132.205c.07.04.177.061.32.061h.027l.045.416-.045.41h-.027c-.404 0-.697-.116-.877-.349-.176-.233-.264-.588-.264-1.064a30.805 30.805 0 0 0-.044-1.38c-.022-.47-.055-.856-.1-1.159l.684-.15zm.581 3.276h.088c.588 0 1.021-.042 1.301-.127.283-.085.439-.222.468-.41l.006-.056a.484.484 0 0 0-.121-.316.48.48 0 0 0-.342-.183.478.478 0 0 0-.331.144.445.445 0 0 0-.149.327c0 .126.081.244.243.355.165.111.367.2.606.266.239.063.461.095.667.095a.876.876 0 0 0 .375-.067c.095-.044.143-.11.143-.2 0-.35-.838-.757-2.513-1.22l.303-.764c.724.222 1.29.434 1.698.638.408.199.694.397.86.593a.97.97 0 0 1 .248.637c0 .14-.032.314-.094.521a.696.696 0 0 1-.386.432 1.615 1.615 0 0 1-.711.145c-.309 0-.621-.056-.937-.167a2.22 2.22 0 0 1-.788-.47c-.206-.204-.309-.431-.309-.683 0-.04.007-.101.022-.183a1.92 1.92 0 0 1 .242-.626c.118-.185.256-.325.414-.421a.795.795 0 0 1 .502-.117.757.757 0 0 1 .441.2c.135.118.242.268.319.449a1.418 1.418 0 0 1 .1.76c-.048.32-.159.574-.331.759-.173.184-.418.318-.733.399-.313.077-.717.116-1.213.116h-.088v-.826zm5.468.826a.75.75 0 0 1-.606-.277c-.155-.185-.284-.443-.386-.776l.496-.305c.051.196.114.335.187.416a.407.407 0 0 0 .309.116h.05l.044.416-.044.41h-.05zm-2.222.92c.243-.1.465-.216.667-.349.202-.13.36-.259.474-.388.118-.13.177-.24.177-.333 0-.151-.098-.563-.292-1.236l-.028-.11.618-.244c.088.255.157.528.209.82.051.288.077.545.077.77 0 .363-.141.697-.424 1.004-.283.31-.664.565-1.141.765l-.337-.699zm2.223-1.746h.039c.33 0 .577-.016.738-.05.162-.037.269-.09.32-.16a.507.507 0 0 0 .077-.305c0-.107-.018-.283-.055-.527l.568-.11c.052.27.077.574.077.914a.29.29 0 0 0 .121.166.487.487 0 0 0 .287.072h.033l.044.416-.044.41h-.033a.845.845 0 0 1-.468-.138 1.044 1.044 0 0 1-.337-.36l.138.027c-.099.17-.261.292-.485.366-.221.07-.548.105-.981.105h-.039v-.826zm.436-2.477.457.465c-.099.104-.2.205-.303.305l-.154.155-.226-.233-.232-.227.458-.465zm.964 0 .458.465c-.099.104-.2.205-.303.305l-.155.155-.226-.233-.231-.227.457-.465zm2.468 2.477.044.416-.044.41h-.055a.848.848 0 0 1-.507-.172 1.235 1.235 0 0 1-.375-.465 1.453 1.453 0 0 1-.143-.649c-.011-.262-.033-.704-.067-1.325a34.621 34.621 0 0 0-.088-1.33l.689-.155c.03.3.061.977.094 2.034l.033.782c.007.162.04.279.099.349.063.07.151.105.265.105h.055zm-1.72 0h.116c.187 0 .321-.033.402-.1.085-.07.125-.19.122-.36l.49.061c0 .359-.088.652-.264.882-.177.229-.421.343-.734.343h-.132v-.826zm1.664 0h.038a4 4 0 0 0 .739-.05c.162-.037.268-.09.32-.16a.514.514 0 0 0 .077-.305 4.16 4.16 0 0 0-.055-.527l.568-.11c.051.27.077.574.077.914a.286.286 0 0 0 .121.166.484.484 0 0 0 .287.072h.033l.044.416-.044.41h-.033a.849.849 0 0 1-.469-.138 1.05 1.05 0 0 1-.336-.36l.138.027a.84.84 0 0 1-.485.366c-.221.07-.548.105-.982.105h-.038v-.826zm0 1.292.457.465c-.099.104-.2.206-.303.305l-.154.156-.226-.233-.232-.228.458-.465zm.964 0 .458.465c-.099.104-.2.206-.303.305l-.155.156-.226-.233-.231-.228.457-.465zm1.184-1.292h.082c.401 0 .725-.016.971-.05.25-.037.443-.1.579-.188a.515.515 0 0 0 .237-.388c0-.2-.03-.397-.089-.593a1.359 1.359 0 0 0-.242-.488c-.099-.126-.212-.189-.336-.189a.363.363 0 0 0-.293.156.5.5 0 0 0-.121.316c0 .059.013.107.039.144.055.07.156.127.303.172a2.164 2.164 0 0 0 .876.028v.737a2.47 2.47 0 0 1-.534.06c-.261 0-.495-.046-.7-.138a.865.865 0 0 1-.436-.405 1.131 1.131 0 0 1-.099-.476c0-.211.044-.416.132-.616.088-.2.211-.362.369-.487a.808.808 0 0 1 .524-.194c.217 0 .412.086.585.26.172.17.306.396.402.676.099.281.149.579.149.893 0 .51-.191.903-.574 1.18-.378.278-.962.416-1.753.416h-.071v-.826zm.639-3.464.513-.51.507.51-.171.172c-.11.114-.222.227-.336.338l-.513-.51z" fill="#151617"/>
    <path d="M218 39.54h-86" stroke="#98C7FF" stroke-width=".4"/>
    <path d="M175.161 132H70.839C69.27 132 68 133.246 68 134.783v10.434c0 1.537 1.27 2.783 2.839 2.783H175.16c1.568 0 2.839-1.246 2.839-2.783v-10.434c0-1.537-1.271-2.783-2.839-2.783z" fill="#013B81"/>
    <path d="M114.355 142.46c.621-.13 1.077-.302 1.369-.518.291-.211.437-.478.437-.801 0-.211-.028-.423-.085-.634a1.469 1.469 0 0 0-.25-.529c-.106-.145-.231-.224-.375-.239a.309.309 0 0 0-.244.083.715.715 0 0 0-.187.251.735.735 0 0 0-.068.3c0 .078.015.139.045.184.06.089.199.148.414.178.22.029.504.044.852.044h.556l.035.306-.035.307-.698.005c-.413 0-.747-.031-1.005-.095-.253-.066-.431-.202-.533-.406a.988.988 0 0 1-.097-.439c0-.201.043-.401.131-.601.09-.201.21-.366.357-.496a.736.736 0 0 1 .489-.195c.223 0 .421.097.596.29.177.189.314.434.408.734.099.297.148.596.148.896 0 .483-.184.891-.551 1.225-.363.334-.87.564-1.521.69l-.188-.54zm6.745-1.681.034.306-.034.307h-.057c-.393-.004-.705-.082-.936-.234a1.148 1.148 0 0 1-.472-.679l.341-.273c.038.163.144.301.318.412.178.108.403.161.676.161h.13zm-4.36 0h.488c.466 0 .901-.053 1.306-.161a6.062 6.062 0 0 0 1.238-.49c.117-.063.24-.12.369-.172.129-.056.234-.095.318-.117l.017.328a2.484 2.484 0 0 1-.602-.083 4.03 4.03 0 0 1-.625-.251c-.352-.182-.649-.272-.891-.272a.707.707 0 0 0-.42.133.88.88 0 0 0-.278.306l-.364-.25c.129-.252.284-.444.466-.573a1.02 1.02 0 0 1 .607-.195c.163 0 .317.028.46.083.148.052.354.145.619.279.246.122.443.213.591.272.147.06.312.108.494.145l.022.54a1.34 1.34 0 0 0-.272.111c-.11.052-.229.113-.358.184a8.725 8.725 0 0 1-1.397.601c-.408.13-.861.195-1.357.195h-.431v-.613zm1.453 1.481a12.8 12.8 0 0 1 .443-.434c.148.137.295.282.443.434l-.443.434-.443-.434zm2.849-1.481h.046c.295 0 .524-.013.687-.039a.924.924 0 0 0 .352-.111.376.376 0 0 0 .153-.217.725.725 0 0 0 .023-.206c0-.1-.009-.213-.028-.339-.019-.13-.031-.21-.034-.24l.471-.094c.053.248.079.549.079.901a.405.405 0 0 0 .148.256c.083.06.195.089.335.089h.04l.034.306-.034.307h-.04a.82.82 0 0 1-.494-.156.942.942 0 0 1-.312-.401l.125.022a.754.754 0 0 1-.46.418c-.224.078-.572.117-1.045.117h-.046v-.613zm.256-2.226.273-.267.414.401c-.136.137-.274.273-.414.406l-.409-.406.136-.134zm.999 0 .273-.267.414.401c-.136.137-.274.273-.414.406l-.409-.406.136-.134zm4.126 2.226h.011a.67.67 0 0 0 .369-.105c.114-.075.174-.158.182-.251l.38.056a1.006 1.006 0 0 1-.159.462.982.982 0 0 1-.335.334.865.865 0 0 1-.437.117h-.011v-.613zm1.482 0 .034.306-.04.307h-.023a.917.917 0 0 1-.567-.184 1.074 1.074 0 0 1-.358-.534c-.042-.115-.112-.431-.21-.946l.471-.123c.045.245.081.434.108.568.03.13.057.228.079.295.068.207.227.311.477.311h.029zm-3.009.613v-.613h.017a.481.481 0 0 0 .289-.089.885.885 0 0 0 .227-.272c.084-.152.148-.384.193-.696l.477.022a3.123 3.123 0 0 0-.068.551c0 .16.032.28.097.362.064.082.166.122.306.122h.012l.034.306-.034.307h-.012a.75.75 0 0 1-.522-.179.878.878 0 0 1-.256-.512l.108-.011a1.335 1.335 0 0 1-.357.507.737.737 0 0 1-.5.195h-.011zm-1.63 0-.034-.307.034-.306h.029a.82.82 0 0 0 .38-.089.7.7 0 0 0 .278-.228c.076-.096.135-.202.176-.317a2.97 2.97 0 0 0 .119-.373l.477.05a5.513 5.513 0 0 1-.062.228 1.39 1.39 0 0 0-.057.379c0 .115.023.202.068.261.049.06.125.089.227.089h.012l.034.306-.034.307h-.023a.663.663 0 0 1-.432-.145.639.639 0 0 1-.221-.39c-.25.356-.566.535-.948.535h-.023zm4.568-.613h.489c.465 0 .9-.053 1.305-.161a6.062 6.062 0 0 0 1.238-.49c.117-.063.24-.12.369-.172.129-.056.235-.095.318-.117l.017.328a2.49 2.49 0 0 1-.602-.083 3.984 3.984 0 0 1-.624-.251c-.352-.182-.65-.272-.892-.272a.707.707 0 0 0-.42.133.88.88 0 0 0-.278.306l-.363-.25c.128-.252.284-.444.465-.573a1.02 1.02 0 0 1 .608-.195c.162 0 .316.028.46.083.147.052.353.145.619.279.245.122.442.213.59.272.148.06.312.108.494.145l.023.54a1.368 1.368 0 0 0-.273.111c-.11.052-.229.113-.358.184a8.757 8.757 0 0 1-1.396.601c-.409.13-.861.195-1.357.195h-.432v-.613zm1.454 1.486c.147-.152.295-.297.443-.434.147.137.295.282.442.434l-.442.434-.443-.434z" fill="#fff"/>
</svg>
