<svg width="260" height="182" viewBox="0 0 260 182" fill="none" xmlns="http://www.w3.org/2000/svg">
    <rect width="260" height="182" rx="8" fill="#7BC6DE"/>
    <path d="m148.523 25.365 60.841-.001M148.523 98.42l60.841-71.325M79.582 25.365h61.83M79.582 98.42h61.83M80.125 43.355l61.283-17.99M80.125 116.411l61.283-17.991M80.125 61.347l61.283-35.983M80.125 134.403l61.283-35.982M80.125 78.793l61.283-53.429M80.125 151.848l61.283-53.429" stroke="#5385C2" stroke-width=".3"/>
    <path d="M219.064 25.364c0 5.337-4.342 9.664-9.699 9.664s-9.699-4.327-9.699-9.664c0-5.336 4.342-9.663 9.699-9.663s9.699 4.327 9.699 9.663z" fill="#013B81" stroke="#5385C2" stroke-width=".3"/>
    <path d="M209.362 25.363a2.184 2.184 0 0 0 2.188-2.18c0-1.205-.979-2.181-2.188-2.181-1.21 0-2.189.976-2.189 2.18 0 1.206.979 2.181 2.189 2.181zm0 1.09c-1.461 0-4.378.731-4.378 2.182v.545c0 .3.247.545.548.545h7.66a.548.548 0 0 0 .547-.545v-.545c0-1.45-2.916-2.181-4.377-2.181z" fill="#BFD7FF"/>
    <rect x="141.013" y="17.883" width="14.561" height="14.507" rx=".85" fill="#1565C0" stroke="#5385C2" stroke-width=".3"/>
    <path d="M150.357 24.725v-2.468a.826.826 0 0 0-.825-.822h-2.477a.827.827 0 0 0-.826.822v.823h-.825a.827.827 0 0 0-.826.822v4.113c0 .453.372.823.826.823h2.064a.413.413 0 0 0 .413-.411v-1.234h.825v1.234c0 .226.186.411.413.411h2.064c.454 0 .825-.37.825-.823v-2.467a.826.826 0 0 0-.825-.823h-.826zm-4.128 3.29h-.825v-.822h.825v.822zm0-1.645h-.825v-.822h.825v.822zm0-1.645h-.825v-.823h.825v.823zm1.652 1.645h-.826v-.822h.826v.822zm0-1.645h-.826v-.823h.826v.823zm0-1.645h-.826v-.823h.826v.823zm1.651 3.29h-.826v-.822h.826v.822zm0-1.645h-.826v-.823h.826v.823zm0-1.645h-.826v-.823h.826v.823zm1.651 4.935h-.826v-.822h.826v.822zm0-1.645h-.826v-.822h.826v.822z" fill="#E3F2FD"/>
    <rect x="141.013" y="90.938" width="14.561" height="14.507" rx=".85" fill="#1565C0" stroke="#5385C2" stroke-width=".3"/>
    <path d="M150.357 97.78v-2.468a.826.826 0 0 0-.825-.823h-2.477a.827.827 0 0 0-.826.823v.823h-.825a.827.827 0 0 0-.826.822v4.113c0 .453.372.823.826.823h2.064a.414.414 0 0 0 .413-.412v-1.234h.825v1.234c0 .227.186.412.413.412h2.064c.454 0 .825-.37.825-.823v-2.468a.826.826 0 0 0-.825-.822h-.826zm-4.128 3.29h-.825v-.823h.825v.823zm0-1.645h-.825v-.823h.825v.823zm0-1.645h-.825v-.823h.825v.823zm1.652 1.645h-.826v-.823h.826v.823zm0-1.645h-.826v-.823h.826v.823zm0-1.645h-.826v-.823h.826v.823zm1.651 3.29h-.826v-.823h.826v.823zm0-1.645h-.826v-.823h.826v.823zm0-1.645h-.826v-.823h.826v.823zm1.651 4.935h-.826v-.823h.826v.823zm0-1.645h-.826v-.823h.826v.823z" fill="#E3F2FD"/>
    <path d="M87.18 25.137c0 4.005-3.26 7.253-7.28 7.253-4.022 0-7.281-3.248-7.281-7.253 0-4.006 3.259-7.254 7.28-7.254 4.022 0 7.28 3.248 7.28 7.254z" fill="#BFD7FF" stroke="#5385C2" stroke-width=".3"/>
    <path d="M79.9 25.136a1.854 1.854 0 0 0 1.858-1.85c0-1.023-.831-1.851-1.857-1.851a1.854 1.854 0 0 0-1.858 1.85c0 1.023.831 1.851 1.858 1.851zm0 .926c-1.24 0-3.715.62-3.715 1.85v.463c0 .255.21.463.465.463h6.501a.465.465 0 0 0 .465-.463v-.462c0-1.231-2.475-1.851-3.715-1.851z" fill="#013B81"/>
    <path d="M87.18 98.192c0 4.005-3.26 7.253-7.28 7.253-4.022 0-7.281-3.248-7.281-7.253 0-4.006 3.259-7.254 7.28-7.254 4.022 0 7.28 3.248 7.28 7.254z" fill="#BFD7FF" stroke="#5385C2" stroke-width=".3"/>
    <path d="M79.9 98.191a1.854 1.854 0 0 0 1.858-1.85c0-1.023-.831-1.852-1.857-1.852a1.854 1.854 0 0 0-1.858 1.851c0 1.023.831 1.851 1.858 1.851zm0 .925c-1.24 0-3.715.62-3.715 1.851v.463c0 .254.21.463.465.463h6.501a.465.465 0 0 0 .465-.463v-.463c0-1.23-2.475-1.85-3.715-1.85z" fill="#013B81"/>
    <path d="M87.18 43.129c0 4.006-3.26 7.254-7.28 7.254-4.022 0-7.281-3.248-7.281-7.254 0-4.005 3.259-7.253 7.28-7.253 4.022 0 7.28 3.248 7.28 7.253z" fill="#BFD7FF" stroke="#5385C2" stroke-width=".3"/>
    <path d="M79.9 43.13a1.854 1.854 0 0 0 1.858-1.851c0-1.023-.831-1.851-1.857-1.851a1.854 1.854 0 0 0-1.858 1.85c0 1.023.831 1.852 1.858 1.852zm0 .925c-1.24 0-3.715.62-3.715 1.85v.463c0 .255.21.463.465.463h6.501a.465.465 0 0 0 .465-.463v-.462c0-1.231-2.475-1.851-3.715-1.851z" fill="#013B81"/>
    <path d="M87.18 116.183c0 4.005-3.26 7.253-7.28 7.253-4.022 0-7.281-3.248-7.281-7.253 0-4.006 3.259-7.254 7.28-7.254 4.022 0 7.28 3.248 7.28 7.254z" fill="#BFD7FF" stroke="#5385C2" stroke-width=".3"/>
    <path d="M79.9 116.182a1.854 1.854 0 0 0 1.858-1.851 1.854 1.854 0 0 0-1.857-1.851 1.854 1.854 0 0 0-1.858 1.851c0 1.023.831 1.851 1.858 1.851zm0 .926c-1.24 0-3.715.62-3.715 1.85v.463c0 .255.21.463.465.463h6.501a.465.465 0 0 0 .465-.463v-.463c0-1.23-2.475-1.85-3.715-1.85z" fill="#013B81"/>
    <path d="M87.18 61.118c0 4.006-3.26 7.254-7.28 7.254-4.022 0-7.281-3.248-7.281-7.254 0-4.005 3.259-7.253 7.28-7.253 4.022 0 7.28 3.248 7.28 7.253z" fill="#BFD7FF" stroke="#5385C2" stroke-width=".3"/>
    <path d="M79.9 61.118a1.854 1.854 0 0 0 1.858-1.851c0-1.023-.831-1.851-1.857-1.851a1.854 1.854 0 0 0-1.858 1.85c0 1.023.831 1.852 1.858 1.852zm0 .925c-1.24 0-3.715.62-3.715 1.851v.463c0 .254.21.462.465.462h6.501a.465.465 0 0 0 .465-.462v-.463c0-1.23-2.475-1.85-3.715-1.85z" fill="#013B81"/>
    <path d="M87.18 134.173c0 4.005-3.26 7.253-7.28 7.253-4.022 0-7.281-3.248-7.281-7.253s3.259-7.253 7.28-7.253c4.022 0 7.28 3.248 7.28 7.253z" fill="#BFD7FF" stroke="#5385C2" stroke-width=".3"/>
    <path d="M79.9 134.174a1.853 1.853 0 0 0 1.858-1.85 1.854 1.854 0 0 0-1.857-1.851 1.854 1.854 0 0 0-1.858 1.851c0 1.022.831 1.85 1.858 1.85zm0 .926c-1.24 0-3.715.62-3.715 1.851v.462c0 .255.21.463.465.463h6.501a.465.465 0 0 0 .465-.463v-.462c0-1.231-2.475-1.851-3.715-1.851z" fill="#013B81"/>
    <path d="M87.18 79.11c0 4.006-3.26 7.254-7.28 7.254-4.022 0-7.281-3.248-7.281-7.254 0-4.005 3.259-7.253 7.28-7.253 4.022 0 7.28 3.248 7.28 7.254z" fill="#BFD7FF" stroke="#5385C2" stroke-width=".3"/>
    <path d="M79.9 79.109a1.854 1.854 0 0 0 1.858-1.85c0-1.023-.831-1.852-1.857-1.852a1.854 1.854 0 0 0-1.858 1.851c0 1.023.831 1.85 1.858 1.85zm0 .925c-1.24 0-3.715.62-3.715 1.851v.463c0 .254.21.463.465.463h6.501a.465.465 0 0 0 .465-.463v-.463c0-1.23-2.475-1.85-3.715-1.85z" fill="#013B81"/>
    <path d="M87.18 152.164c0 4.006-3.26 7.254-7.28 7.254-4.022 0-7.281-3.248-7.281-7.254 0-4.005 3.259-7.253 7.28-7.253 4.022 0 7.28 3.248 7.28 7.253z" fill="#BFD7FF" stroke="#5385C2" stroke-width=".3"/>
    <path d="M79.9 152.164a1.854 1.854 0 0 0 1.858-1.851 1.854 1.854 0 0 0-1.857-1.851 1.854 1.854 0 0 0-1.858 1.851c0 1.022.831 1.851 1.858 1.851zm0 .925c-1.24 0-3.715.62-3.715 1.851v.463c0 .254.21.462.465.462h6.501a.465.465 0 0 0 .465-.462v-.463c0-1.231-2.475-1.851-3.715-1.851z" fill="#013B81"/>
    <g clip-path="url(#a)">
        <path d="M206.734 107h-50.019c-.547 0-.99.44-.99.982v53.036c0 .542.443.982.99.982h50.019c.547 0 .991-.44.991-.982v-53.036a.987.987 0 0 0-.991-.982z" fill="#fff"/>
        <path d="M201.782 122.878c0 .18.149.327.33.327h1.321a.33.33 0 0 0 .33-.327v-1.637a.33.33 0 0 0-.33-.327h-1.321a.33.33 0 0 0-.33.327v1.637zm1.981-2.456h-.412l-.118-.116a.166.166 0 0 0-.115-.047h-.69a.17.17 0 0 0-.116.047l-.117.116h-.413a.165.165 0 0 0-.165.164c0 .09.074.164.165.164h1.981a.165.165 0 0 0 .165-.164.165.165 0 0 0-.165-.164z" fill="#4F4F4F"/>
        <path d="M185.587 122.499a4.165 4.165 0 0 1 0-.321c.248 0 .446-.019.594-.056a.81.81 0 0 0 .354-.18.838.838 0 0 0 .199-.333l.25.029a.9.9 0 0 0-.054.274c0 .156.079.233.238.233l.018.162-.018.162a.455.455 0 0 1-.327-.124.42.42 0 0 1-.125-.324l.06.006a.938.938 0 0 1-.461.363 2.095 2.095 0 0 1-.728.109zm-.776-1.04a1.18 1.18 0 0 0-.083.362c0 .022.001.038.003.05.016.096.097.172.244.227.148.053.359.08.633.08a2.453 2.453 0 0 1 0 .321c-.349.002-.621-.046-.817-.145-.196-.1-.303-.244-.321-.433a1.134 1.134 0 0 1 .029-.324c.022-.092.049-.176.081-.25l.231.112zm.458-.157.143-.141.217.212c-.072.073-.144.145-.217.215l-.214-.215.071-.071zm.523 0 .143-.141.217.212c-.072.073-.144.145-.217.215l-.214-.215.071-.071zm2.699-.704-.906.389c.144.122.278.269.401.442s.184.336.184.489a.422.422 0 0 1-.021.136c-.045.139-.149.243-.312.312-.16.069-.366.103-.618.103h-.083v-.324h.083c.189 0 .34-.016.455-.047.117-.033.191-.081.223-.141a.258.258 0 0 0 .006-.048c0-.098-.055-.218-.164-.359a2.67 2.67 0 0 0-.463-.454l.035-.294 1.091-.466.089.262zm.811 1.871a.369.369 0 0 1-.3-.132 1.159 1.159 0 0 1-.182-.383l.2-.121a.567.567 0 0 0 .104.244.232.232 0 0 0 .178.068h.021l.017.162-.017.162h-.021zm-1.135.575a1.55 1.55 0 0 0 .347-.177c.105-.071.188-.144.247-.221.061-.075.092-.144.092-.209 0-.083-.052-.326-.157-.731l.261-.1c.046.139.082.287.11.442.03.153.045.283.045.389 0 .181-.077.35-.229.51a1.5 1.5 0 0 1-.589.374l-.127-.277zm2.789-.899c.069 0 .122-.019.158-.056a.239.239 0 0 0 .053-.165.92.92 0 0 0-.059-.268 3.162 3.162 0 0 0-.101-.277l.24-.133c.04.085.08.194.119.328a1.2 1.2 0 0 1 .063.356c0 .1-.021.192-.063.274a.435.435 0 0 1-.41.265h-.006v-.324h.006zm-.805.324v-.324h.009a.253.253 0 0 0 .151-.047.46.46 0 0 0 .119-.144c.044-.081.077-.204.101-.369l.25.012a1.635 1.635 0 0 0-.036.292c0 .084.017.148.051.191.033.044.087.065.16.065h.006l.018.162-.018.162h-.006a.389.389 0 0 1-.273-.094.463.463 0 0 1-.134-.271l.057-.006a.704.704 0 0 1-.188.268.38.38 0 0 1-.261.103h-.006zm-.853 0-.018-.162.018-.162h.015a.435.435 0 0 0 .345-.168.624.624 0 0 0 .092-.168 1.63 1.63 0 0 0 .062-.197l.25.026a3.41 3.41 0 0 1-.033.121.742.742 0 0 0-.03.201c0 .06.012.107.036.138.026.031.065.047.119.047h.006l.018.162-.018.162h-.012a.343.343 0 0 1-.226-.076.34.34 0 0 1-.116-.207c-.131.189-.296.283-.496.283h-.012zm1.358-2.039.062.062.128.127-.19.188-.187-.188.187-.189zm.062.522.143-.142.071-.07.214.212-.071.071-.143.141a4.757 4.757 0 0 0-.214-.212zm-.552 0 .142-.142.072-.07.214.212-.072.071-.142.141a6.108 6.108 0 0 0-.214-.212zm3.523 1.547-.021-.162.015-.162h.036c.303 0 .533-.03.692-.089.16-.061.254-.155.282-.283a1.19 1.19 0 0 0-.044-.315.768.768 0 0 0-.128-.268c-.056-.073-.12-.109-.193-.109a.213.213 0 0 0-.128.044.34.34 0 0 0-.125.251c0 .037.009.07.027.1.03.045.084.08.163.106a1.074 1.074 0 0 0 .485.018v.297a1.288 1.288 0 0 1-.265.027.973.973 0 0 1-.365-.065.447.447 0 0 1-.229-.201.517.517 0 0 1-.057-.244c0-.102.022-.201.066-.298a.638.638 0 0 1 .184-.238.41.41 0 0 1 .262-.095c.11 0 .21.044.297.13a.834.834 0 0 1 .202.333 1.275 1.275 0 0 1 .068.51.651.651 0 0 1-.327.524c-.202.126-.493.19-.873.192l-.024-.003zm-.782-1.04a1.18 1.18 0 0 0-.083.362c0 .022.001.038.003.05.016.096.097.172.244.227.148.053.359.08.633.08a2.453 2.453 0 0 1 0 .321c-.349.002-.621-.046-.817-.145-.197-.1-.303-.244-.321-.433a1.134 1.134 0 0 1 .029-.324c.022-.092.049-.176.081-.25l.231.112zm1.177-1.082c.077-.08.155-.157.232-.23.077.073.154.15.232.23l-.232.23-.232-.23zm1.908.575.407.954a.446.446 0 0 0 .128.189.34.34 0 0 0 .196.05h.033l.018.162-.018.162h-.033a.528.528 0 0 1-.327-.1.822.822 0 0 1-.231-.321l-.419-.967.246-.129zm-.755 1.078c.078.043.151.079.22.106a.763.763 0 0 0 .259.039.811.811 0 0 0 .532-.195l.145.198a1.815 1.815 0 0 1-.148.138.79.79 0 0 1-.202.112.784.784 0 0 1-.3.053.924.924 0 0 1-.363-.065 1.38 1.38 0 0 1-.273-.153l.13-.233zm.414-1.505c.077-.081.154-.158.231-.23.078.072.155.149.232.23l-.232.229-.231-.229zm1.073 1.62h.255c.244 0 .472-.028.684-.085.212-.057.428-.144.647-.26a2.164 2.164 0 0 1 .36-.153l.009.174a1.308 1.308 0 0 1-.315-.044 2.144 2.144 0 0 1-.327-.133c-.184-.096-.34-.144-.466-.144a.36.36 0 0 0-.22.071.463.463 0 0 0-.146.162l-.19-.133a.797.797 0 0 1 .244-.303.528.528 0 0 1 .317-.104c.086 0 .166.015.241.045.077.027.185.076.324.147.129.065.232.113.309.144.077.032.164.057.259.077l.011.286a.72.72 0 0 0-.142.059 3.12 3.12 0 0 0-.187.097 4.635 4.635 0 0 1-.731.318 2.306 2.306 0 0 1-.71.103h-.226v-.324z" fill="#5B5C5D"/>
        <path d="M203.015 129.87h-.485a.242.242 0 0 0-.243.241v.481c0 .133.109.24.243.24h.485a.24.24 0 0 0 .242-.24v-.481a.241.241 0 0 0-.242-.241z" fill="#4F4F4F"/>
        <path d="M203.744 132.397h.485c.066 0 .119.053.119.118v.481a.118.118 0 0 1-.119.118h-.485a.118.118 0 0 1-.119-.118v-.481c0-.065.053-.118.119-.118zM201.318 132.397h.485c.066 0 .119.053.119.118v.481a.118.118 0 0 1-.119.118h-.485a.118.118 0 0 1-.119-.118v-.481c0-.065.053-.118.119-.118z" stroke="#4F4F4F"/>
        <path d="M201.438 131.674v.24c0 .032.012.063.035.085a.121.121 0 0 0 .086.035.121.121 0 0 0 .086-.035.121.121 0 0 0 .035-.085v-.24h2.183v.24c0 .032.013.063.036.085a.118.118 0 0 0 .086.035.119.119 0 0 0 .085-.035.118.118 0 0 0 .036-.085v-.24a.245.245 0 0 0-.071-.171.244.244 0 0 0-.172-.07h-.97v-.24a.118.118 0 0 0-.036-.085.12.12 0 0 0-.171 0 .118.118 0 0 0-.036.085v.24h-.97a.242.242 0 0 0-.242.241z" fill="#4F4F4F"/>
        <path d="M171.516 132.865a1.55 1.55 0 0 0 .347-.177c.105-.071.187-.144.247-.221.061-.074.092-.144.092-.209 0-.082-.052-.326-.157-.731l.261-.1c.046.14.082.287.11.442.03.153.045.283.045.389 0 .181-.077.351-.229.51a1.488 1.488 0 0 1-.589.374l-.127-.277zm1.825-.563a1.09 1.09 0 0 1-.41-.068.968.968 0 0 1-.267-.15l.131-.233c.077.042.153.076.228.104a.937.937 0 0 0 .289.038.707.707 0 0 0 .261-.041c.069-.028.115-.059.137-.095a.153.153 0 0 0 .009-.056c0-.084-.051-.192-.152-.324a2.096 2.096 0 0 0-.466-.427l.16-.28c.222.163.396.336.523.519.129.18.193.349.193.506a.448.448 0 0 1-.267.428.833.833 0 0 1-.369.079zm1.566-.012c-.21 0-.358-.054-.443-.162-.083-.11-.125-.283-.125-.521 0-.216-.006-.462-.018-.737a6.307 6.307 0 0 0-.044-.613l.282-.061c.016.111.029.29.039.536.009.243.014.47.014.68v.13a1.28 1.28 0 0 0 .015.262.181.181 0 0 0 .081.124.386.386 0 0 0 .199.038h.014l.018.162-.018.162h-.014zm-.008-.324h.053c.08 0 .153-.022.22-.067a.54.54 0 0 0 .173-.207 1.87 1.87 0 0 1 .264-.4.422.422 0 0 1 .291-.157.398.398 0 0 1 .274.083.578.578 0 0 1 .181.242c.042.1.062.205.062.315 0 .108-.02.207-.062.297a.434.434 0 0 1-.184.201.289.289 0 0 1-.137.032c-.156 0-.385-.099-.686-.297l.127-.269c.123.083.234.148.333.195a.594.594 0 0 0 .229.071.107.107 0 0 0 .048-.012.157.157 0 0 0 .068-.077.315.315 0 0 0 .024-.126.45.45 0 0 0-.072-.248c-.047-.075-.109-.112-.184-.112-.059 0-.123.04-.19.121a1.9 1.9 0 0 0-.217.371.667.667 0 0 1-.235.277.612.612 0 0 1-.333.091h-.053l.006-.324zm3.567 1.014c-.18 0-.34-.035-.478-.106a.75.75 0 0 1-.321-.307.853.853 0 0 1-.095-.471c.004-.112.024-.229.062-.351.04-.123.084-.235.134-.336l.232.107c-.05.11-.09.215-.119.315a.973.973 0 0 0-.045.286c0 .176.055.31.164.4.108.093.264.139.466.139a.99.99 0 0 0 .342-.056.726.726 0 0 0 .252-.142.473.473 0 0 0 .14-.179c.002-.01-.024-.025-.077-.045a2.98 2.98 0 0 0-.274-.085.92.92 0 0 1-.327-.144c-.063-.055-.095-.135-.095-.239 0-.149.038-.292.113-.427a.943.943 0 0 1 .306-.327.736.736 0 0 1 .404-.124c.054 0 .108.008.164.024.057.013.099.03.125.05l-.095.282a.675.675 0 0 0-.196-.032.538.538 0 0 0-.256.065.642.642 0 0 0-.199.165.487.487 0 0 0-.098.206.156.156 0 0 0-.003.035c0 .038.022.07.065.098.044.025.131.056.262.091.123.033.217.066.282.097.065.032.11.066.134.103.023.036.035.08.035.133a.61.61 0 0 1-.13.368.927.927 0 0 1-.36.292 1.123 1.123 0 0 1-.514.115zm2.015-.69c-.21 0-.358-.054-.443-.162-.083-.11-.125-.283-.125-.521 0-.216-.006-.462-.017-.737a5.932 5.932 0 0 0-.045-.613l.282-.061c.016.111.029.29.039.536.01.243.015.47.015.68v.13a1.28 1.28 0 0 0 .015.262.177.177 0 0 0 .08.124.388.388 0 0 0 .199.038h.015l.018.162-.018.162h-.015zm-.008-.324h.042c.338 0 .583-.03.734-.091.15-.063.226-.16.226-.292a.334.334 0 0 0-.072-.212.22.22 0 0 0-.181-.091.25.25 0 0 0-.134.044.39.39 0 0 0-.11.115.267.267 0 0 0-.044.141c0 .075.042.146.127.212a1.1 1.1 0 0 0 .318.16c.129.039.25.059.363.059a.49.49 0 0 0 .226-.045c.057-.031.086-.077.086-.138 0-.102-.105-.214-.315-.336-.21-.122-.527-.24-.951-.354l.116-.3c.366.118.652.23.856.336.206.106.348.207.428.303a.47.47 0 0 1 .119.301.719.719 0 0 1-.039.218.366.366 0 0 1-.199.221.805.805 0 0 1-.36.073 1.41 1.41 0 0 1-.475-.085 1.1 1.1 0 0 1-.398-.236.46.46 0 0 1-.152-.389.743.743 0 0 1 .104-.291.709.709 0 0 1 .202-.221.415.415 0 0 1 .244-.086c.085 0 .164.029.238.086.073.055.13.128.172.221a.653.653 0 0 1 .059.374.644.644 0 0 1-.172.368.816.816 0 0 1-.386.198 2.68 2.68 0 0 1-.63.061h-.042v-.324zm3.184.354a2.153 2.153 0 0 1 0-.321c.247 0 .445-.019.594-.056a.805.805 0 0 0 .354-.18.824.824 0 0 0 .199-.333l.249.03a.92.92 0 0 0-.053.274c0 .155.079.232.238.232l.017.162-.017.162a.458.458 0 0 1-.327-.123.424.424 0 0 1-.125-.324l.059.005a.935.935 0 0 1-.46.363 2.072 2.072 0 0 1-.728.109zm.021 0c-.349.002-.621-.046-.818-.144-.196-.101-.303-.245-.32-.434a1.088 1.088 0 0 1 .029-.324c.022-.092.049-.176.08-.25l.232.112a1.18 1.18 0 0 0-.083.362c0 .022.001.039.003.05.016.097.097.172.244.227.148.053.359.08.633.08a2.459 2.459 0 0 1 0 .321zm-.422-1.12.148-.147.077-.077.223.224-.223.221-.225-.221zm.529 0 .148-.147.077-.077.223.224-.223.221-.225-.221zm1.421.766h.083c.188 0 .34-.015.455-.047.117-.033.191-.08.223-.141a.26.26 0 0 0 .006-.047c0-.099-.055-.218-.164-.36a2.706 2.706 0 0 0-.463-.454l.035-.294 1.091-.466.089.262-.906.389c.144.122.278.269.401.442s.184.336.184.489c0 .05-.007.095-.021.136a.51.51 0 0 1-.312.312c-.16.069-.366.103-.618.103h-.083v-.324zm2.163.324a.372.372 0 0 1-.301-.132 1.18 1.18 0 0 1-.181-.383l.199-.121a.604.604 0 0 0 .104.245.238.238 0 0 0 .179.067h.02l.018.162-.018.162h-.02zm-1.135.575a1.55 1.55 0 0 0 .347-.177c.105-.071.187-.144.247-.221.061-.074.092-.144.092-.209 0-.082-.053-.326-.158-.731l.262-.1c.045.14.082.287.11.442.03.153.044.283.044.389 0 .181-.076.351-.228.51a1.488 1.488 0 0 1-.589.374l-.127-.277zm2.783-.899h.006c.069 0 .122-.018.157-.056a.234.234 0 0 0 .054-.165.896.896 0 0 0-.06-.268 2.618 2.618 0 0 0-.101-.277l.241-.132c.04.084.079.193.119.327.042.133.062.252.062.356 0 .1-.02.192-.062.274a.435.435 0 0 1-.41.265h-.006v-.324zm-.799 0h.009a.247.247 0 0 0 .151-.047.463.463 0 0 0 .119-.144c.044-.081.077-.203.101-.368l.25.011a1.635 1.635 0 0 0-.036.292c0 .084.017.148.05.192.034.043.088.064.161.064h.006l.018.162-.018.162h-.006a.389.389 0 0 1-.273-.094.463.463 0 0 1-.134-.271l.056-.006a.695.695 0 0 1-.187.268.38.38 0 0 1-.261.103h-.006v-.324zm-.853.324-.018-.162.018-.162h.015a.426.426 0 0 0 .344-.168.6.6 0 0 0 .093-.168c.023-.06.044-.126.062-.197l.25.027a3.73 3.73 0 0 1-.033.12.742.742 0 0 0-.03.201c0 .061.012.107.036.138.026.032.065.047.119.047h.006l.017.162-.017.162h-.012a.341.341 0 0 1-.226-.076.336.336 0 0 1-.116-.206c-.131.188-.296.282-.496.282h-.012zm1.081-1.729.214.209-.214.212-.21-.212.21-.209zm.446.103.107-.103.069.068.142.141-.211.212-.217-.212.11-.106zm-.169-.41.187.186-.187.189-.193-.189.193-.186zm5.52 2.036a.475.475 0 0 1-.297-.097.571.571 0 0 1-.188-.283 5.215 5.215 0 0 1-.11-.501l.247-.064.057.3c.015.069.029.121.041.156.036.11.119.165.25.165h.015l.017.162-.02.162h-.012zm-.761-.324h.006a.34.34 0 0 0 .193-.056c.06-.039.091-.083.095-.132l.199.029a.534.534 0 0 1-.083.245.53.53 0 0 1-.175.177.454.454 0 0 1-.229.061h-.006v-.324zm-.799 0h.009a.247.247 0 0 0 .151-.047.463.463 0 0 0 .119-.144c.044-.081.077-.203.101-.368l.25.011a1.635 1.635 0 0 0-.036.292.31.31 0 0 0 .051.192c.033.043.087.064.16.064h.006l.018.162-.018.162h-.006a.389.389 0 0 1-.273-.094.463.463 0 0 1-.134-.271l.056-.006a.695.695 0 0 1-.187.268.38.38 0 0 1-.261.103h-.006v-.324zm.006.324a.35.35 0 0 1-.294-.15.844.844 0 0 1-.152-.368l.157-.1a.649.649 0 0 0 .107.227c.042.045.107.067.197.067l-.015.324zm-1.159.852a.978.978 0 0 1-.482-.112.772.772 0 0 1-.413-.722c0-.118.02-.243.06-.377a2.05 2.05 0 0 1 .14-.359l.231.106c-.111.227-.166.426-.166.595 0 .179.054.314.163.406.109.093.265.139.467.139a.844.844 0 0 0 .389-.083.551.551 0 0 0 .238-.209.496.496 0 0 0 .08-.268 1.44 1.44 0 0 0-.053-.336 5.34 5.34 0 0 0-.119-.392l.252-.121c.06.171.103.326.131.463.03.138.045.266.045.386a.857.857 0 0 1-.452.757.991.991 0 0 1-.511.127zm1.382-2.484.213.209-.213.212-.211-.212.211-.209zm.445.103.107-.103.069.068.142.141-.211.212-.217-.212.11-.106zm-.169-.409.187.185-.187.189-.193-.189.193-.185zm1.037 1.614h.124c.208 0 .355-.018.44-.056.085-.039.128-.1.128-.182a1.171 1.171 0 0 0-.062-.268 2.21 2.21 0 0 0-.098-.263l.246-.132c.04.078.078.183.116.315.04.132.059.247.059.345 0 .186-.065.328-.196.424-.13.094-.326.141-.588.141h-.169v-.324zm.636.961-.078.076-.223-.223.223-.221.226.221-.148.147zm-.529 0-.078.076-.222-.223.222-.221.226.221-.148.147zm1.784-.637c-.21 0-.358-.054-.443-.162-.083-.11-.125-.283-.125-.521 0-.216-.006-.462-.018-.737a5.998 5.998 0 0 0-.044-.613l.282-.061c.016.111.029.29.039.536.01.243.015.47.015.68v.13c-.002.118.003.205.014.262a.181.181 0 0 0 .081.124.388.388 0 0 0 .199.038h.015l.017.162-.017.162h-.015zm-.014-.324h.06c.162 0 .293-.091.392-.274.099-.178.193-.316.282-.412a.41.41 0 0 1 .3-.145c.119 0 .214.042.285.124a.871.871 0 0 1 .173.342 1.3 1.3 0 0 0 .104.283c.033.055.079.082.136.082h.03l.018.162-.018.162h-.03c-.136 0-.233-.074-.291-.223a.237.237 0 0 1-.056.12.413.413 0 0 1-.107.086.289.289 0 0 1-.137.032c-.146 0-.348-.081-.603-.244a.584.584 0 0 1-.484.229h-.054v-.324zm1.248.05a.274.274 0 0 0 .042-.162.604.604 0 0 0-.033-.194.438.438 0 0 0-.092-.165.182.182 0 0 0-.137-.065c-.101 0-.218.124-.35.371.107.075.207.131.3.168.095.036.17.053.226.053a.185.185 0 0 0 .044-.006zm.484-.05h.155c.154 0 .265-.018.333-.056a.185.185 0 0 0 .101-.173c0-.054-.021-.144-.063-.272a2.047 2.047 0 0 0-.095-.268l.247-.132c.038.076.076.183.116.321.039.135.059.252.059.351 0 .182-.06.321-.181.415-.119.092-.291.138-.517.138h-.155v-.324zm.232-1.29.155-.153.077-.077.077.077.155.153-.077.076-.155.154-.155-.154-.077-.076z" fill="#5B5C5D"/>
        <path d="M202.531 137.85h.485c.066 0 .119.052.119.117v.481a.118.118 0 0 1-.119.118h-.485a.118.118 0 0 1-.119-.118v-.481c0-.065.053-.117.119-.117z" stroke="#4F4F4F"/>
        <path d="M204.228 140.132h-.485a.242.242 0 0 0-.243.24v.481c0 .133.109.241.243.241h.485a.241.241 0 0 0 .242-.241v-.481a.241.241 0 0 0-.242-.24zM201.802 140.132h-.485a.242.242 0 0 0-.243.24v.481c0 .133.109.241.243.241h.485a.241.241 0 0 0 .242-.241v-.481a.241.241 0 0 0-.242-.24zM201.438 139.531v.24c0 .032.012.063.035.086a.125.125 0 0 0 .086.035.125.125 0 0 0 .086-.035.125.125 0 0 0 .035-.086v-.24h2.183v.24a.122.122 0 0 0 .122.121.122.122 0 0 0 .121-.121v-.24a.24.24 0 0 0-.243-.241h-.97v-.24a.118.118 0 0 0-.036-.085.117.117 0 0 0-.085-.035.12.12 0 0 0-.086.035.118.118 0 0 0-.036.085v.24h-.97a.243.243 0 0 0-.242.241z" fill="#4F4F4F"/>
        <path d="M163.692 139.942a1.15 1.15 0 0 1-.36.059.698.698 0 0 1-.413-.115.37.37 0 0 1-.157-.316c0-.163.069-.3.208-.412.138-.114.325-.211.558-.292l.06.295c-.149.037-.28.089-.392.156-.111.067-.17.131-.176.191-.006.052.018.095.072.13.055.034.128.05.219.05a.92.92 0 0 0 .312-.059l.069.313zm.389.206c-.164 0-.29-.049-.377-.147-.088-.101-.144-.265-.17-.493-.01-.104-.03-.276-.062-.518a9.367 9.367 0 0 0-.033-.274l.277-.056c.033.353.062.623.086.807.01.1.023.175.041.224a.18.18 0 0 0 .081.103c.035.02.088.03.157.03h.045l.017.162-.017.162h-.045zm.012-.324h.036c.337 0 .612-.012.826-.036.216-.025.402-.066.559-.123l.065.285a2.522 2.522 0 0 1-.585.151 6.56 6.56 0 0 1-.865.047h-.036v-.324zm1.005.238a.812.812 0 0 1-.369-.061.69.69 0 0 1-.285-.218.54.54 0 0 1-.11-.333c0-.108.029-.21.086-.304a.639.639 0 0 1 .232-.224.605.605 0 0 1 .573-.026.901.901 0 0 1 .241.15l-.113.218a.787.787 0 0 0-.368-.106.47.47 0 0 0-.205.044.362.362 0 0 0-.14.109.235.235 0 0 0-.051.144c0 .059.022.114.066.165a.423.423 0 0 0 .178.121.588.588 0 0 0 .247.033l.018.288zm.655.652c.325-.069.563-.161.716-.274a.51.51 0 0 0 .229-.425c0-.112-.015-.224-.045-.336a.782.782 0 0 0-.131-.28.278.278 0 0 0-.196-.126c-.043-.006-.086.009-.128.044a.39.39 0 0 0-.133.292.18.18 0 0 0 .023.097c.032.047.104.078.217.094.115.016.264.024.446.024h.291l.018.162-.018.162-.365.003c-.216 0-.391-.017-.526-.05a.41.41 0 0 1-.279-.215.533.533 0 0 1-.051-.233.809.809 0 0 1 .256-.581.385.385 0 0 1 .255-.103c.117 0 .221.051.312.154.093.1.165.229.214.388.052.158.077.316.077.475a.848.848 0 0 1-.288.648c-.19.177-.456.299-.796.365l-.098-.285zm1.251-.89h.059c.163 0 .293-.092.392-.274.099-.179.194-.317.283-.413a.408.408 0 0 1 .3-.144c.119 0 .214.041.285.124a.859.859 0 0 1 .172.341c.038.134.073.228.104.283.034.055.08.083.137.083h.03l.018.162-.018.162h-.03c-.137 0-.234-.075-.291-.224a.237.237 0 0 1-.057.121.379.379 0 0 1-.107.085.274.274 0 0 1-.136.033c-.147 0-.348-.082-.603-.245a.584.584 0 0 1-.485.23h-.053v-.324zm1.248.05a.281.281 0 0 0 .041-.162.632.632 0 0 0-.032-.195.47.47 0 0 0-.092-.165.183.183 0 0 0-.137-.064c-.101 0-.218.123-.351.371.107.074.207.13.3.168a.708.708 0 0 0 .226.053.186.186 0 0 0 .045-.006zm2.733.274c-.206-.002-.369-.043-.49-.124a.599.599 0 0 1-.246-.359l.178-.145c.02.087.075.159.166.218a.668.668 0 0 0 .354.086h.068l.018.162-.018.162h-.03zm-2.252-.324h.256c.243 0 .471-.029.683-.086a3.14 3.14 0 0 0 .648-.259c.061-.033.126-.064.193-.091.067-.03.123-.05.166-.062l.009.174a1.261 1.261 0 0 1-.315-.045 1.99 1.99 0 0 1-.326-.132c-.185-.096-.34-.145-.467-.145a.368.368 0 0 0-.22.071.46.46 0 0 0-.145.162l-.191-.132a.829.829 0 0 1 .244-.304.528.528 0 0 1 .318-.103.67.67 0 0 1 .241.044c.077.028.185.077.324.148.128.064.231.113.309.144.077.031.163.057.258.077l.012.285a.792.792 0 0 0-.143.059c-.057.028-.12.06-.187.098a4.596 4.596 0 0 1-.731.318 2.337 2.337 0 0 1-.71.103h-.226v-.324zm.764.786.154-.153.078-.076.077.076.154.153-.077.077-.154.153-.155-.153-.077-.077zm1.494-.786h.053c.08 0 .153-.023.22-.068a.536.536 0 0 0 .173-.206 1.88 1.88 0 0 1 .264-.401.425.425 0 0 1 .291-.156.392.392 0 0 1 .274.082.584.584 0 0 1 .181.242.804.804 0 0 1 0 .613.437.437 0 0 1-.184.2.278.278 0 0 1-.137.033c-.156 0-.385-.1-.686-.298l.127-.268c.123.082.234.147.333.194a.599.599 0 0 0 .229.071.107.107 0 0 0 .048-.012.155.155 0 0 0 .068-.076.323.323 0 0 0 .024-.127.452.452 0 0 0-.072-.248c-.047-.074-.109-.111-.184-.111-.059 0-.123.04-.19.12a1.945 1.945 0 0 0-.217.372.673.673 0 0 1-.235.277.62.62 0 0 1-.333.091h-.053l.006-.324zm3.448.324a.367.367 0 0 1-.3-.133 1.15 1.15 0 0 1-.181-.383l.199-.121a.572.572 0 0 0 .104.245.236.236 0 0 0 .178.068h.021l.018.162-.018.162h-.021zm-1.135.574c.129-.047.245-.106.348-.176a1.06 1.06 0 0 0 .246-.221c.062-.075.092-.145.092-.21 0-.082-.052-.326-.157-.73l.261-.1c.046.139.082.286.11.442.03.153.045.282.045.388 0 .181-.076.351-.229.51a1.491 1.491 0 0 1-.588.374l-.128-.277zm1.203-.898h.124c.208 0 .355-.019.44-.056.085-.04.128-.1.128-.183a1.183 1.183 0 0 0-.062-.268 2.177 2.177 0 0 0-.098-.262l.246-.133c.04.079.078.184.116.315.04.132.06.247.06.345a.492.492 0 0 1-.197.424c-.13.095-.326.142-.588.142h-.169v-.324zm.915.807c-.048.051-.097.1-.149.147l-.077.077-.223-.224.223-.221.226.221zm-.529 0c-.048.051-.097.1-.149.147l-.077.077-.223-.224.223-.221.226.221zm-.455-.483-.017-.162.017-.162h.098v.324h-.098zm1.034.574a1.59 1.59 0 0 0 .347-.176c.105-.071.187-.145.247-.221.061-.075.092-.145.092-.21 0-.082-.053-.326-.158-.73l.262-.1a3.36 3.36 0 0 1 .154.83c0 .181-.076.351-.228.51a1.488 1.488 0 0 1-.589.374l-.127-.277zm.38-1.95.154-.153.078-.077.077.077.154.153-.077.076-.154.154-.155-.154-.077-.076zm2.615 2.065c-.181 0-.34-.035-.479-.106a.758.758 0 0 1-.321-.306.868.868 0 0 1-.095-.472c.004-.112.025-.228.063-.35a2.4 2.4 0 0 1 .133-.336l.232.106c-.049.11-.089.215-.119.315a1.01 1.01 0 0 0-.044.286c0 .177.054.31.163.401.109.092.265.138.467.138a.96.96 0 0 0 .341-.056.714.714 0 0 0 .253-.141.485.485 0 0 0 .14-.18c.002-.01-.024-.024-.078-.044a2.766 2.766 0 0 0-.273-.086.92.92 0 0 1-.327-.144c-.063-.055-.095-.134-.095-.239 0-.149.038-.291.113-.427a.942.942 0 0 1 .306-.327.744.744 0 0 1 .404-.124c.054 0 .108.008.164.024.057.014.099.03.124.05l-.095.283a.655.655 0 0 0-.196-.033.537.537 0 0 0-.255.065.658.658 0 0 0-.199.165.48.48 0 0 0-.098.207.144.144 0 0 0-.003.035c0 .037.021.07.065.097.044.026.131.056.261.091.123.034.217.066.283.098a.31.31 0 0 1 .133.103.228.228 0 0 1 .036.132.608.608 0 0 1-.131.369.912.912 0 0 1-.359.291 1.126 1.126 0 0 1-.514.115zm2.015-.689c-.21 0-.358-.054-.443-.162-.083-.11-.125-.284-.125-.522 0-.216-.006-.461-.018-.736a5.975 5.975 0 0 0-.044-.613l.282-.062c.016.112.029.291.039.536.01.244.014.471.014.681v.129c-.001.118.003.206.015.263a.177.177 0 0 0 .081.123.387.387 0 0 0 .199.039h.014l.018.162-.018.162h-.014zm-.008-.324h.041c.339 0 .584-.031.734-.092.151-.062.226-.16.226-.291a.335.335 0 0 0-.071-.212.221.221 0 0 0-.181-.092.25.25 0 0 0-.134.044.39.39 0 0 0-.11.115.263.263 0 0 0-.045.142c0 .074.043.145.128.212.085.065.191.118.318.159.129.039.25.059.363.059a.505.505 0 0 0 .226-.044c.057-.032.086-.078.086-.139 0-.102-.105-.214-.315-.336-.21-.121-.527-.239-.951-.353l.116-.301c.366.118.651.23.856.336.206.106.348.207.427.304.08.096.119.196.119.3a.741.741 0 0 1-.038.218.366.366 0 0 1-.199.221.808.808 0 0 1-.36.074c-.156 0-.315-.029-.475-.086a1.102 1.102 0 0 1-.399-.235.458.458 0 0 1-.151-.389.732.732 0 0 1 .104-.292.708.708 0 0 1 .202-.221.41.41 0 0 1 .244-.085c.085 0 .164.028.237.085a.556.556 0 0 1 .173.221.658.658 0 0 1 .059.374.657.657 0 0 1-.172.369.814.814 0 0 1-.387.197 2.662 2.662 0 0 1-.63.062h-.041v-.324zm3.184.353a2.158 2.158 0 0 1 0-.321c.247 0 .445-.018.594-.056a.79.79 0 0 0 .353-.18.805.805 0 0 0 .199-.332l.25.029a.888.888 0 0 0-.053.274c0 .155.079.233.237.233l.018.162-.018.162a.458.458 0 0 1-.327-.124.42.42 0 0 1-.124-.324l.059.006a.928.928 0 0 1-.46.362 2.076 2.076 0 0 1-.728.109zm.02 0c-.348.002-.621-.046-.817-.144-.196-.1-.303-.245-.321-.433a1.084 1.084 0 0 1 .03-.324c.022-.093.049-.176.08-.251l.232.112a1.18 1.18 0 0 0-.083.363c0 .021.001.038.003.05.016.096.097.172.243.227.149.053.36.079.633.079a2.459 2.459 0 0 1 0 .321zm-.422-1.119.149-.148.077-.076.223.224-.223.221-.226-.221zm.529 0 .149-.148.077-.076.223.224-.223.221-.226-.221zm1.422.766h.083c.188 0 .34-.016.454-.047.117-.034.192-.081.223-.142a.24.24 0 0 0 .006-.047c0-.098-.054-.218-.163-.359a2.644 2.644 0 0 0-.464-.454l.036-.295 1.09-.465.09.262-.907.389c.145.122.279.269.401.442.123.173.185.336.185.489a.415.415 0 0 1-.021.135.516.516 0 0 1-.312.313 1.6 1.6 0 0 1-.618.103h-.083v-.324zm2.162.324a.37.37 0 0 1-.3-.133 1.15 1.15 0 0 1-.181-.383l.199-.121a.585.585 0 0 0 .104.245.237.237 0 0 0 .178.068h.021l.018.162-.018.162h-.021zm-1.135.574c.129-.047.245-.106.348-.176.105-.071.187-.145.247-.221.061-.075.092-.145.092-.21 0-.082-.053-.326-.158-.73l.262-.1a3.36 3.36 0 0 1 .154.83c0 .181-.076.351-.229.51-.15.161-.346.286-.588.374l-.128-.277zm2.784-.898h.006c.069 0 .122-.019.157-.056a.238.238 0 0 0 .054-.165.896.896 0 0 0-.06-.268 2.537 2.537 0 0 0-.101-.277l.241-.133c.039.085.079.194.119.327.041.134.062.253.062.357a.61.61 0 0 1-.062.274.5.5 0 0 1-.167.194.43.43 0 0 1-.243.071h-.006v-.324zm-.8 0h.009a.256.256 0 0 0 .152-.047.495.495 0 0 0 .119-.145 1.17 1.17 0 0 0 .101-.368l.249.012a1.703 1.703 0 0 0-.035.291c0 .085.017.149.05.192.034.043.087.065.161.065h.006l.017.162-.017.162h-.006a.398.398 0 0 1-.274-.094.465.465 0 0 1-.133-.271l.056-.006a.713.713 0 0 1-.187.268.387.387 0 0 1-.262.103h-.006v-.324zm-.852.324-.018-.162.018-.162h.014a.44.44 0 0 0 .2-.047.381.381 0 0 0 .145-.121.598.598 0 0 0 .092-.168c.024-.061.045-.127.063-.198l.249.027-.032.121a.73.73 0 0 0-.03.2c0 .061.012.107.036.139.025.031.065.047.118.047h.006l.018.162-.018.162h-.012a.34.34 0 0 1-.225-.077.336.336 0 0 1-.116-.206c-.131.189-.296.283-.496.283h-.012zm1.081-1.73.214.21-.214.212-.211-.212.211-.21zm.446.103.107-.103.068.068.143.142-.211.212-.217-.212.11-.107zm-.169-.409.187.186-.187.188-.194-.188.194-.186zm5.519 2.036a.485.485 0 0 1-.297-.097.577.577 0 0 1-.187-.283 4.901 4.901 0 0 1-.11-.501l.247-.065.056.301c.016.068.03.12.042.156.036.11.119.165.249.165h.015l.018.162-.021.162h-.012zm-.76-.324h.006a.351.351 0 0 0 .193-.056c.059-.04.091-.084.095-.133l.199.03a.542.542 0 0 1-.083.244.52.52 0 0 1-.175.177.455.455 0 0 1-.229.062h-.006v-.324zm-.8 0h.009a.256.256 0 0 0 .152-.047.48.48 0 0 0 .119-.145 1.17 1.17 0 0 0 .101-.368l.249.012a1.703 1.703 0 0 0-.035.291c0 .085.017.149.05.192.034.043.087.065.161.065h.006l.018.162-.018.162h-.006a.398.398 0 0 1-.274-.094.465.465 0 0 1-.133-.271l.056-.006a.702.702 0 0 1-.187.268.387.387 0 0 1-.262.103h-.006v-.324zm.006.324a.353.353 0 0 1-.294-.15.847.847 0 0 1-.151-.369l.157-.1a.64.64 0 0 0 .107.227c.042.045.107.068.196.068l-.015.324zm-1.158.851a.976.976 0 0 1-.482-.112.75.75 0 0 1-.309-.297.867.867 0 0 1-.104-.424c0-.118.02-.244.06-.378.039-.133.086-.253.139-.359l.232.106c-.111.228-.166.426-.166.595 0 .179.054.314.163.407.109.092.265.138.467.138a.844.844 0 0 0 .389-.082.558.558 0 0 0 .238-.209.5.5 0 0 0 .08-.269c0-.086-.018-.198-.054-.335a4.314 4.314 0 0 0-.119-.392l.253-.121c.059.171.103.325.131.462.029.138.044.267.044.386a.871.871 0 0 1-.451.758 1 1 0 0 1-.511.126zm1.381-2.483.214.209-.214.212-.211-.212.211-.209zm.446.103.107-.103.068.067.143.142-.211.212-.217-.212.11-.106zm-.169-.41.187.186-.187.188-.194-.188.194-.186zm1.036 1.615h.125c.208 0 .355-.019.44-.056.085-.04.128-.1.128-.183a1.145 1.145 0 0 0-.063-.268 1.875 1.875 0 0 0-.098-.262l.247-.133c.04.079.078.184.116.315.039.132.059.247.059.345 0 .187-.065.328-.196.424-.131.095-.327.142-.588.142h-.17v-.324zm.636.96-.077.077-.223-.224.223-.221.226.221-.149.147zm-.529 0-.077.077-.223-.224.223-.221.226.221-.149.147zm1.784-.636c-.21 0-.357-.054-.442-.162-.083-.11-.125-.284-.125-.522 0-.216-.006-.461-.018-.736a6.28 6.28 0 0 0-.044-.613l.282-.062c.016.112.029.291.038.536.01.244.015.471.015.681v.129a1.29 1.29 0 0 0 .015.263.18.18 0 0 0 .08.123.39.39 0 0 0 .199.039h.015l.018.162-.018.162h-.015zm-.013-.324h.059c.163 0 .293-.092.393-.274.099-.179.193-.317.282-.413a.408.408 0 0 1 .3-.144c.119 0 .214.041.285.124a.873.873 0 0 1 .173.341 1.3 1.3 0 0 0 .104.283c.033.055.079.083.136.083h.03l.018.162-.018.162h-.03c-.136 0-.234-.075-.291-.224a.243.243 0 0 1-.056.121.41.41 0 0 1-.107.085.28.28 0 0 1-.137.033c-.147 0-.348-.082-.603-.245a.584.584 0 0 1-.485.23h-.053v-.324zm1.248.05a.274.274 0 0 0 .041-.162c0-.065-.01-.13-.032-.195a.47.47 0 0 0-.092-.165.183.183 0 0 0-.137-.064c-.101 0-.218.123-.351.371.107.074.207.13.3.168a.714.714 0 0 0 .226.053.186.186 0 0 0 .045-.006zm.484-.05h.155c.154 0 .265-.019.333-.056a.187.187 0 0 0 .101-.174 1.03 1.03 0 0 0-.063-.271 1.992 1.992 0 0 0-.095-.268l.247-.133c.037.077.076.184.116.321.039.136.059.253.059.351 0 .183-.06.321-.181.415-.119.093-.291.139-.517.139h-.155v-.324zm.232-1.291.154-.153.078-.077.077.077.155.153-.078.077-.154.153-.155-.153-.077-.077z" fill="#5B5C5D"/>
        <path d="M202.772 149.355c.269 0 .507.064.7.147a.49.49 0 0 1 .29.447v.102c0 .09-.074.163-.165.163h-1.65a.165.165 0 0 1-.166-.163v-.1c0-.193.113-.37.291-.447.193-.085.431-.149.7-.149zm-1.321.041a.33.33 0 0 0 .33-.328.33.33 0 0 0-.66 0 .33.33 0 0 0 .33.328zm.187.18a1.14 1.14 0 0 0-.646.078.33.33 0 0 0-.201.303v.094c0 .09.074.163.165.163h.578v-.263c0-.136.038-.264.104-.375zm2.455-.18a.33.33 0 0 0 .33-.328.33.33 0 0 0-.661 0 .33.33 0 0 0 .331.328zm.66.561a.33.33 0 0 0-.201-.303 1.17 1.17 0 0 0-.646-.078.731.731 0 0 1 .104.375v.263h.578a.164.164 0 0 0 .165-.163v-.094zm-1.981-1.707a.492.492 0 1 1 0 .982.492.492 0 1 1 0-.982z" fill="#4F4F4F"/>
        <path d="M175.779 148.911c-.212.175-.325.334-.339.477a.226.226 0 0 0-.003.042c0 .07.025.127.074.171a.352.352 0 0 0 .223.062.399.399 0 0 0 .22-.056.2.2 0 0 0 .098-.151c-.002-.108-.055-.215-.16-.321a2.62 2.62 0 0 0-.502-.371l.163-.254c.252.148.439.296.562.445a.721.721 0 0 1 .187.469.545.545 0 0 1-.285.483.616.616 0 0 1-.295.071.551.551 0 0 1-.398-.139.47.47 0 0 1-.142-.353c0-.055.007-.107.02-.156a.977.977 0 0 1 .152-.327c.071-.101.158-.2.261-.298l.164.206zm1.519 1.058a.37.37 0 0 1-.301-.133 1.17 1.17 0 0 1-.181-.383l.199-.12a.599.599 0 0 0 .104.244.238.238 0 0 0 .179.068h.02l.018.162-.018.162h-.02zm-1.135.574a1.59 1.59 0 0 0 .347-.176c.105-.071.187-.145.247-.221.061-.075.092-.145.092-.209 0-.083-.053-.327-.158-.731l.262-.1a3.36 3.36 0 0 1 .154.831c0 .18-.076.35-.228.509a1.488 1.488 0 0 1-.589.374l-.127-.277zm1.202-.898h.125c.208 0 .355-.019.44-.056.085-.039.128-.1.128-.183a1.145 1.145 0 0 0-.063-.268 1.875 1.875 0 0 0-.098-.262l.247-.133c.039.079.078.184.116.315.039.132.059.247.059.345 0 .187-.065.328-.196.425-.131.094-.327.141-.588.141h-.17v-.324zm.021.733.143-.141.217.212c-.072.073-.144.145-.217.215l-.214-.215.071-.071zm.526 0 .143-.141.217.212c-.072.073-.144.145-.217.215l-.214-.215.071-.071zm-.615-.409-.018-.162.018-.162h.098v.324h-.098zm2.115-1.517.407.954c.038.091.08.153.128.189.047.033.113.05.196.05h.033l.017.162-.017.162h-.033a.528.528 0 0 1-.327-.1.833.833 0 0 1-.232-.321l-.419-.967.247-.129zm-.755 1.078c.078.043.151.078.22.106a.76.76 0 0 0 .259.038.816.816 0 0 0 .532-.194l.145.197a2.037 2.037 0 0 1-.148.139.82.82 0 0 1-.503.165.922.922 0 0 1-.362-.065 1.38 1.38 0 0 1-.273-.153l.13-.233zm2.072-.112c.123.082.234.147.333.194a.578.578 0 0 0 .228.071.107.107 0 0 0 .048-.012.15.15 0 0 0 .068-.076.323.323 0 0 0 .024-.127.453.453 0 0 0-.071-.247c-.048-.075-.109-.112-.184-.112-.06 0-.123.04-.191.12a2 2 0 0 0-.217.372.67.67 0 0 1-.234.277.62.62 0 0 1-.333.091h-.054l.006-.324h.054a.39.39 0 0 0 .22-.068.534.534 0 0 0 .172-.206c.087-.169.175-.303.265-.401a.425.425 0 0 1 .291-.156.393.393 0 0 1 .273.082c.079.061.14.142.181.242.042.1.063.205.063.315a.698.698 0 0 1-.063.298.431.431 0 0 1-.184.2.278.278 0 0 1-.137.033c-.156 0-.385-.1-.686-.298l.128-.268zm3.213.58a4.186 4.186 0 0 1 0-.321c.248 0 .446-.018.594-.056a.798.798 0 0 0 .354-.179.827.827 0 0 0 .199-.333l.25.029a.894.894 0 0 0-.054.274c0 .155.079.233.238.233l.018.162-.018.162a.455.455 0 0 1-.327-.124.42.42 0 0 1-.125-.324l.06.006a.93.93 0 0 1-.461.362 2.072 2.072 0 0 1-.728.109zm-.775-1.04a1.158 1.158 0 0 0-.084.363c0 .021.001.038.003.05.016.096.097.172.244.227.149.053.36.079.633.079a2.426 2.426 0 0 1 0 .321c-.349.002-.621-.046-.817-.144-.196-.1-.303-.245-.321-.433a1.084 1.084 0 0 1 .03-.324c.021-.093.048-.176.08-.251l.232.112zm.457-.156.143-.141.217.212a14.64 14.64 0 0 1-.217.215l-.214-.215.071-.071zm.523 0 .143-.141.217.212a14.64 14.64 0 0 1-.217.215l-.214-.215.071-.071zm2.37.843.017.162-.017.162h-.015a.53.53 0 0 1-.306-.088.477.477 0 0 1-.173-.272l-.098-.43-.026-.126.24-.077c.044.202.081.359.113.471.02.067.051.117.092.151a.258.258 0 0 0 .158.047h.015zm-.295-.192c-.025.179-.097.31-.213.392-.115.083-.282.124-.5.124h-.017v-.324h.017a.86.86 0 0 0 .36-.059c.083-.039.13-.098.14-.177l.213.044zm-.276-.775a.383.383 0 0 1-.22-.094.252.252 0 0 1-.089-.194c0-.065.02-.124.06-.177a.245.245 0 0 1 .151-.103.372.372 0 0 1 .077-.009.72.72 0 0 1 .205.038l-.044.162a.526.526 0 0 0-.167-.032.151.151 0 0 0-.104.038.117.117 0 0 0-.041.086c0 .019.008.04.024.061.015.022.038.04.068.054a.222.222 0 0 0 .107.008l-.027.162zm-.398-.035.636-.2v.165l-.636.2v-.165zm.939 1.002h.023c.155 0 .275-.007.36-.021a.47.47 0 0 0 .184-.059.195.195 0 0 0 .08-.115.381.381 0 0 0 .012-.109c0-.053-.005-.113-.015-.179l-.017-.127.246-.05c.028.131.042.291.042.477a.22.22 0 0 0 .077.136.297.297 0 0 0 .175.047h.021l.018.162-.018.162h-.021a.425.425 0 0 1-.258-.083.49.49 0 0 1-.163-.212l.065.012a.395.395 0 0 1-.241.221c-.117.041-.299.062-.547.062h-.023v-.324zm-.11.733.142-.141.217.212a7.332 7.332 0 0 1-.217.215l-.214-.215.072-.071zm.526 0 .142-.141.217.212a7.332 7.332 0 0 1-.217.215l-.214-.215.072-.071zm.747-.733h.042c.339 0 .583-.031.734-.092.151-.062.226-.16.226-.291a.337.337 0 0 0-.071-.212.222.222 0 0 0-.315-.047.363.363 0 0 0-.11.114.266.266 0 0 0-.045.142c0 .074.043.145.128.212.085.065.191.118.318.159.129.039.249.059.362.059a.502.502 0 0 0 .226-.044c.058-.032.086-.078.086-.139 0-.102-.105-.214-.315-.336-.21-.121-.527-.239-.951-.353l.116-.301c.367.118.652.23.856.336.206.106.349.207.428.304a.468.468 0 0 1 .119.3.714.714 0 0 1-.039.218.36.36 0 0 1-.199.221.804.804 0 0 1-.359.074c-.157 0-.315-.029-.476-.086a1.092 1.092 0 0 1-.398-.235.46.46 0 0 1-.152-.389.753.753 0 0 1 .104-.292.71.71 0 0 1 .203-.221.38.38 0 0 1 .481 0 .554.554 0 0 1 .172.221.648.648 0 0 1 .06.374.654.654 0 0 1-.173.369.815.815 0 0 1-.386.197 2.662 2.662 0 0 1-.63.062h-.042v-.324zm5.83 0h.006a.352.352 0 0 0 .194-.056c.059-.039.091-.084.095-.133l.199.03a.532.532 0 0 1-.084.244.511.511 0 0 1-.175.177.45.45 0 0 1-.229.062h-.006v-.324zm.776 0 .018.162-.021.162h-.012a.475.475 0 0 1-.297-.097.57.57 0 0 1-.187-.283 4.623 4.623 0 0 1-.11-.501l.246-.065.057.301c.016.068.03.12.042.156.035.11.118.165.249.165h.015zm-1.575.324v-.324h.009a.258.258 0 0 0 .152-.047.478.478 0 0 0 .118-.145c.044-.08.078-.203.101-.368l.25.012a1.636 1.636 0 0 0-.036.291c0 .085.017.149.051.192.034.043.087.065.16.065h.006l.018.162-.018.162h-.006a.389.389 0 0 1-.273-.094.472.472 0 0 1-.134-.271l.057-.006a.713.713 0 0 1-.187.268.384.384 0 0 1-.262.103h-.006zm-.282-.619a.623.623 0 0 0 .107.227c.041.045.107.068.196.068l-.015.324a.35.35 0 0 1-.294-.15.86.86 0 0 1-.152-.369l.158-.1zm-1.334.006c-.111.228-.167.426-.167.595 0 .179.055.315.164.407.109.092.264.138.466.138a.84.84 0 0 0 .389-.082.552.552 0 0 0 .238-.209.49.49 0 0 0 .08-.268c0-.087-.017-.199-.053-.336a4.773 4.773 0 0 0-.119-.392l.253-.121c.059.171.103.325.13.463.03.137.045.266.045.386a.86.86 0 0 1-.452.757.998.998 0 0 1-.511.126.974.974 0 0 1-.481-.112.75.75 0 0 1-.309-.297.857.857 0 0 1-.104-.424c0-.118.02-.244.059-.378.04-.133.086-.253.14-.359l.232.106zm2.121-1.329.063.062.127.127-.19.188-.187-.188.187-.189zm.063.522.142-.142.072-.07.214.212-.072.07-.142.142a6.108 6.108 0 0 0-.214-.212zm-.553 0 .143-.142.071-.07.214.212-.071.07-.143.142a5.348 5.348 0 0 0-.214-.212zm1.527 1.096h.125c.208 0 .354-.019.439-.056.086-.039.128-.1.128-.183a1.183 1.183 0 0 0-.062-.268 2.177 2.177 0 0 0-.098-.262l.246-.133c.04.079.079.184.116.315.04.132.06.247.06.345a.497.497 0 0 1-.196.425c-.131.094-.327.141-.589.141h-.169v-.324zm-.113.739.143-.141.216.212c-.071.073-.143.144-.216.215l-.214-.215.071-.071zm.526 0 .142-.141.217.212a8.807 8.807 0 0 1-.217.215l-.213-.215.071-.071zm1.133-2.51c.016.112.029.291.039.536.01.244.015.471.015.681v.13c-.002.117.003.205.015.262a.177.177 0 0 0 .08.124.399.399 0 0 0 .199.038h.015l.018.162-.018.162h-.015c-.21 0-.358-.054-.443-.162-.083-.11-.125-.284-.125-.522 0-.216-.006-.461-.018-.736a5.719 5.719 0 0 0-.044-.613l.282-.062zm.334 1.771h.06c.162 0 .293-.092.392-.274.099-.179.193-.316.282-.413a.408.408 0 0 1 .3-.144.36.36 0 0 1 .286.124c.073.082.13.196.172.341.038.134.072.228.104.283.034.055.079.083.137.083h.029l.018.162-.018.162h-.029c-.137 0-.234-.075-.292-.224a.235.235 0 0 1-.056.121.393.393 0 0 1-.107.085.278.278 0 0 1-.137.033c-.146 0-.347-.082-.603-.245a.576.576 0 0 1-.484.23h-.054v-.324zm.678-.165c.107.074.207.13.3.168.095.035.17.053.226.053a.178.178 0 0 0 .044-.006.274.274 0 0 0 .042-.162.605.605 0 0 0-.033-.195.454.454 0 0 0-.092-.165.181.181 0 0 0-.137-.064c-.101 0-.218.123-.35.371zm1.055.165h.154c.155 0 .266-.019.333-.056a.186.186 0 0 0 .101-.174c0-.053-.021-.143-.062-.271a2.105 2.105 0 0 0-.096-.268l.247-.133c.038.077.076.184.116.321.04.136.059.253.059.351 0 .183-.06.321-.181.415-.119.093-.291.139-.517.139h-.154v-.324zm.228-1.294c.078-.08.155-.157.232-.229.077.072.155.149.232.229l-.232.23-.232-.23z" fill="#5B5C5D"/>
        <path d="M207.725 126.766h-52M207.725 116.944h-52M207.725 144.444h-52" stroke="#CCC" stroke-width=".4"/>
        <path d="M161.371 156.769c-.212.174-.325.334-.339.477a.215.215 0 0 0-.003.041c0 .071.025.128.074.171a.352.352 0 0 0 .223.062.399.399 0 0 0 .22-.056.2.2 0 0 0 .098-.15c-.002-.108-.055-.215-.16-.321a2.597 2.597 0 0 0-.503-.372l.164-.253c.251.147.439.295.561.445a.713.713 0 0 1 .188.468.534.534 0 0 1-.286.483.598.598 0 0 1-.294.071.555.555 0 0 1-.398-.138.473.473 0 0 1-.143-.354c0-.055.007-.107.021-.156a.958.958 0 0 1 .152-.327c.071-.1.158-.199.261-.298l.164.207zm1.578-.46.407.955c.038.09.081.153.128.188.048.034.113.05.196.05h.033l.018.162-.018.162h-.033a.532.532 0 0 1-.327-.1.822.822 0 0 1-.231-.321l-.419-.966.246-.13zm-.754 1.078c.077.044.15.079.219.106a.763.763 0 0 0 .259.039.811.811 0 0 0 .532-.195l.145.198a1.815 1.815 0 0 1-.148.138.79.79 0 0 1-.202.112.784.784 0 0 1-.3.053.906.906 0 0 1-.363-.065 1.38 1.38 0 0 1-.273-.153l.131-.233zm3.153.115c.069 0 .121-.018.157-.056a.234.234 0 0 0 .054-.165.896.896 0 0 0-.06-.268 2.618 2.618 0 0 0-.101-.277l.241-.132c.039.084.079.193.119.327.041.133.062.252.062.356 0 .1-.021.192-.062.274a.495.495 0 0 1-.167.195.43.43 0 0 1-.243.07h-.006v-.324h.006zm-.806.324v-.324h.009a.25.25 0 0 0 .152-.047.477.477 0 0 0 .119-.144c.043-.081.077-.204.101-.369l.249.012a1.713 1.713 0 0 0-.035.292c0 .084.016.148.05.191.034.044.087.065.161.065h.006l.017.162-.017.162h-.006a.393.393 0 0 1-.274-.094.462.462 0 0 1-.133-.271l.056-.006a.713.713 0 0 1-.187.268.383.383 0 0 1-.262.103h-.006zm-.852 0-.018-.162.018-.162h.014a.427.427 0 0 0 .345-.168.598.598 0 0 0 .092-.168c.024-.061.045-.126.063-.197l.249.026-.032.121a.742.742 0 0 0-.03.201.23.23 0 0 0 .035.138c.026.032.066.047.119.047h.006l.018.162-.018.162h-.012a.339.339 0 0 1-.225-.076.336.336 0 0 1-.116-.207c-.131.189-.296.283-.497.283h-.011zm1.358-2.039.062.062.128.127-.19.189-.188-.189.188-.189zm.062.522.143-.141.071-.071.214.212-.072.071-.142.141a5.348 5.348 0 0 0-.214-.212zm-.553 0 .143-.141.071-.071.214.212-.071.071-.143.141a4.757 4.757 0 0 0-.214-.212zm3.295 2.348c-.175 0-.329-.032-.464-.097a.74.74 0 0 1-.318-.286.82.82 0 0 1-.116-.442c0-.118.02-.244.06-.38.041-.135.089-.257.142-.365l.229.106c-.049.11-.089.215-.119.315a.976.976 0 0 0-.044.286c0 .179.054.313.163.404.109.092.264.138.467.138a1.2 1.2 0 0 0 .588-.153c.069-.041.112-.08.128-.115-.022-.035-.092-.09-.211-.165a2.152 2.152 0 0 0-.378-.189l.069-.306c.158.031.299.055.422.071.124.015.245.023.362.023h.063l.017.162-.017.162h-.063a2.74 2.74 0 0 1-.386-.026c-.127-.02-.282-.048-.467-.086l.072-.203.065.03c.196.084.364.17.502.259.139.086.207.18.205.28-.002.092-.047.183-.136.274a.97.97 0 0 1-.357.218 1.31 1.31 0 0 1-.478.085zm.982-1.155h.071c.216 0 .388-.013.514-.038a.713.713 0 0 0 .286-.109.395.395 0 0 0 .13-.186.35.35 0 0 0-.109-.283.21.21 0 0 0-.137-.05.23.23 0 0 0-.178.089.363.363 0 0 0-.093.206.25.25 0 0 0 .078.183.559.559 0 0 0 .234.138c.105.034.229.05.372.05h.288l.018.162-.018.162h-.178c-.2 0-.381-.029-.541-.088a.94.94 0 0 1-.374-.239.482.482 0 0 1-.128-.4.805.805 0 0 1 .101-.292.651.651 0 0 1 .193-.212.421.421 0 0 1 .241-.08c.093 0 .176.03.249.089a.59.59 0 0 1 .176.226.695.695 0 0 1 .056.363.612.612 0 0 1-.339.48c-.194.102-.474.153-.841.153h-.071v-.324zm.553-1.385c.077-.08.154-.157.232-.229.077.072.154.149.231.229l-.231.23-.232-.23zm3.145 1.385.018.162-.018.162h-.029c-.206-.002-.37-.043-.491-.123a.609.609 0 0 1-.246-.36l.178-.144c.02.086.075.159.166.218a.67.67 0 0 0 .354.085h.068zm-2.282 0h.256c.244 0 .471-.028.683-.085.212-.057.428-.144.648-.259.061-.034.126-.064.193-.092.068-.029.123-.05.167-.062l.009.174a1.308 1.308 0 0 1-.315-.044c-.1-.03-.208-.074-.327-.133-.185-.096-.34-.144-.467-.144a.37.37 0 0 0-.22.071.46.46 0 0 0-.145.162l-.19-.133a.813.813 0 0 1 .243-.303.528.528 0 0 1 .318-.103c.085 0 .166.014.241.044.077.027.185.076.324.147.128.065.231.113.309.144.077.032.163.057.258.077l.012.286a.725.725 0 0 0-.143.059c-.057.027-.119.06-.187.097a4.596 4.596 0 0 1-.731.318c-.214.069-.45.103-.71.103h-.226v-.324zm.615-1.417c.078-.081.155-.157.232-.23.077.073.155.149.232.23l-.232.23-.232-.23zm2.22 1.19c.122.083.233.148.332.195a.599.599 0 0 0 .229.071.107.107 0 0 0 .048-.012.157.157 0 0 0 .068-.077.316.316 0 0 0 .024-.127.456.456 0 0 0-.071-.247c-.048-.075-.109-.112-.185-.112-.059 0-.123.04-.19.121a1.9 1.9 0 0 0-.217.371.66.66 0 0 1-.235.277.61.61 0 0 1-.332.091h-.054l.006-.324h.054a.378.378 0 0 0 .219-.068.529.529 0 0 0 .173-.206 1.87 1.87 0 0 1 .264-.4.422.422 0 0 1 .291-.157.392.392 0 0 1 .274.083c.079.061.14.141.181.241a.814.814 0 0 1 .063.316.694.694 0 0 1-.063.297.434.434 0 0 1-.184.201.289.289 0 0 1-.137.032c-.156 0-.385-.099-.686-.298l.128-.268zm2.693-.506c-.212.174-.325.334-.339.477a.215.215 0 0 0-.003.041c0 .071.025.128.075.171a.347.347 0 0 0 .222.062c.09 0 .163-.019.22-.056a.197.197 0 0 0 .098-.15c-.002-.108-.055-.215-.16-.321a2.584 2.584 0 0 0-.502-.372l.163-.253c.252.147.439.295.562.445a.711.711 0 0 1 .187.468.542.542 0 0 1-.285.483.598.598 0 0 1-.294.071.558.558 0 0 1-.399-.138.472.472 0 0 1-.142-.354c0-.055.007-.107.021-.156a.955.955 0 0 1 .151-.327c.071-.1.159-.199.262-.298l.163.207zm1.519 1.057a.369.369 0 0 1-.3-.132 1.159 1.159 0 0 1-.182-.383l.199-.121a.592.592 0 0 0 .104.244.234.234 0 0 0 .179.068h.021l.017.162-.017.162h-.021zm-1.135.575a1.55 1.55 0 0 0 .347-.177c.105-.071.188-.144.247-.221.061-.075.092-.144.092-.209 0-.083-.052-.326-.157-.731l.261-.1c.046.14.082.287.11.442.03.153.045.283.045.389 0 .181-.077.351-.229.51a1.5 1.5 0 0 1-.589.374l-.127-.277zm1.202-.899h.125c.208 0 .355-.018.44-.056.085-.039.128-.1.128-.182a1.15 1.15 0 0 0-.063-.269 1.927 1.927 0 0 0-.098-.262l.247-.132c.04.078.078.183.116.315.039.132.059.246.059.345 0 .186-.065.328-.196.424-.131.094-.327.141-.588.141h-.17v-.324zm.021.734.143-.142.217.213-.217.215-.214-.215.071-.071zm.526 0 .143-.142.217.213-.217.215-.214-.215.071-.071zm-.615-.41-.018-.162.018-.162h.098v.324h-.098zm2.115-1.517.407.955a.44.44 0 0 0 .128.188c.048.034.113.05.196.05h.033l.018.162-.018.162h-.033a.528.528 0 0 1-.327-.1.833.833 0 0 1-.232-.321l-.418-.966.246-.13zm-.755 1.078c.078.044.151.079.22.106a.763.763 0 0 0 .259.039.811.811 0 0 0 .532-.195l.145.198a1.815 1.815 0 0 1-.148.138.792.792 0 0 1-.502.165.906.906 0 0 1-.363-.065 1.38 1.38 0 0 1-.273-.153l.13-.233zm2.072-.112c.123.083.234.148.333.195a.594.594 0 0 0 .229.071.106.106 0 0 0 .047-.012.148.148 0 0 0 .068-.077.316.316 0 0 0 .024-.127.456.456 0 0 0-.071-.247c-.048-.075-.109-.112-.184-.112-.06 0-.123.04-.19.121-.066.08-.138.204-.217.371a.674.674 0 0 1-.235.277.612.612 0 0 1-.333.091h-.054l.006-.324h.054a.383.383 0 0 0 .22-.068.527.527 0 0 0 .172-.206 1.87 1.87 0 0 1 .265-.4.422.422 0 0 1 .291-.157.39.39 0 0 1 .273.083c.079.061.14.141.182.241a.832.832 0 0 1 .062.316.708.708 0 0 1-.062.297.436.436 0 0 1-.185.201.285.285 0 0 1-.136.032c-.157 0-.386-.099-.687-.298l.128-.268zm3.213.581a4.165 4.165 0 0 1 0-.321c.248 0 .446-.019.595-.056.15-.04.268-.1.353-.18a.827.827 0 0 0 .199-.333l.25.029a.9.9 0 0 0-.054.274c0 .156.08.233.238.233l.018.162-.018.162a.458.458 0 0 1-.327-.123.424.424 0 0 1-.125-.325l.06.006a.938.938 0 0 1-.461.363 2.091 2.091 0 0 1-.728.109zm-.775-1.04a1.151 1.151 0 0 0-.083.362c0 .022.001.038.003.05.015.096.097.172.243.227.149.053.36.08.633.08a2.453 2.453 0 0 1 0 .321c-.349.002-.621-.046-.817-.145-.196-.1-.303-.244-.321-.433a1.092 1.092 0 0 1 .03-.324 1.53 1.53 0 0 1 .08-.25l.232.112zm.457-.156.143-.142.217.212a8.79 8.79 0 0 1-.217.215l-.214-.215.071-.07zm.523 0 .143-.142.217.212a8.79 8.79 0 0 1-.217.215l-.214-.215.071-.07zm2.37.842.018.162-.018.162h-.015a.523.523 0 0 1-.306-.088.468.468 0 0 1-.172-.271l-.099-.43-.026-.127.24-.077c.044.203.082.36.113.472.02.067.051.117.092.15a.253.253 0 0 0 .158.047h.015zm-.294-.191c-.026.178-.097.309-.214.392-.115.082-.282.123-.499.123h-.018v-.324h.018a.842.842 0 0 0 .359-.059c.083-.039.13-.098.14-.176l.214.044zm-.277-.775a.39.39 0 0 1-.22-.094.254.254 0 0 1-.089-.195c0-.065.02-.124.06-.177a.25.25 0 0 1 .151-.103.372.372 0 0 1 .077-.009c.056 0 .124.013.206.039l-.045.162a.497.497 0 0 0-.166-.033.144.144 0 0 0-.104.039.113.113 0 0 0-.042.085c0 .02.008.04.024.062a.177.177 0 0 0 .068.053.21.21 0 0 0 .107.009l-.027.162zm-.398-.036.636-.2v.165l-.636.2v-.165zm.939 1.002h.024c.154 0 .274-.007.359-.02a.487.487 0 0 0 .184-.059.204.204 0 0 0 .081-.115.386.386 0 0 0 .012-.109c0-.053-.005-.113-.015-.18l-.018-.127.246-.05c.028.132.042.291.042.478.01.057.036.102.077.135a.291.291 0 0 0 .176.047h.02l.018.162-.018.162h-.02a.427.427 0 0 1-.259-.082.495.495 0 0 1-.163-.212l.065.011a.393.393 0 0 1-.241.221c-.117.042-.299.062-.546.062h-.024v-.324zm-.11.734.143-.142.216.213c-.071.072-.143.144-.216.215l-.214-.215.071-.071zm.526 0 .142-.142.217.213c-.071.072-.143.144-.217.215l-.213-.215.071-.071zm.748-.734h.041c.339 0 .584-.03.734-.091.151-.063.226-.16.226-.292a.339.339 0 0 0-.071-.212.22.22 0 0 0-.182-.091.24.24 0 0 0-.133.044.378.378 0 0 0-.11.115.26.26 0 0 0-.045.141c0 .075.043.146.128.212.085.065.191.118.318.16.129.039.25.058.362.058a.486.486 0 0 0 .226-.044.148.148 0 0 0 .086-.138c0-.102-.105-.214-.315-.336-.209-.122-.526-.24-.95-.354l.116-.3c.366.118.651.23.855.336.206.106.349.207.428.303a.47.47 0 0 1 .119.301.724.724 0 0 1-.039.218.363.363 0 0 1-.199.221.804.804 0 0 1-.359.073c-.157 0-.315-.028-.476-.085a1.108 1.108 0 0 1-.398-.236.458.458 0 0 1-.151-.389.727.727 0 0 1 .104-.291.685.685 0 0 1 .202-.221.412.412 0 0 1 .243-.086c.086 0 .165.029.238.086a.547.547 0 0 1 .172.221.64.64 0 0 1 .06.374.645.645 0 0 1-.173.368.81.81 0 0 1-.386.197 2.61 2.61 0 0 1-.63.062h-.041v-.324zm5.83 0h.006a.343.343 0 0 0 .193-.056c.059-.039.091-.083.095-.132l.199.029a.546.546 0 0 1-.083.245.52.52 0 0 1-.176.176.44.44 0 0 1-.228.062h-.006v-.324zm.775 0 .018.162-.021.162h-.012a.475.475 0 0 1-.297-.097.577.577 0 0 1-.187-.283 4.901 4.901 0 0 1-.11-.501l.247-.064c.023.129.042.229.056.3.016.069.03.121.042.156.035.11.119.165.249.165h.015zm-1.575.324v-.324h.009a.25.25 0 0 0 .152-.047.477.477 0 0 0 .119-.144c.043-.081.077-.204.101-.369l.249.012a1.616 1.616 0 0 0-.035.292c0 .084.016.148.05.191.034.044.087.065.161.065h.005l.018.162-.018.162h-.005a.393.393 0 0 1-.274-.094.469.469 0 0 1-.134-.271l.057-.006a.713.713 0 0 1-.187.268.384.384 0 0 1-.262.103h-.006zm-.282-.618a.617.617 0 0 0 .107.226c.042.046.107.068.196.068l-.015.324a.35.35 0 0 1-.294-.15.843.843 0 0 1-.151-.368l.157-.1zm-1.334.005c-.111.228-.167.427-.167.596 0 .178.055.314.164.406.109.093.264.139.466.139a.845.845 0 0 0 .39-.083.55.55 0 0 0 .318-.477c0-.086-.018-.198-.054-.336a4.894 4.894 0 0 0-.119-.392l.253-.121c.059.171.103.325.131.463.029.137.044.266.044.386a.857.857 0 0 1-.452.757.989.989 0 0 1-.511.127.974.974 0 0 1-.481-.112.76.76 0 0 1-.309-.298.865.865 0 0 1-.104-.424c0-.118.02-.244.059-.377.04-.134.087-.254.14-.36l.232.106zm2.121-1.328.063.062.128.126-.191.189-.187-.189.187-.188zm.063.521.142-.141.072-.071.214.212-.072.071-.142.141a7.13 7.13 0 0 0-.214-.212zm-.553 0 .143-.141.071-.071.214.212-.071.071-.143.141a6.116 6.116 0 0 0-.214-.212zm1.527 1.096h.125c.208 0 .354-.018.44-.056.085-.039.127-.1.127-.182a1.134 1.134 0 0 0-.062-.269 2.075 2.075 0 0 0-.098-.262l.246-.132c.04.078.079.183.116.315.04.132.06.246.06.345a.495.495 0 0 1-.196.424c-.131.094-.327.141-.589.141h-.169v-.324zm-.113.74.143-.142.217.213-.217.215-.214-.215.071-.071zm.526 0 .143-.142.217.213-.217.215-.214-.215.071-.071zm1.133-2.511c.016.112.029.291.039.537.01.243.015.47.015.68v.13a1.28 1.28 0 0 0 .015.262.18.18 0 0 0 .08.124.402.402 0 0 0 .199.038h.015l.018.162-.018.162h-.015c-.21 0-.358-.054-.443-.162-.083-.11-.125-.284-.125-.521 0-.216-.005-.462-.017-.737a5.932 5.932 0 0 0-.045-.613l.282-.062zm.334 1.771h.06c.162 0 .293-.091.392-.274.099-.179.193-.316.282-.412a.406.406 0 0 1 .3-.145c.119 0 .214.042.286.124.073.083.13.197.172.342.038.133.072.228.104.283.034.055.079.082.137.082h.029l.018.162-.018.162h-.029c-.137 0-.234-.074-.291-.224a.23.23 0 0 1-.057.121.397.397 0 0 1-.107.086.289.289 0 0 1-.137.032c-.146 0-.347-.081-.603-.244a.584.584 0 0 1-.484.229h-.054v-.324zm.678-.165c.107.075.207.131.3.168.095.036.17.053.226.053a.172.172 0 0 0 .044-.006.274.274 0 0 0 .042-.162.6.6 0 0 0-.033-.194.425.425 0 0 0-.092-.165.18.18 0 0 0-.136-.065c-.102 0-.218.124-.351.371zm1.055.165h.154c.155 0 .266-.018.333-.056a.186.186 0 0 0 .101-.174c0-.053-.021-.143-.062-.271a2.404 2.404 0 0 0-.095-.268l.246-.132c.038.076.076.183.116.321.04.135.06.252.06.35 0 .183-.061.322-.182.416-.119.092-.291.138-.517.138h-.154v-.324zm.229-1.293c.077-.081.154-.157.231-.23.078.073.155.149.232.23l-.232.23-.231-.23z" fill="#5B5C5D"/>
        <path d="M203.515 157.089a.41.41 0 1 0 0-.818.411.411 0 0 0-.413.409c0 .226.185.409.413.409zm-1.238-.163a.491.491 0 1 0 0-.983.494.494 0 0 0-.496.491c0 .272.222.492.496.492zm1.238.491c-.302 0-.908.15-.908.45v.204c0 .09.074.164.165.164h1.486c.09 0 .165-.074.165-.164v-.204c0-.3-.606-.45-.908-.45zm-1.238-.164c-.385 0-1.156.191-1.156.573v.245c0 .09.074.164.165.164h.991v-.368c0-.139.054-.383.391-.568a2.004 2.004 0 0 0-.391-.046z" fill="#4F4F4F"/>
        <path d="m201.068 158.146 3.265-2.313" stroke="#fff" stroke-width="2" stroke-linecap="round"/>
        <path d="m201.068 158.146 3.265-2.313" stroke="#4F4F4F" stroke-linecap="round"/>
        <path d="M170.504 113.213c.325-.068.563-.16.716-.274a.506.506 0 0 0 .229-.424c0-.112-.015-.224-.045-.336a.78.78 0 0 0-.13-.28c-.056-.076-.121-.119-.197-.126a.156.156 0 0 0-.127.044.397.397 0 0 0-.134.291c0 .042.008.074.024.098.031.047.104.078.217.094.114.016.263.024.445.024h.292l.017.162-.017.162-.366.003c-.216 0-.391-.017-.526-.05a.411.411 0 0 1-.279-.216.526.526 0 0 1-.051-.232.801.801 0 0 1 .256-.581.38.38 0 0 1 .255-.103.41.41 0 0 1 .312.153c.093.1.165.23.214.389a1.5 1.5 0 0 1 .078.475.849.849 0 0 1-.289.648c-.19.177-.455.298-.796.365l-.098-.286zm1.251-.889h.024c.154 0 .274-.007.359-.021a.482.482 0 0 0 .185-.059.207.207 0 0 0 .08-.115.381.381 0 0 0 .012-.109c0-.053-.005-.113-.015-.18l-.018-.126.247-.05a2.4 2.4 0 0 1 .041.477c.01.057.036.102.077.135a.291.291 0 0 0 .176.048h.021l.017.162-.017.162h-.021a.43.43 0 0 1-.259-.083.495.495 0 0 1-.163-.212l.065.012a.393.393 0 0 1-.241.221c-.116.041-.299.062-.546.062h-.024v-.324zm.095.739.143-.141.217.212-.217.215-.214-.215.071-.071zm.526 0 .143-.141.217.212-.217.215-.214-.215.071-.071zm.537-.739h.059c.163 0 .293-.092.392-.274.099-.179.194-.317.283-.413a.408.408 0 0 1 .3-.144c.119 0 .214.041.285.123a.87.87 0 0 1 .172.342c.038.134.073.228.104.283.034.055.08.083.137.083h.03l.018.162-.018.162h-.03c-.137 0-.234-.075-.291-.224a.237.237 0 0 1-.057.121.41.41 0 0 1-.106.085.28.28 0 0 1-.137.032c-.147 0-.348-.081-.603-.244a.605.605 0 0 1-.214.174.664.664 0 0 1-.271.056h-.053v-.324zm.677-.165c.107.074.207.13.3.167a.689.689 0 0 0 .226.054.186.186 0 0 0 .045-.006.278.278 0 0 0 .041-.162c0-.065-.01-.13-.032-.195a.452.452 0 0 0-.092-.165.184.184 0 0 0-.137-.065c-.101 0-.218.124-.351.372zm2.719.165c.069 0 .122-.019.158-.056a.242.242 0 0 0 .053-.165.925.925 0 0 0-.059-.269 3.289 3.289 0 0 0-.101-.277l.24-.132c.04.084.08.193.119.327.042.134.063.252.063.356a.591.591 0 0 1-.063.274.493.493 0 0 1-.166.195.436.436 0 0 1-.244.071h-.006v-.324h.006zm-.805.324v-.324h.009a.247.247 0 0 0 .151-.048.45.45 0 0 0 .119-.144c.044-.081.077-.203.101-.368l.25.012c-.024.123-.036.22-.036.291 0 .085.017.149.051.192.033.043.087.065.16.065h.006l.018.162-.018.162h-.006a.39.39 0 0 1-.273-.095.46.46 0 0 1-.134-.271l.057-.006a.708.708 0 0 1-.188.269.385.385 0 0 1-.261.103h-.006zm-.853 0-.018-.162.018-.162h.015a.424.424 0 0 0 .199-.048.374.374 0 0 0 .146-.12.624.624 0 0 0 .092-.168c.024-.061.044-.127.062-.198l.25.027a3.41 3.41 0 0 1-.033.121.73.73 0 0 0-.03.2c0 .061.012.107.036.138.026.032.065.048.119.048h.006l.018.162-.018.162h-.012a.342.342 0 0 1-.226-.077.34.34 0 0 1-.116-.206c-.131.188-.296.283-.496.283h-.012zm2.005.574c.129-.047.245-.106.348-.177.105-.07.187-.144.247-.221.061-.074.092-.144.092-.209 0-.082-.053-.326-.158-.73l.262-.101c.045.14.082.287.11.442.029.154.044.283.044.389 0 .181-.076.351-.228.51a1.488 1.488 0 0 1-.589.374l-.128-.277zm1.742 0a1.55 1.55 0 0 0 .347-.177c.105-.07.187-.144.247-.221.061-.074.092-.144.092-.209 0-.082-.053-.326-.158-.73l.262-.101c.045.14.082.287.11.442.03.154.044.283.044.389 0 .181-.076.351-.228.51a1.488 1.488 0 0 1-.589.374l-.127-.277zm1.278-1.013c.078.041.154.075.229.103a.93.93 0 0 0 .288.038.713.713 0 0 0 .262-.041c.069-.028.115-.059.137-.094a.189.189 0 0 0 .008-.056c0-.085-.05-.193-.151-.325a2.105 2.105 0 0 0-.467-.427l.161-.28c.222.163.396.336.523.519.129.181.193.35.193.507a.482.482 0 0 1-.042.203.446.446 0 0 1-.225.224.833.833 0 0 1-.369.079 1.11 1.11 0 0 1-.41-.067.995.995 0 0 1-.267-.151l.13-.232zm3.291-1.049c.034.353.062.622.086.807.01.1.024.175.042.224a.182.182 0 0 0 .08.103c.036.02.088.03.157.03h.045l.018.162-.018.162h-.045c-.164 0-.29-.049-.377-.148-.087-.1-.144-.264-.169-.492a16.45 16.45 0 0 0-.063-.518 12.468 12.468 0 0 0-.032-.274l.276-.056zm-.024 1.281a1.12 1.12 0 0 1-.359.059.689.689 0 0 1-.413-.115.368.368 0 0 1-.158-.315c0-.163.069-.3.208-.412a1.79 1.79 0 0 1 .559-.292l.059.295a1.46 1.46 0 0 0-.392.156c-.111.067-.169.13-.175.191-.006.051.017.095.071.13.055.033.129.05.22.05.097 0 .201-.02.312-.059l.068.312zm2.681-.117.018.162-.018.162h-.03c-.206-.002-.369-.044-.49-.124a.607.607 0 0 1-.247-.36l.179-.144a.353.353 0 0 0 .166.218.668.668 0 0 0 .354.086h.068zm-2.282 0h.255c.244 0 .472-.029.684-.086a3.14 3.14 0 0 0 .648-.259 1.81 1.81 0 0 1 .193-.092c.067-.029.123-.05.166-.061l.009.173a1.26 1.26 0 0 1-.315-.044 2.034 2.034 0 0 1-.327-.132c-.184-.097-.34-.145-.466-.145a.366.366 0 0 0-.22.071.463.463 0 0 0-.146.162l-.19-.133a.823.823 0 0 1 .244-.303.528.528 0 0 1 .318-.103.66.66 0 0 1 .24.044c.078.028.186.077.324.147a4.9 4.9 0 0 0 .309.145c.077.031.164.057.259.076l.012.286a.764.764 0 0 0-.143.059c-.057.028-.12.06-.187.097-.272.144-.515.25-.731.319a2.337 2.337 0 0 1-.71.103h-.226v-.324zm2.243 0h.071c.216 0 .387-.013.514-.039a.688.688 0 0 0 .285-.109.399.399 0 0 0 .131-.185.357.357 0 0 0-.024-.157.272.272 0 0 0-.086-.126.202.202 0 0 0-.137-.05.231.231 0 0 0-.178.088.371.371 0 0 0-.092.206.254.254 0 0 0 .077.183.57.57 0 0 0 .235.138c.105.034.229.051.372.051h.288l.018.162-.018.162h-.179c-.2 0-.38-.03-.54-.089a.936.936 0 0 1-.375-.238.489.489 0 0 1-.128-.401.813.813 0 0 1 .102-.292.64.64 0 0 1 .193-.212.418.418 0 0 1 .24-.08c.093 0 .177.03.25.089a.674.674 0 0 1 .232.589.612.612 0 0 1-.339.48c-.194.103-.474.154-.841.154h-.071v-.324zm.552-1.385c.078-.081.155-.157.232-.23.077.073.155.149.232.23l-.232.23-.232-.23zm.864 1.385h.044a.418.418 0 0 0 .238-.062.43.43 0 0 0 .146-.201 1.58 1.58 0 0 0 .089-.365l.247.05c-.01.061-.015.127-.015.197 0 .163.042.278.127.345.088.067.229.1.425.1.181 0 .341-.02.482-.062a.876.876 0 0 0 .327-.162c.079-.066.118-.136.118-.209a.187.187 0 0 0-.08-.156.324.324 0 0 0-.214-.065c-.16 0-.324.07-.49.209a2.03 2.03 0 0 0-.455.587l-.202-.133c.155-.302.331-.539.529-.71.2-.173.398-.259.595-.259.106 0 .204.022.291.068a.496.496 0 0 1 .202.188.498.498 0 0 1 .074.268.583.583 0 0 1-.149.398.957.957 0 0 1-.413.265 1.728 1.728 0 0 1-.591.095c-.402 0-.648-.123-.737-.369a.59.59 0 0 1-.208.23.654.654 0 0 1-.339.077h-.041v-.324zm6.48 0h.006a.349.349 0 0 0 .193-.056c.06-.04.091-.084.095-.133l.199.029a.534.534 0 0 1-.083.245.511.511 0 0 1-.175.177.453.453 0 0 1-.229.062h-.006v-.324zm.776 0 .017.162-.02.162h-.012a.476.476 0 0 1-.297-.098.569.569 0 0 1-.188-.282 5.215 5.215 0 0 1-.11-.501l.247-.065.057.3c.015.069.029.121.041.157.036.11.119.165.25.165h.015zm-1.575.324v-.324h.009a.247.247 0 0 0 .151-.048.463.463 0 0 0 .119-.144c.044-.081.077-.203.101-.368l.25.012c-.024.123-.036.22-.036.291 0 .085.017.149.051.192.033.043.087.065.16.065h.006l.018.162-.018.162h-.006a.39.39 0 0 1-.273-.095.46.46 0 0 1-.134-.271l.056-.006a.706.706 0 0 1-.187.269.385.385 0 0 1-.261.103h-.006zm-.283-.619a.64.64 0 0 0 .107.227c.042.045.107.068.197.068l-.015.324a.35.35 0 0 1-.294-.151.844.844 0 0 1-.152-.368l.157-.1zm-1.334.006c-.111.228-.166.426-.166.595 0 .179.054.314.163.407.109.092.265.138.467.138a.844.844 0 0 0 .389-.082.553.553 0 0 0 .238-.21.494.494 0 0 0 .08-.268 1.44 1.44 0 0 0-.053-.336 5.34 5.34 0 0 0-.119-.392l.252-.12c.06.171.103.325.131.462.03.138.045.266.045.386a.857.857 0 0 1-.452.757.991.991 0 0 1-.511.127.978.978 0 0 1-.482-.112.77.77 0 0 1-.309-.297.871.871 0 0 1-.104-.425c0-.118.02-.243.06-.377.039-.133.086-.253.14-.359l.231.106zm2.122-1.329.062.062.128.127-.19.188-.187-.188.187-.189zm.062.521.143-.141.071-.071.214.212-.071.071-.143.142a4.777 4.777 0 0 0-.214-.213zm-.552 0 .142-.141.072-.071.214.212-.072.071-.142.142a6.138 6.138 0 0 0-.214-.213zm1.526 1.097h.125c.208 0 .355-.019.44-.056.085-.04.128-.101.128-.183a1.145 1.145 0 0 0-.063-.268 1.875 1.875 0 0 0-.098-.262l.247-.133c.04.079.078.184.116.315.039.132.059.247.059.345 0 .187-.065.328-.196.424-.131.095-.327.142-.588.142h-.17v-.324zm-.112.739.142-.141.217.212c-.071.072-.144.144-.217.215l-.214-.215.072-.071zm.525 0 .143-.141.217.212c-.071.072-.144.144-.217.215l-.214-.215.071-.071zm1.134-2.51c.016.112.029.29.038.536.01.244.015.47.015.681v.129c-.002.118.003.206.015.262a.181.181 0 0 0 .08.124.39.39 0 0 0 .199.039h.015l.018.162-.018.162h-.015c-.21 0-.357-.054-.442-.162-.083-.11-.125-.284-.125-.522 0-.216-.006-.462-.018-.737a6.28 6.28 0 0 0-.044-.612l.282-.062zm.334 1.771h.059c.163 0 .293-.092.393-.274.099-.179.193-.317.282-.413a.408.408 0 0 1 .3-.144c.119 0 .214.041.285.123a.885.885 0 0 1 .173.342 1.3 1.3 0 0 0 .104.283c.033.055.079.083.136.083h.03l.018.162-.018.162h-.03c-.136 0-.234-.075-.291-.224a.243.243 0 0 1-.056.121.43.43 0 0 1-.107.085.28.28 0 0 1-.137.032c-.147 0-.348-.081-.603-.244a.605.605 0 0 1-.214.174.66.66 0 0 1-.271.056h-.053v-.324zm.677-.165c.107.074.207.13.3.167a.694.694 0 0 0 .226.054.186.186 0 0 0 .045-.006.278.278 0 0 0 .041-.162c0-.065-.01-.13-.032-.195a.452.452 0 0 0-.092-.165.184.184 0 0 0-.137-.065c-.101 0-.218.124-.351.372zm1.055.165h.155c.154 0 .265-.019.333-.056a.188.188 0 0 0 .101-.174c0-.053-.021-.144-.063-.271a1.992 1.992 0 0 0-.095-.268l.247-.133c.037.077.076.184.116.321.039.136.059.253.059.351 0 .182-.06.321-.181.415-.119.092-.291.139-.517.139h-.155v-.324zm.229-1.294c.077-.08.155-.157.232-.23.077.073.154.15.232.23l-.232.23-.232-.23z" fill="#5B5C5D"/>
        <path d="M203.199 110.37a.33.33 0 0 0-.234-.097h-1.184a.33.33 0 0 0-.33.328v2.619c0 .18.147.327.329.327h1.982a.33.33 0 0 0 .331-.327v-1.829a.318.318 0 0 0-.098-.23l-.796-.791zm.068 2.522h-.991a.164.164 0 0 1-.164-.163c0-.09.074-.164.164-.164h.991c.091 0 .165.074.165.164 0 .09-.074.163-.165.163zm0-.654h-.991a.165.165 0 0 1-.164-.164c0-.09.074-.164.164-.164h.991c.091 0 .165.074.165.164 0 .09-.074.164-.165.164zm-.33-.982v-.737l.908.9h-.743a.164.164 0 0 1-.165-.163z" fill="#4F4F4F"/>
    </g>
    <path d="M67.01 59H16.99c-.546 0-.99.463-.99 1.033v28.934c0 .57.444 1.033.99 1.033h50.02c.546 0 .99-.463.99-1.033V60.033c0-.57-.444-1.033-.99-1.033z" fill="#fff"/>
    <path d="M68 69.463H16M68 79.796H16" stroke="#CCC" stroke-width=".4"/>
    <path d="M61.81 75.706c0 .19.148.344.33.344h1.32c.182 0 .33-.155.33-.344v-1.722a.338.338 0 0 0-.33-.345h-1.32a.339.339 0 0 0-.33.345v1.722zm1.98-2.584h-.412L63.26 73a.163.163 0 0 0-.116-.05h-.69a.163.163 0 0 0-.115.05l-.118.122h-.412a.17.17 0 0 0-.166.173.17.17 0 0 0 .166.172h1.98a.17.17 0 0 0 .166-.172.17.17 0 0 0-.165-.173z" fill="#4F4F4F"/>
    <path d="M48.002 74.813c.077.044.153.08.229.109a.87.87 0 0 0 .288.04.668.668 0 0 0 .261-.043c.07-.03.115-.062.137-.1a.173.173 0 0 0 .009-.058c0-.09-.05-.203-.152-.341a2.14 2.14 0 0 0-.466-.45l.16-.294c.222.171.396.353.523.545.13.19.194.368.194.533 0 .08-.014.15-.042.214a.458.458 0 0 1-.226.236.796.796 0 0 1-.368.084c-.16 0-.298-.024-.41-.072a.97.97 0 0 1-.268-.158l.13-.245zm2.206.462a.361.361 0 0 1-.3-.14 1.242 1.242 0 0 1-.181-.402l.2-.127a.632.632 0 0 0 .103.257.23.23 0 0 0 .178.071h.021l.018.17-.018.171h-.02zm-1.135.605a1.53 1.53 0 0 0 .348-.186c.105-.075.187-.152.247-.233a.366.366 0 0 0 .092-.22c0-.087-.053-.343-.158-.769l.262-.105c.045.147.082.302.11.465.03.161.044.298.044.41 0 .19-.076.368-.229.535-.15.17-.346.301-.588.394l-.128-.291zm1.123-.946h.039c.31 0 .544-.026.7-.08.16-.054.252-.147.28-.28 0-.109-.015-.22-.044-.331a.81.81 0 0 0-.128-.282c-.056-.076-.12-.115-.193-.115a.204.204 0 0 0-.128.047.35.35 0 0 0-.125.263c0 .04.009.075.027.106.03.047.084.084.163.111.081.027.173.04.274.04a.947.947 0 0 0 .21-.021v.313a1.235 1.235 0 0 1-.264.028.926.926 0 0 1-.365-.068.459.459 0 0 1-.23-.211.575.575 0 0 1-.056-.257c0-.108.022-.212.066-.314a.673.673 0 0 1 .184-.25.4.4 0 0 1 .261-.1c.111 0 .21.046.298.136a.887.887 0 0 1 .202.35 1.39 1.39 0 0 1 .068.537.648.648 0 0 1-.324.533c-.2.124-.492.186-.876.186h-.039v-.34zm.401-1.869a6.59 6.59 0 0 1 .232-.242c.077.077.154.157.232.242l-.232.242-.232-.242zm3.12 2.241-.021-.17.014-.17h.036c.303 0 .534-.032.692-.094.16-.064.255-.163.283-.297 0-.11-.015-.22-.045-.332a.812.812 0 0 0-.128-.282c-.055-.076-.12-.115-.193-.115a.203.203 0 0 0-.127.047.347.347 0 0 0-.125.263c0 .04.009.075.026.106.03.047.085.084.164.111.081.027.171.04.27.04.08 0 .15-.007.214-.021v.313a1.236 1.236 0 0 1-.264.028.925.925 0 0 1-.366-.068.46.46 0 0 1-.229-.211.575.575 0 0 1-.056-.257c0-.108.022-.212.065-.314a.67.67 0 0 1 .185-.25.4.4 0 0 1 .261-.1c.111 0 .21.046.297.136a.887.887 0 0 1 .202.35 1.394 1.394 0 0 1 .069.537.69.69 0 0 1-.327.552c-.202.132-.493.2-.874.201l-.024-.003zm-.782-1.094c-.056.163-.083.29-.083.381 0 .023 0 .04.003.053.016.101.097.18.243.239.149.055.36.083.633.083a2.71 2.71 0 0 1 0 .338c-.348.002-.62-.048-.817-.152-.196-.105-.303-.257-.32-.455a1.209 1.209 0 0 1 .03-.341c.02-.097.047-.185.08-.264l.23.118zm1.177-1.138c.077-.084.154-.165.231-.242.078.077.155.158.232.242l-.232.242-.231-.242zm1.908.605.407 1.004c.038.095.08.161.128.199a.323.323 0 0 0 .196.052h.032l.018.17-.018.171h-.032a.511.511 0 0 1-.327-.105.862.862 0 0 1-.232-.338l-.419-1.017.247-.136zm-.755 1.134c.077.046.15.083.22.112.071.027.157.04.258.04a.788.788 0 0 0 .532-.204l.146.207a1.891 1.891 0 0 1-.149.146.77.77 0 0 1-.502.174.878.878 0 0 1-.362-.069 1.382 1.382 0 0 1-.274-.16l.131-.246zm.413-1.584a6.59 6.59 0 0 1 .232-.242c.077.077.154.158.232.242l-.232.242-.232-.242zm1.073 1.705h.256a2.5 2.5 0 0 0 .683-.09c.212-.06.428-.15.648-.272.061-.035.126-.068.193-.097.068-.03.123-.052.166-.065l.01.183a1.219 1.219 0 0 1-.316-.046 2.025 2.025 0 0 1-.326-.14c-.185-.1-.34-.152-.467-.152a.355.355 0 0 0-.22.075.485.485 0 0 0-.145.17l-.19-.14a.857.857 0 0 1 .243-.319.513.513 0 0 1 .318-.108c.085 0 .165.015.24.046.078.03.186.081.325.156.128.068.231.118.309.151.077.034.163.06.258.081l.012.3a.723.723 0 0 0-.143.063c-.057.029-.12.063-.187.102-.271.15-.515.263-.73.335-.215.072-.452.108-.711.108h-.226v-.34zM31.255 85.327a10.865 10.865 0 0 1 .72-.06l.017.171-.018.17c-.202 0-.381-.009-.538-.027a.91.91 0 0 1-.327-.084l.146-.17zm-1.441-.193c.109.052.236.094.38.127.147.032.303.047.47.047.178 0 .336-.022.475-.065a.858.858 0 0 0 .321-.174c.077-.07.116-.143.116-.22a.206.206 0 0 0-.077-.164.312.312 0 0 0-.214-.068c-.16 0-.325.075-.494.226-.166.15-.322.364-.466.639l-.205-.146c.16-.325.342-.579.544-.763.202-.186.4-.28.597-.282a.58.58 0 0 1 .288.072.538.538 0 0 1 .276.477c0 .159-.05.3-.151.421a.946.946 0 0 1-.413.283c-.174.066-.372.099-.594.099a2.195 2.195 0 0 1-.948-.198l.095-.31zm.517-.133c.008-.072.012-.168.012-.288 0-.203-.01-.433-.03-.691a7.228 7.228 0 0 0-.056-.55l.282-.067c.016.103.03.256.044.458.016.203.024.404.024.605 0 .18-.007.338-.02.474l-.256.06zm1.606.267h.023a.856.856 0 0 0 .324-.047.246.246 0 0 0 .143-.158.398.398 0 0 0 .012-.108c0-.067-.012-.176-.036-.329l.247-.053c.028.139.041.306.041.503.01.06.037.107.08.142.046.033.104.05.173.05h.02l.019.17-.018.17h-.021a.413.413 0 0 1-.259-.086.52.52 0 0 1-.163-.223l.068.012a.409.409 0 0 1-.22.23 1.03 1.03 0 0 1-.41.068h-.023v-.341zm-.048.858c.077-.084.155-.165.232-.241.077.076.154.157.232.241l-.232.242-.232-.242zm1.046-.858h.125c.208 0 .354-.02.44-.06.085-.04.127-.105.127-.191a1.256 1.256 0 0 0-.062-.282 2.199 2.199 0 0 0-.098-.276l.246-.14c.04.083.079.193.116.332.04.138.06.26.06.362 0 .197-.066.346-.197.447-.13.1-.326.149-.588.149h-.17v-.341zm.14-1.42.142-.149.217.223c-.071.077-.144.152-.217.227l-.214-.227.072-.074zm.522 0 .143-.149.217.223c-.071.077-.144.152-.217.227l-.214-.227.071-.074zm1.326 1.76a.361.361 0 0 1-.3-.139 1.246 1.246 0 0 1-.181-.403l.2-.127a.632.632 0 0 0 .103.257.23.23 0 0 0 .178.072h.021l.018.17-.018.17h-.02zm-1.135.605a1.53 1.53 0 0 0 .348-.186c.105-.074.187-.152.247-.232a.367.367 0 0 0 .092-.22c0-.087-.053-.344-.158-.77l.262-.105c.045.147.082.302.11.465.03.162.044.298.044.41 0 .19-.076.368-.229.536-.15.17-.346.3-.588.394l-.128-.292zm1.708-1.184c.123.087.234.155.333.205.1.05.175.074.229.074a.103.103 0 0 0 .047-.012.16.16 0 0 0 .069-.081.353.353 0 0 0 .023-.133.493.493 0 0 0-.07-.26c-.048-.08-.11-.118-.185-.118-.06 0-.123.042-.19.127a2.035 2.035 0 0 0-.217.39.696.696 0 0 1-.235.292.591.591 0 0 1-.333.096h-.053l.006-.341h.053c.08 0 .153-.024.22-.072a.559.559 0 0 0 .172-.217 1.99 1.99 0 0 1 .265-.421c.09-.104.186-.158.291-.165a.378.378 0 0 1 .273.087c.08.064.14.15.182.254a.895.895 0 0 1 .062.332c0 .114-.02.218-.062.313a.448.448 0 0 1-.184.211.27.27 0 0 1-.137.034c-.157 0-.385-.104-.687-.313l.128-.282zm2.524-.236c-.05.116-.089.227-.119.332-.03.103-.044.204-.044.3 0 .187.054.327.163.422.11.098.265.146.467.146.127 0 .24-.02.342-.059a.714.714 0 0 0 .252-.149.502.502 0 0 0 .14-.189c.002-.01-.024-.026-.077-.046a2.706 2.706 0 0 0-.274-.09.893.893 0 0 1-.327-.152c-.063-.058-.095-.142-.095-.251a.967.967 0 0 1 .419-.794.712.712 0 0 1 .404-.13c.054 0 .108.008.164.025a.334.334 0 0 1 .125.053l-.096.297a.645.645 0 0 0-.196-.034.515.515 0 0 0-.255.068.659.659 0 0 0-.2.174.53.53 0 0 0-.097.217.17.17 0 0 0-.003.037c0 .04.021.073.065.102.044.027.13.06.262.096.122.036.217.07.282.103a.32.32 0 0 1 .134.108.255.255 0 0 1 .035.14.665.665 0 0 1-.13.387.933.933 0 0 1-.36.307c-.153.08-.324.121-.514.121a.996.996 0 0 1-.479-.112.77.77 0 0 1-.32-.322.949.949 0 0 1-.096-.496 1.48 1.48 0 0 1 .063-.369c.04-.13.084-.248.134-.353l.231.111zm2.134-1.388c.016.117.029.305.039.564.01.256.015.495.015.716v.136c-.002.124.003.216.014.276a.19.19 0 0 0 .08.13c.042.027.109.04.2.04h.015l.017.171-.017.17h-.015c-.21 0-.358-.056-.443-.17-.083-.116-.125-.299-.125-.549 0-.227-.006-.485-.018-.774a6.614 6.614 0 0 0-.044-.645l.282-.065zm.34 1.863h.042c.338 0 .583-.032.734-.096.15-.067.225-.169.225-.307a.364.364 0 0 0-.07-.224.217.217 0 0 0-.182-.096.238.238 0 0 0-.134.047.394.394 0 0 0-.11.12c-.03.05-.044.1-.044.15 0 .078.042.153.128.223.085.068.19.124.317.167.13.041.25.062.363.062a.475.475 0 0 0 .226-.046.159.159 0 0 0 .086-.146c0-.108-.105-.225-.315-.353-.21-.129-.527-.253-.95-.372l.115-.317c.367.124.652.242.856.354.206.111.348.218.428.32.079.1.118.206.118.315a.8.8 0 0 1-.038.23.378.378 0 0 1-.2.232.77.77 0 0 1-.359.078c-.156 0-.315-.03-.475-.09a1.092 1.092 0 0 1-.398-.248.494.494 0 0 1-.152-.41.8.8 0 0 1 .104-.306.73.73 0 0 1 .202-.233.4.4 0 0 1 .244-.09c.085 0 .164.03.237.09a.58.58 0 0 1 .173.233.714.714 0 0 1 .06.393.699.699 0 0 1-.173.388.802.802 0 0 1-.386.208 2.529 2.529 0 0 1-.63.065h-.042v-.341zm3.184.372a4.638 4.638 0 0 1 0-.338c.247 0 .445-.02.594-.06a.786.786 0 0 0 .353-.188.877.877 0 0 0 .2-.35l.25.03a.993.993 0 0 0-.054.289c0 .163.079.245.237.245l.018.17-.018.17a.444.444 0 0 1-.327-.13.456.456 0 0 1-.124-.34l.06.006a.943.943 0 0 1-.461.381 1.987 1.987 0 0 1-.728.115zm-.776-1.095c-.056.164-.083.29-.083.382 0 .022 0 .04.003.052.016.102.097.181.243.24.149.055.36.083.633.083a2.716 2.716 0 0 1 0 .338c-.348.002-.62-.049-.817-.152-.196-.106-.303-.257-.32-.456a1.208 1.208 0 0 1 .03-.341c.02-.097.047-.185.08-.263l.231.117zm.458-.164.142-.149.217.224c-.071.076-.144.151-.217.226l-.214-.227.072-.074zm.523 0 .142-.149.217.224c-.071.076-.143.151-.217.226l-.214-.227.072-.074zm2.699-.74-.907.408c.145.128.279.283.402.465.123.182.184.354.184.515 0 .052-.007.1-.02.143a.528.528 0 0 1-.313.328c-.16.073-.366.109-.618.109h-.083v-.341h.083c.188 0 .34-.017.455-.05.117-.035.19-.085.222-.149a.276.276 0 0 0 .006-.05c0-.103-.054-.229-.163-.378a2.731 2.731 0 0 0-.463-.477l.035-.31 1.09-.49.09.276zm.81 1.968a.361.361 0 0 1-.3-.14 1.246 1.246 0 0 1-.181-.403l.199-.127a.632.632 0 0 0 .104.257.23.23 0 0 0 .178.072h.021l.018.17-.018.17h-.02zm-1.135.604c.129-.05.245-.111.348-.186.105-.074.187-.152.247-.232a.367.367 0 0 0 .092-.22c0-.087-.053-.344-.158-.77l.262-.105c.045.147.082.302.11.465.03.162.044.298.044.41 0 .19-.076.368-.229.536-.15.17-.346.3-.588.394l-.128-.292zm2.79-.945c.07 0 .122-.02.157-.06a.258.258 0 0 0 .054-.173c0-.066-.02-.16-.06-.282a3.072 3.072 0 0 0-.1-.291l.24-.14c.04.089.08.204.119.344.041.14.062.266.062.375 0 .106-.02.202-.062.289a.518.518 0 0 1-.166.204.416.416 0 0 1-.244.075h-.006v-.341h.006zm-.805.34v-.34h.009a.244.244 0 0 0 .151-.05.491.491 0 0 0 .119-.152c.044-.085.077-.214.101-.387l.25.012c-.024.13-.036.233-.036.307 0 .089.017.156.05.201.034.046.088.069.16.069h.007l.018.17-.018.17h-.006a.38.38 0 0 1-.273-.099.5.5 0 0 1-.134-.285l.056-.006a.744.744 0 0 1-.187.282.373.373 0 0 1-.261.109h-.006zm-.853 0-.018-.17.018-.17h.015a.414.414 0 0 0 .199-.05.378.378 0 0 0 .145-.127.65.65 0 0 0 .093-.177 1.8 1.8 0 0 0 .062-.207l.25.028-.033.127a.82.82 0 0 0-.03.21.25.25 0 0 0 .036.146c.026.033.065.05.119.05h.006l.017.17-.017.17h-.012a.331.331 0 0 1-.226-.08.36.36 0 0 1-.116-.217c-.13.198-.296.298-.496.298h-.012zm1.358-2.145.062.066.128.133-.19.198-.187-.198.187-.199zm.062.55.143-.15.071-.074.214.223-.071.075-.143.148a5.5 5.5 0 0 0-.214-.223zm-.552 0 .142-.15.071-.074.214.223-.07.075-.144.148a5.5 5.5 0 0 0-.213-.223zm5.249 1.255h.006c.071 0 .136-.02.193-.06.06-.04.091-.087.095-.139l.2.031a.588.588 0 0 1-.084.258.534.534 0 0 1-.175.186.433.433 0 0 1-.23.065h-.005v-.341zm.776 0 .017.17-.02.17h-.012a.462.462 0 0 1-.298-.102.606.606 0 0 1-.187-.297 5.283 5.283 0 0 1-.11-.527l.247-.068.056.316c.016.072.03.127.042.164.036.116.119.174.25.174h.014zm-1.575.34v-.34h.009a.244.244 0 0 0 .151-.05.494.494 0 0 0 .119-.152c.044-.085.077-.214.101-.387l.25.012c-.024.13-.036.233-.036.307 0 .089.017.156.05.201.034.046.088.069.16.069h.007l.018.17-.018.17h-.006a.38.38 0 0 1-.273-.099.5.5 0 0 1-.134-.285l.056-.006a.742.742 0 0 1-.187.282.373.373 0 0 1-.261.109h-.006zm-.283-.65a.673.673 0 0 0 .107.238c.042.048.107.072.197.072l-.015.34a.346.346 0 0 1-.294-.157.92.92 0 0 1-.152-.388l.157-.105zm-1.334.006c-.11.24-.166.448-.166.626 0 .188.054.33.163.428.11.097.265.146.467.146a.809.809 0 0 0 .389-.087.562.562 0 0 0 .238-.22.538.538 0 0 0 .08-.282c0-.091-.018-.21-.053-.354a5.287 5.287 0 0 0-.12-.412l.253-.127c.06.18.103.342.13.486.03.145.046.28.046.407 0 .159-.04.31-.116.452a.886.886 0 0 1-.336.344.957.957 0 0 1-.511.134.94.94 0 0 1-.482-.118.781.781 0 0 1-.309-.313.946.946 0 0 1-.104-.447c0-.124.02-.256.06-.396.04-.141.086-.267.14-.379l.231.112zm2.122-1.398.062.065.128.133-.19.199-.187-.199.187-.198zm.062.549.143-.15.071-.074.214.224-.071.074-.143.149c-.07-.077-.14-.151-.214-.223zm-.553 0 .143-.15.072-.074.213.224-.07.074-.144.149c-.069-.077-.14-.151-.214-.223zm1.527 1.153h.125c.208 0 .355-.02.44-.06.085-.04.128-.105.128-.191a1.268 1.268 0 0 0-.063-.282 2.199 2.199 0 0 0-.098-.276l.247-.14c.04.083.078.193.116.332.04.138.06.26.06.362 0 .197-.066.346-.197.447-.13.1-.327.149-.588.149h-.17v-.341zm-.112.778.142-.149.217.223c-.071.077-.144.152-.217.227l-.214-.227.072-.074zm.525 0 .143-.149.217.223c-.071.077-.144.152-.217.227l-.214-.227.071-.074zm1.134-2.641c.016.117.029.305.038.564.01.256.015.495.015.716v.136c-.002.124.003.216.015.276a.19.19 0 0 0 .08.13c.042.027.108.04.2.04h.014l.018.171-.018.17h-.015c-.21 0-.357-.056-.442-.17-.084-.116-.125-.299-.125-.549 0-.227-.006-.485-.018-.774a6.614 6.614 0 0 0-.044-.645l.282-.065zm.334 1.863h.06c.162 0 .292-.096.391-.289.1-.188.194-.332.283-.434.09-.1.19-.151.3-.151a.35.35 0 0 1 .285.13.93.93 0 0 1 .172.36c.038.14.073.239.104.297.034.058.08.087.137.087h.03l.018.17-.018.17h-.03c-.137 0-.234-.078-.291-.235a.252.252 0 0 1-.056.127.407.407 0 0 1-.108.09.27.27 0 0 1-.136.034c-.147 0-.348-.086-.603-.257a.592.592 0 0 1-.214.183.627.627 0 0 1-.27.059h-.054v-.341zm.677-.174c.107.079.207.138.3.177.096.037.17.056.226.056a.179.179 0 0 0 .045-.007.303.303 0 0 0 .041-.17.669.669 0 0 0-.032-.205.474.474 0 0 0-.092-.173.177.177 0 0 0-.137-.069c-.101 0-.218.13-.35.391zm1.055.174h.155c.154 0 .265-.02.332-.06.068-.038.102-.1.102-.182 0-.056-.021-.151-.063-.285a2.328 2.328 0 0 0-.095-.282l.247-.14c.037.08.076.193.115.338.04.143.06.266.06.369 0 .192-.06.338-.181.437-.12.097-.291.146-.517.146h-.155v-.341zm.229-1.361c.077-.085.154-.166.232-.242.077.076.154.157.231.242l-.231.242-.232-.242z" fill="#5B5C5D"/>
    <path d="M64.255 85.593h-.485a.248.248 0 0 0-.243.253v.506c0 .14.109.253.243.253h.485a.248.248 0 0 0 .243-.253v-.506a.248.248 0 0 0-.243-.253zM61.83 85.593h-.486a.248.248 0 0 0-.242.253v.506c0 .14.108.253.242.253h.485a.248.248 0 0 0 .243-.253v-.506a.248.248 0 0 0-.243-.253zM61.563 84.962v.259a.14.14 0 0 0 .032.091c.022.024.05.038.08.038s.059-.014.08-.038a.14.14 0 0 0 .033-.091v-.259h2.026v.259a.14.14 0 0 0 .032.091c.022.024.05.038.08.038s.059-.014.08-.038a.14.14 0 0 0 .033-.091v-.259a.28.28 0 0 0-.066-.182.212.212 0 0 0-.16-.076h-.9v-.258a.139.139 0 0 0-.033-.092.105.105 0 0 0-.08-.038.105.105 0 0 0-.079.038.139.139 0 0 0-.033.092v.258h-.9a.212.212 0 0 0-.16.076.28.28 0 0 0-.066.182zM63.295 83.542a.506.506 0 0 0-.495-.517.506.506 0 0 0-.495.517c0 .285.221.517.495.517a.506.506 0 0 0 .495-.517z" fill="#4F4F4F"/>
    <path d="M30.531 65.537c.325-.073.564-.169.716-.289a.542.542 0 0 0 .23-.446 1.44 1.44 0 0 0-.045-.354.844.844 0 0 0-.131-.294c-.056-.08-.121-.125-.196-.133-.044-.007-.086.009-.128.046a.44.44 0 0 0-.134.307.19.19 0 0 0 .024.102c.032.05.104.083.217.1.115.016.263.024.446.024h.29l.019.17-.018.171-.366.004c-.216 0-.39-.018-.526-.053a.414.414 0 0 1-.279-.227.586.586 0 0 1-.05-.244c0-.112.022-.224.068-.335a.804.804 0 0 1 .187-.276.374.374 0 0 1 .256-.109c.117 0 .22.054.312.162.093.105.164.241.214.409.051.165.077.331.077.499a.913.913 0 0 1-.288.682c-.19.186-.456.314-.797.384l-.098-.3zm1.251-.937h.024c.155 0 .274-.007.36-.021a.462.462 0 0 0 .184-.062.212.212 0 0 0 .08-.121.428.428 0 0 0 .012-.115 1.37 1.37 0 0 0-.015-.189l-.018-.133.247-.053c.028.139.041.306.041.502.01.06.036.108.078.143.043.033.102.05.175.05h.02l.019.17-.018.17h-.02a.412.412 0 0 1-.26-.086.52.52 0 0 1-.163-.224l.066.013a.403.403 0 0 1-.241.232c-.117.044-.3.065-.547.065h-.024v-.34zm.095.779.143-.15.217.224c-.071.076-.144.152-.217.226l-.214-.226.071-.075zm.526 0 .143-.15.217.224c-.071.076-.144.152-.217.226l-.214-.226.071-.075zm.537-.779H33c.162 0 .293-.096.392-.288.099-.188.193-.333.282-.434.091-.101.191-.152.3-.152a.35.35 0 0 1 .286.13c.073.087.13.207.172.36.037.14.072.24.104.298.033.058.079.086.136.086h.03l.018.17-.018.171h-.03c-.136 0-.233-.078-.29-.235a.253.253 0 0 1-.057.127.405.405 0 0 1-.107.09.27.27 0 0 1-.137.034c-.146 0-.348-.086-.603-.257a.592.592 0 0 1-.214.182.625.625 0 0 1-.27.06h-.054V64.6zm.678-.173c.107.078.207.137.3.176.095.038.17.056.226.056a.178.178 0 0 0 .044-.006.302.302 0 0 0 .042-.17.672.672 0 0 0-.033-.205.473.473 0 0 0-.092-.174.177.177 0 0 0-.137-.068c-.1 0-.218.13-.35.39zm2.718.173c.07 0 .122-.02.158-.058a.258.258 0 0 0 .053-.174c0-.066-.02-.16-.059-.282a3.082 3.082 0 0 0-.101-.292l.24-.14c.04.09.08.204.12.345.041.14.062.266.062.375 0 .106-.02.202-.063.288a.518.518 0 0 1-.166.205.416.416 0 0 1-.243.074h-.007v-.34h.007zm-.805.341v-.34h.01a.244.244 0 0 0 .15-.05.49.49 0 0 0 .12-.152c.043-.085.077-.214.1-.388l.25.013c-.024.13-.035.232-.035.307 0 .089.016.156.05.201.034.046.087.068.16.068h.006l.018.17-.018.171h-.005a.38.38 0 0 1-.274-.099.5.5 0 0 1-.134-.285l.057-.006a.744.744 0 0 1-.187.282.373.373 0 0 1-.262.108h-.006zm-.853 0-.017-.17.017-.17h.015a.413.413 0 0 0 .2-.05.377.377 0 0 0 .145-.127.647.647 0 0 0 .092-.177 1.8 1.8 0 0 0 .063-.208l.25.028-.034.127a.821.821 0 0 0-.03.211c0 .064.013.113.036.146.026.033.066.05.12.05h.005l.018.17-.018.17h-.012a.331.331 0 0 1-.226-.08.36.36 0 0 1-.115-.217c-.131.198-.297.297-.497.297h-.012zm2.006.605a1.53 1.53 0 0 0 .347-.186c.105-.075.188-.152.247-.233a.366.366 0 0 0 .092-.22c0-.087-.052-.343-.157-.769l.261-.105c.046.147.082.302.11.465.03.161.045.298.045.41 0 .19-.077.368-.23.536-.15.17-.346.3-.587.393l-.128-.291zm1.74 0a1.53 1.53 0 0 0 .349-.186c.104-.075.187-.152.246-.233a.366.366 0 0 0 .092-.22c0-.087-.052-.343-.157-.769l.261-.105c.046.147.082.302.11.465.03.161.045.298.045.41 0 .19-.076.368-.229.536-.15.17-.347.3-.588.393l-.128-.291zm1.28-1.067c.077.044.153.08.229.109.075.027.17.04.288.04a.67.67 0 0 0 .261-.043c.07-.029.115-.062.137-.1a.175.175 0 0 0 .009-.058c0-.09-.05-.203-.152-.341a2.139 2.139 0 0 0-.466-.45l.16-.294c.222.171.396.353.523.545.129.19.193.368.193.534 0 .078-.014.15-.041.213a.458.458 0 0 1-.226.236.797.797 0 0 1-.368.084c-.161 0-.298-.024-.41-.072a.97.97 0 0 1-.268-.158l.13-.245zm3.29-1.103c.034.372.063.655.086.85.01.105.024.183.042.235a.19.19 0 0 0 .08.108.32.32 0 0 0 .158.031h.044l.018.17-.018.171h-.044c-.165 0-.29-.051-.378-.155-.087-.105-.143-.278-.169-.517-.01-.11-.03-.292-.062-.546-.006-.064-.017-.16-.033-.288l.276-.06zm-.023 1.348a1.09 1.09 0 0 1-.36.062.668.668 0 0 1-.413-.12.395.395 0 0 1-.158-.332c0-.172.07-.316.208-.434.14-.12.325-.222.56-.307l.059.31c-.15.04-.28.094-.393.164-.11.07-.17.138-.175.202-.006.053.018.099.071.136a.406.406 0 0 0 .22.053c.097 0 .201-.02.312-.062l.069.328zm2.68-.124.018.17-.018.171h-.03c-.206-.002-.369-.045-.49-.13a.638.638 0 0 1-.246-.378l.178-.152c.02.091.075.167.166.23.093.06.211.09.354.09h.068zm-2.282 0h.256c.243 0 .471-.03.683-.09.212-.06.428-.15.648-.272.061-.035.126-.067.193-.096.067-.031.123-.053.166-.066l.01.183a1.226 1.226 0 0 1-.316-.046 2.026 2.026 0 0 1-.327-.14c-.184-.1-.34-.151-.466-.151a.355.355 0 0 0-.22.074.485.485 0 0 0-.146.17l-.19-.14a.855.855 0 0 1 .244-.318.513.513 0 0 1 .318-.109c.085 0 .165.016.24.047.078.029.186.08.324.155.13.068.232.118.31.151.077.034.163.06.258.081l.012.3a.718.718 0 0 0-.143.063c-.057.029-.12.063-.187.102-.271.151-.515.263-.73.335-.215.072-.451.108-.711.108h-.226v-.34zm2.243 0h.071c.216 0 .388-.013.514-.04a.68.68 0 0 0 .286-.115.422.422 0 0 0 .13-.195.391.391 0 0 0-.11-.297.2.2 0 0 0-.136-.053c-.067 0-.127.03-.178.093a.394.394 0 0 0-.093.217.272.272 0 0 0 .078.192c.053.06.131.108.234.146.105.035.23.052.372.052h.288l.018.17-.018.171h-.178c-.2 0-.38-.03-.541-.093a.932.932 0 0 1-.374-.25.526.526 0 0 1-.128-.422.885.885 0 0 1 .1-.307.673.673 0 0 1 .194-.223.406.406 0 0 1 .24-.084c.094 0 .177.03.25.093a.619.619 0 0 1 .176.239.749.749 0 0 1 .056.38.644.644 0 0 1-.339.506c-.194.108-.474.161-.84.161h-.072v-.34zm.553-1.457a6.59 6.59 0 0 1 .232-.241c.077.076.154.157.231.241l-.231.242-.232-.242zm.863 1.457h.045a.403.403 0 0 0 .237-.065.45.45 0 0 0 .146-.21c.038-.096.067-.224.09-.385l.246.053c-.01.064-.015.133-.015.208 0 .171.043.292.128.362.087.07.229.106.425.106.18 0 .34-.022.481-.066.14-.043.25-.1.327-.17.08-.07.119-.144.119-.22a.203.203 0 0 0-.08-.164.312.312 0 0 0-.214-.069c-.16 0-.324.074-.49.22-.165.145-.317.35-.455.617l-.202-.14c.154-.317.33-.566.529-.746.2-.182.398-.273.594-.273.107 0 .204.024.291.071a.539.539 0 0 1 .276.48c0 .16-.05.3-.148.42a.957.957 0 0 1-.413.278c-.175.066-.372.1-.592.1-.402 0-.647-.13-.736-.388a.612.612 0 0 1-.208.242.629.629 0 0 1-.34.08h-.04v-.34zm6.48 0h.006c.072 0 .136-.02.194-.058.059-.042.09-.088.095-.14l.199.031a.588.588 0 0 1-.084.257.534.534 0 0 1-.175.186.433.433 0 0 1-.229.065h-.006v-.34zm.776 0 .018.17-.021.171h-.012a.461.461 0 0 1-.297-.102.605.605 0 0 1-.187-.297 5.276 5.276 0 0 1-.11-.528l.246-.068.057.317c.016.072.03.127.041.164.036.115.12.173.25.173h.015zm-1.575.341v-.34h.009a.244.244 0 0 0 .152-.05.492.492 0 0 0 .118-.152c.044-.085.078-.214.101-.388l.25.013c-.024.13-.036.232-.036.307 0 .089.017.156.05.201.035.046.088.068.161.068h.006l.018.17-.018.171h-.006a.38.38 0 0 1-.273-.099.5.5 0 0 1-.134-.285l.057-.006a.741.741 0 0 1-.188.282.373.373 0 0 1-.261.108h-.006zm-.282-.65a.672.672 0 0 0 .107.238c.041.048.107.071.196.071l-.015.341a.346.346 0 0 1-.294-.158.92.92 0 0 1-.152-.387l.158-.106zm-1.334.006c-.111.24-.167.448-.167.626 0 .188.055.33.164.428.109.097.264.145.466.145a.807.807 0 0 0 .39-.087.563.563 0 0 0 .237-.22.54.54 0 0 0 .08-.282c0-.09-.017-.208-.053-.353a5.287 5.287 0 0 0-.119-.412l.253-.127c.059.18.103.341.13.486.03.145.045.28.045.406 0 .16-.039.31-.116.453a.886.886 0 0 1-.336.344.956.956 0 0 1-.51.133.94.94 0 0 1-.482-.118.78.78 0 0 1-.31-.313.947.947 0 0 1-.103-.446c0-.124.02-.256.06-.397.039-.14.085-.266.139-.378l.232.112zm2.121-1.398.063.065.127.133-.19.198-.187-.198.187-.199zm.063.548.142-.149.072-.074.214.223-.072.075-.142.148c-.07-.076-.141-.15-.214-.223zm-.553 0 .143-.149.07-.074.215.223-.072.075-.142.148a5.5 5.5 0 0 0-.214-.223zm1.527 1.153h.125c.208 0 .354-.02.44-.058.084-.042.127-.106.127-.193a1.268 1.268 0 0 0-.062-.282 2.199 2.199 0 0 0-.098-.276l.246-.14c.04.083.078.194.116.332.04.139.06.26.06.363 0 .197-.066.345-.197.447-.13.099-.326.148-.588.148h-.17v-.34zm-.113.779.143-.15.216.224c-.07.076-.143.152-.216.226l-.214-.226.07-.075zm.526 0 .142-.15.217.224c-.071.076-.143.152-.217.226l-.213-.226.07-.075zm1.133-2.642c.016.118.029.306.039.564.01.257.015.495.015.717v.136c-.002.124.003.216.014.276a.19.19 0 0 0 .08.13c.042.027.109.04.2.04h.015l.018.17-.018.171h-.015c-.21 0-.358-.056-.443-.17-.083-.116-.125-.299-.125-.549 0-.227-.006-.485-.018-.775a6.617 6.617 0 0 0-.044-.645l.282-.065zm.334 1.863h.06c.162 0 .293-.096.392-.288.099-.188.193-.333.282-.434.091-.101.191-.152.3-.152a.35.35 0 0 1 .285.13c.074.087.131.207.173.36.038.14.072.24.104.298.034.058.08.086.137.086h.03l.017.17-.018.171h-.03c-.136 0-.233-.078-.29-.235a.252.252 0 0 1-.057.127.405.405 0 0 1-.107.09.27.27 0 0 1-.137.034c-.146 0-.347-.086-.603-.257a.59.59 0 0 1-.214.182.625.625 0 0 1-.27.06h-.054V64.6zm.678-.173c.107.078.207.137.3.176.095.038.17.056.226.056a.179.179 0 0 0 .044-.006.303.303 0 0 0 .042-.17.669.669 0 0 0-.033-.205.475.475 0 0 0-.092-.174.177.177 0 0 0-.137-.068c-.1 0-.218.13-.35.39zm1.055.173h.154c.155 0 .265-.02.333-.058.067-.04.1-.1.1-.183 0-.056-.02-.151-.062-.286a2.334 2.334 0 0 0-.095-.282l.247-.14c.038.081.076.194.116.339.04.142.06.265.06.369 0 .192-.061.338-.182.437-.119.097-.291.145-.517.145h-.154v-.34zm.228-1.36c.078-.085.155-.166.232-.242.077.076.155.157.232.242l-.232.241-.232-.242z" fill="#5B5C5D"/>
    <path d="M63.229 62.546a.325.325 0 0 0-.235-.102H61.81a.338.338 0 0 0-.33.345v2.755c0 .19.147.345.33.345h1.981c.182 0 .33-.155.33-.345v-1.923a.345.345 0 0 0-.097-.243l-.795-.832zm.067 2.654h-.99a.17.17 0 0 1-.165-.172.17.17 0 0 1 .165-.173h.99a.17.17 0 0 1 .165.173.17.17 0 0 1-.165.172zm0-.689h-.99a.17.17 0 0 1-.165-.172.17.17 0 0 1 .165-.172h.99a.17.17 0 0 1 .165.172.17.17 0 0 1-.165.172zm-.33-1.033v-.775l.908.947h-.743a.17.17 0 0 1-.165-.172z" fill="#4F4F4F"/>
    <defs>
        <clipPath id="a">
            <path fill="#fff" transform="translate(155.725 107)" d="M0 0h52v55H0z"/>
        </clipPath>
    </defs>
</svg>
