<svg width="260" height="182" viewBox="0 0 260 182" fill="none" xmlns="http://www.w3.org/2000/svg">
    <rect width="260" height="182" rx="8" fill="#2C889C"/>
    <rect x="70" y="12" width="139.867" height="159" rx="4" fill="#fff"/>
    <rect x="167.645" y="62.142" width="11.876" height="3.959" rx="1" fill="#AED5E2"/>
    <rect x="100.35" y="63.461" width="65.315" height="1.319" rx=".66" fill="#97A3C1"/>
    <rect x="166.324" y="67.419" width="11.876" height="3.959" rx="1" fill="#5CA5FA"/>
    <rect x="100.35" y="68.738" width="63.996" height="1.319" rx=".66" fill="#97A3C1"/>
    <rect x="165.006" y="72.697" width="11.876" height="3.959" rx="1" fill="#5CA5FA"/>
    <rect x="100.35" y="74.017" width="62.676" height="1.319" rx=".66" fill="#97A3C1"/>
    <rect x="165.006" y="83.254" width="11.876" height="3.959" rx="1" fill="#5CA5FA"/>
    <rect x="100.35" y="84.573" width="62.676" height="1.319" rx=".66" fill="#97A3C1"/>
    <rect x="165.006" y="77.976" width="11.876" height="3.959" rx="1" fill="#5CA5FA"/>
    <rect x="100.35" y="79.295" width="62.676" height="1.319" rx=".66" fill="#97A3C1"/>
    <rect x="165.006" y="88.531" width="11.876" height="3.959" rx="1" fill="#5CA5FA"/>
    <rect x="100.35" y="89.851" width="62.676" height="1.319" rx=".66" fill="#97A3C1"/>
    <rect x="167.645" y="95.129" width="11.876" height="3.959" rx="1" fill="#AED5E2"/>
    <rect x="100.35" y="96.448" width="65.315" height="1.319" rx=".66" fill="#97A3C1"/>
    <rect x="167.645" y="100.407" width="11.876" height="3.959" rx="1" fill="#AED5E2"/>
    <rect x="100.35" y="101.727" width="65.315" height="1.319" rx=".66" fill="#97A3C1"/>
    <rect x="167.645" y="105.685" width="11.876" height="3.959" rx="1" fill="#AED5E2"/>
    <rect x="100.35" y="107.004" width="65.315" height="1.319" rx=".66" fill="#97A3C1"/>
    <rect x="167.645" y="110.963" width="11.876" height="3.959" rx="1" fill="#AED5E2"/>
    <rect x="100.35" y="112.282" width="65.315" height="1.319" rx=".66" fill="#97A3C1"/>
    <rect x="167.645" y="116.241" width="11.876" height="3.959" rx="1" fill="#AED5E2"/>
    <rect x="100.35" y="117.561" width="65.315" height="1.319" rx=".66" fill="#97A3C1"/>
    <rect x="167.645" y="121.519" width="11.876" height="3.959" rx="1" fill="#AED5E2"/>
    <rect x="100.35" y="122.838" width="65.315" height="1.319" rx=".66" fill="#97A3C1"/>
    <rect x="167.645" y="126.797" width="11.876" height="3.959" rx="1" fill="#AED5E2"/>
    <rect x="100.35" y="128.116" width="65.315" height="1.319" rx=".66" fill="#97A3C1"/>
    <rect x="167.645" y="132.075" width="11.876" height="3.959" rx="1" fill="#AED5E2"/>
    <rect x="100.35" y="133.395" width="65.315" height="1.319" rx=".66" fill="#97A3C1"/>
    <rect x="167.645" y="137.353" width="11.876" height="3.959" rx="1" fill="#AED5E2"/>
    <rect x="100.35" y="138.672" width="65.315" height="1.319" rx=".66" fill="#97A3C1"/>
    <rect x="167.645" y="142.631" width="11.876" height="3.959" rx="1" fill="#AED5E2"/>
    <rect x="100.35" y="143.95" width="65.315" height="1.319" rx=".66" fill="#97A3C1"/>
    <rect x="167.645" y="147.909" width="11.876" height="3.959" rx="1" fill="#AED5E2"/>
    <rect x="100.35" y="149.229" width="65.315" height="1.319" rx=".66" fill="#97A3C1"/>
    <rect x="167.645" y="153.188" width="11.876" height="3.959" rx="1" fill="#AED5E2"/>
    <rect x="100.35" y="154.507" width="65.315" height="1.319" rx=".66" fill="#97A3C1"/>
    <rect x="167.645" y="158.465" width="11.876" height="3.959" rx="1" fill="#AED5E2"/>
    <rect x="100.35" y="159.784" width="65.315" height="1.319" rx=".66" fill="#97A3C1"/>
    <rect x="75.277" y="17.278" width="129.311" height="38.266" rx="2" fill="#2E77BE"/>
    <path d="m128.706 28.45.047.414-.047.407h-.117a3.05 3.05 0 0 1-1.144-.204 3.219 3.219 0 0 1-.916-.567 7.831 7.831 0 0 1-.881-.936l.029-.546c.175-.161.393-.284.653-.369.261-.084.532-.126.812-.126.334 0 .628.057.881.17.253.114.409.274.467.48a.669.669 0 0 1 .023.176c0 .25-.122.5-.367.75a2.6 2.6 0 0 1-.946.6 4.627 4.627 0 0 0-.823.413c-.206.136-.311.286-.315.451a.498.498 0 0 0 .128.413c.09.103.218.184.386.243.171.062.369.093.595.093.253 0 .473-.024.659-.071.187-.048.339-.098.456-.149l.321.628c-.168.121-.382.22-.642.297a2.79 2.79 0 0 1-.794.116c-.323 0-.619-.062-.887-.187a1.58 1.58 0 0 1-.631-.518 1.22 1.22 0 0 1-.233-.727 1.459 1.459 0 0 1 .315-.903c.148-.18.313-.323.496-.43.187-.106.403-.206.648-.297.311-.118.545-.232.7-.342.16-.114.244-.218.251-.314-.035-.062-.111-.11-.227-.143a1.393 1.393 0 0 0-.391-.05c-.14 0-.28.017-.421.05-.136.03-.254.075-.356.138.308.352.623.615.946.787.327.17.73.254 1.208.254h.117z" fill="#fff"/>
    <path d="M128.873 28.45h.28c.385 0 .658-.03.817-.093.16-.062.239-.158.239-.286-.004-.081-.048-.236-.134-.463a5.159 5.159 0 0 0-.187-.463l.619-.32c.078.155.156.36.233.618.078.253.117.475.117.666-.004.375-.138.663-.403.865-.264.198-.655.297-1.173.297h-.408v-.82zm.286 1.29.484.462-.321.303-.163.154-.245-.231-.24-.226.485-.463zm1.021 0 .485.462-.321.303-.164.154-.245-.231-.239-.226.484-.463zm-1.517-.469-.047-.407.047-.413h.286v.82h-.286zM132.089 25.195c.039.268.07.632.093 1.09.024.456.035.878.035 1.268v.21c-.003.186.006.328.03.423.023.096.07.164.14.204.074.04.186.06.338.06h.029l.047.414-.047.407h-.029c-.428 0-.737-.115-.928-.347-.187-.231-.28-.584-.28-1.057a26.596 26.596 0 0 0-.047-1.372 11.33 11.33 0 0 0-.105-1.151l.724-.149z" fill="#fff"/>
    <path d="M132.698 28.45h.035c.296 0 .51-.029.642-.087.136-.06.214-.155.233-.287a1.09 1.09 0 0 0 .012-.138c0-.088-.01-.189-.029-.303a7.624 7.624 0 0 1-.035-.22l.607-.11c.05.272.076.575.076.909a.286.286 0 0 0 .128.165.568.568 0 0 0 .309.072h.035l.047.413-.047.407h-.035a.952.952 0 0 1-.502-.137 1.087 1.087 0 0 1-.356-.358l.158.016a.911.911 0 0 1-.467.364c-.202.077-.461.115-.776.115h-.035v-.82zm.222-2.048.542-.507.537.507-.181.17c-.116.114-.235.226-.356.336l-.542-.506z" fill="#fff"/>
    <path d="M134.647 28.45h.082a.8.8 0 0 0 .443-.11.773.773 0 0 0 .269-.352c.066-.162.118-.378.157-.65l.607.121c-.023.143-.035.27-.035.38 0 .268.076.46.228.573.156.114.422.17.799.17.339 0 .642-.034.911-.104.272-.073.482-.165.63-.275.148-.11.222-.22.222-.33 0-.089-.045-.162-.134-.221a.606.606 0 0 0-.362-.094c-.311 0-.63.127-.957.38-.327.254-.621.608-.882 1.063l-.466-.336c.299-.583.647-1.042 1.044-1.377.397-.334.796-.5 1.197-.5.222 0 .42.045.595.137a1.008 1.008 0 0 1 .572.914c0 .312-.099.586-.298.82-.198.236-.474.416-.828.54a3.622 3.622 0 0 1-1.209.188c-.715 0-1.194-.217-1.435-.65-.117.176-.261.31-.432.402a1.377 1.377 0 0 1-.636.132h-.082v-.82zM143.592 29.337a10.182 10.182 0 0 1-.006-.407c0-.184.002-.322.006-.413.51 0 .904-.03 1.185-.088.284-.063.5-.162.647-.298.148-.136.273-.334.374-.595l.607.066a1.563 1.563 0 0 0-.111.502c0 .23.128.347.385.347l.047.407-.047.413a1 1 0 0 1-.443-.099.863.863 0 0 1-.327-.286.747.747 0 0 1-.117-.413l.117.022a1.895 1.895 0 0 1-.911.66c-.365.122-.834.182-1.406.182zm-1.453-2.027c-.102.298-.152.522-.152.672 0 .1.062.19.187.27.128.081.315.145.56.193.249.048.55.072.904.072a5.1 5.1 0 0 1 .012.407c0 .184-.004.322-.012.413-.696.004-1.245-.095-1.645-.297-.397-.202-.613-.485-.648-.848a1.065 1.065 0 0 1-.006-.133c0-.157.023-.328.07-.512.047-.183.103-.347.169-.49l.561.253zm1.161-.77.484.462c-.105.103-.212.204-.321.303l-.163.154-.239-.231-.245-.226.484-.463zm1.021 0 .485.462c-.105.103-.212.204-.321.303l-.164.154-.239-.231-.245-.226.484-.463z" fill="#fff"/>
    <path d="m149.867 29.271-.047-.407.047-.413h.018c.128 0 .245-.03.35-.088.109-.063.167-.136.175-.22l.525.06a1.198 1.198 0 0 1-.175.54c-.097.161-.224.29-.379.385a.914.914 0 0 1-.496.143h-.018zm1.576-.82.041.413-.047.407h-.029a.964.964 0 0 1-.619-.209 1.298 1.298 0 0 1-.391-.595c-.035-.11-.105-.422-.21-.936l.601-.154c.043.235.078.413.105.534.031.121.059.216.082.286.031.085.08.149.146.193.07.04.165.06.286.06h.035zm-3.134.82-.047-.407.047-.413h.029c.198 0 .352-.101.461-.303.074-.14.14-.355.198-.645l.602.028a3.44 3.44 0 0 0-.065.518c0 .268.119.402.356.402h.012l.047.413-.047.407h-.012a.868.868 0 0 1-.531-.16.84.84 0 0 1-.303-.451l.146-.011c-.238.415-.531.622-.882.622h-.011zm-1.669 0-.047-.407.047-.413h.029c.12 0 .239-.024.356-.072a.667.667 0 0 0 .262-.187.927.927 0 0 0 .187-.298c.043-.11.082-.227.117-.352l.607.06a5.246 5.246 0 0 1-.064.22 1.156 1.156 0 0 0-.059.342c0 .191.082.287.245.287h.012l.047.413-.047.407h-.029a.763.763 0 0 1-.438-.126.673.673 0 0 1-.262-.336c-.125.15-.269.266-.432.347-.16.077-.331.115-.514.115h-.017z" fill="#fff"/>
    <path d="M151.381 28.45h.041c.35 0 .611-.016.782-.049.171-.037.284-.09.339-.16a.487.487 0 0 0 .081-.303c0-.106-.019-.28-.058-.523l.601-.11c.055.268.082.57.082.909a.29.29 0 0 0 .128.165.54.54 0 0 0 .304.072h.035l.047.413-.047.407h-.035a.939.939 0 0 1-.496-.137 1.062 1.062 0 0 1-.356-.358l.146.027c-.105.17-.277.29-.514.364-.233.07-.58.104-1.039.104h-.041v-.82zm0 1.284.485.463c-.105.102-.212.204-.321.303l-.164.154-.239-.232-.245-.225.484-.463zm1.022 0 .484.463c-.105.102-.212.204-.321.303l-.163.154-.24-.232-.245-.225.485-.463z" fill="#fff"/>
    <path d="M153.655 28.45h.181c.203 0 .349-.038.438-.115.093-.077.14-.197.14-.358-.004-.253-.027-.7-.07-1.339a20.22 20.22 0 0 0-.105-1.294l.73-.149c.027.217.056.663.087 1.339.035.672.053 1.138.053 1.399 0 .25-.055.477-.164.683a1.208 1.208 0 0 1-.443.48 1.212 1.212 0 0 1-.648.175h-.199v-.82z" fill="#fff"/>
    <rect x="117.502" y="33.773" width="44.863" height=".99" rx=".495" fill="#A2C1EF"/>
    <rect x="124.1" y="35.751" width="31.668" height=".99" rx=".495" fill="#A2C1EF"/>
    <path d="M174.858 40.941h-69.189c-.658 0-1.192.534-1.192 1.193v3.977c0 .659.534 1.193 1.192 1.193h69.189c.659 0 1.193-.535 1.193-1.193v-3.977c0-.659-.534-1.193-1.193-1.193z" fill="#fff"/>
    <path d="M162.68 42.135v3.976" stroke="#737374" stroke-width=".2"/>
    <path d="M170.593 45.128h-.373v-1.04h-1.159v1.04h-.373V42.84h.373v.97h1.159v-.97h.373v2.29zm1.838-.589a.297.297 0 0 0-.041-.16.33.33 0 0 0-.131-.12.859.859 0 0 0-.157-.07 2.895 2.895 0 0 0-.21-.068 2.84 2.84 0 0 1-.38-.136.85.85 0 0 1-.322-.235.518.518 0 0 1-.103-.318c0-.123.036-.231.11-.325a.711.711 0 0 1 .301-.226c.13-.053.275-.08.436-.08.159.002.306.032.438.09a.74.74 0 0 1 .316.241.605.605 0 0 1 .116.367h-.373a.37.37 0 0 0-.134-.302c-.087-.075-.209-.113-.367-.113a.572.572 0 0 0-.346.093.294.294 0 0 0-.123.252c0 .105.059.19.178.257.05.028.101.051.154.07.052.02.123.043.213.069.096.027.173.052.233.073.059.02.121.046.185.078a.78.78 0 0 1 .291.238c.064.09.096.197.096.322a.531.531 0 0 1-.106.328.691.691 0 0 1-.302.216 1.208 1.208 0 0 1-.452.077c-.163 0-.316-.027-.46-.08a.834.834 0 0 1-.349-.245.594.594 0 0 1-.134-.386h.374c0 .133.05.238.151.315.102.075.242.113.418.113.153 0 .271-.03.353-.087a.29.29 0 0 0 .127-.248z" fill="#737374"/>
    <path d="m166.595 43.853-.386.386-.385-.386a.1.1 0 0 0-.141 0 .1.1 0 0 0 0 .14l.457.457a.099.099 0 0 0 .14 0l.456-.457a.099.099 0 0 0 0-.14.1.1 0 0 0-.141 0z" fill="#151617"/>
    <path d="M139.027 44.74a.15.15 0 0 1-.15-.153c0-.043.014-.078.044-.107a.143.143 0 0 1 .106-.044c.043 0 .078.014.107.044a.14.14 0 0 1 .046.106.147.147 0 0 1-.046.11.144.144 0 0 1-.107.043zm.675 0a.15.15 0 0 1-.15-.153c0-.043.014-.078.044-.107a.143.143 0 0 1 .106-.044c.043 0 .078.014.107.044a.14.14 0 0 1 .046.106.147.147 0 0 1-.046.11.144.144 0 0 1-.107.043zm.675 0a.15.15 0 0 1-.15-.153c0-.043.014-.078.044-.107a.143.143 0 0 1 .106-.044c.043 0 .078.014.107.044a.14.14 0 0 1 .046.106.147.147 0 0 1-.046.11.144.144 0 0 1-.107.043zm2.271-.226.013.12-.013.12h-.044a1.01 1.01 0 0 1-.733-.296 3.296 3.296 0 0 1-.318-.369l.007-.159a.588.588 0 0 1 .228-.135.88.88 0 0 1 .288-.048c.115 0 .215.02.301.061.086.04.139.095.159.166.008.026.011.05.011.072 0 .087-.041.172-.124.255-.083.083-.19.153-.323.211-.135.064-.24.125-.316.184-.076.056-.113.122-.111.198a.23.23 0 0 0 .048.205.36.36 0 0 0 .153.107.584.584 0 0 0 .226.041 1.012 1.012 0 0 0 .434-.1l.085.187a.701.701 0 0 1-.233.11c-.095.027-.19.04-.286.04a.696.696 0 0 1-.316-.071.57.57 0 0 1-.227-.192.475.475 0 0 1-.082-.273.522.522 0 0 1 .109-.327.68.68 0 0 1 .183-.165c.069-.044.151-.087.244-.129.12-.054.209-.102.266-.146.057-.045.083-.09.078-.133-.014-.03-.047-.052-.098-.068a.508.508 0 0 0-.17-.026.697.697 0 0 0-.174.022.41.41 0 0 0-.144.068c.087.109.168.197.244.263a.892.892 0 0 0 .257.153.94.94 0 0 0 .334.054h.044zm.035 0h.091a.88.88 0 0 0 .323-.04c.063-.03.094-.075.094-.136a.896.896 0 0 0-.046-.199 1.474 1.474 0 0 0-.072-.194l.181-.098c.029.058.057.136.085.234a.914.914 0 0 1 .044.255c0 .138-.048.242-.144.314-.096.07-.24.104-.432.104h-.124v-.24zm.015.543.105-.104.159.157a6.818 6.818 0 0 1-.159.159l-.157-.16.052-.052zm.386 0 .105-.104.159.157-.159.159-.157-.16.052-.052zm-.451-.303-.013-.12.013-.12h.072v.24h-.072zm1.183-1.55c.012.083.021.215.029.397.007.18.01.348.01.504v.096c-.001.087.003.151.011.194a.136.136 0 0 0 .059.091.288.288 0 0 0 .146.029h.011l.013.12-.013.12h-.011c-.154 0-.262-.04-.325-.12-.061-.082-.091-.21-.091-.386 0-.16-.004-.342-.013-.546a4.518 4.518 0 0 0-.033-.453l.207-.046zm.245 1.31h.018c.106 0 .185-.01.237-.032a.176.176 0 0 0 .105-.111.26.26 0 0 0 .009-.077c0-.046-.009-.123-.026-.23l.181-.038c.02.097.03.215.03.353a.154.154 0 0 0 .059.1.215.215 0 0 0 .126.035h.016l.013.12-.013.12h-.016a.31.31 0 0 1-.189-.06.364.364 0 0 1-.12-.158l.05.009a.294.294 0 0 1-.161.161.788.788 0 0 1-.301.048h-.018v-.24zm.112-.83a4.01 4.01 0 0 1 .17-.17c.056.053.113.11.17.17l-.17.17-.17-.17zm.619.83h.032c.071 0 .13-.015.175-.045a.323.323 0 0 0 .107-.149c.027-.066.049-.157.065-.27l.181.037a.952.952 0 0 0-.011.146c0 .12.031.206.094.255.064.05.168.075.312.075.132 0 .25-.016.353-.046a.644.644 0 0 0 .24-.12c.058-.05.087-.101.087-.155a.141.141 0 0 0-.059-.116.236.236 0 0 0-.157-.048.563.563 0 0 0-.36.155c-.12.102-.232.247-.333.434l-.149-.098c.114-.224.243-.399.389-.526.146-.127.292-.191.436-.191.078 0 .149.016.213.05.064.033.114.08.149.14a.369.369 0 0 1 .054.198c0 .112-.036.21-.109.294a.708.708 0 0 1-.303.196c-.128.047-.273.07-.434.07-.295 0-.475-.09-.541-.272a.436.436 0 0 1-.152.17.48.48 0 0 1-.249.056h-.03v-.24zm2.4.665a1.16 1.16 0 0 0 .255-.13.785.785 0 0 0 .181-.164.251.251 0 0 0 .067-.155c0-.06-.038-.24-.115-.54l.192-.075c.033.104.06.213.08.328.022.113.033.209.033.287 0 .134-.056.26-.168.378-.111.119-.254.211-.432.276l-.093-.205zm.938-.75c.057.031.113.056.168.077a.663.663 0 0 0 .211.028c.079 0 .143-.01.192-.03.051-.02.085-.044.1-.07a.104.104 0 0 0 .007-.042c0-.062-.037-.142-.111-.24a1.543 1.543 0 0 0-.343-.316l.118-.207c.163.12.291.249.384.384a.666.666 0 0 1 .142.375c0 .055-.01.105-.031.15a.327.327 0 0 1-.166.166.602.602 0 0 1-.27.059.805.805 0 0 1-.301-.05.715.715 0 0 1-.196-.111l.096-.172zm1.691.744c.238-.05.413-.119.525-.203a.376.376 0 0 0 .168-.314.965.965 0 0 0-.033-.248.571.571 0 0 0-.096-.208c-.04-.056-.088-.087-.144-.093-.032-.005-.063.006-.093.032a.288.288 0 0 0-.098.216c0 .03.005.055.017.072.023.035.076.058.159.07.084.012.193.017.327.017h.214l.013.12-.013.12-.268.003c-.159 0-.287-.013-.386-.038a.3.3 0 0 1-.205-.159.395.395 0 0 1-.037-.172.586.586 0 0 1 .187-.43.28.28 0 0 1 .188-.076.3.3 0 0 1 .229.114c.068.074.12.17.157.287.038.117.056.234.056.351 0 .19-.07.35-.211.48-.14.13-.334.221-.584.27l-.072-.211zm2.59-.659.013.12-.013.12h-.022a.65.65 0 0 1-.36-.091.451.451 0 0 1-.181-.266l.131-.107a.263.263 0 0 0 .122.161.49.49 0 0 0 .26.063h.05zm-1.675 0h.188c.179 0 .346-.02.501-.063.156-.042.314-.106.476-.192.045-.024.092-.047.142-.067a.889.889 0 0 1 .122-.046l.006.129a.931.931 0 0 1-.231-.033 1.503 1.503 0 0 1-.24-.098.77.77 0 0 0-.342-.107.266.266 0 0 0-.161.052.343.343 0 0 0-.107.12l-.14-.098a.61.61 0 0 1 .179-.224.386.386 0 0 1 .233-.077c.063 0 .122.011.177.033.057.02.136.057.238.109.094.048.17.084.226.107.057.023.12.042.19.056l.009.212a.53.53 0 0 0-.105.044 2.48 2.48 0 0 0-.137.072 3.35 3.35 0 0 1-.537.235 1.68 1.68 0 0 1-.521.076h-.166v-.24zm.559.58a4.01 4.01 0 0 1 .17-.17c.056.054.113.11.17.17l-.17.17-.17-.17zm1.094-.58h.017c.114 0 .202-.005.264-.015a.34.34 0 0 0 .135-.043.149.149 0 0 0 .059-.085.28.28 0 0 0 .009-.081.965.965 0 0 0-.011-.133l-.013-.094.181-.037c.02.097.03.215.03.353a.16.16 0 0 0 .057.1.215.215 0 0 0 .129.035h.015l.013.12-.013.12h-.015a.31.31 0 0 1-.19-.06.364.364 0 0 1-.12-.158l.048.009a.29.29 0 0 1-.177.163 1.28 1.28 0 0 1-.401.046h-.017v-.24zm.098-.872.104-.104.16.157a9.595 9.595 0 0 1-.16.159l-.156-.16.052-.052zm.384 0 .104-.104.159.157a6.814 6.814 0 0 1-.159.159l-.157-.16.053-.052zm1.584.872h.004c.053 0 .1-.013.142-.04.044-.03.067-.063.07-.1l.146.023a.401.401 0 0 1-.061.18.39.39 0 0 1-.129.132.326.326 0 0 1-.168.045h-.004v-.24zm.569 0 .013.12-.015.12h-.009a.349.349 0 0 1-.218-.072.426.426 0 0 1-.137-.209 3.612 3.612 0 0 1-.081-.37l.181-.049.041.223c.012.05.022.09.031.115.026.082.087.122.183.122h.011zm-1.156.24v-.24h.007a.184.184 0 0 0 .111-.034.345.345 0 0 0 .087-.107.849.849 0 0 0 .074-.273l.184.009a1.193 1.193 0 0 0-.027.216c0 .062.013.11.038.142.024.032.064.047.117.047h.005l.013.12-.013.12h-.005a.284.284 0 0 1-.2-.07.342.342 0 0 1-.098-.2l.041-.004a.518.518 0 0 1-.137.198.28.28 0 0 1-.192.076h-.005zm-.625 0-.013-.12.013-.12h.011a.314.314 0 0 0 .252-.124.427.427 0 0 0 .068-.124c.017-.045.033-.094.046-.146l.183.02a1.353 1.353 0 0 1-.024.089.577.577 0 0 0-.022.148c0 .045.009.08.026.103.019.023.048.035.088.035h.004l.013.12-.013.12h-.009a.248.248 0 0 1-.165-.057.253.253 0 0 1-.086-.153c-.095.14-.217.21-.364.21h-.008zm1.754-.24h.188c.178 0 .345-.02.501-.063.156-.042.314-.106.475-.192a1.473 1.473 0 0 1 .264-.113l.007.129a.931.931 0 0 1-.231-.033 1.503 1.503 0 0 1-.24-.098.773.773 0 0 0-.343-.107.268.268 0 0 0-.161.052.343.343 0 0 0-.107.12l-.139-.098a.6.6 0 0 1 .179-.224.384.384 0 0 1 .233-.077c.062 0 .121.011.176.033.057.02.136.057.238.109.095.048.17.084.227.107.057.023.12.042.19.056l.008.212a.552.552 0 0 0-.104.044c-.043.02-.088.044-.138.072a3.343 3.343 0 0 1-.536.235c-.157.05-.331.076-.521.076h-.166v-.24zm.558.583c.057-.06.114-.117.17-.17.057.053.114.11.17.17l-.17.17-.17-.17zM160.187 44.443h-.123l-.044-.042c.187-.218.284-.516.231-.832a1.013 1.013 0 1 0-1.171 1.171c.316.053.613-.043.831-.23l.042.043v.123l.662.662a.164.164 0 0 0 .232-.232l-.66-.663zm-.934 0a.7.7 0 1 1-.002-1.4.7.7 0 0 1 .002 1.4z" fill="#888"/>
    <g filter="url(#a)">
        <path d="M116.007 41.339h-9.941c-.659 0-1.193.534-1.193 1.193v3.18c0 .66.534 1.194 1.193 1.194h9.941c.659 0 1.193-.534 1.193-1.193v-3.181c0-.659-.534-1.193-1.193-1.193z" fill="#013B81"/>
    </g>
    <path d="M108.316 44.963c.196-.042.34-.097.432-.166a.31.31 0 0 0 .137-.258.838.838 0 0 0-.026-.204.49.49 0 0 0-.079-.17c-.034-.047-.073-.072-.118-.077-.026-.004-.052.005-.077.027a.223.223 0 0 0-.059.08.234.234 0 0 0-.022.097c0 .025.005.045.015.06.019.028.062.047.13.056.069.01.159.015.269.015h.175l.011.098-.011.099-.22.001c-.13 0-.236-.01-.317-.03a.246.246 0 0 1-.168-.13.33.33 0 0 1-.03-.142.48.48 0 0 1 .153-.353.23.23 0 0 1 .154-.062c.071 0 .133.03.188.093.056.06.099.14.129.236a.928.928 0 0 1 .047.288.516.516 0 0 1-.174.394.956.956 0 0 1-.48.222l-.059-.174zm2.126-.54.011.098-.011.099h-.018a.532.532 0 0 1-.295-.076.365.365 0 0 1-.148-.218l.107-.088a.214.214 0 0 0 .1.133.4.4 0 0 0 .213.052h.041zm-1.374 0h.154c.147 0 .284-.018.411-.052.128-.035.258-.087.391-.158a1.109 1.109 0 0 1 .216-.093l.005.106a.766.766 0 0 1-.189-.027 1.216 1.216 0 0 1-.197-.08.635.635 0 0 0-.281-.088.218.218 0 0 0-.132.043.277.277 0 0 0-.088.098l-.115-.08a.504.504 0 0 1 .147-.185.317.317 0 0 1 .192-.062c.051 0 .099.009.144.027.047.016.112.046.196.09.077.038.139.068.186.087a.885.885 0 0 0 .155.046l.007.174a1.804 1.804 0 0 0-.198.095c-.164.087-.31.151-.44.193a1.384 1.384 0 0 1-.428.063h-.136v-.197zm.458.476c.047-.05.093-.096.14-.14a3.9 3.9 0 0 1 .139.14l-.139.14-.14-.14zm.898-.476h.014c.093 0 .166-.004.217-.013a.29.29 0 0 0 .111-.036.12.12 0 0 0 .048-.07.229.229 0 0 0 .007-.066.752.752 0 0 0-.009-.109 2.232 2.232 0 0 1-.01-.077l.148-.03c.017.08.025.177.025.29a.131.131 0 0 0 .047.082c.026.02.061.029.105.029h.013l.011.098-.011.099h-.013a.254.254 0 0 1-.155-.05.3.3 0 0 1-.099-.13l.04.008a.242.242 0 0 1-.145.134 1.068 1.068 0 0 1-.33.038h-.014v-.197zm.081-.716.085-.086.131.129a5.046 5.046 0 0 1-.131.13l-.128-.13.043-.043zm.314 0 .086-.086.131.129a5.046 5.046 0 0 1-.131.13l-.128-.13.042-.043zm1.301.716h.003a.21.21 0 0 0 .117-.034c.035-.024.055-.051.057-.08l.12.017a.339.339 0 0 1-.156.256.27.27 0 0 1-.138.038h-.003v-.197zm.467 0 .011.098-.013.099h-.007a.285.285 0 0 1-.179-.06.351.351 0 0 1-.113-.171 2.987 2.987 0 0 1-.066-.305l.148-.039.034.183c.01.041.018.073.026.094.021.067.071.1.15.1h.009zm-.949.197v-.197h.006a.15.15 0 0 0 .091-.029c.026-.02.05-.05.072-.088a.707.707 0 0 0 .06-.223l.151.007a.956.956 0 0 0-.022.177c0 .051.01.09.031.116.02.027.052.04.096.04h.004l.011.098-.011.099h-.004a.231.231 0 0 1-.164-.058.283.283 0 0 1-.081-.164l.034-.004a.42.42 0 0 1-.113.163.228.228 0 0 1-.157.063h-.004zm-.513 0-.011-.099.011-.098h.009a.258.258 0 0 0 .207-.102.363.363 0 0 0 .056-.102.937.937 0 0 0 .037-.12l.151.016-.02.073a.453.453 0 0 0-.018.122c0 .037.007.065.022.084.015.02.039.029.071.029h.004l.011.098-.011.099h-.007a.204.204 0 0 1-.136-.047.203.203 0 0 1-.07-.125c-.079.114-.179.172-.299.172h-.007zm1.44-.197h.154c.146 0 .283-.018.411-.052.128-.035.258-.087.39-.158a1.214 1.214 0 0 1 .217-.093l.005.106a.768.768 0 0 1-.19-.027 1.246 1.246 0 0 1-.196-.08.635.635 0 0 0-.281-.088.223.223 0 0 0-.133.043.283.283 0 0 0-.087.098l-.115-.08a.494.494 0 0 1 .147-.185.316.316 0 0 1 .191-.062c.051 0 .1.009.145.027.047.016.112.046.195.09.078.038.14.068.186.087a.924.924 0 0 0 .156.046l.007.174a.448.448 0 0 0-.086.036 2.608 2.608 0 0 0-.113.059 2.71 2.71 0 0 1-.44.193 1.378 1.378 0 0 1-.427.063h-.136v-.197zm.458.477a3.9 3.9 0 0 1 .139-.14c.047.045.093.092.14.14l-.14.14-.139-.14z" fill="#fff"/>
    <rect x="188" y="116" width="58" height="49.907" rx="2" fill="#BAD1ED"/>
    <rect x="189" y="115" width="58" height="49.907" rx="2" fill="#fff"/>
    <path d="M200.902 147.512h-2.134a1 1 0 0 0-1 1v2.149a1 1 0 0 0 1 1h2.134a1 1 0 0 0 1-1v-2.149a1 1 0 0 0-1-1z" fill="#21A2DE"/>
    <path d="M226.419 147.512h-21.031a.613.613 0 1 0 0 1.225h21.031a.612.612 0 0 0 0-1.225zM233.399 150.436h-28.011a.613.613 0 1 0 0 1.225h28.011a.613.613 0 0 0 0-1.225z" fill="#2F94A1"/>
    <path d="M200.902 155.363h-2.134a1 1 0 0 0-1 1v2.149a1 1 0 0 0 1 1h2.134a1 1 0 0 0 1-1v-2.149a1 1 0 0 0-1-1z" fill="#004464"/>
    <path d="M221.071 155.363h-15.683a.614.614 0 0 0 0 1.225h15.683a.612.612 0 1 0 0-1.225zM233.399 158.287h-28.011a.613.613 0 0 0 0 1.225h28.011a.612.612 0 1 0 0-1.225z" fill="#2F94A1"/>
    <path d="M202.707 123.881h-1.674a1 1 0 0 0-1 1v16.729a1 1 0 0 0 1 1h1.674a1 1 0 0 0 1-1v-16.729a1 1 0 0 0-1-1zM209.017 126.99h-1.673a1 1 0 0 0-1 1v13.617a1 1 0 0 0 1 1h1.673a1 1 0 0 0 1-1V127.99a1 1 0 0 0-1-1zM215.328 132.668h-1.674a1 1 0 0 0-1 1v7.938a1 1 0 0 0 1 1h1.674a1 1 0 0 0 1-1v-7.938a1 1 0 0 0-1-1zM221.642 126.72h-1.673a1 1 0 0 0-1 1v13.886a1 1 0 0 0 1 1h1.673a1 1 0 0 0 1-1V127.72a1 1 0 0 0-1-1zM227.953 129.328h-1.674a1 1 0 0 0-1 1v11.279a1 1 0 0 0 1 1h1.674a1 1 0 0 0 1-1v-11.279a1 1 0 0 0-1-1zM234.263 121.27h-1.673a1 1 0 0 0-1 1v19.337a1 1 0 0 0 1 1h1.673a1 1 0 0 0 1-1V122.27a1 1 0 0 0-1-1z" fill="#21A2DE"/>
    <path fill-rule="evenodd" clip-rule="evenodd" d="M198.161 143.562a.21.21 0 0 1-.151-.063.212.212 0 0 1-.063-.151v-2.399h-.553a.3.3 0 1 1 0-.6h.553v-2.826h-.553a.3.3 0 1 1 0-.6h.553v-2.825h-.553a.3.3 0 1 1 0-.6h.553v-2.826h-.553a.3.3 0 1 1 0-.6h.553v-2.825h-.553a.3.3 0 0 1 0-.6h.553v-2.826h-.553a.3.3 0 1 1 0-.6h.553v-2.611a.214.214 0 1 1 .427 0v2.611h.553a.3.3 0 1 1 0 .6h-.553v2.826h.553a.3.3 0 1 1 0 .6h-.553v2.825h.553a.3.3 0 0 1 0 .6h-.553v2.826h.553a.3.3 0 1 1 0 .6h-.553v2.825h.553a.3.3 0 0 1 0 .6h-.553v2.826h.553a.3.3 0 1 1 0 .6h-.553v2.184h40.321a.214.214 0 0 1 0 .429h-40.534z" fill="#738AA5"/>
    <rect x="14" y="72" width="74.182" height="48" rx="2" fill="#BAD1ED"/>
    <rect x="13" y="71" width="74.182" height="48" rx="2" fill="#fff"/>
    <path d="M50.812 91.522a13.84 13.84 0 0 1-2.276 7.581 13.727 13.727 0 0 1-6.05 5.07l-5.341-12.65h13.667z" fill="#21A2DE"/>
    <path d="m35.394 90.58 5.342 12.65h-.027a13.589 13.589 0 0 1-11.661-.486 13.714 13.714 0 0 1-6.694-8.066 13.932 13.932 0 0 1 0-8.165 13.742 13.742 0 0 1 3.378-5.617 13.638 13.638 0 0 1 5.586-3.397c2.644-.82 5.472-.82 8.115 0a13.664 13.664 0 0 1 5.602 3.393 13.767 13.767 0 0 1 3.394 5.62c.403 1.324.61 2.7.612 4.083l-13.647-.016z" fill="#21A2DE"/>
    <path d="m35.394 90.58 5.342 12.65h-.026a13.589 13.589 0 0 1-11.661-.486 13.714 13.714 0 0 1-6.695-8.066 13.816 13.816 0 0 1 1.445-11.392 13.708 13.708 0 0 1 4.084-4.206 13.594 13.594 0 0 1 11.291-1.726 13.646 13.646 0 0 1 5.142 2.796 13.738 13.738 0 0 1 3.51 4.7 13.807 13.807 0 0 1 1.236 5.745l-13.668-.016z" fill="#80AAB4"/>
    <path d="m35.398 90.584-8.9 10.414a13.735 13.735 0 0 1-3.876-5.571 13.802 13.802 0 0 1 1.83-13.044 13.673 13.673 0 0 1 5.254-4.277 13.592 13.592 0 0 1 13.07.92 13.702 13.702 0 0 1 4.61 4.972 13.79 13.79 0 0 1 1.675 6.586H35.398z" fill="#004464"/>
    <path d="M57.877 108.781h-10.32L34.775 95.934l.185-.19 12.703 12.772h10.214v.265z" fill="#263238"/>
    <path d="M35.588 95.118h-1.44v1.448h1.44v-1.448zM57.878 98.84H46.245l-5.52-5.552.19-.185 5.441 5.471h11.522v.265z" fill="#263238"/>
    <path d="M41.538 92.472h-1.434v1.447h1.434v-1.447zM57.877 89.005H40.29v.265h17.586v-.265z" fill="#263238"/>
    <path d="M40.819 88.41h-1.44v1.448h1.44V88.41z" fill="#263238"/>
    <path d="M74.055 87.685H62.471a.596.596 0 1 0 0 1.192h11.584a.596.596 0 1 0 0-1.192zM77.857 90.182H62.471a.597.597 0 0 0 0 1.193h15.386a.596.596 0 1 0 0-1.193zM70.143 92.679H62.47a.597.597 0 0 0 0 1.193h7.672a.597.597 0 0 0 0-1.193z" fill="#2F94A1"/>
    <path d="M58.316 87.685h-.884a1 1 0 0 0-1 1v.9a1 1 0 0 0 1 1h.884a1 1 0 0 0 1-1v-.9a1 1 0 0 0-1-1z" fill="#004464"/>
    <path d="M75.61 97.339H62.472a.596.596 0 1 0 0 1.193h13.14a.596.596 0 1 0 0-1.193zM73.227 99.837H62.471a.596.596 0 1 0 0 1.193h10.756a.597.597 0 0 0 0-1.193zM77.857 102.334H62.471a.596.596 0 1 0 0 1.193h15.386a.597.597 0 0 0 0-1.193z" fill="#2F94A1"/>
    <path d="M58.316 97.339h-.884a1 1 0 0 0-1 1v.9a1 1 0 0 0 1 1h.884a1 1 0 0 0 1-1v-.9a1 1 0 0 0-1-1z" fill="#21A2DE"/>
    <path d="M75.61 106.994H62.472a.597.597 0 0 0 0 1.193h13.14a.596.596 0 1 0 0-1.193zM73.227 109.492H62.471a.597.597 0 0 0 0 1.193h10.756a.596.596 0 1 0 0-1.193zM77.857 111.989H62.471a.597.597 0 0 0 0 1.193h15.386a.596.596 0 1 0 0-1.193z" fill="#2F94A1"/>
    <path d="M58.316 106.994h-.884a1 1 0 0 0-1 1v.9a1 1 0 0 0 1 1h.884a1 1 0 0 0 1-1v-.9a1 1 0 0 0-1-1z" fill="#80AAB4"/>
    <defs>
        <filter id="a" x="80.873" y="21.339" width="60.326" height="53.567" filterUnits="userSpaceOnUse" color-interpolation-filters="sRGB">
            <feFlood flood-opacity="0" result="BackgroundImageFix"/>
            <feColorMatrix in="SourceAlpha" values="0 0 0 0 0 0 0 0 0 0 0 0 0 0 0 0 0 0 127 0" result="hardAlpha"/>
            <feOffset dy="4"/>
            <feGaussianBlur stdDeviation="12"/>
            <feColorMatrix values="0 0 0 0 0.00392157 0 0 0 0 0.231373 0 0 0 0 0.505882 0 0 0 0.12 0"/>
            <feBlend in2="BackgroundImageFix" result="effect1_dropShadow_14787_8964"/>
            <feBlend in="SourceGraphic" in2="effect1_dropShadow_14787_8964" result="shape"/>
        </filter>
    </defs>
</svg>
