<svg width="260" height="182" viewBox="0 0 260 182" fill="none" xmlns="http://www.w3.org/2000/svg">
    <rect width="260" height="182" rx="8" fill="#8A91D7"/>
    <rect x="45.5" y="22.164" width="169" height="140.259" rx="4" fill="#EBF3FF"/>
    <rect x="50.445" y="27.11" width="159.107" height="35.35" rx="2" fill="#fff"/>
    <rect x="55.393" y="34.53" width="22.259" height="8.244" rx="1" fill="#013B81"/>
    <rect x="159.416" y="46.221" width="19.485" height="6.295" rx=".85" fill="#fff" stroke="#0074FF" stroke-width=".3"/>
    <circle cx="194.715" cy="40.301" r="9.643" fill="#fff" stroke="#F5F5F5" stroke-width=".5"/>
    <path d="M163.357 50.03c-.002-.03-.002-.075-.002-.134 0-.061 0-.107.002-.136.152 0 .282-.01.391-.03.109-.021.192-.046.25-.074.057-.028.089-.054.094-.077a2.45 2.45 0 0 0-.144-.492l.205-.111c.035.08.068.18.099.297.032.116.047.214.047.291 0 .098-.04.182-.121.252a.818.818 0 0 1-.334.159 1.966 1.966 0 0 1-.487.054zm-.64-.874a.97.97 0 0 0-.07.304c0 .018.001.033.003.042.013.081.081.145.203.19.123.045.299.068.526.068a2.473 2.473 0 0 1 0 .27c-.29 0-.517-.04-.68-.122-.163-.084-.252-.205-.267-.364a.932.932 0 0 1 .025-.272c.018-.077.04-.147.067-.21l.193.094zm.306-.126.119-.119.181.178c-.06.061-.12.122-.181.181l-.178-.18.059-.06zm.436 0 .118-.119.181.178c-.06.061-.12.122-.181.181l-.178-.18.06-.06zM164.786 48.246c.014.094.024.244.033.45.008.205.012.395.012.572v.108c-.002.1.002.173.012.22a.15.15 0 0 0 .067.104c.035.022.09.032.166.032h.012l.015.136-.015.136h-.012c-.175 0-.298-.045-.369-.136-.069-.092-.104-.238-.104-.437 0-.182-.004-.388-.014-.619a5.466 5.466 0 0 0-.037-.514l.234-.052z" fill="#0074FF"/>
    <path d="M165.712 49.735c.152 0 .287-.017.404-.052a.724.724 0 0 0 .274-.136c.066-.056.099-.115.099-.178a.159.159 0 0 0-.064-.129.261.261 0 0 0-.173-.052c-.134 0-.273.063-.418.188a1.865 1.865 0 0 0-.399.517l-.168-.114c.137-.267.29-.475.46-.625.17-.15.337-.225.5-.225a.5.5 0 0 1 .24.057.427.427 0 0 1 .232.385.496.496 0 0 1-.126.334.815.815 0 0 1-.346.223 1.472 1.472 0 0 1-.492.077h-.671v-.273l.648.003zm-.262-.223a2.82 2.82 0 0 0 .008-.222c0-.165-.009-.351-.025-.56a4.438 4.438 0 0 0-.045-.43l.235-.054c.014.08.026.2.038.359.013.158.019.315.019.472 0 .145-.005.273-.017.383l-.213.052zM167.187 48.246c.013.094.024.244.032.45.009.205.013.395.013.572v.108c-.002.1.002.173.012.22a.15.15 0 0 0 .067.104c.034.022.09.032.166.032h.012l.015.136-.015.136h-.012c-.175 0-.298-.045-.369-.136-.069-.092-.104-.238-.104-.437 0-.182-.005-.388-.015-.619a4.851 4.851 0 0 0-.037-.514l.235-.052z" fill="#0074FF"/>
    <path d="M167.465 49.733h.02c.12 0 .21-.013.27-.038a.198.198 0 0 0 .118-.126.29.29 0 0 0 .01-.086c0-.053-.01-.14-.03-.262l.206-.042a2 2 0 0 1 .034.4.18.18 0 0 0 .067.114c.038.026.086.04.144.04h.017l.015.136-.015.136h-.017a.356.356 0 0 1-.216-.07.42.42 0 0 1-.136-.178l.057.01a.33.33 0 0 1-.183.183.885.885 0 0 1-.341.054h-.02v-.271zm-.039.684c.064-.067.128-.131.193-.192.064.06.128.125.192.192l-.192.193-.193-.193z" fill="#0074FF"/>
    <path d="M168.296 49.733h.104c.173 0 .295-.016.366-.047.071-.033.106-.085.106-.154a.94.94 0 0 0-.052-.225 1.793 1.793 0 0 0-.081-.22l.205-.111c.033.066.065.154.096.264.033.11.05.207.05.29 0 .156-.054.275-.163.356-.109.079-.272.118-.49.118h-.141v-.271zm.116-1.133.119-.119.181.178c-.06.061-.12.121-.181.18l-.178-.18.059-.06zm.436 0 .118-.119.181.178c-.06.061-.12.121-.181.18l-.178-.18.06-.06zM169.006 50.487c.108-.04.204-.09.29-.149a.876.876 0 0 0 .205-.185c.051-.063.077-.121.077-.176 0-.069-.044-.273-.131-.613l.217-.084a2.747 2.747 0 0 1 .129.697.615.615 0 0 1-.191.428c-.125.135-.288.24-.489.314l-.107-.232zM170.078 49.99c.013-.1.02-.272.02-.52 0-.226-.006-.457-.017-.695a4.88 4.88 0 0 0-.035-.477l.235-.052c.012.082.023.245.035.487.011.243.017.477.017.703a4.9 4.9 0 0 1-.025.58l-.23-.026zM172.289 50.03l-.018-.137.013-.136h.03c.252 0 .444-.024.576-.074.133-.051.212-.13.235-.237 0-.088-.013-.176-.037-.265a.642.642 0 0 0-.107-.225c-.046-.061-.099-.092-.16-.092a.175.175 0 0 0-.107.038.274.274 0 0 0-.076.096.252.252 0 0 0-.028.114c0 .031.008.06.023.084.024.038.07.067.136.089a.84.84 0 0 0 .403.015v.25a1.073 1.073 0 0 1-.22.022.803.803 0 0 1-.305-.055.379.379 0 0 1-.19-.168.447.447 0 0 1-.047-.205c0-.086.018-.17.054-.25a.532.532 0 0 1 .154-.2.34.34 0 0 1 .217-.08c.093 0 .175.037.248.11.072.07.128.164.168.279a1.083 1.083 0 0 1 .057.428.547.547 0 0 1-.272.44c-.168.105-.411.16-.727.16l-.02-.002zm-.651-.874a.992.992 0 0 0-.069.304c0 .018.001.033.003.042.013.081.08.145.202.19.124.045.3.068.527.068.003.066.005.115.005.148 0 .028-.002.069-.005.121-.29.002-.517-.039-.68-.12-.163-.085-.252-.206-.267-.364a.936.936 0 0 1 .025-.272c.018-.078.04-.148.066-.21l.193.093zm.98-.907c.064-.068.128-.132.193-.193.064.06.128.125.193.193l-.193.192-.193-.192zM173.595 49.99c.013-.1.02-.272.02-.52 0-.226-.006-.457-.018-.695a4.992 4.992 0 0 0-.034-.477l.235-.052a14.217 14.217 0 0 1 .052 1.19c0 .257-.009.45-.025.58l-.23-.026zM174.765 50.005a.306.306 0 0 1-.25-.112.957.957 0 0 1-.151-.321l.166-.102a.502.502 0 0 0 .086.206.198.198 0 0 0 .149.056h.017l.015.136-.015.136h-.017zm-.945.482c.107-.04.204-.09.289-.149a.883.883 0 0 0 .206-.185.285.285 0 0 0 .076-.176c0-.069-.043-.273-.131-.613l.218-.084c.038.117.068.24.091.37.025.13.037.238.037.327a.613.613 0 0 1-.19.428c-.125.135-.289.24-.49.314l-.106-.232z" fill="#0074FF"/>
    <path d="M174.757 49.733h.069c.31 0 .495-.05.556-.149a.147.147 0 0 0 .008-.047c0-.076-.046-.17-.136-.284a2.285 2.285 0 0 0-.381-.361l.027-.248.91-.388.074.218-.754.326c.122.102.231.221.327.356a.66.66 0 0 1 .146.384.428.428 0 0 1-.273.38c-.13.056-.298.084-.504.084h-.069v-.271zm.17-1.38.792-.334.037.103-.841.357.012-.127z" fill="#0074FF"/>
    <path d="m61.02 37.778.451 1.069c.042.1.09.17.142.21a.371.371 0 0 0 .218.057h.036l.02.18-.02.182h-.036a.584.584 0 0 1-.363-.112.92.92 0 0 1-.257-.36l-.465-1.08.274-.146zm-.838 1.207c.086.048.167.088.244.119.08.028.175.043.287.043.22 0 .417-.073.59-.218l.162.22c-.057.06-.112.112-.165.156a.862.862 0 0 1-.224.125.857.857 0 0 1-.333.06c-.156 0-.29-.025-.403-.073a1.552 1.552 0 0 1-.303-.172l.145-.26z" fill="#fff"/>
    <path d="M61.835 39.114h.026c.172 0 .305-.008.4-.023a.526.526 0 0 0 .203-.066.225.225 0 0 0 .09-.13.435.435 0 0 0 .013-.121c0-.06-.006-.127-.017-.201a12.292 12.292 0 0 1-.02-.142l.274-.056c.031.147.046.325.046.534a.24.24 0 0 0 .086.152.324.324 0 0 0 .195.053h.023l.02.18-.02.182h-.023a.472.472 0 0 1-.287-.092.556.556 0 0 1-.182-.237l.073.013a.44.44 0 0 1-.267.247c-.13.046-.332.07-.607.07h-.026v-.363zm-.122.82.158-.158.24.238c-.078.081-.159.161-.24.24l-.238-.24.08-.08zm.583 0 .159-.158.24.238c-.079.081-.159.161-.24.24l-.238-.24.08-.08z" fill="#fff"/>
    <path d="M63.12 39.114h.026c.16 0 .28-.017.36-.05a.266.266 0 0 0 .158-.168.405.405 0 0 0 .013-.115c0-.07-.013-.187-.04-.35l.274-.056c.03.147.046.325.046.534.011.064.04.114.09.152.05.035.114.053.19.053h.023l.02.18-.02.182h-.023a.471.471 0 0 1-.286-.092.556.556 0 0 1-.182-.237l.076.013a.443.443 0 0 1-.244.244 1.188 1.188 0 0 1-.455.072h-.026v-.362zm.168-1.257c.086-.09.171-.176.257-.257.086.081.171.167.257.257l-.257.257-.257-.257z" fill="#fff"/>
    <path d="m65.731 37.382-1.006.436c.16.136.31.3.446.494s.204.376.204.548a.476.476 0 0 1-.023.151c-.05.156-.166.273-.346.35-.178.077-.407.115-.686.115h-.093v-.362h.093c.209 0 .377-.018.504-.053.13-.038.212-.09.248-.158a.283.283 0 0 0 .006-.053c0-.11-.06-.244-.181-.403-.121-.16-.293-.33-.515-.507l.04-.33 1.21-.521.099.293zM68.534 37.132c.028.266.061.945.099 2.038.01.36-.07.64-.244.84-.172.203-.419.304-.742.304-.172 0-.328-.035-.469-.106a.814.814 0 0 1-.336-.296.804.804 0 0 1-.122-.442c0-.121.021-.256.063-.406.044-.152.097-.287.158-.406l.254.12a2.33 2.33 0 0 0-.132.339c-.03.103-.046.205-.046.306 0 .159.057.286.171.383a.676.676 0 0 0 .459.148c.483 0 .715-.256.696-.768a50.324 50.324 0 0 0-.06-1.194c-.02-.35-.04-.613-.06-.791l.31-.07zM69.29 37.132c.017.125.031.325.042.6.011.273.017.526.017.762v.145c-.003.132.003.23.016.293.013.064.043.11.09.139.045.028.119.043.22.043h.017l.02.18-.02.182h-.017c-.233 0-.397-.06-.491-.181-.093-.123-.139-.318-.139-.584 0-.242-.006-.516-.02-.824a6.739 6.739 0 0 0-.049-.686l.313-.07z" fill="#fff"/>
    <path d="M69.66 39.114h.026c.16 0 .28-.017.36-.05a.266.266 0 0 0 .158-.168.409.409 0 0 0 .013-.115c0-.07-.013-.187-.04-.35l.274-.056c.031.147.047.325.047.534.01.064.04.114.089.152.05.035.114.053.19.053h.024l.02.18-.02.182h-.023a.472.472 0 0 1-.287-.092.555.555 0 0 1-.181-.237l.075.013a.443.443 0 0 1-.244.244 1.188 1.188 0 0 1-.455.072h-.026v-.362zm-.053.913c.086-.09.172-.176.257-.257.086.081.172.167.258.257l-.258.257-.257-.257z" fill="#fff"/>
    <path d="M70.768 39.114h.171c.172 0 .295-.021.37-.063a.208.208 0 0 0 .112-.195c0-.059-.023-.16-.07-.303a2.427 2.427 0 0 0-.105-.3l.274-.148c.041.085.084.205.128.359.044.152.066.282.066.392 0 .205-.067.36-.201.465-.132.104-.323.155-.574.155h-.171v-.362zm.254-1.448a7.17 7.17 0 0 1 .257-.257c.086.081.171.167.257.257l-.257.257-.257-.257zM72.088 38.985c.085.046.17.085.254.115.083.029.19.043.32.043a.77.77 0 0 0 .29-.046c.076-.03.127-.066.151-.105a.179.179 0 0 0 .01-.063c0-.095-.056-.215-.168-.363a2.333 2.333 0 0 0-.518-.478l.178-.313a2.5 2.5 0 0 1 .58.58c.144.202.215.391.215.567 0 .084-.015.16-.046.228a.496.496 0 0 1-.25.25.916.916 0 0 1-.41.09c-.178 0-.33-.026-.455-.076a1.087 1.087 0 0 1-.297-.169l.146-.26z" fill="#fff"/>
    <rect x="50.445" y="65.803" width="159.107" height="46.166" rx="2" fill="#fff"/>
    <rect x="93.314" y="115.267" width="116.239" height="42.044" rx="2" fill="#fff"/>
    <rect x="187.295" y="72.398" width="15.663" height="1.649" rx=".824" fill="#63AFD8"/>
    <rect x="187.295" y="80.643" width="15.663" height="1.649" rx=".824" fill="#63AFD8"/>
    <rect x="187.295" y="88.886" width="15.663" height="1.649" rx=".824" fill="#63AFD8"/>
    <rect x="187.295" y="97.13" width="15.663" height="1.649" rx=".824" fill="#63AFD8"/>
    <rect x="176.578" y="75.695" width="26.381" height="1.649" rx=".824" fill="#D9E6ED"/>
    <rect x="176.578" y="83.939" width="26.381" height="1.649" rx=".824" fill="#D9E6ED"/>
    <rect x="176.578" y="92.184" width="26.381" height="1.649" rx=".824" fill="#D9E6ED"/>
    <rect x="176.578" y="100.428" width="26.381" height="1.649" rx=".824" fill="#D9E6ED"/>
    <rect x="139.48" y="72.398" width="16.488" height="1.649" rx=".824" fill="#63AFD8"/>
    <rect x="113.924" y="72.398" width="16.488" height="1.649" rx=".824" fill="#63AFD8"/>
    <rect x="139.48" y="80.643" width="16.488" height="1.649" rx=".824" fill="#63AFD8"/>
    <rect x="113.924" y="80.643" width="16.488" height="1.649" rx=".824" fill="#63AFD8"/>
    <rect x="139.48" y="88.887" width="16.488" height="1.649" rx=".824" fill="#63AFD8"/>
    <rect x="113.924" y="88.887" width="16.488" height="1.649" rx=".824" fill="#63AFD8"/>
    <rect x="139.48" y="97.13" width="16.488" height="1.649" rx=".824" fill="#63AFD8"/>
    <rect x="113.924" y="97.13" width="16.488" height="1.649" rx=".824" fill="#63AFD8"/>
    <rect x="137.832" y="75.696" width="18.137" height="1.649" rx=".824" fill="#D9E6ED"/>
    <rect x="112.275" y="75.696" width="18.137" height="1.649" rx=".824" fill="#D9E6ED"/>
    <rect x="137.832" y="83.939" width="18.137" height="1.649" rx=".824" fill="#D9E6ED"/>
    <rect x="112.275" y="83.939" width="18.137" height="1.649" rx=".824" fill="#D9E6ED"/>
    <rect x="137.832" y="92.184" width="18.137" height="1.649" rx=".824" fill="#D9E6ED"/>
    <rect x="112.275" y="92.184" width="18.137" height="1.649" rx=".824" fill="#D9E6ED"/>
    <rect x="137.832" y="100.428" width="18.137" height="1.649" rx=".824" fill="#D9E6ED"/>
    <rect x="112.275" y="100.428" width="18.137" height="1.649" rx=".824" fill="#D9E6ED"/>
    <rect x="50.445" y="115.267" width="39.571" height="42.044" rx="2" fill="#fff"/>
    <rect x="55.393" y="120.213" width="29.678" height="1.649" rx=".824" fill="#63AFD8"/>
    <rect x="55.393" y="128.457" width="29.678" height="1.649" rx=".824" fill="#63AFD8"/>
    <rect x="55.393" y="136.701" width="29.678" height="1.649" rx=".824" fill="#63AFD8"/>
    <rect x="55.393" y="144.944" width="29.678" height="1.649" rx=".824" fill="#63AFD8"/>
    <rect x="62.813" y="123.511" width="22.259" height="1.649" rx=".824" fill="#D9E6ED"/>
    <rect x="62.813" y="131.755" width="22.259" height="1.649" rx=".824" fill="#D9E6ED"/>
    <rect x="62.813" y="139.998" width="22.259" height="1.649" rx=".824" fill="#D9E6ED"/>
    <rect x="62.813" y="148.242" width="22.259" height="1.649" rx=".824" fill="#D9E6ED"/>
    <rect x="77.652" y="72.398" width="15.663" height="1.649" rx=".824" fill="#63AFD8"/>
    <rect x="55.395" y="75.696" width="37.922" height="1.649" rx=".824" fill="#D9E6ED"/>
    <rect x="77.652" y="80.643" width="15.663" height="1.649" rx=".824" fill="#63AFD8"/>
    <rect x="55.395" y="83.94" width="37.922" height="1.649" rx=".824" fill="#D9E6ED"/>
    <rect x="77.652" y="88.886" width="15.663" height="1.649" rx=".824" fill="#63AFD8"/>
    <rect x="55.395" y="92.184" width="37.922" height="1.649" rx=".824" fill="#D9E6ED"/>
    <rect x="77.652" y="97.13" width="15.663" height="1.649" rx=".824" fill="#63AFD8"/>
    <rect x="55.395" y="100.428" width="37.922" height="1.649" rx=".824" fill="#D9E6ED"/>
    <rect x="123.818" y="120.213" width="79.141" height="2.473" rx="1.237" fill="#63AFD7"/>
    <rect x="99.086" y="130.105" width="103.873" height="1.649" rx=".824" fill="#D9E6ED"/>
    <rect x="99.086" y="138.35" width="103.873" height="1.649" rx=".824" fill="#D9E6ED"/>
    <rect x="151.021" y="146.594" width="51.937" height="1.649" rx=".824" fill="#D9E6ED"/>
    <rect x="99.086" y="125.983" width="103.873" height="1.649" rx=".824" fill="#D9E6ED"/>
    <rect x="99.086" y="134.228" width="103.873" height="1.649" rx=".824" fill="#D9E6ED"/>
    <rect x="99.086" y="142.472" width="103.873" height="1.649" rx=".824" fill="#D9E6ED"/>
    <path d="M194.715 40.3a2.25 2.25 0 1 0 .001-4.498 2.25 2.25 0 0 0-.001 4.499zm0 1.126c-1.502 0-4.5.753-4.5 2.25v.562c0 .31.253.563.562.563h7.875c.31 0 .563-.253.563-.563v-.562c0-1.497-2.998-2.25-4.5-2.25z" fill="#6868FA"/>
    <path d="M161.822 43.94c-.441 0-.83-.085-1.167-.256a1.869 1.869 0 0 1-.79-.719c-.185-.313-.277-.68-.277-1.102a3.316 3.316 0 0 1 .171-1.046c.099-.294.208-.565.327-.811l.683.313a7.464 7.464 0 0 0-.285.754 2.204 2.204 0 0 0-.099.654c0 .39.123.679.37.868.246.195.602.292 1.067.292.332 0 .621-.06.868-.178.251-.114.441-.265.569-.455a.993.993 0 0 0 .199-.59c0-.176-.052-.43-.156-.762-.1-.337-.188-.59-.264-.761l.754-.405c.28.645.42 1.287.42 1.927 0 .413-.099.793-.299 1.139a2.18 2.18 0 0 1-.846.825 2.443 2.443 0 0 1-1.245.313zm3.649-1.92c-.502 0-.948-.124-1.337-.37-.384-.252-.695-.672-.932-1.26l.676-.448c.109.284.218.495.327.633a.932.932 0 0 0 .406.299c.161.057.386.092.675.106.057.005.14.008.249.008.375 0 .709-.048 1.004-.143.298-.095.528-.213.69-.355.166-.148.249-.287.249-.42 0-.114-.057-.209-.171-.285-.109-.08-.259-.12-.448-.12-.394 0-.79.175-1.188.526-.399.346-.738.78-1.018 1.302l-.562-.434c.327-.688.733-1.26 1.217-1.715.484-.455.979-.685 1.487-.69.289 0 .545.069.768.206.228.133.398.318.512.555.119.233.166.491.142.776-.033.374-.17.7-.412.974-.242.276-.565.487-.968.634-.403.147-.858.22-1.366.22zm1.672-1.146a19.865 19.865 0 0 1 1.395-.071l.057.533-.057.527c-.479 0-.866-.017-1.16-.05-.294-.033-.522-.116-.683-.25l.448-.69z" fill="#013B81"/>
    <path d="m173.915 40.803.057.533-.057.527h-.071c-1.038-.005-1.681-.401-1.928-1.188l.541-.491a.675.675 0 0 0 .178.291c.099.095.228.173.384.235.161.062.344.093.548.093h.348zm-5.456 0h.533c.56 0 1.084-.062 1.573-.185a7.04 7.04 0 0 0 1.572-.626c.394-.204.68-.335.861-.392l.028.747a3.677 3.677 0 0 1-.726-.156 5.736 5.736 0 0 1-.818-.356c-.417-.213-.78-.32-1.088-.32-.18 0-.342.05-.484.15a1.11 1.11 0 0 0-.32.327l-.598-.434c.361-.707.837-1.06 1.43-1.06.2 0 .392.033.577.1a7.9 7.9 0 0 1 .811.37c.275.141.507.25.697.326.194.076.408.138.64.185l.036.954c-.128.038-.38.159-.754.362a2.08 2.08 0 0 1-.079.05l-.064.029c-.469.246-.877.438-1.223.576-.347.137-.7.242-1.06.313-.361.066-.769.1-1.224.1h-.32v-1.06zm1.387-3.458.662-.654.654.654-.22.22c-.143.148-.287.292-.434.435l-.662-.655z" fill="#013B81"/>
    <path d="M177.834 40.803a.44.44 0 0 0 .327-.121.422.422 0 0 0 .121-.313c0-.128-.049-.332-.149-.612a7.378 7.378 0 0 0-.242-.64l.726-.399c.09.185.185.45.284.797.1.341.15.64.15.896 0 .266-.052.51-.157.733a1.35 1.35 0 0 1-.434.526 1.072 1.072 0 0 1-.626.193h-.021v-1.06h.021zm-1.928 1.06-.057-.527.057-.533h.036c.242 0 .429-.13.562-.392.09-.18.171-.457.242-.832l.732.035a4.708 4.708 0 0 0-.078.67c0 .346.145.519.434.519h.014l.057.533-.057.527h-.014c-.256 0-.472-.07-.647-.207a1.089 1.089 0 0 1-.37-.583l.178-.014c-.29.536-.648.804-1.075.804h-.014zm-2.034 0-.057-.527.057-.533h.035c.147 0 .292-.031.434-.093a.826.826 0 0 0 .32-.242c.1-.114.176-.242.228-.384.052-.142.1-.294.142-.455l.74.078a8.607 8.607 0 0 1-.078.285 1.554 1.554 0 0 0-.071.44c0 .247.099.37.298.37h.015l.057.534-.057.527h-.036a.887.887 0 0 1-.533-.164.868.868 0 0 1-.321-.434 1.613 1.613 0 0 1-.526.448c-.194.1-.403.15-.626.15h-.021zm3.208-5.2.505.497-.505.498-.164-.163c-.113-.11-.225-.221-.334-.335l.498-.498zm.669.775c.194.184.384.374.569.569l-.569.569a16.595 16.595 0 0 0-.569-.57l.569-.568zm-1.338 0c.195.184.385.374.569.569l-.569.569a15.74 15.74 0 0 0-.569-.57l.569-.568z" fill="#013B81"/>
    <rect x="200.863" y="103.918" width="48.169" height="11.717" rx="2" fill="#83B9F9"/>
    <rect x="201.695" y="103.088" width="48.169" height="11.717" rx="2" fill="#fff"/>
    <rect x="206.9" y="108.295" width="29.943" height="1.302" rx=".651" fill="#D9E6ED"/>
    <g clip-path="url(#a)">
        <path d="m246.358 110.658-.827-.094a.648.648 0 0 0-.534.185l-.599.599a4.896 4.896 0 0 1-2.144-2.145l.602-.602a.647.647 0 0 0 .185-.534l-.094-.82a.651.651 0 0 0-.648-.576h-.563a.646.646 0 0 0-.651.674 5.53 5.53 0 0 0 5.172 5.171.646.646 0 0 0 .674-.651v-.563a.645.645 0 0 0-.573-.644z" fill="#0074FF"/>
    </g>
    <rect x="20.318" y="53.103" width="46.203" height="11.239" rx="2" fill="#83B9F9"/>
    <rect x="19.521" y="52.307" width="46.203" height="11.239" rx="2" fill="#fff"/>
    <rect x="24.516" y="57.302" width="28.721" height="1.249" rx=".624" fill="#D9E6ED"/>
    <g clip-path="url(#b)">
        <path d="M62.604 55.429h-4.995a.624.624 0 0 0-.622.624l-.003 3.746c0 .344.281.625.625.625h4.995a.626.626 0 0 0 .624-.625v-3.746a.626.626 0 0 0-.624-.624zm-.125 1.326-2.207 1.38a.316.316 0 0 1-.331 0l-2.207-1.38a.265.265 0 1 1 .281-.45l2.091 1.309 2.092-1.308a.265.265 0 1 1 .28.45z" fill="#0074FF"/>
    </g>
    <rect x="198.371" y="53.327" width="46.203" height="11.239" rx="2" fill="#83B9F9"/>
    <rect x="199.168" y="52.53" width="46.203" height="11.239" rx="2" fill="#fff"/>
    <rect x="204.162" y="57.525" width="28.721" height="1.249" rx=".624" fill="#D9E6ED"/>
    <path d="M240.986 57.764v-2.309a.772.772 0 0 0-.77-.77h-2.309a.772.772 0 0 0-.77.77v.77h-.77a.772.772 0 0 0-.769.77v3.848c0 .424.346.77.769.77h1.925a.387.387 0 0 0 .385-.385v-1.154h.769v1.154c0 .212.173.385.385.385h1.924c.424 0 .77-.346.77-.77v-2.309a.772.772 0 0 0-.77-.77h-.769zm-3.849 3.08h-.77v-.77h.77v.77zm0-1.54h-.77v-.77h.77v.77zm0-1.54h-.77v-.77h.77v.77zm1.54 1.54h-.77v-.77h.77v.77zm0-1.54h-.77v-.77h.77v.77zm0-1.539h-.77v-.77h.77v.77zm1.539 3.079h-.77v-.77h.77v.77zm0-1.54h-.77v-.77h.77v.77zm0-1.539h-.77v-.77h.77v.77zm1.539 4.618h-.769v-.77h.769v.77zm0-1.54h-.769v-.769h.769v.77z" fill="#0074FF"/>
    <defs>
        <clipPath id="a">
            <path fill="#fff" transform="translate(240.1 105.691)" d="M0 0h7.811v7.811H0z"/>
        </clipPath>
        <clipPath id="b">
            <path fill="#fff" transform="translate(56.36 54.18)" d="M0 0h7.492v7.492H0z"/>
        </clipPath>
    </defs>
</svg>
