<svg width="764" height="628" viewBox="0 0 764 628" fill="none" xmlns="http://www.w3.org/2000/svg">
<g filter="url(#filter0_f_1820_36349)">
<path d="M275.272 314.68C201.756 286.802 197.065 346.051 137.632 343.33C100.59 341.634 53.4995 230.536 99.6116 235.489C157.252 241.681 228.456 141.087 318.693 89.2793C408.93 37.4712 495.052 242.418 501.445 310.409C507.839 378.4 348.789 342.559 275.272 314.68Z" fill="url(#paint0_linear_1820_36349)" fill-opacity="0.15"/>
<path d="M280.842 543.974C132.852 527.982 88.3566 461.472 84.6078 430.216C213.225 438.701 331.649 332.587 395.471 285.162C459.294 237.737 408.073 37.6518 567.629 102.681C727.184 167.711 678.073 363.227 669.591 424.957C661.109 486.688 465.83 563.963 280.842 543.974Z" fill="url(#paint1_linear_1820_36349)" fill-opacity="0.1"/>
</g>
<defs>
<filter id="filter0_f_1820_36349" x="0.484375" y="0.97876" width="762.847" height="626.211" filterUnits="userSpaceOnUse" color-interpolation-filters="sRGB">
<feFlood flood-opacity="0" result="BackgroundImageFix"/>
<feBlend mode="normal" in="SourceGraphic" in2="BackgroundImageFix" result="shape"/>
<feGaussianBlur stdDeviation="40" result="effect1_foregroundBlur_1820_36349"/>
</filter>
<linearGradient id="paint0_linear_1820_36349" x1="683.332" y1="547.19" x2="21.3546" y2="437.355" gradientUnits="userSpaceOnUse">
<stop stop-color="#00D5F0"/>
<stop offset="1" stop-color="#00BED6"/>
</linearGradient>
<linearGradient id="paint1_linear_1820_36349" x1="79.4695" y1="531.162" x2="166.902" y2="12.6808" gradientUnits="userSpaceOnUse">
<stop stop-color="#0065F2"/>
<stop offset="1" stop-color="#7298FF"/>
</linearGradient>
</defs>
</svg>
