<svg width="24" height="24" viewBox="0 0 24 24" fill="none" xmlns="http://www.w3.org/2000/svg">
<path d="M16 2H5C3.9 2 3 3 3 4.22222V19.7778C3 21 3.9 22 5 22H19C20.1 22 21 21 21 19.7778V7.55556L16 2ZM8 6.44444H11C11.55 6.44444 12 6.94444 12 7.55556C12 8.16667 11.55 8.66667 11 8.66667H8C7.45 8.66667 7 8.16667 7 7.55556C7 6.94444 7.45 6.44444 8 6.44444ZM16 17.5556H8C7.45 17.5556 7 17.0556 7 16.4444C7 15.8333 7.45 15.3333 8 15.3333H16C16.55 15.3333 17 15.8333 17 16.4444C17 17.0556 16.55 17.5556 16 17.5556ZM16 13.1111H8C7.45 13.1111 7 12.6111 7 12C7 11.3889 7.45 10.8889 8 10.8889H16C16.55 10.8889 17 11.3889 17 12C17 12.6111 16.55 13.1111 16 13.1111ZM15 7.55556V4.22222L19 8.66667H16C15.45 8.66667 15 8.16667 15 7.55556Z" fill="#013B81"/>
</svg>
