<svg width="24" height="24" viewBox="0 0 24 24" fill="none" xmlns="http://www.w3.org/2000/svg">
<path d="M2.90909 6.54545C3.40909 6.54545 3.81818 6.13636 3.81818 5.63636V4.72727C3.81818 4.22727 4.22727 3.81818 4.72727 3.81818H5.63636C6.13636 3.81818 6.54545 3.40909 6.54545 2.90909C6.54545 2.40909 6.13636 2 5.63636 2H4.72727C3.21818 2 2 3.21818 2 4.72727V5.63636C2 6.13636 2.40909 6.54545 2.90909 6.54545Z" fill="#013B81"/>
<path d="M5.63636 20.1819H4.72727C4.22727 20.1819 3.81818 19.7728 3.81818 19.2728V18.3637C3.81818 17.8637 3.40909 17.4546 2.90909 17.4546C2.40909 17.4546 2 17.8637 2 18.3637V19.2728C2 20.7819 3.21818 22 4.72727 22H5.63636C6.13636 22 6.54545 21.591 6.54545 21.091C6.54545 20.591 6.13636 20.1819 5.63636 20.1819Z" fill="#013B81"/>
<path d="M19.273 2H18.3639C17.8639 2 17.4548 2.40909 17.4548 2.90909C17.4548 3.40909 17.8639 3.81818 18.3639 3.81818H19.273C19.773 3.81818 20.182 4.22727 20.182 4.72727V5.63636C20.182 6.13636 20.5911 6.54545 21.0911 6.54545C21.5911 6.54545 22.0002 6.13636 22.0002 5.63636V4.72727C22.0002 3.21818 20.782 2 19.273 2Z" fill="#013B81"/>
<path d="M21.0911 17.4546C20.5911 17.4546 20.182 17.8637 20.182 18.3637V19.2728C20.182 19.7728 19.773 20.1819 19.273 20.1819H18.3639C17.8639 20.1819 17.4548 20.591 17.4548 21.091C17.4548 21.591 17.8639 22 18.3639 22H19.273C20.782 22 22.0002 20.7819 22.0002 19.2728V18.3637C22.0002 17.8637 21.5911 17.4546 21.0911 17.4546Z" fill="#013B81"/>
<path d="M18.3638 14.6091V9.39095C18.3638 8.73641 18.0184 8.13641 17.4547 7.81823L12.9093 5.20004C12.6274 5.03641 12.3184 4.95459 12.0002 4.95459C11.682 4.95459 11.3729 5.03641 11.0911 5.20004L6.54563 7.80914C5.98199 8.13641 5.63654 8.73641 5.63654 9.39095V14.6091C5.63654 15.2637 5.98199 15.8637 6.54563 16.1819L11.0911 18.8C11.3729 18.9637 11.682 19.0455 12.0002 19.0455C12.3184 19.0455 12.6274 18.9637 12.9093 18.8L17.4547 16.1819C18.0184 15.8637 18.3638 15.2637 18.3638 14.6091ZM11.0911 16.7L7.45472 14.6091V10.4L11.0911 12.5182V16.7ZM12.0002 10.9455L8.40017 8.8455L12.0002 6.77277L15.6002 8.8455L12.0002 10.9455ZM16.5456 14.6091L12.9093 16.7V12.5182L16.5456 10.4V14.6091Z" fill="#013B81"/>
</svg>
