<svg width="24" height="24" viewBox="0 0 24 24" fill="none" xmlns="http://www.w3.org/2000/svg">
<path d="M24 11.9966C23.9999 9.70362 23.3426 7.45864 22.1057 5.52759C20.8689 3.59653 19.1044 2.06029 17.0213 1.1008C14.9381 0.141304 12.6236 -0.201244 10.3517 0.113721C8.07984 0.428685 5.94584 1.38797 4.20245 2.87796C2.45906 4.36796 1.17931 6.32624 0.514748 8.5209C-0.14981 10.7156 -0.171331 13.0546 0.452734 15.2612C1.0768 17.4677 2.3203 19.4492 4.03598 20.971C5.75167 22.4928 7.86765 23.4911 10.1333 23.8478V15.4713H7.08089V11.9966H10.128V9.35198C10.128 6.34653 11.92 4.68473 14.6613 4.68473C15.5613 4.69732 16.4591 4.77573 17.3476 4.91934V7.87147H15.8347C14.3431 7.87147 13.8791 8.79745 13.8791 9.74477V11.9966H17.2071L16.6738 15.4642H13.8756V23.8478C16.6979 23.4006 19.2682 21.9614 21.124 19.789C22.9799 17.6166 23.9997 14.8535 24 11.9966Z" fill="#4676ED"/>
<path d="M16.6675 15.4702L17.2008 12.0026H13.8728V9.74363C13.8728 8.79632 14.3368 7.87033 15.8283 7.87033H17.3412V4.9182C16.4528 4.77459 15.5549 4.69618 14.655 4.68359C11.9137 4.68359 10.1217 6.34539 10.1217 9.35084V11.9955H7.07812V15.4702H10.1252V23.8538C11.3681 24.0481 12.6335 24.0481 13.8763 23.8538V15.4702H16.6675Z" fill="white"/>
</svg>
