<svg width="24" height="24" viewBox="0 0 24 24" fill="none" xmlns="http://www.w3.org/2000/svg">
<path d="M12 24C18.6274 24 24 18.6274 24 12C24 5.37258 18.6274 0 12 0C5.37258 0 0 5.37258 0 12C0 18.6274 5.37258 24 12 24Z" fill="#4467AD"/>
<path d="M12.9261 10.3642C13.1234 10.142 13.2817 9.91624 13.4879 9.72602C13.7804 9.44082 14.1268 9.21663 14.5067 9.06648C14.8867 8.91632 15.2927 8.84319 15.7012 8.85135C16.172 8.84323 16.6416 8.90007 17.0968 9.02024C18.1385 9.32246 18.743 10.0389 19.0328 11.0558C19.2248 11.8178 19.3116 12.6026 19.2905 13.3882C19.2905 15.0469 19.2905 16.7038 19.2905 18.366C19.2905 18.5207 19.2479 18.5616 19.095 18.5598C18.2393 18.5527 17.3854 18.5527 16.5332 18.5598C16.3821 18.5598 16.3554 18.5153 16.3554 18.382C16.3554 16.8045 16.3554 15.227 16.3554 13.6496C16.3643 13.2533 16.3176 12.8578 16.2168 12.4745C16.0123 11.7633 15.5057 11.4078 14.7643 11.4451C13.7528 11.4985 13.2248 12.0016 13.0968 13.0309C13.0654 13.2762 13.05 13.5232 13.0506 13.7705C13.0506 15.3047 13.0506 16.8389 13.0506 18.3731C13.0506 18.526 13.0114 18.5705 12.855 18.5687C11.9963 18.5687 11.1359 18.5687 10.2754 18.5687C10.1368 18.5687 10.0977 18.5331 10.0977 18.3909C10.0977 15.3545 10.0977 12.3174 10.0977 9.27979C10.0977 9.12868 10.1457 9.10201 10.2879 9.10201C11.1057 9.10912 11.9228 9.10912 12.7394 9.10201C12.8888 9.10201 12.9279 9.15001 12.9172 9.29224C12.9208 9.63713 12.9261 9.99979 12.9261 10.3642Z" fill="#FEFEFE"/>
<path d="M8.24976 13.8347C8.24976 15.3369 8.24976 16.8391 8.24976 18.3414C8.24976 18.5085 8.20887 18.56 8.03643 18.5583C7.18131 18.5476 6.32799 18.5583 5.47465 18.5583C5.33776 18.5583 5.29688 18.5245 5.29688 18.3805C5.29688 15.3369 5.29688 12.2945 5.29688 9.25336C5.29688 9.12714 5.32887 9.07558 5.46221 9.08447C6.32798 9.08447 7.19376 9.08447 8.05954 9.08447C8.22665 9.08447 8.24798 9.14669 8.24798 9.29069C8.2468 10.8054 8.24739 12.32 8.24976 13.8347Z" fill="#FEFEFE"/>
<path d="M8.48398 6.071C8.48574 6.40872 8.38715 6.73936 8.20073 7.02097C8.01431 7.30258 7.74845 7.52248 7.43687 7.65278C7.1253 7.78307 6.78205 7.8179 6.45066 7.75284C6.11926 7.68777 5.81464 7.52575 5.57546 7.28732C5.33628 7.04889 5.1733 6.74479 5.1072 6.4136C5.04109 6.08241 5.07484 5.73904 5.20416 5.42706C5.33348 5.11508 5.55255 4.84853 5.83358 4.66122C6.1146 4.47392 6.44492 4.3743 6.78264 4.375C7.23223 4.37732 7.66281 4.55659 7.98122 4.87399C8.29963 5.1914 8.48024 5.62142 8.48398 6.071Z" fill="#FEFEFE"/>
</svg>
