<svg width="24" height="24" viewBox="0 0 24 24" fill="none" xmlns="http://www.w3.org/2000/svg">
<path d="M12 24C18.6274 24 24 18.6274 24 12C24 5.37258 18.6274 0 12 0C5.37258 0 0 5.37258 0 12C0 18.6274 5.37258 24 12 24Z" fill="url(#paint0_linear_19689_152113)"/>
<path fill-rule="evenodd" clip-rule="evenodd" d="M17.7723 6.37522C16.4674 5.06703 14.7313 4.27807 12.8877 4.15546C11.0441 4.03285 9.21882 4.58496 7.75224 5.70883C6.28565 6.83271 5.27788 8.45162 4.91685 10.2637C4.55582 12.0758 4.86618 13.9573 5.79005 15.5574L4.71094 19.5006L8.74472 18.4428C9.86165 19.0498 11.1126 19.3682 12.3838 19.369C13.8893 19.3691 15.361 18.9228 16.6129 18.0866C17.8647 17.2504 18.8405 16.0617 19.4169 14.6709C19.9933 13.2802 20.1443 11.7497 19.8509 10.2731C19.5576 8.79651 18.833 7.44004 17.7687 6.37522H17.7723ZM12.3856 18.0837C11.2522 18.081 10.1403 17.774 9.16605 17.1948L8.93494 17.0579L6.54028 17.6854L7.16961 15.3583L7.02739 15.1201C6.28204 13.9317 5.95277 12.5293 6.09133 11.1334C6.22989 9.73742 6.82844 8.4271 7.79287 7.40842C8.7573 6.38973 10.0329 5.72044 11.4192 5.50575C12.8055 5.29107 14.2238 5.54317 15.4512 6.22242C16.6785 6.90167 17.6454 7.96956 18.1997 9.2582C18.754 10.5468 18.8644 11.9832 18.5134 13.3413C18.1624 14.6995 17.37 15.9026 16.2608 16.7613C15.1516 17.6201 13.7884 18.0859 12.3856 18.0854V18.0837ZM15.8576 13.3423C15.6674 13.2463 14.7323 12.7877 14.5581 12.7237C14.3838 12.6597 14.2558 12.6294 14.1296 12.8197C14.0034 13.0099 13.6389 13.4383 13.5269 13.5646C13.4149 13.6908 13.3047 13.7068 13.1145 13.6125C12.5543 13.3882 12.0371 13.0689 11.5856 12.6685C11.1667 12.2848 10.8072 11.8408 10.5189 11.3512C10.4069 11.161 10.5065 11.0579 10.6025 10.9637C10.6985 10.8694 10.7927 10.7414 10.8869 10.6294C10.966 10.5361 11.0312 10.4319 11.0807 10.3201C11.1057 10.2674 11.1173 10.2093 11.1145 10.151C11.1117 10.0927 11.0946 10.036 11.0647 9.98588C11.0167 9.89166 10.6363 8.95477 10.478 8.57433C10.3198 8.19388 10.1669 8.25433 10.0514 8.249C9.93583 8.24366 9.81317 8.249 9.68517 8.249C9.58887 8.25173 9.49417 8.27429 9.40699 8.31528C9.31981 8.35627 9.24203 8.4148 9.17849 8.48722C8.96371 8.69094 8.79367 8.93714 8.6792 9.21015C8.56473 9.48316 8.50834 9.777 8.51361 10.073C8.51361 11.0081 9.19449 11.913 9.29049 12.0392C9.3865 12.1654 10.6309 14.0872 12.5385 14.9103C12.8928 15.0629 13.2547 15.197 13.6229 15.3121C14.0111 15.4298 14.4214 15.4554 14.8212 15.3868C15.1874 15.3317 15.9465 14.9263 16.1047 14.4837C16.2629 14.041 16.2647 13.6588 16.2167 13.5788C16.1687 13.4988 16.0478 13.4419 15.8576 13.3423Z" fill="white"/>
<defs>
<linearGradient id="paint0_linear_19689_152113" x1="12" y1="22.256" x2="12" y2="-1.744" gradientUnits="userSpaceOnUse">
<stop stop-color="#78CD51"/>
<stop offset="1" stop-color="#A0FC84"/>
</linearGradient>
</defs>
</svg>
