<svg width="16" height="16" viewBox="0 0 16 16" fill="none" xmlns="http://www.w3.org/2000/svg">
    <path d="M10.999 8c.92 0 1.66-.747 1.66-1.667s-.74-1.666-1.66-1.666a1.667 1.667 0 0 0 0 3.333zm-5-.667a1.992 1.992 0 0 0 1.993-2 1.997 1.997 0 1 0-3.993 0c0 1.107.893 2 2 2zm5 2c-1.22 0-3.667.614-3.667 1.834V12c0 .367.3.667.667.667h6c.366 0 .666-.3.666-.667v-.833c0-1.22-2.446-1.833-3.666-1.833zm-5-.666c-1.554 0-4.667.78-4.667 2.333v1c0 .367.3.667.667.667h4v-1.5c0-.567.22-1.56 1.58-2.313a8.189 8.189 0 0 0-1.58-.187z" fill="#003468"/>
    <path d="m1.117 12.303 13.186-9.42" stroke="#fff" stroke-width="2" stroke-linecap="round"/>
    <path d="m1.117 12.303 13.186-9.42" stroke="#003468" stroke-linecap="round"/>
</svg>
