<svg width="16" height="16" viewBox="0 0 16 16" fill="none" xmlns="http://www.w3.org/2000/svg">
    <path d="M13.876 10.939h-1.959a.98.98 0 0 0-.98.98v1.959c0 .54.44.98.98.98h1.96a.98.98 0 0 0 .979-.98v-1.96a.98.98 0 0 0-.98-.979zM4.08 10.939H2.12a.98.98 0 0 0-.98.98v1.959c0 .54.44.98.98.98h1.96a.98.98 0 0 0 .979-.98v-1.96a.98.98 0 0 0-.98-.979zM3 8.5v1c0 .133.048.26.133.354.085.093.201.146.322.146.12 0 .236-.053.321-.146a.526.526 0 0 0 .133-.354v-1h8.182v1c0 .133.048.26.133.354.085.093.2.146.322.146.12 0 .236-.053.32-.146A.527.527 0 0 0 13 9.5v-1c0-.265-.096-.52-.266-.707a.87.87 0 0 0-.643-.293H8.455v-1a.526.526 0 0 0-.134-.354A.435.435 0 0 0 8 6a.435.435 0 0 0-.321.146.526.526 0 0 0-.134.354v1H3.91a.87.87 0 0 0-.643.293C3.096 7.98 3 8.235 3 8.5z" fill="#003468"/>
    <rect x="6" y="1" width="4" height="4" rx="2" fill="#003468"/>
</svg>
