<svg width="16" height="16" viewBox="0 0 16 16" fill="none" xmlns="http://www.w3.org/2000/svg">
    <path d="M8.982 1.143h-1.96a.98.98 0 0 0-.979.98v1.959c0 .54.439.98.98.98h1.959a.98.98 0 0 0 .98-.98v-1.96a.98.98 0 0 0-.98-.979z" fill="#003468"/>
    <path d="M11.921 11.439h1.96a.48.48 0 0 1 .479.48v1.959a.48.48 0 0 1-.48.48h-1.959a.48.48 0 0 1-.48-.48v-1.96a.48.48 0 0 1 .48-.479zM2.124 11.439h1.96a.48.48 0 0 1 .479.48v1.959a.48.48 0 0 1-.48.48H2.124a.48.48 0 0 1-.48-.48v-1.96a.48.48 0 0 1 .48-.479z" stroke="#003468"/>
    <path d="M2.613 8.49v.979a.49.49 0 0 0 .98 0v-.98h8.816v.98a.49.49 0 0 0 .98 0v-.98a.98.98 0 0 0-.98-.98H8.49V6.53a.49.49 0 1 0-.98 0v.98H3.593a.98.98 0 0 0-.98.98z" fill="#003468"/>
</svg>
