<svg width="16" height="16" viewBox="0 0 16 16" fill="none" xmlns="http://www.w3.org/2000/svg">
    <path d="M7.023 1.643h1.959a.48.48 0 0 1 .48.48v1.959a.48.48 0 0 1-.48.48h-1.96a.48.48 0 0 1-.479-.48v-1.96a.48.48 0 0 1 .48-.479z" stroke="#003468"/>
    <path d="M13.88 10.939h-1.959a.98.98 0 0 0-.98.98v1.959c0 .54.439.98.98.98h1.96a.98.98 0 0 0 .979-.98v-1.96a.98.98 0 0 0-.98-.979zM4.083 10.939H2.124a.98.98 0 0 0-.98.98v1.959c0 .54.44.98.98.98h1.96a.98.98 0 0 0 .979-.98v-1.96a.98.98 0 0 0-.98-.979zM2.613 8.49v.979a.49.49 0 0 0 .98 0v-.98h8.816v.98a.49.49 0 0 0 .98 0v-.98a.98.98 0 0 0-.98-.98H8.49V6.53a.49.49 0 1 0-.98 0v.98H3.593a.98.98 0 0 0-.98.98z" fill="#003468"/>
</svg>
