<svg width="14" height="14" viewBox="0 0 14 14" fill="none" xmlns="http://www.w3.org/2000/svg">
<path d="M6.9987 1.91732C7.96536 1.91732 8.7487 2.70065 8.7487 3.66732C8.7487 4.63398 7.96536 5.41732 6.9987 5.41732C6.03203 5.41732 5.2487 4.63398 5.2487 3.66732C5.2487 2.70065 6.03203 1.91732 6.9987 1.91732ZM6.9987 9.41732C9.4737 9.41732 12.082 10.634 12.082 11.1673V12.084H1.91536V11.1673C1.91536 10.634 4.5237 9.41732 6.9987 9.41732ZM6.9987 0.333984C5.15703 0.333984 3.66536 1.82565 3.66536 3.66732C3.66536 5.50898 5.15703 7.00065 6.9987 7.00065C8.84036 7.00065 10.332 5.50898 10.332 3.66732C10.332 1.82565 8.84036 0.333984 6.9987 0.333984ZM6.9987 7.83398C4.7737 7.83398 0.332031 8.95065 0.332031 11.1673V13.6673H13.6654V11.1673C13.6654 8.95065 9.2237 7.83398 6.9987 7.83398Z" fill="#5B5C5D"/>
</svg>
