<svg width="20" height="18" viewBox="0 0 20 18" fill="none" xmlns="http://www.w3.org/2000/svg">
<path d="M19.1654 8.99167L17.132 6.66667L17.4154 3.59167L14.407 2.90833L12.832 0.25L9.9987 1.46667L7.16536 0.25L5.59036 2.90833L2.58203 3.58333L2.86536 6.66667L0.832031 8.99167L2.86536 11.3167L2.58203 14.4L5.59036 15.0833L7.16536 17.75L9.9987 16.525L12.832 17.7417L14.407 15.0833L17.4154 14.4L17.132 11.325L19.1654 8.99167ZM15.8737 10.225L15.407 10.7667L15.4737 11.475L15.6237 13.1L14.0404 13.4583L13.3404 13.6167L12.9737 14.2333L12.1487 15.6333L10.6654 14.9917L9.9987 14.7083L9.34036 14.9917L7.85703 15.6333L7.03203 14.2417L6.66536 13.625L5.96536 13.4667L4.38203 13.1083L4.53203 11.475L4.5987 10.7667L4.13203 10.225L3.05703 9L4.13203 7.76667L4.5987 7.225L4.5237 6.50833L4.3737 4.89167L5.95703 4.53333L6.65703 4.375L7.0237 3.75833L7.8487 2.35833L9.33203 3L9.9987 3.28333L10.657 3L12.1404 2.35833L12.9654 3.75833L13.332 4.375L14.032 4.53333L15.6154 4.89167L15.4654 6.51667L15.3987 7.225L15.8654 7.76667L16.9404 8.99167L15.8737 10.225Z" fill="white"/>
<path d="M8.40885 10.4586L6.47552 8.51693L5.24219 9.75859L8.40885 12.9336L14.5255 6.80026L13.2922 5.55859L8.40885 10.4586Z" fill="white"/>
</svg>
