<svg width="20" height="20" viewBox="0 0 20 20" fill="none" xmlns="http://www.w3.org/2000/svg">
<path d="M9.9987 18.333C10.9154 18.333 11.6654 17.583 11.6654 16.6663H8.33203C8.33203 17.583 9.08203 18.333 9.9987 18.333ZM14.9987 13.333V9.16634C14.9987 6.60801 13.6404 4.46634 11.2487 3.89967V3.33301C11.2487 2.64134 10.6904 2.08301 9.9987 2.08301C9.30703 2.08301 8.7487 2.64134 8.7487 3.33301V3.89967C6.36536 4.46634 4.9987 6.59967 4.9987 9.16634V13.333L3.33203 14.9997V15.833H16.6654V14.9997L14.9987 13.333ZM13.332 14.1663H6.66536V9.16634C6.66536 7.09967 7.9237 5.41634 9.9987 5.41634C12.0737 5.41634 13.332 7.09967 13.332 9.16634V14.1663Z" fill="white"/>
</svg>
