<svg width="14" height="17" viewBox="0 0 14 17" fill="none" xmlns="http://www.w3.org/2000/svg">
<path d="M6.9987 16.334C7.91536 16.334 8.66536 15.584 8.66536 14.6673H5.33203C5.33203 15.584 6.08203 16.334 6.9987 16.334ZM11.9987 11.334V7.16732C11.9987 4.60898 10.6404 2.46732 8.2487 1.90065V1.33398C8.2487 0.642318 7.69036 0.0839844 6.9987 0.0839844C6.30703 0.0839844 5.7487 0.642318 5.7487 1.33398V1.90065C3.36536 2.46732 1.9987 4.60065 1.9987 7.16732V11.334L0.332031 13.0007V13.834H13.6654V13.0007L11.9987 11.334ZM10.332 12.1673H3.66536V7.16732C3.66536 5.10065 4.9237 3.41732 6.9987 3.41732C9.0737 3.41732 10.332 5.10065 10.332 7.16732V12.1673Z" fill="#5B5C5D"/>
</svg>
