<svg width="314" height="279" viewBox="0 0 314 279" fill="none" xmlns="http://www.w3.org/2000/svg">
<g clip-path="url(#clip0_1389_70804)">
<path d="M160.469 0H99.4481C92.7587 0 87.3359 5.42305 87.3359 12.1127V78.7101C87.3359 85.3998 92.7587 90.8228 99.4481 90.8228H160.469C167.158 90.8228 172.581 85.3998 172.581 78.7101V12.1127C172.581 5.42305 167.158 0 160.469 0Z" fill="white"/>
<path opacity="0.39" d="M160.469 0H99.4481C92.7587 0 87.3359 5.42305 87.3359 12.1127V78.7101C87.3359 85.3998 92.7587 90.8228 99.4481 90.8228H160.469C167.158 90.8228 172.581 85.3998 172.581 78.7101V12.1127C172.581 5.42305 167.158 0 160.469 0Z" fill="#F7A9B4"/>
<path d="M153.116 0.0234375H84.6519C80.8714 0.0234327 77.2454 1.52375 74.5701 4.19496C71.8948 6.86617 70.3888 10.4899 70.3828 14.2706V19.6934H139.624V14.2706C139.625 10.6208 141.023 7.10979 143.533 4.45977C146.043 1.80974 149.472 0.222134 153.116 0.0234375Z" fill="#F7A9B4"/>
<path d="M150.506 30.108H103.657C103.457 30.108 103.265 30.0286 103.123 29.8871C102.982 29.7457 102.902 29.5539 102.902 29.3538C102.902 29.1538 102.982 28.962 103.123 28.8205C103.265 28.6791 103.457 28.5996 103.657 28.5996H150.506C150.706 28.5996 150.898 28.6791 151.04 28.8205C151.181 28.962 151.26 29.1538 151.26 29.3538C151.26 29.5539 151.181 29.7457 151.04 29.8871C150.898 30.0286 150.706 30.108 150.506 30.108Z" fill="white"/>
<path d="M150.506 49.8307H103.657C103.457 49.8307 103.265 49.7512 103.123 49.6098C102.982 49.4684 102.902 49.2765 102.902 49.0765C102.902 48.8765 102.982 48.6846 103.123 48.5432C103.265 48.4017 103.457 48.3223 103.657 48.3223H150.506C150.706 48.3223 150.898 48.4017 151.04 48.5432C151.181 48.6846 151.26 48.8765 151.26 49.0765C151.26 49.2765 151.181 49.4684 151.04 49.6098C150.898 49.7512 150.706 49.8307 150.506 49.8307Z" fill="white"/>
<path d="M128.544 39.9811H103.657C103.457 39.9811 103.265 39.9016 103.123 39.7602C102.982 39.6187 102.902 39.4269 102.902 39.2269C102.902 39.0268 102.982 38.835 103.123 38.6936C103.265 38.5521 103.457 38.4727 103.657 38.4727H128.544C128.744 38.4727 128.936 38.5521 129.078 38.6936C129.219 38.835 129.299 39.0268 129.299 39.2269C129.299 39.4269 129.219 39.6187 129.078 39.7602C128.936 39.9016 128.744 39.9811 128.544 39.9811Z" fill="white"/>
<path d="M155.695 39.9811H134.578C134.378 39.9811 134.187 39.9016 134.045 39.7602C133.904 39.6187 133.824 39.4269 133.824 39.2269C133.824 39.0268 133.904 38.835 134.045 38.6936C134.187 38.5521 134.378 38.4727 134.578 38.4727H155.695C155.895 38.4727 156.087 38.5521 156.229 38.6936C156.37 38.835 156.45 39.0268 156.45 39.2269C156.45 39.4269 156.37 39.6187 156.229 39.7602C156.087 39.9016 155.895 39.9811 155.695 39.9811Z" fill="white"/>
<g opacity="0.81">
<path opacity="0.81" d="M298.153 121.829H280.739C280.539 121.829 280.347 121.749 280.205 121.608C280.064 121.466 279.984 121.275 279.984 121.075C279.984 120.875 280.064 120.683 280.205 120.541C280.347 120.4 280.539 120.32 280.739 120.32H298.153C298.353 120.32 298.544 120.4 298.686 120.541C298.827 120.683 298.907 120.875 298.907 121.075C298.907 121.275 298.827 121.466 298.686 121.608C298.544 121.749 298.353 121.829 298.153 121.829Z" fill="white"/>
<path opacity="0.81" d="M298.153 139.93H280.739C280.539 139.93 280.347 139.851 280.205 139.709C280.064 139.568 279.984 139.376 279.984 139.176C279.984 138.976 280.064 138.784 280.205 138.643C280.347 138.501 280.539 138.422 280.739 138.422H298.153C298.353 138.422 298.544 138.501 298.686 138.643C298.827 138.784 298.907 138.976 298.907 139.176C298.907 139.376 298.827 139.568 298.686 139.709C298.544 139.851 298.353 139.93 298.153 139.93Z" fill="white"/>
<path opacity="0.81" d="M311.458 158.212H203.61C203.067 158.21 202.548 157.993 202.165 157.609C201.781 157.224 201.566 156.704 201.566 156.161V100.024C201.568 99.4829 201.784 98.9642 202.167 98.5813C202.55 98.1984 203.069 97.9825 203.61 97.9805H311.458C312 97.9805 312.52 98.1958 312.903 98.5791C313.287 98.9624 313.502 99.4823 313.502 100.024V156.161C313.503 156.43 313.451 156.696 313.348 156.945C313.246 157.194 313.096 157.42 312.906 157.611C312.716 157.802 312.49 157.953 312.242 158.056C311.993 158.159 311.727 158.212 311.458 158.212ZM203.61 99.4889C203.468 99.4889 203.332 99.5453 203.232 99.6457C203.131 99.7462 203.075 99.8824 203.075 100.024V156.161C203.074 156.232 203.087 156.302 203.113 156.368C203.14 156.434 203.179 156.494 203.229 156.544C203.279 156.595 203.338 156.635 203.404 156.662C203.469 156.69 203.539 156.704 203.61 156.704H311.458C311.529 156.704 311.599 156.69 311.665 156.662C311.73 156.635 311.79 156.595 311.839 156.544C311.889 156.494 311.928 156.434 311.955 156.368C311.981 156.302 311.994 156.232 311.993 156.161V100.024C311.993 99.8824 311.937 99.7462 311.837 99.6457C311.736 99.5453 311.6 99.4889 311.458 99.4889H203.61Z" fill="white"/>
<path opacity="0.66" d="M311.458 158.212H203.61C203.067 158.21 202.548 157.993 202.165 157.609C201.781 157.224 201.566 156.704 201.566 156.161V100.024C201.568 99.4829 201.784 98.9642 202.167 98.5813C202.55 98.1984 203.069 97.9825 203.61 97.9805H311.458C312 97.9805 312.52 98.1958 312.903 98.5791C313.287 98.9624 313.502 99.4823 313.502 100.024V156.161C313.503 156.43 313.451 156.696 313.348 156.945C313.246 157.194 313.096 157.42 312.906 157.611C312.716 157.802 312.49 157.953 312.242 158.056C311.993 158.159 311.727 158.212 311.458 158.212ZM203.61 99.4889C203.468 99.4889 203.332 99.5453 203.232 99.6457C203.131 99.7462 203.075 99.8824 203.075 100.024V156.161C203.074 156.232 203.087 156.302 203.113 156.368C203.14 156.434 203.179 156.494 203.229 156.544C203.279 156.595 203.338 156.635 203.404 156.662C203.469 156.69 203.539 156.704 203.61 156.704H311.458C311.529 156.704 311.599 156.69 311.665 156.662C311.73 156.635 311.79 156.595 311.839 156.544C311.889 156.494 311.928 156.434 311.955 156.368C311.981 156.302 311.994 156.232 311.993 156.161V100.024C311.993 99.8824 311.937 99.7462 311.837 99.6457C311.736 99.5453 311.6 99.4889 311.458 99.4889H203.61Z" fill="white"/>
<path opacity="0.81" d="M242.119 108.004H214.803C214.29 108.004 213.875 108.419 213.875 108.932V145.881C213.875 146.393 214.29 146.808 214.803 146.808H242.119C242.631 146.808 243.047 146.393 243.047 145.881V108.932C243.047 108.419 242.631 108.004 242.119 108.004Z" fill="white"/>
<path opacity="0.81" d="M298.152 113.042H250.262C250.062 113.042 249.87 112.962 249.729 112.821C249.587 112.679 249.508 112.487 249.508 112.287C249.508 112.087 249.587 111.896 249.729 111.754C249.87 111.613 250.062 111.533 250.262 111.533H298.152C298.352 111.533 298.544 111.613 298.686 111.754C298.827 111.896 298.907 112.087 298.907 112.287C298.907 112.487 298.827 112.679 298.686 112.821C298.544 112.962 298.352 113.042 298.152 113.042Z" fill="white"/>
<path opacity="0.81" d="M298.152 130.616H250.262C250.062 130.616 249.87 130.536 249.729 130.395C249.587 130.253 249.508 130.062 249.508 129.862C249.508 129.662 249.587 129.47 249.729 129.328C249.87 129.187 250.062 129.107 250.262 129.107H298.152C298.352 129.107 298.544 129.187 298.686 129.328C298.827 129.47 298.907 129.662 298.907 129.862C298.907 130.062 298.827 130.253 298.686 130.395C298.544 130.536 298.352 130.616 298.152 130.616Z" fill="white"/>
<path opacity="0.81" d="M276.085 121.829H250.262C250.062 121.829 249.87 121.749 249.729 121.608C249.587 121.466 249.508 121.275 249.508 121.075C249.508 120.875 249.587 120.683 249.729 120.541C249.87 120.4 250.062 120.32 250.262 120.32H276.085C276.285 120.32 276.477 120.4 276.618 120.541C276.76 120.683 276.839 120.875 276.839 121.075C276.839 121.275 276.76 121.466 276.618 121.608C276.477 121.749 276.285 121.829 276.085 121.829Z" fill="white"/>
<path opacity="0.81" d="M276.085 139.93H250.262C250.062 139.93 249.87 139.851 249.729 139.709C249.587 139.568 249.508 139.376 249.508 139.176C249.508 138.976 249.587 138.784 249.729 138.643C249.87 138.501 250.062 138.422 250.262 138.422H276.085C276.285 138.422 276.477 138.501 276.618 138.643C276.76 138.784 276.839 138.976 276.839 139.176C276.839 139.376 276.76 139.568 276.618 139.709C276.477 139.851 276.285 139.93 276.085 139.93Z" fill="white"/>
<path opacity="0.81" d="M267.676 148.317H250.262C250.062 148.317 249.87 148.238 249.729 148.096C249.587 147.955 249.508 147.763 249.508 147.563C249.508 147.363 249.587 147.171 249.729 147.03C249.87 146.888 250.062 146.809 250.262 146.809H267.676C267.876 146.809 268.068 146.888 268.209 147.03C268.351 147.171 268.43 147.363 268.43 147.563C268.43 147.763 268.351 147.955 268.209 148.096C268.068 148.238 267.876 148.317 267.676 148.317Z" fill="white"/>
</g>
<path d="M20.9516 128.61H20.1974C20.0974 128.61 20.0015 128.57 19.9308 128.499C19.86 128.428 19.8203 128.333 19.8203 128.233C19.8203 128.133 19.86 128.037 19.9308 127.966C20.0015 127.895 20.0974 127.855 20.1974 127.855H20.9516C21.0516 127.855 21.1475 127.895 21.2182 127.966C21.2889 128.037 21.3287 128.133 21.3287 128.233C21.3287 128.333 21.2889 128.428 21.2182 128.499C21.1475 128.57 21.0516 128.61 20.9516 128.61Z" fill="white"/>
<path d="M249.908 228.934C249.808 228.934 249.712 228.895 249.642 228.824C249.571 228.753 249.531 228.657 249.531 228.557V227.803C249.531 227.703 249.571 227.607 249.642 227.536C249.712 227.466 249.808 227.426 249.908 227.426C250.008 227.426 250.104 227.466 250.175 227.536C250.246 227.607 250.285 227.703 250.285 227.803V228.557C250.285 228.657 250.246 228.753 250.175 228.824C250.104 228.895 250.008 228.934 249.908 228.934Z" fill="white"/>
<path d="M183.742 278.999H162.935C161.615 278.997 160.35 278.472 159.417 277.539C158.484 276.606 157.959 275.341 157.957 274.021V162.473H190.387V272.355C190.388 273.227 190.217 274.092 189.883 274.899C189.55 275.705 189.06 276.438 188.443 277.055C187.826 277.672 187.093 278.162 186.286 278.495C185.48 278.829 184.615 279 183.742 278.999Z" fill="#3E479B"/>
<path d="M185.608 278.999H172.289V162.473H190.389V274.217C190.389 275.486 189.886 276.702 188.989 277.599C188.092 278.495 186.876 278.999 185.608 278.999Z" fill="#4C65BA"/>
<path d="M116.72 55.375H220.442C225.954 55.374 231.412 56.459 236.505 58.5679C241.597 60.6769 246.224 63.7685 250.122 67.6662C254.019 71.5638 257.111 76.1912 259.22 81.284C261.328 86.3767 262.413 91.835 262.412 97.3472V171.095C262.412 171.909 262.089 172.689 261.513 173.265C260.938 173.841 260.157 174.164 259.343 174.164H77.2611C77.2152 174.165 77.1697 174.157 77.1271 174.14C77.0845 174.123 77.0459 174.097 77.0135 174.065C76.9811 174.032 76.9555 173.994 76.9385 173.951C76.9214 173.909 76.9131 173.863 76.9141 173.817V95.2128C76.9141 84.6524 81.107 74.524 88.5711 67.0539C96.0353 59.5837 106.16 55.383 116.72 55.375Z" fill="#599AF2"/>
<g opacity="0.07">
<path opacity="0.07" d="M129.54 71.5898H207.975C219.106 71.5898 229.781 76.0119 237.652 83.8832C245.523 91.7545 249.945 102.43 249.945 113.562V171.094C249.945 171.908 249.622 172.689 249.046 173.264C248.47 173.84 247.69 174.163 246.876 174.163H90.0814C90.0355 174.164 89.99 174.156 89.9474 174.139C89.9049 174.122 89.8662 174.096 89.8338 174.064C89.8014 174.032 89.7758 173.993 89.7588 173.95C89.7417 173.908 89.7334 173.862 89.7345 173.816V111.428C89.7345 100.867 93.9273 90.7389 101.391 83.2687C108.856 75.7986 118.98 71.5978 129.54 71.5898Z" fill="#ECF1F7"/>
</g>
<g opacity="0.65">
<path opacity="0.65" d="M258.95 174.541H144.383V164.736H262.412V171.079C262.413 171.534 262.324 171.985 262.151 172.405C261.977 172.826 261.722 173.208 261.4 173.529C261.079 173.851 260.697 174.106 260.276 174.28C259.856 174.453 259.405 174.542 258.95 174.541Z" fill="#4C65BA"/>
</g>
<g opacity="0.65">
<path opacity="0.65" d="M258.95 174.541H144.383V164.736H262.412V171.079C262.413 171.534 262.324 171.985 262.151 172.405C261.977 172.826 261.722 173.208 261.4 173.529C261.079 173.851 260.697 174.106 260.276 174.28C259.856 174.453 259.405 174.542 258.95 174.541Z" fill="#4C65BA"/>
</g>
<path d="M259.773 174.165H207.645V165.023H262.413V171.525C262.416 171.872 262.35 172.217 262.218 172.539C262.087 172.86 261.892 173.152 261.647 173.398C261.401 173.644 261.109 173.838 260.787 173.97C260.466 174.101 260.121 174.168 259.773 174.165Z" fill="#3E479B"/>
<path opacity="0.07" d="M262.412 97.6113H150.039V164.737H262.412V97.6113Z" fill="#373449"/>
<path d="M145.513 171.523H81.4079C80.2078 171.523 79.0568 171.047 78.2082 170.198C77.3596 169.349 76.8828 168.198 76.8828 166.998V94.2162C76.8818 89.4123 77.8273 84.6552 79.6651 80.2167C81.503 75.7782 84.1972 71.7453 87.594 68.3484C90.9907 64.9515 95.0234 62.2571 99.4617 60.4191C103.9 58.5812 108.657 57.6357 113.461 57.6367C118.264 57.6357 123.021 58.5812 127.459 60.4191C131.898 62.2571 135.93 64.9515 139.327 68.3484C142.724 71.7453 145.418 75.7782 147.256 80.2167C149.094 84.6552 150.039 89.4123 150.038 94.2162V166.998C150.038 168.198 149.562 169.349 148.713 170.198C147.864 171.047 146.713 171.523 145.513 171.523Z" fill="#4C65BA"/>
<path d="M144.762 171.523H80.6562V94.9702C80.6563 86.4689 84.0332 78.3158 90.0443 72.3045C96.0553 66.2932 104.208 62.916 112.709 62.916C121.21 62.916 129.363 66.2932 135.374 72.3045C141.385 78.3158 144.762 86.4689 144.762 94.9702V171.523Z" fill="#373449"/>
<path d="M145.135 171.524H85.5547V167.843C85.5537 167.038 85.7114 166.242 86.0188 165.498C86.3262 164.755 86.7773 164.079 87.3461 163.51C87.915 162.941 88.5905 162.49 89.3339 162.183C90.0774 161.875 90.8741 161.718 91.6786 161.719H145.135V171.524Z" fill="#FE6262"/>
<path d="M142.944 185.099H35.209C34.2443 185.099 33.2891 184.909 32.3979 184.54C31.5067 184.171 30.6969 183.63 30.0148 182.948C29.3327 182.266 28.7916 181.456 28.4224 180.564C28.0533 179.673 27.8633 178.718 27.8633 177.753V171.523H151.549V176.494C151.549 178.776 150.642 180.965 149.028 182.579C147.415 184.193 145.226 185.099 142.944 185.099Z" fill="#599AF2"/>
<path d="M142.94 185.099H109.115C108.151 185.099 107.195 184.909 106.304 184.54C105.413 184.171 104.603 183.63 103.921 182.948C103.239 182.266 102.698 181.456 102.329 180.564C101.96 179.673 101.77 178.718 101.77 177.753V171.523H151.545V176.494C151.545 178.776 150.639 180.965 149.025 182.579C147.411 184.193 145.222 185.099 142.94 185.099Z" fill="#4C65BA"/>
<path d="M179.453 110.433C185.284 110.433 190.012 105.705 190.012 99.8735C190.012 94.0419 185.284 89.3145 179.453 89.3145C173.622 89.3145 168.895 94.0419 168.895 99.8735C168.895 105.705 173.622 110.433 179.453 110.433Z" fill="#3E479B"/>
<path d="M179.452 103.267C179.006 103.268 178.565 103.181 178.152 103.01C177.74 102.84 177.366 102.59 177.05 102.275C176.735 101.96 176.485 101.585 176.315 101.173C176.145 100.761 176.058 100.319 176.059 99.8728V32.7475C176.058 32.3015 176.145 31.8597 176.315 31.4475C176.485 31.0353 176.735 30.6607 177.05 30.3454C177.366 30.03 177.74 29.7801 178.152 29.6099C178.565 29.4396 179.006 29.3525 179.452 29.3535C179.898 29.3525 180.34 29.4396 180.752 29.6099C181.165 29.7801 181.539 30.03 181.854 30.3454C182.17 30.6607 182.42 31.0353 182.59 31.4475C182.76 31.8597 182.847 32.3015 182.846 32.7475V99.8728C182.847 100.319 182.76 100.761 182.59 101.173C182.42 101.585 182.17 101.96 181.854 102.275C181.539 102.59 181.165 102.84 180.752 103.01C180.34 103.181 179.898 103.268 179.452 103.267Z" fill="#3E479B"/>
<path d="M180.96 108.923C185.959 108.923 190.01 104.871 190.01 99.8729C190.01 94.8744 185.959 90.8223 180.96 90.8223C175.962 90.8223 171.91 94.8744 171.91 99.8729C171.91 104.871 175.962 108.923 180.96 108.923Z" fill="#4C65BA"/>
<path d="M183.977 49.0768V32.748H214.921L183.977 49.0768Z" fill="#6D6CD4"/>
<path d="M183.977 49.0768V32.748H214.921L183.977 49.0768Z" fill="#6D6CD4"/>
<path d="M180.96 103.267C180.514 103.268 180.073 103.181 179.66 103.01C179.248 102.84 178.874 102.59 178.558 102.275C178.243 101.96 177.993 101.585 177.823 101.173C177.653 100.761 177.565 100.319 177.566 99.8728V32.7475C177.565 32.3015 177.653 31.8597 177.823 31.4475C177.993 31.0353 178.243 30.6607 178.558 30.3454C178.874 30.03 179.248 29.7801 179.66 29.6099C180.073 29.4396 180.514 29.3525 180.96 29.3535C181.406 29.3525 181.848 29.4396 182.26 29.6099C182.672 29.7801 183.047 30.03 183.362 30.3454C183.678 30.6607 183.928 31.0353 184.098 31.4475C184.268 31.8597 184.355 32.3015 184.354 32.7475V99.8728C184.355 100.319 184.268 100.761 184.098 101.173C183.928 101.585 183.678 101.96 183.362 102.275C183.047 102.59 182.672 102.84 182.26 103.01C181.848 103.181 181.406 103.268 180.96 103.267Z" fill="#4C65BA"/>
<path d="M180.96 105.153C179.879 105.153 178.821 104.832 177.922 104.231C177.023 103.631 176.322 102.777 175.908 101.777C175.495 100.778 175.386 99.6788 175.597 98.6181C175.808 97.5574 176.329 96.5831 177.094 95.8184C177.858 95.0536 178.833 94.5329 179.893 94.3219C180.954 94.1109 182.053 94.2192 183.052 94.633C184.052 95.0469 184.906 95.7478 185.506 96.647C186.107 97.5462 186.428 98.6034 186.428 99.6849C186.426 101.134 185.849 102.524 184.824 103.549C183.799 104.574 182.41 105.151 180.96 105.153ZM180.96 94.971C180.028 94.971 179.116 95.2475 178.341 95.7654C177.566 96.2834 176.962 97.0196 176.605 97.881C176.248 98.7423 176.155 99.6901 176.337 100.604C176.519 101.519 176.968 102.359 177.627 103.018C178.286 103.677 179.126 104.126 180.04 104.308C180.955 104.49 181.903 104.397 182.764 104.04C183.625 103.683 184.361 103.079 184.879 102.304C185.397 101.529 185.674 100.617 185.674 99.6849C185.674 98.4347 185.177 97.2357 184.293 96.3517C183.409 95.4676 182.21 94.971 180.96 94.971Z" fill="#3E479B"/>
<path d="M269.545 94.065C278.705 94.065 286.13 86.6395 286.13 77.4798C286.13 68.32 278.705 60.8945 269.545 60.8945C260.386 60.8945 252.961 68.32 252.961 77.4798C252.961 86.6395 260.386 94.065 269.545 94.065Z" fill="#3E479B"/>
<path d="M273.345 59.8148C276.497 45.2097 267.213 30.8145 252.609 27.6621C238.004 24.5097 223.61 33.7939 220.458 48.399C217.305 63.004 226.589 77.3993 241.193 80.5517C255.798 83.704 270.192 74.4198 273.345 59.8148Z" fill="#FE6262"/>
<path d="M246.898 72.0652C245.43 72.0681 244.013 71.532 242.914 70.5588C241.816 69.5855 241.113 68.2429 240.94 66.7856L240.887 66.3633H252.901L252.856 66.7856C252.672 68.2389 251.967 69.576 250.871 70.5475C249.774 71.5189 248.362 72.0583 246.898 72.0652ZM241.754 67.0949C242.023 68.2576 242.678 69.295 243.612 70.0377C244.546 70.7805 245.704 71.1848 246.898 71.1848C248.091 71.1848 249.249 70.7805 250.183 70.0377C251.117 69.295 251.772 68.2576 252.041 67.0949H241.754Z" fill="white"/>
<path d="M258 60.8192H235.789V50.6674C235.793 47.8462 236.915 45.1417 238.91 43.1468C240.905 41.1519 243.609 40.0294 246.431 40.0254H247.358C250.179 40.0294 252.884 41.1519 254.878 43.1468C256.873 45.1417 257.996 47.8462 258 50.6674V60.8192ZM236.543 60.0649H257.245V50.6674C257.244 48.0456 256.201 45.5318 254.347 43.6779C252.494 41.824 249.98 40.7816 247.358 40.7796H246.431C243.809 40.7816 241.295 41.824 239.441 43.6779C237.588 45.5318 236.545 48.0456 236.543 50.6674V60.0649Z" fill="white"/>
<path d="M257.631 67.0957H236.168C235.271 67.0957 234.411 66.74 233.776 66.1065C233.141 65.4731 232.783 64.6136 232.781 63.7168V63.4453C232.783 62.5485 233.141 61.6891 233.776 61.0556C234.411 60.4222 235.271 60.0664 236.168 60.0664H257.631C258.527 60.0684 259.385 60.425 260.018 61.0583C260.652 61.6915 261.008 62.5498 261.01 63.4453V63.7168C261.008 64.6123 260.652 65.4706 260.018 66.1038C259.385 66.7371 258.527 67.0937 257.631 67.0957ZM236.168 60.8206C235.471 60.8206 234.802 61.0969 234.309 61.5889C233.816 62.0809 233.537 62.7485 233.535 63.4453V63.7168C233.537 64.4136 233.816 65.0812 234.309 65.5732C234.802 66.0652 235.471 66.3415 236.168 66.3415H257.631C258.328 66.3415 258.995 66.065 259.487 65.5727C259.98 65.0805 260.256 64.4129 260.256 63.7168V63.4453C260.256 62.7492 259.98 62.0816 259.487 61.5894C258.995 61.0972 258.328 60.8206 257.631 60.8206H236.168Z" fill="white"/>
<path d="M244.621 57.637H236.166C236.066 57.637 235.97 57.5973 235.899 57.5266C235.829 57.4559 235.789 57.3599 235.789 57.2599C235.791 57.1605 235.831 57.0657 235.902 56.9954C235.972 56.9251 236.067 56.8847 236.166 56.8828H244.621C244.721 56.8828 244.816 56.9225 244.887 56.9933C244.958 57.064 244.998 57.1599 244.998 57.2599C244.998 57.3599 244.958 57.4559 244.887 57.5266C244.816 57.5973 244.721 57.637 244.621 57.637Z" fill="white"/>
<path d="M245.887 57.6368C245.812 57.6414 245.738 57.6219 245.676 57.5811C245.613 57.5403 245.566 57.4805 245.54 57.4105C245.53 57.3633 245.53 57.3145 245.54 57.2672C245.528 57.2176 245.528 57.166 245.54 57.1164C245.558 57.072 245.583 57.0312 245.615 56.9957L245.743 56.9127C245.812 56.8861 245.887 56.8798 245.959 56.8945C246.031 56.9092 246.098 56.9443 246.151 56.9957C246.187 57.0289 246.216 57.0702 246.234 57.1164C246.245 57.166 246.245 57.2176 246.234 57.2672C246.244 57.3145 246.244 57.3633 246.234 57.4105C246.216 57.4567 246.187 57.498 246.151 57.5312C246.115 57.5648 246.074 57.5928 246.03 57.6142C245.984 57.629 245.935 57.6366 245.887 57.6368Z" fill="white"/>
<path d="M247.018 37.9757C246.918 37.9757 246.822 37.936 246.751 37.8653C246.68 37.7945 246.641 37.6986 246.641 37.5986V32.0627C246.641 31.9626 246.68 31.8667 246.751 31.796C246.822 31.7253 246.918 31.6855 247.018 31.6855C247.118 31.6855 247.214 31.7253 247.284 31.796C247.355 31.8667 247.395 31.9626 247.395 32.0627V37.5986C247.395 37.6986 247.355 37.7945 247.284 37.8653C247.214 37.936 247.118 37.9757 247.018 37.9757Z" fill="white"/>
<path d="M254.387 39.5736C254.31 39.5724 254.235 39.5516 254.168 39.5132C254.088 39.4542 254.033 39.3668 254.014 39.2687C253.996 39.1706 254.016 39.0693 254.07 38.9853L255.624 36.7226C255.683 36.6422 255.77 36.5873 255.868 36.5691C255.966 36.5509 256.067 36.5707 256.151 36.6246C256.193 36.6526 256.228 36.6885 256.256 36.7303C256.283 36.7721 256.302 36.8189 256.311 36.8681C256.32 36.9172 256.319 36.9676 256.309 37.0165C256.298 37.0653 256.278 37.1116 256.249 37.1525L254.696 39.4152C254.661 39.4649 254.615 39.5054 254.561 39.533C254.507 39.5606 254.447 39.5746 254.387 39.5736Z" fill="white"/>
<path d="M239.41 39.574C239.348 39.5756 239.287 39.5611 239.233 39.532C239.179 39.5029 239.133 39.4602 239.101 39.4081L237.539 37.1454C237.482 37.0624 237.461 36.9602 237.479 36.8612C237.497 36.7621 237.554 36.6745 237.637 36.6175C237.72 36.5605 237.823 36.5388 237.922 36.5572C238.021 36.5756 238.108 36.6325 238.165 36.7155L239.727 38.9782C239.781 39.0625 239.801 39.165 239.781 39.2637C239.762 39.3624 239.704 39.4495 239.621 39.5061C239.558 39.5479 239.485 39.5714 239.41 39.574Z" fill="white"/>
<g clip-path="url(#clip1_1389_70804)">
<path d="M26.2482 101.632C26.2482 101.632 25.9051 101.972 26.2677 102.667C26.6303 103.362 27.0128 103.811 26.9069 104.247C26.801 104.682 26.1771 105.392 26.7604 106.236C27.3437 107.08 27.1277 106.085 27.0913 105.801C27.0549 105.517 27.6397 104.278 27.5313 104.143C27.4229 104.008 26.2237 102.251 26.5237 101.789L26.2482 101.632Z" fill="#2D251C"/>
<path d="M22.6448 96.9254C22.6448 96.9254 22.2645 96.887 22.0307 97.4567C21.7969 98.0263 21.7166 98.4823 21.4006 98.6359C21.0846 98.7895 20.3502 98.767 20.1315 99.5512C19.9129 100.335 20.4095 99.6947 20.5611 99.5289C20.7127 99.3631 21.751 99.0878 21.7852 98.9612C21.8194 98.8346 22.2584 97.2192 22.7012 97.161L22.6448 96.9254Z" fill="#2D251C"/>
<path d="M23.3109 93.1965C23.3109 93.1965 20.859 93.3085 20.5374 93.344C20.2158 93.3794 20.0553 93.1967 20.1807 92.8278C20.306 92.459 20.8561 92.666 21.0516 92.7178C21.2471 92.7695 23.1653 92.7823 23.1653 92.7823L23.3109 93.1965Z" fill="#572121"/>
<path d="M25.5961 94.4349C25.5961 94.4349 23.5305 95.2983 23.1893 95.8392C22.8894 96.3221 22.517 96.7557 22.0851 97.125C21.8277 97.3029 22.462 97.8408 22.7438 97.5277C23.0257 97.2147 23.2839 96.5098 23.5323 96.2199C23.7807 95.93 24.5915 95.4687 25.4124 95.0882C25.7738 94.9484 26.1122 94.7556 26.4167 94.5161C26.3042 94.4205 26.1654 94.3616 26.0187 94.3471C25.8721 94.3326 25.7246 94.3632 25.5961 94.4349Z" fill="#572121"/>
<path d="M25.8872 96.2219C25.8872 96.2219 25.0507 98.9625 25.3006 99.7203C25.5281 100.407 25.6495 101.124 25.6604 101.848C25.6329 102.248 26.6659 102.064 26.5842 101.533C26.5025 101.002 26.0281 100.178 25.936 99.693C25.8438 99.2075 26.0634 98.0451 26.3577 96.9302C26.652 95.8152 26.613 95.4837 26.613 95.4837C26.4316 95.519 26.2653 95.6084 26.1358 95.7401C26.0062 95.8719 25.9196 96.0398 25.8872 96.2219Z" fill="#572121"/>
<path d="M34.7435 95.7594C34.7435 95.7594 35.1854 95.5569 35.705 96.1436C36.2246 96.7302 36.5119 97.2448 36.9593 97.2979C37.4067 97.3509 38.2885 97.0198 38.8718 97.8637C39.4551 98.7076 38.6008 98.154 38.3482 98.0197C38.0956 97.8853 36.7295 97.9944 36.6417 97.8454C36.5539 97.6963 35.3342 95.9537 34.7951 96.0708L34.7435 95.7594Z" fill="#2D251C"/>
<path d="M29.8157 93.5078C29.8157 93.5078 32.6751 93.6937 33.2956 94.1953C33.8578 94.6509 34.486 95.0179 35.1585 95.2836C35.5402 95.4011 35.0057 96.3007 34.538 96.0367C34.0703 95.7727 33.4672 95.0378 33.0456 94.78C32.624 94.5223 31.4564 94.3187 30.3094 94.2C29.8178 94.1798 29.3316 94.0881 28.8661 93.9277C28.9653 93.7719 29.1083 93.6489 29.2772 93.5742C29.4461 93.4995 29.6335 93.4764 29.8157 93.5078Z" fill="#572121"/>
<path d="M29.1485 94.0409C28.516 94.562 28.8875 94.9841 28.2415 95.4306C27.5955 95.8771 27.3231 95.3675 26.6185 95.7897C25.9139 96.212 25.165 96.8783 26.1321 98.3875C27.0992 99.8966 29.9464 101.765 31.748 100.52C33.5496 99.2746 32.839 95.952 31.7731 94.5035C30.7072 93.055 29.7863 93.5276 29.1485 94.0409Z" fill="#414640"/>
<path d="M29.1712 94.5906C28.6569 95.0185 28.9562 95.3799 28.4414 95.7357C27.9267 96.0915 27.6918 95.6857 27.1123 96.0138C26.5327 96.3419 25.9313 96.9025 26.7102 98.1338C27.489 99.365 29.8121 100.883 31.2946 99.8579C32.777 98.8332 32.1775 96.128 31.3017 94.96C30.4259 93.792 29.6933 94.1573 29.1712 94.5906Z" fill="#747455"/>
<path d="M29.0618 94.9075C28.6621 95.2371 28.9025 95.5134 28.4933 95.7962C28.084 96.0791 27.9106 95.7566 27.4609 96.014C27.0113 96.2714 26.5388 96.7048 27.1441 97.6632C27.7495 98.6215 29.5611 99.8062 30.7141 99.0092C31.8672 98.2122 31.4036 96.1109 30.7139 95.1957C30.0242 94.2804 29.4676 94.5812 29.0618 94.9075Z" fill="#572121"/>
<path d="M29.1488 94.041C28.5214 94.5586 28.8853 94.9859 28.2522 95.4235C28.2685 95.4516 28.287 95.4783 28.3074 95.5035C28.2911 95.4755 28.2726 95.4487 28.2522 95.4235C27.619 95.8612 27.3407 95.3595 26.6394 95.7756C26.1682 96.0403 25.6871 96.4338 25.6914 97.1058C25.7017 96.8942 25.7728 96.6901 25.8962 96.5182C26.0196 96.3463 26.19 96.2139 26.3871 96.1368C26.7884 95.9271 27.2488 95.8587 27.6943 95.9426C27.8356 95.9875 27.9851 95.9995 28.1315 95.9777C28.2779 95.9558 28.4173 95.9007 28.5391 95.8166C28.6608 95.7325 28.7616 95.6215 28.8337 95.4923C28.9059 95.363 28.9475 95.2189 28.9554 95.0709C29.0344 94.6244 29.2611 94.2179 29.5991 93.9166C29.7403 93.7597 29.9241 93.6472 30.1282 93.5928C30.3322 93.5384 30.5478 93.5444 30.7488 93.6101C30.1011 93.3828 29.5726 93.7023 29.1488 94.041Z" fill="#3D220D"/>
<path d="M31.6165 90.7248C31.6165 90.7248 31.7149 90.3555 32.3305 90.3381C32.946 90.3207 33.401 90.4066 33.6563 90.1653C33.9117 89.924 34.1502 89.229 34.961 89.3016C35.7719 89.3742 34.9996 89.6105 34.7909 89.6938C34.5822 89.777 33.9553 90.6528 33.8273 90.6383C33.6994 90.6237 32.0305 90.4654 31.8196 90.859L31.6165 90.7248Z" fill="#2D251C"/>
<path d="M28.8728 87.0075C28.8728 87.0075 29.0861 86.6999 28.7294 86.2829C28.3727 85.8659 28.0295 85.6225 28.0551 85.3074C28.0807 84.9922 28.4559 84.363 27.9104 83.8819C27.3649 83.4009 27.653 84.0598 27.7173 84.2519C27.7815 84.4439 27.4909 85.4266 27.5832 85.4886C27.6756 85.5506 28.7995 86.5548 28.6311 86.9496L28.8728 87.0075Z" fill="#2D251C"/>
<path d="M27.8853 90.0367C27.8853 90.0367 28.8565 87.7826 29.0033 87.4943C29.1501 87.206 29.0359 86.9912 28.6465 86.9782C28.2572 86.9651 28.2565 87.5529 28.2358 87.754C28.2151 87.9552 27.5492 89.7541 27.5492 89.7541L27.8853 90.0367Z" fill="#572121"/>
<path d="M28.233 92.6094C28.233 92.6094 29.7706 90.9822 30.3972 90.8542C30.9549 90.7443 31.4922 90.5491 31.9902 90.2755C32.2476 90.0976 32.5267 90.881 32.1342 91.0341C31.7418 91.1871 30.9911 91.1797 30.6321 91.3096C30.2731 91.4395 29.5551 92.035 28.909 92.6685C28.6515 92.9565 28.3524 93.2044 28.0216 93.4039C27.972 93.2655 27.9657 93.1153 28.0035 92.9734C28.0413 92.8315 28.1214 92.7045 28.233 92.6094Z" fill="#572121"/>
<path d="M20.1378 93.0455C20.1378 93.0455 19.7746 93.1364 19.5105 92.6553C19.2465 92.1742 19.1401 91.7672 18.8362 91.6798C18.5324 91.5924 17.8111 91.721 17.5539 91.0407C17.2967 90.3604 17.8113 90.8628 17.9682 90.9908C18.1251 91.1187 19.1471 91.1941 19.1725 91.3024C19.1979 91.4107 19.7402 92.8169 20.1689 92.799L20.1378 93.0455Z" fill="#2D251C"/>
<path d="M23.6555 87.3687C23.0155 87.2351 22.7643 87.5156 22.7643 87.5156C22.7643 87.5156 22.4133 87.6514 22.312 88.2973C22.2108 88.9432 22.9055 89.7062 23.2039 89.5877C23.4414 89.4232 23.6278 89.1953 23.7419 88.9298C24.0306 88.9168 24.3097 88.823 24.5474 88.659C24.756 88.4271 24.2937 87.4996 23.6555 87.3687Z" fill="#2D251C"/>
<path d="M28.1785 89.9401C26.7187 88.0813 24.8559 88.1485 23.7414 88.9188C22.627 89.6891 21.9058 91.408 23.1289 93.4306C24.3519 95.4531 26.238 94.4125 27.1182 93.8041C27.9985 93.1957 29.634 91.7982 28.1785 89.9401Z" fill="#414640"/>
<path d="M27.5906 90.0053C27.2912 89.6017 26.9075 89.2682 26.4663 89.0281C26.0695 88.811 25.621 88.7072 25.1697 88.7278C24.7185 88.7485 24.282 88.8929 23.9078 89.1453C22.9812 89.7858 22.3227 90.8855 23.3416 92.5686C23.6934 93.1492 24.2621 93.9002 24.9564 93.8703C25.7827 93.8331 26.1215 93.3548 26.5873 93.0328C27.0532 92.7108 28.104 92.3658 28.1856 91.4933C28.1605 90.9448 27.9509 90.4203 27.5906 90.0053Z" fill="#747455"/>
<path d="M26.7986 89.9959C25.8953 88.8431 24.7399 88.8828 24.0476 89.3614C23.3552 89.8399 22.9116 90.9093 23.6664 92.1609C24.4213 93.4126 25.6057 92.7655 26.1436 92.3937C26.6815 92.0219 27.7081 91.1521 26.7986 89.9959Z" fill="#572121"/>
<path d="M28.317 92.612C27.8025 92.5444 27.3589 93.4268 27.0192 93.6617C26.6794 93.8965 25.6946 94.0014 25.5786 94.5049C25.4626 95.0084 26.6491 96.3507 28.3107 95.5301C29.6655 94.2657 28.8272 92.6788 28.317 92.612Z" fill="#572121"/>
<path d="M28.2563 92.7496C27.7871 92.6925 27.433 93.5779 27.1139 93.7985C26.7947 94.0191 25.8352 94.0341 25.7263 94.4983C25.6174 94.9626 26.7161 96.2054 28.2537 95.4476C29.507 94.2839 28.7255 92.8066 28.2563 92.7496Z" fill="#414640"/>
<path d="M28.1297 93.0833C27.7448 93.0327 27.4575 93.7615 27.2001 93.9394C26.9427 94.1173 26.1569 94.1304 26.0707 94.5065C25.9846 94.8826 26.8785 95.9007 28.1295 95.2839C29.1588 94.3245 28.5369 93.1221 28.1297 93.0833Z" fill="#747455"/>
<path d="M27.8851 93.463C27.63 93.4295 27.4345 93.9117 27.2698 94.0255C27.1051 94.1394 26.5928 94.1465 26.5262 94.4023C26.4595 94.6581 27.056 95.3174 27.8817 94.9107C28.5539 94.282 28.1402 93.4964 27.8851 93.463Z" fill="#572121"/>
<path d="M22.3109 88.298C22.5972 88.371 23.0634 89.4636 22.8455 89.7591C22.6276 90.0547 21.7242 90.6791 21.5681 89.9251C21.412 89.1711 22.0073 88.2219 22.3109 88.298Z" fill="#572121"/>
<path d="M23.668 87.3602C23.6351 87.6537 24.4899 88.4777 24.8434 88.3783C25.1969 88.2789 26.1028 87.6527 25.4526 87.2402C24.8024 86.8278 23.7041 87.0492 23.668 87.3602Z" fill="#572121"/>
<g opacity="0.7">
<path opacity="0.7" d="M27.6381 89.621C27.7375 90.3151 28.7946 91.9489 29.5433 92.3772C30.2919 92.8055 31.1464 93.7556 32.2658 95.1824C33.3852 96.6092 35.6325 96.669 36.1491 96.8496C36.6657 97.0303 38.6801 97.8041 39.2498 96.5484C39.8195 95.2927 37.3627 92.9598 33.6722 91.1974C29.9818 89.435 27.5898 89.3035 27.6381 89.621Z" fill="#ECDAC6"/>
</g>
<path d="M28.8804 91.7948C29.0546 91.9642 29.2537 92.0707 29.4231 92.2167C29.5889 92.3768 29.7704 92.5197 29.965 92.643C30.0036 92.6659 30.0431 92.6844 30.0825 92.7029C30.3211 92.9766 30.5714 93.2231 30.8141 93.4862C30.9278 93.6423 31.0634 93.781 31.2168 93.8982C31.2945 93.9418 31.3805 93.9684 31.4691 93.9762C31.5578 93.9839 31.6471 93.9727 31.7309 93.9432C31.7702 94 31.8112 94.0594 31.8685 94.1037C31.9317 94.1895 32.0065 94.2661 32.0906 94.3315C32.1712 94.5262 32.2783 94.7089 32.4088 94.8744C32.5529 95.0432 32.7305 95.1802 32.9303 95.2766C33.3083 95.4697 33.6612 95.7087 33.9811 95.988C33.6722 95.6949 33.329 95.4404 32.959 95.2301C32.773 95.1331 32.6095 94.9979 32.4793 94.8333C32.3928 94.7153 32.3191 94.5885 32.2596 94.455C32.344 94.5057 32.4343 94.5457 32.5284 94.5743C32.6596 94.6243 32.7965 94.6578 32.9359 94.674C33.002 94.6817 33.0682 94.6893 33.1351 94.6926L33.169 94.6921C33.5504 95.0348 33.9429 95.3661 34.3285 95.6983C34.425 95.7947 34.5285 95.8838 34.6382 95.9648C34.706 96.0033 34.784 96.02 34.8615 96.0126C34.9053 96.0076 34.9464 95.989 34.9792 95.9595C35.0119 95.9301 35.0347 95.8911 35.0444 95.848C35.0537 95.7589 35.0354 95.669 34.9919 95.5906C35.2482 95.7619 35.4914 95.952 35.7197 96.1592C35.8519 96.3011 35.9964 96.4309 36.1515 96.5473C36.3101 96.6602 36.4883 96.7427 36.677 96.7904C36.4921 96.7342 36.3191 96.6443 36.1667 96.5253C36.0191 96.4026 35.8824 96.2674 35.7581 96.1212C35.5164 95.8816 35.2569 95.6607 34.9818 95.4603C35.111 95.542 35.2478 95.6109 35.3903 95.6661C35.5492 95.7423 35.7258 95.7732 35.9009 95.7556C35.9187 95.7489 35.9347 95.7381 35.9474 95.724C35.9601 95.7098 35.9693 95.6929 35.9741 95.6744C35.9783 95.6441 35.9729 95.6132 35.9586 95.586C35.9365 95.5455 35.9102 95.5074 35.8801 95.4725C35.8302 95.4002 35.7529 95.3544 35.6903 95.3024C35.4422 95.0895 35.2058 94.8633 34.9823 94.6248C34.8159 94.45 34.6571 94.2699 34.4984 94.0897C34.8035 94.3441 35.1112 94.5967 35.4282 94.8352C35.5959 94.9787 35.7983 95.079 35.9652 95.2268C36.1264 95.374 36.2655 95.5437 36.3782 95.7308C36.2708 95.5388 36.1366 95.3632 35.9796 95.2092C35.8179 95.0578 35.625 94.9547 35.4581 94.8069C35.2913 94.6591 35.1502 94.543 34.9984 94.4115C35.0188 94.4241 35.0402 94.4348 35.0624 94.4435C35.1034 94.4574 35.1464 94.4638 35.1896 94.4624C35.2187 94.4625 35.247 94.4535 35.2708 94.4368C35.2832 94.4268 35.2934 94.4144 35.3006 94.4002C35.3078 94.3859 35.312 94.3704 35.3127 94.3544C35.8255 94.5847 36.3006 94.8916 36.7216 95.2646C36.9361 95.4713 37.1247 95.7034 37.283 95.9558C37.454 96.2019 37.6556 96.4252 37.8831 96.6203C37.6604 96.4209 37.4639 96.1941 37.2984 95.9451C37.1441 95.687 36.958 95.4491 36.7445 95.2373C36.316 94.8301 35.8262 94.493 35.2932 94.2382C35.2396 94.1275 35.1692 94.0256 35.0845 93.9363C35.0382 93.8692 34.9712 93.8163 34.9145 93.7563C35.3274 94.0621 35.7504 94.3494 36.1912 94.6129C36.4584 94.7728 36.7386 94.9095 37.029 95.0216C37.1028 95.0491 37.1791 95.0691 37.2568 95.0815C37.3008 95.0895 37.3461 95.08 37.3831 95.0552C37.432 95.0214 37.3962 94.9585 37.3817 94.9265C37.2991 94.793 37.1994 94.6709 37.085 94.5634C36.7052 94.1889 36.2895 93.8529 35.8439 93.5602C36.0877 93.6182 36.3279 93.6902 36.5635 93.7759C36.8928 93.8794 37.1874 94.0715 37.4152 94.3313C37.6467 94.5946 37.8483 94.8862 38.055 95.1743C38.2538 95.4665 38.4719 95.7451 38.7076 96.0084C38.4784 95.74 38.2672 95.4565 38.0756 95.1601C37.874 94.8684 37.6724 94.5768 37.4528 94.2976C37.2241 94.0191 36.9234 93.8087 36.5837 93.6895C36.2648 93.558 35.9365 93.4509 35.6015 93.3692C35.5126 93.301 35.4288 93.2292 35.346 93.1645C35.4991 93.2165 35.6554 93.2588 35.8138 93.2911C35.9175 93.3127 36.0225 93.3267 36.1281 93.3331C36.184 93.337 36.2402 93.3353 36.2957 93.3279C36.3312 93.3269 36.3657 93.3155 36.3949 93.2953C36.4241 93.2751 36.4469 93.2469 36.4604 93.2141C36.455 93.0577 36.3462 92.9993 36.266 92.9328C36.1857 92.8662 36.1037 92.797 36.0155 92.7245L35.5042 92.3534C34.8395 91.894 34.1229 91.5149 33.3696 91.2241C33.3054 91.1807 33.2463 91.1338 33.1795 91.0923C32.7664 90.8527 32.339 90.6387 31.8998 90.4514C31.4595 90.297 31.0038 90.1912 30.5408 90.136C30.3067 90.0035 30.0604 89.8941 29.8053 89.8092C29.1043 89.612 28.3744 89.5395 27.649 89.595C27.6597 89.6105 27.6686 89.6234 27.6793 89.6389L27.6175 89.6816C27.7737 90.0899 27.985 90.4751 28.2454 90.8265C28.3981 91.1842 28.6131 91.5121 28.8804 91.7948ZM27.7279 89.7311C27.9579 89.95 28.2127 90.1412 28.4869 90.301L28.6028 90.3696C28.6317 90.6121 28.7253 90.8425 28.8737 91.0367C28.8521 91.0559 28.8263 91.0697 28.7984 91.0771C28.7705 91.0845 28.7412 91.0852 28.7129 91.0792C28.5439 91.0548 28.2065 90.8418 27.7176 89.7383L27.7279 89.7311ZM29.022 91.0752C28.8395 90.8763 28.704 90.6389 28.6256 90.3806C28.8891 90.5417 29.1611 90.6931 29.4406 90.8279C29.7201 90.9626 29.9047 91.0371 30.1444 91.1308C30.2683 91.3338 30.408 91.5267 30.5622 91.7077C30.7231 91.9072 30.9144 92.08 31.1291 92.2197C31.0928 92.2725 31.0411 92.3128 30.9811 92.3352C30.9211 92.3576 30.8556 92.361 30.7935 92.3449C30.6562 92.2961 30.5359 92.2082 30.4476 92.0921C30.2287 91.8916 29.9936 91.7097 29.7446 91.5483C29.5001 91.3817 29.216 91.2348 29.022 91.0752ZM31.1796 92.1772C30.9826 92.0162 30.7984 91.84 30.6289 91.6502L30.1864 91.1475C30.273 91.1792 30.3588 91.2153 30.4461 91.2426C30.6186 91.3047 30.7969 91.3488 30.9784 91.3743C31.0725 91.3894 31.1685 91.3888 31.2624 91.3725C31.2813 91.371 31.2997 91.366 31.3168 91.3578C31.7182 91.8045 32.166 92.207 32.6527 92.5586C32.9548 92.7804 33.2455 93.0174 33.5237 93.2685C32.8817 92.9228 31.5391 92.2186 31.1751 92.1651L31.1796 92.1772ZM30.7598 90.3317C31.0639 90.5195 31.2868 90.8145 31.3844 91.1585C31.3946 91.3383 31.1477 91.3221 30.9908 91.2933C30.8167 91.2584 30.6456 91.2096 30.4791 91.1473C30.1426 91.0291 29.8141 90.8786 29.4883 90.7263C28.8539 90.4488 28.2566 90.0929 27.7102 89.6671C27.7061 89.6637 27.703 89.6592 27.7013 89.6542C27.6924 89.6438 27.6847 89.6325 27.6781 89.6206C28.3886 89.6391 29.095 89.7381 29.7837 89.9157C30.1256 90.001 30.4515 90.1416 30.7485 90.3319L30.7598 90.3317ZM35.284 93.1463C34.9295 92.8536 34.5792 92.5504 34.2296 92.2428C34.2375 92.2272 34.2399 92.2094 34.2365 92.1922C34.2293 92.1571 34.2172 92.123 34.2008 92.0911C34.067 91.8896 33.9081 91.706 33.728 91.5446C33.6511 91.4719 33.5691 91.4027 33.4827 91.3327C34.1416 91.6972 34.8063 92.0425 35.4592 92.4149C35.6408 92.5181 35.8137 92.6358 35.9763 92.7669C36.0601 92.8338 36.1386 92.907 36.2113 92.9858C36.2666 93.0658 36.356 93.1566 36.3475 93.2158C36.339 93.2751 36.2052 93.2685 36.1113 93.2647C36.009 93.2618 35.9069 93.2521 35.8059 93.2356C35.6195 93.208 35.4452 93.176 35.2727 93.1465L35.284 93.1463ZM34.8103 93.6606L34.7782 93.6141C34.5729 93.4052 34.3557 93.212 34.1437 93.0153C33.7518 92.6684 33.4178 92.2624 33.051 91.8638C33.2353 91.9652 33.4221 92.0649 33.6241 92.1426C33.7337 92.1927 33.8461 92.2359 33.9609 92.2722C34.0256 92.294 34.0942 92.3012 34.1619 92.2934C34.1781 92.2912 34.1935 92.2853 34.207 92.276C34.2204 92.2667 34.2314 92.2544 34.2391 92.24C34.6474 92.6908 35.0903 93.109 35.5638 93.4906C36.0897 93.8125 36.5884 94.1769 37.0549 94.5803C37.1698 94.6803 37.2709 94.7951 37.3555 94.9217C37.3752 94.9501 37.3785 94.9935 37.3623 95.0086C37.3328 95.0249 37.2982 95.0297 37.2653 95.0222C37.1906 95.0114 37.1179 94.9897 37.0496 94.9578C36.773 94.8249 36.5036 94.6776 36.2425 94.5165C35.7416 94.2486 35.2733 93.9507 34.799 93.6607L34.8103 93.6606ZM34.5281 94.0006C34.512 93.9774 34.4959 93.9541 34.4637 93.9459L34.0436 93.6299L33.892 93.4601C33.5356 93.0911 33.1422 92.7598 32.718 92.4715C32.2407 92.1257 31.8014 91.73 31.4077 91.2911C31.4237 91.2725 31.4354 91.2505 31.442 91.2268C31.4486 91.2032 31.45 91.1783 31.446 91.154C31.3353 90.7989 31.0999 90.4955 30.7835 90.3001C30.7193 90.2567 30.6484 90.2256 30.579 90.1859C31.0121 90.3061 31.4441 90.4193 31.867 90.558C32.3181 90.6871 32.7462 90.8868 33.1354 91.1495C33.505 91.4315 33.832 91.7656 34.1062 92.1412C34.121 92.1576 34.1336 92.1758 34.1437 92.1954C34.0938 92.1988 34.0437 92.1934 33.9957 92.1795C33.8837 92.1507 33.7737 92.1147 33.6663 92.0716L33.0427 91.8352L32.9541 91.7401C32.5309 91.3264 31.9904 91.0539 31.4069 90.9599C31.9618 91.1176 32.4722 91.4036 32.8969 91.7949C33.332 92.1768 33.7084 92.6222 34.13 93.0286L34.7346 93.6557C34.8329 93.7593 34.9304 93.8674 35.0236 93.9746C35.1171 94.0675 35.1927 94.1768 35.2465 94.2972C35.262 94.2865 35.2054 94.3257 35.1396 94.291C35.0746 94.269 35.0119 94.2409 34.9522 94.207C34.8263 94.139 34.7056 94.0618 34.591 93.9761L34.5281 94.0006ZM34.7513 95.2535C34.7228 95.2122 34.677 95.179 34.6382 95.1448C34.2454 94.7898 33.8833 94.4022 33.5558 93.9862C33.2241 93.6053 32.8846 93.2297 32.5348 92.8613C33.1773 93.1799 33.8109 93.5353 33.8214 93.5394L33.9951 93.6367C34.1249 93.753 34.2547 93.8692 34.3896 93.9819L34.4057 94.0051C34.7546 94.5071 35.1631 94.9649 35.622 95.3686C35.6864 95.4233 35.749 95.4754 35.8004 95.5276C35.8517 95.5798 35.8949 95.6644 35.8771 95.6386C35.7278 95.6438 35.5791 95.6164 35.4413 95.5584C35.1946 95.4901 34.9585 95.3875 34.74 95.2537L34.7513 95.2535ZM34.8647 95.3735C34.8588 95.3623 34.8516 95.3519 34.8433 95.3425C34.8477 95.3525 34.8511 95.363 34.8534 95.3737L34.8647 95.3735ZM33.187 94.6796L33.234 94.6815C33.2775 94.6896 33.3343 94.6121 33.3076 94.5734C33.1559 94.3483 32.9726 94.1462 32.7634 93.9733C32.5647 93.7903 32.3728 93.6063 32.1707 93.4295C31.7762 93.0844 31.3372 92.7738 31.083 92.3126C31.1096 92.298 31.1346 92.2807 31.1577 92.261C31.6209 92.4094 32.0684 92.6034 32.4936 92.8402C32.7998 93.2603 33.1298 93.6625 33.4822 94.0447L34.5929 95.1838C34.6712 95.2645 34.7428 95.3515 34.8069 95.4439C34.8069 95.4439 34.8069 95.4439 34.8176 95.4594C34.8283 95.4749 34.8283 95.4749 34.8319 95.4801C34.9063 95.5742 34.9456 95.6914 34.9429 95.8114C34.9248 95.9116 34.7885 95.9181 34.6901 95.8527C34.5916 95.7873 34.5002 95.6826 34.3998 95.6033C34.01 95.2816 33.6179 94.9729 33.187 94.6796ZM30.2647 92.7905C30.3682 92.8411 30.4767 92.8881 30.5898 92.9472L30.6687 92.9842C30.6816 92.9922 30.6958 92.9978 30.7107 93.0009C30.7107 93.0009 30.7707 93.0052 30.7647 92.9636C30.7533 92.9021 30.7275 92.8441 30.6896 92.7943C30.6294 92.6962 30.5638 92.6015 30.4933 92.5105C30.2627 92.2207 30.0149 91.9449 29.7514 91.6847C29.9773 91.8199 30.1947 91.9689 30.4022 92.131C30.5036 92.2431 30.6315 92.3279 30.7741 92.3774C30.8254 92.3917 30.8792 92.3946 30.9317 92.386C30.9842 92.3774 31.0341 92.3574 31.0781 92.3275C31.2602 92.8385 31.7206 93.18 32.1244 93.5111C32.3351 93.6782 32.5516 93.8374 32.7468 94.0153C32.9537 94.178 33.1282 94.3782 33.2612 94.6055C33.2862 94.6416 33.2175 94.6357 33.1452 94.6247C33.0729 94.6136 33.0129 94.6093 32.9501 94.5955C32.8181 94.5689 32.6886 94.5308 32.5632 94.4815C32.3179 94.3982 32.1041 94.2408 31.9514 94.0311C31.7774 93.8234 31.5941 93.6297 31.4031 93.4414C31.2221 93.2411 31.0066 93.0748 30.7671 92.9505C30.9835 93.1027 31.1779 93.284 31.3449 93.4893C31.4672 93.6222 31.5835 93.7629 31.7006 93.8994C31.5516 93.9012 31.4036 93.874 31.2649 93.8192C31.0901 93.7532 30.9476 93.622 30.8674 93.4532C30.7127 93.1982 30.5098 92.9757 30.2701 92.7983L30.2647 92.7905ZM28.3976 91.0302C28.4795 91.1104 28.5832 91.1647 28.6957 91.1864C28.7729 91.198 28.8516 91.1803 28.9163 91.1369C29.0286 91.2397 29.152 91.3297 29.2842 91.405L29.6321 91.6222C29.8846 91.9435 30.1456 92.255 30.4066 92.5666C30.4708 92.6595 30.5557 92.7382 30.6224 92.8293C30.6584 92.8663 30.6879 92.909 30.7099 92.9557C30.7253 92.9451 30.7099 92.9557 30.6704 92.9372L30.5908 92.9046C30.3795 92.8217 30.1783 92.7152 29.9909 92.587C29.8092 92.4504 29.6393 92.2986 29.4833 92.1332C29.3137 91.9758 29.1108 91.8529 28.9501 91.7085C28.7454 91.4985 28.5599 91.2706 28.3958 91.0276L28.3976 91.0302Z" fill="url(#paint0_linear_1389_70804)"/>
<g opacity="0.7">
<path opacity="0.7" d="M23.0042 92.8216C23.6183 93.1599 24.7732 94.7261 24.9093 95.5778C25.0455 96.4295 25.6323 97.5647 26.5715 99.116C27.5107 100.667 26.7725 102.791 26.7589 103.338C26.7453 103.885 26.7574 106.043 25.3814 106.132C24.0054 106.221 22.7015 103.091 22.3466 99.0235C21.9917 94.9555 22.7294 92.6607 23.0042 92.8216Z" fill="#ECDAC6"/>
</g>
<path d="M23.9456 93.7982C23.7089 93.4304 23.4232 93.0967 23.0964 92.8063L23.0346 92.849C23.0239 92.8335 23.015 92.8206 23.0043 92.8051C22.696 93.4641 22.5059 94.1725 22.4427 94.898C22.432 95.1666 22.4473 95.4357 22.4885 95.7015C22.3765 96.1542 22.3144 96.6179 22.3033 97.0843C22.3233 97.5613 22.3725 98.0368 22.4506 98.508C22.4659 98.5851 22.4889 98.6569 22.5068 98.7323C22.5126 99.5398 22.614 100.344 22.8089 101.128L22.9754 101.738C23.0085 101.841 23.0381 101.938 23.0817 102.046C23.1253 102.153 23.142 102.259 23.2761 102.327C23.3117 102.326 23.3461 102.315 23.3753 102.294C23.4045 102.274 23.4273 102.246 23.4409 102.213C23.4674 102.164 23.4888 102.112 23.5049 102.058C23.5361 101.956 23.561 101.853 23.5792 101.747C23.6039 101.588 23.6195 101.427 23.6261 101.265C23.661 101.371 23.6985 101.474 23.7299 101.575C23.6878 101.919 23.6731 102.265 23.6861 102.612C23.6775 102.972 23.768 103.327 23.9478 103.64C24.1237 103.949 24.3304 104.237 24.5345 104.527C24.7446 104.811 24.9344 105.109 25.1022 105.42C24.9415 105.105 24.7587 104.802 24.5551 104.513C24.3536 104.221 24.152 103.93 23.9926 103.617C23.8301 103.312 23.7545 102.968 23.774 102.624C23.7771 102.373 23.7946 102.123 23.8265 101.874C23.9443 102.394 24.1117 102.901 24.3264 103.39C24.3866 103.535 24.4656 103.671 24.5613 103.795C24.5809 103.824 24.613 103.87 24.6811 103.842C24.6989 103.83 24.714 103.814 24.7255 103.796C24.737 103.777 24.7446 103.757 24.7478 103.735C24.7657 103.658 24.7748 103.579 24.7748 103.499C24.7726 103.188 24.7438 102.877 24.6886 102.571C24.5978 102.066 24.4803 101.571 24.3384 101.074C24.3848 101.141 24.408 101.224 24.4467 101.297C24.5004 101.407 24.5708 101.509 24.6554 101.599C24.7053 102.187 24.8477 102.765 25.0771 103.309C25.1999 103.584 25.3566 103.842 25.5436 104.078C25.718 104.32 25.8608 104.584 25.9686 104.863C25.8665 104.581 25.7288 104.314 25.559 104.067C25.3789 103.83 25.2283 103.571 25.1108 103.297C24.9071 102.775 24.7835 102.226 24.7443 101.667C24.7596 101.671 24.7755 101.673 24.7913 101.671C24.8071 101.669 24.8224 101.664 24.8362 101.657C24.8564 101.634 24.8686 101.605 24.8712 101.575C24.8878 101.535 24.897 101.493 24.8985 101.45C24.8982 101.426 24.8957 101.402 24.8911 101.378C24.9606 101.567 25.0343 101.756 25.0986 101.948C25.1629 102.14 25.2044 102.371 25.2907 102.578C25.3792 102.779 25.4961 102.967 25.6377 103.135C25.5026 102.964 25.3929 102.774 25.3122 102.571C25.2383 102.37 25.216 102.145 25.1356 101.93C25.0245 101.549 24.897 101.172 24.7669 100.797C24.8793 101.009 24.9917 101.221 25.0963 101.439C25.2405 101.732 25.3686 102.033 25.4801 102.34C25.5066 102.417 25.535 102.497 25.5721 102.578C25.5942 102.619 25.6205 102.657 25.6506 102.692C25.6719 102.713 25.6985 102.729 25.7278 102.737C25.7468 102.739 25.7659 102.737 25.7836 102.73C25.8013 102.723 25.8171 102.712 25.8296 102.698C25.908 102.54 25.9415 102.364 25.9264 102.188C25.9245 102.035 25.9093 101.882 25.8808 101.732C25.9686 102.061 26.0828 102.382 26.2222 102.693C26.3164 102.861 26.3946 103.036 26.4557 103.218C26.5133 103.403 26.5362 103.596 26.5234 103.789C26.5444 103.596 26.5294 103.401 26.4791 103.214C26.4259 103.027 26.3564 102.845 26.2713 102.671C26.158 102.384 26.0662 102.089 25.9965 101.789C26.0545 101.857 26.1321 101.906 26.2188 101.929C26.2625 101.935 26.307 101.928 26.3461 101.907C26.3853 101.887 26.4172 101.855 26.4374 101.816C26.4716 101.746 26.4836 101.667 26.4715 101.59C26.4345 101.459 26.3877 101.331 26.3317 101.206C26.1571 100.728 25.986 100.244 25.8027 99.7644L25.8126 99.7347L25.8681 99.5399C25.9002 99.4041 25.9164 99.2649 25.9162 99.1253C25.9228 99.0271 25.9172 98.9285 25.8996 98.8317C26.0036 98.9345 26.0962 99.0482 26.1759 99.1708C26.2839 99.3508 26.3526 99.5515 26.3776 99.7598C26.4436 100.18 26.5604 100.591 26.7255 100.984C26.5772 100.586 26.4784 100.171 26.4313 99.7494C26.4117 99.5284 26.3463 99.3138 26.2393 99.1194C26.1303 98.9392 25.9982 98.7741 25.8465 98.6281C25.8127 98.5273 25.7667 98.4311 25.7093 98.3416C25.67 98.2848 25.629 98.2255 25.6077 98.1563C25.665 98.0882 25.707 98.0087 25.7311 97.923C25.7551 97.8373 25.7607 97.7474 25.7473 97.6593C25.6919 97.4745 25.61 97.2986 25.5042 97.1371C25.3438 96.817 25.2017 96.4958 25.03 96.1759C25.0266 96.1324 25.0232 96.089 25.0154 96.0448C24.9688 95.8192 24.8993 95.5988 24.8081 95.3872C24.7314 95.1771 24.7021 94.9533 24.6052 94.7304C24.4414 94.3836 24.2181 94.068 23.9456 93.7982ZM23.9969 94.3347C23.9926 94.3633 23.9815 94.3904 23.9648 94.414C23.948 94.4375 23.9259 94.4567 23.9004 94.4701C23.7712 94.2627 23.5887 94.0937 23.3721 93.981L23.3421 93.8606C23.2884 93.5505 23.199 93.2476 23.0757 92.9579C23.9523 93.7859 24.0323 94.1768 23.9969 94.3347ZM24.0712 95.4656C24.1342 95.7556 24.2213 96.0398 24.3315 96.3154C24.4089 96.4391 24.4486 96.5826 24.4458 96.7284C24.4389 96.7922 24.4126 96.8522 24.3704 96.9005C24.3283 96.9487 24.2723 96.9828 24.2101 96.9981C24.1552 96.7479 24.0612 96.5078 23.9314 96.2869C23.8121 96.0812 23.6767 95.8853 23.5265 95.701C23.5236 95.4437 23.5155 95.1899 23.4918 94.9356C23.4681 94.6812 23.419 94.3185 23.3614 94.0151C23.5753 94.1797 23.7495 94.3904 23.8711 94.6314C23.9632 94.8691 24.0002 95.1868 24.0712 95.4656ZM24.135 97.0271C24.0564 97.3865 24.2408 98.8914 24.3372 99.6142C24.2007 99.2651 24.0818 98.9094 23.981 98.5485C23.8241 97.969 23.6057 97.4078 23.3297 96.8744C23.3434 96.8614 23.3546 96.8459 23.3627 96.8287C23.4119 96.747 23.4464 96.6573 23.4648 96.5637C23.5078 96.3828 23.533 96.198 23.5399 96.0121C23.5452 95.9207 23.5418 95.8277 23.5428 95.7356L23.8566 96.3271C23.9743 96.5528 24.0741 96.7873 24.155 97.0285L24.135 97.0271ZM22.5463 94.9103C22.6227 94.2031 22.7797 93.5072 23.0144 92.8362C23.0144 92.8362 23.0305 92.8595 23.0247 92.8787C23.0288 92.882 23.0319 92.8865 23.0336 92.8916C23.239 93.5532 23.3608 94.2377 23.3962 94.9292C23.4253 95.2905 23.4518 95.6535 23.4399 96.005C23.4393 96.1826 23.4245 96.3599 23.3956 96.5352C23.3672 96.6921 23.2899 96.9324 23.1304 96.8558C22.8432 96.6429 22.646 96.3301 22.5778 95.9793C22.5082 95.627 22.4976 95.2657 22.5463 94.9103ZM23.5145 101.72C23.4942 101.82 23.4672 101.919 23.4338 102.016C23.4042 102.105 23.3482 102.228 23.3046 102.22C23.261 102.212 23.1825 102.098 23.1375 102.011C23.0895 101.915 23.0488 101.816 23.0158 101.714C22.9506 101.515 22.9016 101.312 22.8693 101.106C22.7413 100.37 22.6635 99.6193 22.5554 98.8741C22.5885 98.9771 22.6242 99.0782 22.6668 99.1784C22.7556 99.4033 22.8712 99.6167 23.011 99.8139C23.0351 99.8405 23.0627 99.8638 23.093 99.883C23.1001 99.8882 23.1082 99.8918 23.1167 99.8938C23.1253 99.8957 23.1341 99.896 23.1427 99.8944C23.307 100.33 23.4668 100.765 23.6128 101.202C23.5907 101.373 23.5463 101.557 23.5067 101.725L23.5145 101.72ZM24.5836 102.579C24.6435 102.88 24.6861 103.184 24.7112 103.49C24.7169 103.565 24.7116 103.641 24.6953 103.714C24.6907 103.748 24.6739 103.778 24.6482 103.8C24.6302 103.813 24.5942 103.788 24.572 103.761C24.4813 103.639 24.4086 103.504 24.3563 103.361C24.1437 102.782 23.979 102.187 23.8638 101.581C23.6741 101.004 23.4394 100.441 23.162 99.9002C23.1781 99.8981 23.1936 99.8921 23.207 99.8829C23.2204 99.8736 23.2314 99.8612 23.2392 99.8469C23.2713 99.7866 23.2889 99.7196 23.2904 99.6513C23.297 99.5311 23.2963 99.4106 23.2882 99.2905C23.2766 99.0811 23.2493 98.8711 23.2298 98.6558C23.4865 99.1191 23.7172 99.5962 23.921 100.085C24.0301 100.353 24.134 100.624 24.2569 100.89L24.289 100.937C24.3634 101.495 24.4766 102.039 24.5759 102.584L24.5836 102.579ZM24.6918 100.826C24.7315 100.963 24.761 101.104 24.7802 101.245C24.7902 101.313 24.7952 101.381 24.7951 101.449C24.7964 101.516 24.754 101.576 24.7605 101.553C24.6669 101.46 24.5913 101.35 24.5375 101.23C24.4573 101.114 24.4035 100.976 24.3413 100.847L23.9683 100.06C23.7268 99.5289 23.4431 99.0194 23.2499 98.4703C23.034 97.9348 22.9468 97.3562 22.9953 96.7814C22.8616 97.3623 22.9127 97.971 23.1414 98.5224L23.1991 98.6389L23.1989 99.2988C23.1992 99.4151 23.1931 99.5313 23.1808 99.6469C23.1769 99.6968 23.1643 99.7455 23.1435 99.791C23.1248 99.7782 23.1078 99.7629 23.0932 99.7457C22.8386 99.3564 22.6417 98.9325 22.5084 98.4871C22.4002 98.0301 22.3647 97.5591 22.4033 97.0914C22.4231 96.6468 22.4698 96.2026 22.5103 95.7551C22.523 95.834 22.5271 95.9114 22.5449 95.9867C22.616 96.3518 22.8166 96.6792 23.1097 96.9083C23.131 96.9206 23.1547 96.9281 23.1792 96.9302C23.2037 96.9324 23.2284 96.9292 23.2515 96.9209C23.5229 97.4442 23.7379 97.995 23.8926 98.5638C24.0125 99.0624 24.1834 99.5475 24.4026 100.011L24.5079 100.213L24.6595 100.719C24.6737 100.739 24.6898 100.762 24.6878 100.798L24.6918 100.826ZM25.8501 102.199C25.8557 102.348 25.8288 102.497 25.7712 102.635C25.7735 102.672 25.7159 102.605 25.6944 102.524C25.6622 102.451 25.6344 102.376 25.6113 102.299C25.3935 101.728 25.1088 101.185 24.763 100.681L24.747 100.658C24.6892 100.492 24.6264 100.33 24.5635 100.167L24.5339 99.9702C24.5339 99.9702 24.422 99.2581 24.3541 98.527C24.5752 98.9844 24.8065 99.4347 25.0456 99.8796C25.3191 100.333 25.5537 100.809 25.7471 101.302C25.7756 101.343 25.7879 101.399 25.8087 101.446C25.855 101.696 25.8664 101.951 25.8424 102.204L25.8501 102.199ZM25.8413 101.564C25.8471 101.576 25.8543 101.586 25.8627 101.595C25.8519 101.588 25.8422 101.58 25.8336 101.57L25.8413 101.564ZM26.2345 101.258C26.2731 101.38 26.3459 101.513 26.3652 101.618C26.3844 101.723 26.3374 101.858 26.2371 101.84C26.124 101.8 26.0283 101.722 25.9665 101.619C25.9665 101.619 25.9576 101.606 25.9522 101.598C25.9469 101.591 25.9522 101.598 25.9415 101.583C25.8777 101.49 25.8216 101.393 25.7738 101.291L25.1007 99.8492C24.8676 99.3846 24.608 98.9337 24.3232 98.4988C24.2483 98.0195 24.2224 97.534 24.2458 97.0497C24.2723 97.0351 24.2973 97.0178 24.3204 96.9981C24.6749 97.39 24.8 97.9175 24.9809 98.4103C25.0749 98.6619 25.1792 98.9063 25.2801 99.1569C25.3679 99.4137 25.4923 99.6566 25.6493 99.8781C25.6778 99.9193 25.7685 99.891 25.7764 99.8474L25.7938 99.801C25.9149 100.301 26.0548 100.784 26.2267 101.264L26.2345 101.258ZM25.466 97.1864C25.5956 97.3211 25.6679 97.5008 25.6679 97.6875C25.6712 97.8368 25.6444 97.9851 25.5889 98.1235C25.5027 97.9657 25.4121 97.8072 25.331 97.6458C25.1979 97.4171 25.097 97.1711 25.0312 96.9149C25.0628 97.1829 25.1422 97.4432 25.2657 97.6834C25.3743 97.9286 25.4907 98.1685 25.6235 98.4047C25.7658 98.6216 25.8374 98.8772 25.8287 99.1362C25.8317 99.2709 25.8216 99.4056 25.7986 99.5384C25.7893 99.602 25.7731 99.6666 25.7569 99.7312C25.7407 99.7958 25.7307 99.8637 25.698 99.833C25.5324 99.6282 25.4068 99.3942 25.3276 99.1431C25.2303 98.8977 25.1578 98.6389 25.0759 98.3828C24.9142 97.8958 24.7446 97.3532 24.3384 96.9857C24.3819 96.9551 24.4183 96.9155 24.4449 96.8694C24.4715 96.8233 24.4878 96.772 24.4925 96.719C24.4966 96.568 24.4626 96.4184 24.3935 96.284C24.3152 96.0326 24.2525 95.7766 24.2059 95.5174C24.3562 95.8559 24.5266 96.1851 24.7162 96.5033C24.7764 96.6014 24.8419 96.6962 24.9125 96.7872C24.9456 96.8403 24.9907 96.8849 25.0442 96.9173C25.0775 96.9324 25.0983 96.88 25.0983 96.88C25.1006 96.865 25.1003 96.8497 25.0975 96.8348L25.0907 96.7479C25.0843 96.6341 25.0787 96.5159 25.059 96.3884C25.138 96.6798 25.2737 96.9528 25.4583 97.1917L25.466 97.1864ZM24.5151 94.7927C24.596 94.9923 24.6367 95.2273 24.724 95.4416C24.8236 95.646 24.9056 95.8585 24.9691 96.0768C25.0229 96.2974 25.0514 96.5233 25.0542 96.7502L25.0567 96.8363C25.0709 96.8569 25.05 96.8981 25.0601 96.8797C25.0241 96.8427 24.9946 96.7999 24.9726 96.7532C24.9084 96.6603 24.8442 96.5674 24.8032 96.4585C24.6039 96.1042 24.4047 95.75 24.1934 95.4002L24.1132 94.9981C24.0894 94.8477 24.0489 94.7005 23.9923 94.5591C24.0558 94.5139 24.1002 94.4466 24.1166 94.3702C24.1361 94.2574 24.1219 94.1411 24.0758 94.0361C24.2413 94.276 24.3851 94.5301 24.5056 94.7955L24.5151 94.7927Z" fill="url(#paint1_linear_1389_70804)"/>
<path d="M22.7356 92.6342C22.7356 92.6342 22.9738 92.5496 23.2335 92.8812C23.4931 93.2128 23.7441 93.3558 23.5795 93.3818C23.415 93.4079 23.3066 93.4217 23.2262 93.3439C23.1754 93.3075 23.1174 93.2826 23.0562 93.271C22.9949 93.2593 22.9319 93.2611 22.8714 93.2763C22.8077 93.3052 22.6052 93.1553 22.7356 92.6342Z" fill="#3D220D"/>
<path d="M27.5676 89.2938C27.5676 89.2938 27.4069 89.485 27.6253 89.845C27.8438 90.2051 27.8889 90.4904 27.9714 90.3457C28.0539 90.2009 28.1052 90.1045 28.0582 90.0035C28.0431 89.9431 28.0408 89.8802 28.0516 89.8189C28.0623 89.7577 28.0857 89.6994 28.1204 89.6478C28.1724 89.5965 28.1012 89.3559 27.5676 89.2938Z" fill="#3D220D"/>
<path d="M23.8482 91.013C23.8571 91.0468 23.8579 91.0821 23.8507 91.1162C23.8434 91.1503 23.8282 91.1822 23.8064 91.2093C23.7845 91.2364 23.7566 91.258 23.7248 91.2723C23.6931 91.2866 23.6584 91.2932 23.6236 91.2916C23.5888 91.29 23.5548 91.2802 23.5244 91.2631C23.494 91.2459 23.4681 91.2219 23.4486 91.1929C23.4292 91.1639 23.4169 91.1307 23.4126 91.0961C23.4083 91.0615 23.4122 91.0264 23.424 90.9936C23.4194 90.9271 23.4399 90.8614 23.4814 90.8094C23.5229 90.7574 23.5824 90.7229 23.6482 90.7127C23.7138 90.7273 23.7712 90.7668 23.8085 90.8227C23.8458 90.8787 23.86 90.9469 23.8482 91.013Z" fill="white"/>
<path d="M23.9163 91.7122C23.9573 91.7716 23.9344 91.8484 23.8853 91.8709C23.8362 91.8934 23.7748 91.8596 23.744 91.7931C23.7273 91.7676 23.7211 91.7366 23.7265 91.7066C23.7319 91.6766 23.7487 91.6498 23.7733 91.6318C23.8028 91.6251 23.8338 91.6296 23.8602 91.6445C23.8866 91.6593 23.9066 91.6835 23.9163 91.7122Z" fill="white"/>
<path d="M27.3763 96.9465C27.3948 97.0558 27.3471 97.1574 27.2683 97.1699C27.2217 97.1703 27.1768 97.1524 27.1431 97.1201C27.1094 97.0878 27.0896 97.0437 27.088 96.9971C27.0747 96.9524 27.0787 96.9044 27.0992 96.8627C27.1197 96.8209 27.1552 96.7885 27.1986 96.7719C27.2448 96.773 27.2889 96.7916 27.3219 96.824C27.3549 96.8565 27.3744 96.9003 27.3763 96.9465Z" fill="white"/>
<path d="M27.5468 97.5317C27.5825 97.5834 27.5706 97.6487 27.5284 97.6703C27.4863 97.6918 27.432 97.6683 27.4015 97.6131C27.3709 97.558 27.3758 97.4935 27.418 97.472C27.4602 97.4505 27.5162 97.4766 27.5468 97.5317Z" fill="white"/>
</g>
<line x1="77.1512" y1="136.98" x2="75.5528" y2="138.823" stroke="black"/>
<line x1="72.839" y1="141.512" x2="70.8748" y2="142.618" stroke="black"/>
<line x1="67.5441" y1="144.521" x2="64.7249" y2="144.771" stroke="black"/>
<line x1="60.5719" y1="144.126" x2="58.0334" y2="142.875" stroke="black"/>
<line x1="55.3609" y1="140.646" x2="53.1624" y2="138.864" stroke="black"/>
<line x1="51.4748" y1="136.402" x2="50.3492" y2="133.805" stroke="black"/>
<line x1="49.9899" y1="131.433" x2="49.5717" y2="128.634" stroke="black"/>
<line x1="49.4056" y1="126.921" x2="50.4395" y2="124.286" stroke="black"/>
<line x1="51.2247" y1="122.673" x2="53.7069" y2="121.313" stroke="black"/>
<line x1="55.1894" y1="121.199" x2="57.9755" y2="121.696" stroke="black"/>
<line x1="58.9662" y1="122.817" x2="59.2519" y2="125.632" stroke="black"/>
<line x1="58.7504" y1="127.071" x2="57.608" y2="129.66" stroke="black"/>
<line x1="57.1504" y1="131.334" x2="55.1711" y2="133.357" stroke="black"/>
<line x1="53.8925" y1="135.25" x2="51.9133" y2="137.273" stroke="black"/>
<line x1="50.7419" y1="138.515" x2="48.819" y2="140.592" stroke="black"/>
<line x1="46.9518" y1="141.148" x2="44.1222" y2="141.097" stroke="black"/>
<line x1="42.2249" y1="140.33" x2="39.7794" y2="138.906" stroke="black"/>
<line x1="37.8415" y1="136.658" x2="36.1195" y2="134.412" stroke="black"/>
<line x1="35.1596" y1="131.597" x2="34.6796" y2="128.807" stroke="black"/>
<line x1="34.6921" y1="126.842" x2="34.8435" y2="124.016" stroke="black"/>
<line x1="34.8452" y1="122.152" x2="35.0585" y2="119.33" stroke="black"/>
<line x1="35.185" y1="117.802" x2="35.3983" y2="114.98" stroke="black"/>
<line x1="35.3985" y1="113.399" x2="35.4271" y2="110.569" stroke="black"/>
<line x1="35.1642" y1="108.71" x2="34.5521" y2="105.947" stroke="black"/>
<line x1="33.9246" y1="104.814" x2="33.0204" y2="102.132" stroke="black"/>
</g>
<defs>
<linearGradient id="paint0_linear_1389_70804" x1="27.9238" y1="89.4699" x2="38.0787" y2="96.4985" gradientUnits="userSpaceOnUse">
<stop stop-color="#683C1E"/>
<stop offset="1" stop-color="#F7A974"/>
</linearGradient>
<linearGradient id="paint1_linear_1389_70804" x1="3666.76" y1="4469.66" x2="3648.36" y2="4857.22" gradientUnits="userSpaceOnUse">
<stop stop-color="#683C1E"/>
<stop offset="1" stop-color="#F7A974"/>
</linearGradient>
<clipPath id="clip0_1389_70804">
<rect width="313" height="279" fill="white" transform="translate(0.5)"/>
</clipPath>
<clipPath id="clip1_1389_70804">
<rect width="18.5033" height="18.5033" fill="white" transform="translate(14.9531 92.4766) rotate(-34.6531)"/>
</clipPath>
</defs>
</svg>
