<svg xmlns="http://www.w3.org/2000/svg" width="18" height="24" viewBox="0 0 18 24">
    <defs>
        <style>
            .cls-1{fill:#013b81}
        </style>
    </defs>
    <g id="shopping-list" transform="translate(-64)">
        <g id="Group_9" transform="translate(67.001 9)">
            <g id="Group_8">
                <path id="Path_7" d="M133.8 192.228a.752.752 0 0 0-1.062 0l-2.469 2.471-.969-.971a.75.75 0 1 0-1.061 1.061l1.5 1.5a.743.743 0 0 0 .529.221.753.753 0 0 0 .531-.219l3-3a.751.751 0 0 0 .001-1.063z" class="cls-1" transform="translate(-128.024 -192.008)"/>
            </g>
        </g>
        <g id="Group_11" transform="translate(67.001 15)">
            <g id="Group_10">
                <path id="Path_8" d="M133.8 320.228a.752.752 0 0 0-1.062 0l-2.469 2.471-.969-.969a.75.75 0 1 0-1.061 1.061l1.5 1.5a.751.751 0 0 0 1.061 0l3-3a.751.751 0 0 0 0-1.063z" class="cls-1" transform="translate(-128.024 -320.008)"/>
            </g>
        </g>
        <g id="Group_13" transform="translate(74.5 10.5)">
            <g id="Group_12">
                <path id="Path_9" d="M291.75 224h-3a.75.75 0 0 0 0 1.5h3a.75.75 0 0 0 0-1.5z" class="cls-1" transform="translate(-288 -224)"/>
            </g>
        </g>
        <g id="Group_15" transform="translate(74.5 16.5)">
            <g id="Group_14">
                <path id="Path_10" d="M291.75 352h-3a.75.75 0 0 0 0 1.5h3a.75.75 0 0 0 0-1.5z" class="cls-1" transform="translate(-288 -352)"/>
            </g>
        </g>
        <g id="Group_17" transform="translate(64)">
            <g id="Group_16">
                <path id="Path_11" d="M80.5 3h-3v-.75a.75.75 0 0 0-.75-.75h-1.628a2.252 2.252 0 0 0-4.245 0H69.25a.75.75 0 0 0-.75.75V3h-3A1.5 1.5 0 0 0 64 4.5v18a1.5 1.5 0 0 0 1.5 1.5h15a1.5 1.5 0 0 0 1.5-1.5v-18A1.5 1.5 0 0 0 80.5 3zM70 3h1.5a.75.75 0 0 0 .75-.75.75.75 0 0 1 1.5 0 .75.75 0 0 0 .75.75H76v1.5h-6zm10.5 19.5h-15v-18h3v.75a.75.75 0 0 0 .75.75h7.5a.75.75 0 0 0 .75-.75V4.5h3z" class="cls-1" transform="translate(-64)"/>
            </g>
        </g>
    </g>
</svg>
