<svg xmlns="http://www.w3.org/2000/svg" width="24" height="24" viewBox="0 0 24 24">
    <defs>
        <style>
            .cls-1{fill:#013b81}
        </style>
    </defs>
    <g id="shuttle">
        <path id="Path_12" d="M23.972 1.792A1.866 1.866 0 0 0 22.208.028a18.526 18.526 0 0 0-9.287 1.859A18.233 18.233 0 0 0 7.6 6.3l-.057.069-3.515.271a1.855 1.855 0 0 0-1.414.832L.214 11.1a1.285 1.285 0 0 0 .875 1.979l2.961.459-.031.173a1.864 1.864 0 0 0 .523 1.622l4.125 4.125a1.869 1.869 0 0 0 1.319.548 1.838 1.838 0 0 0 .3-.025l.173-.031.459 2.961a1.284 1.284 0 0 0 1.979.875l3.627-2.4a1.855 1.855 0 0 0 .832-1.414l.271-3.515.073-.057a18.231 18.231 0 0 0 4.415-5.324 18.527 18.527 0 0 0 1.859-9.287zM15.75 20.215l-3.469 2.294-.447-2.886a15.751 15.751 0 0 0 4.3-2.047l-.177 2.29a.458.458 0 0 1-.205.349zm-6.089-1.752l-4.124-4.124a.456.456 0 0 1-.13-.4 12.1 12.1 0 0 1 .549-2.089l6.189 6.189a12.147 12.147 0 0 1-2.088.55.456.456 0 0 1-.4-.13zM4.134 8.044l2.29-.177a15.75 15.75 0 0 0-2.047 4.3l-2.886-.447 2.293-3.47a.458.458 0 0 1 .35-.206zm12.666 7.28a16.121 16.121 0 0 1-3.255 2.129l-6.998-6.996A16.4 16.4 0 0 1 8.676 7.2a16.78 16.78 0 0 1 4.891-4.067 17.1 17.1 0 0 1 8.565-1.7.461.461 0 0 1 .436.436 17.1 17.1 0 0 1-1.7 8.565 16.78 16.78 0 0 1-4.068 4.89z" class="cls-1"/>
        <path id="Path_13" d="M279.239 93.346a3.513 3.513 0 1 0-2.486-1.028 3.505 3.505 0 0 0 2.486 1.028zm-1.492-5.005a2.109 2.109 0 1 1-.618 1.492 2.1 2.1 0 0 1 .618-1.492z" class="cls-1" transform="translate(-262.799 -82.272)"/>
        <path id="Path_14" d="M1 346.666a.7.7 0 0 0 .5-.206l2.3-2.3a.7.7 0 0 0-.994-.994l-2.3 2.3a.7.7 0 0 0 .5 1.2z" class="cls-1" transform="translate(-.288 -326.888)"/>
        <path id="Path_15" d="M5.614 388.051a.7.7 0 0 0-.994 0l-4.414 4.414a.7.7 0 1 0 .994.994l4.413-4.413a.7.7 0 0 0 .001-.995z" class="cls-1" transform="translate(-.001 -369.665)"/>
        <path id="Path_16" d="M92.564 432.932l-2.3 2.3a.7.7 0 1 0 .994.994l2.3-2.3a.7.7 0 1 0-.994-.994z" class="cls-1" transform="translate(-85.841 -412.442)"/>
    </g>
</svg>
