<svg width="20" height="30" viewBox="0 0 20 30" fill="none" xmlns="http://www.w3.org/2000/svg">
<path d="M16.668 23.5007H17.168V23.0007V4.33398V3.83398H16.668H3.33464H2.83464V4.33398V23.0007V23.5007H3.33464H16.668ZM12.668 27.5006H13.168V27.0006V25.6673V25.1673H12.668H7.33464H6.83464V25.6673V27.0006V27.5006H7.33464H12.668ZM4.66797 0.833984H15.3346C17.2718 0.833984 18.8346 2.39679 18.8346 4.33398V25.6673C18.8346 27.6045 17.2718 29.1673 15.3346 29.1673H4.66797C2.73078 29.1673 1.16797 27.6045 1.16797 25.6673V4.33398C1.16797 2.39679 2.73078 0.833984 4.66797 0.833984Z" fill="white" stroke="black"/>
</svg>
