<svg width="360" height="350" viewBox="0 0 360 350" fill="none" xmlns="http://www.w3.org/2000/svg">
<g clip-path="url(#clip0_757_26808)">
<g clip-path="url(#clip1_757_26808)">
<path d="M177.816 219.059C177.816 219.059 171.984 251.182 142.148 265.728L157.2 296.912C157.2 296.912 192.451 284.858 215.057 296.513" stroke="#E4E9FF" stroke-width="2" stroke-miterlimit="10"/>
<path d="M100.73 284.262L140.881 264.687C142.058 264.114 143.476 264.61 144.048 265.795L158.437 295.606C159.009 296.791 158.519 298.218 157.342 298.791L117.191 318.366C116.014 318.94 114.596 318.444 114.024 317.258L99.635 287.448C99.0627 286.263 99.5529 284.836 100.73 284.262Z" stroke="#E4E9FF" stroke-width="2" stroke-miterlimit="10"/>
<path d="M141.935 307.34C141.935 307.34 163.391 323.401 171.479 340.675L154.046 349.175C154.046 349.175 133.493 319.412 122.51 316.811L141.935 307.34Z" stroke="#E4E9FF" stroke-width="2" stroke-miterlimit="10"/>
<path d="M137.232 269.184L152.777 301.388" stroke="#E4E9FF" stroke-width="2" stroke-miterlimit="10"/>
<path d="M129.777 272.82L145.322 305.024" stroke="#E4E9FF" stroke-width="2" stroke-miterlimit="10"/>
<path d="M122.312 276.457L137.857 308.661" stroke="#E4E9FF" stroke-width="2" stroke-miterlimit="10"/>
<path d="M113.793 280.613L129.337 312.817" stroke="#E4E9FF" stroke-width="2" stroke-miterlimit="10"/>
<path d="M106.33 284.25L121.874 316.454" stroke="#E4E9FF" stroke-width="2" stroke-miterlimit="10"/>
<path d="M242.923 272.082L226.843 266.449" stroke="#C5D2FF" stroke-width="2" stroke-miterlimit="10"/>
<path d="M230.008 241.859L215.09 249.132" stroke="#C5D2FF" stroke-width="2" stroke-miterlimit="10"/>
<path d="M214.092 212.354L208.541 228.533" stroke="#C5D2FF" stroke-width="2" stroke-miterlimit="10"/>
<path d="M190.181 260.902C200.482 282.243 211.7 298.15 215.227 296.43C218.755 294.71 213.268 276.009 202.968 254.668C192.667 233.328 181.459 217.416 177.921 219.14C174.383 220.865 179.88 239.562 190.181 260.902V260.902Z" stroke="#E4E9FF" stroke-width="2" stroke-miterlimit="10"/>
<path d="M187.205 250.456C187.344 250.388 187.472 250.299 187.611 250.232C192.15 248.019 197.65 250.005 199.894 254.653C202.137 259.301 200.285 264.872 195.745 267.085C195.607 267.153 195.463 267.21 195.32 267.267L187.2 250.445L187.205 250.456Z" fill="#FAE5E4"/>
</g>
<ellipse cx="278.507" cy="219.347" rx="2.38182" ry="2.39376" fill="url(#paint0_linear_757_26808)"/>
<ellipse cx="321.804" cy="317.538" rx="2.38182" ry="2.39376" fill="url(#paint1_linear_757_26808)"/>
<ellipse cx="26.4951" cy="142.448" rx="2.38182" ry="2.39376" fill="url(#paint2_linear_757_26808)"/>
<ellipse cx="95.7881" cy="216.814" rx="2.38182" ry="2.39376" fill="url(#paint3_linear_757_26808)"/>
<ellipse cx="305.339" cy="95.302" rx="2.38182" ry="2.39376" fill="url(#paint4_linear_757_26808)"/>
<g clip-path="url(#clip2_757_26808)">
<path d="M322.288 51.3186C334.171 46.5817 339.967 33.1021 335.234 21.2111C330.5 9.31998 317.029 3.52032 305.146 8.25717C293.262 12.994 287.466 26.4736 292.2 38.3647C296.934 50.2558 310.405 56.0554 322.288 51.3186Z" stroke="#FAE5E4" stroke-width="2" stroke-miterlimit="10"/>
<path d="M320.978 47.9302C330.991 43.9147 335.855 32.5372 331.842 22.5179C327.829 12.4986 316.459 7.63164 306.446 11.6472C296.433 15.6627 291.57 27.0402 295.582 37.0595C299.595 47.0788 310.965 51.9458 320.978 47.9302Z" stroke="#FAE5E4" stroke-width="2" stroke-miterlimit="10"/>
<path d="M323.557 39.6394C328.995 34.1982 328.995 25.3761 323.557 19.9348C318.12 14.4935 309.303 14.4935 303.865 19.9348C298.428 25.3761 298.428 34.1981 303.865 39.6394C309.303 45.0807 318.12 45.0807 323.557 39.6394Z" stroke="#FAE5E4" stroke-width="2" stroke-miterlimit="10"/>
<path d="M313.716 35.0935C316.644 35.0935 319.018 32.7181 319.018 29.788C319.018 26.8578 316.644 24.4824 313.716 24.4824C310.788 24.4824 308.414 26.8578 308.414 29.788C308.414 32.7181 310.788 35.0935 313.716 35.0935Z" stroke="#FAE5E4" stroke-width="2" stroke-miterlimit="10"/>
<path d="M320.332 26.9548L346.219 14.3145" stroke="#F1A9A4" stroke-width="2" stroke-miterlimit="10"/>
<path d="M312.984 30.3575L315.778 26.1649L318.571 21.9766L320.8 26.5415L323.024 31.1064L318.002 30.734L312.984 30.3575Z" fill="#EC8078"/>
<path d="M341.934 16.2852L344.045 10.1387" stroke="#F1A9A4" stroke-width="2" stroke-miterlimit="10"/>
<path d="M341.934 16.2852L348.076 18.4023" stroke="#F1A9A4" stroke-width="2" stroke-miterlimit="10"/>
<path d="M337.617 18.3907L339.733 12.2441" stroke="#F1A9A4" stroke-width="2" stroke-miterlimit="10"/>
<path d="M337.617 18.3887L343.76 20.5059" stroke="#F1A9A4" stroke-width="2" stroke-miterlimit="10"/>
</g>
<g clip-path="url(#clip3_757_26808)">
<path d="M52.7969 313.008L54.9915 319.505" stroke="#FAE5E4" stroke-width="2" stroke-miterlimit="10"/>
<path d="M58.2734 312.93L57.6843 319.852" stroke="#FAE5E4" stroke-width="2" stroke-miterlimit="10"/>
<path d="M63.5873 314.623L60.1686 320.671" stroke="#FAE5E4" stroke-width="2" stroke-miterlimit="10"/>
<path d="M68.0052 317.861L62.5607 321.954" stroke="#FAE5E4" stroke-width="2" stroke-miterlimit="10"/>
<path d="M47.1349 322.006C47.1349 322.006 59.4504 313.326 67.8321 328.279C67.8321 328.279 54.1914 335.223 47.1349 322.006Z" stroke="#FAE5E4" stroke-width="2" stroke-miterlimit="10"/>
<path d="M56.6806 327.84C58.3127 328.335 60.0349 327.406 60.5271 325.765C61.0194 324.125 60.0953 322.394 58.4631 321.9C56.8309 321.405 55.1088 322.334 54.6166 323.974C54.1243 325.614 55.0484 327.345 56.6806 327.84Z" stroke="#FAE5E4" stroke-width="2" stroke-miterlimit="10"/>
</g>
<g clip-path="url(#clip4_757_26808)">
<path d="M308.738 166.814L311.716 172.989" stroke="#EEE8F4" stroke-width="2" stroke-miterlimit="10"/>
<path d="M314.168 166.057L314.436 172.999" stroke="#EEE8F4" stroke-width="2" stroke-miterlimit="10"/>
<path d="M319.643 167.076L316.995 173.502" stroke="#EEE8F4" stroke-width="2" stroke-miterlimit="10"/>
<path d="M324.428 169.74L319.53 174.48" stroke="#EEE8F4" stroke-width="2" stroke-miterlimit="10"/>
<path d="M304.23 176.449C304.23 176.449 315.382 166.304 325.54 180.1C325.54 180.1 312.859 188.686 304.23 176.449Z" stroke="#EEE8F4" stroke-width="2" stroke-miterlimit="10"/>
<path d="M314.419 181.05C316.1 181.338 317.695 180.202 317.981 178.513C318.268 176.824 317.137 175.221 315.457 174.933C313.776 174.646 312.182 175.781 311.895 177.47C311.609 179.159 312.739 180.762 314.419 181.05Z" stroke="#EEE8F4" stroke-width="2" stroke-miterlimit="10"/>
</g>
<g clip-path="url(#clip5_757_26808)">
<path d="M27.7422 37.2832L32.9479 41.723" stroke="#E4E9FF" stroke-width="2" stroke-miterlimit="10"/>
<path d="M32.4023 34.3848L35.4373 40.6269" stroke="#E4E9FF" stroke-width="2" stroke-miterlimit="10"/>
<path d="M37.8248 33.0935L37.9856 40.0474" stroke="#E4E9FF" stroke-width="2" stroke-miterlimit="10"/>
<path d="M43.2695 33.5904L40.693 39.9144" stroke="#E4E9FF" stroke-width="2" stroke-miterlimit="10"/>
<path d="M27.4878 47.9243C27.4878 47.9243 33.6125 34.1168 48.4498 42.6134C48.4498 42.6134 40.3003 55.6159 27.4878 47.9243Z" stroke="#E4E9FF" stroke-width="2" stroke-miterlimit="10"/>
<path d="M38.6584 47.9982C40.3115 47.5794 41.3137 45.8931 40.897 44.2317C40.4803 42.5704 38.8024 41.5631 37.1494 41.9819C35.4963 42.4007 34.4941 44.087 34.9108 45.7484C35.3275 47.4097 37.0054 48.417 38.6584 47.9982Z" stroke="#E4E9FF" stroke-width="2" stroke-miterlimit="10"/>
</g>
</g>
<defs>
<linearGradient id="paint0_linear_757_26808" x1="280.889" y1="221.741" x2="275.6" y2="221.065" gradientUnits="userSpaceOnUse">
<stop stop-color="#0065F2"/>
<stop offset="1" stop-color="#7298FF"/>
</linearGradient>
<linearGradient id="paint1_linear_757_26808" x1="324.186" y1="319.932" x2="318.897" y2="319.257" gradientUnits="userSpaceOnUse">
<stop stop-color="#E13019"/>
<stop offset="1" stop-color="#EC8078"/>
</linearGradient>
<linearGradient id="paint2_linear_757_26808" x1="28.8769" y1="144.842" x2="23.5882" y2="144.167" gradientUnits="userSpaceOnUse">
<stop stop-color="#E13019"/>
<stop offset="1" stop-color="#EC8078"/>
</linearGradient>
<linearGradient id="paint3_linear_757_26808" x1="98.1699" y1="219.207" x2="92.8812" y2="218.532" gradientUnits="userSpaceOnUse">
<stop stop-color="#0065F2"/>
<stop offset="1" stop-color="#7298FF"/>
</linearGradient>
<linearGradient id="paint4_linear_757_26808" x1="307.721" y1="92.9082" x2="302.957" y2="92.9082" gradientUnits="userSpaceOnUse">
<stop stop-color="#EDA224"/>
<stop offset="1" stop-color="#F0B876"/>
</linearGradient>
<clipPath id="clip0_757_26808">
<rect width="360" height="350" fill="white" transform="matrix(-1 0 0 1 360 0)"/>
</clipPath>
<clipPath id="clip1_757_26808">
<rect width="139.008" height="109.995" fill="white" transform="matrix(-0.898863 0.438229 0.434695 0.900578 210.432 201.301)"/>
</clipPath>
<clipPath id="clip2_757_26808">
<rect width="57.934" height="47.6075" fill="white" transform="translate(289.926 5.98438)"/>
</clipPath>
<clipPath id="clip3_757_26808">
<rect width="23.8282" height="17.588" fill="white" transform="matrix(0.957008 0.290062 -0.287415 0.957806 49.5977 310.129)"/>
</clipPath>
<clipPath id="clip4_757_26808">
<rect width="23.8216" height="17.5928" fill="white" transform="matrix(0.985637 0.168876 -0.167242 0.985916 305.211 164.355)"/>
</clipPath>
<clipPath id="clip5_757_26808">
<rect width="23.8253" height="17.59" fill="white" transform="matrix(0.969373 -0.245595 0.243296 0.969952 23.5273 36.4648)"/>
</clipPath>
</defs>
</svg>
