<svg width="1320" height="456" viewBox="0 0 1320 456" fill="none" xmlns="http://www.w3.org/2000/svg">
<g clip-path="url(#clip0_757_22566)">
<g clip-path="url(#clip1_757_22566)">
<path d="M661.715 216.139C661.715 216.139 651.216 273.678 597.505 299.733L624.602 355.59C624.602 355.59 688.06 333.999 728.756 354.875" stroke="#E4E9FF" stroke-width="2" stroke-miterlimit="10"/>
<path d="M522.947 332.932L595.226 297.869C597.345 296.841 599.898 297.73 600.928 299.853L626.831 353.249C627.861 355.373 626.979 357.928 624.86 358.956L552.581 394.019C550.462 395.047 547.909 394.158 546.879 392.034L520.976 338.638C519.946 336.514 520.829 333.959 522.947 332.932Z" stroke="#E4E9FF" stroke-width="2" stroke-miterlimit="10"/>
<path d="M597.121 374.265C597.121 374.265 635.745 403.034 650.305 433.976L618.923 449.2C618.923 449.2 581.924 395.889 562.152 391.229L597.121 374.265Z" stroke="#E4E9FF" stroke-width="2" stroke-miterlimit="10"/>
<path d="M588.66 305.924L616.643 363.608" stroke="#E4E9FF" stroke-width="2" stroke-miterlimit="10"/>
<path d="M575.232 312.438L603.215 370.121" stroke="#E4E9FF" stroke-width="2" stroke-miterlimit="10"/>
<path d="M561.805 318.951L589.787 376.635" stroke="#E4E9FF" stroke-width="2" stroke-miterlimit="10"/>
<path d="M546.459 326.396L574.442 384.079" stroke="#E4E9FF" stroke-width="2" stroke-miterlimit="10"/>
<path d="M533.031 332.909L561.014 390.593" stroke="#E4E9FF" stroke-width="2" stroke-miterlimit="10"/>
<path d="M778.922 311.109L749.975 301.018" stroke="#C5D2FF" stroke-width="2" stroke-miterlimit="10"/>
<path d="M755.67 256.973L728.815 270" stroke="#C5D2FF" stroke-width="2" stroke-miterlimit="10"/>
<path d="M727.023 204.124L717.03 233.105" stroke="#C5D2FF" stroke-width="2" stroke-miterlimit="10"/>
<path d="M683.973 291.088C702.516 329.313 722.712 357.806 729.061 354.726C735.411 351.646 725.535 318.147 706.991 279.922C688.448 241.697 668.271 213.195 661.903 216.284C655.534 219.374 665.429 252.863 683.973 291.088V291.088Z" stroke="#E4E9FF" stroke-width="2" stroke-miterlimit="10"/>
<path d="M678.618 272.38C678.867 272.259 679.098 272.099 679.347 271.978C687.519 268.014 697.42 271.572 701.459 279.898C705.498 288.223 702.163 298.202 693.991 302.166C693.742 302.287 693.483 302.389 693.225 302.491L678.608 272.36L678.618 272.38Z" fill="#FAE5E4"/>
</g>
<circle cx="953" cy="315" r="4" fill="url(#paint0_linear_757_22566)"/>
<circle cx="827" cy="449" r="4" fill="url(#paint1_linear_757_22566)"/>
<circle cx="434" cy="304" r="4" fill="url(#paint2_linear_757_22566)"/>
<circle cx="274" cy="114" r="4" fill="url(#paint3_linear_757_22566)"/>
<circle cx="90" cy="249" r="4" fill="url(#paint4_linear_757_22566)"/>
<circle cx="1205" cy="104" r="4" fill="url(#paint5_linear_757_22566)"/>
<g clip-path="url(#clip2_757_22566)">
<path d="M1115.39 304.345C1143.81 293.025 1157.67 260.809 1146.35 232.39C1135.03 203.971 1102.82 190.11 1074.4 201.43C1045.98 212.751 1032.12 244.967 1043.44 273.386C1054.76 301.805 1086.97 315.666 1115.39 304.345Z" stroke="#FAE5E4" stroke-width="2" stroke-miterlimit="10"/>
<path d="M1112.27 296.25C1136.21 286.653 1147.84 259.461 1138.25 235.516C1128.65 211.57 1101.46 199.938 1077.51 209.535C1053.57 219.132 1041.94 246.324 1051.53 270.27C1061.13 294.215 1088.32 305.847 1112.27 296.25Z" stroke="#FAE5E4" stroke-width="2" stroke-miterlimit="10"/>
<path d="M1118.43 276.436C1131.44 263.432 1131.44 242.347 1118.43 229.343C1105.43 216.339 1084.34 216.339 1071.34 229.343C1058.33 242.347 1058.33 263.432 1071.34 276.436C1084.34 289.441 1105.43 289.441 1118.43 276.436Z" stroke="#FAE5E4" stroke-width="2" stroke-miterlimit="10"/>
<path d="M1094.89 265.57C1101.89 265.57 1107.57 259.893 1107.57 252.89C1107.57 245.887 1101.89 240.21 1094.89 240.21C1087.89 240.21 1082.21 245.887 1082.21 252.89C1082.21 259.893 1087.89 265.57 1094.89 265.57Z" stroke="#FAE5E4" stroke-width="2" stroke-miterlimit="10"/>
<path d="M1110.71 246.12L1172.62 215.91" stroke="#F1A9A4" stroke-width="2" stroke-miterlimit="10"/>
<path d="M1093.14 254.25L1099.82 244.23L1106.5 234.22L1111.83 245.13L1117.15 256.04L1105.14 255.15L1093.14 254.25Z" fill="#EC8078"/>
<path d="M1162.37 220.62L1167.42 205.93" stroke="#F1A9A4" stroke-width="2" stroke-miterlimit="10"/>
<path d="M1162.37 220.62L1177.06 225.68" stroke="#F1A9A4" stroke-width="2" stroke-miterlimit="10"/>
<path d="M1152.05 225.65L1157.11 210.96" stroke="#F1A9A4" stroke-width="2" stroke-miterlimit="10"/>
<path d="M1152.05 225.649L1166.74 230.709" stroke="#F1A9A4" stroke-width="2" stroke-miterlimit="10"/>
</g>
<g clip-path="url(#clip3_757_22566)">
<path d="M245.209 185.703C221.043 204.461 216.659 239.256 235.416 263.422C254.173 287.588 288.969 291.972 313.135 273.215C337.3 254.458 341.685 219.662 322.928 195.496C304.17 171.331 269.375 166.946 245.209 185.703Z" stroke="#E4F0E8" stroke-width="2" stroke-miterlimit="10"/>
<path d="M250.456 192.614C230.11 208.475 226.474 237.826 242.335 258.171C258.195 278.517 287.546 282.153 307.892 266.292C328.237 250.432 331.873 221.081 316.013 200.735C300.152 180.39 270.801 176.754 250.456 192.614Z" stroke="#E4F0E8" stroke-width="2" stroke-miterlimit="10"/>
<path d="M250.029 213.36C241.14 229.46 246.986 249.718 263.087 258.606C279.187 267.495 299.445 261.649 308.334 245.548C317.222 229.448 311.376 209.19 295.275 200.301C279.175 191.413 258.917 197.259 250.029 213.36Z" stroke="#E4F0E8" stroke-width="2" stroke-miterlimit="10"/>
<path d="M275.66 217.273C268.932 219.214 265.052 226.243 266.993 232.971C268.935 239.7 275.964 243.58 282.692 241.638C289.421 239.696 293.301 232.668 291.359 225.939C289.417 219.211 282.389 215.331 275.66 217.273Z" stroke="#E4F0E8" stroke-width="2" stroke-miterlimit="10"/>
<path d="M265.854 240.347L214.748 286.539" stroke="#A1D0B3" stroke-width="2" stroke-miterlimit="10"/>
<path d="M280.481 227.664L276.841 239.143L273.199 250.613L265.053 241.609L256.916 232.602L268.702 230.126L280.481 227.664Z" fill="#72BE92"/>
<path d="M223.29 279.171L222.511 294.685" stroke="#A1D0B3" stroke-width="2" stroke-miterlimit="10"/>
<path d="M223.289 279.171L207.772 278.383" stroke="#A1D0B3" stroke-width="2" stroke-miterlimit="10"/>
<path d="M231.811 271.477L231.023 286.994" stroke="#A1D0B3" stroke-width="2" stroke-miterlimit="10"/>
<path d="M231.811 271.478L216.294 270.689" stroke="#A1D0B3" stroke-width="2" stroke-miterlimit="10"/>
</g>
<g clip-path="url(#clip4_757_22566)">
<path d="M324.121 382.002L327.807 392.86" stroke="#FAE5E4" stroke-width="2" stroke-miterlimit="10"/>
<path d="M333.322 381.871L332.333 393.438" stroke="#FAE5E4" stroke-width="2" stroke-miterlimit="10"/>
<path d="M342.244 384.7L336.503 394.806" stroke="#FAE5E4" stroke-width="2" stroke-miterlimit="10"/>
<path d="M349.664 390.113L340.521 396.953" stroke="#FAE5E4" stroke-width="2" stroke-miterlimit="10"/>
<path d="M314.616 397.036C314.616 397.036 335.298 382.532 349.374 407.518C349.374 407.518 326.466 419.121 314.616 397.036Z" stroke="#FAE5E4" stroke-width="2" stroke-miterlimit="10"/>
<path d="M330.641 406.783C333.382 407.61 336.275 406.058 337.101 403.317C337.928 400.576 336.376 397.684 333.635 396.857C330.894 396.03 328.002 397.582 327.175 400.323C326.348 403.064 327.9 405.957 330.641 406.783Z" stroke="#FAE5E4" stroke-width="2" stroke-miterlimit="10"/>
</g>
<g clip-path="url(#clip5_757_22566)">
<path d="M1188.04 398.492L1196.51 406.211" stroke="#E4F0E8" stroke-width="2" stroke-miterlimit="10"/>
<path d="M1196.03 393.925L1200.76 404.527" stroke="#E4F0E8" stroke-width="2" stroke-miterlimit="10"/>
<path d="M1205.2 392.085L1205.07 403.707" stroke="#E4F0E8" stroke-width="2" stroke-miterlimit="10"/>
<path d="M1214.31 393.231L1209.62 403.641" stroke="#E4F0E8" stroke-width="2" stroke-miterlimit="10"/>
<path d="M1186.99 416.248C1186.99 416.248 1198.08 393.547 1222.48 408.604C1222.48 408.604 1208.05 429.842 1186.99 416.248Z" stroke="#E4F0E8" stroke-width="2" stroke-miterlimit="10"/>
<path d="M1205.73 417.024C1208.53 416.421 1210.31 413.664 1209.71 410.865C1209.11 408.066 1206.35 406.286 1203.55 406.889C1200.75 407.492 1198.97 410.249 1199.57 413.048C1200.18 415.847 1202.93 417.627 1205.73 417.024Z" stroke="#E4F0E8" stroke-width="2" stroke-miterlimit="10"/>
</g>
<g clip-path="url(#clip6_757_22566)">
<path d="M1032.34 103.297L1037.34 113.615" stroke="#EEE8F4" stroke-width="2" stroke-miterlimit="10"/>
<path d="M1041.45 102.028L1041.9 113.629" stroke="#EEE8F4" stroke-width="2" stroke-miterlimit="10"/>
<path d="M1050.65 103.731L1046.21 114.47" stroke="#EEE8F4" stroke-width="2" stroke-miterlimit="10"/>
<path d="M1058.68 108.184L1050.46 116.103" stroke="#EEE8F4" stroke-width="2" stroke-miterlimit="10"/>
<path d="M1024.76 119.391C1024.76 119.391 1043.49 102.439 1060.55 125.492C1060.55 125.492 1039.26 139.84 1024.76 119.391Z" stroke="#EEE8F4" stroke-width="2" stroke-miterlimit="10"/>
<path d="M1041.87 127.081C1044.69 127.562 1047.37 125.664 1047.85 122.842C1048.33 120.02 1046.44 117.342 1043.61 116.86C1040.79 116.379 1038.11 118.277 1037.63 121.099C1037.15 123.922 1039.05 126.6 1041.87 127.081Z" stroke="#EEE8F4" stroke-width="2" stroke-miterlimit="10"/>
</g>
<g clip-path="url(#clip7_757_22566)">
<path d="M97.748 69.041L106.491 76.46" stroke="#E4E9FF" stroke-width="2" stroke-miterlimit="10"/>
<path d="M105.574 64.1982L110.671 74.629" stroke="#E4E9FF" stroke-width="2" stroke-miterlimit="10"/>
<path d="M114.682 62.0396L114.952 73.6597" stroke="#E4E9FF" stroke-width="2" stroke-miterlimit="10"/>
<path d="M123.827 62.8683L119.5 73.4358" stroke="#E4E9FF" stroke-width="2" stroke-miterlimit="10"/>
<path d="M97.3234 86.8218C97.3234 86.8218 107.609 63.7494 132.527 77.9473C132.527 77.9473 118.841 99.6746 97.3234 86.8218Z" stroke="#E4E9FF" stroke-width="2" stroke-miterlimit="10"/>
<path d="M116.079 86.9462C118.855 86.2464 120.538 83.4286 119.838 80.6524C119.138 77.8763 116.32 76.1932 113.544 76.893C110.768 77.5928 109.085 80.4106 109.785 83.1868C110.485 85.9629 113.302 87.6461 116.079 86.9462Z" stroke="#E4E9FF" stroke-width="2" stroke-miterlimit="10"/>
</g>
</g>
<defs>
<linearGradient id="paint0_linear_757_22566" x1="957" y1="319" x2="948.12" y2="317.861" gradientUnits="userSpaceOnUse">
<stop stop-color="#0065F2"/>
<stop offset="1" stop-color="#7298FF"/>
</linearGradient>
<linearGradient id="paint1_linear_757_22566" x1="831" y1="453" x2="822.12" y2="451.861" gradientUnits="userSpaceOnUse">
<stop stop-color="#E13019"/>
<stop offset="1" stop-color="#EC8078"/>
</linearGradient>
<linearGradient id="paint2_linear_757_22566" x1="438" y1="300" x2="430" y2="300" gradientUnits="userSpaceOnUse">
<stop stop-color="#EDA224"/>
<stop offset="1" stop-color="#F0B876"/>
</linearGradient>
<linearGradient id="paint3_linear_757_22566" x1="278" y1="118" x2="269.12" y2="116.861" gradientUnits="userSpaceOnUse">
<stop stop-color="#E13019"/>
<stop offset="1" stop-color="#EC8078"/>
</linearGradient>
<linearGradient id="paint4_linear_757_22566" x1="94" y1="253" x2="85.1197" y2="251.861" gradientUnits="userSpaceOnUse">
<stop stop-color="#0065F2"/>
<stop offset="1" stop-color="#7298FF"/>
</linearGradient>
<linearGradient id="paint5_linear_757_22566" x1="1209" y1="100" x2="1201" y2="100" gradientUnits="userSpaceOnUse">
<stop stop-color="#EDA224"/>
<stop offset="1" stop-color="#F0B876"/>
</linearGradient>
<clipPath id="clip0_757_22566">
<rect width="1320" height="455.4" fill="white" transform="matrix(-1 0 0 1 1320 0.0253906)"/>
</clipPath>
<clipPath id="clip1_757_22566">
<rect width="250" height="197.211" fill="white" transform="matrix(-0.899724 0.43646 0.43646 0.899724 720.43 184.33)"/>
</clipPath>
<clipPath id="clip2_757_22566">
<rect width="138.55" height="113.78" fill="white" transform="translate(1038 196)"/>
</clipPath>
<clipPath id="clip3_757_22566">
<rect width="138.55" height="113.78" fill="white" transform="translate(349.609 268.34) rotate(163.902)"/>
</clipPath>
<clipPath id="clip4_757_22566">
<rect width="40" height="29.4019" fill="white" transform="translate(318.75 377.189) rotate(16.7823)"/>
</clipPath>
<clipPath id="clip5_757_22566">
<rect width="40" height="29.4019" fill="white" transform="translate(1181.01 396.879) rotate(-12.1555)"/>
</clipPath>
<clipPath id="clip6_757_22566">
<rect width="40" height="29.4019" fill="white" transform="translate(1026.41 99.1855) rotate(9.67487)"/>
</clipPath>
<clipPath id="clip7_757_22566">
<rect width="40" height="29.4019" fill="white" transform="translate(90.668 67.6729) rotate(-14.1489)"/>
</clipPath>
</defs>
</svg>
