<svg width="360" height="365" viewBox="0 0 360 365" fill="none" xmlns="http://www.w3.org/2000/svg">
<g clip-path="url(#clip0_757_28005)">
<path d="M282.142 344.747C279.503 345.627 276.687 345.436 274.209 344.202L203.052 308.778C202.323 308.415 201.795 307.804 201.539 307.041C201.284 306.279 201.332 305.455 201.702 304.746L202.623 302.905L193.953 298.589C186.344 310.492 174.655 319.214 160.984 323.166C147.106 327.166 132.314 325.9 119.321 319.614C90.3851 305.602 78.2519 270.706 92.2939 241.821C106.342 212.954 141.323 200.848 170.277 214.854C183.489 221.25 193.717 232.273 199.086 245.886C204.394 259.317 204.532 274.108 199.474 287.583L208.144 291.9L209.065 290.058C209.805 288.58 211.625 287.974 213.125 288.705L284.282 324.13C286.759 325.363 288.606 327.493 289.488 330.126C290.37 332.759 290.178 335.568 288.941 338.04L288.165 339.59C286.929 342.061 284.794 343.904 282.155 344.784L282.142 344.747ZM193.709 297.681L203.545 302.577L202.321 305.024C202.042 305.582 201.994 306.224 202.189 306.805C202.383 307.386 202.808 307.87 203.367 308.148L274.525 343.572C276.832 344.721 279.46 344.895 281.917 344.075C284.375 343.256 286.37 341.541 287.522 339.239L288.298 337.689C289.449 335.387 289.623 332.765 288.802 330.314C287.981 327.863 286.262 325.872 283.955 324.723L212.797 289.299C211.632 288.718 210.23 289.186 209.648 290.349L208.424 292.796L198.588 287.899L198.697 287.62C209.384 259.592 197.035 228.584 169.956 215.466C141.36 201.623 106.773 213.578 92.895 242.105C79.0227 270.651 90.9977 305.135 119.594 318.978C146.065 331.793 177.862 322.747 193.534 297.941L193.691 297.687L193.709 297.681ZM158.357 308.013C152.714 309.894 146.627 310.632 140.49 310.013C135.446 309.514 130.572 308.132 125.957 305.895C104.58 295.54 95.6216 269.761 106.003 248.434C110.942 238.289 119.513 230.587 130.131 226.764C141.163 222.784 153.047 223.405 163.605 228.525C173.963 233.53 181.75 242.279 185.508 253.138C189.285 263.991 188.577 275.652 183.559 285.985C178.39 296.591 169.152 304.414 158.357 308.013ZM131.37 227.078C131.042 227.188 130.696 227.303 130.369 227.412C119.914 231.18 111.483 238.755 106.628 248.731C96.4167 269.718 105.223 295.104 126.279 305.283C130.796 307.471 135.622 308.83 140.563 309.323C158.189 311.077 175.225 301.582 182.952 285.683C187.903 275.514 188.587 264.021 184.871 253.35C181.155 242.679 173.496 234.069 163.302 229.13C153.229 224.252 141.94 223.534 131.364 227.06L131.37 227.078Z" fill="#C5D2FF"/>
<path d="M79.1479 351.736C79.1824 351.588 79.2722 351.462 79.4011 351.382L83.1023 349.082C83.1402 349.059 83.184 349.052 83.2271 349.062C83.2701 349.072 83.3073 349.097 83.3299 349.135L83.3897 349.231L83.8406 348.951C83.5016 348.254 83.4286 347.459 83.6359 346.708C83.8469 345.947 84.3307 345.294 84.998 344.868C86.4847 343.922 88.4671 344.358 89.4168 345.841C90.3654 347.325 89.9284 349.303 88.4415 350.25C87.7628 350.683 86.953 350.843 86.1614 350.702C85.3801 350.564 84.6834 350.146 84.1976 349.524L83.7466 349.804L83.8064 349.9C83.8544 349.977 83.8305 350.079 83.7532 350.128L80.052 352.428C79.9232 352.508 79.7704 352.533 79.6218 352.498C79.4732 352.464 79.3471 352.374 79.2669 352.246L79.2165 352.165C79.1363 352.037 79.1113 351.884 79.1458 351.736L79.1479 351.736ZM83.8901 348.965L83.3785 349.283L83.2991 349.156C83.281 349.127 83.2523 349.106 83.2195 349.099C83.1867 349.091 83.1518 349.097 83.1228 349.115L79.4216 351.415C79.3015 351.49 79.218 351.607 79.1858 351.745C79.1537 351.883 79.1767 352.026 79.2514 352.145L79.3018 352.226C79.3765 352.346 79.4943 352.429 79.6327 352.461C79.771 352.493 79.9136 352.47 80.0336 352.396L83.7348 350.096C83.7955 350.058 83.8138 349.979 83.7761 349.919L83.6966 349.791L84.2082 349.473L84.2181 349.487C85.224 350.789 87.0306 351.103 88.422 350.218C89.891 349.282 90.3239 347.327 89.3862 345.861C88.4476 344.395 86.489 343.964 85.02 344.899C83.6601 345.765 83.1711 347.507 83.883 348.95L83.8904 348.964L83.8901 348.965ZM84.4209 347.021C84.4948 346.704 84.635 346.399 84.8401 346.131C85.0082 345.91 85.2128 345.722 85.45 345.572C86.5485 344.872 88.0129 345.195 88.7136 346.291C89.047 346.812 89.1617 347.433 89.0359 348.037C88.9057 348.666 88.5356 349.202 87.9928 349.547C87.4611 349.886 86.8279 349.998 86.2115 349.861C85.5948 349.726 85.069 349.358 84.7292 348.828C84.3809 348.283 84.2796 347.627 84.4209 347.021ZM88.9857 348.086C88.99 348.068 88.9945 348.048 88.9988 348.03C89.1224 347.434 89.0096 346.824 88.6818 346.311C87.9921 345.233 86.5505 344.915 85.4694 345.604C85.2373 345.752 85.0352 345.938 84.8703 346.154C84.2823 346.925 84.238 347.992 84.7607 348.808C85.0949 349.331 85.6134 349.693 86.2198 349.826C86.8262 349.959 87.4493 349.849 87.9731 349.515C88.4907 349.186 88.8483 348.68 88.9867 348.086L88.9857 348.086Z" fill="#F6C9C7" stroke="#F6C9C7"/>
<path d="M340.636 126.276C340.671 126.127 340.761 126.001 340.889 125.921L344.591 123.621C344.629 123.598 344.672 123.591 344.715 123.601C344.758 123.611 344.796 123.637 344.818 123.674L344.878 123.77L345.329 123.49C344.99 122.793 344.917 121.998 345.124 121.248C345.335 120.486 345.819 119.833 346.486 119.408C347.973 118.461 349.955 118.897 350.905 120.38C351.854 121.864 351.417 123.842 349.93 124.789C349.251 125.222 348.441 125.382 347.65 125.242C346.868 125.103 346.172 124.685 345.686 124.063L345.235 124.343L345.295 124.439C345.343 124.516 345.319 124.618 345.242 124.667L341.54 126.967C341.411 127.047 341.259 127.072 341.11 127.038C340.961 127.003 340.835 126.913 340.755 126.785L340.705 126.704C340.625 126.576 340.6 126.423 340.634 126.275L340.636 126.276ZM345.378 123.504L344.867 123.822L344.787 123.695C344.769 123.666 344.741 123.645 344.708 123.638C344.675 123.63 344.64 123.636 344.611 123.654L340.91 125.954C340.79 126.029 340.706 126.146 340.674 126.284C340.642 126.422 340.665 126.565 340.74 126.684L340.79 126.765C340.865 126.885 340.983 126.968 341.121 127C341.259 127.032 341.402 127.009 341.522 126.935L345.223 124.635C345.284 124.597 345.302 124.518 345.264 124.458L345.185 124.33L345.696 124.013L345.706 124.026C346.712 125.328 348.519 125.643 349.91 124.757C351.379 123.821 351.812 121.866 350.875 120.4C349.936 118.934 347.977 118.503 346.508 119.438C345.148 120.305 344.659 122.046 345.371 123.489L345.379 123.503L345.378 123.504ZM345.909 121.56C345.983 121.243 346.123 120.938 346.328 120.67C346.496 120.449 346.701 120.261 346.938 120.111C348.037 119.411 349.501 119.734 350.202 120.83C350.535 121.351 350.65 121.972 350.524 122.576C350.394 123.205 350.024 123.741 349.481 124.086C348.949 124.425 348.316 124.537 347.7 124.401C347.083 124.265 346.557 123.897 346.217 123.367C345.869 122.822 345.768 122.166 345.909 121.56ZM350.474 122.625C350.478 122.607 350.483 122.587 350.487 122.569C350.611 121.973 350.498 121.363 350.17 120.85C349.48 119.772 348.039 119.454 346.958 120.143C346.726 120.291 346.523 120.477 346.359 120.693C345.771 121.464 345.726 122.531 346.249 123.347C346.583 123.87 347.102 124.232 347.708 124.365C348.315 124.498 348.938 124.388 349.461 124.054C349.979 123.725 350.337 123.219 350.475 122.625L350.474 122.625Z" fill="#F6C9C7" stroke="#F6C9C7"/>
<g filter="url(#filter0_d_757_28005)">
<rect x="130" y="252" width="34" height="34" rx="17" fill="#FFEBE7"/>
<path d="M154.5 276.5H139.5V267.5L144.75 265.25V266.75L148.5 265.25V267.5H150.75L151.5 261.5H153.75L154.5 267.5V276.5ZM147 267.462L143.25 268.962V267.5L141 268.49V275H153V269H147V267.462ZM146.25 273.5H147.75V270.5H146.25V273.5ZM143.25 273.5H144.75V270.5H143.25V273.5ZM150.75 270.5H149.25V273.5H150.75V270.5Z" fill="#FF7F5C"/>
</g>
<g filter="url(#filter1_d_757_28005)">
<rect x="304.422" y="9.61133" width="34" height="34" rx="17" fill="#FBEFE4"/>
<path d="M321.422 22.8613V19.8613H313.922V33.3613H328.922V22.8613H321.422ZM316.922 31.8613H315.422V30.3613H316.922V31.8613ZM316.922 28.8613H315.422V27.3613H316.922V28.8613ZM316.922 25.8613H315.422V24.3613H316.922V25.8613ZM316.922 22.8613H315.422V21.3613H316.922V22.8613ZM319.922 31.8613H318.422V30.3613H319.922V31.8613ZM319.922 28.8613H318.422V27.3613H319.922V28.8613ZM319.922 25.8613H318.422V24.3613H319.922V25.8613ZM319.922 22.8613H318.422V21.3613H319.922V22.8613ZM327.422 31.8613H321.422V30.3613H322.922V28.8613H321.422V27.3613H322.922V25.8613H321.422V24.3613H327.422V31.8613ZM325.922 25.8613H324.422V27.3613H325.922V25.8613ZM325.922 28.8613H324.422V30.3613H325.922V28.8613Z" fill="#EDA224"/>
</g>
<g filter="url(#filter2_d_757_28005)">
<rect x="239" y="280" width="34" height="34" rx="17" fill="#E4F0E8"/>
<g clip-path="url(#clip1_757_28005)">
<path d="M249.25 291C249.25 290.587 249.587 290.25 250 290.25H251.5V288.75H250C248.755 288.75 247.75 289.755 247.75 291V292.5H249.25V291Z" fill="#00AB66"/>
<path d="M249.25 303V301.5H247.75V303C247.75 304.245 248.755 305.25 250 305.25H251.5V303.75H250C249.587 303.75 249.25 303.413 249.25 303Z" fill="#00AB66"/>
<path d="M262 288.75H260.5V290.25H262C262.413 290.25 262.75 290.587 262.75 291V292.5H264.25V291C264.25 289.755 263.245 288.75 262 288.75Z" fill="#00AB66"/>
<path d="M262.75 303C262.75 303.413 262.413 303.75 262 303.75H260.5V305.25H262C263.245 305.25 264.25 304.245 264.25 303V301.5H262.75V303Z" fill="#00AB66"/>
<path d="M261.25 299.153V294.848C261.25 294.308 260.965 293.812 260.5 293.55L256.75 291.39C256.517 291.255 256.262 291.188 256 291.188C255.738 291.188 255.483 291.255 255.25 291.39L251.5 293.543C251.035 293.812 250.75 294.308 250.75 294.848V299.153C250.75 299.693 251.035 300.188 251.5 300.45L255.25 302.61C255.483 302.745 255.738 302.812 256 302.812C256.262 302.812 256.517 302.745 256.75 302.61L260.5 300.45C260.965 300.188 261.25 299.693 261.25 299.153ZM255.25 300.878L252.25 299.153V295.68L255.25 297.427V300.878ZM256 296.13L253.03 294.397L256 292.688L258.97 294.397L256 296.13ZM259.75 299.153L256.75 300.878V297.427L259.75 295.68V299.153Z" fill="#00AB66"/>
</g>
</g>
<g clip-path="url(#clip2_757_28005)">
<path d="M298.028 131.352H295.621V133.753H294.819V131.352H292.412V130.552H294.819V128.15H295.621V130.552H298.028V131.352Z" fill="#C5E1CF"/>
</g>
<g clip-path="url(#clip3_757_28005)">
<path d="M316.622 308.204H314.215V310.605H313.413V308.204H311.006V307.403H313.413V305.002H314.215V307.403H316.622V308.204Z" fill="#C5E1CF"/>
</g>
<g clip-path="url(#clip4_757_28005)">
<path d="M35.6218 128.204H33.215V130.605H32.4127V128.204H30.0059V127.403H32.4127V125.002H33.215V127.403H35.6218V128.204Z" fill="#C5E1CF"/>
</g>
<g filter="url(#filter3_d_757_28005)">
<rect x="288" y="189" width="34" height="34" rx="17" fill="#EEE8F4"/>
<path d="M305 201.425C305.87 201.425 306.575 202.13 306.575 203C306.575 203.87 305.87 204.575 305 204.575C304.13 204.575 303.425 203.87 303.425 203C303.425 202.13 304.13 201.425 305 201.425ZM305 208.175C307.227 208.175 309.575 209.27 309.575 209.75V210.575H300.425V209.75C300.425 209.27 302.773 208.175 305 208.175ZM305 200C303.342 200 302 201.342 302 203C302 204.658 303.342 206 305 206C306.658 206 308 204.658 308 203C308 201.342 306.658 200 305 200ZM305 206.75C302.997 206.75 299 207.755 299 209.75V212H311V209.75C311 207.755 307.003 206.75 305 206.75Z" fill="#9B69C6"/>
</g>
<g filter="url(#filter4_d_757_28005)">
<rect x="25" y="269" width="34" height="34" rx="17" fill="#EEE8F4"/>
<g clip-path="url(#clip5_757_28005)">
<path d="M42.0005 279.25C41.6555 279.25 41.303 279.28 40.9505 279.355C38.8805 279.753 37.2305 281.425 36.8405 283.495C36.4805 285.452 37.2005 287.253 38.5055 288.415C38.828 288.7 39.0005 289.098 39.0005 289.517V291.25C39.0005 292.075 39.6755 292.75 40.5005 292.75H40.7105C40.973 293.2 41.4455 293.5 42.0005 293.5C42.5555 293.5 43.0355 293.2 43.2905 292.75H43.5005C44.3255 292.75 45.0005 292.075 45.0005 291.25V289.517C45.0005 289.105 45.1655 288.7 45.4805 288.422C46.568 287.462 47.2505 286.06 47.2505 284.5C47.2505 281.598 44.903 279.25 42.0005 279.25ZM43.5005 289.75H40.5005V289H43.5005V289.75ZM40.5005 291.25V290.5H43.5005V291.25H40.5005ZM44.483 287.305C44.4155 287.365 44.363 287.44 44.303 287.5H39.6905C39.6305 287.432 39.578 287.358 39.5105 287.297C38.5205 286.412 38.078 285.092 38.318 283.773C38.588 282.317 39.788 281.11 41.2355 280.825C41.4905 280.772 41.7455 280.75 42.0005 280.75C44.0705 280.75 45.7505 282.43 45.7505 284.5C45.7505 285.572 45.293 286.592 44.483 287.305Z" fill="#9B69C6"/>
<path d="M42.375 285.25H41.625V287.5H42.375V285.25Z" fill="#9B69C6"/>
<path d="M40.7842 283.657L40.2539 284.188L41.8449 285.778L42.3752 285.248L40.7842 283.657Z" fill="#9B69C6"/>
<path d="M41.6259 285.255L42.1562 285.785L43.7472 284.194L43.2169 283.664L41.6259 285.255Z" fill="#9B69C6"/>
</g>
</g>
<g filter="url(#filter5_d_757_28005)">
<rect x="15" y="27" width="34" height="34" rx="17" fill="#E4F0E8"/>
<path d="M25.25 38.75V49.25H38.75V38.75H25.25ZM28.25 40.25V41.75H26.75V40.25H28.25ZM26.75 44.75V43.25H28.25V44.75H26.75ZM26.75 46.25H28.25V47.75H26.75V46.25ZM37.25 47.75H29.75V46.25H37.25V47.75ZM37.25 44.75H29.75V43.25H37.25V44.75ZM37.25 41.75H29.75V40.25H37.25V41.75Z" fill="#00AB66"/>
</g>
<ellipse cx="203.139" cy="216.134" rx="2.13939" ry="2.13439" fill="url(#paint0_linear_757_28005)"/>
<ellipse cx="327.139" cy="79.1344" rx="2.13939" ry="2.13439" fill="url(#paint1_linear_757_28005)"/>
<ellipse cx="49.1394" cy="218.134" rx="2.13939" ry="2.13439" fill="url(#paint2_linear_757_28005)"/>
<ellipse cx="307.1" cy="258.855" rx="2.13939" ry="2.13439" fill="url(#paint3_linear_757_28005)"/>
</g>
<defs>
<filter id="filter0_d_757_28005" x="120" y="252" width="54" height="64" filterUnits="userSpaceOnUse" color-interpolation-filters="sRGB">
<feFlood flood-opacity="0" result="BackgroundImageFix"/>
<feColorMatrix in="SourceAlpha" type="matrix" values="0 0 0 0 0 0 0 0 0 0 0 0 0 0 0 0 0 0 127 0" result="hardAlpha"/>
<feMorphology radius="10" operator="erode" in="SourceAlpha" result="effect1_dropShadow_757_28005"/>
<feOffset dy="20"/>
<feGaussianBlur stdDeviation="10"/>
<feComposite in2="hardAlpha" operator="out"/>
<feColorMatrix type="matrix" values="0 0 0 0 0 0 0 0 0 0.396078 0 0 0 0 0.94902 0 0 0 0.6 0"/>
<feBlend mode="normal" in2="BackgroundImageFix" result="effect1_dropShadow_757_28005"/>
<feBlend mode="normal" in="SourceGraphic" in2="effect1_dropShadow_757_28005" result="shape"/>
</filter>
<filter id="filter1_d_757_28005" x="294.422" y="9.61133" width="54" height="64" filterUnits="userSpaceOnUse" color-interpolation-filters="sRGB">
<feFlood flood-opacity="0" result="BackgroundImageFix"/>
<feColorMatrix in="SourceAlpha" type="matrix" values="0 0 0 0 0 0 0 0 0 0 0 0 0 0 0 0 0 0 127 0" result="hardAlpha"/>
<feMorphology radius="10" operator="erode" in="SourceAlpha" result="effect1_dropShadow_757_28005"/>
<feOffset dy="20"/>
<feGaussianBlur stdDeviation="10"/>
<feComposite in2="hardAlpha" operator="out"/>
<feColorMatrix type="matrix" values="0 0 0 0 0 0 0 0 0 0.396078 0 0 0 0 0.94902 0 0 0 0.6 0"/>
<feBlend mode="normal" in2="BackgroundImageFix" result="effect1_dropShadow_757_28005"/>
<feBlend mode="normal" in="SourceGraphic" in2="effect1_dropShadow_757_28005" result="shape"/>
</filter>
<filter id="filter2_d_757_28005" x="229" y="280" width="54" height="64" filterUnits="userSpaceOnUse" color-interpolation-filters="sRGB">
<feFlood flood-opacity="0" result="BackgroundImageFix"/>
<feColorMatrix in="SourceAlpha" type="matrix" values="0 0 0 0 0 0 0 0 0 0 0 0 0 0 0 0 0 0 127 0" result="hardAlpha"/>
<feMorphology radius="10" operator="erode" in="SourceAlpha" result="effect1_dropShadow_757_28005"/>
<feOffset dy="20"/>
<feGaussianBlur stdDeviation="10"/>
<feComposite in2="hardAlpha" operator="out"/>
<feColorMatrix type="matrix" values="0 0 0 0 0 0 0 0 0 0.396078 0 0 0 0 0.94902 0 0 0 0.6 0"/>
<feBlend mode="normal" in2="BackgroundImageFix" result="effect1_dropShadow_757_28005"/>
<feBlend mode="normal" in="SourceGraphic" in2="effect1_dropShadow_757_28005" result="shape"/>
</filter>
<filter id="filter3_d_757_28005" x="278" y="189" width="54" height="64" filterUnits="userSpaceOnUse" color-interpolation-filters="sRGB">
<feFlood flood-opacity="0" result="BackgroundImageFix"/>
<feColorMatrix in="SourceAlpha" type="matrix" values="0 0 0 0 0 0 0 0 0 0 0 0 0 0 0 0 0 0 127 0" result="hardAlpha"/>
<feMorphology radius="10" operator="erode" in="SourceAlpha" result="effect1_dropShadow_757_28005"/>
<feOffset dy="20"/>
<feGaussianBlur stdDeviation="10"/>
<feComposite in2="hardAlpha" operator="out"/>
<feColorMatrix type="matrix" values="0 0 0 0 0 0 0 0 0 0.396078 0 0 0 0 0.94902 0 0 0 0.6 0"/>
<feBlend mode="normal" in2="BackgroundImageFix" result="effect1_dropShadow_757_28005"/>
<feBlend mode="normal" in="SourceGraphic" in2="effect1_dropShadow_757_28005" result="shape"/>
</filter>
<filter id="filter4_d_757_28005" x="15" y="269" width="54" height="64" filterUnits="userSpaceOnUse" color-interpolation-filters="sRGB">
<feFlood flood-opacity="0" result="BackgroundImageFix"/>
<feColorMatrix in="SourceAlpha" type="matrix" values="0 0 0 0 0 0 0 0 0 0 0 0 0 0 0 0 0 0 127 0" result="hardAlpha"/>
<feMorphology radius="10" operator="erode" in="SourceAlpha" result="effect1_dropShadow_757_28005"/>
<feOffset dy="20"/>
<feGaussianBlur stdDeviation="10"/>
<feComposite in2="hardAlpha" operator="out"/>
<feColorMatrix type="matrix" values="0 0 0 0 0 0 0 0 0 0.396078 0 0 0 0 0.94902 0 0 0 0.6 0"/>
<feBlend mode="normal" in2="BackgroundImageFix" result="effect1_dropShadow_757_28005"/>
<feBlend mode="normal" in="SourceGraphic" in2="effect1_dropShadow_757_28005" result="shape"/>
</filter>
<filter id="filter5_d_757_28005" x="5" y="27" width="54" height="64" filterUnits="userSpaceOnUse" color-interpolation-filters="sRGB">
<feFlood flood-opacity="0" result="BackgroundImageFix"/>
<feColorMatrix in="SourceAlpha" type="matrix" values="0 0 0 0 0 0 0 0 0 0 0 0 0 0 0 0 0 0 127 0" result="hardAlpha"/>
<feMorphology radius="10" operator="erode" in="SourceAlpha" result="effect1_dropShadow_757_28005"/>
<feOffset dy="20"/>
<feGaussianBlur stdDeviation="10"/>
<feComposite in2="hardAlpha" operator="out"/>
<feColorMatrix type="matrix" values="0 0 0 0 0 0 0 0 0 0.396078 0 0 0 0 0.94902 0 0 0 0.6 0"/>
<feBlend mode="normal" in2="BackgroundImageFix" result="effect1_dropShadow_757_28005"/>
<feBlend mode="normal" in="SourceGraphic" in2="effect1_dropShadow_757_28005" result="shape"/>
</filter>
<linearGradient id="paint0_linear_757_28005" x1="205.279" y1="218.269" x2="200.53" y2="217.658" gradientUnits="userSpaceOnUse">
<stop stop-color="#0065F2"/>
<stop offset="1" stop-color="#7298FF"/>
</linearGradient>
<linearGradient id="paint1_linear_757_28005" x1="329.279" y1="81.2688" x2="324.53" y2="80.658" gradientUnits="userSpaceOnUse">
<stop stop-color="#E13019"/>
<stop offset="1" stop-color="#EC8078"/>
</linearGradient>
<linearGradient id="paint2_linear_757_28005" x1="51.2788" y1="220.269" x2="46.5295" y2="219.658" gradientUnits="userSpaceOnUse">
<stop stop-color="#0065F2"/>
<stop offset="1" stop-color="#7298FF"/>
</linearGradient>
<linearGradient id="paint3_linear_757_28005" x1="309.24" y1="256.721" x2="304.961" y2="256.721" gradientUnits="userSpaceOnUse">
<stop stop-color="#EDA224"/>
<stop offset="1" stop-color="#F0B876"/>
</linearGradient>
<clipPath id="clip0_757_28005">
<rect width="360" height="365" fill="white" transform="matrix(-1 0 0 1 360 0)"/>
</clipPath>
<clipPath id="clip1_757_28005">
<rect width="18" height="18" fill="white" transform="translate(247 288)"/>
</clipPath>
<clipPath id="clip2_757_28005">
<rect width="9.62727" height="9.60474" fill="white" transform="translate(290.406 126.148)"/>
</clipPath>
<clipPath id="clip3_757_28005">
<rect width="9.62727" height="9.60474" fill="white" transform="translate(309 303)"/>
</clipPath>
<clipPath id="clip4_757_28005">
<rect width="9.62727" height="9.60474" fill="white" transform="translate(28 123)"/>
</clipPath>
<clipPath id="clip5_757_28005">
<rect width="18" height="18" fill="white" transform="translate(33 277)"/>
</clipPath>
</defs>
</svg>
