<svg width="1320" height="456" viewBox="0 0 1320 456" fill="none" xmlns="http://www.w3.org/2000/svg">
<g clip-path="url(#clip0_757_22246)">
<g filter="url(#filter0_f_757_22246)">
<path d="M887.77 443.384C882.012 445.308 875.869 444.889 870.465 442.193L715.244 364.737C713.654 363.944 712.502 362.607 711.944 360.94C711.387 359.272 711.492 357.472 712.298 355.922L714.308 351.896L695.395 342.459C678.798 368.485 653.299 387.555 623.477 396.196C593.204 404.944 560.938 402.175 532.596 388.429C469.474 357.792 443.007 281.494 473.638 218.336C504.283 155.219 580.589 128.749 643.75 159.373C672.569 173.357 694.882 197.46 706.593 227.224C718.172 256.591 718.473 288.932 707.439 318.395L726.352 327.833L728.361 323.807C729.974 320.575 733.945 319.248 737.217 320.848L892.438 398.304C897.842 401 901.87 405.657 903.794 411.414C905.718 417.171 905.298 423.314 902.601 428.718L900.909 432.108C898.212 437.511 893.555 441.539 887.797 443.463L887.77 443.384ZM694.864 340.473L716.32 351.18L713.649 356.53C713.041 357.748 712.936 359.152 713.361 360.422C713.785 361.693 714.713 362.751 715.931 363.359L871.153 440.815C876.186 443.327 881.919 443.706 887.279 441.915C892.64 440.123 896.993 436.374 899.505 431.341L901.197 427.951C903.709 422.918 904.089 417.186 902.298 411.826C900.507 406.466 896.757 402.113 891.724 399.602L736.502 322.146C733.96 320.877 730.902 321.899 729.633 324.441L726.962 329.792L705.507 319.085L705.745 318.476C729.055 257.191 702.118 189.392 643.049 160.711C580.67 130.444 505.224 156.582 474.95 218.958C444.689 281.373 470.811 356.772 533.19 387.039C590.934 415.059 660.295 395.28 694.481 341.043L694.824 340.487L694.864 340.473ZM617.747 363.065C605.437 367.178 592.159 368.791 578.773 367.437C567.77 366.347 557.137 363.324 547.071 358.433C500.439 335.792 480.897 279.426 503.543 232.796C514.318 210.613 533.013 193.773 556.176 185.415C580.239 176.712 606.163 178.068 629.195 189.263C651.789 200.207 668.776 219.337 676.975 243.08C685.213 266.81 683.669 292.308 672.723 314.901C661.446 338.09 641.294 355.196 617.747 363.065ZM558.878 186.101C558.163 186.34 557.408 186.592 556.694 186.831C533.888 195.07 515.497 211.632 504.908 233.444C482.632 279.332 501.842 334.838 547.772 357.096C557.626 361.88 568.153 364.851 578.931 365.928C617.381 369.764 654.543 349.004 671.398 314.24C682.199 292.005 683.691 266.877 675.585 243.544C667.479 220.211 650.77 201.386 628.534 190.588C606.562 179.922 581.935 178.352 558.864 186.061L558.878 186.101Z" fill="#C5D2FF"/>
</g>
<path d="M218.826 205.306C218.556 205.397 218.267 205.377 218.013 205.25L210.718 201.61C210.643 201.573 210.589 201.51 210.563 201.432C210.537 201.353 210.542 201.269 210.58 201.196L210.674 201.007L209.785 200.563C209.005 201.786 207.807 202.682 206.405 203.089C204.982 203.5 203.466 203.37 202.134 202.724C199.167 201.284 197.924 197.698 199.363 194.73C200.803 191.763 204.39 190.519 207.358 191.958C208.712 192.616 209.761 193.748 210.311 195.147C210.856 196.527 210.87 198.047 210.351 199.432L211.24 199.876L211.334 199.686C211.41 199.535 211.597 199.472 211.751 199.547L219.046 203.188C219.3 203.314 219.489 203.533 219.579 203.804C219.67 204.074 219.65 204.363 219.523 204.617L219.444 204.776C219.317 205.03 219.098 205.22 218.827 205.31L218.826 205.306ZM209.76 200.47L210.769 200.973L210.643 201.224C210.614 201.282 210.609 201.348 210.629 201.407C210.649 201.467 210.693 201.517 210.75 201.545L218.045 205.186C218.282 205.304 218.551 205.321 218.803 205.237C219.055 205.153 219.26 204.977 219.378 204.74L219.457 204.581C219.575 204.344 219.593 204.075 219.509 203.823C219.425 203.571 219.249 203.367 219.012 203.249L211.717 199.608C211.598 199.549 211.454 199.597 211.394 199.716L211.269 199.968L210.26 199.465L210.272 199.436C211.367 196.556 210.101 193.369 207.325 192.021C204.393 190.599 200.848 191.827 199.425 194.759C198.003 197.692 199.23 201.236 202.162 202.658C204.876 203.975 208.136 203.046 209.742 200.496L209.758 200.47L209.76 200.47ZM206.136 201.531C205.557 201.725 204.933 201.801 204.304 201.737C203.787 201.686 203.287 201.544 202.814 201.314C200.623 200.25 199.704 197.601 200.769 195.409C201.275 194.367 202.154 193.575 203.242 193.182C204.373 192.773 205.591 192.837 206.674 193.363C207.736 193.878 208.534 194.777 208.919 195.892C209.307 197.008 209.234 198.206 208.72 199.268C208.19 200.358 207.243 201.162 206.136 201.531ZM203.369 193.215C203.336 193.226 203.3 193.238 203.267 193.249C202.195 193.636 201.33 194.415 200.833 195.44C199.786 197.596 200.689 200.205 202.847 201.251C203.31 201.476 203.805 201.615 204.312 201.666C206.119 201.846 207.865 200.871 208.657 199.237C209.165 198.192 209.235 197.011 208.854 195.914C208.473 194.818 207.688 193.933 206.643 193.425C205.61 192.924 204.453 192.85 203.369 193.213L203.369 193.215Z" fill="#F6C9C7" stroke="#F6C9C7"/>
<path d="M355.435 414.471C355.5 414.193 355.668 413.957 355.908 413.807L362.829 409.497C362.899 409.452 362.981 409.439 363.062 409.458C363.142 409.477 363.212 409.525 363.254 409.595L363.366 409.775L364.209 409.25C363.575 407.945 363.439 406.455 363.826 405.048C364.221 403.62 365.125 402.396 366.373 401.6C369.153 399.826 372.859 400.643 374.635 403.423C376.408 406.203 375.591 409.91 372.811 411.686C371.542 412.496 370.028 412.796 368.548 412.533C367.087 412.274 365.785 411.491 364.876 410.324L364.033 410.849L364.145 411.029C364.235 411.173 364.19 411.365 364.046 411.456L357.125 415.767C356.885 415.917 356.599 415.963 356.321 415.899C356.043 415.834 355.808 415.666 355.658 415.425L355.563 415.274C355.413 415.033 355.367 414.748 355.431 414.47L355.435 414.471ZM364.302 409.277L363.345 409.873L363.197 409.635C363.163 409.58 363.109 409.542 363.048 409.527C362.986 409.513 362.921 409.524 362.867 409.558L355.947 413.868C355.722 414.008 355.566 414.228 355.506 414.487C355.446 414.746 355.489 415.012 355.629 415.237L355.723 415.388C355.863 415.612 356.083 415.769 356.341 415.829C356.6 415.889 356.867 415.846 357.091 415.706L364.011 411.396C364.125 411.325 364.159 411.177 364.088 411.064L363.94 410.826L364.896 410.23L364.915 410.254C366.796 412.695 370.173 413.284 372.775 411.625C375.521 409.871 376.331 406.207 374.578 403.46C372.823 400.713 369.161 399.904 366.414 401.658C363.871 403.281 362.957 406.545 364.288 409.248L364.302 409.275L364.302 409.277ZM365.294 405.633C365.432 405.039 365.694 404.468 366.078 403.965C366.392 403.551 366.775 403.2 367.218 402.917C369.272 401.607 372.01 402.211 373.32 404.265C373.943 405.242 374.158 406.405 373.923 407.538C373.679 408.716 372.987 409.72 371.972 410.367C370.978 411.003 369.794 411.213 368.642 410.957C367.489 410.703 366.506 410.014 365.87 409.02C365.219 407.998 365.03 406.77 365.294 405.633ZM373.829 407.629C373.837 407.595 373.845 407.558 373.853 407.524C374.084 406.408 373.873 405.264 373.261 404.303C371.971 402.283 369.276 401.686 367.254 402.978C366.82 403.255 366.442 403.604 366.134 404.009C365.035 405.454 364.952 407.453 365.929 408.983C366.554 409.963 367.524 410.64 368.657 410.89C369.791 411.139 370.956 410.933 371.935 410.308C372.903 409.691 373.572 408.743 373.831 407.63L373.829 407.629Z" fill="#F6C9C7" stroke="#F6C9C7"/>
<path d="M805.025 293.077C805.09 292.799 805.257 292.564 805.498 292.413L812.418 288.103C812.489 288.059 812.571 288.046 812.652 288.064C812.732 288.083 812.802 288.132 812.844 288.202L812.956 288.381L813.799 287.856C813.165 286.551 813.029 285.061 813.416 283.654C813.811 282.227 814.715 281.003 815.963 280.206C818.742 278.432 822.449 279.249 824.225 282.029C825.998 284.809 825.181 288.516 822.401 290.292C821.132 291.102 819.618 291.403 818.138 291.139C816.677 290.881 815.375 290.097 814.466 288.931L813.623 289.456L813.735 289.635C813.825 289.779 813.78 289.971 813.635 290.063L806.715 294.373C806.474 294.523 806.189 294.57 805.911 294.505C805.633 294.441 805.397 294.273 805.247 294.032L805.153 293.881C805.003 293.64 804.957 293.354 805.021 293.076L805.025 293.077ZM813.891 287.884L812.935 288.48L812.786 288.241C812.753 288.187 812.699 288.148 812.638 288.134C812.576 288.12 812.511 288.131 812.457 288.164L805.537 292.475C805.312 292.615 805.156 292.835 805.096 293.094C805.036 293.352 805.079 293.619 805.219 293.843L805.313 293.994C805.452 294.219 805.673 294.375 805.931 294.435C806.19 294.495 806.457 294.452 806.681 294.313L813.601 290.002C813.714 289.931 813.749 289.784 813.678 289.671L813.53 289.432L814.486 288.836L814.505 288.861C816.385 291.302 819.763 291.891 822.365 290.231C825.111 288.478 825.921 284.813 824.167 282.067C822.412 279.319 818.75 278.511 816.004 280.264C813.461 281.887 812.547 285.151 813.878 287.854L813.892 287.882L813.891 287.884ZM814.884 284.24C815.022 283.646 815.284 283.074 815.667 282.572C815.982 282.158 816.364 281.806 816.808 281.524C818.862 280.213 821.6 280.817 822.91 282.871C823.533 283.848 823.748 285.011 823.512 286.144C823.269 287.322 822.577 288.327 821.562 288.974C820.568 289.609 819.384 289.819 818.232 289.563C817.079 289.309 816.096 288.62 815.46 287.626C814.809 286.604 814.62 285.376 814.884 284.24ZM823.419 286.236C823.427 286.201 823.435 286.165 823.443 286.13C823.674 285.014 823.463 283.871 822.85 282.91C821.561 280.889 818.865 280.293 816.844 281.585C816.41 281.862 816.032 282.21 815.724 282.615C814.625 284.06 814.542 286.059 815.519 287.589C816.144 288.569 817.113 289.247 818.247 289.496C819.381 289.746 820.546 289.54 821.525 288.915C822.493 288.297 823.162 287.35 823.42 286.236L823.419 286.236Z" fill="#F6C9C7" stroke="#F6C9C7"/>
<path d="M1214.61 221.684C1214.68 221.406 1214.85 221.17 1215.09 221.02L1222.01 216.709C1222.08 216.665 1222.16 216.652 1222.24 216.671C1222.32 216.689 1222.39 216.738 1222.43 216.808L1222.55 216.988L1223.39 216.463C1222.75 215.158 1222.62 213.668 1223.01 212.261C1223.4 210.833 1224.31 209.609 1225.55 208.813C1228.33 207.039 1232.04 207.856 1233.81 210.636C1235.59 213.416 1234.77 217.123 1231.99 218.898C1230.72 219.709 1229.21 220.009 1227.73 219.746C1226.27 219.487 1224.96 218.704 1224.06 217.537L1223.21 218.062L1223.32 218.242C1223.41 218.386 1223.37 218.577 1223.23 218.669L1216.31 222.979C1216.06 223.13 1215.78 223.176 1215.5 223.112C1215.22 223.047 1214.99 222.879 1214.84 222.638L1214.74 222.487C1214.59 222.246 1214.55 221.961 1214.61 221.683L1214.61 221.684ZM1223.48 216.49L1222.52 217.086L1222.38 216.848C1222.34 216.793 1222.29 216.754 1222.23 216.74C1222.17 216.726 1222.1 216.737 1222.05 216.771L1215.13 221.081C1214.9 221.221 1214.75 221.441 1214.69 221.7C1214.63 221.959 1214.67 222.225 1214.81 222.45L1214.9 222.601C1215.04 222.825 1215.26 222.982 1215.52 223.042C1215.78 223.102 1216.05 223.059 1216.27 222.919L1223.19 218.609C1223.3 218.538 1223.34 218.39 1223.27 218.277L1223.12 218.038L1224.08 217.443L1224.09 217.467C1225.98 219.908 1229.35 220.497 1231.95 218.837C1234.7 217.084 1235.51 213.42 1233.76 210.673C1232 207.926 1228.34 207.117 1225.59 208.871C1223.05 210.494 1222.14 213.758 1223.47 216.461L1223.48 216.488L1223.48 216.49ZM1224.47 212.846C1224.61 212.252 1224.87 211.681 1225.26 211.178C1225.57 210.764 1225.95 210.413 1226.4 210.13C1228.45 208.82 1231.19 209.424 1232.5 211.478C1233.12 212.455 1233.34 213.618 1233.1 214.751C1232.86 215.929 1232.17 216.933 1231.15 217.58C1230.16 218.216 1228.97 218.426 1227.82 218.17C1226.67 217.916 1225.69 217.227 1225.05 216.233C1224.4 215.211 1224.21 213.983 1224.47 212.846ZM1233.01 214.842C1233.02 214.808 1233.02 214.771 1233.03 214.737C1233.26 213.621 1233.05 212.477 1232.44 211.516C1231.15 209.496 1228.46 208.899 1226.43 210.191C1226 210.468 1225.62 210.816 1225.31 211.222C1224.21 212.667 1224.13 214.666 1225.11 216.196C1225.73 217.175 1226.7 217.853 1227.84 218.103C1228.97 218.352 1230.14 218.146 1231.12 217.521C1232.08 216.904 1232.75 215.956 1233.01 214.843L1233.01 214.842Z" fill="#F6C9C7" stroke="#F6C9C7"/>
<g filter="url(#filter1_d_757_22246)">
<rect x="1066" y="347" width="56" height="56" rx="28" fill="#FFEBE7"/>
<path d="M1104 385H1084V373L1091 370V372L1096 370V373H1099L1100 365H1103L1104 373V385ZM1094 372.95L1089 374.95V373L1086 374.32V383H1102V375H1094V372.95ZM1093 381H1095V377H1093V381ZM1089 381H1091V377H1089V381ZM1099 377H1097V381H1099V377Z" fill="#FF7F5C"/>
</g>
<g filter="url(#filter2_d_757_22246)">
<rect x="546" y="257" width="56" height="56" rx="28" fill="#FFEBE7"/>
<path d="M584 295H564V283L571 280V282L576 280V283H579L580 275H583L584 283V295ZM574 282.95L569 284.95V283L566 284.32V293H582V285H574V282.95ZM573 291H575V287H573V291ZM569 291H571V287H569V291ZM579 287H577V291H579V287Z" fill="#FF7F5C"/>
</g>
<g filter="url(#filter3_d_757_22246)">
<rect x="1175" y="65" width="56" height="56" rx="28" fill="#FBEFE4"/>
<path d="M1203 88V84H1193V102H1213V88H1203ZM1197 100H1195V98H1197V100ZM1197 96H1195V94H1197V96ZM1197 92H1195V90H1197V92ZM1197 88H1195V86H1197V88ZM1201 100H1199V98H1201V100ZM1201 96H1199V94H1201V96ZM1201 92H1199V90H1201V92ZM1201 88H1199V86H1201V88ZM1211 100H1203V98H1205V96H1203V94H1205V92H1203V90H1211V100ZM1209 92H1207V94H1209V92ZM1209 96H1207V98H1209V96Z" fill="#EDA224"/>
</g>
<g filter="url(#filter4_d_757_22246)">
<rect x="735" y="356" width="56" height="56" rx="28" fill="#E4F0E8"/>
<g clip-path="url(#clip1_757_22246)">
<path d="M754 376C754 375.45 754.45 375 755 375H757V373H755C753.34 373 752 374.34 752 376V378H754V376Z" fill="#00AB66"/>
<path d="M754 392V390H752V392C752 393.66 753.34 395 755 395H757V393H755C754.45 393 754 392.55 754 392Z" fill="#00AB66"/>
<path d="M771 373H769V375H771C771.55 375 772 375.45 772 376V378H774V376C774 374.34 772.66 373 771 373Z" fill="#00AB66"/>
<path d="M772 392C772 392.55 771.55 393 771 393H769V395H771C772.66 395 774 393.66 774 392V390H772V392Z" fill="#00AB66"/>
<path d="M770 386.87V381.13C770 380.41 769.62 379.75 769 379.4L764 376.52C763.69 376.34 763.35 376.25 763 376.25C762.65 376.25 762.31 376.34 762 376.52L757 379.39C756.38 379.75 756 380.41 756 381.13V386.87C756 387.59 756.38 388.25 757 388.6L762 391.48C762.31 391.66 762.65 391.75 763 391.75C763.35 391.75 763.69 391.66 764 391.48L769 388.6C769.62 388.25 770 387.59 770 386.87ZM762 389.17L758 386.87V382.24L762 384.57V389.17ZM763 382.84L759.04 380.53L763 378.25L766.96 380.53L763 382.84ZM768 386.87L764 389.17V384.57L768 382.24V386.87Z" fill="#00AB66"/>
</g>
</g>
<g clip-path="url(#clip2_757_22246)">
<path d="M1073.25 118.75H1068.75V123.25H1067.25V118.75H1062.75V117.25H1067.25V112.75H1068.75V117.25H1073.25V118.75Z" fill="#C5E1CF"/>
</g>
<g clip-path="url(#clip3_757_22246)">
<path d="M1193.25 398.75H1188.75V403.25H1187.25V398.75H1182.75V397.25H1187.25V392.75H1188.75V397.25H1193.25V398.75Z" fill="#C5E1CF"/>
</g>
<g clip-path="url(#clip4_757_22246)">
<path d="M563.25 441.75H558.75V446.25H557.25V441.75H552.75V440.25H557.25V435.75H558.75V440.25H563.25V441.75Z" fill="#C5E1CF"/>
</g>
<g clip-path="url(#clip5_757_22246)">
<path d="M143.25 344.75H138.75V349.25H137.25V344.75H132.75V343.25H137.25V338.75H138.75V343.25H143.25V344.75Z" fill="#C5E1CF"/>
</g>
<g filter="url(#filter5_d_757_22246)">
<rect x="990" y="192" width="56" height="56" rx="28" fill="#EEE8F4"/>
<path d="M1018 213.9C1019.16 213.9 1020.1 214.84 1020.1 216C1020.1 217.16 1019.16 218.1 1018 218.1C1016.84 218.1 1015.9 217.16 1015.9 216C1015.9 214.84 1016.84 213.9 1018 213.9ZM1018 222.9C1020.97 222.9 1024.1 224.36 1024.1 225V226.1H1011.9V225C1011.9 224.36 1015.03 222.9 1018 222.9ZM1018 212C1015.79 212 1014 213.79 1014 216C1014 218.21 1015.79 220 1018 220C1020.21 220 1022 218.21 1022 216C1022 213.79 1020.21 212 1018 212ZM1018 221C1015.33 221 1010 222.34 1010 225V228H1026V225C1026 222.34 1020.67 221 1018 221Z" fill="#9B69C6"/>
</g>
<g filter="url(#filter6_d_757_22246)">
<rect x="195" y="364" width="56" height="56" rx="28" fill="#EEE8F4"/>
<g clip-path="url(#clip6_757_22246)">
<path d="M222.999 383C222.539 383 222.069 383.04 221.599 383.14C218.839 383.67 216.639 385.9 216.119 388.66C215.639 391.27 216.599 393.67 218.339 395.22C218.769 395.6 218.999 396.13 218.999 396.69V399C218.999 400.1 219.899 401 220.999 401H221.279C221.629 401.6 222.259 402 222.999 402C223.739 402 224.379 401.6 224.719 401H224.999C226.099 401 226.999 400.1 226.999 399V396.69C226.999 396.14 227.219 395.6 227.639 395.23C229.089 393.95 229.999 392.08 229.999 390C229.999 386.13 226.869 383 222.999 383ZM224.999 397H220.999V396H224.999V397ZM220.999 399V398H224.999V399H220.999ZM226.309 393.74C226.219 393.82 226.149 393.92 226.069 394H219.919C219.839 393.91 219.769 393.81 219.679 393.73C218.359 392.55 217.769 390.79 218.089 389.03C218.449 387.09 220.049 385.48 221.979 385.1C222.319 385.03 222.659 385 222.999 385C225.759 385 227.999 387.24 227.999 390C227.999 391.43 227.389 392.79 226.309 393.74Z" fill="#9B69C6"/>
<path d="M223.5 391H222.5V394H223.5V391Z" fill="#9B69C6"/>
<path d="M221.379 388.874L220.672 389.581L222.793 391.702L223.5 390.995L221.379 388.874Z" fill="#9B69C6"/>
<path d="M222.5 391.006L223.207 391.713L225.328 389.592L224.621 388.884L222.5 391.006Z" fill="#9B69C6"/>
</g>
</g>
<g filter="url(#filter7_d_757_22246)">
<rect x="307" y="209" width="56" height="56" rx="28" fill="#FBEFE4"/>
<path d="M339 228H328C326.9 228 326 228.9 326 230V244C326 245.1 326.9 246 328 246H342C343.1 246 344 245.1 344 244V233L339 228ZM342 244H328V230H338V234H342V244ZM330 242H340V240H330V242ZM335 232H330V234H335V232ZM330 238H340V236H330V238Z" fill="#EDA224"/>
</g>
<g filter="url(#filter8_d_757_22246)">
<rect x="95" y="74" width="56" height="56" rx="28" fill="#E4F0E8"/>
<path d="M114 95V109H132V95H114ZM118 97V99H116V97H118ZM116 103V101H118V103H116ZM116 105H118V107H116V105ZM130 107H120V105H130V107ZM130 103H120V101H130V103ZM130 99H120V97H130V99Z" fill="#00AB66"/>
</g>
<circle cx="893" cy="315" r="4" fill="url(#paint0_linear_757_22246)"/>
<circle cx="827" cy="449" r="4" fill="url(#paint1_linear_757_22246)"/>
<circle cx="434" cy="354" r="4" fill="url(#paint2_linear_757_22246)"/>
<circle cx="274" cy="114" r="4" fill="url(#paint3_linear_757_22246)"/>
<circle cx="90" cy="279" r="4" fill="url(#paint4_linear_757_22246)"/>
<circle cx="1165" cy="264" r="4" fill="url(#paint5_linear_757_22246)"/>
</g>
<defs>
<filter id="filter0_f_757_22246" x="457.889" y="143.628" width="450.094" height="303.945" filterUnits="userSpaceOnUse" color-interpolation-filters="sRGB">
<feFlood flood-opacity="0" result="BackgroundImageFix"/>
<feBlend mode="normal" in="SourceGraphic" in2="BackgroundImageFix" result="shape"/>
<feGaussianBlur stdDeviation="1.5" result="effect1_foregroundBlur_757_22246"/>
</filter>
<filter id="filter1_d_757_22246" x="1056" y="347" width="76" height="86" filterUnits="userSpaceOnUse" color-interpolation-filters="sRGB">
<feFlood flood-opacity="0" result="BackgroundImageFix"/>
<feColorMatrix in="SourceAlpha" type="matrix" values="0 0 0 0 0 0 0 0 0 0 0 0 0 0 0 0 0 0 127 0" result="hardAlpha"/>
<feMorphology radius="10" operator="erode" in="SourceAlpha" result="effect1_dropShadow_757_22246"/>
<feOffset dy="20"/>
<feGaussianBlur stdDeviation="10"/>
<feComposite in2="hardAlpha" operator="out"/>
<feColorMatrix type="matrix" values="0 0 0 0 0 0 0 0 0 0.396078 0 0 0 0 0.94902 0 0 0 0.6 0"/>
<feBlend mode="normal" in2="BackgroundImageFix" result="effect1_dropShadow_757_22246"/>
<feBlend mode="normal" in="SourceGraphic" in2="effect1_dropShadow_757_22246" result="shape"/>
</filter>
<filter id="filter2_d_757_22246" x="536" y="257" width="76" height="86" filterUnits="userSpaceOnUse" color-interpolation-filters="sRGB">
<feFlood flood-opacity="0" result="BackgroundImageFix"/>
<feColorMatrix in="SourceAlpha" type="matrix" values="0 0 0 0 0 0 0 0 0 0 0 0 0 0 0 0 0 0 127 0" result="hardAlpha"/>
<feMorphology radius="10" operator="erode" in="SourceAlpha" result="effect1_dropShadow_757_22246"/>
<feOffset dy="20"/>
<feGaussianBlur stdDeviation="10"/>
<feComposite in2="hardAlpha" operator="out"/>
<feColorMatrix type="matrix" values="0 0 0 0 0 0 0 0 0 0.396078 0 0 0 0 0.94902 0 0 0 0.6 0"/>
<feBlend mode="normal" in2="BackgroundImageFix" result="effect1_dropShadow_757_22246"/>
<feBlend mode="normal" in="SourceGraphic" in2="effect1_dropShadow_757_22246" result="shape"/>
</filter>
<filter id="filter3_d_757_22246" x="1165" y="65" width="76" height="86" filterUnits="userSpaceOnUse" color-interpolation-filters="sRGB">
<feFlood flood-opacity="0" result="BackgroundImageFix"/>
<feColorMatrix in="SourceAlpha" type="matrix" values="0 0 0 0 0 0 0 0 0 0 0 0 0 0 0 0 0 0 127 0" result="hardAlpha"/>
<feMorphology radius="10" operator="erode" in="SourceAlpha" result="effect1_dropShadow_757_22246"/>
<feOffset dy="20"/>
<feGaussianBlur stdDeviation="10"/>
<feComposite in2="hardAlpha" operator="out"/>
<feColorMatrix type="matrix" values="0 0 0 0 0 0 0 0 0 0.396078 0 0 0 0 0.94902 0 0 0 0.6 0"/>
<feBlend mode="normal" in2="BackgroundImageFix" result="effect1_dropShadow_757_22246"/>
<feBlend mode="normal" in="SourceGraphic" in2="effect1_dropShadow_757_22246" result="shape"/>
</filter>
<filter id="filter4_d_757_22246" x="725" y="356" width="76" height="86" filterUnits="userSpaceOnUse" color-interpolation-filters="sRGB">
<feFlood flood-opacity="0" result="BackgroundImageFix"/>
<feColorMatrix in="SourceAlpha" type="matrix" values="0 0 0 0 0 0 0 0 0 0 0 0 0 0 0 0 0 0 127 0" result="hardAlpha"/>
<feMorphology radius="10" operator="erode" in="SourceAlpha" result="effect1_dropShadow_757_22246"/>
<feOffset dy="20"/>
<feGaussianBlur stdDeviation="10"/>
<feComposite in2="hardAlpha" operator="out"/>
<feColorMatrix type="matrix" values="0 0 0 0 0 0 0 0 0 0.396078 0 0 0 0 0.94902 0 0 0 0.6 0"/>
<feBlend mode="normal" in2="BackgroundImageFix" result="effect1_dropShadow_757_22246"/>
<feBlend mode="normal" in="SourceGraphic" in2="effect1_dropShadow_757_22246" result="shape"/>
</filter>
<filter id="filter5_d_757_22246" x="980" y="192" width="76" height="86" filterUnits="userSpaceOnUse" color-interpolation-filters="sRGB">
<feFlood flood-opacity="0" result="BackgroundImageFix"/>
<feColorMatrix in="SourceAlpha" type="matrix" values="0 0 0 0 0 0 0 0 0 0 0 0 0 0 0 0 0 0 127 0" result="hardAlpha"/>
<feMorphology radius="10" operator="erode" in="SourceAlpha" result="effect1_dropShadow_757_22246"/>
<feOffset dy="20"/>
<feGaussianBlur stdDeviation="10"/>
<feComposite in2="hardAlpha" operator="out"/>
<feColorMatrix type="matrix" values="0 0 0 0 0 0 0 0 0 0.396078 0 0 0 0 0.94902 0 0 0 0.6 0"/>
<feBlend mode="normal" in2="BackgroundImageFix" result="effect1_dropShadow_757_22246"/>
<feBlend mode="normal" in="SourceGraphic" in2="effect1_dropShadow_757_22246" result="shape"/>
</filter>
<filter id="filter6_d_757_22246" x="185" y="364" width="76" height="86" filterUnits="userSpaceOnUse" color-interpolation-filters="sRGB">
<feFlood flood-opacity="0" result="BackgroundImageFix"/>
<feColorMatrix in="SourceAlpha" type="matrix" values="0 0 0 0 0 0 0 0 0 0 0 0 0 0 0 0 0 0 127 0" result="hardAlpha"/>
<feMorphology radius="10" operator="erode" in="SourceAlpha" result="effect1_dropShadow_757_22246"/>
<feOffset dy="20"/>
<feGaussianBlur stdDeviation="10"/>
<feComposite in2="hardAlpha" operator="out"/>
<feColorMatrix type="matrix" values="0 0 0 0 0 0 0 0 0 0.396078 0 0 0 0 0.94902 0 0 0 0.6 0"/>
<feBlend mode="normal" in2="BackgroundImageFix" result="effect1_dropShadow_757_22246"/>
<feBlend mode="normal" in="SourceGraphic" in2="effect1_dropShadow_757_22246" result="shape"/>
</filter>
<filter id="filter7_d_757_22246" x="297" y="209" width="76" height="86" filterUnits="userSpaceOnUse" color-interpolation-filters="sRGB">
<feFlood flood-opacity="0" result="BackgroundImageFix"/>
<feColorMatrix in="SourceAlpha" type="matrix" values="0 0 0 0 0 0 0 0 0 0 0 0 0 0 0 0 0 0 127 0" result="hardAlpha"/>
<feMorphology radius="10" operator="erode" in="SourceAlpha" result="effect1_dropShadow_757_22246"/>
<feOffset dy="20"/>
<feGaussianBlur stdDeviation="10"/>
<feComposite in2="hardAlpha" operator="out"/>
<feColorMatrix type="matrix" values="0 0 0 0 0 0 0 0 0 0.396078 0 0 0 0 0.94902 0 0 0 0.6 0"/>
<feBlend mode="normal" in2="BackgroundImageFix" result="effect1_dropShadow_757_22246"/>
<feBlend mode="normal" in="SourceGraphic" in2="effect1_dropShadow_757_22246" result="shape"/>
</filter>
<filter id="filter8_d_757_22246" x="85" y="74" width="76" height="86" filterUnits="userSpaceOnUse" color-interpolation-filters="sRGB">
<feFlood flood-opacity="0" result="BackgroundImageFix"/>
<feColorMatrix in="SourceAlpha" type="matrix" values="0 0 0 0 0 0 0 0 0 0 0 0 0 0 0 0 0 0 127 0" result="hardAlpha"/>
<feMorphology radius="10" operator="erode" in="SourceAlpha" result="effect1_dropShadow_757_22246"/>
<feOffset dy="20"/>
<feGaussianBlur stdDeviation="10"/>
<feComposite in2="hardAlpha" operator="out"/>
<feColorMatrix type="matrix" values="0 0 0 0 0 0 0 0 0 0.396078 0 0 0 0 0.94902 0 0 0 0.6 0"/>
<feBlend mode="normal" in2="BackgroundImageFix" result="effect1_dropShadow_757_22246"/>
<feBlend mode="normal" in="SourceGraphic" in2="effect1_dropShadow_757_22246" result="shape"/>
</filter>
<linearGradient id="paint0_linear_757_22246" x1="897" y1="319" x2="888.12" y2="317.861" gradientUnits="userSpaceOnUse">
<stop stop-color="#0065F2"/>
<stop offset="1" stop-color="#7298FF"/>
</linearGradient>
<linearGradient id="paint1_linear_757_22246" x1="831" y1="453" x2="822.12" y2="451.861" gradientUnits="userSpaceOnUse">
<stop stop-color="#E13019"/>
<stop offset="1" stop-color="#EC8078"/>
</linearGradient>
<linearGradient id="paint2_linear_757_22246" x1="438" y1="350" x2="430" y2="350" gradientUnits="userSpaceOnUse">
<stop stop-color="#EDA224"/>
<stop offset="1" stop-color="#F0B876"/>
</linearGradient>
<linearGradient id="paint3_linear_757_22246" x1="278" y1="118" x2="269.12" y2="116.861" gradientUnits="userSpaceOnUse">
<stop stop-color="#E13019"/>
<stop offset="1" stop-color="#EC8078"/>
</linearGradient>
<linearGradient id="paint4_linear_757_22246" x1="94" y1="283" x2="85.1197" y2="281.861" gradientUnits="userSpaceOnUse">
<stop stop-color="#0065F2"/>
<stop offset="1" stop-color="#7298FF"/>
</linearGradient>
<linearGradient id="paint5_linear_757_22246" x1="1169" y1="260" x2="1161" y2="260" gradientUnits="userSpaceOnUse">
<stop stop-color="#EDA224"/>
<stop offset="1" stop-color="#F0B876"/>
</linearGradient>
<clipPath id="clip0_757_22246">
<rect width="1320" height="455.4" fill="white" transform="matrix(-1 0 0 1 1320 0.0253906)"/>
</clipPath>
<clipPath id="clip1_757_22246">
<rect width="24" height="24" fill="white" transform="translate(751 372)"/>
</clipPath>
<clipPath id="clip2_757_22246">
<rect width="18" height="18" fill="white" transform="translate(1059 109)"/>
</clipPath>
<clipPath id="clip3_757_22246">
<rect width="18" height="18" fill="white" transform="translate(1179 389)"/>
</clipPath>
<clipPath id="clip4_757_22246">
<rect width="18" height="18" fill="white" transform="translate(549 432)"/>
</clipPath>
<clipPath id="clip5_757_22246">
<rect width="18" height="18" fill="white" transform="translate(129 335)"/>
</clipPath>
<clipPath id="clip6_757_22246">
<rect width="24" height="24" fill="white" transform="translate(211 380)"/>
</clipPath>
</defs>
</svg>
