<svg width="94" height="43" viewBox="0 0 94 43" fill="none" xmlns="http://www.w3.org/2000/svg">
<path d="M11.1025 0.894851C11.7939 0.438594 12.7244 0.629268 13.1806 1.32073C13.6369 2.0122 13.4462 2.9426 12.7547 3.39886L11.1025 0.894851ZM93.2351 33.1362C93.683 33.8331 93.481 34.7612 92.7841 35.209L81.4269 42.5071C80.7299 42.955 79.8019 42.7531 79.354 42.0561C78.9062 41.3592 79.1081 40.4312 79.805 39.9833L89.9004 33.4961L83.4132 23.4007C82.9653 22.7038 83.1672 21.7758 83.8642 21.3279C84.5611 20.8801 85.4891 21.082 85.937 21.7789L93.2351 33.1362ZM12.7547 3.39886C7.37967 6.94555 4.69107 9.87316 3.76333 12.1854C3.31921 13.2923 3.288 14.2327 3.52837 15.0704C3.77494 15.9297 4.3458 16.8117 5.32147 17.709C7.30728 19.5354 10.7068 21.1862 15.2391 22.6374C19.7317 24.0758 25.1733 25.2683 31.0962 26.2668C42.9404 28.2637 56.5571 29.4606 68.0533 30.3337C73.7813 30.7687 79.0157 31.1257 83.184 31.4585C87.32 31.7887 90.5665 32.1059 92.2921 32.4814L91.6543 35.4128C90.1688 35.0896 87.1483 34.7846 82.9452 34.449C78.7743 34.1159 73.5975 33.7634 67.8261 33.3251C56.3233 32.4515 42.588 31.2466 30.5975 29.2251C24.603 28.2145 19.0067 26.9937 14.3244 25.4945C9.68188 24.0081 5.76963 22.1971 3.29065 19.9171C2.03393 18.7613 1.08413 17.429 0.644752 15.8979C0.199188 14.3452 0.316748 12.7191 0.97908 11.0683C2.26425 7.86519 5.61932 4.51286 11.1025 0.894851L12.7547 3.39886Z" fill="url(#paint0_linear_757_22871)"/>
<defs>
<linearGradient id="paint0_linear_757_22871" x1="68.177" y1="66.1297" x2="92.7603" y2="28.3432" gradientUnits="userSpaceOnUse">
<stop stop-color="#E13019"/>
<stop offset="1" stop-color="#EC8078"/>
</linearGradient>
</defs>
</svg>
