<svg width="20" height="61" viewBox="0 0 20 61" fill="none" xmlns="http://www.w3.org/2000/svg">
<path d="M4.4949 1.16416C4.0171 0.487406 3.08115 0.326122 2.4044 0.803924C1.72764 1.28173 1.56636 2.21768 2.04416 2.89443L4.4949 1.16416ZM0.142539 53.6351C-0.175533 54.4001 0.186719 55.278 0.951651 55.5961L13.4169 60.7794C14.1819 61.0974 15.0598 60.7352 15.3779 59.9703C15.696 59.2053 15.3337 58.3274 14.5688 58.0093L3.48852 53.4019L8.09589 42.3217C8.41396 41.5567 8.05171 40.6788 7.28678 40.3607C6.52185 40.0426 5.6439 40.4049 5.32583 41.1698L0.142539 53.6351ZM2.04416 2.89443C7.36612 10.4324 14.2906 20.0754 16.2543 29.3267C17.2224 33.8873 16.9525 38.2282 14.7687 42.1417C12.5771 46.0691 8.34015 49.7774 0.955443 52.8244L2.0997 55.5976C9.88422 52.3857 14.765 48.3049 17.3884 43.6035C20.0197 38.8882 20.2623 33.7607 19.1889 28.7038C17.0697 18.7198 9.69601 8.53097 4.4949 1.16416L2.04416 2.89443Z" fill="url(#paint0_linear_757_24094)"/>
<defs>
<linearGradient id="paint0_linear_757_24094" x1="15.7319" y1="55.9708" x2="-5.37348" y2="52.3455" gradientUnits="userSpaceOnUse">
<stop stop-color="#E13019"/>
<stop offset="1" stop-color="#EC8078"/>
</linearGradient>
</defs>
</svg>
