<svg width="1320" height="456" viewBox="0 0 1320 456" fill="none" xmlns="http://www.w3.org/2000/svg">
<g clip-path="url(#clip0_757_21912)">
<g filter="url(#filter0_f_757_21912)">
<path d="M0.336304 386.556C0.957275 385.349 2.25256 384.71 3.51233 384.87L21.7886 315.823C21.7886 315.823 21.6288 315.752 21.5579 315.716C20.0142 314.935 19.4109 313.054 20.1917 311.511C20.7062 310.481 21.7175 309.878 22.7999 309.807L28.2828 233.271C28.0167 233.218 27.7505 233.129 27.4844 233.005C25.9407 232.224 25.3373 230.343 26.118 228.799C26.8988 227.256 28.7795 226.652 30.3234 227.433C30.7491 227.646 31.0863 227.948 31.3524 228.285L78.2494 200.336C77.8945 199.519 77.8945 198.543 78.3381 197.674C79.1189 196.13 80.9998 195.527 82.5435 196.308C82.8628 196.467 83.1467 196.68 83.3774 196.929L113.489 174.658C112.992 173.789 112.939 172.688 113.436 171.73C113.79 171.02 114.394 170.523 115.068 170.24L102.221 119.257C101.636 119.328 101.015 119.222 100.447 118.938C98.9033 118.157 98.2999 116.276 99.0807 114.732C99.7372 113.454 101.157 112.815 102.505 113.099L115.423 75.8873C115.423 75.8873 115.423 75.8873 115.405 75.8873C113.861 75.1065 113.258 73.2255 114.039 71.6817C114.819 70.1378 116.7 69.5345 118.244 70.3153C119.078 70.7412 119.628 71.4687 119.841 72.3028L168.388 66.0564C168.388 65.5773 168.495 65.0981 168.725 64.6367C169.506 63.0929 171.387 62.4896 172.931 63.2704C174.474 64.0512 175.078 65.9322 174.297 67.476C174.261 67.5293 174.226 67.5825 174.208 67.6535L252.494 128.733L252.725 128.538L252.849 129.017L254.126 130.011L253.044 129.78L267.558 186.406C268.162 186.335 268.783 186.423 269.351 186.725C270.54 187.328 271.161 188.571 271.036 189.813L316.194 200.354C316.23 200.247 316.283 200.141 316.336 200.034C317.117 198.49 318.998 197.887 320.542 198.668C321.943 199.378 322.564 201.01 322.085 202.447L447.641 191.711C447.641 191.286 447.765 190.842 447.978 190.434C448.759 188.89 450.64 188.287 452.183 189.067C453.727 189.848 454.33 191.729 453.549 193.273C453.248 193.859 452.786 194.302 452.254 194.604L489.694 291.955C490.386 291.778 491.149 291.849 491.841 292.204C492.479 292.523 492.941 293.038 493.242 293.641L535.171 279.817C535.047 279.161 535.118 278.451 535.455 277.812C536.236 276.268 538.117 275.665 539.66 276.446C540.743 276.996 541.364 278.078 541.364 279.196L581.27 284.005C581.323 283.792 581.412 283.562 581.518 283.349C582.299 281.805 584.18 281.202 585.723 281.982C587.267 282.763 587.87 284.644 587.09 286.188C587.019 286.312 586.965 286.419 586.894 286.525L641.066 334.455C641.989 333.639 643.355 333.426 644.526 334.03C646.07 334.81 646.673 336.691 645.893 338.235C645.378 339.229 644.402 339.832 643.355 339.921L641.404 381.357C641.741 381.41 642.096 381.498 642.415 381.676C643.834 382.404 644.456 384.054 643.941 385.509L667.487 395.003C668.463 394.878 669.403 395.216 670.078 395.872L711.563 363.398C711.403 363.132 711.279 362.83 711.208 362.511C710.835 360.843 711.882 359.175 713.55 358.784C714.792 358.5 716.016 358.997 716.726 359.956L724.835 356.3L769.851 335.999C769.514 334.349 770.561 332.734 772.211 332.361C773.879 331.989 775.547 333.036 775.937 334.704C776.044 335.183 776.026 335.68 775.937 336.123L822.497 353.088C822.905 352.325 823.633 351.739 824.538 351.526L821.929 322.992L890.598 316.426C890.651 315.042 891.609 313.818 893.011 313.498C893.757 313.321 894.484 313.445 895.105 313.747L917.285 281.219C916.823 280.811 916.469 280.243 916.327 279.587C915.954 277.919 917.001 276.251 918.669 275.86C919.45 275.683 920.23 275.825 920.869 276.18L959.214 224.558C958.788 224.15 958.486 223.618 958.344 223.014C957.971 221.346 959.018 219.678 960.686 219.288C962.354 218.915 964.022 219.962 964.412 221.63C964.572 222.287 964.483 222.943 964.253 223.511L1001.05 244.912C1001.48 244.362 1002.1 243.936 1002.83 243.776C1004.3 243.439 1005.76 244.202 1006.36 245.533L1103.72 215.845L1103.84 216.218C1103.61 215.171 1103.93 214.124 1104.62 213.396L1079.34 182.342C1079.06 182.519 1078.74 182.661 1078.4 182.732C1076.73 183.105 1075.06 182.058 1074.67 180.39C1074.3 178.722 1075.35 177.054 1077.01 176.663C1078.01 176.433 1078.98 176.717 1079.69 177.32L1143.43 118.725C1143.23 118.423 1143.08 118.086 1142.99 117.695C1142.7 116.453 1143.22 115.229 1144.18 114.501L1125.58 82.95C1125.46 83.0032 1125.33 83.0387 1125.21 83.0565C1123.54 83.4291 1121.87 82.3821 1121.48 80.7141C1121.11 79.046 1122.16 77.3779 1123.82 76.9875C1124.71 76.7923 1125.62 76.9875 1126.31 77.4844L1200.87 4.99449C1200.62 4.65733 1200.42 4.26693 1200.32 3.8233C1199.94 2.15523 1200.99 0.487163 1202.66 0.096764C1204.33 -0.275889 1205.99 0.771089 1206.39 2.43916C1206.69 3.75231 1206.1 5.06547 1205.02 5.75754L1235.01 70.2443C1235.01 70.2443 1235.17 70.1911 1235.25 70.1733C1236.92 69.8007 1238.59 70.8476 1238.98 72.5157C1239.23 73.6337 1238.86 74.7516 1238.08 75.4792L1282.63 137.553C1282.88 137.428 1283.13 137.322 1283.41 137.251C1285.08 136.86 1286.75 137.925 1287.14 139.593C1287.51 141.261 1286.46 142.929 1284.8 143.32C1284.33 143.426 1283.89 143.426 1283.46 143.32L1265.38 194.586C1266.18 194.994 1266.8 195.74 1267.02 196.68C1267.39 198.348 1266.34 200.016 1264.67 200.407C1264.32 200.478 1263.98 200.495 1263.64 200.46L1254.77 236.678C1255.71 237.033 1256.44 237.85 1256.69 238.896C1256.87 239.66 1256.74 240.44 1256.39 241.079L1298.71 271.921C1299.11 271.495 1299.65 271.175 1300.27 271.033C1301.94 270.661 1303.6 271.708 1303.99 273.376C1304.31 274.778 1303.64 276.162 1302.41 276.818L1316.24 313.534C1316.24 313.534 1316.24 313.534 1316.26 313.534C1317.92 313.161 1319.59 314.208 1319.98 315.876C1320.35 317.544 1319.31 319.212 1317.64 319.603C1316.73 319.815 1315.85 319.603 1315.14 319.088L1281.96 354.792C1282.26 355.147 1282.49 355.59 1282.6 356.087C1282.97 357.755 1281.92 359.423 1280.25 359.814C1278.58 360.186 1276.92 359.139 1276.53 357.471C1276.53 357.4 1276.51 357.347 1276.49 357.276L1177.66 360.381L1177.6 360.683L1177.21 360.399L1175.6 360.452L1176.58 359.938L1129.39 325.849C1128.99 326.293 1128.44 326.612 1127.82 326.754C1126.52 327.038 1125.24 326.488 1124.55 325.459L1083.28 346.15C1083.31 346.256 1083.35 346.363 1083.37 346.487C1083.74 348.173 1082.69 349.823 1081.03 350.213C1079.5 350.568 1077.99 349.716 1077.44 348.297L988.171 436.491C988.438 436.829 988.633 437.237 988.722 437.68C989.094 439.348 988.047 441.017 986.379 441.407C984.711 441.78 983.044 440.733 982.653 439.065C982.511 438.426 982.582 437.787 982.795 437.219L892.142 386.556C891.716 387.124 891.095 387.567 890.332 387.727C889.64 387.887 888.948 387.798 888.345 387.514L865.065 424.815C865.579 425.241 865.97 425.826 866.129 426.536C866.502 428.204 865.455 429.872 863.787 430.263C862.616 430.529 861.463 430.085 860.735 429.234L827.128 450.972C827.217 451.185 827.306 451.398 827.359 451.628C827.732 453.314 826.685 454.964 825.017 455.355C823.349 455.727 821.681 454.68 821.291 453.012C821.255 452.888 821.237 452.764 821.237 452.64L749.251 450.475C749.055 451.699 748.151 452.728 746.873 453.012C745.205 453.385 743.537 452.338 743.147 450.67C742.898 449.57 743.253 448.487 743.998 447.76L719.104 414.789C718.82 414.984 718.483 415.126 718.128 415.197C716.584 415.552 715.058 414.682 714.526 413.245L673.307 426.465C673.307 426.465 673.343 426.59 673.36 426.66C673.733 428.346 672.686 429.997 671.018 430.387C669.918 430.635 668.836 430.263 668.108 429.517C667.522 429.003 667.168 428.275 667.097 427.512L614.22 425.933C614.167 426.252 614.078 426.554 613.918 426.856C613.138 428.4 611.257 429.003 609.713 428.222C608.577 427.654 607.956 426.465 608.01 425.276L599.404 422.881L551.637 409.643C550.839 411.133 548.994 411.701 547.468 410.938C545.924 410.157 545.321 408.276 546.101 406.732C546.332 406.289 546.651 405.916 547.024 405.632L521.988 362.635C521.189 362.955 520.249 362.955 519.415 362.529L503.108 386.236L445.884 347.197C444.961 348.226 443.436 348.563 442.14 347.906C441.466 347.569 440.969 347.001 440.685 346.363L402.66 357.223C402.749 357.844 402.66 358.5 402.359 359.104C401.578 360.648 399.697 361.251 398.153 360.47C397.443 360.098 396.929 359.494 396.663 358.802L333.921 374.028C333.992 374.613 333.885 375.217 333.601 375.784C332.82 377.328 330.94 377.932 329.396 377.151C327.852 376.37 327.249 374.489 328.03 372.945C328.331 372.342 328.81 371.88 329.378 371.597L314.722 331.439C314.03 331.598 313.302 331.527 312.628 331.173C311.279 330.48 310.641 328.954 311.031 327.552L216.811 287.927L216.971 287.554C216.474 288.513 215.551 289.116 214.558 289.24L214.132 329.469C214.469 329.522 214.788 329.611 215.108 329.771C216.651 330.551 217.255 332.432 216.474 333.976C215.693 335.52 213.812 336.124 212.269 335.343C211.364 334.881 210.778 334.047 210.619 333.107L123.78 337.401C123.745 337.774 123.638 338.129 123.461 338.466C122.875 339.602 121.704 340.24 120.498 340.169L114.589 376.477C114.713 376.53 114.819 376.565 114.944 376.636C116.487 377.417 117.091 379.298 116.31 380.842C115.529 382.386 113.648 382.989 112.105 382.208C111.288 381.782 110.721 381.055 110.508 380.239L6.2804 388.206C6.2627 388.632 6.15625 389.058 5.94324 389.466C5.1626 391.01 3.28174 391.613 1.73804 390.833C0.194336 390.052 -0.409058 388.171 0.371704 386.627L0.336304 386.556ZM30.0394 233.129C29.7378 233.253 29.4006 233.324 29.0812 233.342L23.5984 309.878C23.8646 309.931 24.1307 310.02 24.397 310.144C24.8228 310.357 25.1776 310.677 25.4615 311.031L61.5879 290.11L30.0394 233.112V233.129ZM118.972 174.569C118.741 175.013 118.422 175.368 118.067 175.652L133.255 202.589L121.048 169.459L118.794 171.411C119.397 172.316 119.504 173.505 118.972 174.552V174.569ZM108.307 236.448C108.467 236.536 108.609 236.625 108.751 236.732L133.007 209.208C132.492 208.623 132.226 207.86 132.244 207.097L112.282 204.133L107.811 236.252C107.988 236.306 108.148 236.359 108.307 236.448ZM105.628 242.091L87.423 269.401L108.272 242.037C107.474 242.428 106.498 242.481 105.628 242.091ZM109.958 239.819L128.216 215.863L109.337 237.282C109.905 237.991 110.135 238.914 109.958 239.819ZM132.35 206.298C132.404 206.103 132.475 205.908 132.563 205.73C132.794 205.287 133.096 204.932 133.468 204.648L117.339 176.042C116.967 176.202 116.558 176.273 116.133 176.273L112.371 203.335L132.333 206.298H132.35ZM134.657 204.098C135.225 203.974 135.846 203.991 136.432 204.204L181.962 117.234L181.909 116.95C181.909 116.95 181.785 116.844 181.732 116.79L121.686 168.891L134.657 204.08V204.098ZM137.141 204.595C137.372 204.754 137.585 204.95 137.762 205.162L193.549 170.009L184.003 117.607C183.595 117.642 183.187 117.589 182.778 117.447L137.141 204.612V204.595ZM198.606 211.356C198.287 210.912 198.091 210.38 198.038 209.83L138.437 207.665C138.383 207.966 138.295 208.268 138.135 208.57C138.099 208.641 138.064 208.694 138.028 208.747L172.452 235.827L198.606 211.356ZM150.84 257.156C151.052 257.458 151.212 257.795 151.319 258.15L190.018 252.649C190.018 252.17 190.124 251.655 190.355 251.194C190.391 251.123 190.426 251.07 190.462 251.017L172.505 236.891L150.84 257.156ZM264.915 188.446L212.624 161.846C212.269 162.361 211.772 162.751 211.222 162.964L221.779 203.051L264.773 190.008C264.684 189.493 264.719 188.961 264.915 188.446ZM210.459 163.177C210.281 163.195 210.086 163.212 209.909 163.195L202.101 206.564C202.261 206.618 202.421 206.671 202.581 206.76C203.308 207.132 203.823 207.736 204.089 208.428L221.052 203.281L210.477 163.177H210.459ZM209.11 163.053C208.951 162.999 208.791 162.946 208.631 162.857C208.241 162.662 207.904 162.378 207.638 162.059L194.418 170.382L200.984 206.405C201.072 206.405 201.179 206.405 201.268 206.405L209.093 163.035L209.11 163.053ZM193.691 170.861L138.17 205.837C138.312 206.156 138.419 206.511 138.454 206.866L198.056 209.031C198.109 208.729 198.198 208.428 198.358 208.126C198.748 207.345 199.422 206.813 200.203 206.564L193.709 170.861H193.691ZM194.259 169.548L207.212 161.385C206.821 160.551 206.804 159.539 207.265 158.652C207.478 158.226 207.797 157.853 208.152 157.587L201.676 146.337L185.014 117.341C185.014 117.341 184.854 117.394 184.783 117.429L194.259 169.53V169.548ZM208.844 157.197C209.66 156.86 210.601 156.86 211.453 157.303C212.748 157.96 213.387 159.415 213.085 160.781L224.565 151.429L185.83 116.861C185.83 116.861 185.742 116.932 185.706 116.968L208.862 157.214L208.844 157.197ZM213.546 161.42L265.252 187.737L225.151 151.962L213.546 161.42ZM264.986 190.789L221.975 203.832L234.466 251.212C234.945 251.159 235.442 251.212 235.904 251.372L266.068 192.084C265.571 191.747 265.216 191.303 264.986 190.789ZM221.194 204.062L204.213 209.208C204.284 209.794 204.177 210.397 203.894 210.965C203.734 211.267 203.521 211.551 203.29 211.782L233.313 251.584C233.437 251.513 233.544 251.46 233.686 251.407L221.212 204.062H221.194ZM202.51 212.332C202.35 212.403 202.19 212.474 202.013 212.527L208.738 253.057L231.751 253.785C231.805 253.465 231.893 253.164 232.053 252.862C232.213 252.56 232.408 252.277 232.639 252.046L202.474 212.314L202.51 212.332ZM208.063 253.838L196.104 253.465C196.051 253.661 195.98 253.856 195.873 254.033C195.66 254.459 195.359 254.796 195.004 255.08L212.606 283.295C212.712 283.242 212.819 283.207 212.925 283.154L208.046 253.838H208.063ZM196.228 252.649L207.939 253.022L201.232 212.651C201.019 212.651 200.806 212.651 200.593 212.616L194.206 249.686C194.312 249.721 194.418 249.774 194.525 249.828C195.625 250.378 196.246 251.496 196.228 252.649ZM199.812 212.367C199.812 212.367 199.742 212.332 199.706 212.314C199.493 212.207 199.316 212.083 199.138 211.941L173.073 236.323L190.941 250.378C191.597 249.739 192.52 249.42 193.443 249.508L199.83 212.367H199.812ZM190.107 253.448L151.39 258.931C151.39 259.428 151.283 259.925 151.052 260.386C150.928 260.617 150.786 260.83 150.627 261.025L168.264 280.882L190.781 254.69C190.461 254.335 190.231 253.891 190.107 253.43V253.448ZM171.83 236.377L137.496 209.368C137.195 209.67 136.84 209.883 136.449 210.042L147.894 255.879C148.48 255.808 149.101 255.914 149.668 256.198C149.881 256.305 150.059 256.429 150.236 256.571L171.813 236.394L171.83 236.377ZM135.686 210.238C135.101 210.309 134.48 210.202 133.912 209.918C133.859 209.901 133.823 209.865 133.77 209.847L82.1709 277.564C82.4548 277.83 82.6854 278.132 82.8629 278.486L145.215 259.499C145.108 258.86 145.197 258.186 145.516 257.565C145.871 256.855 146.475 256.34 147.167 256.074L135.704 210.255L135.686 210.238ZM145.428 260.262L83.1112 279.25C83.2532 279.924 83.1646 280.634 82.8451 281.29C82.6677 281.645 82.437 281.929 82.1709 282.178L96.0288 301.804L145.641 260.652C145.57 260.528 145.499 260.404 145.428 260.28V260.262ZM74.2748 317.136C74.3281 316.887 74.4169 316.639 74.541 316.391C74.7717 315.947 75.0911 315.574 75.4814 315.29L61.925 290.802L25.7987 311.706C25.9406 312.043 26.0293 312.416 26.0293 312.788L74.2748 317.118V317.136ZM28.1053 313.8L116.168 335.609L79.9883 319.443C79.1543 320.827 77.38 321.342 75.9072 320.596C74.8604 320.064 74.2394 319.035 74.2039 317.934L28.1053 313.782V313.8ZM76.1735 314.918C76.4751 314.794 76.7944 314.723 77.1316 314.705L79.3496 282.905C79.1012 282.852 78.8705 282.763 78.6399 282.657C78.214 282.444 77.8591 282.124 77.5752 281.769L62.6171 290.429L76.1735 314.918ZM77.9301 314.758C78.1962 314.811 78.4624 314.9 78.7285 315.024C78.9948 315.166 79.2253 315.326 79.4382 315.521L95.39 302.301L81.4966 282.621C81.0885 282.834 80.6271 282.958 80.1481 282.976L77.9301 314.758ZM95.8513 302.957L79.9529 316.142C80.432 316.887 80.574 317.828 80.3077 318.698L117.818 335.449C117.96 335.201 118.138 334.952 118.333 334.757L95.8513 302.94V302.957ZM117.428 336.745L25.8164 314.048C25.7809 314.137 25.7454 314.243 25.6921 314.332C25.6921 314.368 25.6567 314.385 25.639 314.421L79.8464 354.242L117.57 337.898C117.463 337.525 117.41 337.135 117.446 336.745H117.428ZM30.7668 232.65C30.7668 232.65 30.6959 232.703 30.6782 232.721L62.2268 289.702L77.1671 281.06C76.83 280.243 76.83 279.285 77.2557 278.433C77.3445 278.274 77.4333 278.132 77.5398 277.99L30.7668 232.65ZM31.3169 232.065L78.0898 277.404C78.5511 277.031 79.1011 276.818 79.6689 276.747L80.1658 236.536L31.8494 230.964C31.7961 231.195 31.7074 231.408 31.601 231.621C31.5122 231.781 31.4235 231.923 31.3169 232.065ZM79.598 201.862C79.1899 201.649 78.835 201.347 78.5688 201.01L31.6719 228.959C31.8315 229.332 31.9203 229.74 31.9203 230.148L80.1481 235.72L80.5562 202.164C80.219 202.11 79.8997 202.022 79.5802 201.862H79.598ZM80.4674 276.765C80.7513 276.801 81.0353 276.889 81.3014 277.014L104.883 241.665C104.138 241.079 103.73 240.192 103.712 239.269L80.9644 236.643L80.4674 276.783V276.765ZM82.3483 201.897C82.0466 202.039 81.7095 202.146 81.3724 202.181L80.9644 235.827L103.801 238.453C103.854 238.222 103.943 238.009 104.049 237.796C104.244 237.406 104.51 237.086 104.812 236.82L82.3483 201.897ZM83.0226 201.471L105.486 236.394C105.948 236.181 106.444 236.075 106.941 236.093L111.413 203.991L84.0162 199.928C83.963 200.123 83.892 200.3 83.8032 200.495C83.6082 200.886 83.3419 201.205 83.0403 201.471H83.0226ZM114.695 175.918C114.376 175.758 114.092 175.545 113.861 175.297L83.7501 197.567C84.0162 198.047 84.1404 198.597 84.1404 199.147L111.537 203.211L115.299 176.167C115.103 176.113 114.908 176.042 114.713 175.936L114.695 175.918ZM115.742 170.027C116.328 169.956 116.949 170.062 117.517 170.346C117.765 170.47 117.978 170.63 118.173 170.807L120.657 168.642L103.96 123.374L115.724 170.027H115.742ZM121.314 168.075L181.128 116.187C180.88 115.814 180.72 115.371 180.649 114.927L104.847 116.489C104.812 116.861 104.706 117.216 104.528 117.571C104.226 118.175 103.747 118.636 103.197 118.92L121.332 168.092L121.314 168.075ZM180.88 113.17L140.867 88.4688L104.493 114.643C104.67 114.963 104.776 115.3 104.83 115.655L180.631 114.093C180.667 113.774 180.756 113.454 180.898 113.153L180.88 113.17ZM116.044 76.1358L103.126 113.348C103.126 113.348 103.126 113.348 103.144 113.348C103.481 113.525 103.765 113.738 103.996 114.004L140.104 88.0252L119.078 75.0533C118.351 75.9583 117.162 76.3842 116.026 76.1358H116.044ZM168.335 66.8372L119.788 73.0836C119.788 73.5094 119.699 73.9531 119.504 74.3612L140.814 87.5106L168.601 67.5293C168.495 67.3163 168.388 67.0856 168.335 66.8372ZM169.932 68.8247C169.595 68.6472 169.311 68.4343 169.062 68.1681L141.559 87.9719L180.809 112.194L171.6 69.1618C171.032 69.2151 170.464 69.1086 169.932 68.8424V68.8247ZM173.534 68.2568C173.197 68.5762 172.806 68.8247 172.38 68.9844L181.607 112.141C182.548 111.307 183.932 111.059 185.121 111.68C186.292 112.265 186.913 113.49 186.824 114.714L250.684 128.449L173.534 68.2568ZM186.647 115.495C186.593 115.619 186.558 115.743 186.487 115.868C186.416 115.992 186.363 116.098 186.274 116.205L225.115 150.862L251.412 129.425L186.647 115.495ZM252.086 129.922L225.736 151.412L265.731 187.098C265.997 186.867 266.299 186.69 266.618 186.565L252.086 129.922ZM268.818 192.404C268.162 192.634 267.417 192.652 266.725 192.404L236.56 251.691C236.808 251.851 237.021 252.064 237.217 252.277L284.309 222.713L268.836 192.404H268.818ZM237.891 254.654L276.306 264.485L287.591 267.378L307.89 272.577C307.89 272.577 307.89 272.577 307.89 272.56C308.174 272.009 308.6 271.583 309.097 271.282L284.664 223.44L237.642 252.969C237.873 253.483 237.979 254.069 237.909 254.654H237.891ZM315.84 201.117L270.681 190.576C270.646 190.682 270.593 190.789 270.539 190.895C270.291 191.374 269.936 191.765 269.528 192.049L284.965 222.287L316.106 202.731C315.875 202.235 315.769 201.667 315.84 201.117ZM317.525 204.222C317.135 204.027 316.798 203.743 316.531 203.423L285.338 223.014L309.824 270.98C310.108 270.909 310.41 270.856 310.712 270.874L312.078 258.736L318.199 204.488C317.969 204.435 317.756 204.346 317.525 204.24V204.222ZM318.998 204.559L312.947 258.257L311.51 270.962C311.705 271.016 311.9 271.087 312.096 271.193C312.628 271.459 313.054 271.867 313.338 272.347L338.995 262.675L319.548 204.488C319.371 204.524 319.175 204.541 318.998 204.541V204.559ZM427.289 247.822C427.129 247.822 426.987 247.822 426.827 247.805L419.357 278.114L414.194 299.036C414.282 299.071 414.389 299.107 414.478 299.16C415.347 299.603 415.915 300.384 416.11 301.272L435.699 299.497L427.289 247.84V247.822ZM436.515 299.408L487.121 294.848C487.121 294.404 487.245 293.96 487.458 293.552C487.493 293.481 487.529 293.41 487.564 293.357L429.365 246.953C428.992 247.308 428.566 247.556 428.087 247.698L436.515 299.426V299.408ZM418.683 277.51L426.064 247.609C425.976 247.574 425.869 247.538 425.78 247.485C425.372 247.272 425.035 246.988 424.769 246.669L383.745 271.903L411.177 299.462C411.816 298.982 412.614 298.752 413.431 298.84L418.683 277.528V277.51ZM367.935 253.359C367.935 253.82 367.829 254.299 367.598 254.743C367.492 254.938 367.385 255.116 367.243 255.293L383.177 271.3L424.361 245.977C424.29 245.835 424.237 245.675 424.201 245.516L367.953 253.359H367.935ZM424.166 243.918L394.853 232.295L367.563 251.851C367.687 252.081 367.776 252.312 367.829 252.56L424.059 244.717C424.059 244.451 424.095 244.185 424.148 243.918H424.166ZM366.658 255.843C365.913 256.376 364.954 256.589 364.05 256.358L350.795 290.092C350.972 290.358 351.114 290.642 351.203 290.944L382.45 271.725L366.64 255.843H366.658ZM383.053 272.311L351.363 291.796C351.363 291.991 351.363 292.204 351.31 292.399L410.059 301.059C410.113 300.863 410.184 300.686 410.272 300.491C410.361 300.313 410.467 300.154 410.592 299.994L383.035 272.293L383.053 272.311ZM409.953 301.857L370.863 296.09L351.061 293.162C351.061 293.162 351.026 293.233 351.008 293.268C350.848 293.57 350.671 293.818 350.44 294.049L379.238 331.066L410.467 303.649C410.113 303.117 409.935 302.496 409.935 301.857H409.953ZM363.304 256.056C362.772 255.755 362.346 255.329 362.08 254.832L340.007 263.154L348.577 288.761C348.95 288.797 349.304 288.903 349.659 289.08C349.854 289.169 350.032 289.293 350.209 289.435L363.322 256.056H363.304ZM339.261 263.438L313.675 273.092C313.834 273.607 313.852 274.174 313.71 274.707L345.578 290.216C346.075 289.435 346.856 288.921 347.725 288.779L339.244 263.421L339.261 263.438ZM345.259 290.961L313.426 275.47C313.036 276.18 312.397 276.694 311.687 276.943L320.417 320.791L345.827 293.854C345.17 293.055 344.957 291.973 345.259 290.961ZM320.719 204.027C320.595 204.116 320.471 204.187 320.329 204.24L339.776 262.391L361.796 254.087C361.619 253.377 361.69 252.614 362.044 251.904C362.151 251.691 362.293 251.496 362.435 251.318L320.719 204.027ZM321.535 203.211C321.464 203.317 321.393 203.406 321.305 203.494L363.02 250.786C363.943 250.147 365.167 250.005 366.232 250.555C366.569 250.733 366.853 250.946 367.101 251.212L393.966 231.94L321.535 203.211ZM447.534 192.51L323.469 203.122L394.729 231.39L447.818 193.326C447.676 193.06 447.588 192.794 447.517 192.51H447.534ZM448.297 193.983L395.616 231.745L424.45 243.191C425.159 241.895 426.685 241.31 428.069 241.718L448.954 194.533C448.705 194.373 448.492 194.196 448.297 194.001V193.983ZM451.314 194.888C450.781 195.012 450.231 195.012 449.699 194.852L428.815 242.037C430.199 242.871 430.731 244.646 429.968 246.119C429.932 246.19 429.897 246.261 429.861 246.314L488.061 292.718C488.274 292.523 488.505 292.346 488.736 292.221L451.296 194.87L451.314 194.888ZM493.012 296.392C492.746 296.906 492.355 297.314 491.912 297.598L499.79 314.385L534.568 295.629C534.479 295.416 534.426 295.185 534.39 294.954L493.349 295.362C493.313 295.717 493.207 296.072 493.03 296.409L493.012 296.392ZM536.608 282C535.97 281.681 535.508 281.166 535.207 280.563L493.278 294.386C493.278 294.386 493.296 294.493 493.313 294.546L534.355 294.138C534.39 293.783 534.497 293.428 534.674 293.091C535.189 292.097 536.147 291.494 537.176 291.405L537.513 282.302C537.212 282.249 536.91 282.16 536.608 282ZM539.927 281.698C539.465 282.053 538.897 282.266 538.33 282.319L537.992 291.441C538.294 291.494 538.596 291.583 538.897 291.742C539.643 292.115 540.175 292.754 540.423 293.499L549.703 291.565L539.927 281.716V281.698ZM540.246 295.93C540.246 295.93 540.175 296.037 540.157 296.09L600.948 343.222L550.378 292.221L540.583 294.262C540.636 294.812 540.53 295.38 540.264 295.912L540.246 295.93ZM580.915 328.706L539.66 296.729C539.252 297.137 538.72 297.421 538.17 297.545L544.079 355.927L602.456 347.374C602.456 346.877 602.562 346.38 602.793 345.901C602.828 345.848 602.864 345.795 602.882 345.742L580.897 328.706H580.915ZM580.95 284.786L541.044 279.977C540.991 280.19 540.902 280.421 540.796 280.634C540.707 280.811 540.601 280.989 540.477 281.131L550.608 291.352L580.95 284.999C580.95 284.999 580.95 284.857 580.95 284.786ZM584.694 287.821C584.02 287.962 583.31 287.874 582.654 287.554C581.909 287.182 581.376 286.525 581.128 285.798L551.3 292.044L603.68 344.854C603.84 344.73 604.017 344.624 604.195 344.535L584.694 287.821ZM604.94 344.269C605.614 344.127 606.324 344.198 606.981 344.535C607.655 344.89 608.152 345.44 608.436 346.096L616.917 343.701L585.848 288.761L604.922 344.269H604.94ZM637.979 383.007C638.032 382.918 638.085 382.812 638.139 382.723L607.371 349.858C607.016 350.125 606.608 350.302 606.164 350.391L609.145 392.501L637.695 385.101C637.553 384.426 637.624 383.699 637.961 383.025L637.979 383.007ZM608.347 348.74C608.24 348.953 608.116 349.131 607.974 349.308L638.6 382.013L617.343 344.411L608.666 346.859C608.755 347.481 608.666 348.119 608.365 348.723L608.347 348.74ZM586.114 287.111C586.114 287.111 585.99 287.199 585.936 287.253L617.716 343.47L639.789 337.241C639.7 336.62 639.789 335.964 640.091 335.378C640.161 335.254 640.215 335.147 640.286 335.041L586.114 287.111ZM642.326 339.85C642.025 339.797 641.741 339.708 641.457 339.566C640.783 339.211 640.286 338.661 640.002 338.005L618.124 344.18L639.31 381.658C639.629 381.481 639.984 381.374 640.357 381.321L642.326 339.85ZM643.551 385.828C643.373 386.183 643.125 386.485 642.841 386.751L659.236 410.725L668.179 408.081L667.523 401.143C666.138 401.089 664.914 400.131 664.595 398.729C664.293 397.363 664.932 396.032 666.068 395.358L643.373 386.201L643.515 385.828H643.551ZM668.978 407.85L683.811 403.485C683.794 403.343 683.776 403.183 683.776 403.041L670.503 399.279C670.131 400.167 669.35 400.859 668.339 401.089L668.978 407.868V407.85ZM670.681 397.345C670.77 397.735 670.77 398.126 670.716 398.499L681.309 401.515L670.628 397.203C670.628 397.203 670.663 397.31 670.681 397.363V397.345ZM684.539 405.029C684.326 404.798 684.166 404.532 684.024 404.248L669.049 408.667L670.521 424.087C670.823 424.141 671.125 424.229 671.408 424.371L680.263 411.417L684.539 405.011V405.029ZM669.705 424.052L668.268 408.897L659.715 411.417L668.569 424.371C668.924 424.194 669.315 424.087 669.705 424.052ZM711.793 363.966L670.521 396.28L684.007 401.728C684.007 401.728 684.06 401.604 684.078 401.551C684.787 400.149 686.42 399.528 687.857 400.025L711.918 364.09C711.918 364.09 711.829 364.019 711.776 363.966H711.793ZM769.833 336.691L757.377 342.299L716.85 360.577C716.921 360.736 716.975 360.878 717.01 361.056C717.241 362.067 716.939 363.079 716.3 363.806L736.209 384.551L770.206 337.241C770.064 337.064 769.958 336.887 769.851 336.674L769.833 336.691ZM770.774 337.809L736.759 385.154L765.965 415.605C766.302 415.357 766.693 415.179 767.119 415.073C767.278 415.037 767.42 415.02 767.562 415.002L771.572 338.253C771.271 338.146 771.005 338.005 770.756 337.809H770.774ZM798.561 416.634L850.497 414.842C850.55 414.256 850.763 413.724 851.118 413.263L809.42 372.342L770.188 416.084C770.508 416.457 770.756 416.901 770.863 417.433C770.863 417.486 770.88 417.557 770.898 417.61L798.579 416.652L798.561 416.634ZM773.986 418.285L845.174 425.099L851.367 417.291C850.976 416.901 850.692 416.386 850.568 415.818C850.568 415.765 850.55 415.694 850.533 415.641L773.986 418.285ZM768.521 421.142C767.775 421.301 767.048 421.195 766.409 420.875L761.441 428.116L820.208 450.386L770.259 420.059C769.833 420.592 769.23 420.982 768.521 421.159V421.142ZM765.752 420.414C765.291 420.006 764.936 419.438 764.794 418.782C764.741 418.551 764.723 418.338 764.723 418.107L720.452 412.571L760.678 427.814L765.752 420.414ZM774.34 337.916C774.039 338.111 773.702 338.271 773.311 338.359C772.992 338.43 772.69 338.448 772.389 338.43L768.378 415.055C768.804 415.144 769.212 415.303 769.567 415.552L808.835 371.774L774.34 337.916ZM821.894 355.2C821.787 354.721 821.805 354.242 821.894 353.78L775.334 336.816C775.228 337.029 775.086 337.224 774.926 337.401L809.349 371.188L822.515 356.513C822.213 356.158 821.983 355.714 821.876 355.218L821.894 355.2ZM823.118 357.045L809.935 371.738L851.668 412.695C851.668 412.695 851.828 412.571 851.917 412.517L842.92 393.459L825.922 357.453C825.833 357.489 825.744 357.507 825.638 357.524C824.733 357.737 823.846 357.524 823.136 357.028L823.118 357.045ZM886.482 383.752L869.767 375.926L855.093 412.446C855.306 412.553 855.483 412.695 855.66 412.855L886.819 386.396C886.623 386.095 886.482 385.757 886.393 385.402C886.269 384.835 886.304 384.284 886.464 383.77L886.482 383.752ZM869.039 375.589L827.572 356.158C827.341 356.548 827.004 356.886 826.614 357.134L843.719 393.352L852.626 412.198C852.626 412.198 852.804 412.145 852.892 412.127C853.389 412.021 853.886 412.038 854.365 412.145L869.057 375.589H869.039ZM890.367 317.207L822.497 323.702L825.035 351.438C825.957 351.473 826.827 351.917 827.377 352.644L890.492 317.615C890.438 317.491 890.403 317.349 890.367 317.225V317.207ZM890.864 318.307L827.785 353.319C827.856 353.478 827.909 353.656 827.945 353.833C828.069 354.384 828.033 354.916 827.891 355.413L869.341 374.826L891.734 319.106C891.397 318.893 891.095 318.609 890.864 318.289V318.307ZM920.053 281.823C919.946 281.858 919.858 281.894 919.751 281.911C919.006 282.071 918.278 281.965 917.657 281.645L895.478 314.172C895.939 314.581 896.294 315.148 896.436 315.805C896.525 316.213 896.542 316.621 896.471 317.012L941.204 329.025C941.434 328.457 941.842 327.961 942.375 327.623L920.071 281.823H920.053ZM1002.46 298.645L1025.1 312.646L1038.55 288.956C1038.1 288.655 1037.73 288.246 1037.48 287.732L1003.2 296.161C1003.32 297.084 1003.04 297.971 1002.47 298.628L1002.46 298.645ZM1001.83 299.195C1001.53 299.408 1001.18 299.55 1000.81 299.639C1000.59 299.692 1000.38 299.71 1000.17 299.71L1011.4 333.604C1012 333.497 1012.59 333.55 1013.12 333.763L1024.71 313.338L1001.83 299.195ZM997.026 296.338L951.406 286.365L944.965 327.251C945.569 327.428 946.119 327.783 946.509 328.28L980.098 307.802L997.114 297.421C997.114 297.421 997.097 297.35 997.079 297.314C997.008 296.995 996.99 296.676 997.008 296.356L997.026 296.338ZM946.935 328.954C947.023 329.132 947.077 329.327 947.13 329.522C947.183 329.717 947.201 329.913 947.201 330.108L985.936 333.746L997.771 298.628C997.647 298.486 997.522 298.308 997.416 298.148L946.917 328.937L946.935 328.954ZM986.752 333.834L1008.97 335.928C1009.18 335.041 1009.8 334.278 1010.64 333.87L999.297 299.603C998.995 299.515 998.694 299.391 998.427 299.213L986.752 333.834ZM1010.16 339.193L972.096 381.019C972.273 381.215 972.415 381.445 972.539 381.694L1002.38 371.916L1010.81 339.566C1010.58 339.477 1010.35 339.353 1010.16 339.193ZM1009.57 338.643C1009.27 338.288 1009.06 337.845 1008.95 337.366C1008.9 337.153 1008.88 336.94 1008.88 336.727L986.486 334.615L971.102 380.239C971.244 380.31 971.386 380.398 971.51 380.487L1009.57 338.643ZM985.67 334.544L947.13 330.924C946.953 331.705 946.473 332.397 945.799 332.841L955.345 352.52L968.742 380.097C968.831 380.061 968.937 380.043 969.044 380.008C969.487 379.901 969.931 379.919 970.339 380.008L985.67 334.562V334.544ZM954.458 352.485L945.089 333.178C945.001 333.213 944.894 333.249 944.788 333.266C943.847 333.479 942.907 333.249 942.197 332.699L928.322 346.54L967.677 380.718C967.784 380.611 967.908 380.522 968.032 380.452L954.458 352.485ZM941.629 332.131C941.363 331.776 941.168 331.385 941.062 330.924C940.973 330.551 940.973 330.179 941.008 329.824L896.258 317.81C896.17 318.023 896.045 318.201 895.921 318.396L927.718 346.025L941.629 332.149V332.131ZM920.798 281.485L943.102 327.286C943.209 327.251 943.297 327.215 943.404 327.198C943.67 327.144 943.918 327.109 944.184 327.127L950.626 286.206L922.005 279.942C921.774 280.563 921.348 281.113 920.78 281.485H920.798ZM959.586 225.02L921.242 276.641C921.668 277.049 921.969 277.581 922.111 278.185C922.182 278.504 922.2 278.841 922.182 279.143L950.75 285.389L960.225 225.286C959.994 225.215 959.781 225.126 959.586 225.02ZM961.786 225.339C961.52 225.392 961.272 225.41 961.006 225.41L951.53 285.567L997.203 295.558C997.416 294.954 997.806 294.44 998.339 294.067L962.177 225.215C962.053 225.268 961.928 225.304 961.786 225.339ZM963.241 224.558C963.135 224.665 963.011 224.771 962.887 224.86L999.048 293.712C999.173 293.659 999.297 293.623 999.439 293.588C999.599 293.552 999.758 293.535 999.918 293.517L1002.24 256.127L963.224 224.558H963.241ZM1000.2 247.503C1000.04 246.846 1000.13 246.19 1000.36 245.604L965.388 225.268L1002.31 255.151L1002.65 249.863C1001.48 249.632 1000.49 248.745 1000.2 247.503ZM1000.72 293.552C1001.73 293.747 1002.58 294.44 1002.99 295.398L1037.22 286.987C1037.06 286.188 1037.22 285.389 1037.62 284.751L1003.01 256.731L1000.72 293.535V293.552ZM1005.05 249.331C1004.73 249.561 1004.34 249.739 1003.93 249.845C1003.77 249.881 1003.61 249.899 1003.45 249.916L1003.08 255.772L1036.03 282.444L1005.05 249.349V249.331ZM1103.67 216.608L1006.31 246.296C1006.47 247.219 1006.2 248.106 1005.63 248.781L1038.46 283.846C1038.78 283.615 1039.17 283.437 1039.58 283.331C1040.55 283.118 1041.53 283.384 1042.25 283.97L1104.29 217.602C1104.02 217.318 1103.81 216.963 1103.67 216.591V216.608ZM1042.8 284.573C1042.88 284.68 1042.95 284.804 1043.02 284.928L1090.68 262.285L1107.94 254.087C1107.91 253.998 1107.89 253.909 1107.87 253.82C1107.5 252.152 1108.53 250.502 1110.18 250.112L1106.79 218.649C1106.11 218.684 1105.46 218.507 1104.91 218.152L1042.82 284.573H1042.8ZM1043.2 287.43L1092.36 308.494L1109.56 255.932C1109.04 255.684 1108.6 255.293 1108.28 254.814L1072.61 271.761L1062.15 276.73L1043.3 285.673C1043.3 285.673 1043.3 285.673 1043.3 285.691C1043.44 286.294 1043.39 286.898 1043.2 287.43ZM1184.31 325.317L1235.98 327.109C1235.98 327.109 1236 327.002 1236.02 326.949L1192.67 310.89C1192.26 311.67 1191.53 312.274 1190.61 312.469C1189.19 312.788 1187.79 312.096 1187.15 310.854L1184.33 325.317H1184.31ZM1186.37 310.641L1130.03 323.436L1183.51 325.281L1186.37 310.641ZM1141.51 229.758L1132.32 236.927L1163.16 263.563C1163.32 263.421 1163.5 263.296 1163.68 263.19L1144.96 230.734C1144.85 230.769 1144.74 230.805 1144.62 230.84C1143.43 231.106 1142.24 230.663 1141.51 229.758ZM1144.14 190.221L1080.39 180.55C1080.32 180.763 1080.23 180.976 1080.12 181.171L1141.66 225.676C1142.06 225.233 1142.61 224.913 1143.23 224.771C1143.34 224.753 1143.47 224.736 1143.57 224.718L1144.14 190.221ZM1140.89 227.149L1109.45 216.768C1109.42 216.874 1109.36 216.981 1109.29 217.07L1131.7 236.412L1141.09 229.083C1141 228.906 1140.95 228.711 1140.89 228.498C1140.79 228.036 1140.8 227.575 1140.89 227.149ZM1218.42 180C1219.36 179.982 1220.24 180.39 1220.85 181.082L1239.92 168.607L1214.74 137.57C1214.49 137.712 1214.23 137.836 1213.94 137.907L1218.42 180ZM1214.17 147.614L1215.65 181.845C1216 181.029 1216.71 180.372 1217.63 180.124L1214.17 147.614ZM1219.18 186.139C1219 186.175 1218.84 186.193 1218.66 186.21L1217.62 222.73C1218.38 222.855 1219.07 223.263 1219.55 223.848L1236.71 213.396L1219.68 185.962C1219.52 186.033 1219.34 186.086 1219.16 186.122L1219.18 186.139ZM1217.87 186.139C1216.98 185.962 1216.22 185.394 1215.77 184.596L1217.05 214.568L1217.87 186.139ZM1212.97 138.014C1212.58 138.014 1212.21 137.907 1211.87 137.748L1176.24 191.995C1176.74 192.421 1177.09 192.989 1177.25 193.663C1177.43 194.444 1177.29 195.207 1176.95 195.846L1214.9 223.635C1215.31 223.21 1215.84 222.89 1216.46 222.748C1216.52 222.748 1216.57 222.73 1216.62 222.713L1212.99 137.996L1212.97 138.014ZM1148.82 117.27L1186.3 127.313L1190.08 107.084C1189.24 106.818 1188.53 106.196 1188.18 105.345L1148.79 116.418C1148.84 116.702 1148.86 116.986 1148.82 117.27ZM1187.08 127.509L1210.25 133.72C1210.43 133.294 1210.7 132.903 1211.05 132.584L1192.51 106.853C1192.26 106.977 1192 107.084 1191.73 107.155C1191.44 107.226 1191.14 107.243 1190.86 107.226L1187.08 127.509ZM1210.09 135.601C1210.01 135.228 1210.01 134.855 1210.04 134.483L1186.94 128.289L1175.17 191.392C1175.32 191.445 1175.44 191.499 1175.56 191.552L1211.18 137.322C1210.64 136.896 1210.25 136.293 1210.09 135.583V135.601ZM1170.56 226.652L1214.03 225.463C1214.07 225.037 1214.21 224.647 1214.41 224.292L1176.45 196.503C1176.04 196.929 1175.51 197.248 1174.89 197.39C1174.66 197.443 1174.45 197.461 1174.22 197.461L1170.56 226.652ZM1173.42 197.355C1173.06 197.266 1172.73 197.106 1172.42 196.893L1146.29 225.747C1146.61 226.12 1146.84 226.563 1146.96 227.078C1146.96 227.149 1146.98 227.22 1147 227.291L1169.74 226.67L1173.42 197.355ZM1214.94 227.965L1167.93 264.272C1168.09 264.539 1168.2 264.84 1168.29 265.16C1168.48 266.011 1168.31 266.845 1167.88 267.52L1195.6 290.713L1215.83 228.569C1215.51 228.409 1215.22 228.214 1214.97 227.965H1214.94ZM1167.35 268.123C1167.35 268.123 1167.21 268.247 1167.14 268.318L1188.77 306.506C1188.93 306.435 1189.09 306.382 1189.24 306.347C1189.67 306.258 1190.1 306.24 1190.5 306.329L1195.31 291.529L1167.35 268.123ZM1167.44 263.634L1214.44 227.326C1214.28 227.06 1214.16 226.759 1214.09 226.439C1214.09 226.368 1214.07 226.297 1214.05 226.244L1170.44 227.433L1166 262.835C1166.53 262.977 1167.03 263.261 1167.42 263.651L1167.44 263.634ZM1169.66 227.451L1147.03 228.072C1146.94 228.995 1146.45 229.811 1145.68 230.325L1164.44 262.835C1164.44 262.835 1164.51 262.817 1164.56 262.8C1164.79 262.746 1165.01 262.729 1165.24 262.729L1169.66 227.451ZM1145.72 225.197L1171.86 196.343C1171.54 195.97 1171.31 195.527 1171.18 195.012C1171.13 194.764 1171.11 194.498 1171.11 194.249L1144.96 190.292L1144.39 224.682C1144.87 224.753 1145.31 224.931 1145.72 225.197ZM1171.23 193.468C1171.47 192.652 1172.02 191.978 1172.78 191.57L1146.48 119.967C1146.48 119.967 1146.45 119.967 1146.43 119.967C1146.32 119.985 1146.2 120.002 1146.09 120.02L1144.96 189.458L1171.22 193.433L1171.23 193.468ZM1173.54 191.286C1173.83 191.215 1174.13 191.197 1174.39 191.215L1186.18 128.041L1148.66 117.997C1148.42 118.707 1147.9 119.293 1147.23 119.665L1173.52 191.268L1173.54 191.286ZM1148.29 115.14L1232.88 74.1483C1232.84 74.0596 1232.82 73.9531 1232.79 73.8466C1232.79 73.8111 1232.79 73.7756 1232.79 73.7401L1165.95 77.7861L1147.48 114.324C1147.8 114.537 1148.08 114.803 1148.31 115.122L1148.29 115.14ZM1150 115.211L1187.98 104.528C1187.75 102.931 1188.78 101.405 1190.36 101.05C1191.5 100.784 1192.63 101.192 1193.36 102.009L1231.28 75.8163L1149.98 115.211H1150ZM1193.18 106.356L1211.74 132.105C1211.96 131.998 1212.21 131.91 1212.45 131.839C1212.92 131.732 1213.39 131.75 1213.84 131.839L1219.78 115.69L1193.8 105.575C1193.65 105.859 1193.45 106.125 1193.2 106.356H1193.18ZM1214.58 132.122C1215.36 132.531 1215.97 133.258 1216.18 134.181C1216.22 134.358 1216.23 134.536 1216.25 134.696L1280.93 139.611C1280.93 139.611 1280.93 139.54 1280.94 139.505L1220.51 115.974L1214.58 132.122ZM1280.93 140.942C1280.89 140.764 1280.87 140.587 1280.86 140.41L1216.18 135.494C1216.06 136.062 1215.79 136.594 1215.38 137.002L1240.61 168.11L1281.16 141.599C1281.05 141.386 1280.98 141.173 1280.93 140.942ZM1240.45 169.175L1221.31 181.703C1221.41 181.916 1221.49 182.129 1221.54 182.36C1221.63 182.786 1221.64 183.194 1221.57 183.602L1261 196.024C1261.14 195.722 1261.34 195.438 1261.57 195.19L1240.45 169.175ZM1260.79 198.029C1260.7 197.603 1260.68 197.195 1260.75 196.787L1221.33 184.365C1221.11 184.826 1220.79 185.217 1220.4 185.518L1237.42 212.935L1260.98 198.597C1260.91 198.419 1260.84 198.224 1260.79 198.029ZM1237.15 214.035L1219.98 224.487C1220.05 224.665 1220.12 224.86 1220.17 225.055C1220.28 225.534 1220.26 226.013 1220.17 226.457L1250.74 238.08C1250.94 237.725 1251.21 237.406 1251.53 237.14L1237.17 214.035H1237.15ZM1250.44 240.245C1250.34 239.766 1250.35 239.287 1250.44 238.843L1221.64 227.894L1252.09 245.462L1252.57 242.534C1251.53 242.215 1250.69 241.381 1250.43 240.245H1250.44ZM1219.62 227.646C1219.27 228.107 1218.77 228.48 1218.18 228.693L1238.71 324.27L1238.95 324.447C1238.95 324.447 1239.1 324.447 1239.18 324.447L1251.95 246.314L1219.6 227.646H1219.62ZM1217.4 228.853C1217.12 228.87 1216.84 228.853 1216.57 228.817L1196.25 291.263L1236.94 325.299C1237.24 325.015 1237.58 324.784 1237.99 324.642L1217.4 228.853ZM1195.99 292.079L1191.27 306.577C1192.1 306.968 1192.74 307.731 1192.97 308.689C1193.08 309.168 1193.06 309.63 1192.97 310.073L1205.09 314.563L1236.32 326.133C1236.32 326.133 1236.39 325.991 1236.44 325.92L1196.01 292.079H1195.99ZM1188.07 306.897L1166.43 268.709C1166.27 268.78 1166.11 268.833 1165.95 268.868C1165.17 269.046 1164.39 268.904 1163.73 268.549L1154.02 283.295L1187.67 307.27C1187.79 307.128 1187.93 307.021 1188.07 306.897ZM1163.09 268.07C1162.66 267.662 1162.36 267.129 1162.22 266.526C1162.15 266.189 1162.13 265.852 1162.17 265.515L1113.83 254.158C1113.78 254.282 1113.73 254.406 1113.67 254.53L1153.38 282.816L1163.11 268.052L1163.09 268.07ZM1113.96 252.383C1114.03 252.72 1114.05 253.057 1114.01 253.377L1162.4 264.592C1162.47 264.432 1162.56 264.272 1162.65 264.13L1131.68 237.388L1113.58 251.496C1113.74 251.762 1113.87 252.064 1113.94 252.383H1113.96ZM1131.08 236.856L1108.85 217.655C1108.51 218.01 1108.08 218.276 1107.61 218.436L1111.01 249.97C1111.81 249.987 1112.57 250.325 1113.12 250.875L1131.08 236.874V236.856ZM1079.69 181.792L1104.98 212.846C1105.26 212.669 1105.58 212.527 1105.92 212.456C1107.59 212.065 1109.26 213.13 1109.65 214.798C1109.73 215.189 1109.73 215.561 1109.68 215.934L1141.18 226.333C1141.18 226.333 1141.19 226.297 1141.21 226.262L1079.68 181.756L1079.69 181.792ZM1143.7 119.275L1079.98 177.852C1080.21 178.172 1080.37 178.544 1080.47 178.953C1080.53 179.201 1080.55 179.449 1080.55 179.716L1144.19 189.369L1145.31 120.038C1144.71 119.949 1144.14 119.683 1143.68 119.275H1143.7ZM1126.02 82.5419L1144.62 114.075C1144.76 114.022 1144.92 113.969 1145.08 113.933C1145.65 113.809 1146.23 113.845 1146.75 114.022L1165.01 77.8926L1127.35 80.1817C1127.3 81.14 1126.8 82.0272 1126.02 82.5773V82.5419ZM1201.42 5.58009L1126.75 78.0345C1127.05 78.4072 1127.28 78.8331 1127.41 79.3477C1127.41 79.3654 1127.41 79.3832 1127.41 79.4009L1165.54 77.094L1201.59 5.70431C1201.59 5.70431 1201.47 5.61558 1201.4 5.56234L1201.42 5.58009ZM1204.29 6.11245C1204.29 6.11245 1204.13 6.16569 1204.04 6.18343C1203.46 6.3254 1202.85 6.27216 1202.32 6.07696L1166.46 77.0408L1232.84 73.0126C1232.91 72.0188 1233.44 71.1316 1234.28 70.5992L1204.29 6.09471V6.11245ZM1233.64 75.3195L1193.95 102.718C1194.07 102.949 1194.16 103.197 1194.21 103.446C1194.32 103.943 1194.3 104.422 1194.21 104.883L1220.17 114.998L1234.51 75.9938C1234.19 75.8164 1233.89 75.6034 1233.64 75.3195ZM1237.42 75.9761C1237.17 76.1003 1236.92 76.2067 1236.64 76.2777C1236.18 76.3842 1235.7 76.3842 1235.25 76.2777L1220.92 115.3L1281.37 138.83C1281.53 138.546 1281.73 138.28 1281.97 138.049L1237.42 75.9761ZM1264.6 194.373L1282.68 143.107C1282.31 142.929 1281.99 142.663 1281.73 142.362L1241.25 168.82L1262.31 194.764C1262.6 194.586 1262.92 194.462 1263.25 194.373C1263.72 194.267 1264.16 194.267 1264.59 194.373H1264.6ZM1262.83 200.318C1262.31 200.123 1261.87 199.786 1261.53 199.36L1237.99 213.698L1252.34 236.803C1252.54 236.714 1252.73 236.643 1252.95 236.607C1253.3 236.536 1253.64 236.519 1253.97 236.554L1262.85 200.336L1262.83 200.318ZM1255.87 241.771C1255.46 242.197 1254.93 242.517 1254.31 242.659C1254.05 242.712 1253.78 242.747 1253.51 242.73L1252.98 245.959L1294.59 269.986L1255.87 241.771ZM1298.03 272.914L1252.84 246.811L1240.1 324.642C1240.54 324.766 1240.93 324.997 1241.27 325.299L1298.3 275.825C1298.1 275.523 1297.94 275.168 1297.85 274.795C1297.71 274.139 1297.78 273.482 1298.01 272.914H1298.03ZM1298.83 276.428L1241.8 325.902C1241.98 326.168 1242.12 326.47 1242.21 326.789L1288.57 320.206L1299.75 276.996C1299.42 276.872 1299.11 276.676 1298.85 276.428H1298.83ZM1315.42 313.835L1301.6 277.12C1301.6 277.12 1301.6 277.12 1301.58 277.12C1301.23 277.209 1300.85 277.209 1300.52 277.173L1289.43 320.064L1313.77 316.604C1313.77 315.432 1314.39 314.368 1315.42 313.818V313.835ZM1281.32 354.277L1314.5 318.538C1314.23 318.201 1314.02 317.81 1313.9 317.384L1289.21 320.898L1280.68 353.904C1280.91 353.993 1281.12 354.117 1281.32 354.259V354.277ZM1278.82 353.78C1279.19 353.691 1279.54 353.691 1279.88 353.727L1288.33 321.04L1242.87 327.499L1277.33 354.579C1277.72 354.188 1278.23 353.904 1278.82 353.762V353.78ZM1276.4 356.513C1276.46 356.052 1276.6 355.608 1276.83 355.235L1242.28 328.085C1242.1 329.327 1241.18 330.392 1239.89 330.676C1238.63 330.96 1237.35 330.427 1236.66 329.434L1179.01 359.601L1276.4 356.531V356.513ZM1236.28 328.706C1236.23 328.582 1236.19 328.457 1236.16 328.316C1236.12 328.191 1236.11 328.049 1236.11 327.925L1184.31 326.133L1177.84 359.299L1236.28 328.706ZM1177 359.352L1183.5 326.115L1130.14 324.27C1130.09 324.607 1129.96 324.944 1129.8 325.246L1177 359.352ZM1129.98 322.69L1186.96 309.754C1186.9 309.133 1187.03 308.529 1187.31 307.997L1153.7 284.041L1129.11 321.395C1129.5 321.732 1129.82 322.176 1130 322.673L1129.98 322.69ZM1128.42 320.969L1153.03 283.579L1113.3 255.258C1112.98 255.613 1112.56 255.879 1112.09 256.056L1126.77 320.65C1127.35 320.596 1127.92 320.703 1128.42 320.951V320.969ZM1125.99 320.845L1111.31 256.251C1111.01 256.287 1110.73 256.251 1110.44 256.216L1093.23 308.849L1124.37 322.193C1124.73 321.59 1125.28 321.111 1125.97 320.862L1125.99 320.845ZM1082.85 345.475L1124.12 324.784C1124.09 324.678 1124.05 324.571 1124.04 324.447C1123.91 323.915 1123.93 323.4 1124.07 322.903L1092.98 309.594L1081.61 344.411C1082.11 344.641 1082.53 345.014 1082.85 345.475ZM1079.59 344.18C1080.01 344.073 1080.44 344.073 1080.85 344.162L1092.26 309.292L1042.96 288.175C1042.8 288.424 1042.59 288.637 1042.36 288.832L1049.05 298.982L1078.91 344.411C1079.13 344.304 1079.34 344.233 1079.59 344.18ZM1078.26 344.854L1048.7 299.887L1041.7 289.24C1041.53 289.329 1041.33 289.4 1041.12 289.435C1040.53 289.56 1039.95 289.524 1039.43 289.347L1025.95 313.108L1077.9 345.262C1078.01 345.12 1078.15 344.978 1078.27 344.872L1078.26 344.854ZM1077.46 345.937L1025.54 313.8L1013.97 334.189C1014.56 334.615 1015 335.254 1015.18 336.017C1015.23 336.248 1015.25 336.496 1015.25 336.727L1077.32 346.363C1077.35 346.221 1077.41 346.079 1077.48 345.954L1077.46 345.937ZM1077.17 347.143L1015.12 337.508C1014.84 338.59 1013.97 339.477 1012.82 339.726C1012.45 339.815 1012.09 339.815 1011.74 339.779L1003.43 371.65L1077.17 347.498C1077.17 347.374 1077.17 347.25 1077.17 347.126V347.143ZM987.55 435.959L1075.76 348.811L1003.2 372.573L986.805 435.533C987.071 435.64 987.32 435.782 987.55 435.959ZM986.024 435.32L1002.3 372.856L972.93 382.474C973.196 383.912 972.415 385.349 971.102 385.899L985.173 435.32C985.457 435.285 985.741 435.285 986.024 435.32ZM983.132 436.545C983.452 436.119 983.877 435.764 984.392 435.533L970.321 386.112C968.724 386.343 967.198 385.331 966.826 383.734C966.826 383.663 966.79 383.592 966.79 383.521L892.674 385.065C892.639 385.349 892.568 385.615 892.461 385.882L983.115 436.545H983.132ZM892.621 384.036C892.621 384.036 892.656 384.178 892.656 384.267L966.772 382.723C966.826 382.226 967.003 381.747 967.269 381.339L927.878 347.108L892.053 382.829C892.319 383.184 892.514 383.575 892.621 384.036ZM891.485 382.262L927.275 346.576L895.495 318.964C895.141 319.248 894.715 319.461 894.253 319.567C894.04 319.62 893.81 319.638 893.597 319.638L890.172 381.676C890.669 381.765 891.113 381.978 891.503 382.279L891.485 382.262ZM888.895 381.694C889.054 381.658 889.196 381.64 889.356 381.623L892.781 319.532C892.781 319.532 892.656 319.496 892.603 319.478L870.21 375.199L886.961 383.042C887.386 382.368 888.061 381.871 888.895 381.676V381.694ZM861.463 424.567C861.729 424.407 862.031 424.3 862.332 424.212C863.024 424.052 863.716 424.141 864.319 424.425L887.599 387.124C887.599 387.124 887.511 387.053 887.475 387.017L856.317 413.476C856.512 413.777 856.654 414.115 856.743 414.469C856.991 415.552 856.636 416.617 855.909 417.344L861.463 424.531V424.567ZM860.824 425.063L855.27 417.877C855.004 418.036 854.702 418.143 854.383 418.231C853.567 418.409 852.75 418.267 852.094 417.859L846.221 425.259L859.972 426.572C860.096 426.004 860.398 425.472 860.806 425.063H860.824ZM826.614 450.333L860.221 428.595C860.132 428.382 860.043 428.169 859.99 427.938C859.954 427.743 859.919 427.548 859.919 427.353L845.653 425.986L826.472 450.173C826.472 450.173 826.578 450.28 826.614 450.333ZM823.562 449.304C824.378 449.126 825.194 449.268 825.851 449.676L844.695 425.897L770.969 418.835C770.916 419.03 770.863 419.225 770.774 419.403L821.805 450.386C822.231 449.854 822.834 449.463 823.544 449.286L823.562 449.304ZM749.126 449.304C749.162 449.428 749.18 449.552 749.18 449.676L821.166 451.841C821.166 451.841 821.202 451.699 821.22 451.611L761.086 428.825L748.168 447.653C748.63 448.061 748.984 448.629 749.126 449.286V449.304ZM744.549 447.298C744.815 447.156 745.099 447.032 745.4 446.961C746.146 446.802 746.873 446.908 747.494 447.227L760.305 428.559L720.222 413.369C720.08 413.706 719.885 414.026 719.636 414.292L744.549 447.281V447.298ZM720.381 411.506C720.399 411.612 720.417 411.719 720.435 411.825L764.919 417.38C765.025 416.954 765.238 416.563 765.504 416.208L736.404 385.864L719.264 409.731C719.814 410.157 720.222 410.761 720.381 411.488V411.506ZM717.471 409.093C717.862 409.093 718.217 409.199 718.572 409.341L735.836 385.296L715.803 364.41C715.502 364.605 715.147 364.765 714.774 364.853C714.632 364.889 714.49 364.907 714.366 364.924L717.471 409.093ZM714.49 410.974C714.863 410.086 715.644 409.394 716.655 409.164L713.532 364.889C713.231 364.836 712.947 364.747 712.681 364.605L688.691 400.451C689.844 401.231 690.359 402.669 689.933 404L714.473 410.974H714.49ZM714.189 412.517L714.313 412.89C714.224 412.5 714.224 412.109 714.278 411.737L689.596 404.727C688.744 406.04 687.005 406.555 685.568 405.81C685.479 405.756 685.391 405.721 685.302 405.668L680.813 412.233L672.26 424.992C672.384 425.117 672.491 425.241 672.597 425.383C672.704 425.507 672.792 425.631 672.863 425.755L714.171 412.5L714.189 412.517ZM614.131 425.152L667.008 426.731C667.061 426.412 667.15 426.11 667.31 425.809C667.487 425.454 667.735 425.152 668.019 424.904L659.005 411.737L614.096 424.975C614.096 424.975 614.096 425.099 614.114 425.152H614.131ZM613.883 424.194L658.544 411.027L642.291 387.266C641.439 387.692 640.392 387.745 639.452 387.266L613.422 423.449C613.617 423.679 613.776 423.945 613.901 424.212L613.883 424.194ZM611.363 422.348C611.736 422.384 612.091 422.49 612.446 422.668C612.57 422.739 612.694 422.81 612.8 422.881L638.777 386.787C638.494 386.538 638.263 386.219 638.085 385.899L609.323 393.37L611.381 422.366L611.363 422.348ZM565.016 412.571L608.045 424.496C608.098 424.336 608.152 424.176 608.24 424.034C608.719 423.094 609.589 422.508 610.565 422.366L608.524 393.565L551.904 408.259C551.904 408.471 551.868 408.702 551.815 408.915L565.034 412.571H565.016ZM551.797 407.442L608.453 392.749L605.472 350.497C605.046 350.48 604.638 350.373 604.23 350.16C604.088 350.089 603.964 350 603.84 349.929L551.442 406.59C551.602 406.857 551.726 407.158 551.797 407.46V407.442ZM549.118 405.082C549.473 405.118 549.845 405.224 550.182 405.402C550.466 405.543 550.715 405.739 550.945 405.952L603.254 349.379C602.97 349.042 602.775 348.652 602.651 348.226L544.238 356.797L549.118 405.082ZM547.61 405.277C547.823 405.189 548.071 405.118 548.302 405.082L543.422 356.886L523.833 359.76C523.833 360.239 523.726 360.719 523.496 361.18C523.265 361.624 522.946 361.996 522.573 362.262L547.61 405.26V405.277ZM522.129 356.992C522.946 357.418 523.513 358.146 523.726 358.98L543.333 356.105L537.425 297.687C537.336 297.687 537.229 297.687 537.123 297.669L531.835 318.165L521.846 356.868C521.934 356.903 522.023 356.939 522.112 356.992H522.129ZM519.716 356.815C520.16 356.673 520.621 356.619 521.083 356.673L531.126 317.722L536.36 297.456C536.36 297.456 536.183 297.385 536.112 297.35C535.65 297.119 535.278 296.782 534.994 296.392L500.18 315.166L519.716 356.815ZM499.471 315.557L446.399 344.18C446.523 344.553 446.576 344.961 446.541 345.369L517.729 358.855C517.782 358.678 517.853 358.518 517.924 358.341C518.173 357.844 518.545 357.436 518.989 357.152L499.471 315.539V315.557ZM502.771 385.136L518.634 362.103C517.942 361.482 517.569 360.577 517.605 359.654L446.381 346.15C446.328 346.274 446.292 346.416 446.221 346.54L502.771 385.136ZM446.062 343.452L499.133 314.829L491.237 298.006C490.474 298.237 489.641 298.202 488.878 297.811C488.736 297.74 488.611 297.651 488.487 297.563L445.973 343.293C445.973 343.293 446.044 343.399 446.079 343.452H446.062ZM444.855 342.352C445.068 342.459 445.245 342.583 445.423 342.725L487.902 297.048C487.582 296.658 487.369 296.214 487.245 295.735L436.711 300.296L443.506 342.033C443.968 342.033 444.411 342.139 444.855 342.37V342.352ZM442.069 342.334C442.282 342.246 442.477 342.157 442.708 342.104L435.894 300.349L416.234 302.123C416.234 302.567 416.11 302.993 415.897 303.419C415.72 303.756 415.489 304.058 415.223 304.306L442.051 342.334H442.069ZM400.886 354.916C401.56 355.271 402.057 355.821 402.341 356.46L440.366 345.6C440.277 344.978 440.366 344.322 440.667 343.719C440.863 343.346 441.111 343.026 441.413 342.76L414.602 304.75C414.052 305.034 413.431 305.158 412.792 305.087L400.602 354.774C400.691 354.809 400.797 354.845 400.886 354.898V354.916ZM399.821 354.596L412.011 304.909C411.922 304.874 411.816 304.838 411.727 304.785C411.497 304.661 411.266 304.519 411.089 304.342L379.824 331.794L397.887 355.005C398.455 354.667 399.147 354.525 399.821 354.596ZM333.619 373.265L396.361 358.039C396.29 357.453 396.397 356.85 396.68 356.282C396.84 355.981 397.018 355.732 397.248 355.501L379.203 332.326L333.282 372.643C333.406 372.839 333.512 373.052 333.601 373.265H333.619ZM332.128 371.597C332.359 371.721 332.59 371.863 332.767 372.04L378.724 331.687L349.89 294.635C349.34 294.954 348.701 295.114 348.045 295.061L331.738 371.437C331.862 371.49 331.986 371.526 332.111 371.597H332.128ZM330.496 371.259C330.656 371.259 330.798 371.259 330.957 371.259L347.264 294.883C347.14 294.83 347.016 294.794 346.891 294.724C346.749 294.653 346.607 294.564 346.483 294.475L320.684 321.838L330.514 371.277L330.496 371.259ZM329.289 369.325L319.974 322.548L316.319 326.417C317.082 327.357 317.259 328.67 316.691 329.806C316.39 330.409 315.91 330.871 315.343 331.155L329.272 369.325H329.289ZM314.136 325.263C314.544 325.299 314.952 325.405 315.325 325.6C315.467 325.671 315.609 325.76 315.733 325.849L319.779 321.572L311.475 279.817L314.136 325.263ZM311.226 326.807C311.687 326.009 312.486 325.476 313.338 325.317L310.516 277.156C310.108 277.12 309.7 277.014 309.328 276.818C308.423 276.357 307.855 275.523 307.677 274.6L217.184 285.975C217.184 286.365 217.148 286.774 217.006 287.164L311.226 326.789V326.807ZM217.042 285.194L307.624 273.802C307.624 273.66 307.66 273.536 307.695 273.394L256.38 260.262L237.784 255.506C237.784 255.506 237.713 255.684 237.66 255.772C236.879 257.298 235.034 257.92 233.49 257.156L215.906 283.615C216.456 284.023 216.847 284.573 217.042 285.212V285.194ZM215.196 283.207L232.816 256.695C232.213 256.163 231.84 255.417 231.751 254.637L208.897 253.909L213.741 283.012C214.22 282.958 214.717 283.012 215.196 283.207ZM213.209 329.434L213.635 289.222C213.298 289.169 212.961 289.08 212.659 288.921C211.115 288.14 210.512 286.259 211.293 284.715C211.47 284.36 211.719 284.059 211.985 283.81L194.347 255.542C194.347 255.542 194.294 255.542 194.276 255.559L213.191 329.434H213.209ZM211.825 329.948C212.02 329.824 212.215 329.717 212.428 329.629L193.514 255.755C192.91 255.826 192.289 255.737 191.721 255.435C191.615 255.382 191.508 255.329 191.42 255.258L168.832 281.521L211.825 329.93V329.948ZM123.674 336.585L210.477 332.29C210.512 331.9 210.619 331.492 210.814 331.119C210.938 330.889 211.08 330.676 211.24 330.48L168.317 282.142L122.911 334.935C123.319 335.396 123.585 335.964 123.674 336.567V336.585ZM122.006 334.26C122.112 334.313 122.201 334.367 122.307 334.438L167.767 281.556L150.059 261.611C149.367 262.09 148.479 262.267 147.646 262.072L121.953 334.242C121.953 334.242 121.988 334.242 122.006 334.242V334.26ZM121.19 333.976L146.883 261.806C146.616 261.664 146.386 261.504 146.173 261.309L96.5078 302.496L119.007 334.349C119.664 333.976 120.427 333.834 121.19 333.976ZM113.719 376.281L119.628 339.992C119.468 339.939 119.326 339.885 119.167 339.815C118.634 339.548 118.226 339.14 117.925 338.679L80.6272 354.845L111.164 377.275C111.821 376.565 112.779 376.21 113.719 376.281ZM6.15625 387.372L110.33 379.404C110.33 378.925 110.437 378.446 110.667 377.985C110.667 377.985 110.685 377.949 110.703 377.932L79.7931 355.218L6.10303 387.141C6.10303 387.141 6.13843 387.283 6.15625 387.354V387.372ZM4.5238 385.225C5.07385 385.509 5.49976 385.917 5.78369 386.414L79.0302 354.667L25.213 315.131C24.5211 315.858 23.5273 316.195 22.5515 316.071L4.27539 385.118C4.27539 385.118 4.43506 385.19 4.50598 385.225H4.5238Z" fill="#C5D2FF"/>
</g>
<g filter="url(#filter1_d_757_21912)">
<rect x="616" y="307" width="56" height="56" rx="28" fill="#FFEBE7"/>
<path d="M644 330V326H634V344H654V330H644ZM638 342H636V340H638V342ZM638 338H636V336H638V338ZM638 334H636V332H638V334ZM638 330H636V328H638V330ZM642 342H640V340H642V342ZM642 338H640V336H642V338ZM642 334H640V332H642V334ZM642 330H640V328H642V330ZM652 342H644V340H646V338H644V336H646V334H644V332H652V342ZM650 334H648V336H650V334ZM650 338H648V340H650V338Z" fill="#FF7F5C"/>
</g>
<g filter="url(#filter2_d_757_21912)">
<rect x="1165" y="75" width="56" height="56" rx="28" fill="#FBEFE4"/>
<path d="M1193 98V94H1183V112H1203V98H1193ZM1187 110H1185V108H1187V110ZM1187 106H1185V104H1187V106ZM1187 102H1185V100H1187V102ZM1187 98H1185V96H1187V98ZM1191 110H1189V108H1191V110ZM1191 106H1189V104H1191V106ZM1191 102H1189V100H1191V102ZM1191 98H1189V96H1191V98ZM1201 110H1193V108H1195V106H1193V104H1195V102H1193V100H1201V110ZM1199 102H1197V104H1199V102ZM1199 106H1197V108H1199V106Z" fill="#EDA224"/>
</g>
<g filter="url(#filter3_d_757_21912)">
<rect x="285" y="295" width="56" height="56" rx="28" fill="#E4F0E8"/>
<path d="M313 316.9C314.16 316.9 315.1 317.84 315.1 319C315.1 320.16 314.16 321.1 313 321.1C311.84 321.1 310.9 320.16 310.9 319C310.9 317.84 311.84 316.9 313 316.9ZM313 325.9C315.97 325.9 319.1 327.36 319.1 328V329.1H306.9V328C306.9 327.36 310.03 325.9 313 325.9ZM313 315C310.79 315 309 316.79 309 319C309 321.21 310.79 323 313 323C315.21 323 317 321.21 317 319C317 316.79 315.21 315 313 315ZM313 324C310.33 324 305 325.34 305 328V331H321V328C321 325.34 315.67 324 313 324Z" fill="#00AB66"/>
</g>
<g filter="url(#filter4_d_757_21912)">
<rect x="940" y="352" width="56" height="56" rx="28" fill="#EEE8F4"/>
<path d="M968 373.9C969.16 373.9 970.1 374.84 970.1 376C970.1 377.16 969.16 378.1 968 378.1C966.84 378.1 965.9 377.16 965.9 376C965.9 374.84 966.84 373.9 968 373.9ZM968 382.9C970.97 382.9 974.1 384.36 974.1 385V386.1H961.9V385C961.9 384.36 965.03 382.9 968 382.9ZM968 372C965.79 372 964 373.79 964 376C964 378.21 965.79 380 968 380C970.21 380 972 378.21 972 376C972 373.79 970.21 372 968 372ZM968 381C965.33 381 960 382.34 960 385V388H976V385C976 382.34 970.67 381 968 381Z" fill="#9B69C6"/>
</g>
<g filter="url(#filter5_d_757_21912)">
<rect x="155" y="84" width="56" height="56" rx="28" fill="#E4E9FF"/>
<path d="M183 107V103H173V121H193V107H183ZM177 119H175V117H177V119ZM177 115H175V113H177V115ZM177 111H175V109H177V111ZM177 107H175V105H177V107ZM181 119H179V117H181V119ZM181 115H179V113H181V115ZM181 111H179V109H181V111ZM181 107H179V105H181V107ZM191 119H183V117H185V115H183V113H185V111H183V109H191V119ZM189 111H187V113H189V111ZM189 115H187V117H189V115Z" fill="#0D72FF"/>
</g>
<circle cx="893" cy="315" r="4" fill="url(#paint0_linear_757_21912)"/>
<circle cx="747" cy="449" r="4" fill="url(#paint1_linear_757_21912)"/>
<circle cx="444" cy="344" r="4" fill="url(#paint2_linear_757_21912)"/>
<circle cx="80" cy="279" r="4" fill="url(#paint3_linear_757_21912)"/>
<circle cx="319" cy="201" r="4" fill="url(#paint4_linear_757_21912)"/>
<circle cx="1165" cy="264" r="4" fill="url(#paint5_linear_757_21912)"/>
</g>
<defs>
<filter id="filter0_f_757_21912" x="-2.96875" y="-2.97852" width="1326.03" height="461.408" filterUnits="userSpaceOnUse" color-interpolation-filters="sRGB">
<feFlood flood-opacity="0" result="BackgroundImageFix"/>
<feBlend mode="normal" in="SourceGraphic" in2="BackgroundImageFix" result="shape"/>
<feGaussianBlur stdDeviation="1.5" result="effect1_foregroundBlur_757_21912"/>
</filter>
<filter id="filter1_d_757_21912" x="606" y="307" width="76" height="86" filterUnits="userSpaceOnUse" color-interpolation-filters="sRGB">
<feFlood flood-opacity="0" result="BackgroundImageFix"/>
<feColorMatrix in="SourceAlpha" type="matrix" values="0 0 0 0 0 0 0 0 0 0 0 0 0 0 0 0 0 0 127 0" result="hardAlpha"/>
<feMorphology radius="10" operator="erode" in="SourceAlpha" result="effect1_dropShadow_757_21912"/>
<feOffset dy="20"/>
<feGaussianBlur stdDeviation="10"/>
<feComposite in2="hardAlpha" operator="out"/>
<feColorMatrix type="matrix" values="0 0 0 0 0 0 0 0 0 0.396078 0 0 0 0 0.94902 0 0 0 0.6 0"/>
<feBlend mode="normal" in2="BackgroundImageFix" result="effect1_dropShadow_757_21912"/>
<feBlend mode="normal" in="SourceGraphic" in2="effect1_dropShadow_757_21912" result="shape"/>
</filter>
<filter id="filter2_d_757_21912" x="1155" y="75" width="76" height="86" filterUnits="userSpaceOnUse" color-interpolation-filters="sRGB">
<feFlood flood-opacity="0" result="BackgroundImageFix"/>
<feColorMatrix in="SourceAlpha" type="matrix" values="0 0 0 0 0 0 0 0 0 0 0 0 0 0 0 0 0 0 127 0" result="hardAlpha"/>
<feMorphology radius="10" operator="erode" in="SourceAlpha" result="effect1_dropShadow_757_21912"/>
<feOffset dy="20"/>
<feGaussianBlur stdDeviation="10"/>
<feComposite in2="hardAlpha" operator="out"/>
<feColorMatrix type="matrix" values="0 0 0 0 0 0 0 0 0 0.396078 0 0 0 0 0.94902 0 0 0 0.6 0"/>
<feBlend mode="normal" in2="BackgroundImageFix" result="effect1_dropShadow_757_21912"/>
<feBlend mode="normal" in="SourceGraphic" in2="effect1_dropShadow_757_21912" result="shape"/>
</filter>
<filter id="filter3_d_757_21912" x="275" y="295" width="76" height="86" filterUnits="userSpaceOnUse" color-interpolation-filters="sRGB">
<feFlood flood-opacity="0" result="BackgroundImageFix"/>
<feColorMatrix in="SourceAlpha" type="matrix" values="0 0 0 0 0 0 0 0 0 0 0 0 0 0 0 0 0 0 127 0" result="hardAlpha"/>
<feMorphology radius="10" operator="erode" in="SourceAlpha" result="effect1_dropShadow_757_21912"/>
<feOffset dy="20"/>
<feGaussianBlur stdDeviation="10"/>
<feComposite in2="hardAlpha" operator="out"/>
<feColorMatrix type="matrix" values="0 0 0 0 0 0 0 0 0 0.396078 0 0 0 0 0.94902 0 0 0 0.6 0"/>
<feBlend mode="normal" in2="BackgroundImageFix" result="effect1_dropShadow_757_21912"/>
<feBlend mode="normal" in="SourceGraphic" in2="effect1_dropShadow_757_21912" result="shape"/>
</filter>
<filter id="filter4_d_757_21912" x="930" y="352" width="76" height="86" filterUnits="userSpaceOnUse" color-interpolation-filters="sRGB">
<feFlood flood-opacity="0" result="BackgroundImageFix"/>
<feColorMatrix in="SourceAlpha" type="matrix" values="0 0 0 0 0 0 0 0 0 0 0 0 0 0 0 0 0 0 127 0" result="hardAlpha"/>
<feMorphology radius="10" operator="erode" in="SourceAlpha" result="effect1_dropShadow_757_21912"/>
<feOffset dy="20"/>
<feGaussianBlur stdDeviation="10"/>
<feComposite in2="hardAlpha" operator="out"/>
<feColorMatrix type="matrix" values="0 0 0 0 0 0 0 0 0 0.396078 0 0 0 0 0.94902 0 0 0 0.6 0"/>
<feBlend mode="normal" in2="BackgroundImageFix" result="effect1_dropShadow_757_21912"/>
<feBlend mode="normal" in="SourceGraphic" in2="effect1_dropShadow_757_21912" result="shape"/>
</filter>
<filter id="filter5_d_757_21912" x="145" y="84" width="76" height="86" filterUnits="userSpaceOnUse" color-interpolation-filters="sRGB">
<feFlood flood-opacity="0" result="BackgroundImageFix"/>
<feColorMatrix in="SourceAlpha" type="matrix" values="0 0 0 0 0 0 0 0 0 0 0 0 0 0 0 0 0 0 127 0" result="hardAlpha"/>
<feMorphology radius="10" operator="erode" in="SourceAlpha" result="effect1_dropShadow_757_21912"/>
<feOffset dy="20"/>
<feGaussianBlur stdDeviation="10"/>
<feComposite in2="hardAlpha" operator="out"/>
<feColorMatrix type="matrix" values="0 0 0 0 0 0 0 0 0 0.396078 0 0 0 0 0.94902 0 0 0 0.6 0"/>
<feBlend mode="normal" in2="BackgroundImageFix" result="effect1_dropShadow_757_21912"/>
<feBlend mode="normal" in="SourceGraphic" in2="effect1_dropShadow_757_21912" result="shape"/>
</filter>
<linearGradient id="paint0_linear_757_21912" x1="897" y1="311" x2="889" y2="311" gradientUnits="userSpaceOnUse">
<stop stop-color="#EDA224"/>
<stop offset="1" stop-color="#F0B876"/>
</linearGradient>
<linearGradient id="paint1_linear_757_21912" x1="751" y1="453" x2="742.12" y2="451.861" gradientUnits="userSpaceOnUse">
<stop stop-color="#0065F2"/>
<stop offset="1" stop-color="#7298FF"/>
</linearGradient>
<linearGradient id="paint2_linear_757_21912" x1="448" y1="340" x2="440" y2="340" gradientUnits="userSpaceOnUse">
<stop stop-color="#EDA224"/>
<stop offset="1" stop-color="#F0B876"/>
</linearGradient>
<linearGradient id="paint3_linear_757_21912" x1="84" y1="283" x2="75.1197" y2="281.861" gradientUnits="userSpaceOnUse">
<stop stop-color="#0065F2"/>
<stop offset="1" stop-color="#7298FF"/>
</linearGradient>
<linearGradient id="paint4_linear_757_21912" x1="323" y1="205" x2="314.12" y2="203.861" gradientUnits="userSpaceOnUse">
<stop stop-color="#0065F2"/>
<stop offset="1" stop-color="#7298FF"/>
</linearGradient>
<linearGradient id="paint5_linear_757_21912" x1="1169" y1="268" x2="1160.12" y2="266.861" gradientUnits="userSpaceOnUse">
<stop stop-color="#0065F2"/>
<stop offset="1" stop-color="#7298FF"/>
</linearGradient>
<clipPath id="clip0_757_21912">
<rect width="1320" height="455.4" fill="white" transform="matrix(-1 0 0 1 1320 0.0253906)"/>
</clipPath>
</defs>
</svg>
