<svg width="360" height="168" viewBox="0 0 360 168" fill="none" xmlns="http://www.w3.org/2000/svg">
<g clip-path="url(#clip0_757_30751)">
<path d="M-23.898 119.077C-23.706 118.705 -23.3057 118.508 -22.9163 118.558L-17.2673 97.2863C-17.2673 97.2863 -17.3167 97.2644 -17.3386 97.2535C-17.8157 97.0129 -18.0022 96.4335 -17.7609 95.9579C-17.6018 95.6408 -17.2892 95.4549 -16.9547 95.4331L-15.2599 71.8548C-15.3422 71.8384 -15.4245 71.8111 -15.5067 71.7728C-15.9839 71.5323 -16.1704 70.9528 -15.9291 70.4772C-15.6877 70.0016 -15.1064 69.8157 -14.6292 70.0562C-14.4976 70.1218 -14.3934 70.2148 -14.3112 70.3186L0.184296 61.7084C0.074585 61.457 0.074585 61.1563 0.2117 60.8884C0.453003 60.4128 1.03436 60.2269 1.51151 60.4675C1.61023 60.5167 1.698 60.5823 1.76929 60.6588L11.0764 53.798C10.9229 53.5301 10.9064 53.1912 11.06 52.896C11.1697 52.6773 11.3561 52.5242 11.5645 52.4368L7.59378 36.7307C7.41281 36.7526 7.22086 36.7198 7.04535 36.6323C6.56821 36.3918 6.38171 35.8123 6.62305 35.3367C6.82596 34.9431 7.26471 34.7463 7.68152 34.8337L11.6742 23.3699C11.6742 23.3699 11.6742 23.3699 11.6687 23.3699C11.1916 23.1293 11.0051 22.5499 11.2464 22.0743C11.4878 21.5986 12.0691 21.4128 12.5462 21.6533C12.804 21.7845 12.9741 22.0086 13.0399 22.2656L28.0453 20.3413C28.0453 20.1937 28.0782 20.0461 28.1495 19.9039C28.3909 19.4283 28.9722 19.2425 29.4494 19.483C29.9265 19.7235 30.113 20.303 29.8717 20.7786C29.8607 20.795 29.8497 20.8114 29.8443 20.8333L54.0417 39.65L54.113 39.5898L54.1514 39.7374L54.5463 40.0436L54.2117 39.9725L58.698 57.417C58.8845 57.3951 59.0764 57.4225 59.2519 57.5154C59.6194 57.7013 59.8114 58.084 59.773 58.4666L73.7309 61.7139C73.7419 61.6811 73.7583 61.6483 73.7748 61.6155C74.0161 61.1399 74.5974 60.954 75.0746 61.1946C75.5079 61.4132 75.6998 61.9162 75.5517 62.359L114.36 59.0516C114.36 58.9204 114.398 58.7837 114.464 58.658C114.705 58.1824 115.287 57.9965 115.764 58.237C116.241 58.4776 116.427 59.0571 116.186 59.5327C116.093 59.7131 115.95 59.8497 115.786 59.9427L127.358 89.9335C127.572 89.8788 127.808 89.9007 128.022 90.01C128.219 90.1084 128.362 90.2669 128.455 90.4528L141.415 86.1942C141.376 85.9919 141.398 85.7732 141.502 85.5764C141.744 85.1008 142.325 84.915 142.802 85.1555C143.137 85.325 143.329 85.6584 143.329 86.0028L155.663 87.4843C155.68 87.4187 155.707 87.3477 155.74 87.2821C155.981 86.8065 156.563 86.6206 157.04 86.8611C157.517 87.1017 157.704 87.6811 157.462 88.1568C157.44 88.195 157.424 88.2278 157.402 88.2606L174.146 103.026C174.431 102.775 174.853 102.709 175.215 102.895C175.693 103.136 175.879 103.715 175.638 104.191C175.479 104.497 175.177 104.683 174.853 104.71L174.25 117.475C174.354 117.492 174.464 117.519 174.563 117.574C175.001 117.798 175.193 118.306 175.034 118.754L182.312 121.679C182.614 121.641 182.905 121.745 183.113 121.947L195.936 111.943C195.886 111.861 195.848 111.768 195.826 111.669C195.711 111.156 196.034 110.642 196.55 110.521C196.934 110.434 197.312 110.587 197.532 110.882L200.038 109.756L213.952 103.502C213.848 102.994 214.172 102.496 214.682 102.381C215.197 102.267 215.713 102.589 215.833 103.103C215.866 103.251 215.861 103.404 215.833 103.54L230.225 108.767C230.351 108.531 230.576 108.351 230.855 108.285L230.049 99.4949L251.274 97.4722C251.29 97.0458 251.587 96.6685 252.02 96.5701C252.25 96.5155 252.475 96.5537 252.667 96.6467L259.523 86.6261C259.38 86.5003 259.27 86.3254 259.226 86.1231C259.111 85.6092 259.435 85.0954 259.95 84.9751C260.192 84.9204 260.433 84.9641 260.63 85.0735L272.482 69.1706C272.351 69.0449 272.257 68.8809 272.214 68.695C272.098 68.1811 272.422 67.6672 272.938 67.547C273.453 67.4322 273.969 67.7547 274.089 68.2686C274.139 68.4709 274.111 68.6731 274.04 68.8481L285.415 75.441C285.546 75.2715 285.738 75.1403 285.963 75.0911C286.418 74.9873 286.868 75.2223 287.055 75.6324L317.148 66.4864L317.186 66.6012C317.115 66.2787 317.214 65.9561 317.427 65.732L309.612 56.1651C309.524 56.2198 309.426 56.2635 309.321 56.2854C308.806 56.4002 308.29 56.0777 308.17 55.5638C308.055 55.0499 308.378 54.536 308.894 54.4158C309.201 54.3447 309.502 54.4322 309.722 54.618L329.422 36.5667C329.362 36.4738 329.312 36.3699 329.285 36.2496C329.197 35.8669 329.356 35.4897 329.652 35.2656L323.905 25.5457C323.866 25.5621 323.828 25.573 323.789 25.5785C323.274 25.6933 322.758 25.3707 322.638 24.8568C322.523 24.343 322.846 23.8291 323.362 23.7088C323.636 23.6487 323.916 23.7088 324.129 23.8619L347.175 1.53007C347.098 1.4262 347.038 1.30593 347.005 1.16926C346.89 0.655385 347.214 0.141507 347.729 0.0212381C348.245 -0.0935644 348.76 0.228976 348.881 0.742854C348.974 1.1474 348.793 1.55194 348.459 1.76514L357.727 21.6314C357.727 21.6314 357.777 21.615 357.804 21.6096C358.32 21.4948 358.835 21.8173 358.956 22.3312C359.033 22.6756 358.917 23.02 358.676 23.2441L372.448 42.367C372.524 42.3287 372.601 42.2959 372.689 42.274C373.204 42.1538 373.72 42.4818 373.841 42.9956C373.956 43.5095 373.632 44.0234 373.117 44.1437C372.974 44.1765 372.837 44.1765 372.705 44.1437L367.117 59.9372C367.363 60.0629 367.555 60.2925 367.621 60.5823C367.736 61.0962 367.413 61.61 366.897 61.7303C366.788 61.7522 366.683 61.7576 366.579 61.7467L363.837 72.9044C364.128 73.0138 364.353 73.2652 364.429 73.5878C364.484 73.8228 364.446 74.0634 364.336 74.2602L377.416 83.7615C377.543 83.6303 377.707 83.5319 377.899 83.4881C378.415 83.3733 378.93 83.6959 379.051 84.2097C379.15 84.6416 378.941 85.068 378.563 85.2703L382.835 96.5811C382.835 96.5811 382.835 96.5811 382.841 96.5811C383.356 96.4663 383.872 96.7888 383.992 97.3027C384.108 97.8166 383.784 98.3304 383.268 98.4507C382.989 98.5163 382.714 98.4507 382.495 98.2922L372.239 109.291C372.332 109.401 372.404 109.537 372.437 109.69C372.552 110.204 372.228 110.718 371.713 110.838C371.197 110.953 370.682 110.631 370.561 110.117C370.561 110.095 370.555 110.079 370.55 110.057L340.001 111.013L339.985 111.106L339.864 111.019L339.365 111.035L339.667 110.877L325.084 100.375C324.958 100.512 324.788 100.61 324.596 100.654C324.195 100.741 323.8 100.572 323.587 100.255L310.83 106.629C310.841 106.662 310.852 106.695 310.857 106.733C310.972 107.252 310.649 107.761 310.133 107.881C309.661 107.99 309.195 107.728 309.025 107.291L281.433 134.46C281.515 134.564 281.576 134.69 281.603 134.827C281.718 135.341 281.395 135.854 280.879 135.975C280.363 136.09 279.848 135.767 279.727 135.253C279.683 135.056 279.705 134.859 279.771 134.685L251.751 119.077C251.619 119.252 251.427 119.388 251.192 119.438C250.978 119.487 250.764 119.46 250.577 119.372L243.382 130.863C243.541 130.994 243.661 131.175 243.711 131.394C243.826 131.907 243.502 132.421 242.987 132.542C242.625 132.624 242.268 132.487 242.044 132.225L231.656 138.921C231.683 138.987 231.711 139.053 231.727 139.124C231.842 139.643 231.519 140.151 231.003 140.272C230.488 140.386 229.972 140.064 229.852 139.55C229.841 139.512 229.835 139.473 229.835 139.435L207.585 138.768C207.524 139.145 207.245 139.463 206.85 139.55C206.334 139.665 205.819 139.342 205.698 138.828C205.621 138.489 205.731 138.156 205.961 137.932L198.267 127.775C198.179 127.835 198.075 127.878 197.965 127.9C197.488 128.01 197.016 127.742 196.852 127.299L184.111 131.372C184.111 131.372 184.122 131.41 184.128 131.432C184.243 131.951 183.919 132.46 183.404 132.58C183.064 132.656 182.729 132.542 182.504 132.312C182.323 132.153 182.214 131.929 182.192 131.694L165.848 131.208C165.831 131.306 165.804 131.399 165.755 131.492C165.513 131.968 164.932 132.153 164.455 131.913C164.104 131.738 163.912 131.372 163.928 131.005L161.268 130.267L146.504 126.189C146.257 126.648 145.687 126.823 145.215 126.588C144.738 126.348 144.552 125.768 144.793 125.293C144.864 125.156 144.963 125.041 145.078 124.954L137.34 111.708C137.093 111.806 136.802 111.806 136.544 111.675L131.504 118.978L113.817 106.952C113.532 107.269 113.06 107.373 112.66 107.17C112.451 107.066 112.298 106.891 112.21 106.695L100.457 110.04C100.484 110.232 100.457 110.434 100.363 110.62C100.122 111.095 99.5408 111.281 99.0636 111.041C98.8442 110.926 98.6852 110.74 98.6029 110.527L79.2099 115.217C79.2318 115.398 79.1989 115.584 79.1112 115.759C78.8699 116.234 78.2885 116.42 77.8113 116.179C77.3342 115.939 77.1477 115.359 77.3891 114.884C77.4823 114.698 77.6304 114.556 77.8059 114.468L73.2757 102.097C73.0618 102.146 72.8369 102.124 72.6285 102.015C72.2117 101.802 72.0143 101.332 72.1349 100.9L43.0125 88.6925L43.0618 88.5777C42.9082 88.8729 42.623 89.0588 42.3159 89.097L42.1843 101.49C42.2885 101.507 42.3872 101.534 42.4859 101.583C42.9631 101.824 43.1496 102.403 42.9083 102.879C42.6669 103.354 42.0856 103.54 41.6084 103.3C41.3287 103.158 41.1477 102.901 41.0984 102.611L14.2574 103.934C14.2465 104.049 14.2135 104.158 14.1587 104.262C13.9777 104.612 13.6157 104.809 13.2428 104.787L11.4164 115.972C11.4548 115.988 11.4878 115.999 11.5262 116.021C12.0033 116.261 12.1898 116.841 11.9485 117.317C11.7072 117.792 11.1258 117.978 10.6487 117.738C10.3964 117.606 10.2209 117.382 10.155 117.131L-22.0607 119.585C-22.0662 119.717 -22.0991 119.848 -22.1649 119.973C-22.4062 120.449 -22.9875 120.635 -23.4647 120.394C-23.9419 120.154 -24.1283 119.574 -23.887 119.099L-23.898 119.077ZM-14.717 71.8111C-14.8102 71.8493 -14.9145 71.8712 -15.0132 71.8767L-16.7079 95.4549C-16.6256 95.4713 -16.5433 95.4986 -16.461 95.5369C-16.3294 95.6025 -16.2197 95.7009 -16.132 95.8102L-4.96564 89.3649L-14.717 71.8056V71.8111ZM12.7711 53.7707C12.6998 53.9073 12.6011 54.0167 12.4914 54.1041L17.1861 62.4027L13.4128 52.1962L12.7163 52.7976C12.9028 53.0764 12.9357 53.4427 12.7711 53.7652V53.7707ZM9.47498 72.8334C9.52432 72.8607 9.56821 72.888 9.61206 72.9208L17.1093 64.4418C16.9503 64.2614 16.868 64.0264 16.8735 63.7913L10.7035 62.8783L9.32141 72.7732C9.37625 72.7896 9.4256 72.806 9.47498 72.8334ZM8.64679 74.5718L3.01974 82.9852L9.46399 74.5554C9.21719 74.6757 8.91553 74.6921 8.64679 74.5718ZM9.98502 73.872L15.6285 66.4919L9.79306 73.0903C9.96857 73.309 10.0399 73.5932 9.98502 73.872ZM16.9064 63.5453C16.9229 63.4851 16.9448 63.425 16.9722 63.3703C17.0435 63.2337 17.1367 63.1243 17.2519 63.0369L12.2666 54.2244C12.1514 54.2736 12.0253 54.2955 11.8936 54.2955L10.7309 62.6323L16.9009 63.5453H16.9064ZM17.6194 62.8674C17.7949 62.8291 17.9868 62.8346 18.1678 62.9002L32.241 36.1075L32.2245 36.02C32.2245 36.02 32.1861 35.9872 32.1697 35.9708L13.6102 52.0213L17.6194 62.8619V62.8674ZM18.3872 63.0205C18.4585 63.0697 18.5243 63.1298 18.5792 63.1954L35.8223 52.3657L32.8717 36.2223C32.7455 36.2332 32.6194 36.2168 32.4933 36.1731L18.3872 63.0259V63.0205ZM37.3854 65.1033C37.2867 64.9666 37.2263 64.8026 37.2099 64.6332L18.7876 63.9662C18.7711 64.0592 18.7437 64.1521 18.6943 64.245C18.6834 64.2669 18.6724 64.2833 18.6614 64.2997L29.3013 72.642L37.3854 65.1033ZM22.6212 79.2131C22.687 79.306 22.7364 79.4099 22.7693 79.5192L34.7309 77.8245C34.7309 77.6769 34.7638 77.5184 34.8351 77.3763C34.8461 77.3544 34.8571 77.338 34.868 77.3216L29.3177 72.97L22.6212 79.2131ZM57.8808 58.0457L41.7181 49.851C41.6084 50.0095 41.4549 50.1298 41.2849 50.1954L44.5481 62.5449L57.8369 58.5268C57.8095 58.3682 57.8205 58.2042 57.8808 58.0457ZM41.049 50.261C40.9942 50.2665 40.9338 50.2719 40.879 50.2665L38.4658 63.6273C38.5152 63.6437 38.5645 63.6601 38.6139 63.6874C38.8388 63.8022 38.9978 63.9881 39.0801 64.2013L44.3232 62.6159L41.0545 50.261H41.049ZM40.6322 50.2227C40.5828 50.2063 40.5334 50.1899 40.4841 50.1626C40.3634 50.1025 40.2592 50.015 40.177 49.9166L36.0911 52.4805L38.1203 63.5781C38.1477 63.5781 38.1806 63.5781 38.2081 63.5781L40.6267 50.2173L40.6322 50.2227ZM35.8662 52.6281L18.7053 63.4031C18.7492 63.5015 18.7821 63.6109 18.7931 63.7202L37.2154 64.3872C37.2318 64.2942 37.2592 64.2013 37.3086 64.1084C37.4293 63.8678 37.6377 63.7038 37.879 63.6273L35.8717 52.6281H35.8662ZM36.0417 52.2236L40.0453 49.7089C39.9247 49.4519 39.9192 49.1403 40.0618 48.867C40.1276 48.7358 40.2263 48.621 40.336 48.539L38.3342 45.073L33.1843 36.1403C33.1843 36.1403 33.1349 36.1567 33.113 36.1676L36.0417 52.2181V52.2236ZM40.5499 48.4187C40.8022 48.3148 41.0929 48.3148 41.3561 48.4515C41.7565 48.6538 41.9539 49.102 41.8607 49.523L45.4091 46.642L33.4366 35.9927C33.4366 35.9927 33.4091 36.0146 33.3982 36.0255L40.5554 48.4242L40.5499 48.4187ZM42.0033 49.7198L57.985 57.827L45.5901 46.806L42.0033 49.7198ZM57.9027 58.7673L44.6084 62.7854L48.4695 77.3817C48.6176 77.3653 48.7711 77.3817 48.9137 77.4309L58.2373 59.1664C58.0838 59.0625 57.9741 58.9258 57.9027 58.7673ZM44.3671 62.8565L39.1185 64.4418C39.1404 64.6222 39.1075 64.8081 39.0197 64.983C38.9704 65.076 38.9046 65.1635 38.8333 65.2345L48.113 77.4965C48.1514 77.4747 48.1843 77.4583 48.2282 77.4419L44.3726 62.8565H44.3671ZM38.592 65.404C38.5426 65.4259 38.4933 65.4477 38.4384 65.4641L40.517 77.9503L47.6304 78.1744C47.6468 78.076 47.6742 77.9831 47.7236 77.8901C47.7729 77.7972 47.8333 77.7097 47.9046 77.6387L38.581 65.3985L38.592 65.404ZM40.3086 78.1908L36.6121 78.076C36.5956 78.1361 36.5737 78.1963 36.5408 78.2509C36.4749 78.3821 36.3817 78.486 36.272 78.5735L41.7126 87.2657C41.7455 87.2493 41.7784 87.2383 41.8114 87.2219L40.3031 78.1908H40.3086ZM36.6505 77.8245L40.2702 77.9393L38.1971 65.5024C38.1313 65.5024 38.0655 65.5024 37.9997 65.4915L36.0253 76.9116C36.0582 76.9225 36.0911 76.9389 36.124 76.9553C36.464 77.1248 36.6559 77.4692 36.6505 77.8245ZM37.7583 65.4149C37.7583 65.4149 37.7364 65.404 37.7254 65.3985C37.6596 65.3657 37.6048 65.3275 37.5499 65.2837L29.4933 72.7951L35.0161 77.1248C35.219 76.928 35.5042 76.8296 35.7894 76.8569L37.7638 65.4149H37.7583ZM34.7583 78.0705L22.7913 79.7598C22.7913 79.9128 22.7583 80.0659 22.687 80.208C22.6487 80.2791 22.6047 80.3447 22.5554 80.4049L28.007 86.5222L34.9667 78.4532C34.868 78.3439 34.7967 78.2072 34.7583 78.0651V78.0705ZM29.1093 72.8115L18.4969 64.491C18.4037 64.584 18.294 64.6496 18.1733 64.6988L21.7108 78.8195C21.8918 78.7976 22.0837 78.8304 22.2592 78.9179C22.325 78.9507 22.3799 78.989 22.4348 79.0327L29.1039 72.817L29.1093 72.8115ZM17.9375 64.7589C17.7565 64.7808 17.5645 64.748 17.389 64.6605C17.3726 64.655 17.3616 64.6441 17.3452 64.6386L1.39636 85.4999C1.4841 85.5819 1.55542 85.6748 1.61026 85.7842L20.8826 79.9347C20.8497 79.7379 20.8772 79.5302 20.9759 79.3388C21.0856 79.1202 21.2721 78.9616 21.4859 78.8796L17.943 64.7644L17.9375 64.7589ZM20.9485 80.1698L1.68701 86.0192C1.7309 86.227 1.70349 86.4456 1.60477 86.6479C1.54993 86.7573 1.47864 86.8447 1.39636 86.9213L5.67972 92.9675L21.0143 80.29C20.9923 80.2518 20.9704 80.2135 20.9485 80.1752V80.1698ZM-1.04422 97.6908C-1.02777 97.6143 -1.00034 97.5378 -0.961945 97.4612C-0.890656 97.3246 -0.791962 97.2098 -0.671295 97.1223L-4.86142 89.5781L-16.0278 96.018C-15.9839 96.1219 -15.9565 96.2367 -15.9565 96.3515L-1.04422 97.6854V97.6908ZM-15.3148 96.6631L11.9046 103.382L0.721741 98.4015C0.463989 98.8279 -0.0844727 98.9865 -0.539673 98.7569C-0.863251 98.5928 -1.05518 98.2758 -1.06616 97.9368L-15.3148 96.6576V96.6631ZM-0.457397 97.0075C-0.364166 96.9692 -0.265442 96.9473 -0.161255 96.9419L0.524323 87.1454C0.44754 87.129 0.376251 87.1017 0.304962 87.0689C0.17334 87.0033 0.0636292 86.9049 -0.0241394 86.7955L-4.64752 89.4633L-0.457397 97.0075ZM0.0855713 96.9583C0.167847 96.9747 0.250122 97.002 0.332367 97.0403C0.414642 97.084 0.485931 97.1332 0.551727 97.1933L5.4823 93.1206L1.18796 87.0579C1.0618 87.1235 0.91922 87.1618 0.771118 87.1673L0.0855713 96.9583ZM5.62485 93.3229L0.710815 97.3847C0.858887 97.6143 0.902771 97.904 0.820496 98.1719L12.4146 103.333C12.4585 103.256 12.5134 103.179 12.5737 103.119L5.62485 93.3174V93.3229ZM12.294 103.732L-16.0223 96.7396C-16.0333 96.7669 -16.0442 96.7997 -16.0607 96.8271C-16.0607 96.838 -16.0716 96.8435 -16.0771 96.8544L0.677887 109.122L12.3379 104.087C12.305 103.972 12.2885 103.852 12.2995 103.732H12.294ZM-14.4921 71.6635C-14.4921 71.6635 -14.5141 71.6799 -14.5196 71.6853L-4.76816 89.2392L-0.150269 86.5769C-0.254456 86.3254 -0.254486 86.0302 -0.122833 85.7678C-0.0954285 85.7186 -0.0679932 85.6748 -0.0350647 85.6311L-14.4921 71.6635ZM-14.3221 71.4831L0.134949 85.4507C0.277527 85.3359 0.44754 85.2703 0.623047 85.2484L0.776611 72.8607L-14.1576 71.1441C-14.174 71.2152 -14.2014 71.2808 -14.2343 71.3464C-14.2618 71.3956 -14.2892 71.4393 -14.3221 71.4831ZM0.601105 62.1786C0.474976 62.113 0.365265 62.0201 0.28299 61.9162L-14.2124 70.5264C-14.1631 70.6412 -14.1357 70.7669 -14.1357 70.8926L0.771118 72.6092L0.897247 62.2715C0.79306 62.2551 0.694336 62.2278 0.595612 62.1786H0.601105ZM0.869843 85.2539C0.957581 85.2648 1.04535 85.2922 1.12762 85.3304L8.41647 74.4406C8.18613 74.2602 8.06 73.9869 8.0545 73.7026L1.02341 72.8935L0.869843 85.2594V85.2539ZM1.4512 62.1895C1.35797 62.2333 1.25375 62.2661 1.14957 62.277L1.02341 72.642L8.08191 73.4511C8.09839 73.38 8.12576 73.3144 8.15869 73.2488C8.21899 73.1286 8.3013 73.0302 8.39453 72.9482L1.4512 62.1895ZM1.65961 62.0583L8.60297 72.817C8.74554 72.7514 8.89908 72.7186 9.05264 72.724L10.4348 62.8346L1.96674 61.5827C1.95029 61.6428 1.92834 61.6975 1.90091 61.7576C1.84061 61.8779 1.75833 61.9763 1.6651 62.0583H1.65961ZM11.4493 54.1861C11.3506 54.1369 11.2629 54.0713 11.1916 53.9948L1.88449 60.8556C1.96677 61.0032 2.00513 61.1727 2.00513 61.3422L10.4731 62.5941L11.6358 54.2627C11.5755 54.2463 11.5152 54.2244 11.4548 54.1916L11.4493 54.1861ZM11.7729 52.3712C11.9539 52.3493 12.1459 52.3821 12.3214 52.4696C12.3982 52.5078 12.464 52.557 12.5243 52.6117L13.2921 51.9448L8.13126 37.999L11.7675 52.3712H11.7729ZM13.4951 51.7698L31.9832 35.7849C31.9064 35.6701 31.8571 35.5335 31.8351 35.3968L8.40549 35.8779C8.39453 35.9927 8.3616 36.102 8.30676 36.2114C8.21353 36.3972 8.06546 36.5394 7.89545 36.6268L13.5006 51.7753L13.4951 51.7698ZM31.9064 34.8556L19.5389 27.2458L8.29578 35.3093C8.35065 35.4077 8.38354 35.5116 8.39999 35.6209L31.8296 35.1399C31.8406 35.0415 31.868 34.9431 31.9119 34.8501L31.9064 34.8556ZM11.8662 23.4464L7.8735 34.9103C7.8735 34.9103 7.8735 34.9103 7.879 34.9103C7.98322 34.9649 8.07095 35.0305 8.14224 35.1125L19.3031 27.1092L12.804 23.1129C12.5792 23.3917 12.2117 23.5229 11.8607 23.4464H11.8662ZM28.0289 20.5818L13.0234 22.5061C13.0234 22.6373 12.996 22.774 12.9357 22.8997L19.5225 26.9506L28.1111 20.795C28.0782 20.7294 28.0453 20.6584 28.0289 20.5818ZM28.5225 21.1941C28.4183 21.1394 28.3305 21.0738 28.2538 20.9918L19.7528 27.0928L31.8845 34.5549L29.038 21.298C28.8625 21.3144 28.687 21.2816 28.5225 21.1996V21.1941ZM29.6358 21.0192C29.5316 21.1176 29.411 21.1941 29.2794 21.2433L32.1313 34.5385C32.4219 34.2816 32.8497 34.205 33.2172 34.3964C33.5792 34.5768 33.7711 34.954 33.7437 35.3312L53.4823 39.5625L29.6358 21.0192ZM33.6889 35.5717C33.6724 35.61 33.6614 35.6483 33.6395 35.6865C33.6176 35.7248 33.6011 35.7576 33.5737 35.7904L45.5792 46.467L53.7072 39.8632L33.6889 35.5717ZM53.9156 40.0162L45.7711 46.6365L58.1331 57.6302C58.2154 57.5592 58.3086 57.5045 58.4073 57.4662L53.9156 40.0162ZM59.0874 59.2648C58.8845 59.3359 58.6541 59.3413 58.4402 59.2648L49.1167 77.5293C49.1935 77.5785 49.2592 77.6441 49.3196 77.7097L63.8753 68.6021L59.0929 59.2648H59.0874ZM49.528 78.4423L61.4018 81.4709L64.89 82.362L71.1642 83.9637C71.1642 83.9637 71.1642 83.9637 71.1642 83.9583C71.2519 83.7888 71.3836 83.6576 71.5371 83.5647L63.985 68.8262L49.4512 77.9229C49.5225 78.0815 49.5554 78.2619 49.5334 78.4423H49.528ZM73.6212 61.949L59.6633 58.7017C59.6523 58.7345 59.6358 58.7673 59.6194 58.8001C59.5426 58.9477 59.4329 59.068 59.3068 59.1555L64.0782 68.4709L73.7035 62.4465C73.6322 62.2934 73.5993 62.1185 73.6212 61.949ZM74.1423 62.9057C74.0216 62.8455 73.9174 62.7581 73.8351 62.6597L64.1935 68.695L71.762 83.4717C71.8497 83.4499 71.943 83.4335 72.0362 83.4389L72.4585 79.6996L74.3506 62.9877C74.2794 62.9713 74.2136 62.9439 74.1423 62.9111V62.9057ZM74.5974 63.0095L72.7273 79.552L72.283 83.4662C72.3434 83.4827 72.4037 83.5045 72.464 83.5373C72.6285 83.6193 72.7602 83.7451 72.8479 83.8927L80.7784 80.9133L74.7675 62.9877C74.7126 62.9986 74.6523 63.0041 74.5974 63.0041V63.0095ZM108.069 76.3376C108.02 76.3376 107.976 76.3376 107.927 76.3321L105.618 85.6694L104.022 92.1147C104.049 92.1256 104.082 92.1366 104.109 92.153C104.378 92.2896 104.554 92.5302 104.614 92.8035L110.669 92.2568L108.069 76.343V76.3376ZM110.921 92.2295L126.563 90.8245C126.563 90.6879 126.601 90.5512 126.667 90.4255C126.678 90.4036 126.689 90.3817 126.7 90.3653L108.711 76.0697C108.596 76.179 108.464 76.2556 108.316 76.2993L110.921 92.235V92.2295ZM105.409 85.4835L107.691 76.272C107.663 76.261 107.63 76.2501 107.603 76.2337C107.477 76.1681 107.373 76.0806 107.29 75.9822L94.6102 83.756L103.089 92.2459C103.287 92.0983 103.533 92.0272 103.786 92.0546L105.409 85.489V85.4835ZM89.7236 78.0432C89.7236 78.1853 89.6907 78.3329 89.6194 78.4696C89.5865 78.5297 89.5536 78.5844 89.5097 78.6391L94.4348 83.5701L107.164 75.769C107.142 75.7253 107.126 75.6761 107.115 75.6269L89.7291 78.0432H89.7236ZM107.104 75.1349L98.0435 71.5541L89.6084 77.5785C89.6468 77.6496 89.6743 77.7207 89.6907 77.7972L107.071 75.3809C107.071 75.2989 107.082 75.2169 107.098 75.1349H107.104ZM89.3287 78.8086C89.0984 78.9726 88.8022 79.0382 88.5225 78.9671L84.4256 89.3595C84.4805 89.4415 84.5243 89.5289 84.5518 89.6219L94.2099 83.7013L89.3232 78.8086H89.3287ZM94.3964 83.8817L84.6011 89.8843C84.6011 89.9444 84.6011 90.01 84.5847 90.0701L102.744 92.7379C102.76 92.6778 102.782 92.6231 102.81 92.563C102.837 92.5083 102.87 92.4591 102.908 92.4099L94.3909 83.8763L94.3964 83.8817ZM102.711 92.9839L90.6285 91.2072L84.5079 90.3052C84.5079 90.3052 84.4969 90.3271 84.4914 90.338C84.4421 90.4309 84.3872 90.5075 84.3159 90.5785L93.2172 101.982L102.87 93.5361C102.76 93.3721 102.705 93.1807 102.705 92.9839H102.711ZM88.2922 78.8742C88.1276 78.7812 87.996 78.65 87.9137 78.4969L81.0911 81.0609L83.7401 88.9494C83.8553 88.9604 83.9649 88.9932 84.0746 89.0478C84.1349 89.0752 84.1898 89.1134 84.2446 89.1572L88.2977 78.8742H88.2922ZM80.8607 81.1483L72.9521 84.1223C73.0015 84.2808 73.007 84.4557 72.9631 84.6197L82.8132 89.3977C82.9668 89.1572 83.2081 88.9986 83.4768 88.9549L80.8552 81.1429L80.8607 81.1483ZM82.7144 89.6273L72.8753 84.8548C72.7547 85.0735 72.5572 85.232 72.3379 85.3086L75.0362 98.817L82.89 90.5184C82.687 90.2724 82.6212 89.9389 82.7144 89.6273ZM75.1295 62.8455C75.0911 62.8729 75.0527 62.8947 75.0088 62.9111L81.0198 80.8258L87.826 78.2673C87.7711 78.0487 87.7931 77.8136 87.9028 77.5949C87.9357 77.5293 87.9796 77.4692 88.0234 77.4145L75.1295 62.8455ZM75.3817 62.5941C75.3598 62.6269 75.3378 62.6542 75.3104 62.6815L88.2044 77.2505C88.4896 77.0537 88.868 77.01 89.1971 77.1794C89.3013 77.2341 89.389 77.2997 89.4658 77.3817L97.7693 71.4448L75.3817 62.5941ZM114.327 59.2976L75.9796 62.5667L98.0051 71.2753L114.415 59.5491C114.371 59.4671 114.343 59.3851 114.321 59.2976H114.327ZM114.563 59.7513L98.2794 71.3847L107.192 74.9107C107.411 74.5117 107.883 74.3313 108.31 74.457L114.766 59.9208C114.689 59.8716 114.623 59.8169 114.563 59.7568V59.7513ZM115.495 60.0301C115.331 60.0684 115.161 60.0684 114.996 60.0192L108.541 74.5554C108.969 74.8123 109.133 75.359 108.897 75.8128C108.886 75.8346 108.875 75.8565 108.864 75.8729L126.853 90.1685C126.919 90.1084 126.991 90.0537 127.062 90.0155L115.49 60.0247L115.495 60.0301ZM128.384 91.3002C128.301 91.4587 128.181 91.5844 128.044 91.6719L130.479 96.8435L141.228 91.0651C141.201 90.9995 141.184 90.9284 141.173 90.8573L128.488 90.9831C128.477 91.0924 128.444 91.2018 128.389 91.3056L128.384 91.3002ZM141.859 86.8666C141.661 86.7682 141.519 86.6096 141.426 86.4238L128.466 90.6824C128.466 90.6824 128.471 90.7152 128.477 90.7316L141.162 90.6059C141.173 90.4965 141.206 90.3872 141.261 90.2833C141.42 89.9772 141.716 89.7913 142.034 89.764L142.139 86.9595C142.045 86.9431 141.952 86.9158 141.859 86.8666ZM142.884 86.7737C142.742 86.883 142.566 86.9486 142.391 86.965L142.287 89.7749C142.38 89.7913 142.473 89.8187 142.566 89.8679C142.797 89.9827 142.961 90.1795 143.038 90.4091L145.906 89.8132L142.884 86.7791V86.7737ZM142.983 91.158C142.983 91.158 142.961 91.1908 142.956 91.2072L161.746 105.727L146.115 90.0155L143.087 90.6441C143.104 90.8136 143.071 90.9886 142.989 91.1526L142.983 91.158ZM155.554 101.255L142.802 91.404C142.676 91.5298 142.512 91.6172 142.342 91.6555L144.168 109.641L162.212 107.006C162.212 106.853 162.245 106.7 162.316 106.552C162.327 106.536 162.338 106.52 162.343 106.503L155.548 101.255H155.554ZM155.565 87.7249L143.23 86.2434C143.214 86.309 143.186 86.3801 143.153 86.4457C143.126 86.5003 143.093 86.555 143.055 86.5987L146.186 89.7476L155.565 87.7905C155.565 87.7905 155.565 87.7467 155.565 87.7249ZM156.722 88.6597C156.513 88.7034 156.294 88.6761 156.091 88.5777C155.861 88.4629 155.696 88.2606 155.619 88.0365L146.4 89.9608L162.59 106.23C162.64 106.192 162.694 106.159 162.749 106.132L156.722 88.6597ZM162.98 106.05C163.188 106.006 163.407 106.028 163.61 106.132C163.819 106.241 163.972 106.41 164.06 106.613L166.682 105.875L157.078 88.9494L162.974 106.05H162.98ZM173.192 117.984C173.208 117.956 173.225 117.923 173.241 117.896L163.731 107.772C163.621 107.854 163.495 107.908 163.358 107.936L164.279 120.908L173.104 118.629C173.06 118.421 173.082 118.197 173.186 117.989L173.192 117.984ZM164.033 107.427C164 107.493 163.961 107.547 163.917 107.602L173.384 117.677L166.813 106.093L164.131 106.848C164.159 107.039 164.131 107.236 164.038 107.422L164.033 107.427ZM157.161 88.441C157.161 88.441 157.122 88.4684 157.106 88.4848L166.928 105.804L173.751 103.885C173.724 103.693 173.751 103.491 173.844 103.311C173.866 103.272 173.883 103.24 173.905 103.207L157.161 88.441ZM174.535 104.688C174.442 104.672 174.354 104.645 174.267 104.601C174.058 104.492 173.905 104.322 173.817 104.12L167.055 106.022L173.603 117.568C173.702 117.513 173.811 117.481 173.927 117.464L174.535 104.688ZM174.914 118.853C174.859 118.962 174.782 119.055 174.694 119.137L179.762 126.523L182.526 125.708L182.323 123.571C181.895 123.554 181.517 123.259 181.418 122.827C181.325 122.406 181.523 121.996 181.874 121.788L174.859 118.968L174.903 118.853H174.914ZM182.773 125.637L187.358 124.292C187.352 124.248 187.347 124.199 187.347 124.156L183.245 122.997C183.129 123.27 182.888 123.483 182.576 123.554L182.773 125.643V125.637ZM183.299 122.401C183.327 122.521 183.327 122.641 183.31 122.756L186.585 123.685L183.283 122.357C183.283 122.357 183.294 122.39 183.299 122.406V122.401ZM187.583 124.768C187.517 124.697 187.468 124.615 187.424 124.527L182.795 125.889L183.25 130.639C183.343 130.656 183.437 130.683 183.524 130.727L186.261 126.736L187.583 124.762V124.768ZM182.998 130.628L182.554 125.96L179.91 126.736L182.647 130.727C182.757 130.672 182.877 130.639 182.998 130.628ZM196.007 112.118L183.25 122.073L187.418 123.751C187.418 123.751 187.435 123.713 187.44 123.696C187.66 123.264 188.164 123.073 188.608 123.226L196.045 112.156C196.045 112.156 196.018 112.134 196.001 112.118H196.007ZM213.947 103.715L210.097 105.443L197.57 111.074C197.592 111.123 197.608 111.166 197.619 111.221C197.691 111.533 197.597 111.844 197.4 112.068L203.554 118.459L214.062 103.885C214.018 103.83 213.985 103.775 213.952 103.71L213.947 103.715ZM214.237 104.06L203.724 118.645L212.751 128.026C212.855 127.949 212.976 127.895 213.108 127.862C213.157 127.851 213.201 127.846 213.245 127.84L214.484 104.196C214.391 104.164 214.309 104.12 214.232 104.06H214.237ZM222.826 128.343L238.879 127.791C238.895 127.611 238.961 127.447 239.071 127.304L226.182 114.698L214.056 128.174C214.155 128.288 214.232 128.425 214.265 128.589C214.265 128.605 214.27 128.627 214.276 128.644L222.831 128.349L222.826 128.343ZM215.23 128.852L237.234 130.951L239.148 128.545C239.027 128.425 238.939 128.267 238.901 128.092C238.901 128.075 238.895 128.053 238.89 128.037L215.23 128.852ZM213.541 129.732C213.31 129.781 213.086 129.748 212.888 129.65L211.352 131.88L229.517 138.741L214.078 129.398C213.947 129.562 213.76 129.682 213.541 129.737V129.732ZM212.685 129.508C212.543 129.382 212.433 129.207 212.389 129.005C212.373 128.934 212.367 128.868 212.367 128.797L198.683 127.091L211.117 131.787L212.685 129.508ZM215.34 104.092C215.246 104.153 215.142 104.202 215.022 104.229C214.923 104.251 214.83 104.256 214.736 104.251L213.497 127.857C213.629 127.884 213.755 127.933 213.864 128.01L226.001 114.523L215.34 104.092ZM230.038 109.417C230.005 109.269 230.011 109.122 230.038 108.98L215.647 103.753C215.614 103.819 215.57 103.879 215.521 103.934L226.161 114.343L230.23 109.822C230.137 109.712 230.065 109.576 230.033 109.423L230.038 109.417ZM230.416 109.986L226.342 114.512L239.241 127.129C239.241 127.129 239.29 127.091 239.318 127.075L236.537 121.203L231.283 110.111C231.256 110.122 231.228 110.128 231.195 110.133C230.916 110.199 230.641 110.133 230.422 109.98L230.416 109.986ZM250.001 118.213L244.835 115.802L240.299 127.053C240.365 127.086 240.42 127.129 240.475 127.179L250.106 119.028C250.045 118.935 250.001 118.831 249.974 118.722C249.936 118.547 249.947 118.377 249.996 118.219L250.001 118.213ZM244.61 115.698L231.793 109.712C231.722 109.833 231.618 109.936 231.497 110.013L236.784 121.171L239.537 126.976C239.537 126.976 239.592 126.96 239.619 126.955C239.773 126.922 239.927 126.927 240.075 126.96L244.616 115.698H244.61ZM251.203 97.7127L230.225 99.7135L231.009 108.258C231.294 108.269 231.563 108.406 231.733 108.63L251.241 97.8384C251.225 97.8002 251.214 97.7564 251.203 97.7182V97.7127ZM251.356 98.0516L231.859 108.838C231.881 108.887 231.897 108.941 231.908 108.996C231.947 109.166 231.936 109.33 231.892 109.483L244.703 115.463L251.625 98.2976C251.521 98.232 251.427 98.1446 251.356 98.0462V98.0516ZM260.378 86.8119C260.345 86.8229 260.318 86.8338 260.285 86.8393C260.054 86.8885 259.83 86.8557 259.638 86.7573L252.782 96.7779C252.925 96.9036 253.034 97.0785 253.078 97.2808C253.106 97.4066 253.111 97.5323 253.089 97.6526L266.916 101.354C266.987 101.179 267.113 101.026 267.278 100.922L260.384 86.8119H260.378ZM285.848 91.9944L292.846 96.3077L297.003 89.0096C296.866 88.9166 296.751 88.7909 296.674 88.6324L286.078 91.2291C286.117 91.5134 286.029 91.7867 285.853 91.989L285.848 91.9944ZM285.656 92.1639C285.563 92.2295 285.453 92.2732 285.338 92.3006C285.272 92.317 285.206 92.3224 285.14 92.3224L288.612 102.764C288.799 102.731 288.98 102.748 289.144 102.813L292.725 96.5209L285.656 92.1639ZM284.17 91.2838L270.069 88.2114L268.078 100.807C268.265 100.862 268.435 100.971 268.555 101.124L278.938 94.8153L284.197 91.6172C284.197 91.6172 284.192 91.5954 284.186 91.5844C284.164 91.486 284.159 91.3876 284.164 91.2892L284.17 91.2838ZM268.687 101.332C268.714 101.386 268.731 101.447 268.747 101.507C268.764 101.567 268.769 101.627 268.769 101.687L280.742 102.808L284.4 91.989C284.362 91.9452 284.323 91.8906 284.29 91.8414L268.682 101.326L268.687 101.332ZM280.994 102.835L287.861 103.48C287.927 103.207 288.118 102.972 288.376 102.846L284.872 92.2896C284.778 92.2623 284.685 92.224 284.603 92.1694L280.994 102.835ZM288.228 104.486L276.464 117.371C276.519 117.431 276.563 117.502 276.601 117.579L285.826 114.567L288.431 104.601C288.36 104.574 288.289 104.535 288.228 104.486ZM288.047 104.317C287.954 104.207 287.888 104.071 287.855 103.923C287.839 103.857 287.833 103.792 287.833 103.726L280.912 103.076L276.157 117.131C276.201 117.153 276.245 117.18 276.283 117.207L288.047 104.317ZM280.66 103.054L268.747 101.939C268.693 102.179 268.544 102.392 268.336 102.529L271.287 108.592L275.427 117.087C275.455 117.076 275.488 117.071 275.521 117.06C275.658 117.027 275.795 117.032 275.921 117.06L280.66 103.059V103.054ZM271.012 108.581L268.117 102.633C268.089 102.644 268.056 102.655 268.023 102.66C267.733 102.726 267.442 102.655 267.223 102.485L262.934 106.749L275.098 117.278C275.131 117.246 275.17 117.218 275.208 117.196L271.012 108.581ZM267.047 102.31C266.965 102.201 266.905 102.081 266.872 101.939C266.844 101.824 266.844 101.709 266.855 101.6L253.023 97.8986C252.996 97.9642 252.958 98.0188 252.919 98.079L262.747 106.591L267.047 102.316V102.31ZM260.608 86.7081L267.502 100.818C267.535 100.807 267.563 100.796 267.596 100.79C267.678 100.774 267.755 100.763 267.837 100.769L269.828 88.1622L260.981 86.2325C260.91 86.4238 260.778 86.5933 260.603 86.7081H260.608ZM272.597 69.3127L260.746 85.2156C260.877 85.3414 260.97 85.5054 261.014 85.6912C261.036 85.7896 261.042 85.8935 261.036 85.9864L269.866 87.9108L272.795 69.3947C272.724 69.3729 272.658 69.3455 272.597 69.3127ZM273.278 69.4111C273.195 69.4275 273.118 69.433 273.036 69.433L270.108 87.9654L284.225 91.0432C284.29 90.8573 284.411 90.6988 284.576 90.584L273.398 69.3729C273.36 69.3893 273.321 69.4002 273.278 69.4111ZM273.727 69.1706C273.694 69.2034 273.656 69.2362 273.618 69.2635L284.795 90.4747C284.833 90.4583 284.872 90.4473 284.916 90.4364C284.965 90.4255 285.014 90.42 285.064 90.4145L285.782 78.896L273.722 69.1706H273.727ZM285.151 76.2392C285.102 76.0369 285.129 75.8346 285.201 75.6542L274.391 69.3893L285.804 78.5954L285.908 76.9662C285.546 76.8952 285.239 76.6218 285.151 76.2392ZM285.31 90.4255C285.623 90.4856 285.886 90.6988 286.012 90.994L296.592 88.4028C296.543 88.1568 296.592 87.9108 296.718 87.7139L286.018 79.0819L285.31 90.42V90.4255ZM286.649 76.8022C286.55 76.8733 286.429 76.928 286.303 76.9608C286.254 76.9717 286.204 76.9772 286.155 76.9827L286.04 78.7867L296.225 87.0033L286.649 76.8077V76.8022ZM317.131 66.7215L287.038 75.8674C287.087 76.1517 287.005 76.425 286.83 76.6328L296.976 87.4351C297.075 87.3641 297.195 87.3094 297.321 87.2766C297.623 87.211 297.925 87.293 298.15 87.4734L317.323 67.0276C317.241 66.9402 317.175 66.8308 317.131 66.716V66.7215ZM298.32 87.6593C298.342 87.6921 298.363 87.7303 298.385 87.7686L313.117 80.793L318.453 78.2673C318.442 78.24 318.437 78.2127 318.431 78.1853C318.316 77.6715 318.634 77.163 319.144 77.0428L318.097 67.3502C317.888 67.3611 317.685 67.3064 317.515 67.1971L298.325 87.6593H298.32ZM298.44 88.5394L313.638 95.0285L318.952 78.8359C318.793 78.7594 318.656 78.6391 318.557 78.4915L307.533 83.7123L304.298 85.243L298.473 87.9982C298.473 87.9982 298.473 87.9982 298.473 88.0037C298.517 88.1896 298.501 88.3754 298.44 88.5394ZM342.058 100.211L358.029 100.763C358.029 100.763 358.034 100.73 358.04 100.714L344.641 95.7665C344.515 96.0071 344.29 96.1929 344.005 96.2531C343.566 96.3515 343.133 96.1383 342.936 95.7556L342.064 100.211H342.058ZM342.694 95.69L325.281 99.6315L341.811 100.2L342.694 95.69ZM328.83 70.7724L325.989 72.981L335.521 81.1866C335.57 81.1429 335.625 81.1046 335.68 81.0718L329.894 71.073C329.861 71.084 329.828 71.0949 329.789 71.1059C329.422 71.1879 329.055 71.0512 328.83 70.7724ZM329.641 58.5924L309.936 55.613C309.914 55.6786 309.886 55.7442 309.853 55.8043L328.874 69.515C329 69.3783 329.17 69.2799 329.362 69.2362C329.395 69.2307 329.433 69.2253 329.466 69.2198L329.641 58.5924ZM328.638 69.9688L318.919 66.7707C318.908 66.8035 318.892 66.8363 318.87 66.8636L325.797 72.8224L328.698 70.5646C328.671 70.51 328.654 70.4498 328.638 70.3842C328.605 70.2421 328.61 70.1 328.638 69.9688ZM352.599 55.4435C352.89 55.438 353.164 55.5638 353.351 55.777L359.246 51.9338L351.464 42.3724C351.387 42.4162 351.305 42.4544 351.217 42.4763L352.599 55.4435ZM351.289 45.4666L351.744 56.0121C351.853 55.7606 352.073 55.5583 352.358 55.4818L351.289 45.4666ZM352.835 57.335C352.78 57.3459 352.731 57.3514 352.676 57.3569L352.353 68.6075C352.588 68.6458 352.802 68.7715 352.95 68.9519L358.254 65.732L352.989 57.2803C352.939 57.3022 352.884 57.3186 352.83 57.3295L352.835 57.335ZM352.429 57.335C352.155 57.2803 351.919 57.1054 351.782 56.8594L352.177 66.0928L352.429 57.335ZM350.916 42.5091C350.795 42.5091 350.68 42.4763 350.576 42.4271L339.563 59.1391C339.716 59.2703 339.826 59.4452 339.875 59.6529C339.93 59.8935 339.886 60.1285 339.782 60.3253L351.513 68.8863C351.64 68.7551 351.804 68.6567 351.996 68.613C352.012 68.613 352.029 68.6075 352.045 68.6021L350.921 42.5036L350.916 42.5091ZM331.089 36.1184L342.672 39.2126L343.841 32.9805C343.583 32.8985 343.363 32.7071 343.254 32.4447L331.078 35.856C331.095 35.9435 331.1 36.031 331.089 36.1184ZM342.914 39.2728L350.076 41.1861C350.131 41.0549 350.214 40.9347 350.323 40.8363L344.592 32.9094C344.515 32.9477 344.433 32.9805 344.351 33.0024C344.263 33.0242 344.17 33.0297 344.082 33.0242L342.914 39.2728ZM350.027 41.7656C350 41.6508 350 41.536 350.011 41.4212L342.87 39.5133L339.234 58.9532C339.278 58.9696 339.316 58.986 339.354 59.0024L350.362 42.2959C350.197 42.1647 350.076 41.9788 350.027 41.7601V41.7656ZM337.808 69.8157L351.245 69.4494C351.256 69.3182 351.299 69.1979 351.36 69.0886L339.629 60.5276C339.502 60.6588 339.338 60.7572 339.146 60.801C339.075 60.8174 339.009 60.8228 338.938 60.8228L337.808 69.8157ZM338.691 60.79C338.581 60.7627 338.477 60.7135 338.384 60.6479L330.305 69.5369C330.404 69.6517 330.475 69.7884 330.513 69.9469C330.513 69.9688 330.519 69.9906 330.524 70.0125L337.555 69.8212L338.691 60.79ZM351.524 70.2202L336.996 81.4053C337.045 81.4873 337.078 81.5802 337.106 81.6786C337.166 81.941 337.111 82.198 336.98 82.4057L345.546 89.5508L351.799 70.4061C351.7 70.3569 351.612 70.2968 351.535 70.2202H351.524ZM336.815 82.5916C336.815 82.5916 336.771 82.6298 336.749 82.6517L343.435 94.4162C343.484 94.3944 343.533 94.378 343.583 94.367C343.714 94.3397 343.846 94.3342 343.972 94.3616L345.459 89.8023L336.815 82.5916ZM336.842 81.2085L351.371 70.0234C351.321 69.9414 351.283 69.8485 351.261 69.7501C351.261 69.7282 351.256 69.7064 351.25 69.6899L337.769 70.0562L336.398 80.9625C336.563 81.0062 336.716 81.0937 336.837 81.2139L336.842 81.2085ZM337.528 70.0617L330.535 70.253C330.508 70.5373 330.354 70.7888 330.118 70.9473L335.916 80.9625C335.916 80.9625 335.938 80.957 335.954 80.9515C336.025 80.9351 336.091 80.9297 336.162 80.9297L337.528 70.0617ZM330.129 69.3674L338.208 60.4784C338.109 60.3636 338.038 60.2269 338 60.0684C337.983 59.9919 337.978 59.9099 337.978 59.8333L329.894 58.6142L329.718 69.2089C329.866 69.2307 330.003 69.2854 330.129 69.3674ZM338.016 59.5928C338.087 59.3413 338.257 59.1336 338.493 59.0079L330.365 36.9494C330.365 36.9494 330.354 36.9494 330.349 36.9494C330.316 36.9548 330.278 36.9603 330.245 36.9658L329.894 58.3573L338.011 59.5819L338.016 59.5928ZM338.729 58.9204C338.817 58.8985 338.91 58.893 338.992 58.8985L342.634 39.4368L331.04 36.3426C330.963 36.5612 330.804 36.7416 330.596 36.8564L338.724 58.9149L338.729 58.9204ZM330.925 35.4624L357.069 22.8341C357.058 22.8068 357.053 22.774 357.042 22.7412C357.042 22.7303 357.042 22.7193 357.042 22.7084L336.382 23.9548L330.672 35.2109C330.771 35.2765 330.859 35.3585 330.93 35.4569L330.925 35.4624ZM331.451 35.4843L343.193 32.1933C343.122 31.7013 343.44 31.2311 343.928 31.1218C344.279 31.0398 344.63 31.1655 344.855 31.417L356.576 23.348L331.446 35.4843H331.451ZM344.8 32.7563L350.537 40.6887C350.603 40.6559 350.68 40.6285 350.757 40.6067C350.899 40.5738 351.047 40.5793 351.184 40.6067L353.022 35.6319L344.992 32.5158C344.943 32.6033 344.883 32.6853 344.806 32.7563H344.8ZM351.415 40.6941C351.656 40.8199 351.842 41.044 351.908 41.3283C351.919 41.3829 351.925 41.4376 351.93 41.4868L371.921 43.0011C371.921 43.0011 371.921 42.9792 371.927 42.9683L353.246 35.7193L351.415 40.6941ZM371.921 43.4111C371.91 43.3564 371.905 43.3018 371.899 43.2471L351.908 41.7328C351.87 41.9077 351.788 42.0718 351.661 42.1975L359.46 51.7808L371.992 43.6134C371.959 43.5478 371.938 43.4822 371.921 43.4111ZM359.411 52.1088L353.493 55.9683C353.526 56.0339 353.548 56.0995 353.565 56.1706C353.592 56.3018 353.597 56.4275 353.576 56.5533L365.762 60.38C365.806 60.2871 365.866 60.1996 365.938 60.1231L359.411 52.1088ZM365.696 60.9978C365.669 60.8666 365.663 60.7408 365.685 60.6151L353.499 56.7883C353.433 56.9305 353.334 57.0507 353.214 57.1437L358.473 65.5899L365.757 61.1727C365.735 61.118 365.713 61.0579 365.696 60.9978ZM358.391 65.9288L353.082 69.1487C353.104 69.2034 353.126 69.2635 353.142 69.3237C353.175 69.4713 353.17 69.6189 353.142 69.7555L362.592 73.3363C362.652 73.227 362.735 73.1286 362.833 73.0466L358.396 65.9288H358.391ZM362.499 74.0032C362.466 73.8556 362.471 73.708 362.499 73.5714L353.597 70.1984L363.009 75.6105L363.157 74.7085C362.833 74.6101 362.576 74.3531 362.493 74.0032H362.499ZM352.972 70.1218C352.863 70.264 352.709 70.3788 352.528 70.4444L358.874 99.8885L358.945 99.9431C358.945 99.9431 358.994 99.9431 359.016 99.9431L362.965 75.8729L352.967 70.1218H352.972ZM352.287 70.4936C352.199 70.499 352.111 70.4936 352.029 70.4826L345.749 89.7203L358.325 100.206C358.418 100.118 358.523 100.047 358.649 100.003L352.287 70.4936ZM345.667 89.9717L344.208 94.4381C344.466 94.5584 344.663 94.7934 344.735 95.0886C344.767 95.2362 344.762 95.3784 344.735 95.515L348.48 96.8981L358.133 100.462C358.133 100.462 358.155 100.419 358.172 100.397L345.672 89.9717H345.667ZM343.221 94.5365L336.53 82.772C336.48 82.7938 336.431 82.8102 336.382 82.8212C336.14 82.8758 335.899 82.8321 335.696 82.7228L332.696 87.2657L343.095 94.6513C343.133 94.6076 343.177 94.5748 343.221 94.5365ZM335.499 82.5752C335.367 82.4494 335.274 82.2854 335.23 82.0996C335.208 81.9957 335.203 81.8918 335.214 81.7879L320.274 78.2892C320.257 78.3275 320.241 78.3657 320.225 78.404L332.499 87.1181L335.504 82.5697L335.499 82.5752ZM320.312 77.7425C320.334 77.8464 320.34 77.9503 320.329 78.0487L335.285 81.5037C335.307 81.4545 335.334 81.4053 335.362 81.3615L325.791 73.1231L320.197 77.4692C320.246 77.5512 320.285 77.6441 320.307 77.7425H320.312ZM325.605 72.9591L318.733 67.044C318.629 67.1534 318.497 67.2354 318.349 67.2846L319.402 76.999C319.649 77.0045 319.884 77.1084 320.055 77.2779L325.605 72.9646V72.9591ZM309.722 55.9957L317.537 65.5625C317.625 65.5079 317.724 65.4641 317.828 65.4423C318.343 65.322 318.859 65.65 318.98 66.1639C319.007 66.2841 319.007 66.3989 318.991 66.5137L328.725 69.7173C328.725 69.7173 328.731 69.7064 328.736 69.6954L309.716 55.9847L309.722 55.9957ZM329.504 36.7362L309.81 54.782C309.881 54.8804 309.93 54.9952 309.963 55.121C309.98 55.1975 309.985 55.274 309.985 55.356L329.658 58.33L330.003 36.9712C329.817 36.9439 329.641 36.8619 329.499 36.7362H329.504ZM324.042 25.4199L329.789 35.1344C329.833 35.118 329.883 35.1016 329.932 35.0907C330.108 35.0524 330.289 35.0633 330.448 35.118L336.091 23.9876L324.453 24.6928C324.437 24.988 324.283 25.2614 324.042 25.4309V25.4199ZM347.345 1.71047L324.267 24.0314C324.36 24.1462 324.431 24.2774 324.469 24.4359C324.469 24.4414 324.469 24.4468 324.469 24.4523L336.256 23.7416L347.4 1.74874C347.4 1.74874 347.362 1.72141 347.34 1.70501L347.345 1.71047ZM348.234 1.87448C348.234 1.87448 348.184 1.89088 348.157 1.89635C347.976 1.94008 347.789 1.92368 347.625 1.86354L336.541 23.7252L357.058 22.4843C357.08 22.1781 357.245 21.9048 357.502 21.7408L348.234 1.86901V1.87448ZM357.305 23.1949L345.036 31.6357C345.075 31.7067 345.102 31.7833 345.118 31.8598C345.151 32.0129 345.146 32.1605 345.118 32.3026L353.142 35.4187L357.574 23.4027C357.475 23.348 357.382 23.2824 357.305 23.1949ZM358.473 23.3972C358.396 23.4355 358.32 23.4683 358.232 23.4901C358.089 23.5229 357.941 23.5229 357.804 23.4901L353.373 35.5116L372.058 42.7606C372.108 42.6731 372.168 42.5911 372.245 42.52L358.473 23.3972ZM366.875 59.8716L372.464 44.0781C372.349 44.0234 372.25 43.9414 372.168 43.8485L359.658 51.9994L366.168 59.9919C366.256 59.9372 366.354 59.8989 366.459 59.8716C366.601 59.8388 366.738 59.8388 366.87 59.8716H366.875ZM366.327 61.703C366.168 61.6428 366.031 61.539 365.927 61.4078L358.649 65.8249L363.086 72.9427C363.146 72.9154 363.206 72.8935 363.272 72.8826C363.382 72.8607 363.486 72.8552 363.59 72.8661L366.332 61.7084L366.327 61.703ZM364.177 74.4734C364.051 74.6046 363.886 74.703 363.694 74.7467C363.612 74.7631 363.53 74.7741 363.448 74.7686L363.283 75.7635L376.144 83.1656L364.177 74.4734ZM377.208 84.0676L363.239 76.026L359.301 100.003C359.438 100.042 359.559 100.113 359.663 100.206L377.29 84.9641C377.23 84.8712 377.181 84.7619 377.153 84.6471C377.109 84.4448 377.131 84.2425 377.203 84.0676H377.208ZM377.455 85.15L359.828 100.391C359.883 100.473 359.927 100.566 359.954 100.665L374.285 98.6366L377.74 85.325C377.636 85.2867 377.543 85.2266 377.46 85.15H377.455ZM382.583 96.674L378.31 85.3632C378.31 85.3632 378.31 85.3632 378.305 85.3632C378.195 85.3906 378.08 85.3906 377.976 85.3796L374.548 98.5928L382.073 97.5268C382.073 97.166 382.265 96.838 382.583 96.6685V96.674ZM372.042 109.133L382.298 98.1227C382.215 98.0188 382.15 97.8986 382.111 97.7674L374.482 98.8498L371.844 109.018C371.916 109.045 371.981 109.084 372.042 109.127V109.133ZM371.268 108.98C371.384 108.952 371.493 108.952 371.597 108.963L374.208 98.8935L360.157 100.883L370.808 109.226C370.928 109.105 371.087 109.018 371.268 108.974V108.98ZM370.523 109.822C370.539 109.679 370.583 109.543 370.654 109.428L359.976 101.064C359.921 101.447 359.636 101.775 359.236 101.862C358.846 101.949 358.451 101.785 358.237 101.479L340.418 110.773L370.523 109.827V109.822ZM358.122 101.255C358.106 101.217 358.095 101.179 358.084 101.135C358.073 101.097 358.067 101.053 358.067 101.015L342.058 100.462L340.056 110.68L358.122 101.255ZM339.799 110.696L341.806 100.457L325.314 99.8885C325.298 99.9923 325.259 100.096 325.21 100.189L339.799 110.696ZM325.265 99.4019L342.875 95.4166C342.859 95.2253 342.897 95.0394 342.985 94.8754L332.597 87.4953L324.996 99.0029C325.117 99.1067 325.215 99.2434 325.27 99.3965L325.265 99.4019ZM324.782 98.8717L332.389 87.3531L320.109 78.6282C320.011 78.7375 319.879 78.8195 319.736 78.8742L324.272 98.7732C324.453 98.7569 324.629 98.7897 324.782 98.8662V98.8717ZM324.031 98.8334L319.495 78.9343C319.402 78.9452 319.314 78.9343 319.226 78.9234L313.906 95.1378L323.532 99.2489C323.641 99.063 323.811 98.9154 324.025 98.8389L324.031 98.8334ZM310.698 106.421L323.455 100.047C323.444 100.014 323.433 99.9814 323.427 99.9431C323.389 99.7791 323.395 99.6206 323.438 99.4675L313.83 95.3674L310.314 106.093C310.468 106.164 310.599 106.279 310.698 106.421ZM309.689 106.022C309.821 105.989 309.952 105.989 310.078 106.017L313.605 95.2745L298.369 88.769C298.32 88.8456 298.254 88.9112 298.182 88.9713L300.25 92.0983L309.48 106.093C309.546 106.06 309.612 106.039 309.689 106.022ZM309.278 106.23L300.14 92.3771L297.98 89.097C297.925 89.1244 297.864 89.1462 297.799 89.1572C297.618 89.1954 297.437 89.1845 297.278 89.1298L293.109 96.4499L309.168 106.356C309.201 106.312 309.245 106.268 309.283 106.235L309.278 106.23ZM309.031 106.563L292.983 96.6631L289.407 102.944C289.588 103.076 289.725 103.272 289.78 103.507C289.797 103.579 289.802 103.655 289.802 103.726L308.987 106.695C308.998 106.651 309.014 106.607 309.036 106.569L309.031 106.563ZM308.943 106.935L289.764 103.967C289.676 104.3 289.407 104.574 289.051 104.65C288.936 104.677 288.826 104.677 288.716 104.666L286.15 114.485L308.943 107.044C308.943 107.006 308.943 106.968 308.943 106.93V106.935ZM281.241 134.296L308.504 107.449L286.078 114.769L281.011 134.165C281.093 134.198 281.17 134.242 281.241 134.296ZM280.769 134.1L285.799 114.857L276.722 117.82C276.804 118.262 276.563 118.705 276.157 118.875L280.506 134.1C280.594 134.089 280.682 134.089 280.769 134.1ZM279.875 134.477C279.974 134.346 280.106 134.236 280.265 134.165L275.916 118.94C275.422 119.011 274.95 118.7 274.835 118.208C274.835 118.186 274.824 118.164 274.824 118.142L251.916 118.618C251.905 118.705 251.883 118.787 251.85 118.869L279.87 134.477H279.875ZM251.899 118.301C251.899 118.301 251.91 118.344 251.91 118.372L274.819 117.896C274.835 117.743 274.89 117.595 274.972 117.47L262.797 106.924L251.724 117.929C251.806 118.038 251.866 118.158 251.899 118.301ZM251.548 117.754L262.61 106.76L252.788 98.2539C252.678 98.3414 252.546 98.407 252.404 98.4398C252.338 98.4562 252.267 98.4616 252.201 98.4616L251.142 117.574C251.296 117.601 251.433 117.666 251.554 117.759L251.548 117.754ZM250.747 117.579C250.797 117.568 250.841 117.563 250.89 117.557L251.948 98.4288C251.948 98.4288 251.91 98.4179 251.894 98.4124L244.972 115.578L250.15 117.994C250.281 117.787 250.49 117.634 250.747 117.574V117.579ZM242.268 130.787C242.351 130.738 242.444 130.705 242.537 130.677C242.751 130.628 242.965 130.656 243.151 130.743L250.347 119.252C250.347 119.252 250.32 119.23 250.309 119.219L240.678 127.37C240.738 127.463 240.782 127.567 240.81 127.676C240.886 128.01 240.777 128.338 240.552 128.562L242.268 130.776V130.787ZM242.071 130.94L240.354 128.726C240.272 128.775 240.179 128.808 240.08 128.835C239.828 128.89 239.576 128.846 239.373 128.72L237.557 131L241.808 131.404C241.846 131.23 241.939 131.066 242.065 130.94H242.071ZM231.497 138.725L241.884 132.028C241.857 131.962 241.83 131.896 241.813 131.825C241.802 131.765 241.791 131.705 241.791 131.645L237.382 131.224L231.453 138.675C231.453 138.675 231.486 138.708 231.497 138.725ZM230.554 138.407C230.806 138.353 231.058 138.397 231.261 138.522L237.086 131.197L214.298 129.021C214.281 129.081 214.265 129.141 214.237 129.196L230.011 138.741C230.142 138.577 230.329 138.457 230.548 138.402L230.554 138.407ZM207.546 138.407C207.557 138.446 207.563 138.484 207.563 138.522L229.813 139.189C229.813 139.189 229.824 139.145 229.83 139.118L211.243 132.099L207.25 137.899C207.393 138.025 207.502 138.2 207.546 138.402V138.407ZM206.131 137.79C206.214 137.746 206.301 137.708 206.395 137.686C206.625 137.637 206.85 137.669 207.042 137.768L211.001 132.017L198.612 127.337C198.568 127.441 198.508 127.539 198.431 127.621L206.131 137.784V137.79ZM198.661 126.763C198.667 126.796 198.672 126.829 198.678 126.862L212.427 128.573C212.46 128.441 212.526 128.321 212.608 128.212L203.614 118.864L198.316 126.217C198.486 126.348 198.612 126.534 198.661 126.758V126.763ZM197.762 126.02C197.883 126.02 197.992 126.053 198.102 126.096L203.438 118.689L197.246 112.254C197.153 112.314 197.044 112.364 196.928 112.391C196.884 112.402 196.841 112.407 196.802 112.413L197.762 126.02ZM196.841 126.599C196.956 126.326 197.197 126.113 197.51 126.042L196.544 112.402C196.451 112.386 196.363 112.358 196.281 112.314L188.866 123.357C189.223 123.598 189.382 124.041 189.25 124.451L196.835 126.599H196.841ZM196.747 127.075L196.786 127.19C196.758 127.069 196.758 126.949 196.775 126.834L189.146 124.675C188.883 125.079 188.345 125.238 187.901 125.008C187.874 124.992 187.846 124.981 187.819 124.965L186.431 126.987L183.788 130.918C183.826 130.956 183.859 130.994 183.892 131.038C183.925 131.076 183.952 131.115 183.974 131.153L196.742 127.069L196.747 127.075ZM165.82 130.967L182.164 131.454C182.181 131.355 182.208 131.262 182.257 131.169C182.312 131.06 182.389 130.967 182.477 130.891L179.691 126.834L165.81 130.912C165.81 130.912 165.81 130.951 165.815 130.967H165.82ZM165.744 130.672L179.548 126.616L174.524 119.296C174.261 119.427 173.938 119.443 173.647 119.296L165.601 130.442C165.661 130.513 165.711 130.595 165.749 130.677L165.744 130.672ZM164.965 130.103C165.08 130.114 165.19 130.147 165.299 130.202C165.338 130.224 165.376 130.246 165.409 130.267L173.438 119.148C173.351 119.071 173.279 118.973 173.225 118.875L164.334 121.176L164.97 130.109L164.965 130.103ZM150.64 127.091L163.939 130.765C163.956 130.716 163.972 130.666 164 130.623C164.148 130.333 164.416 130.153 164.718 130.109L164.087 121.236L146.586 125.763C146.586 125.828 146.576 125.899 146.559 125.965L150.645 127.091H150.64ZM146.554 125.511L164.065 120.985L163.144 107.968C163.012 107.963 162.886 107.93 162.76 107.865C162.716 107.843 162.678 107.815 162.64 107.793L146.444 125.249C146.493 125.331 146.532 125.424 146.554 125.517V125.511ZM145.725 124.784C145.835 124.795 145.95 124.828 146.055 124.883C146.142 124.926 146.219 124.986 146.29 125.052L162.459 107.624C162.371 107.52 162.31 107.4 162.272 107.269L144.217 109.909L145.725 124.784ZM145.259 124.844C145.325 124.817 145.402 124.795 145.473 124.784L143.965 109.936L137.91 110.822C137.91 110.97 137.877 111.117 137.806 111.259C137.735 111.396 137.636 111.511 137.521 111.593L145.259 124.839V124.844ZM137.384 109.969C137.636 110.1 137.811 110.325 137.877 110.582L143.938 109.696L142.111 91.6992C142.084 91.6992 142.051 91.6992 142.018 91.6938L140.384 98.0079L137.296 109.931C137.323 109.942 137.351 109.953 137.378 109.969H137.384ZM136.638 109.915C136.775 109.871 136.917 109.854 137.06 109.871L140.164 97.8712L141.782 91.6282C141.782 91.6282 141.727 91.6063 141.705 91.5954C141.563 91.5243 141.448 91.4204 141.36 91.3002L130.599 97.084L136.638 109.915ZM130.38 97.2043L113.976 106.022C114.014 106.137 114.031 106.263 114.02 106.388L136.023 110.543C136.04 110.489 136.062 110.439 136.084 110.385C136.161 110.232 136.276 110.106 136.413 110.018L130.38 97.1988V97.2043ZM131.4 118.64L136.303 111.544C136.089 111.352 135.974 111.074 135.985 110.789L113.97 106.629C113.954 106.667 113.943 106.711 113.921 106.749L131.4 118.64ZM113.872 105.798L130.276 96.9801L127.835 91.7976C127.599 91.8687 127.342 91.8578 127.106 91.7375C127.062 91.7156 127.023 91.6883 126.985 91.661L113.844 105.749C113.844 105.749 113.866 105.782 113.877 105.798H113.872ZM113.499 105.459C113.565 105.492 113.619 105.53 113.674 105.574L126.804 91.5024C126.705 91.3822 126.639 91.2455 126.601 91.0979L110.981 92.5029L113.082 105.361C113.225 105.361 113.362 105.394 113.499 105.465V105.459ZM112.638 105.454C112.703 105.426 112.764 105.399 112.835 105.383L110.729 92.5193L104.652 93.0659C104.652 93.2026 104.614 93.3338 104.548 93.465C104.493 93.5689 104.422 93.6618 104.34 93.7383L112.632 105.454H112.638ZM99.9083 109.33C100.117 109.439 100.27 109.608 100.358 109.805L112.111 106.46C112.084 106.268 112.111 106.066 112.204 105.88C112.265 105.765 112.342 105.667 112.435 105.585L104.148 93.875C103.978 93.9625 103.786 94.0007 103.588 93.9789L99.8205 109.286C99.8479 109.297 99.8808 109.308 99.9083 109.324V109.33ZM99.5792 109.231L103.347 93.9242C103.32 93.9133 103.287 93.9024 103.259 93.8859C103.188 93.8477 103.117 93.8039 103.062 93.7493L93.3982 102.206L98.9814 109.357C99.1569 109.253 99.3708 109.209 99.5792 109.231ZM79.1166 114.982L98.5097 110.292C98.4878 110.111 98.5207 109.925 98.6084 109.751C98.6578 109.658 98.7126 109.581 98.7839 109.51L93.2062 102.37L79.0124 114.791C79.0508 114.851 79.0838 114.917 79.1112 114.982H79.1166ZM78.656 114.468C78.7273 114.507 78.7986 114.55 78.8534 114.605L93.0582 102.174L84.1459 90.7589C83.9759 90.8574 83.7784 90.9065 83.5755 90.8901L78.5353 114.419C78.5737 114.436 78.6121 114.447 78.6505 114.468H78.656ZM78.1514 114.365C78.2008 114.365 78.2446 114.365 78.294 114.365L83.3342 90.8355C83.2958 90.8191 83.2574 90.8082 83.219 90.7863C83.1752 90.7644 83.1313 90.7371 83.0929 90.7097L75.1185 99.1395L78.1569 114.37L78.1514 114.365ZM77.7784 113.769L74.8991 99.3582L73.7693 100.55C74.0051 100.84 74.06 101.244 73.8845 101.594C73.7912 101.78 73.6432 101.922 73.4677 102.01L77.773 113.769H77.7784ZM73.0947 100.195C73.2209 100.206 73.347 100.238 73.4622 100.298C73.506 100.32 73.5499 100.348 73.5883 100.375L74.8388 99.0575L72.272 86.1942L73.0947 100.195ZM72.1953 100.67C72.3379 100.424 72.5847 100.26 72.8479 100.211L71.9759 85.3742C71.8498 85.3632 71.7236 85.3304 71.6084 85.2703C71.3287 85.1282 71.1532 84.8712 71.0984 84.5869L43.1276 88.0912C43.1276 88.2114 43.1166 88.3372 43.0728 88.4574L72.1953 100.665V100.67ZM43.0838 87.8506L71.0819 84.3409C71.0819 84.2972 71.0929 84.2589 71.1039 84.2152L55.2428 80.1698L49.4951 78.7047C49.4951 78.7047 49.4731 78.7593 49.4567 78.7867C49.2154 79.2568 48.645 79.4482 48.1678 79.2131L42.7328 87.3641C42.9028 87.4898 43.0234 87.6593 43.0838 87.8561V87.8506ZM42.5133 87.2383L47.9594 79.071C47.7729 78.907 47.6578 78.6773 47.6304 78.4368L40.5664 78.2127L42.0636 87.1782C42.2117 87.1618 42.3653 87.1782 42.5133 87.2383ZM41.8991 101.479L42.0307 89.0916C41.9265 89.0752 41.8223 89.0478 41.7291 88.9986C41.2519 88.7581 41.0655 88.1786 41.3068 87.703C41.3616 87.5937 41.4384 87.5007 41.5207 87.4242L36.0691 78.7156C36.0691 78.7156 36.0527 78.7156 36.0472 78.7211L41.8936 101.479H41.8991ZM41.4713 101.638C41.5316 101.6 41.5919 101.567 41.6578 101.539L35.8113 78.7812C35.6249 78.8031 35.4329 78.7757 35.2574 78.6828C35.2245 78.6664 35.1916 78.65 35.1642 78.6282L28.1825 86.719L41.4713 101.632V101.638ZM14.2245 103.682L41.0545 102.359C41.0655 102.239 41.0984 102.113 41.1587 101.999C41.1971 101.928 41.241 101.862 41.2903 101.802L28.0234 86.9103L13.9886 103.174C14.1148 103.316 14.1971 103.491 14.2245 103.677V103.682ZM13.709 102.966C13.7419 102.983 13.7693 102.999 13.8022 103.021L27.8534 86.7299L22.3799 80.5853C22.166 80.7329 21.8918 80.7875 21.634 80.7274L13.6925 102.961C13.6925 102.961 13.7035 102.961 13.709 102.961V102.966ZM13.4567 102.879L21.3982 80.6454C21.3159 80.6017 21.2446 80.5525 21.1788 80.4923L5.82779 93.1807L12.7821 102.994C12.985 102.879 13.2209 102.835 13.4567 102.879ZM11.1477 115.912L12.9741 104.732C12.9247 104.716 12.8808 104.699 12.8315 104.677C12.6669 104.595 12.5408 104.47 12.4475 104.328L0.91922 109.308L10.3579 116.218C10.5609 115.999 10.857 115.89 11.1477 115.912ZM-22.0991 119.328L10.1002 116.874C10.1002 116.726 10.1331 116.579 10.2044 116.436C10.2044 116.436 10.2099 116.426 10.2154 116.42L0.661438 109.423L-22.1155 119.257C-22.1155 119.257 -22.1046 119.301 -22.0991 119.323V119.328ZM-22.6036 118.667C-22.4336 118.754 -22.302 118.88 -22.2142 119.033L0.425598 109.253L-16.2088 97.0731C-16.4227 97.2972 -16.7298 97.4011 -17.0315 97.3628L-22.6805 118.634C-22.6805 118.634 -22.6311 118.656 -22.6091 118.667H-22.6036Z" fill="#C5D2FF"/>
<g filter="url(#filter0_d_757_30751)">
<rect x="150.055" y="84.1953" width="34" height="34" rx="17" fill="#FFEBE7"/>
<path d="M167.055 97.4453V94.4453H159.555V107.945H174.555V97.4453H167.055ZM162.555 106.445H161.055V104.945H162.555V106.445ZM162.555 103.445H161.055V101.945H162.555V103.445ZM162.555 100.445H161.055V98.9453H162.555V100.445ZM162.555 97.4453H161.055V95.9453H162.555V97.4453ZM165.555 106.445H164.055V104.945H165.555V106.445ZM165.555 103.445H164.055V101.945H165.555V103.445ZM165.555 100.445H164.055V98.9453H165.555V100.445ZM165.555 97.4453H164.055V95.9453H165.555V97.4453ZM173.055 106.445H167.055V104.945H168.555V103.445H167.055V101.945H168.555V100.445H167.055V98.9453H173.055V106.445ZM171.555 100.445H170.055V101.945H171.555V100.445ZM171.555 103.445H170.055V104.945H171.555V103.445Z" fill="#FF7F5C"/>
</g>
<g filter="url(#filter1_d_757_30751)">
<rect x="319.746" y="12.7227" width="34" height="34" rx="17" fill="#FBEFE4"/>
<path d="M336.746 25.9727V22.9727H329.246V36.4727H344.246V25.9727H336.746ZM332.246 34.9727H330.746V33.4727H332.246V34.9727ZM332.246 31.9727H330.746V30.4727H332.246V31.9727ZM332.246 28.9727H330.746V27.4727H332.246V28.9727ZM332.246 25.9727H330.746V24.4727H332.246V25.9727ZM335.246 34.9727H333.746V33.4727H335.246V34.9727ZM335.246 31.9727H333.746V30.4727H335.246V31.9727ZM335.246 28.9727H333.746V27.4727H335.246V28.9727ZM335.246 25.9727H333.746V24.4727H335.246V25.9727ZM342.746 34.9727H336.746V33.4727H338.246V31.9727H336.746V30.4727H338.246V28.9727H336.746V27.4727H342.746V34.9727ZM341.246 28.9727H339.746V30.4727H341.246V28.9727ZM341.246 31.9727H339.746V33.4727H341.246V31.9727Z" fill="#EDA224"/>
</g>
<g filter="url(#filter2_d_757_30751)">
<rect x="47.7422" y="80.498" width="34" height="34" rx="17" fill="#E4F0E8"/>
<path d="M64.7422 92.923C65.6122 92.923 66.3172 93.628 66.3172 94.498C66.3172 95.368 65.6122 96.073 64.7422 96.073C63.8722 96.073 63.1672 95.368 63.1672 94.498C63.1672 93.628 63.8722 92.923 64.7422 92.923ZM64.7422 99.673C66.9697 99.673 69.3172 100.768 69.3172 101.248V102.073H60.1672V101.248C60.1672 100.768 62.5147 99.673 64.7422 99.673ZM64.7422 91.498C63.0847 91.498 61.7422 92.8405 61.7422 94.498C61.7422 96.1555 63.0847 97.498 64.7422 97.498C66.3997 97.498 67.7422 96.1555 67.7422 94.498C67.7422 92.8405 66.3997 91.498 64.7422 91.498ZM64.7422 98.248C62.7397 98.248 58.7422 99.253 58.7422 101.248V103.498H70.7422V101.248C70.7422 99.253 66.7447 98.248 64.7422 98.248Z" fill="#00AB66"/>
</g>
<g filter="url(#filter3_d_757_30751)">
<rect x="250.199" y="98.0586" width="34" height="34" rx="17" fill="#EEE8F4"/>
<path d="M267.199 110.484C268.069 110.484 268.774 111.189 268.774 112.059C268.774 112.929 268.069 113.634 267.199 113.634C266.329 113.634 265.624 112.929 265.624 112.059C265.624 111.189 266.329 110.484 267.199 110.484ZM267.199 117.234C269.427 117.234 271.774 118.329 271.774 118.809V119.634H262.624V118.809C262.624 118.329 264.972 117.234 267.199 117.234ZM267.199 109.059C265.542 109.059 264.199 110.401 264.199 112.059C264.199 113.716 265.542 115.059 267.199 115.059C268.857 115.059 270.199 113.716 270.199 112.059C270.199 110.401 268.857 109.059 267.199 109.059ZM267.199 115.809C265.197 115.809 261.199 116.814 261.199 118.809V121.059H273.199V118.809C273.199 116.814 269.202 115.809 267.199 115.809Z" fill="#9B69C6"/>
</g>
<g filter="url(#filter4_d_757_30751)">
<rect x="7.5625" y="15.4961" width="34" height="34" rx="17" fill="#E4E9FF"/>
<path d="M24.5625 28.7461V25.7461H17.0625V39.2461H32.0625V28.7461H24.5625ZM20.0625 37.7461H18.5625V36.2461H20.0625V37.7461ZM20.0625 34.7461H18.5625V33.2461H20.0625V34.7461ZM20.0625 31.7461H18.5625V30.2461H20.0625V31.7461ZM20.0625 28.7461H18.5625V27.2461H20.0625V28.7461ZM23.0625 37.7461H21.5625V36.2461H23.0625V37.7461ZM23.0625 34.7461H21.5625V33.2461H23.0625V34.7461ZM23.0625 31.7461H21.5625V30.2461H23.0625V31.7461ZM23.0625 28.7461H21.5625V27.2461H23.0625V28.7461ZM30.5625 37.7461H24.5625V36.2461H26.0625V34.7461H24.5625V33.2461H26.0625V31.7461H24.5625V30.2461H30.5625V37.7461ZM29.0625 31.7461H27.5625V33.2461H29.0625V31.7461ZM29.0625 34.7461H27.5625V36.2461H29.0625V34.7461Z" fill="#0D72FF"/>
</g>
<ellipse cx="252.022" cy="97.0331" rx="1.23636" ry="1.23227" fill="url(#paint0_linear_757_30751)"/>
<ellipse cx="206.893" cy="138.314" rx="1.23636" ry="1.23227" fill="url(#paint1_linear_757_30751)"/>
<ellipse cx="113.236" cy="105.967" rx="1.23636" ry="1.23227" fill="url(#paint2_linear_757_30751)"/>
<ellipse cx="0.728551" cy="85.9432" rx="1.23636" ry="1.23227" fill="url(#paint3_linear_757_30751)"/>
<ellipse cx="74.5996" cy="61.9139" rx="1.23636" ry="1.23227" fill="url(#paint4_linear_757_30751)"/>
<ellipse cx="336.092" cy="81.3221" rx="1.23636" ry="1.23227" fill="url(#paint5_linear_757_30751)"/>
</g>
<defs>
<filter id="filter0_d_757_30751" x="140.055" y="84.1953" width="54" height="64" filterUnits="userSpaceOnUse" color-interpolation-filters="sRGB">
<feFlood flood-opacity="0" result="BackgroundImageFix"/>
<feColorMatrix in="SourceAlpha" type="matrix" values="0 0 0 0 0 0 0 0 0 0 0 0 0 0 0 0 0 0 127 0" result="hardAlpha"/>
<feMorphology radius="10" operator="erode" in="SourceAlpha" result="effect1_dropShadow_757_30751"/>
<feOffset dy="20"/>
<feGaussianBlur stdDeviation="10"/>
<feComposite in2="hardAlpha" operator="out"/>
<feColorMatrix type="matrix" values="0 0 0 0 0 0 0 0 0 0.396078 0 0 0 0 0.94902 0 0 0 0.6 0"/>
<feBlend mode="normal" in2="BackgroundImageFix" result="effect1_dropShadow_757_30751"/>
<feBlend mode="normal" in="SourceGraphic" in2="effect1_dropShadow_757_30751" result="shape"/>
</filter>
<filter id="filter1_d_757_30751" x="309.746" y="12.7227" width="54" height="64" filterUnits="userSpaceOnUse" color-interpolation-filters="sRGB">
<feFlood flood-opacity="0" result="BackgroundImageFix"/>
<feColorMatrix in="SourceAlpha" type="matrix" values="0 0 0 0 0 0 0 0 0 0 0 0 0 0 0 0 0 0 127 0" result="hardAlpha"/>
<feMorphology radius="10" operator="erode" in="SourceAlpha" result="effect1_dropShadow_757_30751"/>
<feOffset dy="20"/>
<feGaussianBlur stdDeviation="10"/>
<feComposite in2="hardAlpha" operator="out"/>
<feColorMatrix type="matrix" values="0 0 0 0 0 0 0 0 0 0.396078 0 0 0 0 0.94902 0 0 0 0.6 0"/>
<feBlend mode="normal" in2="BackgroundImageFix" result="effect1_dropShadow_757_30751"/>
<feBlend mode="normal" in="SourceGraphic" in2="effect1_dropShadow_757_30751" result="shape"/>
</filter>
<filter id="filter2_d_757_30751" x="37.7422" y="80.498" width="54" height="64" filterUnits="userSpaceOnUse" color-interpolation-filters="sRGB">
<feFlood flood-opacity="0" result="BackgroundImageFix"/>
<feColorMatrix in="SourceAlpha" type="matrix" values="0 0 0 0 0 0 0 0 0 0 0 0 0 0 0 0 0 0 127 0" result="hardAlpha"/>
<feMorphology radius="10" operator="erode" in="SourceAlpha" result="effect1_dropShadow_757_30751"/>
<feOffset dy="20"/>
<feGaussianBlur stdDeviation="10"/>
<feComposite in2="hardAlpha" operator="out"/>
<feColorMatrix type="matrix" values="0 0 0 0 0 0 0 0 0 0.396078 0 0 0 0 0.94902 0 0 0 0.6 0"/>
<feBlend mode="normal" in2="BackgroundImageFix" result="effect1_dropShadow_757_30751"/>
<feBlend mode="normal" in="SourceGraphic" in2="effect1_dropShadow_757_30751" result="shape"/>
</filter>
<filter id="filter3_d_757_30751" x="240.199" y="98.0586" width="54" height="64" filterUnits="userSpaceOnUse" color-interpolation-filters="sRGB">
<feFlood flood-opacity="0" result="BackgroundImageFix"/>
<feColorMatrix in="SourceAlpha" type="matrix" values="0 0 0 0 0 0 0 0 0 0 0 0 0 0 0 0 0 0 127 0" result="hardAlpha"/>
<feMorphology radius="10" operator="erode" in="SourceAlpha" result="effect1_dropShadow_757_30751"/>
<feOffset dy="20"/>
<feGaussianBlur stdDeviation="10"/>
<feComposite in2="hardAlpha" operator="out"/>
<feColorMatrix type="matrix" values="0 0 0 0 0 0 0 0 0 0.396078 0 0 0 0 0.94902 0 0 0 0.6 0"/>
<feBlend mode="normal" in2="BackgroundImageFix" result="effect1_dropShadow_757_30751"/>
<feBlend mode="normal" in="SourceGraphic" in2="effect1_dropShadow_757_30751" result="shape"/>
</filter>
<filter id="filter4_d_757_30751" x="-2.4375" y="15.4961" width="54" height="64" filterUnits="userSpaceOnUse" color-interpolation-filters="sRGB">
<feFlood flood-opacity="0" result="BackgroundImageFix"/>
<feColorMatrix in="SourceAlpha" type="matrix" values="0 0 0 0 0 0 0 0 0 0 0 0 0 0 0 0 0 0 127 0" result="hardAlpha"/>
<feMorphology radius="10" operator="erode" in="SourceAlpha" result="effect1_dropShadow_757_30751"/>
<feOffset dy="20"/>
<feGaussianBlur stdDeviation="10"/>
<feComposite in2="hardAlpha" operator="out"/>
<feColorMatrix type="matrix" values="0 0 0 0 0 0 0 0 0 0.396078 0 0 0 0 0.94902 0 0 0 0.6 0"/>
<feBlend mode="normal" in2="BackgroundImageFix" result="effect1_dropShadow_757_30751"/>
<feBlend mode="normal" in="SourceGraphic" in2="effect1_dropShadow_757_30751" result="shape"/>
</filter>
<linearGradient id="paint0_linear_757_30751" x1="253.258" y1="95.8008" x2="250.785" y2="95.8008" gradientUnits="userSpaceOnUse">
<stop stop-color="#EDA224"/>
<stop offset="1" stop-color="#F0B876"/>
</linearGradient>
<linearGradient id="paint1_linear_757_30751" x1="208.129" y1="139.547" x2="205.384" y2="139.193" gradientUnits="userSpaceOnUse">
<stop stop-color="#0065F2"/>
<stop offset="1" stop-color="#7298FF"/>
</linearGradient>
<linearGradient id="paint2_linear_757_30751" x1="114.473" y1="104.734" x2="112" y2="104.734" gradientUnits="userSpaceOnUse">
<stop stop-color="#EDA224"/>
<stop offset="1" stop-color="#F0B876"/>
</linearGradient>
<linearGradient id="paint3_linear_757_30751" x1="1.96491" y1="87.1755" x2="-0.77961" y2="86.8222" gradientUnits="userSpaceOnUse">
<stop stop-color="#0065F2"/>
<stop offset="1" stop-color="#7298FF"/>
</linearGradient>
<linearGradient id="paint4_linear_757_30751" x1="75.836" y1="63.1462" x2="73.0915" y2="62.7929" gradientUnits="userSpaceOnUse">
<stop stop-color="#0065F2"/>
<stop offset="1" stop-color="#7298FF"/>
</linearGradient>
<linearGradient id="paint5_linear_757_30751" x1="337.328" y1="82.5544" x2="334.584" y2="82.2011" gradientUnits="userSpaceOnUse">
<stop stop-color="#0065F2"/>
<stop offset="1" stop-color="#7298FF"/>
</linearGradient>
<clipPath id="clip0_757_30751">
<rect width="408" height="168" fill="white" transform="matrix(-1 0 0 1 384 0)"/>
</clipPath>
</defs>
</svg>
