<svg width="1320" height="456" viewBox="0 0 1320 456" fill="none" xmlns="http://www.w3.org/2000/svg">
<circle cx="1093" cy="315" r="4" fill="url(#paint0_linear_757_23765)"/>
<circle cx="827" cy="446" r="4" fill="url(#paint1_linear_757_23765)"/>
<g clip-path="url(#clip0_757_23765)">
<path d="M248.281 260.828L239.035 263.78L244.203 279.963L253.449 277.01L248.281 260.828Z" stroke="#FFD5CD" stroke-width="2" stroke-miterlimit="10"/>
<path d="M198.523 257.554L192.553 276.25L203.236 279.662L209.207 260.965L198.523 257.554Z" stroke="#FFD5CD" stroke-width="2" stroke-miterlimit="10"/>
<path d="M240.28 277.572C241.501 281.605 236.866 280.838 236.454 281.704C236.041 282.569 237.46 284.219 236.99 285.134C236.52 286.041 233.741 285.06 233.056 286.388C232.372 287.707 234.516 288.754 234.12 289.736C232.999 292.49 227.325 291.006 225.923 290.272C224.521 289.538 211.17 283.98 210.173 280.838C209.175 277.696 205.266 278.116 203.922 277.531L208.325 263.727C208.325 263.727 219.936 264.683 220.258 265.31" stroke="#FFD5CD" stroke-width="2" stroke-miterlimit="10"/>
<path d="M240.017 265.517C240.017 265.517 235.407 261.113 228.777 261.484C222.147 261.863 216.333 268.362 217.677 270.506C219.021 272.658 220.696 273.21 221.751 272.435C222.807 271.66 226.641 268.576 228.719 268.972C230.138 269.236 233.222 277.268 235.564 278.48C237.914 279.692 243.991 277.969 243.991 277.969L240.017 265.517V265.517Z" stroke="#FFD5CD" stroke-width="2" stroke-miterlimit="10"/>
</g>
<circle cx="524" cy="274" r="4" fill="url(#paint2_linear_757_23765)"/>
<circle cx="274" cy="114" r="4" fill="url(#paint3_linear_757_23765)"/>
<circle cx="90" cy="249" r="4" fill="url(#paint4_linear_757_23765)"/>
<circle cx="1205" cy="104" r="4" fill="url(#paint5_linear_757_23765)"/>
<g clip-path="url(#clip1_757_23765)" filter="url(#filter0_f_757_23765)">
<path d="M717.999 386.298C717.999 400.324 692.107 411.703 660.165 411.703C628.224 411.703 602.332 400.324 602.332 386.298C602.332 382.444 604.284 378.785 607.787 375.515C617.017 366.874 637.001 360.893 660.178 360.893C692.12 360.893 718.012 372.272 718.012 386.298H717.999Z" stroke="#E4E9FF" stroke-width="2" stroke-miterlimit="10"/>
<path d="M388.126 353.108C420.067 353.108 445.96 341.734 445.96 327.703C445.96 313.672 420.067 302.298 388.126 302.298C356.186 302.298 330.293 313.672 330.293 327.703C330.293 341.734 356.186 353.108 388.126 353.108Z" stroke="#E4E9FF" stroke-width="2" stroke-miterlimit="10"/>
<path d="M930.874 353.108C962.815 353.108 988.708 341.734 988.708 327.703C988.708 313.672 962.815 302.298 930.874 302.298C898.934 302.298 873.041 313.672 873.041 327.703C873.041 341.734 898.934 353.108 930.874 353.108Z" stroke="#E4E9FF" stroke-width="2" stroke-miterlimit="10"/>
<path d="M712.17 374.555C713.307 374.347 714.587 374.127 715.983 373.906" stroke="#E4E9FF" stroke-width="2" stroke-linecap="round" stroke-linejoin="round"/>
<path d="M723.727 372.778C759.249 367.9 837.61 360.322 858.667 350.046L872.705 343.195" stroke="#E4E9FF" stroke-width="2" stroke-linecap="round" stroke-linejoin="round"/>
<path d="M876.234 341.469L879.725 339.77" stroke="#E4E9FF" stroke-width="2" stroke-linecap="round" stroke-linejoin="round"/>
<path d="M439.043 339.77L442.533 341.456" stroke="#E4E9FF" stroke-width="2" stroke-linecap="round" stroke-linejoin="round"/>
<path d="M449.578 344.855L461.393 350.564C482.761 360.88 565.633 368.431 598.518 373.206" stroke="#E4E9FF" stroke-width="2" stroke-linecap="round" stroke-linejoin="round"/>
<path d="M602.371 373.79C603.78 374.011 605.06 374.231 606.184 374.439" stroke="#E4E9FF" stroke-width="2" stroke-linecap="round" stroke-linejoin="round"/>
</g>
<g filter="url(#filter1_d_757_23765)">
<rect x="902" y="266" width="56" height="56" rx="28" fill="#E4F0E8"/>
<path d="M930 289V285H920V303H940V289H930ZM924 301H922V299H924V301ZM924 297H922V295H924V297ZM924 293H922V291H924V293ZM924 289H922V287H924V289ZM928 301H926V299H928V301ZM928 297H926V295H928V297ZM928 293H926V291H928V293ZM928 289H926V287H928V289ZM938 301H930V299H932V297H930V295H932V293H930V291H938V301ZM936 293H934V295H936V293ZM936 297H934V299H936V297Z" fill="#00AB66"/>
</g>
<g filter="url(#filter2_d_757_23765)">
<rect x="619" y="318" width="80" height="80" rx="40" fill="#EEE8F4"/>
<path d="M658.999 347.834C660.933 347.834 662.499 349.4 662.499 351.334C662.499 353.267 660.933 354.834 658.999 354.834C657.066 354.834 655.499 353.267 655.499 351.334C655.499 349.4 657.066 347.834 658.999 347.834ZM658.999 362.834C663.949 362.834 669.166 365.267 669.166 366.334V368.167H648.833V366.334C648.833 365.267 654.049 362.834 658.999 362.834ZM658.999 344.667C655.316 344.667 652.333 347.65 652.333 351.334C652.333 355.017 655.316 358 658.999 358C662.683 358 665.666 355.017 665.666 351.334C665.666 347.65 662.683 344.667 658.999 344.667ZM658.999 359.667C654.549 359.667 645.666 361.9 645.666 366.334V371.334H672.333V366.334C672.333 361.9 663.449 359.667 658.999 359.667Z" fill="#9B69C6"/>
</g>
<g filter="url(#filter3_d_757_23765)">
<rect x="360" y="268" width="56" height="56" rx="28" fill="#E4F0E8"/>
<path d="M388 291V287H378V305H398V291H388ZM382 303H380V301H382V303ZM382 299H380V297H382V299ZM382 295H380V293H382V295ZM382 291H380V289H382V291ZM386 303H384V301H386V303ZM386 299H384V297H386V299ZM386 295H384V293H386V295ZM386 291H384V289H386V291ZM396 303H388V301H390V299H388V297H390V295H388V293H396V303ZM394 295H392V297H394V295ZM394 299H392V301H394V299Z" fill="#00AB66"/>
</g>
<g filter="url(#filter4_d_757_23765)">
<rect x="107" y="147" width="40" height="40" rx="20" fill="#E4F7FC"/>
<g clip-path="url(#clip2_757_23765)">
<path d="M132.535 158.359L131.309 157H121.66C120.965 157 120.695 157.516 120.695 157.918V161.547H122.047V158.652C122.047 158.496 122.176 158.367 122.328 158.367H129.23C129.383 158.367 129.457 158.395 129.457 158.52V163.34H134.371C134.562 163.34 134.641 163.438 134.641 163.586V175.355C134.641 175.602 134.543 175.641 134.391 175.641H122.328C122.176 175.641 122.047 175.508 122.047 175.355V174.281H120.707V175.977C120.691 176.578 121.008 177.004 121.664 177.004H135.062C135.762 177.004 136 176.496 136 176.035V163.445V162.188L135.652 161.809L132.535 158.359ZM130.836 158.52L131.223 158.953L133.82 161.809L133.965 161.98H131.312C131.113 161.98 130.984 161.945 130.934 161.883C130.879 161.816 130.848 161.711 130.84 161.57V158.52H130.836ZM129.746 167.668H134.324V169H129.746V167.668ZM129.746 165H134.324V166.332H129.746V165ZM129.746 170.336H134.324V171.668H129.746V170.336ZM118 162.625V173.293H128.465V162.625H118ZM123.234 168.832L122.594 169.809H123.234V171H120.016L122.352 167.492L120.281 164.336H122.008L123.23 166.172L124.453 164.336H126.18L124.109 167.492L126.445 171H124.656L123.234 168.832Z" fill="#00D5F0"/>
</g>
</g>
<g filter="url(#filter5_d_757_23765)">
<rect x="247" y="382" width="40" height="40" rx="20" fill="#FFEBE7"/>
<path d="M259 403C260.1 403 261 402.1 261 401C261 399.9 260.1 399 259 399C257.9 399 257 399.9 257 401C257 402.1 257.9 403 259 403ZM260.13 404.1C259.76 404.04 259.39 404 259 404C258.01 404 257.07 404.21 256.22 404.58C255.48 404.9 255 405.62 255 406.43V408H259.5V406.39C259.5 405.56 259.73 404.78 260.13 404.1ZM275 403C276.1 403 277 402.1 277 401C277 399.9 276.1 399 275 399C273.9 399 273 399.9 273 401C273 402.1 273.9 403 275 403ZM279 406.43C279 405.62 278.52 404.9 277.78 404.58C276.93 404.21 275.99 404 275 404C274.61 404 274.24 404.04 273.87 404.1C274.27 404.78 274.5 405.56 274.5 406.39V408H279V406.43ZM271.24 403.65C270.07 403.13 268.63 402.75 267 402.75C265.37 402.75 263.93 403.14 262.76 403.65C261.68 404.13 261 405.21 261 406.39V408H273V406.39C273 405.21 272.32 404.13 271.24 403.65ZM263.07 406C263.16 405.77 263.2 405.61 263.98 405.31C264.95 404.93 265.97 404.75 267 404.75C268.03 404.75 269.05 404.93 270.02 405.31C270.79 405.61 270.83 405.77 270.93 406H263.07ZM267 398C267.55 398 268 398.45 268 399C268 399.55 267.55 400 267 400C266.45 400 266 399.55 266 399C266 398.45 266.45 398 267 398ZM267 396C265.34 396 264 397.34 264 399C264 400.66 265.34 402 267 402C268.66 402 270 400.66 270 399C270 397.34 268.66 396 267 396Z" fill="#FF7F5C"/>
</g>
<g filter="url(#filter6_d_757_23765)">
<rect x="1117" y="177" width="40" height="40" rx="20" fill="#FBEFE4"/>
<path d="M1144 187H1130C1128.89 187 1128 187.9 1128 189V203C1128 204.1 1128.89 205 1130 205H1134L1137 208L1140 205H1144C1145.1 205 1146 204.1 1146 203V189C1146 187.9 1145.1 187 1144 187ZM1144 203H1139.17L1138.58 203.59L1137 205.17L1135.41 203.58L1134.83 203H1130V189H1144V203ZM1137 196C1138.65 196 1140 194.65 1140 193C1140 191.35 1138.65 190 1137 190C1135.35 190 1134 191.35 1134 193C1134 194.65 1135.35 196 1137 196ZM1137 192C1137.55 192 1138 192.45 1138 193C1138 193.55 1137.55 194 1137 194C1136.45 194 1136 193.55 1136 193C1136 192.45 1136.45 192 1137 192ZM1143 200.58C1143 198.08 1139.03 197 1137 197C1134.97 197 1131 198.08 1131 200.58V202H1143V200.58ZM1133.48 200C1134.22 199.49 1135.71 199 1137 199C1138.29 199 1139.78 199.49 1140.52 200H1133.48Z" fill="#EDA224"/>
</g>
<g filter="url(#filter7_d_757_23765)">
<rect x="1177" y="325" width="40" height="40" rx="20" fill="#EEE8F4"/>
<path d="M1197 338.9C1198.16 338.9 1199.1 339.84 1199.1 341C1199.1 342.16 1198.16 343.1 1197 343.1C1195.84 343.1 1194.9 342.16 1194.9 341C1194.9 339.84 1195.84 338.9 1197 338.9ZM1197 347.9C1199.97 347.9 1203.1 349.36 1203.1 350V351.1H1190.9V350C1190.9 349.36 1194.03 347.9 1197 347.9ZM1197 337C1194.79 337 1193 338.79 1193 341C1193 343.21 1194.79 345 1197 345C1199.21 345 1201 343.21 1201 341C1201 338.79 1199.21 337 1197 337ZM1197 346C1194.33 346 1189 347.34 1189 350V353H1205V350C1205 347.34 1199.67 346 1197 346Z" fill="#9B69C6"/>
</g>
<path d="M772.695 276.829H793.776" stroke="#FFD5CD" stroke-width="1.5" stroke-miterlimit="10"/>
<path d="M772.695 273.878H793.354" stroke="#FFD5CD" stroke-width="1.5" stroke-miterlimit="10"/>
<path d="M772.695 270.927H791.668" stroke="#FFD5CD" stroke-width="1.5" stroke-miterlimit="10"/>
<path d="M772.695 267.976H789.981" stroke="#FFD5CD" stroke-width="1.5" stroke-miterlimit="10"/>
<path d="M772.695 264.603H787.03" stroke="#FFD5CD" stroke-width="1.5" stroke-miterlimit="10"/>
<path d="M772.695 261.651H783.235" stroke="#FFD5CD" stroke-width="1.5" stroke-miterlimit="10"/>
<path d="M772.746 279.827H794.362C794.223 268.098 784.682 258.633 772.919 258.633C772.86 258.633 772.801 258.633 772.742 258.637V279.827H772.746Z" stroke="#FFD5CD" stroke-width="1.5" stroke-miterlimit="10"/>
<path d="M766.995 280.633H748.641C748.755 270.671 756.862 262.633 766.848 262.633C766.898 262.633 766.949 262.633 766.999 262.636V280.633H766.995Z" stroke="#FFEBE7" stroke-width="1.5" stroke-miterlimit="10"/>
<path d="M772.746 284.854H791.104C790.99 294.811 782.883 302.854 772.896 302.854C772.846 302.854 772.796 302.854 772.746 302.85V284.854Z" stroke="#FFEBE7" stroke-width="1.5" stroke-miterlimit="10"/>
<path d="M766.995 284.854H748.641C748.755 294.811 756.862 302.854 766.848 302.854C766.898 302.854 766.949 302.854 766.999 302.85V284.854H766.995Z" stroke="#FFEBE7" stroke-width="1.5" stroke-miterlimit="10"/>
<g clip-path="url(#clip3_757_23765)">
<path d="M1000.54 392.088C1000.54 383.002 1007.91 375.635 1017 375.635C1026.08 375.635 1033.45 383.002 1033.45 392.088C1033.45 401.174 1017 415.188 1017 415.188C1017 415.188 1000.54 401.174 1000.54 392.088V392.088Z" stroke="#FFD5CD" stroke-width="1.5" stroke-miterlimit="10"/>
<path d="M1005.82 391.635C1005.82 385.462 1010.82 380.453 1017 380.453C1023.18 380.453 1028.18 385.458 1028.18 391.635C1028.18 397.812 1017 407.33 1017 407.33C1017 407.33 1005.82 397.808 1005.82 391.635V391.635Z" stroke="#FFD5CD" stroke-width="1.5" stroke-miterlimit="10"/>
<path d="M1021.79 396.136C1024.43 393.492 1024.43 389.205 1021.79 386.561C1019.14 383.918 1014.85 383.918 1012.21 386.561C1009.57 389.205 1009.57 393.492 1012.21 396.136C1014.85 398.78 1019.14 398.78 1021.79 396.136Z" stroke="#FFD5CD" stroke-width="1.5" stroke-miterlimit="10"/>
</g>
<defs>
<filter id="filter0_f_757_23765" x="326" y="298" width="667" height="118" filterUnits="userSpaceOnUse" color-interpolation-filters="sRGB">
<feFlood flood-opacity="0" result="BackgroundImageFix"/>
<feBlend mode="normal" in="SourceGraphic" in2="BackgroundImageFix" result="shape"/>
<feGaussianBlur stdDeviation="1.5" result="effect1_foregroundBlur_757_23765"/>
</filter>
<filter id="filter1_d_757_23765" x="892" y="266" width="76" height="86" filterUnits="userSpaceOnUse" color-interpolation-filters="sRGB">
<feFlood flood-opacity="0" result="BackgroundImageFix"/>
<feColorMatrix in="SourceAlpha" type="matrix" values="0 0 0 0 0 0 0 0 0 0 0 0 0 0 0 0 0 0 127 0" result="hardAlpha"/>
<feMorphology radius="10" operator="erode" in="SourceAlpha" result="effect1_dropShadow_757_23765"/>
<feOffset dy="20"/>
<feGaussianBlur stdDeviation="10"/>
<feComposite in2="hardAlpha" operator="out"/>
<feColorMatrix type="matrix" values="0 0 0 0 0 0 0 0 0 0.396078 0 0 0 0 0.94902 0 0 0 0.6 0"/>
<feBlend mode="normal" in2="BackgroundImageFix" result="effect1_dropShadow_757_23765"/>
<feBlend mode="normal" in="SourceGraphic" in2="effect1_dropShadow_757_23765" result="shape"/>
</filter>
<filter id="filter2_d_757_23765" x="609" y="318" width="100" height="110" filterUnits="userSpaceOnUse" color-interpolation-filters="sRGB">
<feFlood flood-opacity="0" result="BackgroundImageFix"/>
<feColorMatrix in="SourceAlpha" type="matrix" values="0 0 0 0 0 0 0 0 0 0 0 0 0 0 0 0 0 0 127 0" result="hardAlpha"/>
<feMorphology radius="10" operator="erode" in="SourceAlpha" result="effect1_dropShadow_757_23765"/>
<feOffset dy="20"/>
<feGaussianBlur stdDeviation="10"/>
<feComposite in2="hardAlpha" operator="out"/>
<feColorMatrix type="matrix" values="0 0 0 0 0 0 0 0 0 0.396078 0 0 0 0 0.94902 0 0 0 0.6 0"/>
<feBlend mode="normal" in2="BackgroundImageFix" result="effect1_dropShadow_757_23765"/>
<feBlend mode="normal" in="SourceGraphic" in2="effect1_dropShadow_757_23765" result="shape"/>
</filter>
<filter id="filter3_d_757_23765" x="350" y="268" width="76" height="86" filterUnits="userSpaceOnUse" color-interpolation-filters="sRGB">
<feFlood flood-opacity="0" result="BackgroundImageFix"/>
<feColorMatrix in="SourceAlpha" type="matrix" values="0 0 0 0 0 0 0 0 0 0 0 0 0 0 0 0 0 0 127 0" result="hardAlpha"/>
<feMorphology radius="10" operator="erode" in="SourceAlpha" result="effect1_dropShadow_757_23765"/>
<feOffset dy="20"/>
<feGaussianBlur stdDeviation="10"/>
<feComposite in2="hardAlpha" operator="out"/>
<feColorMatrix type="matrix" values="0 0 0 0 0 0 0 0 0 0.396078 0 0 0 0 0.94902 0 0 0 0.6 0"/>
<feBlend mode="normal" in2="BackgroundImageFix" result="effect1_dropShadow_757_23765"/>
<feBlend mode="normal" in="SourceGraphic" in2="effect1_dropShadow_757_23765" result="shape"/>
</filter>
<filter id="filter4_d_757_23765" x="97" y="147" width="60" height="70" filterUnits="userSpaceOnUse" color-interpolation-filters="sRGB">
<feFlood flood-opacity="0" result="BackgroundImageFix"/>
<feColorMatrix in="SourceAlpha" type="matrix" values="0 0 0 0 0 0 0 0 0 0 0 0 0 0 0 0 0 0 127 0" result="hardAlpha"/>
<feMorphology radius="10" operator="erode" in="SourceAlpha" result="effect1_dropShadow_757_23765"/>
<feOffset dy="20"/>
<feGaussianBlur stdDeviation="10"/>
<feComposite in2="hardAlpha" operator="out"/>
<feColorMatrix type="matrix" values="0 0 0 0 0 0 0 0 0 0.396078 0 0 0 0 0.94902 0 0 0 0.6 0"/>
<feBlend mode="normal" in2="BackgroundImageFix" result="effect1_dropShadow_757_23765"/>
<feBlend mode="normal" in="SourceGraphic" in2="effect1_dropShadow_757_23765" result="shape"/>
</filter>
<filter id="filter5_d_757_23765" x="237" y="382" width="60" height="70" filterUnits="userSpaceOnUse" color-interpolation-filters="sRGB">
<feFlood flood-opacity="0" result="BackgroundImageFix"/>
<feColorMatrix in="SourceAlpha" type="matrix" values="0 0 0 0 0 0 0 0 0 0 0 0 0 0 0 0 0 0 127 0" result="hardAlpha"/>
<feMorphology radius="10" operator="erode" in="SourceAlpha" result="effect1_dropShadow_757_23765"/>
<feOffset dy="20"/>
<feGaussianBlur stdDeviation="10"/>
<feComposite in2="hardAlpha" operator="out"/>
<feColorMatrix type="matrix" values="0 0 0 0 0 0 0 0 0 0.396078 0 0 0 0 0.94902 0 0 0 0.6 0"/>
<feBlend mode="normal" in2="BackgroundImageFix" result="effect1_dropShadow_757_23765"/>
<feBlend mode="normal" in="SourceGraphic" in2="effect1_dropShadow_757_23765" result="shape"/>
</filter>
<filter id="filter6_d_757_23765" x="1107" y="177" width="60" height="70" filterUnits="userSpaceOnUse" color-interpolation-filters="sRGB">
<feFlood flood-opacity="0" result="BackgroundImageFix"/>
<feColorMatrix in="SourceAlpha" type="matrix" values="0 0 0 0 0 0 0 0 0 0 0 0 0 0 0 0 0 0 127 0" result="hardAlpha"/>
<feMorphology radius="10" operator="erode" in="SourceAlpha" result="effect1_dropShadow_757_23765"/>
<feOffset dy="20"/>
<feGaussianBlur stdDeviation="10"/>
<feComposite in2="hardAlpha" operator="out"/>
<feColorMatrix type="matrix" values="0 0 0 0 0 0 0 0 0 0.396078 0 0 0 0 0.94902 0 0 0 0.6 0"/>
<feBlend mode="normal" in2="BackgroundImageFix" result="effect1_dropShadow_757_23765"/>
<feBlend mode="normal" in="SourceGraphic" in2="effect1_dropShadow_757_23765" result="shape"/>
</filter>
<filter id="filter7_d_757_23765" x="1167" y="325" width="60" height="70" filterUnits="userSpaceOnUse" color-interpolation-filters="sRGB">
<feFlood flood-opacity="0" result="BackgroundImageFix"/>
<feColorMatrix in="SourceAlpha" type="matrix" values="0 0 0 0 0 0 0 0 0 0 0 0 0 0 0 0 0 0 127 0" result="hardAlpha"/>
<feMorphology radius="10" operator="erode" in="SourceAlpha" result="effect1_dropShadow_757_23765"/>
<feOffset dy="20"/>
<feGaussianBlur stdDeviation="10"/>
<feComposite in2="hardAlpha" operator="out"/>
<feColorMatrix type="matrix" values="0 0 0 0 0 0 0 0 0 0.396078 0 0 0 0 0.94902 0 0 0 0.6 0"/>
<feBlend mode="normal" in2="BackgroundImageFix" result="effect1_dropShadow_757_23765"/>
<feBlend mode="normal" in="SourceGraphic" in2="effect1_dropShadow_757_23765" result="shape"/>
</filter>
<linearGradient id="paint0_linear_757_23765" x1="1097" y1="319" x2="1088.12" y2="317.861" gradientUnits="userSpaceOnUse">
<stop stop-color="#0065F2"/>
<stop offset="1" stop-color="#7298FF"/>
</linearGradient>
<linearGradient id="paint1_linear_757_23765" x1="831" y1="450" x2="822.12" y2="448.861" gradientUnits="userSpaceOnUse">
<stop stop-color="#E13019"/>
<stop offset="1" stop-color="#EC8078"/>
</linearGradient>
<linearGradient id="paint2_linear_757_23765" x1="528" y1="270" x2="520" y2="270" gradientUnits="userSpaceOnUse">
<stop stop-color="#EDA224"/>
<stop offset="1" stop-color="#F0B876"/>
</linearGradient>
<linearGradient id="paint3_linear_757_23765" x1="278" y1="118" x2="269.12" y2="116.861" gradientUnits="userSpaceOnUse">
<stop stop-color="#E13019"/>
<stop offset="1" stop-color="#EC8078"/>
</linearGradient>
<linearGradient id="paint4_linear_757_23765" x1="94" y1="253" x2="85.1197" y2="251.861" gradientUnits="userSpaceOnUse">
<stop stop-color="#0065F2"/>
<stop offset="1" stop-color="#7298FF"/>
</linearGradient>
<linearGradient id="paint5_linear_757_23765" x1="1209" y1="100" x2="1201" y2="100" gradientUnits="userSpaceOnUse">
<stop stop-color="#EDA224"/>
<stop offset="1" stop-color="#F0B876"/>
</linearGradient>
<clipPath id="clip0_757_23765">
<rect width="64" height="36.5644" fill="white" transform="translate(191 256)"/>
</clipPath>
<clipPath id="clip1_757_23765">
<rect width="661" height="112" fill="white" transform="translate(329 301)"/>
</clipPath>
<clipPath id="clip2_757_23765">
<rect width="20" height="20" fill="white" transform="translate(117 157)"/>
</clipPath>
<clipPath id="clip3_757_23765">
<rect width="48" height="44.7992" fill="white" transform="translate(993 375)"/>
</clipPath>
</defs>
</svg>
