<svg width="410" height="224" viewBox="0 0 410 224" fill="none" xmlns="http://www.w3.org/2000/svg">
    <g clip-path="url(#a)">
        <path d="M179.752 27.76c-49.049-5.008-136.363 1.5-164.537 44.554-28.173 43.054-10.57 150.934 0 150.918h375.232l4.801.161s29.364-42.343 2.781-67.07c-26.582-24.728-8.33-36.038-5.099-45.579 3.719-10.975 4.413-33.058-25.45-60.372-26.633-24.339-46.963-52.376-96.566-50.26-49.604 2.116-42.1 32.653-91.162 27.649z" fill="url(#b)"/>
        <path d="M85.952 55.29H12.927a.67.67 0 0 0-.665.67v45.789a.665.665 0 0 0 .665.665h73.025a.66.66 0 0 0 .618-.41.665.665 0 0 0 .051-.255v-45.79a.67.67 0 0 0-.67-.669z" fill="url(#c)"/>
        <path d="M85.583 100.694V59.649a.529.529 0 0 0-.529-.525H13.806a.525.525 0 0 0-.524.525v41.045a.523.523 0 0 0 .524.546h71.248a.523.523 0 0 0 .38-.161.53.53 0 0 0 .15-.385z" fill="#F0F8FF"/>
        <path d="M84.16 58.149a.942.942 0 1 0 .001-1.885.942.942 0 0 0 0 1.885zM81.05 58.149a.942.942 0 1 0 .008-1.884.942.942 0 0 0-.009 1.884zM78.88 57.21a.934.934 0 0 1-.583.873.91.91 0 0 1-.546.053.93.93 0 0 1-.74-.74.91.91 0 0 1 .055-.545.933.933 0 0 1 .871-.582c.124 0 .246.023.36.07.23.098.414.282.512.512a.96.96 0 0 1 .07.36z" fill="#BDD0FB"/>
        <path d="M23.48 66.657a3.81 3.81 0 0 1-4.546 3.748 3.81 3.81 0 0 1 .744-7.546 3.802 3.802 0 0 1 3.801 3.798z" fill="url(#d)"/>
        <path d="M81.997 62.88h-56.76v1.803h56.76V62.88zM63.864 65.76H25.236v1.798h38.628v-1.797zM45.323 68.814H25.236v1.802h20.087v-1.802z" fill="#BDD0FB"/>
        <path d="M23.48 78.781a3.806 3.806 0 1 1-3.8-3.802c1.007.001 1.974.4 2.69 1.112.352.356.633.777.826 1.24.192.462.29.958.289 1.458l-.004-.008z" fill="#739AF0"/>
        <path d="M81.997 75.005h-56.76v1.797h56.76v-1.797zM63.864 77.885H25.236v1.797h38.628v-1.797zM45.323 80.939H25.236v1.797h20.087v-1.797z" fill="#BDD0FB"/>
        <path d="M23.48 90.909a3.802 3.802 0 1 1-7.603-.008 3.802 3.802 0 0 1 7.603.008z" fill="url(#e)"/>
        <path d="M81.997 87.128h-56.76v1.797h56.76v-1.797zM63.864 90.004H25.236v1.802h38.628v-1.802zM45.323 93.059H25.236v1.801h20.087V93.06z" fill="#BDD0FB"/>
        <path d="M90.133 51.24H8.17v55.674h81.963V51.24z" stroke="url(#f)" stroke-miterlimit="10"/>
        <path d="M9.777 49.645h-3.21v3.206h3.21v-3.206z" fill="url(#g)"/>
        <path d="M9.777 105.31h-3.21v3.21h3.21v-3.21z" fill="url(#h)"/>
        <path d="M91.736 49.645h-3.207v3.206h3.207v-3.206z" fill="url(#i)"/>
        <path d="M202.522 80.108h-27.149a.98.98 0 0 1-.889-.595 1.028 1.028 0 0 1-.07-.368V59.753a.954.954 0 0 1 .281-.682.994.994 0 0 1 .31-.207c.117-.046.242-.07.368-.07h11.033a.952.952 0 0 1 .678.277l1.793 1.793c.089.09.194.161.31.211.118.046.245.07.372.07h12.963a.948.948 0 0 1 .884.592.961.961 0 0 1 .07.367v17.041a.86.86 0 0 1-.07.368.996.996 0 0 1-.207.31.945.945 0 0 1-.314.21.92.92 0 0 1-.363.075z" fill="url(#j)"/>
        <path d="M200.057 47.422v24.413h-23.045V43.777h19.421l3.624 3.645z" fill="#BDD0FB"/>
        <path d="M196.418 47.422v-3.645l3.64 3.645h-3.64z" fill="#BDD0FB"/>
        <path d="M201.489 48.699v24.413h-23.046v-28.07h19.401l3.645 3.657z" fill="#F0F8FF"/>
        <path d="M203.543 80.108h-27.145a.969.969 0 0 1-.959-.963v-16.64a.958.958 0 0 1 .959-.96h11.037a.976.976 0 0 1 .678.282l1.793 1.797a.974.974 0 0 0 .678.277h12.963a.964.964 0 0 1 .888.605.961.961 0 0 1 .071.37v14.281a.93.93 0 0 1-.075.368.944.944 0 0 1-.206.314 1.004 1.004 0 0 1-.314.207.947.947 0 0 1-.368.062z" fill="url(#k)"/>
        <path d="M197.844 48.699v-3.657l3.644 3.645-3.644.012zM196.876 46.657h-17.454v.95h17.454v-.95zM200.445 50.227h-20.963v.6h20.963v-.6zM200.445 51.926h-20.963v.599h20.963v-.6zM196.693 53.616h-17.211v.6h17.211v-.6zM196.693 55.31h-17.211v.599h17.211v-.6zM191.131 57.025h-11.649v.595h11.649v-.595zM191.131 58.7h-11.649v.594h11.649V58.7z" fill="#BDD0FB"/>
        <path d="M71.459 151.17H15.45a.668.668 0 0 0-.67.669v38.492a.664.664 0 0 0 .67.665h56.008a.668.668 0 0 0 .665-.665v-38.492a.672.672 0 0 0-.665-.669z" fill="url(#l)"/>
        <path d="M71.257 189.563v-34.732a.413.413 0 0 0-.413-.413H16.075a.411.411 0 0 0-.413.413v34.732a.415.415 0 0 0 .413.413h54.76a.42.42 0 0 0 .298-.118.425.425 0 0 0 .124-.295z" fill="#fff"/>
        <path d="M51.464 174.232a8.264 8.264 0 1 0-16.018-4.073 8.264 8.264 0 0 0 16.018 4.073z" fill="url(#m)"/>
        <path d="m48.285 172.198-3.822 2.207-3.826 2.211v-8.847l3.826 2.21 3.822 2.219z" fill="#F0F8FF"/>
        <path d="M71.26 186.261H15.652v1.095H71.26v-1.095z" fill="#BDD0FB"/>
        <path d="M28.177 186.261H15.652v1.095h12.525v-1.095z" fill="url(#n)"/>
        <path d="M28.178 187.645a.825.825 0 0 0 .584-1.411.831.831 0 0 0-.9-.179.828.828 0 0 0 .316 1.59z" fill="url(#o)"/>
        <path d="M75.207 148.529H11.715v45.831h63.492v-45.831z" stroke="url(#p)" stroke-miterlimit="10"/>
        <path d="M12.958 147.286h-2.48v2.48h2.48v-2.48z" fill="url(#q)"/>
        <path d="M12.958 193.116h-2.48v2.48h2.48v-2.48z" fill="url(#r)"/>
        <path d="M76.446 193.116h-2.48v2.48h2.48v-2.48z" fill="url(#s)"/>
        <path d="M195.368 81.79H57.765a1.388 1.388 0 0 0-1.384 1.388v79.219a1.387 1.387 0 0 0 .853 1.283c.169.07.349.106.531.106h137.603a1.383 1.383 0 0 0 1.284-.857c.07-.168.105-.349.105-.532V83.179a1.386 1.386 0 0 0-1.389-1.389z" fill="url(#t)"/>
        <path d="M194.819 160.67V89.856a.826.826 0 0 0-.826-.827H59.163a.826.826 0 0 0-.827.827v70.814a.826.826 0 0 0 .826.826h134.823a.833.833 0 0 0 .589-.239.82.82 0 0 0 .245-.587z" fill="#F0F8FF"/>
        <path d="M91.736 105.31h-3.207v3.21h3.207v-3.21z" fill="url(#u)"/>
        <path d="M70.856 152.789a.781.781 0 0 1-.492.74.793.793 0 0 1-1.09-.579.802.802 0 0 1 .044-.462.803.803 0 0 1 .736-.492.8.8 0 0 1 .797.793h.005zM68.223 152.789a.779.779 0 0 1-.136.447.797.797 0 0 1-.826.339.798.798 0 0 1-.414-.215.804.804 0 0 1-.173-.872.798.798 0 0 1 1.537.301h.012zM65.597 152.789a.787.787 0 0 1-.492.736.783.783 0 0 1-.864-.174.823.823 0 0 1-.175-.878.797.797 0 0 1 1.3-.262.776.776 0 0 1 .23.562v.016z" fill="#fff"/>
        <path d="M76.446 147.286h-2.48v2.48h2.48v-2.48z" fill="url(#v)"/>
        <path d="M193.917 85.41a1.772 1.772 0 0 1-1.099 1.644 1.776 1.776 0 1 1 1.099-1.653v.009zM188.042 85.41c.001.35-.103.695-.298.987-.196.292-.473.52-.797.657a1.794 1.794 0 0 1-1.94-.386 1.771 1.771 0 0 1 .383-2.8 1.779 1.779 0 0 1 2.652 1.541zM182.161 85.409a1.781 1.781 0 0 1-3.033 1.26 1.777 1.777 0 0 1 1.257-3.037 1.78 1.78 0 0 1 1.641 1.097c.089.215.135.446.135.68z" fill="#BDD0FB"/>
        <path d="M113.72 93.066H61.848v37.24h51.872v-37.24z" stroke="url(#w)" stroke-miterlimit="10"/>
        <path d="M119.786 99.07H67.914v37.236h51.872V99.07z" fill="#739AF0"/>
        <path d="M116.426 133.318h-45.26l14.26-26.905 10.72 18.492 7.264-7.674 13.016 16.087zM98.277 112.326a4.433 4.433 0 0 0 4.093-2.734 4.433 4.433 0 0 0-.96-4.828 4.436 4.436 0 0 0-4.828-.96 4.425 4.425 0 0 0-2.734 4.093 4.432 4.432 0 0 0 4.43 4.429v0z" stroke="#fff" stroke-width="2" stroke-linecap="round" stroke-linejoin="round"/>
        <path d="M190.36 93.644h-64.612v3.972h64.612v-3.972zM144.314 100.959h-18.566v1.988h18.566v-1.988zM154.381 100.959h-7.533v1.988h7.533v-1.988zM177.054 100.959h-19.777v1.988h19.777v-1.988zM190.365 100.959h-11.748v1.988h11.748v-1.988zM150.223 105.909h-24.475v1.988h24.475v-1.988zM162.463 105.909h-9.529v1.988h9.529v-1.988zM174.156 105.909h-9.504v1.988h9.504v-1.988zM187.724 105.909h-12.103v1.988h12.095l.008-1.988zM132.562 110.864h-6.814v1.984h6.814v-1.984zM169.935 110.864h-12.236v1.984h12.236v-1.984zM155.646 110.864h-21.521v1.984h21.521v-1.984zM141.182 115.814h-15.434v1.988h15.434v-1.988zM149.018 115.814h-5.186v1.988h5.186v-1.988zM161.616 115.814h-10.19v1.988h10.19v-1.988zM131.653 120.765h-5.905v1.987h5.905v-1.987zM146.848 120.765h-12.963v1.987h12.963v-1.987zM119.786 140.261H61.848v17.231h57.938v-17.231z" fill="#BDD0FB"/>
        <path d="M74.38 141.431H63.39v10.223H74.38v-10.223zM74.38 153.178H63.39v3.02H74.38v-3.02zM88.393 145.988h-11v10.211h11v-10.211zM88.393 141.431h-11v3.041h11v-3.041zM103.488 141.431H92.492v10.223h10.996v-10.223zM103.488 153.178H92.492v3.02h10.996v-3.02zM117.506 145.988H106.51v10.211h10.996v-10.211zM117.506 141.431H106.51v3.041h10.996v-3.041z" fill="#fff"/>
        <path d="M127.718 126.306h63.963a.618.618 0 0 1 .624.624v2.934h-65.223v-2.934a.629.629 0 0 1 .19-.446.667.667 0 0 1 .203-.137.61.61 0 0 1 .243-.041z" fill="url(#x)"/>
        <path d="M191.65 129.178v27.021c-.001.297-.12.583-.331.793-.21.211-.495.33-.793.331h-61.653a1.128 1.128 0 0 1-1.124-1.124v-27.021h63.901zm.657-.653h-65.219v27.686c.007.465.193.909.521 1.24.166.164.362.294.578.384.216.09.448.136.682.136h61.657c.234.001.466-.046.682-.136.216-.09.412-.22.578-.384.328-.331.514-.775.521-1.24v-27.698.012z" fill="url(#y)"/>
        <path d="M137.566 132.062h-8.207v23.674h8.207v-23.674zM189.455 132.062h-39.67v23.674h39.67v-23.674z" fill="#BDD0FB"/>
        <path d="M187.513 133.318h-35.591v2.414h35.591v-2.414zM187.513 137.19h-35.591v1.211h35.591v-1.211z" fill="#fff"/>
        <path d="M147.492 137.19h-8.207v2.827h8.207v-2.827z" fill="#BDD0FB"/>
        <path d="M159.579 139.484h-7.657v14.463h7.657v-14.463zM178.376 139.484h-7.657v14.463h7.657v-14.463zM169.562 154.289h-8.314v-15.132h8.314v15.132zm-7.657-.657h7V139.81h-7v13.822zM187.843 154.289h-8.31v-15.132h8.31v15.132zm-7.657-.657h7.004V139.81h-7.004v13.822z" fill="#fff"/>
        <path d="M147.492 142.307h-8.207v2.826h8.207v-2.826zM147.492 147.43h-8.207v2.822h8.207v-2.822zM147.492 152.55h-8.207v2.822h8.207v-2.822z" fill="#BDD0FB"/>
        <path d="M144.76 200.951h-32.458c-.152 0-.302-.03-.443-.087a1.177 1.177 0 0 1-.628-.628 1.181 1.181 0 0 1-.086-.447v-36.041h34.781v36.041a1.17 1.17 0 0 1-1.166 1.162z" fill="#fff"/>
        <path d="M145.319 164.355v35.434a.54.54 0 0 1-.165.393.557.557 0 0 1-.392.165h-32.455a.554.554 0 0 1-.554-.558v-35.434h33.566zm.608-.607h-34.769v36.041a1.182 1.182 0 0 0 .335.823 1.176 1.176 0 0 0 .822.339h32.459a1.163 1.163 0 0 0 .826-.339c.218-.22.34-.517.339-.827v-36.037h-.012z" fill="url(#z)"/>
        <path d="M112.299 159.385h32.458a1.164 1.164 0 0 1 1.162 1.165v3.198h-34.761v-3.206c0-.31.122-.607.339-.827.216-.207.502-.325.802-.33z" fill="url(#A)"/>
        <path d="M138.347 161.483a.702.702 0 0 1-.413.641.651.651 0 0 1-.413.037.669.669 0 0 1-.356-.186.703.703 0 0 1 .104-1.078.7.7 0 0 1 .876.086c.129.13.201.305.202.488v.012zM141.36 161.484a.701.701 0 0 1-.413.64.651.651 0 0 1-.413.037.684.684 0 0 1-.542-.541.689.689 0 0 1 .778-.819.687.687 0 0 1 .59.683zM144.372 161.484a.693.693 0 0 1-.839.677.674.674 0 0 1-.356-.185.674.674 0 0 1-.185-.356.665.665 0 0 1 .037-.413.688.688 0 0 1 1.176-.178.684.684 0 0 1 .154.442l.013.013z" fill="#BDD0FB"/>
        <path d="M120.19 171.628a2.668 2.668 0 0 1-5.127 1.027 2.666 2.666 0 1 1 5.127-1.027z" fill="url(#B)"/>
        <path d="M141.237 169.666h-18.719v1.24h18.719v-1.24zM132.96 172.728h-10.442v1.239h10.442v-1.239z" fill="#BDD0FB"/>
        <path d="M120.191 180.958a2.687 2.687 0 0 1-.451 1.484 2.668 2.668 0 0 1-3.114 1.034 2.688 2.688 0 0 1-.989-.621 2.67 2.67 0 0 1-.578-2.893 2.644 2.644 0 0 1 2.329-1.631 2.66 2.66 0 0 1 2.405 1.289c.248.412.379.883.381 1.363l.017-.025z" fill="url(#C)"/>
        <path d="M141.237 178.992h-18.719v1.24h18.719v-1.24zM132.96 182.07h-10.442v1.24h10.442v-1.24z" fill="#BDD0FB"/>
        <path d="M120.19 190.285a2.671 2.671 0 0 1-.602 1.693 2.667 2.667 0 0 1-4.614-2.459 2.66 2.66 0 0 1 2.811-1.881 2.663 2.663 0 0 1 2.405 2.647z" fill="#739AF0"/>
        <path d="M141.237 188.322h-18.719v1.24h18.719v-1.24zM132.96 191.397h-10.442v1.24h10.442v-1.24z" fill="#BDD0FB"/>
        <path d="M6.728 224.001H403.69a1.098 1.098 0 0 0 1.165-1.013 1.1 1.1 0 0 0-1.165-1.012H6.728a1.102 1.102 0 0 0-1.165 1.012 1.098 1.098 0 0 0 1.165 1.013z" fill="#233862"/>
        <path d="M385.954 105.653h-50.657l17.318-70.066h50.657l-17.318 70.066z" fill="#739AF0"/>
        <path d="M378.389 101.281h-50.657l17.314-70.066h50.662l-17.319 70.066z" fill="#739AF0"/>
        <path d="M370.19 96.286h-50.661l17.318-70.066h50.662L370.19 96.286z" fill="#BDD0FB"/>
        <path d="m394.678 35.587-16.029 65.273-42.116.421 43.385.955 14.76-66.65z" fill="url(#D)"/>
        <path d="m386.261 31.215-15.227 64.649-42.116.421 42.831 1.058 14.512-66.128z" fill="url(#E)"/>
        <path d="M349.083 50.5h-14.165l4.434-17.798h14.169L349.083 50.5z" fill="#F0F8FF"/>
        <path d="M381.431 35.16h-25.384l.624-2.458h25.384l-.624 2.459zM380.283 40.21h-25.381l.624-2.458h25.385l-.628 2.459zM379.087 45.26h-25.384l.624-2.458h25.384l-.624 2.458zM377.681 50.306h-25.384l.624-2.458h25.384l-.624 2.458zM377.707 55.562h-44.463l.595-2.459h44.467l-.599 2.46zM376.522 60.818h-44.467l.599-2.459h44.467l-.599 2.46zM374.875 66.74h-44.463l.595-2.459h44.467l-.599 2.459zM373.385 71.847h-44.467l.599-2.458h44.463l-.595 2.458z" fill="#739AF0"/>
        <path d="M344.965 62.831c.033.95.033 1.9 0 2.851a36.192 36.192 0 0 1-.256 3.075c-.11.95-.262 1.9-.455 2.85a39.338 39.338 0 0 1-22.909 28.331h-7.24l16.36-66.177a37.6 37.6 0 0 1 3.529 3.194c.111.116.227.227.33.347a38.318 38.318 0 0 1 6.686 9.554c.492.996.934 2 1.335 3.02.364.943.694 1.889.984 2.848a39.94 39.94 0 0 1 .826 3.243c.198.947.364 1.897.488 2.852.179 1.33.287 2.67.322 4.012zM386.59 26.22l-.723 2.855h-29.429l.723-2.855h29.429z" fill="#BDD0FB"/>
        <path d="M341.009 46.855h-9.066l2.381-9.553a38.34 38.34 0 0 1 6.685 9.553z" fill="#F0F8FF"/>
        <path d="M343.328 52.723h-13.322l.694-2.847h11.645c.363.95.694 1.888.983 2.847zM344.629 58.818h-16l.69-2.851h14.835c.198.946.363 1.884.475 2.851zM344.946 65.703h-18.227l.694-2.851h17.55c.033.936.027 1.887-.017 2.85zM344.689 68.756c-.11.95-.262 1.9-.455 2.851h-19.248l.695-2.851h19.008z" fill="#739AF0"/>
        <path d="M250.307 92.604c1.124-.913 9.805 2.892 9.694 4.223-.112 1.33 6.062 14.186 6.062 14.186l10.661-8.5c.091-.306 1.103-3.612 1.153-4.203.049-.59 1.851-1.706 2.69-1.55.839.158-.715 1.212-.827 1.406-.276.525.794.719.794.719s3.045-.975 3.111-1.967c.066-.992 2.149 1.735 1.901 2.115-.248.38-5.211 4.381-5.93 5.253 0 0-13.789 15.764-14.768 16.173-.864.364-3.934-5.07-6.839-8.678-2.905-3.607-11.211-16.326-7.702-19.177z" fill="url(#F)"/>
        <path d="M222.479 208.517s-1.892 1.852-1.938 2.529c-.045.678-.165 7.947.608 8.624.772.678 3.045 1.161 2.314 1.926-.55.574-4.798.454-7.616.297-.826-.045-1.851-6.611-2.178-7.566-.471-1.401-1.62-4.545-1.19-5.525.211-.475 1.211-1.454 2.624-2.367 1.484-.959 2.893-3.091 2.893-3.091l4.483 5.173z" fill="url(#G)"/>
        <path d="M242.111 212.81s-1.698 4.79-1.698 4.802c-.128.76-.624 2.636-.624 3.326 0 2.591 11.69-2.202 9.091-3.351a2.77 2.77 0 0 1-1.058-1.814c-.12-1.359.984-3.066.984-3.066l-6.695.103z" fill="url(#H)"/>
        <path d="M260.447 123.62s.855 8.587.855 8.715c0 13.893 2.752 41.029 2.227 43.64-1.276 6.368-15.028 38.868-15.028 38.868l-7.439-.888 7.976-39.256-1.856-15.29-5.033-30.983 18.298-4.806z" fill="url(#I)"/>
        <path d="m235.504 131.216-1.409 8.14-3.814 33.496-14.529 32.74s2.041 4.764 5.058 5.434l23.14-33.612 14.368-43.012-.504-9.558-22.31 6.372z" fill="url(#J)"/>
        <path d="m263.414 103.17-10.306 1.053s-.475-8.446-.475-12.479c0-4.888.413-11.186 1.008-11.05 1.653.38 3.889 1.294 5.219 3.12 4.595 6.319 4.554 19.356 4.554 19.356z" fill="url(#K)"/>
        <path d="M258.347 90.885c.219 1.488 4.177 42.017 4.177 42.017-18.76 9.062-29.115 1.611-29.115 1.611s.611-28.458-.124-32.33c-.484-2.562-1.091-19.591.57-20.07a41.62 41.62 0 0 1 7.236-1.534c2.272-.235 11.107-.372 12.686.157a20.105 20.105 0 0 1 4.57 10.15z" fill="url(#L)"/>
        <path d="M215.195 206.389s4.368 12.297 6.074 12.892c.455.157 2.633.558 3.046 1.521.062.411.062.829 0 1.24h-9.091s-1.153-5.422-1.608-7.802c0 0-2.409-5.814-2.14-6.343.269-.529 3.719-1.508 3.719-1.508z" fill="url(#M)"/>
        <path d="m239.123 221.806 1.339-4.232s2.814 1.19 4.219.992a42.74 42.74 0 0 0 4.132-.992c5.612 1.847 10.207 2.744 9.372 4.232h-19.062z" fill="url(#N)"/>
        <path d="M264.876 120.459c.1-.063.194-.133.281-.211-.334-3.967-.272-7.814.976-9.116-.033-.062-.306-.64-.591-1.239-1.442 1.119-2.128 4.086-1.86 8.9.045.337.108.671.19 1 .401.455.781.752 1.004.666z" fill="url(#O)"/>
        <path d="m243.599 72.727-1.206 7.975s4.413 9.504 7.053 8.678c2.211-.69.852-9.091.852-9.091s-1.207-4.512-.848-6.769c.36-2.256-5.851-.793-5.851-.793z" fill="url(#P)"/>
        <path d="M249.45 73.525c.364-2.256-5.851-.785-5.851-.785l-.099.66c.157.408.385.785.674 1.112a8.164 8.164 0 0 0 5.433 2.48 12.216 12.216 0 0 1-.157-3.467z" fill="url(#Q)"/>
        <path d="M242.582 61.463c-.178-.062-1.409 9.09.929 11.595 2.339 2.504 6.893 3.339 8.525 1.36 1.806-2.195 1.715-12.021-1.917-14.608-3.632-2.587-7.537 1.653-7.537 1.653z" fill="url(#R)"/>
        <path d="M250.828 60.472c-1.781-.414-3.599 1.016-3.599 1.016l-.79 1.066c-.657 1.401-.681 3.34-1.095 4.19-.094.18-.209.348-.343.5-.215-.533-.578-.88-.979-.871-.645 0-1.149.921-1.132 2.037a2.52 2.52 0 0 0 .636 1.764c.191.496.311 1.016.356 1.546a6.617 6.617 0 0 1-.319 2.789l-.413 1.177c0-.115-.033-2.33-2.529-4.264-2.562-1.98-4.186-6.02-1.983-9.665 1.789-2.963 3.52-3.67 4.797-3.818a10.08 10.08 0 0 1 5.298-3.025c3.611-.727 3.863 5.954 2.095 5.558z" fill="url(#S)"/>
        <path d="M277.843 91.793a32.862 32.862 0 0 1-2.318-2.615l-15.38 15.02c-.946.922-.62 2.79.727 4.17s3.207 1.748 4.132.826l15.385-15.016a40.16 40.16 0 0 1-2.546-2.385z" fill="url(#T)"/>
        <path opacity=".4" d="M333.179 91.988c15.421-15.064 15.785-39.7.813-55.026-14.971-15.326-39.609-15.538-55.03-.474-15.42 15.064-15.784 39.7-.813 55.026 14.972 15.326 39.61 15.538 55.03.474z" fill="#C5DDF9"/>
        <path d="M278.1 91.091a38.768 38.768 0 0 0 24.702 12.087l42.074-42.769-.024-.244a39.012 39.012 0 0 0-12.24-24.487L278.1 91.09zM306.401 25.273l-38.913 39.554c0 1.194.087 2.401.219 3.616a39.001 39.001 0 0 0 4.889 15.194l52.549-53.417a38.43 38.43 0 0 0-18.744-4.947z" fill="#fff" style="mix-blend-mode:soft-light" opacity=".6"/>
        <path d="M337.642 33.398c-16.942-17.331-44.781-17.575-62.215-.546-17.434 17.029-17.851 44.88-.929 62.21 16.921 17.331 44.776 17.571 62.214.542 17.438-17.029 17.835-44.88.93-62.206zM278.138 91.5c-14.967-15.327-14.599-39.963.826-55.025 15.426-15.062 40.046-14.847 55.034.48 14.987 15.326 14.599 39.966-.827 55.028-15.426 15.062-40.058 14.847-55.029-.483h-.004z" fill="url(#U)"/>
        <path d="M335.722 35.265c-15.888-16.256-42.062-16.504-58.45-.508-16.388 15.996-16.769 42.149-.872 58.434 15.897 16.285 42.058 16.504 58.438.512 16.38-15.991 16.781-42.157.884-58.438zM278.14 91.501c-14.967-15.327-14.599-39.963.826-55.025 15.426-15.062 40.042-14.847 55.029.48 14.988 15.326 14.599 39.966-.826 55.028-15.426 15.062-40.058 14.847-55.029-.483z" fill="#50BFA5" style="mix-blend-mode:multiply" opacity=".5"/>
        <path d="m212.397 157.707-2.393-2.479a6.237 6.237 0 0 1-1.743-4.439 6.227 6.227 0 0 1 1.905-4.371l44.38-43.054a6.231 6.231 0 0 1 8.81.161l2.388 2.479a6.238 6.238 0 0 1-.161 8.814l-44.397 43.033a6.226 6.226 0 0 1-8.789-.144z" fill="url(#V)"/>
        <path d="M214.827 133.331a1.174 1.174 0 0 1 0-.265c.277-2.806 2.608-26.372 3-27.372.356-.905 10.806-15.855 10.806-15.855l5.136 7-10.049 13.405c-.227.855-3.851 16.764-3.851 16.764s-.744 2.893-1.079 4.637c.153.413.302.826.413 1.136.305.613.667 1.196 1.083 1.74.511.707.942 1.47 1.285 2.272.108.414.298 1.24.413 1.773.116.533.261 1.112.285 1.389.069.264.178.516.323.748a.447.447 0 0 1-.529.644c-.364-.12-.649-.591-.827-.888-.495-.827-.76-2.347-.884-2.269-.124.079-.554 2.657-.624 2.946-.07.29-.587 3.281-.88 3.831-.293.55-.682.455-.785.112-.103-.343.322-4.48.322-4.48s.054-.533-.182-.368c-.235.166-.615 3.967-.776 4.521-.162.554-.534.851-.852.413-.38-.541.277-4.57.277-4.57s.075-.508-.14-.463c-.215.046-.488 3.285-.657 3.566a.413.413 0 0 1-.798-.086c-.24-.55.38-4.133.38-4.133s-.029-.285-.165-.19c-.136.095-.562 2.839-.826 3.091a.298.298 0 0 1-.414 0c-.512-.351.273-2.963.265-4.26-.008-1.298.595-2.752.413-4.298a3.881 3.881 0 0 1-.083-.491z" fill="url(#W)"/>
        <path d="m220.459 99.306 8.93 5.996s5.029-7.488 7.731-10.153c3.384-3.339-1.24-13.57-3.413-12.992-4.876 1.314-13.248 17.15-13.248 17.15z" fill="url(#X)"/>
    </g>
    <defs>
        <linearGradient id="b" x1="409.161" y1="111.695" x2="-24.053" y2="111.695" gradientUnits="userSpaceOnUse">
            <stop stop-color="#DAE3FE"/>
            <stop offset="1" stop-color="#E9EFFD"/>
        </linearGradient>
        <linearGradient id="c" x1="12.262" y1="78.852" x2="86.613" y2="78.852" gradientUnits="userSpaceOnUse">
            <stop stop-color="#09005D"/>
            <stop offset="1" stop-color="#1A0F91"/>
        </linearGradient>
        <linearGradient id="d" x1="15.868" y1="66.669" x2="23.479" y2="66.669" gradientUnits="userSpaceOnUse">
            <stop stop-color="#4042E2"/>
            <stop offset="1" stop-color="#4F52FF"/>
        </linearGradient>
        <linearGradient id="e" x1="15.869" y1="90.905" x2="23.48" y2="90.905" gradientUnits="userSpaceOnUse">
            <stop offset=".03" stop-color="#FE7062"/>
            <stop offset="1" stop-color="#FE7062"/>
        </linearGradient>
        <linearGradient id="f" x1="8.31" y1="79.083" x2="89.992" y2="79.083" gradientUnits="userSpaceOnUse">
            <stop offset=".49" stop-color="#001333"/>
            <stop offset="1" stop-color="#001E4F"/>
        </linearGradient>
        <linearGradient id="g" x1="2256.11" y1="-7549.13" x2="2519.94" y2="-7549.13" gradientUnits="userSpaceOnUse">
            <stop offset=".49" stop-color="#001333"/>
            <stop offset="1" stop-color="#001E4F"/>
        </linearGradient>
        <linearGradient id="h" x1="2256.11" y1="-7935.78" x2="2519.94" y2="-7935.78" gradientUnits="userSpaceOnUse">
            <stop offset=".49" stop-color="#001333"/>
            <stop offset="1" stop-color="#001E4F"/>
        </linearGradient>
        <linearGradient id="i" x1="9700.38" y1="-7549.13" x2="9963.9" y2="-7549.13" gradientUnits="userSpaceOnUse">
            <stop offset=".49" stop-color="#001333"/>
            <stop offset="1" stop-color="#001E4F"/>
        </linearGradient>
        <linearGradient id="j" x1="1323670" y1="-51388.4" x2="1519520" y2="-51388.4" gradientUnits="userSpaceOnUse">
            <stop offset=".49" stop-color="#001333"/>
            <stop offset="1" stop-color="#001E4F"/>
        </linearGradient>
        <linearGradient id="k" x1="1330920" y1="-44805.8" x2="1526830" y2="-44805.8" gradientUnits="userSpaceOnUse">
            <stop stop-color="#09005D"/>
            <stop offset="1" stop-color="#1A0F91"/>
        </linearGradient>
        <linearGradient id="l" x1="919090" y1="-105776" x2="2423290" y2="-105776" gradientUnits="userSpaceOnUse">
            <stop stop-color="#09005D"/>
            <stop offset="1" stop-color="#1A0F91"/>
        </linearGradient>
        <linearGradient id="m" x1="122064" y1="-43843.1" x2="158052" y2="-43843.1" gradientUnits="userSpaceOnUse">
            <stop stop-color="#09005D"/>
            <stop offset="1" stop-color="#1A0F91"/>
        </linearGradient>
        <linearGradient id="n" x1="45337.3" y1="-2767.92" x2="61020.4" y2="-2767.92" gradientUnits="userSpaceOnUse">
            <stop offset=".03" stop-color="#FE7062"/>
            <stop offset="1" stop-color="#FE7062"/>
        </linearGradient>
        <linearGradient id="o" x1="1189.61" y1="-4273.17" x2="1226.87" y2="-4273.17" gradientUnits="userSpaceOnUse">
            <stop offset=".03" stop-color="#FE7062"/>
            <stop offset="1" stop-color="#FE7062"/>
        </linearGradient>
        <linearGradient id="p" x1="1013030" y1="-121788" x2="3044950" y2="-121788" gradientUnits="userSpaceOnUse">
            <stop offset=".49" stop-color="#001333"/>
            <stop offset="1" stop-color="#001E4F"/>
        </linearGradient>
        <linearGradient id="q" x1="1581.19" y1="-6311.82" x2="1703.57" y2="-6311.82" gradientUnits="userSpaceOnUse">
            <stop offset=".49" stop-color="#001333"/>
            <stop offset="1" stop-color="#001E4F"/>
        </linearGradient>
        <linearGradient id="r" x1="1581.19" y1="-6540.89" x2="1703.57" y2="-6540.89" gradientUnits="userSpaceOnUse">
            <stop offset=".49" stop-color="#001333"/>
            <stop offset="1" stop-color="#001E4F"/>
        </linearGradient>
        <linearGradient id="s" x1="5148.59" y1="-6540.89" x2="5270.97" y2="-6540.89" gradientUnits="userSpaceOnUse">
            <stop offset=".49" stop-color="#001333"/>
            <stop offset="1" stop-color="#001E4F"/>
        </linearGradient>
        <linearGradient id="t" x1="12054300" y1="-208419" x2="34118800" y2="-208419" gradientUnits="userSpaceOnUse">
            <stop stop-color="#09005D"/>
            <stop offset="1" stop-color="#1A0F91"/>
        </linearGradient>
        <linearGradient id="u" x1="9700.38" y1="-7935.78" x2="9963.9" y2="-7935.78" gradientUnits="userSpaceOnUse">
            <stop offset=".49" stop-color="#001333"/>
            <stop offset="1" stop-color="#001E4F"/>
        </linearGradient>
        <linearGradient id="v" x1="5148.59" y1="-6311.82" x2="5270.97" y2="-6311.82" gradientUnits="userSpaceOnUse">
            <stop offset=".49" stop-color="#001333"/>
            <stop offset="1" stop-color="#001E4F"/>
        </linearGradient>
        <linearGradient id="w" x1="1745690" y1="-93601.2" x2="2853250" y2="-93601.2" gradientUnits="userSpaceOnUse">
            <stop stop-color="#09005D"/>
            <stop offset="1" stop-color="#1A0F91"/>
        </linearGradient>
        <linearGradient id="x" x1="5017760" y1="-8967.21" x2="7230990" y2="-8967.21" gradientUnits="userSpaceOnUse">
            <stop stop-color="#09005D"/>
            <stop offset="1" stop-color="#1A0F91"/>
        </linearGradient>
        <linearGradient id="y" x1="5017440" y1="-76239" x2="7230530" y2="-76239" gradientUnits="userSpaceOnUse">
            <stop stop-color="#09005D"/>
            <stop offset="1" stop-color="#1A0F91"/>
        </linearGradient>
        <linearGradient id="z" x1="1276900" y1="-99799" x2="1612650" y2="-99799" gradientUnits="userSpaceOnUse">
            <stop stop-color="#09005D"/>
            <stop offset="1" stop-color="#1A0F91"/>
        </linearGradient>
        <linearGradient id="A" x1="1275920" y1="-11346.2" x2="1611410" y2="-11346.2" gradientUnits="userSpaceOnUse">
            <stop stop-color="#09005D"/>
            <stop offset="1" stop-color="#1A0F91"/>
        </linearGradient>
        <linearGradient id="B" x1="32220.8" y1="-14016" x2="33429.6" y2="-14016" gradientUnits="userSpaceOnUse">
            <stop offset=".03" stop-color="#FE7062"/>
            <stop offset="1" stop-color="#FE7062"/>
        </linearGradient>
        <linearGradient id="C" x1="32225.6" y1="-14046.4" x2="33434.6" y2="-14046.4" gradientUnits="userSpaceOnUse">
            <stop stop-color="#4042E2"/>
            <stop offset="1" stop-color="#4F52FF"/>
        </linearGradient>
        <linearGradient id="D" x1="47690.1" y1="11149.9" x2="55871" y2="11149.9" gradientUnits="userSpaceOnUse">
            <stop stop-color="#4042E2"/>
            <stop offset="1" stop-color="#4F52FF"/>
        </linearGradient>
        <linearGradient id="E" x1="45972.8" y1="10318.1" x2="53930.3" y2="10318.1" gradientUnits="userSpaceOnUse">
            <stop stop-color="#4042E2"/>
            <stop offset="1" stop-color="#4F52FF"/>
        </linearGradient>
        <linearGradient id="F" x1="249.459" y1="106.472" x2="285.579" y2="106.472" gradientUnits="userSpaceOnUse">
            <stop stop-color="#FEBBBA"/>
            <stop offset="1" stop-color="#FF928E"/>
        </linearGradient>
        <linearGradient id="G" x1="5979.65" y1="9817.4" x2="6284.42" y2="9817.4" gradientUnits="userSpaceOnUse">
            <stop stop-color="#FEBBBA"/>
            <stop offset="1" stop-color="#FF928E"/>
        </linearGradient>
        <linearGradient id="H" x1="5733.93" y1="4937.86" x2="5950.56" y2="4937.86" gradientUnits="userSpaceOnUse">
            <stop stop-color="#FEBBBA"/>
            <stop offset="1" stop-color="#FF928E"/>
        </linearGradient>
        <linearGradient id="I" x1="13386.9" y1="37483.2" x2="14615.2" y2="37483.2" gradientUnits="userSpaceOnUse">
            <stop stop-color="#09005D"/>
            <stop offset="1" stop-color="#1A0F91"/>
        </linearGradient>
        <linearGradient id="J" x1="22440.4" y1="35149.1" x2="26823.4" y2="35149.1" gradientUnits="userSpaceOnUse">
            <stop stop-color="#09005D"/>
            <stop offset="1" stop-color="#1A0F91"/>
        </linearGradient>
        <linearGradient id="K" x1="252.633" y1="92.459" x2="263.414" y2="92.459" gradientUnits="userSpaceOnUse">
            <stop stop-color="#FE7062"/>
            <stop offset="1" stop-color="#FF928E"/>
        </linearGradient>
        <linearGradient id="L" x1="16995.6" y1="15105.4" x2="19138.8" y2="15105.4" gradientUnits="userSpaceOnUse">
            <stop stop-color="#FE7062"/>
            <stop offset="1" stop-color="#FF928E"/>
        </linearGradient>
        <linearGradient id="M" x1="6815.38" y1="8321.15" x2="7219.09" y2="8321.15" gradientUnits="userSpaceOnUse">
            <stop stop-color="#FE7062"/>
            <stop offset="1" stop-color="#FF928E"/>
        </linearGradient>
        <linearGradient id="N" x1="11326.8" y1="2467.2" x2="12216" y2="2467.2" gradientUnits="userSpaceOnUse">
            <stop stop-color="#FE7062"/>
            <stop offset="1" stop-color="#FF928E"/>
        </linearGradient>
        <linearGradient id="O" x1="1863.34" y1="3059.29" x2="1878.56" y2="3059.29" gradientUnits="userSpaceOnUse">
            <stop stop-color="#FEBBBA"/>
            <stop offset="1" stop-color="#FF928E"/>
        </linearGradient>
        <linearGradient id="P" x1="5121.95" y1="3431.77" x2="5289.4" y2="3431.77" gradientUnits="userSpaceOnUse">
            <stop stop-color="#FEBBBA"/>
            <stop offset="1" stop-color="#FF928E"/>
        </linearGradient>
        <linearGradient id="Q" x1="243.5" y1="74.62" x2="249.607" y2="74.62" gradientUnits="userSpaceOnUse">
            <stop offset=".5" stop-color="#FF928E"/>
            <stop offset=".97" stop-color="#FF928E"/>
        </linearGradient>
        <linearGradient id="R" x1="6738.37" y1="2751.34" x2="7035.97" y2="2751.34" gradientUnits="userSpaceOnUse">
            <stop stop-color="#FEBBBA"/>
            <stop offset="1" stop-color="#FF928E"/>
        </linearGradient>
        <linearGradient id="S" x1="237.609" y1="65.277" x2="251.894" y2="65.277" gradientUnits="userSpaceOnUse">
            <stop offset=".49" stop-color="#001333"/>
            <stop offset="1" stop-color="#001E4F"/>
        </linearGradient>
        <linearGradient id="T" x1="13317.7" y1="5028.05" x2="14364" y2="5028.05" gradientUnits="userSpaceOnUse">
            <stop stop-color="#09005D"/>
            <stop offset="1" stop-color="#1A0F91"/>
        </linearGradient>
        <linearGradient id="U" x1="56064" y1="13695.2" x2="74800.7" y2="13695.2" gradientUnits="userSpaceOnUse">
            <stop stop-color="#09005D"/>
            <stop offset="1" stop-color="#1A0F91"/>
        </linearGradient>
        <linearGradient id="V" x1="30056.4" y1="18427.4" x2="38550.5" y2="18427.4" gradientUnits="userSpaceOnUse">
            <stop offset=".49" stop-color="#001333"/>
            <stop offset="1" stop-color="#001E4F"/>
        </linearGradient>
        <linearGradient id="W" x1="10423.5" y1="15896.2" x2="11364.5" y2="15896.2" gradientUnits="userSpaceOnUse">
            <stop stop-color="#FEBBBA"/>
            <stop offset="1" stop-color="#FF928E"/>
        </linearGradient>
        <linearGradient id="X" x1="9749.7" y1="5336.68" x2="10521.8" y2="5336.68" gradientUnits="userSpaceOnUse">
            <stop stop-color="#FE7062"/>
            <stop offset="1" stop-color="#FF928E"/>
        </linearGradient>
        <clipPath id="a">
            <path fill="#fff" d="M0 0h409.161v224H0z"/>
        </clipPath>
    </defs>
</svg>
