<svg width="142" height="46" viewBox="0 0 142 46" fill="none" xmlns="http://www.w3.org/2000/svg">
<path d="M19.9422 31.041L17.3164 33.5208L19.9422 35.9944L22.3114 33.757L24.6871 35.9944L27.3063 33.5208L24.6871 31.041L22.3114 33.2846L19.9422 31.041Z" fill="#E8422C"/>
<path d="M64.462 27.1809H64.5409L64.6199 27.212C66.0865 27.6414 67.6122 27.8634 69.1476 27.8708C70.5 27.8987 71.8439 27.6639 73.0962 27.1809L73.1883 27.1436L73.2805 27.1809C73.809 27.406 74.3633 27.5728 74.9323 27.6781C75.6749 27.8037 76.4286 27.8619 77.183 27.8521C78.5312 27.9259 79.8572 27.5026 80.8815 26.6713C81.3385 26.2243 81.6916 25.6922 81.9182 25.1089C82.1449 24.5256 82.24 23.9041 82.1977 23.2841C82.1894 22.0626 81.9671 20.8509 81.5396 19.698C81.1251 18.5505 80.5401 17.4645 79.8022 16.4724L79.7101 16.3481L76.9329 18.0883L77.025 18.225C77.516 18.9264 77.9621 19.6549 78.361 20.4065C78.7492 21.1088 79.0783 21.7676 79.3415 22.3643C79.4583 22.6146 79.5316 22.8812 79.5587 23.1536C79.5665 23.2171 79.5521 23.2812 79.5177 23.3362C79.4832 23.3912 79.4306 23.4341 79.3678 23.4581C78.608 23.6794 77.8119 23.7678 77.0184 23.7191C76.4466 23.7294 75.8747 23.7003 75.3074 23.6321C75.0441 23.6092 74.7964 23.5043 74.6032 23.3338C74.4508 23.122 74.3768 22.8685 74.3926 22.6129L74.3334 18.1877H71.3786L71.3391 22.5756C71.3607 22.8379 71.3108 23.101 71.1943 23.34C71.0724 23.5015 70.8879 23.6109 70.681 23.6446C70.2336 23.7188 69.7794 23.7501 69.3253 23.7378C68.8054 23.7378 68.3118 23.7378 67.8314 23.7067C67.6702 23.715 67.509 23.6923 67.3574 23.64C67.2058 23.5876 67.067 23.5067 66.9496 23.4022C66.8675 23.311 66.806 23.2051 66.7686 23.0907C66.7313 22.9764 66.719 22.8561 66.7324 22.7372L67.5616 18.0199L64.6462 17.5227L63.7841 21.9665C63.7194 22.3333 63.6044 22.6905 63.4419 23.0293C63.3507 23.2122 63.1948 23.3595 63.001 23.4457C62.717 23.5248 62.4218 23.5625 62.1257 23.5575H61.4676C61.1351 23.5625 60.8034 23.5269 60.4805 23.4519C60.258 23.3915 60.0648 23.2596 59.9343 23.079C59.7503 22.7806 59.6296 22.4513 59.5789 22.1094C59.3633 21.1175 59.0115 20.1565 58.5325 19.2505C58.0629 18.3519 57.3887 17.5624 56.5582 16.9385C55.7129 16.3114 54.665 15.9779 53.5902 15.9938C52.7769 15.9709 51.9763 16.1881 51.3 16.6153C50.6411 17.0754 50.0955 17.6649 49.7009 18.3431C49.1923 19.2064 48.7672 20.1113 48.4307 21.0467C48.2351 21.6183 47.9417 22.1557 47.5621 22.6377C47.2724 22.9756 46.8794 23.2208 46.4367 23.34C46.2205 23.3938 46.0006 23.4333 45.7786 23.4581H24.9762C23.4099 23.4581 23.2059 22.6377 23.2059 22.6315L23.173 22.4823C22.8816 20.8694 22.4838 19.2753 21.9819 17.7092V17.5849L19.0138 17.7527L19.9747 22.4202C20.0338 22.6824 20.0734 22.9482 20.0931 23.2157L19.8694 23.2841H20.0931L20.126 23.4705H19.9352C19.8023 23.5044 19.6647 23.5191 19.5272 23.514H15.8418V23.3276C15.6775 22.3075 15.3698 21.3126 14.9271 20.3692C14.4831 19.4224 13.8062 18.5893 12.9528 17.9391C12.0951 17.3266 11.0396 17.0126 9.96503 17.0504C9.03836 17.0556 8.13738 17.3385 7.39187 17.8583C6.55391 18.429 5.87618 19.1842 5.41758 20.0585C4.92995 20.9765 4.67748 21.9898 4.68051 23.0168C4.66229 24.2019 5.06807 25.3582 5.83218 26.2984C6.62848 27.2741 7.99074 27.7527 9.91896 27.7527H12.9067L12.6501 28.0945C12.3232 28.5125 11.9225 28.8742 11.4655 29.1635C9.87289 30.2325 7.41819 31.202 4.1672 32.0659L3.99609 32.1094L5.39784 35.9938L5.55578 35.9565C9.32667 34.9497 12.0907 33.4705 13.7688 31.4941C14.6664 30.4496 15.3051 29.2285 15.6378 27.9205L15.6839 27.7527H17.6977C18.935 27.7417 20.1613 27.5315 21.3238 27.1312L21.3962 27.1001L21.6528 26.982L21.7515 26.9199L21.8634 26.9696L22.1859 27.1001C23.716 27.5383 25.3135 27.7295 26.911 27.6657H45.3377C45.9168 27.6657 47.8977 27.5165 49.0165 26.1554L49.0691 26.0871C49.1614 25.967 49.2471 25.8426 49.3258 25.7142L49.4574 25.4842L49.668 25.6458C50.202 26.0443 50.7749 26.3939 51.379 26.6899C52.1694 27.0939 53.0034 27.4169 53.8666 27.6533C55.5448 28.107 56.9597 28.1442 57.8152 27.616C58.137 27.4202 58.4107 27.1616 58.6181 26.8577L58.7497 26.6588L58.9471 26.8018L59.1314 26.9199L59.2301 26.9758C60.0838 27.4498 61.0565 27.6987 62.0468 27.6968C62.8806 27.682 63.7025 27.5065 64.462 27.1809ZM12.6435 23.6321C11.9327 23.6694 11.3273 23.6881 10.8074 23.6881C9.87318 23.7385 8.93734 23.6204 8.04997 23.34C7.83089 23.283 7.63764 23.1597 7.49978 22.9891C7.36192 22.8185 7.28703 22.6099 7.28657 22.3953C7.2917 22.122 7.371 21.8545 7.51691 21.6184C7.68283 21.339 7.93235 21.112 8.23423 20.9659C8.60614 20.7855 9.02068 20.6977 9.43855 20.7111C9.84879 20.7082 10.2553 20.7844 10.6333 20.9351C11.0112 21.0858 11.3526 21.3077 11.6366 21.5874C12.181 22.0867 12.5935 22.6998 12.8409 23.3773L12.9462 23.6508L12.6435 23.6321ZM56.3805 23.9553C55.7912 23.9275 55.2088 23.823 54.6498 23.6446C53.9012 23.4301 53.1727 23.1578 52.4715 22.8304C51.934 22.5851 51.4227 22.2916 50.9447 21.9541L50.8131 21.8484L50.8789 21.6992C51.0657 21.2299 51.3601 20.8055 51.741 20.4562C52.1727 20.0999 52.7347 19.9171 53.3072 19.9466C53.8576 19.9447 54.3984 20.082 54.8735 20.3444C55.3803 20.6104 55.8274 20.9672 56.1897 21.3947C56.5374 21.797 56.8212 22.2451 57.0321 22.7247C57.1262 22.9569 57.1752 23.2033 57.1768 23.4519C57.1768 23.7875 56.9333 23.9553 56.3805 23.9553Z" fill="#E8422C"/>
<path d="M89.2068 22.323C88.7067 20.7324 88.1 19.1735 87.3905 17.6556L87.3313 17.5312H87.2918L83.6262 19.6692C85.153 22.0993 85.844 23.1434 86.4033 24.5107L86.6271 25.1322V25.1882C87.4366 27.6245 86.173 28.998 85.3504 29.5946C83.3299 30.7001 81.1574 31.5367 78.8945 32.0807L78.7168 32.1304L80.2962 36.0086L80.4344 35.9775C81.4864 35.7313 82.5163 35.4071 83.5143 35.0079C84.474 34.6227 85.3929 34.1524 86.2586 33.6033C87.4138 32.886 88.376 31.9241 89.0686 30.7941C89.7122 29.6469 90.034 28.3631 90.0031 27.0651C89.9682 25.4575 89.7003 23.862 89.2068 22.323Z" fill="#E8422C"/>
<path d="M113.284 35.42L119.919 39.3408C120.038 39.4237 120.135 39.534 120.202 39.6624C120.269 39.7908 120.304 39.9334 120.304 40.0782C120.304 40.223 120.269 40.3656 120.202 40.494C120.135 40.6224 120.038 40.7327 119.919 40.8156L113.023 44.8713C112.889 44.9559 112.733 45.0008 112.573 45.0008C112.414 45.0008 112.258 44.9559 112.123 44.8713L105.533 40.9595C105.415 40.8766 105.317 40.7663 105.25 40.6379C105.183 40.5095 105.148 40.3669 105.148 40.2221C105.148 40.0773 105.183 39.9346 105.25 39.8063C105.317 39.6779 105.415 39.5676 105.533 39.4847L112.402 35.42C112.537 35.3444 112.689 35.3047 112.843 35.3047C112.998 35.3047 113.15 35.3444 113.284 35.42Z" fill="#E8422C"/>
<path d="M129.459 8.54721V24.7339C129.455 24.8821 129.414 25.027 129.34 25.1556C129.266 25.2843 129.162 25.3927 129.036 25.4713L122.5 29.3561C122.381 29.4389 122.284 29.5492 122.217 29.6776C122.15 29.806 122.115 29.9487 122.115 30.0935C122.115 30.2382 122.15 30.3809 122.217 30.5093C122.284 30.6377 122.381 30.748 122.5 30.8308L129.18 34.7786C129.315 34.8632 129.471 34.9081 129.63 34.9081C129.789 34.9081 129.945 34.8632 130.08 34.7786L137.579 30.3362C137.705 30.2577 137.81 30.1493 137.883 30.0206C137.957 29.892 137.998 29.7471 138.002 29.5989V12.5129C137.998 12.3647 137.957 12.2198 137.883 12.0912C137.81 11.9625 137.705 11.8541 137.579 11.7756L130.755 7.80982C130.623 7.74467 130.477 7.71286 130.33 7.71719C130.183 7.72151 130.039 7.76183 129.911 7.83461C129.783 7.9074 129.675 8.01043 129.596 8.13466C129.517 8.2589 129.47 8.40056 129.459 8.54721Z" fill="#0D72FF"/>
<path d="M110.52 33.3319V16.3899C110.524 16.2417 110.565 16.0968 110.639 15.9681C110.713 15.8395 110.817 15.731 110.943 15.6525L117.695 11.6598C117.827 11.5946 117.973 11.5628 118.12 11.5672C118.267 11.5715 118.411 11.6118 118.539 11.6846C118.667 11.7574 118.775 11.8604 118.854 11.9846C118.933 12.1089 118.98 12.2505 118.991 12.3972V27.2979C119.003 27.4446 119.05 27.5862 119.129 27.7105C119.207 27.8347 119.316 27.9377 119.444 28.0105C119.571 28.0833 119.715 28.1236 119.863 28.1279C120.01 28.1323 120.156 28.1005 120.288 28.0353L127.094 24.0066C127.221 23.9308 127.327 23.8228 127.4 23.6934C127.472 23.5639 127.51 23.4176 127.508 23.2692V6.35417C127.504 6.20676 127.465 6.06241 127.393 5.93382C127.321 5.80523 127.218 5.69636 127.094 5.61677L119.433 1.12048C119.296 1.04155 119.14 1 118.982 1C118.824 1 118.669 1.04155 118.532 1.12048L102.427 10.5897C102.301 10.6682 102.197 10.7766 102.123 10.9053C102.049 11.0339 102.008 11.1788 102.004 11.3271V37.3426C102.015 37.4893 102.062 37.631 102.141 37.7552C102.22 37.8794 102.328 37.9825 102.456 38.0552C102.584 38.128 102.728 38.1683 102.875 38.1727C103.022 38.177 103.168 38.1452 103.3 38.08L110.106 34.0244C110.224 33.9491 110.323 33.8474 110.395 33.7271C110.467 33.6069 110.51 33.4716 110.52 33.3319Z" fill="#0D72FF"/>
</svg>
