<svg width="65" height="65" viewBox="0 0 65 65" fill="none" xmlns="http://www.w3.org/2000/svg">
<path d="M13.5612 8.86728C14.3705 5.84724 17.4747 4.05501 20.4947 4.86423L57.5665 14.7976C60.5866 15.6068 62.3788 18.711 61.5696 21.7311L51.6362 58.8028C50.827 61.8229 47.7228 63.6151 44.7027 62.8059L7.63095 52.8725C4.61091 52.0633 2.81868 48.9591 3.6279 45.939L13.5612 8.86728Z" fill="url(#paint0_linear_23532_143551)"/>
<g filter="url(#filter0_bdi_23532_143551)">
<path d="M5.54102 9.13893C5.54102 5.74741 8.29039 2.99805 11.6819 2.99805H53.3136C56.7051 2.99805 59.4545 5.74742 59.4545 9.13894V50.7706C59.4545 54.1621 56.7051 56.9115 53.3136 56.9115H11.6819C8.29038 56.9115 5.54102 54.1621 5.54102 50.7706V9.13893Z" fill="url(#paint1_linear_23532_143551)" fill-opacity="0.3" shape-rendering="crispEdges"/>
<path d="M6.04102 9.13893C6.04102 6.02356 8.56653 3.49805 11.6819 3.49805H53.3136C56.429 3.49805 58.9545 6.02356 58.9545 9.13894V50.7706C58.9545 53.886 56.429 56.4115 53.3136 56.4115H11.6819C8.56653 56.4115 6.04102 53.886 6.04102 50.7706V9.13893Z" stroke="url(#paint2_linear_23532_143551)" stroke-opacity="0.8" shape-rendering="crispEdges"/>
</g>
<g filter="url(#filter1_di_23532_143551)">
<path d="M22.9042 48.8371C21.6463 48.8371 20.5719 48.3724 19.6813 47.443C18.79 46.513 18.3444 45.3916 18.3444 44.0789C18.3444 42.7662 18.79 41.6449 19.6813 40.7148C20.5719 39.7854 21.6463 39.3208 22.9042 39.3208C23.2716 39.3208 23.5993 39.3549 23.8874 39.4231C24.1754 39.4914 24.4638 39.5938 24.7525 39.7303L27.7396 35.875C27.1635 35.1635 26.7376 34.3634 26.4621 33.4747C26.1873 32.586 26.1152 31.6766 26.2461 30.7466L22.04 29.2295C21.6205 29.9127 21.083 30.4526 20.4276 30.849C19.7728 31.2461 19.0259 31.4446 18.1868 31.4446C16.9288 31.4446 15.8545 30.9796 14.9639 30.0496C14.0726 29.1195 13.627 27.9982 13.627 26.6855C13.627 25.3728 14.0726 24.2518 14.9639 23.3224C15.8545 22.3923 16.9288 21.9273 18.1868 21.9273C19.4448 21.9273 20.5194 22.3923 21.4107 23.3224C22.302 24.2518 22.7476 25.3728 22.7476 26.6855V26.8912L26.9933 28.4497C27.4908 27.5197 28.1066 26.7882 28.8407 26.2553C29.5747 25.7216 30.4002 25.3593 31.3173 25.1683V20.4506C30.2952 20.1499 29.4763 19.5619 28.8605 18.6863C28.2447 17.8114 27.9368 16.8679 27.9368 15.8558C27.9368 14.5431 28.3821 13.4221 29.2728 12.4927C30.1641 11.5627 31.2387 11.0977 32.4967 11.0977C33.7546 11.0977 34.8293 11.5627 35.7206 12.4927C36.6112 13.4221 37.0565 14.5431 37.0565 15.8558C37.0565 16.8679 36.742 17.8114 36.113 18.6863C35.4841 19.5619 34.6717 20.1499 33.676 20.4506V25.1683C34.5931 25.3593 35.4252 25.7216 36.1725 26.2553C36.9191 26.7882 37.5283 27.5197 38 28.4497L42.2457 26.8912V26.6855C42.2457 25.3728 42.6913 24.2518 43.5826 23.3224C44.4739 22.3923 45.5485 21.9273 46.8065 21.9273C48.0645 21.9273 49.1388 22.3923 50.0295 23.3224C50.9207 24.2518 51.3664 25.3728 51.3664 26.6855C51.3664 27.9982 50.9207 29.1195 50.0295 30.0496C49.1388 30.9796 48.0645 31.4446 46.8065 31.4446C45.9674 31.4446 45.2139 31.2461 44.5459 30.849C43.8773 30.4526 43.3464 29.9127 42.9533 29.2295L38.7473 30.7466C38.8781 31.6766 38.8127 32.586 38.551 33.4747C38.2887 34.3634 37.8563 35.1635 37.2537 35.875L40.2408 39.7303C40.5295 39.5938 40.8179 39.4914 41.106 39.4231C41.394 39.3549 41.7217 39.3208 42.0891 39.3208C43.3728 39.3208 44.4538 39.7854 45.3318 40.7148C46.2099 41.6449 46.6489 42.7662 46.6489 44.0789C46.6489 45.3916 46.2033 46.513 45.312 47.443C44.4214 48.3724 43.3471 48.8371 42.0891 48.8371C40.8311 48.8371 39.7565 48.3724 38.8652 47.443C37.9739 46.513 37.5283 45.3916 37.5283 44.0789C37.5283 43.5322 37.6069 43.0261 37.7641 42.5608C37.9214 42.0961 38.1312 41.6586 38.3934 41.2484L35.4054 37.3921C34.4884 37.9119 33.5122 38.1718 32.4768 38.1718C31.4415 38.1718 30.4653 37.9119 29.5483 37.3921L26.5999 41.2898C26.8622 41.7 27.0719 42.1306 27.2292 42.5815C27.3864 43.033 27.4651 43.5322 27.4651 44.0789C27.4651 45.3916 27.0194 46.513 26.1281 47.443C25.2369 48.3724 24.1622 48.8371 22.9042 48.8371ZM18.1868 28.6959C18.7372 28.6959 19.196 28.5045 19.5634 28.1219C19.9301 27.7386 20.1134 27.2598 20.1134 26.6855C20.1134 26.1112 19.9301 25.6327 19.5634 25.2501C19.196 24.8674 18.7372 24.6761 18.1868 24.6761C17.6365 24.6761 17.1779 24.8674 16.8112 25.2501C16.4445 25.6327 16.2612 26.1112 16.2612 26.6855C16.2612 27.2598 16.4445 27.7386 16.8112 28.1219C17.1779 28.5045 17.6365 28.6959 18.1868 28.6959ZM22.9042 46.0893C23.4546 46.0893 23.9135 45.8976 24.2808 45.5143C24.6475 45.1317 24.8308 44.6532 24.8308 44.0789C24.8308 43.5046 24.6475 43.0261 24.2808 42.6435C23.9135 42.2602 23.4546 42.0685 22.9042 42.0685C22.3539 42.0685 21.8953 42.2602 21.5286 42.6435C21.1619 43.0261 20.9786 43.5046 20.9786 44.0789C20.9786 44.6532 21.1619 45.1317 21.5286 45.5143C21.8953 45.8976 22.3539 46.0893 22.9042 46.0893ZM32.4967 17.8662C33.047 17.8662 33.5056 17.6749 33.8723 17.2922C34.2396 16.9089 34.4233 16.4301 34.4233 15.8558C34.4233 15.2815 34.2396 14.803 33.8723 14.4204C33.5056 14.0377 33.047 13.8464 32.4967 13.8464C31.9463 13.8464 31.4878 14.0377 31.1211 14.4204C30.7537 14.803 30.5701 15.2815 30.5701 15.8558C30.5701 16.4301 30.7537 16.9089 31.1211 17.2922C31.4878 17.6749 31.9463 17.8662 32.4967 17.8662ZM32.4967 35.4231C33.5188 35.4231 34.3836 35.0539 35.0912 34.3155C35.7989 33.5771 36.1527 32.6746 36.1527 31.6081C36.1527 30.5415 35.7989 29.639 35.0912 28.9006C34.3836 28.1623 33.5188 27.7931 32.4967 27.7931C31.4746 27.7931 30.6097 28.1623 29.9021 28.9006C29.1945 29.639 28.8407 30.5415 28.8407 31.6081C28.8407 32.6746 29.1945 33.5771 29.9021 34.3155C30.6097 35.0539 31.4746 35.4231 32.4967 35.4231ZM42.0891 46.0893C42.6394 46.0893 43.098 45.8976 43.4647 45.5143C43.8314 45.1317 44.0147 44.6532 44.0147 44.0789C44.0147 43.5046 43.8314 43.0261 43.4647 42.6435C43.098 42.2602 42.6394 42.0685 42.0891 42.0685C41.5387 42.0685 41.0799 42.2602 40.7125 42.6435C40.3458 43.0261 40.1625 43.5046 40.1625 44.0789C40.1625 44.6532 40.3458 45.1317 40.7125 45.5143C41.0799 45.8976 41.5387 46.0893 42.0891 46.0893ZM46.8065 28.6959C47.3569 28.6959 47.8154 28.5045 48.1821 28.1219C48.5488 27.7386 48.7322 27.2598 48.7322 26.6855C48.7322 26.1112 48.5488 25.6327 48.1821 25.2501C47.8154 24.8674 47.3569 24.6761 46.8065 24.6761C46.2561 24.6761 45.7973 24.8674 45.43 25.2501C45.0633 25.6327 44.8799 26.1112 44.8799 26.6855C44.8799 27.2598 45.0633 27.7386 45.43 28.1219C45.7973 28.5045 46.2561 28.6959 46.8065 28.6959Z" fill="#F4F4F4"/>
</g>
<defs>
<filter id="filter0_bdi_23532_143551" x="1.54102" y="-1.00195" width="61.9141" height="63.9141" filterUnits="userSpaceOnUse" color-interpolation-filters="sRGB">
<feFlood flood-opacity="0" result="BackgroundImageFix"/>
<feGaussianBlur in="BackgroundImageFix" stdDeviation="2"/>
<feComposite in2="SourceAlpha" operator="in" result="effect1_backgroundBlur_23532_143551"/>
<feColorMatrix in="SourceAlpha" type="matrix" values="0 0 0 0 0 0 0 0 0 0 0 0 0 0 0 0 0 0 127 0" result="hardAlpha"/>
<feOffset dy="2"/>
<feGaussianBlur stdDeviation="2"/>
<feComposite in2="hardAlpha" operator="out"/>
<feColorMatrix type="matrix" values="0 0 0 0 0 0 0 0 0 0 0 0 0 0 0 0 0 0 0.25 0"/>
<feBlend mode="normal" in2="effect1_backgroundBlur_23532_143551" result="effect2_dropShadow_23532_143551"/>
<feBlend mode="normal" in="SourceGraphic" in2="effect2_dropShadow_23532_143551" result="shape"/>
<feColorMatrix in="SourceAlpha" type="matrix" values="0 0 0 0 0 0 0 0 0 0 0 0 0 0 0 0 0 0 127 0" result="hardAlpha"/>
<feOffset dx="2" dy="2"/>
<feGaussianBlur stdDeviation="2"/>
<feComposite in2="hardAlpha" operator="arithmetic" k2="-1" k3="1"/>
<feColorMatrix type="matrix" values="0 0 0 0 1 0 0 0 0 1 0 0 0 0 1 0 0 0 0.7 0"/>
<feBlend mode="normal" in2="shape" result="effect3_innerShadow_23532_143551"/>
</filter>
<filter id="filter1_di_23532_143551" x="11.627" y="10.0977" width="41.7402" height="41.7402" filterUnits="userSpaceOnUse" color-interpolation-filters="sRGB">
<feFlood flood-opacity="0" result="BackgroundImageFix"/>
<feColorMatrix in="SourceAlpha" type="matrix" values="0 0 0 0 0 0 0 0 0 0 0 0 0 0 0 0 0 0 127 0" result="hardAlpha"/>
<feOffset dy="1"/>
<feGaussianBlur stdDeviation="1"/>
<feComposite in2="hardAlpha" operator="out"/>
<feColorMatrix type="matrix" values="0 0 0 0 0 0 0 0 0 0 0 0 0 0 0 0 0 0 0.25 0"/>
<feBlend mode="normal" in2="BackgroundImageFix" result="effect1_dropShadow_23532_143551"/>
<feBlend mode="normal" in="SourceGraphic" in2="effect1_dropShadow_23532_143551" result="shape"/>
<feColorMatrix in="SourceAlpha" type="matrix" values="0 0 0 0 0 0 0 0 0 0 0 0 0 0 0 0 0 0 127 0" result="hardAlpha"/>
<feOffset dy="-0.5"/>
<feGaussianBlur stdDeviation="0.5"/>
<feComposite in2="hardAlpha" operator="arithmetic" k2="-1" k3="1"/>
<feColorMatrix type="matrix" values="0 0 0 0 0 0 0 0 0 0 0 0 0 0 0 0 0 0 0.15 0"/>
<feBlend mode="normal" in2="shape" result="effect2_innerShadow_23532_143551"/>
</filter>
<linearGradient id="paint0_linear_23532_143551" x1="3.43359" y1="4.66992" x2="80.2358" y2="36.643" gradientUnits="userSpaceOnUse">
<stop stop-color="#0D72FF"/>
<stop offset="0.513259" stop-color="#9B69C6"/>
<stop offset="1" stop-color="#E13019"/>
</linearGradient>
<linearGradient id="paint1_linear_23532_143551" x1="59.4545" y1="56.9115" x2="-0.391489" y2="49.2324" gradientUnits="userSpaceOnUse">
<stop stop-color="#A1B7FF"/>
<stop offset="1" stop-color="#0D72FF"/>
</linearGradient>
<linearGradient id="paint2_linear_23532_143551" x1="5.19971" y1="2.99805" x2="65.1417" y2="10.6894" gradientUnits="userSpaceOnUse">
<stop stop-color="white"/>
<stop offset="1" stop-color="white" stop-opacity="0"/>
</linearGradient>
</defs>
</svg>
