<svg width="66" height="65" viewBox="0 0 66 65" fill="none" xmlns="http://www.w3.org/2000/svg">
<path d="M9.51882 17.7911C10.3281 14.7696 13.4325 12.9766 16.4527 13.7862L60.201 25.5133C63.2212 26.3229 65.0135 29.4285 64.2042 32.4499L56.8778 59.8037C56.0685 62.8251 52.9641 64.6181 49.944 63.8086L6.19561 52.0815C3.17542 51.2719 1.3831 48.1663 2.19236 45.1448L9.51882 17.7911Z" fill="url(#paint0_linear_23532_143581)"/>
<g filter="url(#filter0_bdi_23532_143581)">
<path d="M4.89258 18.9801C4.89258 15.8522 7.4273 13.3164 10.554 13.3164H55.8456C58.9724 13.3164 61.5071 15.8522 61.5071 18.9801V47.2989C61.5071 50.4269 58.9724 52.9626 55.8456 52.9626H10.554C7.4273 52.9626 4.89258 50.4269 4.89258 47.2989V18.9801Z" fill="url(#paint1_linear_23532_143581)" fill-opacity="0.3" shape-rendering="crispEdges"/>
<path d="M5.39258 18.9801C5.39258 16.1281 7.70363 13.8164 10.554 13.8164H55.8456C58.696 13.8164 61.0071 16.1281 61.0071 18.9801V47.2989C61.0071 50.1509 58.696 52.4626 55.8456 52.4626H10.554C7.70363 52.4626 5.39258 50.1509 5.39258 47.2989V18.9801Z" stroke="url(#paint2_linear_23532_143581)" stroke-opacity="0.8" shape-rendering="crispEdges"/>
</g>
<g filter="url(#filter1_di_23532_143581)">
<path d="M27.5371 4.82992C27.5371 3.26592 28.8045 1.99805 30.3678 1.99805H36.0293C37.5927 1.99805 38.86 3.26592 38.86 4.82992V18.9893C38.86 20.5533 37.5927 21.8211 36.0293 21.8211H30.3678C28.8045 21.8211 27.5371 20.5533 27.5371 18.9893V4.82992Z" fill="white"/>
</g>
<g filter="url(#filter2_di_23532_143581)">
<path d="M33.1985 47.2976H10.5527V45.8202C10.5527 44.6382 10.837 43.5871 11.4055 42.6668C11.9741 41.7481 12.7632 41.0917 13.7729 40.6977C15.289 40.1068 16.7262 39.6639 18.0847 39.3693C19.4431 39.073 20.7537 38.9249 22.0166 38.9249C23.2174 38.9249 24.4181 39.0564 25.6189 39.3196C26.8181 39.5812 28.3023 40.0406 30.0716 40.6977C31.0192 41.0917 31.7772 41.7481 32.3457 42.6668C32.9143 43.5871 33.1985 44.6382 33.1985 45.8202V47.2976Z" fill="white"/>
<path d="M25.7599 34.0979C24.7183 35.149 23.4706 35.6746 22.0166 35.6746C20.5642 35.6746 19.3172 35.149 18.2757 34.0979C17.2326 33.0484 16.7111 31.7356 16.7111 30.1598C16.7111 28.6485 17.2326 27.3515 18.2757 26.2689C19.3172 25.1847 20.5642 24.6426 22.0166 24.6426C23.4706 24.6426 24.7183 25.1847 25.7599 26.2689C26.8029 27.3515 27.3245 28.6485 27.3245 30.1598C27.3245 31.7356 26.8029 33.0484 25.7599 34.0979Z" fill="white"/>
<path fill-rule="evenodd" clip-rule="evenodd" d="M43.1074 27.4745C43.1074 26.6925 43.7411 26.0586 44.5228 26.0586H55.8457C56.6274 26.0586 57.261 26.6925 57.261 27.4745C57.261 28.2565 56.6274 28.8905 55.8457 28.8905H44.5228C43.7411 28.8905 43.1074 28.2565 43.1074 27.4745Z" fill="white"/>
<path fill-rule="evenodd" clip-rule="evenodd" d="M43.1074 35.9706C43.1074 35.1886 43.7411 34.5547 44.5228 34.5547H55.8457C56.6274 34.5547 57.261 35.1886 57.261 35.9706C57.261 36.7526 56.6274 37.3866 55.8457 37.3866H44.5228C43.7411 37.3866 43.1074 36.7526 43.1074 35.9706Z" fill="white"/>
</g>
<defs>
<filter id="filter0_bdi_23532_143581" x="0.892578" y="9.31641" width="64.6152" height="49.6465" filterUnits="userSpaceOnUse" color-interpolation-filters="sRGB">
<feFlood flood-opacity="0" result="BackgroundImageFix"/>
<feGaussianBlur in="BackgroundImageFix" stdDeviation="2"/>
<feComposite in2="SourceAlpha" operator="in" result="effect1_backgroundBlur_23532_143581"/>
<feColorMatrix in="SourceAlpha" type="matrix" values="0 0 0 0 0 0 0 0 0 0 0 0 0 0 0 0 0 0 127 0" result="hardAlpha"/>
<feOffset dy="2"/>
<feGaussianBlur stdDeviation="2"/>
<feComposite in2="hardAlpha" operator="out"/>
<feColorMatrix type="matrix" values="0 0 0 0 0 0 0 0 0 0 0 0 0 0 0 0 0 0 0.25 0"/>
<feBlend mode="normal" in2="effect1_backgroundBlur_23532_143581" result="effect2_dropShadow_23532_143581"/>
<feBlend mode="normal" in="SourceGraphic" in2="effect2_dropShadow_23532_143581" result="shape"/>
<feColorMatrix in="SourceAlpha" type="matrix" values="0 0 0 0 0 0 0 0 0 0 0 0 0 0 0 0 0 0 127 0" result="hardAlpha"/>
<feOffset dx="2" dy="2"/>
<feGaussianBlur stdDeviation="2"/>
<feComposite in2="hardAlpha" operator="arithmetic" k2="-1" k3="1"/>
<feColorMatrix type="matrix" values="0 0 0 0 1 0 0 0 0 1 0 0 0 0 1 0 0 0 0.7 0"/>
<feBlend mode="normal" in2="shape" result="effect3_innerShadow_23532_143581"/>
</filter>
<filter id="filter1_di_23532_143581" x="25.5371" y="0.998047" width="15.3223" height="23.8223" filterUnits="userSpaceOnUse" color-interpolation-filters="sRGB">
<feFlood flood-opacity="0" result="BackgroundImageFix"/>
<feColorMatrix in="SourceAlpha" type="matrix" values="0 0 0 0 0 0 0 0 0 0 0 0 0 0 0 0 0 0 127 0" result="hardAlpha"/>
<feOffset dy="1"/>
<feGaussianBlur stdDeviation="1"/>
<feComposite in2="hardAlpha" operator="out"/>
<feColorMatrix type="matrix" values="0 0 0 0 0 0 0 0 0 0 0 0 0 0 0 0 0 0 0.25 0"/>
<feBlend mode="normal" in2="BackgroundImageFix" result="effect1_dropShadow_23532_143581"/>
<feBlend mode="normal" in="SourceGraphic" in2="effect1_dropShadow_23532_143581" result="shape"/>
<feColorMatrix in="SourceAlpha" type="matrix" values="0 0 0 0 0 0 0 0 0 0 0 0 0 0 0 0 0 0 127 0" result="hardAlpha"/>
<feOffset dy="-0.5"/>
<feGaussianBlur stdDeviation="0.5"/>
<feComposite in2="hardAlpha" operator="arithmetic" k2="-1" k3="1"/>
<feColorMatrix type="matrix" values="0 0 0 0 0 0 0 0 0 0 0 0 0 0 0 0 0 0 0.15 0"/>
<feBlend mode="normal" in2="shape" result="effect2_innerShadow_23532_143581"/>
</filter>
<filter id="filter2_di_23532_143581" x="8.55273" y="23.6426" width="50.709" height="26.6543" filterUnits="userSpaceOnUse" color-interpolation-filters="sRGB">
<feFlood flood-opacity="0" result="BackgroundImageFix"/>
<feColorMatrix in="SourceAlpha" type="matrix" values="0 0 0 0 0 0 0 0 0 0 0 0 0 0 0 0 0 0 127 0" result="hardAlpha"/>
<feOffset dy="1"/>
<feGaussianBlur stdDeviation="1"/>
<feComposite in2="hardAlpha" operator="out"/>
<feColorMatrix type="matrix" values="0 0 0 0 0 0 0 0 0 0 0 0 0 0 0 0 0 0 0.25 0"/>
<feBlend mode="normal" in2="BackgroundImageFix" result="effect1_dropShadow_23532_143581"/>
<feBlend mode="normal" in="SourceGraphic" in2="effect1_dropShadow_23532_143581" result="shape"/>
<feColorMatrix in="SourceAlpha" type="matrix" values="0 0 0 0 0 0 0 0 0 0 0 0 0 0 0 0 0 0 127 0" result="hardAlpha"/>
<feOffset dy="-0.5"/>
<feGaussianBlur stdDeviation="0.5"/>
<feComposite in2="hardAlpha" operator="arithmetic" k2="-1" k3="1"/>
<feColorMatrix type="matrix" values="0 0 0 0 0 0 0 0 0 0 0 0 0 0 0 0 0 0 0.15 0"/>
<feBlend mode="normal" in2="shape" result="effect2_innerShadow_23532_143581"/>
</filter>
<linearGradient id="paint0_linear_23532_143581" x1="1.99805" y1="13.5918" x2="78.1711" y2="52.8449" gradientUnits="userSpaceOnUse">
<stop stop-color="#0D72FF"/>
<stop offset="0.513259" stop-color="#9B69C6"/>
<stop offset="1" stop-color="#E13019"/>
</linearGradient>
<linearGradient id="paint1_linear_23532_143581" x1="61.5071" y1="52.9626" x2="-0.296855" y2="41.6382" gradientUnits="userSpaceOnUse">
<stop stop-color="#A1B7FF"/>
<stop offset="1" stop-color="#0D72FF"/>
</linearGradient>
<linearGradient id="paint2_linear_23532_143581" x1="4.53417" y1="13.3164" x2="66.4373" y2="24.659" gradientUnits="userSpaceOnUse">
<stop stop-color="white"/>
<stop offset="1" stop-color="white" stop-opacity="0"/>
</linearGradient>
</defs>
</svg>
