<svg width="32" height="32" viewBox="0 0 32 32" fill="none" xmlns="http://www.w3.org/2000/svg">
<path d="M11.905 10.75C11.95 11.4175 12.0625 12.07 12.2425 12.6925L11.3425 13.5925C11.035 12.6925 10.84 11.74 10.7725 10.75H11.905V10.75ZM19.3 19.765C19.9375 19.945 20.59 20.0575 21.25 20.1025V21.22C20.26 21.1525 19.3075 20.9575 18.4 20.6575L19.3 19.765V19.765ZM12.625 9.25H10C9.5875 9.25 9.25 9.5875 9.25 10C9.25 17.0425 14.9575 22.75 22 22.75C22.4125 22.75 22.75 22.4125 22.75 22V19.3825C22.75 18.97 22.4125 18.6325 22 18.6325C21.07 18.6325 20.1625 18.4825 19.3225 18.205C19.2475 18.175 19.165 18.1675 19.09 18.1675C18.895 18.1675 18.7075 18.2425 18.5575 18.385L16.9075 20.035C14.785 18.9475 13.045 17.215 11.965 15.0925L13.615 13.4425C13.825 13.2325 13.885 12.94 13.8025 12.6775C13.525 11.8375 13.375 10.9375 13.375 10C13.375 9.5875 13.0375 9.25 12.625 9.25Z" fill="#0D72FF"/>
</svg>