<svg width="28" height="28" viewBox="0 0 28 28" fill="none" xmlns="http://www.w3.org/2000/svg">
<path d="M15.3631 3.53641C15.3431 3.5349 15.323 3.5349 15.303 3.53641C14.8714 3.48442 14.437 3.4589 14.0023 3.45999C13.5676 3.4589 13.1333 3.48442 12.7017 3.53641C12.6822 3.53472 12.6626 3.53472 12.6431 3.53641C9.46633 3.93961 7.8584 5.84342 7.8584 9.21371C7.8584 11.6524 8.71682 14.5691 10.0451 16.6339C10.0827 16.6926 10.1343 16.7409 10.1954 16.7744C10.2565 16.8079 10.325 16.8256 10.3946 16.8257H10.8824L11.814 19.6481H10.8466C10.7365 19.6481 10.6309 19.6918 10.5529 19.7695C10.4749 19.8472 10.4308 19.9526 10.4304 20.0627V25.1125C10.4308 25.2226 10.4749 25.328 10.5529 25.4057C10.6309 25.4834 10.7365 25.527 10.8466 25.527H17.158C17.2679 25.527 17.3734 25.4834 17.4512 25.4056C17.5289 25.3279 17.5726 25.2224 17.5726 25.1125V20.0562C17.5726 19.9463 17.5289 19.8408 17.4512 19.7631C17.3734 19.6853 17.2679 19.6416 17.158 19.6416H16.1939L17.1271 16.8192H17.6149C17.6843 16.8189 17.7525 16.8012 17.8133 16.7677C17.8741 16.7342 17.9255 16.6859 17.9628 16.6274C19.2927 14.5626 20.1511 11.6508 20.1511 9.20721C20.1462 5.84342 18.5383 3.93961 15.3631 3.53641ZM14.0007 4.65008C15.8622 5.2874 16.7418 6.76363 16.7418 9.21371C16.7418 11.4346 15.9858 14.0684 14.8055 15.9949H13.1959C12.0156 14.0684 11.2596 11.4346 11.2596 9.21371C11.2596 6.76525 12.1473 5.2874 14.0007 4.65008ZM10.6206 15.9949C9.4403 14.0684 8.6843 11.4346 8.6843 9.21371C8.6843 6.28727 9.95893 4.72812 12.6691 4.36719C11.1815 5.29065 10.4288 6.91157 10.4288 9.21371C10.4288 11.4134 11.1263 13.9952 12.2351 15.9949H10.6206ZM11.749 16.8257H13.5861V19.6481H12.6822L11.749 16.8257ZM16.7418 24.7044H11.2596V22.2332H16.7418V24.7044ZM16.7418 20.4773V21.404H11.2596V20.4773H16.7418ZM15.3176 19.6481H14.4234V16.8209H16.2589L15.3176 19.6481ZM17.3807 15.9949H15.7647C16.8751 13.9952 17.571 11.4134 17.571 9.21371C17.571 6.91157 16.8198 5.29065 15.3322 4.36719C18.0424 4.72812 19.3171 6.29377 19.3171 9.21371C19.3171 11.4346 18.5611 14.0684 17.3807 15.9949Z" fill="#0D72FF"/>
<path d="M5.32714 7.73008C5.43724 7.72965 5.54269 7.68561 5.62039 7.6076C5.69809 7.52959 5.74171 7.42397 5.74171 7.31387C5.74171 7.20392 5.69804 7.09847 5.62029 7.02072C5.54254 6.94297 5.4371 6.89929 5.32714 6.89929H3.37618C3.26607 6.89929 3.16044 6.94292 3.08243 7.02062C3.00442 7.09832 2.96039 7.20377 2.95996 7.31387C2.95996 7.42425 3.0038 7.53012 3.08186 7.60817C3.15991 7.68623 3.26579 7.73008 3.37618 7.73008H5.32714Z" fill="#0D72FF"/>
<path d="M6.82102 6.90369H6.40482C6.35038 6.90369 6.29645 6.91441 6.24615 6.93525C6.19585 6.95608 6.15015 6.98662 6.11165 7.02512C6.07316 7.06361 6.04262 7.10931 6.02179 7.15961C6.00096 7.20991 5.99023 7.26382 5.99023 7.31826C5.99023 7.42837 6.03385 7.53399 6.11155 7.61199C6.18926 7.69 6.29472 7.73404 6.40482 7.73447H6.82102C6.93112 7.73404 7.03656 7.69 7.11427 7.61199C7.19197 7.53399 7.23561 7.42837 7.23561 7.31826C7.23561 7.26382 7.22488 7.20991 7.20405 7.15961C7.18322 7.10931 7.15266 7.06361 7.11417 7.02512C7.07567 6.98662 7.02997 6.95608 6.97967 6.93525C6.92937 6.91441 6.87546 6.90369 6.82102 6.90369V6.90369Z" fill="#0D72FF"/>
<path d="M24.6252 8.55835H21.133C21.0229 8.55835 20.9173 8.60198 20.8393 8.67968C20.7613 8.75738 20.7172 8.86283 20.7168 8.97293C20.7166 9.02765 20.7272 9.08187 20.7481 9.13246C20.7689 9.18306 20.7995 9.22902 20.8382 9.26771C20.8769 9.30641 20.9229 9.33706 20.9735 9.3579C21.0241 9.37874 21.0783 9.38935 21.133 9.38914H24.6252C24.6798 9.38914 24.7339 9.37836 24.7843 9.35742C24.8347 9.33649 24.8804 9.3058 24.919 9.26713C24.9575 9.22846 24.988 9.18257 25.0087 9.13208C25.0295 9.0816 25.04 9.02751 25.0398 8.97293C25.0398 8.86298 24.9961 8.75753 24.9184 8.67978C24.8406 8.60203 24.7352 8.55835 24.6252 8.55835Z" fill="#0D72FF"/>
<path d="M6.82149 11.7952H3.60402C3.49392 11.7956 3.38848 11.8396 3.31077 11.9176C3.23307 11.9956 3.18945 12.1013 3.18945 12.2114C3.18945 12.2658 3.20017 12.3197 3.22101 12.37C3.24184 12.4203 3.27238 12.466 3.31087 12.5045C3.34937 12.543 3.39507 12.5736 3.44537 12.5944C3.49567 12.6152 3.54958 12.626 3.60402 12.626H6.82149C6.87594 12.626 6.92985 12.6152 6.98015 12.5944C7.03044 12.5736 7.07615 12.543 7.11464 12.5045C7.15314 12.466 7.18369 12.4203 7.20453 12.37C7.22536 12.3197 7.23608 12.2658 7.23608 12.2114C7.23608 12.1013 7.19244 11.9956 7.11474 11.9176C7.03704 11.8396 6.9316 11.7956 6.82149 11.7952V11.7952Z" fill="#0D72FF"/>
<path d="M24.1133 13.0551H22.5054C22.3954 13.0551 22.29 13.0987 22.2122 13.1765C22.1345 13.2542 22.0908 13.3597 22.0908 13.4696C22.0908 13.5796 22.1345 13.685 22.2122 13.7628C22.29 13.8405 22.3954 13.8842 22.5054 13.8842H24.1133C24.2233 13.8842 24.3287 13.8405 24.4065 13.7628C24.4842 13.685 24.5279 13.5796 24.5279 13.4696C24.5279 13.3597 24.4842 13.2542 24.4065 13.1765C24.3287 13.0987 24.2233 13.0551 24.1133 13.0551Z" fill="#0D72FF"/>
<path d="M21.1331 13.0551H20.3023C20.1923 13.0551 20.0869 13.0987 20.0091 13.1765C19.9314 13.2542 19.8877 13.3597 19.8877 13.4696C19.8877 13.5796 19.9314 13.685 20.0091 13.7628C20.0869 13.8405 20.1923 13.8842 20.3023 13.8842H21.1331C21.243 13.8842 21.3485 13.8405 21.4262 13.7628C21.504 13.685 21.5476 13.5796 21.5476 13.4696C21.5476 13.3597 21.504 13.2542 21.4262 13.1765C21.3485 13.0987 21.243 13.0551 21.1331 13.0551V13.0551Z" fill="#0D72FF"/>
</svg>
