<svg width="28" height="28" viewBox="0 0 28 28" fill="none" xmlns="http://www.w3.org/2000/svg">
<path d="M21.0943 11.685L21.3913 11.7681C21.4308 11.7801 21.472 11.786 21.5133 11.7858C21.6116 11.7855 21.7072 11.753 21.7854 11.6933C21.8636 11.6335 21.9201 11.5498 21.9464 11.4549C21.9785 11.3399 21.9638 11.2168 21.9055 11.1126C21.8472 11.0085 21.75 10.9317 21.6352 10.8991L21.3382 10.8159C21.2229 10.7838 21.0996 10.7987 20.9952 10.8574C20.8908 10.9161 20.8139 11.0138 20.7814 11.1292C20.7498 11.2444 20.765 11.3675 20.8236 11.4716C20.8822 11.5756 20.9795 11.6523 21.0943 11.685Z" fill="#0D72FF"/>
<path d="M8.79726 14.0348C8.79726 13.9151 8.74978 13.8003 8.66524 13.7157C8.5807 13.631 8.46604 13.5835 8.34648 13.5835H7.60221C7.48249 13.5835 7.36765 13.631 7.28283 13.7156C7.19801 13.8002 7.15013 13.915 7.14966 14.0348C7.15013 14.1547 7.19801 14.2695 7.28283 14.3541C7.36765 14.4387 7.48249 14.4862 7.60221 14.4862H8.34648C8.46604 14.4862 8.5807 14.4386 8.66524 14.354C8.74978 14.2693 8.79726 14.1545 8.79726 14.0348Z" fill="#0D72FF"/>
<path d="M6.73247 14.035C6.73247 13.9153 6.68497 13.8005 6.60043 13.7159C6.51589 13.6312 6.40123 13.5837 6.28167 13.5837H2.90159V12.8102L11.7142 10.3323C11.7602 11.3111 11.8203 12.4226 11.891 13.5784H9.67766C9.5581 13.5784 9.44344 13.6259 9.3589 13.7106C9.27436 13.7952 9.22687 13.91 9.22687 14.0297C9.22687 14.1494 9.27436 14.2642 9.3589 14.3488C9.44344 14.4335 9.5581 14.481 9.67766 14.481H11.9493L12.013 15.3784C12.1385 17.0917 12.2764 18.5643 12.4213 19.7856L9.1756 21.752C9.09997 21.7974 9.03936 21.864 9.00132 21.9437C8.96328 22.0233 8.94951 22.1124 8.9617 22.1998L9.13848 23.4618C9.14645 23.5217 9.16617 23.5794 9.19651 23.6317C9.22685 23.6839 9.26721 23.7296 9.31527 23.7662C9.39286 23.8211 9.48544 23.8507 9.58044 23.8512C9.60634 23.853 9.63232 23.853 9.65821 23.8512L13.0454 23.2582C13.2946 24.0441 13.5881 24.3574 14 24.3574C14.4119 24.3574 14.7071 24.0441 14.9546 23.2582L18.34 23.8512C18.3659 23.8529 18.3919 23.8529 18.4178 23.8512C18.5128 23.851 18.6055 23.8213 18.683 23.7662C18.731 23.7296 18.7714 23.6839 18.8017 23.6317C18.8321 23.5794 18.8518 23.5217 18.8598 23.4618L19.0365 22.1998C19.0487 22.1124 19.0349 22.0233 18.9969 21.9437C18.9589 21.864 18.8983 21.7974 18.8226 21.752L15.5769 19.7856C15.7236 18.5661 15.8598 17.0917 15.9853 15.3784L16.0489 14.481H25.5492C25.6688 14.481 25.7834 14.4335 25.868 14.3488C25.9525 14.2642 26 14.1494 26 14.0297V12.4615C26.0001 12.3632 25.968 12.2675 25.9086 12.1892C25.8492 12.1109 25.7658 12.0542 25.6712 12.0279L22.9045 11.2509C22.8474 11.2347 22.7877 11.23 22.7288 11.237C22.6698 11.244 22.6129 11.2626 22.5611 11.2917C22.5094 11.3208 22.4639 11.3599 22.4273 11.4066C22.3906 11.4534 22.3636 11.5069 22.3477 11.5642C22.3315 11.6213 22.3268 11.6811 22.3338 11.7401C22.3408 11.7991 22.3594 11.8562 22.3885 11.908C22.4176 11.9598 22.4566 12.0053 22.5032 12.042C22.5499 12.0787 22.6034 12.1058 22.6606 12.1217L25.0984 12.8049V13.5784H16.1072C16.1797 12.4226 16.2381 11.3111 16.284 10.3323L19.7843 11.3146C19.8239 11.3265 19.865 11.3325 19.9063 11.3323C20.0048 11.3318 20.1005 11.2992 20.179 11.2395C20.2574 11.1798 20.3144 11.0962 20.3412 11.0013C20.3733 10.8861 20.3583 10.7628 20.2996 10.6586C20.241 10.5544 20.1434 10.4777 20.0283 10.4455L16.3371 9.41897C16.4042 7.87203 16.4378 6.83838 16.4378 6.81714V6.80476C16.4378 5.10383 15.3471 3.71973 14.0053 3.71973C12.6635 3.71973 11.571 5.10383 11.571 6.80476V6.81714C11.571 6.83838 11.6046 7.87911 11.6718 9.41897L2.32881 12.0403C2.23418 12.0666 2.15078 12.1233 2.09139 12.2016C2.032 12.2799 1.9999 12.3756 2 12.4739V14.0421C2 14.1618 2.04749 14.2766 2.13203 14.3612C2.21657 14.4459 2.33122 14.4934 2.45078 14.4934H6.28344C6.34309 14.4932 6.4021 14.4811 6.45705 14.4579C6.512 14.4347 6.56181 14.4007 6.60358 14.3581C6.64534 14.3155 6.67824 14.265 6.70036 14.2095C6.72249 14.154 6.73341 14.0947 6.73247 14.035ZM18.1049 22.375L18.0342 22.8794L15.1774 22.3803C15.2428 22.0653 15.3082 21.7077 15.3718 21.3042C15.3984 21.1272 15.4249 20.9502 15.4514 20.7732L18.1049 22.375ZM14 4.61709C14.8273 4.61709 15.5274 5.61181 15.5292 6.79059C15.5292 6.97998 15.4019 10.8456 15.1243 14.8085C14.8008 19.4599 14.4455 21.6281 14.1909 22.637C14.1909 22.6458 14.1909 22.6547 14.1909 22.6653C14.1446 22.8636 14.0856 23.0587 14.0141 23.2494C13.9411 23.0592 13.882 22.864 13.8374 22.6653C13.8374 22.6653 13.8374 22.6441 13.8374 22.6352C13.5828 21.6246 13.2292 19.4599 12.9039 14.812C12.6264 10.8473 12.5044 6.97998 12.4991 6.79059C12.4744 5.61181 13.1744 4.61709 14.0035 4.61709H14ZM12.5469 20.7697C12.5734 20.9555 12.5999 21.1343 12.6264 21.3007C12.69 21.7042 12.7554 22.0617 12.8209 22.3768L9.96227 22.8759L9.89335 22.3715L12.5469 20.7697Z" fill="#0D72FF"/>
<path d="M5.02295 15.1802C4.90339 15.1802 4.78873 15.2277 4.70419 15.3124C4.61965 15.397 4.57214 15.5118 4.57214 15.6315V17.2068C4.57214 17.3265 4.61965 17.4413 4.70419 17.5259C4.78873 17.6106 4.90339 17.6581 5.02295 17.6581C5.0823 17.6583 5.1411 17.6468 5.196 17.6243C5.25089 17.6017 5.3008 17.5685 5.34285 17.5265C5.3849 17.4846 5.41827 17.4348 5.44104 17.3799C5.4638 17.325 5.47552 17.2662 5.47552 17.2068V15.6315C5.47552 15.5721 5.4638 15.5133 5.44104 15.4584C5.41827 15.4035 5.3849 15.3537 5.34285 15.3117C5.3008 15.2698 5.25089 15.2366 5.196 15.214C5.1411 15.1915 5.0823 15.1799 5.02295 15.1802Z" fill="#0D72FF"/>
<path d="M5.02295 18.0688C4.90323 18.0693 4.78857 18.1173 4.70408 18.2022C4.61959 18.2871 4.57214 18.4021 4.57214 18.522V18.7503C4.57214 18.87 4.61965 18.9848 4.70419 19.0694C4.78873 19.1541 4.90339 19.2016 5.02295 19.2016C5.0823 19.2018 5.1411 19.1903 5.196 19.1678C5.25089 19.1452 5.3008 19.112 5.34285 19.0701C5.3849 19.0281 5.41827 18.9783 5.44104 18.9234C5.4638 18.8685 5.47552 18.8097 5.47552 18.7503V18.522C5.47552 18.4018 5.42783 18.2865 5.34296 18.2016C5.25808 18.1166 5.14298 18.0688 5.02295 18.0688Z" fill="#0D72FF"/>
<path d="M20.3659 15.6315C20.3659 15.5118 20.3184 15.397 20.2339 15.3124C20.1493 15.2277 20.0346 15.1802 19.9151 15.1802C19.7954 15.1802 19.6805 15.2277 19.5957 15.3123C19.5109 15.3969 19.463 15.5117 19.4625 15.6315V17.982C19.463 18.1019 19.5109 18.2167 19.5957 18.3013C19.6805 18.3859 19.7954 18.4333 19.9151 18.4333C20.0346 18.4333 20.1493 18.3858 20.2339 18.3012C20.3184 18.2165 20.3659 18.1017 20.3659 17.982V15.6315Z" fill="#0D72FF"/>
<path d="M19.9151 18.8364C19.7951 18.8364 19.68 18.8842 19.5951 18.9691C19.5102 19.0541 19.4625 19.1694 19.4625 19.2895V20.0258C19.463 20.1457 19.5109 20.2605 19.5957 20.3451C19.6805 20.4297 19.7954 20.4772 19.9151 20.4772C20.0346 20.4772 20.1493 20.4296 20.2339 20.345C20.3184 20.2603 20.3659 20.1455 20.3659 20.0258V19.2895C20.3659 19.1697 20.3185 19.0547 20.234 18.9698C20.1495 18.8848 20.0348 18.8369 19.9151 18.8364Z" fill="#0D72FF"/>
<path d="M8.54276 15.6315C8.54229 15.5117 8.49439 15.3969 8.40957 15.3123C8.32475 15.2277 8.20991 15.1802 8.09019 15.1802C7.97063 15.1802 7.85597 15.2277 7.77143 15.3124C7.68689 15.397 7.6394 15.5118 7.6394 15.6315V17.982C7.6394 18.1017 7.68689 18.2165 7.77143 18.3012C7.85597 18.3858 7.97063 18.4333 8.09019 18.4333C8.20991 18.4333 8.32475 18.3859 8.40957 18.3013C8.49439 18.2167 8.54229 18.1019 8.54276 17.982V15.6315Z" fill="#0D72FF"/>
<path d="M8.09019 18.8364C7.97047 18.8369 7.85581 18.8848 7.77132 18.9698C7.68683 19.0547 7.6394 19.1697 7.6394 19.2895V20.0258C7.6394 20.1455 7.68689 20.2603 7.77143 20.345C7.85597 20.4296 7.97063 20.4772 8.09019 20.4772C8.20991 20.4772 8.32475 20.4297 8.40957 20.3451C8.49439 20.2605 8.54229 20.1457 8.54276 20.0258V19.2895C8.54276 19.1694 8.49507 19.0541 8.4102 18.9691C8.32532 18.8842 8.21021 18.8364 8.09019 18.8364Z" fill="#0D72FF"/>
<path d="M23.4348 15.6316C23.4348 15.5119 23.3874 15.3971 23.3028 15.3124C23.2183 15.2278 23.1036 15.1802 22.984 15.1802C22.9242 15.1793 22.8647 15.1903 22.8091 15.2125C22.7535 15.2347 22.7028 15.2678 22.6601 15.3098C22.6173 15.3518 22.5833 15.4018 22.56 15.4571C22.5368 15.5123 22.5246 15.5716 22.5244 15.6316V17.2068C22.5249 17.3267 22.5728 17.4415 22.6576 17.5261C22.7424 17.6107 22.8573 17.6582 22.977 17.6582C23.0965 17.6582 23.2112 17.6106 23.2957 17.526C23.3803 17.4413 23.4278 17.3265 23.4278 17.2068L23.4348 15.6316Z" fill="#0D72FF"/>
<path d="M22.9841 18.0688C22.864 18.0688 22.7489 18.1166 22.664 18.2016C22.5792 18.2865 22.5315 18.4018 22.5315 18.522V18.7503C22.532 18.8701 22.5799 18.9849 22.6647 19.0695C22.7495 19.1541 22.8643 19.2016 22.9841 19.2016C23.1036 19.2016 23.2183 19.1541 23.3028 19.0694C23.3874 18.9848 23.4349 18.87 23.4349 18.7503V18.522C23.4349 18.4021 23.3874 18.2871 23.3029 18.2022C23.2184 18.1173 23.1038 18.0693 22.9841 18.0688Z" fill="#0D72FF"/>
</svg>
