<svg width="28" height="28" viewBox="0 0 28 28" fill="none" xmlns="http://www.w3.org/2000/svg">
<path d="M24.1898 5.99138C22.4364 5.77258 20.5185 6.11621 18.6623 6.98263C18.572 7.02472 18.502 7.10096 18.4679 7.19458C18.4337 7.28821 18.4382 7.39156 18.4802 7.48192C18.5223 7.57189 18.5983 7.64146 18.6917 7.67534C18.7851 7.70921 18.888 7.70461 18.978 7.66255C19.5143 7.41223 20.0697 7.205 20.6389 7.04284L23.4599 9.86384C22.8513 11.8948 21.7401 13.7394 20.2292 15.2268C17.9163 17.5397 14.9147 18.8702 12.2126 18.8247L14.1877 16.8481C14.2226 16.8133 14.2502 16.772 14.2691 16.7265C14.288 16.681 14.2977 16.6322 14.2977 16.583C14.2977 16.5338 14.288 16.485 14.2691 16.4395C14.2502 16.394 14.2226 16.3527 14.1877 16.3179C14.1171 16.2483 14.0219 16.2092 13.9227 16.2092C13.8235 16.2092 13.7282 16.2483 13.6576 16.3179L11.6825 18.2945C11.6355 15.5925 12.9674 12.5894 15.2803 10.2765C15.7727 9.78364 16.3019 9.32905 16.8634 8.91665C16.9435 8.85819 16.9972 8.77029 17.0127 8.67227C17.0281 8.57425 17.004 8.47412 16.9456 8.39386C16.8869 8.31359 16.7987 8.25986 16.7005 8.24445C16.6022 8.22904 16.5018 8.25319 16.4213 8.31163C15.8288 8.74695 15.2702 9.22657 14.7502 9.74636C14.5461 9.95048 14.3522 10.159 14.1628 10.3719H14.1187L12.8147 10.5643C12.3658 10.6482 11.9498 10.8575 11.6149 11.1679L9.55901 13.2238C9.46984 13.3125 9.39913 13.418 9.35099 13.5342C9.30284 13.6504 9.27821 13.775 9.27852 13.9008C9.27777 14.0268 9.3022 14.1518 9.35036 14.2683C9.39852 14.3848 9.46946 14.4905 9.55901 14.5792L11.1465 16.1681C10.9438 17.0974 10.8858 18.0524 10.9746 18.9994L10.4577 19.5163C10.4229 19.5511 10.3952 19.5924 10.3764 19.6379C10.3575 19.6834 10.3478 19.7322 10.3478 19.7814C10.3478 19.8307 10.3575 19.8794 10.3764 19.9249C10.3952 19.9704 10.4229 20.0117 10.4577 20.0465C10.4924 20.0811 10.5337 20.1086 10.579 20.1272C10.6244 20.1459 10.673 20.1554 10.7221 20.1551C10.7714 20.1556 10.8203 20.1462 10.8659 20.1275C10.9115 20.1089 10.953 20.0813 10.9879 20.0465L11.5048 19.5296C11.7834 19.5578 12.0633 19.572 12.3433 19.5721C13.0133 19.5694 13.6812 19.4965 14.3361 19.3548L15.9235 20.9437C16.0124 21.033 16.1182 21.1038 16.2347 21.1519C16.3511 21.2001 16.476 21.2246 16.602 21.2242C16.728 21.2246 16.8528 21.2001 16.9693 21.1519C17.0857 21.1038 17.1915 21.033 17.2804 20.9437L19.3363 18.8878C19.6465 18.5521 19.8557 18.1358 19.9399 17.6866L20.1323 16.3825C20.133 16.3684 20.133 16.3541 20.1323 16.34C20.3447 16.151 20.5528 15.9552 20.7564 15.7526C22.4613 14.0476 23.664 11.9785 24.2221 9.90202C24.2365 9.8668 24.2459 9.82972 24.25 9.79188C24.5543 8.65888 24.6434 7.47886 24.5128 6.31299C24.5021 6.2312 24.4646 6.15528 24.4061 6.09709C24.3477 6.0389 24.2716 6.00173 24.1898 5.99138V5.99138ZM11.3638 15.3193L10.0906 14.0462C10.0514 14.0073 10.0292 13.9545 10.0289 13.8993C10.0292 13.8441 10.0514 13.7913 10.0906 13.7525L12.1465 11.6965C12.3681 11.5001 12.6367 11.3645 12.9263 11.303L13.4623 11.2237C12.5244 12.453 11.8137 13.84 11.3638 15.3193V15.3193ZM19.1998 17.575C19.139 17.865 19.0039 18.1342 18.8077 18.3562L16.7518 20.4121C16.7125 20.4505 16.6598 20.4721 16.6049 20.4723C16.5777 20.4725 16.5507 20.4673 16.5254 20.457C16.5002 20.4466 16.4773 20.4314 16.4581 20.4121L15.1834 19.1389C16.6633 18.6892 18.0508 17.9785 19.2805 17.0404L19.1998 17.575ZM23.6655 9.00183L21.4965 6.83284C22.2558 6.6832 23.032 6.63775 23.8035 6.69774C23.8624 7.46853 23.8154 8.24376 23.664 9.00183H23.6655Z" fill="#0D72FF"/>
<path d="M17.602 8.34092C17.6704 8.34114 17.7375 8.32233 17.7959 8.28658L17.9427 8.19847C18.0283 8.14771 18.0902 8.06512 18.115 7.96878C18.1397 7.87245 18.1253 7.77022 18.0749 7.68449C18.0244 7.59905 17.9421 7.53713 17.846 7.51235C17.7499 7.48757 17.6479 7.50195 17.5624 7.55233L17.4052 7.64631C17.3631 7.67165 17.3263 7.70508 17.2971 7.74467C17.268 7.78427 17.2469 7.82925 17.2351 7.87702C17.2234 7.92479 17.2212 7.97442 17.2287 8.02303C17.2363 8.07165 17.2533 8.11829 17.2789 8.16029C17.3123 8.21601 17.3597 8.26201 17.4164 8.2937C17.4731 8.32539 17.5371 8.34167 17.602 8.34092V8.34092Z" fill="#0D72FF"/>
<path d="M17.5066 11.4112C17.5059 11.619 17.5465 11.8249 17.6259 12.017C17.7053 12.209 17.822 12.3835 17.9692 12.5302C18.1157 12.6777 18.2901 12.7947 18.4822 12.8744C18.6742 12.954 18.8802 12.9948 19.0882 12.9942C19.2961 12.9949 19.5022 12.9543 19.6943 12.8746C19.8864 12.7949 20.0607 12.6779 20.2072 12.5302C20.3549 12.3837 20.4719 12.2094 20.5516 12.0173C20.6313 11.8252 20.6719 11.6192 20.6712 11.4112C20.6717 11.2032 20.6309 10.9973 20.5513 10.8052C20.4716 10.6131 20.3547 10.4388 20.2072 10.2922C20.0605 10.145 19.886 10.0283 19.694 9.94888C19.5019 9.86948 19.296 9.82894 19.0882 9.8296C18.8804 9.8291 18.6745 9.86972 18.4825 9.94911C18.2904 10.0285 18.116 10.1451 17.9692 10.2922C17.8222 10.439 17.7056 10.6135 17.6262 10.8055C17.5468 10.9976 17.5062 11.2034 17.5066 11.4112ZM18.5008 10.8238C18.5776 10.7462 18.6691 10.6847 18.77 10.6428C18.8708 10.601 18.979 10.5796 19.0882 10.58C19.1973 10.5799 19.3054 10.6014 19.4062 10.6433C19.507 10.6851 19.5986 10.7464 19.6756 10.8238C19.7529 10.9008 19.8143 10.9923 19.8561 11.0931C19.8979 11.194 19.9194 11.302 19.9194 11.4112C19.9195 11.5203 19.8981 11.6284 19.8562 11.7293C19.8144 11.8301 19.753 11.9216 19.6756 11.9986C19.5986 12.0759 19.507 12.1373 19.4062 12.1791C19.3054 12.2209 19.1973 12.2424 19.0882 12.2424C18.979 12.2426 18.8709 12.2212 18.7701 12.1793C18.6692 12.1375 18.5777 12.076 18.5008 11.9986C18.4232 11.9217 18.3616 11.8302 18.3195 11.7294C18.2774 11.6286 18.2557 11.5204 18.2555 11.4112C18.2555 11.3017 18.2772 11.1933 18.3193 11.0922C18.3614 10.9912 18.4231 10.8994 18.5008 10.8223V10.8238Z" fill="#0D72FF"/>
<path d="M7.62938 22.9508C7.66418 22.9859 7.7056 23.0137 7.75123 23.0326C7.79686 23.0515 7.84579 23.0611 7.89518 23.061C7.94435 23.0611 7.99304 23.0514 8.03843 23.0325C8.08381 23.0136 8.12497 22.9858 8.15951 22.9508L9.51054 21.5998C9.54539 21.565 9.57304 21.5237 9.59191 21.4782C9.61078 21.4328 9.6205 21.384 9.6205 21.3348C9.6205 21.2855 9.61078 21.2368 9.59191 21.1913C9.57304 21.1458 9.54539 21.1045 9.51054 21.0697C9.43991 21 9.34469 20.9609 9.24547 20.9609C9.14626 20.9609 9.05103 21 8.98041 21.0697L7.62938 22.4207C7.5597 22.4913 7.52063 22.5866 7.52063 22.6858C7.52063 22.785 7.5597 22.8802 7.62938 22.9508V22.9508Z" fill="#0D72FF"/>
<path d="M9.18015 24.9219C9.21478 24.9568 9.25596 24.9845 9.30132 25.0034C9.34668 25.0223 9.39534 25.032 9.44448 25.0321C9.49387 25.0322 9.5428 25.0226 9.58843 25.0037C9.63405 24.9848 9.67547 24.957 9.71028 24.9219L12.3918 22.2404C12.4615 22.1698 12.5005 22.0746 12.5005 21.9754C12.5005 21.8762 12.4615 21.7809 12.3918 21.7103C12.3211 21.6406 12.2259 21.6016 12.1267 21.6016C12.0275 21.6016 11.9323 21.6406 11.8616 21.7103L9.18015 24.3918C9.14529 24.4266 9.11764 24.4679 9.09877 24.5134C9.07991 24.5589 9.07019 24.6076 9.07019 24.6569C9.07019 24.7061 9.07991 24.7549 9.09877 24.8004C9.11764 24.8458 9.14529 24.8872 9.18015 24.9219V24.9219Z" fill="#0D72FF"/>
<path d="M5.84364 21.4298C5.94304 21.4297 6.03844 21.3907 6.10944 21.3211L8.78947 18.6396C8.82432 18.6048 8.85198 18.5635 8.87085 18.518C8.88972 18.4725 8.89943 18.4238 8.89943 18.3745C8.89943 18.3253 8.88972 18.2765 8.87085 18.231C8.85198 18.1856 8.82432 18.1442 8.78947 18.1095C8.75468 18.0746 8.71338 18.047 8.66789 18.0281C8.62241 18.0092 8.57364 17.9995 8.5244 17.9995C8.47516 17.9995 8.42641 18.0092 8.38092 18.0281C8.33544 18.047 8.29412 18.0746 8.25934 18.1095L5.57931 20.791C5.54445 20.8257 5.5168 20.8671 5.49793 20.9125C5.47907 20.958 5.46936 21.0068 5.46936 21.056C5.46936 21.1053 5.47907 21.154 5.49793 21.1995C5.5168 21.245 5.54445 21.2863 5.57931 21.3211C5.64977 21.3906 5.74469 21.4296 5.84364 21.4298Z" fill="#0D72FF"/>
<path d="M6.64397 23.4078L6.29887 23.7514C6.22919 23.8221 6.19012 23.9173 6.19012 24.0165C6.19012 24.1157 6.22919 24.2109 6.29887 24.2816C6.33368 24.3166 6.3751 24.3444 6.42073 24.3633C6.46635 24.3822 6.51528 24.3919 6.56467 24.3917C6.61382 24.3917 6.66247 24.3819 6.70783 24.363C6.75319 24.3441 6.79437 24.3164 6.829 24.2816L7.17264 23.9379C7.20749 23.9032 7.23515 23.8618 7.25401 23.8164C7.27288 23.7709 7.28259 23.7221 7.28259 23.6729C7.28259 23.6236 7.27288 23.5749 7.25401 23.5294C7.23515 23.4839 7.20749 23.4426 7.17264 23.4078C7.13808 23.3728 7.09691 23.345 7.05154 23.3261C7.00616 23.3071 6.95748 23.2974 6.9083 23.2974C6.85912 23.2974 6.81044 23.3071 6.76506 23.3261C6.71969 23.345 6.67853 23.3728 6.64397 23.4078V23.4078Z" fill="#0D72FF"/>
</svg>
