<svg width="28" height="28" viewBox="0 0 28 28" fill="none" xmlns="http://www.w3.org/2000/svg">
<path d="M21.5324 15.9312C21.3644 15.8235 21.2031 15.7056 21.0494 15.5783C21.0058 15.5421 20.9555 15.515 20.9013 15.4983C20.8472 15.4817 20.7903 15.476 20.7339 15.4815C20.6776 15.487 20.6228 15.5036 20.5729 15.5304C20.523 15.5571 20.4789 15.5935 20.4431 15.6374C20.4068 15.6809 20.3796 15.7311 20.3628 15.7852C20.3461 15.8393 20.3402 15.8961 20.3455 15.9525C20.3509 16.0089 20.3673 16.0636 20.3939 16.1136C20.4205 16.1636 20.4567 16.2078 20.5005 16.2437C20.6801 16.3923 20.8685 16.5299 21.0646 16.6558C21.1339 16.701 21.2149 16.7251 21.2977 16.725C21.3699 16.7252 21.441 16.7072 21.5045 16.6726C21.5679 16.6381 21.6217 16.5882 21.6608 16.5274C21.7225 16.4313 21.7437 16.3146 21.7196 16.2029C21.6956 16.0911 21.6283 15.9935 21.5324 15.9312Z" fill="#0D72FF"/>
<path d="M20.2555 11.0888H14.081V7.46947H17.8438C17.9004 7.46947 17.9564 7.45833 18.0086 7.43669C18.0609 7.41504 18.1083 7.38332 18.1483 7.34333C18.1883 7.30334 18.22 7.25586 18.2417 7.20361C18.2633 7.15136 18.2745 7.09536 18.2745 7.0388C18.2745 6.92442 18.2292 6.81471 18.1484 6.73367C18.0677 6.65264 17.9582 6.60689 17.8438 6.60645H9.45509C9.34043 6.60645 9.23046 6.652 9.14938 6.73308C9.06829 6.81416 9.02275 6.92413 9.02275 7.0388C9.0232 7.15318 9.06894 7.26271 9.14997 7.34343C9.23101 7.42415 9.34072 7.46947 9.45509 7.46947H13.2179V11.0888H2.96302V9.45222C2.96302 9.39567 2.95186 9.33967 2.93022 9.28742C2.90857 9.23517 2.87686 9.18769 2.83686 9.1477C2.79687 9.1077 2.7494 9.07598 2.69715 9.05434C2.6449 9.0327 2.5889 9.02156 2.53234 9.02156C2.41797 9.02156 2.30825 9.06687 2.22722 9.14759C2.14619 9.22831 2.10042 9.33785 2.09998 9.45222V13.5849C2.10042 13.6993 2.14619 13.8088 2.22722 13.8896C2.30825 13.9703 2.41797 14.0156 2.53234 14.0156C2.64656 14.0156 2.7561 13.9702 2.83686 13.8895C2.91763 13.8087 2.96302 13.6992 2.96302 13.5849V11.9974L14.2955 14.7705C14.3823 16.2464 15.0137 17.6375 16.0673 18.6745C17.1209 19.7116 18.5218 20.3209 19.9988 20.3844V21.4602C20 21.5038 20.0073 21.5471 20.0208 21.5886C18.8079 21.5375 17.6536 21.0527 16.768 20.2223C16.6841 20.1448 16.5731 20.1034 16.459 20.1072C16.3449 20.111 16.2368 20.1596 16.1583 20.2425C16.0804 20.3262 16.0388 20.4373 16.0426 20.5516C16.0464 20.6658 16.0953 20.7739 16.1786 20.8522C17.2811 21.8853 18.7362 22.4591 20.2471 22.4567H24.4693C24.5835 22.4567 24.6931 22.4113 24.7738 22.3305C24.8546 22.2498 24.9 22.1402 24.9 22.026C24.9 21.9116 24.8547 21.8019 24.7739 21.7209C24.6932 21.6398 24.5837 21.5941 24.4693 21.5936H20.8314C20.8463 21.5507 20.8542 21.5057 20.8551 21.4602V20.3895H24.4693C24.5835 20.3895 24.6931 20.3441 24.7738 20.2633C24.8546 20.1826 24.9 20.073 24.9 19.9588V15.7366C24.8977 14.5052 24.4078 13.3248 23.5374 12.4537C22.667 11.5827 21.4869 11.0919 20.2555 11.0888V11.0888ZM24.0454 16.7364C23.5464 16.7133 23.0535 16.6166 22.5828 16.4493C22.4755 16.4136 22.3585 16.4213 22.2568 16.4709C22.1552 16.5205 22.077 16.6079 22.039 16.7144C22.001 16.8224 22.0072 16.941 22.0562 17.0445C22.1052 17.1479 22.1932 17.2278 22.3008 17.2667C22.8651 17.466 23.4559 17.5798 24.0539 17.6045V19.5349H20.2555C18.9037 19.5336 17.6076 18.9959 16.6517 18.04C15.6957 17.0841 15.1581 15.788 15.1568 14.4361C15.1569 14.3397 15.1247 14.246 15.0653 14.1701C15.0059 14.0942 14.9228 14.0404 14.8292 14.0173L6.40664 11.9568H18.3488C18.4056 13.1344 18.8138 14.2679 19.5209 15.2113C19.5607 15.2632 19.6118 15.3054 19.6704 15.3346C19.7289 15.3639 19.7932 15.3795 19.8586 15.3802C19.9518 15.3799 20.0423 15.3497 20.1171 15.2941C20.1625 15.2603 20.2008 15.2178 20.2297 15.1692C20.2587 15.1205 20.2777 15.0666 20.2857 15.0106C20.2937 14.9545 20.2905 14.8974 20.2764 14.8426C20.2622 14.7878 20.2373 14.7363 20.2032 14.6912C19.6087 13.8957 19.261 12.9432 19.2034 11.9518H20.2555C21.2601 11.9527 22.2233 12.352 22.9338 13.0622C23.6443 13.7724 24.0441 14.7354 24.0454 15.74V16.7364Z" fill="#0D72FF"/>
<path d="M19.168 7.46947H22.208C22.3222 7.46947 22.4317 7.4241 22.5125 7.34333C22.5933 7.26256 22.6387 7.15302 22.6387 7.0388C22.6387 6.92442 22.5933 6.81471 22.5126 6.73367C22.4319 6.65264 22.3224 6.60689 22.208 6.60645H19.168C19.0536 6.60689 18.9441 6.65264 18.8634 6.73367C18.7826 6.81471 18.7373 6.92442 18.7373 7.0388C18.7373 7.09536 18.7485 7.15136 18.7701 7.20361C18.7917 7.25586 18.8235 7.30334 18.8635 7.34333C18.9034 7.38332 18.9509 7.41504 19.0032 7.43669C19.0554 7.45833 19.1114 7.46947 19.168 7.46947V7.46947Z" fill="#0D72FF"/>
<path d="M5.08607 7.46947H8.12607C8.24029 7.46947 8.34983 7.4241 8.43059 7.34333C8.51136 7.26256 8.55675 7.15302 8.55675 7.0388C8.55675 6.92442 8.51142 6.81471 8.4307 6.73367C8.34998 6.65264 8.24045 6.60689 8.12607 6.60645H5.08607C4.9717 6.60689 4.86216 6.65264 4.78144 6.73367C4.70073 6.81471 4.65539 6.92442 4.6554 7.0388C4.6554 7.09536 4.66655 7.15136 4.6882 7.20361C4.70984 7.25586 4.74156 7.30334 4.78155 7.34333C4.82154 7.38332 4.86901 7.41504 4.92126 7.43669C4.97351 7.45833 5.02951 7.46947 5.08607 7.46947V7.46947Z" fill="#0D72FF"/>
</svg>
