<svg width="373" height="280" viewBox="0 0 373 280" fill="none" xmlns="http://www.w3.org/2000/svg">
<g clip-path="url(#clip0)">
<path d="M0 170.5C13.2 150.782 31.49 133.506 52.73 120.89C86.44 100.913 125.95 88.2173 166.15 88.9264C203.79 89.5757 243.61 106.846 264.06 142.665C280.66 171.732 285.73 198.781 312.61 220.496C331.18 235.479 361.01 240.473 370.28 261.449C372.87 267.343 373 278 373 280H12C8.81913 280 5.75015 278.745 3.5 276.5C1.24985 274.254 0.00265072 271.159 0 267.982L0 170.5Z" fill="#EBF5FF"/>
<path d="M237.66 135.845C237.021 135.233 236.226 134.809 235.361 134.62C234.496 134.432 233.596 134.486 232.76 134.776C232.287 133.302 231.35 132.02 230.089 131.12C228.828 130.22 227.31 129.751 225.76 129.782C218.29 129.782 217.69 137.133 217.69 137.133C212.43 135.545 211.41 140.19 211.41 140.38H239.69C239.701 139.522 239.525 138.672 239.174 137.889C238.824 137.106 238.307 136.409 237.66 135.845Z" fill="white"/>
<path d="M95.28 149.319C93.9599 149.311 92.6617 149.656 91.52 150.318C90.5109 148.502 89.049 146.978 87.276 145.893C85.503 144.807 83.4793 144.199 81.4013 144.125C79.3232 144.052 77.2615 144.516 75.4163 145.474C73.571 146.431 72.0049 147.849 70.87 149.589C70.2874 147.469 68.9772 145.622 67.1685 144.369C65.3599 143.117 63.168 142.54 60.9764 142.739C58.7847 142.937 56.7328 143.9 55.1796 145.457C53.6264 147.014 52.6708 149.067 52.48 151.257C52.0865 151.193 51.6887 151.16 51.29 151.157C49.8799 151.164 48.4993 151.561 47.3008 152.303C46.1024 153.045 45.133 154.104 44.5 155.362H102.74C102.364 153.661 101.422 152.137 100.067 151.039C98.7122 149.941 97.0245 149.335 95.28 149.319V149.319Z" fill="white"/>
<path d="M132.508 8.04083C134.728 8.04083 136.528 6.24307 136.528 4.02542C136.528 1.80777 134.728 0.0100098 132.508 0.0100098C130.288 0.0100098 128.488 1.80777 128.488 4.02542C128.488 6.24307 130.288 8.04083 132.508 8.04083Z" fill="#EBF5FF"/>
<path d="M221 88.0794C221.002 88.6104 221.162 89.1289 221.458 89.5694C221.755 90.01 222.176 90.3528 222.668 90.5546C223.159 90.7565 223.7 90.8083 224.221 90.7035C224.742 90.5987 225.221 90.342 225.596 89.9658C225.971 89.5896 226.226 89.1109 226.329 88.5899C226.432 88.069 226.378 87.5292 226.174 87.0389C225.97 86.5485 225.626 86.1294 225.184 85.8346C224.741 85.5398 224.222 85.3825 223.69 85.3825C223.336 85.3811 222.984 85.4501 222.657 85.5852C222.329 85.7204 222.032 85.9192 221.781 86.17C221.531 86.4208 221.333 86.7188 221.199 87.0465C221.065 87.3742 220.997 87.7253 221 88.0794V88.0794Z" fill="#84B4FE"/>
<path d="M113.339 73.9155L114.959 73.0565C115.057 73.0003 115.137 72.9171 115.189 72.8168L116.059 71.1986C116.11 71.1116 116.184 71.0395 116.271 70.9894C116.359 70.9393 116.458 70.9129 116.559 70.9129C116.66 70.9129 116.76 70.9393 116.847 70.9894C116.935 71.0395 117.008 71.1116 117.059 71.1986L117.929 72.8168C117.981 72.9171 118.061 73.0003 118.159 73.0565L119.779 73.9155C119.864 73.9685 119.934 74.0422 119.982 74.1295C120.031 74.2169 120.056 74.3151 120.056 74.415C120.056 74.5148 120.031 74.613 119.982 74.7004C119.934 74.7877 119.864 74.8614 119.779 74.9144L118.159 75.7734C118.061 75.8296 117.981 75.9129 117.929 76.0131L117.059 77.6213C117.008 77.7083 116.935 77.7804 116.847 77.8306C116.76 77.8807 116.66 77.907 116.559 77.907C116.458 77.907 116.359 77.8807 116.271 77.8306C116.184 77.7804 116.11 77.7083 116.059 77.6213L115.189 76.0131C115.137 75.9129 115.057 75.8296 114.959 75.7734L113.339 74.9144C113.255 74.8614 113.185 74.7877 113.136 74.7004C113.088 74.613 113.062 74.5148 113.062 74.415C113.062 74.3151 113.088 74.2169 113.136 74.1295C113.185 74.0422 113.255 73.9685 113.339 73.9155V73.9155Z" fill="#EBF5FF"/>
<path d="M208.401 19.9772L210.401 18.8884C210.524 18.8152 210.627 18.7121 210.701 18.5888L211.791 16.5911C211.854 16.4765 211.946 16.3809 212.059 16.3143C212.171 16.2478 212.3 16.2126 212.431 16.2126C212.562 16.2126 212.69 16.2478 212.803 16.3143C212.915 16.3809 213.008 16.4765 213.071 16.5911L214.171 18.5888C214.237 18.7137 214.338 18.8175 214.461 18.8884L216.461 19.9772C216.575 20.0415 216.67 20.1351 216.737 20.2483C216.803 20.3615 216.838 20.4903 216.838 20.6215C216.838 20.7526 216.803 20.8814 216.737 20.9947C216.67 21.1079 216.575 21.2014 216.461 21.2657L214.461 22.3545C214.336 22.4226 214.235 22.5271 214.171 22.6541L213.071 24.6519C213.01 24.7693 212.918 24.8677 212.805 24.9365C212.693 25.0052 212.563 25.0416 212.431 25.0416C212.298 25.0416 212.169 25.0052 212.056 24.9365C211.943 24.8677 211.851 24.7693 211.791 24.6519L210.701 22.6541C210.63 22.5288 210.526 22.4252 210.401 22.3545L208.401 21.2657C208.286 21.2014 208.191 21.1079 208.125 20.9947C208.058 20.8814 208.023 20.7526 208.023 20.6215C208.023 20.4903 208.058 20.3615 208.125 20.2483C208.191 20.1351 208.286 20.0415 208.401 19.9772Z" fill="#C1DDF7"/>
<path d="M67.3598 60.7905L69.8198 59.472C69.9723 59.3897 70.0974 59.2648 70.1798 59.1124L71.4998 56.6553C71.5743 56.5129 71.6863 56.3937 71.8238 56.3104C71.9613 56.2272 72.1191 56.1832 72.2798 56.1832C72.4406 56.1832 72.5983 56.2272 72.7358 56.3104C72.8733 56.3937 72.9854 56.5129 73.0598 56.6553L74.3798 59.1124C74.4592 59.267 74.5851 59.3928 74.7398 59.472L77.1998 60.7905C77.3395 60.8672 77.4561 60.98 77.5372 61.117C77.6184 61.2541 77.6612 61.4104 77.6612 61.5696C77.6612 61.7289 77.6184 61.8852 77.5372 62.0222C77.4561 62.1593 77.3395 62.2721 77.1998 62.3487L74.7398 63.6672C74.5851 63.7465 74.4592 63.8723 74.3798 64.0268L73.0598 66.484C72.9831 66.6236 72.8702 66.74 72.733 66.8211C72.5957 66.9021 72.4393 66.9449 72.2798 66.9449C72.1204 66.9449 71.9639 66.9021 71.8267 66.8211C71.6895 66.74 71.5766 66.6236 71.4998 66.484L70.1798 64.0268C70.0974 63.8745 69.9723 63.7495 69.8198 63.6672L67.3598 62.3487C67.2201 62.2721 67.1036 62.1593 67.0224 62.0222C66.9413 61.8852 66.8984 61.7289 66.8984 61.5696C66.8984 61.4104 66.9413 61.2541 67.0224 61.117C67.1036 60.98 67.2201 60.8672 67.3598 60.7905V60.7905Z" fill="#C1DDF7"/>
<path d="M259 51.3214L261.25 50.1127C261.39 50.0376 261.504 49.923 261.58 49.7831L262.78 47.5357C262.849 47.4062 262.952 47.2978 263.078 47.2223C263.204 47.1467 263.348 47.1068 263.495 47.1068C263.642 47.1068 263.786 47.1467 263.912 47.2223C264.038 47.2978 264.141 47.4062 264.21 47.5357L265.42 49.7831C265.492 49.9253 265.607 50.0407 265.75 50.1127L268 51.3214C268.129 51.3903 268.238 51.4932 268.313 51.619C268.389 51.7448 268.429 51.8888 268.429 52.0356C268.429 52.1823 268.389 52.3263 268.313 52.4521C268.238 52.5779 268.129 52.6808 268 52.7497L265.75 53.9384C265.61 54.0135 265.495 54.1282 265.42 54.268L264.21 56.5154C264.141 56.645 264.038 56.7533 263.912 56.8289C263.786 56.9044 263.642 56.9443 263.495 56.9443C263.348 56.9443 263.204 56.9044 263.078 56.8289C262.952 56.7533 262.849 56.645 262.78 56.5154L261.58 54.268C261.502 54.1302 261.388 54.0162 261.25 53.9384L259 52.7497C258.87 52.6808 258.762 52.5779 258.686 52.4521C258.61 52.3263 258.57 52.1823 258.57 52.0356C258.57 51.8888 258.61 51.7448 258.686 51.619C258.762 51.4932 258.87 51.3903 259 51.3214V51.3214Z" fill="#84B4FE"/>
<path d="M108.679 37.2974L110.319 36.4085C110.425 36.3559 110.512 36.2722 110.569 36.1687L111.449 34.5206C111.502 34.436 111.576 34.3662 111.663 34.3179C111.751 34.2695 111.849 34.2441 111.949 34.2441C112.049 34.2441 112.147 34.2695 112.235 34.3179C112.322 34.3662 112.396 34.436 112.449 34.5206L113.339 36.1687C113.392 36.2715 113.476 36.3553 113.579 36.4085L115.229 37.2974C115.314 37.3504 115.384 37.4241 115.432 37.5114C115.481 37.5988 115.506 37.697 115.506 37.7969C115.506 37.8967 115.481 37.9949 115.432 38.0823C115.384 38.1697 115.314 38.2433 115.229 38.2963L113.579 39.1853C113.476 39.2385 113.392 39.3222 113.339 39.425L112.449 41.0731C112.396 41.1577 112.322 41.2275 112.235 41.2759C112.147 41.3242 112.049 41.3496 111.949 41.3496C111.849 41.3496 111.751 41.3242 111.663 41.2759C111.576 41.2275 111.502 41.1577 111.449 41.0731L110.569 39.425C110.512 39.3215 110.425 39.2379 110.319 39.1853L108.679 38.2963C108.594 38.2433 108.525 38.1697 108.476 38.0823C108.428 37.9949 108.402 37.8967 108.402 37.7969C108.402 37.697 108.428 37.5988 108.476 37.5114C108.525 37.4241 108.594 37.3504 108.679 37.2974V37.2974Z" fill="#84B4FE"/>
<path d="M154.509 266.376H177.969V156.221H154.509V266.376Z" fill="white"/>
<path d="M157.281 162.514C157.281 160.241 158.185 158.061 159.794 156.454C161.403 154.847 163.585 153.944 165.861 153.944C168.136 153.944 170.319 154.847 171.928 156.454C173.537 158.061 174.441 160.241 174.441 162.514C174.441 162.514 175.551 182.801 165.861 193.599C156.171 182.791 157.281 162.514 157.281 162.514Z" fill="#EBF5FF"/>
<path d="M195.821 116.077C195.821 116.077 227.951 131.63 215.221 177.497C215.221 177.497 208.421 154.433 186.621 148.47L195.821 116.077Z" fill="#84B4FE"/>
<path d="M135.608 116.077C135.608 116.077 103.488 131.63 116.218 177.497C116.218 177.497 123.008 154.433 144.808 148.47L135.608 116.077Z" fill="#84B4FE"/>
<path d="M155.29 158.029H177.13C177.548 158.031 177.954 157.89 178.281 157.631C178.608 157.371 178.837 157.008 178.93 156.601L180.12 151.307C180.181 151.038 180.182 150.759 180.12 150.49C180.059 150.221 179.938 149.969 179.766 149.753C179.594 149.538 179.376 149.363 179.127 149.243C178.879 149.123 178.606 149.06 178.33 149.06H154.09C153.813 149.061 153.541 149.123 153.292 149.243C153.043 149.363 152.824 149.538 152.651 149.753C152.479 149.969 152.357 150.22 152.294 150.489C152.232 150.758 152.23 151.038 152.29 151.307L153.49 156.601C153.583 157.008 153.812 157.371 154.139 157.631C154.466 157.89 154.872 158.031 155.29 158.029V158.029Z" fill="#214A81"/>
<path d="M197.721 103.681C197.721 103.681 194.371 134.446 184.011 153.944C172.493 149.228 159.579 149.228 148.061 153.944C148.061 153.944 136.181 137.493 133.741 101.244C132.341 80.3581 134.011 56.5154 140.931 35.9689H189.261C195.691 52.6998 200.271 75.1841 197.721 103.681Z" fill="#C1DDF7"/>
<path d="M169.6 2.63777C178.069 12.5004 184.724 23.7815 189.26 35.9597H140.93C145.36 22.8147 151.93 10.9882 161.23 2.21825C161.8 1.68355 162.473 1.2692 163.207 0.999983C163.941 0.730761 164.723 0.612188 165.504 0.651348C166.285 0.690509 167.051 0.8866 167.754 1.2279C168.458 1.5692 169.086 2.04871 169.6 2.63777V2.63777Z" fill="#214A81"/>
<path d="M166.578 102.193C166.578 102.193 181.398 135.865 166.578 175.909C166.578 175.909 150.098 142.497 166.578 102.193Z" fill="#84B4FE"/>
<path d="M165.189 89.5876C175.489 89.5876 183.839 81.2427 183.839 70.9489C183.839 60.655 175.489 52.3102 165.189 52.3102C154.889 52.3102 146.539 60.655 146.539 70.9489C146.539 81.2427 154.889 89.5876 165.189 89.5876Z" fill="#214A81"/>
<path d="M165.202 83.8923C172.349 83.8836 178.135 78.0807 178.126 70.9313C178.118 63.7819 172.317 57.9932 165.17 58.0019C158.024 58.0106 152.238 63.8135 152.246 70.9629C152.255 78.1123 158.056 83.901 165.202 83.8923Z" fill="#FFD474"/>
<path d="M334.5 280H13.5C17.3891 274.215 22.2588 269.198 28.0806 265.358C33.9024 261.518 40.4297 258.871 47.2837 257.57C54.1378 256.269 61.1822 256.341 68.0084 257.78C74.8345 259.22 81.3066 261.999 87.0491 265.956C88.0089 261.784 90.0446 257.935 92.9542 254.791C95.8638 251.648 99.5461 249.319 103.635 248.037C107.724 246.755 112.078 246.563 116.265 247.481C120.451 248.399 124.324 250.395 127.499 253.271C129.044 252.678 130.628 252.191 132.239 251.813C132.189 251.253 132.159 250.694 132.159 250.125C132.17 246.297 133.348 242.563 135.537 239.421C137.725 236.278 140.82 233.876 144.409 232.535C143.522 231.13 143.053 229.501 143.059 227.84C143.059 225.429 144.018 223.117 145.724 221.413C147.431 219.708 149.746 218.75 152.159 218.75C154.573 218.75 156.887 219.708 158.594 221.413C160.3 223.117 161.259 225.429 161.259 227.84C161.265 229.74 160.654 231.59 159.519 233.114C160.651 233.64 161.726 234.279 162.729 235.022C166.159 233.762 169.914 233.692 173.389 234.822C174.35 231.807 176.354 229.232 179.042 227.558C181.73 225.884 184.927 225.22 188.061 225.685C191.194 226.15 194.06 227.713 196.144 230.096C198.229 232.478 199.397 235.524 199.439 238.688C199.442 240.65 198.997 242.586 198.139 244.351C205.05 245.261 211.349 248.782 215.739 254.19C220.247 250.869 225.448 248.607 230.953 247.572C236.458 246.538 242.126 246.759 247.534 248.217C252.942 249.676 257.951 252.335 262.187 255.996C266.423 259.657 269.777 264.226 271.999 269.363C282.061 263.528 293.848 261.391 305.321 263.323C316.794 265.255 327.409 271.193 335 280H334.5Z" fill="white"/>
</g>
<defs>
<clipPath id="clip0">
<rect width="373" height="280" fill="white"/>
</clipPath>
</defs>
</svg>
