<svg width="69" height="68" viewBox="0 0 69 68" fill="none" xmlns="http://www.w3.org/2000/svg">
<path d="M49.5996 33.502C49.5996 45.3761 39.9737 55.002 28.0996 55.002C16.2255 55.002 6.59961 45.3761 6.59961 33.502C6.59961 21.6278 16.2255 12.002 28.0996 12.002C39.9737 12.002 49.5996 21.6278 49.5996 33.502Z" fill="url(#paint0_linear_23532_143561)"/>
<g filter="url(#filter0_bdi_23532_143561)">
<path d="M42.6177 35.5765C45.2432 32.071 46.7983 27.7175 46.7983 23.0007C46.7983 11.4034 37.3969 2.00195 25.7996 2.00195C14.2023 2.00195 4.80078 11.4034 4.80078 23.0007C4.80078 34.598 14.2023 43.9995 25.7996 43.9995C30.5163 43.9995 34.8698 42.4444 38.3753 39.8189L59.6763 61.1198C60.8478 62.2913 62.7472 62.2913 63.9187 61.1198C65.0902 59.9483 65.0902 58.0489 63.9187 56.8774L42.6177 35.5765Z" fill="url(#paint1_linear_23532_143561)" fill-opacity="0.3" shape-rendering="crispEdges"/>
<path d="M42.2175 35.2768L41.9578 35.6236L42.2642 35.9301L63.5651 57.231C64.5414 58.2072 64.5414 59.79 63.5651 60.7663C62.5889 61.7425 61.0061 61.7425 60.0298 60.7663L38.7289 39.4654L38.4225 39.1589L38.0756 39.4187C34.6536 41.9816 30.4046 43.4995 25.7996 43.4995C14.4784 43.4995 5.30078 34.3219 5.30078 23.0007C5.30078 11.6796 14.4784 2.50195 25.7996 2.50195C37.1207 2.50195 46.2983 11.6796 46.2983 23.0007C46.2983 27.6057 44.7805 31.8548 42.2175 35.2768Z" stroke="url(#paint2_linear_23532_143561)" stroke-opacity="0.8" stroke-linecap="round" shape-rendering="crispEdges"/>
</g>
<g filter="url(#filter1_di_23532_143561)">
<path d="M25.7992 14L27.8198 20.2185H34.3583L29.0685 24.0617L31.089 30.2802L25.7992 26.437L20.5095 30.2802L22.53 24.0617L17.2402 20.2185H23.7787L25.7992 14Z" fill="white"/>
</g>
<defs>
<filter id="filter0_bdi_23532_143561" x="0.800781" y="-1.99805" width="67.9961" height="69.9961" filterUnits="userSpaceOnUse" color-interpolation-filters="sRGB">
<feFlood flood-opacity="0" result="BackgroundImageFix"/>
<feGaussianBlur in="BackgroundImageFix" stdDeviation="2"/>
<feComposite in2="SourceAlpha" operator="in" result="effect1_backgroundBlur_23532_143561"/>
<feColorMatrix in="SourceAlpha" type="matrix" values="0 0 0 0 0 0 0 0 0 0 0 0 0 0 0 0 0 0 127 0" result="hardAlpha"/>
<feOffset dy="2"/>
<feGaussianBlur stdDeviation="2"/>
<feComposite in2="hardAlpha" operator="out"/>
<feColorMatrix type="matrix" values="0 0 0 0 0 0 0 0 0 0 0 0 0 0 0 0 0 0 0.25 0"/>
<feBlend mode="normal" in2="effect1_backgroundBlur_23532_143561" result="effect2_dropShadow_23532_143561"/>
<feBlend mode="normal" in="SourceGraphic" in2="effect2_dropShadow_23532_143561" result="shape"/>
<feColorMatrix in="SourceAlpha" type="matrix" values="0 0 0 0 0 0 0 0 0 0 0 0 0 0 0 0 0 0 127 0" result="hardAlpha"/>
<feOffset dx="2" dy="2"/>
<feGaussianBlur stdDeviation="2"/>
<feComposite in2="hardAlpha" operator="arithmetic" k2="-1" k3="1"/>
<feColorMatrix type="matrix" values="0 0 0 0 1 0 0 0 0 1 0 0 0 0 1 0 0 0 0.7 0"/>
<feBlend mode="normal" in2="shape" result="effect3_innerShadow_23532_143561"/>
</filter>
<filter id="filter1_di_23532_143561" x="15.2402" y="13" width="21.1172" height="20.2793" filterUnits="userSpaceOnUse" color-interpolation-filters="sRGB">
<feFlood flood-opacity="0" result="BackgroundImageFix"/>
<feColorMatrix in="SourceAlpha" type="matrix" values="0 0 0 0 0 0 0 0 0 0 0 0 0 0 0 0 0 0 127 0" result="hardAlpha"/>
<feOffset dy="1"/>
<feGaussianBlur stdDeviation="1"/>
<feComposite in2="hardAlpha" operator="out"/>
<feColorMatrix type="matrix" values="0 0 0 0 0 0 0 0 0 0 0 0 0 0 0 0 0 0 0.25 0"/>
<feBlend mode="normal" in2="BackgroundImageFix" result="effect1_dropShadow_23532_143561"/>
<feBlend mode="normal" in="SourceGraphic" in2="effect1_dropShadow_23532_143561" result="shape"/>
<feColorMatrix in="SourceAlpha" type="matrix" values="0 0 0 0 0 0 0 0 0 0 0 0 0 0 0 0 0 0 127 0" result="hardAlpha"/>
<feOffset dy="-0.5"/>
<feGaussianBlur stdDeviation="0.5"/>
<feComposite in2="hardAlpha" operator="arithmetic" k2="-1" k3="1"/>
<feColorMatrix type="matrix" values="0 0 0 0 0 0 0 0 0 0 0 0 0 0 0 0 0 0 0.15 0"/>
<feBlend mode="normal" in2="shape" result="effect2_innerShadow_23532_143561"/>
</filter>
<linearGradient id="paint0_linear_23532_143561" x1="6.59961" y1="12.002" x2="63.2168" y2="35.5719" gradientUnits="userSpaceOnUse">
<stop stop-color="#0D72FF"/>
<stop offset="0.513259" stop-color="#9B69C6"/>
<stop offset="1" stop-color="#E13019"/>
</linearGradient>
<linearGradient id="paint1_linear_23532_143561" x1="64.7973" y1="61.9985" x2="-1.80109" y2="53.453" gradientUnits="userSpaceOnUse">
<stop stop-color="#A1B7FF"/>
<stop offset="1" stop-color="#0D72FF"/>
</linearGradient>
<linearGradient id="paint2_linear_23532_143561" x1="4.42096" y1="2.00195" x2="71.1263" y2="10.5612" gradientUnits="userSpaceOnUse">
<stop stop-color="white"/>
<stop offset="1" stop-color="white" stop-opacity="0"/>
</linearGradient>
</defs>
</svg>
