<svg width="151" height="33" viewBox="0 0 151 33" fill="none" xmlns="http://www.w3.org/2000/svg">
<g clip-path="url(#clip0_1773_86308)">
<path d="M9.52 9.9999L9.6 10.7199L9.52 11.4299H9.37C8.88304 11.44 8.41196 11.2566 8.06 10.9199C7.92 13.3199 6.53 14.7299 4.19 14.7299C3.70345 14.7705 3.21389 14.7049 2.75519 14.5376C2.2965 14.3703 1.87964 14.1054 1.53345 13.7611C1.18726 13.4168 0.920015 13.0014 0.750208 12.5436C0.580402 12.0859 0.51209 11.5967 0.55 11.1099C0.646089 10.0852 0.934455 9.08779 1.4 8.1699L2.4 8.6399C1.99606 9.40505 1.75757 10.2466 1.7 11.1099C1.7 12.3799 2.64 13.2799 4.18 13.2799C6.08 13.2799 7 12.2799 6.92 10.2799C6.78 6.4499 6.58 4.9399 6.45 3.6999L7.68 3.3999C7.78 4.3999 7.9 5.4999 8 8.5099C8.1 9.6599 8.35 9.9999 9.37 9.9999H9.52Z" fill="#013B81"/>
<path d="M9.53 12.5798L10.48 13.5198C10.17 13.8398 9.86 14.1598 9.53 14.4698L8.59 13.5198C8.91 13.1998 9.23 12.8898 9.53 12.5798ZM9.39 9.99984H9.49C11.54 9.99984 12.04 9.73984 12.22 9.13984C12.3016 8.52945 12.2711 7.90928 12.13 7.30984L13.21 7.08984C13.3321 7.7865 13.3923 8.49258 13.39 9.19984C13.4364 9.44918 13.5759 9.67155 13.7801 9.82194C13.9844 9.97233 14.2381 10.0395 14.49 10.0098H14.58L14.66 10.7298L14.58 11.4398H14.5C14.1561 11.4326 13.8199 11.3367 13.5238 11.1615C13.2278 10.9864 12.9819 10.7378 12.81 10.4398C12.37 11.1698 11.43 11.4398 9.49 11.4398H9.39V9.99984ZM11.83 12.6098L12.78 13.5498C12.47 13.8698 12.16 14.1898 11.83 14.4998L10.89 13.5498C11.21 13.1998 11.53 12.8898 11.83 12.5798V12.6098Z" fill="#013B81"/>
<path d="M18.46 9.9999L18.54 10.7199L18.46 11.4299H18.32C17.9778 11.4209 17.6436 11.3243 17.3495 11.1492C17.0553 10.9741 16.811 10.7264 16.64 10.4299C16.4565 10.7488 16.1885 11.0109 15.8657 11.1873C15.5428 11.3637 15.1775 11.4477 14.81 11.4299H14.46V9.9999H14.8C15.74 9.9999 16.13 9.6499 16.14 8.7799V8.6599C16.14 8.2999 15.94 4.7899 15.84 3.6599L17.07 3.3999C17.19 4.5199 17.3 7.9699 17.33 8.6599C17.38 9.5699 17.73 9.9499 18.33 9.9499L18.46 9.9999Z" fill="#013B81"/>
<path d="M28.3 9.99978L28.38 10.7198L28.3 11.4298H28.17C26.6 11.4298 25.61 10.8798 25.17 9.81978C23.399 10.8438 21.3955 11.398 19.35 11.4298H18.35V9.99978H19.47C21.5084 10.0017 23.5129 9.47818 25.29 8.47978L25.51 8.35978C25.019 8.21715 24.5433 8.02622 24.09 7.78978C23.4819 7.42444 22.7972 7.20535 22.09 7.14979C21.7593 7.16269 21.4377 7.26175 21.1571 7.43714C20.8765 7.61254 20.6465 7.85819 20.49 8.14978L19.66 7.56979C19.8497 7.05942 20.1867 6.61687 20.6282 6.29821C21.0697 5.97955 21.5959 5.79912 22.14 5.77979C23.0099 5.86266 23.8469 6.15425 24.58 6.62979C25.3558 7.07742 26.1906 7.41403 27.06 7.62979L27.11 8.88979C26.7625 8.99753 26.4273 9.14166 26.11 9.31978C26.3612 9.55715 26.6588 9.74007 26.984 9.85708C27.3092 9.97409 27.6551 10.0227 28 9.99978H28.3Z" fill="#013B81"/>
<path d="M28.17 9.99989H28.72C30.59 9.99989 31.2 9.65989 31.2 8.94989C31.0659 8.14359 30.8307 7.35739 30.5 6.60989L31.58 5.99989C32.022 6.94296 32.2831 7.96055 32.35 8.99989C32.35 10.5999 31.22 11.4599 28.92 11.4599H28.18L28.17 9.99989ZM29.41 3.41989L30.36 4.35989C30.05 4.68989 29.74 4.99989 29.41 5.30989L28.47 4.35989C28.78 3.99989 29.11 3.69989 29.41 3.38989V3.41989ZM31.7 3.41989L32.65 4.35989C32.34 4.68989 32.03 4.99989 31.7 5.30989L30.76 4.35989C31.07 3.99989 31.39 3.69989 31.69 3.38989L31.7 3.41989Z" fill="#013B81"/>
<path d="M40.07 11.35C38.78 11.58 37.07 11.35 36.52 10.23C35.81 8.76998 36.96 6.22998 38.52 6.22998C40.08 6.22998 41.16 8.65998 41.16 10.72C41.16 12.98 39.38 14.61 36.41 15.19L36 13.89C38.47 13.36 39.79 12.56 40.07 11.35ZM40.07 9.98998C39.87 8.78998 39.34 7.61998 38.51 7.52998C37.68 7.43998 37.09 8.86998 37.51 9.43998C37.93 10.01 39 10.12 40.07 9.99998V9.98998Z" fill="#013B81"/>
<path d="M48.63 11.41C47.06 11.41 45.63 11.28 45.09 10.24C44.38 8.77999 45.53 6.23999 47.09 6.23999C48.65 6.23999 49.49 8.14999 49.69 10.01H50.2L50.28 10.73L50.2 11.44H49.67C49.33 13.33 47.67 14.68 44.99 15.2L44.56 13.94C47 13.37 48.32 12.59 48.63 11.41ZM48.63 9.96999C48.45 8.76999 47.9 7.61999 47.07 7.53999C46.24 7.45999 45.65 8.87999 46.07 9.44999C46.49 10.02 47.45 9.99999 48.64 9.99999L48.63 9.96999Z" fill="#013B81"/>
<path d="M60 9.99999L60.08 10.72L60 11.43H59.87C58.3 11.43 57.31 10.88 56.87 9.81999C55.0804 10.8383 53.059 11.3789 51 11.39H50V9.99999H51.12C53.1823 10.0001 55.209 9.46237 57 8.43999L57.22 8.31999C56.729 8.17736 56.2533 7.98643 55.8 7.74999C55.1919 7.38464 54.5072 7.16555 53.8 7.10999C53.4693 7.1229 53.1477 7.22195 52.8671 7.39735C52.5865 7.57275 52.3565 7.8184 52.2 8.10999L51.37 7.52999C51.5597 7.01963 51.8967 6.57708 52.3382 6.25841C52.7797 5.93975 53.3059 5.75932 53.85 5.73999C54.7199 5.82287 55.5569 6.11446 56.29 6.58999C57.0659 7.03762 57.9006 7.37424 58.77 7.58999L58.82 8.84999C58.4725 8.95774 58.1373 9.10187 57.82 9.27999C58.0727 9.52172 58.3732 9.70796 58.7021 9.82679C59.031 9.94561 59.3811 9.99439 59.73 9.96999L60 9.99999ZM54.36 12.44C54.7 12.7667 55.0333 13.1 55.36 13.44L54.36 14.44L53.36 13.44C53.7 13.08 54.04 12.7367 54.38 12.41L54.36 12.44Z" fill="#013B81"/>
<path d="M59.89 9.99989H60C62.05 9.99989 62.55 9.73989 62.73 9.13989C62.8116 8.5295 62.7811 7.90933 62.64 7.30989L63.72 7.08989C63.8421 7.78655 63.9023 8.49263 63.9 9.19989C63.9487 9.44739 64.0891 9.66735 64.293 9.81571C64.497 9.96407 64.7496 10.0299 65 9.99989H65.09L65.17 10.7199L65.09 11.4299H65C64.6561 11.4226 64.3199 11.3268 64.0238 11.1516C63.7278 10.9764 63.4819 10.7278 63.31 10.4299C62.87 11.1599 61.93 11.4299 59.99 11.4299H59.89V9.99989ZM61.1 4.13989L62.05 5.07989C61.74 5.40989 61.43 5.71989 61.1 6.02989L60.16 5.07989C60.47 4.75989 60.8 4.44989 61.1 4.13989ZM63.4 4.13989L64.35 5.07989C64.04 5.40989 63.73 5.71989 63.4 6.02989L62.46 5.07989C62.77 4.75989 63.1 4.44989 63.4 4.13989Z" fill="#013B81"/>
<path d="M70.53 10.12C70.3758 10.4728 70.1288 10.7772 69.8154 11.0008C69.502 11.2244 69.1338 11.3589 68.75 11.39H68.7C68.3403 11.4013 67.9889 11.2804 67.7125 11.05C67.436 10.8196 67.2537 10.4958 67.2 10.14C66.9723 10.5204 66.65 10.8354 66.2645 11.0545C65.879 11.2735 65.4434 11.3891 65 11.39L64.92 10.68L65 9.99997C65.2921 10.0039 65.5811 9.93892 65.8434 9.81036C66.1057 9.68179 66.3341 9.49324 66.51 9.25997C66.8386 8.77229 67.0695 8.22554 67.19 7.64997L68.28 7.76997C68.1452 8.21325 68.0548 8.66882 68.01 9.12997C68.01 9.69997 68.19 9.99997 68.69 9.99997C68.9462 9.98653 69.1932 9.90039 69.4022 9.75162C69.6112 9.60286 69.7734 9.39763 69.87 9.15997C70.0946 8.64421 70.2428 8.09848 70.31 7.53997L71.4 7.58997C71.3115 8.01488 71.258 8.44632 71.24 8.87997C71.24 9.60997 71.5 10.01 72.16 10.01C72.3683 10.012 72.5747 9.97033 72.7659 9.88765C72.9571 9.80497 73.1288 9.68312 73.27 9.52997C73.18 9.18997 73.07 8.62997 72.87 7.52997L74 7.21997C74.0944 7.89623 74.2381 8.56468 74.43 9.21997C74.4932 9.45259 74.6383 9.65455 74.8386 9.78869C75.0389 9.92282 75.2808 9.9801 75.52 9.94997H75.58L75.66 10.67L75.57 11.38H75.52C75.1925 11.3867 74.8681 11.3149 74.5741 11.1705C74.28 11.0261 74.0249 10.8133 73.83 10.55C73.6447 10.7992 73.4054 11.0034 73.1301 11.1471C72.8547 11.2908 72.5505 11.3704 72.24 11.38H72.19C71.811 11.3911 71.4396 11.2722 71.1376 11.0429C70.8356 10.8137 70.6212 10.488 70.53 10.12Z" fill="#013B81"/>
<path d="M75.45 9.99977H76.57C78.6084 10.0017 80.6128 9.47816 82.39 8.47976L82.61 8.35977C82.119 8.21713 81.6433 8.0262 81.19 7.78977C80.5819 7.42442 79.8972 7.20533 79.19 7.14977C78.8593 7.16267 78.5377 7.26173 78.2571 7.43712C77.9765 7.61252 77.7465 7.85817 77.59 8.14977L76.76 7.56977C76.9439 7.06173 77.2734 6.61914 77.7074 6.29724C78.1413 5.97534 78.6604 5.7884 79.2 5.75977C80.0699 5.84264 80.9069 6.13423 81.64 6.60977C82.4158 7.0574 83.2506 7.39401 84.12 7.60977L84.17 8.86977C83.6691 9.05335 83.1869 9.2844 82.73 9.55977C80.831 10.725 78.6574 11.3668 76.43 11.4198H75.43L75.45 9.99977ZM79.79 12.4598C80.13 12.7864 80.4633 13.1198 80.79 13.4598L79.79 14.4598L78.79 13.4598C79.1167 13.0931 79.45 12.7464 79.79 12.4198V12.4598Z" fill="#013B81"/>
<path d="M89 11.2498C88.8443 10.152 88.6138 9.06617 88.31 7.99981L89.45 7.55981C89.8419 8.74668 90.0707 9.98132 90.13 11.2298C90.13 12.8698 88.61 14.3598 86.55 15.1298L86 13.9298C87.71 13.2898 89 12.1098 89 11.2498Z" fill="#013B81"/>
<path d="M95.11 11.41C93.54 11.41 92.11 11.28 91.57 10.24C90.86 8.77999 92.01 6.23999 93.57 6.23999C95.13 6.23999 96 8.09999 96.19 9.99999H96.7L96.78 10.72L96.7 11.43H96.17C95.83 13.32 94.17 14.67 91.49 15.19L91.06 13.93C93.48 13.37 94.8 12.59 95.11 11.41ZM95.11 9.96999C94.93 8.76999 94.38 7.61999 93.55 7.53999C92.72 7.45999 92.13 8.87999 92.55 9.44999C92.97 10.02 93.92 9.99999 95.12 9.99999L95.11 9.96999Z" fill="#013B81"/>
<path d="M96.52 9.99989H97.07C98.94 9.99989 99.55 9.65989 99.55 8.94989C99.4159 8.14359 99.1807 7.35739 98.85 6.60989L99.93 5.99989C100.372 6.94296 100.633 7.96055 100.7 8.99989C100.7 10.5999 99.57 11.4599 97.27 11.4599H96.53L96.52 9.99989ZM97.76 3.41989L98.71 4.35989C98.4 4.68989 98.09 4.99989 97.76 5.30989L96.82 4.35989C97.13 3.99989 97.46 3.69989 97.76 3.38989V3.41989ZM100.05 3.41989L101 4.35989C100.69 4.68989 100.38 4.99989 100.05 5.30989L99.11 4.35989C99.42 3.99989 99.75 3.69989 100 3.38989L100.05 3.41989Z" fill="#013B81"/>
<path d="M105.7 11.41C104.13 11.41 102.7 11.28 102.16 10.24C101.45 8.77999 102.6 6.23999 104.16 6.23999C105.72 6.23999 106.56 8.14999 106.76 10.01H107.27L107.35 10.73L107.27 11.44H106.74C106.4 13.33 104.74 14.68 102.06 15.2L101.63 13.94C104.08 13.37 105.39 12.59 105.7 11.41ZM105.7 9.96999C105.52 8.76999 104.97 7.61999 104.14 7.53999C103.31 7.45999 102.72 8.87999 103.14 9.44999C103.56 10.02 104.52 9.99999 105.71 9.99999L105.7 9.96999Z" fill="#013B81"/>
<path d="M107.14 9.99995H107.37C107.743 9.98618 108.104 9.86455 108.409 9.64979C108.715 9.43503 108.951 9.13636 109.09 8.78995C109.75 7.47995 110.52 6.37995 111.52 6.32995C113.86 6.19995 114.61 10.2699 112.7 11.3299C112.01 11.7199 110.87 11.3299 109.45 10.3899C109.201 10.7102 108.881 10.9675 108.514 11.1412C108.148 11.3149 107.745 11.4001 107.34 11.3899H107.11L107.14 9.99995ZM112.33 10.1199C113.1 9.69995 112.69 7.63995 111.62 7.63995C111.16 7.63995 110.67 8.18995 110.1 9.28995C111.19 9.93995 112 10.2499 112.33 10.0799V10.1199Z" fill="#013B81"/>
<path d="M3 27.4998C2.84296 26.4122 2.61243 25.3364 2.31 24.2798L3.45 23.8398C3.84194 25.0267 4.0707 26.2613 4.13 27.5098C4.13 29.1498 2.61 30.6398 0.55 31.4098L0 30.1798C1.72 29.5398 3 28.3598 3 27.4998Z" fill="#013B81"/>
<path d="M9.11 27.66C7.54 27.66 6.11 27.53 5.57 26.49C4.86 25.03 6.01 22.49 7.57 22.49C9.13 22.49 9.97 24.4 10.17 26.26H10.68L10.76 26.98L10.68 27.69H10.15C9.81 29.58 8.15 30.93 5.47 31.45L5.04 30.19C7.49 29.62 8.8 28.84 9.11 27.66ZM9.11 26.22C8.93 25.02 8.38 23.87 7.55 23.79C6.72 23.71 6.13 25.13 6.55 25.7C6.97 26.27 7.93 26.21 9.13 26.21L9.11 26.22Z" fill="#013B81"/>
<path d="M10.53 26.21H14.53L14.61 26.93L14.53 27.64H10.53V26.21Z" fill="#013B81"/>
<path d="M19.93 26.3699C19.7758 26.7227 19.5288 27.0271 19.2154 27.2508C18.902 27.4744 18.5338 27.6089 18.15 27.6399H18.1C17.7418 27.6516 17.3917 27.532 17.1154 27.3037C16.8392 27.0753 16.6559 26.7539 16.6 26.3999C16.3742 26.7754 16.0565 27.0872 15.6768 27.3059C15.2972 27.5245 14.8681 27.643 14.43 27.6499H14.38L14.3 26.9399L14.38 26.2199H14.45C14.7497 26.2291 15.0471 26.1657 15.317 26.0351C15.5869 25.9045 15.8212 25.7106 16 25.4699C16.3286 24.9822 16.5595 24.4355 16.68 23.8599L17.77 23.9799C17.6352 24.4232 17.5448 24.8788 17.5 25.3399C17.5 25.9099 17.68 26.2099 18.18 26.2099C18.4362 26.1965 18.6832 26.1103 18.8922 25.9616C19.1012 25.8128 19.2634 25.6076 19.36 25.3699C19.5842 24.854 19.7324 24.3083 19.8 23.7499L20.89 23.7999C20.8015 24.2248 20.748 24.6563 20.73 25.0899C20.73 25.8199 20.99 26.2199 21.65 26.2199C21.8583 26.2219 22.0647 26.1803 22.2559 26.0976C22.4471 26.0149 22.6188 25.8931 22.76 25.7399C22.67 25.3999 22.56 24.8399 22.36 23.7399L23.44 23.4499C23.5344 24.1262 23.6781 24.7946 23.87 25.4499C23.9332 25.6825 24.0783 25.8845 24.2786 26.0186C24.4789 26.1528 24.7208 26.21 24.96 26.1799H25L25.08 26.8999L24.99 27.6099H24.94C24.6125 27.6167 24.2881 27.5448 23.9941 27.4004C23.7 27.256 23.4449 27.0432 23.25 26.7799C23.0647 27.0292 22.8254 27.2333 22.5501 27.377C22.2747 27.5208 21.9705 27.6004 21.66 27.6099H21.61C21.2303 27.6268 20.8564 27.5128 20.5506 27.2871C20.2449 27.0615 20.0258 26.7377 19.93 26.3699ZM19.27 20.5099L20.21 21.4499C19.9 21.7599 19.59 22.0599 19.27 22.3899C18.96 22.0599 18.66 21.7699 18.33 21.4499C18.66 21.1299 19 20.8199 19.27 20.5099ZM20.47 19.1599C20.74 19.4299 21.02 19.7199 21.3 19.9899L20.47 20.8199L19.65 19.9999L20.47 19.1599ZM21.69 20.5099L22.63 21.4499C22.32 21.7599 22.01 22.0599 21.69 22.3899C21.38 22.0599 21.08 21.7699 20.75 21.4499C21.08 21.1299 21.37 20.8199 21.69 20.5099Z" fill="#013B81"/>
<path d="M29.79 20.3099L26.79 21.3099C27.95 22.3099 29.79 24.1799 29.26 25.7699C28.84 27.0399 27.32 27.5999 25.19 27.5999H24.83V26.2099H25.19C26.85 26.2099 27.88 25.9099 28.19 25.3799C28.37 24.5499 27.41 23.3799 25.47 21.8299L25.63 20.5299L29.41 19.1499L29.79 20.3099Z" fill="#013B81"/>
<path d="M32.7 27.4099C32.7975 26.3639 33.0928 25.3458 33.57 24.4099L34.57 24.8799C34.1643 25.6771 33.9229 26.5477 33.86 27.4399C33.86 29.0899 34.86 29.9199 36.62 29.9199C38.23 29.9199 39.56 29.1899 39.75 28.7399C39.0043 28.0559 38.131 27.5258 37.18 27.1799L37.48 25.8299C38.6062 26.0856 39.7554 26.2264 40.91 26.2499H41.18L41.26 26.9699L41.18 27.6799H40.9C40.63 27.6799 40.34 27.6799 40.07 27.6799C40.2793 27.8028 40.4587 27.9705 40.5954 28.1711C40.732 28.3717 40.8224 28.6002 40.86 28.8399C40.86 30.0699 38.95 31.3899 36.61 31.3899C34.27 31.3899 32.57 29.8799 32.7 27.4099Z" fill="#013B81"/>
<path d="M40.95 26.2098H41.21C41.5808 26.1877 41.9381 26.0628 42.2419 25.8491C42.5457 25.6354 42.7839 25.3413 42.93 24.9998C43.64 23.6698 44.39 22.5898 45.39 22.5398C46.56 22.4898 47.14 23.3998 47.48 24.5898C47.82 25.7798 48 26.1998 48.53 26.1998H48.66L48.74 26.9198L48.66 27.6298H48.53C48.2374 27.6274 47.9539 27.5279 47.724 27.3469C47.4941 27.1659 47.3309 26.9137 47.26 26.6298C47.212 26.8227 47.1239 27.0034 47.0016 27.1602C46.8793 27.317 46.7255 27.4463 46.55 27.5398C45.87 27.9198 44.73 27.5398 43.31 26.5998C43.0591 26.9202 42.7367 27.1776 42.3686 27.3512C42.0005 27.5248 41.5969 27.61 41.19 27.5998H40.96L40.95 26.2098ZM46.41 26.4298C46.87 25.7898 46.41 23.8398 45.41 23.8398C44.92 23.8398 44.41 24.4998 43.88 25.4798C44.5754 26.1007 45.4777 26.4396 46.41 26.4298Z" fill="#013B81"/>
<path d="M48.53 26.21H51.23L51.31 26.93L51.23 27.64H48.53V26.21Z" fill="#013B81"/>
<path d="M59.31 25.2398C59.1878 24.4115 58.9523 23.6039 58.61 22.8398L59.66 22.2598C60.1016 23.2041 60.3692 24.2204 60.45 25.2598C60.4761 25.5476 60.4449 25.8377 60.3583 26.1134C60.2717 26.3891 60.1315 26.6449 59.9455 26.8662C59.7596 27.0874 59.5318 27.2697 59.2751 27.4024C59.0184 27.5352 58.738 27.6159 58.45 27.6398H58.4C58.0163 27.6551 57.6391 27.5369 57.3328 27.3053C57.0265 27.0737 56.8099 26.7431 56.72 26.3698C56.5658 26.7226 56.3188 27.027 56.0054 27.2506C55.692 27.4742 55.3238 27.6087 54.94 27.6398H54.89C54.5303 27.6511 54.1789 27.5302 53.9025 27.2998C53.626 27.0694 53.4437 26.7456 53.39 26.3898C53.1649 26.7659 52.8474 27.0782 52.4675 27.297C52.0877 27.5157 51.6583 27.6338 51.22 27.6398H51.17L51.09 26.9298L51.17 26.2098H51.24C51.5321 26.2137 51.8211 26.1487 52.0834 26.0201C52.3457 25.8916 52.5741 25.703 52.75 25.4698C53.0786 24.9821 53.3095 24.4353 53.43 23.8598L54.52 23.9798C54.3852 24.423 54.2948 24.8786 54.25 25.3398C54.25 25.9098 54.43 26.2098 54.93 26.2098C55.1862 26.1963 55.4332 26.1102 55.6422 25.9614C55.8512 25.8127 56.0134 25.6074 56.11 25.3698C56.3346 24.854 56.4828 24.3083 56.55 23.7498L57.64 23.7998C57.5515 24.2247 57.498 24.6561 57.48 25.0898C57.48 25.8198 57.74 26.2198 58.4 26.2198C58.5279 26.2285 58.6561 26.2086 58.7753 26.1614C58.8945 26.1142 59.0017 26.0409 59.0889 25.947C59.1761 25.853 59.2413 25.7408 59.2795 25.6184C59.3178 25.496 59.3282 25.3667 59.31 25.2398Z" fill="#013B81"/>
<path d="M62.91 27.4998C62.753 26.4122 62.5224 25.3364 62.22 24.2798L63.36 23.8398C63.7379 25.0253 63.9532 26.2565 64 27.4998C64 29.1398 62.48 30.6298 60.42 31.3998L59.86 30.1798C61.62 29.5398 62.91 28.3598 62.91 27.4998Z" fill="#013B81"/>
<path d="M68.76 26.79C68.76 28.43 69.76 29.26 71.52 29.26C72.1574 29.3166 72.7979 29.1906 73.3663 28.8966C73.9348 28.6026 74.4078 28.1529 74.73 27.6C74.73 27.51 74.34 27.35 73.2 27.03C71.82 26.64 71.29 26.25 71.35 25.17C71.3927 24.2099 71.7892 23.2997 72.4632 22.6147C73.1371 21.9296 74.0408 21.5183 75 21.46C75.4145 21.4616 75.8214 21.5719 76.18 21.78L75.79 23C75.5364 22.9093 75.2693 22.862 75 22.86C74.4327 22.8614 73.8818 23.0505 73.4332 23.3978C72.9846 23.7451 72.6635 24.2311 72.52 24.78C72.45 25.18 72.52 25.39 73.94 25.78C75.54 26.21 75.94 26.57 75.94 27.2C75.94 28.88 74.16 30.67 71.55 30.67C69.21 30.67 67.55 29.23 67.64 26.77C67.7332 25.7244 68.0251 24.7061 68.5 23.77L69.5 24.24C69.0852 25.0319 68.8335 25.899 68.76 26.79Z" fill="#013B81"/>
<path d="M79 24.3399C79 25.7399 79.08 26.2099 80.29 26.2099H80.35L80.43 26.9299L80.35 27.6399H80.29C78.35 27.6399 77.78 26.6399 77.81 24.4899C77.8242 22.9622 77.734 21.4353 77.54 19.9199L78.78 19.6499C78.9575 21.2066 79.031 22.7734 79 24.3399Z" fill="#013B81"/>
<path d="M80.26 26.21H83.71L83.79 26.93L83.71 27.64H80.26V26.21Z" fill="#013B81"/>
<path d="M83.62 26.2098H83.8C84.31 26.2098 84.75 26.2098 85.15 26.2098C84.9279 25.9984 84.7573 25.7387 84.6515 25.4509C84.5458 25.163 84.5076 24.8547 84.54 24.5498C84.6348 23.8609 84.9344 23.2163 85.4 22.6998L85 22.5998L85.51 21.2698C91.71 23.2698 91.98 24.6998 91.51 26.3798C91.07 27.8198 88.79 27.9698 86.97 27.2998C85.9522 27.5855 84.8966 27.7137 83.84 27.6798H83.66L83.62 26.2098ZM86.87 25.8598C87.1491 25.8009 87.4049 25.6616 87.6057 25.459C87.8065 25.2564 87.9436 24.9994 88 24.7198C88.0494 24.4304 88.0053 24.1328 87.874 23.8703C87.7427 23.6077 87.5311 23.3939 87.27 23.2598H87.18H87.01C86.6607 23.269 86.3275 23.4086 86.0759 23.651C85.8242 23.8934 85.6723 24.2211 85.65 24.5698C85.63 24.9998 86.15 25.5098 86.87 25.8598ZM90.5 25.8098C90.67 25.3198 90.21 24.6898 88.99 24.0298C89.0361 24.3112 89.0361 24.5983 88.99 24.8798C88.9313 25.415 88.7195 25.9219 88.38 26.3398C89.39 26.4998 90.31 26.3798 90.49 25.8098H90.5Z" fill="#013B81"/>
<path d="M94 22.61L93.54 22.32L94.25 21.2C96.55 22.56 97.68 23.92 97.51 25.54C97.4394 26.1693 97.1239 26.7457 96.6318 27.1443C96.1396 27.5429 95.5103 27.7317 94.88 27.67C94.5272 27.6861 94.1757 27.6162 93.8558 27.4664C93.536 27.3166 93.2573 27.0913 93.0438 26.8099C92.8303 26.5285 92.6884 26.1995 92.6302 25.8511C92.5721 25.5027 92.5995 25.1454 92.71 24.8099C92.9507 23.9809 93.394 23.2248 94 22.61ZM95 26.29C95.82 26.29 96.42 25.9399 96.47 25.3799C96.52 24.8199 96 24 94.94 23.25C94.3523 23.7065 93.9421 24.3536 93.78 25.08C93.69 25.77 94.09 26.25 95 26.29Z" fill="#013B81"/>
<path d="M101.13 26.3299C101.447 26.3717 101.769 26.3392 102.071 26.2351C102.373 26.1309 102.646 25.958 102.87 25.7299C103.09 25.2099 102.53 23.8399 100.2 22.1699L100.9 20.9299C103.28 22.6899 104.54 24.8199 103.9 26.3499C103.64 26.7986 103.257 27.1633 102.796 27.4008C102.335 27.6383 101.816 27.7387 101.3 27.6899C100.213 27.7216 99.1504 27.3673 98.3 26.6899L98.87 25.6899C99.5504 26.1065 100.332 26.3279 101.13 26.3299Z" fill="#013B81"/>
<path d="M105.35 19.9199L106.59 19.6499C106.875 22.3272 106.921 25.0244 106.73 27.7099L105.52 27.5699C105.692 25.0199 105.635 22.4597 105.35 19.9199Z" fill="#013B81"/>
<path d="M110.89 26.3299C111.207 26.3717 111.529 26.3392 111.831 26.2351C112.133 26.1309 112.406 25.958 112.63 25.7299C112.85 25.2099 112.29 23.8399 109.96 22.1699L110.66 20.9299C113.04 22.6899 114.3 24.8199 113.66 26.3499C113.397 26.8105 113.005 27.1839 112.532 27.4238C112.06 27.6638 111.527 27.7598 111 27.6999C109.913 27.7316 108.85 27.3773 108 26.6999L108.57 25.6999C109.269 26.1237 110.073 26.342 110.89 26.3299Z" fill="#013B81"/>
<path d="M136.48 28.7498L131.48 25.8098C131.379 25.7538 131.265 25.7244 131.15 25.7244C131.035 25.7244 130.921 25.7538 130.82 25.8098L125.67 28.8098C125.579 28.8712 125.505 28.9539 125.454 29.0506C125.402 29.1474 125.375 29.2553 125.375 29.3648C125.375 29.4744 125.402 29.5822 125.454 29.679C125.505 29.7758 125.579 29.8584 125.67 29.9198L130.61 32.8498C130.712 32.9137 130.83 32.9476 130.95 32.9476C131.07 32.9476 131.188 32.9137 131.29 32.8498L136.46 29.8498C136.551 29.7884 136.625 29.7058 136.676 29.609C136.728 29.5122 136.755 29.4044 136.755 29.2948C136.755 29.1853 136.728 29.0774 136.676 28.9806C136.625 28.8839 136.551 28.8012 136.46 28.7398L136.48 28.7498Z" fill="#961B1E"/>
<path d="M149.95 8.31997C149.895 8.22192 149.816 8.13938 149.72 8.07997L144.6 5.07997C144.5 5.02629 144.388 4.99847 144.275 4.99903C144.161 4.9996 144.05 5.02853 143.951 5.0832C143.851 5.13787 143.767 5.21653 143.706 5.31203C143.645 5.40753 143.608 5.51683 143.6 5.62997V17.8C143.596 17.911 143.565 18.0194 143.509 18.1154C143.454 18.2114 143.375 18.292 143.28 18.35L138.38 21.26C138.289 21.3213 138.215 21.404 138.164 21.5008C138.112 21.5975 138.085 21.7054 138.085 21.815C138.085 21.9245 138.112 22.0324 138.164 22.1292C138.215 22.2259 138.289 22.3086 138.38 22.37L143.38 25.37C143.482 25.4339 143.6 25.4678 143.72 25.4678C143.84 25.4678 143.958 25.4339 144.06 25.37L149.72 22C149.815 21.942 149.894 21.8614 149.949 21.7654C150.005 21.6694 150.036 21.561 150.04 21.45V8.62997C150.036 8.52085 150.005 8.41443 149.95 8.31997Z" fill="#013B81"/>
<path d="M129.33 24.5499C129.383 24.4584 129.414 24.3556 129.42 24.2499V11.5399C129.424 11.4289 129.455 11.3205 129.511 11.2245C129.566 11.1285 129.645 11.0478 129.74 10.9899L134.8 7.98988C134.9 7.93338 135.012 7.90332 135.126 7.90254C135.241 7.90177 135.353 7.93032 135.454 7.98546C135.554 8.04061 135.638 8.12052 135.699 8.21757C135.76 8.31462 135.794 8.42559 135.8 8.53988V19.7199C135.808 19.833 135.845 19.9423 135.906 20.0378C135.967 20.1333 136.051 20.212 136.151 20.2667C136.25 20.3213 136.361 20.3503 136.475 20.3508C136.588 20.3514 136.7 20.3236 136.8 20.2699L141.9 17.2699C141.995 17.2136 142.074 17.1331 142.129 17.0365C142.183 16.9399 142.211 16.8307 142.21 16.7199V3.99988C142.208 3.88979 142.178 3.78201 142.124 3.68608C142.07 3.59015 141.993 3.50902 141.9 3.44988L136.11 0.089882C136.007 0.0301996 135.889 -0.0012207 135.77 -0.0012207C135.651 -0.0012207 135.533 0.0301996 135.43 0.089882L123.35 7.18988C123.255 7.24785 123.176 7.32846 123.121 7.42447C123.065 7.52048 123.034 7.62886 123.03 7.73988V27.2599C123.038 27.373 123.075 27.4823 123.136 27.5778C123.197 27.6733 123.281 27.752 123.381 27.8067C123.48 27.8613 123.591 27.8903 123.705 27.8908C123.818 27.8914 123.93 27.8636 124.03 27.8099L129.13 24.8099C129.217 24.7408 129.286 24.6516 129.33 24.5499Z" fill="#013B81"/>
</g>
<defs>
<clipPath id="clip0_1773_86308">
<rect width="150.04" height="33" fill="white"/>
</clipPath>
</defs>
</svg>
