<svg width="292" height="106" viewBox="0 0 292 106" fill="none" xmlns="http://www.w3.org/2000/svg">
<g clip-path="url(#clip0_266_57622)">
<path d="M94.9461 28.0449L92.3203 30.5247L94.9461 32.9983L97.3153 30.7609L99.691 32.9983L102.31 30.5247L99.691 28.0449L97.3153 30.2886L94.9461 28.0449Z" fill="#961B1E"/>
<path d="M139.467 24.1848H139.546L139.625 24.2159C141.091 24.6453 142.617 24.8673 144.152 24.8747C145.505 24.9026 146.849 24.6678 148.101 24.1848L148.193 24.1475L148.285 24.1848C148.814 24.4099 149.368 24.5767 149.937 24.682C150.68 24.8076 151.433 24.8659 152.188 24.856C153.536 24.9298 154.862 24.5065 155.886 23.6752C156.343 23.2282 156.696 22.6961 156.923 22.1128C157.15 21.5295 157.245 20.908 157.203 20.288C157.194 19.0665 156.972 17.8548 156.544 16.7019C156.13 15.5544 155.545 14.4684 154.807 13.4763L154.715 13.352L151.938 15.0922L152.03 15.2289C152.521 15.9303 152.967 16.6588 153.366 17.4104C153.754 18.1127 154.083 18.7715 154.346 19.3682C154.463 19.6185 154.537 19.8851 154.564 20.1575C154.571 20.221 154.557 20.2851 154.523 20.3401C154.488 20.3951 154.435 20.438 154.373 20.462C153.613 20.6833 152.817 20.7717 152.023 20.723C151.451 20.7333 150.88 20.7042 150.312 20.636C150.049 20.6131 149.801 20.5082 149.608 20.3377C149.456 20.1259 149.382 19.8724 149.398 19.6168L149.338 15.1917H146.383L146.344 19.5795C146.366 19.8418 146.316 20.105 146.199 20.3439C146.077 20.5054 145.893 20.6148 145.686 20.6485C145.238 20.7227 144.784 20.754 144.33 20.7417C143.81 20.7417 143.317 20.7417 142.836 20.7106C142.675 20.7189 142.514 20.6962 142.362 20.6439C142.211 20.5915 142.072 20.5106 141.954 20.4061C141.872 20.3149 141.811 20.209 141.774 20.0946C141.736 19.9803 141.724 19.86 141.737 19.7411L142.566 15.0238L139.651 14.5266L138.789 18.9704C138.724 19.3372 138.609 19.6944 138.447 20.0332C138.356 20.2162 138.2 20.3634 138.006 20.4496C137.722 20.5287 137.427 20.5665 137.131 20.5614H136.473C136.14 20.5664 135.808 20.5309 135.485 20.4558C135.263 20.3954 135.07 20.2635 134.939 20.0829C134.755 19.7845 134.634 19.4552 134.584 19.1133C134.368 18.1214 134.016 17.1604 133.537 16.2544C133.068 15.3558 132.394 14.5663 131.563 13.9424C130.718 13.3153 129.67 12.9818 128.595 12.9977C127.782 12.9748 126.981 13.192 126.305 13.6192C125.646 14.0793 125.1 14.6688 124.706 15.347C124.197 16.2103 123.772 17.1152 123.436 18.0506C123.24 18.6222 122.947 19.1596 122.567 19.6416C122.277 19.9795 121.884 20.2247 121.442 20.3439C121.225 20.3977 121.006 20.4372 120.784 20.462H99.9811C98.4148 20.462 98.2108 19.6416 98.2108 19.6354L98.1779 19.4862C97.8865 17.8733 97.4887 16.2792 96.9867 14.7131V14.5888L94.0187 14.7566L94.9796 19.4241C95.0387 19.6863 95.0783 19.9522 95.098 20.2196L94.8743 20.288H95.098L95.1309 20.4744H94.9401C94.8072 20.5083 94.6696 20.523 94.532 20.5179H90.8467V20.3315C90.6824 19.3114 90.3747 18.3165 89.932 17.3731C89.488 16.4263 88.8111 15.5932 87.9577 14.9431C87.0999 14.3305 86.0445 14.0165 84.9699 14.0543C84.0432 14.0595 83.1423 14.3424 82.3968 14.8623C81.5588 15.4329 80.8811 16.1881 80.4225 17.0624C79.9348 17.9804 79.6824 18.9937 79.6854 20.0207C79.6672 21.2058 80.073 22.3621 80.8371 23.3023C81.6334 24.278 82.9956 24.7566 84.9238 24.7566H87.9116L87.6549 25.0984C87.3281 25.5164 86.9274 25.8781 86.4704 26.1674C84.8778 27.2364 82.4231 28.2059 79.1721 29.0698L79.001 29.1133L80.4027 32.9977L80.5607 32.9605C84.3316 31.9536 87.0956 30.4744 88.7737 28.4981C89.6713 27.4535 90.3099 26.2324 90.6427 24.9244L90.6888 24.7566H92.7025C93.9399 24.7456 95.1661 24.5354 96.3286 24.1351L96.401 24.104L96.6577 23.9859L96.7564 23.9238L96.8683 23.9735L97.1908 24.104C98.7209 24.5422 100.318 24.7334 101.916 24.6696H120.343C120.922 24.6696 122.903 24.5204 124.021 23.1593L124.074 23.091C124.166 22.9709 124.252 22.8465 124.331 22.7181L124.462 22.4881L124.673 22.6497C125.207 23.0482 125.78 23.3978 126.384 23.6938C127.174 24.0978 128.008 24.4208 128.872 24.6572C130.55 25.1109 131.965 25.1481 132.82 24.6199C133.142 24.4241 133.416 24.1655 133.623 23.8616L133.755 23.6628L133.952 23.8057L134.136 23.9238L134.235 23.9797C135.089 24.4537 136.061 24.7027 137.052 24.7007C137.886 24.6859 138.707 24.5104 139.467 24.1848ZM87.6484 20.636C86.9376 20.6733 86.3322 20.692 85.8123 20.692C84.8781 20.7425 83.9422 20.6243 83.0548 20.3439C82.8358 20.2869 82.6425 20.1636 82.5047 19.993C82.3668 19.8224 82.2919 19.6138 82.2915 19.3992C82.2966 19.1259 82.3759 18.8584 82.5218 18.6224C82.6877 18.3429 82.9372 18.1159 83.2391 17.9698C83.611 17.7894 84.0256 17.7017 84.4434 17.715C84.8537 17.7121 85.2602 17.7883 85.6382 17.939C86.0161 18.0897 86.3575 18.3116 86.6415 18.5913C87.1858 19.0906 87.5984 19.7037 87.8458 20.3812L87.9511 20.6547L87.6484 20.636ZM131.385 20.9592C130.796 20.9314 130.214 20.8269 129.655 20.6485C128.906 20.434 128.178 20.1617 127.476 19.8343C126.939 19.589 126.428 19.2955 125.95 18.958L125.818 18.8523L125.884 18.7032C126.071 18.2338 126.365 17.8094 126.746 17.4601C127.178 17.1039 127.74 16.921 128.312 16.9505C128.862 16.9486 129.403 17.0859 129.878 17.3483C130.385 17.6143 130.832 17.9711 131.195 18.3986C131.542 18.801 131.826 19.249 132.037 19.7286C132.131 19.9608 132.18 20.2072 132.182 20.4558C132.182 20.7914 131.938 20.9592 131.385 20.9592Z" fill="#961B1E"/>
<path d="M164.211 19.327C163.711 17.7363 163.104 16.1774 162.395 14.6595L162.336 14.5352H162.296L158.631 16.6731C160.157 19.1032 160.848 20.1473 161.408 21.5146L161.631 22.1361V22.1921C162.441 24.6284 161.177 26.0019 160.355 26.5985C158.334 27.704 156.162 28.5406 153.899 29.0846L153.721 29.1343L155.301 33.0125L155.439 32.9814C156.491 32.7352 157.521 32.411 158.519 32.0118C159.478 31.6266 160.397 31.1563 161.263 30.6072C162.418 29.8899 163.38 28.9281 164.073 27.7981C164.717 26.6508 165.038 25.367 165.008 24.069C164.973 22.4614 164.705 20.8659 164.211 19.327Z" fill="#961B1E"/>
</g>
<path d="M188.282 35.42L194.916 39.3408C195.035 39.4237 195.132 39.534 195.199 39.6624C195.266 39.7908 195.301 39.9334 195.301 40.0782C195.301 40.223 195.266 40.3656 195.199 40.494C195.132 40.6224 195.035 40.7327 194.916 40.8156L188.02 44.8713C187.886 44.9559 187.73 45.0008 187.57 45.0008C187.411 45.0008 187.255 44.9559 187.12 44.8713L180.53 40.9595C180.412 40.8766 180.315 40.7663 180.248 40.6379C180.181 40.5095 180.146 40.3669 180.146 40.2221C180.146 40.0773 180.181 39.9346 180.248 39.8063C180.315 39.6779 180.412 39.5676 180.53 39.4847L187.399 35.42C187.534 35.3444 187.686 35.3047 187.84 35.3047C187.995 35.3047 188.147 35.3444 188.282 35.42Z" fill="#961B1E"/>
<path d="M204.456 8.54721V24.7339C204.452 24.8821 204.411 25.027 204.337 25.1556C204.263 25.2843 204.159 25.3927 204.033 25.4713L197.497 29.3561C197.378 29.4389 197.281 29.5492 197.214 29.6776C197.147 29.806 197.112 29.9487 197.112 30.0935C197.112 30.2382 197.147 30.3809 197.214 30.5093C197.281 30.6377 197.378 30.748 197.497 30.8308L204.177 34.7786C204.312 34.8632 204.468 34.9081 204.627 34.9081C204.786 34.9081 204.942 34.8632 205.077 34.7786L212.576 30.3362C212.702 30.2577 212.807 30.1493 212.881 30.0206C212.954 29.892 212.995 29.7471 212.999 29.5989V12.5129C212.995 12.3647 212.954 12.2198 212.881 12.0912C212.807 11.9625 212.702 11.8541 212.576 11.7756L205.752 7.80982C205.62 7.74467 205.474 7.71286 205.327 7.71719C205.18 7.72151 205.036 7.76183 204.908 7.83461C204.78 7.9074 204.672 8.01043 204.593 8.13466C204.515 8.2589 204.467 8.40056 204.456 8.54721Z" fill="#013B81"/>
<path d="M185.517 33.3319V16.3899C185.521 16.2417 185.562 16.0968 185.636 15.9681C185.71 15.8395 185.814 15.731 185.94 15.6525L192.692 11.6598C192.824 11.5946 192.97 11.5628 193.117 11.5672C193.265 11.5715 193.408 11.6118 193.536 11.6846C193.664 11.7574 193.772 11.8604 193.851 11.9846C193.93 12.1089 193.977 12.2505 193.988 12.3972V27.2979C194 27.4446 194.047 27.5862 194.126 27.7105C194.205 27.8347 194.313 27.9377 194.441 28.0105C194.569 28.0833 194.712 28.1236 194.86 28.1279C195.007 28.1323 195.153 28.1005 195.285 28.0353L202.091 24.0066C202.218 23.9308 202.324 23.8228 202.397 23.6934C202.469 23.5639 202.507 23.4176 202.505 23.2692V6.35417C202.502 6.20676 202.462 6.06241 202.39 5.93382C202.318 5.80523 202.215 5.69636 202.091 5.61677L194.43 1.12048C194.293 1.04155 194.137 1 193.979 1C193.821 1 193.666 1.04155 193.529 1.12048L177.424 10.5897C177.298 10.6682 177.194 10.7766 177.12 10.9053C177.046 11.0339 177.005 11.1788 177.001 11.3271V37.3426C177.012 37.4893 177.059 37.631 177.138 37.7552C177.217 37.8794 177.325 37.9825 177.453 38.0552C177.581 38.128 177.725 38.1683 177.872 38.1727C178.019 38.177 178.165 38.1452 178.297 38.08L185.103 34.0244C185.221 33.9491 185.32 33.8474 185.392 33.7271C185.464 33.6069 185.507 33.4716 185.517 33.3319Z" fill="#013B81"/>
<path d="M0.884766 72.926C1.4821 72.7207 2.02343 72.45 2.50877 72.114C2.9941 71.778 3.3721 71.4187 3.64277 71.036C3.92277 70.6533 4.06277 70.294 4.06277 69.958C4.06277 69.482 3.82477 68.3153 3.34877 66.458L4.42677 66.052C4.6321 66.7147 4.8001 67.4147 4.93077 68.152C5.07077 68.8893 5.14077 69.4913 5.14077 69.958C5.14077 70.5087 4.97743 71.0453 4.65077 71.568C4.3241 72.1 3.87143 72.576 3.29277 72.996C2.72343 73.4253 2.07943 73.766 1.36077 74.018L0.884766 72.926ZM6.11727 72.898C7.6106 72.5713 8.7166 72.128 9.43527 71.568C10.1539 71.0173 10.5133 70.322 10.5133 69.482C10.5133 68.9407 10.4433 68.3993 10.3033 67.858C10.1633 67.3073 9.95327 66.85 9.67327 66.486C9.4026 66.1127 9.0806 65.912 8.70727 65.884C8.50193 65.8747 8.30127 65.9587 8.10527 66.136C7.90927 66.3133 7.7506 66.542 7.62927 66.822C7.50793 67.102 7.44727 67.368 7.44727 67.62C7.44727 67.8253 7.48927 67.998 7.57327 68.138C7.7226 68.3807 8.0726 68.544 8.62327 68.628C9.17393 68.7027 9.88327 68.74 10.7513 68.74H11.9833L12.0533 69.37L11.9833 70L10.2893 70.014C9.33727 70.014 8.55793 69.9347 7.95127 69.776C7.3446 69.6173 6.91993 69.3047 6.67727 68.838C6.52793 68.5393 6.45327 68.1893 6.45327 67.788C6.45327 67.3027 6.55593 66.8173 6.76127 66.332C6.97593 65.8467 7.25593 65.4453 7.60127 65.128C7.95593 64.8107 8.33393 64.652 8.73527 64.652C9.28593 64.652 9.77127 64.8947 10.1913 65.38C10.6113 65.8653 10.9333 66.4767 11.1573 67.214C11.3813 67.942 11.4933 68.6607 11.4933 69.37C11.4933 70.5273 11.0499 71.512 10.1633 72.324C9.28593 73.136 8.0586 73.7007 6.48127 74.018L6.11727 72.898ZM19.619 68.74H19.647C19.9923 68.74 20.305 68.642 20.585 68.446C20.8743 68.25 21.033 68.026 21.061 67.774L21.831 67.914C21.7936 68.306 21.6676 68.6607 21.453 68.978C21.2476 69.2953 20.9863 69.5473 20.669 69.734C20.3516 69.9113 20.011 70 19.647 70H19.619V68.74ZM23.217 68.74L23.287 69.37L23.217 70H23.147C22.6336 70 22.181 69.8553 21.789 69.566C21.397 69.2767 21.1123 68.8613 20.935 68.32C20.8416 68.0493 20.669 67.256 20.417 65.94L21.439 65.674C21.6443 66.8313 21.803 67.5687 21.915 67.886C22.0083 68.1753 22.153 68.39 22.349 68.53C22.5543 68.67 22.8203 68.74 23.147 68.74H23.217ZM15.839 70V68.74H15.881C16.4036 68.74 16.8516 68.4133 17.225 67.76C17.3463 67.536 17.4396 67.27 17.505 66.962C17.5796 66.654 17.6496 66.3133 17.715 65.94L18.751 65.996C18.7416 66.0333 18.709 66.206 18.653 66.514C18.597 66.822 18.569 67.1207 18.569 67.41C18.569 67.858 18.653 68.194 18.821 68.418C18.9983 68.6327 19.2736 68.74 19.647 68.74H19.675L19.745 69.37L19.675 70H19.647C19.1056 70 18.6716 69.8413 18.345 69.524C18.0276 69.1973 17.8363 68.7447 17.771 68.166L17.995 68.152C17.799 68.684 17.5096 69.1273 17.127 69.482C16.7536 69.8273 16.3336 70 15.867 70H15.839ZM11.835 70L11.765 69.37L11.835 68.74H11.905C12.2503 68.74 12.577 68.6607 12.885 68.502C13.193 68.3433 13.431 68.1333 13.599 67.872C13.7763 67.62 13.9116 67.354 14.005 67.074C14.1076 66.794 14.2103 66.4627 14.313 66.08L15.363 66.192C15.3443 66.248 15.307 66.388 15.251 66.612C15.195 66.836 15.1483 67.046 15.111 67.242C15.083 67.438 15.069 67.6153 15.069 67.774C15.069 68.418 15.3303 68.74 15.853 68.74H15.881L15.951 69.37L15.881 70H15.839C15.4096 70 15.0503 69.874 14.761 69.622C14.481 69.3607 14.313 69.0107 14.257 68.572C13.9676 69.0387 13.6223 69.3933 13.221 69.636C12.8196 69.8787 12.3763 70 11.891 70H11.835ZM18.401 61.11L19.241 61.964L18.401 62.804L17.561 61.964L18.401 61.11ZM19.689 62.538L20.641 63.49L19.689 64.428C19.381 64.1107 19.0683 63.798 18.751 63.49L19.689 62.538ZM17.113 62.538L18.065 63.49L17.113 64.428C16.805 64.1107 16.4923 63.798 16.175 63.49L17.113 62.538ZM29.3869 61.054L25.0049 62.958C25.7516 63.5927 26.4096 64.3253 26.9789 65.156C27.5576 65.9773 27.8469 66.7427 27.8469 67.452C27.8469 67.6947 27.8049 67.928 27.7209 68.152C27.4969 68.7773 27.0162 69.244 26.2789 69.552C25.5416 69.8507 24.5849 70 23.4089 70H23.0589V68.74H23.4089C25.6396 68.74 26.7549 68.278 26.7549 67.354C26.7549 66.878 26.4889 66.2947 25.9569 65.604C25.4342 64.9133 24.7016 64.1853 23.7589 63.42L23.9129 62.23L29.0229 60.018L29.3869 61.054ZM38.2779 73.906C37.4752 73.906 36.7612 73.7473 36.1359 73.43C35.5199 73.122 35.0346 72.6787 34.6799 72.1C34.3252 71.5213 34.1479 70.8447 34.1479 70.07C34.1479 69.5007 34.2412 68.8987 34.4279 68.264C34.6146 67.6293 34.8292 67.0693 35.0719 66.584L36.0239 67.032C35.5012 68.1333 35.2399 69.0947 35.2399 69.916C35.2399 70.8027 35.5012 71.4793 36.0239 71.946C36.5466 72.4127 37.2979 72.646 38.2779 72.646C38.8472 72.646 39.3839 72.5713 39.8879 72.422C40.4012 72.2727 40.8212 72.086 41.1479 71.862C41.4746 71.6473 41.6612 71.456 41.7079 71.288C41.6612 71.1853 41.4979 71.022 41.2179 70.798C40.9472 70.5833 40.6066 70.3547 40.1959 70.112C39.7852 69.8693 39.3606 69.6593 38.9219 69.482L39.1879 68.292C40.6346 68.5907 41.8386 68.74 42.7999 68.74H43.1359L43.2059 69.37L43.1359 70H42.7999C42.1746 70 41.5726 69.958 40.9939 69.874C40.4152 69.7807 39.7292 69.65 38.9359 69.482L39.2159 68.67L39.4959 68.796C40.4292 69.2067 41.2086 69.6127 41.8339 70.014C42.4686 70.4247 42.7859 70.8587 42.7859 71.316C42.7859 71.7453 42.5759 72.156 42.1559 72.548C41.7452 72.9493 41.1899 73.276 40.4899 73.528C39.7992 73.78 39.0619 73.906 38.2779 73.906ZM42.8831 68.74H43.1631C43.9471 68.74 44.5678 68.306 45.0251 67.438C45.4825 66.598 45.9071 65.954 46.2991 65.506C46.6911 65.0487 47.1345 64.806 47.6291 64.778C48.7025 64.722 49.4305 65.4593 49.8131 66.99C49.9625 67.6153 50.1211 68.0633 50.2891 68.334C50.4571 68.6047 50.6905 68.74 50.9891 68.74H51.1151L51.1851 69.37L51.1151 70H50.9891C50.2985 70 49.8505 69.6173 49.6451 68.852C49.6171 69.076 49.5191 69.286 49.3511 69.482C49.1925 69.678 49.0151 69.8273 48.8191 69.93C48.6605 70.0233 48.4645 70.07 48.2311 70.07C47.5591 70.07 46.6118 69.6733 45.3891 68.88C45.1091 69.244 44.7731 69.524 44.3811 69.72C43.9985 69.9067 43.5831 70 43.1351 70H42.8831V68.74ZM45.9491 67.872C46.4718 68.236 46.9525 68.5113 47.3911 68.698C47.8391 68.8753 48.1938 68.964 48.4551 68.964C48.5485 68.964 48.6231 68.95 48.6791 68.922C48.8845 68.726 48.9871 68.4087 48.9871 67.97C48.9871 67.662 48.9311 67.3493 48.8191 67.032C48.7165 66.7147 48.5671 66.4533 48.3711 66.248C48.1845 66.0333 47.9698 65.926 47.7271 65.926C47.4471 65.926 47.1578 66.0987 46.8591 66.444C46.5698 66.7893 46.2665 67.2653 45.9491 67.872ZM58.8169 68.74C59.5169 68.74 59.8669 68.3527 59.8669 67.578C59.8669 67.2607 59.7735 66.8173 59.5869 66.248C59.4095 65.6693 59.2509 65.2307 59.1109 64.932L60.1049 64.386C60.2915 64.778 60.4782 65.2913 60.6649 65.926C60.8515 66.5513 60.9449 67.102 60.9449 67.578C60.9449 68.0353 60.8515 68.4507 60.6649 68.824C60.4875 69.188 60.2355 69.4773 59.9089 69.692C59.5915 69.8973 59.2275 70 58.8169 70H58.7889V68.74H58.8169ZM55.0089 70V68.74H55.0509C55.5735 68.74 56.0215 68.4133 56.3949 67.76C56.5162 67.536 56.6095 67.27 56.6749 66.962C56.7495 66.654 56.8195 66.3133 56.8849 65.94L57.9209 65.996C57.9115 66.0333 57.8789 66.206 57.8229 66.514C57.7669 66.822 57.7389 67.1207 57.7389 67.41C57.7389 67.858 57.8229 68.194 57.9909 68.418C58.1682 68.6327 58.4435 68.74 58.8169 68.74H58.8449L58.9149 69.37L58.8449 70H58.8169C58.2755 70 57.8415 69.8413 57.5149 69.524C57.1975 69.1973 57.0062 68.7447 56.9409 68.166L57.1649 68.152C56.9689 68.684 56.6795 69.1273 56.2969 69.482C55.9235 69.8273 55.5035 70 55.0369 70H55.0089ZM51.0049 70L50.9349 69.37L51.0049 68.74H51.0749C51.4202 68.74 51.7469 68.6607 52.0549 68.502C52.3629 68.3433 52.6009 68.1333 52.7689 67.872C52.9462 67.62 53.0815 67.354 53.1749 67.074C53.2775 66.794 53.3802 66.4627 53.4829 66.08L54.5329 66.192C54.5142 66.248 54.4769 66.388 54.4209 66.612C54.3649 66.836 54.3182 67.046 54.2809 67.242C54.2529 67.438 54.2389 67.6153 54.2389 67.774C54.2389 68.418 54.5002 68.74 55.0229 68.74H55.0509L55.1209 69.37L55.0509 70H55.0089C54.5795 70 54.2202 69.874 53.9309 69.622C53.6509 69.3607 53.4829 69.0107 53.4269 68.572C53.1375 69.0387 52.7922 69.3933 52.3909 69.636C51.9895 69.8787 51.5462 70 51.0609 70H51.0049ZM60.4395 72.926C61.0368 72.7207 61.5781 72.45 62.0635 72.114C62.5488 71.778 62.9268 71.4187 63.1975 71.036C63.4775 70.6533 63.6175 70.294 63.6175 69.958C63.6175 69.482 63.3795 68.3153 62.9035 66.458L63.9815 66.052C64.1868 66.7147 64.3548 67.4147 64.4855 68.152C64.6255 68.8893 64.6955 69.4913 64.6955 69.958C64.6955 70.5087 64.5321 71.0453 64.2055 71.568C63.8788 72.1 63.4261 72.576 62.8475 72.996C62.2781 73.4253 61.6341 73.766 60.9155 74.018L60.4395 72.926ZM72.5825 66.36C72.0598 67.4613 71.7985 68.4227 71.7985 69.244C71.7985 70.1307 72.0598 70.8073 72.5825 71.274C73.1052 71.7407 73.8565 71.974 74.8365 71.974C75.4898 71.974 76.0638 71.8713 76.5585 71.666C77.0625 71.47 77.4638 71.218 77.7625 70.91C78.0612 70.602 78.2618 70.2893 78.3645 69.972C78.3832 69.9067 78.2712 69.8273 78.0285 69.734C77.7952 69.6313 77.3565 69.4867 76.7125 69.3C75.9752 69.0947 75.4618 68.8753 75.1725 68.642C74.8832 68.3993 74.7385 68.0447 74.7385 67.578C74.7385 66.8873 74.9158 66.234 75.2705 65.618C75.6252 65.002 76.0918 64.5073 76.6705 64.134C77.2492 63.7607 77.8652 63.574 78.5185 63.574C78.7705 63.574 79.0178 63.6067 79.2605 63.672C79.5032 63.728 79.6898 63.8027 79.8205 63.896L79.4425 65.002C79.1905 64.89 78.8825 64.834 78.5185 64.834C78.0425 64.834 77.5992 64.96 77.1885 65.212C76.7778 65.464 76.4465 65.7813 76.1945 66.164C75.9518 66.5467 75.8305 66.9153 75.8305 67.27C75.8305 67.4473 75.9285 67.6013 76.1245 67.732C76.3298 67.8627 76.7358 68.0167 77.3425 68.194C77.9398 68.3713 78.3832 68.5253 78.6725 68.656C78.9712 68.7867 79.1765 68.9313 79.2885 69.09C79.4005 69.2393 79.4565 69.4353 79.4565 69.678C79.4565 70.2473 79.2558 70.8073 78.8545 71.358C78.4625 71.9087 77.9118 72.3567 77.2025 72.702C76.5025 73.0567 75.7138 73.234 74.8365 73.234C74.0338 73.234 73.3198 73.0753 72.6945 72.758C72.0785 72.45 71.5932 72.0067 71.2385 71.428C70.8838 70.8493 70.7065 70.1727 70.7065 69.398C70.7065 68.8287 70.7998 68.2267 70.9865 67.592C71.1732 66.9573 71.3878 66.3973 71.6305 65.912L72.5825 66.36ZM82.5277 60.256C82.6024 60.732 82.6584 61.5673 82.6957 62.762C82.7424 63.9473 82.7657 65.0253 82.7657 65.996V66.584L82.7517 67.074C82.7517 67.5127 82.7891 67.8487 82.8637 68.082C82.9384 68.306 83.0784 68.474 83.2837 68.586C83.4984 68.6887 83.8157 68.74 84.2357 68.74H84.3057L84.3757 69.37L84.3057 70H84.2357C83.5731 70 83.0551 69.8927 82.6817 69.678C82.3084 69.454 82.0424 69.1227 81.8837 68.684C81.7344 68.2453 81.6597 67.6667 81.6597 66.948C81.6597 65.884 81.6364 64.68 81.5897 63.336C81.5524 61.9827 81.4917 61.0353 81.4077 60.494L82.5277 60.256ZM84.2002 68.74H84.3962C85.8895 68.74 86.9909 68.6 87.7002 68.32C88.4095 68.04 88.8109 67.5967 88.9042 66.99C88.9135 66.934 88.9182 66.8547 88.9182 66.752C88.9182 66.3413 88.8062 65.982 88.5822 65.674C88.3675 65.366 88.0782 65.212 87.7142 65.212C87.4902 65.212 87.2662 65.2913 87.0422 65.45C86.8275 65.6087 86.6502 65.814 86.5102 66.066C86.3702 66.3087 86.3002 66.5467 86.3002 66.78C86.3002 67.1533 86.5009 67.508 86.9022 67.844C87.3035 68.1707 87.7982 68.432 88.3862 68.628C88.9835 68.824 89.5482 68.922 90.0802 68.922C90.4722 68.922 90.7989 68.8613 91.0602 68.74C91.3309 68.6187 91.5082 68.4367 91.5922 68.194C91.6202 68.1193 91.6342 68.04 91.6342 67.956C91.6342 67.6293 91.4429 67.2793 91.0602 66.906C90.6869 66.5327 90.0709 66.1453 89.2122 65.744C88.3535 65.3427 87.2429 64.9553 85.8802 64.582L86.3142 63.406C87.9849 63.9753 89.2822 64.5073 90.2062 65.002C91.1395 65.4967 91.7789 65.9633 92.1242 66.402C92.4789 66.8407 92.6562 67.2887 92.6562 67.746C92.6562 67.9793 92.6049 68.2827 92.5022 68.656C92.3622 69.1133 92.0635 69.4587 91.6062 69.692C91.1489 69.916 90.5982 70.028 89.9542 70.028C89.2169 70.028 88.4749 69.888 87.7282 69.608C86.9815 69.328 86.3702 68.9453 85.8942 68.46C85.4275 67.9747 85.2175 67.438 85.2642 66.85C85.3015 66.3927 85.4462 65.9493 85.6982 65.52C85.9502 65.0907 86.2582 64.7453 86.6222 64.484C86.9955 64.2133 87.3735 64.078 87.7562 64.078C88.1389 64.078 88.4982 64.204 88.8342 64.456C89.1702 64.708 89.4362 65.0393 89.6322 65.45C89.8282 65.8607 89.9262 66.29 89.9262 66.738C89.9262 66.8313 89.9169 66.962 89.8982 67.13C89.7489 68.1567 89.2355 68.894 88.3582 69.342C87.4809 69.7807 86.1602 70 84.3962 70H84.2002V68.74ZM96.4593 65.044C95.3766 65.9493 94.8353 66.8033 94.8353 67.606C94.8353 67.97 94.9566 68.2593 95.1993 68.474C95.4419 68.6887 95.7966 68.796 96.2633 68.796C96.7019 68.796 97.0659 68.698 97.3553 68.502C97.6446 68.306 97.7939 68.0447 97.8033 67.718C97.8313 67.1767 97.6073 66.6493 97.1313 66.136C96.6646 65.6227 95.8853 65.0347 94.7933 64.372L95.4233 63.364C96.5899 64.0453 97.4533 64.722 98.0133 65.394C98.5733 66.066 98.8533 66.78 98.8533 67.536C98.8533 68.0213 98.7366 68.4553 98.5033 68.838C98.2699 69.2207 97.9526 69.5193 97.5513 69.734C97.1499 69.9393 96.7066 70.042 96.2213 70.042C95.7173 70.042 95.2786 69.944 94.9053 69.748C94.5413 69.5427 94.2613 69.272 94.0653 68.936C93.8693 68.5907 93.7713 68.208 93.7713 67.788C93.7713 67.564 93.7993 67.34 93.8553 67.116C94.0979 66.1453 94.7373 65.1793 95.7733 64.218L96.4593 65.044ZM100.22 68.124C100.257 68.1427 100.393 68.222 100.626 68.362C100.869 68.4927 101.172 68.6047 101.536 68.698C101.909 68.7913 102.301 68.838 102.712 68.838C103.216 68.838 103.627 68.768 103.944 68.628C104.271 68.4787 104.481 68.3153 104.574 68.138C104.621 68.026 104.644 67.9093 104.644 67.788C104.644 67.3493 104.401 66.808 103.916 66.164C103.44 65.5107 102.712 64.8247 101.732 64.106L102.362 63.014C103.398 63.798 104.205 64.61 104.784 65.45C105.372 66.2807 105.666 67.06 105.666 67.788C105.666 68.124 105.605 68.4273 105.484 68.698C105.297 69.1273 104.961 69.4587 104.476 69.692C103.991 69.9253 103.435 70.042 102.81 70.042C102.073 70.042 101.443 69.944 100.92 69.748C100.397 69.5427 99.9819 69.3093 99.6739 69.048L100.22 68.124ZM107.374 69.916C107.44 69.356 107.472 68.4087 107.472 67.074C107.472 65.8047 107.444 64.4933 107.388 63.14C107.342 61.7773 107.286 60.8953 107.22 60.494L108.34 60.256C108.396 60.6853 108.452 61.6233 108.508 63.07C108.574 64.5073 108.606 65.8747 108.606 67.172C108.606 68.4787 108.574 69.44 108.508 70.056L107.374 69.916ZM110.556 68.124C110.593 68.1427 110.729 68.222 110.962 68.362C111.205 68.4927 111.508 68.6047 111.872 68.698C112.245 68.7913 112.637 68.838 113.048 68.838C113.552 68.838 113.963 68.768 114.28 68.628C114.607 68.4787 114.817 68.3153 114.91 68.138C114.957 68.026 114.98 67.9093 114.98 67.788C114.98 67.3493 114.737 66.808 114.252 66.164C113.776 65.5107 113.048 64.8247 112.068 64.106L112.698 63.014C113.734 63.798 114.541 64.61 115.12 65.45C115.708 66.2807 116.002 67.06 116.002 67.788C116.002 68.124 115.941 68.4273 115.82 68.698C115.633 69.1273 115.297 69.4587 114.812 69.692C114.327 69.9253 113.771 70.042 113.146 70.042C112.409 70.042 111.779 69.944 111.256 69.748C110.733 69.5427 110.318 69.3093 110.01 69.048L110.556 68.124ZM131.509 68.74L131.579 69.37L131.509 70H131.355C130.935 70 130.561 69.8833 130.235 69.65C129.908 69.4073 129.656 69.076 129.479 68.656C129.311 68.2267 129.241 67.746 129.269 67.214L129.913 67.088C129.941 67.5267 130.001 67.8627 130.095 68.096C130.188 68.3293 130.328 68.4973 130.515 68.6C130.711 68.6933 130.991 68.74 131.355 68.74H131.509ZM129.549 60.256C129.642 61.208 129.787 64.05 129.983 68.782C130.039 70.2753 129.707 71.4373 128.989 72.268C128.279 73.0987 127.248 73.514 125.895 73.514C125.176 73.514 124.523 73.3647 123.935 73.066C123.356 72.7767 122.894 72.366 122.549 71.834C122.213 71.302 122.045 70.686 122.045 69.986C122.045 69.4913 122.133 68.936 122.311 68.32C122.488 67.704 122.703 67.1393 122.955 66.626L123.907 67.088C123.393 68.1333 123.137 69.0433 123.137 69.818C123.137 70.546 123.384 71.134 123.879 71.582C124.383 72.03 125.055 72.254 125.895 72.254C126.949 72.254 127.724 71.9693 128.219 71.4C128.713 70.8307 128.937 69.9767 128.891 68.838C128.723 64.61 128.573 61.8287 128.443 60.494L129.549 60.256ZM131.367 68.74H131.494C132.212 68.74 132.772 68.712 133.174 68.656C133.575 68.5907 133.869 68.4927 134.056 68.362C134.242 68.2313 134.378 68.054 134.462 67.83C134.518 67.662 134.546 67.4613 134.546 67.228C134.546 66.9293 134.49 66.416 134.378 65.688L135.414 65.492C135.526 66.08 135.586 66.8267 135.596 67.732C135.726 68.404 136.151 68.74 136.87 68.74H136.968L137.038 69.37L136.968 70H136.87C136.403 70 135.992 69.8647 135.638 69.594C135.292 69.314 135.05 68.9593 134.91 68.53L135.19 68.586C135.068 68.9407 134.868 69.2207 134.588 69.426C134.308 69.6313 133.92 69.7807 133.426 69.874C132.94 69.958 132.296 70 131.494 70H131.367V68.74ZM130.989 71.946L131.62 71.316L132.558 72.254L131.62 73.206L130.681 72.254L130.989 71.946ZM133.482 71.946L134.112 71.316L135.05 72.254L134.112 73.206L133.174 72.254L133.482 71.946ZM141.107 68.74L141.177 69.37L141.107 70H140.953C140.542 70 140.164 69.8833 139.819 69.65C139.473 69.4073 139.203 69.076 139.007 68.656C138.811 68.2267 138.717 67.746 138.727 67.214C138.736 66.9993 138.699 65.9447 138.615 64.05C138.54 62.1553 138.479 60.97 138.433 60.494L139.553 60.256C139.627 60.844 139.702 62.7713 139.777 66.038C139.805 66.626 139.819 67.0227 139.819 67.228C139.875 68.236 140.253 68.74 140.953 68.74H141.107ZM136.823 68.74H137.215C137.756 68.74 138.143 68.6187 138.377 68.376C138.619 68.1333 138.736 67.746 138.727 67.214L139.567 67.312C139.567 68.1333 139.366 68.7867 138.965 69.272C138.563 69.7573 137.985 70 137.229 70H136.823V68.74ZM151.703 68.74L151.773 69.37L151.703 70H151.563C150.639 69.9907 149.902 69.7993 149.351 69.426C148.81 69.0527 148.446 68.4833 148.259 67.718L148.987 67.186C149.09 67.6433 149.365 68.0167 149.813 68.306C150.27 68.586 150.854 68.7307 151.563 68.74H151.703ZM140.951 68.74H142.239C143.406 68.74 144.493 68.6 145.501 68.32C146.518 68.0307 147.536 67.6153 148.553 67.074C149.122 66.766 149.682 66.5327 150.233 66.374L150.275 66.878C149.743 66.878 149.234 66.8173 148.749 66.696C148.273 66.5747 147.778 66.3833 147.265 66.122C146.817 65.8887 146.416 65.7113 146.061 65.59C145.706 65.4687 145.356 65.408 145.011 65.408C144.619 65.408 144.264 65.5247 143.947 65.758C143.63 65.9913 143.392 66.2667 143.233 66.584L142.477 66.066C142.776 65.4593 143.144 65.002 143.583 64.694C144.022 64.3767 144.512 64.218 145.053 64.218C145.445 64.218 145.809 64.2833 146.145 64.414C146.49 64.5447 146.999 64.778 147.671 65.114C148.296 65.4313 148.786 65.6693 149.141 65.828C149.505 65.9773 149.916 66.0987 150.373 66.192L150.415 67.298C150.228 67.354 150.032 67.4287 149.827 67.522C149.631 67.6153 149.346 67.7647 148.973 67.97C147.713 68.6327 146.57 69.1367 145.543 69.482C144.526 69.8273 143.424 70 142.239 70H140.951V68.74ZM151.561 68.74H152.121C153.12 68.74 153.824 68.6467 154.235 68.46C154.646 68.264 154.851 67.9467 154.851 67.508C154.842 67.2187 154.744 66.78 154.557 66.192C154.38 65.5947 154.226 65.1653 154.095 64.904L155.103 64.372C155.29 64.736 155.472 65.2307 155.649 65.856C155.836 66.472 155.929 67.0087 155.929 67.466C155.929 68.2967 155.626 68.9267 155.019 69.356C154.412 69.7853 153.498 70 152.275 70H151.561V68.74ZM152.261 62.244L152.891 61.614L153.829 62.552L152.891 63.504L151.953 62.552L152.261 62.244ZM154.753 62.244L155.383 61.614L156.321 62.552L155.383 63.504L154.445 62.552L154.753 62.244ZM161.813 72.898C163.306 72.5713 164.412 72.128 165.131 71.568C165.849 71.0173 166.209 70.322 166.209 69.482C166.199 68.9313 166.125 68.3853 165.985 67.844C165.845 67.3027 165.639 66.85 165.369 66.486C165.098 66.1127 164.776 65.912 164.403 65.884C164.197 65.8747 163.997 65.9587 163.801 66.136C163.605 66.3133 163.446 66.542 163.325 66.822C163.203 67.102 163.143 67.368 163.143 67.62C163.143 67.8253 163.185 67.998 163.269 68.138C163.418 68.362 163.67 68.53 164.025 68.642C164.389 68.754 164.804 68.81 165.271 68.81C165.719 68.81 166.129 68.768 166.503 68.684V69.874C166.101 69.986 165.635 70.042 165.103 70.042C164.487 70.042 163.931 69.9487 163.437 69.762C162.942 69.566 162.587 69.258 162.373 68.838C162.223 68.5393 162.149 68.1893 162.149 67.788C162.149 67.3027 162.251 66.8173 162.457 66.332C162.671 65.8467 162.951 65.4453 163.297 65.128C163.651 64.8107 164.029 64.652 164.431 64.652C164.981 64.652 165.467 64.8947 165.887 65.38C166.307 65.8653 166.629 66.4767 166.853 67.214C167.077 67.942 167.189 68.6607 167.189 69.37C167.189 70.5273 166.745 71.512 165.859 72.324C164.981 73.136 163.754 73.7007 162.177 74.018L161.813 72.898ZM173.065 72.898C174.558 72.5713 175.664 72.128 176.383 71.568C177.101 71.0173 177.461 70.322 177.461 69.482C177.461 68.9407 177.391 68.3993 177.251 67.858C177.111 67.3073 176.901 66.85 176.621 66.486C176.35 66.1127 176.028 65.912 175.655 65.884C175.449 65.8747 175.249 65.9587 175.053 66.136C174.857 66.3133 174.698 66.542 174.577 66.822C174.455 67.102 174.395 67.368 174.395 67.62C174.395 67.8253 174.437 67.998 174.521 68.138C174.67 68.3807 175.02 68.544 175.571 68.628C176.121 68.7027 176.831 68.74 177.699 68.74H178.931L179.001 69.37L178.931 70L177.237 70.014C176.285 70.014 175.505 69.9347 174.899 69.776C174.292 69.6173 173.867 69.3047 173.625 68.838C173.475 68.5393 173.401 68.1893 173.401 67.788C173.401 67.3027 173.503 66.8173 173.709 66.332C173.923 65.8467 174.203 65.4453 174.549 65.128C174.903 64.8107 175.281 64.652 175.683 64.652C176.233 64.652 176.719 64.8947 177.139 65.38C177.559 65.8653 177.881 66.4767 178.105 67.214C178.329 67.942 178.441 68.6607 178.441 69.37C178.441 70.5273 177.997 71.512 177.111 72.324C176.233 73.136 175.006 73.7007 173.429 74.018L173.065 72.898ZM189.492 68.74L189.562 69.37L189.492 70H189.352C188.428 69.9907 187.691 69.7993 187.14 69.426C186.599 69.0527 186.235 68.4833 186.048 67.718L186.776 67.186C186.879 67.6433 187.154 68.0167 187.602 68.306C188.06 68.586 188.643 68.7307 189.352 68.74H189.492ZM178.74 68.74H180.028C181.195 68.74 182.282 68.6 183.29 68.32C184.308 68.0307 185.325 67.6153 186.342 67.074C186.912 66.766 187.472 66.5327 188.022 66.374L188.064 66.878C187.532 66.878 187.024 66.8173 186.538 66.696C186.062 66.5747 185.568 66.3833 185.054 66.122C184.606 65.8887 184.205 65.7113 183.85 65.59C183.496 65.4687 183.146 65.408 182.8 65.408C182.408 65.408 182.054 65.5247 181.736 65.758C181.419 65.9913 181.181 66.2667 181.022 66.584L180.266 66.066C180.565 65.4593 180.934 65.002 181.372 64.694C181.811 64.3767 182.301 64.218 182.842 64.218C183.234 64.218 183.598 64.2833 183.934 64.414C184.28 64.5447 184.788 64.778 185.46 65.114C186.086 65.4313 186.576 65.6693 186.93 65.828C187.294 65.9773 187.705 66.0987 188.162 66.192L188.204 67.298C188.018 67.354 187.822 67.4287 187.616 67.522C187.42 67.6153 187.136 67.7647 186.762 67.97C185.502 68.6327 184.359 69.1367 183.332 69.482C182.315 69.8273 181.214 70 180.028 70H178.74V68.74ZM182.38 72.114L182.716 71.778C183.155 71.3393 183.374 71.12 183.374 71.12C183.374 71.12 183.594 71.3393 184.032 71.778L184.368 72.114L183.374 73.108L182.38 72.114ZM189.35 68.74H189.476C190.195 68.74 190.755 68.712 191.156 68.656C191.557 68.5907 191.851 68.4927 192.038 68.362C192.225 68.2313 192.36 68.054 192.444 67.83C192.5 67.662 192.528 67.4613 192.528 67.228C192.528 66.9293 192.472 66.416 192.36 65.688L193.396 65.492C193.508 66.08 193.569 66.8267 193.578 67.732C193.709 68.404 194.133 68.74 194.852 68.74H194.95L195.02 69.37L194.95 70H194.852C194.385 70 193.975 69.8647 193.62 69.594C193.275 69.314 193.032 68.9593 192.892 68.53L193.172 68.586C193.051 68.9407 192.85 69.2207 192.57 69.426C192.29 69.6313 191.903 69.7807 191.408 69.874C190.923 69.958 190.279 70 189.476 70H189.35V68.74ZM190.12 63.07L190.75 62.44L191.688 63.378L190.75 64.33L189.812 63.378L190.12 63.07ZM192.612 63.07L193.242 62.44L194.18 63.378L193.242 64.33L192.304 63.378L192.612 63.07ZM202.617 68.74H202.645C202.99 68.74 203.303 68.642 203.583 68.446C203.872 68.25 204.031 68.026 204.059 67.774L204.829 67.914C204.792 68.306 204.666 68.6607 204.451 68.978C204.246 69.2953 203.984 69.5473 203.667 69.734C203.35 69.9113 203.009 70 202.645 70H202.617V68.74ZM206.215 68.74L206.285 69.37L206.215 70H206.145C205.632 70 205.179 69.8553 204.787 69.566C204.395 69.2767 204.11 68.8613 203.933 68.32C203.84 68.0493 203.667 67.256 203.415 65.94L204.437 65.674C204.642 66.8313 204.801 67.5687 204.913 67.886C205.006 68.1753 205.151 68.39 205.347 68.53C205.552 68.67 205.818 68.74 206.145 68.74H206.215ZM198.837 70V68.74H198.879C199.402 68.74 199.85 68.4133 200.223 67.76C200.344 67.536 200.438 67.27 200.503 66.962C200.578 66.654 200.648 66.3133 200.713 65.94L201.749 65.996C201.74 66.0333 201.707 66.206 201.651 66.514C201.595 66.822 201.567 67.1207 201.567 67.41C201.567 67.858 201.651 68.194 201.819 68.418C201.996 68.6327 202.272 68.74 202.645 68.74H202.673L202.743 69.37L202.673 70H202.645C202.104 70 201.67 69.8413 201.343 69.524C201.026 69.1973 200.834 68.7447 200.769 68.166L200.993 68.152C200.797 68.684 200.508 69.1273 200.125 69.482C199.752 69.8273 199.332 70 198.865 70H198.837ZM194.833 70L194.763 69.37L194.833 68.74H194.903C195.248 68.74 195.575 68.6607 195.883 68.502C196.191 68.3433 196.429 68.1333 196.597 67.872C196.774 67.62 196.91 67.354 197.003 67.074C197.106 66.794 197.208 66.4627 197.311 66.08L198.361 66.192C198.342 66.248 198.305 66.388 198.249 66.612C198.193 66.836 198.146 67.046 198.109 67.242C198.081 67.438 198.067 67.6153 198.067 67.774C198.067 68.418 198.328 68.74 198.851 68.74H198.879L198.949 69.37L198.879 70H198.837C198.408 70 198.048 69.874 197.759 69.622C197.479 69.3607 197.311 69.0107 197.255 68.572C196.966 69.0387 196.62 69.3933 196.219 69.636C195.818 69.8787 195.374 70 194.889 70H194.833ZM206.043 68.74H207.331C208.498 68.74 209.585 68.6 210.593 68.32C211.61 68.0307 212.628 67.6153 213.645 67.074C214.214 66.766 214.774 66.5327 215.325 66.374L215.367 66.878C214.835 66.878 214.326 66.8173 213.841 66.696C213.365 66.5747 212.87 66.3833 212.357 66.122C211.909 65.8887 211.508 65.7113 211.153 65.59C210.798 65.4687 210.448 65.408 210.103 65.408C209.711 65.408 209.356 65.5247 209.039 65.758C208.722 65.9913 208.484 66.2667 208.325 66.584L207.569 66.066C207.868 65.4593 208.236 65.002 208.675 64.694C209.114 64.3767 209.604 64.218 210.145 64.218C210.537 64.218 210.901 64.2833 211.237 64.414C211.582 64.5447 212.091 64.778 212.763 65.114C213.388 65.4313 213.878 65.6693 214.233 65.828C214.597 65.9773 215.008 66.0987 215.465 66.192L215.507 67.298C215.32 67.354 215.124 67.4287 214.919 67.522C214.723 67.6153 214.438 67.7647 214.065 67.97C212.805 68.6327 211.662 69.1367 210.635 69.482C209.618 69.8273 208.516 70 207.331 70H206.043V68.74ZM209.683 72.114L210.019 71.778C210.458 71.3393 210.677 71.12 210.677 71.12C210.677 71.12 210.896 71.3393 211.335 71.778L211.671 72.114L210.677 73.108L209.683 72.114ZM219.703 72.926C220.3 72.7207 220.842 72.45 221.327 72.114C221.812 71.778 222.19 71.4187 222.461 71.036C222.741 70.6533 222.881 70.294 222.881 69.958C222.881 69.482 222.643 68.3153 222.167 66.458L223.245 66.052C223.45 66.7147 223.618 67.4147 223.749 68.152C223.889 68.8893 223.959 69.4913 223.959 69.958C223.959 70.5087 223.796 71.0453 223.469 71.568C223.142 72.1 222.69 72.576 222.111 72.996C221.542 73.4253 220.898 73.766 220.179 74.018L219.703 72.926ZM224.936 72.898C226.429 72.5713 227.535 72.128 228.254 71.568C228.972 71.0173 229.332 70.322 229.332 69.482C229.332 68.9407 229.262 68.3993 229.122 67.858C228.982 67.3073 228.772 66.85 228.492 66.486C228.221 66.1127 227.899 65.912 227.526 65.884C227.32 65.8747 227.12 65.9587 226.924 66.136C226.728 66.3133 226.569 66.542 226.448 66.822C226.326 67.102 226.266 67.368 226.266 67.62C226.266 67.8253 226.308 67.998 226.392 68.138C226.541 68.3807 226.891 68.544 227.442 68.628C227.992 68.7027 228.702 68.74 229.57 68.74H230.802L230.872 69.37L230.802 70L229.108 70.014C228.156 70.014 227.376 69.9347 226.77 69.776C226.163 69.6173 225.738 69.3047 225.496 68.838C225.346 68.5393 225.272 68.1893 225.272 67.788C225.272 67.3027 225.374 66.8173 225.58 66.332C225.794 65.8467 226.074 65.4453 226.42 65.128C226.774 64.8107 227.152 64.652 227.554 64.652C228.104 64.652 228.59 64.8947 229.01 65.38C229.43 65.8653 229.752 66.4767 229.976 67.214C230.2 67.942 230.312 68.6607 230.312 69.37C230.312 70.5273 229.868 71.512 228.982 72.324C228.104 73.136 226.877 73.7007 225.3 74.018L224.936 72.898ZM230.625 68.74H231.185C232.184 68.74 232.889 68.6467 233.299 68.46C233.71 68.264 233.915 67.9467 233.915 67.508C233.906 67.2187 233.808 66.78 233.621 66.192C233.444 65.5947 233.29 65.1653 233.159 64.904L234.167 64.372C234.354 64.736 234.536 65.2307 234.713 65.856C234.9 66.472 234.993 67.0087 234.993 67.466C234.993 68.2967 234.69 68.9267 234.083 69.356C233.477 69.7853 232.562 70 231.339 70H230.625V68.74ZM231.325 62.244L231.955 61.614L232.893 62.552L231.955 63.504L231.017 62.552L231.325 62.244ZM233.817 62.244L234.447 61.614L235.385 62.552L234.447 63.504L233.509 62.552L233.817 62.244ZM235.983 72.898C237.476 72.5713 238.582 72.128 239.301 71.568C240.019 71.0173 240.379 70.322 240.379 69.482C240.379 68.9407 240.309 68.3993 240.169 67.858C240.029 67.3073 239.819 66.85 239.539 66.486C239.268 66.1127 238.946 65.912 238.573 65.884C238.367 65.8747 238.167 65.9587 237.971 66.136C237.775 66.3133 237.616 66.542 237.495 66.822C237.373 67.102 237.312 67.368 237.312 67.62C237.312 67.8253 237.355 67.998 237.439 68.138C237.588 68.3807 237.938 68.544 238.489 68.628C239.039 68.7027 239.749 68.74 240.617 68.74H241.849L241.919 69.37L241.849 70L240.155 70.014C239.203 70.014 238.423 69.9347 237.817 69.776C237.21 69.6173 236.785 69.3047 236.543 68.838C236.393 68.5393 236.319 68.1893 236.319 67.788C236.319 67.3027 236.421 66.8173 236.627 66.332C236.841 65.8467 237.121 65.4453 237.467 65.128C237.821 64.8107 238.199 64.652 238.601 64.652C239.151 64.652 239.637 64.8947 240.057 65.38C240.477 65.8653 240.799 66.4767 241.023 67.214C241.247 67.942 241.359 68.6607 241.359 69.37C241.359 70.5273 240.915 71.512 240.029 72.324C239.151 73.136 237.924 73.7007 236.347 74.018L235.983 72.898ZM244.36 67.634C244.948 68.0353 245.476 68.3433 245.942 68.558C246.409 68.7727 246.768 68.88 247.02 68.88C247.104 68.88 247.184 68.8613 247.258 68.824C247.426 68.74 247.552 68.6 247.636 68.404C247.72 68.208 247.762 67.984 247.762 67.732C247.762 67.2747 247.646 66.8593 247.412 66.486C247.188 66.1127 246.89 65.926 246.516 65.926C246.227 65.926 245.919 66.1313 245.592 66.542C245.266 66.9433 244.906 67.536 244.514 68.32C244.234 68.8707 243.87 69.2907 243.422 69.58C242.984 69.86 242.484 70 241.924 70H241.672L241.686 68.74H241.952C242.335 68.74 242.685 68.6327 243.002 68.418C243.329 68.194 243.6 67.8673 243.814 67.438C244.206 66.6447 244.612 66.01 245.032 65.534C245.452 65.058 245.914 64.806 246.418 64.778C246.885 64.75 247.296 64.876 247.65 65.156C248.014 65.4267 248.29 65.7907 248.476 66.248C248.672 66.696 248.77 67.1673 248.77 67.662C248.77 68.1567 248.672 68.6093 248.476 69.02C248.28 69.4213 247.991 69.7247 247.608 69.93C247.45 70.0233 247.249 70.07 247.006 70.07C246.297 70.07 245.247 69.608 243.856 68.684L244.36 67.634ZM256.143 69.86C255.816 69.8693 255.55 69.762 255.345 69.538C255.149 69.3047 255.051 69.0013 255.051 68.628C255.051 68.1707 255.205 67.6947 255.513 67.2C255.821 66.7053 256.213 66.3087 256.689 66.01L257.109 66.486C256.698 66.7753 256.386 67.0927 256.171 67.438C255.956 67.774 255.84 68.04 255.821 68.236C255.933 68.18 256.04 68.152 256.143 68.152C256.367 68.152 256.563 68.236 256.731 68.404C256.899 68.5627 256.983 68.7633 256.983 69.006C256.983 69.2393 256.899 69.44 256.731 69.608C256.563 69.776 256.367 69.86 256.143 69.86ZM258.486 72.898C259.98 72.5713 261.086 72.128 261.804 71.568C262.523 71.0173 262.882 70.322 262.882 69.482C262.882 68.9407 262.812 68.3993 262.672 67.858C262.532 67.3073 262.322 66.85 262.042 66.486C261.772 66.1127 261.45 65.912 261.076 65.884C260.871 65.8747 260.67 65.9587 260.474 66.136C260.278 66.3133 260.12 66.542 259.998 66.822C259.877 67.102 259.816 67.368 259.816 67.62C259.816 67.8253 259.858 67.998 259.942 68.138C260.092 68.3807 260.442 68.544 260.992 68.628C261.543 68.7027 262.252 68.74 263.12 68.74H264.352L264.422 69.37L264.352 70L262.658 70.014C261.706 70.014 260.927 69.9347 260.32 69.776C259.714 69.6173 259.289 69.3047 259.046 68.838C258.897 68.5393 258.822 68.1893 258.822 67.788C258.822 67.3027 258.925 66.8173 259.13 66.332C259.345 65.8467 259.625 65.4453 259.97 65.128C260.325 64.8107 260.703 64.652 261.104 64.652C261.655 64.652 262.14 64.8947 262.56 65.38C262.98 65.8653 263.302 66.4767 263.526 67.214C263.75 67.942 263.862 68.6607 263.862 69.37C263.862 70.5273 263.419 71.512 262.532 72.324C261.655 73.136 260.428 73.7007 258.85 74.018L258.486 72.898ZM264.176 68.74H264.302C265.021 68.74 265.581 68.712 265.982 68.656C266.383 68.5907 266.677 68.4927 266.864 68.362C267.051 68.2313 267.186 68.054 267.27 67.83C267.326 67.662 267.354 67.4613 267.354 67.228C267.354 66.9293 267.298 66.416 267.186 65.688L268.222 65.492C268.334 66.08 268.395 66.8267 268.404 67.732C268.535 68.404 268.959 68.74 269.678 68.74H269.776L269.846 69.37L269.776 70H269.678C269.211 70 268.801 69.8647 268.446 69.594C268.101 69.314 267.858 68.9593 267.718 68.53L267.998 68.586C267.877 68.9407 267.676 69.2207 267.396 69.426C267.116 69.6313 266.729 69.7807 266.234 69.874C265.749 69.958 265.105 70 264.302 70H264.176V68.74ZM264.624 71.974L265.254 71.344L266.192 72.282L265.254 73.234L264.316 72.282L264.624 71.974ZM267.116 71.974L267.746 71.344L268.684 72.282L267.746 73.234L266.808 72.282L267.116 71.974ZM269.631 68.74H269.911C270.695 68.74 271.316 68.306 271.773 67.438C272.231 66.598 272.655 65.954 273.047 65.506C273.439 65.0487 273.883 64.806 274.377 64.778C275.451 64.722 276.179 65.4593 276.561 66.99C276.711 67.6153 276.869 68.0633 277.037 68.334C277.205 68.6047 277.439 68.74 277.737 68.74H277.863L277.933 69.37L277.863 70H277.737C277.047 70 276.599 69.6173 276.393 68.852C276.365 69.076 276.267 69.286 276.099 69.482C275.941 69.678 275.763 69.8273 275.567 69.93C275.409 70.0233 275.213 70.07 274.979 70.07C274.307 70.07 273.36 69.6733 272.137 68.88C271.857 69.244 271.521 69.524 271.129 69.72C270.747 69.9067 270.331 70 269.883 70H269.631V68.74ZM272.697 67.872C273.22 68.236 273.701 68.5113 274.139 68.698C274.587 68.8753 274.942 68.964 275.203 68.964C275.297 68.964 275.371 68.95 275.427 68.922C275.633 68.726 275.735 68.4087 275.735 67.97C275.735 67.662 275.679 67.3493 275.567 67.032C275.465 66.7147 275.315 66.4533 275.119 66.248C274.933 66.0333 274.718 65.926 274.475 65.926C274.195 65.926 273.906 66.0987 273.607 66.444C273.318 66.7893 273.015 67.2653 272.697 67.872ZM285.565 68.74C286.265 68.74 286.615 68.3527 286.615 67.578C286.615 67.2607 286.522 66.8173 286.335 66.248C286.158 65.6693 285.999 65.2307 285.859 64.932L286.853 64.386C287.04 64.778 287.226 65.2913 287.413 65.926C287.6 66.5513 287.693 67.102 287.693 67.578C287.693 68.0353 287.6 68.4507 287.413 68.824C287.236 69.188 286.984 69.4773 286.657 69.692C286.34 69.8973 285.976 70 285.565 70H285.537V68.74H285.565ZM281.757 70V68.74H281.799C282.322 68.74 282.77 68.4133 283.143 67.76C283.264 67.536 283.358 67.27 283.423 66.962C283.498 66.654 283.568 66.3133 283.633 65.94L284.669 65.996C284.66 66.0333 284.627 66.206 284.571 66.514C284.515 66.822 284.487 67.1207 284.487 67.41C284.487 67.858 284.571 68.194 284.739 68.418C284.916 68.6327 285.192 68.74 285.565 68.74H285.593L285.663 69.37L285.593 70H285.565C285.024 70 284.59 69.8413 284.263 69.524C283.946 69.1973 283.754 68.7447 283.689 68.166L283.913 68.152C283.717 68.684 283.428 69.1273 283.045 69.482C282.672 69.8273 282.252 70 281.785 70H281.757ZM277.753 70L277.683 69.37L277.753 68.74H277.823C278.168 68.74 278.495 68.6607 278.803 68.502C279.111 68.3433 279.349 68.1333 279.517 67.872C279.694 67.62 279.83 67.354 279.923 67.074C280.026 66.794 280.128 66.4627 280.231 66.08L281.281 66.192C281.262 66.248 281.225 66.388 281.169 66.612C281.113 66.836 281.066 67.046 281.029 67.242C281.001 67.438 280.987 67.6153 280.987 67.774C280.987 68.418 281.248 68.74 281.771 68.74H281.799L281.869 69.37L281.799 70H281.757C281.328 70 280.968 69.874 280.679 69.622C280.399 69.3607 280.231 69.0107 280.175 68.572C279.886 69.0387 279.54 69.3933 279.139 69.636C278.738 69.8787 278.294 70 277.809 70H277.753ZM287.188 72.926C287.785 72.7207 288.326 72.45 288.812 72.114C289.297 71.778 289.675 71.4187 289.946 71.036C290.226 70.6533 290.366 70.294 290.366 69.958C290.366 69.482 290.128 68.3153 289.652 66.458L290.73 66.052C290.935 66.7147 291.103 67.4147 291.234 68.152C291.374 68.8893 291.444 69.4913 291.444 69.958C291.444 70.5087 291.28 71.0453 290.954 71.568C290.627 72.1 290.174 72.576 289.596 72.996C289.026 73.4253 288.382 73.766 287.664 74.018L287.188 72.926Z" fill="#151617"/>
<path d="M67.3682 102.282C68.9643 101.937 70.1216 101.521 70.8403 101.036C71.5589 100.551 71.9183 99.9253 71.9183 99.16C71.9183 98.6093 71.8389 98.0727 71.6803 97.55C71.5309 97.018 71.3209 96.584 71.0503 96.248C70.7889 95.912 70.4949 95.744 70.1683 95.744C69.9816 95.744 69.8043 95.814 69.6363 95.954C69.4776 96.0847 69.3516 96.2527 69.2583 96.458C69.1649 96.6633 69.1183 96.8593 69.1183 97.046C69.1183 97.2047 69.1509 97.3307 69.2163 97.424C69.3656 97.6293 69.7063 97.7647 70.2383 97.83C70.7796 97.886 71.5216 97.914 72.4643 97.914H73.8503L73.9623 98.964L73.8503 100L72.0723 100.014C70.9429 100.014 70.0376 99.9207 69.3563 99.734C68.6749 99.5473 68.1989 99.1693 67.9283 98.6C67.7603 98.236 67.6763 97.8347 67.6763 97.396C67.6763 96.8453 67.7929 96.2993 68.0263 95.758C68.2596 95.2073 68.5816 94.7593 68.9923 94.414C69.4029 94.0593 69.8509 93.882 70.3363 93.882C70.8963 93.882 71.4049 94.1247 71.8623 94.61C72.3196 95.0953 72.6789 95.73 72.9403 96.514C73.2016 97.298 73.3323 98.1147 73.3323 98.964C73.3323 100.271 72.8609 101.372 71.9183 102.268C70.9756 103.164 69.6736 103.771 68.0123 104.088L67.3682 102.282ZM73.6722 97.914H73.7702C74.6102 97.914 75.2355 97.872 75.6462 97.788C76.0569 97.6947 76.3275 97.5593 76.4582 97.382C76.5889 97.2047 76.6542 96.948 76.6542 96.612C76.6542 96.3413 76.6075 95.898 76.5142 95.282L77.9562 95.002C78.0869 95.6833 78.1522 96.4533 78.1522 97.312C78.1895 97.4707 78.2922 97.6107 78.4602 97.732C78.6282 97.8533 78.8709 97.914 79.1882 97.914H79.2722L79.3842 98.964L79.2722 100H79.1882C78.7589 100 78.3622 99.8833 77.9982 99.65C77.6342 99.4073 77.3495 99.104 77.1442 98.74L77.4942 98.81C77.2422 99.2393 76.8315 99.5473 76.2622 99.734C75.7022 99.9113 74.8715 100 73.7702 100H73.6722V97.914ZM77.3542 103.57L76.1782 102.394L77.3542 101.204C77.6155 101.465 77.7462 101.596 77.7462 101.596C78.2782 102.128 78.5442 102.394 78.5442 102.394L77.3542 103.57ZM74.8902 103.57L73.7142 102.394L74.8902 101.204C75.1515 101.465 75.2822 101.596 75.2822 101.596C75.8142 102.128 76.0802 102.394 76.0802 102.394L74.8902 103.57ZM79.1273 97.914H79.4213C80.1399 97.914 80.7373 97.4753 81.2133 96.598C81.6893 95.7393 82.1466 95.0907 82.5853 94.652C83.0239 94.2133 83.5046 93.994 84.0273 93.994C84.5966 93.994 85.0633 94.1807 85.4273 94.554C85.7913 94.9273 86.0946 95.4733 86.3373 96.192C86.5519 96.8453 86.7293 97.298 86.8693 97.55C87.0186 97.7927 87.1959 97.914 87.4013 97.914H87.5693L87.6813 98.964L87.5693 100H87.4013C87.1119 100 86.8459 99.9253 86.6033 99.776C86.3606 99.6173 86.1553 99.398 85.9873 99.118C85.9219 99.2767 85.8286 99.4213 85.7073 99.552C85.5859 99.6827 85.4506 99.79 85.3013 99.874C85.1053 100.005 84.8533 100.07 84.5453 100.07C83.8359 100.07 82.8886 99.6967 81.7033 98.95C81.4139 99.3047 81.0733 99.5707 80.6813 99.748C80.2893 99.916 79.8599 100 79.3933 100H79.1273V97.914ZM85.1893 98.264C85.1986 98.2173 85.2033 98.138 85.2033 98.026C85.2033 97.7367 85.1519 97.424 85.0493 97.088C84.9559 96.752 84.8113 96.4673 84.6153 96.234C84.4286 95.9913 84.2093 95.87 83.9573 95.87C83.5373 95.87 83.0799 96.346 82.5853 97.298C83.0519 97.634 83.5046 97.8813 83.9433 98.04C84.3913 98.1987 84.7506 98.278 85.0213 98.278C85.1053 98.278 85.1613 98.2733 85.1893 98.264ZM95.2241 97.914H95.2661C95.5368 97.914 95.7514 97.8347 95.9101 97.676C96.0688 97.5173 96.1481 97.312 96.1481 97.06C96.1481 96.808 96.0501 96.4067 95.8541 95.856C95.6674 95.3053 95.5088 94.8853 95.3781 94.596L96.8061 93.812C96.9834 94.176 97.1701 94.6987 97.3661 95.38C97.5621 96.052 97.6601 96.64 97.6601 97.144C97.6601 97.6667 97.5574 98.1473 97.3521 98.586C97.1468 99.0153 96.8621 99.3607 96.4981 99.622C96.1341 99.874 95.7234 100 95.2661 100H95.2241V97.914ZM91.4721 97.914H91.5421C92.0181 97.914 92.3868 97.6573 92.6481 97.144C92.8254 96.7893 92.9841 96.2433 93.1241 95.506L94.5661 95.576C94.4634 96.192 94.4121 96.6307 94.4121 96.892C94.4121 97.5733 94.6968 97.914 95.2661 97.914H95.2941L95.4061 98.964L95.2941 100H95.2661C94.7621 100 94.3374 99.8647 93.9921 99.594C93.6468 99.3233 93.4041 98.9407 93.2641 98.446L93.6141 98.418C93.0448 99.4727 92.3401 100 91.5001 100H91.4721V97.914ZM87.4681 100L87.3561 98.964L87.4681 97.914H87.5381C87.8274 97.914 88.1121 97.8533 88.3921 97.732C88.6721 97.6013 88.8821 97.4427 89.0221 97.256C89.2181 97.032 89.3674 96.78 89.4701 96.5C89.5728 96.22 89.6661 95.9213 89.7501 95.604L91.2061 95.758C91.1968 95.8047 91.1454 95.9913 91.0521 96.318C90.9588 96.6353 90.9121 96.9247 90.9121 97.186C90.9121 97.6713 91.1081 97.914 91.5001 97.914H91.5281L91.6401 98.964L91.5281 100H91.4581C91.0568 100 90.7068 99.8927 90.4081 99.678C90.1094 99.4633 89.8994 99.1787 89.7781 98.824C89.4794 99.2067 89.1341 99.5007 88.7421 99.706C88.3594 99.902 87.9488 100 87.5101 100H87.4681ZM96.9434 102.324C97.5594 102.072 98.124 101.778 98.6374 101.442C99.1507 101.115 99.552 100.789 99.8414 100.462C100.14 100.135 100.289 99.8553 100.289 99.622C100.289 99.2393 100.042 98.1987 99.5474 96.5L99.4774 96.22L101.045 95.604C101.269 96.248 101.447 96.9387 101.577 97.676C101.708 98.404 101.773 99.0527 101.773 99.622C101.773 100.537 101.414 101.381 100.695 102.156C99.9767 102.94 99.0107 103.584 97.7974 104.088L96.9434 102.324ZM110.683 99.034C110.085 99.23 109.502 99.328 108.933 99.328C108.093 99.328 107.402 99.1273 106.861 98.726C106.329 98.3153 106.063 97.76 106.063 97.06C106.063 96.2013 106.399 95.478 107.071 94.89C107.752 94.302 108.653 93.8027 109.773 93.392L110.165 95.212C109.539 95.3613 108.961 95.5807 108.429 95.87C107.906 96.15 107.631 96.416 107.603 96.668C107.584 96.8733 107.687 97.046 107.911 97.186C108.135 97.3167 108.443 97.382 108.835 97.382C109.292 97.382 109.773 97.2793 110.277 97.074L110.683 99.034ZM112.573 100C111.742 100 111.103 99.7387 110.655 99.216C110.216 98.684 109.922 97.8067 109.773 96.584L109.675 95.842L109.269 92.706L110.893 92.356C111.107 94.3533 111.257 95.6693 111.341 96.304C111.397 96.7707 111.462 97.116 111.537 97.34C111.621 97.564 111.737 97.718 111.887 97.802C112.045 97.8767 112.274 97.914 112.573 97.914H112.811L112.923 98.964L112.811 100H112.573ZM112.651 97.914H113.393C114.065 97.914 114.545 97.8393 114.835 97.69C115.133 97.5407 115.283 97.3167 115.283 97.018C115.283 96.822 115.185 96.4393 114.989 95.87C114.793 95.2913 114.639 94.8667 114.527 94.596L115.997 93.784C116.174 94.176 116.356 94.7033 116.543 95.366C116.739 96.0193 116.837 96.5933 116.837 97.088C116.837 98.04 116.538 98.7633 115.941 99.258C115.353 99.7527 114.503 100 113.393 100H112.651V97.914ZM114.793 90.648C115.082 90.928 115.367 91.2127 115.647 91.502L116.081 91.936L114.793 93.224L113.491 91.936L114.793 90.648ZM121.33 100C120.303 100 119.561 99.706 119.104 99.118C118.656 98.53 118.432 97.634 118.432 96.43C118.422 95.282 118.385 94.12 118.32 92.944C118.264 91.7587 118.18 90.7833 118.068 90.018L119.804 89.64C119.897 90.3213 119.972 91.2453 120.028 92.412C120.084 93.5693 120.112 94.6427 120.112 95.632V96.164C120.102 96.64 120.126 96.9993 120.182 97.242C120.238 97.4847 120.35 97.6573 120.518 97.76C120.695 97.8627 120.966 97.914 121.33 97.914H121.4L121.512 98.964L121.4 100H121.33ZM121.306 97.914H121.558C122.286 97.914 122.883 97.4753 123.35 96.598C123.817 95.73 124.265 95.0813 124.694 94.652C125.123 94.2133 125.604 93.994 126.136 93.994C126.64 93.994 127.083 94.1573 127.466 94.484C127.849 94.8013 128.138 95.2167 128.334 95.73C128.539 96.234 128.642 96.766 128.642 97.326C128.642 97.8673 128.539 98.3713 128.334 98.838C128.129 99.2953 127.83 99.6407 127.438 99.874C127.233 100.005 126.981 100.07 126.682 100.07C125.861 100.07 124.741 99.5847 123.322 98.614L124.106 96.892C124.685 97.284 125.207 97.5967 125.674 97.83C126.15 98.054 126.505 98.166 126.738 98.166C126.822 98.166 126.883 98.152 126.92 98.124C127.013 98.0587 127.083 97.9653 127.13 97.844C127.186 97.7133 127.214 97.564 127.214 97.396C127.214 97.0227 127.111 96.6773 126.906 96.36C126.701 96.0333 126.43 95.87 126.094 95.87C125.571 95.87 124.988 96.612 124.344 98.096C124.064 98.7307 123.681 99.2067 123.196 99.524C122.711 99.8413 122.155 100 121.53 100H121.264L121.306 97.914ZM133.101 100C132.075 100 131.333 99.706 130.875 99.118C130.427 98.53 130.203 97.634 130.203 96.43C130.194 95.282 130.157 94.12 130.091 92.944C130.035 91.7587 129.951 90.7833 129.839 90.018L131.575 89.64C131.669 90.3213 131.743 91.2453 131.799 92.412C131.855 93.5693 131.883 94.6427 131.883 95.632V96.164C131.874 96.64 131.897 96.9993 131.953 97.242C132.009 97.4847 132.121 97.6573 132.289 97.76C132.467 97.8627 132.737 97.914 133.101 97.914H133.171L133.283 98.964L133.171 100H133.101ZM140.833 97.914H140.875C141.146 97.914 141.361 97.8347 141.519 97.676C141.678 97.5173 141.757 97.312 141.757 97.06C141.757 96.808 141.659 96.4067 141.463 95.856C141.277 95.3053 141.118 94.8853 140.987 94.596L142.415 93.812C142.593 94.176 142.779 94.6987 142.975 95.38C143.171 96.052 143.269 96.64 143.269 97.144C143.269 97.6667 143.167 98.1473 142.961 98.586C142.756 99.0153 142.471 99.3607 142.107 99.622C141.743 99.874 141.333 100 140.875 100H140.833V97.914ZM137.081 97.914H137.151C137.627 97.914 137.996 97.6573 138.257 97.144C138.435 96.7893 138.593 96.2433 138.733 95.506L140.175 95.576C140.073 96.192 140.021 96.6307 140.021 96.892C140.021 97.5733 140.306 97.914 140.875 97.914H140.903L141.015 98.964L140.903 100H140.875C140.371 100 139.947 99.8647 139.601 99.594C139.256 99.3233 139.013 98.9407 138.873 98.446L139.223 98.418C138.654 99.4727 137.949 100 137.109 100H137.081V97.914ZM133.077 100L132.965 98.964L133.077 97.914H133.147C133.437 97.914 133.721 97.8533 134.001 97.732C134.281 97.6013 134.491 97.4427 134.631 97.256C134.827 97.032 134.977 96.78 135.079 96.5C135.182 96.22 135.275 95.9213 135.359 95.604L136.815 95.758C136.806 95.8047 136.755 95.9913 136.661 96.318C136.568 96.6353 136.521 96.9247 136.521 97.186C136.521 97.6713 136.717 97.914 137.109 97.914H137.137L137.249 98.964L137.137 100H137.067C136.666 100 136.316 99.8927 136.017 99.678C135.719 99.4633 135.509 99.1787 135.387 98.824C135.089 99.2067 134.743 99.5007 134.351 99.706C133.969 99.902 133.558 100 133.119 100H133.077ZM147.81 105.488C147.567 102.903 147.446 100.84 147.446 99.3C147.446 98.8707 147.451 98.5627 147.46 98.376C147.479 97.844 147.651 97.41 147.978 97.074C148.314 96.7287 148.729 96.556 149.224 96.556C149.299 96.556 149.411 96.5653 149.56 96.584C149.924 95.772 150.349 95.1373 150.834 94.68C151.329 94.2227 151.842 93.994 152.374 93.994C152.878 93.994 153.321 94.1573 153.704 94.484C154.087 94.8013 154.376 95.2167 154.572 95.73C154.777 96.234 154.88 96.766 154.88 97.326C154.88 97.8767 154.777 98.3807 154.572 98.838C154.376 99.2953 154.082 99.6407 153.69 99.874C153.475 100.005 153.223 100.07 152.934 100.07C152.57 100.07 152.099 99.9627 151.52 99.748C150.941 99.524 150.209 99.1693 149.322 98.684C149.303 98.6747 149.28 98.67 149.252 98.67C149.187 98.67 149.149 98.7073 149.14 98.782C149.121 99.9207 149.243 101.857 149.504 104.592L149.546 105.096L147.81 105.488ZM152.99 98.166C153.139 98.166 153.256 98.0913 153.34 97.942C153.424 97.7927 153.466 97.6107 153.466 97.396C153.466 97.0227 153.363 96.6773 153.158 96.36C152.953 96.0333 152.687 95.87 152.36 95.87C151.949 95.87 151.487 96.3413 150.974 97.284C151.926 97.872 152.598 98.166 152.99 98.166ZM164.477 100C163.553 100 162.881 99.692 162.461 99.076C162.041 98.4507 161.813 97.5873 161.775 96.486C161.766 96.206 161.803 95.954 161.887 95.73C161.981 95.506 162.097 95.3333 162.237 95.212C162.377 95.0813 162.513 95.016 162.643 95.016C162.746 95.016 162.83 95.058 162.895 95.142C162.961 95.226 162.993 95.352 162.993 95.52C163.003 96.1547 163.049 96.64 163.133 96.976C163.227 97.312 163.376 97.5547 163.581 97.704C163.796 97.844 164.104 97.914 164.505 97.914H164.659V100H164.477ZM162.601 89.64C162.9 91.908 163.035 93.9613 163.007 95.8C162.998 96.7613 162.704 97.5827 162.125 98.264C161.547 98.9453 160.781 99.4633 159.829 99.818C158.887 100.173 157.855 100.369 156.735 100.406L156.245 98.488C157.244 98.404 158.103 98.278 158.821 98.11C159.549 97.942 160.147 97.676 160.613 97.312C161.08 96.948 161.313 96.4533 161.313 95.828C161.304 94.8947 161.262 94.0173 161.187 93.196C161.113 92.3747 161.001 91.3153 160.851 90.018L162.601 89.64ZM157.449 90.858C158 91.9873 158.415 93.0513 158.695 94.05C158.985 95.0393 159.129 95.926 159.129 96.71C159.129 97.3447 159.041 97.872 158.863 98.292L157.421 98.502C157.561 98.2033 157.631 97.8393 157.631 97.41C157.631 96.206 157.081 94.3627 155.979 91.88L157.449 90.858ZM164.522 97.914H164.9C166.085 97.914 167.07 97.788 167.854 97.536C168.647 97.2747 169.24 96.9713 169.632 96.626C170.033 96.2807 170.308 95.9447 170.458 95.618C170.364 95.4593 170.182 95.338 169.912 95.254C169.641 95.1607 169.328 95.114 168.974 95.114C168.638 95.114 168.302 95.156 167.966 95.24C167.639 95.324 167.354 95.4453 167.112 95.604C167.868 96.4253 168.628 97.018 169.394 97.382C170.168 97.7367 171.092 97.914 172.166 97.914H172.6L172.712 98.964L172.6 100H172.166C171.148 100 170.271 99.8787 169.534 99.636C168.806 99.384 168.11 98.978 167.448 98.418C166.785 97.8487 166.043 97.0413 165.222 95.996L165.278 94.61C165.698 94.19 166.22 93.8727 166.846 93.658C167.471 93.4433 168.12 93.336 168.792 93.336C169.37 93.336 169.907 93.4153 170.402 93.574C170.906 93.7327 171.307 93.966 171.606 94.274C171.914 94.582 172.068 94.946 172.068 95.366C172.068 96.0287 171.718 96.724 171.018 97.452C170.318 98.18 169.412 98.7867 168.302 99.272C167.191 99.7573 166.057 100 164.9 100H164.522V97.914ZM172.465 97.914H172.563C173.403 97.914 174.028 97.872 174.439 97.788C174.85 97.6947 175.12 97.5593 175.251 97.382C175.382 97.2047 175.447 96.948 175.447 96.612C175.447 96.3413 175.4 95.898 175.307 95.282L176.749 95.002C176.88 95.6833 176.945 96.4533 176.945 97.312C176.982 97.4707 177.085 97.6107 177.253 97.732C177.421 97.8533 177.664 97.914 177.981 97.914H178.065L178.177 98.964L178.065 100H177.981C177.552 100 177.155 99.8833 176.791 99.65C176.427 99.4073 176.142 99.104 175.937 98.74L176.287 98.81C176.035 99.2393 175.624 99.5473 175.055 99.734C174.495 99.9113 173.664 100 172.563 100H172.465V97.914ZM173.571 91.656L174.747 92.832L173.571 94.022L173.179 93.63L172.381 92.832L173.571 91.656ZM176.035 91.656L177.211 92.832L176.035 94.022L175.643 93.63L174.845 92.832L176.035 91.656ZM185.718 97.914H185.76C186.031 97.914 186.246 97.8347 186.404 97.676C186.563 97.5173 186.642 97.312 186.642 97.06C186.642 96.808 186.544 96.4067 186.348 95.856C186.162 95.3053 186.003 94.8853 185.872 94.596L187.3 93.812C187.478 94.176 187.664 94.6987 187.86 95.38C188.056 96.052 188.154 96.64 188.154 97.144C188.154 97.6667 188.052 98.1473 187.846 98.586C187.641 99.0153 187.356 99.3607 186.992 99.622C186.628 99.874 186.218 100 185.76 100H185.718V97.914ZM181.966 97.914H182.036C182.512 97.914 182.881 97.6573 183.142 97.144C183.32 96.7893 183.478 96.2433 183.618 95.506L185.06 95.576C184.958 96.192 184.906 96.6307 184.906 96.892C184.906 97.5733 185.191 97.914 185.76 97.914H185.788L185.9 98.964L185.788 100H185.76C185.256 100 184.832 99.8647 184.486 99.594C184.141 99.3233 183.898 98.9407 183.758 98.446L184.108 98.418C183.539 99.4727 182.834 100 181.994 100H181.966V97.914ZM177.962 100L177.85 98.964L177.962 97.914H178.032C178.322 97.914 178.606 97.8533 178.886 97.732C179.166 97.6013 179.376 97.4427 179.516 97.256C179.712 97.032 179.862 96.78 179.964 96.5C180.067 96.22 180.16 95.9213 180.244 95.604L181.7 95.758C181.691 95.8047 181.64 95.9913 181.546 96.318C181.453 96.6353 181.406 96.9247 181.406 97.186C181.406 97.6713 181.602 97.914 181.994 97.914H182.022L182.134 98.964L182.022 100H181.952C181.551 100 181.201 99.8927 180.902 99.678C180.604 99.4633 180.394 99.1787 180.272 98.824C179.974 99.2067 179.628 99.5007 179.236 99.706C178.854 99.902 178.443 100 178.004 100H177.962ZM189.564 99.916C189.657 99.3 189.704 98.348 189.704 97.06C189.704 95.772 189.662 94.4233 189.578 93.014C189.503 91.5953 189.415 90.6013 189.312 90.032L191.062 89.626C191.146 90.1673 191.221 91.1147 191.286 92.468C191.351 93.8213 191.384 95.1513 191.384 96.458C191.384 98.0727 191.328 99.286 191.216 100.098L189.564 99.916ZM203.896 96.094C203.858 96.3367 203.84 96.5093 203.84 96.612C203.84 97.0507 203.97 97.3773 204.232 97.592C204.502 97.8067 204.918 97.914 205.478 97.914H205.716L205.828 98.964L205.716 100H205.478C204.862 100 204.325 99.8647 203.868 99.594C203.41 99.314 203.06 98.9313 202.818 98.446C202.575 97.9513 202.454 97.3913 202.454 96.766C202.454 96.4673 202.482 96.1593 202.538 95.842L203.896 96.094ZM200.676 105.432C199.78 105.432 198.963 105.273 198.226 104.956C197.488 104.639 196.905 104.177 196.476 103.57C196.046 102.973 195.832 102.268 195.832 101.456C195.832 101.269 195.836 101.129 195.846 101.036C195.939 100 196.35 99.104 197.078 98.348C197.806 97.5827 198.8 96.9807 200.06 96.542C201.329 96.094 202.808 95.8327 204.498 95.758L204.092 97.256C203.522 97.032 202.874 96.6587 202.146 96.136C201.483 95.6693 200.942 95.338 200.522 95.142C200.111 94.9367 199.714 94.834 199.332 94.834C198.977 94.834 198.66 94.932 198.38 95.128C198.109 95.324 197.899 95.5433 197.75 95.786L196.574 94.932C197.292 93.532 198.226 92.832 199.374 92.832C199.906 92.832 200.424 92.958 200.928 93.21C201.441 93.4527 202.122 93.882 202.972 94.498C203.429 94.8247 203.784 95.0673 204.036 95.226C204.288 95.3753 204.558 95.5013 204.848 95.604L204.61 97.606C203.2 97.606 201.959 97.774 200.886 98.11C199.822 98.446 198.986 98.8893 198.38 99.44C197.782 99.9907 197.442 100.569 197.358 101.176C197.32 101.587 197.456 101.955 197.764 102.282C198.081 102.618 198.524 102.879 199.094 103.066C199.663 103.262 200.302 103.36 201.012 103.36C201.665 103.36 202.281 103.29 202.86 103.15C203.438 103.01 203.896 102.875 204.232 102.744L204.988 104.34C203.718 105.068 202.281 105.432 200.676 105.432ZM198.996 89.388C199.285 89.668 199.57 89.9527 199.85 90.242L200.284 90.676L198.996 91.964L197.694 90.676L198.996 89.388ZM213.376 97.914H213.418C213.689 97.914 213.904 97.8347 214.062 97.676C214.221 97.5173 214.3 97.312 214.3 97.06C214.3 96.808 214.202 96.4067 214.006 95.856C213.82 95.3053 213.661 94.8853 213.53 94.596L214.958 93.812C215.136 94.176 215.322 94.6987 215.518 95.38C215.714 96.052 215.812 96.64 215.812 97.144C215.812 97.6667 215.71 98.1473 215.504 98.586C215.299 99.0153 215.014 99.3607 214.65 99.622C214.286 99.874 213.876 100 213.418 100H213.376V97.914ZM209.624 97.914H209.694C210.17 97.914 210.539 97.6573 210.8 97.144C210.978 96.7893 211.136 96.2433 211.276 95.506L212.718 95.576C212.616 96.192 212.564 96.6307 212.564 96.892C212.564 97.5733 212.849 97.914 213.418 97.914H213.446L213.558 98.964L213.446 100H213.418C212.914 100 212.49 99.8647 212.144 99.594C211.799 99.3233 211.556 98.9407 211.416 98.446L211.766 98.418C211.197 99.4727 210.492 100 209.652 100H209.624V97.914ZM205.62 100L205.508 98.964L205.62 97.914H205.69C205.98 97.914 206.264 97.8533 206.544 97.732C206.824 97.6013 207.034 97.4427 207.174 97.256C207.37 97.032 207.52 96.78 207.622 96.5C207.725 96.22 207.818 95.9213 207.902 95.604L209.358 95.758C209.349 95.8047 209.298 95.9913 209.204 96.318C209.111 96.6353 209.064 96.9247 209.064 97.186C209.064 97.6713 209.26 97.914 209.652 97.914H209.68L209.792 98.964L209.68 100H209.61C209.209 100 208.859 99.8927 208.56 99.678C208.262 99.4633 208.052 99.1787 207.93 98.824C207.632 99.2067 207.286 99.5007 206.894 99.706C206.512 99.902 206.101 100 205.662 100H205.62ZM220.232 100C219.206 100 218.464 99.706 218.006 99.118C217.558 98.53 217.334 97.634 217.334 96.43C217.325 95.282 217.288 94.12 217.222 92.944C217.166 91.7587 217.082 90.7833 216.97 90.018L218.706 89.64C218.8 90.3213 218.874 91.2453 218.93 92.412C218.986 93.5693 219.014 94.6427 219.014 95.632V96.164C219.005 96.64 219.028 96.9993 219.084 97.242C219.14 97.4847 219.252 97.6573 219.42 97.76C219.598 97.8627 219.868 97.914 220.232 97.914H220.302L220.414 98.964L220.302 100H220.232ZM220.166 97.914H220.838C221.762 97.914 222.416 97.8347 222.798 97.676C223.181 97.5173 223.372 97.2747 223.372 96.948C223.363 96.7427 223.256 96.3507 223.05 95.772C222.845 95.184 222.696 94.792 222.602 94.596L224.086 93.784C224.273 94.176 224.46 94.6987 224.646 95.352C224.833 95.996 224.926 96.5607 224.926 97.046C224.917 97.998 224.595 98.7307 223.96 99.244C223.326 99.748 222.388 100 221.146 100H220.166V97.914ZM223.064 103.206L221.944 102.1L223.064 100.966C223.298 101.227 223.578 101.512 223.904 101.82L224.184 102.1L223.064 103.206ZM220.418 103.206L219.312 102.1L219.746 101.652L220.418 100.966L221.174 101.722L221.552 102.1L220.418 103.206ZM221.748 104.732L220.768 103.752L221.748 102.758C221.748 102.758 221.968 102.977 222.406 103.416L222.742 103.752L221.748 104.732Z" fill="#151617"/>
<defs>
<clipPath id="clip0_266_57622">
<rect width="86" height="20" fill="white" transform="translate(79.001 13)"/>
</clipPath>
</defs>
</svg>
