<svg width="1272" height="341" viewBox="0 0 1272 341" fill="none" xmlns="http://www.w3.org/2000/svg">
    <rect width="1320" height="342" rx="12" fill="#09448B"/>
    <path d="M1072.24 150.717c-22.47-45.869-8.32-98.434 12.45-145.089 21.5-48.313 50.9-96.537 101.67-111.347 53.38-15.573 112.55-.082 154.29 36.68 39.24 34.556 47.15 88.961 47.73 141.239.58 52.469-3.93 109.655-44.59 142.811-40.74 33.217-97.97 27.265-149.12 15.153-49.81-11.792-99.92-33.483-122.43-79.447z" fill="#98ECFF"/>
    <path d="M238.822 439.416c-25.647 29.29-76.955 29.806-122.676 34.335-51.983 5.148-107.277 19.401-154.603-6.872-50.187-27.86-78.108-78.356-83.083-125.078-4.62-43.378 24.228-78.959 58.27-107.928 30.517-25.968 71.694-40.371 118.286-42.315 47.36-1.976 99.849 3.115 137.928 31.624 36.835 27.579 40.122 69.486 48.243 107.761 8.074 38.057 22.795 79.737-2.365 108.473z" fill="#CBF8D7"/>
</svg>
