<svg width="20" height="20" viewBox="0 0 20 20" fill="none" xmlns="http://www.w3.org/2000/svg">
<path d="M4 12.9999C3.17 12.9999 2.42 13.3399 1.88 13.8799C0.7 15.0599 0 19.9999 0 19.9999C0 19.9999 4.94 19.2999 6.12 18.1199C6.66 17.5799 7 16.8299 7 15.9999C7 14.3399 5.66 12.9999 4 12.9999ZM4.71 16.7099C4.43 16.9899 2.54 17.4699 2.54 17.4699C2.54 17.4699 3.01 15.5899 3.3 15.2999C3.47 15.1099 3.72 14.9999 4 14.9999C4.55 14.9999 5 15.4499 5 15.9999C5 16.2799 4.89 16.5299 4.71 16.7099ZM15.42 11.6499C21.78 5.28993 19.66 0.339932 19.66 0.339932C19.66 0.339932 14.71 -1.78007 8.35 4.57993L5.86 4.07993C5.21 3.94993 4.53 4.15993 4.05 4.62993L0 8.68993L5 10.8299L9.17 14.9999L11.31 19.9999L15.36 15.9499C15.83 15.4799 16.04 14.7999 15.91 14.1399L15.42 11.6499ZM5.41 8.82993L3.5 8.00993L5.47 6.03993L6.91 6.32993C6.34 7.15993 5.83 8.02993 5.41 8.82993ZM11.99 16.4999L11.17 14.5899C11.97 14.1699 12.84 13.6599 13.66 13.0899L13.95 14.5299L11.99 16.4999ZM14 10.2399C12.68 11.5599 10.62 12.6399 9.96 12.9699L7.03 10.0399C7.35 9.38993 8.43 7.32993 9.76 5.99993C14.44 1.31993 17.99 2.00993 17.99 2.00993C17.99 2.00993 18.68 5.55993 14 10.2399ZM13 8.99993C14.1 8.99993 15 8.09993 15 6.99993C15 5.89993 14.1 4.99993 13 4.99993C11.9 4.99993 11 5.89993 11 6.99993C11 8.09993 11.9 8.99993 13 8.99993Z" fill="white"/>
</svg>
