<svg width="464" height="264" fill="none" xmlns="http://www.w3.org/2000/svg">
    <g clip-path="url(#a)">
        <path d="M123.222.473c67.063-3.871 137.382 16.328 127.046 45.61-10.336 29.282 55.26-10.4 81.436.158 18.638 7.521 11.187 30.401 20.207 39.626 20.672 21.137 41.786-5.52 68.119 10.493 26.333 16.013 15.374 165.356 4.66 165.332l-405.768-.725-4.849.157s-29.73-42.921-2.79-67.961c26.94-25.041 8.428-36.536 5.172-46.218-3.761-11.124-12.513-30.543 25.678-44.79C80.324 87.909 70.477 56.892 69.54 50.459 68.6 44.025 56.15 4.352 123.222.473z" fill="url(#b)"/>
        <path opacity=".6" d="M356.05 34.675h-21.461a4.636 4.636 0 0 0-4.636 4.636v217.051a4.636 4.636 0 0 0 4.636 4.636h21.461a4.636 4.636 0 0 0 4.636-4.636V39.311a4.636 4.636 0 0 0-4.636-4.636zM313.12 95.66h-21.461a4.636 4.636 0 0 0-4.636 4.635v156.06a4.636 4.636 0 0 0 4.636 4.635h21.461a4.636 4.636 0 0 0 4.636-4.635v-156.06a4.636 4.636 0 0 0-4.636-4.636zM399.587 83.39h-21.461a4.636 4.636 0 0 0-4.636 4.636v168.328a4.637 4.637 0 0 0 4.636 4.636h21.461a4.637 4.637 0 0 0 4.636-4.636V88.027a4.636 4.636 0 0 0-4.636-4.636zM270.199 67.308h-21.461a4.635 4.635 0 0 0-4.635 4.635v184.412a4.635 4.635 0 0 0 4.635 4.635h21.461a4.635 4.635 0 0 0 4.636-4.635V71.943a4.636 4.636 0 0 0-4.636-4.635zM227.277 124.735h-21.46a4.636 4.636 0 0 0-4.636 4.636v126.991a4.636 4.636 0 0 0 4.636 4.636h21.46a4.636 4.636 0 0 0 4.636-4.636V129.371a4.636 4.636 0 0 0-4.636-4.636z" fill="#BDD0FB"/>
        <path style="mix-blend-mode:multiply" opacity=".3" d="M360.686 86.828h-30.733V260.99h30.733V86.828z" fill="url(#c)"/>
        <path style="mix-blend-mode:multiply" opacity=".3" d="M317.756 133.763h-30.733V260.99h30.733V133.763z" fill="url(#d)"/>
        <path style="mix-blend-mode:multiply" opacity=".3" d="M404.223 124.326H373.49v136.673h30.733V124.326z" fill="url(#e)"/>
        <path style="mix-blend-mode:multiply" opacity=".3" d="M274.835 111.947h-30.732V260.99h30.732V111.947z" fill="url(#f)"/>
        <path style="mix-blend-mode:multiply" opacity=".3" d="M231.913 156.139h-30.732V260.99h30.732V156.139z" fill="url(#g)"/>
        <path d="m413.013 24.914-24.489 18.52 9.343.6-56.403 99.261a2.585 2.585 0 0 1-2.148 1.301 2.581 2.581 0 0 1-2.236-1.143l-27.413-41.1a2.575 2.575 0 0 0-2.377-1.135 2.575 2.575 0 0 0-2.133 1.544l-42.101 98.206a2.57 2.57 0 0 1-4.471.465l-24.701-35.077a2.576 2.576 0 0 0-2.101-1.09 2.57 2.57 0 0 0-2.101 1.09l-34.604 48.882 2.31 9.288 32.27-45.397a2.572 2.572 0 0 1 2.105-1.09 2.57 2.57 0 0 1 2.105 1.09l26.381 37.473a2.58 2.58 0 0 0 2.378 1.079 2.585 2.585 0 0 0 2.1-1.552l41.928-97.764a2.574 2.574 0 0 1 2.13-1.557 2.564 2.564 0 0 1 2.38 1.139l26.451 39.658a2.582 2.582 0 0 0 3.479.772c.376-.228.687-.548.905-.93l62.663-110.292 6.008 6.465 2.342-28.706zM171.087 193.525c-33.547-27.145-61.891-61.819-83.66-102.344a2.68 2.68 0 0 0-4.044-.828l-44.088 35.408a2.687 2.687 0 0 0-.694 3.358c25.23 47.306 58.17 87.846 97.236 119.501a2.677 2.677 0 0 0 3.161.133c.314-.21.58-.483.781-.803l31.875-50.916a2.68 2.68 0 0 0-.567-3.509z" fill="#739AF0"/>
        <path opacity=".6" d="m78.33 98.474-30.023 24.519c2.365 4.447 1.513 10.439-2.035 13.482 22.723 40.21 51.248 75.097 84.361 103.425a7.701 7.701 0 0 1 5.318-3.569 7.696 7.696 0 0 1 6.177 1.693c7.312-11.49 14.615-22.977 21.911-34.462-3.383-2.744-3.864-8.349-1.152-12.41-29.124-24.882-54.132-55.544-74.11-90.826-3.525 3.02-8.256 2.24-10.447-1.852z" fill="#BDD0FB"/>
        <path style="mix-blend-mode:multiply" opacity=".3" d="M118.783 190.332c7.498-9.682 7.427-23.968.347-32.515-7.08-8.546-19.222-8.925-27.595-.307-8.373 8.617-9.177 23.881-1.198 33.484 7.979 9.603 20.956 9.004 28.446-.662z" fill="url(#h)"/>
        <path opacity=".6" d="m117.995 163.202-2.302 2.555a.508.508 0 0 0-.071.583c2.066 4.037 1.577 8.16-.788 10.881-2.365 2.72-5.204 3.074-9.398.591-3.043-1.719-4.51-2.231-5.432-1.222-.789.843-1.049 2.365.615 4.494a11.482 11.482 0 0 0 2.609 2.436 2.82 2.82 0 0 1 .741 3.579 2.02 2.02 0 0 1-2.181 1.196 2.024 2.024 0 0 1-.822-.328 15.63 15.63 0 0 1-2.366-2.121.53.53 0 0 0-.394-.181.523.523 0 0 0-.394.181l-1.624 1.797a.516.516 0 0 1-.611.134.515.515 0 0 1-.178-.134l-1.9-2.412a.521.521 0 0 1 0-.67l2.129-2.31a.506.506 0 0 0 .087-.568c-1.98-4.06-1.506-8.05.93-10.612 2.76-2.894 5.953-2.003 9.611.292 2.539 1.576 4.005 1.829 5.061.662 1.057-1.167.742-3.114-.654-4.896a12.405 12.405 0 0 0-3.154-2.846 2.69 2.69 0 0 1-.646-3.572l.079-.142a2.027 2.027 0 0 1 2.87-.883 17.089 17.089 0 0 1 3.098 2.665.502.502 0 0 0 .613.14.507.507 0 0 0 .175-.14l1.869-2.034a.512.512 0 0 1 .788 0l1.719 2.184a.505.505 0 0 1-.079.701z" fill="#BDD0FB"/>
        <path style="mix-blend-mode:multiply" opacity=".3" d="M146.465 215.238a330.094 330.094 0 0 1-23.133-21.784l-3.808 4.951a338.689 338.689 0 0 0 23.464 22.076l3.477-5.243z" fill="url(#i)"/>
        <path d="M163.321 183.409c-42.346-5.7-83.864-19.836-122.544-41.715a2.681 2.681 0 0 0-3.146.353 2.667 2.667 0 0 0-.646.917l-20.783 48.7a2.69 2.69 0 0 0 1.144 3.39c44.94 25.6 93.293 42.126 142.569 48.764a2.691 2.691 0 0 0 3.036-2.531c.899-18.359 1.8-36.724 2.704-55.095a2.68 2.68 0 0 0-2.334-2.783z" fill="#739AF0"/>
        <path opacity=".6" d="M36.567 151.834c-4.678 11.211-9.356 22.425-14.034 33.641 4.234 2.366 6.418 7.561 4.825 11.653a391.933 391.933 0 0 0 123.703 42.204c.363-4.51 4.4-7.553 9.043-6.93.71-12.567 1.422-25.135 2.137-37.702-4.273-.576-7.435-4.794-7.096-9.303a344.325 344.325 0 0 1-108.628-37.064 6.81 6.81 0 0 1-4.144 4.113 6.806 6.806 0 0 1-5.806-.612z" fill="#BDD0FB"/>
        <path style="mix-blend-mode:multiply" opacity=".3" d="M116.544 205.612c1.766-11.235-5.282-22.533-15.595-25.971a18.533 18.533 0 0 0-20.689 5.993 18.537 18.537 0 0 0-3.39 6.811c-3.05 10.786 3.73 23.298 15.335 27.137 11.606 3.84 22.581-2.767 24.339-13.97z" fill="url(#j)"/>
        <path opacity=".6" d="M102.573 184.49c-.244 1.009-.481 2.011-.725 3.02a.5.5 0 0 0 .244.552c3.738 2.231 5.299 5.739 4.581 9.011-.788 3.391-3.012 4.896-7.884 4.904-3.477.079-4.99.363-5.306 1.577-.26 1.049.26 2.365 2.736 3.272 1.107.404 2.268.641 3.445.702a2.608 2.608 0 0 1 2.365 2.491 1.996 1.996 0 0 1-1.327 2.008 1.99 1.99 0 0 1-.849.105 16.474 16.474 0 0 1-3.106-.575.503.503 0 0 0-.398.049.52.52 0 0 0-.24.321l-.545 2.223a.516.516 0 0 1-.458.391.506.506 0 0 1-.212-.028l-2.815-1.009a.522.522 0 0 1-.323-.607c.229-.915.466-1.829.694-2.736a.514.514 0 0 0-.236-.56c-3.667-2.286-5.204-5.668-4.345-8.838.978-3.611 4.179-4.407 8.468-4.32 2.972.063 4.376-.434 4.731-1.861.354-1.427-.884-2.83-2.957-3.579a13.006 13.006 0 0 0-4.14-.789 2.472 2.472 0 0 1-2.301-2.531v-.142a1.99 1.99 0 0 1 1.26-1.919c.253-.1.525-.147.797-.138 1.356.063 2.7.283 4.005.654a.514.514 0 0 0 .64-.363c.204-.828.417-1.655.622-2.483a.514.514 0 0 1 .67-.363l2.539.915a.503.503 0 0 1 .324.243.515.515 0 0 1 .046.403z" fill="#BDD0FB"/>
        <path d="M152.11 194.503c-33.2 12.765-69.61 18.765-107.493 17.732a2.676 2.676 0 0 0-2.66 1.925c-.11.378-.136.776-.076 1.165 2.366 15.18 4.73 30.357 7.096 45.531a2.68 2.68 0 0 0 2.563 2.271c44.253 1.404 86.789-5.519 125.547-20.357a2.67 2.67 0 0 0 1.396-3.761l-23.046-43.268a2.677 2.677 0 0 0-3.327-1.238z" fill="#739AF0"/>
        <path opacity=".6" d="M45.555 221.79c1.74 10.596 3.477 21.192 5.211 31.789 4.195.126 8.152 3.232 8.87 7.056 38.372.276 75.333-5.771 109.495-17.928a6.407 6.407 0 0 1-.37-5.309 6.398 6.398 0 0 1 3.776-3.75l-15.768-30.071c-3.374 1.301-7.616-.67-9.461-4.312-29.96 10.675-62.458 15.989-96.187 15.768.82 3.784-1.71 6.867-5.566 6.757z" fill="#BDD0FB"/>
        <path style="mix-blend-mode:multiply" opacity=".3" d="M128.512 230.723c-3.871-9.422-14.191-15.295-23.282-13.734-9.09 1.561-14.404 10.147-11.668 19.765 2.736 9.619 13.403 16.51 23.652 14.744 10.25-1.766 15.162-11.377 11.298-20.775z" fill="url(#k)"/>
        <path opacity=".6" d="M108.636 220.095c.284.868.568 1.735.844 2.594a.524.524 0 0 0 .465.355c3.737.205 6.473 2.279 7.443 5.093 1.009 2.941.055 5.03-3.469 7.017-2.5 1.482-3.469 2.326-3.154 3.406.284.923 1.285 1.743 3.493 1.419a9.546 9.546 0 0 0 2.838-.867 2.366 2.366 0 0 1 2.886.946 1.686 1.686 0 0 1-.038 2.067 1.674 1.674 0 0 1-.577.456c-.78.341-1.59.605-2.421.789a.515.515 0 0 0-.399.45.51.51 0 0 0 .021.212l.567 1.766a.503.503 0 0 1-.052.425.513.513 0 0 1-.358.237l-2.365.347a.514.514 0 0 1-.568-.355c-.244-.788-.496-1.577-.741-2.365a.5.5 0 0 0-.457-.355c-3.705-.276-6.37-2.263-7.198-5.061-.946-3.194 1.025-5.125 4.194-6.812 2.192-1.167 2.98-2.129 2.57-3.367-.41-1.238-1.931-1.829-3.792-1.577a10.247 10.247 0 0 0-3.358 1.104 2.247 2.247 0 0 1-2.847-1.025l-.071-.11a1.675 1.675 0 0 1-.259-1.339 1.686 1.686 0 0 1 .819-1.09c.987-.495 2.03-.868 3.107-1.111a.528.528 0 0 0 .338-.242.527.527 0 0 0 .068-.201.526.526 0 0 0-.02-.212c-.213-.662-.426-1.332-.631-2.002a.514.514 0 0 1 .053-.423.503.503 0 0 1 .357-.232l2.113-.315a.523.523 0 0 1 .599.378z" fill="#BDD0FB"/>
        <path style="mix-blend-mode:multiply" opacity=".3" d="M157.944 221.096a278.44 278.44 0 0 1-25.285 7.639l1.987 4.802a285.715 285.715 0 0 0 25.639-7.75l-2.341-4.691z" fill="url(#l)"/>
        <path d="M97.314 246.814v12.434c0 2.01 22.431 3.642 50.097 3.642 27.665 0 50.088-1.632 50.088-3.642v-12.434H97.315z" fill="url(#m)"/>
        <path d="M133.566 262.748v-15.934H97.299v12.434c.016 1.663 15.335 3.067 36.267 3.5z" fill="url(#n)"/>
        <path d="M135.253 262.78a668.263 668.263 0 0 0 29.889-.126v-15.84h-29.889v15.966z" fill="url(#o)"/>
        <path d="M167.145 262.599c17.841-.56 30.346-1.845 30.346-3.351v-12.434h-30.346v15.785z" fill="url(#p)"/>
        <path d="M147.41 250.323c27.663 0 50.089-1.631 50.089-3.642 0-2.012-22.426-3.643-50.089-3.643-27.662 0-50.088 1.631-50.088 3.643 0 2.011 22.426 3.642 50.088 3.642z" fill="url(#q)"/>
        <path d="M188.653 246.68c0 1.396-18.464 2.523-41.242 2.523-22.777 0-41.25-1.127-41.25-2.523 0-1.395 18.465-2.523 41.25-2.523s41.242 1.128 41.242 2.523z" fill="url(#r)"/>
        <path d="M88.745 233.655v12.434c0 2.01 22.431 3.642 50.096 3.642 27.666 0 50.088-1.632 50.088-3.642v-12.434H88.745z" fill="url(#s)"/>
        <path d="M124.996 249.589v-15.934H88.729v12.434c.015 1.663 15.342 3.051 36.267 3.5z" fill="url(#t)"/>
        <path d="M126.684 249.621a668.18 668.18 0 0 0 29.889-.126v-15.84h-29.889v15.966z" fill="url(#u)"/>
        <path d="M158.583 249.439c17.85-.559 30.346-1.844 30.346-3.35v-12.434h-30.346v15.784z" fill="url(#v)"/>
        <path d="M138.841 237.164c27.663 0 50.088-1.631 50.088-3.643 0-2.011-22.425-3.642-50.088-3.642s-50.088 1.631-50.088 3.642c0 2.012 22.425 3.643 50.088 3.643z" fill="url(#w)"/>
        <path d="M180.083 233.522c0 1.395-18.465 2.523-41.242 2.523-22.778 0-41.25-1.128-41.25-2.523 0-1.396 18.465-2.515 41.25-2.515s41.242 1.119 41.242 2.515z" fill="url(#x)"/>
        <path d="M94.453 220.15v12.434c0 2.01 22.431 3.642 50.096 3.642 27.666 0 50.088-1.632 50.088-3.642V220.15H94.453z" fill="url(#y)"/>
        <path d="M130.705 236.084V220.15H94.437v12.434c.016 1.663 15.335 3.059 36.268 3.5z" fill="url(#z)"/>
        <path d="M132.392 236.116a668.18 668.18 0 0 0 29.896-.126v-15.84h-29.896v15.966z" fill="url(#A)"/>
        <path d="M164.291 235.927c17.85-.552 30.346-1.845 30.346-3.343V220.15h-30.346v15.777z" fill="url(#B)"/>
        <path d="M144.549 223.659c27.663 0 50.088-1.631 50.088-3.642 0-2.012-22.425-3.643-50.088-3.643s-50.088 1.631-50.088 3.643c0 2.011 22.425 3.642 50.088 3.642z" fill="url(#C)"/>
        <path d="M185.799 220.016c0 1.396-18.473 2.523-41.25 2.523s-41.266-1.127-41.266-2.523c0-1.395 18.465-2.523 41.25-2.523 22.786 0 41.266 1.128 41.266 2.523z" fill="url(#D)"/>
        <path d="M88.745 206.826v12.434c0 2.01 22.431 3.642 50.096 3.642 27.666 0 50.088-1.632 50.088-3.642v-12.434H88.745z" fill="url(#E)"/>
        <path d="M124.996 222.76v-15.934H88.729v12.434c.015 1.663 15.342 3.074 36.267 3.5z" fill="url(#F)"/>
        <path d="M126.684 222.792a668.18 668.18 0 0 0 29.889-.126v-15.84h-29.889v15.966z" fill="url(#G)"/>
        <path d="M158.583 222.602c17.85-.551 30.346-1.844 30.346-3.342v-12.434h-30.346v15.776z" fill="url(#H)"/>
        <path d="M138.841 210.334c27.663 0 50.088-1.631 50.088-3.643 0-2.011-22.425-3.642-50.088-3.642s-50.088 1.631-50.088 3.642c0 2.012 22.425 3.643 50.088 3.643z" fill="url(#I)"/>
        <path d="M180.083 206.692c0 1.395-18.465 2.523-41.242 2.523-22.778 0-41.25-1.128-41.25-2.523 0-1.396 18.465-2.492 41.25-2.492s41.242 1.096 41.242 2.492z" fill="url(#J)"/>
        <path d="M441.515 245.568v11.953c0 1.939-21.571 3.5-48.173 3.5-26.601 0-48.172-1.576-48.172-3.5v-11.953h96.345z" fill="url(#K)"/>
        <path d="M406.683 260.887v-15.319h34.832v11.953c0 1.6-14.696 2.948-34.832 3.366z" fill="url(#L)"/>
        <path d="M405.066 260.919c-3.745.071-7.663.102-11.692.102a640.92 640.92 0 0 1-17.054-.22v-15.233h28.746v15.351z" fill="url(#M)"/>
        <path d="M374.388 260.745c-17.164-.536-29.171-1.781-29.171-3.224v-11.953h29.171v15.177z" fill="url(#N)"/>
        <path d="M393.374 248.944c26.604 0 48.172-1.568 48.172-3.501 0-1.933-21.568-3.501-48.172-3.501-26.605 0-48.173 1.568-48.173 3.501 0 1.933 21.568 3.501 48.173 3.501z" fill="url(#O)"/>
        <path d="M393.373 247.871c21.907 0 39.666-1.087 39.666-2.428s-17.759-2.428-39.666-2.428c-21.906 0-39.665 1.087-39.665 2.428s17.759 2.428 39.665 2.428z" fill="url(#P)"/>
        <path d="M436.051 232.583v11.96c0 1.932-21.564 3.501-48.165 3.501s-48.172-1.577-48.172-3.501v-11.96h96.337z" fill="url(#Q)"/>
        <path d="M401.195 247.902v-15.319h34.856v11.96c0 1.585-14.727 2.933-34.856 3.359z" fill="url(#R)"/>
        <path d="M399.571 247.934a694.16 694.16 0 0 1-11.684.102 608.3 608.3 0 0 1-17.062-.229v-15.224h28.746v15.351z" fill="url(#S)"/>
        <path d="M368.893 247.752c-17.156-.536-29.171-1.774-29.171-3.217v-11.952h29.171v15.169z" fill="url(#T)"/>
        <path d="M387.886 235.95c26.605 0 48.173-1.567 48.173-3.5 0-1.934-21.568-3.501-48.173-3.501s-48.172 1.567-48.172 3.501c0 1.933 21.567 3.5 48.172 3.5z" fill="url(#U)"/>
        <path d="M387.886 234.877c21.907 0 39.665-1.087 39.665-2.428s-17.758-2.428-39.665-2.428-39.665 1.087-39.665 2.428 17.758 2.428 39.665 2.428z" fill="url(#V)"/>
        <path d="M441.515 219.764v11.96c0 1.932-21.571 3.501-48.173 3.501-26.601 0-48.172-1.577-48.172-3.501v-11.96h96.345z" fill="url(#W)"/>
        <path d="M406.683 235.091v-15.327h34.832v11.96c0 1.593-14.696 2.941-34.832 3.367z" fill="url(#X)"/>
        <path d="M405.066 235.122c-3.745.063-7.663.103-11.692.103a607.29 607.29 0 0 1-17.054-.229v-15.232h28.746v15.358z" fill="url(#Y)"/>
        <path d="M374.388 234.949c-17.164-.537-29.171-1.774-29.171-3.217v-11.968h29.171v15.185z" fill="url(#Z)"/>
        <path d="M393.374 223.138c26.604 0 48.172-1.567 48.172-3.501 0-1.933-21.568-3.5-48.172-3.5-26.605 0-48.173 1.567-48.173 3.5 0 1.934 21.568 3.501 48.173 3.501z" fill="url(#aa)"/>
        <path d="M393.373 222.066c21.907 0 39.666-1.088 39.666-2.429 0-1.341-17.759-2.428-39.666-2.428-21.906 0-39.665 1.087-39.665 2.428s17.759 2.429 39.665 2.429z" fill="url(#ab)"/>
        <path d="m463.961 205.233-2.893 10.1c-.473 1.632-19.072-2.263-41.542-8.673-22.47-6.409-40.296-13.001-39.847-14.64l2.894-10.1 81.388 23.313z" fill="url(#ac)"/>
        <path d="m430.8 209.719 3.705-12.946 29.456 8.437-2.894 10.099c-.386 1.372-13.159-1.048-30.267-5.59z" fill="url(#ad)"/>
        <path d="M429.421 209.373a575.418 575.418 0 0 1-9.895-2.736 522.57 522.57 0 0 1-14.357-4.321l3.682-12.867 24.291 6.954-3.721 12.97z" fill="url(#ae)"/>
        <path d="M403.552 201.835c-14.373-4.604-24.22-8.562-23.873-9.784l2.893-10.1 24.654 7.096-3.674 12.788z" fill="url(#af)"/>
        <path d="M382.604 181.809c-.473 1.64 17.345 8.176 39.847 14.617 22.501 6.442 41.068 10.329 41.541 8.673.473-1.656-17.345-8.176-39.846-14.609-22.502-6.434-41.077-10.313-41.542-8.681z" fill="url(#ag)"/>
        <path d="M389.786 183.867c-.323 1.135 14.413 6.355 32.925 11.653 18.512 5.298 33.768 8.673 34.091 7.545.323-1.127-14.412-6.347-32.916-11.645-18.505-5.298-33.776-8.68-34.1-7.553z" fill="url(#ah)"/>
        <path d="m437.635 135.703 3.091 10.045c.497 1.624-17.219 8.499-39.563 15.358s-40.879 11.093-41.376 9.461l-3.083-10.044 80.931-24.82z" fill="url(#ai)"/>
        <path d="m412.296 157.558-3.942-12.875 29.281-8.98 3.091 10.045c.402 1.348-11.621 6.275-28.43 11.81z" fill="url(#aj)"/>
        <path d="M410.947 158.007a750.356 750.356 0 0 1-9.792 3.098c-5.046 1.577-9.903 2.957-14.397 4.203l-3.942-12.796 24.15-7.411 3.981 12.906z" fill="url(#ak)"/>
        <path d="M385.127 165.758c-14.555 3.942-24.977 6.031-25.348 4.817l-3.083-10.045 24.52-7.521 3.911 12.749z" fill="url(#al)"/>
        <path d="M356.665 160.42c.497 1.624 19.025-2.618 41.377-9.461 22.351-6.844 40.059-13.735 39.531-15.351-.528-1.616-19.017 2.61-41.368 9.461-22.352 6.851-40.036 13.726-39.54 15.351z" fill="url(#am)"/>
        <path d="M363.808 158.227c.347 1.128 15.547-2.538 33.957-8.183s33.043-11.133 32.696-12.252c-.347-1.12-15.548 2.53-33.95 8.176-18.401 5.645-33.05 11.132-32.703 12.259z" fill="url(#an)"/>
        <path d="m177.781 248.233 1.191 6.308c.011 1.209.085 2.417.221 3.619.662 2.704 12.031-3.864 9.051-4.392a12.101 12.101 0 0 1-2.673-2.862 25.093 25.093 0 0 1-1.498-4.178l-6.292 1.505z" fill="url(#ao)"/>
        <path d="M187.526 252.916s-3.343.789-5.046.994c-1.703.205-3.879-2.468-5.093-1.971-1.34.552-2.074 8.925-2.074 8.925s21.335.969 26.381-.418c1.995-.552-7.529-4.999-14.168-7.53z" fill="url(#ap)"/>
        <path d="M156.486 126.384c.544 0 2.018.512 4.178 4.581 2.752 5.187 6.781 20.869 6.781 20.869l-12.024 4.462-1.577-3.272-2.546-25.229s5.038-1.419 5.188-1.411z" fill="url(#aq)"/>
        <path d="M138.21 123.647c3.437 0 14.664 1.577 18.614 2.878l-4.312 60.63-35.101 8.026-.559-8.957s4.249-31.671 2.664-36.866c-1.584-5.196-4.273-22.644-4.273-22.644s2.886-.678 10.644-2.01a80.75 80.75 0 0 1 12.323-1.057z" fill="url(#ar)"/>
        <path d="M117.475 130.413c3.335-1.246 4.959 28.667 5.408 40.997 5.898.568 16.187 0 18.741-.189 1.206-.086 3.982-1.104 5.18-1.253a11.875 11.875 0 0 1 2.941-.142c.22.039 6.37 2.546 6.898 3.09.655.686 2.413 2.366 2.121 3.154-.291.788-3.398-2.073-3.398-2.073l-1.506-.844c1.877 1.837 5.472 4.249 4.952 5.125-.521.875-3.745-1.577-6.048-3.257 1.979 1.782 4.439 4.967 3.871 5.464-.567.497-3.311-3.24-6.307-4.305-1.104-.394-2.207.694-3.083.789a6.426 6.426 0 0 1-2.254.126l-3.004-.292c-.836.056-1.667.178-2.484.363-1.293.276-3.414.56-5.061.962-9.462 2.31-12.615 3.382-15.548 3.382-7.837 0-13.632-32.27-8.223-42.638.686-1.237 6.015-8.136 6.804-8.459z" fill="#F7A491"/>
        <path d="M108.605 157.518c-.623-12.615-.536-28.155 6.56-30.804 2.799-1.048 8.05 5.204 7.159 31.025-3.785.315-9.658.599-13.719-.221z" fill="url(#as)"/>
        <path d="m205.69 247.516 1.191 6.307c.011 1.209.085 2.417.221 3.619.67 2.704 12.031-3.863 9.051-4.392a12.45 12.45 0 0 1-2.673-2.862 25.097 25.097 0 0 1-1.498-4.17l-6.292 1.498z" fill="url(#at)"/>
        <path d="M215.435 252.199a49.833 49.833 0 0 1-5.038.994c-1.703.173-3.879-2.468-5.101-1.972-1.222.497-2.073 8.957-2.073 8.957s21.334.97 26.38-.418c1.995-.583-7.529-5.022-14.168-7.561z" fill="url(#au)"/>
        <path d="m139.163 181.818 37.159-6.418s16.068-2.452 19.757 2.294c3.69 4.746 20.499 73.157 20.499 73.157s-12.11.891-12.614.537c-.41-.269-20.957-54.717-20.957-54.717l-4.675 1.577c-8.215 2.831-30.551 4.163-33.397 2.618-6.789-3.627-5.772-19.048-5.772-19.048z" fill="url(#av)"/>
        <path d="m116.907 185.878 37.158-6.418s16.06-2.444 19.758 2.302c3.698 4.747 14.822 69.744 14.822 69.744s-12.11.891-12.615.536c-.504-.355-15.311-51.247-15.311-51.247l-4.675 1.577c-8.215 2.822-30.551 4.155-33.397 2.609-6.749-3.682-5.74-19.103-5.74-19.103z" fill="url(#aw)"/>
        <path d="M144.762 120.628v3.666s-.552 2.129-4.951 2.129c-4.731 0-6.694-.237-9.461-2.129.488-2.665 1.379-6.812 1.419-9.02a16.482 16.482 0 0 0-.197-2.672l10.107-.213 3.154.512-.071 7.727z" fill="url(#ax)"/>
        <path d="M130.129 111.12c.299 7.001 9.137 8.018 13.001 8.128h1.781c1.254-.157 2.192-1.963 2.862-4.407 1.309-4.841 1.577-12.189.978-14.191-.867-2.957-2.799-6.308-11.968-5.378-9.169.93-7.056 6.883-6.654 15.848z" fill="url(#ay)"/>
        <path d="M152.386 94.563a29.651 29.651 0 0 1-8.184-3.5c-3.509-2.153-8.468-1.025-10.116-.434a2.38 2.38 0 0 1 .505-.867c-.431.23-.769.604-.954 1.056-.079 0-.118.071-.095.087a2.649 2.649 0 0 0-1.293-.095s.355 0 .45.245a.122.122 0 0 0 .047.063c-6.22 1.995-8.058 11.132-6.481 13.529 1.893 2.878 3.785 9.035 3.785 9.035a5.025 5.025 0 0 0 1.088-3.54c-.095-2.31 1.853-2.042 4.462-2.72 2.61-.678.954-3.839 3.359-5.274 2.405-1.435 10.147.694 10.249-.655 3.067-.654 3.13-6.63 3.178-6.93z" fill="url(#az)"/>
        <path d="m190.009 149.216-33.57 2.16a2.188 2.188 0 0 0-1.932 1.49l-8.673 25.884-18.512 1.206a.948.948 0 0 0-.875 1.002.948.948 0 0 0 1.001.875l52.667-3.446a3.688 3.688 0 0 0 3.216-2.365l8.878-23.857a2.201 2.201 0 0 0-2.2-2.949z" fill="#0074FF"/>
        <path d="M173.279 165.205a1.847 1.847 0 0 1-1.38 1.444 1.839 1.839 0 0 1-1.885-.658 1.842 1.842 0 0 1-.181-1.989 1.849 1.849 0 0 1 1.736-.989 1.975 1.975 0 0 1 1.71 2.192z" fill="#fff"/>
        <path opacity=".8" d="M206.448 29.629a8.393 8.393 0 0 0-8.168-6.497c-.713.001-1.423.091-2.113.268a12.325 12.325 0 0 0-14.83-6.551 15.204 15.204 0 0 0-22.33-4.168 15.198 15.198 0 0 0-4.973 6.817 10.442 10.442 0 0 0-10.359.125 10.44 10.44 0 0 0-5.15 8.989c0 .347 0 .678.048 1.017h67.875zM237.031 71.013a6.312 6.312 0 0 0-7.751-4.707 9.335 9.335 0 0 0-11.235-4.959 11.506 11.506 0 0 0-10.966-5.512 11.5 11.5 0 0 0-9.698 7.523 7.799 7.799 0 0 0-3.832-1.002 7.885 7.885 0 0 0-7.884 7.884v.789l51.366-.016zM94.003 65.202a5.519 5.519 0 0 1 5.385-4.289c.47.001.939.06 1.395.174a8.131 8.131 0 0 1 9.792-4.32 10.037 10.037 0 0 1 9.565-4.815 10.033 10.033 0 0 1 8.459 6.565 6.88 6.88 0 0 1 10.249 6.015c.012.224.012.447 0 .67H94.003z" fill="#fff"/>
        <path d="M447.38 260.501H8.373v2.389H447.38v-2.389z" fill="#233862"/>
    </g>
    <defs>
        <linearGradient id="b" x1="0" y1="130.846" x2="436.343" y2="130.846" gradientUnits="userSpaceOnUse">
            <stop stop-color="#DAE3FE"/>
            <stop offset="1" stop-color="#E9EFFD"/>
        </linearGradient>
        <linearGradient id="c" x1="345.319" y1="86.828" x2="345.319" y2="260.998" gradientUnits="userSpaceOnUse">
            <stop stop-color="#62B3FE"/>
            <stop offset="1" stop-color="#4D00CA"/>
        </linearGradient>
        <linearGradient id="d" x1="12074.5" y1="21719.1" x2="12074.5" y2="42251" gradientUnits="userSpaceOnUse">
            <stop stop-color="#62B3FE"/>
            <stop offset="1" stop-color="#4D00CA"/>
        </linearGradient>
        <linearGradient id="e" x1="15531.1" y1="21676.2" x2="15531.1" y2="45368.3" gradientUnits="userSpaceOnUse">
            <stop stop-color="#62B3FE"/>
            <stop offset="1" stop-color="#4D00CA"/>
        </linearGradient>
        <linearGradient id="f" x1="10358.2" y1="21274.5" x2="10358.2" y2="49451" gradientUnits="userSpaceOnUse">
            <stop stop-color="#62B3FE"/>
            <stop offset="1" stop-color="#4D00CA"/>
        </linearGradient>
        <linearGradient id="g" x1="8642.19" y1="20921" x2="8642.19" y2="34866.3" gradientUnits="userSpaceOnUse">
            <stop stop-color="#62B3FE"/>
            <stop offset="1" stop-color="#4D00CA"/>
        </linearGradient>
        <linearGradient id="h" x1="4346.74" y1="10484.8" x2="6341.15" y2="10484.8" gradientUnits="userSpaceOnUse">
            <stop stop-color="#62B3FE"/>
            <stop offset="1" stop-color="#4D00CA"/>
        </linearGradient>
        <linearGradient id="i" x1="4203.66" y1="7289.12" x2="5124.21" y2="7289.12" gradientUnits="userSpaceOnUse">
            <stop stop-color="#62B3FE"/>
            <stop offset="1" stop-color="#4D00CA"/>
        </linearGradient>
        <linearGradient id="j" x1="4004.08" y1="10837.3" x2="6102.89" y2="10837.3" gradientUnits="userSpaceOnUse">
            <stop stop-color="#62B3FE"/>
            <stop offset="1" stop-color="#4D00CA"/>
        </linearGradient>
        <linearGradient id="k" x1="4448.24" y1="10626.8" x2="6182.85" y2="10626.8" gradientUnits="userSpaceOnUse">
            <stop stop-color="#62B3FE"/>
            <stop offset="1" stop-color="#4D00CA"/>
        </linearGradient>
        <linearGradient id="l" x1="4781.04" y1="3808.15" x2="5749.06" y2="3808.15" gradientUnits="userSpaceOnUse">
            <stop stop-color="#62B3FE"/>
            <stop offset="1" stop-color="#4D00CA"/>
        </linearGradient>
        <linearGradient id="m" x1="97.314" y1="254.848" x2="197.499" y2="254.848" gradientUnits="userSpaceOnUse">
            <stop offset=".03" stop-color="#FE7062"/>
            <stop offset="1" stop-color="#FE7062"/>
        </linearGradient>
        <linearGradient id="n" x1="97.315" y1="254.785" x2="133.566" y2="254.785" gradientUnits="userSpaceOnUse">
            <stop stop-color="#FF928E"/>
            <stop offset=".99" stop-color="#FF928E"/>
        </linearGradient>
        <linearGradient id="o" x1="5262.7" y1="5443.18" x2="6395.79" y2="5443.18" gradientUnits="userSpaceOnUse">
            <stop stop-color="#FF928E"/>
            <stop offset=".99" stop-color="#FF928E"/>
        </linearGradient>
        <linearGradient id="p" x1="6600.85" y1="5346.05" x2="7768.87" y2="5346.05" gradientUnits="userSpaceOnUse">
            <stop stop-color="#FF928E"/>
            <stop offset=".99" stop-color="#FF928E"/>
        </linearGradient>
        <linearGradient id="q" x1="12462.1" y1="2522.37" x2="25191.5" y2="2522.37" gradientUnits="userSpaceOnUse">
            <stop offset=".03" stop-color="#FE7062"/>
            <stop offset="1" stop-color="#FE7062"/>
        </linearGradient>
        <linearGradient id="r" x1="11213.7" y1="1822.91" x2="19844.9" y2="1822.91" gradientUnits="userSpaceOnUse">
            <stop stop-color="#FF928E"/>
            <stop offset=".99" stop-color="#FF928E"/>
        </linearGradient>
        <linearGradient id="s" x1="11365.5" y1="5161.71" x2="24095.9" y2="5161.71" gradientUnits="userSpaceOnUse">
            <stop offset=".03" stop-color="#FE7062"/>
            <stop offset="1" stop-color="#FE7062"/>
        </linearGradient>
        <linearGradient id="t" x1="4170.97" y1="5116.94" x2="5838.54" y2="5116.94" gradientUnits="userSpaceOnUse">
            <stop stop-color="#FF928E"/>
            <stop offset=".99" stop-color="#FF928E"/>
        </linearGradient>
        <linearGradient id="u" x1="4929.24" y1="5161.71" x2="6062.33" y2="5161.71" gradientUnits="userSpaceOnUse">
            <stop stop-color="#FF928E"/>
            <stop offset=".99" stop-color="#FF928E"/>
        </linearGradient>
        <linearGradient id="v" x1="6262.42" y1="5069.45" x2="7430.45" y2="5069.45" gradientUnits="userSpaceOnUse">
            <stop stop-color="#FF928E"/>
            <stop offset=".99" stop-color="#FF928E"/>
        </linearGradient>
        <linearGradient id="w" x1="11364.6" y1="2387.62" x2="24094" y2="2387.62" gradientUnits="userSpaceOnUse">
            <stop offset=".03" stop-color="#FE7062"/>
            <stop offset="1" stop-color="#FE7062"/>
        </linearGradient>
        <linearGradient id="x" x1="10308.5" y1="1723.21" x2="18939.6" y2="1723.21" gradientUnits="userSpaceOnUse">
            <stop stop-color="#FF928E"/>
            <stop offset=".99" stop-color="#FF928E"/>
        </linearGradient>
        <linearGradient id="y" x1="12096.5" y1="4872.82" x2="24827" y2="4872.82" gradientUnits="userSpaceOnUse">
            <stop offset=".03" stop-color="#FE7062"/>
            <stop offset="1" stop-color="#FE7062"/>
        </linearGradient>
        <linearGradient id="z" x1="4439.25" y1="4830.31" x2="6106.82" y2="4830.31" gradientUnits="userSpaceOnUse">
            <stop stop-color="#FF928E"/>
            <stop offset=".99" stop-color="#FF928E"/>
        </linearGradient>
        <linearGradient id="A" x1="5152.67" y1="4872.82" x2="6286.35" y2="4872.82" gradientUnits="userSpaceOnUse">
            <stop stop-color="#FF928E"/>
            <stop offset=".99" stop-color="#FF928E"/>
        </linearGradient>
        <linearGradient id="B" x1="6487.83" y1="4783.11" x2="7655.86" y2="4783.11" gradientUnits="userSpaceOnUse">
            <stop stop-color="#FF928E"/>
            <stop offset=".99" stop-color="#FF928E"/>
        </linearGradient>
        <linearGradient id="C" x1="12095.6" y1="2249.32" x2="24825" y2="2249.32" gradientUnits="userSpaceOnUse">
            <stop offset=".03" stop-color="#FE7062"/>
            <stop offset="1" stop-color="#FE7062"/>
        </linearGradient>
        <linearGradient id="D" x1="10914.5" y1="1625.61" x2="19549" y2="1625.61" gradientUnits="userSpaceOnUse">
            <stop stop-color="#FF928E"/>
            <stop offset=".99" stop-color="#FF928E"/>
        </linearGradient>
        <linearGradient id="E" x1="11365.5" y1="4587.82" x2="24095.9" y2="4587.82" gradientUnits="userSpaceOnUse">
            <stop offset=".03" stop-color="#FE7062"/>
            <stop offset="1" stop-color="#FE7062"/>
        </linearGradient>
        <linearGradient id="F" x1="4170.97" y1="4547.71" x2="5838.54" y2="4547.71" gradientUnits="userSpaceOnUse">
            <stop stop-color="#FF928E"/>
            <stop offset=".99" stop-color="#FF928E"/>
        </linearGradient>
        <linearGradient id="G" x1="4929.24" y1="4587.82" x2="6062.33" y2="4587.82" gradientUnits="userSpaceOnUse">
            <stop stop-color="#FF928E"/>
            <stop offset=".99" stop-color="#FF928E"/>
        </linearGradient>
        <linearGradient id="H" x1="6262.42" y1="4503.33" x2="7430.45" y2="4503.33" gradientUnits="userSpaceOnUse">
            <stop stop-color="#FF928E"/>
            <stop offset=".99" stop-color="#FF928E"/>
        </linearGradient>
        <linearGradient id="I" x1="11364.6" y1="2112.88" x2="24094" y2="2112.88" gradientUnits="userSpaceOnUse">
            <stop offset=".03" stop-color="#FE7062"/>
            <stop offset="1" stop-color="#FE7062"/>
        </linearGradient>
        <linearGradient id="J" x1="10308.5" y1="1518.75" x2="18939.6" y2="1518.75" gradientUnits="userSpaceOnUse">
            <stop stop-color="#FF928E"/>
            <stop offset=".99" stop-color="#FF928E"/>
        </linearGradient>
        <linearGradient id="K" x1="42528.7" y1="5210.16" x2="54302.1" y2="5210.16" gradientUnits="userSpaceOnUse">
            <stop offset=".03" stop-color="#FE7062"/>
            <stop offset="1" stop-color="#FE7062"/>
        </linearGradient>
        <linearGradient id="L" x1="18373.9" y1="5165.71" x2="19914.2" y2="5165.71" gradientUnits="userSpaceOnUse">
            <stop stop-color="#FF928E"/>
            <stop offset=".99" stop-color="#FF928E"/>
        </linearGradient>
        <linearGradient id="M" x1="14097" y1="5210.16" x2="15145" y2="5210.16" gradientUnits="userSpaceOnUse">
            <stop stop-color="#FF928E"/>
            <stop offset=".99" stop-color="#FF928E"/>
        </linearGradient>
        <linearGradient id="N" x1="13117.7" y1="5118.77" x2="14197.6" y2="5118.77" gradientUnits="userSpaceOnUse">
            <stop stop-color="#FF928E"/>
            <stop offset=".99" stop-color="#FF928E"/>
        </linearGradient>
        <linearGradient id="O" x1="42528.7" y1="2421.48" x2="54302.1" y2="2421.48" gradientUnits="userSpaceOnUse">
            <stop offset=".03" stop-color="#FE7062"/>
            <stop offset="1" stop-color="#FE7062"/>
        </linearGradient>
        <linearGradient id="P" x1="35943.8" y1="1754.94" x2="43926.1" y2="1754.94" gradientUnits="userSpaceOnUse">
            <stop stop-color="#FF928E"/>
            <stop offset=".99" stop-color="#FF928E"/>
        </linearGradient>
        <linearGradient id="Q" x1="41849.3" y1="4944.9" x2="53620.7" y2="4944.9" gradientUnits="userSpaceOnUse">
            <stop offset=".03" stop-color="#FE7062"/>
            <stop offset="1" stop-color="#FE7062"/>
        </linearGradient>
        <linearGradient id="R" x1="18138" y1="4900.42" x2="19679" y2="4900.42" gradientUnits="userSpaceOnUse">
            <stop stop-color="#FF928E"/>
            <stop offset=".99" stop-color="#FF928E"/>
        </linearGradient>
        <linearGradient id="S" x1="13891.1" y1="4942.5" x2="14939.2" y2="4942.5" gradientUnits="userSpaceOnUse">
            <stop stop-color="#FF928E"/>
            <stop offset=".99" stop-color="#FF928E"/>
        </linearGradient>
        <linearGradient id="T" x1="12909.1" y1="4853.26" x2="13988.8" y2="4853.26" gradientUnits="userSpaceOnUse">
            <stop stop-color="#FF928E"/>
            <stop offset=".99" stop-color="#FF928E"/>
        </linearGradient>
        <linearGradient id="U" x1="41852.7" y1="2293.09" x2="53625.1" y2="2293.09" gradientUnits="userSpaceOnUse">
            <stop offset=".03" stop-color="#FE7062"/>
            <stop offset="1" stop-color="#FE7062"/>
        </linearGradient>
        <linearGradient id="V" x1="35386.2" y1="1661.91" x2="43368.4" y2="1661.91" gradientUnits="userSpaceOnUse">
            <stop stop-color="#FF928E"/>
            <stop offset=".99" stop-color="#FF928E"/>
        </linearGradient>
        <linearGradient id="W" x1="42528.7" y1="4680.85" x2="54302.1" y2="4680.85" gradientUnits="userSpaceOnUse">
            <stop offset=".03" stop-color="#FE7062"/>
            <stop offset="1" stop-color="#FE7062"/>
        </linearGradient>
        <linearGradient id="X" x1="18373.9" y1="4640.95" x2="19914.2" y2="4640.95" gradientUnits="userSpaceOnUse">
            <stop stop-color="#FF928E"/>
            <stop offset=".99" stop-color="#FF928E"/>
        </linearGradient>
        <linearGradient id="Y" x1="14097" y1="4680.85" x2="15145" y2="4680.85" gradientUnits="userSpaceOnUse">
            <stop stop-color="#FF928E"/>
            <stop offset=".99" stop-color="#FF928E"/>
        </linearGradient>
        <linearGradient id="Z" x1="13117.7" y1="4598.5" x2="14197.6" y2="4598.5" gradientUnits="userSpaceOnUse">
            <stop stop-color="#FF928E"/>
            <stop offset=".99" stop-color="#FF928E"/>
        </linearGradient>
        <linearGradient id="aa" x1="42528.7" y1="2166.52" x2="54302.1" y2="2166.52" gradientUnits="userSpaceOnUse">
            <stop offset=".03" stop-color="#FE7062"/>
            <stop offset="1" stop-color="#FE7062"/>
        </linearGradient>
        <linearGradient id="ab" x1="35943.8" y1="1570.18" x2="43926.1" y2="1570.18" gradientUnits="userSpaceOnUse">
            <stop stop-color="#FF928E"/>
            <stop offset=".99" stop-color="#FF928E"/>
        </linearGradient>
        <linearGradient id="ac" x1="40970.5" y1="8701.47" x2="49982" y2="8701.47" gradientUnits="userSpaceOnUse">
            <stop offset=".03" stop-color="#FE7062"/>
            <stop offset="1" stop-color="#FE7062"/>
        </linearGradient>
        <linearGradient id="ad" x1="18550.2" y1="5145.83" x2="19945" y2="5145.83" gradientUnits="userSpaceOnUse">
            <stop stop-color="#FF928E"/>
            <stop offset=".99" stop-color="#FF928E"/>
        </linearGradient>
        <linearGradient id="ae" x1="14780.5" y1="5228.66" x2="15773" y2="5228.66" gradientUnits="userSpaceOnUse">
            <stop stop-color="#FF928E"/>
            <stop offset=".99" stop-color="#FF928E"/>
        </linearGradient>
        <linearGradient id="af" x1="13649.7" y1="5020.7" x2="14612.7" y2="5020.7" gradientUnits="userSpaceOnUse">
            <stop stop-color="#FF928E"/>
            <stop offset=".99" stop-color="#FF928E"/>
        </linearGradient>
        <linearGradient id="ag" x1="39886.9" y1="6081.62" x2="48292.2" y2="6081.62" gradientUnits="userSpaceOnUse">
            <stop offset=".03" stop-color="#FE7062"/>
            <stop offset="1" stop-color="#FE7062"/>
        </linearGradient>
        <linearGradient id="ah" x1="33526.1" y1="5001.11" x2="39224.6" y2="5001.11" gradientUnits="userSpaceOnUse">
            <stop stop-color="#FF928E"/>
            <stop offset=".99" stop-color="#FF928E"/>
        </linearGradient>
        <linearGradient id="ai" x1="38374.4" y1="6983" x2="47330.6" y2="6983" gradientUnits="userSpaceOnUse">
            <stop offset=".03" stop-color="#FE7062"/>
            <stop offset="1" stop-color="#FE7062"/>
        </linearGradient>
        <linearGradient id="aj" x1="17180.4" y1="4200.29" x2="18510" y2="4200.29" gradientUnits="userSpaceOnUse">
            <stop stop-color="#FF928E"/>
            <stop offset=".99" stop-color="#FF928E"/>
        </linearGradient>
        <linearGradient id="ak" x1="14042.5" y1="4123.08" x2="15045.4" y2="4123.08" gradientUnits="userSpaceOnUse">
            <stop stop-color="#FF928E"/>
            <stop offset=".99" stop-color="#FF928E"/>
        </linearGradient>
        <linearGradient id="al" x1="13219.2" y1="3832.31" x2="14244.4" y2="3832.31" gradientUnits="userSpaceOnUse">
            <stop stop-color="#FF928E"/>
            <stop offset=".99" stop-color="#FF928E"/>
        </linearGradient>
        <linearGradient id="am" x1="36966.6" y1="4922.83" x2="45277.2" y2="4922.83" gradientUnits="userSpaceOnUse">
            <stop offset=".03" stop-color="#FE7062"/>
            <stop offset="1" stop-color="#FE7062"/>
        </linearGradient>
        <linearGradient id="an" x1="31125.7" y1="4050.13" x2="36762.2" y2="4050.13" gradientUnits="userSpaceOnUse">
            <stop stop-color="#FF928E"/>
            <stop offset=".99" stop-color="#FF928E"/>
        </linearGradient>
        <linearGradient id="ao" x1="177.781" y1="252.79" x2="188.74" y2="252.79" gradientUnits="userSpaceOnUse">
            <stop stop-color="#FEBBBA"/>
            <stop offset="1" stop-color="#FF928E"/>
        </linearGradient>
        <linearGradient id="ap" x1="175.313" y1="256.535" x2="201.962" y2="256.535" gradientUnits="userSpaceOnUse">
            <stop stop-color="#09005D"/>
            <stop offset="1" stop-color="#1A0F91"/>
        </linearGradient>
        <linearGradient id="aq" x1="151.329" y1="141.34" x2="167.445" y2="141.34" gradientUnits="userSpaceOnUse">
            <stop stop-color="#4F52FF"/>
            <stop offset="1" stop-color="#4042E2"/>
        </linearGradient>
        <linearGradient id="ar" x1="6193.17" y1="14587.7" x2="8386.16" y2="14587.7" gradientUnits="userSpaceOnUse">
            <stop stop-color="#4F52FF"/>
            <stop offset="1" stop-color="#4042E2"/>
        </linearGradient>
        <linearGradient id="as" x1="2040.76" y1="5804.04" x2="2291.59" y2="5804.04" gradientUnits="userSpaceOnUse">
            <stop stop-color="#4F52FF"/>
            <stop offset="1" stop-color="#4042E2"/>
        </linearGradient>
        <linearGradient id="at" x1="3064.93" y1="4106.67" x2="3217.27" y2="4106.67" gradientUnits="userSpaceOnUse">
            <stop stop-color="#FEBBBA"/>
            <stop offset="1" stop-color="#FF928E"/>
        </linearGradient>
        <linearGradient id="au" x1="7072.46" y1="3284.41" x2="7973.22" y2="3284.41" gradientUnits="userSpaceOnUse">
            <stop stop-color="#09005D"/>
            <stop offset="1" stop-color="#1A0F91"/>
        </linearGradient>
        <linearGradient id="av" x1="13807.7" y1="20908.7" x2="21416.7" y2="20908.7" gradientUnits="userSpaceOnUse">
            <stop stop-color="#09005D"/>
            <stop offset="1" stop-color="#1A0F91"/>
        </linearGradient>
        <linearGradient id="aw" x1="10757.1" y1="20208.7" x2="17294.4" y2="20208.7" gradientUnits="userSpaceOnUse">
            <stop stop-color="#09005D"/>
            <stop offset="1" stop-color="#1A0F91"/>
        </linearGradient>
        <linearGradient id="ax" x1="-2151.11" y1="2237.11" x2="-2417.02" y2="2237.11" gradientUnits="userSpaceOnUse">
            <stop stop-color="#FEBBBA"/>
            <stop offset="1" stop-color="#FF928E"/>
        </linearGradient>
        <linearGradient id="ay" x1="-3229.81" y1="2846.36" x2="-3725.28" y2="2886.92" gradientUnits="userSpaceOnUse">
            <stop stop-color="#FEBBBA"/>
            <stop offset="1" stop-color="#FF928E"/>
        </linearGradient>
        <linearGradient id="az" x1="-4256.64" y1="2597.16" x2="-5111.1" y2="2476.32" gradientUnits="userSpaceOnUse">
            <stop stop-color="#09005D"/>
            <stop offset="1" stop-color="#1A0F91"/>
        </linearGradient>
        <clipPath id="a">
            <path fill="#fff" d="M0 0h464v263.308H0z"/>
        </clipPath>
    </defs>
</svg>
