<svg xmlns="http://www.w3.org/2000/svg" width="17.25" height="24" viewBox="0 0 17.25 24">
            <g id="book" transform="translate(-72)">
               <path id="Path_25" d="M72.75 21.375a.75.75 0 0 1-.75-.75V3.094A3.1 3.1 0 0 1 75.094 0H88.5a.75.75 0 0 1 .75.75V18a.75.75 0 0 1-1.5 0V1.5H75.094A1.6 1.6 0 0 0 73.5 3.094v17.531a.75.75 0 0 1-.75.75z" />
               <path id="Path_26" d="M88.5 374.75H75.375a3.375 3.375 0 0 1 0-6.75H88.5a.75.75 0 0 1 0 1.5H75.375a1.875 1.875 0 0 0 0 3.75H88.5a.75.75 0 0 1 0 1.5z"  transform="translate(0 -350.75)"/>
               <path id="Path_27" d="M141.875 425.5H128.75a.75.75 0 0 1 0-1.5h13.125a.75.75 0 0 1 0 1.5z"  transform="translate(-53.375 -404.125)"/>
               <path id="Path_28" d="M144.75 18.75A.75.75 0 0 1 144 18V.75a.75.75 0 0 1 1.5 0V18a.75.75 0 0 1-.75.75z"  transform="translate(-68.625)"/>
            </g>
</svg>