   <svg xmlns="http://www.w3.org/2000/svg" width="24" height="24.002" viewBox="0 0 24 24.002">
            <path fill="#013b81" d="M23.355 10.439L13.562.647a2.209 2.209 0 0 0-3.125 0L.651 10.432l-.01.01a2.209 2.209 0 0 0 1.47 3.765h.458v7.205A2.589 2.589 0 0 0 5.157 24h3.83a.7.7 0 0 0 .7-.7v-5.65a1.181 1.181 0 0 1 1.18-1.18h2.263a1.181 1.181 0 0 1 1.18 1.18v5.65a.7.7 0 0 0 .7.7h3.831a2.589 2.589 0 0 0 2.586-2.586v-7.203h.362a2.21 2.21 0 0 0 1.564-3.771zm0 0" transform="translate(0 .001)"/>
         </svg>