 <svg xmlns="http://www.w3.org/2000/svg" width="24" height="22" viewBox="0 0 24 22">
               <g id="text" transform="translate(0 -1)">
                  <g id="Group_22">
                        <path id="Path_17" d="M7.323 10.5h-2.5a.75.75 0 0 1 0-1.5h2.5a.75.75 0 0 1 0 1.5z" />
                  </g>
                  <g id="Group_23">
                        <path id="Path_18" d="M19.323 10.5h-7.5a.75.75 0 0 1 0-1.5h7.5a.75.75 0 0 1 0 1.5z" />
                  </g>
                  <g id="Group_24">
                        <path id="Path_19" d="M7.323 14.5h-2.5a.75.75 0 0 1 0-1.5h2.5a.75.75 0 0 1 0 1.5z" />
                  </g>
                  <g id="Group_25">
                        <path id="Path_20" d="M19.323 14.5h-7.5a.75.75 0 0 1 0-1.5h7.5a.75.75 0 1 1 0 1.5z" />
                  </g>
                  <g id="Group_26">
                        <path id="Path_21" d="M7.323 18.5h-2.5a.75.75 0 0 1 0-1.5h2.5a.75.75 0 0 1 0 1.5z" />
                  </g>
                  <g id="Group_27">
                        <path id="Path_22" d="M19.323 18.5h-7.5a.75.75 0 0 1 0-1.5h7.5a.75.75 0 1 1 0 1.5z" />
                  </g>
                  <g id="Group_28">
                        <path id="Path_23" d="M21.25 23H2.75A2.752 2.752 0 0 1 0 20.25V3.75A2.752 2.752 0 0 1 2.75 1h18.5A2.752 2.752 0 0 1 24 3.75v16.5A2.752 2.752 0 0 1 21.25 23zM2.75 2.5A1.252 1.252 0 0 0 1.5 3.75v16.5a1.252 1.252 0 0 0 1.25 1.25h18.5a1.252 1.252 0 0 0 1.25-1.25V3.75a1.252 1.252 0 0 0-1.25-1.25z" />
                  </g>
                  <g id="Group_29">
                        <path id="Path_24" d="M23.25 6H.75a.75.75 0 0 1 0-1.5h22.5a.75.75 0 0 1 0 1.5z" />
                  </g>
               </g>
            </svg>