<svg width="52" height="52" fill="none" xmlns="http://www.w3.org/2000/svg">
    <circle cx="26" cy="26" r="26" fill="#D3E6FD"/>
    <g clip-path="url(#a)" fill="#013B81">
        <path d="M31.332 39.33h-2.667v-2.666h-5.333v2.667h-2.667a1.334 1.334 0 0 0 0 2.666h10.667a1.333 1.333 0 1 0 0-2.666z"/>
        <path d="M39.667 15.336h-3v2.667h2.666v16H12.667v-16h2.666v-2.667h-3A2.345 2.345 0 0 0 10 17.669v16.667a2.345 2.345 0 0 0 2.333 2.333h27.334A2.345 2.345 0 0 0 42 34.336V17.669a2.345 2.345 0 0 0-2.333-2.333z"/>
        <path d="M23.668 23.398c-1.653 0-3-1.345-3-3 0-1.05.553-2.027 1.444-2.544a1 1 0 0 1 1.005 1.728.927.927 0 0 0-.449.816 1.001 1.001 0 0 0 2 0 .785.785 0 0 0-.084-.372 1.001 1.001 0 0 1 1.768-.936c.21.397.316.837.316 1.308 0 1.655-1.347 3-3 3z"/>
        <path d="M33 22.766c-.093 0-.19-.014-.281-.04l-14-4.099a1.002 1.002 0 0 1-.719-.96v-2a1 1 0 0 1 .725-.961l14-4a1 1 0 0 1 1.275.961v10.099a.998.998 0 0 1-1 1z"/>
        <path d="M33 23.333a1 1 0 0 1-1-1V11a1 1 0 0 1 2 0v11.333a1 1 0 0 1-1 1zM19 19.333a1 1 0 0 1-1-1V15a1 1 0 0 1 2 0v3.333a1 1 0 0 1-1 1z"/>
    </g>
    <defs>
        <clipPath id="a">
            <path fill="#fff" transform="translate(10 10)" d="M0 0h32v32H0z"/>
        </clipPath>
    </defs>
</svg>
