<svg width="52" height="52" fill="none" xmlns="http://www.w3.org/2000/svg">
    <circle cx="26" cy="26" r="26" fill="#D3E6FD"/>
    <g clip-path="url(#a)">
        <path d="M40.685 16.672h-25.02l-.372-4.143a1.314 1.314 0 0 0-1.309-1.197h-2.67a1.314 1.314 0 0 0 0 2.628h1.469l1.511 16.84c.108 1.214.763 2.53 1.893 3.426-2.037 2.6-.176 6.435 3.137 6.435 2.75 0 4.69-2.742 3.747-5.34h7.193c-.942 2.594.993 5.34 3.746 5.34a3.989 3.989 0 0 0 3.984-3.984 3.989 3.989 0 0 0-3.984-3.984H19.333a2.44 2.44 0 0 1-2.243-1.48l21.002-1.234a1.314 1.314 0 0 0 1.198-.994l2.67-10.68a1.315 1.315 0 0 0-1.275-1.633zm-21.36 21.361a1.357 1.357 0 0 1-1.356-1.356c0-.748.608-1.356 1.355-1.356.748 0 1.356.608 1.356 1.356 0 .748-.608 1.356-1.355 1.356zm14.685 0a1.357 1.357 0 0 1-1.356-1.356c0-.748.608-1.356 1.356-1.356.748 0 1.356.608 1.356 1.356 0 .748-.608 1.356-1.356 1.356zm2.964-10.622-20.238 1.19-.835-9.3h23.101l-2.028 8.11z" fill="#013B81"/>
    </g>
    <defs>
        <clipPath id="a">
            <path fill="#fff" transform="translate(10 10)" d="M0 0h32v32H0z"/>
        </clipPath>
    </defs>
</svg>
