<svg width="432" height="261" fill="none" xmlns="http://www.w3.org/2000/svg">
    <path d="M4.811 111.819c5.005 8.889 12.97 16.381 19.102 24.7 17.721 24.04-.716 52.175 7.372 78.085 7.046 22.581 36.357 28.633 57.781 29.551 36.101 1.546 72.162-.773 106.968-10.601 24.152-6.822 48.337-15.752 73.794-16.293 26.025-.552 50.506 9.937 75.643 14.897 27.607 5.448 60.631-.467 67.283-31.419 4.125-19.175-6.976-36.834-8.015-55.713-1.376-24.994 23.442-38.71 26.652-62.075 2.025-14.733-5.539-27.895-15.409-38.554-10.415-11.246-24.42-21.183-40.488-22.107-16.796-.966-31.786 7.888-47.482 12.117-44.108 11.876-69.13-27.736-109.743-33.255-18.309-2.493-40.805-1.31-57.432 7.246-15.452 7.95-22.953 25.624-40.291 30.822-18.341 5.486-35.144-5.494-52.583-9.001-18.046-3.63-35.117 2.817-46.406 16.943C10.597 60.863-1.253 78.906.107 97c.412 5.488 2.187 10.335 4.704 14.82z" fill="url(#a)"/>
    <path d="m284.744 75.387-45.605-27.691c-4.437-2.694-9.706-2.694-14.142 0l-45.604 27.682-52.676 31.652 52.676 32.229 52.676 31.896 52.675-31.931 52.676-32.194-52.676-31.643z" fill="#0350D6"/>
    <path d="M295.116 53.75h-147.5c-2.601 0-4.755 2.26-4.755 4.864v119.87h173.412V75.272L295.116 53.75z" fill="#BDD0FB"/>
    <path d="m316.198 75.27-19.355.175a1.713 1.713 0 0 1-1.279-.558c-.365-.363-.402-.854-.402-1.368V53.894l21.036 21.376z" fill="#91B3FA"/>
    <path d="M267.832 110.14c0 4.506-.719 8.629-2.156 12.368-1.437 3.74-3.469 6.673-6.094 8.799-2.625 2.129-5.672 3.194-9.141 3.194-2.313 0-4.36-.556-6.141-1.668a9.537 9.537 0 0 1-3.841-4.389h-.75c-3.375 4.038-7.672 6.057-12.891 6.057-5.53 0-9.889-1.666-13.078-4.999-3.188-3.333-4.782-7.894-4.781-13.683 0-6.603 2.095-11.922 6.284-15.959 4.189-4.037 9.659-6.055 16.408-6.055 2.977.024 5.947.283 8.884.774 3.233.517 5.897 1.135 7.991 1.855l-1.077 22.952c0 4.349 1.187 6.524 3.561 6.524 2 0 3.594-1.463 4.782-4.388 1.189-2.925 1.782-6.75 1.781-11.477 0-5.037-1.047-9.489-3.142-13.354a21.337 21.337 0 0 0-8.836-8.848c-3.8-2.032-8.137-3.049-13.013-3.049-6.312 0-11.796 1.3-16.452 3.897-4.656 2.597-8.226 6.344-10.711 11.24-2.486 4.895-3.728 10.551-3.727 16.97 0 8.636 2.305 15.262 6.914 19.878 4.61 4.615 11.289 6.923 20.038 6.921 3.313 0 6.953-.367 10.922-1.103a72.288 72.288 0 0 0 11.719-3.216v9.013c-6.687 2.848-14.11 4.272-22.266 4.272-11.87 0-21.127-3.13-27.772-9.389-6.645-6.258-9.965-14.957-9.962-26.097 0-7.729 1.696-14.746 5.087-21.052 3.391-6.305 8.22-11.25 14.488-14.833 6.265-3.582 13.476-5.373 21.631-5.373 6.875 0 13.016 1.408 18.423 4.223 5.406 2.815 9.578 6.821 12.515 12.017 2.934 5.19 4.402 11.183 4.403 17.978zm-48.003 5.866c0 6.604 2.687 9.905 8.062 9.904 2.812 0 4.953-.991 6.422-2.972 1.47-1.981 2.36-5.212 2.671-9.692l.609-10.374a25.61 25.61 0 0 0-5.39-.525c-3.904 0-6.943 1.224-9.117 3.671-2.174 2.447-3.259 5.774-3.254 9.981l-.003.007z" fill="url(#b)"/>
    <path d="M126.717 107.031v107.225c0 7.89 6.92 14.286 15.457 14.286h179.791c8.536 0 15.455-6.396 15.455-14.286V107.031l-99.415 51.998a11.998 11.998 0 0 1-11.09.017l-100.198-52.015z" fill="url(#c)"/>
    <path d="M130.378 222a.365.365 0 0 1-.249-.096.393.393 0 0 1-.091-.12.414.414 0 0 1-.017-.296.377.377 0 0 1 .076-.13l67.244-77.229a.37.37 0 0 1 .26-.128.383.383 0 0 1 .146.02.373.373 0 0 1 .215.196.384.384 0 0 1 .017.294.368.368 0 0 1-.074.129l-67.243 77.231a.382.382 0 0 1-.284.129zM335.627 221a.375.375 0 0 1-.281-.129l-67.24-77.217a.394.394 0 0 1 .021-.557.378.378 0 0 1 .427-.053.395.395 0 0 1 .117.098l67.233 77.217a.393.393 0 0 1-.078.581.367.367 0 0 1-.206.06h.007z" fill="#fff" style="mix-blend-mode:soft-light"/>
    <path d="M365.185 98.008s-7.515 7.137-10 19.824c-2.485 12.688-8.383-17.935-8.383-17.935h-5.964s-2.249 31.552 14.586 34.059a9.01 9.01 0 0 0 4.666-.535 9.038 9.038 0 0 0 3.767-2.808c3.074-3.908 7.869-10.847 9.029-17.49-.994-10.448-7.701-15.115-7.701-15.115z" fill="url(#d)"/>
    <path d="M403.365 244.115a.97.97 0 0 0-.028-.284c-1.408-5.596-7.175-8.464-7.175-8.464l-2.772.217c-1.593 4.932-2.622 7.338-2.367 8.69 0 .036.019.074.029.109 4.104.296 8.226.206 12.313-.268z" fill="url(#e)"/>
    <path d="M391.051 244.381a1.198 1.198 0 0 0 .879.89c3.256.686 8.427.134 10.6-.15a1.009 1.009 0 0 0 .835-1.008 65.72 65.72 0 0 1-12.314.268z" fill="url(#f)"/>
    <path d="m398.445 231.043-1.214 5.854a.95.95 0 0 1-.815.785 8.014 8.014 0 0 1-1.883-.029 1.197 1.197 0 0 1-.956-1.413l.841-5.197h4.027z" fill="url(#g)"/>
    <path d="M367.49 244.334c2.963-.083 4.495-.434 5.288-.756v.906a.586.586 0 0 1-.56.594l-16.249-.103a.736.736 0 0 1-.588-.382.74.74 0 0 1-.008-.702c2.109.175 7.538.571 12.117.443z" fill="url(#h)"/>
    <path d="M355.35 243.885a.605.605 0 0 1 .063-.121c1.437-2.01 5.098-6.011 12.32-7.746l3.47-.112s1.542 2.69 1.574 7.657c-.794.319-2.326.673-5.289.756-4.578.137-10.007-.258-12.138-.434z" fill="url(#i)"/>
    <path d="M371.847 230.647c-.041.258-.516 4.192-.698 5.717a.749.749 0 0 1-.637.683 7.966 7.966 0 0 1-2.383-.038 1.03 1.03 0 0 1-.777-1.031v-6.173l4.495.842z" fill="url(#j)"/>
    <path d="M396.132 154.184s5.547 49.386 2.466 80.252c0 0-3.699 0-5.55-.616 0 0-5.763-48.288-7.646-62.106a.464.464 0 0 0-.751-.308.466.466 0 0 0-.163.28c-2.301 11.625-11.339 57.212-12.426 61.515 0 0-3.08 1.235-5.546 0 0 0 4.931-66.039 8.63-77.783l20.986-1.234z" fill="url(#k)"/>
    <path d="M407.239 96.775s-23.426-3.704-41.921 1.234l1.233 19.142s4.932 26.547 8.631 38.284c0 0 14.178 2.469 20.961-1.235 0 0 5.546-33.335 8.63-38.283-.009-.007 3.072-12.969 2.466-19.142z" fill="url(#l)"/>
    <path d="m390.787 76.625 2.498 19.085s-6.518 2.998-11.084-.131l.981-11.166 7.605-7.788z" fill="url(#m)"/>
    <path d="M407.238 96.773s36.37 39.509-6.474 54.631v-3.085s16.028-13.581 3.699-32.101c-.01 0 1.532-17.594 2.775-19.445z" fill="url(#n)"/>
    <path d="M400.445 148.631s-5.546-3.704-8.012-2.469c-2.466 1.235-2.466 3.085-2.466 3.085s1.233 2.47 3.081 1.854c1.847-.616 6.164.616 8.015 0 0 .006.615-2.47-.618-2.47z" fill="url(#o)"/>
    <path d="m340.469 79.944 7.825 2.638c.955.287 1.593 1.244 1.679 2.463l-.408 13.08c.127 2.048-1.558 3.851-3.151 3.372l-6.276-2.14c-.612-.186-1.017-.827-1.023-1.621l-.14-16.27c-.007-.958.771-1.742 1.494-1.522z" fill="url(#p)"/>
    <path d="M338.976 96.783s-2.447-7.86-1.204-9.185c1.242-1.324 3.727-4.974 3.893-1.99.166 2.982 1.663 15.878-2.689 11.175z" fill="url(#q)"/>
    <path d="M376.444 73.4c-.035.226 2.746 15.15 2.746 15.15l8.478-1.77-.539-14.542s-10.074-2.635-10.685 1.161z" fill="url(#r)"/>
    <path d="M384.594 74.599a1.25 1.25 0 0 1 .592.925l.867 7.52a1.15 1.15 0 0 1 0 .341c-.105.638-.596 2.587-2.606 1.981-1.714-.517-3.298-.957-4.461-.762a1.242 1.242 0 0 0-.994 1.464c.417 2.252.998 4.47 1.74 6.636a1.239 1.239 0 0 0 1.497.766c1.641-.457 4.821-1.442 7.248-2.83a1.25 1.25 0 0 0 .637-1.117c-.051-2.022-.168-7.692.045-9.3.194-1.49 1.998-2.373 2.867-2.711a1.245 1.245 0 0 0 .708-.712c.382-.976.806-3.005-1.724-3.94a1.247 1.247 0 0 1-.726-1.576c.395-1.136.5-2.785-1.542-3.742-2.043-.957-3.671.029-4.585.931a1.298 1.298 0 0 1-1.536.23.815.815 0 0 0-.815 0 1.211 1.211 0 0 1-1.641-.53c-.519-1.049-1.564-2.13-3.635-1.811-3.795.587-4.292 4.785-3.336 7.254.956 2.47 5.037 1.595 7.095.402 1.482-.896 3.397.029 4.305.58z" fill="url(#s)"/>
    <path d="M389.027 82.749s-1.073-4.148.542-5.175c1.615-1.027 3.976-.447 3.402 2.705-.707 3.921-3.944 2.47-3.944 2.47z" fill="url(#t)"/>
    <path d="M73.943 250.379s-.637 3.563-.936 7.092a2.438 2.438 0 0 0 .6 1.813 2.429 2.429 0 0 0 1.722.819c4.693.198 14.729.577 18.332.418a.799.799 0 0 0 .624-.364.798.798 0 0 0 .07-.721 1.782 1.782 0 0 0-.904-.957l-16.567-7.631-2.94-.469z" fill="url(#u)"/>
    <path d="m73.428 248.29.503 4.266s2.906 1.352 4.887-.173l-1.2-4.75-4.19.657z" fill="url(#v)"/>
    <path d="M73.811 168.133c-.22 1.114-1.172 55.556 4.64 79.953a.825.825 0 0 1-.485.957 14.332 14.332 0 0 1-4.731.957 1.424 1.424 0 0 1-1.415-1.024c-1.66-5.66-9.621-34.022-10.66-61.114-1.16-30.276 0-1.03 0-1.03l.682-18.715 11.97.016z" fill="url(#w)"/>
    <path d="M54.874 252.242s-1 1.8-1.972 6.579a1.482 1.482 0 0 0 1.303 1.777c1.552.153 3.935.347 5.846.319a1.475 1.475 0 0 0 1.1-.498 1.486 1.486 0 0 0 .363-1.152c-.214-1.745-.87-4.607-2.91-6.84l-3.73-.185z" fill="url(#x)"/>
    <path d="m53.994 246.76 1.179 6.448s1.166.867 3.476.239l-.564-6.939-4.09.252z" fill="url(#y)"/>
    <path d="M50.806 169.805c-4.753 28.712 1.033 70.997 2.982 79.269a1.273 1.273 0 0 0 1.039.98 8.595 8.595 0 0 0 3.718-.147 1.19 1.19 0 0 0 .85-1.091c.262-6.7-.21-47.749 4.219-63.979a3.697 3.697 0 0 1 1.42-2.035l8.603-6.119.66-9.89-23.49 3.012z" fill="url(#z)"/>
    <path d="M81.09 115.385c-14.244-.236-29.947 3.746-29.947 3.746-4.244 24.808-.742 53.425-.742 53.425 11.026 2.893 23.467-1.771 23.467-1.771 1.832-10.372 10.383-39.56 10.383-39.56 6.962-.864 12.696-2.871 17.418-5.535-3.603-4.179-5.301-9.497-6.037-12.643-5.05 1.573-10.148 2.412-14.541 2.338z" fill="url(#A)"/>
    <path d="M123.168 94.373a2.723 2.723 0 0 0-3.17-.89c-2.096 8.865-13.088 16.056-24.379 19.569.736 3.145 2.434 8.464 6.038 12.643 18.736-10.55 21.511-31.322 21.511-31.322z" fill="url(#B)"/>
    <path d="M122.826 94.8c.147.466-1.548 1.177-2.549-.73-.035-.913-.589-4.827-.044-5.57 2.902-3.966 8.532-8.934 8.532-8.934a1.338 1.338 0 0 1 .168 1.864l-2.733 2.848c.573 1.034 1.274 1.915 1.593 3.156a3.837 3.837 0 0 1-.382 2.82 33.485 33.485 0 0 1-1.753 2.871 3.78 3.78 0 0 1-2.832 1.675z" fill="url(#C)"/>
    <path d="m125.01 86.121-2.491 2.112-.781 2.106 2.23 2.463s.746-4.173 1.3-5.076c.555-.903.258-1.34-.258-1.605z" fill="url(#D)"/>
    <path d="m56.596 132.944-5.464-13.811s-13.305 9.051-15.493 20.53c3.9.313 7.704 1.382 11.198 3.145 2.03-4.552 9.759-9.864 9.759-9.864z" fill="url(#E)"/>
    <path d="m66.666 103.793-4.537 13.112a.477.477 0 0 0 .217.571c1.233.683 5.687 2.661 11.049-.747a2.226 2.226 0 0 0 1.026-1.595l1.465-11.361-9.22.02z" fill="url(#F)"/>
    <path d="M76.528 91.648s4.977 9.383 4.34 13.173c-.638 3.79-6.806 3.51-12.193.441l-3.763-10.13 11.616-3.484z" fill="url(#G)"/>
    <path d="M68.913 100.279a.38.38 0 0 0 .215-.243.385.385 0 0 0-.046-.321c-.398-.61-1.147-1.854-1.386-2.945 0 0-.895-.574 2.278-1.334 3.173-.759 7.901-1.94 8.895-4.645.956-2.635-1.593-9.252-5.639-3.981a.385.385 0 0 1-.612 0c-.669-.868-2.418-2.67-4.849-1.576-2.278 1.02-2.532 2.692-2.5 3.532a.386.386 0 0 1-.456.395c-1.15-.22-3.913-.408-5.2 2.428-1.06 2.335-.372 3.656.258 4.304a.387.387 0 0 1-.165.638c-.755.23-1.733.87-1.635 2.644.134 2.454 2.868 2.234 3.651 2.125a.385.385 0 0 1 .345.121c.669.741 3.68 3.886 6.939 4.266a.39.39 0 0 0 .422-.324.394.394 0 0 0-.015-.193l-1.411-4.103a.387.387 0 0 1 .21-.481l.701-.307z" fill="url(#H)"/>
    <path d="M69.478 100.865s-3.546-2.434-3.804-.383c-.258 2.052 3.186 2.967 4.9 2.205l-1.096-1.822z" fill="url(#I)"/>
    <path d="M35.73 139.769s-9.093 20.737 13.136 23.777l3.03-2.53s-11.113-6.071-5.06-18.213c0 0-6.56-5.564-11.106-3.034z" fill="url(#J)"/>
    <path d="m51.694 150.681 7.828 2.641c.956.284 1.593 1.245 1.676 2.463l-.408 13.081c.128 2.048-1.558 3.85-3.15 3.372l-6.277-2.141c-.609-.185-1.016-.826-1.023-1.621l-.137-16.27c-.01-.957.774-1.742 1.491-1.525z" fill="url(#K)"/>
    <path d="M49.674 166.19c-.214-.236-1.676-2.916-1.3-6.502.376-3.586-.319-5.207 1.348-5.066 1.666.14 3.052.421 2.867 2.185-.185 1.764.334 12.978-2.915 9.383z" fill="url(#L)"/>
    <path d="M146.224 159.277c-.012 13.549-.116 60.285-.926 76.83-.086 1.751-1.318 3.132-2.815 3.158-7.411.118-34.578.237-46.669-.627-2.52-.182-4.473-2.619-4.46-5.576.061-14.215.39-54.215 2.116-72.502.206-2.187 1.714-3.906 3.59-4.084 8.084-.766 35.397-2.471 45.843-1.445 1.884.185 3.323 2.03 3.321 4.246z" fill="url(#M)"/>
    <path d="M142.817 163.355c.157 10.934.61 47.336-.087 60.774-.102 1.964-1.456 3.524-3.137 3.602-6.916.319-30.478.84-40.583-.333-1.82-.212-3.21-1.97-3.261-4.111-.248-11.164-.976-45.058-.303-58.341.108-2.119 1.55-3.827 3.358-3.971 7.483-.619 32.541-1.933 41.129-1.192 1.611.133 2.864 1.679 2.884 3.572z" fill="url(#N)"/>
    <path d="M125.128 157.228a.74.74 0 0 1-.648.767c-1.752.067-6.684.262-8.89.364-.435.02-.766-.444-.671-.942l.014-.086a.711.711 0 0 1 .608-.616c1.492-.127 5.993-.47 8.965-.28.358.022.631.373.622.793z" fill="url(#O)"/>
    <path d="M119.143 211.255c9.588 0 17.361-7.784 17.361-17.385 0-9.602-7.773-17.386-17.361-17.386-9.589 0-17.362 7.784-17.362 17.386 0 9.601 7.773 17.385 17.362 17.385z" fill="url(#P)"/>
    <path d="M129.823 198.413a3.103 3.103 0 0 0-1.836-2.037l-1.249-.496a2.394 2.394 0 0 0-2.801.793l-1.112 1.487c-1.747.051-3.761-.601-5.55-1.941-1.68-1.259-2.835-2.881-3.338-4.473a.07.07 0 0 1 0-.035.051.051 0 0 1 .021-.027.048.048 0 0 1 .033-.01c.011 0 .023.004.032.011l1.001-1.341a2.738 2.738 0 0 0-.048-3.342l-.829-1.044a3.122 3.122 0 0 0-2.497-1.184 3.121 3.121 0 0 0-2.461 1.257c-.3.404-.523.861-.657 1.346-.921 3.259 1.698 8.183 6.534 11.807 4.835 3.625 10.284 4.744 13.146 2.943a4.04 4.04 0 0 0 1.11-1.015 3.104 3.104 0 0 0 .501-2.699z" fill="url(#Q)"/>
    <path d="M368.699 160.224v26.983c0 2.198-1.338 3.982-2.988 3.982h-98.166c-1.37 0-2.549 1.244-2.899 3.015l-1.759 9.395c-.232 1.244-1.532 1.35-1.876.15l-2.265-7.937c-.443-1.544-1.555-2.553-2.795-2.553h-4.215c-1.65 0-2.988-1.783-2.988-3.981v-27.749c0-2.186 1.322-3.963 2.963-3.982l113.984-1.305c1.65-.019 3.004 1.771 3.004 3.982z" fill="#BDD0FB"/>
    <path d="M263.93 186.258c6.65 0 12.04-5.54 12.04-12.375s-5.39-12.375-12.04-12.375c-6.649 0-12.039 5.54-12.039 12.375s5.39 12.375 12.039 12.375z" fill="#7D97F4"/>
    <path d="M268.306 168.866c0 2.233-1.8 4.623-4.021 4.623s-4.017-2.399-4.017-4.623 1.8-3.8 4.017-3.8c2.218 0 4.021 1.576 4.021 3.8z" fill="url(#R)"/>
    <path d="M259.286 182.045h9.813a2.373 2.373 0 0 0 2.262-1.656l.525-1.652a2.366 2.366 0 0 0-.123-1.766 2.365 2.365 0 0 0-1.31-1.188c-3.992-1.462-8.122-1.277-12.353.134a2.37 2.37 0 0 0-1.513 2.871l.405 1.499a2.381 2.381 0 0 0 2.294 1.758z" fill="url(#S)"/>
    <path d="M359.326 177.112a2.394 2.394 0 0 1-2.434 2.342h-71.649a2.388 2.388 0 0 1-2.434-2.342 2.388 2.388 0 0 1 2.434-2.338h71.649a2.38 2.38 0 0 1 1.7.665c.456.438.72 1.04.734 1.673z" fill="url(#T)"/>
    <path d="M325.396 184.62a2.123 2.123 0 0 1-2.122 2.125h-37.562a2.123 2.123 0 0 1-2.122-2.125 2.127 2.127 0 0 1 2.122-2.128h37.562a2.126 2.126 0 0 1 2.122 2.128z" fill="url(#U)"/>
    <path d="M359.368 184.62a2.13 2.13 0 0 1-2.125 2.125h-27.109a2.113 2.113 0 0 1-1.501-.622 2.14 2.14 0 0 1-.621-1.503 2.127 2.127 0 0 1 2.122-2.128h27.109a2.121 2.121 0 0 1 1.963 1.314c.107.258.162.535.162.814z" fill="url(#V)"/>
    <path d="M321.762 162.539h-36.171a2.984 2.984 0 0 0-2.982 2.986v.243a2.984 2.984 0 0 0 2.982 2.986h36.171a2.984 2.984 0 0 0 2.982-2.986v-.243a2.984 2.984 0 0 0-2.982-2.986z" fill="#7D97F4"/>
    <path d="M55.226 58.092a4.376 4.376 0 0 1-2.887-1.098 4.387 4.387 0 0 1 1.788-7.53 4.372 4.372 0 0 1 4.83 1.948 4.387 4.387 0 0 1-3.731 6.68zm-.845-7.648a3.369 3.369 0 0 0-2.484 2.804 3.378 3.378 0 0 0 1.635 3.371 3.365 3.365 0 0 0 4.885-1.806c.218-.63.245-1.312.077-1.957a3.349 3.349 0 0 0-2.798-2.498 3.342 3.342 0 0 0-1.315.086z" fill="#94A0CD"/>
    <path d="M53.204 73.408a.803.803 0 0 1-.757-.536l-1.121-3.171a16.278 16.278 0 0 1-4.397-1.784l-3.009 1.5A.801.801 0 0 1 43 69.27l-3.11-3.065a.805.805 0 0 1-.162-.919l1.447-3.038a16.345 16.345 0 0 1-1.847-4.373l-3.186-1.07a.803.803 0 0 1-.547-.755l-.035-4.37a.804.804 0 0 1 .534-.763l3.167-1.122c.376-1.547.976-3.03 1.78-4.404l-1.496-3.013a.804.804 0 0 1 .145-.917l3.06-3.114a.802.802 0 0 1 .917-.162l3.032 1.444a16.301 16.301 0 0 1 4.367-1.85l1.065-3.195a.807.807 0 0 1 .754-.547L57.247 34h.006a.801.801 0 0 1 .757.537l1.12 3.17c1.546.376 3.028.975 4.4 1.78l3.012-1.495a.804.804 0 0 1 .92.145l3.11 3.064a.805.805 0 0 1 .162.92l-1.448 3.04a16.36 16.36 0 0 1 1.847 4.371l3.184 1.07a.806.806 0 0 1 .549.756l.034 4.369a.803.803 0 0 1-.535.765L71.2 57.614a16.363 16.363 0 0 1-1.781 4.402l1.496 3.014a.805.805 0 0 1-.146.922l-3.059 3.114a.8.8 0 0 1-.918.161l-3.035-1.45a16.29 16.29 0 0 1-4.365 1.851l-1.07 3.19a.806.806 0 0 1-.753.548l-4.364.035v.007zm-6.228-6.64.238.144c1.423.87 2.98 1.501 4.606 1.869l.27.061 1.258 3.555 4.065-.033 1.199-3.577.27-.065a15.315 15.315 0 0 0 4.58-1.946l.235-.153 3.402 1.626 2.854-2.905-1.679-3.38.146-.238a15.36 15.36 0 0 0 1.864-4.612l.062-.271 3.55-1.26-.033-4.07-3.572-1.2-.066-.27a15.335 15.335 0 0 0-1.94-4.581l-.141-.237 1.622-3.407-2.907-2.858-3.375 1.681-.237-.145a15.31 15.31 0 0 0-4.607-1.873l-.27-.061-1.257-3.557-4.071.041-1.198 3.577-.27.067a15.295 15.295 0 0 0-4.576 1.943l-.235.149-3.4-1.628-2.855 2.904 1.678 3.379-.144.238a15.359 15.359 0 0 0-1.86 4.613l-.062.272-3.556 1.261.033 4.071 3.572 1.2.066.272a15.372 15.372 0 0 0 1.94 4.58l.149.236-1.624 3.407 2.902 2.858 3.374-1.677zm8.192-1.948a11.023 11.023 0 0 1-7.742-3.245 11.054 11.054 0 0 1-.057-15.544 11.024 11.024 0 0 1 7.718-3.302c.785-.006 1.57.07 2.34.229a.504.504 0 1 1-.205.986 10.01 10.01 0 0 0-6.286.734 10.029 10.029 0 0 0-4.594 4.359 10.049 10.049 0 0 0 1.81 11.889 10.019 10.019 0 0 0 10.94 2.086 10.027 10.027 0 0 0 4.468-3.733 10.046 10.046 0 0 0 .181-10.731.506.506 0 0 1 .862-.526 11.057 11.057 0 0 1-3.789 15.248 11.02 11.02 0 0 1-5.54 1.546l-.106.004zM34.397 83.564a3.14 3.14 0 0 1-3.104-2.738 3.132 3.132 0 0 1 5.776-2.037 3.132 3.132 0 0 1-2.672 4.775zm-.605-5.467a2.415 2.415 0 0 0-1.78 2.004 2.409 2.409 0 0 0 1.172 2.41 2.414 2.414 0 0 0 3.147-3.54 2.395 2.395 0 0 0-2.54-.874z" fill="#94A0CD"/>
    <path d="M36.195 89.814a.52.52 0 0 1-.42-.213l-.915-1.244a7.906 7.906 0 0 1-2.167-.196l-1.122 1.061a.522.522 0 0 1-.602.083l-1.857-.971a.524.524 0 0 1-.275-.54l.232-1.53a8.017 8.017 0 0 1-1.395-1.671l-1.542-.045a.524.524 0 0 1-.483-.37l-.625-2.011a.523.523 0 0 1 .188-.576l1.243-.917a7.94 7.94 0 0 1 .196-2.17l-1.06-1.125a.524.524 0 0 1-.083-.6l.974-1.862a.523.523 0 0 1 .54-.273l1.527.231a8.008 8.008 0 0 1 1.668-1.396l.045-1.544a.525.525 0 0 1 .37-.484l2.004-.626a.52.52 0 0 1 .575.188l.916 1.244a8.01 8.01 0 0 1 2.166.196l1.123-1.061a.524.524 0 0 1 .6-.083l1.858.975a.522.522 0 0 1 .274.541l-.23 1.529a8.014 8.014 0 0 1 1.394 1.671l1.542.046a.52.52 0 0 1 .483.37l.626 2.005a.524.524 0 0 1-.189.576l-1.249.917a7.926 7.926 0 0 1-.196 2.168l1.06 1.125a.525.525 0 0 1 .083.601l-.974 1.861a.52.52 0 0 1-.54.274l-1.527-.224a7.98 7.98 0 0 1-1.67 1.396l-.043 1.544a.522.522 0 0 1-.37.483l-2.004.626a.492.492 0 0 1-.15.021zm-.972-2.24 1.062 1.443 1.682-.529.053-1.79.18-.107a7.276 7.276 0 0 0 1.801-1.506l.136-.16 1.772.27.818-1.564-1.232-1.305.053-.203a7.24 7.24 0 0 0 .21-2.343l-.014-.209 1.441-1.063-.527-1.686-1.788-.052-.106-.18a7.258 7.258 0 0 0-1.503-1.8l-.158-.135.267-1.774-1.561-.82-1.304 1.234-.202-.052a7.21 7.21 0 0 0-2.34-.21l-.208.014-1.061-1.443-1.685.527-.052 1.792-.18.106c-.678.4-1.287.907-1.802 1.503l-.135.157-1.772-.268-.813 1.565 1.232 1.305-.052.202a7.24 7.24 0 0 0-.21 2.344l.015.208-1.442 1.062.528 1.686 1.788.052.106.18c.4.68.908 1.289 1.504 1.804l.158.137-.268 1.772 1.562.82 1.304-1.233.202.053c.76.198 1.546.27 2.33.216l.21-.02zm-.744-1.776a5.438 5.438 0 0 1-3.753-1.514 5.453 5.453 0 0 1 3.26-9.362.38.38 0 1 1 .068.754 4.68 4.68 0 0 0-4.252 4.881 4.69 4.69 0 0 0 3.687 4.368 4.675 4.675 0 0 0 5.16-2.454 4.693 4.693 0 0 0-1.051-5.622.379.379 0 0 1 .502-.565 5.45 5.45 0 0 1 1.463 6.006 5.447 5.447 0 0 1-5.083 3.508h-.001z" fill="#94A0CD"/>
    <defs>
        <linearGradient id="a" x1="431.734" y1="122.291" x2="-.001" y2="122.291" gradientUnits="userSpaceOnUse">
            <stop stop-color="#DAE3FE"/>
            <stop offset="1" stop-color="#E9EFFD"/>
        </linearGradient>
        <linearGradient id="b" x1="89613.7" y1="8348.13" x2="81540.6" y2="92657.9" gradientUnits="userSpaceOnUse">
            <stop stop-color="#4042E2"/>
            <stop offset="1" stop-color="#4F52FF"/>
        </linearGradient>
        <linearGradient id="c" x1="227.973" y1="63.343" x2="238.733" y2="318.546" gradientUnits="userSpaceOnUse">
            <stop stop-color="#62B3FE"/>
            <stop offset="1" stop-color="#4D00CA"/>
        </linearGradient>
        <linearGradient id="d" x1="58422.1" y1="22809" x2="63887.6" y2="43200.7" gradientUnits="userSpaceOnUse">
            <stop stop-color="#4042E2"/>
            <stop offset="1" stop-color="#4F52FF"/>
        </linearGradient>
        <linearGradient id="e" x1="25545.4" y1="13213.3" x2="25561.2" y2="12575.6" gradientUnits="userSpaceOnUse">
            <stop stop-color="#4042E2"/>
            <stop offset="1" stop-color="#4F52FF"/>
        </linearGradient>
        <linearGradient id="f" x1="26422.1" y1="2081.82" x2="26356.3" y2="2509.56" gradientUnits="userSpaceOnUse">
            <stop stop-color="#09005D"/>
            <stop offset="1" stop-color="#1A0F91"/>
        </linearGradient>
        <linearGradient id="g" x1="-5611.77" y1="8494.81" x2="-5541.73" y2="8942.22" gradientUnits="userSpaceOnUse">
            <stop stop-color="#FF928E"/>
            <stop offset="1" stop-color="#FEB3B1"/>
        </linearGradient>
        <linearGradient id="h" x1="-22689.2" y1="2145.62" x2="-22643.1" y2="2567.34" gradientUnits="userSpaceOnUse">
            <stop stop-color="#09005D"/>
            <stop offset="1" stop-color="#1A0F91"/>
        </linearGradient>
        <linearGradient id="i" x1="-21913.5" y1="12523.2" x2="-21922.9" y2="11937.1" gradientUnits="userSpaceOnUse">
            <stop stop-color="#4042E2"/>
            <stop offset="1" stop-color="#4F52FF"/>
        </linearGradient>
        <linearGradient id="j" x1="-5488.36" y1="9339.92" x2="-5403.77" y2="9793.51" gradientUnits="userSpaceOnUse">
            <stop stop-color="#FF928E"/>
            <stop offset="1" stop-color="#FEB3B1"/>
        </linearGradient>
        <linearGradient id="k" x1="19370.7" y1="99951.2" x2="17682" y2="78165.4" gradientUnits="userSpaceOnUse">
            <stop stop-color="#09005D"/>
            <stop offset="1" stop-color="#1A0F91"/>
        </linearGradient>
        <linearGradient id="l" x1="80093.9" y1="37072.1" x2="91483.8" y2="69989.3" gradientUnits="userSpaceOnUse">
            <stop stop-color="#4042E2"/>
            <stop offset="1" stop-color="#4F52FF"/>
        </linearGradient>
        <linearGradient id="m" x1="22164.9" y1="15684.6" x2="22090.1" y2="17503.1" gradientUnits="userSpaceOnUse">
            <stop stop-color="#FF928E"/>
            <stop offset="1" stop-color="#FEB3B1"/>
        </linearGradient>
        <linearGradient id="n" x1="41107.8" y1="32650.8" x2="55996.9" y2="56457.2" gradientUnits="userSpaceOnUse">
            <stop stop-color="#4042E2"/>
            <stop offset="1" stop-color="#4F52FF"/>
        </linearGradient>
        <linearGradient id="o" x1="6563.74" y1="5434.73" x2="6850.33" y2="5947.72" gradientUnits="userSpaceOnUse">
            <stop stop-color="#FF928E"/>
            <stop offset="1" stop-color="#FEB3B1"/>
        </linearGradient>
        <linearGradient id="p" x1="-72467.2" y1="-19670.2" x2="-72953.7" y2="-19618.8" gradientUnits="userSpaceOnUse">
            <stop stop-color="#09005D"/>
            <stop offset="1" stop-color="#1A0F91"/>
        </linearGradient>
        <linearGradient id="q" x1="8721.18" y1="10694.9" x2="8816.64" y2="11234.6" gradientUnits="userSpaceOnUse">
            <stop stop-color="#FF928E"/>
            <stop offset="1" stop-color="#FEB3B1"/>
        </linearGradient>
        <linearGradient id="r" x1="23010.6" y1="13163.6" x2="21962.5" y2="13340.9" gradientUnits="userSpaceOnUse">
            <stop stop-color="#FF928E"/>
            <stop offset="1" stop-color="#FEB3B1"/>
        </linearGradient>
        <linearGradient id="s" x1="107490" y1="-76566.3" x2="106182" y2="-76777.3" gradientUnits="userSpaceOnUse">
            <stop stop-color="#09005D"/>
            <stop offset="1" stop-color="#1A0F91"/>
        </linearGradient>
        <linearGradient id="t" x1="21878.6" y1="-15519.8" x2="21666.7" y2="-15743" gradientUnits="userSpaceOnUse">
            <stop stop-color="#FF928E"/>
            <stop offset="1" stop-color="#FEB3B1"/>
        </linearGradient>
        <linearGradient id="u" x1="33049.3" y1="12903.6" x2="31620.6" y2="16172.5" gradientUnits="userSpaceOnUse">
            <stop stop-color="#09005D"/>
            <stop offset="1" stop-color="#1A0F91"/>
        </linearGradient>
        <linearGradient id="v" x1="7756" y1="7138.11" x2="7847.21" y2="7138.11" gradientUnits="userSpaceOnUse">
            <stop stop-color="#FF928E"/>
            <stop offset="1" stop-color="#FEB3B1"/>
        </linearGradient>
        <linearGradient id="w" x1="25803.9" y1="101970" x2="34716" y2="90697" gradientUnits="userSpaceOnUse">
            <stop stop-color="#09005D"/>
            <stop offset="1" stop-color="#1A0F91"/>
        </linearGradient>
        <linearGradient id="x" x1="12780" y1="10696.4" x2="11126.1" y2="12490.1" gradientUnits="userSpaceOnUse">
            <stop stop-color="#09005D"/>
            <stop offset="1" stop-color="#1A0F91"/>
        </linearGradient>
        <linearGradient id="y" x1="6351.63" y1="9259.17" x2="6419.63" y2="9259.17" gradientUnits="userSpaceOnUse">
            <stop stop-color="#FF928E"/>
            <stop offset="1" stop-color="#FEB3B1"/>
        </linearGradient>
        <linearGradient id="z" x1="35698.2" y1="103245" x2="43703.1" y2="89125.8" gradientUnits="userSpaceOnUse">
            <stop stop-color="#09005D"/>
            <stop offset="1" stop-color="#1A0F91"/>
        </linearGradient>
        <linearGradient id="A" x1="66168" y1="78923.8" x2="56842.9" y2="93918.5" gradientUnits="userSpaceOnUse">
            <stop stop-color="#FE7062"/>
            <stop offset="1" stop-color="#FF928E"/>
        </linearGradient>
        <linearGradient id="B" x1="42845.8" y1="26557.2" x2="45227.9" y2="26557.2" gradientUnits="userSpaceOnUse">
            <stop stop-color="#FF928E"/>
            <stop offset="1" stop-color="#FEB3B1"/>
        </linearGradient>
        <linearGradient id="C" x1="-65560.8" y1="12721.7" x2="-66752.2" y2="14310.8" gradientUnits="userSpaceOnUse">
            <stop stop-color="#FF928E"/>
            <stop offset="1" stop-color="#FEB3B1"/>
        </linearGradient>
        <linearGradient id="D" x1="1575.35" y1="5710.8" x2="2353.82" y2="5200.98" gradientUnits="userSpaceOnUse">
            <stop stop-color="#FF928E"/>
            <stop offset="1" stop-color="#FEB3B1"/>
        </linearGradient>
        <linearGradient id="E" x1="24950.4" y1="30257.4" x2="21325.9" y2="36184.3" gradientUnits="userSpaceOnUse">
            <stop stop-color="#FE7062"/>
            <stop offset="1" stop-color="#FF928E"/>
        </linearGradient>
        <linearGradient id="F" x1="3970.99" y1="12313.6" x2="3682.07" y2="14333.5" gradientUnits="userSpaceOnUse">
            <stop stop-color="#FF928E"/>
            <stop offset="1" stop-color="#FEB3B1"/>
        </linearGradient>
        <linearGradient id="G" x1="-15704.4" y1="56220" x2="-17608.8" y2="55530.3" gradientUnits="userSpaceOnUse">
            <stop stop-color="#FF928E"/>
            <stop offset="1" stop-color="#FEB3B1"/>
        </linearGradient>
        <linearGradient id="H" x1="-88720.3" y1="-43797.2" x2="-88779.3" y2="-48045" gradientUnits="userSpaceOnUse">
            <stop stop-color="#09005D"/>
            <stop offset="1" stop-color="#1A0F91"/>
        </linearGradient>
        <linearGradient id="I" x1="-5755.32" y1="14633.5" x2="-6148.2" y2="14422" gradientUnits="userSpaceOnUse">
            <stop stop-color="#FF928E"/>
            <stop offset="1" stop-color="#FEB3B1"/>
        </linearGradient>
        <linearGradient id="J" x1="26045.4" y1="24586.1" x2="24093.2" y2="23435.4" gradientUnits="userSpaceOnUse">
            <stop stop-color="#FF928E"/>
            <stop offset="1" stop-color="#FEB3B1"/>
        </linearGradient>
        <linearGradient id="K" x1="-92120.8" y1="-11710.1" x2="-92607.2" y2="-11658.8" gradientUnits="userSpaceOnUse">
            <stop stop-color="#09005D"/>
            <stop offset="1" stop-color="#1A0F91"/>
        </linearGradient>
        <linearGradient id="L" x1="1061.35" y1="12052.4" x2="957.979" y2="12079.4" gradientUnits="userSpaceOnUse">
            <stop stop-color="#FF928E"/>
            <stop offset="1" stop-color="#FEB3B1"/>
        </linearGradient>
        <linearGradient id="M" x1="31362.2" y1="64248.8" x2="31623.3" y2="108767" gradientUnits="userSpaceOnUse">
            <stop stop-color="#09005D"/>
            <stop offset="1" stop-color="#1A0F91"/>
        </linearGradient>
        <linearGradient id="N" x1="267688" y1="66231.1" x2="310182" y2="105797" gradientUnits="userSpaceOnUse">
            <stop stop-color="#4042E2"/>
            <stop offset="1" stop-color="#4F52FF"/>
        </linearGradient>
        <linearGradient id="O" x1="5735.25" y1="1775.68" x2="6309.88" y2="1775.68" gradientUnits="userSpaceOnUse">
            <stop stop-color="#4042E2"/>
            <stop offset="1" stop-color="#4F52FF"/>
        </linearGradient>
        <linearGradient id="P" x1="16682" y1="35561.9" x2="23307.1" y2="35561.9" gradientUnits="userSpaceOnUse">
            <stop stop-color="#DAE3FE"/>
            <stop offset="1" stop-color="#E9EFFD"/>
        </linearGradient>
        <linearGradient id="Q" x1="11196.2" y1="18706" x2="13758.1" y2="18706" gradientUnits="userSpaceOnUse">
            <stop stop-color="#4042E2"/>
            <stop offset="1" stop-color="#4F52FF"/>
        </linearGradient>
        <linearGradient id="R" x1="11640.2" y1="6992.71" x2="11843.1" y2="6992.71" gradientUnits="userSpaceOnUse">
            <stop stop-color="#DAE3FE"/>
            <stop offset="1" stop-color="#E9EFFD"/>
        </linearGradient>
        <linearGradient id="S" x1="22017.1" y1="6281.07" x2="22771" y2="6281.07" gradientUnits="userSpaceOnUse">
            <stop stop-color="#DAE3FE"/>
            <stop offset="1" stop-color="#E9EFFD"/>
        </linearGradient>
        <linearGradient id="T" x1="114027" y1="4084.44" x2="132404" y2="4084.44" gradientUnits="userSpaceOnUse">
            <stop stop-color="#DAE3FE"/>
            <stop offset="1" stop-color="#E9EFFD"/>
        </linearGradient>
        <linearGradient id="U" x1="62532.1" y1="3834.35" x2="68017.9" y2="3834.35" gradientUnits="userSpaceOnUse">
            <stop stop-color="#DAE3FE"/>
            <stop offset="1" stop-color="#E9EFFD"/>
        </linearGradient>
        <linearGradient id="V" x1="51388.8" y1="3834.35" x2="54474.9" y2="3834.35" gradientUnits="userSpaceOnUse">
            <stop stop-color="#DAE3FE"/>
            <stop offset="1" stop-color="#E9EFFD"/>
        </linearGradient>
    </defs>
</svg>
