<svg width="36" height="36" fill="none" xmlns="http://www.w3.org/2000/svg">
    <circle cx="18" cy="18" r="18" fill="#D3E6FC"/>
    <path d="M18 29.25c1.243 0 2.25-.916 2.25-2.046S19.243 25.16 18 25.16s-2.25.916-2.25 2.046S16.757 29.25 18 29.25zm-3.987-11.414c.648.434 1.737 1.359 1.737 2.694v.538c0 1.13 1.008 2.046 2.25 2.046s2.25-.916 2.25-2.046v-.538c0-2.292-1.303-4.477-3.575-5.992-.588-.392-.925-.994-.925-1.652 0-1.127 1.01-2.045 2.25-2.045s2.25.918 2.25 2.045c0 1.13 1.008 2.046 2.25 2.046s2.25-.916 2.25-2.046c0-3.383-3.028-6.136-6.75-6.136s-6.75 2.753-6.75 6.136c0 1.946 1.033 3.797 2.763 4.95z" fill="#013B81"/>
</svg>
