<svg width="52" height="52" fill="none" xmlns="http://www.w3.org/2000/svg">
    <circle cx="26" cy="26" r="26" fill="#D3E6FD"/>
    <g clip-path="url(#a)" fill="#013B81">
        <path d="M14.464 20.82h-4.196a.98.98 0 0 0-.979.98v10.49c0 .54.439.979.98.979h4.195a.98.98 0 0 0 .98-.98V21.8a.98.98 0 0 0-.98-.979zM32.822 32.15a.98.98 0 0 0 .98-.98v-2.167h.069a.98.98 0 0 0 0-1.959h-.07v-5.315a.98.98 0 0 0-1.671-.692l-4.508 4.505a3.544 3.544 0 0 0-1.024 2.481c0 .541.438.98.979.98h4.266v2.167c0 .541.438.98.979.98zm-3.92-5.106c.034-.041.07-.08.107-.119l2.834-2.832v2.951h-2.94zM24.885 31.17a.98.98 0 0 0-.98-.979h-3.918c.033-.041.068-.08.106-.118l4.505-4.504a.98.98 0 0 0 .287-.693v-.524a3.606 3.606 0 0 0-3.602-3.602 3.599 3.599 0 0 0-3.601 3.6v.002a.979.979 0 1 0 1.958-.001 1.64 1.64 0 0 1 1.643-1.642c.906 0 1.644.737 1.644 1.643v.119l-4.22 4.218a3.544 3.544 0 0 0-1.025 2.481c0 .541.438.98.979.98h5.245a.98.98 0 0 0 .98-.98zM26.003 11.24c4.916 0 9.057 3.376 10.229 7.931.394-.198.84-.31 1.31-.31h.63c-1.325-5.49-6.278-9.58-12.169-9.58-5.89 0-10.844 4.09-12.169 9.58h.63c.471 0 .916.112 1.31.31 1.172-4.555 5.314-7.931 10.23-7.931zM36.04 34.813a6.373 6.373 0 0 1-5.84 3.84h-1.28a3.082 3.082 0 0 0-2.917-2.099 3.08 3.08 0 0 0-3.077 3.078 3.08 3.08 0 0 0 3.077 3.077c1.355 0 2.507-.88 2.917-2.098h1.279c3.555 0 6.596-2.241 7.786-5.384h-.443a2.92 2.92 0 0 1-1.502-.414zM41.74 20.82h-4.196a.98.98 0 0 0-.98.98v10.49c0 .54.439.979.98.979h4.196a.98.98 0 0 0 .98-.98V21.8a.98.98 0 0 0-.98-.979z"/>
    </g>
    <defs>
        <clipPath id="a">
            <path fill="#fff" transform="translate(9.29 9.281)" d="M0 0h33.429v33.429H0z"/>
        </clipPath>
    </defs>
</svg>
