<svg width="58" height="59" viewBox="0 0 58 59" fill="none" xmlns="http://www.w3.org/2000/svg">
<g filter="url(#filter0_d_185_23876)">
<rect x="5" y="3.5" width="48" height="48" fill="white"/>
<path d="M29.0002 22.1671V17.9004H18.3335V37.1004H39.6668V22.1671H29.0002ZM22.6002 34.9671H20.4668V32.8337H22.6002V34.9671ZM22.6002 30.7004H20.4668V28.5671H22.6002V30.7004ZM22.6002 26.4337H20.4668V24.3004H22.6002V26.4337ZM22.6002 22.1671H20.4668V20.0337H22.6002V22.1671ZM26.8668 34.9671H24.7335V32.8337H26.8668V34.9671ZM26.8668 30.7004H24.7335V28.5671H26.8668V30.7004ZM26.8668 26.4337H24.7335V24.3004H26.8668V26.4337ZM26.8668 22.1671H24.7335V20.0337H26.8668V22.1671ZM37.5335 34.9671H29.0002V32.8337H31.1335V30.7004H29.0002V28.5671H31.1335V26.4337H29.0002V24.3004H37.5335V34.9671ZM35.4002 26.4337H33.2668V28.5671H35.4002V26.4337ZM35.4002 30.7004H33.2668V32.8337H35.4002V30.7004Z" fill="#C9B4DE"/>
</g>
<defs>
<filter id="filter0_d_185_23876" x="0" y="0.5" width="58" height="58" filterUnits="userSpaceOnUse" color-interpolation-filters="sRGB">
<feFlood flood-opacity="0" result="BackgroundImageFix"/>
<feColorMatrix in="SourceAlpha" type="matrix" values="0 0 0 0 0 0 0 0 0 0 0 0 0 0 0 0 0 0 127 0" result="hardAlpha"/>
<feOffset dy="2"/>
<feGaussianBlur stdDeviation="2.5"/>
<feColorMatrix type="matrix" values="0 0 0 0 0 0 0 0 0 0 0 0 0 0 0 0 0 0 0.06 0"/>
<feBlend mode="normal" in2="BackgroundImageFix" result="effect1_dropShadow_185_23876"/>
<feBlend mode="normal" in="SourceGraphic" in2="effect1_dropShadow_185_23876" result="shape"/>
</filter>
</defs>
</svg>
