<svg xmlns="http://www.w3.org/2000/svg" width="20" height="20" fill="none" viewBox="0 0 20 20">
    <path fill="#5B5C5D" d="M5.273 14.14H.586c-.324 0-.586.263-.586.587v4.687c0 .324.262.586.586.586h4.687c.324 0 .586-.262.586-.586v-4.687c0-.324-.262-.586-.586-.586zm-.585 1.172v1.172H1.171v-1.172h3.516zm0 3.516H1.171v-1.172h3.516v1.172zM12.344 11.797H7.656c-.323 0-.586.262-.586.586v7.031c0 .324.263.586.586.586h4.688c.323 0 .586-.262.586-.586v-7.031c0-.324-.263-.586-.586-.586zm-4.102 3.515h3.516v1.172H8.242v-1.172zm3.516-2.343v1.172H8.242v-1.172h3.516zm0 5.86H8.242v-1.173h3.516v1.172zM19.414 7.11h-4.687c-.324 0-.586.262-.586.585v11.72c0 .323.262.585.586.585h4.687c.324 0 .586-.262.586-.586V7.695c0-.323-.262-.586-.586-.586zm-4.102 7.03V12.97h3.516v1.172h-3.515zm3.516-2.343h-3.515v-1.172h3.515v1.172zm-3.515 3.515h3.515v1.172h-3.515v-1.172zm3.515-7.03v1.171h-3.515V8.281h3.515zm0 10.546h-3.515v-1.172h3.515v1.172zM2.969 10.586c.15 0 .3-.057.414-.172l4.273-4.273 1.93 1.93c.23.229.6.228.83-.002l6.03-6.063v.924c0 .323.262.586.585.586.324 0 .586-.263.586-.586V.586c0-.31-.244-.576-.57-.585L17.032 0h-2.343c-.324 0-.586.262-.586.586 0 .324.262.586.585.586h.935L10 6.826 8.07 4.898c-.23-.229-.6-.229-.829 0L2.554 9.586c-.228.228-.228.6 0 .828.115.115.265.172.415.172z"/>
</svg>
