<svg xmlns="http://www.w3.org/2000/svg" width="24" height="24" viewBox="0 0 24 24" fill="#0074ff">
<g clip-path="url(#clip0_382_48719)">
<path d="M17.5352 3.35938L16.3086 2H6.66016C5.96484 2 5.69531 2.51562 5.69531 2.91797V6.54688H7.04687V3.65234C7.04687 3.49609 7.17578 3.36719 7.32812 3.36719H14.2305C14.3828 3.36719 14.457 3.39453 14.457 3.51953V8.33984H19.3711C19.5625 8.33984 19.6406 8.4375 19.6406 8.58594V20.3555C19.6406 20.6016 19.543 20.6406 19.3906 20.6406H7.32812C7.17578 20.6406 7.04687 20.5078 7.04687 20.3555V19.2812H5.70703V20.9766C5.69141 21.5781 6.00781 22.0039 6.66406 22.0039H20.0625C20.7617 22.0039 21 21.4961 21 21.0352V8.44531V7.1875L20.6523 6.80859L17.5352 3.35938ZM15.8359 3.51953L16.2227 3.95312L18.8203 6.80859L18.9648 6.98047H16.3125C16.1133 6.98047 15.9844 6.94531 15.9336 6.88281C15.8789 6.81641 15.8477 6.71094 15.8398 6.57031V3.51953H15.8359ZM14.7461 12.668H19.3242V14H14.7461V12.668ZM14.7461 10H19.3242V11.332H14.7461V10ZM14.7461 15.3359H19.3242V16.668H14.7461V15.3359ZM3 7.625V18.293H13.4648V7.625H3ZM8.23437 13.832L7.59375 14.8086H8.23437V16H5.01562L7.35156 12.4922L5.28125 9.33594H7.00781L8.23047 11.1719L9.45312 9.33594H11.1797L9.10937 12.4922L11.4453 16H9.65625L8.23437 13.832Z" fill="#0074ff"/>
</g>
<defs>
<clipPath id="clip0_382_48719">
<rect width="20" height="20" fill="white" transform="translate(2 2)"/>
</clipPath>
</defs>
</svg>
