<svg width="28" height="28" viewBox="0 0 28 28" fill="none" xmlns="http://www.w3.org/2000/svg">
<mask id="mask0_66_11312" style="mask-type:alpha" maskUnits="userSpaceOnUse" x="0" y="0" width="28" height="28">
<rect width="28" height="28" fill="#D9D9D9"/>
</mask>
<g mask="url(#mask0_66_11312)">
<path d="M16.3333 25.6662V23.5954L22.1666 17.7912L24.2083 19.862L18.4041 25.6662H16.3333ZM24.9666 19.0745L22.8958 17.0329L23.8874 16.0412C24.0041 15.9245 24.1449 15.8662 24.3098 15.8662C24.4754 15.8662 24.6166 15.9245 24.7333 16.0412L25.9583 17.2662C26.0749 17.3829 26.1333 17.519 26.1333 17.6745C26.1333 17.8301 26.0749 17.9662 25.9583 18.0829L24.9666 19.0745Z" fill="#00AB66"/>
<path fill-rule="evenodd" clip-rule="evenodd" d="M13.9042 11.5473V18.0824H11.7623V11.5473H13.9042ZM13.6098 9.43115C13.3955 9.64542 13.1367 9.75256 12.8333 9.75256C12.5298 9.75256 12.271 9.64542 12.0567 9.43115C11.8424 9.21687 11.7353 8.95802 11.7353 8.65461C11.7353 8.35119 11.8424 8.09234 12.0567 7.87807C12.271 7.66379 12.5298 7.55665 12.8333 7.55665C13.1367 7.55665 13.3955 7.66379 13.6098 7.87807C13.8241 8.09234 13.9312 8.35119 13.9312 8.65461C13.9312 8.95802 13.8241 9.21687 13.6098 9.43115ZM8.7487 22.5153C10.0249 23.0604 11.3865 23.333 12.8333 23.333C13.0935 23.333 13.351 23.3242 13.6057 23.3065L16.749 20.1654C15.5804 20.7952 14.2751 21.1101 12.8333 21.1101C10.5293 21.1101 8.57428 20.3061 6.96806 18.6982C5.36013 17.092 4.55616 15.1369 4.55616 12.833C4.55616 10.5291 5.36013 8.57404 6.96806 6.96782C8.57428 5.35988 10.5293 4.55592 12.8333 4.55592C15.1372 4.55592 17.0922 5.35988 18.6984 6.96782C20.3064 8.57404 21.1103 10.5291 21.1103 12.833C21.1103 14.2769 20.7946 15.5838 20.163 16.7537L23.3063 13.6125C23.3243 13.3555 23.3333 13.0956 23.3333 12.833C23.3333 11.3862 23.0607 10.0247 22.5156 8.74846C21.9713 7.47137 21.2213 6.35541 20.2657 5.4006C19.3108 4.44492 18.1996 3.69495 16.9319 3.15069C15.6634 2.60557 14.2972 2.33301 12.8333 2.33301C11.3865 2.33301 10.0249 2.60557 8.7487 3.15069C7.47161 3.69495 6.35566 4.44492 5.40084 5.4006C4.44517 6.35541 3.6952 7.46708 3.15093 8.7356C2.60581 10.0033 2.33325 11.3691 2.33325 12.833C2.33325 14.2798 2.60581 15.6413 3.15093 16.9176C3.6952 18.1946 4.44517 19.3106 5.40084 20.2654C6.35566 21.2211 7.47161 21.9711 8.7487 22.5153Z" fill="black"/>
</g>
</svg>
