<svg xmlns="http://www.w3.org/2000/svg" width="20" height="20" fill="none" viewBox="0 0 20 20">
    <path fill="#5B5C5D" d="M10 0C4.494 0 0 4.494 0 10s4.494 10 10 10 10-4.494 10-10S15.506 0 10 0zM7.017 1.691c-.686.872-1.185 1.95-1.53 2.997H2.954C3.98 3.33 5.388 2.277 7.017 1.69zM2.205 5.855h2.95c-.264 1.111-.42 2.317-.458 3.56H1.192c.084-1.279.44-2.487 1.013-3.56zm0 8.286c-.572-1.073-.93-2.277-1.013-3.555h3.505c.037 1.242.194 2.444.459 3.555h-2.95zm.749 1.171h2.533c.345 1.046.844 2.125 1.53 2.997-1.629-.587-3.037-1.64-4.063-2.997zm6.46 3.417c-1.308-.44-2.21-2.12-2.687-3.416h2.687v3.416zm0-4.588H6.363c-.285-1.095-.454-2.3-.494-3.555h3.545v3.555zm0-4.727H5.87c.04-1.254.209-2.46.494-3.555h3.051v3.555zm0-4.726H6.727C7.204 3.39 8.106 1.71 9.414 1.27v3.417zm8.38 1.171c.573 1.073.93 2.277 1.014 3.555h-3.505c-.037-1.242-.194-2.444-.459-3.555h2.95zm-.748-1.171h-2.533c-.345-1.046-.844-2.125-1.53-2.997 1.629.587 3.037 1.64 4.063 2.997zm-6.46-3.417c1.308.44 2.21 2.12 2.687 3.417h-2.687V1.27zm0 4.588h3.051c.285 1.095.454 2.3.494 3.555h-3.545V5.86zm0 4.723h3.545c-.04 1.255-.209 2.463-.494 3.559h-3.051v-3.559zm0 8.147v-3.42h2.687c-.477 1.296-1.379 2.98-2.687 3.42zm2.397-.42c.686-.872 1.185-1.955 1.53-3h2.533c-1.026 1.357-2.434 2.413-4.063 3zm4.812-4.168h-2.95c.264-1.111.42-2.317.458-3.559h3.505c-.084 1.278-.44 2.486-1.013 3.559z"/>
</svg>
