<svg width="308" height="262" viewBox="0 0 308 262" fill="none" xmlns="http://www.w3.org/2000/svg">
<path d="M21.3574 72.6816L257.016 165.268L284.039 209.143L21.3574 72.6816Z" fill="url(#paint0_linear_751_13485)"/>
<path d="M21.3574 72.6816L257.016 165.268L284.039 209.143L21.3574 72.6816Z" fill="white"/>
<path d="M21.1348 72.6816L257.143 166.404L238.139 217.531L21.1348 72.6816Z" fill="url(#paint1_linear_751_13485)"/>
<path d="M21.1348 72.6816L257.143 166.404L238.139 217.531L21.1348 72.6816Z" fill="url(#paint2_linear_751_13485)"/>
<path d="M256.717 56.3586L259.917 135.726C260 137.798 259.37 139.797 258.166 141.283C256.962 142.77 255.283 143.623 253.497 143.655L123.173 145.807C121.387 145.832 119.643 145.035 118.321 143.592C116.998 142.149 116.206 140.176 116.117 138.105L112.906 58.7356C112.828 56.6628 113.46 54.6649 114.666 53.1792C115.871 51.6936 117.551 50.8412 119.338 50.8086L249.661 48.6568C251.449 48.6329 253.194 49.4312 254.516 50.877C255.839 52.3227 256.629 54.2981 256.716 56.3709L256.717 56.3586Z" fill="url(#paint3_linear_751_13485)"/>
<path d="M256.717 56.3586L259.917 135.726C260 137.798 259.37 139.797 258.166 141.283C256.962 142.77 255.283 143.623 253.497 143.655L123.173 145.807C121.387 145.832 119.643 145.035 118.321 143.592C116.998 142.149 116.206 140.176 116.117 138.105L112.906 58.7356C112.828 56.6628 113.46 54.6649 114.666 53.1792C115.871 51.6936 117.551 50.8412 119.338 50.8086L249.661 48.6568C251.449 48.6329 253.194 49.4312 254.516 50.877C255.839 52.3227 256.629 54.2981 256.716 56.3709L256.717 56.3586Z" fill="url(#paint4_linear_751_13485)"/>
<path d="M254.524 50.237L204.132 99.5312C199.458 104.101 193.515 106.649 187.285 106.753C181.055 106.856 174.912 104.51 169.872 100.102L115.515 52.5498C116.701 51.1931 118.307 50.4231 120.006 50.396L249.874 48.2426C251.568 48.2156 253.23 48.9282 254.524 50.237V50.237Z" fill="url(#paint5_linear_751_13485)"/>
<path d="M21.1426 72.6836L212.779 171.329L238.201 217.777L21.1426 72.6836Z" fill="url(#paint6_linear_751_13485)"/>
<path d="M21.1426 72.6836L212.779 171.329L238.201 217.777L21.1426 72.6836Z" fill="white"/>
<path d="M86.5424 142.127L85.8652 143.059L105.565 163.175L106.242 162.243L86.5424 142.127Z" fill="url(#paint7_linear_751_13485)"/>
<path d="M114.908 171.033L114.229 171.969L121.326 179.234L122.005 178.298L114.908 171.033Z" fill="url(#paint8_linear_751_13485)"/>
<path d="M20.9746 72.6816L212.95 172.279L166.399 216.976L20.9746 72.6816Z" fill="url(#paint9_linear_751_13485)"/>
<path d="M267.662 259.644C267.392 259.584 267.134 259.466 266.9 259.296L236.488 237.205C236.002 236.847 235.653 236.288 235.516 235.649C235.38 235.009 235.467 234.342 235.759 233.792C236.052 233.243 236.525 232.855 237.076 232.715C237.627 232.574 238.211 232.692 238.701 233.043L269.124 255.136C269.554 255.448 269.881 255.92 270.048 256.47C270.215 257.02 270.211 257.613 270.038 258.148C269.865 258.682 269.532 259.124 269.098 259.397C268.665 259.671 268.156 259.758 267.662 259.644V259.644Z" fill="url(#paint10_linear_751_13485)"/>
<path d="M267.662 259.644C267.392 259.584 267.134 259.466 266.9 259.296L236.488 237.205C236.002 236.847 235.653 236.288 235.516 235.649C235.38 235.009 235.467 234.342 235.759 233.792C236.052 233.243 236.525 232.855 237.076 232.715C237.627 232.574 238.211 232.692 238.701 233.043L269.124 255.136C269.554 255.448 269.881 255.92 270.048 256.47C270.215 257.02 270.211 257.613 270.038 258.148C269.865 258.682 269.532 259.124 269.098 259.397C268.665 259.671 268.156 259.758 267.662 259.644V259.644Z" fill="url(#paint11_linear_751_13485)"/>
<path d="M269.048 236.958C268.781 236.896 268.527 236.774 268.298 236.599L251.954 224.645C251.709 224.469 251.496 224.241 251.325 223.973C251.155 223.704 251.031 223.402 250.961 223.082C250.891 222.762 250.876 222.431 250.917 222.109C250.958 221.786 251.054 221.479 251.201 221.203C251.347 220.928 251.539 220.691 251.768 220.505C251.997 220.318 252.256 220.188 252.532 220.119C252.808 220.051 253.095 220.047 253.376 220.107C253.657 220.167 253.926 220.29 254.169 220.469L270.518 232.387C271.008 232.742 271.362 233.303 271.503 233.946C271.643 234.588 271.558 235.26 271.266 235.815C271.049 236.247 270.72 236.589 270.324 236.793C269.927 236.997 269.482 237.055 269.048 236.958Z" fill="url(#paint12_linear_751_13485)"/>
<path d="M269.048 236.958C268.781 236.896 268.527 236.774 268.298 236.599L251.954 224.645C251.709 224.469 251.496 224.241 251.325 223.973C251.155 223.704 251.031 223.402 250.961 223.082C250.891 222.762 250.876 222.431 250.917 222.109C250.958 221.786 251.054 221.479 251.201 221.203C251.347 220.928 251.539 220.691 251.768 220.505C251.997 220.318 252.256 220.188 252.532 220.119C252.808 220.051 253.095 220.047 253.376 220.107C253.657 220.167 253.926 220.29 254.169 220.469L270.518 232.387C271.008 232.742 271.362 233.303 271.503 233.946C271.643 234.588 271.558 235.26 271.266 235.815C271.049 236.247 270.72 236.589 270.324 236.793C269.927 236.997 269.482 237.055 269.048 236.958Z" fill="white"/>
<path d="M229.553 251.53C229.288 251.466 229.034 251.349 228.802 251.184L199.141 229.585C198.896 229.41 198.682 229.182 198.512 228.915C198.341 228.647 198.218 228.345 198.148 228.027C198.078 227.708 198.063 227.378 198.104 227.057C198.145 226.735 198.241 226.428 198.387 226.154C198.533 225.879 198.726 225.642 198.954 225.457C199.183 225.271 199.442 225.141 199.718 225.073C199.994 225.005 200.28 225.001 200.561 225.06C200.842 225.12 201.111 225.243 201.354 225.422L231.022 246.972C231.453 247.284 231.78 247.756 231.947 248.306C232.113 248.856 232.11 249.45 231.937 249.984C231.763 250.519 231.431 250.961 230.997 251.234C230.563 251.507 230.055 251.595 229.56 251.481L229.553 251.53Z" fill="url(#paint13_linear_751_13485)"/>
<path d="M229.553 251.53C229.288 251.466 229.034 251.349 228.802 251.184L199.141 229.585C198.896 229.41 198.682 229.182 198.512 228.915C198.341 228.647 198.218 228.345 198.148 228.027C198.078 227.708 198.063 227.378 198.104 227.057C198.145 226.735 198.241 226.428 198.387 226.154C198.533 225.879 198.726 225.642 198.954 225.457C199.183 225.271 199.442 225.141 199.718 225.073C199.994 225.005 200.28 225.001 200.561 225.06C200.842 225.12 201.111 225.243 201.354 225.422L231.022 246.972C231.453 247.284 231.78 247.756 231.947 248.306C232.113 248.856 232.11 249.45 231.937 249.984C231.763 250.519 231.431 250.961 230.997 251.234C230.563 251.507 230.055 251.595 229.56 251.481L229.553 251.53Z" fill="url(#paint14_linear_751_13485)"/>
<defs>
<linearGradient id="paint0_linear_751_13485" x1="178.252" y1="185.658" x2="194.786" y2="111.184" gradientUnits="userSpaceOnUse">
<stop stop-color="#B1DCE7" stop-opacity="0.8"/>
<stop offset="0.519665" stop-color="#6FC1D8" stop-opacity="0.85"/>
<stop offset="1" stop-color="#70BCD2"/>
</linearGradient>
<linearGradient id="paint1_linear_751_13485" x1="155.943" y1="199.073" x2="176.491" y2="107.567" gradientUnits="userSpaceOnUse">
<stop stop-color="#B1DCE7" stop-opacity="0.8"/>
<stop offset="0.519665" stop-color="#6FC1D8" stop-opacity="0.85"/>
<stop offset="1" stop-color="#70BCD2"/>
</linearGradient>
<linearGradient id="paint2_linear_751_13485" x1="260.933" y1="222.649" x2="-15.1459" y2="149.154" gradientUnits="userSpaceOnUse">
<stop stop-color="#133A94"/>
<stop offset="1" stop-color="#919BFF"/>
</linearGradient>
<linearGradient id="paint3_linear_751_13485" x1="195.057" y1="162.42" x2="222.537" y2="42.2822" gradientUnits="userSpaceOnUse">
<stop stop-color="#B1DCE7" stop-opacity="0.8"/>
<stop offset="0.519665" stop-color="#6FC1D8" stop-opacity="0.85"/>
<stop offset="1" stop-color="#70BCD2"/>
</linearGradient>
<linearGradient id="paint4_linear_751_13485" x1="261.645" y1="177.651" x2="83.7634" y2="141.923" gradientUnits="userSpaceOnUse">
<stop stop-color="#133A94"/>
<stop offset="1" stop-color="#919BFF"/>
</linearGradient>
<linearGradient id="paint5_linear_751_13485" x1="192.513" y1="108.64" x2="208.376" y2="38.6642" gradientUnits="userSpaceOnUse">
<stop stop-color="#B1DCE7" stop-opacity="0.8"/>
<stop offset="0.519665" stop-color="#6FC1D8" stop-opacity="0.85"/>
<stop offset="1" stop-color="#70BCD2"/>
</linearGradient>
<linearGradient id="paint6_linear_751_13485" x1="149.097" y1="197.737" x2="169.708" y2="106.097" gradientUnits="userSpaceOnUse">
<stop stop-color="#B1DCE7" stop-opacity="0.8"/>
<stop offset="0.519665" stop-color="#6FC1D8" stop-opacity="0.85"/>
<stop offset="1" stop-color="#70BCD2"/>
</linearGradient>
<linearGradient id="paint7_linear_751_13485" x1="105.98" y1="162.603" x2="83.5223" y2="146.283" gradientUnits="userSpaceOnUse">
<stop stop-color="#B1DCE7" stop-opacity="0.8"/>
<stop offset="0.519665" stop-color="#6FC1D8" stop-opacity="0.85"/>
<stop offset="1" stop-color="#70BCD2"/>
</linearGradient>
<linearGradient id="paint8_linear_751_13485" x1="121.743" y1="178.659" x2="113.638" y2="172.784" gradientUnits="userSpaceOnUse">
<stop stop-color="#B1DCE7" stop-opacity="0.8"/>
<stop offset="0.519665" stop-color="#6FC1D8" stop-opacity="0.85"/>
<stop offset="1" stop-color="#70BCD2"/>
</linearGradient>
<linearGradient id="paint9_linear_751_13485" x1="128.026" y1="208.273" x2="152.037" y2="102.406" gradientUnits="userSpaceOnUse">
<stop stop-color="#B1DCE7" stop-opacity="0.8"/>
<stop offset="0.519665" stop-color="#6FC1D8" stop-opacity="0.85"/>
<stop offset="1" stop-color="#70BCD2"/>
</linearGradient>
<linearGradient id="paint10_linear_751_13485" x1="255.578" y1="256.905" x2="259.935" y2="237.687" gradientUnits="userSpaceOnUse">
<stop stop-color="#B1DCE7" stop-opacity="0.8"/>
<stop offset="0.519665" stop-color="#6FC1D8" stop-opacity="0.85"/>
<stop offset="1" stop-color="#70BCD2"/>
</linearGradient>
<linearGradient id="paint11_linear_751_13485" x1="271.553" y1="260.527" x2="229.149" y2="250.722" gradientUnits="userSpaceOnUse">
<stop stop-color="#133A94"/>
<stop offset="1" stop-color="#919BFF"/>
</linearGradient>
<linearGradient id="paint12_linear_751_13485" x1="262.773" y1="235.532" x2="265.646" y2="222.896" gradientUnits="userSpaceOnUse">
<stop stop-color="#B1DCE7" stop-opacity="0.8"/>
<stop offset="0.519665" stop-color="#6FC1D8" stop-opacity="0.85"/>
<stop offset="1" stop-color="#70BCD2"/>
</linearGradient>
<linearGradient id="paint13_linear_751_13485" x1="217.771" y1="248.858" x2="222.062" y2="229.936" gradientUnits="userSpaceOnUse">
<stop stop-color="#B1DCE7" stop-opacity="0.8"/>
<stop offset="0.519665" stop-color="#6FC1D8" stop-opacity="0.85"/>
<stop offset="1" stop-color="#70BCD2"/>
</linearGradient>
<linearGradient id="paint14_linear_751_13485" x1="233.407" y1="252.404" x2="191.897" y2="242.828" gradientUnits="userSpaceOnUse">
<stop stop-color="#133A94"/>
<stop offset="1" stop-color="#919BFF"/>
</linearGradient>
</defs>
</svg>
