<svg xmlns="http://www.w3.org/2000/svg" width="20" height="20" fill="none" viewBox="0 0 20 20">
    <path fill="#5B5C5D" d="M19.414 5.898h-1.758V4.165c0-.97-.788-1.782-1.758-1.782H1.758C.788 2.383 0 3.17 0 4.14v10.546c0 1.616 1.314 2.93 2.93 2.93h14.14c1.616 0 2.93-1.314 2.93-2.93V6.485c0-.323-.262-.586-.586-.586zm-4.102-1.757c0-.329.27-.595.603-.586.314.009.57.282.57.61v8.765h-1.172V4.14zM1.172 14.687V4.142c0-.323.263-.586.586-.586H14.24c-.065.185-.1.383-.1.586v10.546c0 .66.22 1.268.588 1.758H2.93c-.97 0-1.758-.788-1.758-1.758zm17.656 0c0 .97-.788 1.758-1.758 1.758-.969 0-1.758-.788-1.758-1.758v-.585h1.758c.324 0 .586-.263.586-.586V7.07h1.172v7.617z"/>
    <path fill="#5B5C5D" d="M12.383 4.727H2.93c-.324 0-.586.262-.586.585 0 .324.262.586.586.586h9.453c.324 0 .586-.262.586-.585 0-.324-.262-.586-.586-.586zM12.383 7.07H2.93c-.324 0-.586.263-.586.586 0 .324.262.586.586.586h9.453c.324 0 .586-.262.586-.586 0-.323-.262-.586-.586-.586zM7.695 9.414H2.97c-.324 0-.586.262-.586.586v4.688c0 .323.262.585.586.585h4.726c.324 0 .586-.262.586-.585V10c0-.324-.262-.586-.586-.586zm-.586 4.688H3.555v-3.516h3.554v3.516zM12.383 9.414H10c-.324 0-.586.262-.586.586 0 .324.262.586.586.586h2.383c.324 0 .586-.262.586-.586 0-.324-.262-.586-.586-.586zM12.383 11.758H10c-.324 0-.586.262-.586.586 0 .323.262.586.586.586h2.383c.324 0 .586-.263.586-.586 0-.324-.262-.586-.586-.586zM12.383 14.102H10c-.324 0-.586.262-.586.585 0 .324.262.586.586.586h2.383c.324 0 .586-.262.586-.585 0-.324-.262-.586-.586-.586z"/>
</svg>
