<svg width="64" height="82" viewBox="0 0 64 82" fill="none" xmlns="http://www.w3.org/2000/svg">
<path d="M32 64C49.6731 64 64 49.6731 64 32C64 14.3269 49.6731 0 32 0C14.3269 0 -4.21479e-07 14.3269 -9.41399e-07 32C-1.46132e-06 49.6731 14.3269 64 32 64Z" fill="#DA1414"/>
<path d="M31.6318 36.2405L22.1428 46.4069C21.8202 46.8301 21.3765 47.1797 20.8517 47.4242C20.327 47.6687 19.7376 47.8005 19.1366 47.8076C18.3122 47.817 17.5168 47.5542 16.9234 47.0765C16.6218 46.8456 16.3833 46.5631 16.2241 46.2484C16.065 45.9337 15.989 45.594 16.0013 45.2525C16.031 44.4878 16.3543 43.7513 16.9234 43.1515L27.7403 31.9846L17.5966 20.81C17.1253 20.2856 16.8668 19.6493 16.8589 18.9938C16.8565 18.6028 16.9511 18.2157 17.1368 17.8567C17.3225 17.4978 17.5952 17.1748 17.9378 16.9081C18.2596 16.6278 18.6461 16.4048 19.074 16.2527C19.502 16.1005 19.9625 16.0224 20.4276 16.0231C21.0233 16.0312 21.6071 16.1636 22.1258 16.4082C22.6444 16.6529 23.0814 17.002 23.397 17.4238L32.5632 27.4978L41.7847 17.5931C42.1144 17.131 42.5754 16.7439 43.1271 16.466C43.6789 16.1881 44.3042 16.0281 44.9477 16C45.3471 15.9992 45.7424 16.0671 46.1089 16.1995C46.4754 16.3319 46.8053 16.526 47.0778 16.7696C47.3684 16.998 47.6001 17.2734 47.7587 17.5791C47.9172 17.8848 47.9994 18.2143 48 18.5474C47.9902 19.1435 47.7437 19.72 47.2992 20.1866L36.4454 31.7768L46.9303 43.3208C47.4259 43.8368 47.7017 44.4758 47.7141 45.1371C47.7171 45.5195 47.6206 45.8978 47.4311 46.2459C47.2416 46.5941 46.9638 46.9037 46.6168 47.1534C45.9402 47.6964 45.038 47.9998 44.0993 48C43.5006 47.9938 42.9134 47.8623 42.3914 47.6176C41.8694 47.3729 41.4293 47.0228 41.1115 46.5993L31.6318 36.2405Z" fill="white"/>
<path d="M18.356 82C18.2657 82 18.1763 81.9841 18.0933 81.9533C18.0103 81.9224 17.9354 81.8773 17.8731 81.8206C17.8051 81.7621 17.7517 81.6921 17.7161 81.6149C17.6805 81.5378 17.6635 81.4552 17.6662 81.3721C17.6661 81.2318 17.7098 81.094 17.7927 80.9734L18.8273 79.5781H16.712C16.6142 79.5825 16.5165 79.5687 16.4253 79.5378C16.3341 79.5068 16.2516 79.4594 16.1831 79.3987C16.065 79.2794 16 79.1274 16 78.9701C16 78.8129 16.065 78.6609 16.1831 78.5416C16.2516 78.4808 16.3341 78.4334 16.4253 78.4025C16.5165 78.3716 16.6142 78.3578 16.712 78.3622L18.7928 78.412L17.8157 77.0665C17.7234 76.9338 17.672 76.7828 17.6662 76.628C17.6635 76.5449 17.6805 76.4623 17.7161 76.3851C17.7517 76.308 17.8051 76.238 17.8731 76.1795C17.9375 76.1225 18.0145 76.0773 18.0994 76.0464C18.1843 76.0156 18.2754 75.9999 18.3675 76.0001C18.4962 75.9984 18.6226 76.0297 18.731 76.0899C18.8394 76.1502 18.9249 76.2368 18.9768 76.3389L19.9885 77.9037L20.9542 76.4087C21.015 76.2924 21.1115 76.1928 21.2331 76.1207C21.3548 76.0487 21.4969 76.0069 21.644 76.0001C21.7343 76.0001 21.8237 76.016 21.9067 76.0468C21.9897 76.0776 22.0646 76.1228 22.1269 76.1795C22.1942 76.2342 22.2475 76.3007 22.2832 76.3746C22.3188 76.4484 22.3361 76.528 22.3338 76.608C22.3323 76.7496 22.2844 76.8878 22.1958 77.0067L21.1841 78.412L23.288 78.3622C23.3859 78.3572 23.4838 78.3706 23.5751 78.4016C23.6664 78.4325 23.7489 78.4803 23.8169 78.5416C23.935 78.6609 24 78.8129 24 78.9701C24 79.1274 23.935 79.2794 23.8169 79.3987C23.7489 79.46 23.6664 79.5077 23.5751 79.5387C23.4838 79.5697 23.3859 79.5831 23.288 79.5781H21.1611L22.1039 80.8538C22.2102 81.0078 22.2696 81.1828 22.2763 81.3621C22.2796 81.4429 22.264 81.5234 22.2304 81.5988C22.1968 81.6741 22.1459 81.7428 22.0809 81.8007C22.0203 81.8566 21.9474 81.9013 21.8664 81.9322C21.7853 81.963 21.698 81.9793 21.6095 81.9801C21.4669 81.9783 21.3279 81.9406 21.2095 81.8716C21.0911 81.8026 20.9984 81.7052 20.9427 81.5914L19.9885 80.1263L19.0343 81.5914C18.9776 81.7083 18.8838 81.8088 18.7637 81.8812C18.6435 81.9535 18.5021 81.9948 18.356 82Z" fill="#DA1414"/>
<path d="M30.356 82C30.2657 82 30.1763 81.9841 30.0933 81.9533C30.0103 81.9224 29.9354 81.8773 29.8731 81.8206C29.8051 81.7621 29.7517 81.6921 29.7161 81.6149C29.6805 81.5378 29.6635 81.4552 29.6662 81.3721C29.6661 81.2318 29.7098 81.094 29.7927 80.9734L30.8274 79.5781H28.712C28.6142 79.5825 28.5165 79.5687 28.4253 79.5378C28.3341 79.5068 28.2516 79.4594 28.1831 79.3987C28.065 79.2794 28 79.1274 28 78.9701C28 78.8129 28.065 78.6609 28.1831 78.5416C28.2516 78.4808 28.3341 78.4334 28.4253 78.4025C28.5165 78.3716 28.6142 78.3578 28.712 78.3622L30.7929 78.412L29.8157 77.0665C29.7234 76.9338 29.672 76.7828 29.6662 76.628C29.6635 76.5449 29.6805 76.4623 29.7161 76.3851C29.7517 76.308 29.8051 76.238 29.8731 76.1795C29.9376 76.1225 30.0145 76.0773 30.0994 76.0464C30.1843 76.0156 30.2754 75.9999 30.3675 76.0001C30.4962 75.9984 30.6227 76.0297 30.731 76.0899C30.8394 76.1502 30.9249 76.2368 30.9768 76.3389L31.9885 77.9037L32.9542 76.4087C33.015 76.2924 33.1115 76.1928 33.2331 76.1207C33.3548 76.0487 33.4969 76.0069 33.644 76.0001C33.7343 76.0001 33.8237 76.016 33.9067 76.0468C33.9897 76.0776 34.0646 76.1228 34.1269 76.1795C34.1942 76.2342 34.2475 76.3007 34.2832 76.3746C34.3188 76.4484 34.3361 76.528 34.3338 76.608C34.3323 76.7496 34.2844 76.8878 34.1958 77.0067L33.1842 78.412L35.288 78.3622C35.3859 78.3572 35.4838 78.3706 35.5751 78.4016C35.6664 78.4325 35.7489 78.4803 35.8169 78.5416C35.935 78.6609 36 78.8129 36 78.9701C36 79.1274 35.935 79.2794 35.8169 79.3987C35.7489 79.46 35.6664 79.5077 35.5751 79.5387C35.4838 79.5697 35.3859 79.5831 35.288 79.5781H33.1612L34.1039 80.8538C34.2102 81.0078 34.2696 81.1828 34.2763 81.3621C34.2796 81.4429 34.264 81.5234 34.2304 81.5988C34.1968 81.6741 34.1459 81.7428 34.0809 81.8007C34.0204 81.8566 33.9474 81.9013 33.8664 81.9322C33.7854 81.963 33.698 81.9793 33.6095 81.9801C33.4672 81.9771 33.3289 81.9389 33.2107 81.87C33.0926 81.8012 32.9996 81.7045 32.9427 81.5914L31.9885 80.1263L31.0343 81.5914C30.9776 81.7083 30.8838 81.8088 30.7637 81.8812C30.6435 81.9535 30.5021 81.9948 30.356 82Z" fill="#DA1414"/>
<path d="M6.35599 82C6.26569 82 6.17631 81.9841 6.09331 81.9533C6.01031 81.9224 5.9354 81.8773 5.87312 81.8206C5.80511 81.7621 5.75167 81.6921 5.71608 81.6149C5.68049 81.5378 5.6635 81.4552 5.66619 81.3721C5.67153 81.2324 5.71486 81.0958 5.79265 80.9734L6.82734 79.5781H4.72346C4.62386 79.5833 4.52414 79.5699 4.43096 79.539C4.33778 79.508 4.25328 79.4602 4.18312 79.3987C4.06496 79.2794 4 79.1274 4 78.9701C4 78.8129 4.06496 78.6609 4.18312 78.5416C4.25328 78.4801 4.33778 78.4322 4.43096 78.4013C4.52414 78.3704 4.62386 78.357 4.72346 78.3622L6.79285 78.412L5.81565 77.0665C5.72345 76.9338 5.67199 76.7828 5.66619 76.628C5.6635 76.5449 5.68049 76.4623 5.71608 76.3851C5.75167 76.308 5.80511 76.238 5.87312 76.1795C5.93755 76.1225 6.01448 76.0773 6.09938 76.0464C6.18428 76.0156 6.27544 75.9999 6.36748 76.0001C6.49621 75.9984 6.62265 76.0297 6.73101 76.0899C6.83938 76.1502 6.92486 76.2368 6.9768 76.3389L7.9885 77.9037L8.95421 76.4087C9.01503 76.2924 9.11152 76.1928 9.23315 76.1207C9.35478 76.0487 9.49688 76.0069 9.64399 76.0001C9.7345 75.9989 9.82428 76.0142 9.90748 76.0451C9.99068 76.0761 10.0654 76.1218 10.1269 76.1795C10.1942 76.2342 10.2475 76.3007 10.2832 76.3746C10.3188 76.4484 10.3361 76.528 10.3338 76.608C10.3323 76.7496 10.2844 76.8878 10.1958 77.0067L9.18414 78.412L11.288 78.3622C11.3859 78.3572 11.4838 78.3706 11.5751 78.4016C11.6664 78.4325 11.7489 78.4803 11.8169 78.5416C11.935 78.6609 12 78.8129 12 78.9701C12 79.1274 11.935 79.2794 11.8169 79.3987C11.7489 79.46 11.6664 79.5077 11.5751 79.5387C11.4838 79.5697 11.3859 79.5831 11.288 79.5781H9.16114L10.1038 80.8538C10.2102 81.0078 10.2696 81.1828 10.2763 81.3621C10.2796 81.4429 10.264 81.5234 10.2304 81.5988C10.1968 81.6741 10.1459 81.7428 10.0809 81.8007C10.0203 81.8566 9.94737 81.9013 9.86636 81.9322C9.78535 81.963 9.69797 81.9793 9.6095 81.9801C9.4672 81.9771 9.32884 81.9389 9.21071 81.87C9.09258 81.8012 8.99962 81.7045 8.94272 81.5914L7.9885 80.1263L7.03428 81.5914C6.97765 81.7083 6.88378 81.8088 6.76366 81.8812C6.64354 81.9535 6.50214 81.9948 6.35599 82Z" fill="#DA1414"/>
<path d="M42.356 82C42.2657 82 42.1763 81.9841 42.0933 81.9533C42.0103 81.9224 41.9354 81.8773 41.8731 81.8206C41.8051 81.7621 41.7517 81.6921 41.7161 81.6149C41.6805 81.5378 41.6635 81.4552 41.6662 81.3721C41.6715 81.2324 41.7149 81.0958 41.7927 80.9734L42.8273 79.5781H40.7235C40.6239 79.5833 40.5241 79.5699 40.431 79.539C40.3378 79.508 40.2533 79.4602 40.1831 79.3987C40.065 79.2794 40 79.1274 40 78.9701C40 78.8129 40.065 78.6609 40.1831 78.5416C40.2533 78.4801 40.3378 78.4322 40.431 78.4013C40.5241 78.3704 40.6239 78.357 40.7235 78.3622L42.7928 78.412L41.8157 77.0665C41.7234 76.9338 41.672 76.7828 41.6662 76.628C41.6635 76.5449 41.6805 76.4623 41.7161 76.3851C41.7517 76.308 41.8051 76.238 41.8731 76.1795C41.9375 76.1225 42.0145 76.0773 42.0994 76.0464C42.1843 76.0156 42.2754 75.9999 42.3675 76.0001C42.4962 75.9984 42.6226 76.0297 42.731 76.0899C42.8394 76.1502 42.9249 76.2368 42.9768 76.3389L43.9885 77.9037L44.9542 76.4087C45.015 76.2924 45.1115 76.1928 45.2331 76.1207C45.3548 76.0487 45.4969 76.0069 45.644 76.0001C45.7345 75.9989 45.8243 76.0142 45.9075 76.0451C45.9907 76.0761 46.0654 76.1218 46.1269 76.1795C46.1942 76.2342 46.2475 76.3007 46.2832 76.3746C46.3188 76.4484 46.3361 76.528 46.3338 76.608C46.3323 76.7496 46.2844 76.8878 46.1958 77.0067L45.1841 78.412L47.288 78.3622C47.3859 78.3572 47.4838 78.3706 47.5751 78.4016C47.6664 78.4325 47.7489 78.4803 47.8169 78.5416C47.935 78.6609 48 78.8129 48 78.9701C48 79.1274 47.935 79.2794 47.8169 79.3987C47.7489 79.46 47.6664 79.5077 47.5751 79.5387C47.4838 79.5697 47.3859 79.5831 47.288 79.5781H45.1611L46.1038 80.8538C46.2102 81.0078 46.2696 81.1828 46.2763 81.3621C46.2796 81.4429 46.264 81.5234 46.2304 81.5988C46.1968 81.6741 46.1459 81.7428 46.0809 81.8007C46.0203 81.8566 45.9474 81.9013 45.8664 81.9322C45.7853 81.963 45.698 81.9793 45.6095 81.9801C45.4672 81.9771 45.3288 81.9389 45.2107 81.87C45.0926 81.8012 44.9996 81.7045 44.9427 81.5914L43.9885 80.1263L43.0343 81.5914C42.9776 81.7083 42.8838 81.8088 42.7637 81.8812C42.6435 81.9535 42.5021 81.9948 42.356 82Z" fill="#DA1414"/>
<path d="M54.3562 82C54.2659 82 54.1766 81.9841 54.0936 81.9533C54.0106 81.9224 53.9357 81.8773 53.8734 81.8206C53.8054 81.7621 53.7519 81.6921 53.7163 81.6149C53.6807 81.5378 53.6637 81.4552 53.6664 81.3721C53.6718 81.2325 53.7151 81.0959 53.7929 80.9735L54.8275 79.5782H52.7238C52.6257 79.5846 52.5273 79.5718 52.4358 79.5407C52.3442 79.5097 52.2619 79.4612 52.1949 79.3988C52.0697 79.2825 52 79.1293 52 78.9702C52 78.8111 52.0697 78.658 52.1949 78.5417C52.2619 78.4793 52.3442 78.4308 52.4358 78.3998C52.5273 78.3687 52.6257 78.3559 52.7238 78.3623L54.7931 78.4121L53.8159 77.0667C53.7237 76.934 53.6722 76.783 53.6664 76.6282C53.6633 76.5467 53.6792 76.4655 53.7131 76.3894C53.7469 76.3133 53.7981 76.2439 53.8635 76.1853C53.929 76.1268 54.0073 76.0802 54.0939 76.0484C54.1805 76.0166 54.2737 76.0002 54.3677 76.0003C54.4964 75.9986 54.6229 76.0299 54.7312 76.0902C54.8396 76.1504 54.9251 76.237 54.977 76.3391L55.9887 77.9038L56.9543 76.4089C57.0152 76.2926 57.1116 76.193 57.2333 76.1209C57.3549 76.0489 57.497 76.0071 57.6441 76.0003C57.7348 75.9978 57.8251 76.0125 57.9085 76.0435C57.9919 76.0745 58.0665 76.121 58.1269 76.1797C58.1943 76.2344 58.2476 76.3009 58.2833 76.3748C58.3189 76.4486 58.3362 76.5282 58.3339 76.6082C58.3324 76.7497 58.2845 76.888 58.1959 77.0069L57.1843 78.4121L59.2881 78.3623C59.3859 78.3573 59.4839 78.3707 59.5752 78.4017C59.6665 78.4327 59.7489 78.4804 59.8169 78.5417C59.935 78.661 60 78.813 60 78.9702C60 79.1275 59.935 79.2795 59.8169 79.3988C59.7489 79.46 59.6665 79.5078 59.5752 79.5388C59.4839 79.5697 59.3859 79.5832 59.2881 79.5782H57.1613L58.104 80.8539C58.2103 81.0079 58.2696 81.1828 58.2764 81.3622C58.2795 81.4407 58.2646 81.519 58.2328 81.5926C58.2009 81.6661 58.1527 81.7335 58.0907 81.7909C58.0288 81.8483 57.9544 81.8945 57.8719 81.927C57.7893 81.9595 57.7002 81.9775 57.6096 81.9801C57.4673 81.9771 57.329 81.9389 57.2108 81.87C57.0927 81.8012 56.9997 81.7045 56.9428 81.5914L55.9887 80.1263L55.0345 81.5914C54.9778 81.7083 54.884 81.8088 54.7639 81.8812C54.6438 81.9535 54.5023 81.9948 54.3562 82Z" fill="#DA1414"/>
</svg>
