<svg  viewBox="0 0 412 207" fill="none" xmlns="http://www.w3.org/2000/svg">
<circle opacity="0.2" cx="285.5" cy="79.5" r="79.5" fill="url(#paint0_radial_19689_151968)"/>
<circle opacity="0.6" cx="316.5" cy="38.5" r="16.5" transform="rotate(90 316.5 38.5)" fill="url(#paint1_radial_19689_151968)"/>
<circle opacity="0.2" cx="352.5" cy="145.5" r="52.5" fill="url(#paint2_radial_19689_151968)"/>
<circle opacity="0.2" cx="71.5" cy="92.5" r="52.5" fill="url(#paint3_radial_19689_151968)"/>
<g opacity="0.2">
<path opacity="0.4" d="M190.388 165.258H190.023V145.973H181.03C181.273 144.953 181.28 143.892 181.052 142.869C180.823 141.846 180.364 140.887 179.71 140.066C179.056 139.244 178.223 138.581 177.274 138.126C176.325 137.671 175.285 137.435 174.232 137.438H132.661C130.839 137.486 129.109 138.24 127.838 139.539C126.567 140.838 125.855 142.579 125.855 144.393C125.855 146.206 126.567 147.947 127.838 149.247C129.109 150.546 130.839 151.3 132.661 151.348H134.8C135.718 151.348 136.627 151.528 137.475 151.877C138.323 152.227 139.093 152.74 139.742 153.386C140.39 154.032 140.905 154.799 141.256 155.643C141.607 156.487 141.787 157.392 141.786 158.305C141.786 160.149 141.05 161.918 139.74 163.222C138.43 164.525 136.653 165.258 134.8 165.258H116.094C114.273 165.306 112.543 166.06 111.271 167.359C110 168.658 109.289 170.4 109.289 172.213C109.289 174.026 110 175.768 111.271 177.067C112.543 178.366 114.273 179.12 116.094 179.168H190.388C191.322 179.193 192.25 179.031 193.12 178.693C193.99 178.354 194.782 177.846 195.451 177.198C196.12 176.549 196.652 175.774 197.015 174.918C197.378 174.062 197.565 173.142 197.565 172.213C197.565 171.284 197.378 170.364 197.015 169.508C196.652 168.652 196.12 167.877 195.451 167.228C194.782 166.58 193.99 166.072 193.12 165.733C192.25 165.395 191.322 165.233 190.388 165.258Z" fill="black"/>
</g>
<g opacity="0.2">
<path opacity="0.4" d="M224.635 125.565H224.867V137.784H230.549C230.473 138.107 230.433 138.436 230.43 138.767C230.43 139.941 230.899 141.067 231.733 141.897C232.567 142.727 233.698 143.193 234.877 143.193H273.593C274.211 143.255 274.835 143.187 275.426 142.993C276.016 142.8 276.559 142.486 277.02 142.071C277.481 141.656 277.849 141.15 278.101 140.585C278.353 140.02 278.483 139.408 278.483 138.79C278.483 138.171 278.353 137.56 278.101 136.994C277.849 136.429 277.481 135.923 277.02 135.508C276.559 135.093 276.016 134.779 275.426 134.586C274.835 134.393 274.211 134.325 273.593 134.386H272.244C271.069 134.386 269.941 133.924 269.108 133.099C268.275 132.274 267.804 131.155 267.797 129.986C267.797 128.812 268.266 127.686 269.1 126.857C269.933 126.027 271.064 125.56 272.244 125.56H284.101C284.721 125.626 285.348 125.561 285.941 125.369C286.534 125.178 287.08 124.864 287.544 124.449C288.007 124.034 288.378 123.527 288.631 122.96C288.885 122.394 289.016 121.78 289.016 121.16C289.016 120.539 288.885 119.926 288.631 119.359C288.378 118.792 288.007 118.285 287.544 117.87C287.08 117.455 286.534 117.142 285.941 116.95C285.348 116.759 284.721 116.694 284.101 116.759H224.635C223.543 116.874 222.532 117.387 221.797 118.2C221.063 119.012 220.656 120.067 220.656 121.16C220.656 122.253 221.063 123.307 221.797 124.12C222.532 124.932 223.543 125.445 224.635 125.56V125.565Z" fill="black"/>
</g>
<path d="M244.309 114.8V172.329L238.311 168.395L232.279 172.329L226.246 168.395L220.214 172.329L214.181 168.395L208.148 172.329L202.116 168.395L196.083 172.329L190.055 168.395L184.023 172.329L177.99 168.395L171.957 172.329L165.93 168.395V103.983C165.93 103.079 166.29 102.211 166.932 101.572C167.574 100.932 168.445 100.572 169.354 100.57H230.011L244.309 114.8Z" fill="#F1F4F7"/>
<path d="M232.277 173.81C231.987 173.811 231.704 173.727 231.461 173.57L226.244 170.167L221.022 173.57C220.78 173.727 220.498 173.811 220.209 173.811C219.92 173.811 219.638 173.727 219.396 173.57L214.179 170.167L208.956 173.57C208.715 173.727 208.432 173.811 208.144 173.811C207.855 173.811 207.572 173.727 207.331 173.57L202.113 170.167L196.891 173.57C196.65 173.727 196.367 173.811 196.078 173.811C195.79 173.811 195.507 173.727 195.266 173.57L190.053 170.167L184.831 173.57C184.589 173.727 184.307 173.811 184.018 173.811C183.729 173.811 183.447 173.727 183.205 173.57L177.988 170.167L172.765 173.57C172.524 173.727 172.242 173.811 171.953 173.811C171.664 173.811 171.381 173.727 171.14 173.57L165.112 169.636C164.907 169.501 164.739 169.318 164.622 169.103C164.506 168.887 164.445 168.646 164.445 168.402V103.989C164.445 102.694 164.962 101.451 165.882 100.535C166.802 99.6184 168.05 99.1029 169.351 99.1016H230.009C230.402 99.1019 230.779 99.2575 231.056 99.5343L245.355 113.769C245.633 114.045 245.789 114.42 245.789 114.811V172.34C245.79 172.607 245.718 172.868 245.581 173.097C245.444 173.326 245.247 173.514 245.011 173.641C244.776 173.767 244.51 173.828 244.243 173.816C243.975 173.805 243.716 173.721 243.492 173.574L238.309 170.196L233.087 173.599C232.843 173.746 232.562 173.819 232.277 173.81ZM226.244 166.927C226.532 166.928 226.813 167.012 227.054 167.168L232.277 170.575L237.494 167.168C237.736 167.01 238.018 166.926 238.307 166.926C238.596 166.926 238.878 167.01 239.12 167.168L242.825 169.582V115.416L229.396 102.042H169.351C168.836 102.043 168.342 102.248 167.978 102.611C167.614 102.974 167.41 103.466 167.41 103.979V167.605L171.955 170.555L177.173 167.148C177.414 166.99 177.697 166.906 177.985 166.906C178.274 166.906 178.557 166.99 178.798 167.148L184.02 170.555L189.238 167.148C189.479 166.99 189.762 166.906 190.051 166.906C190.339 166.906 190.622 166.99 190.863 167.148L196.081 170.551L201.298 167.143C201.54 166.985 201.822 166.901 202.111 166.901C202.4 166.901 202.682 166.985 202.924 167.143L208.146 170.551L213.363 167.143C213.605 166.985 213.887 166.901 214.176 166.901C214.465 166.901 214.747 166.985 214.989 167.143L220.211 170.551L225.429 167.143C225.675 166.996 225.957 166.921 226.244 166.927Z" fill="black"/>
<path d="M238.311 176.898L244.309 180.832V202.137C244.308 203.042 243.946 203.908 243.303 204.547C242.661 205.186 241.789 205.545 240.881 205.545H169.354C168.445 205.545 167.575 205.186 166.932 204.547C166.29 203.908 165.93 203.041 165.93 202.137V176.898L171.957 180.832L177.99 176.898L184.023 180.832L190.055 176.898L196.083 180.832L202.116 176.898L208.148 180.832L214.181 176.898L220.214 180.832L226.246 176.898L232.279 180.832L238.311 176.898Z" fill="#F1F4F7"/>
<path d="M240.878 206.995H169.351C168.051 206.993 166.803 206.479 165.884 205.563C164.964 204.648 164.447 203.407 164.445 202.112V176.898C164.446 176.632 164.519 176.372 164.656 176.145C164.794 175.917 164.99 175.731 165.224 175.605C165.459 175.479 165.724 175.419 165.99 175.43C166.256 175.441 166.515 175.523 166.738 175.668L171.955 179.071L177.173 175.664C177.414 175.506 177.697 175.422 177.985 175.422C178.274 175.422 178.557 175.506 178.798 175.664L184.02 179.071L189.238 175.664C189.479 175.506 189.762 175.422 190.051 175.422C190.339 175.422 190.622 175.506 190.863 175.664L196.081 179.066L201.288 175.644C201.53 175.486 201.812 175.402 202.101 175.402C202.39 175.402 202.672 175.486 202.914 175.644L208.136 179.051L213.354 175.644C213.595 175.486 213.878 175.402 214.166 175.402C214.455 175.402 214.738 175.486 214.979 175.644L220.211 179.086L225.429 175.678C225.67 175.521 225.953 175.437 226.242 175.437C226.53 175.437 226.813 175.521 227.054 175.678L232.277 179.086L237.494 175.678C237.736 175.521 238.018 175.437 238.307 175.437C238.596 175.437 238.878 175.521 239.12 175.678L245.118 179.612C245.323 179.745 245.492 179.928 245.609 180.142C245.727 180.357 245.789 180.597 245.789 180.841V202.147C245.779 203.436 245.257 204.669 244.337 205.577C243.417 206.485 242.174 206.995 240.878 206.995ZM167.41 179.632V202.112C167.41 202.625 167.614 203.116 167.978 203.479C168.343 203.841 168.836 204.044 169.351 204.044H240.878C241.394 204.044 241.888 203.841 242.253 203.479C242.618 203.117 242.824 202.625 242.825 202.112V181.608L238.309 178.658L233.087 182.061C232.845 182.218 232.563 182.302 232.274 182.302C231.985 182.302 231.703 182.218 231.461 182.061L226.244 178.658L221.022 182.061C220.78 182.218 220.498 182.302 220.209 182.302C219.92 182.302 219.638 182.218 219.396 182.061L214.179 178.658L208.956 182.061C208.715 182.218 208.432 182.302 208.144 182.302C207.855 182.302 207.572 182.218 207.331 182.061L202.113 178.658L196.891 182.061C196.65 182.218 196.367 182.302 196.078 182.302C195.79 182.302 195.507 182.218 195.266 182.061L190.053 178.658L184.831 182.061C184.589 182.218 184.307 182.302 184.018 182.302C183.729 182.302 183.447 182.218 183.205 182.061L177.988 178.658L172.765 182.061C172.524 182.218 172.242 182.302 171.953 182.302C171.664 182.302 171.381 182.218 171.14 182.061L167.41 179.632Z" fill="black"/>
<path d="M244.308 116.276H233.438C232.138 116.269 230.894 115.751 229.974 114.836C229.055 113.921 228.535 112.683 228.527 111.389V100.571C228.528 100.28 228.615 99.995 228.778 99.7526C228.94 99.5103 229.172 99.3214 229.443 99.2099C229.713 99.0983 230.011 99.0691 230.298 99.1259C230.586 99.1827 230.85 99.323 231.057 99.5291L245.355 113.764C245.562 113.97 245.703 114.233 245.761 114.519C245.818 114.805 245.788 115.101 245.676 115.37C245.564 115.64 245.374 115.87 245.131 116.032C244.887 116.194 244.601 116.281 244.308 116.281V116.276ZM231.492 104.131V111.389C231.492 111.643 231.542 111.895 231.64 112.13C231.738 112.365 231.881 112.579 232.062 112.759C232.243 112.939 232.457 113.081 232.693 113.179C232.93 113.276 233.183 113.326 233.438 113.326H240.731L231.492 104.131Z" fill="black"/>
<path d="M245.362 113.765L243.266 115.852L243.304 115.89L245.4 113.804L245.362 113.765Z" fill="black"/>
<path d="M222.968 132.776C224.49 132.776 225.725 131.548 225.725 130.033C225.725 128.517 224.49 127.289 222.968 127.289C221.445 127.289 220.211 128.517 220.211 130.033C220.211 131.548 221.445 132.776 222.968 132.776Z" fill="black"/>
<path d="M222.97 134.246C222.131 134.246 221.312 133.999 220.614 133.535C219.917 133.072 219.374 132.413 219.053 131.642C218.732 130.871 218.648 130.023 218.812 129.204C218.975 128.386 219.379 127.634 219.972 127.044C220.565 126.454 221.32 126.052 222.143 125.89C222.965 125.727 223.817 125.81 224.592 126.13C225.366 126.449 226.029 126.99 226.494 127.684C226.96 128.377 227.209 129.193 227.209 130.027C227.209 131.146 226.762 132.219 225.967 133.011C225.172 133.802 224.094 134.246 222.97 134.246ZM222.97 128.759C222.718 128.759 222.471 128.833 222.261 128.973C222.052 129.112 221.888 129.31 221.792 129.542C221.695 129.774 221.67 130.029 221.719 130.275C221.769 130.521 221.89 130.747 222.068 130.924C222.247 131.102 222.474 131.223 222.721 131.272C222.968 131.321 223.225 131.295 223.457 131.199C223.69 131.103 223.889 130.941 224.029 130.732C224.17 130.524 224.244 130.278 224.244 130.027C224.244 129.691 224.11 129.368 223.871 129.13C223.632 128.892 223.308 128.759 222.97 128.759Z" fill="black"/>
<path d="M187.273 132.776C188.795 132.776 190.029 131.548 190.029 130.033C190.029 128.517 188.795 127.289 187.273 127.289C185.75 127.289 184.516 128.517 184.516 130.033C184.516 131.548 185.75 132.776 187.273 132.776Z" fill="black"/>
<path d="M187.267 134.246C186.428 134.246 185.608 133.999 184.911 133.535C184.214 133.072 183.671 132.413 183.35 131.642C183.029 130.871 182.945 130.023 183.109 129.204C183.272 128.386 183.676 127.634 184.269 127.044C184.862 126.454 185.617 126.052 186.44 125.89C187.262 125.727 188.114 125.81 188.889 126.13C189.663 126.449 190.325 126.99 190.791 127.684C191.257 128.377 191.506 129.193 191.506 130.027C191.506 131.146 191.059 132.219 190.264 133.011C189.469 133.802 188.391 134.246 187.267 134.246ZM187.267 128.759C187.014 128.759 186.768 128.833 186.558 128.973C186.349 129.112 186.185 129.31 186.089 129.542C185.992 129.774 185.967 130.029 186.016 130.275C186.065 130.521 186.187 130.747 186.365 130.924C186.543 131.102 186.771 131.223 187.018 131.272C187.265 131.321 187.521 131.295 187.754 131.199C187.987 131.103 188.186 130.941 188.326 130.732C188.466 130.524 188.541 130.278 188.541 130.027C188.54 129.691 188.405 129.369 188.166 129.132C187.928 128.894 187.604 128.76 187.267 128.759Z" fill="black"/>
<path d="M261.934 169.277C259.848 169.276 257.809 168.659 256.075 167.505C254.341 166.351 252.99 164.711 252.192 162.793C251.395 160.875 251.186 158.764 251.594 156.728C252.001 154.692 253.007 152.822 254.482 151.354C255.957 149.887 257.837 148.887 259.883 148.483C261.929 148.078 264.05 148.286 265.977 149.081C267.904 149.876 269.551 151.221 270.71 152.947C271.869 154.674 272.488 156.703 272.488 158.779C272.485 161.563 271.372 164.233 269.393 166.201C267.415 168.169 264.732 169.276 261.934 169.277ZM261.934 151.231C260.434 151.232 258.969 151.676 257.722 152.506C256.476 153.336 255.504 154.515 254.931 155.894C254.358 157.273 254.208 158.791 254.501 160.255C254.795 161.718 255.517 163.063 256.578 164.118C257.639 165.173 258.99 165.891 260.461 166.182C261.932 166.473 263.457 166.323 264.843 165.752C266.228 165.18 267.412 164.213 268.245 162.972C269.078 161.731 269.523 160.272 269.523 158.779C269.521 156.777 268.72 154.858 267.297 153.443C265.874 152.028 263.946 151.233 261.934 151.231Z" fill="black"/>
<path d="M214.946 154.605C214.706 154.605 214.473 154.534 214.275 154.401C214.078 154.269 213.926 154.081 213.84 153.862C213.165 152.154 211.977 150.685 210.434 149.65C208.89 148.614 207.062 148.06 205.19 148.06C203.319 148.06 201.491 148.614 199.947 149.65C198.403 150.685 197.216 152.154 196.541 153.862C196.428 154.149 196.203 154.381 195.916 154.505C195.628 154.63 195.302 154.638 195.009 154.527C194.715 154.417 194.479 154.196 194.352 153.915C194.224 153.634 194.216 153.315 194.329 153.028C195.176 150.882 196.667 149.037 198.606 147.736C200.544 146.435 202.84 145.738 205.19 145.738C207.541 145.738 209.837 146.435 211.775 147.736C213.714 149.037 215.205 150.882 216.052 153.028C216.108 153.17 216.134 153.321 216.131 153.473C216.127 153.626 216.092 153.776 216.029 153.915C215.966 154.054 215.876 154.18 215.763 154.285C215.65 154.39 215.517 154.472 215.372 154.527C215.236 154.578 215.091 154.605 214.946 154.605Z" fill="black"/>
<path d="M178.711 206.993H136.221C135.827 206.993 135.45 206.838 135.172 206.561C134.894 206.284 134.738 205.909 134.738 205.518C134.738 205.127 134.894 204.752 135.172 204.475C135.45 204.198 135.827 204.043 136.221 204.043H178.711C179.104 204.043 179.481 204.198 179.759 204.475C180.037 204.752 180.193 205.127 180.193 205.518C180.193 205.909 180.037 206.284 179.759 206.561C179.481 206.838 179.104 206.993 178.711 206.993Z" fill="black"/>
<path d="M256.749 206.993H250.326C249.933 206.993 249.556 206.838 249.278 206.561C249 206.284 248.844 205.909 248.844 205.518C248.844 205.127 249 204.752 249.278 204.475C249.556 204.198 249.933 204.043 250.326 204.043H256.749C257.142 204.043 257.519 204.198 257.797 204.475C258.075 204.752 258.231 205.127 258.231 205.518C258.231 205.909 258.075 206.284 257.797 206.561C257.519 206.838 257.142 206.993 256.749 206.993Z" fill="black"/>
<path d="M313.519 206.993H263.439C263.046 206.993 262.669 206.838 262.391 206.561C262.113 206.284 261.957 205.909 261.957 205.518C261.957 205.127 262.113 204.752 262.391 204.475C262.669 204.198 263.046 204.043 263.439 204.043H313.519C313.912 204.043 314.289 204.198 314.567 204.475C314.845 204.752 315.001 205.127 315.001 205.518C315.001 205.909 314.845 206.284 314.567 206.561C314.289 206.838 313.912 206.993 313.519 206.993Z" fill="black"/>
<path d="M130.33 206.993H98.4822C98.0891 206.993 97.7121 206.838 97.4341 206.561C97.1562 206.284 97 205.909 97 205.518C97 205.127 97.1562 204.752 97.4341 204.475C97.7121 204.198 98.0891 204.043 98.4822 204.043H130.33C130.723 204.043 131.1 204.198 131.378 204.475C131.656 204.752 131.812 205.127 131.812 205.518C131.812 205.909 131.656 206.284 131.378 206.561C131.1 206.838 130.723 206.993 130.33 206.993Z" fill="black"/>
<path d="M155.394 200.302H123.541C123.148 200.302 122.771 200.146 122.493 199.87C122.215 199.593 122.059 199.218 122.059 198.827C122.059 198.435 122.215 198.06 122.493 197.784C122.771 197.507 123.148 197.352 123.541 197.352H155.394C155.787 197.352 156.164 197.507 156.442 197.784C156.72 198.06 156.876 198.435 156.876 198.827C156.876 199.218 156.72 199.593 156.442 199.87C156.164 200.146 155.787 200.302 155.394 200.302Z" fill="black"/>
<path d="M125.696 178.775C125.403 178.775 125.116 178.688 124.873 178.526C124.629 178.364 124.44 178.134 124.328 177.864C124.215 177.595 124.186 177.298 124.243 177.012C124.3 176.726 124.441 176.464 124.648 176.257L132.717 168.228C132.997 167.967 133.369 167.826 133.753 167.832C134.137 167.839 134.504 167.994 134.775 168.264C135.047 168.534 135.202 168.899 135.209 169.281C135.216 169.663 135.073 170.033 134.811 170.313L126.743 178.342C126.465 178.619 126.089 178.775 125.696 178.775Z" fill="black"/>
<path d="M133.744 178.775C133.351 178.775 132.974 178.619 132.697 178.342L124.628 170.313C124.366 170.033 124.224 169.663 124.231 169.281C124.237 168.899 124.393 168.534 124.665 168.264C124.936 167.994 125.303 167.839 125.687 167.832C126.071 167.826 126.442 167.967 126.723 168.228L134.791 176.257C134.998 176.464 135.139 176.726 135.196 177.012C135.254 177.298 135.224 177.595 135.112 177.864C135 178.134 134.81 178.364 134.567 178.526C134.323 178.688 134.037 178.775 133.744 178.775Z" fill="black"/>
<path d="M295.518 200.302H256.748C256.355 200.302 255.978 200.146 255.7 199.87C255.422 199.593 255.266 199.218 255.266 198.827C255.266 198.435 255.422 198.06 255.7 197.784C255.978 197.507 256.355 197.352 256.748 197.352H295.518C295.911 197.352 296.288 197.507 296.566 197.784C296.844 198.06 297 198.435 297 198.827C297 199.218 296.844 199.593 296.566 199.87C296.288 200.146 295.911 200.302 295.518 200.302Z" fill="black"/>
<path d="M281.294 181.545C280.85 181.546 280.411 181.459 280.002 181.29C279.592 181.121 279.22 180.874 278.907 180.562L269.144 170.846C268.867 170.569 268.711 170.194 268.711 169.803C268.711 169.412 268.867 169.037 269.144 168.761L271.822 166.096C272.106 165.831 272.481 165.684 272.87 165.684C273.259 165.684 273.633 165.831 273.917 166.096L283.68 175.812C284.152 176.281 284.474 176.88 284.604 177.531C284.734 178.183 284.667 178.858 284.412 179.472C284.156 180.086 283.724 180.61 283.169 180.979C282.614 181.348 281.961 181.545 281.294 181.545ZM272.287 169.803L281.002 178.477C281.079 178.553 281.184 178.596 281.293 178.595C281.402 178.595 281.506 178.551 281.583 178.474C281.659 178.397 281.702 178.293 281.702 178.185C281.701 178.077 281.658 177.973 281.58 177.897L272.87 169.228L272.287 169.803Z" fill="black"/>
<path d="M269.471 164.043L267.375 166.129L270.621 169.359L272.717 167.273L269.471 164.043Z" fill="black"/>
<path d="M160.881 97.424C160.488 97.4237 160.111 97.2681 159.833 96.9913L147.437 84.6448C147.175 84.3651 147.033 83.9953 147.039 83.6131C147.046 83.231 147.202 82.8664 147.473 82.5961C147.745 82.3258 148.111 82.171 148.495 82.1643C148.879 82.1575 149.251 82.2994 149.532 82.56L161.933 94.9016C162.142 95.1077 162.284 95.3708 162.342 95.6576C162.4 95.9444 162.371 96.2419 162.259 96.5123C162.147 96.7827 161.956 97.0138 161.712 97.1761C161.467 97.3385 161.18 97.4248 160.886 97.424H160.881Z" fill="black"/>
<path d="M165.926 93.2053C165.627 93.2058 165.335 93.1164 165.088 92.9488C164.841 92.7812 164.651 92.5432 164.542 92.2661L158.149 76.0105C158.006 75.646 158.013 75.2398 158.171 74.8811C158.329 74.5223 158.623 74.2406 158.989 74.0978C159.355 73.955 159.764 73.9629 160.124 74.1196C160.484 74.2764 160.767 74.5692 160.911 74.9337L167.304 91.1942C167.446 91.5581 167.438 91.9633 167.28 92.3209C167.123 92.6785 166.83 92.9594 166.464 93.102C166.293 93.1695 166.11 93.2045 165.926 93.2053Z" fill="black"/>
<path d="M156.512 102.287C156.308 102.287 156.106 102.245 155.919 102.164L139.847 95.1673C139.668 95.0898 139.507 94.9781 139.372 94.8386C139.237 94.699 139.131 94.5344 139.059 94.3541C138.916 93.9898 138.924 93.5837 139.081 93.2251C139.238 92.8665 139.532 92.5847 139.898 92.4418C140.264 92.2989 140.672 92.3065 141.032 92.463L157.105 99.4599C157.417 99.5953 157.673 99.8337 157.829 100.135C157.985 100.436 158.033 100.782 157.963 101.113C157.894 101.445 157.711 101.743 157.447 101.957C157.183 102.171 156.852 102.287 156.512 102.287Z" fill="black"/>
<defs>
<radialGradient id="paint0_radial_19689_151968" cx="0" cy="0" r="1" gradientUnits="userSpaceOnUse" gradientTransform="translate(245.63 39.1495) rotate(48.8616) scale(136.176)">
<stop stop-color="#2EFED9"/>
<stop offset="1" stop-color="#98C7FF"/>
</radialGradient>
<radialGradient id="paint1_radial_19689_151968" cx="0" cy="0" r="1" gradientUnits="userSpaceOnUse" gradientTransform="translate(308.225 30.1254) rotate(48.8616) scale(28.263)">
<stop stop-color="#EBF3FF"/>
<stop offset="1" stop-color="white"/>
</radialGradient>
<radialGradient id="paint2_radial_19689_151968" cx="0" cy="0" r="1" gradientUnits="userSpaceOnUse" gradientTransform="translate(326.171 118.853) rotate(48.8616) scale(89.9277)">
<stop stop-color="#2EFED9"/>
<stop offset="1" stop-color="#98C7FF"/>
</radialGradient>
<radialGradient id="paint3_radial_19689_151968" cx="0" cy="0" r="1" gradientUnits="userSpaceOnUse" gradientTransform="translate(45.1707 65.8535) rotate(48.8616) scale(89.9277)">
<stop stop-color="#2EFED9"/>
<stop offset="1" stop-color="#98C7FF" stop-opacity="0.6"/>
</radialGradient>
</defs>
</svg>
