<svg width="138" height="88" viewBox="0 0 138 88" fill="none" xmlns="http://www.w3.org/2000/svg">
<path d="M86.4946 87.9952C58.049 87.9952 34.9892 85.8434 34.9892 83.189C34.9892 80.5346 58.049 78.3828 86.4946 78.3828C114.94 78.3828 138 80.5346 138 83.189C138 85.8434 114.94 87.9952 86.4946 87.9952Z" fill="#EBF3FF"/>
<path d="M80.5723 83.1797H94.6533C95.1843 83.1797 95.6935 82.9793 96.069 82.6226C96.4444 82.2659 96.6553 81.7821 96.6553 81.2776V57.964H78.5703V81.2818C78.5715 81.7856 78.7829 82.2683 79.1583 82.6241C79.5336 82.9799 80.0421 83.1797 80.5723 83.1797Z" fill="#0074FF"/>
<path opacity="0.2" d="M78.5679 57.9688H96.6484V68.0864L78.5679 64.3629V57.9688Z" fill="#151617"/>
<path d="M70.7891 27.3845C70.7891 20.966 68.1054 14.8104 63.3285 10.2719C58.5516 5.73333 52.0727 3.18359 45.3172 3.18359C38.5616 3.18359 32.0827 5.73333 27.3058 10.2719C22.5289 14.8104 19.8453 20.966 19.8453 27.3845V57.9541H70.7891V27.3845Z" fill="#0074FF"/>
<path opacity="0.6" d="M70.7891 27.3845C70.7891 20.966 68.1054 14.8104 63.3285 10.2719C58.5516 5.73333 52.0727 3.18359 45.3172 3.18359C38.5616 3.18359 32.0827 5.73333 27.3058 10.2719C22.5289 14.8104 19.8453 20.966 19.8453 27.3845V57.9541H70.7891V27.3845Z" fill="#151617"/>
<path d="M130.758 27.3767V54.953C130.758 55.3492 130.676 55.7416 130.516 56.1076C130.356 56.4736 130.122 56.8061 129.827 57.0861C129.532 57.366 129.182 57.588 128.796 57.7393C128.411 57.8905 127.998 57.9681 127.581 57.9675H70.7917V27.3767C70.7917 20.9582 68.108 14.8026 63.3311 10.2641C58.5542 5.72551 52.0753 3.17578 45.3198 3.17578H105.286C112.042 3.17578 118.52 5.72551 123.297 10.2641C128.074 14.8026 130.758 20.9582 130.758 27.3767Z" fill="#0074FF"/>
<path opacity="0.2" d="M130.755 48.9375L70.7891 48.9375V40.446L130.755 40.446V48.9375Z" fill="#151617"/>
<path opacity="0.2" d="M130.755 37.8047L70.7891 37.8047V29.3131L130.755 29.3131V37.8047Z" fill="#151617"/>
<path d="M101.428 35.3338V0.943003C101.428 0.805892 101.46 0.670418 101.52 0.546031C101.581 0.421643 101.669 0.311339 101.78 0.22281C101.89 0.13428 102.019 0.0696608 102.158 0.033455C102.297 -0.00275076 102.443 -0.00966816 102.586 0.0131837L115.219 1.98747V6.96776H105.562V35.2574C106.537 35.683 107.331 36.4103 107.815 37.3205C108.299 38.2307 108.443 39.2698 108.225 40.2681C108.006 41.2663 107.438 42.1646 106.612 42.8161C105.787 43.4676 104.753 43.8338 103.68 43.8547C102.607 43.8756 101.558 43.5501 100.705 42.9314C99.8524 42.3127 99.2456 41.4373 98.9841 40.4484C98.7227 39.4595 98.822 38.4156 99.266 37.4873C99.7099 36.5591 100.472 35.8013 101.428 35.338V35.3338Z" fill="#FF9039"/>
<path d="M67.1649 61.4221H1.81391C1.33699 61.4232 0.878845 61.2455 0.539101 60.9275C0.199364 60.6095 0.00547791 60.1769 -0.000411987 59.7238C-0.000411987 59.2666 0.190742 58.8282 0.530991 58.5049C0.871239 58.1816 1.33273 58 1.81391 58H70.7891C70.7832 58.9095 70.3987 59.7799 69.7197 60.4211C69.0407 61.0622 68.1222 61.4221 67.1649 61.4221Z" fill="#0074FF"/>
<path opacity="0.2" d="M67.1649 61.4221H40.4597C39.9827 61.4232 39.5246 61.2455 39.1849 60.9275C38.8451 60.6095 38.6512 60.1769 38.6453 59.7238C38.6453 59.2666 38.8365 58.8282 39.1767 58.5049C39.517 58.1816 39.9785 58 40.4597 58H70.7891C70.7832 58.9095 70.3987 59.7799 69.7197 60.4211C69.0407 61.0622 68.1222 61.4221 67.1649 61.4221Z" fill="#151617"/>
</svg>
