<svg xmlns="http://www.w3.org/2000/svg" width="24" height="24" fill="none" viewBox="0 0 24 24">
    <path fill="#151617" d="M21.989 6.32c-.004-.043-.013-.083-.025-.124-.013-.041-.028-.079-.048-.116-.009-.016-.01-.036-.021-.053l-2.5-3.75c-.116-.172-.311-.277-.52-.277H5.125c-.209 0-.404.105-.52.279l-2.5 3.75c-.011.016-.013.035-.021.052-.02.038-.035.075-.048.116-.012.042-.021.082-.025.124C2.01 6.34 2 6.355 2 6.375V20.75c0 .69.561 1.25 1.25 1.25h17.5c.689 0 1.25-.56 1.25-1.25V6.375c0-.02-.009-.036-.011-.055zM18.54 3.25l1.668 2.5h-5.803l-.417-2.5h4.552zm-7.261 0h1.441l.417 2.5h-2.274l.416-2.5zM10.75 7h2.5v2.259l-1.053-.353c-.128-.041-.267-.041-.394 0l-1.053.353V7zM5.46 3.25h4.552l-.417 2.5H3.792l1.668-2.5zm15.29 18.125v-.625H3.25V7H9.5v3.125c0 .201.096.39.26.506.162.119.371.146.563.088l1.677-.56 1.678.558c.064.022.13.033.197.033.13 0 .258-.04.365-.119.164-.116.26-.305.26-.506V7h6.25v13.75h.001l-.001.625z"/>
    <path fill="#151617" d="M8.875 15.75h-3.75c-.345 0-.625.28-.625.625s.28.625.625.625h3.75c.345 0 .625-.28.625-.625s-.28-.625-.625-.625zM7 18.25H5.125c-.345 0-.625.28-.625.625s.28.625.625.625H7c.345 0 .625-.28.625-.625s-.28-.625-.625-.625z"/>
</svg>
