<svg xmlns="http://www.w3.org/2000/svg" width="20" height="20" fill="none" viewBox="0 0 20 20">
    <g clip-path="url(#clip0)">
        <path fill="#013B81" d="M14.635 7.74l3.013 1.107-2.506 6.823c-.234.641-1.506 2.65-2.391 3.059l-.215.586c-.055.149-.196.242-.345.242-.042 0-.085-.008-.127-.023-.19-.07-.288-.28-.218-.472l.203-.554c-.449-.873-.114-3.409.083-3.945l2.503-6.823zm4.36-7.219c-.828-.303-1.798.324-2.075 1.081l-1.815 4.945 3.012 1.105 1.813-4.944c.228-.619-.104-1.883-.934-2.187zm-5.451 6.964c.084.031.171.046.255.046.299 0 .58-.183.69-.48l1.915-5.165c.141-.38-.053-.804-.434-.944-.384-.14-.804.053-.945.434L13.11 6.54c-.141.38.053.803.434.944zM10.46 17.17c-.198-.187-.444-.42-.842-.597-.329-.147-.648-.154-.882-.16h-.08c-.147-.4-.443-.652-.888-.751-.588-.124-1.058.153-1.384.367.029-.164.077-.36.112-.5.112-.453.228-.922.142-1.361-.068-.348-.361-.605-.714-.63-.91-.051-1.655.439-2.31.882-.69.465-1.131.742-1.57.585-.536-.19-.59-1.642-.332-2.935.23-1.164.66-3.332 1.759-4.317.37-.332.907-.69 1.347-.516.519.203.947 1.057 1.042 2.074.04.429.415.744.852.705.43-.04.745-.422.705-.852-.155-1.657-.932-2.953-2.027-3.383-.656-.255-1.699-.324-2.962.807C1.054 7.82.546 9.907.177 11.766c-.184.929-.633 4.01 1.342 4.713 1.204.429 2.182-.233 2.968-.763.143-.097.285-.192.422-.278-.13.567-.211 1.174.13 1.685.511.767 1.233.851 2.144.25l.114-.075c.085.177.234.371.505.504.328.161.657.169.896.175.102.003.242.006.284.024.147.065.234.145.403.304.127.12.26.244.43.372.14.106.305.156.467.156.238 0 .473-.109.626-.313.259-.345.189-.835-.157-1.094-.113-.087-.203-.174-.29-.256z"/>
    </g>
    <defs>
        <clipPath id="clip0">
            <path fill="#fff" d="M0 0H20V20H0z"/>
        </clipPath>
    </defs>
</svg>
