<svg xmlns="http://www.w3.org/2000/svg" width="24" height="24" fill="none" viewBox="0 0 24 24">
    <g clip-path="url(#clip0)">
        <path fill="#5B5C5D" d="M19.032 15.515h-3.516v-.703c0-.879-.54-1.633-1.306-1.95.267-1.598.694-3.094 2.07-5.506.42-.739.643-1.58.643-2.435 0-2.723-2.21-4.941-4.97-4.92C9.506.017 7.582 1.804 7.17 3.957c-.254 1.332.024 2.669.782 3.763 1.04 1.502 1.542 3.358 1.839 5.14-.766.317-1.306 1.072-1.306 1.951v.703H4.969c-1.939 0-3.516 1.577-3.516 3.516v1.453c0 .388.315.703.703.703h.703v.703c0 1.164.947 2.11 2.11 2.11h14.063c1.163 0 2.11-.946 2.11-2.11v-.703h.703c.388 0 .703-.315.703-.703v-1.453c0-1.939-1.577-3.516-3.516-3.516zM9.108 6.92c-.541-.781-.74-1.74-.556-2.698.286-1.502 1.665-2.838 3.495-2.817 1.928.02 3.47 1.6 3.47 3.516 0 .61-.16 1.212-.46 1.738-1.468 2.576-1.94 4.206-2.246 6.044H11.19c-.339-2.034-.895-4.07-2.082-5.783zm5.002 7.892v.703H9.891v-.703c0-.388.316-.703.703-.703h2.813c.388 0 .703.315.703.703zm5.625 7.079c0 .387-.315.703-.703.703H4.97c-.388 0-.703-.316-.703-.704v-.703h15.47v.703zm1.407-2.11H2.86v-.75c0-1.163.946-2.11 2.109-2.11h14.063c1.163 0 2.11.947 2.11 2.11v.75z"/>
    </g>
    <defs>
        <clipPath id="clip0">
            <path fill="#fff" d="M0 0H24V24H0z"/>
        </clipPath>
    </defs>
</svg>
