<svg width="26" height="43" viewBox="0 0 26 43" fill="none" xmlns="http://www.w3.org/2000/svg">
<path d="M6.71522 41.898C7.05476 42.3336 7.68312 42.4114 8.1187 42.0719L15.2169 36.5388C15.6525 36.1992 15.7303 35.5709 15.3908 35.1353C15.0513 34.6997 14.4229 34.6218 13.9873 34.9614L7.6778 39.8797L2.75946 33.5702C2.41992 33.1346 1.79156 33.0568 1.35598 33.3963C0.920399 33.7359 0.842543 34.3642 1.18208 34.7998L6.71522 41.898ZM25.0607 0.28511C20.6089 0.0145531 17.0303 -0.069355 14.1759 0.0595398C11.333 0.187912 9.14249 0.529396 7.50136 1.1475C5.83256 1.77602 4.6774 2.71336 4.0235 4.03615C3.38882 5.32003 3.29779 6.82816 3.44497 8.45799C3.59248 10.0914 3.9947 11.982 4.46202 14.0879C4.93371 16.2133 5.48051 18.5938 5.94834 21.2818C6.88172 26.6447 7.49627 33.2123 6.5115 41.1602L8.49632 41.4062C9.51155 33.2125 8.87609 26.4396 7.91872 20.9389C7.44118 18.1951 6.88243 15.763 6.41452 13.6546C5.94226 11.5265 5.57085 9.76182 5.43686 8.27811C5.30255 6.79082 5.42215 5.71995 5.81639 4.92245C6.1914 4.16383 6.88345 3.51737 8.20628 3.01915C9.55679 2.51051 11.5024 2.1823 14.2661 2.0575C17.0184 1.93322 20.5171 2.01266 24.9393 2.28143L25.0607 0.28511Z" fill="url(#paint0_linear_757_20931)"/>
<defs>
<linearGradient id="paint0_linear_757_20931" x1="4.3839" y1="1.00023" x2="27.5454" y2="2.52122" gradientUnits="userSpaceOnUse">
<stop stop-color="#0065F2"/>
<stop offset="1" stop-color="#7298FF"/>
</linearGradient>
</defs>
</svg>
