<svg width="97" height="67" viewBox="0 0 97 67" fill="none" xmlns="http://www.w3.org/2000/svg">
<path d="M64.7468 2C65.2991 2 65.7468 1.55229 65.7468 1C65.7468 0.44772 65.2991 2.5034e-06 64.7468 0L64.7468 2ZM96.1872 64.9823C96.7298 64.8789 97.0857 64.3553 96.9823 63.8128L95.2972 54.9719C95.1938 54.4294 94.6702 54.0734 94.1277 54.1768C93.5852 54.2802 93.2292 54.8039 93.3326 55.3464L94.8305 63.2049L86.9719 64.7028C86.4294 64.8062 86.0734 65.3298 86.1768 65.8723C86.2802 66.4148 86.8039 66.7708 87.3464 66.6674L96.1872 64.9823ZM64.7468 0C47.8662 -7.70092e-05 34.843 0.420437 25.0856 1.22986C15.3583 2.03677 8.78045 3.23636 4.8555 4.84223C2.90093 5.64194 1.46147 6.59816 0.672128 7.78919C-0.170004 9.05989 -0.180703 10.4536 0.419012 11.8186C0.992436 13.1237 2.12551 14.4245 3.61265 15.72C5.11423 17.028 7.05164 18.394 9.3306 19.8133C18.4159 25.4717 33.3966 32.2557 49.3116 39.8319C65.2762 47.4317 82.2356 55.8518 95.4378 64.827L96.5622 63.173C83.2178 54.1012 66.1291 45.6227 50.1712 38.0261C34.1637 30.4058 19.3473 23.6956 10.3879 18.1157C8.15569 16.7254 6.31645 15.4228 4.92632 14.2119C3.52175 12.9884 2.64806 11.9199 2.25008 11.0141C1.87839 10.1681 1.93165 9.50909 2.33925 8.89405C2.79965 8.19934 3.79571 7.43677 5.61286 6.69329C9.23136 5.21279 15.5418 4.02842 25.2509 3.22301C34.9299 2.4201 47.8913 1.99992 64.7468 2L64.7468 0Z" fill="url(#paint0_linear_757_20953)"/>
<defs>
<linearGradient id="paint0_linear_757_20953" x1="96" y1="64" x2="-7.32165" y2="44.0084" gradientUnits="userSpaceOnUse">
<stop stop-color="#0065F2"/>
<stop offset="1" stop-color="#7298FF"/>
</linearGradient>
</defs>
</svg>
