<svg width="408" height="240" viewBox="0 0 408 240" fill="none" xmlns="http://www.w3.org/2000/svg">
    <g clip-path="url(#a)">
        <path d="m394.126 239.39-4.789-.162H15.173c-10.542.021-28.093-107.791 0-150.824C43.266 45.37 130.322 38.899 179.235 43.9c48.914 5.001 41.443-25.51 90.907-27.625a113.63 113.63 0 0 1 12.478.127c1.266.082 2.508.185 3.732.312 38.081 3.945 56.634 28.293 80.085 49.786 29.758 27.282 29.074 49.361 25.377 60.33-2.025 5.995-9.95 12.683-9.006 22.949.105 1.127.308 2.243.605 3.335 1.44 5.389 5.363 11.703 13.487 19.275 26.506 24.691-2.774 67.001-2.774 67.001z" fill="url(#b)"/>
        <path d="M85.699 71.412h-72.81a.662.662 0 0 0-.663.668v45.755a.667.667 0 0 0 .664.665h72.809a.66.66 0 0 0 .684-.665V72.081a.686.686 0 0 0-.684-.669z" fill="url(#c)"/>
        <path d="M85.338 116.783V75.755a.53.53 0 0 0-.51-.514H13.767a.527.527 0 0 0-.527.514v41.028a.53.53 0 0 0 .527.528h71.061a.527.527 0 0 0 .51-.528z" fill="#F0F8FF"/>
        <path d="M83.923 74.267a.936.936 0 0 0 .919-1.122.939.939 0 0 0-1.278-.685.937.937 0 0 0-.578.868.94.94 0 0 0 .937.94zM80.82 74.267a.936.936 0 0 0 .92-1.122.94.94 0 0 0-.737-.738.936.936 0 0 0-1.12.92.94.94 0 0 0 .938.94zM78.67 73.328a.945.945 0 0 1-1.121.929.935.935 0 0 1-.757-.879.941.941 0 0 1 .073-.407.921.921 0 0 1 1.713-.003c.046.109.07.225.072.343l.02.017z" fill="#BDD0FB"/>
        <path d="M23.413 82.772a3.81 3.81 0 0 1-.856 2.416 3.796 3.796 0 0 1-4.723.953 3.812 3.812 0 0 1-.33-6.52 3.79 3.79 0 0 1 4.794.467 3.82 3.82 0 0 1 1.115 2.684z" fill="url(#d)"/>
        <path d="M81.751 78.998H25.162v1.796h56.59v-1.796zM63.68 81.874H25.163v1.796h38.519v-1.796zM45.193 84.928h-20.03v1.796h20.03v-1.796z" fill="#BDD0FB"/>
        <path d="M23.414 94.886c.002.88-.3 1.733-.855 2.415a3.792 3.792 0 0 1-4.72.952 3.81 3.81 0 0 1-.329-6.515 3.788 3.788 0 0 1 4.792.47 3.773 3.773 0 0 1 1.112 2.691v-.013z" fill="#739AF0"/>
        <path d="M81.751 91.111H25.162v1.783h56.59V91.11zM63.68 93.987H25.163v1.797h38.519v-1.797zM45.193 97.038h-20.03v1.8h20.03v-1.8z" fill="#BDD0FB"/>
        <path d="M23.413 107a3.81 3.81 0 0 1-3.054 3.734 3.796 3.796 0 0 1-4.25-2.275 3.813 3.813 0 0 1 1.398-4.62 3.789 3.789 0 0 1 4.795.473c.71.713 1.11 1.68 1.111 2.688z" fill="url(#e)"/>
        <path d="M81.751 103.226H25.162v1.796h56.59v-1.796zM63.68 106.102H25.163v1.799h38.519v-1.799zM45.193 109.152h-20.03v1.8h20.03v-1.8z" fill="#BDD0FB"/>
        <path d="M89.877 67.374H8.147v55.624h81.73V67.374z" stroke="url(#f)" stroke-miterlimit="10"/>
        <path d="M9.748 65.77H6.546v3.205h3.202v-3.206z" fill="url(#g)"/>
        <path d="M9.748 121.396H6.546v3.206h3.202v-3.206z" fill="url(#h)"/>
        <path d="M91.478 65.77H88.28v3.205h3.198v-3.206z" fill="url(#i)"/>
        <path d="M201.945 96.21h-27.07a.975.975 0 0 1-.37-.073.909.909 0 0 1-.308-.209.948.948 0 0 1-.28-.685V75.869a.961.961 0 0 1 .28-.68.938.938 0 0 1 .678-.277h11.003a.947.947 0 0 1 .684.278l1.789 1.793a.933.933 0 0 0 .685.28h12.926a.932.932 0 0 1 .684.282.954.954 0 0 1 .28.685v17.026a.944.944 0 0 1-.28.686.907.907 0 0 1-.308.21.968.968 0 0 1-.366.071l-.027-.014z" fill="url(#j)"/>
        <path d="M199.492 63.545v24.399h-22.993v-28.04h19.36l3.633 3.64z" fill="#BDD0FB"/>
        <path d="M195.858 63.545v-3.64l3.629 3.64h-3.629z" fill="#BDD0FB"/>
        <path d="M200.913 64.824V89.22h-22.982V61.184h19.346l3.636 3.64z" fill="#F0F8FF"/>
        <path d="M202.959 96.209h-27.066a.96.96 0 0 1-.955-.96V78.62a.96.96 0 0 1 .955-.956h11.003a.966.966 0 0 1 .684.278l1.786 1.796c.182.18.428.28.684.278h12.926a.966.966 0 0 1 .958.963v14.27a.963.963 0 0 1-.075.367.95.95 0 0 1-.9.593z" fill="url(#k)"/>
        <path d="M197.281 64.824v-3.64l3.632 3.64h-3.632zM196.314 62.784H178.91v.95h17.404v-.95zM199.873 66.353h-20.899v.6h20.899v-.6zM199.873 68.049h-20.899v.596h20.899v-.596zM196.151 69.74h-17.177v.596h17.177v-.597zM196.151 71.433h-17.177v.596h17.177v-.596zM190.587 73.123h-11.63v.596h11.63v-.596zM190.587 74.815h-11.63v.597h11.63v-.597z" fill="#BDD0FB"/>
        <path d="M71.253 167.223h-55.86a.657.657 0 0 0-.62.424.668.668 0 0 0-.044.261v38.447a.668.668 0 0 0 .405.633c.082.035.17.052.258.052h55.861a.681.681 0 0 0 .667-.685v-38.464a.688.688 0 0 0-.667-.668z" fill="url(#l)"/>
        <path d="M71.054 205.587v-34.703a.422.422 0 0 0-.425-.425H16.028a.427.427 0 0 0-.424.425v34.703a.428.428 0 0 0 .424.426H70.63a.423.423 0 0 0 .424-.426z" fill="#fff"/>
        <path d="M51.309 190.268a8.27 8.27 0 0 0-3.058-8.645 8.228 8.228 0 0 0-12.362 3.064 8.272 8.272 0 0 0 1.317 9.077 8.238 8.238 0 0 0 7.304 2.644 8.22 8.22 0 0 0 5.417-3.232 8.26 8.26 0 0 0 1.382-2.908z" fill="url(#m)"/>
        <path d="m48.148 188.239-3.81 2.204-3.814 2.201v-8.82l3.814 2.208 3.81 2.207z" fill="#F0F8FF"/>
        <path d="M71.055 202.286H15.608v1.097h55.447v-1.097z" fill="#BDD0FB"/>
        <path d="M28.1 202.286H15.608v1.097H28.1v-1.097z" fill="url(#n)"/>
        <path d="M28.095 203.676a.835.835 0 0 0 .822-1.004.842.842 0 0 0-.659-.66.836.836 0 0 0-1.001.824.841.841 0 0 0 .838.84z" fill="url(#o)"/>
        <path d="M74.978 164.584h-63.28v45.799h63.28v-45.799z" stroke="url(#p)" stroke-miterlimit="10"/>
        <path d="M12.922 163.34h-2.48v2.485h2.48v-2.485z" fill="url(#q)"/>
        <path d="M12.922 209.14h-2.48v2.488h2.48v-2.488z" fill="url(#r)"/>
        <path d="M76.218 209.14h-2.48v2.488h2.48v-2.488z" fill="url(#s)"/>
        <path d="M194.814 97.893H57.607a1.367 1.367 0 0 0-1.368 1.37v79.16a1.372 1.372 0 0 0 1.368 1.371h137.207a1.37 1.37 0 0 0 1.369-1.371V99.277a1.389 1.389 0 0 0-.396-.978 1.365 1.365 0 0 0-.973-.406z" fill="url(#t)"/>
        <path d="M194.265 176.716v-70.761a.835.835 0 0 0-.515-.773.838.838 0 0 0-.32-.064H59.004a.844.844 0 0 0-.604.238.837.837 0 0 0-.251.599v70.761a.843.843 0 0 0 .244.591.828.828 0 0 0 .59.245H193.41a.829.829 0 0 0 .603-.238.852.852 0 0 0 .187-.273.845.845 0 0 0 .065-.325z" fill="#F0F8FF"/>
        <path d="M91.478 121.396H88.28v3.206h3.198v-3.206z" fill="url(#u)"/>
        <path d="M70.655 168.845a.795.795 0 0 1-.958.795.8.8 0 0 1-.41-.23.784.784 0 0 1-.192-.418.793.793 0 0 1 .343-.819.795.795 0 0 1 1.238.661l-.02.011zM68.028 168.845a.79.79 0 0 1-.134.442.809.809 0 0 1-.342.295.797.797 0 0 1-1.04-1.042.749.749 0 0 1 .295-.343.793.793 0 0 1 1.235.661l-.014-.013zM65.408 168.845a.783.783 0 0 1-.134.439.795.795 0 0 1-.342.295.795.795 0 0 1-1.08-.58.81.81 0 0 1 .339-.816.793.793 0 0 1 1.23.662h-.013z" fill="#fff"/>
        <path d="M76.218 163.34h-2.48v2.485h2.48v-2.485z" fill="url(#v)"/>
        <path d="M193.366 101.508a1.776 1.776 0 0 1-3.027 1.258 1.783 1.783 0 0 1-.482-1.601 1.777 1.777 0 0 1 1.059-1.292 1.766 1.766 0 0 1 1.66.162 1.78 1.78 0 0 1 .79 1.473zM187.506 101.509a1.78 1.78 0 0 1-1.6 1.763 1.77 1.77 0 0 1-1.91-1.42 1.794 1.794 0 0 1 .099-1.029 1.767 1.767 0 0 1 3.031-.462c.26.325.398.731.39 1.148h-.01zM181.629 101.509a1.779 1.779 0 0 1-1.6 1.763 1.77 1.77 0 0 1-1.91-1.42 1.794 1.794 0 0 1 .1-1.029 1.767 1.767 0 0 1 3.03-.462c.261.325.399.731.39 1.148h-.01z" fill="#BDD0FB"/>
        <path d="M113.394 109.163H61.669v37.206h51.725v-37.206z" stroke="url(#w)" stroke-miterlimit="10"/>
        <path d="M119.444 115.176H67.726v37.195h51.718v-37.195z" fill="#739AF0"/>
        <path d="M116.096 149.385H70.945l14.226-26.888 10.689 18.48 7.245-7.669 12.991 16.077zM97.993 128.406a4.41 4.41 0 0 0 4.08-2.732 4.436 4.436 0 0 0-.958-4.822 4.403 4.403 0 0 0-4.812-.959 4.415 4.415 0 0 0-1.982 1.629 4.435 4.435 0 0 0 .55 5.588 4.41 4.41 0 0 0 3.122 1.296z" stroke="#fff" stroke-width="2" stroke-linecap="round" stroke-linejoin="round"/>
        <path d="M189.817 109.738h-64.429v3.97h64.429v-3.97zM143.903 117.05h-18.515v1.985h18.515v-1.985zM153.945 117.05h-7.525v1.985h7.525v-1.985zM176.55 117.05h-19.719v1.985h19.719v-1.985zM189.839 117.05h-11.732v1.985h11.732v-1.985zM149.797 121.997h-24.409v1.985h24.409v-1.985zM161.999 121.997H152.5v1.985h9.499v-1.985zM173.662 121.997h-9.498v1.985h9.498v-1.985zM187.188 121.997h-12.057v1.985h12.057v-1.985zM132.181 126.943h-6.793v1.985h6.793v-1.985zM169.453 126.943h-12.204v1.985h12.204v-1.985zM155.203 126.943h-21.461v1.985h21.461v-1.985zM140.778 131.893h-15.392v1.984h15.392v-1.984zM148.59 131.893h-5.168v1.984h5.168v-1.984zM161.157 131.893h-10.162v1.984h10.162v-1.984zM131.278 136.84h-5.89v1.988h5.89v-1.988zM146.428 136.84h-12.926v1.988h12.926v-1.988zM119.442 156.31H61.669v17.221h57.773V156.31z" fill="#BDD0FB"/>
        <path d="M74.175 157.492H63.209v10.219h10.966v-10.219zM74.175 169.229H63.209v3.037h10.966v-3.037zM88.14 162.044H77.172v10.218h10.966v-10.218zM88.14 157.492H77.172v3.037h10.966v-3.037zM103.193 157.492H92.231v10.219h10.962v-10.219zM103.193 169.229H92.231v3.037h10.962v-3.037zM117.171 162.044h-10.966v10.218h10.966v-10.218zM117.171 157.492h-10.966v3.037h10.966v-3.037z" fill="#fff"/>
        <path d="M127.356 142.375h63.779a.614.614 0 0 1 .441.182.617.617 0 0 1 .181.442v2.934h-65.034v-2.934a.582.582 0 0 1 .048-.24.604.604 0 0 1 .342-.339.631.631 0 0 1 .243-.045z" fill="url(#x)"/>
        <path d="M191.104 145.247v26.981a1.136 1.136 0 0 1-1.122 1.124h-61.477a1.122 1.122 0 0 1-.792-.33 1.131 1.131 0 0 1-.33-.794v-26.981h63.721zm.657-.654h-65.038v27.645c.001.236.047.469.137.686a1.77 1.77 0 0 0 1.645 1.097h61.477a1.782 1.782 0 0 0 1.261-.52 1.785 1.785 0 0 0 .521-1.263v-27.645h-.003z" fill="url(#y)"/>
        <path d="M137.163 148.13h-8.171v23.652h8.171V148.13zM188.916 148.13h-39.534v23.652h39.534V148.13z" fill="#BDD0FB"/>
        <path d="M186.98 149.385h-35.491v2.399h35.491v-2.399zM186.98 153.252h-35.491v1.207h35.491v-1.207z" fill="#fff"/>
        <path d="M147.082 153.252h-8.192v2.821h8.192v-2.821z" fill="#BDD0FB"/>
        <path d="M159.123 155.545h-7.634v14.476h7.634v-14.476zM177.867 155.545h-7.634v14.476h7.634v-14.476zM169.078 170.343h-8.288v-15.127h8.288v15.127zm-7.631-.665h6.978v-13.814h-6.978v13.814zM187.307 170.343h-8.288v-15.127h8.288v15.127zm-7.635-.665h6.982v-13.814h-6.982v13.814z" fill="#fff"/>
        <path d="M147.082 158.366h-8.192v2.825h8.192v-2.825zM147.082 163.483h-8.192v2.822h8.192v-2.822zM147.082 168.602h-8.192v2.821h8.192v-2.821z" fill="#BDD0FB"/>
        <path d="M144.345 216.982h-32.362a1.17 1.17 0 0 1-.444-.09 1.097 1.097 0 0 1-.373-.253 1.133 1.133 0 0 1-.339-.819v-36.027h34.681v36.016a1.164 1.164 0 0 1-1.163 1.173z" fill="#fff"/>
        <path d="M144.903 180.4v35.409a.555.555 0 0 1-.554.556h-32.365a.558.558 0 0 1-.55-.556V180.4h33.469zm.606-.607h-34.684v36.016c0 .152.03.302.089.442a1.1 1.1 0 0 0 .253.388 1.155 1.155 0 0 0 .817.343h32.362a1.164 1.164 0 0 0 1.156-1.162v-36.027h.007z" fill="url(#z)"/>
        <path d="M111.977 175.434h32.369a1.16 1.16 0 0 1 1.069.717c.058.141.087.292.087.445v3.198h-34.677v-3.205a1.16 1.16 0 0 1 1.156-1.155h-.004z" fill="url(#A)"/>
        <path d="M137.952 177.531a.682.682 0 0 1-.106.373.695.695 0 0 1-1.064.107.693.693 0 0 1-.188-.357.686.686 0 0 1 .294-.709.683.683 0 0 1 .383-.117.706.706 0 0 1 .49.202.692.692 0 0 1 .201.491l-.01.01zM140.955 177.531a.68.68 0 0 1-.427.638.688.688 0 0 1-.9-.902.69.69 0 0 1 .253-.312.682.682 0 0 1 1.074.576zM143.96 177.532a.69.69 0 0 1-.113.384.7.7 0 0 1-.708.294.677.677 0 0 1-.342-.192.678.678 0 0 1-.188-.342.655.655 0 0 1 .041-.398.679.679 0 0 1 .636-.428.706.706 0 0 1 .489.202c.122.13.188.302.185.48z" fill="#BDD0FB"/>
        <path d="M119.849 187.667a2.657 2.657 0 0 1-1.947 2.57 2.652 2.652 0 0 1-3.134-1.485 2.669 2.669 0 0 1 1.004-3.325 2.646 2.646 0 0 1 3.429.505c.417.482.646 1.098.648 1.735z" fill="url(#B)"/>
        <path d="M140.832 185.706h-18.663v1.231h18.663v-1.231zM132.578 188.777h-10.409v1.234h10.409v-1.234z" fill="#BDD0FB"/>
        <path d="M119.848 196.991a2.658 2.658 0 0 1-.971 2.062 2.657 2.657 0 0 1-4.21-2.894 2.654 2.654 0 0 1 4.767-.592c.27.426.414.92.414 1.424z" fill="url(#C)"/>
        <path d="M140.832 195.044h-18.663v1.231h18.663v-1.231zM132.578 198.102h-10.409v1.23h10.409v-1.23z" fill="#BDD0FB"/>
        <path d="M119.848 206.312a2.666 2.666 0 0 1-2.136 2.615 2.658 2.658 0 0 1-2.976-1.591 2.666 2.666 0 0 1 .976-3.235 2.658 2.658 0 0 1 3.356.329c.498.5.778 1.176.78 1.882z" fill="#739AF0"/>
        <path d="M140.832 204.351h-18.663v1.23h18.663v-1.23zM132.578 207.422h-10.409v1.23h10.409v-1.23z" fill="#BDD0FB"/>
        <path d="M6.702 239.999h392.515a1.092 1.092 0 0 0 1.153-1.011v-.021a1.088 1.088 0 0 0-1.153-1.011H6.702a1.088 1.088 0 0 0-1.153 1.011v.021a1.089 1.089 0 0 0 1.153 1.011z" fill="#233862"/>
        <path d="M391.814 126.83c-2.025 5.995-9.95 12.683-9.006 22.949.105 1.127.308 2.243.605 3.335-37.968-57.67-93.856-69.91-93.856-69.91L284.351 64.2c2.35-16.944.62-34.426-1.73-47.781a97.63 97.63 0 0 1 3.731.312c38.081 3.928 56.634 28.276 80.085 49.769 29.776 27.265 29.078 49.36 25.377 60.33z" fill="url(#D)"/>
        <path d="M270.22 97.128s-.51-5.09 2.145-4.916c2.654.175 3.359 1.395 3.078 2.376-.28.98-2.876 4.213-2.876 4.213l-2.347-1.673z" fill="#FFB27D"/>
        <path d="M266.062 124.187c-4.635.185-13.922-2.54-17.424-3.983a70.557 70.557 0 0 1-8.665-4.271 63.351 63.351 0 0 1-1.888-1.145c-6.321-3.997-9.252-7.459-9.252-7.459s11.848-10.267 16.627-7.58c5.61 3.154 15.276 13.349 16.911 12.303 1.837-1.179 6.968-15.624 6.968-15.624 3.379-.648 4.104 1.913 4.104 1.913s-.804 25.582-7.381 25.846z" fill="url(#E)"/>
        <path d="M246.489 232.065s-.485 5.632.684 6.218l15.201-.031s0-1.759-2.442-2.149c-2.442-.391-6.728-1.824-7.453-5.015-.725-3.192-5.99.977-5.99.977z" fill="url(#F)"/>
        <path d="M257.65 163.913c-.086 3.684-.253 7.479-.599 10.907-1.642 16.196-2.22 35.766-2.456 39.537-.407 6.55-1.71 17.012-1.71 17.012s-2.559 2.437-7.549 1.275c0 0-4.136-15.082-5.063-30.94l-.041-.781c-.106-2.098-.219-4.497-.342-7.082-.762-17.328-1.587-43.064-1.587-43.064l19.073-4.487s.458 8.446.274 17.623z" fill="#7D97F4"/>
        <path d="M217.865 161.19s-1.183 4.652-.991 5.687c.191 1.035 1.368 4.535 2.072 5.406.705.87.749-3.771 1.228-4.508.479-.737.219 1.735.602 1.937.383.202 1.026-1.868 1.31-2.602.284-.733-1.026-3.284-1.142-5.114-.116-1.831-3.079-.806-3.079-.806z" fill="url(#G)"/>
        <path d="M208.626 225.662s-2.705 2.474-2.179 4.233c.527 1.758 2.969 2.931 3.298 5.08.328 2.149 1.652 3.318 2.839 3.318h5.661s.875-1.512-1.235-1.967c-2.11-.456-2.907-2.979-2.777-5.324a41.157 41.157 0 0 0-.199-5.484l-4.484-1.029-.924 1.173z" fill="url(#H)"/>
        <path d="M254.392 151.168s-17.855 38.282-27.364 55.082c-9.509 16.8-12.471 21.486-12.471 21.486s-5.446-2.15-5.938-3.613c0 0 3.632-32.431 9.994-40.336 3.595-4.456 7.82-17.872 8.018-22.562.198-4.689 4.378-15.884 4.378-15.884l23.383 5.827z" fill="#7D97F4"/>
        <path d="M231.764 98.773s5.982 1.947 11.442-.305c0 0 1.053-.552.191-1.738a17.14 17.14 0 0 0 .086-1.882 27.47 27.47 0 0 0-.028-3.024l-4.019-2.625-3.814-2.516c.985 7.942-3.858 12.09-3.858 12.09z" fill="url(#I)"/>
        <path d="M235.823 89.737s2.863 4.274 7.659 5.11c.068-1.936-.058-3.917-.058-3.917l-3.992-1.714-3.609.52z" fill="url(#J)"/>
        <path d="M247.027 90.803s-9.687 3.62-11.842-2.358c-2.155-5.978-4.857-9.543 1.238-12.107 6.096-2.564 8.124-.717 9.335 1.103 1.211 1.82 3.732 12.265 1.269 13.362z" fill="url(#K)"/>
        <path d="M229.151 77.01c-.11-.085-.342-.13-.807-.061.235-.205.517-.349.82-.418-.03-.686.089-1.89 1.15-2.4a1.426 1.426 0 0 0-.479 1.145c1.026-1.587 3.609-3.085 11.4-4.014 10.262-1.203 8.21 5.944 7.057 6.976-1.153 1.031-4.867-.436-7.269.24-2.401.675-2.168 4.302-2.897 4.95-.728.647-.578-.275-1.796-.56-1.217-.284-.961 1.595-.396 2.743.564 1.148-.664 3.044-.664 3.044l-1.885-1.371c-1.884-1.371-4.751-8.183-4.34-9.838.034-.14.068-.288.106-.436z" fill="url(#L)"/>
        <path d="M252.93 109.424c-2.736-8.165-8.719-10.969-8.719-10.969s-4.967-4.487-15.119 1.8c0 0-.294.168-.786.51l-.106.072a24.366 24.366 0 0 0-9.287 13.311c-2.128 7.866-5.415 19.576-5.815 23.237-.4 3.661 4.016 25.095 4.016 25.095s.619.456 2.144.151a3.56 3.56 0 0 0 2.135-1.282s1.053-14.284.78-21.03c-.035-.895 1.272-3.311 3.3-6.263 1.711 9.578 1.047 15.083.828 18.322-.113 1.68-.109 2.742.404 3.483 2.182 3.085 10.983 2.29 15.32 1.457 9.879-1.892 15.694-8.165 15.694-8.165s.68-23.392-4.789-39.729z" fill="url(#M)"/>
        <path d="M234.343 95.15s-1.265.62-3.721 3.894c0 0 4.573 5.749 11.174 5.002 0 0-.814-2.979-.773-4.875 0 0-5.517-.613-6.68-4.02z" fill="url(#N)"/>
        <path d="M241.023 99.171s3.544.922 4.375 3.466c0 0 .746-2.187.089-3.428a11.016 11.016 0 0 0-2.09-2.485s.486 1.566-2.374 2.447z" fill="url(#O)"/>
        <path d="M289.555 84.99a149.95 149.95 0 0 0-28.148 2.399l-1.573-3.98-1.71-4.36s15.139-6.513 24.237-15.624l7.194 21.564z" fill="#fff"/>
        <path d="m282.133 63.223 7.505 22.196a1.988 1.988 0 0 0 1.213-1.011 1.994 1.994 0 0 0 .1-1.577l-6.601-18.648a1.655 1.655 0 0 0-1.559-1.099c-.226 0-.45.048-.658.14z" fill="url(#P)"/>
        <path d="m265.576 86.598-4.081.72c.062 0-3.793.75-5.059-2.67a2.923 2.923 0 0 1-.243-.741c-.981-4.268 1.369-5.056 1.369-5.056l5.253-2.057 1.67 5.92v.02l1.091 3.864z" fill="url(#Q)"/>
        <path d="M274.974 101.509a2.713 2.713 0 0 1-3.184-2.129l-2.596-12.95a2.719 2.719 0 0 1 2.124-3.192 2.706 2.706 0 0 1 2.028.407 2.72 2.72 0 0 1 1.153 1.722l2.582 12.95a2.719 2.719 0 0 1-2.107 3.192z" fill="#fff"/>
        <path d="M274.626 88.966s-1.998.796-1.632 1.676c.366.881 2.908 2.095 3.308 1.399.4-.696-.421-3.819-1.676-3.075z" fill="url(#R)"/>
        <path d="M270.172 96.323a27.275 27.275 0 0 1-.4-2.986c-.024-.943-.298-1.652-.075-1.68.222-.027.342.137.434.439l.633 2.132-.175 1.81-.417.285z" fill="url(#S)"/>
        <path d="m292.393 56.418 1.218-10.962 5.579 1.347 3.533-12.152-.636 17.777-5.771-2.276-3.923 6.266z" fill="url(#T)"/>
        <path d="m308.678 82.049 10.936-1.269-.055 5.749 12.605.723-17.424 3.37.916-6.147-6.978-2.426z" fill="url(#U)"/>
        <path d="M302.305 69.204a.89.89 0 0 1-.753-1.286.888.888 0 0 1 .411-.407c3.865-1.806 9.269-5.268 9.7-10.626.684-8.398-14.708-35.06 12.554-49.385 25.137-13.214 42.653-9.492 50.137 15.285 7.238 24.019-27.548 47.438-72.049 46.42z" fill="url(#V)"/>
        <path d="M336.616 10.5a2.017 2.017 0 0 0-2.032-.258l-7.063 3.332a2.233 2.233 0 0 0-1.17 1.6 3.662 3.662 0 0 0 .308 2.342l9.608 20.224c.306.691.852 1.247 1.536 1.567a1.868 1.868 0 0 0 1.819-.134l2.49-1.68c.832-.558 1.198-1.772.91-3.016l-5.048-21.873a3.546 3.546 0 0 0-1.358-2.105zM346.841 43.791c-.626-1.268-1.809-1.882-2.852-1.55l-2.836.906c-1.207.384-1.775 1.83-1.279 3.4l1.142 3.6c.459 1.446 1.659 2.399 2.819 2.21l3.605-.596a2.032 2.032 0 0 0 1.56-1.488 3.554 3.554 0 0 0-.243-2.615l-1.916-3.867z" fill="#fff"/>
    </g>
    <defs>
        <linearGradient id="b" x1="408" y1="127.776" x2="-23.985" y2="127.776" gradientUnits="userSpaceOnUse">
            <stop stop-color="#DAE3FE"/>
            <stop offset="1" stop-color="#E9EFFD"/>
        </linearGradient>
        <linearGradient id="c" x1="12.226" y1="94.954" x2="86.366" y2="94.954" gradientUnits="userSpaceOnUse">
            <stop stop-color="#09005D"/>
            <stop offset="1" stop-color="#1A0F91"/>
        </linearGradient>
        <linearGradient id="d" x1="15.82" y1="82.779" x2="23.413" y2="82.779" gradientUnits="userSpaceOnUse">
            <stop stop-color="#4042E2"/>
            <stop offset="1" stop-color="#4F52FF"/>
        </linearGradient>
        <linearGradient id="e" x1="15.82" y1="107" x2="23.413" y2="107" gradientUnits="userSpaceOnUse">
            <stop offset=".03" stop-color="#FE7062"/>
            <stop offset="1" stop-color="#FE7062"/>
        </linearGradient>
        <linearGradient id="f" x1="8.322" y1="95.184" x2="89.703" y2="95.184" gradientUnits="userSpaceOnUse">
            <stop offset=".49" stop-color="#001333"/>
            <stop offset="1" stop-color="#001E4F"/>
        </linearGradient>
        <linearGradient id="g" x1="2708.7" y1="-14960.4" x2="3025.63" y2="-14960.4" gradientUnits="userSpaceOnUse">
            <stop offset=".49" stop-color="#001333"/>
            <stop offset="1" stop-color="#001E4F"/>
        </linearGradient>
        <linearGradient id="h" x1="2708.7" y1="-15425" x2="3025.63" y2="-15425" gradientUnits="userSpaceOnUse">
            <stop offset=".49" stop-color="#001333"/>
            <stop offset="1" stop-color="#001E4F"/>
        </linearGradient>
        <linearGradient id="i" x1="11636.7" y1="-14960.4" x2="11953.2" y2="-14960.4" gradientUnits="userSpaceOnUse">
            <stop offset=".49" stop-color="#001333"/>
            <stop offset="1" stop-color="#001E4F"/>
        </linearGradient>
        <linearGradient id="j" x1="1591610" y1="-100968" x2="1827110" y2="-100968" gradientUnits="userSpaceOnUse">
            <stop offset=".49" stop-color="#001333"/>
            <stop offset="1" stop-color="#001E4F"/>
        </linearGradient>
        <linearGradient id="k" x1="1599360" y1="-87925" x2="1834790" y2="-87925" gradientUnits="userSpaceOnUse">
            <stop stop-color="#09005D"/>
            <stop offset="1" stop-color="#1A0F91"/>
        </linearGradient>
        <linearGradient id="l" x1="1104240" y1="-200421" x2="2911480" y2="-200421" gradientUnits="userSpaceOnUse">
            <stop stop-color="#09005D"/>
            <stop offset="1" stop-color="#1A0F91"/>
        </linearGradient>
        <linearGradient id="m" x1="146540" y1="-83041.2" x2="189748" y2="-83041.2" gradientUnits="userSpaceOnUse">
            <stop stop-color="#09005D"/>
            <stop offset="1" stop-color="#1A0F91"/>
        </linearGradient>
        <linearGradient id="n" x1="54467.7" y1="-5373.84" x2="73310.5" y2="-5373.84" gradientUnits="userSpaceOnUse">
            <stop offset=".03" stop-color="#FE7062"/>
            <stop offset="1" stop-color="#FE7062"/>
        </linearGradient>
        <linearGradient id="o" x1="1446.99" y1="-8336.58" x2="1492.48" y2="-8336.58" gradientUnits="userSpaceOnUse">
            <stop offset=".03" stop-color="#FE7062"/>
            <stop offset="1" stop-color="#FE7062"/>
        </linearGradient>
        <linearGradient id="p" x1="1214930" y1="-230604" x2="3651800" y2="-230604" gradientUnits="userSpaceOnUse">
            <stop offset=".49" stop-color="#001333"/>
            <stop offset="1" stop-color="#001E4F"/>
        </linearGradient>
        <linearGradient id="q" x1="1902.99" y1="-12192.9" x2="2050.44" y2="-12192.9" gradientUnits="userSpaceOnUse">
            <stop offset=".49" stop-color="#001333"/>
            <stop offset="1" stop-color="#001E4F"/>
        </linearGradient>
        <linearGradient id="r" x1="1902.99" y1="-12496.5" x2="2050.44" y2="-12496.5" gradientUnits="userSpaceOnUse">
            <stop offset=".49" stop-color="#001333"/>
            <stop offset="1" stop-color="#001E4F"/>
        </linearGradient>
        <linearGradient id="s" x1="6188.13" y1="-12496.5" x2="6335.58" y2="-12496.5" gradientUnits="userSpaceOnUse">
            <stop offset=".49" stop-color="#001333"/>
            <stop offset="1" stop-color="#001E4F"/>
        </linearGradient>
        <linearGradient id="t" x1="14476400" y1="-400958" x2="40974200" y2="-400958" gradientUnits="userSpaceOnUse">
            <stop stop-color="#09005D"/>
            <stop offset="1" stop-color="#1A0F91"/>
        </linearGradient>
        <linearGradient id="u" x1="11636.7" y1="-15425" x2="11953.2" y2="-15425" gradientUnits="userSpaceOnUse">
            <stop offset=".49" stop-color="#001333"/>
            <stop offset="1" stop-color="#001E4F"/>
        </linearGradient>
        <linearGradient id="v" x1="6188.13" y1="-12192.9" x2="6335.58" y2="-12192.9" gradientUnits="userSpaceOnUse">
            <stop offset=".49" stop-color="#001333"/>
            <stop offset="1" stop-color="#001E4F"/>
        </linearGradient>
        <linearGradient id="w" x1="2094170" y1="-180878" x2="3422820" y2="-180878" gradientUnits="userSpaceOnUse">
            <stop stop-color="#09005D"/>
            <stop offset="1" stop-color="#1A0F91"/>
        </linearGradient>
        <linearGradient id="x" x1="6027080" y1="-17336.3" x2="8685500" y2="-17336.3" gradientUnits="userSpaceOnUse">
            <stop stop-color="#09005D"/>
            <stop offset="1" stop-color="#1A0F91"/>
        </linearGradient>
        <linearGradient id="y" x1="6027710" y1="-145715" x2="8686410" y2="-145715" gradientUnits="userSpaceOnUse">
            <stop stop-color="#09005D"/>
            <stop offset="1" stop-color="#1A0F91"/>
        </linearGradient>
        <linearGradient id="z" x1="1533890" y1="-188385" x2="1937220" y2="-188385" gradientUnits="userSpaceOnUse">
            <stop stop-color="#09005D"/>
            <stop offset="1" stop-color="#1A0F91"/>
        </linearGradient>
        <linearGradient id="A" x1="1533320" y1="-21669.1" x2="1936500" y2="-21669.1" gradientUnits="userSpaceOnUse">
            <stop stop-color="#09005D"/>
            <stop offset="1" stop-color="#1A0F91"/>
        </linearGradient>
        <linearGradient id="B" x1="38631.5" y1="-26624" x2="40081.7" y2="-26624" gradientUnits="userSpaceOnUse">
            <stop offset=".03" stop-color="#FE7062"/>
            <stop offset="1" stop-color="#FE7062"/>
        </linearGradient>
        <linearGradient id="C" x1="38681.1" y1="-26794.1" x2="40133.1" y2="-26794.1" gradientUnits="userSpaceOnUse">
            <stop stop-color="#4042E2"/>
            <stop offset="1" stop-color="#4F52FF"/>
        </linearGradient>
        <linearGradient id="D" x1="91991.5" y1="33812.9" x2="128008" y2="33812.9" gradientUnits="userSpaceOnUse">
            <stop stop-color="#09005D"/>
            <stop offset="1" stop-color="#1A0F91"/>
        </linearGradient>
        <linearGradient id="E" x1="30071.9" y1="9061.84" x2="35890.9" y2="9061.84" gradientUnits="userSpaceOnUse">
            <stop stop-color="#09005D"/>
            <stop offset="1" stop-color="#1A0F91"/>
        </linearGradient>
        <linearGradient id="F" x1="11760.8" y1="5964.67" x2="12508.6" y2="5964.67" gradientUnits="userSpaceOnUse">
            <stop stop-color="#09005D"/>
            <stop offset="1" stop-color="#1A0F91"/>
        </linearGradient>
        <linearGradient id="G" x1="216.853" y1="166.647" x2="222.127" y2="166.647" gradientUnits="userSpaceOnUse">
            <stop stop-color="#FEBBBA"/>
            <stop offset="1" stop-color="#FF928E"/>
        </linearGradient>
        <linearGradient id="H" x1="7474.14" y1="9542.66" x2="7898.39" y2="9542.66" gradientUnits="userSpaceOnUse">
            <stop stop-color="#09005D"/>
            <stop offset="1" stop-color="#1A0F91"/>
        </linearGradient>
        <linearGradient id="I" x1="8343.8" y1="3583.24" x2="8762.83" y2="3583.24" gradientUnits="userSpaceOnUse">
            <stop stop-color="#FEBBBA"/>
            <stop offset="1" stop-color="#FF928E"/>
        </linearGradient>
        <linearGradient id="J" x1="235.823" y1="92.023" x2="243.502" y2="92.023" gradientUnits="userSpaceOnUse">
            <stop offset=".5" stop-color="#FF928E"/>
            <stop offset=".97" stop-color="#FF928E"/>
        </linearGradient>
        <linearGradient id="K" x1="10696.2" y1="4169.66" x2="11387.9" y2="4169.66" gradientUnits="userSpaceOnUse">
            <stop stop-color="#FEBBBA"/>
            <stop offset="1" stop-color="#FF928E"/>
        </linearGradient>
        <linearGradient id="L" x1="14199.4" y1="4156.75" x2="15480.2" y2="4156.75" gradientUnits="userSpaceOnUse">
            <stop offset=".49" stop-color="#001333"/>
            <stop offset="1" stop-color="#001E4F"/>
        </linearGradient>
        <linearGradient id="M" x1="28042" y1="25029.7" x2="33875.9" y2="25029.7" gradientUnits="userSpaceOnUse">
            <stop stop-color="#09005D"/>
            <stop offset="1" stop-color="#1A0F91"/>
        </linearGradient>
        <linearGradient id="N" x1="7765.03" y1="2700.04" x2="8130.11" y2="2700.04" gradientUnits="userSpaceOnUse">
            <stop offset=".49" stop-color="#001333"/>
            <stop offset="1" stop-color="#001E4F"/>
        </linearGradient>
        <linearGradient id="O" x1="3576.98" y1="1816.23" x2="3642.5" y2="1816.23" gradientUnits="userSpaceOnUse">
            <stop offset=".49" stop-color="#001333"/>
            <stop offset="1" stop-color="#001E4F"/>
        </linearGradient>
        <linearGradient id="P" x1="282.133" y1="74.251" x2="291.068" y2="74.251" gradientUnits="userSpaceOnUse">
            <stop stop-color="#E1473D"/>
            <stop offset="1" stop-color="#E9605A"/>
        </linearGradient>
        <linearGradient id="Q" x1="7456.18" y1="2613.78" x2="7726.85" y2="2613.78" gradientUnits="userSpaceOnUse">
            <stop stop-color="#E1473D"/>
            <stop offset="1" stop-color="#E9605A"/>
        </linearGradient>
        <linearGradient id="R" x1="3029.64" y1="985.683" x2="3064.53" y2="985.683" gradientUnits="userSpaceOnUse">
            <stop stop-color="#FEBBBA"/>
            <stop offset="1" stop-color="#FF928E"/>
        </linearGradient>
        <linearGradient id="S" x1="1179.02" y1="1371.68" x2="1182.91" y2="1371.68" gradientUnits="userSpaceOnUse">
            <stop stop-color="#FEBBBA"/>
            <stop offset="1" stop-color="#FF928E"/>
        </linearGradient>
        <linearGradient id="T" x1="289.333" y1="51.103" x2="306.503" y2="41.211" gradientUnits="userSpaceOnUse">
            <stop stop-color="#FE7062"/>
            <stop offset="1" stop-color="#FF928E"/>
        </linearGradient>
        <linearGradient id="U" x1="75477.1" y1="26899.6" x2="76406.4" y2="27894.7" gradientUnits="userSpaceOnUse">
            <stop stop-color="#FE7062"/>
            <stop offset="1" stop-color="#FF928E"/>
        </linearGradient>
        <linearGradient id="V" x1="6010.77" y1="-8041.23" x2="12815.1" y2="14019.1" gradientUnits="userSpaceOnUse">
            <stop stop-color="#FE7062"/>
            <stop offset="1" stop-color="#FF928E"/>
        </linearGradient>
        <clipPath id="a">
            <path fill="#fff" d="M0 0h408v240H0z"/>
        </clipPath>
    </defs>
</svg>
