<svg width="15" height="15" viewBox="0 0 512 391" fill="none" xmlns="http://www.w3.org/2000/svg">
<rect x="414.5" y="12.5" width="85" height="366" rx="23.5" stroke="#5b5c5d" stroke-width="25"/>
<rect x="280.5" y="61.5" width="85" height="317" rx="23.5" stroke="#5b5c5d" stroke-width="25"/>
<path d="M170 110.5H208C220.979 110.5 231.5 121.021 231.5 134V355C231.5 367.979 220.979 378.5 208 378.5H170C157.021 378.5 146.5 367.979 146.5 355V134C146.5 121.021 157.021 110.5 170 110.5Z" stroke="#5b5c5d" stroke-width="25"/>
<path d="M36 158.5H74C86.9787 158.5 97.5 169.021 97.5 182V355C97.5 367.979 86.9787 378.5 74 378.5H36C23.0213 378.5 12.5 367.979 12.5 355V182C12.5 169.021 23.0213 158.5 36 158.5Z" stroke="#5b5c5d" stroke-width="25"/>
</svg>
