<svg width="369" height="295" viewBox="0 0 369 295" fill="none" xmlns="http://www.w3.org/2000/svg">
<path d="M32.8988 294.629C32.8988 294.629 -29.7622 235.112 17.8719 178.702C68.5881 118.64 23.6553 41.5431 92.4993 10.4345C166.928 -23.2 186.078 36.038 217.238 26.9429C279.385 8.80086 358.217 17.7329 345.099 105.857C328.635 216.477 396.186 202.368 356.066 295L32.8988 294.629Z" fill="#EBF3FA"/>
<path d="M268.245 209.267C268.245 209.267 252.21 205.434 238.211 215.996L239.594 217.976C239.594 217.976 256.188 209.563 266.528 210.861C276.868 212.159 268.245 209.267 268.245 209.267Z" fill="#BBD0FF"/>
<path d="M275.647 133.325C275.647 133.325 264.968 149.535 271.055 169.266L273.804 168.528C273.804 168.528 271.136 146.796 276.724 135.865C282.312 124.934 275.647 133.325 275.647 133.325Z" fill="#D2E0FF"/>
<path d="M301.211 40.7166H116.34V293.397H301.211V40.7166Z" fill="#739AF0"/>
<path d="M293.333 47.5349H124.215V286.433H293.333V47.5349Z" fill="#F3FAFF"/>
<path d="M173.711 40.7166V49.324C173.71 50.4543 173.933 51.5737 174.365 52.6181C174.798 53.6625 175.432 54.6115 176.231 55.4109C177.031 56.2102 177.98 56.8443 179.025 57.2768C180.07 57.7093 181.19 57.9317 182.321 57.9315H228.536C229.667 57.9309 230.786 57.7079 231.83 57.275C232.874 56.8421 233.823 56.208 234.622 55.4087C235.421 54.6094 236.054 53.6607 236.486 52.6167C236.918 51.5727 237.141 50.4538 237.14 49.324V40.7166H173.711Z" fill="#2B478B"/>
<path d="M164.772 252.619H143.848V254.736H164.772V252.619Z" fill="#AEC3FF"/>
<path d="M190.542 252.619H169.617V254.736H190.542V252.619Z" fill="#AEC3FF"/>
<path d="M172.866 257.315H143.848V259.431H172.866V257.315Z" fill="#AEC3FF"/>
<path d="M252.757 97.092H161.898V98.2634H252.757V97.092Z" fill="#8C9DF4"/>
<path d="M276.414 136.311H245.828V105.741H276.414V136.311ZM247.268 134.87H274.973V107.18H247.268V134.87Z" fill="#AFCDFB"/>
<path d="M261.884 130.166C261.567 130.165 261.254 130.094 260.967 129.959C260.681 129.823 260.427 129.627 260.225 129.382L250.773 117.97C250.425 117.527 250.264 116.965 250.325 116.405C250.386 115.845 250.663 115.331 251.097 114.972C251.532 114.614 252.089 114.439 252.651 114.485C253.212 114.531 253.734 114.794 254.104 115.219L261.59 124.268L275.13 101.553C275.43 101.076 275.905 100.735 276.454 100.603C277.002 100.472 277.581 100.559 278.065 100.848C278.55 101.136 278.902 101.603 279.048 102.147C279.193 102.692 279.119 103.272 278.843 103.763L263.732 129.111C263.555 129.408 263.309 129.659 263.015 129.842C262.721 130.024 262.387 130.133 262.042 130.16C261.994 130.164 261.94 130.166 261.884 130.166Z" fill="#04B30B"/>
<path d="M222.226 110.252H154.277V113.235H222.226V110.252Z" fill="#AEC3FF"/>
<path d="M267 83H149V88H267V83Z" fill="#AEC3FF"/>
<path d="M216.9 123.574H154.277V126.557H216.9V123.574Z" fill="#AEC3FF"/>
<path d="M222.226 116.913H203.703V119.896H222.226V116.913Z" fill="#AEC3FF"/>
<path d="M198.572 116.913H154.277V119.896H198.572V116.913Z" fill="#AEC3FF"/>
<path d="M139.065 112.918L136.025 113.762L135.402 111.351L139.939 109.9H142.013V126.899H139.065V112.918Z" fill="#AEC3FF"/>
<path d="M143.949 125.837C143.949 125.625 144.012 125.417 144.13 125.241C144.248 125.064 144.416 124.927 144.612 124.845C144.809 124.764 145.025 124.743 145.233 124.784C145.442 124.826 145.633 124.928 145.783 125.078C145.934 125.228 146.036 125.42 146.077 125.628C146.119 125.836 146.098 126.052 146.016 126.248C145.935 126.445 145.797 126.612 145.621 126.73C145.444 126.848 145.236 126.911 145.024 126.911C144.739 126.911 144.465 126.798 144.264 126.597C144.062 126.395 143.949 126.122 143.949 125.837Z" fill="#AEC3FF"/>
<path d="M276.653 181.977H246.066V151.407H276.653V181.977ZM247.506 180.538H275.213V152.848H247.506V180.538Z" fill="#AFCDFB"/>
<path d="M262.118 175.832C261.801 175.831 261.488 175.76 261.201 175.625C260.915 175.49 260.661 175.293 260.459 175.048L251.022 163.646C250.838 163.428 250.7 163.176 250.615 162.904C250.529 162.632 250.499 162.346 250.525 162.062C250.55 161.778 250.632 161.502 250.765 161.25C250.898 160.998 251.08 160.774 251.3 160.593C251.519 160.411 251.773 160.275 252.046 160.192C252.318 160.108 252.605 160.08 252.889 160.108C253.173 160.136 253.448 160.219 253.699 160.354C253.95 160.489 254.173 160.672 254.353 160.893L261.838 169.944L275.379 147.228C275.523 146.981 275.714 146.765 275.942 146.592C276.169 146.42 276.429 146.294 276.706 146.223C276.982 146.151 277.27 146.135 277.553 146.176C277.836 146.216 278.108 146.313 278.353 146.459C278.599 146.605 278.813 146.798 278.983 147.028C279.153 147.257 279.276 147.518 279.345 147.795C279.413 148.072 279.426 148.36 279.383 148.643C279.339 148.925 279.24 149.196 279.092 149.439L263.981 174.787C263.804 175.084 263.558 175.335 263.264 175.517C262.97 175.699 262.636 175.808 262.291 175.834C262.228 175.83 262.179 175.832 262.118 175.832Z" fill="#04B30B"/>
<path d="M135.266 170.249L141.044 165.34C143.345 163.4 144.185 162.324 144.185 160.815C144.185 159.156 143.011 158.205 141.476 158.205C139.941 158.205 138.889 159.034 137.595 160.719L135.51 159.09C137.116 156.84 138.698 155.565 141.691 155.565C144.975 155.565 147.225 157.576 147.225 160.618C147.225 163.25 145.813 164.664 142.87 167.106L139.41 169.994H147.387V172.579H135.266V170.249Z" fill="#AEC3FF"/>
<path d="M149.383 171.505C149.382 171.294 149.445 171.087 149.562 170.911C149.679 170.736 149.846 170.598 150.041 170.517C150.237 170.436 150.451 170.415 150.659 170.456C150.866 170.497 151.057 170.599 151.206 170.748C151.356 170.898 151.458 171.088 151.499 171.296C151.54 171.503 151.519 171.718 151.437 171.913C151.356 172.108 151.219 172.275 151.043 172.392C150.867 172.509 150.66 172.571 150.449 172.571C150.166 172.571 149.895 172.459 149.695 172.259C149.495 172.059 149.383 171.788 149.383 171.505Z" fill="#AEC3FF"/>
<path d="M226.242 155.918H154.84V158.901H226.242V155.918Z" fill="#AEC3FF"/>
<path d="M220.644 169.242H154.84V172.225H220.644V169.242Z" fill="#AEC3FF"/>
<path d="M226.242 162.581H206.777V165.564H226.242V162.581Z" fill="#AEC3FF"/>
<path d="M201.385 162.581H154.84V165.564H201.385V162.581Z" fill="#AEC3FF"/>
<path d="M276.653 227.98H246.066V197.411H276.653V227.98ZM247.506 226.542H275.213V198.852H247.506V226.542Z" fill="#AFCDFB"/>
<path d="M262.118 221.836C261.801 221.835 261.487 221.764 261.201 221.629C260.914 221.494 260.66 221.297 260.458 221.052L251.021 209.65C250.66 209.208 250.49 208.642 250.546 208.074C250.601 207.507 250.88 206.985 251.319 206.621C251.759 206.258 252.324 206.083 252.892 206.135C253.461 206.186 253.985 206.46 254.352 206.897L261.838 215.948L275.378 193.231C275.522 192.985 275.713 192.769 275.941 192.596C276.169 192.424 276.428 192.298 276.705 192.227C276.982 192.155 277.27 192.139 277.552 192.18C277.835 192.22 278.107 192.316 278.353 192.463C278.598 192.609 278.812 192.802 278.982 193.032C279.152 193.261 279.275 193.522 279.344 193.799C279.413 194.076 279.426 194.364 279.382 194.647C279.339 194.929 279.24 195.2 279.091 195.443L263.974 220.785C263.796 221.08 263.549 221.328 263.255 221.509C262.961 221.689 262.628 221.796 262.284 221.821C262.228 221.834 262.178 221.836 262.118 221.836Z" fill="#04B30B"/>
<path d="M226.242 201.924H154.84V204.907H226.242V201.924Z" fill="#AEC3FF"/>
<path d="M220.644 215.243H154.84V218.227H220.644V215.243Z" fill="#AEC3FF"/>
<path d="M226.242 208.582H206.777V211.566H226.242V208.582Z" fill="#AEC3FF"/>
<path d="M201.385 208.582H154.84V211.566H201.385V208.582Z" fill="#AEC3FF"/>
<path d="M135.055 215.534L137.071 213.668C138.245 215.051 139.56 215.824 141.385 215.824C143.003 215.824 144.223 214.839 144.223 213.293C144.223 211.676 142.746 210.763 140.448 210.763H139.112L138.643 208.958L143.074 204.25H135.969V201.741H146.824V203.897L142.26 208.585C144.864 208.958 147.091 210.295 147.091 213.247C147.091 216.27 144.745 218.43 141.346 218.43C138.479 218.415 136.438 217.221 135.055 215.534Z" fill="#AEC3FF"/>
<path d="M147.906 217.372C147.906 217.167 147.967 216.967 148.081 216.797C148.195 216.626 148.357 216.493 148.546 216.415C148.736 216.336 148.944 216.316 149.146 216.356C149.347 216.396 149.532 216.495 149.677 216.639C149.822 216.784 149.92 216.969 149.961 217.17C150.001 217.371 149.98 217.58 149.901 217.769C149.823 217.958 149.69 218.12 149.52 218.234C149.349 218.348 149.148 218.409 148.943 218.409C148.668 218.409 148.405 218.3 148.21 218.105C148.016 217.911 147.906 217.647 147.906 217.372Z" fill="#AEC3FF"/>
<path d="M221.223 259.377C218.238 259.371 215.345 258.339 213.031 256.453C210.717 254.568 209.122 251.945 208.514 249.024C208.467 248.794 208.513 248.554 208.643 248.357C208.773 248.161 208.975 248.024 209.206 247.976C209.437 247.929 209.677 247.975 209.873 248.105C210.07 248.235 210.207 248.437 210.254 248.668C210.775 251.18 212.143 253.438 214.13 255.063C216.116 256.687 218.601 257.581 221.168 257.593C223.736 257.605 226.229 256.736 228.231 255.131C230.234 253.525 231.624 251.281 232.168 248.773C232.226 248.552 232.368 248.362 232.563 248.242C232.758 248.122 232.992 248.082 233.216 248.13C233.44 248.178 233.636 248.311 233.765 248.5C233.894 248.689 233.944 248.921 233.906 249.147C233.27 252.039 231.668 254.628 229.362 256.488C227.056 258.348 224.186 259.367 221.223 259.377Z" fill="#AEC3FF"/>
<path d="M209.357 244.99C209.3 244.99 209.243 244.985 209.187 244.976C208.957 244.93 208.754 244.796 208.622 244.602C208.49 244.408 208.441 244.17 208.484 243.939C209.048 241.045 210.582 238.429 212.834 236.523C215.085 234.617 217.919 233.535 220.868 233.455C223.817 233.374 226.706 234.301 229.057 236.082C231.409 237.863 233.083 240.391 233.804 243.251C233.832 243.364 233.838 243.481 233.821 243.597C233.804 243.712 233.764 243.823 233.704 243.923C233.644 244.023 233.565 244.11 233.471 244.18C233.377 244.249 233.271 244.299 233.158 244.328C233.044 244.356 232.927 244.362 232.811 244.345C232.696 244.328 232.585 244.288 232.485 244.228C232.385 244.168 232.298 244.089 232.228 243.995C232.159 243.901 232.108 243.795 232.08 243.682C231.456 241.216 230.011 239.035 227.982 237.5C225.952 235.964 223.46 235.165 220.916 235.235C218.372 235.304 215.927 236.237 213.984 237.881C212.041 239.524 210.717 241.78 210.228 244.277C210.188 244.478 210.079 244.659 209.92 244.789C209.761 244.919 209.562 244.99 209.357 244.99Z" fill="#AEC3FF"/>
<path d="M221.223 264.844C217.576 264.844 214.01 263.763 210.977 261.738C207.945 259.712 205.581 256.834 204.185 253.466C202.789 250.098 202.424 246.392 203.136 242.816C203.847 239.241 205.604 235.957 208.183 233.379C210.762 230.801 214.048 229.046 217.625 228.335C221.203 227.623 224.911 227.988 228.28 229.383C231.65 230.779 234.53 233.141 236.557 236.172C238.583 239.203 239.665 242.767 239.665 246.412C239.66 251.299 237.715 255.984 234.258 259.44C230.8 262.896 226.113 264.839 221.223 264.844ZM221.223 230.505C218.075 230.505 214.998 231.438 212.381 233.186C209.764 234.934 207.724 237.418 206.519 240.325C205.315 243.232 204.999 246.43 205.613 249.515C206.228 252.601 207.743 255.435 209.969 257.66C212.195 259.885 215.031 261.4 218.118 262.013C221.205 262.627 224.405 262.312 227.314 261.108C230.222 259.904 232.707 257.865 234.456 255.25C236.205 252.634 237.138 249.558 237.138 246.412C237.133 242.195 235.455 238.152 232.471 235.17C229.488 232.188 225.443 230.51 221.223 230.505Z" fill="#AEC3FF"/>
<path d="M224.87 244.103H217.566V245.272H224.87V244.103Z" fill="#AEC3FF"/>
<path d="M224.87 248.885H217.566V250.055H224.87V248.885Z" fill="#AEC3FF"/>
<path d="M226.598 246.412H215.848V247.581H226.598V246.412Z" fill="#AEC3FF"/>
<path d="M101.582 167.152C101.582 167.152 102.155 165.862 102.528 165.251C102.901 164.639 104.488 162.848 104.76 163.252C105.031 163.657 106.112 166.389 105.538 167.152C104.963 167.915 105.575 169.248 102.715 170.054L101.582 167.152Z" fill="#FFB27D"/>
<path d="M69.8086 159.007C69.8086 159.007 84.4441 171.217 90.1523 170.085C94.614 169.202 101.463 166.855 101.463 166.855L102.834 170.357C102.834 170.357 96.6902 178.684 90.2872 178.738C80.2771 178.823 72.8826 174.408 72.8826 174.408L69.8086 159.007Z" fill="#2B3043"/>
<path d="M44.1367 287.795C44.1367 287.795 44.5619 294.636 45.8873 294.744C46.0637 294.757 52.614 294.757 52.614 294.757L60.973 294.709C60.973 294.709 60.9191 292.696 58.484 292.269C56.0488 291.842 51.9502 290.127 50.4692 286.9C48.9032 283.504 44.1367 287.795 44.1367 287.795Z" fill="#1C4B8E"/>
<path d="M43.6564 288.272C43.6564 288.272 46.1972 289.122 48.1823 289.122C49.6107 289.103 51.0309 288.901 52.4074 288.519C52.4074 288.519 52.8845 283.894 55.5187 273.704C56.898 268.364 58.8706 261.496 61.6749 252.974C69.4303 229.39 71.7866 215.594 72.0024 214.288C72.0148 214.219 72.0189 214.184 72.0189 214.184H71.9941L48.1532 203.721C48.1532 203.721 51.0986 236.225 47.3401 248.707C46.7695 250.671 46.3138 252.667 45.9753 254.684C43.6024 268.207 43.6564 288.272 43.6564 288.272Z" fill="#98C7FF"/>
<path d="M55.5221 273.704C56.9014 268.364 58.874 261.496 61.6783 252.973C69.4337 229.39 71.79 215.594 72.0058 214.288C72.0058 214.248 72.0058 214.213 72.0058 214.174L48.1649 203.711C48.1649 203.711 51.1103 236.215 47.3518 248.697C46.8167 250.43 55.5221 273.704 55.5221 273.704Z" fill="#70A8EB"/>
<path d="M62.7617 287.795C62.7617 287.795 63.1766 294.636 64.5123 294.744C64.6887 294.757 71.2369 294.757 71.2369 294.757L79.598 294.709C79.598 294.709 79.542 292.696 77.1089 292.269C74.6759 291.842 70.5752 290.127 69.0942 286.9C67.5282 283.504 62.7617 287.795 62.7617 287.795Z" fill="#1C4B8E"/>
<path d="M76.2755 204.467C76.2755 204.467 76.5867 225.53 72.9402 251.39C69.2938 277.249 70.5217 288.226 70.5217 288.226C70.5217 288.226 68.0161 289.039 67.0059 289.122C64.4298 289.329 61.7893 288.517 61.7893 288.517C61.7893 288.517 56.5706 262.647 58.0558 249.704C59.5409 236.762 50.9102 205.288 50.9102 205.288L76.2755 204.467Z" fill="#98C7FF"/>
<path d="M59.3711 155.178L64.0256 158.229L68.2632 157.031C69.0389 155.926 69.2443 153.797 69.2546 151.952C69.2604 150.822 69.205 149.693 69.0887 148.569L62.8101 145.799L60.4684 144.763C60.4684 144.8 60.6509 146.684 60.6758 146.96C61.1134 151.855 59.3711 155.178 59.3711 155.178Z" fill="#FFB27D"/>
<path d="M76.3821 210.322C70.5888 215.919 48.6666 214.972 47.3163 208.813C45.966 202.654 48.789 156.386 58.685 153.48C60.7385 152.877 71.7151 156.424 71.7151 156.424C72.9252 159.758 73.8787 163.181 74.5672 166.661C74.7746 167.778 75.4259 179.601 75.905 190.661C76.129 195.843 76.3198 200.844 76.4132 204.509C76.5024 207.944 76.5065 210.2 76.3821 210.322Z" fill="#293561"/>
<path d="M61.1439 147.051C62.4175 149.205 66.8874 151.088 69.254 151.952C69.2598 150.822 69.2044 149.693 69.0881 148.569L62.8095 145.799C61.4219 145.78 60.5756 146.091 61.1439 147.051Z" fill="#FCA56B"/>
<path d="M71.4601 148.187C71.4601 148.187 61.3442 151.336 59.4754 145.013C57.6065 138.691 55.0428 134.833 61.4231 132.552C67.8033 130.272 69.7759 132.312 70.9146 134.273C72.0534 136.234 74.0508 147.203 71.4601 148.187Z" fill="#FFB27D"/>
<path d="M70.5225 133.663C70.5225 133.663 69.8774 141.025 68.355 140.712C66.8325 140.399 65.1545 139.708 65.3764 141.929C65.5984 144.149 63.8955 147.953 61.6989 147.941C56.9884 147.922 51.8692 135.838 53.1594 133.547C56.8722 126.932 75.8926 125.599 70.5225 133.663Z" fill="#163560"/>
<path d="M69.0255 153.64C68.8949 153.586 61.4941 150.269 60.6292 150.553C59.7643 150.837 58.6836 153.48 58.6836 153.48L71.7158 156.426C71.7158 156.426 70.6891 154.34 69.0255 153.64Z" fill="#2B3043"/>
<path d="M115.099 189.481L73.6155 228.517C72.8025 229.282 71.7778 229.527 71.3339 229.06L69.9318 227.574C69.4921 227.105 69.797 226.098 70.61 225.333L112.094 186.295C112.907 185.53 113.932 185.285 114.376 185.754L115.776 187.24C116.22 187.698 115.913 188.708 115.099 189.481Z" fill="#1F4D84"/>
<path d="M91.8208 211.379L73.6156 228.509C72.8025 229.274 71.7778 229.519 71.3339 229.052L69.9318 227.566C69.4921 227.097 69.797 226.09 70.61 225.325L88.8153 208.195L91.8208 211.379Z" fill="#739AF0"/>
<path d="M105.566 174.733C107.01 179.468 109.518 183.811 112.897 187.43C116.277 191.049 120.439 193.849 125.066 195.616C129.692 197.382 134.662 198.069 139.595 197.624C144.528 197.179 149.294 195.613 153.529 193.046C157.764 190.48 161.357 186.98 164.033 182.815C166.709 178.649 168.397 173.927 168.97 169.01C169.542 164.093 168.982 159.11 167.334 154.442C165.686 149.774 162.993 145.543 159.46 142.074C159.294 141.908 159.124 141.744 158.95 141.583C153.729 136.674 147.031 133.627 139.898 132.915C132.765 132.204 125.597 133.868 119.509 137.649C113.42 141.43 108.752 147.116 106.23 153.823C103.709 160.529 103.475 167.88 105.566 174.733ZM114.861 144.74C118.92 140.428 124.167 137.416 129.938 136.084C135.71 134.753 141.747 135.162 147.286 137.26C152.825 139.358 157.618 143.05 161.057 147.87C164.497 152.69 166.429 158.422 166.609 164.339C166.789 170.257 165.21 176.095 162.071 181.115C158.931 186.136 154.373 190.113 148.972 192.544C143.571 194.975 137.57 195.751 131.728 194.773C125.886 193.796 120.465 191.108 116.151 187.052C113.282 184.361 110.972 181.131 109.354 177.546C107.736 173.962 106.842 170.094 106.722 166.163C106.602 162.233 107.259 158.317 108.656 154.641C110.052 150.965 112.161 147.6 114.861 144.74Z" fill="#1F4D84"/>
<g opacity="0.5">
<path opacity="0.5" d="M158.48 185.76C154.421 190.074 149.174 193.088 143.401 194.421C137.629 195.754 131.59 195.347 126.05 193.249C120.509 191.152 115.715 187.459 112.275 182.638C108.834 177.818 106.901 172.085 106.721 166.167C106.54 160.248 108.12 154.409 111.261 149.387C114.401 144.366 118.961 140.388 124.363 137.958C129.766 135.527 135.768 134.752 141.611 135.731C147.454 136.71 152.876 139.4 157.189 143.459C160.066 146.144 162.383 149.371 164.006 152.955C165.629 156.539 166.526 160.409 166.646 164.341C166.766 168.273 166.106 172.19 164.705 175.866C163.303 179.542 161.187 182.905 158.48 185.76Z" fill="#B3CFF9"/>
</g>
<path d="M76.4181 204.509C53.5605 188.229 55.4688 166.507 55.4688 166.507C63.8236 171.215 72.1142 181.628 75.9183 190.661C76.1257 195.835 76.3331 200.844 76.4181 204.509Z" fill="#2B3043"/>
<path d="M98.976 197.096C100.588 196.724 101.672 195.506 101.894 195.294C101.894 195.294 102.583 195.34 101.782 196.805C101.716 196.928 101.575 197.243 101.455 197.467C101.443 197.488 101.438 197.512 101.438 197.536C101.438 197.56 101.445 197.583 101.457 197.604C101.469 197.625 101.486 197.642 101.507 197.654C101.528 197.666 101.551 197.673 101.575 197.674C102.504 197.744 103.442 197.378 105.232 197.751C105.479 197.802 105.551 198.393 105.541 198.646C105.526 199.073 105.555 199.552 105.06 200.207C104.771 200.587 103.967 200.997 102.172 201.719C101.488 201.994 99.5339 201.787 97.7024 201.157L96.2422 200.468L96.6964 197.751L97.0636 197.827C97.6444 197.958 98.3682 197.245 98.976 197.096Z" fill="#FFB27D"/>
<path d="M62.5528 156.426C62.5528 156.426 42.0183 160.334 68.5971 190.06C72.8471 194.815 95.8168 201.005 95.8168 201.005C95.8168 201.005 98.1461 199.024 96.9721 197.419C96.9721 197.419 81.1563 185.942 77.6821 184.118C76.116 183.289 71.6067 165.798 69.0554 161.584C66.5042 157.369 62.5528 156.426 62.5528 156.426Z" fill="#293561"/>
<path d="M102.137 167.506C102.137 167.506 102.809 166.223 102.939 165.547C103.07 164.872 103.916 162.896 104.265 162.548C104.404 162.409 104.864 162.589 104.918 163.188C104.943 163.447 104.815 163.922 104.588 164.486C104.221 165.404 104.281 166.65 104.155 167.065C103.835 168.106 102.137 167.506 102.137 167.506Z" fill="#FFB27D"/>
<path d="M169.973 285.063C169.972 285.409 169.993 285.756 170.037 286.099C170.288 288.152 171.282 290.041 172.831 291.411C174.38 292.781 176.377 293.537 178.446 293.536H297.615C299.839 293.501 301.961 292.593 303.522 291.009C305.083 289.424 305.957 287.29 305.957 285.066C305.957 282.842 305.083 280.708 303.522 279.123C301.961 277.539 299.839 276.631 297.615 276.596H178.446C176.199 276.596 174.044 277.488 172.455 279.076C170.866 280.664 169.973 282.817 169.973 285.063Z" fill="#2B478B"/>
<path d="M179.062 275.06H219.924C220.269 275.059 220.599 274.922 220.842 274.678C221.086 274.435 221.223 274.105 221.225 273.76C221.223 273.416 221.086 273.086 220.842 272.842C220.599 272.599 220.269 272.462 219.924 272.461H179.062C178.718 272.462 178.388 272.599 178.144 272.842C177.9 273.086 177.763 273.416 177.762 273.76C177.763 274.105 177.9 274.435 178.144 274.678C178.388 274.922 178.718 275.059 179.062 275.06Z" fill="#2B478B"/>
<path d="M181.318 276.592H185.746V275.058H181.318V276.592Z" fill="#233862"/>
<path d="M171.004 289.114C171.733 290.45 172.81 291.566 174.12 292.343C175.43 293.121 176.925 293.531 178.448 293.531H203.689V289.114H171.004Z" fill="#233862"/>
<path d="M321.865 282.581V287.538C321.865 288.324 321.711 289.103 321.41 289.83C321.109 290.556 320.668 291.217 320.111 291.773C319.555 292.329 318.895 292.77 318.168 293.071C317.441 293.372 316.662 293.527 315.875 293.527H191.74C190.953 293.527 190.174 293.372 189.447 293.071C188.721 292.77 188.06 292.329 187.504 291.773C186.948 291.217 186.506 290.556 186.205 289.83C185.904 289.103 185.75 288.324 185.75 287.538V282.577C185.75 281.791 185.904 281.012 186.205 280.285C186.506 279.559 186.948 278.899 187.504 278.342C188.06 277.786 188.721 277.345 189.447 277.044C190.174 276.743 190.953 276.588 191.74 276.588H315.875C316.662 276.588 317.442 276.743 318.169 277.044C318.896 277.346 319.557 277.787 320.113 278.344C320.669 278.9 321.11 279.561 321.411 280.288C321.712 281.015 321.866 281.795 321.865 282.581Z" fill="#468EF9"/>
<path d="M321.653 289.114C321.309 290.382 320.557 291.503 319.512 292.301C318.467 293.1 317.188 293.532 315.872 293.531H191.738C190.423 293.531 189.144 293.099 188.099 292.3C187.055 291.502 186.302 290.382 185.957 289.114H321.653Z" fill="#003F9D"/>
<path d="M309.535 285.092C309.535 287.723 310.493 290.067 312.001 291.632L312.101 291.734C313.267 292.895 314.746 293.6 316.353 293.6C318.867 293.6 325.096 289.81 328.956 287.293C330.879 286.05 332.214 285.1 332.214 285.1C332.214 285.1 330.879 284.163 328.956 282.907C325.096 280.388 318.867 276.6 316.353 276.6C315.642 276.602 314.939 276.739 314.279 277.003C313.132 277.484 312.138 278.268 311.404 279.271C310.501 280.492 309.908 281.915 309.678 283.417C309.677 283.435 309.677 283.454 309.678 283.473C309.589 284.008 309.541 284.549 309.535 285.092Z" fill="#8C9DF4"/>
<path d="M309.535 285.092C309.535 287.723 310.493 290.067 312.001 291.632L331.107 285.063L309.662 283.462C309.577 284.001 309.535 284.546 309.535 285.092Z" fill="#6980E2"/>
<path d="M311.395 279.262L330.454 284.464L314.276 277.001C313.127 277.479 312.131 278.261 311.395 279.262Z" fill="#9FB1FF"/>
<path d="M327.711 285.092C327.711 286.103 328.229 286.958 328.955 287.285C330.878 286.041 332.214 285.092 332.214 285.092C332.214 285.092 330.878 284.155 328.955 282.898C328.229 283.216 327.711 284.078 327.711 285.092Z" fill="#182D4C"/>
<path d="M20.5578 293.341H364.21C364.268 293.341 364.324 293.358 364.377 293.39C364.43 293.422 364.478 293.468 364.518 293.527C364.558 293.586 364.591 293.656 364.612 293.733C364.634 293.81 364.646 293.893 364.646 293.976V294.365C364.646 294.449 364.634 294.531 364.612 294.608C364.591 294.685 364.558 294.755 364.518 294.814C364.478 294.873 364.43 294.92 364.377 294.952C364.324 294.984 364.268 295 364.21 295H20.5578C20.442 295 20.3309 294.933 20.249 294.814C20.1671 294.694 20.1211 294.532 20.1211 294.363V293.974C20.1213 293.891 20.1327 293.808 20.1548 293.731C20.1768 293.654 20.2091 293.585 20.2496 293.526C20.2902 293.467 20.3383 293.421 20.3911 293.389C20.444 293.357 20.5006 293.341 20.5578 293.341Z" fill="#233862"/>
</svg>
