<svg width="384" height="283" viewBox="0 0 384 283" fill="none" xmlns="http://www.w3.org/2000/svg">
<path d="M319.32 256.523H304.582V256.715H319.32V256.523Z" fill="#EBEBEB"/>
<path d="M65.9385 96.5512V81.6093H64.7865V96.5512C64.4143 96.6712 64.0897 96.9059 63.8593 97.2216C63.6289 97.5374 63.5045 97.9179 63.5039 98.3087V103.036C63.5039 103.529 63.6997 104.001 64.0483 104.349C64.3968 104.698 64.8695 104.893 65.3625 104.893C65.6062 104.893 65.8475 104.845 66.0725 104.752C66.2976 104.658 66.502 104.521 66.674 104.349C66.8459 104.176 66.9821 103.972 67.0747 103.746C67.1672 103.521 67.2144 103.28 67.2133 103.036V98.3087C67.2121 97.9192 67.0884 97.5399 66.8596 97.2245C66.6308 96.9091 66.3086 96.6736 65.9385 96.5512Z" fill="#E0E0E0"/>
<path d="M71.5541 81.6093H69.2578V249.877H71.5541V81.6093Z" fill="#EBEBEB"/>
<path d="M85.3856 250.568H55.4336C55.4326 250.2 55.5044 249.835 55.6449 249.495C55.7854 249.155 55.9919 248.845 56.2524 248.585C56.5129 248.325 56.8223 248.119 57.1629 247.978C57.5034 247.838 57.8684 247.766 58.2368 247.767H82.5824C83.3259 247.767 84.0389 248.062 84.5646 248.587C85.0903 249.113 85.3856 249.825 85.3856 250.568Z" fill="#E0E0E0"/>
<path d="M69.2578 93.5045L71.5541 92.7524V81.6093H69.2578V93.5045Z" fill="#E0E0E0"/>
<path d="M84.1573 46.6985H56.6628L48.2148 83.1518H92.6053L84.1573 46.6985Z" fill="#F0F0F0"/>
<path d="M204.794 56.9668V50.4283C204.627 50.4283 204.467 50.362 204.349 50.244C204.23 50.1259 204.164 49.9659 204.164 49.799C204.164 49.6321 204.23 49.472 204.349 49.354C204.467 49.236 204.627 49.1697 204.794 49.1697C207.29 49.1697 209.786 49.1697 212.282 49.1697V58.2254H204.794C204.627 58.2254 204.467 58.1591 204.349 58.0411C204.23 57.9231 204.164 57.763 204.164 57.5961C204.164 57.4292 204.23 57.2692 204.349 57.1511C204.467 57.0331 204.627 56.9668 204.794 56.9668Z" fill="#EBEBEB"/>
<path d="M210.618 50.4283H204.797V56.9669H210.618V50.4283Z" fill="#F5F5F5"/>
<path d="M209.395 57.5961H229.57C230.952 57.5961 232.081 55.854 232.081 53.6975C232.081 51.541 230.952 49.799 229.57 49.799H209.395V57.5961Z" fill="#FAFAFA"/>
<path d="M209.395 49.1697C216 49.1697 222.613 49.0546 229.217 49.1697C233.741 49.2541 233.987 57.9185 229.548 58.2254C226.476 58.4327 223.273 58.2254 220.17 58.2254H209.418C209.251 58.2254 209.091 58.1591 208.973 58.0411C208.855 57.9231 208.789 57.763 208.789 57.5961C208.789 57.4292 208.855 57.2692 208.973 57.1512C209.091 57.0331 209.251 56.9669 209.418 56.9669H228.173C229.625 56.9669 230.661 56.9668 231.245 55.2478C231.729 53.7666 231.575 50.7506 229.594 50.4283C229.366 50.4091 229.138 50.4091 228.91 50.4283H209.395C209.228 50.4283 209.068 50.362 208.95 50.244C208.832 50.126 208.766 49.9659 208.766 49.799C208.766 49.6321 208.832 49.472 208.95 49.354C209.068 49.236 209.228 49.1697 209.395 49.1697Z" fill="#E6E6E6"/>
<path d="M204.726 48.1336V42.3165C204.589 42.3004 204.463 42.2349 204.372 42.1323C204.281 42.0298 204.23 41.8973 204.23 41.7601C204.23 41.6228 204.281 41.4903 204.372 41.3878C204.463 41.2852 204.589 41.2197 204.726 41.2037C206.945 41.2037 209.165 41.2037 211.384 41.2037V49.2464H204.726C204.589 49.2304 204.463 49.1649 204.372 49.0623C204.281 48.9597 204.23 48.8273 204.23 48.69C204.23 48.5528 204.281 48.4203 204.372 48.3177C204.463 48.2152 204.589 48.1497 204.726 48.1336Z" fill="#EBEBEB"/>
<path d="M209.895 42.3165H204.727V48.126H209.895V42.3165Z" fill="#F5F5F5"/>
<path d="M208.812 48.6862H226.745C227.974 48.6862 228.973 47.1513 228.973 45.225C228.973 43.2988 227.974 41.7562 226.745 41.7562H208.812V48.6862Z" fill="#FAFAFA"/>
<path d="M208.812 41.2037C214.687 41.2037 220.562 41.0963 226.429 41.2037C230.454 41.2728 230.669 48.9778 226.729 49.2464C223.98 49.4306 221.146 49.2464 218.396 49.2464H208.812C208.675 49.2304 208.549 49.1649 208.458 49.0623C208.367 48.9598 208.316 48.8273 208.316 48.69C208.316 48.5528 208.367 48.4203 208.458 48.3178C208.549 48.2152 208.675 48.1497 208.812 48.1337H225.508C226.79 48.1337 227.712 48.1337 228.211 46.5988C228.641 45.2865 228.503 42.6081 226.744 42.3165C226.542 42.3011 226.34 42.3011 226.138 42.3165H208.812C208.675 42.3004 208.549 42.2349 208.458 42.1324C208.367 42.0298 208.316 41.8973 208.316 41.7601C208.316 41.6228 208.367 41.4904 208.458 41.3878C208.549 41.2852 208.675 41.2197 208.812 41.2037Z" fill="#E6E6E6"/>
<path d="M204.794 65.8614V59.3229C204.627 59.3229 204.467 59.2566 204.349 59.1385C204.23 59.0205 204.164 58.8605 204.164 58.6936C204.164 58.5267 204.23 58.3666 204.349 58.2486C204.467 58.1306 204.627 58.0643 204.794 58.0643C207.29 58.0643 209.786 58.0643 212.282 58.0643V67.12H204.794C204.627 67.12 204.467 67.0537 204.349 66.9357C204.23 66.8177 204.164 66.6576 204.164 66.4907C204.164 66.3238 204.23 66.1638 204.349 66.0457C204.467 65.9277 204.627 65.8614 204.794 65.8614Z" fill="#EBEBEB"/>
<path d="M210.618 59.3229H204.797V65.8614H210.618V59.3229Z" fill="#F5F5F5"/>
<path d="M209.395 66.4907H229.57C230.952 66.4907 232.081 64.7487 232.081 62.5922C232.081 60.4357 230.952 58.6936 229.57 58.6936H209.395V66.4907Z" fill="#FAFAFA"/>
<path d="M209.395 58.0643C216 58.0643 222.613 57.9492 229.217 58.0643C233.741 58.1487 233.987 66.8131 229.548 67.12C226.476 67.3272 223.273 67.12 220.17 67.12H209.418C209.251 67.12 209.091 67.0537 208.973 66.9357C208.855 66.8177 208.789 66.6576 208.789 66.4907C208.789 66.3238 208.855 66.1638 208.973 66.0458C209.091 65.9277 209.251 65.8614 209.418 65.8614H228.173C229.625 65.8614 230.661 65.8614 231.245 64.1424C231.729 62.6612 231.575 59.6452 229.594 59.3229C229.366 59.3037 229.138 59.3037 228.91 59.3229H209.395C209.228 59.3229 209.068 59.2566 208.95 59.1386C208.832 59.0205 208.766 58.8605 208.766 58.6936C208.766 58.5267 208.832 58.3666 208.95 58.2486C209.068 58.1306 209.228 58.0643 209.395 58.0643Z" fill="#E6E6E6"/>
<path d="M254.362 66.107H255.768H296.526V71.5098H255.768H254.362H118.465V66.107H254.362Z" fill="#F5F5F5"/>
<path d="M286.449 84.656V71.5098H293.023L286.449 84.656Z" fill="#E0E0E0"/>
<path d="M289.736 84.656L296.318 71.5098H293.023L286.449 84.656H289.736Z" fill="#F5F5F5"/>
<path d="M128.324 84.656V71.5098H121.75L128.324 84.656Z" fill="#E0E0E0"/>
<path d="M125.039 84.656L118.465 71.5098H121.752L128.326 84.656H125.039Z" fill="#F5F5F5"/>
<path d="M243.762 52.9531C243.848 56.6887 245.394 60.2421 248.069 62.8535C250.743 65.4648 254.334 66.9268 258.073 66.9268C261.813 66.9268 265.404 65.4648 268.078 62.8535C270.753 60.2421 272.299 56.6887 272.385 52.9531V52.4543C272.299 48.7188 270.753 45.1653 268.078 42.554C265.404 39.9426 261.813 38.4806 258.073 38.4806C254.334 38.4806 250.743 39.9426 248.069 42.554C245.394 45.1653 243.848 48.7188 243.762 52.4543V52.9531Z" fill="#E6E6E6"/>
<path d="M243.762 50.8811C243.848 54.6166 245.394 58.17 248.069 60.7814C250.743 63.3928 254.334 64.8548 258.073 64.8548C261.813 64.8548 265.404 63.3928 268.078 60.7814C270.753 58.17 272.299 54.6166 272.385 50.8811V50.3822C272.299 46.6467 270.753 43.0933 268.078 40.4819C265.404 37.8705 261.813 36.4085 258.073 36.4085C254.334 36.4085 250.743 37.8705 248.069 40.4819C245.394 43.0933 243.848 46.6467 243.762 50.3822V50.8811Z" fill="#F0F0F0"/>
<path d="M246.898 50.3822C246.897 52.5938 247.552 54.7561 248.781 56.5953C250.011 58.4345 251.758 59.8679 253.803 60.7139C255.848 61.5599 258.098 61.7805 260.269 61.3477C262.439 60.9149 264.432 59.8483 265.996 58.2828C267.559 56.7173 268.622 54.7235 269.051 52.5537C269.48 50.384 269.254 48.1359 268.403 46.0943C267.552 44.0526 266.114 42.3092 264.271 41.0847C262.428 39.8603 260.263 39.2099 258.05 39.216C255.091 39.2241 252.256 40.4039 250.165 42.4969C248.075 44.5898 246.9 47.4253 246.898 50.3822Z" fill="#FAFAFA"/>
<path d="M258.049 40.9811C255.24 40.9804 252.533 42.0389 250.47 43.9452C248.407 45.8516 247.14 48.4655 246.921 51.2648C246.921 50.9732 246.875 50.6815 246.875 50.3822C246.951 47.4704 248.163 44.7035 250.251 42.6711C252.339 40.6386 255.138 39.5012 258.053 39.5012C260.968 39.5012 263.768 40.6386 265.856 42.6711C267.944 44.7035 269.155 47.4704 269.231 50.3822C269.231 50.6815 269.231 50.9732 269.185 51.2648C268.965 48.4648 267.696 45.8509 265.632 43.9447C263.568 42.0385 260.86 40.9802 258.049 40.9811Z" fill="#E6E6E6"/>
<path d="M251.014 50.3822H256.89V44.5113C256.89 44.1979 257.014 43.8973 257.236 43.6756C257.458 43.454 257.759 43.3295 258.072 43.3295C258.386 43.3295 258.687 43.454 258.909 43.6756C259.13 43.8973 259.255 44.1979 259.255 44.5113V51.5717C259.254 51.7283 259.222 51.883 259.161 52.027C259.099 52.1711 259.01 52.3015 258.898 52.4107C258.786 52.5199 258.653 52.6058 258.507 52.6634C258.361 52.7209 258.206 52.749 258.049 52.7459H250.991C250.678 52.7459 250.377 52.6214 250.155 52.3998C249.933 52.1781 249.809 51.8775 249.809 51.5641C249.809 51.2506 249.933 50.95 250.155 50.7284C250.377 50.5067 250.678 50.3822 250.991 50.3822H251.014Z" fill="#E0E0E0"/>
<path d="M251.015 51.5641C250.701 51.5641 250.4 51.4396 250.178 51.2179C249.957 50.9963 249.832 50.6957 249.832 50.3822C249.832 50.0688 249.957 49.7682 250.178 49.5465C250.4 49.3249 250.701 49.2004 251.015 49.2004H258.05C258.363 49.2004 258.664 49.3249 258.886 49.5465C259.108 49.7682 259.232 50.0688 259.232 50.3822C259.232 50.6957 259.108 50.9963 258.886 51.2179C258.664 51.4396 258.363 51.5641 258.05 51.5641H251.015Z" fill="#F5F5F5"/>
<path d="M256.891 43.3295C256.891 43.0161 257.015 42.7154 257.237 42.4938C257.459 42.2722 257.76 42.1476 258.073 42.1476C258.387 42.1476 258.688 42.2722 258.91 42.4938C259.131 42.7154 259.256 43.0161 259.256 43.3295V50.3822C259.256 50.6957 259.131 50.9963 258.91 51.2179C258.688 51.4396 258.387 51.5641 258.073 51.5641C257.76 51.5641 257.459 51.4396 257.237 51.2179C257.015 50.9963 256.891 50.6957 256.891 50.3822V43.3295Z" fill="#EBEBEB"/>
<path d="M168.161 66.2912H176.785V30.4979H168.161V66.2912Z" fill="#E0E0E0"/>
<path d="M172.47 61.2952C173.933 61.2952 175.12 60.1098 175.12 58.6475C175.12 57.1853 173.933 55.9999 172.47 55.9999C171.007 55.9999 169.82 57.1853 169.82 58.6475C169.82 60.1098 171.007 61.2952 172.47 61.2952Z" fill="#FAFAFA"/>
<path opacity="0.6" d="M169.818 51.1957H175.125V33.959H169.818V51.1957Z" fill="#F0F0F0"/>
<path opacity="0.6" d="M169.818 36.3918H175.125V33.9591H169.818V36.3918Z" fill="#FAFAFA"/>
<path d="M161.687 66.2912H168.652V37.3819H161.687V66.2912Z" fill="#E6E6E6"/>
<path d="M163.031 60.1133C163.031 60.5368 163.157 60.9508 163.392 61.3029C163.628 61.655 163.962 61.9294 164.354 62.0915C164.746 62.2536 165.176 62.296 165.592 62.2133C166.008 62.1307 166.389 61.9268 166.689 61.6273C166.989 61.3279 167.193 60.9464 167.276 60.531C167.358 60.1157 167.316 59.6852 167.154 59.2939C166.991 58.9027 166.717 58.5683 166.364 58.333C166.012 58.0978 165.598 57.9722 165.174 57.9722C164.892 57.9712 164.613 58.0259 164.353 58.1331C164.092 58.2403 163.856 58.398 163.657 58.597C163.457 58.7961 163.3 59.0325 163.192 59.2927C163.085 59.553 163.03 59.8319 163.031 60.1133Z" fill="#FAFAFA"/>
<path opacity="0.6" d="M163.023 54.0889H167.309V40.1676H163.023V54.0889Z" fill="#F0F0F0"/>
<path opacity="0.6" d="M163.023 42.1323H167.309V40.1676H163.023V42.1323Z" fill="#FAFAFA"/>
<path d="M182.352 66.2912H190.977V30.4979H182.352V66.2912Z" fill="#EBEBEB"/>
<path d="M186.661 61.2952C188.125 61.2952 189.311 60.1098 189.311 58.6475C189.311 57.1853 188.125 55.9999 186.661 55.9999C185.198 55.9999 184.012 57.1853 184.012 58.6475C184.012 60.1098 185.198 61.2952 186.661 61.2952Z" fill="#E0E0E0"/>
<path opacity="0.6" d="M184.013 51.1957H189.32V33.959H184.013V51.1957Z" fill="#FAFAFA"/>
<path opacity="0.6" d="M184.013 36.3918H189.32V33.9591H184.013V36.3918Z" fill="#FAFAFA"/>
<path d="M153.676 66.2912H162.301V30.4979H153.676V66.2912Z" fill="#E0E0E0"/>
<path d="M157.993 61.2952C159.457 61.2952 160.643 60.1098 160.643 58.6475C160.643 57.1853 159.457 55.9999 157.993 55.9999C156.53 55.9999 155.344 57.1853 155.344 58.6475C155.344 60.1098 156.53 61.2952 157.993 61.2952Z" fill="#FAFAFA"/>
<path opacity="0.6" d="M155.345 51.1957H160.652V33.959H155.345V51.1957Z" fill="#F0F0F0"/>
<path opacity="0.6" d="M155.345 36.3918H160.652V33.9591H155.345V36.3918Z" fill="#FAFAFA"/>
<path d="M141.38 65.7465L149.957 66.6474L153.701 31.0502L145.124 30.1494L141.38 65.7465Z" fill="#EBEBEB"/>
<path d="M143.823 58.3252C143.768 58.8457 143.869 59.3708 144.113 59.834C144.357 60.2972 144.733 60.6779 145.193 60.9278C145.653 61.1778 146.177 61.2859 146.698 61.2384C147.22 61.191 147.716 60.9901 148.123 60.6612C148.531 60.3323 148.831 59.8901 148.987 59.3905C149.144 58.8909 149.148 58.3563 149 57.8542C148.852 57.3521 148.559 56.9051 148.157 56.5696C147.755 56.2341 147.262 56.0251 146.741 55.9692C146.042 55.8961 145.342 56.103 144.795 56.5446C144.248 56.9862 143.899 57.6265 143.823 58.3252Z" fill="#E0E0E0"/>
<path opacity="0.6" d="M144.609 50.8952L149.887 51.4495L151.69 34.3073L146.412 33.753L144.609 50.8952Z" fill="#F5F5F5"/>
<path opacity="0.6" d="M146.156 36.1717L151.434 36.726L151.688 34.3066L146.41 33.7523L146.156 36.1717Z" fill="#FAFAFA"/>
<path d="M176.163 66.2912H183.129V37.3819H176.163V66.2912Z" fill="#E6E6E6"/>
<path d="M177.508 60.1133C177.508 60.5368 177.633 60.9508 177.869 61.3029C178.104 61.655 178.439 61.9294 178.831 62.0915C179.222 62.2536 179.653 62.296 180.069 62.2133C180.484 62.1307 180.866 61.9268 181.166 61.6273C181.465 61.3279 181.669 60.9464 181.752 60.531C181.835 60.1157 181.792 59.6852 181.63 59.2939C181.468 58.9027 181.193 58.5683 180.841 58.333C180.489 58.0978 180.074 57.9722 179.651 57.9722C179.369 57.9712 179.09 58.0259 178.829 58.1331C178.569 58.2403 178.332 58.398 178.133 58.597C177.934 58.7961 177.776 59.0325 177.669 59.2927C177.562 59.553 177.507 59.8319 177.508 60.1133Z" fill="#FAFAFA"/>
<path opacity="0.6" d="M177.508 54.0889H181.793V40.1676H177.508V54.0889Z" fill="#F0F0F0"/>
<path opacity="0.6" d="M177.508 42.1323H181.793V40.1676H177.508V42.1323Z" fill="#FAFAFA"/>
<path d="M191.56 168.721H177.168L184.08 146.849H198.472L191.56 168.721Z" fill="#407BFF"/>
<path opacity="0.2" d="M182.062 153.234H196.455L198.475 146.849H184.082L182.062 153.234Z" fill="black"/>
<path d="M202.951 167.332H175.41V170.655H202.951V167.332Z" fill="#407BFF"/>
<path opacity="0.5" d="M202.951 167.332H175.41V170.655H202.951V167.332Z" fill="white"/>
<path opacity="0.6" d="M189.18 167.332H175.41V170.655H189.18V167.332Z" fill="white"/>
<path d="M309.664 142.099L304.649 84.8248L226.152 91.7394H147.048L67.3368 84.8248L65.8008 86.3596L70.8158 143.633L150.527 150.556H229.631L308.128 143.633L309.664 142.099Z" fill="#407BFF"/>
<path opacity="0.2" d="M309.667 142.099L304.652 84.8248L226.155 91.7394H147.051L67.3398 84.8248L72.3549 142.099L152.066 149.021H231.17L309.667 142.099Z" fill="white"/>
<path opacity="0.8" d="M302.566 87.3477L228.637 93.811L233.249 146.486L307.178 140.023L302.566 87.3477Z" fill="white"/>
<path opacity="0.5" d="M242.511 99.1452C242.293 99.1645 242.077 99.0965 241.909 98.9562C241.741 98.8159 241.636 98.6147 241.617 98.3969C241.597 98.1791 241.665 97.9626 241.806 97.7949C241.946 97.6272 242.147 97.5222 242.365 97.5028L260.959 95.8682C261.171 95.8574 261.379 95.9292 261.54 96.0685C261.7 96.2078 261.8 96.4038 261.819 96.6153C261.838 96.8269 261.774 97.0375 261.641 97.203C261.508 97.3685 261.315 97.476 261.105 97.5028L242.511 99.1452Z" fill="#263238"/>
<g opacity="0.5">
<path opacity="0.5" d="M242.511 99.1452C242.293 99.1645 242.077 99.0965 241.909 98.9562C241.741 98.8159 241.636 98.6147 241.617 98.3969C241.597 98.1791 241.665 97.9626 241.806 97.7949C241.946 97.6272 242.147 97.5222 242.365 97.5028L260.959 95.8682C261.171 95.8574 261.379 95.9292 261.54 96.0685C261.7 96.2078 261.8 96.4038 261.819 96.6153C261.838 96.8269 261.774 97.0375 261.641 97.203C261.508 97.3685 261.315 97.476 261.105 97.5028L242.511 99.1452Z" fill="white"/>
</g>
<path opacity="0.5" d="M272.762 96.4745C272.652 96.4885 272.541 96.4802 272.434 96.4502C272.328 96.4202 272.229 96.369 272.143 96.2998C272.056 96.2305 271.985 96.1447 271.933 96.0473C271.881 95.9498 271.849 95.8429 271.839 95.7329C271.829 95.6229 271.842 95.512 271.876 95.4069C271.91 95.3018 271.965 95.2047 272.037 95.1213C272.11 95.0379 272.199 94.97 272.298 94.9217C272.397 94.8733 272.505 94.8455 272.616 94.8399L291.209 93.1975C291.427 93.1792 291.643 93.2482 291.81 93.3892C291.977 93.5303 292.082 93.7318 292.1 93.9496C292.118 94.1674 292.049 94.3836 291.908 94.5505C291.767 94.7175 291.565 94.8215 291.347 94.8399L272.762 96.4745Z" fill="#263238"/>
<g opacity="0.5">
<path opacity="0.5" d="M272.762 96.4745C272.652 96.4885 272.541 96.4802 272.434 96.4502C272.328 96.4202 272.229 96.369 272.143 96.2998C272.056 96.2305 271.985 96.1447 271.933 96.0473C271.881 95.9498 271.849 95.8429 271.839 95.7329C271.829 95.6229 271.842 95.512 271.876 95.4069C271.91 95.3018 271.965 95.2047 272.037 95.1213C272.11 95.0379 272.199 94.97 272.298 94.9217C272.397 94.8733 272.505 94.8455 272.616 94.8399L291.209 93.1975C291.427 93.1792 291.643 93.2482 291.81 93.3892C291.977 93.5303 292.082 93.7318 292.1 93.9496C292.118 94.1674 292.049 94.3836 291.908 94.5505C291.767 94.7175 291.565 94.8215 291.347 94.8399L272.762 96.4745Z" fill="white"/>
</g>
<path d="M253.237 119.5C258.457 119.272 262.502 114.826 262.272 109.572C262.041 104.317 257.622 100.242 252.402 100.471C247.181 100.7 243.136 105.145 243.367 110.4C243.597 115.655 248.016 119.729 253.237 119.5Z" fill="#407BFF"/>
<g opacity="0.9">
<path opacity="0.9" d="M248.733 114.893L247.658 114.985C247.525 114.996 247.393 114.953 247.29 114.867C247.188 114.781 247.124 114.658 247.113 114.525L246.667 109.444C246.66 109.378 246.666 109.311 246.685 109.247C246.703 109.183 246.735 109.124 246.777 109.072C246.819 109.021 246.871 108.978 246.93 108.947C246.989 108.916 247.054 108.897 247.12 108.892L248.195 108.8C248.329 108.789 248.461 108.831 248.563 108.918C248.665 109.004 248.729 109.127 248.741 109.26L249.186 114.34C249.197 114.473 249.156 114.605 249.071 114.708C248.987 114.811 248.866 114.878 248.733 114.893Z" fill="white"/>
<path opacity="0.9" d="M250.137 108.423C250.829 107.733 252.564 105.807 252.557 103.727C252.558 103.503 252.63 103.286 252.764 103.107C252.898 102.928 253.086 102.797 253.3 102.733C253.514 102.668 253.743 102.674 253.953 102.749C254.164 102.825 254.345 102.966 254.469 103.151C254.853 103.811 254.945 105.085 254.254 107.449L256.911 107.211C257.259 107.182 257.608 107.256 257.915 107.422C258.221 107.588 258.473 107.84 258.639 108.147C258.837 108.516 258.902 108.941 258.823 109.352L258.055 113.358C257.974 113.789 257.738 114.175 257.391 114.443C257.044 114.712 256.612 114.844 256.174 114.816L251.097 114.456C250.901 114.434 250.718 114.346 250.578 114.207C250.439 114.067 250.351 113.884 250.329 113.688L249.93 109.13C249.908 109.004 249.916 108.875 249.952 108.753C249.988 108.63 250.051 108.518 250.137 108.423Z" fill="white"/>
</g>
<path opacity="0.9" d="M283.498 116.817C288.718 116.587 292.763 112.141 292.531 106.886C292.3 101.631 287.88 97.5576 282.66 97.7872C277.439 98.0168 273.395 102.463 273.626 107.718C273.858 112.972 278.277 117.046 283.498 116.817Z" fill="white"/>
<path d="M278.186 103.167L277.111 103.266C276.978 103.278 276.854 103.342 276.768 103.444C276.682 103.546 276.639 103.678 276.65 103.811L277.095 108.892C277.1 108.958 277.118 109.023 277.148 109.082C277.179 109.141 277.22 109.194 277.271 109.237C277.322 109.279 277.381 109.312 277.444 109.332C277.508 109.351 277.575 109.358 277.641 109.352L278.716 109.26C278.783 109.254 278.847 109.235 278.907 109.204C278.966 109.173 279.019 109.131 279.062 109.08C279.104 109.028 279.137 108.969 279.156 108.905C279.176 108.841 279.183 108.774 279.177 108.707L278.731 103.635C278.726 103.568 278.708 103.503 278.678 103.444C278.648 103.384 278.607 103.331 278.556 103.287C278.505 103.244 278.447 103.211 278.383 103.19C278.32 103.169 278.253 103.161 278.186 103.167Z" fill="#407BFF"/>
<path d="M280.697 109.291C281.465 109.843 283.539 111.447 283.892 113.496C283.932 113.717 284.043 113.92 284.207 114.073C284.371 114.226 284.581 114.323 284.804 114.348C285.027 114.373 285.253 114.325 285.447 114.212C285.641 114.098 285.794 113.926 285.881 113.719C286.143 113.005 286.012 111.739 284.921 109.529L287.571 109.298C287.919 109.265 288.249 109.131 288.522 108.913C288.795 108.695 288.998 108.402 289.107 108.07C289.249 107.679 289.249 107.25 289.107 106.858L287.648 103.021C287.492 102.612 287.192 102.275 286.804 102.073C286.416 101.871 285.968 101.818 285.544 101.923L280.605 103.159C280.407 103.211 280.234 103.331 280.116 103.498C279.998 103.665 279.943 103.868 279.96 104.072L280.36 108.677C280.37 108.797 280.405 108.914 280.463 109.02C280.521 109.125 280.601 109.218 280.697 109.291Z" fill="#407BFF"/>
<path d="M250.385 133.879L244.777 134.373L245.349 140.856L250.957 140.362L250.385 133.879Z" fill="#407BFF"/>
<path opacity="0.9" d="M256.119 134.805L250.512 135.299L250.959 140.367L256.567 139.873L256.119 134.805Z" fill="white"/>
<path opacity="0.9" d="M266.752 127.229L261.145 127.724L262.173 139.374L267.78 138.88L266.752 127.229Z" fill="white"/>
<path opacity="0.9" d="M277.846 124.854L272.238 125.349L273.389 138.39L278.997 137.896L277.846 124.854Z" fill="white"/>
<path opacity="0.9" d="M289.322 126.768L283.715 127.262L284.609 137.399L290.217 136.904L289.322 126.768Z" fill="white"/>
<path d="M261.237 128.771L255.629 129.265L256.565 139.868L262.172 139.374L261.237 128.771Z" fill="#407BFF"/>
<path d="M272.119 123.951L266.512 124.445L267.786 138.879L273.393 138.384L272.119 123.951Z" fill="#407BFF"/>
<path d="M283.576 125.743L277.969 126.237L278.997 137.887L284.605 137.393L283.576 125.743Z" fill="#407BFF"/>
<path d="M294.221 118.304L288.613 118.798L290.211 136.901L295.819 136.407L294.221 118.304Z" fill="#407BFF"/>
<path opacity="0.8" d="M69.8555 87.3267L74.4711 140.004L149.535 146.511L144.927 93.8345L69.8555 87.3267Z" fill="white"/>
<path d="M123.471 111.716L83.189 108.209C82.3393 108.114 81.5467 107.735 80.9401 107.133C80.3335 106.531 79.9487 105.742 79.8482 104.893L79.3413 99.0991C79.2917 98.7202 79.3303 98.335 79.4539 97.9734C79.5775 97.6118 79.7828 97.2835 80.054 97.014C80.3251 96.7446 80.6548 96.5412 81.0173 96.4197C81.3799 96.2982 81.7656 96.2618 82.1445 96.3133L122.434 99.8129C123.283 99.9077 124.074 100.287 124.679 100.889C125.285 101.491 125.668 102.28 125.767 103.128L126.281 108.922C126.331 109.302 126.292 109.688 126.168 110.051C126.044 110.414 125.838 110.743 125.566 111.013C125.295 111.283 124.964 111.487 124.601 111.609C124.237 111.731 123.85 111.767 123.471 111.716Z" fill="white"/>
<path d="M89.8575 102.89C89.9159 103.344 89.8691 103.804 89.7207 104.236C89.5723 104.669 89.3263 105.061 89.0018 105.383C88.6773 105.705 88.283 105.948 87.8494 106.094C87.4158 106.239 86.9545 106.282 86.5013 106.221C85.4845 106.107 84.5359 105.653 83.8096 104.933C83.0833 104.213 82.6218 103.269 82.5001 102.253C82.4427 101.8 82.4906 101.339 82.64 100.907C82.7894 100.476 83.0362 100.084 83.3615 99.7624C83.6867 99.4411 84.0816 99.199 84.5156 99.0547C84.9495 98.9104 85.4109 98.8678 85.8639 98.9303C86.8783 99.0454 87.8241 99.4989 88.5488 100.217C89.2734 100.936 89.7345 101.878 89.8575 102.89Z" fill="#407BFF"/>
<path d="M94.5499 101.256C94.3299 101.23 94.1249 101.131 93.9676 100.975C93.8103 100.82 93.7098 100.616 93.6821 100.396C93.6677 100.294 93.6781 100.19 93.7123 100.092C93.7466 99.995 93.8038 99.9072 93.8791 99.8366C93.9543 99.7659 94.0455 99.7143 94.1448 99.6861C94.2442 99.6579 94.3489 99.654 94.4501 99.6747L119.141 101.816C119.362 101.84 119.568 101.938 119.725 102.094C119.883 102.251 119.983 102.455 120.009 102.675C120.023 102.778 120.013 102.882 119.979 102.979C119.945 103.076 119.887 103.164 119.812 103.235C119.737 103.306 119.646 103.357 119.546 103.385C119.447 103.413 119.342 103.417 119.241 103.397L94.5499 101.256Z" fill="#263238"/>
<path d="M95.0496 106.965C94.8301 106.938 94.6258 106.839 94.4687 106.684C94.3117 106.528 94.2107 106.325 94.1818 106.106C94.1678 106.003 94.1784 105.899 94.2127 105.802C94.247 105.704 94.304 105.616 94.379 105.545C94.454 105.474 94.5448 105.421 94.6441 105.392C94.7433 105.363 94.8481 105.358 94.9498 105.377L109.373 106.674C109.593 106.698 109.799 106.796 109.957 106.952C110.114 107.108 110.214 107.313 110.241 107.533C110.253 107.632 110.243 107.732 110.211 107.826C110.179 107.92 110.125 108.005 110.055 108.075C109.984 108.144 109.898 108.197 109.804 108.228C109.71 108.259 109.609 108.268 109.511 108.255L95.0496 106.965Z" fill="#263238"/>
<path d="M94.8038 104.11C94.5833 104.086 94.3776 103.988 94.22 103.832C94.0625 103.676 93.9624 103.471 93.936 103.251C93.9216 103.149 93.932 103.045 93.9663 102.947C94.0005 102.85 94.0577 102.762 94.133 102.691C94.2082 102.621 94.2994 102.569 94.3987 102.541C94.4981 102.513 94.6028 102.509 94.704 102.53L115.609 104.371C115.828 104.398 116.033 104.497 116.19 104.653C116.347 104.809 116.448 105.012 116.477 105.231C116.489 105.33 116.479 105.43 116.447 105.524C116.415 105.618 116.361 105.704 116.291 105.774C116.22 105.844 116.135 105.898 116.041 105.93C115.946 105.962 115.846 105.972 115.747 105.96L94.8038 104.11Z" fill="#263238"/>
<g opacity="0.5">
<path opacity="0.5" d="M94.5499 101.256C94.3299 101.23 94.1249 101.131 93.9676 100.975C93.8103 100.82 93.7098 100.616 93.6821 100.396C93.6677 100.294 93.6781 100.19 93.7123 100.092C93.7466 99.995 93.8038 99.9072 93.8791 99.8366C93.9543 99.7659 94.0455 99.7143 94.1448 99.6861C94.2442 99.6579 94.3489 99.654 94.4501 99.6747L119.141 101.816C119.362 101.84 119.568 101.938 119.725 102.094C119.883 102.251 119.983 102.455 120.009 102.675C120.023 102.778 120.013 102.882 119.979 102.979C119.945 103.076 119.887 103.164 119.812 103.235C119.737 103.306 119.646 103.357 119.546 103.385C119.447 103.413 119.342 103.417 119.241 103.397L94.5499 101.256Z" fill="white"/>
<path opacity="0.5" d="M95.0496 106.965C94.8301 106.938 94.6258 106.839 94.4687 106.684C94.3117 106.528 94.2107 106.325 94.1818 106.106C94.1678 106.003 94.1784 105.899 94.2127 105.801C94.247 105.704 94.304 105.616 94.379 105.545C94.454 105.474 94.5448 105.421 94.6441 105.392C94.7433 105.363 94.8481 105.358 94.9498 105.377L109.373 106.674C109.593 106.698 109.799 106.796 109.957 106.952C110.114 107.108 110.214 107.313 110.241 107.533C110.253 107.632 110.243 107.732 110.211 107.826C110.179 107.919 110.125 108.005 110.055 108.074C109.984 108.144 109.898 108.197 109.804 108.228C109.71 108.259 109.609 108.268 109.511 108.255L95.0496 106.965Z" fill="white"/>
<path opacity="0.5" d="M94.8038 104.11C94.5833 104.086 94.3776 103.988 94.22 103.832C94.0625 103.676 93.9624 103.471 93.936 103.251C93.9216 103.149 93.932 103.045 93.9663 102.947C94.0005 102.85 94.0577 102.762 94.133 102.691C94.2082 102.621 94.2994 102.569 94.3987 102.541C94.4981 102.513 94.6028 102.509 94.704 102.53L115.609 104.371C115.828 104.398 116.033 104.497 116.19 104.653C116.347 104.809 116.448 105.012 116.477 105.231C116.489 105.33 116.479 105.43 116.447 105.524C116.415 105.618 116.361 105.704 116.291 105.774C116.22 105.844 116.135 105.898 116.041 105.93C115.946 105.962 115.846 105.972 115.747 105.96L94.8038 104.11Z" fill="white"/>
</g>
<path d="M125.577 94.318L120.87 93.9573C120.725 93.9394 120.578 93.9551 120.44 94.003C120.302 94.051 120.177 94.1299 120.075 94.2337C119.972 94.3375 119.895 94.4635 119.849 94.6018C119.803 94.7402 119.79 94.8873 119.81 95.0317L120.194 98.9456C120.236 99.2684 120.386 99.5676 120.618 99.7957C120.85 100.024 121.153 100.168 121.476 100.204L122.843 100.312L123.511 101.263C123.551 101.338 123.609 101.402 123.68 101.448C123.751 101.494 123.832 101.522 123.917 101.528C124.001 101.534 124.086 101.519 124.163 101.483C124.24 101.448 124.306 101.393 124.356 101.325L124.832 100.442L126.192 100.55C126.337 100.567 126.484 100.552 126.621 100.504C126.759 100.456 126.884 100.377 126.986 100.273C127.089 100.169 127.166 100.043 127.212 99.905C127.258 99.7666 127.272 99.6196 127.252 99.4751L126.868 95.5689C126.824 95.2459 126.674 94.9468 126.44 94.7198C126.206 94.4929 125.902 94.3513 125.577 94.318Z" fill="#407BFF"/>
<g opacity="0.9">
<path opacity="0.9" d="M121.951 97.4645C121.61 97.1623 121.387 96.749 121.322 96.298C121.291 96.1695 121.294 96.0353 121.331 95.9084C121.367 95.7815 121.436 95.6662 121.53 95.5736C121.624 95.481 121.741 95.4142 121.869 95.3798C121.996 95.3454 122.13 95.3444 122.259 95.3771C122.842 95.4231 123.027 95.7071 123.434 96.1445C123.741 95.7915 123.91 95.5382 124.493 95.5919C124.782 95.6099 125.053 95.7318 125.258 95.9351C125.463 96.1384 125.587 96.4092 125.607 96.6971C125.62 96.8976 125.588 97.0985 125.512 97.2846C125.436 97.4707 125.319 97.6372 125.169 97.7715L123.702 99.2142L121.951 97.4645Z" fill="white"/>
</g>
<path d="M134.484 126.627L94.1947 123.135C93.3486 123.032 92.561 122.649 91.9562 122.049C91.3513 121.449 90.9635 120.665 90.8539 119.82L90.347 114.018C90.3001 113.639 90.3408 113.255 90.466 112.894C90.5911 112.534 90.7974 112.207 91.0689 111.938C91.3404 111.67 91.67 111.468 92.0321 111.346C92.3943 111.225 92.7794 111.189 93.1579 111.24L133.439 114.732C134.286 114.835 135.073 115.218 135.678 115.818C136.283 116.418 136.671 117.202 136.78 118.047L137.287 123.849C137.337 124.228 137.299 124.613 137.175 124.974C137.051 125.335 136.846 125.663 136.575 125.932C136.303 126.201 135.973 126.404 135.611 126.524C135.248 126.645 134.862 126.68 134.484 126.627Z" fill="white"/>
<path d="M100.854 117.794C100.912 118.247 100.865 118.708 100.717 119.14C100.568 119.572 100.322 119.965 99.9979 120.287C99.6734 120.609 99.2791 120.852 98.8455 120.997C98.4119 121.142 97.9506 121.186 97.4974 121.125C96.4825 121.008 95.5364 120.553 94.8119 119.833C94.0874 119.113 93.6266 118.17 93.5038 117.157C93.4468 116.704 93.4945 116.245 93.6435 115.813C93.7925 115.382 94.0386 114.991 94.363 114.669C94.6873 114.348 95.0811 114.106 95.5141 113.961C95.9471 113.816 96.4075 113.773 96.86 113.834C97.8754 113.946 98.8227 114.399 99.5478 115.118C100.273 115.837 100.733 116.78 100.854 117.794Z" fill="#407BFF"/>
<path d="M105.56 116.159C105.34 116.132 105.134 116.032 104.977 115.875C104.82 115.718 104.72 115.513 104.692 115.292C104.68 115.19 104.691 115.087 104.726 114.99C104.761 114.894 104.818 114.807 104.893 114.737C104.968 114.666 105.058 114.615 105.157 114.586C105.256 114.557 105.36 114.552 105.46 114.571L130.152 116.719C130.372 116.745 130.577 116.844 130.734 117C130.891 117.155 130.992 117.359 131.019 117.579C131.034 117.681 131.023 117.785 130.989 117.883C130.955 117.98 130.898 118.068 130.823 118.139C130.747 118.209 130.656 118.261 130.557 118.289C130.457 118.317 130.353 118.321 130.251 118.3L105.56 116.159Z" fill="#263238"/>
<path d="M106.061 121.861C105.841 121.836 105.636 121.737 105.478 121.581C105.321 121.425 105.221 121.221 105.193 121.002C105.18 120.903 105.19 120.803 105.222 120.709C105.255 120.616 105.308 120.53 105.379 120.461C105.449 120.391 105.535 120.338 105.63 120.307C105.724 120.276 105.824 120.267 105.922 120.28L120.384 121.539C120.604 121.563 120.81 121.662 120.968 121.818C121.125 121.974 121.225 122.178 121.252 122.399C121.265 122.497 121.254 122.597 121.222 122.691C121.19 122.785 121.136 122.87 121.066 122.94C120.995 123.01 120.909 123.062 120.815 123.093C120.721 123.125 120.621 123.134 120.522 123.12L106.061 121.861Z" fill="#263238"/>
<path d="M105.815 119.014C105.593 118.988 105.388 118.888 105.23 118.731C105.073 118.574 104.973 118.368 104.947 118.147C104.934 118.048 104.944 117.948 104.976 117.854C105.009 117.761 105.062 117.675 105.133 117.606C105.203 117.536 105.289 117.483 105.383 117.452C105.478 117.421 105.578 117.412 105.676 117.425L126.62 119.244C126.84 119.269 127.046 119.367 127.204 119.523C127.361 119.679 127.461 119.884 127.488 120.104C127.5 120.202 127.49 120.301 127.458 120.394C127.426 120.487 127.374 120.572 127.304 120.642C127.234 120.711 127.149 120.764 127.056 120.796C126.963 120.828 126.863 120.838 126.766 120.825L105.815 119.014Z" fill="#263238"/>
<g opacity="0.5">
<path opacity="0.5" d="M105.56 116.159C105.34 116.132 105.134 116.032 104.977 115.875C104.82 115.718 104.72 115.513 104.692 115.292C104.68 115.19 104.691 115.087 104.726 114.99C104.761 114.894 104.818 114.807 104.893 114.737C104.968 114.666 105.058 114.615 105.157 114.586C105.256 114.557 105.36 114.552 105.46 114.571L130.152 116.719C130.372 116.745 130.577 116.844 130.734 117C130.891 117.155 130.992 117.359 131.019 117.579C131.034 117.681 131.023 117.785 130.989 117.883C130.955 117.98 130.898 118.068 130.823 118.139C130.747 118.209 130.656 118.261 130.557 118.289C130.457 118.317 130.353 118.321 130.251 118.3L105.56 116.159Z" fill="white"/>
<path opacity="0.5" d="M106.061 121.861C105.841 121.836 105.636 121.737 105.478 121.581C105.321 121.425 105.221 121.221 105.193 121.002C105.18 120.903 105.19 120.803 105.222 120.709C105.255 120.616 105.308 120.53 105.379 120.461C105.449 120.391 105.535 120.338 105.63 120.307C105.724 120.276 105.824 120.267 105.922 120.28L120.384 121.539C120.604 121.563 120.81 121.662 120.968 121.818C121.125 121.974 121.225 122.178 121.252 122.399C121.265 122.497 121.254 122.597 121.222 122.691C121.19 122.785 121.136 122.87 121.066 122.94C120.995 123.01 120.909 123.062 120.815 123.093C120.721 123.125 120.621 123.134 120.522 123.12L106.061 121.861Z" fill="white"/>
<path opacity="0.5" d="M105.815 119.014C105.593 118.988 105.388 118.888 105.23 118.731C105.073 118.574 104.973 118.368 104.947 118.147C104.934 118.048 104.944 117.948 104.976 117.855C105.009 117.761 105.062 117.675 105.133 117.606C105.203 117.536 105.289 117.483 105.383 117.452C105.478 117.421 105.578 117.412 105.676 117.426L126.62 119.244C126.84 119.269 127.046 119.367 127.204 119.523C127.361 119.679 127.461 119.884 127.488 120.104C127.5 120.202 127.49 120.301 127.458 120.394C127.426 120.487 127.374 120.572 127.304 120.642C127.234 120.711 127.149 120.764 127.056 120.796C126.963 120.828 126.863 120.838 126.766 120.825L105.815 119.014Z" fill="white"/>
</g>
<path d="M136.59 109.214L131.883 108.861C131.737 108.841 131.59 108.856 131.451 108.903C131.313 108.951 131.187 109.03 131.084 109.134C130.982 109.238 130.904 109.365 130.859 109.504C130.814 109.643 130.801 109.791 130.823 109.935L131.207 113.849C131.247 114.172 131.396 114.472 131.629 114.699C131.862 114.926 132.165 115.068 132.489 115.1L133.856 115.208L134.525 116.167C134.564 116.24 134.622 116.302 134.692 116.347C134.763 116.393 134.843 116.42 134.926 116.426C135.01 116.432 135.093 116.417 135.169 116.382C135.245 116.348 135.311 116.295 135.362 116.228L135.845 115.346L137.197 115.453C137.344 115.47 137.492 115.452 137.631 115.401C137.769 115.35 137.894 115.268 137.995 115.161C138.096 115.054 138.171 114.925 138.214 114.783C138.257 114.642 138.266 114.493 138.242 114.348L137.85 110.442C137.804 110.128 137.655 109.837 137.428 109.615C137.2 109.394 136.906 109.253 136.59 109.214Z" fill="#407BFF"/>
<g opacity="0.9">
<path opacity="0.9" d="M132.965 112.399C132.624 112.097 132.4 111.683 132.335 111.232C132.303 111.103 132.305 110.968 132.341 110.84C132.377 110.712 132.445 110.596 132.54 110.502C132.634 110.408 132.751 110.341 132.88 110.306C133.008 110.271 133.143 110.27 133.272 110.304C133.848 110.357 134.04 110.641 134.447 111.071C134.747 110.718 134.923 110.465 135.499 110.519C135.788 110.533 136.062 110.652 136.268 110.855C136.475 111.057 136.6 111.328 136.621 111.616C136.633 111.816 136.6 112.017 136.525 112.203C136.449 112.389 136.332 112.556 136.183 112.69L134.716 114.141L132.965 112.399Z" fill="white"/>
</g>
<path d="M129.223 141.047L88.934 137.555C88.0849 137.459 87.293 137.08 86.6867 136.478C86.0804 135.877 85.6951 135.088 85.5932 134.24L85.0864 128.438C85.0381 128.06 85.0776 127.676 85.2018 127.315C85.326 126.954 85.5315 126.627 85.8025 126.359C86.0735 126.09 86.4026 125.887 86.7645 125.766C87.1264 125.645 87.5114 125.609 87.8896 125.66L128.179 129.152C129.025 129.256 129.813 129.638 130.417 130.238C131.022 130.838 131.41 131.623 131.52 132.467L132.027 138.269C132.075 138.647 132.035 139.032 131.911 139.392C131.787 139.753 131.581 140.08 131.31 140.349C131.039 140.617 130.71 140.82 130.348 140.941C129.986 141.062 129.601 141.099 129.223 141.047Z" fill="white"/>
<path d="M95.5919 132.229C95.6503 132.683 95.6034 133.143 95.4551 133.576C95.3067 134.008 95.0607 134.4 94.7362 134.722C94.4117 135.044 94.0174 135.287 93.5838 135.433C93.1502 135.578 92.6889 135.621 92.2357 135.56C91.2207 135.443 90.2747 134.988 89.5502 134.268C88.8256 133.549 88.3649 132.606 88.2421 131.592C88.185 131.14 88.2328 130.68 88.3818 130.249C88.5307 129.817 88.7769 129.426 89.1012 129.105C89.4256 128.784 89.8194 128.541 90.2524 128.397C90.6853 128.252 91.1458 128.208 91.5983 128.269C92.6126 128.385 93.5585 128.838 94.2831 129.556C95.0078 130.275 95.4689 131.217 95.5919 132.229Z" fill="#407BFF"/>
<path d="M100.301 130.595C100.081 130.569 99.8761 130.47 99.7187 130.315C99.5614 130.159 99.4609 129.955 99.4332 129.735C99.414 129.634 99.4192 129.529 99.4485 129.43C99.4777 129.331 99.5301 129.24 99.6014 129.165C99.6727 129.09 99.7607 129.033 99.8583 128.999C99.9559 128.964 100.06 128.954 100.163 128.968L124.854 131.117C125.077 131.143 125.285 131.245 125.443 131.406C125.601 131.566 125.699 131.775 125.722 131.999C125.735 132.098 125.725 132.198 125.692 132.292C125.66 132.385 125.606 132.471 125.536 132.54C125.465 132.61 125.379 132.663 125.285 132.694C125.191 132.725 125.091 132.734 124.992 132.721L100.301 130.595Z" fill="#263238"/>
<path d="M100.799 136.297C100.579 136.272 100.373 136.174 100.215 136.018C100.058 135.862 99.9575 135.657 99.9312 135.437C99.9184 135.339 99.9285 135.239 99.9608 135.145C99.993 135.051 100.047 134.966 100.117 134.896C100.188 134.826 100.274 134.774 100.368 134.742C100.462 134.711 100.562 134.702 100.661 134.716L120.575 136.443C120.795 136.468 121 136.567 121.157 136.723C121.315 136.879 121.415 137.083 121.443 137.302C121.457 137.404 121.447 137.509 121.413 137.606C121.378 137.703 121.321 137.791 121.246 137.862C121.171 137.932 121.079 137.984 120.98 138.012C120.881 138.04 120.776 138.044 120.675 138.024L100.799 136.297Z" fill="#263238"/>
<path d="M100.546 133.45C100.325 133.422 100.12 133.322 99.963 133.165C99.8058 133.008 99.7055 132.803 99.6782 132.582C99.6638 132.48 99.6742 132.376 99.7084 132.279C99.7427 132.181 99.7999 132.094 99.8752 132.023C99.9504 131.952 100.042 131.901 100.141 131.872C100.24 131.844 100.345 131.84 100.446 131.861L118.294 133.396C118.514 133.422 118.72 133.52 118.877 133.676C119.034 133.832 119.135 134.036 119.162 134.255C119.177 134.358 119.166 134.462 119.132 134.559C119.098 134.656 119.041 134.744 118.965 134.815C118.89 134.886 118.799 134.937 118.7 134.965C118.6 134.993 118.496 134.997 118.394 134.977L100.546 133.45Z" fill="#263238"/>
<g opacity="0.5">
<path opacity="0.5" d="M100.301 130.595C100.081 130.569 99.8761 130.47 99.7187 130.315C99.5614 130.159 99.4609 129.955 99.4332 129.735C99.414 129.634 99.4192 129.529 99.4485 129.43C99.4777 129.331 99.5301 129.24 99.6014 129.165C99.6727 129.09 99.7607 129.033 99.8583 128.999C99.9559 128.964 100.06 128.954 100.163 128.968L124.854 131.117C125.077 131.143 125.285 131.245 125.443 131.406C125.601 131.566 125.699 131.775 125.722 131.999C125.735 132.098 125.725 132.198 125.692 132.292C125.66 132.385 125.606 132.471 125.536 132.54C125.465 132.61 125.379 132.663 125.285 132.694C125.191 132.725 125.091 132.734 124.992 132.721L100.301 130.595Z" fill="white"/>
<path opacity="0.5" d="M100.799 136.297C100.579 136.272 100.373 136.174 100.215 136.018C100.058 135.862 99.9575 135.657 99.9312 135.437C99.9184 135.339 99.9285 135.239 99.9608 135.145C99.993 135.051 100.047 134.966 100.117 134.896C100.188 134.826 100.274 134.774 100.368 134.742C100.462 134.711 100.562 134.702 100.661 134.716L120.575 136.443C120.795 136.468 121 136.567 121.157 136.723C121.315 136.879 121.415 137.083 121.443 137.302C121.457 137.404 121.447 137.509 121.413 137.606C121.378 137.703 121.321 137.791 121.246 137.862C121.171 137.932 121.079 137.984 120.98 138.012C120.881 138.04 120.776 138.044 120.675 138.024L100.799 136.297Z" fill="white"/>
<path opacity="0.5" d="M100.546 133.45C100.325 133.422 100.12 133.322 99.963 133.165C99.8058 133.008 99.7055 132.803 99.6782 132.582C99.6638 132.48 99.6742 132.376 99.7084 132.279C99.7427 132.181 99.7999 132.094 99.8752 132.023C99.9504 131.952 100.042 131.901 100.141 131.872C100.24 131.844 100.345 131.84 100.446 131.861L118.294 133.396C118.514 133.422 118.72 133.52 118.877 133.676C119.034 133.832 119.135 134.036 119.162 134.255C119.177 134.358 119.166 134.462 119.132 134.559C119.098 134.657 119.041 134.744 118.965 134.815C118.89 134.886 118.799 134.937 118.7 134.965C118.6 134.994 118.496 134.997 118.394 134.977L100.546 133.45Z" fill="white"/>
</g>
<path d="M131.459 125.2L126.751 124.839C126.607 124.823 126.46 124.839 126.323 124.888C126.186 124.936 126.062 125.015 125.96 125.119C125.858 125.222 125.781 125.348 125.734 125.485C125.688 125.623 125.673 125.769 125.691 125.913L126.075 129.835C126.118 130.157 126.268 130.455 126.5 130.682C126.733 130.909 127.035 131.051 127.358 131.086L128.725 131.193L129.393 132.153C129.433 132.227 129.492 132.29 129.563 132.336C129.634 132.381 129.716 132.408 129.801 132.413C129.885 132.419 129.969 132.403 130.046 132.366C130.122 132.33 130.188 132.275 130.238 132.206L130.714 131.331L132.073 131.439C132.218 131.457 132.365 131.441 132.503 131.393C132.641 131.345 132.766 131.266 132.868 131.162C132.97 131.059 133.048 130.933 133.094 130.794C133.14 130.656 133.153 130.509 133.133 130.364L132.749 126.451C132.705 126.128 132.554 125.83 132.32 125.603C132.086 125.376 131.783 125.234 131.459 125.2Z" fill="#407BFF"/>
<path opacity="0.9" d="M127.865 129.589C127.769 129.579 127.679 129.537 127.611 129.468C127.542 129.4 127.499 129.31 127.489 129.213L127.374 127.901C127.368 127.858 127.372 127.814 127.385 127.773C127.399 127.731 127.421 127.693 127.452 127.662C127.482 127.631 127.52 127.607 127.561 127.593C127.602 127.578 127.646 127.574 127.689 127.579C127.785 127.592 127.874 127.636 127.943 127.704C128.012 127.771 128.057 127.859 128.073 127.955L128.188 129.275C128.193 129.318 128.188 129.362 128.174 129.403C128.159 129.444 128.136 129.481 128.104 129.512C128.073 129.542 128.035 129.565 127.994 129.578C127.953 129.592 127.909 129.596 127.865 129.589Z" fill="white"/>
<path opacity="0.9" d="M128.518 127.586C128.745 127.428 128.935 127.222 129.075 126.984C129.216 126.746 129.303 126.48 129.332 126.205C129.332 125.867 129.801 125.814 129.977 126.128C130.128 126.582 130.101 127.076 129.901 127.51L130.791 127.586C130.912 127.602 131.028 127.647 131.128 127.716C131.228 127.786 131.31 127.878 131.367 127.985C131.435 128.11 131.457 128.254 131.429 128.392L131.168 129.651C131.152 129.717 131.123 129.779 131.082 129.833C131.041 129.888 130.99 129.933 130.931 129.967C130.872 130.001 130.807 130.022 130.739 130.03C130.671 130.037 130.603 130.031 130.538 130.011L128.833 129.605C128.763 129.586 128.701 129.547 128.654 129.492C128.608 129.437 128.579 129.369 128.572 129.298L128.441 127.763C128.442 127.73 128.449 127.697 128.462 127.667C128.475 127.636 128.494 127.609 128.518 127.586Z" fill="white"/>
<path opacity="0.8" d="M149.551 94.0417L154.166 146.719H228.662L224.047 94.0417H149.551Z" fill="white"/>
<g opacity="0.2">
<path opacity="0.2" d="M151.842 146.473C151.685 146.469 151.535 146.408 151.42 146.302C151.304 146.197 151.23 146.053 151.212 145.897L149.761 129.305C149.753 129.232 149.761 129.158 149.784 129.087C149.808 129.017 149.846 128.953 149.896 128.898C149.946 128.844 150.007 128.801 150.075 128.772C150.143 128.743 150.217 128.728 150.291 128.73C150.447 128.733 150.597 128.793 150.711 128.899C150.826 129.005 150.898 129.15 150.913 129.305L152.364 145.897C152.372 145.97 152.364 146.044 152.341 146.114C152.318 146.183 152.281 146.247 152.232 146.302C152.182 146.356 152.122 146.399 152.055 146.429C151.988 146.458 151.915 146.473 151.842 146.473Z" fill="black"/>
</g>
<g opacity="0.2">
<path opacity="0.2" d="M150.122 126.811C149.964 126.81 149.813 126.751 149.696 126.644C149.58 126.538 149.507 126.392 149.492 126.236L147.457 102.706C147.448 102.633 147.455 102.559 147.477 102.489C147.5 102.418 147.537 102.354 147.586 102.299C147.636 102.245 147.697 102.201 147.764 102.172C147.832 102.143 147.905 102.129 147.979 102.13C148.137 102.132 148.288 102.191 148.405 102.297C148.521 102.404 148.594 102.549 148.609 102.706L150.667 126.236C150.676 126.311 150.669 126.387 150.645 126.459C150.621 126.531 150.582 126.597 150.53 126.652C150.478 126.707 150.414 126.75 150.344 126.777C150.273 126.805 150.197 126.816 150.122 126.811Z" fill="black"/>
</g>
<g opacity="0.2">
<path opacity="0.2" d="M147.802 100.335C147.645 100.332 147.494 100.272 147.378 100.166C147.262 100.06 147.189 99.9152 147.172 99.7591L146.75 94.8629C146.741 94.7897 146.748 94.7155 146.77 94.6453C146.793 94.5751 146.83 94.5106 146.879 94.456C146.929 94.4014 146.99 94.3581 147.057 94.329C147.125 94.2999 147.198 94.2857 147.272 94.2873C147.429 94.2901 147.58 94.3502 147.696 94.4562C147.812 94.5621 147.885 94.7068 147.902 94.8629L148.324 99.7591C148.333 99.8323 148.326 99.9065 148.304 99.9767C148.281 100.047 148.244 100.111 148.195 100.166C148.145 100.221 148.084 100.264 148.017 100.293C147.949 100.322 147.876 100.336 147.802 100.335Z" fill="black"/>
</g>
<g opacity="0.2">
<path opacity="0.2" d="M230.944 146.473C230.787 146.47 230.636 146.41 230.52 146.304C230.404 146.198 230.331 146.054 230.314 145.897L228.202 121.762C228.194 121.688 228.202 121.614 228.226 121.543C228.249 121.473 228.287 121.409 228.337 121.354C228.387 121.3 228.448 121.257 228.516 121.228C228.584 121.199 228.658 121.184 228.732 121.186C228.888 121.191 229.036 121.251 229.151 121.357C229.265 121.463 229.337 121.607 229.354 121.762L231.466 145.897C231.474 145.97 231.466 146.044 231.443 146.114C231.42 146.183 231.383 146.247 231.333 146.302C231.284 146.356 231.224 146.399 231.157 146.429C231.09 146.458 231.017 146.473 230.944 146.473Z" fill="black"/>
</g>
<g opacity="0.2">
<path opacity="0.2" d="M228.589 119.521C228.431 119.519 228.279 119.46 228.163 119.354C228.047 119.247 227.974 119.102 227.959 118.945L226.315 100.143C226.308 100.07 226.316 99.9963 226.338 99.9266C226.361 99.857 226.399 99.7929 226.448 99.7386C226.497 99.6843 226.557 99.641 226.624 99.6115C226.692 99.5819 226.764 99.5669 226.838 99.5673C226.995 99.5701 227.145 99.6301 227.261 99.7361C227.377 99.8421 227.45 99.9867 227.467 100.143L229.111 118.945C229.12 119.018 229.113 119.092 229.09 119.163C229.068 119.233 229.031 119.297 228.981 119.352C228.932 119.407 228.871 119.45 228.803 119.479C228.735 119.508 228.662 119.522 228.589 119.521Z" fill="black"/>
</g>
<g opacity="0.2">
<path opacity="0.2" d="M226.638 97.311C226.481 97.3079 226.332 97.2476 226.217 97.1415C226.102 97.0354 226.031 96.8909 226.015 96.7354L225.847 94.8629C225.839 94.7893 225.847 94.715 225.87 94.6448C225.894 94.5746 225.932 94.5101 225.982 94.4557C226.032 94.4013 226.093 94.3581 226.161 94.3291C226.229 94.3 226.302 94.2858 226.376 94.2873C226.533 94.2886 226.684 94.3483 226.799 94.4548C226.914 94.5612 226.985 94.7067 226.999 94.8629L227.168 96.7354C227.175 96.809 227.167 96.8833 227.144 96.9535C227.12 97.0237 227.083 97.0881 227.032 97.1425C226.982 97.197 226.921 97.2401 226.853 97.2692C226.785 97.2982 226.712 97.3125 226.638 97.311Z" fill="black"/>
</g>
<path d="M215.361 117.226C215.354 117.127 215.367 117.028 215.4 116.935C215.433 116.841 215.485 116.756 215.553 116.683C215.621 116.611 215.703 116.554 215.795 116.515C215.886 116.477 215.984 116.457 216.083 116.459C216.295 116.462 216.498 116.542 216.656 116.683C216.814 116.823 216.916 117.016 216.943 117.226L217.857 127.64C217.865 127.739 217.852 127.838 217.819 127.932C217.786 128.025 217.734 128.111 217.666 128.183C217.598 128.255 217.515 128.312 217.424 128.351C217.333 128.39 217.235 128.409 217.135 128.408C216.923 128.405 216.719 128.326 216.561 128.185C216.403 128.044 216.301 127.85 216.275 127.64L215.361 117.226Z" fill="#407BFF"/>
<path d="M155.136 98.4698C154.924 98.4677 154.719 98.3887 154.561 98.2476C154.403 98.1064 154.302 97.9127 154.275 97.7024C154.268 97.6036 154.281 97.5043 154.314 97.4109C154.347 97.3175 154.399 97.232 154.467 97.1598C154.535 97.0876 154.617 97.0303 154.709 96.9916C154.8 96.9529 154.898 96.9336 154.997 96.9349H173.091C173.304 96.9371 173.508 97.016 173.666 97.1572C173.824 97.2983 173.926 97.4921 173.952 97.7024C173.959 97.8012 173.946 97.9004 173.913 97.9939C173.88 98.0873 173.828 98.1728 173.76 98.245C173.692 98.3172 173.61 98.3745 173.518 98.4132C173.427 98.4519 173.329 98.4712 173.23 98.4698H155.136Z" fill="#263238"/>
<path d="M155.659 104.18C155.446 104.177 155.242 104.098 155.084 103.957C154.926 103.816 154.824 103.622 154.798 103.412C154.792 103.314 154.806 103.215 154.839 103.122C154.873 103.029 154.925 102.944 154.993 102.872C155.06 102.8 155.142 102.743 155.233 102.704C155.324 102.665 155.421 102.644 155.52 102.645H170.542C170.754 102.648 170.957 102.728 171.115 102.869C171.273 103.01 171.375 103.202 171.403 103.412C171.41 103.511 171.397 103.61 171.364 103.704C171.331 103.797 171.279 103.883 171.211 103.955C171.143 104.027 171.061 104.084 170.969 104.123C170.878 104.162 170.78 104.181 170.681 104.18H155.659Z" fill="#263238"/>
<path d="M155.405 101.302C155.193 101.3 154.989 101.221 154.831 101.079C154.673 100.938 154.571 100.745 154.545 100.534C154.538 100.435 154.551 100.336 154.584 100.243C154.617 100.149 154.669 100.064 154.737 99.9916C154.805 99.9194 154.887 99.8622 154.978 99.8234C155.069 99.7847 155.168 99.7654 155.267 99.7668H167.225C167.437 99.7689 167.641 99.8479 167.799 99.989C167.957 100.13 168.059 100.324 168.085 100.534C168.092 100.633 168.079 100.732 168.046 100.826C168.013 100.919 167.961 101.005 167.893 101.077C167.825 101.149 167.743 101.206 167.652 101.245C167.56 101.284 167.462 101.303 167.363 101.302H155.405Z" fill="#263238"/>
<g opacity="0.5">
<path opacity="0.5" d="M155.136 98.4698C154.924 98.4677 154.719 98.3887 154.561 98.2476C154.403 98.1064 154.302 97.9127 154.275 97.7024C154.268 97.6036 154.281 97.5043 154.314 97.4109C154.347 97.3175 154.399 97.232 154.467 97.1598C154.535 97.0876 154.617 97.0303 154.709 96.9916C154.8 96.9529 154.898 96.9336 154.997 96.9349H173.091C173.304 96.9371 173.508 97.016 173.666 97.1572C173.824 97.2983 173.926 97.4921 173.952 97.7024C173.959 97.8012 173.946 97.9004 173.913 97.9939C173.88 98.0873 173.828 98.1728 173.76 98.245C173.692 98.3172 173.61 98.3745 173.518 98.4132C173.427 98.4519 173.329 98.4712 173.23 98.4698H155.136Z" fill="white"/>
<path opacity="0.5" d="M155.659 104.18C155.446 104.177 155.242 104.098 155.084 103.957C154.926 103.816 154.824 103.622 154.798 103.412C154.792 103.314 154.806 103.215 154.839 103.122C154.873 103.029 154.925 102.944 154.993 102.872C155.06 102.8 155.142 102.743 155.233 102.704C155.324 102.665 155.421 102.644 155.52 102.645H170.542C170.754 102.648 170.957 102.728 171.115 102.869C171.273 103.01 171.375 103.202 171.403 103.412C171.41 103.511 171.397 103.61 171.364 103.704C171.331 103.797 171.279 103.883 171.211 103.955C171.143 104.027 171.061 104.084 170.969 104.123C170.878 104.162 170.78 104.181 170.681 104.18H155.659Z" fill="white"/>
<path opacity="0.5" d="M155.405 101.302C155.193 101.3 154.989 101.221 154.831 101.079C154.673 100.938 154.571 100.745 154.545 100.534C154.538 100.435 154.551 100.336 154.584 100.243C154.617 100.149 154.669 100.064 154.737 99.9916C154.805 99.9194 154.887 99.8621 154.978 99.8234C155.069 99.7847 155.168 99.7654 155.267 99.7668H167.225C167.437 99.7689 167.641 99.8479 167.799 99.989C167.957 100.13 168.059 100.324 168.085 100.534C168.092 100.633 168.079 100.732 168.046 100.826C168.013 100.919 167.961 101.005 167.893 101.077C167.825 101.149 167.743 101.206 167.652 101.245C167.56 101.284 167.462 101.303 167.363 101.302H155.405Z" fill="white"/>
</g>
<path d="M219.685 110.741C219.743 111.263 219.689 111.791 219.527 112.29C219.364 112.789 219.097 113.248 218.743 113.636C218.389 114.024 217.956 114.332 217.474 114.539C216.991 114.747 216.47 114.849 215.945 114.839C214.829 114.82 213.759 114.392 212.937 113.637C212.116 112.882 211.601 111.851 211.49 110.741C211.434 110.22 211.489 109.693 211.652 109.195C211.815 108.696 212.082 108.238 212.436 107.852C212.79 107.465 213.222 107.157 213.704 106.95C214.186 106.743 214.706 106.641 215.231 106.651C216.342 106.681 217.405 107.111 218.224 107.863C219.042 108.615 219.561 109.637 219.685 110.741Z" fill="#407BFF"/>
<path d="M213.574 112.698C213.45 112.698 213.33 112.652 213.239 112.568C213.148 112.484 213.092 112.369 213.082 112.245L212.928 110.526C212.922 110.468 212.928 110.41 212.946 110.355C212.964 110.299 212.993 110.248 213.033 110.205C213.072 110.163 213.12 110.129 213.173 110.106C213.227 110.083 213.285 110.072 213.343 110.073C213.466 110.076 213.584 110.124 213.674 110.207C213.765 110.291 213.822 110.404 213.835 110.526L213.981 112.245C213.987 112.302 213.981 112.36 213.964 112.415C213.946 112.47 213.917 112.52 213.879 112.563C213.84 112.606 213.793 112.64 213.741 112.663C213.688 112.687 213.631 112.698 213.574 112.698Z" fill="white"/>
<path d="M214.417 109.981C215.005 109.504 215.383 108.815 215.469 108.063C215.477 107.967 215.515 107.875 215.578 107.803C215.642 107.73 215.727 107.68 215.822 107.66C215.916 107.641 216.014 107.652 216.102 107.692C216.189 107.733 216.261 107.801 216.307 107.886C216.504 108.489 216.469 109.143 216.207 109.72H217.343C217.502 109.719 217.659 109.762 217.794 109.845C217.93 109.928 218.04 110.047 218.111 110.189C218.196 110.348 218.226 110.532 218.196 110.71L217.858 112.399C217.821 112.58 217.714 112.739 217.56 112.841C217.406 112.943 217.217 112.98 217.036 112.944L214.832 112.598C214.743 112.585 214.66 112.543 214.597 112.477C214.535 112.412 214.496 112.328 214.486 112.238L214.31 110.265C214.305 110.213 214.313 110.16 214.331 110.111C214.35 110.062 214.379 110.018 214.417 109.981Z" fill="white"/>
<path d="M221.729 134.125C221.618 133.015 221.103 131.985 220.282 131.229C219.461 130.474 218.39 130.046 217.274 130.027C216.749 130.017 216.228 130.119 215.745 130.327C215.263 130.534 214.83 130.842 214.476 131.23C214.122 131.618 213.855 132.077 213.693 132.576C213.53 133.075 213.476 133.603 213.534 134.125C213.658 135.229 214.177 136.251 214.996 137.003C215.814 137.755 216.877 138.185 217.989 138.215C218.513 138.225 219.034 138.123 219.516 137.916C219.998 137.709 220.43 137.402 220.784 137.015C221.137 136.628 221.405 136.17 221.568 135.672C221.731 135.173 221.786 134.646 221.729 134.125Z" fill="#407BFF"/>
<path d="M215.277 132.168C215.219 132.167 215.161 132.178 215.107 132.2C215.054 132.223 215.005 132.257 214.966 132.3C214.927 132.343 214.897 132.394 214.879 132.449C214.861 132.504 214.855 132.563 214.862 132.621L215.016 134.347C215.027 134.47 215.084 134.585 215.174 134.668C215.265 134.752 215.384 134.799 215.507 134.8C215.565 134.801 215.622 134.789 215.674 134.766C215.727 134.742 215.774 134.708 215.813 134.665C215.851 134.623 215.88 134.572 215.897 134.517C215.915 134.463 215.921 134.405 215.914 134.347L215.768 132.621C215.754 132.499 215.696 132.387 215.606 132.304C215.516 132.221 215.399 132.173 215.277 132.168Z" fill="white"/>
<path d="M216.578 134.885C217.243 135.352 217.732 136.027 217.968 136.803C218.038 137.241 218.675 137.379 218.829 136.98C218.982 136.581 218.89 136.136 218.414 135.146H219.566C219.712 135.147 219.855 135.104 219.976 135.022C220.097 134.939 220.19 134.822 220.242 134.685C220.299 134.513 220.299 134.327 220.242 134.156L219.604 132.475C219.538 132.293 219.411 132.138 219.245 132.038C219.078 131.937 218.883 131.897 218.69 131.922L216.548 132.268C216.462 132.281 216.385 132.327 216.332 132.395C216.279 132.464 216.255 132.55 216.264 132.636L216.44 134.601C216.442 134.655 216.456 134.708 216.479 134.757C216.503 134.806 216.537 134.85 216.578 134.885Z" fill="white"/>
<path d="M205.146 137.778C212.89 129.695 212.008 116.295 203.178 107.848C194.348 99.4011 180.912 99.106 173.169 107.189C165.426 115.272 166.307 128.672 175.137 137.119C183.967 145.566 197.403 145.861 205.146 137.778Z" fill="#407BFF"/>
<path opacity="0.6" d="M202.82 107.503C198.606 103.567 193.067 101.354 187.299 101.302C175.602 101.302 166.947 110.779 167.969 122.468H189.15L202.82 107.503Z" fill="white"/>
<path opacity="0.2" d="M172.863 107.503L189.153 122.468L187.302 101.302C184.594 101.265 181.91 101.798 179.422 102.866C176.934 103.935 174.7 105.514 172.863 107.503Z" fill="black"/>
<path d="M172.863 107.503L189.153 122.468L187.302 101.302C184.594 101.265 181.91 101.798 179.422 102.866C176.934 103.935 174.7 105.514 172.863 107.503Z" fill="#407BFF"/>
<path opacity="0.3" d="M172.863 107.503L189.153 122.468L187.302 101.302C184.594 101.265 181.91 101.798 179.422 102.866C176.934 103.935 174.7 105.514 172.863 107.503Z" fill="black"/>
<path opacity="0.3" d="M191.009 143.633C202.706 143.633 211.361 134.156 210.34 122.468H189.151L175.48 137.433C179.697 141.37 185.239 143.583 191.009 143.633Z" fill="white"/>
<path d="M204.871 140.019C204.948 140.675 204.883 141.34 204.68 141.969C204.478 142.598 204.142 143.175 203.696 143.663C203.251 144.151 202.705 144.537 202.097 144.796C201.488 145.054 200.831 145.178 200.17 145.161C198.769 145.136 197.426 144.599 196.394 143.652C195.363 142.704 194.714 141.412 194.572 140.019C194.493 139.362 194.557 138.696 194.759 138.067C194.961 137.437 195.296 136.858 195.742 136.369C196.188 135.881 196.735 135.494 197.344 135.235C197.953 134.976 198.61 134.851 199.272 134.869C200.673 134.898 202.016 135.437 203.047 136.385C204.078 137.333 204.727 138.626 204.871 140.019Z" fill="#263238"/>
<path d="M197.931 140.871C197.516 140.552 197.24 140.084 197.163 139.566C197.137 139.414 197.146 139.257 197.189 139.109C197.233 138.96 197.31 138.824 197.415 138.71C197.519 138.596 197.648 138.507 197.792 138.45C197.937 138.394 198.092 138.371 198.246 138.384C198.922 138.384 199.175 138.691 199.605 139.152C199.959 138.699 200.158 138.384 200.834 138.384C201.162 138.372 201.481 138.489 201.722 138.71C201.964 138.931 202.109 139.239 202.124 139.566C202.139 139.807 202.102 140.049 202.014 140.274C201.927 140.499 201.791 140.703 201.618 140.871L199.959 142.743L197.931 140.871Z" fill="#407BFF"/>
<path d="M175.819 114.233C175.891 114.888 175.822 115.552 175.618 116.179C175.414 116.806 175.078 117.382 174.633 117.869C174.189 118.356 173.645 118.743 173.039 119.004C172.433 119.265 171.778 119.394 171.119 119.382C169.717 119.354 168.375 118.815 167.344 117.867C166.313 116.918 165.664 115.626 165.52 114.233C165.443 113.577 165.507 112.912 165.71 112.283C165.913 111.654 166.248 111.076 166.694 110.589C167.14 110.101 167.686 109.715 168.294 109.456C168.902 109.198 169.559 109.073 170.22 109.091C171.621 109.116 172.965 109.653 173.996 110.6C175.028 111.548 175.676 112.84 175.819 114.233Z" fill="#263238"/>
<path d="M173.913 114.233C173.958 114.645 173.914 115.062 173.785 115.456C173.656 115.85 173.445 116.212 173.165 116.519C172.886 116.825 172.544 117.068 172.163 117.233C171.782 117.397 171.371 117.478 170.956 117.472C170.073 117.456 169.226 117.118 168.576 116.521C167.925 115.924 167.515 115.111 167.423 114.233C167.379 113.82 167.422 113.403 167.552 113.008C167.681 112.613 167.893 112.251 168.173 111.944C168.454 111.638 168.796 111.395 169.178 111.231C169.56 111.067 169.972 110.986 170.388 110.994C171.27 111.01 172.116 111.349 172.765 111.945C173.415 112.542 173.823 113.356 173.913 114.233Z" fill="#407BFF"/>
<path opacity="0.5" d="M173.913 114.233C173.958 114.645 173.914 115.062 173.785 115.456C173.656 115.85 173.445 116.212 173.165 116.519C172.886 116.825 172.544 117.068 172.163 117.233C171.782 117.397 171.371 117.478 170.956 117.472C170.073 117.456 169.226 117.118 168.576 116.521C167.925 115.924 167.515 115.111 167.423 114.233C167.379 113.82 167.422 113.403 167.552 113.008C167.681 112.613 167.893 112.251 168.173 111.944C168.454 111.638 168.796 111.395 169.178 111.231C169.56 111.067 169.972 110.986 170.388 110.994C171.27 111.01 172.116 111.349 172.765 111.945C173.415 112.542 173.823 113.356 173.913 114.233Z" fill="white"/>
<path d="M171.855 114.924C171.553 115.215 171.15 115.378 170.73 115.378C170.31 115.378 169.907 115.215 169.605 114.924C169.581 114.894 169.55 114.87 169.516 114.853C169.481 114.836 169.443 114.827 169.405 114.826C169.367 114.825 169.329 114.832 169.293 114.847C169.258 114.862 169.226 114.884 169.2 114.913C169.174 114.941 169.154 114.974 169.142 115.011C169.13 115.047 169.126 115.086 169.13 115.124C169.135 115.162 169.147 115.199 169.167 115.232C169.186 115.265 169.213 115.293 169.244 115.315C169.654 115.716 170.206 115.941 170.78 115.941C171.354 115.941 171.906 115.716 172.316 115.315C172.562 115.069 172.132 114.678 171.886 114.924H171.855Z" fill="#407BFF"/>
<path d="M169.805 113.182C169.805 113.527 169.735 113.819 169.582 113.819C169.428 113.819 169.282 113.527 169.252 113.182C169.221 112.836 169.321 112.537 169.474 112.537C169.628 112.537 169.774 112.813 169.805 113.182Z" fill="#407BFF"/>
<path d="M171.901 113.182C171.901 113.527 171.832 113.819 171.686 113.819C171.54 113.819 171.386 113.527 171.348 113.182C171.309 112.836 171.417 112.537 171.57 112.537C171.724 112.537 171.87 112.813 171.901 113.182Z" fill="#407BFF"/>
<path d="M207.26 109.559C207.338 110.215 207.273 110.88 207.07 111.509C206.868 112.138 206.532 112.716 206.086 113.204C205.64 113.691 205.095 114.078 204.486 114.336C203.878 114.594 203.221 114.719 202.56 114.701C201.16 114.675 199.817 114.137 198.786 113.19C197.754 112.243 197.106 110.952 196.961 109.559C196.889 108.904 196.958 108.241 197.162 107.614C197.367 106.987 197.702 106.41 198.147 105.923C198.592 105.436 199.135 105.049 199.741 104.788C200.347 104.527 201.002 104.398 201.662 104.41C203.064 104.435 204.408 104.973 205.44 105.922C206.472 106.871 207.119 108.165 207.26 109.559Z" fill="#263238"/>
<path d="M205.355 109.559C205.4 109.971 205.356 110.388 205.227 110.782C205.099 111.177 204.887 111.539 204.608 111.845C204.328 112.151 203.987 112.395 203.606 112.559C203.225 112.723 202.813 112.805 202.398 112.798C201.515 112.782 200.669 112.444 200.018 111.847C199.367 111.251 198.957 110.437 198.866 109.559C198.82 109.146 198.862 108.727 198.991 108.332C199.12 107.936 199.332 107.573 199.612 107.266C199.893 106.958 200.236 106.714 200.618 106.55C201.001 106.386 201.414 106.305 201.83 106.313C202.713 106.329 203.56 106.669 204.21 107.267C204.859 107.865 205.267 108.681 205.355 109.559Z" fill="#407BFF"/>
<path opacity="0.5" d="M205.355 109.559C205.4 109.971 205.356 110.388 205.227 110.782C205.099 111.177 204.887 111.539 204.608 111.845C204.328 112.151 203.987 112.395 203.606 112.559C203.225 112.723 202.813 112.805 202.398 112.798C201.515 112.782 200.669 112.444 200.018 111.847C199.367 111.251 198.957 110.437 198.866 109.559C198.82 109.146 198.862 108.727 198.991 108.332C199.12 107.936 199.332 107.573 199.612 107.266C199.893 106.958 200.236 106.714 200.618 106.55C201.001 106.386 201.414 106.305 201.83 106.313C202.713 106.329 203.56 106.669 204.21 107.267C204.859 107.865 205.267 108.681 205.355 109.559Z" fill="white"/>
<path d="M201.124 111.171C201.428 110.879 201.832 110.716 202.253 110.716C202.674 110.716 203.079 110.879 203.382 111.171C203.407 111.2 203.437 111.224 203.472 111.241C203.506 111.258 203.544 111.267 203.582 111.268C203.621 111.269 203.659 111.262 203.694 111.247C203.729 111.232 203.761 111.21 203.787 111.182C203.813 111.154 203.833 111.12 203.845 111.084C203.857 111.047 203.861 111.009 203.857 110.971C203.853 110.933 203.84 110.896 203.821 110.863C203.801 110.83 203.775 110.801 203.743 110.779C203.332 110.38 202.781 110.157 202.207 110.157C201.634 110.157 201.083 110.38 200.671 110.779C200.433 111.025 200.863 111.416 201.101 111.171H201.124Z" fill="#407BFF"/>
<path d="M201.215 108.5C201.215 108.853 201.146 109.137 200.992 109.137C200.838 109.137 200.693 108.853 200.662 108.5C200.631 108.147 200.731 107.863 200.885 107.863C201.038 107.863 201.215 108.147 201.215 108.5Z" fill="#407BFF"/>
<path d="M203.344 108.5C203.344 108.853 203.275 109.137 203.129 109.137C202.983 109.137 202.83 108.853 202.799 108.5C202.768 108.147 202.86 107.863 203.014 107.863C203.167 107.863 203.313 108.147 203.344 108.5Z" fill="#407BFF"/>
<path d="M174.981 133.761C176.864 131.795 176.652 128.538 174.507 126.487C172.362 124.435 169.097 124.365 167.214 126.331C165.331 128.297 165.543 131.553 167.688 133.605C169.833 135.657 173.098 135.726 174.981 133.761Z" fill="#263238"/>
<path d="M173.539 132.363C174.724 131.126 174.589 129.076 173.238 127.783C171.886 126.491 169.831 126.446 168.646 127.682C167.461 128.919 167.595 130.97 168.947 132.262C170.298 133.555 172.354 133.6 173.539 132.363Z" fill="#407BFF"/>
<path opacity="0.5" d="M173.539 132.363C174.724 131.126 174.589 129.076 173.238 127.783C171.886 126.491 169.831 126.446 168.646 127.682C167.461 128.919 167.595 130.97 168.947 132.262C170.298 133.555 172.354 133.6 173.539 132.363Z" fill="white"/>
<path d="M169.581 131.055C170.011 131.475 170.589 131.71 171.19 131.71C171.791 131.71 172.369 131.475 172.799 131.055L172.753 130.51H169.527L169.581 131.055Z" fill="#407BFF"/>
<path d="M170.671 129.052C170.479 128.874 170.227 128.774 169.965 128.774C169.702 128.774 169.45 128.874 169.258 129.052C169.066 129.229 169.389 129.52 169.581 129.351C169.689 129.244 169.835 129.183 169.988 129.183C170.14 129.183 170.287 129.244 170.395 129.351C170.617 129.52 170.886 129.229 170.671 129.052Z" fill="#407BFF"/>
<path d="M172.8 129.052C172.608 128.874 172.356 128.774 172.094 128.774C171.831 128.774 171.579 128.874 171.387 129.052C171.195 129.229 171.518 129.52 171.71 129.351C171.82 129.245 171.967 129.186 172.12 129.186C172.274 129.186 172.421 129.245 172.531 129.351C172.746 129.52 173.023 129.229 172.8 129.052Z" fill="#407BFF"/>
<path d="M229.538 166.787H205.723V170.655H253.354V169.066L229.538 166.787Z" fill="#407BFF"/>
<path opacity="0.6" d="M229.538 166.787H205.723V170.655H253.354V169.066L229.538 166.787Z" fill="white"/>
<path opacity="0.6" d="M229.538 170.655H205.723V166.787L229.538 169.066V170.655Z" fill="white"/>
<g opacity="0.5">
<path opacity="0.5" d="M305.848 124.755L302.568 87.3267L298.129 87.7181L279.137 142.475L300.341 140.602L305.848 124.755Z" fill="white"/>
</g>
<g opacity="0.5">
<path opacity="0.5" d="M204.985 146.719L223.264 94.0417H202.704L184.426 146.719H204.985Z" fill="white"/>
</g>
<path opacity="0.5" d="M130.613 144.869L145.612 101.647L144.928 93.8345L128.263 92.3917L110.652 143.142L130.613 144.869Z" fill="white"/>
<path d="M115.387 173.64H268.418V176.902C268.418 177.075 268.384 177.247 268.318 177.407C268.251 177.567 268.154 177.713 268.032 177.835C267.909 177.958 267.763 178.055 267.603 178.121C267.443 178.188 267.271 178.222 267.097 178.222H116.738C116.388 178.222 116.052 178.083 115.804 177.835C115.557 177.588 115.417 177.252 115.417 176.902V173.64H115.387Z" fill="#407BFF"/>
<path opacity="0.2" d="M115.387 173.64H268.418V176.902C268.418 177.075 268.384 177.247 268.318 177.407C268.251 177.567 268.154 177.713 268.032 177.835C267.909 177.958 267.763 178.055 267.603 178.121C267.443 178.188 267.271 178.222 267.097 178.222H116.738C116.388 178.222 116.052 178.083 115.804 177.835C115.557 177.588 115.417 177.252 115.417 176.902V173.64H115.387Z" fill="black"/>
<path opacity="0.3" d="M115.387 173.64H184.66V178.245H116.738C116.388 178.245 116.052 178.106 115.804 177.858C115.557 177.611 115.417 177.275 115.417 176.925V173.663L115.387 173.64Z" fill="white"/>
<path d="M271.534 170.655H112.266C111.405 170.655 110.707 171.352 110.707 172.213V172.934C110.707 173.795 111.405 174.492 112.266 174.492H271.534C272.395 174.492 273.093 173.795 273.093 172.934V172.213C273.093 171.352 272.395 170.655 271.534 170.655Z" fill="#407BFF"/>
<path opacity="0.4" d="M112.267 170.655H184.659V174.492H112.267C111.86 174.492 111.469 174.33 111.181 174.043C110.893 173.755 110.731 173.364 110.731 172.957V172.236C110.725 172.03 110.76 171.826 110.835 171.634C110.909 171.443 111.021 171.268 111.164 171.121C111.308 170.973 111.479 170.856 111.669 170.776C111.858 170.696 112.062 170.655 112.267 170.655Z" fill="white"/>
<path d="M176.578 270.491H123.463C121.932 270.489 120.464 269.88 119.381 268.798C118.299 267.716 117.69 266.25 117.688 264.72V184.001C117.69 182.471 118.299 181.004 119.381 179.922C120.464 178.84 121.932 178.232 123.463 178.229H176.578C178.109 178.232 179.577 178.84 180.659 179.922C181.742 181.004 182.351 182.471 182.353 184.001V264.72C182.351 266.25 181.742 267.716 180.659 268.798C179.577 269.88 178.109 270.489 176.578 270.491ZM123.463 181.299C122.746 181.301 122.06 181.587 121.554 182.093C121.047 182.599 120.762 183.285 120.76 184.001V264.72C120.762 265.435 121.047 266.121 121.554 266.628C122.06 267.134 122.746 267.419 123.463 267.421H176.578C177.294 267.419 177.981 267.134 178.487 266.628C178.994 266.121 179.279 265.435 179.281 264.72V184.001C179.279 183.285 178.994 182.599 178.487 182.093C177.981 181.587 177.294 181.301 176.578 181.299H123.463Z" fill="#263238"/>
<g opacity="0.4">
<path opacity="0.2" d="M176.578 270.491H123.463C121.932 270.489 120.464 269.88 119.381 268.798C118.299 267.716 117.69 266.25 117.688 264.72V184.001C117.69 182.471 118.299 181.004 119.381 179.922C120.464 178.84 121.932 178.232 123.463 178.229H176.578C178.109 178.232 179.577 178.84 180.659 179.922C181.742 181.004 182.351 182.471 182.353 184.001V264.72C182.351 266.25 181.742 267.716 180.659 268.798C179.577 269.88 178.109 270.489 176.578 270.491ZM123.463 181.299C122.746 181.301 122.06 181.587 121.554 182.093C121.047 182.599 120.762 183.285 120.76 184.001V264.72C120.762 265.435 121.047 266.121 121.554 266.628C122.06 267.134 122.746 267.419 123.463 267.421H176.578C177.294 267.419 177.981 267.134 178.487 266.628C178.994 266.121 179.279 265.435 179.281 264.72V184.001C179.279 183.285 178.994 182.599 178.487 182.093C177.981 181.587 177.294 181.301 176.578 181.299H123.463Z" fill="white"/>
</g>
<path opacity="0.2" d="M176.578 178.229H123.463C122.033 178.231 120.655 178.763 119.594 179.721C118.533 180.679 117.865 181.996 117.719 183.417H120.829C120.963 182.818 121.297 182.282 121.775 181.898C122.254 181.513 122.849 181.302 123.463 181.299H176.578C177.193 181.302 177.788 181.513 178.266 181.898C178.745 182.282 179.079 182.818 179.213 183.417H182.323C182.177 181.996 181.509 180.679 180.448 179.721C179.387 178.763 178.008 178.231 176.578 178.229Z" fill="black"/>
<path d="M259.261 270.491H206.146C204.615 270.489 203.148 269.88 202.065 268.798C200.982 267.716 200.373 266.25 200.371 264.72V184.001C200.373 182.471 200.982 181.004 202.065 179.922C203.148 178.84 204.615 178.232 206.146 178.229H259.261C260.792 178.234 262.258 178.843 263.341 179.924C264.423 181.006 265.033 182.471 265.037 184.001V264.72C265.033 266.249 264.423 267.715 263.341 268.796C262.258 269.877 260.792 270.487 259.261 270.491ZM206.146 181.299C205.43 181.301 204.744 181.587 204.237 182.093C203.731 182.599 203.445 183.285 203.443 184.001V264.72C203.445 265.435 203.731 266.121 204.237 266.628C204.744 267.134 205.43 267.419 206.146 267.421H259.261C259.978 267.419 260.664 267.134 261.171 266.628C261.677 266.121 261.963 265.435 261.965 264.72V184.001C261.963 183.285 261.677 182.599 261.171 182.093C260.664 181.587 259.978 181.301 259.261 181.299H206.146Z" fill="#263238"/>
<path opacity="0.1" d="M259.261 270.491H206.146C204.615 270.489 203.148 269.88 202.065 268.798C200.982 267.716 200.373 266.25 200.371 264.72V184.001C200.373 182.471 200.982 181.004 202.065 179.922C203.148 178.84 204.615 178.232 206.146 178.229H259.261C260.792 178.234 262.258 178.843 263.341 179.924C264.423 181.006 265.033 182.471 265.037 184.001V264.72C265.033 266.249 264.423 267.715 263.341 268.796C262.258 269.877 260.792 270.487 259.261 270.491ZM206.146 181.299C205.43 181.301 204.744 181.587 204.237 182.093C203.731 182.599 203.445 183.285 203.443 184.001V264.72C203.445 265.435 203.731 266.121 204.237 266.628C204.744 267.134 205.43 267.419 206.146 267.421H259.261C259.978 267.419 260.664 267.134 261.171 266.628C261.677 266.121 261.963 265.435 261.965 264.72V184.001C261.963 183.285 261.677 182.599 261.171 182.093C260.664 181.587 259.978 181.301 259.261 181.299H206.146Z" fill="white"/>
<path opacity="0.2" d="M259.262 178.229H206.147C204.717 178.231 203.338 178.763 202.278 179.721C201.217 180.679 200.549 181.996 200.402 183.417H203.474C203.61 182.818 203.945 182.282 204.425 181.897C204.905 181.512 205.501 181.301 206.116 181.299H259.231C259.849 181.297 260.45 181.505 260.933 181.89C261.417 182.276 261.754 182.814 261.888 183.417H264.999C264.853 181.997 264.186 180.681 263.126 179.723C262.067 178.766 260.69 178.233 259.262 178.229Z" fill="black"/>
<path d="M163.746 197.201H104.342C100.77 197.201 97.875 200.094 97.875 203.662V264.328C97.875 267.897 100.77 270.79 104.342 270.79H163.746C167.318 270.79 170.213 267.897 170.213 264.328V203.662C170.213 200.094 167.318 197.201 163.746 197.201Z" fill="#407BFF"/>
<path opacity="0.4" d="M163.746 197.201H104.342C100.77 197.201 97.875 200.094 97.875 203.662V264.328C97.875 267.897 100.77 270.79 104.342 270.79H163.746C167.318 270.79 170.213 267.897 170.213 264.328V203.662C170.213 200.094 167.318 197.201 163.746 197.201Z" fill="white"/>
<path opacity="0.1" d="M97.875 264.267V264.321C97.875 266.034 98.5563 267.678 99.769 268.89C100.982 270.102 102.627 270.782 104.342 270.782H163.746C165.461 270.782 167.106 270.102 168.319 268.89C169.532 267.678 170.213 266.034 170.213 264.321V264.267H97.875Z" fill="black"/>
<path d="M163.745 197.201H147.271C143.7 197.201 140.805 200.094 140.805 203.662V264.328C140.805 267.897 143.7 270.79 147.271 270.79H163.745C167.316 270.79 170.211 267.897 170.211 264.328V203.662C170.211 200.094 167.316 197.201 163.745 197.201Z" fill="#407BFF"/>
<path opacity="0.3" d="M163.746 200.654H147.272C145.61 200.654 144.262 202.001 144.262 203.662V264.328C144.262 265.99 145.61 267.337 147.272 267.337H163.746C165.409 267.337 166.756 265.99 166.756 264.328V203.662C166.756 202.001 165.409 200.654 163.746 200.654Z" fill="white"/>
<path opacity="0.7" d="M164.536 205.451H146.488V210.247H164.536V205.451Z" fill="white"/>
<path opacity="0.7" d="M164.536 211.206H146.488V216.003H164.536V211.206Z" fill="white"/>
<path d="M155.513 237.744C157.587 237.744 159.269 236.064 159.269 233.991C159.269 231.919 157.587 230.239 155.513 230.239C153.439 230.239 151.758 231.919 151.758 233.991C151.758 236.064 153.439 237.744 155.513 237.744Z" fill="#407BFF"/>
<g opacity="0.9">
<path opacity="0.9" d="M156.379 233.247C156.553 233.42 156.671 233.64 156.72 233.88C156.768 234.119 156.744 234.368 156.651 234.595C156.557 234.821 156.399 235.014 156.195 235.15C155.992 235.286 155.752 235.359 155.507 235.359C155.263 235.359 155.023 235.286 154.82 235.15C154.616 235.014 154.458 234.821 154.364 234.595C154.271 234.368 154.247 234.119 154.295 233.88C154.344 233.64 154.462 233.42 154.636 233.247C154.989 232.863 154.413 232.28 154.052 232.664C153.764 232.951 153.568 233.318 153.489 233.717C153.409 234.116 153.45 234.529 153.606 234.905C153.762 235.281 154.025 235.602 154.364 235.828C154.702 236.054 155.1 236.175 155.507 236.175C155.915 236.175 156.312 236.054 156.651 235.828C156.989 235.602 157.253 235.281 157.409 234.905C157.565 234.529 157.606 234.116 157.526 233.717C157.447 233.318 157.251 232.951 156.963 232.664C156.602 232.28 156.026 232.863 156.379 233.247Z" fill="white"/>
<path opacity="0.9" d="M155.137 231.804V233.677C155.15 233.776 155.199 233.867 155.275 233.933C155.351 233.999 155.447 234.035 155.548 234.035C155.648 234.035 155.745 233.999 155.82 233.933C155.896 233.867 155.945 233.776 155.958 233.677V231.804C155.945 231.705 155.896 231.614 155.82 231.548C155.745 231.482 155.648 231.446 155.548 231.446C155.447 231.446 155.351 231.482 155.275 231.548C155.199 231.614 155.15 231.705 155.137 231.804Z" fill="white"/>
</g>
<path d="M148.394 246.247C149.03 246.247 149.546 245.732 149.546 245.096C149.546 244.461 149.03 243.945 148.394 243.945C147.758 243.945 147.242 244.461 147.242 245.096C147.242 245.732 147.758 246.247 148.394 246.247Z" fill="#407BFF"/>
<path d="M153.14 246.247C153.777 246.247 154.292 245.732 154.292 245.096C154.292 244.461 153.777 243.945 153.14 243.945C152.504 243.945 151.988 244.461 151.988 245.096C151.988 245.732 152.504 246.247 153.14 246.247Z" fill="#407BFF"/>
<path d="M157.886 246.247C158.523 246.247 159.038 245.732 159.038 245.096C159.038 244.461 158.523 243.945 157.886 243.945C157.25 243.945 156.734 244.461 156.734 245.096C156.734 245.732 157.25 246.247 157.886 246.247Z" fill="#407BFF"/>
<path d="M162.632 246.247C163.269 246.247 163.784 245.732 163.784 245.096C163.784 244.461 163.269 243.945 162.632 243.945C161.996 243.945 161.48 244.461 161.48 245.096C161.48 245.732 161.996 246.247 162.632 246.247Z" fill="#407BFF"/>
<path d="M150.765 250.346C151.402 250.346 151.917 249.83 151.917 249.194C151.917 248.559 151.402 248.043 150.765 248.043C150.129 248.043 149.613 248.559 149.613 249.194C149.613 249.83 150.129 250.346 150.765 250.346Z" fill="#407BFF"/>
<path d="M155.511 250.346C156.148 250.346 156.663 249.83 156.663 249.194C156.663 248.559 156.148 248.043 155.511 248.043C154.875 248.043 154.359 248.559 154.359 249.194C154.359 249.83 154.875 250.346 155.511 250.346Z" fill="#407BFF"/>
<path d="M160.257 250.346C160.894 250.346 161.409 249.83 161.409 249.194C161.409 248.559 160.894 248.043 160.257 248.043C159.621 248.043 159.105 248.559 159.105 249.194C159.105 249.83 159.621 250.346 160.257 250.346Z" fill="#407BFF"/>
<path d="M148.394 254.873C149.03 254.873 149.546 254.358 149.546 253.722C149.546 253.086 149.03 252.571 148.394 252.571C147.758 252.571 147.242 253.086 147.242 253.722C147.242 254.358 147.758 254.873 148.394 254.873Z" fill="#407BFF"/>
<path d="M153.14 254.873C153.777 254.873 154.292 254.358 154.292 253.722C154.292 253.086 153.777 252.571 153.14 252.571C152.504 252.571 151.988 253.086 151.988 253.722C151.988 254.358 152.504 254.873 153.14 254.873Z" fill="#407BFF"/>
<path d="M157.886 254.873C158.523 254.873 159.038 254.358 159.038 253.722C159.038 253.086 158.523 252.571 157.886 252.571C157.25 252.571 156.734 253.086 156.734 253.722C156.734 254.358 157.25 254.873 157.886 254.873Z" fill="#407BFF"/>
<path d="M162.632 254.873C163.269 254.873 163.784 254.358 163.784 253.722C163.784 253.086 163.269 252.571 162.632 252.571C161.996 252.571 161.48 253.086 161.48 253.722C161.48 254.358 161.996 254.873 162.632 254.873Z" fill="#407BFF"/>
<path d="M150.765 258.972C151.402 258.972 151.917 258.456 151.917 257.82C151.917 257.185 151.402 256.669 150.765 256.669C150.129 256.669 149.613 257.185 149.613 257.82C149.613 258.456 150.129 258.972 150.765 258.972Z" fill="#407BFF"/>
<path d="M155.511 258.972C156.148 258.972 156.663 258.456 156.663 257.82C156.663 257.185 156.148 256.669 155.511 256.669C154.875 256.669 154.359 257.185 154.359 257.82C154.359 258.456 154.875 258.972 155.511 258.972Z" fill="#407BFF"/>
<path d="M160.257 258.972C160.894 258.972 161.409 258.456 161.409 257.82C161.409 257.185 160.894 256.669 160.257 256.669C159.621 256.669 159.105 257.185 159.105 257.82C159.105 258.456 159.621 258.972 160.257 258.972Z" fill="#407BFF"/>
<path d="M148.394 263.499C149.03 263.499 149.546 262.984 149.546 262.348C149.546 261.713 149.03 261.197 148.394 261.197C147.758 261.197 147.242 261.713 147.242 262.348C147.242 262.984 147.758 263.499 148.394 263.499Z" fill="#407BFF"/>
<path d="M153.14 263.499C153.777 263.499 154.292 262.984 154.292 262.348C154.292 261.713 153.777 261.197 153.14 261.197C152.504 261.197 151.988 261.713 151.988 262.348C151.988 262.984 152.504 263.499 153.14 263.499Z" fill="#407BFF"/>
<path d="M157.886 263.499C158.523 263.499 159.038 262.984 159.038 262.348C159.038 261.713 158.523 261.197 157.886 261.197C157.25 261.197 156.734 261.713 156.734 262.348C156.734 262.984 157.25 263.499 157.886 263.499Z" fill="#407BFF"/>
<path d="M162.632 263.499C163.269 263.499 163.784 262.984 163.784 262.348C163.784 261.713 163.269 261.197 162.632 261.197C161.996 261.197 161.48 261.713 161.48 262.348C161.48 262.984 161.996 263.499 162.632 263.499Z" fill="#407BFF"/>
<path d="M253.539 163.219L248.931 161.131L242.426 163.84V167.071C242.426 167.071 252.525 166.741 252.517 166.756C252.51 166.772 263.907 170.54 268.115 169.957C272.324 169.373 285.695 150.725 285.695 150.725L278.96 144.838L266.142 163.08L253.539 163.219Z" fill="#FCC1BB"/>
<path opacity="0.1" d="M253.539 163.218L248.931 161.131L242.426 163.84V167.071C242.426 167.071 252.525 166.741 252.517 166.756L253.285 167.002L256.542 163.165L253.539 163.218Z" fill="black"/>
<path d="M274.43 150.141C274.43 150.141 279.084 141.861 282.064 139.244C283.789 137.891 285.894 137.111 288.085 137.01C288.338 136.989 288.593 137.021 288.834 137.103C289.074 137.185 289.295 137.316 289.483 137.487C289.67 137.659 289.82 137.867 289.923 138.1C290.027 138.332 290.08 138.583 290.082 138.837C290.082 142.106 289.252 149.228 282.517 156.549L274.43 150.141Z" fill="#263238"/>
<path d="M274.429 148.583C278.036 150.424 281.119 153.146 283.392 156.496L281.579 157.892C279.223 155.015 276.414 152.539 273.262 150.563L274.429 148.583Z" fill="#407BFF"/>
<path d="M263.038 118.699L260.734 122.306C261.158 122.575 261.638 122.74 262.137 122.789C262.636 122.838 263.139 122.77 263.607 122.59L263.038 118.699Z" fill="#EB827E"/>
<path d="M262.657 120.979C262.108 121.016 261.56 120.887 261.086 120.609C260.611 120.331 260.231 119.916 259.995 119.42C259.759 118.923 259.678 118.367 259.763 117.824C259.848 117.28 260.094 116.775 260.47 116.374C260.846 115.972 261.334 115.693 261.871 115.572C262.407 115.452 262.968 115.495 263.48 115.697C263.991 115.899 264.43 116.25 264.74 116.705C265.049 117.16 265.214 117.697 265.214 118.247C265.237 118.948 264.98 119.629 264.501 120.141C264.021 120.654 263.358 120.955 262.657 120.979ZM262.657 116.09C262.222 116.053 261.786 116.148 261.406 116.362C261.027 116.577 260.721 116.901 260.528 117.292C260.336 117.683 260.266 118.124 260.329 118.555C260.391 118.986 260.582 119.389 260.877 119.71C261.172 120.031 261.557 120.256 261.982 120.354C262.407 120.453 262.852 120.421 263.258 120.263C263.665 120.105 264.014 119.828 264.26 119.468C264.506 119.108 264.638 118.683 264.638 118.247C264.659 117.699 264.462 117.165 264.091 116.761C263.72 116.357 263.205 116.116 262.657 116.09Z" fill="#407BFF"/>
<path d="M261.656 118.185C261.656 118.653 261.887 119.037 262.194 119.037C262.501 119.037 262.77 118.646 262.762 118.193C262.754 117.74 262.532 117.349 262.225 117.349C261.917 117.349 261.664 117.732 261.656 118.185Z" fill="#1A2E35"/>
<path d="M279.645 115.284C279.852 121.478 280.075 124.102 277.264 127.563C272.809 131.232 265.367 131.661 263.309 125.645C261.466 120.273 261.435 111.063 267.241 107.994C268.517 107.318 269.945 106.98 271.389 107.013C272.833 107.045 274.244 107.447 275.488 108.18C276.732 108.913 277.767 109.952 278.495 111.198C279.223 112.445 279.618 113.857 279.645 115.3V115.284Z" fill="#FCC1BB"/>
<path opacity="0.2" d="M270.943 130.188L270.897 129.889C270.874 129.731 270.818 129.579 270.733 129.444C270.647 129.309 270.533 129.194 270.4 129.106C270.266 129.018 270.115 128.96 269.958 128.935C269.8 128.91 269.638 128.918 269.484 128.96L266.965 129.651C268.226 130.156 269.593 130.341 270.943 130.188Z" fill="#1A2E35"/>
<path d="M263.333 116.082C263.293 116.086 263.253 116.08 263.215 116.065C263.178 116.051 263.145 116.028 263.118 115.998C262.928 115.759 262.685 115.569 262.407 115.444C262.129 115.318 261.825 115.261 261.52 115.277C261.489 115.28 261.457 115.278 261.427 115.269C261.397 115.26 261.369 115.246 261.344 115.226C261.32 115.206 261.299 115.182 261.284 115.155C261.269 115.127 261.259 115.097 261.255 115.066C261.252 115.034 261.255 115.003 261.263 114.973C261.272 114.942 261.287 114.914 261.306 114.89C261.326 114.865 261.35 114.844 261.378 114.829C261.405 114.814 261.435 114.804 261.467 114.801C261.851 114.771 262.237 114.836 262.59 114.99C262.944 115.144 263.254 115.382 263.494 115.683C263.538 115.73 263.562 115.792 263.562 115.856C263.562 115.92 263.538 115.982 263.494 116.029C263.447 116.063 263.391 116.082 263.333 116.082Z" fill="#1A2E35"/>
<path d="M270.711 128.622L272.07 137.824L279.758 136.235L277.293 126.819L270.711 128.622Z" fill="#FCC1BB"/>
<path d="M263.009 110.265C265.628 115.238 267.441 110.687 266.957 114.701C266.473 118.715 267.917 120.012 267.917 120.012L273.185 127.855C273.322 128.054 273.525 128.199 273.758 128.263C273.992 128.328 274.24 128.308 274.46 128.208C274.873 127.979 275.329 127.837 275.799 127.791C276.27 127.745 276.744 127.795 277.194 127.939C277.359 128.012 277.54 128.036 277.718 128.01C277.896 127.985 278.063 127.91 278.2 127.794C280.887 125.255 282.61 121.865 283.077 118.201C284.774 107.372 276.449 105.722 276.449 105.722C271.841 104.763 273.009 99.8589 270.259 99.8665C268.163 99.8665 268.777 103.312 268.777 103.312C268.777 103.312 266.534 101.632 265.229 102.207C263.547 102.975 265.037 106.39 265.037 106.39C265.037 106.39 260.444 105.384 263.009 110.265Z" fill="#1A2E35"/>
<path d="M268.422 117.095H260.742L261.111 116.328H268.422V117.095Z" fill="#407BFF"/>
<path d="M266.85 118.047C266.624 119.289 266.901 120.57 267.618 121.608C268.594 122.974 270.145 122.375 270.767 120.91C271.328 119.582 271.489 117.287 270.076 116.436C269.767 116.254 269.418 116.153 269.06 116.141C268.701 116.129 268.346 116.206 268.026 116.367C267.705 116.527 267.43 116.764 267.224 117.058C267.019 117.351 266.891 117.691 266.85 118.047Z" fill="#FFC3BD"/>
<path d="M268.641 134.463C268.641 134.463 273.579 129.797 278.755 130.173C282.273 130.434 283.363 134.846 283.363 134.846L268.641 134.463Z" fill="#263238"/>
<path opacity="0.2" d="M268.641 134.463C268.641 134.463 273.579 129.797 278.755 130.173C282.273 130.434 283.363 134.846 283.363 134.846L268.641 134.463Z" fill="white"/>
<path d="M271.97 190.869L261.157 138.139C261.046 137.653 261.042 137.148 261.143 136.66C261.245 136.172 261.451 135.712 261.747 135.311C262.043 134.91 262.422 134.577 262.858 134.335C263.294 134.093 263.778 133.948 264.275 133.91C271.056 133.342 284.735 132.797 289.312 136.98C299.972 146.757 300.832 191.66 300.832 191.66L271.97 190.869Z" fill="#263238"/>
<path opacity="0.5" d="M264.193 137.271C263.137 137.695 262.167 138.306 261.328 139.075L264.884 156.434C268.063 149.32 267.841 137.248 267.841 137.248L264.193 137.271Z" fill="black"/>
<path d="M231.981 162.558L227.373 160.256L220.945 163.234V166.779C220.945 166.779 230.929 166.411 230.929 166.426C230.929 166.442 242.188 170.586 246.351 169.949C250.513 169.312 263.777 148.883 263.777 148.883L257.118 142.421L244.446 162.436L231.981 162.558Z" fill="#FCC1BB"/>
<path d="M252.672 148.207C252.672 148.207 257.28 139.129 260.221 136.251C263.163 133.373 268.032 133.757 268.032 133.757C268.032 133.757 269.76 144.293 260.674 155.245L252.672 148.207Z" fill="#263238"/>
<path d="M252.672 146.496C256.333 148.582 259.395 151.574 261.565 155.183L259.776 156.718C259.776 156.718 256.12 151.607 251.551 148.676L252.672 146.496Z" fill="#263238"/>
<path opacity="0.2" d="M252.672 146.496C256.333 148.582 259.395 151.574 261.565 155.183L259.776 156.718C259.776 156.718 256.12 151.607 251.551 148.676L252.672 146.496Z" fill="white"/>
<path d="M268.863 248.473L271.498 261.212L276.689 260.445L275.437 248.043L268.863 248.473Z" fill="#FCC1BB"/>
<path opacity="0.2" d="M276.259 256.216L275.437 248.043L268.863 248.473L270.507 256.439L276.259 256.216Z" fill="black"/>
<path d="M299.667 190.485C299.667 190.485 302.309 204.299 293.285 204.299C284.261 204.299 272.257 207.246 272.257 207.246C272.257 207.246 275.713 210.523 276.481 252.326L268.993 252.648C268.993 252.648 256.551 205.466 259.009 200.278C262.465 192.98 280.359 190.485 280.359 190.485H299.667Z" fill="#407BFF"/>
<path opacity="0.2" d="M299.667 190.485C299.667 190.485 302.309 204.299 293.285 204.299C284.261 204.299 272.257 207.246 272.257 207.246C272.257 207.246 275.713 210.523 276.481 252.326L268.993 252.648C268.993 252.648 256.551 205.466 259.009 200.278C262.465 192.98 280.359 190.485 280.359 190.485H299.667Z" fill="black"/>
<path d="M267.402 250.407L277.586 250.154L277.256 254.375L268.716 254.735L267.402 250.407Z" fill="#407BFF"/>
<path opacity="0.5" d="M267.402 250.407L277.586 250.154L277.256 254.375L268.716 254.735L267.402 250.407Z" fill="white"/>
<path d="M269.162 262.018C268.605 262.145 268.021 262.066 267.518 261.796C267.454 261.719 267.414 261.624 267.405 261.524C267.395 261.424 267.416 261.323 267.464 261.235C267.499 261.156 267.549 261.084 267.612 261.024C267.676 260.965 267.751 260.919 267.833 260.89C268.701 260.529 270.721 261.381 270.805 261.42C270.831 261.43 270.852 261.448 270.866 261.472C270.88 261.495 270.886 261.523 270.882 261.55C270.882 261.576 270.873 261.601 270.858 261.621C270.843 261.642 270.822 261.657 270.797 261.665C270.263 261.828 269.716 261.947 269.162 262.018ZM268.171 261.067C268.089 261.075 268.009 261.096 267.933 261.128C267.881 261.142 267.833 261.168 267.793 261.204C267.753 261.24 267.722 261.285 267.702 261.335C267.626 261.512 267.702 261.581 267.702 261.619C267.994 261.941 269.361 261.788 270.352 261.542C269.66 261.252 268.921 261.091 268.171 261.067Z" fill="#407BFF"/>
<path d="M270.773 261.696C270.764 261.7 270.755 261.701 270.746 261.701C270.736 261.701 270.727 261.7 270.719 261.696C270.035 261.489 268.599 260.476 268.637 259.854C268.637 259.701 268.722 259.509 269.075 259.432C269.206 259.401 269.342 259.397 269.474 259.42C269.606 259.444 269.732 259.495 269.843 259.57C270.407 260.102 270.788 260.797 270.934 261.558C270.938 261.581 270.935 261.604 270.927 261.625C270.919 261.647 270.906 261.666 270.888 261.681C270.872 261.694 270.853 261.703 270.832 261.705C270.812 261.708 270.791 261.705 270.773 261.696ZM269.19 259.662H269.114C268.883 259.708 268.883 259.8 268.876 259.839C268.876 260.207 269.851 261.021 270.565 261.335C270.424 260.743 270.105 260.207 269.651 259.8C269.516 259.71 269.353 259.669 269.19 259.685V259.662Z" fill="#407BFF"/>
<path d="M271.259 260.844L277.157 260.13C277.264 260.119 277.373 260.143 277.465 260.2C277.557 260.257 277.627 260.343 277.664 260.445L279.307 265.119C279.347 265.217 279.367 265.322 279.364 265.427C279.361 265.533 279.337 265.637 279.292 265.733C279.248 265.829 279.184 265.914 279.104 265.984C279.025 266.054 278.932 266.107 278.831 266.139H278.67C276.535 266.354 274.63 266.469 271.981 266.792C268.855 267.168 269.677 267.444 266.021 267.935C263.809 268.234 263.103 265.763 264.032 265.525C268.263 264.474 268.555 263.123 270.022 261.389C270.352 261.06 270.793 260.866 271.259 260.844Z" fill="#407BFF"/>
<path d="M253.672 251.888L258.572 263.768L263.341 262.816L260.062 250.1L253.672 251.888Z" fill="#FCC1BB"/>
<path opacity="0.2" d="M262.243 258.58L260.062 250.1L253.672 251.888L256.859 259.609L262.243 258.58Z" fill="black"/>
<path d="M299.666 190.485C299.666 190.485 305.242 204.89 286.818 204.299C279.76 204.069 249.186 211.206 249.186 211.206C249.186 211.206 254.692 214.084 261.604 252.648L253.786 254.421C253.786 254.421 231.606 210.631 234.056 205.45C237.512 198.144 273.885 190.485 273.885 190.485H299.666Z" fill="#407BFF"/>
<path d="M252.832 253.922L262.109 251.942L263.069 255.779L254.176 257.828L252.832 253.922Z" fill="#407BFF"/>
<path opacity="0.5" d="M252.832 253.922L262.109 251.942L263.069 255.779L254.176 257.828L252.832 253.922Z" fill="white"/>
<path d="M255.621 264.305C255.068 264.438 254.485 264.361 253.985 264.09C253.919 264.015 253.877 263.92 253.866 263.82C253.855 263.72 253.875 263.619 253.924 263.53C253.997 263.372 254.13 263.248 254.293 263.185C255.168 262.824 257.18 263.676 257.272 263.714C257.295 263.726 257.315 263.743 257.328 263.765C257.342 263.787 257.349 263.812 257.349 263.837C257.347 263.863 257.337 263.888 257.321 263.909C257.304 263.929 257.282 263.945 257.257 263.952C256.724 264.12 256.176 264.238 255.621 264.305ZM254.638 263.361C254.554 263.37 254.471 263.391 254.392 263.423C254.342 263.439 254.295 263.466 254.255 263.502C254.216 263.538 254.184 263.581 254.162 263.63C254.085 263.799 254.162 263.875 254.162 263.914C254.462 264.236 255.821 264.083 256.812 263.837C256.125 263.539 255.387 263.377 254.638 263.361Z" fill="#407BFF"/>
<path d="M257.234 263.998H257.18C256.504 263.791 255.06 262.77 255.107 262.149C255.107 262.003 255.191 261.811 255.537 261.734C255.667 261.701 255.802 261.696 255.934 261.718C256.067 261.741 256.193 261.791 256.305 261.865C256.868 262.396 257.25 263.092 257.395 263.852C257.402 263.874 257.402 263.898 257.395 263.92C257.388 263.942 257.375 263.961 257.357 263.975C257.34 263.988 257.319 263.997 257.298 264.001C257.277 264.005 257.255 264.004 257.234 263.998ZM255.652 261.965H255.575C255.352 262.018 255.345 262.11 255.337 262.141C255.337 262.517 256.312 263.331 257.034 263.676C256.894 263.07 256.572 262.522 256.113 262.103C255.978 262.011 255.813 261.973 255.652 261.995V261.965Z" fill="#407BFF"/>
<path d="M257.719 263.131L263.625 262.425C263.732 262.413 263.84 262.438 263.932 262.495C264.024 262.552 264.094 262.638 264.131 262.74L265.775 267.413C265.814 267.511 265.832 267.616 265.828 267.721C265.824 267.827 265.799 267.93 265.753 268.025C265.708 268.12 265.644 268.205 265.564 268.274C265.484 268.343 265.392 268.395 265.291 268.426C265.241 268.451 265.186 268.464 265.13 268.465C262.995 268.687 261.09 268.795 258.441 269.117C255.315 269.493 256.137 269.777 252.489 270.268C250.277 270.56 249.57 268.096 250.492 267.858C254.723 266.799 255.015 265.449 256.49 263.714C256.814 263.376 257.251 263.168 257.719 263.131Z" fill="#407BFF"/>
<path d="M316.539 255.695C311.847 254.927 304.881 253.83 301.778 253.607C301.102 253.553 300.242 253.515 299.305 253.492V229.464H293.415V253.523C292.47 253.523 291.618 253.584 290.934 253.638C287.862 253.86 280.873 254.958 276.181 255.725C274.872 255.94 273.682 256.613 272.824 257.624C271.966 258.635 271.495 259.918 271.496 261.243V262.463H277.248L278.016 260.752C278.016 260.752 288.768 258.887 292.393 258.626C295.061 258.473 297.736 258.473 300.404 258.626C304.029 258.887 314.773 260.752 314.773 260.752L315.541 262.463H321.262V261.243C321.269 259.907 320.797 258.612 319.93 257.594C319.064 256.576 317.861 255.902 316.539 255.695Z" fill="#263238"/>
<path opacity="0.1" d="M316.539 255.695C311.847 254.927 304.881 253.83 301.778 253.607C301.102 253.553 300.242 253.515 299.305 253.492V229.464H293.415V253.523C292.47 253.523 291.618 253.584 290.934 253.638C287.862 253.86 280.873 254.958 276.181 255.725C274.872 255.94 273.682 256.613 272.824 257.624C271.966 258.635 271.495 259.918 271.496 261.243V262.463H277.248L278.016 260.752C278.016 260.752 288.768 258.887 292.393 258.626C295.061 258.473 297.736 258.473 300.404 258.626C304.029 258.887 314.773 260.752 314.773 260.752L315.541 262.463H321.262V261.243C321.269 259.907 320.797 258.612 319.93 257.594C319.064 256.576 317.861 255.902 316.539 255.695Z" fill="white"/>
<path d="M291.624 209.81H301.055V230.147C301.055 230.873 300.767 231.57 300.252 232.084C299.738 232.598 299.041 232.886 298.314 232.886H294.328C293.601 232.886 292.903 232.598 292.389 232.084C291.875 231.57 291.586 230.873 291.586 230.147V209.81H291.624Z" fill="#263238"/>
<path opacity="0.2" d="M301.094 209.81H291.625V215.427H301.094V209.81Z" fill="black"/>
<path d="M318.829 270.491C321.056 270.491 322.861 268.687 322.861 266.462C322.861 264.237 321.056 262.433 318.829 262.433C316.602 262.433 314.797 264.237 314.797 266.462C314.797 268.687 316.602 270.491 318.829 270.491Z" fill="#263238"/>
<path d="M273.891 270.491C276.118 270.491 277.923 268.687 277.923 266.462C277.923 264.237 276.118 262.433 273.891 262.433C271.665 262.433 269.859 264.237 269.859 266.462C269.859 268.687 271.665 270.491 273.891 270.491Z" fill="#263238"/>
<path d="M328.367 205.021C322.717 203.582 316.923 202.784 311.095 202.642C305.097 202.496 282.679 202.642 277.303 202.642C270.802 202.638 264.327 203.445 258.026 205.044C254.071 206.049 255.292 211.759 258.863 211.828C259.178 211.828 327.039 211.828 327.292 211.828C331.048 211.966 332.407 206.049 328.367 205.021Z" fill="#407BFF"/>
<path opacity="0.3" d="M328.367 205.021C322.717 203.582 316.923 202.784 311.095 202.642C305.097 202.496 282.679 202.642 277.303 202.642C270.802 202.638 264.327 203.445 258.026 205.044C254.071 206.049 255.292 211.759 258.863 211.828C259.178 211.828 327.039 211.828 327.292 211.828C331.048 211.966 332.407 206.049 328.367 205.021Z" fill="black"/>
<path d="M259.876 211.682C271.319 208.773 283.308 208.773 294.751 211.682C299.067 212.78 300.895 206.118 296.586 205.021C283.938 201.813 270.688 201.813 258.04 205.021C253.732 206.118 255.56 212.78 259.876 211.682Z" fill="#407BFF"/>
<g opacity="0.4">
<path opacity="0.4" d="M259.876 211.682C271.319 208.773 283.308 208.773 294.751 211.682C299.067 212.78 300.895 206.118 296.586 205.021C283.938 201.813 270.688 201.813 258.04 205.021C253.732 206.118 255.56 212.78 259.876 211.682Z" fill="white"/>
</g>
<path d="M310.212 155.598C309.824 155.589 309.442 155.687 309.106 155.88C308.77 156.074 308.494 156.356 308.307 156.695C299.184 171.986 295.91 190.06 299.091 207.576C299.142 208.018 299.348 208.427 299.673 208.731C299.998 209.035 300.421 209.213 300.865 209.234C302.255 209.326 326.893 209.234 327.745 209.234C328.11 209.242 328.472 209.17 328.806 209.022C329.14 208.875 329.437 208.655 329.676 208.38C329.915 208.104 330.091 207.779 330.19 207.428C330.289 207.077 330.309 206.708 330.249 206.348C327.375 190.029 330.489 173.222 339.019 159.013C340.071 157.263 338.52 155.621 336.953 155.59C336.255 155.582 311.809 155.628 310.212 155.598Z" fill="#407BFF"/>
<path opacity="0.2" d="M310.212 155.598C309.824 155.589 309.442 155.687 309.106 155.88C308.77 156.074 308.494 156.356 308.307 156.695C299.184 171.986 295.91 190.06 299.091 207.576C299.142 208.018 299.348 208.427 299.673 208.731C299.998 209.035 300.421 209.213 300.865 209.234C302.255 209.326 326.893 209.234 327.745 209.234C328.11 209.242 328.472 209.17 328.806 209.022C329.14 208.875 329.437 208.655 329.676 208.38C329.915 208.104 330.091 207.779 330.19 207.428C330.289 207.077 330.309 206.708 330.249 206.348C327.375 190.029 330.489 173.222 339.019 159.013C340.071 157.263 338.52 155.621 336.953 155.59C336.255 155.582 311.809 155.628 310.212 155.598Z" fill="black"/>
<path d="M303.515 206.356C300.636 190.037 303.751 173.228 312.285 159.021C313.821 156.473 309.835 154.155 308.307 156.718C299.184 172.009 295.91 190.083 299.091 207.599C299.621 210.508 304.06 209.28 303.538 206.379L303.515 206.356Z" fill="#407BFF"/>
<g opacity="0.4">
<path opacity="0.4" d="M303.515 206.356C300.636 190.037 303.751 173.228 312.285 159.021C313.821 156.473 309.835 154.155 308.307 156.718C299.184 172.009 295.91 190.083 299.091 207.599C299.621 210.508 304.06 209.28 303.538 206.379L303.515 206.356Z" fill="white"/>
</g>
<path d="M273.337 186.334L297.076 208.029C298.712 209.526 301.17 207.093 299.518 205.589L275.779 183.886C274.144 182.351 271.694 184.829 273.337 186.334Z" fill="#263238"/>
<g opacity="0.5">
<path opacity="0.5" d="M273.337 186.334L297.076 208.029C298.712 209.526 301.17 207.093 299.518 205.589L275.779 183.886C274.144 182.351 271.694 184.829 273.337 186.334Z" fill="white"/>
</g>
<path opacity="0.2" d="M275.779 183.886C274.144 182.351 271.694 184.829 273.337 186.334L277.876 190.486H282.991L275.779 183.886Z" fill="black"/>
<path d="M260.961 187.416H293.539C296.504 187.416 296.504 182.811 293.539 182.811H260.961C257.996 182.811 257.988 187.416 260.961 187.416Z" fill="#407BFF"/>
<g opacity="0.3">
<path opacity="0.3" d="M260.961 187.416H293.539C296.504 187.416 296.504 182.811 293.539 182.811H260.961C257.996 182.811 257.988 187.416 260.961 187.416Z" fill="white"/>
</g>
</svg>
