<svg width="48" height="48" viewBox="0 0 48 48" fill="none" xmlns="http://www.w3.org/2000/svg">
<g clip-path="url(#clip0)">
<path d="M24 31.9688C28.401 31.9688 31.9688 28.401 31.9688 24C31.9688 19.599 28.401 16.0312 24 16.0312C19.599 16.0312 16.0312 19.599 16.0312 24C16.0312 28.401 19.599 31.9688 24 31.9688Z" fill="white"/>
<path d="M13.4676 21.6949C14.5262 16.8541 18.8461 13.2188 24 13.2188H45.4557C44.3173 10.9587 42.8119 8.87081 40.9706 7.02938C36.4375 2.49647 30.4106 0 24 0C17.5893 0 11.5624 2.49647 7.02934 7.02938C6.5934 7.46531 6.17677 7.91531 5.77899 8.37787L13.4676 21.6949Z" fill="white"/>
<path d="M27.27 34.2737C26.2382 34.6029 25.1395 34.7812 24 34.7812C19.9952 34.7812 16.4936 32.5861 14.6346 29.336C14.6213 29.3155 14.608 29.295 14.5957 29.2737L3.93853 10.8149C1.37634 14.6962 0 19.2421 0 23.9999C0 30.4106 2.49647 36.4375 7.02938 40.9706C10.5022 44.4433 14.8522 46.7189 19.5793 47.5944L27.27 34.2737Z" fill="white"/>
<path d="M31.2545 16.0312C33.4202 18.0045 34.7814 20.8463 34.7814 24C34.7814 25.9836 34.2424 27.8433 33.3039 29.4416C33.2944 29.46 33.2861 29.4787 33.2757 29.4967L22.6163 47.9595C23.0754 47.9854 23.5367 48 24.0002 48C30.4108 48 36.4377 45.5035 40.9708 40.9706C45.5037 36.4375 48.0002 30.4106 48.0002 24C48.0002 21.2432 47.5372 18.5578 46.6506 16.0312H31.2545Z" fill="white"/>
</g>
<defs>
<clipPath id="clip0">
<rect width="48" height="48" fill="white"/>
</clipPath>
</defs>
</svg>
