<svg width="276" height="530" viewBox="0 0 276 530" fill="none" xmlns="http://www.w3.org/2000/svg">
<g opacity="0.65">
<path opacity="0.65" d="M248.883 157.184L99.182 4.17975L98.589 2.8418L98.462 3.43654L97.991 2.98441L98.256 4.48568L55.4011 212.608L53.704 213.095L55.155 213.362L-22.3211 427.786L-22.8265 428.206L-22.6684 428.272L-22.9414 428.556H-22.0357L193.09 529.722L189.034 520.276L193.339 522.141L193.37 521.505L269.55 345.824L270.222 345.907L205.55 242.369L249.663 156.995L248.883 157.184ZM175.277 179.255L137.063 226.603L131.142 191.888L175.277 179.255ZM130.982 190.863L99.873 8.22407L175.749 178.07L130.982 190.863ZM165.112 274.313L138.501 229.709L203.883 242.629L165.112 274.313ZM136.219 229.259L137.181 229.448L164.332 274.946L104.311 323.985L89.105 288.751L136.219 229.259ZM88.622 287.689L56.6564 213.541L135.126 229.046L88.622 287.689ZM103.47 324.629L102.965 325.049L103.114 325.072L-18.6621 424.813L88.409 289.635L103.47 324.629ZM103.936 325.691L104.007 325.759L103.811 325.964L104.408 326.64L122.408 368.332L-18.9881 426.361L103.936 325.691ZM106.486 329.08L136.106 362.659L123.27 367.915L106.486 329.08ZM105.19 326.128L104.834 325.29L198.728 336.95L137.082 362.247L105.19 326.128ZM136.187 227.64L136.102 227.728L135.735 228.11L125.943 226.182L57.9475 212.783L130.172 192.151L136.187 227.64ZM87.891 288.575L-20.3483 425.413L55.8603 214.227L87.891 288.575ZM-19.4775 427.581L122.705 369.232L148.584 429.081L-19.4775 427.581ZM148.917 430.033L187.07 518.304L-19.4395 428.608L148.917 430.033ZM123.602 368.831L136.731 363.447L194.851 429.425L149.585 429.035L123.602 368.831ZM196.271 429.441L137.803 363.025L200.364 337.344L196.271 429.441ZM200.341 336.16L105.503 324.345L164.785 275.808L200.37 335.437L200.341 336.16ZM165.573 275.165L204.395 243.394L200.446 333.615L165.573 275.165ZM137.833 228.538L137.383 227.799L176.395 179.459L204.185 241.639L137.833 228.538ZM176.6 177.522L100.313 6.75222L247.783 157.494L177.118 177.729L176.817 177.439L176.6 177.522ZM130.013 191.144L56.4718 212.151L98.666 7.11616L130.013 191.144ZM191.125 527.698L8.6507 441.9L187.655 519.651L191.125 527.698ZM150.049 430.045L196.265 430.442L192.323 520.568L188.37 518.853L150.049 430.045ZM193.408 518.639L201.34 337.359L268.458 345.698L193.408 518.639ZM202.158 336.437L201.446 335.241L205.434 244L268.246 344.675L202.158 336.437ZM205.039 241.212L177.121 178.739L247.735 158.557L205.039 241.212Z" fill="#D8E7FF"/>
<path opacity="0.65" d="M206.385 236.343C207.529 236.637 208.56 237.264 209.347 238.144C210.135 239.024 210.644 240.117 210.81 241.287C210.976 242.456 210.792 243.648 210.28 244.713C209.769 245.777 208.953 246.666 207.937 247.267C206.92 247.868 205.748 248.154 204.569 248.089C203.39 248.024 202.256 247.611 201.312 246.902C200.368 246.193 199.655 245.22 199.263 244.106C198.872 242.992 198.819 241.786 199.113 240.642C199.509 239.109 200.498 237.796 201.861 236.99C203.224 236.184 204.851 235.951 206.385 236.343Z" fill="#D8E7FF"/>
<path opacity="0.65" d="M165.791 270.764C166.681 270.991 167.483 271.476 168.097 272.159C168.711 272.842 169.108 273.691 169.239 274.6C169.37 275.508 169.228 276.436 168.832 277.264C168.437 278.092 167.804 278.784 167.015 279.253C166.225 279.722 165.315 279.946 164.398 279.897C163.481 279.849 162.599 279.529 161.864 278.979C161.129 278.43 160.573 277.674 160.267 276.809C159.962 275.943 159.919 275.006 160.146 274.116C160.296 273.526 160.562 272.97 160.927 272.482C161.292 271.993 161.75 271.582 162.274 271.271C162.798 270.959 163.379 270.754 163.982 270.667C164.586 270.58 165.2 270.613 165.791 270.764Z" fill="#D8E7FF"/>
<path opacity="0.65" d="M201.264 329.636C202.439 329.943 203.497 330.591 204.305 331.499C205.113 332.406 205.634 333.533 205.803 334.736C205.971 335.939 205.781 337.165 205.254 338.26C204.728 339.355 203.889 340.269 202.844 340.889C201.799 341.508 200.594 341.804 199.38 341.74C198.167 341.676 197 341.254 196.026 340.528C195.052 339.802 194.315 338.804 193.907 337.659C193.499 336.515 193.438 335.276 193.733 334.097C193.931 333.308 194.283 332.565 194.77 331.912C195.256 331.26 195.867 330.71 196.568 330.295C197.268 329.88 198.044 329.608 198.85 329.495C199.656 329.382 200.476 329.43 201.264 329.636Z" fill="#D8E7FF"/>
<path opacity="0.65" d="M248.429 150.977C249.89 151.35 251.207 152.149 252.214 153.271C253.222 154.393 253.873 155.788 254.087 157.281C254.301 158.774 254.067 160.296 253.415 161.656C252.764 163.016 251.723 164.152 250.426 164.92C249.129 165.688 247.632 166.055 246.127 165.972C244.621 165.89 243.174 165.363 241.968 164.458C240.762 163.553 239.851 162.311 239.351 160.888C238.851 159.466 238.785 157.927 239.16 156.466C239.662 154.51 240.92 152.833 242.658 151.804C244.396 150.774 246.472 150.477 248.429 150.977Z" fill="#D8E7FF"/>
<path opacity="0.65" d="M270.64 340.759C271.816 341.065 272.875 341.713 273.684 342.621C274.493 343.528 275.015 344.656 275.184 345.86C275.353 347.064 275.163 348.29 274.636 349.386C274.109 350.481 273.27 351.396 272.224 352.016C271.178 352.635 269.972 352.93 268.758 352.865C267.544 352.799 266.377 352.377 265.403 351.649C264.429 350.921 263.692 349.922 263.286 348.776C262.879 347.631 262.821 346.39 263.118 345.212C263.316 344.424 263.669 343.684 264.155 343.033C264.642 342.382 265.252 341.833 265.951 341.419C266.651 341.005 267.425 340.733 268.23 340.62C269.034 340.507 269.853 340.554 270.64 340.759Z" fill="#D8E7FF"/>
<path opacity="0.65" d="M138.976 222.55C140.154 222.853 141.216 223.499 142.027 224.405C142.838 225.312 143.363 226.438 143.535 227.642C143.707 228.847 143.518 230.075 142.992 231.172C142.466 232.269 141.627 233.186 140.581 233.807C139.535 234.427 138.328 234.724 137.114 234.66C135.899 234.595 134.73 234.172 133.756 233.444C132.781 232.716 132.044 231.716 131.637 230.569C131.231 229.423 131.173 228.182 131.471 227.002C131.67 226.216 132.022 225.477 132.507 224.827C132.992 224.178 133.601 223.631 134.298 223.217C134.996 222.803 135.768 222.531 136.571 222.417C137.373 222.302 138.191 222.347 138.976 222.55Z" fill="#D8E7FF"/>
<path opacity="0.65" d="M197.88 425.76C198.897 426.02 199.814 426.575 200.515 427.357C201.217 428.138 201.67 429.11 201.819 430.149C201.968 431.189 201.805 432.25 201.351 433.196C200.897 434.143 200.173 434.933 199.269 435.468C198.366 436.003 197.324 436.258 196.276 436.2C195.228 436.143 194.22 435.776 193.38 435.146C192.54 434.516 191.906 433.651 191.558 432.66C191.21 431.67 191.164 430.598 191.425 429.581C191.775 428.219 192.651 427.051 193.862 426.335C195.072 425.618 196.517 425.411 197.88 425.76Z" fill="#D8E7FF"/>
<path opacity="0.65" d="M99.7601 0.36169C100.777 0.62174 101.695 1.17763 102.396 1.95904C103.097 2.74045 103.551 3.71227 103.699 4.75154C103.848 5.79082 103.685 6.85086 103.231 7.79755C102.777 8.74426 102.053 9.53506 101.15 10.07C100.246 10.6049 99.2041 10.8598 98.1561 10.8025C97.1081 10.7452 96.1001 10.3783 95.2601 9.74806C94.4211 9.11796 93.7871 8.25286 93.4391 7.26234C93.0911 6.27182 93.0441 5.20035 93.3051 4.18347C93.6551 2.82111 94.5321 1.65333 95.7421 0.93672C96.9521 0.22011 98.3981 0.0132797 99.7601 0.36169Z" fill="#D8E7FF"/>
<path opacity="0.65" d="M105.536 320.878C106.382 321.096 107.144 321.56 107.727 322.211C108.309 322.862 108.686 323.671 108.809 324.536C108.932 325.401 108.795 326.283 108.417 327.071C108.039 327.859 107.436 328.517 106.685 328.962C105.933 329.407 105.066 329.619 104.194 329.572C103.321 329.525 102.483 329.221 101.783 328.697C101.084 328.173 100.555 327.454 100.264 326.631C99.973 325.807 99.933 324.915 100.148 324.069C100.441 322.932 101.172 321.957 102.182 321.359C103.192 320.761 104.398 320.588 105.536 320.878Z" fill="#D8E7FF"/>
</g>
</svg>
