<svg width="48" height="47" fill="none" xmlns="http://www.w3.org/2000/svg">
    <g clip-path="url(#a)" fill="#0074FF">
        <path d="M40.813 24.868h-18.51V6.364a.952.952 0 0 0-.952-.952A20.414 20.414 0 1 0 41.765 25.82a.952.952 0 0 0-.952-.952z"/>
        <path d="M27.398 1.015v19.462H46.86A19.463 19.463 0 0 0 27.398 1.015z"/>
        <path d="M46.861 21.428H27.4a.952.952 0 0 1-.952-.952V1.014A.951.951 0 0 1 27.4.062a20.433 20.433 0 0 1 20.414 20.414.952.952 0 0 1-.952.952zm-18.51-1.904h17.533A18.535 18.535 0 0 0 28.35 1.966v17.559z"/>
    </g>
    <defs>
        <clipPath id="a">
            <path fill="#fff" transform="translate(.938 .063)" d="M0 0h46.875v46.171H0z"/>
        </clipPath>
    </defs>
</svg>
