<svg width="52" height="45" fill="none" xmlns="http://www.w3.org/2000/svg">
    <g clip-path="url(#a)" stroke="#013B81" stroke-width="3" stroke-linejoin="round">
        <path d="M25.969 9.063c2.105 0 3.812-1.731 3.812-3.867s-1.707-3.868-3.812-3.868c-2.106 0-3.813 1.732-3.813 3.868s1.707 3.867 3.813 3.867zM17.816 19.476a8.38 8.38 0 0 1 .572-3.218 8.288 8.288 0 0 1 1.756-2.742 8.151 8.151 0 0 1 2.667-1.838 8.056 8.056 0 0 1 6.32 0 8.151 8.151 0 0 1 2.666 1.838 8.288 8.288 0 0 1 1.756 2.742c.4 1.023.594 2.117.572 3.218H17.816zM12.15 31.664c1.595-1.394 1.774-3.836.4-5.454a3.775 3.775 0 0 0-5.376-.407c-1.595 1.393-1.775 3.835-.401 5.454a3.775 3.775 0 0 0 5.376.407zM1.508 43.016a8.332 8.332 0 0 1 2.446-5.741 8.096 8.096 0 0 1 5.708-2.364c2.134 0 4.183.849 5.708 2.364a8.332 8.332 0 0 1 2.447 5.74H1.507zM44.974 31.47a3.907 3.907 0 0 0 0-5.47 3.774 3.774 0 0 0-5.392 0 3.907 3.907 0 0 0 0 5.47 3.774 3.774 0 0 0 5.392 0zM34.125 43.016c0-2.194.859-4.297 2.388-5.848a8.094 8.094 0 0 1 5.765-2.423c2.162 0 4.236.872 5.764 2.423a8.332 8.332 0 0 1 2.388 5.848H34.125z" fill="#013B81"/>
        <path d="m31.156 36.55-5.067-5.14h-.055l-5.067 5.14M26.063 24.28v7.13" stroke-linecap="round"/>
    </g>
    <defs>
        <clipPath id="a">
            <path fill="#fff" transform="translate(.188)" d="M0 0h51.563v44.344H0z"/>
        </clipPath>
    </defs>
</svg>
