<svg width="39" height="49" fill="none" xmlns="http://www.w3.org/2000/svg">
    <g clip-path="url(#a)">
        <path d="M7.04 32.145H2.086c-.737 0-1.335.597-1.335 1.335v14.06c0 .737.598 1.335 1.335 1.335h4.956c.737 0 1.335-.598 1.335-1.335V33.48c0-.738-.598-1.335-1.335-1.335zM17.193 27.104h-4.956c-.737 0-1.335.597-1.335 1.335V47.54c0 .738.598 1.335 1.335 1.335h4.956c.737 0 1.335-.597 1.335-1.335V28.44c0-.738-.598-1.335-1.335-1.335zM27.35 22.057h-4.956c-.738 0-1.335.597-1.335 1.335V47.54c0 .737.597 1.335 1.335 1.335h4.955c.738 0 1.335-.598 1.335-1.335V23.392c0-.738-.597-1.335-1.335-1.335zM37.502 17.016h-4.956c-.737 0-1.335.597-1.335 1.335V47.54c0 .737.598 1.335 1.335 1.335h4.956c.737 0 1.335-.598 1.335-1.335V18.35c0-.737-.598-1.334-1.335-1.334z" fill="#FF796D"/>
        <path d="M32.01.926h6.03C17.982 18.132 1.55 17.816 1.55 17.816M36.588 7.377 38.04.926" stroke="#FF796D" stroke-width="3" stroke-linecap="round" stroke-linejoin="round"/>
    </g>
    <defs>
        <clipPath id="a">
            <path fill="#fff" transform="translate(.75 .125)" d="M0 0h38.091v48.75H0z"/>
        </clipPath>
    </defs>
</svg>
