<svg width="164" height="164" fill="none" xmlns="http://www.w3.org/2000/svg">
    <path d="M122.427 118.487h-9.85a.999.999 0 0 1-.852-.882V58.332a1.003 1.003 0 0 1 .505-.856 1 1 0 0 1 .994.003l9.849 5.88a.998.998 0 0 1 .5.824v53.422a1.032 1.032 0 0 1-1.146.882zm-8.821-1.97h7.821V64.683l-7.88-4.734.059 56.568zM88.908 63.271a1.029 1.029 0 0 1-.647-.235 1.087 1.087 0 0 1-.353-.764V36.634a1.03 1.03 0 0 1 .559-.882 1 1 0 0 1 1.058 0l9.85 7.88a1.03 1.03 0 0 1 .382.793v16.083a.97.97 0 0 1-.823.97l-9.88 1.646-.146.147zm.97-24.58v22.434l7.909-1.323v-14.7l-7.909-6.41zM65.241 118.487H49.453a1.004 1.004 0 0 1-.97-1V58.332a.97.97 0 0 1 1.323-.912l15.788 5.88a.97.97 0 0 1 .617.912v53.393a1 1 0 0 1-.97.882zm-14.7-1.97H64.33v-51.57l-13.79-5.204v56.774z" fill="#4682B4"/>
    <path d="M49.45 118.487h-7.88a1 1 0 0 1-1-.882V64.242a1.03 1.03 0 0 1 .412-.794l7.88-5.88a1 1 0 0 1 1.029 0 .97.97 0 0 1 .558.881v59.156a1 1 0 0 1-1 .882zm-6.91-1.97h5.88V60.302l-5.88 4.44v51.775zM73.12 118.487h-7.88a1.002 1.002 0 0 1-1-1V47.424a1.03 1.03 0 0 1 .588-.912l23.668-10.76a.97.97 0 0 1 .941 0 1.028 1.028 0 0 1 .441.823v71.063a.97.97 0 0 1-.97.97h-14.7v8.82a1.003 1.003 0 0 1-.664 1.005c-.136.048-.281.067-.425.054zm-6.91-1.97h5.88v-8.821a.997.997 0 0 1 .97-.999h14.701V38.221L66.063 48.13l.147 68.387z" fill="#4682B4"/>
    <path d="M112.577 118.487h-7.909a1.002 1.002 0 0 1-.97-1v-8.82h-14.7a1.002 1.002 0 0 1-1-.971V62.272a1 1 0 0 1 .823-.97l23.521-3.94a.943.943 0 0 1 .794.205 1 1 0 0 1 .353.765v59.273a.999.999 0 0 1-.912.882zm-6.909-1.97h5.88v-57.01L89.85 63.125v43.514h14.701a1.001 1.001 0 0 1 1 1l.117 8.879z" fill="#4682B4"/>
    <path d="M104.668 128.336H73.121a.97.97 0 0 1-.97-.97v-19.728a1.001 1.001 0 0 1 .97-1h31.547a1.01 1.01 0 0 1 .707.293 1.01 1.01 0 0 1 .293.707v19.728a1.002 1.002 0 0 1-1 .97zm-30.548-1.911h29.578v-17.641H74.12v17.641z" fill="#4682B4"/>
    <path d="M124.395 128.336H39.602a.998.998 0 1 1 0-1.97h84.793a1 1 0 1 1 0 1.97zM75.09 50.452h-3.94v7.88h3.94v-7.88zM80.996 50.452h-3.94v7.88h3.94v-7.88zM75.09 60.302h-3.94v7.88h3.94v-7.88zM80.996 60.302h-3.94v7.88h3.94v-7.88zM75.09 70.18h-3.94v7.88h3.94v-7.88zM80.996 70.18h-3.94v7.88h3.94v-7.88zM75.09 80.03h-3.94v7.88h3.94v-7.88zM59.301 70.18h-3.94v7.88h3.94v-7.88zM59.301 80.03h-3.94v7.88h3.94v-7.88zM59.301 89.88h-3.94v7.879h3.94v-7.88zM59.301 99.758h-3.94v7.88h3.94v-7.88zM80.996 80.03h-3.94v7.88h3.94v-7.88zM96.787 66.211h-3.94v5.91h3.94v-5.91zM102.698 66.211h-3.94v5.91h3.94v-5.91zM108.606 66.211h-3.94v5.91h3.94v-5.91zM96.787 74.12h-3.94v5.91h3.94v-5.91zM102.698 74.12h-3.94v5.91h3.94v-5.91zM108.606 74.12h-3.94v5.91h3.94v-5.91zM96.787 82h-3.94v5.91h3.94V82zM102.698 82h-3.94v5.91h3.94V82zM108.606 82h-3.94v5.91h3.94V82zM96.787 89.88h-3.94v5.909h3.94v-5.91zM102.698 89.88h-3.94v5.909h3.94v-5.91zM96.787 97.788h-3.94v5.91h3.94v-5.91zM75.09 89.88h-3.94v7.879h3.94v-7.88zM98.757 111.578H79.03v3.939h19.728v-3.939zM98.757 117.487H79.03v3.94h19.728v-3.94z" fill="#4682B4"/>
    <path d="M73.119 128.336H45.511a.97.97 0 0 1-.97-.97v-9.761a.971.971 0 0 1 .97-.971H73.12a.997.997 0 0 1 1 .971v9.878a1.001 1.001 0 0 1-1 .853zm-26.461-1.97h25.638v-7.879H46.51l.147 7.879zM114.666 128.336a1.002 1.002 0 0 1-1-.97v-9.761a.997.997 0 0 1 .985-.829 1.001 1.001 0 0 1 .985.829v9.879a.97.97 0 0 1-.97.852z" fill="#4682B4"/>
</svg>
