<svg width="164" height="164" fill="none" xmlns="http://www.w3.org/2000/svg">
    <path d="M107.633 128.336H56.357a1 1 0 0 1-1-.97V36.634a1.12 1.12 0 0 1 .412-.794 1.059 1.059 0 0 1 .882 0l51.276 15.788a.944.944 0 0 1 .676.941v74.797a.97.97 0 0 1-.97.97zm-50.276-1.911h49.276V53.157l-49.276-15.17v88.438z" fill="#4682B4"/>
    <path d="M103.696 51.423a1.002 1.002 0 0 1-1-.97v-6.91H76.235a1 1 0 1 1 0-1.97h27.608a.97.97 0 0 1 .97.97v7.91a.974.974 0 0 1-.701.943.968.968 0 0 1-.416.027zM66.21 54.392h-3.94v7.88h3.94v-7.88zM72.123 54.392h-3.94v7.88h3.94v-7.88zM78.06 54.392h-3.939v7.88h3.94v-7.88zM66.21 44.542h-3.94v7.88h3.94v-7.88zM72.123 44.542h-3.94v7.88h3.94v-7.88zM83.967 54.392h-3.94v7.88h3.94v-7.88zM89.88 54.392h-3.94v7.88h3.94v-7.88zM66.21 64.242h-3.94v7.88h3.94v-7.88zM72.123 64.242h-3.94v7.88h3.94v-7.88zM78.06 64.242h-3.939v7.88h3.94v-7.88zM83.967 64.242h-3.94v7.88h3.94v-7.88zM89.88 64.242h-3.94v7.88h3.94v-7.88zM66.21 74.12h-3.94V82h3.94v-7.88zM72.123 74.12h-3.94V82h3.94v-7.88zM78.06 74.12h-3.939V82h3.94v-7.88zM83.967 74.12h-3.94V82h3.94v-7.88zM89.88 74.12h-3.94V82h3.94v-7.88zM66.21 83.97h-3.94v7.88h3.94v-7.88zM72.123 83.97h-3.94v7.88h3.94v-7.88zM78.06 83.97h-3.939v7.88h3.94v-7.88zM83.967 83.97h-3.94v7.88h3.94v-7.88zM89.88 83.97h-3.94v7.88h3.94v-7.88zM66.21 93.82h-3.94v7.879h3.94v-7.88zM72.123 93.82h-3.94v7.879h3.94v-7.88zM78.06 93.82h-3.939v7.879h3.94v-7.88zM83.967 93.82h-3.94v7.879h3.94v-7.88zM89.88 93.82h-3.94v7.879h3.94v-7.88zM95.785 54.392h-3.94v7.88h3.94v-7.88zM95.785 64.242h-3.94v7.88h3.94v-7.88zM95.785 74.12h-3.94V82h3.94v-7.88zM95.785 83.97h-3.94v7.88h3.94v-7.88zM95.785 93.82h-3.94v7.879h3.94v-7.88zM101.723 54.392h-3.94v7.88h3.94v-7.88zM101.723 64.242h-3.94v7.88h3.94v-7.88zM101.723 74.12h-3.94V82h3.94v-7.88zM101.723 83.97h-3.94v7.88h3.94v-7.88zM101.723 93.82h-3.94v7.879h3.94v-7.88zM91.847 128.336H72.148a1 1 0 0 1-1-.97v-19.728a1.006 1.006 0 0 1 .293-.707 1.01 1.01 0 0 1 .707-.293h19.699a1.004 1.004 0 0 1 .923.617c.05.122.077.252.077.383v19.728a1 1 0 0 1-1 .97zm-18.729-1.911H90.76v-17.641h-17.64v17.641z" fill="#4682B4"/>
    <path d="M83.966 118.487h-3.94a1 1 0 1 1 0-1.97h3.94a.998.998 0 1 1 0 1.97zM121.426 128.336h-13.79a.998.998 0 0 1-.999-.97V66.212a1.048 1.048 0 0 1 .441-.823.97.97 0 0 1 .941 0l13.818 5.88a.968.968 0 0 1 .588.911v55.186a.995.995 0 0 1-.999.97zm-12.819-1.911h11.76V72.797l-11.76-5.086v58.714zM56.363 128.336H42.545a.97.97 0 0 1-.97-.97V72.151a.97.97 0 0 1 .587-.912l13.819-5.88a.911.911 0 0 1 .911 0 1 1 0 0 1 .47.823v61.155a1.001 1.001 0 0 1-.999.999zm-12.819-1.911h11.76V67.623l-11.76 5.086v53.716z" fill="#4682B4"/>
    <path d="M125.395 128.336H38.602a.999.999 0 0 1 0-1.97h86.793a.996.996 0 0 1 .829.985 1.003 1.003 0 0 1-.829.985z" fill="#4682B4"/>
</svg>
